<?xml version="1.0" encoding="UTF-8" standalone="no"?>
<!DOCTYPE svg PUBLIC "-//W3C//DTD SVG 1.1//EN"
 "http://www.w3.org/Graphics/SVG/1.1/DTD/svg11.dtd">
<!-- Generated by graphviz version 7.0.5 (20221223.1930)
 -->
<!-- Title: external::ExternalIntegrationException Pages: 1 -->
<svg width="208pt" height="259pt"
 viewBox="0.00 0.00 208.00 259.00" xmlns="http://www.w3.org/2000/svg" xmlns:xlink="http://www.w3.org/1999/xlink">
<g id="graph0" class="graph" transform="scale(1 1) rotate(0) translate(4 255)">
<title>external::ExternalIntegrationException</title>
<!-- Node1 -->
<g id="node1" class="node">
<title>Node1</title>
<g id="a_node1"><a xlink:title="Custom exception indicating a problem when integrating with some external component.">
<polygon fill="#999999" stroke="#666666" points="158,-96 0,-96 0,0 158,0 158,-96"/>
<text text-anchor="start" x="8" y="-84" font-family="Helvetica,sans-Serif" font-size="10.00">{external::ExternalIntegration</text>
<text text-anchor="middle" x="79" y="-73" font-family="Helvetica,sans-Serif" font-size="10.00">Exception</text>
<text text-anchor="start" x="8" y="-62" font-family="Helvetica,sans-Serif" font-size="10.00">||+ ExternalIntegrationException()</text>
<text text-anchor="start" x="8" y="-51" font-family="Helvetica,sans-Serif" font-size="10.00">+ ExternalIntegrationException()</text>
<text text-anchor="start" x="8" y="-40" font-family="Helvetica,sans-Serif" font-size="10.00">+ ExternalIntegrationException()</text>
<text text-anchor="start" x="8" y="-29" font-family="Helvetica,sans-Serif" font-size="10.00">+ ExternalIntegrationException()</text>
<text text-anchor="start" x="8" y="-18" font-family="Helvetica,sans-Serif" font-size="10.00">+ what()</text>
<text text-anchor="middle" x="79" y="-7" font-family="Helvetica,sans-Serif" font-size="10.00">}</text>
</a>
</g>
</g>
<!-- Node2 -->
<g id="node2" class="node">
<title>Node2</title>
<g id="a_node2"><a xlink:title=" ">
<polygon fill="white" stroke="#666666" points="102.5,-173 23.5,-173 23.5,-143 102.5,-143 102.5,-173"/>
<text text-anchor="middle" x="63" y="-161" font-family="Helvetica,sans-Serif" font-size="10.00">{std::exception</text>
<text text-anchor="middle" x="63" y="-150" font-family="Helvetica,sans-Serif" font-size="10.00">||}</text>
</a>
</g>
</g>
<!-- Node2&#45;&gt;Node1 -->
<g id="edge1" class="edge">
<title>Node2&#45;&gt;Node1</title>
<path fill="none" stroke="#63b8ff" d="M66.76,-131.61C68.32,-121.09 70.18,-108.52 71.98,-96.41"/>
<polygon fill="none" stroke="#63b8ff" points="63.32,-130.98 65.31,-141.38 70.24,-132 63.32,-130.98"/>
</g>
<!-- Node3 -->
<g id="node3" class="node">
<title>Node3</title>
<g id="a_node3"><a xlink:title=" ">
<polygon fill="white" stroke="#666666" points="183,-173 121,-173 121,-143 183,-143 183,-173"/>
<text text-anchor="middle" x="152" y="-161" font-family="Helvetica,sans-Serif" font-size="10.00">{std::string</text>
<text text-anchor="middle" x="152" y="-150" font-family="Helvetica,sans-Serif" font-size="10.00">||}</text>
</a>
</g>
</g>
<!-- Node3&#45;&gt;Node1 -->
<g id="edge2" class="edge">
<title>Node3&#45;&gt;Node1</title>
<path fill="none" stroke="#404040" d="M142.46,-142.88C136.11,-133.5 127.32,-120.48 118.29,-107.13"/>
<polygon fill="none" stroke="#404040" points="118.27,-107.1 111.6,-104.37 111.55,-97.16 118.22,-99.89 118.27,-107.1"/>
<text text-anchor="middle" x="164" y="-117" font-family="Helvetica,sans-Serif" font-size="10.00"> &#45;what_message</text>
</g>
<!-- Node4 -->
<g id="node4" class="node">
<title>Node4</title>
<g id="a_node4"><a xlink:title=" ">
<polygon fill="white" stroke="#666666" points="200,-251 104,-251 104,-210 200,-210 200,-251"/>
<text text-anchor="start" x="112" y="-239" font-family="Helvetica,sans-Serif" font-size="10.00">{std::basic_string&lt;</text>
<text text-anchor="middle" x="152" y="-228" font-family="Helvetica,sans-Serif" font-size="10.00"> Char &gt;</text>
<text text-anchor="middle" x="152" y="-217" font-family="Helvetica,sans-Serif" font-size="10.00">||}</text>
</a>
</g>
</g>
<!-- Node4&#45;&gt;Node3 -->
<g id="edge3" class="edge">
<title>Node4&#45;&gt;Node3</title>
<path fill="none" stroke="#63b8ff" d="M152,-198.39C152,-189.68 152,-180.62 152,-173.39"/>
<polygon fill="none" stroke="#63b8ff" points="148.5,-198.35 152,-208.35 155.5,-198.35 148.5,-198.35"/>
</g>
</g>
</svg>
