<?xml version="1.0" encoding="UTF-8" standalone="no"?>
<!DOCTYPE svg PUBLIC "-//W3C//DTD SVG 1.1//EN"
 "http://www.w3.org/Graphics/SVG/1.1/DTD/svg11.dtd">
<!-- Generated by graphviz version 3.0.0 (20221109.1736)
 -->
<!-- Title: UnitsHelper Pages: 1 -->
<!--zoomable 574 -->
<svg id="main" version="1.1" xmlns="http://www.w3.org/2000/svg" xmlns:xlink="http://www.w3.org/1999/xlink" xml:space="preserve" onload="init(evt)">
<style type="text/css"><![CDATA[
.edge:hover path { stroke: red; }
.edge:hover polygon { stroke: red; fill: red; }
]]></style>
<script type="text/javascript"><![CDATA[
var edges = document.getElementsByTagName('g');
if (edges && edges.length) {
  for (var i=0;i<edges.length;i++) {
    if (edges[i].id.substr(0,4)=='edge') {
      edges[i].setAttribute('class','edge');
    }
  }
}
]]></script>
        <defs>
                <circle id="rim" cx="0" cy="0" r="7"/>
                <circle id="rim2" cx="0" cy="0" r="3.5"/>
                <g id="zoomPlus">
                        <use xlink:href="#rim" fill="#404040">
                                <set attributeName="fill" to="#808080" begin="zoomplus.mouseover" end="zoomplus.mouseout"/>
                        </use>
                        <path d="M-4,0h8M0,-4v8" fill="none" stroke="white" stroke-width="1.5" pointer-events="none"/>
                </g>
                <g id="zoomMin">
                        <use xlink:href="#rim" fill="#404040">
                                <set attributeName="fill" to="#808080" begin="zoomminus.mouseover" end="zoomminus.mouseout"/>
                        </use>
                        <path d="M-4,0h8" fill="none" stroke="white" stroke-width="1.5" pointer-events="none"/>
                </g>
                <g id="dirArrow">
                        <path fill="none" stroke="white" stroke-width="1.5" d="M0,-3.0v7 M-2.5,-0.5L0,-3.0L2.5,-0.5"/>
                </g>
               <g id="resetDef">
                       <use xlink:href="#rim2" fill="#404040">
                               <set attributeName="fill" to="#808080" begin="reset.mouseover" end="reset.mouseout"/>
                       </use>
               </g>
        </defs>

<script type="text/javascript">
var viewWidth = 396;
var viewHeight = 574;
var sectionId = 'dynsection-0';
</script>
<script xlink:href="svgpan.js"/>
<svg id="graph" class="graph">
<g id="viewport">
<title>UnitsHelper</title>
<polygon fill="white" stroke="transparent" points="-4,4 -4,-570 391.5,-570 391.5,4 -4,4"/>
<!-- Node1 -->
<g id="node1" class="node">
<title>Node1</title>
<g id="a_node1"><a xlink:title=" ">
<polygon fill="#bfbfbf" stroke="black" points="153,-0.5 153,-101.5 274,-101.5 274,-0.5 153,-0.5"/>
<text text-anchor="middle" x="213.5" y="-89.5" font-family="Helvetica,sans-Serif" font-size="10.00">UnitsHelper</text>
<polyline fill="none" stroke="black" points="153,-82.5 274,-82.5 "/>
<text text-anchor="start" x="161" y="-70.5" font-family="Helvetica,sans-Serif" font-size="10.00">&#45; unit_system</text>
<text text-anchor="start" x="161" y="-59.5" font-family="Helvetica,sans-Serif" font-size="10.00">&#45; unit_system_inited</text>
<polyline fill="none" stroke="black" points="153,-52.5 274,-52.5 "/>
<text text-anchor="start" x="161" y="-40.5" font-family="Helvetica,sans-Serif" font-size="10.00">+ get_converted_value()</text>
<text text-anchor="start" x="161" y="-29.5" font-family="Helvetica,sans-Serif" font-size="10.00">+ convert_values()</text>
<text text-anchor="start" x="161" y="-18.5" font-family="Helvetica,sans-Serif" font-size="10.00">&#45; init_unit_system()</text>
<text text-anchor="start" x="161" y="-7.5" font-family="Helvetica,sans-Serif" font-size="10.00">&#45; get_converter()</text>
</a>
</g>
</g>
<!-- Node2 -->
<g id="node2" class="node">
<title>Node2</title>
<g id="a_node2"><a xlink:title=" ">
<polygon fill="white" stroke="black" points="109,-149.5 109,-228.5 216,-228.5 216,-149.5 109,-149.5"/>
<text text-anchor="start" x="117" y="-216.5" font-family="Helvetica,sans-Serif" font-size="10.00">std::map&lt; std::string,</text>
<text text-anchor="start" x="117" y="-205.5" font-family="Helvetica,sans-Serif" font-size="10.00"> std::shared_ptr&lt; cv</text>
<text text-anchor="middle" x="162.5" y="-194.5" font-family="Helvetica,sans-Serif" font-size="10.00">_converter &gt; &gt;</text>
<polyline fill="none" stroke="black" points="109,-187.5 216,-187.5 "/>
<text text-anchor="middle" x="162.5" y="-175.5" font-family="Helvetica,sans-Serif" font-size="10.00"> </text>
<polyline fill="none" stroke="black" points="109,-168.5 216,-168.5 "/>
<text text-anchor="middle" x="162.5" y="-156.5" font-family="Helvetica,sans-Serif" font-size="10.00"> </text>
</a>
</g>
</g>
<!-- Node2&#45;&gt;Node1 -->
<g id="edge1" class="edge">
<title>Node2&#45;&gt;Node1</title>
<path fill="none" stroke="#404040" d="M176.98,-149.39C181.17,-138.2 185.86,-125.7 190.44,-113.48"/>
<polygon fill="none" stroke="#404040" points="190.57,-113.14 188.93,-106.12 194.79,-101.91 196.42,-108.93 190.57,-113.14"/>
<text text-anchor="middle" x="214.5" y="-123" font-family="Helvetica,sans-Serif" font-size="10.00"> &#45;converters</text>
</g>
<!-- Node3 -->
<g id="node3" class="node">
<title>Node3</title>
<g id="a_node3"><a xlink:title=" ">
<polygon fill="white" stroke="black" points="27,-282 27,-339 86,-339 86,-282 27,-282"/>
<text text-anchor="middle" x="56.5" y="-327" font-family="Helvetica,sans-Serif" font-size="10.00">std::string</text>
<polyline fill="none" stroke="black" points="27,-320 86,-320 "/>
<text text-anchor="middle" x="56.5" y="-308" font-family="Helvetica,sans-Serif" font-size="10.00"> </text>
<polyline fill="none" stroke="black" points="27,-301 86,-301 "/>
<text text-anchor="middle" x="56.5" y="-289" font-family="Helvetica,sans-Serif" font-size="10.00"> </text>
</a>
</g>
</g>
<!-- Node3&#45;&gt;Node2 -->
<g id="edge2" class="edge">
<title>Node3&#45;&gt;Node2</title>
<path fill="none" stroke="#404040" d="M81.08,-281.78C92.63,-268.77 106.74,-252.87 119.94,-237.98"/>
<polygon fill="none" stroke="#404040" points="120.05,-237.86 121.04,-230.72 128.01,-228.88 127.02,-236.02 120.05,-237.86"/>
<text text-anchor="middle" x="124" y="-250" font-family="Helvetica,sans-Serif" font-size="10.00"> +keys</text>
</g>
<!-- Node4 -->
<g id="node4" class="node">
<title>Node4</title>
<g id="a_node4"><a xlink:title=" ">
<polygon fill="white" stroke="black" points="0,-392.5 0,-460.5 93,-460.5 93,-392.5 0,-392.5"/>
<text text-anchor="start" x="8" y="-448.5" font-family="Helvetica,sans-Serif" font-size="10.00">std::basic_string&lt;</text>
<text text-anchor="middle" x="46.5" y="-437.5" font-family="Helvetica,sans-Serif" font-size="10.00"> Char &gt;</text>
<polyline fill="none" stroke="black" points="0,-430.5 93,-430.5 "/>
<text text-anchor="middle" x="46.5" y="-418.5" font-family="Helvetica,sans-Serif" font-size="10.00"> </text>
<polyline fill="none" stroke="black" points="0,-411.5 93,-411.5 "/>
<text text-anchor="middle" x="46.5" y="-399.5" font-family="Helvetica,sans-Serif" font-size="10.00"> </text>
</a>
</g>
</g>
<!-- Node4&#45;&gt;Node3 -->
<g id="edge3" class="edge">
<title>Node4&#45;&gt;Node3</title>
<path fill="none" stroke="midnightblue" d="M50.31,-382.03C51.57,-367.67 52.94,-352.1 54.07,-339.24"/>
<polygon fill="none" stroke="midnightblue" points="46.81,-381.95 49.42,-392.22 53.78,-382.56 46.81,-381.95"/>
</g>
<!-- Node5 -->
<g id="node5" class="node">
<title>Node5</title>
<g id="a_node5"><a xlink:title=" ">
<polygon fill="white" stroke="black" points="113,-276.5 113,-344.5 212,-344.5 212,-276.5 113,-276.5"/>
<text text-anchor="start" x="121" y="-332.5" font-family="Helvetica,sans-Serif" font-size="10.00">std::shared_ptr&lt; cv</text>
<text text-anchor="middle" x="162.5" y="-321.5" font-family="Helvetica,sans-Serif" font-size="10.00">_converter &gt;</text>
<polyline fill="none" stroke="black" points="113,-314.5 212,-314.5 "/>
<text text-anchor="start" x="121" y="-302.5" font-family="Helvetica,sans-Serif" font-size="10.00">+ ptr</text>
<polyline fill="none" stroke="black" points="113,-295.5 212,-295.5 "/>
<text text-anchor="start" x="121" y="-283.5" font-family="Helvetica,sans-Serif" font-size="10.00">+ operator&#45;&gt;()</text>
</a>
</g>
</g>
<!-- Node5&#45;&gt;Node2 -->
<g id="edge4" class="edge">
<title>Node5&#45;&gt;Node2</title>
<path fill="none" stroke="#404040" d="M162.5,-276.21C162.5,-265.24 162.5,-252.78 162.5,-240.81"/>
<polygon fill="none" stroke="#404040" points="162.5,-240.6 158.5,-234.6 162.5,-228.6 166.5,-234.6 162.5,-240.6"/>
<text text-anchor="middle" x="187" y="-250" font-family="Helvetica,sans-Serif" font-size="10.00"> +elements</text>
</g>
<!-- Node6 -->
<g id="node6" class="node">
<title>Node6</title>
<g id="a_node6"><a xlink:title=" ">
<polygon fill="white" stroke="black" points="111,-398 111,-455 214,-455 214,-398 111,-398"/>
<text text-anchor="middle" x="162.5" y="-443" font-family="Helvetica,sans-Serif" font-size="10.00">std::shared_ptr&lt; T &gt;</text>
<polyline fill="none" stroke="black" points="111,-436 214,-436 "/>
<text text-anchor="middle" x="162.5" y="-424" font-family="Helvetica,sans-Serif" font-size="10.00"> </text>
<polyline fill="none" stroke="black" points="111,-417 214,-417 "/>
<text text-anchor="start" x="119" y="-405" font-family="Helvetica,sans-Serif" font-size="10.00">+ operator&#45;&gt;()</text>
</a>
</g>
</g>
<!-- Node6&#45;&gt;Node5 -->
<g id="edge5" class="edge">
<title>Node6&#45;&gt;Node5</title>
<path fill="none" stroke="orange" d="M162.5,-387.64C162.5,-373.69 162.5,-358.01 162.5,-344.52"/>
<polygon fill="orange" stroke="orange" points="159,-387.9 162.5,-397.9 166,-387.9 159,-387.9"/>
<text text-anchor="middle" x="200.5" y="-366" font-family="Helvetica,sans-Serif" font-size="10.00"> &lt; cv_converter &gt;</text>
</g>
<!-- Node7 -->
<g id="node7" class="node">
<title>Node7</title>
<g id="a_node7"><a xlink:title=" ">
<polygon fill="white" stroke="black" points="170,-508.5 170,-565.5 199,-565.5 199,-508.5 170,-508.5"/>
<text text-anchor="middle" x="184.5" y="-553.5" font-family="Helvetica,sans-Serif" font-size="10.00">T</text>
<polyline fill="none" stroke="black" points="170,-546.5 199,-546.5 "/>
<text text-anchor="middle" x="184.5" y="-534.5" font-family="Helvetica,sans-Serif" font-size="10.00"> </text>
<polyline fill="none" stroke="black" points="170,-527.5 199,-527.5 "/>
<text text-anchor="middle" x="184.5" y="-515.5" font-family="Helvetica,sans-Serif" font-size="10.00"> </text>
</a>
</g>
</g>
<!-- Node7&#45;&gt;Node6 -->
<g id="edge6" class="edge">
<title>Node7&#45;&gt;Node6</title>
<path fill="none" stroke="#404040" d="M169.92,-508.92C167.29,-502.85 164.93,-496.34 163.5,-490 161.86,-482.72 161.02,-474.85 160.68,-467.22"/>
<polygon fill="none" stroke="#404040" points="160.68,-467.17 156.6,-461.23 160.52,-455.17 164.6,-461.11 160.68,-467.17"/>
<text text-anchor="middle" x="173.5" y="-482" font-family="Helvetica,sans-Serif" font-size="10.00"> +ptr</text>
</g>
<!-- Node8 -->
<g id="node8" class="node">
<title>Node8</title>
<g id="a_node8"><a xlink:title=" ">
<polygon fill="white" stroke="black" points="232.5,-398 232.5,-455 320.5,-455 320.5,-398 232.5,-398"/>
<text text-anchor="middle" x="276.5" y="-443" font-family="Helvetica,sans-Serif" font-size="10.00">std::map&lt; K, T &gt;</text>
<polyline fill="none" stroke="black" points="232.5,-436 320.5,-436 "/>
<text text-anchor="middle" x="276.5" y="-424" font-family="Helvetica,sans-Serif" font-size="10.00"> </text>
<polyline fill="none" stroke="black" points="232.5,-417 320.5,-417 "/>
<text text-anchor="middle" x="276.5" y="-405" font-family="Helvetica,sans-Serif" font-size="10.00"> </text>
</a>
</g>
</g>
<!-- Node7&#45;&gt;Node8 -->
<g id="edge9" class="edge">
<title>Node7&#45;&gt;Node8</title>
<path fill="none" stroke="#404040" d="M199.06,-512.49C206,-501.9 214.7,-489.46 223.5,-479 227.79,-473.91 232.51,-468.77 237.32,-463.8"/>
<polygon fill="none" stroke="#404040" points="237.52,-463.6 238.93,-456.53 246,-455.11 244.59,-462.18 237.52,-463.6"/>
<text text-anchor="middle" x="248" y="-482" font-family="Helvetica,sans-Serif" font-size="10.00"> +elements</text>
</g>
<!-- Node8&#45;&gt;Node2 -->
<g id="edge7" class="edge">
<title>Node8&#45;&gt;Node2</title>
<path fill="none" stroke="orange" d="M268.54,-387.96C259.5,-350.42 242.4,-291.95 215.5,-247 211.75,-240.74 207.23,-234.58 202.42,-228.77"/>
<polygon fill="orange" stroke="orange" points="265.2,-389.03 270.88,-397.97 272.01,-387.43 265.2,-389.03"/>
<text text-anchor="start" x="255.5" y="-313.5" font-family="Helvetica,sans-Serif" font-size="10.00"> &lt; std::string, std</text>
<text text-anchor="middle" x="321.5" y="-302.5" font-family="Helvetica,sans-Serif" font-size="10.00">::shared_ptr&lt; cv_converter &gt; &gt;</text>
</g>
<!-- Node9 -->
<g id="node9" class="node">
<title>Node9</title>
<g id="a_node9"><a xlink:title=" ">
<polygon fill="white" stroke="black" points="263,-508.5 263,-565.5 292,-565.5 292,-508.5 263,-508.5"/>
<text text-anchor="middle" x="277.5" y="-553.5" font-family="Helvetica,sans-Serif" font-size="10.00">K</text>
<polyline fill="none" stroke="black" points="263,-546.5 292,-546.5 "/>
<text text-anchor="middle" x="277.5" y="-534.5" font-family="Helvetica,sans-Serif" font-size="10.00"> </text>
<polyline fill="none" stroke="black" points="263,-527.5 292,-527.5 "/>
<text text-anchor="middle" x="277.5" y="-515.5" font-family="Helvetica,sans-Serif" font-size="10.00"> </text>
</a>
</g>
</g>
<!-- Node9&#45;&gt;Node8 -->
<g id="edge8" class="edge">
<title>Node9&#45;&gt;Node8</title>
<path fill="none" stroke="#404040" d="M277.25,-508.34C277.13,-495.84 276.99,-480.84 276.87,-467.18"/>
<polygon fill="none" stroke="#404040" points="276.87,-467.11 272.81,-461.15 276.75,-455.11 280.81,-461.07 276.87,-467.11"/>
<text text-anchor="middle" x="291" y="-482" font-family="Helvetica,sans-Serif" font-size="10.00"> +keys</text>
</g>
<!-- Node10 -->
<g id="node10" class="node">
<title>Node10</title>
<g id="a_node10"><a xlink:title=" ">
<polygon fill="white" stroke="black" points="234,-160.5 234,-217.5 295,-217.5 295,-160.5 234,-160.5"/>
<text text-anchor="middle" x="264.5" y="-205.5" font-family="Helvetica,sans-Serif" font-size="10.00">std::mutex</text>
<polyline fill="none" stroke="black" points="234,-198.5 295,-198.5 "/>
<text text-anchor="middle" x="264.5" y="-186.5" font-family="Helvetica,sans-Serif" font-size="10.00"> </text>
<polyline fill="none" stroke="black" points="234,-179.5 295,-179.5 "/>
<text text-anchor="middle" x="264.5" y="-167.5" font-family="Helvetica,sans-Serif" font-size="10.00"> </text>
</a>
</g>
</g>
<!-- Node10&#45;&gt;Node1 -->
<g id="edge10" class="edge">
<title>Node10&#45;&gt;Node1</title>
<path fill="none" stroke="#404040" d="M256.17,-160.34C252.28,-147.92 247.41,-133.13 242.5,-120 241.62,-117.65 240.71,-115.27 239.77,-112.86"/>
<polygon fill="none" stroke="#404040" points="239.7,-112.7 233.76,-108.61 235.25,-101.56 241.19,-105.64 239.7,-112.7"/>
<text text-anchor="middle" x="287" y="-123" font-family="Helvetica,sans-Serif" font-size="10.00"> &#45;converters_mutex</text>
</g>
</g>
</svg>
        <g id="navigator" transform="translate(0 0)" fill="#404254">
                <rect fill="#f2f5e9" fill-opacity="0.5" stroke="#606060" stroke-width=".5" x="0" y="0" width="60" height="60"/>
                <use id="zoomplus" xlink:href="#zoomPlus" x="17" y="9" onmousedown="handleZoom(evt,'in')"/>
                <use id="zoomminus" xlink:href="#zoomMin" x="42" y="9" onmousedown="handleZoom(evt,'out')"/>
                <use id="reset" xlink:href="#resetDef" x="30" y="36" onmousedown="handleReset()"/>
                <g id="arrowUp" xlink:href="#dirArrow" transform="translate(30 24)" onmousedown="handlePan(0,-1)">
                  <use xlink:href="#rim" fill="#404040">
                        <set attributeName="fill" to="#808080" begin="arrowUp.mouseover" end="arrowUp.mouseout"/>
                  </use>
                  <path fill="none" stroke="white" stroke-width="1.5" d="M0,-3.0v7 M-2.5,-0.5L0,-3.0L2.5,-0.5"/>
                </g>
                <g id="arrowRight" xlink:href="#dirArrow" transform="rotate(90) translate(36 -43)" onmousedown="handlePan(1,0)">
                  <use xlink:href="#rim" fill="#404040">
                        <set attributeName="fill" to="#808080" begin="arrowRight.mouseover" end="arrowRight.mouseout"/>
                  </use>
                  <path fill="none" stroke="white" stroke-width="1.5" d="M0,-3.0v7 M-2.5,-0.5L0,-3.0L2.5,-0.5"/>
                </g>
                <g id="arrowDown" xlink:href="#dirArrow" transform="rotate(180) translate(-30 -48)" onmousedown="handlePan(0,1)">
                  <use xlink:href="#rim" fill="#404040">
                        <set attributeName="fill" to="#808080" begin="arrowDown.mouseover" end="arrowDown.mouseout"/>
                  </use>
                  <path fill="none" stroke="white" stroke-width="1.5" d="M0,-3.0v7 M-2.5,-0.5L0,-3.0L2.5,-0.5"/>
                </g>
                <g id="arrowLeft" xlink:href="#dirArrow" transform="rotate(270) translate(-36 17)" onmousedown="handlePan(-1,0)">
                  <use xlink:href="#rim" fill="#404040">
                        <set attributeName="fill" to="#808080" begin="arrowLeft.mouseover" end="arrowLeft.mouseout"/>
                  </use>
                  <path fill="none" stroke="white" stroke-width="1.5" d="M0,-3.0v7 M-2.5,-0.5L0,-3.0L2.5,-0.5"/>
                </g>
        </g>
        <svg viewBox="0 0 15 15" width="100%" height="30px" preserveAspectRatio="xMaxYMin meet">
         <g id="arrow_out" transform="scale(0.3 0.3)">
          <a xlink:href="class_units_helper__coll__graph_org.svg" target="_base">
           <rect id="button" ry="5" rx="5" y="6" x="6" height="38" width="38"
                fill="#f2f5e9" fill-opacity="0.5" stroke="#606060" stroke-width="1.0"/>
           <path id="arrow"
             d="M 11.500037,31.436501 C 11.940474,20.09759 22.043105,11.32322 32.158766,21.979434 L 37.068811,17.246167 C 37.068811,17.246167 37.088388,32 37.088388,32 L 22.160133,31.978069 C 22.160133,31.978069 26.997745,27.140456 26.997745,27.140456 C 18.528582,18.264221 13.291696,25.230495 11.500037,31.436501 z"
             style="fill:#404040;"/>
          </a>
         </g>
        </svg>
</svg>
