<?xml version="1.0" encoding="UTF-8" standalone="no"?>
<!DOCTYPE svg PUBLIC "-//W3C//DTD SVG 1.1//EN"
 "http://www.w3.org/Graphics/SVG/1.1/DTD/svg11.dtd">
<!-- Generated by graphviz version 3.0.0 (20221109.1736)
 -->
<!-- Title: HY_CatchmentDivide Pages: 1 -->
<svg width="262pt" height="270pt"
 viewBox="0.00 0.00 262.00 270.00" xmlns="http://www.w3.org/2000/svg" xmlns:xlink="http://www.w3.org/1999/xlink">
<g id="graph0" class="graph" transform="scale(1 1) rotate(0) translate(4 266)">
<title>HY_CatchmentDivide</title>
<polygon fill="white" stroke="transparent" points="-4,4 -4,-266 258,-266 258,4 -4,4"/>
<!-- Node1 -->
<g id="node1" class="node">
<title>Node1</title>
<g id="a_node1"><a xlink:title=" ">
<polygon fill="#bfbfbf" stroke="black" points="78,-0.5 78,-90.5 208,-90.5 208,-0.5 78,-0.5"/>
<text text-anchor="middle" x="143" y="-78.5" font-family="Helvetica,sans-Serif" font-size="10.00">HY_CatchmentDivide</text>
<polyline fill="none" stroke="black" points="78,-71.5 208,-71.5 "/>
<text text-anchor="start" x="86" y="-59.5" font-family="Helvetica,sans-Serif" font-size="10.00">&#45; divide_path</text>
<text text-anchor="start" x="86" y="-48.5" font-family="Helvetica,sans-Serif" font-size="10.00">&#45; id_number</text>
<text text-anchor="start" x="86" y="-37.5" font-family="Helvetica,sans-Serif" font-size="10.00">&#45; id</text>
<polyline fill="none" stroke="black" points="78,-30.5 208,-30.5 "/>
<text text-anchor="start" x="86" y="-18.5" font-family="Helvetica,sans-Serif" font-size="10.00">+ HY_CatchmentDivide()</text>
<text text-anchor="start" x="86" y="-7.5" font-family="Helvetica,sans-Serif" font-size="10.00">+ ~HY_CatchmentDivide()</text>
</a>
</g>
</g>
<!-- Node2 -->
<g id="node2" class="node">
<title>Node2</title>
<g id="a_node2"><a xlink:href="class_h_y___catchment_realization.html" target="_top" xlink:title=" ">
<polygon fill="white" stroke="black" points="0,-127.5 0,-261.5 150,-261.5 150,-127.5 0,-127.5"/>
<text text-anchor="middle" x="75" y="-249.5" font-family="Helvetica,sans-Serif" font-size="10.00">HY_CatchmentRealization</text>
<polyline fill="none" stroke="black" points="0,-242.5 150,-242.5 "/>
<text text-anchor="start" x="8" y="-230.5" font-family="Helvetica,sans-Serif" font-size="10.00"># realized_catchment</text>
<text text-anchor="start" x="8" y="-219.5" font-family="Helvetica,sans-Serif" font-size="10.00"># id_number</text>
<text text-anchor="start" x="8" y="-208.5" font-family="Helvetica,sans-Serif" font-size="10.00"># forcing</text>
<polyline fill="none" stroke="black" points="0,-201.5 150,-201.5 "/>
<text text-anchor="start" x="8" y="-189.5" font-family="Helvetica,sans-Serif" font-size="10.00">+ HY_CatchmentRealization()</text>
<text text-anchor="start" x="8" y="-178.5" font-family="Helvetica,sans-Serif" font-size="10.00">+ HY_CatchmentRealization()</text>
<text text-anchor="start" x="8" y="-167.5" font-family="Helvetica,sans-Serif" font-size="10.00">+ ~HY_CatchmentRealization()</text>
<text text-anchor="start" x="8" y="-156.5" font-family="Helvetica,sans-Serif" font-size="10.00">+ get_response()</text>
<text text-anchor="start" x="8" y="-145.5" font-family="Helvetica,sans-Serif" font-size="10.00"># get_catchment_id()</text>
<text text-anchor="start" x="8" y="-134.5" font-family="Helvetica,sans-Serif" font-size="10.00"># set_catchment_id()</text>
</a>
</g>
</g>
<!-- Node2&#45;&gt;Node1 -->
<g id="edge1" class="edge">
<title>Node2&#45;&gt;Node1</title>
<path fill="none" stroke="midnightblue" d="M109.92,-118.02C114.22,-108.72 118.5,-99.47 122.48,-90.85"/>
<polygon fill="none" stroke="midnightblue" points="106.64,-116.77 105.62,-127.31 112.99,-119.7 106.64,-116.77"/>
</g>
<!-- Node3 -->
<g id="node3" class="node">
<title>Node3</title>
<g id="a_node3"><a xlink:href="class_g_m___object.html" target="_top" xlink:title=" ">
<polygon fill="white" stroke="black" points="168,-160.5 168,-228.5 254,-228.5 254,-160.5 168,-160.5"/>
<text text-anchor="middle" x="211" y="-216.5" font-family="Helvetica,sans-Serif" font-size="10.00">GM_Object</text>
<polyline fill="none" stroke="black" points="168,-209.5 254,-209.5 "/>
<text text-anchor="middle" x="211" y="-197.5" font-family="Helvetica,sans-Serif" font-size="10.00"> </text>
<polyline fill="none" stroke="black" points="168,-190.5 254,-190.5 "/>
<text text-anchor="start" x="176" y="-178.5" font-family="Helvetica,sans-Serif" font-size="10.00">+ GM_Object()</text>
<text text-anchor="start" x="176" y="-167.5" font-family="Helvetica,sans-Serif" font-size="10.00">+ ~GM_Object()</text>
</a>
</g>
</g>
<!-- Node3&#45;&gt;Node1 -->
<g id="edge2" class="edge">
<title>Node3&#45;&gt;Node1</title>
<path fill="none" stroke="midnightblue" d="M191.28,-150.87C182.53,-131.95 172.23,-109.69 163.4,-90.6"/>
<polygon fill="none" stroke="midnightblue" points="188.19,-152.54 195.57,-160.14 194.55,-149.6 188.19,-152.54"/>
</g>
</g>
</svg>
