<?xml version="1.0" encoding="UTF-8" standalone="no"?>
<!DOCTYPE svg PUBLIC "-//W3C//DTD SVG 1.1//EN"
 "http://www.w3.org/Graphics/SVG/1.1/DTD/svg11.dtd">
<!-- Generated by graphviz version 3.0.0 (20221109.1736)
 -->
<!-- Title: giuh::giuh_kernel Pages: 1 -->
<svg width="157pt" height="442pt"
 viewBox="0.00 0.00 157.00 442.00" xmlns="http://www.w3.org/2000/svg" xmlns:xlink="http://www.w3.org/1999/xlink">
<g id="graph0" class="graph" transform="scale(1 1) rotate(0) translate(4 438)">
<title>giuh::giuh_kernel</title>
<polygon fill="white" stroke="transparent" points="-4,4 -4,-438 153,-438 153,4 -4,4"/>
<!-- Node1 -->
<g id="node1" class="node">
<title>Node1</title>
<g id="a_node1"><a xlink:title="Pseudo&#45;abstract class declaring the interface for a GIUH calculation kernel for a catchment.">
<polygon fill="#bfbfbf" stroke="black" points="0,-0.5 0,-211.5 149,-211.5 149,-0.5 0,-0.5"/>
<text text-anchor="middle" x="74.5" y="-199.5" font-family="Helvetica,sans-Serif" font-size="10.00">giuh::giuh_kernel</text>
<polyline fill="none" stroke="black" points="0,-192.5 149,-192.5 "/>
<text text-anchor="start" x="8" y="-180.5" font-family="Helvetica,sans-Serif" font-size="10.00">&#45; interpolation_regularity</text>
<text text-anchor="start" x="8" y="-169.5" font-family="Helvetica,sans-Serif" font-size="10.00">_seconds</text>
<polyline fill="none" stroke="black" points="0,-162.5 149,-162.5 "/>
<text text-anchor="start" x="8" y="-150.5" font-family="Helvetica,sans-Serif" font-size="10.00">+ giuh_kernel()</text>
<text text-anchor="start" x="8" y="-139.5" font-family="Helvetica,sans-Serif" font-size="10.00">+ giuh_kernel()</text>
<text text-anchor="start" x="8" y="-128.5" font-family="Helvetica,sans-Serif" font-size="10.00">+ calc_giuh_output()</text>
<text text-anchor="start" x="8" y="-117.5" font-family="Helvetica,sans-Serif" font-size="10.00">+ get_catchment_id()</text>
<text text-anchor="start" x="8" y="-106.5" font-family="Helvetica,sans-Serif" font-size="10.00">+ get_comid()</text>
<text text-anchor="start" x="8" y="-95.5" font-family="Helvetica,sans-Serif" font-size="10.00">+ get_regularized_times_s()</text>
<text text-anchor="start" x="8" y="-84.5" font-family="Helvetica,sans-Serif" font-size="10.00">+ get_interpolation_regularity</text>
<text text-anchor="start" x="8" y="-73.5" font-family="Helvetica,sans-Serif" font-size="10.00">_seconds()</text>
<text text-anchor="start" x="8" y="-62.5" font-family="Helvetica,sans-Serif" font-size="10.00">+ get_interpolated_incremental</text>
<text text-anchor="start" x="8" y="-51.5" font-family="Helvetica,sans-Serif" font-size="10.00">_runoff()</text>
<text text-anchor="start" x="8" y="-40.5" font-family="Helvetica,sans-Serif" font-size="10.00">+ get_interpolated_regularized</text>
<text text-anchor="start" x="8" y="-29.5" font-family="Helvetica,sans-Serif" font-size="10.00">_cdf()</text>
<text text-anchor="start" x="8" y="-18.5" font-family="Helvetica,sans-Serif" font-size="10.00">+ set_interpolation_regularity</text>
<text text-anchor="start" x="8" y="-7.5" font-family="Helvetica,sans-Serif" font-size="10.00">_seconds()</text>
</a>
</g>
</g>
<!-- Node2 -->
<g id="node2" class="node">
<title>Node2</title>
<g id="a_node2"><a xlink:title=" ">
<polygon fill="white" stroke="black" points="45,-270.5 45,-327.5 104,-327.5 104,-270.5 45,-270.5"/>
<text text-anchor="middle" x="74.5" y="-315.5" font-family="Helvetica,sans-Serif" font-size="10.00">std::string</text>
<polyline fill="none" stroke="black" points="45,-308.5 104,-308.5 "/>
<text text-anchor="middle" x="74.5" y="-296.5" font-family="Helvetica,sans-Serif" font-size="10.00"> </text>
<polyline fill="none" stroke="black" points="45,-289.5 104,-289.5 "/>
<text text-anchor="middle" x="74.5" y="-277.5" font-family="Helvetica,sans-Serif" font-size="10.00"> </text>
</a>
</g>
</g>
<!-- Node2&#45;&gt;Node1 -->
<g id="edge1" class="edge">
<title>Node2&#45;&gt;Node1</title>
<path fill="none" stroke="#404040" d="M74.5,-270.23C74.5,-257.37 74.5,-241.13 74.5,-223.91"/>
<polygon fill="none" stroke="#404040" points="74.5,-223.86 70.5,-217.86 74.5,-211.86 78.5,-217.86 74.5,-223.86"/>
<text text-anchor="middle" x="108" y="-244" font-family="Helvetica,sans-Serif" font-size="10.00"> #catchment_id</text>
<text text-anchor="middle" x="108" y="-233" font-family="Helvetica,sans-Serif" font-size="10.00">#comid</text>
</g>
<!-- Node3 -->
<g id="node3" class="node">
<title>Node3</title>
<g id="a_node3"><a xlink:title=" ">
<polygon fill="white" stroke="black" points="28,-365.5 28,-433.5 121,-433.5 121,-365.5 28,-365.5"/>
<text text-anchor="start" x="36" y="-421.5" font-family="Helvetica,sans-Serif" font-size="10.00">std::basic_string&lt;</text>
<text text-anchor="middle" x="74.5" y="-410.5" font-family="Helvetica,sans-Serif" font-size="10.00"> Char &gt;</text>
<polyline fill="none" stroke="black" points="28,-403.5 121,-403.5 "/>
<text text-anchor="middle" x="74.5" y="-391.5" font-family="Helvetica,sans-Serif" font-size="10.00"> </text>
<polyline fill="none" stroke="black" points="28,-384.5 121,-384.5 "/>
<text text-anchor="middle" x="74.5" y="-372.5" font-family="Helvetica,sans-Serif" font-size="10.00"> </text>
</a>
</g>
</g>
<!-- Node3&#45;&gt;Node2 -->
<g id="edge2" class="edge">
<title>Node3&#45;&gt;Node2</title>
<path fill="none" stroke="midnightblue" d="M74.5,-355.38C74.5,-345.94 74.5,-336.2 74.5,-327.57"/>
<polygon fill="none" stroke="midnightblue" points="71,-355.43 74.5,-365.43 78,-355.43 71,-355.43"/>
</g>
</g>
</svg>
