<?xml version="1.0" encoding="UTF-8" standalone="no"?>
<!DOCTYPE svg PUBLIC "-//W3C//DTD SVG 1.1//EN"
 "http://www.w3.org/Graphics/SVG/1.1/DTD/svg11.dtd">
<!-- Generated by graphviz version 2.44.0 ()
 -->
<!-- Title: HY_PointHydroNexus Pages: 1 -->
<svg width="664pt" height="739pt"
 viewBox="0.00 0.00 663.50 739.00" xmlns="http://www.w3.org/2000/svg" xmlns:xlink="http://www.w3.org/1999/xlink">
<g id="graph0" class="graph" transform="scale(1 1) rotate(0) translate(4 735)">
<title>HY_PointHydroNexus</title>
<polygon fill="white" stroke="transparent" points="-4,4 -4,-735 659.5,-735 659.5,4 -4,4"/>
<!-- Node1 -->
<g id="node1" class="node">
<title>Node1</title>
<g id="a_node1"><a xlink:title=" ">
<polygon fill="#bfbfbf" stroke="black" points="324.5,-0.5 324.5,-145.5 460.5,-145.5 460.5,-0.5 324.5,-0.5"/>
<text text-anchor="middle" x="392.5" y="-133.5" font-family="Helvetica,sans-Serif" font-size="10.00">HY_PointHydroNexus</text>
<polyline fill="none" stroke="black" points="324.5,-126.5 460.5,-126.5 "/>
<text text-anchor="start" x="332.5" y="-114.5" font-family="Helvetica,sans-Serif" font-size="10.00"># min_timestep</text>
<polyline fill="none" stroke="black" points="324.5,-107.5 460.5,-107.5 "/>
<text text-anchor="start" x="332.5" y="-95.5" font-family="Helvetica,sans-Serif" font-size="10.00">+ HY_PointHydroNexus()</text>
<text text-anchor="start" x="332.5" y="-84.5" font-family="Helvetica,sans-Serif" font-size="10.00">+ ~HY_PointHydroNexus()</text>
<text text-anchor="start" x="332.5" y="-73.5" font-family="Helvetica,sans-Serif" font-size="10.00">+ get_downstream_flow()</text>
<text text-anchor="start" x="332.5" y="-62.5" font-family="Helvetica,sans-Serif" font-size="10.00">+ add_upstream_flow()</text>
<text text-anchor="start" x="332.5" y="-51.5" font-family="Helvetica,sans-Serif" font-size="10.00">+ inspect_upstream_flows()</text>
<text text-anchor="start" x="332.5" y="-40.5" font-family="Helvetica,sans-Serif" font-size="10.00">+ inspect_downstream</text>
<text text-anchor="start" x="332.5" y="-29.5" font-family="Helvetica,sans-Serif" font-size="10.00">_requests()</text>
<text text-anchor="start" x="332.5" y="-18.5" font-family="Helvetica,sans-Serif" font-size="10.00">+ get_flow_units()</text>
<text text-anchor="start" x="332.5" y="-7.5" font-family="Helvetica,sans-Serif" font-size="10.00">+ set_mintime()</text>
</a>
</g>
</g>
<!-- Node2 -->
<g id="node2" class="node">
<title>Node2</title>
<g id="a_node2"><a xlink:href="class_h_y___hydro_nexus.html" target="_top" xlink:title=" ">
<polygon fill="white" stroke="black" points="68,-204.5 68,-382.5 213,-382.5 213,-204.5 68,-204.5"/>
<text text-anchor="middle" x="140.5" y="-370.5" font-family="Helvetica,sans-Serif" font-size="10.00">HY_HydroNexus</text>
<polyline fill="none" stroke="black" points="68,-363.5 213,-363.5 "/>
<text text-anchor="start" x="76" y="-351.5" font-family="Helvetica,sans-Serif" font-size="10.00">&#45; number_of_downstream</text>
<text text-anchor="start" x="76" y="-340.5" font-family="Helvetica,sans-Serif" font-size="10.00">_catchments</text>
<polyline fill="none" stroke="black" points="68,-333.5 213,-333.5 "/>
<text text-anchor="start" x="76" y="-321.5" font-family="Helvetica,sans-Serif" font-size="10.00">+ HY_HydroNexus()</text>
<text text-anchor="start" x="76" y="-310.5" font-family="Helvetica,sans-Serif" font-size="10.00">+ HY_HydroNexus()</text>
<text text-anchor="start" x="76" y="-299.5" font-family="Helvetica,sans-Serif" font-size="10.00">+ ~HY_HydroNexus()</text>
<text text-anchor="start" x="76" y="-288.5" font-family="Helvetica,sans-Serif" font-size="10.00">+ add_upstream_flow()</text>
<text text-anchor="start" x="76" y="-277.5" font-family="Helvetica,sans-Serif" font-size="10.00">+ get_downstream_flow()</text>
<text text-anchor="start" x="76" y="-266.5" font-family="Helvetica,sans-Serif" font-size="10.00">+ inspect_upstream_flows()</text>
<text text-anchor="start" x="76" y="-255.5" font-family="Helvetica,sans-Serif" font-size="10.00">+ inspect_downstream</text>
<text text-anchor="start" x="76" y="-244.5" font-family="Helvetica,sans-Serif" font-size="10.00">_requests()</text>
<text text-anchor="start" x="76" y="-233.5" font-family="Helvetica,sans-Serif" font-size="10.00">+ get_flow_units()</text>
<text text-anchor="start" x="76" y="-222.5" font-family="Helvetica,sans-Serif" font-size="10.00">+ get_receiving_catchments()</text>
<text text-anchor="start" x="76" y="-211.5" font-family="Helvetica,sans-Serif" font-size="10.00">+ get_id()</text>
</a>
</g>
</g>
<!-- Node2&#45;&gt;Node1 -->
<g id="edge1" class="edge">
<title>Node2&#45;&gt;Node1</title>
<path fill="none" stroke="midnightblue" d="M220.96,-222.74C254.26,-193.86 292.46,-160.74 324.35,-133.09"/>
<polygon fill="none" stroke="midnightblue" points="218.31,-220.4 213.05,-229.59 222.9,-225.69 218.31,-220.4"/>
</g>
<!-- Node3 -->
<g id="node3" class="node">
<title>Node3</title>
<g id="a_node3"><a xlink:title=" ">
<polygon fill="white" stroke="#bfbfbf" points="286,-441.5 286,-509.5 389,-509.5 389,-441.5 286,-441.5"/>
<text text-anchor="start" x="294" y="-497.5" font-family="Helvetica,sans-Serif" font-size="10.00">std::shared_ptr&lt; HY</text>
<text text-anchor="middle" x="337.5" y="-486.5" font-family="Helvetica,sans-Serif" font-size="10.00">_HydroLocation &gt;</text>
<polyline fill="none" stroke="#bfbfbf" points="286,-479.5 389,-479.5 "/>
<text text-anchor="start" x="294" y="-467.5" font-family="Helvetica,sans-Serif" font-size="10.00">+ ptr</text>
<polyline fill="none" stroke="#bfbfbf" points="286,-460.5 389,-460.5 "/>
<text text-anchor="start" x="294" y="-448.5" font-family="Helvetica,sans-Serif" font-size="10.00">+ operator&#45;&gt;()</text>
</a>
</g>
</g>
<!-- Node3&#45;&gt;Node2 -->
<g id="edge2" class="edge">
<title>Node3&#45;&gt;Node2</title>
<path fill="none" stroke="#404040" d="M301.37,-441.49C279.12,-421.15 249.65,-394.23 222.02,-368.99"/>
<polygon fill="none" stroke="#404040" points="221.99,-368.96 214.86,-367.86 213.13,-360.86 220.26,-361.96 221.99,-368.96"/>
<text text-anchor="middle" x="304" y="-409.5" font-family="Helvetica,sans-Serif" font-size="10.00"> &#45;realization</text>
</g>
<!-- Node4 -->
<g id="node4" class="node">
<title>Node4</title>
<g id="a_node4"><a xlink:title=" ">
<polygon fill="white" stroke="#bfbfbf" points="286,-557.5 286,-614.5 389,-614.5 389,-557.5 286,-557.5"/>
<text text-anchor="middle" x="337.5" y="-602.5" font-family="Helvetica,sans-Serif" font-size="10.00">std::shared_ptr&lt; T &gt;</text>
<polyline fill="none" stroke="#bfbfbf" points="286,-595.5 389,-595.5 "/>
<text text-anchor="middle" x="337.5" y="-583.5" font-family="Helvetica,sans-Serif" font-size="10.00"> </text>
<polyline fill="none" stroke="#bfbfbf" points="286,-576.5 389,-576.5 "/>
<text text-anchor="start" x="294" y="-564.5" font-family="Helvetica,sans-Serif" font-size="10.00">+ operator&#45;&gt;()</text>
</a>
</g>
</g>
<!-- Node4&#45;&gt;Node3 -->
<g id="edge3" class="edge">
<title>Node4&#45;&gt;Node3</title>
<path fill="none" stroke="orange" d="M337.5,-546.99C337.5,-534.77 337.5,-521.35 337.5,-509.52"/>
<polygon fill="orange" stroke="orange" points="334,-547.34 337.5,-557.34 341,-547.34 334,-547.34"/>
<text text-anchor="middle" x="388.5" y="-531" font-family="Helvetica,sans-Serif" font-size="10.00"> &lt; HY_HydroLocation &gt;</text>
</g>
<!-- Node5 -->
<g id="node5" class="node">
<title>Node5</title>
<g id="a_node5"><a xlink:title=" ">
<polygon fill="white" stroke="#bfbfbf" points="323,-668 323,-725 352,-725 352,-668 323,-668"/>
<text text-anchor="middle" x="337.5" y="-713" font-family="Helvetica,sans-Serif" font-size="10.00">T</text>
<polyline fill="none" stroke="#bfbfbf" points="323,-706 352,-706 "/>
<text text-anchor="middle" x="337.5" y="-694" font-family="Helvetica,sans-Serif" font-size="10.00"> </text>
<polyline fill="none" stroke="#bfbfbf" points="323,-687 352,-687 "/>
<text text-anchor="middle" x="337.5" y="-675" font-family="Helvetica,sans-Serif" font-size="10.00"> </text>
</a>
</g>
</g>
<!-- Node5&#45;&gt;Node4 -->
<g id="edge4" class="edge">
<title>Node5&#45;&gt;Node4</title>
<path fill="none" stroke="#404040" d="M337.5,-667.84C337.5,-655.34 337.5,-640.34 337.5,-626.68"/>
<polygon fill="none" stroke="#404040" points="337.5,-626.61 333.5,-620.61 337.5,-614.61 341.5,-620.61 337.5,-626.61"/>
<text text-anchor="middle" x="347.5" y="-636" font-family="Helvetica,sans-Serif" font-size="10.00"> +ptr</text>
</g>
<!-- Node9 -->
<g id="node9" class="node">
<title>Node9</title>
<g id="a_node9"><a xlink:title=" ">
<polygon fill="white" stroke="#bfbfbf" points="176.5,-557.5 176.5,-614.5 260.5,-614.5 260.5,-557.5 176.5,-557.5"/>
<text text-anchor="middle" x="218.5" y="-602.5" font-family="Helvetica,sans-Serif" font-size="10.00">std::vector&lt; T &gt;</text>
<polyline fill="none" stroke="#bfbfbf" points="176.5,-595.5 260.5,-595.5 "/>
<text text-anchor="middle" x="218.5" y="-583.5" font-family="Helvetica,sans-Serif" font-size="10.00"> </text>
<polyline fill="none" stroke="#bfbfbf" points="176.5,-576.5 260.5,-576.5 "/>
<text text-anchor="middle" x="218.5" y="-564.5" font-family="Helvetica,sans-Serif" font-size="10.00"> </text>
</a>
</g>
</g>
<!-- Node5&#45;&gt;Node9 -->
<g id="edge10" class="edge">
<title>Node5&#45;&gt;Node9</title>
<path fill="none" stroke="#404040" d="M322.91,-682.2C306.76,-667.47 280.07,-643.14 257.71,-622.75"/>
<polygon fill="none" stroke="#404040" points="257.63,-622.67 250.5,-621.59 248.76,-614.59 255.89,-615.68 257.63,-622.67"/>
<text text-anchor="middle" x="303" y="-636" font-family="Helvetica,sans-Serif" font-size="10.00"> +elements</text>
</g>
<!-- Node11 -->
<g id="node11" class="node">
<title>Node11</title>
<g id="a_node11"><a xlink:title=" ">
<polygon fill="white" stroke="#bfbfbf" points="407,-441.5 407,-509.5 508,-509.5 508,-441.5 407,-441.5"/>
<text text-anchor="start" x="415" y="-497.5" font-family="Helvetica,sans-Serif" font-size="10.00">std::unordered_map</text>
<text text-anchor="middle" x="457.5" y="-486.5" font-family="Helvetica,sans-Serif" font-size="10.00">&lt; K, T &gt;</text>
<polyline fill="none" stroke="#bfbfbf" points="407,-479.5 508,-479.5 "/>
<text text-anchor="middle" x="457.5" y="-467.5" font-family="Helvetica,sans-Serif" font-size="10.00"> </text>
<polyline fill="none" stroke="#bfbfbf" points="407,-460.5 508,-460.5 "/>
<text text-anchor="middle" x="457.5" y="-448.5" font-family="Helvetica,sans-Serif" font-size="10.00"> </text>
</a>
</g>
</g>
<!-- Node5&#45;&gt;Node11 -->
<g id="edge14" class="edge">
<title>Node5&#45;&gt;Node11</title>
<path fill="none" stroke="#404040" d="M352.17,-678.51C375.01,-651.11 418.81,-594.57 441.5,-539 443.74,-533.52 445.73,-527.64 447.49,-521.76"/>
<polygon fill="none" stroke="#404040" points="447.59,-521.38 445.32,-514.54 450.77,-509.81 453.04,-516.65 447.59,-521.38"/>
<text text-anchor="middle" x="458" y="-583.5" font-family="Helvetica,sans-Serif" font-size="10.00"> +elements</text>
</g>
<!-- Node6 -->
<g id="node6" class="node">
<title>Node6</title>
<g id="a_node6"><a xlink:title=" ">
<polygon fill="white" stroke="#bfbfbf" points="17,-557.5 17,-614.5 76,-614.5 76,-557.5 17,-557.5"/>
<text text-anchor="middle" x="46.5" y="-602.5" font-family="Helvetica,sans-Serif" font-size="10.00">std::string</text>
<polyline fill="none" stroke="#bfbfbf" points="17,-595.5 76,-595.5 "/>
<text text-anchor="middle" x="46.5" y="-583.5" font-family="Helvetica,sans-Serif" font-size="10.00"> </text>
<polyline fill="none" stroke="#bfbfbf" points="17,-576.5 76,-576.5 "/>
<text text-anchor="middle" x="46.5" y="-564.5" font-family="Helvetica,sans-Serif" font-size="10.00"> </text>
</a>
</g>
</g>
<!-- Node6&#45;&gt;Node2 -->
<g id="edge5" class="edge">
<title>Node6&#45;&gt;Node2</title>
<path fill="none" stroke="#404040" d="M38.99,-557.48C32.24,-527.96 25.15,-480.05 37.5,-441 43.04,-423.49 51.5,-406.26 61.25,-390.12"/>
<polygon fill="none" stroke="#404040" points="61.43,-389.83 61.24,-382.62 67.82,-379.68 68.01,-386.88 61.43,-389.83"/>
<text text-anchor="middle" x="45.5" y="-473" font-family="Helvetica,sans-Serif" font-size="10.00"> #id</text>
</g>
<!-- Node8 -->
<g id="node8" class="node">
<title>Node8</title>
<g id="a_node8"><a xlink:title=" ">
<polygon fill="white" stroke="#bfbfbf" points="62.5,-447 62.5,-504 182.5,-504 182.5,-447 62.5,-447"/>
<text text-anchor="middle" x="122.5" y="-492" font-family="Helvetica,sans-Serif" font-size="10.00">std::vector&lt; std::string &gt;</text>
<polyline fill="none" stroke="#bfbfbf" points="62.5,-485 182.5,-485 "/>
<text text-anchor="middle" x="122.5" y="-473" font-family="Helvetica,sans-Serif" font-size="10.00"> </text>
<polyline fill="none" stroke="#bfbfbf" points="62.5,-466 182.5,-466 "/>
<text text-anchor="middle" x="122.5" y="-454" font-family="Helvetica,sans-Serif" font-size="10.00"> </text>
</a>
</g>
</g>
<!-- Node6&#45;&gt;Node8 -->
<g id="edge8" class="edge">
<title>Node6&#45;&gt;Node8</title>
<path fill="none" stroke="#404040" d="M54.97,-557.45C58.64,-547.71 63.49,-536.95 69.5,-528 72.94,-522.87 76.97,-517.85 81.23,-513.08"/>
<polygon fill="none" stroke="#404040" points="81.36,-512.94 82.6,-505.84 89.63,-504.25 88.4,-511.35 81.36,-512.94"/>
<text text-anchor="middle" x="94" y="-531" font-family="Helvetica,sans-Serif" font-size="10.00"> +elements</text>
</g>
<!-- Node7 -->
<g id="node7" class="node">
<title>Node7</title>
<g id="a_node7"><a xlink:title=" ">
<polygon fill="white" stroke="#bfbfbf" points="0,-662.5 0,-730.5 93,-730.5 93,-662.5 0,-662.5"/>
<text text-anchor="start" x="8" y="-718.5" font-family="Helvetica,sans-Serif" font-size="10.00">std::basic_string&lt;</text>
<text text-anchor="middle" x="46.5" y="-707.5" font-family="Helvetica,sans-Serif" font-size="10.00"> Char &gt;</text>
<polyline fill="none" stroke="#bfbfbf" points="0,-700.5 93,-700.5 "/>
<text text-anchor="middle" x="46.5" y="-688.5" font-family="Helvetica,sans-Serif" font-size="10.00"> </text>
<polyline fill="none" stroke="#bfbfbf" points="0,-681.5 93,-681.5 "/>
<text text-anchor="middle" x="46.5" y="-669.5" font-family="Helvetica,sans-Serif" font-size="10.00"> </text>
</a>
</g>
</g>
<!-- Node7&#45;&gt;Node6 -->
<g id="edge6" class="edge">
<title>Node7&#45;&gt;Node6</title>
<path fill="none" stroke="midnightblue" d="M46.5,-652.06C46.5,-639.51 46.5,-626.15 46.5,-614.83"/>
<polygon fill="none" stroke="midnightblue" points="43,-652.36 46.5,-662.36 50,-652.36 43,-652.36"/>
</g>
<!-- Node8&#45;&gt;Node2 -->
<g id="edge7" class="edge">
<title>Node8&#45;&gt;Node2</title>
<path fill="none" stroke="#404040" d="M102.83,-446.82C98.58,-439.42 94.71,-431.19 92.5,-423 89.95,-413.56 90.45,-410.56 92.5,-401 92.97,-398.83 93.48,-396.64 94.04,-394.46"/>
<polygon fill="none" stroke="#404040" points="94.09,-394.28 91.91,-387.41 97.41,-382.75 99.59,-389.62 94.09,-394.28"/>
<text text-anchor="middle" x="148.5" y="-415" font-family="Helvetica,sans-Serif" font-size="10.00"> &#45;contributing_catchments</text>
<text text-anchor="middle" x="148.5" y="-404" font-family="Helvetica,sans-Serif" font-size="10.00">&#45;receiving_catchments</text>
</g>
<!-- Node9&#45;&gt;Node8 -->
<g id="edge9" class="edge">
<title>Node9&#45;&gt;Node8</title>
<path fill="none" stroke="orange" d="M167.69,-560.61C158.72,-554.54 150.13,-547.33 143.5,-539 135.51,-528.97 130.5,-515.75 127.38,-504.06"/>
<polygon fill="orange" stroke="orange" points="166.05,-563.71 176.37,-566.09 169.78,-557.79 166.05,-563.71"/>
<text text-anchor="middle" x="174" y="-531" font-family="Helvetica,sans-Serif" font-size="10.00"> &lt; std::string &gt;</text>
</g>
<!-- Node15 -->
<g id="node15" class="node">
<title>Node15</title>
<g id="a_node15"><a xlink:title=" ">
<polygon fill="white" stroke="#bfbfbf" points="279,-254 279,-333 380,-333 380,-254 279,-254"/>
<text text-anchor="start" x="287" y="-321" font-family="Helvetica,sans-Serif" font-size="10.00">std::unordered_map</text>
<text text-anchor="start" x="287" y="-310" font-family="Helvetica,sans-Serif" font-size="10.00">&lt; time_step_t, flow</text>
<text text-anchor="middle" x="329.5" y="-299" font-family="Helvetica,sans-Serif" font-size="10.00">_vector &gt;</text>
<polyline fill="none" stroke="#bfbfbf" points="279,-292 380,-292 "/>
<text text-anchor="start" x="287" y="-280" font-family="Helvetica,sans-Serif" font-size="10.00">+ keys</text>
<polyline fill="none" stroke="#bfbfbf" points="279,-273 380,-273 "/>
<text text-anchor="middle" x="329.5" y="-261" font-family="Helvetica,sans-Serif" font-size="10.00"> </text>
</a>
</g>
</g>
<!-- Node9&#45;&gt;Node15 -->
<g id="edge19" class="edge">
<title>Node9&#45;&gt;Node15</title>
<path fill="none" stroke="#404040" d="M215.9,-557.33C214.09,-527.69 214.02,-479.67 227.5,-441 240.08,-404.9 264.22,-369.58 285.86,-342.66"/>
<polygon fill="none" stroke="#404040" points="286.06,-342.41 286.79,-335.23 293.69,-333.14 292.97,-340.32 286.06,-342.41"/>
<text text-anchor="middle" x="252" y="-473" font-family="Helvetica,sans-Serif" font-size="10.00"> +elements</text>
</g>
<!-- Node10 -->
<g id="node10" class="node">
<title>Node10</title>
<g id="a_node10"><a xlink:title=" ">
<polygon fill="white" stroke="#bfbfbf" points="398.5,-254 398.5,-333 516.5,-333 516.5,-254 398.5,-254"/>
<text text-anchor="start" x="406.5" y="-321" font-family="Helvetica,sans-Serif" font-size="10.00">std::unordered_map</text>
<text text-anchor="middle" x="457.5" y="-310" font-family="Helvetica,sans-Serif" font-size="10.00">&lt; time_step_t, double &gt;</text>
<polyline fill="none" stroke="#bfbfbf" points="398.5,-303 516.5,-303 "/>
<text text-anchor="start" x="406.5" y="-291" font-family="Helvetica,sans-Serif" font-size="10.00">+ keys</text>
<text text-anchor="start" x="406.5" y="-280" font-family="Helvetica,sans-Serif" font-size="10.00">+ elements</text>
<polyline fill="none" stroke="#bfbfbf" points="398.5,-273 516.5,-273 "/>
<text text-anchor="middle" x="457.5" y="-261" font-family="Helvetica,sans-Serif" font-size="10.00"> </text>
</a>
</g>
</g>
<!-- Node10&#45;&gt;Node1 -->
<g id="edge11" class="edge">
<title>Node10&#45;&gt;Node1</title>
<path fill="none" stroke="#404040" d="M453.25,-253.92C449.76,-228.07 443.84,-193.49 434.5,-164 433.75,-161.62 432.95,-159.23 432.1,-156.83"/>
<polygon fill="none" stroke="#404040" points="432.09,-156.79 426.24,-152.57 427.89,-145.55 433.74,-149.77 432.09,-156.79"/>
<text text-anchor="middle" x="477" y="-178" font-family="Helvetica,sans-Serif" font-size="10.00"> #summed_flows</text>
<text text-anchor="middle" x="477" y="-167" font-family="Helvetica,sans-Serif" font-size="10.00">#total_requests</text>
</g>
<!-- Node11&#45;&gt;Node10 -->
<g id="edge12" class="edge">
<title>Node11&#45;&gt;Node10</title>
<path fill="none" stroke="orange" d="M457.5,-431.36C457.5,-401.5 457.5,-362.1 457.5,-333.25"/>
<polygon fill="orange" stroke="orange" points="454,-431.49 457.5,-441.49 461,-431.49 454,-431.49"/>
<text text-anchor="middle" x="509.5" y="-409.5" font-family="Helvetica,sans-Serif" font-size="10.00"> &lt; time_step_t, double &gt;</text>
</g>
<!-- Node11&#45;&gt;Node15 -->
<g id="edge20" class="edge">
<title>Node11&#45;&gt;Node15</title>
<path fill="none" stroke="orange" d="M398.11,-441.2C382.62,-432.3 369.83,-424.67 368.5,-423 348,-397.15 338.25,-360.62 333.63,-333.11"/>
<polygon fill="orange" stroke="orange" points="396.51,-444.32 406.93,-446.24 399.99,-438.24 396.51,-444.32"/>
<text text-anchor="start" x="368.5" y="-415" font-family="Helvetica,sans-Serif" font-size="10.00"> &lt; time_step_t, flow</text>
<text text-anchor="middle" x="411" y="-404" font-family="Helvetica,sans-Serif" font-size="10.00">_vector &gt;</text>
</g>
<!-- Node12 -->
<g id="node12" class="node">
<title>Node12</title>
<g id="a_node12"><a xlink:title=" ">
<polygon fill="white" stroke="#bfbfbf" points="524,-557.5 524,-614.5 553,-614.5 553,-557.5 524,-557.5"/>
<text text-anchor="middle" x="538.5" y="-602.5" font-family="Helvetica,sans-Serif" font-size="10.00">K</text>
<polyline fill="none" stroke="#bfbfbf" points="524,-595.5 553,-595.5 "/>
<text text-anchor="middle" x="538.5" y="-583.5" font-family="Helvetica,sans-Serif" font-size="10.00"> </text>
<polyline fill="none" stroke="#bfbfbf" points="524,-576.5 553,-576.5 "/>
<text text-anchor="middle" x="538.5" y="-564.5" font-family="Helvetica,sans-Serif" font-size="10.00"> </text>
</a>
</g>
</g>
<!-- Node12&#45;&gt;Node11 -->
<g id="edge13" class="edge">
<title>Node12&#45;&gt;Node11</title>
<path fill="none" stroke="#404040" d="M523.83,-565.35C514.24,-552.51 501.34,-535.22 489.46,-519.31"/>
<polygon fill="none" stroke="#404040" points="489.41,-519.25 482.62,-516.83 482.23,-509.63 489.03,-512.05 489.41,-519.25"/>
<text text-anchor="middle" x="518" y="-531" font-family="Helvetica,sans-Serif" font-size="10.00"> +keys</text>
</g>
<!-- Node14 -->
<g id="node14" class="node">
<title>Node14</title>
<g id="a_node14"><a xlink:title=" ">
<polygon fill="white" stroke="#bfbfbf" points="526,-447 526,-504 645,-504 645,-447 526,-447"/>
<text text-anchor="middle" x="585.5" y="-492" font-family="Helvetica,sans-Serif" font-size="10.00">std::unordered_set&lt; K &gt;</text>
<polyline fill="none" stroke="#bfbfbf" points="526,-485 645,-485 "/>
<text text-anchor="middle" x="585.5" y="-473" font-family="Helvetica,sans-Serif" font-size="10.00"> </text>
<polyline fill="none" stroke="#bfbfbf" points="526,-466 645,-466 "/>
<text text-anchor="middle" x="585.5" y="-454" font-family="Helvetica,sans-Serif" font-size="10.00"> </text>
</a>
</g>
</g>
<!-- Node12&#45;&gt;Node14 -->
<g id="edge17" class="edge">
<title>Node12&#45;&gt;Node14</title>
<path fill="none" stroke="#404040" d="M550.48,-557.34C556.01,-544.59 562.66,-529.23 568.68,-515.34"/>
<polygon fill="none" stroke="#404040" points="568.77,-515.12 567.48,-508.03 573.54,-504.11 574.83,-511.2 568.77,-515.12"/>
<text text-anchor="middle" x="577" y="-531" font-family="Helvetica,sans-Serif" font-size="10.00"> +keys</text>
</g>
<!-- Node13 -->
<g id="node13" class="node">
<title>Node13</title>
<g id="a_node13"><a xlink:title=" ">
<polygon fill="white" stroke="#bfbfbf" points="535.5,-259.5 535.5,-327.5 631.5,-327.5 631.5,-259.5 535.5,-259.5"/>
<text text-anchor="start" x="543.5" y="-315.5" font-family="Helvetica,sans-Serif" font-size="10.00">std::unordered_set</text>
<text text-anchor="middle" x="583.5" y="-304.5" font-family="Helvetica,sans-Serif" font-size="10.00">&lt; time_step_t &gt;</text>
<polyline fill="none" stroke="#bfbfbf" points="535.5,-297.5 631.5,-297.5 "/>
<text text-anchor="start" x="543.5" y="-285.5" font-family="Helvetica,sans-Serif" font-size="10.00">+ keys</text>
<polyline fill="none" stroke="#bfbfbf" points="535.5,-278.5 631.5,-278.5 "/>
<text text-anchor="middle" x="583.5" y="-266.5" font-family="Helvetica,sans-Serif" font-size="10.00"> </text>
</a>
</g>
</g>
<!-- Node13&#45;&gt;Node1 -->
<g id="edge15" class="edge">
<title>Node13&#45;&gt;Node1</title>
<path fill="none" stroke="#404040" d="M571.55,-259.32C560.48,-231.73 542.04,-192.51 517.5,-164 504.01,-148.33 487.27,-133.91 470.47,-121.42"/>
<polygon fill="none" stroke="#404040" points="470.32,-121.32 463.11,-121.05 460.59,-114.3 467.8,-114.56 470.32,-121.32"/>
<text text-anchor="middle" x="561" y="-172.5" font-family="Helvetica,sans-Serif" font-size="10.00"> #completed</text>
</g>
<!-- Node14&#45;&gt;Node13 -->
<g id="edge16" class="edge">
<title>Node14&#45;&gt;Node13</title>
<path fill="none" stroke="orange" d="M585.08,-436.41C584.72,-404.2 584.21,-358.53 583.87,-327.77"/>
<polygon fill="orange" stroke="orange" points="581.58,-436.81 585.19,-446.77 588.58,-436.73 581.58,-436.81"/>
<text text-anchor="middle" x="620.5" y="-409.5" font-family="Helvetica,sans-Serif" font-size="10.00"> &lt; time_step_t &gt;</text>
</g>
<!-- Node15&#45;&gt;Node1 -->
<g id="edge18" class="edge">
<title>Node15&#45;&gt;Node1</title>
<path fill="none" stroke="#404040" d="M323.99,-253.91C321.67,-227.9 321.31,-193.15 330.5,-164 331.27,-161.56 332.13,-159.13 333.07,-156.71"/>
<polygon fill="none" stroke="#404040" points="333.16,-156.5 331.92,-149.4 338,-145.52 339.24,-152.62 333.16,-156.5"/>
<text text-anchor="middle" x="382.5" y="-178" font-family="Helvetica,sans-Serif" font-size="10.00"> #downstream_requests</text>
<text text-anchor="middle" x="382.5" y="-167" font-family="Helvetica,sans-Serif" font-size="10.00">#upstream_flows</text>
</g>
</g>
</svg>
