<?xml version="1.0" encoding="UTF-8" standalone="no"?>
<!DOCTYPE svg PUBLIC "-//W3C//DTD SVG 1.1//EN"
 "http://www.w3.org/Graphics/SVG/1.1/DTD/svg11.dtd">
<!-- Generated by graphviz version 12.2.0 (20241103.1931)
 -->
<!-- Title: geojson::MultiLineStringFeature Pages: 1 -->
<!--zoomable 658 -->

<svg id="main" version="1.1" xmlns="http://www.w3.org/2000/svg" xmlns:xlink="http://www.w3.org/1999/xlink" xml:space="preserve" onload="init(evt)">

<style type="text/css"><![CDATA[
.node, .edge {opacity: 0.7;}
.node.selected, .edge.selected {opacity: 1;}
.edge:hover path { stroke: red; }
.edge:hover polygon { stroke: red; fill: red; }
]]></style>

<defs>
  <circle id="rim" cx="0" cy="0" r="7"/>
  <circle id="rim2" cx="0" cy="0" r="3.5"/>
  <g id="zoomPlus">
    <use xlink:href="#rim" fill="#404040"><set attributeName="fill" to="#808080" begin="zoomplus.mouseover" end="zoomplus.mouseout"/></use>
    <path d="M-4,0h8M0,-4v8" fill="none" stroke="white" stroke-width="1.5" pointer-events="none"/>
  </g>
  <g id="zoomMin">
    <use xlink:href="#rim" fill="#404040"><set attributeName="fill" to="#808080" begin="zoomminus.mouseover" end="zoomminus.mouseout"/></use>
    <path d="M-4,0h8" fill="none" stroke="white" stroke-width="1.5" pointer-events="none"/>
  </g>
  <g id="arrowUp" transform="translate(30 24)">
    <use xlink:href="#rim"/>
    <path pointer-events="none" fill="none" stroke="white" stroke-width="1.5" d="M0,-3.0v7 M-2.5,-0.5L0,-3.0L2.5,-0.5"/>
  </g>
  <g id="arrowRight" transform="rotate(90) translate(36 -43)">
    <use xlink:href="#rim"/>
    <path pointer-events="none" fill="none" stroke="white" stroke-width="1.5" d="M0,-3.0v7 M-2.5,-0.5L0,-3.0L2.5,-0.5"/>
  </g>
  <g id="arrowDown" transform="rotate(180) translate(-30 -48)">
    <use xlink:href="#rim"/>
    <path pointer-events="none" fill="none" stroke="white" stroke-width="1.5" d="M0,-3.0v7 M-2.5,-0.5L0,-3.0L2.5,-0.5"/>
  </g>
  <g id="arrowLeft" transform="rotate(270) translate(-36 17)">
    <use xlink:href="#rim"/>
    <path pointer-events="none" fill="none" stroke="white" stroke-width="1.5" d="M0,-3.0v7 M-2.5,-0.5L0,-3.0L2.5,-0.5"/>
  </g>
  <g id="resetDef">
    <use xlink:href="#rim2" fill="#404040"><set attributeName="fill" to="#808080" begin="reset.mouseover" end="reset.mouseout"/></use>
  </g>
</defs>
<script type="application/ecmascript">
var viewWidth = 136;
var viewHeight = 658;
var sectionId = 'dynsection-0';
</script>
<script type="application/ecmascript" xlink:href="svg.min.js"/>
<svg id="graph" class="graph">
<g id="viewport">
<title>geojson::MultiLineStringFeature</title>
<!-- Node1 -->
<g id="Node000001" class="node">
<title>Node1</title>
<g id="a_Node000001"><a xlink:title=" ">
<polygon fill="#999999" stroke="none" points="124.88,-122 2.63,-122 2.63,0 124.88,0 124.88,-122"/>
<text text-anchor="start" x="12" y="-108.5" font-family="Helvetica,sans-Serif" font-size="10.00">geojson::MultiLineString</text>
<text text-anchor="start" x="47.25" y="-97.25" font-family="Helvetica,sans-Serif" font-size="10.00">Feature</text>
<text text-anchor="start" x="62.25" y="-82" font-family="Helvetica,sans-Serif" font-size="10.00"> </text>
<text text-anchor="start" x="6.62" y="-66.75" font-family="Helvetica,sans-Serif" font-size="10.00">+</text>
<text text-anchor="start" x="16.62" y="-66.75" font-family="Helvetica,sans-Serif" font-size="10.00">MultiLineStringFeature()</text>
<text text-anchor="start" x="6.62" y="-51.5" font-family="Helvetica,sans-Serif" font-size="10.00">+</text>
<text text-anchor="start" x="16.62" y="-51.5" font-family="Helvetica,sans-Serif" font-size="10.00">MultiLineStringFeature()</text>
<text text-anchor="start" x="6.62" y="-36.25" font-family="Helvetica,sans-Serif" font-size="10.00">+</text>
<text text-anchor="start" x="16.62" y="-36.25" font-family="Helvetica,sans-Serif" font-size="10.00">MultiLineStringFeature()</text>
<text text-anchor="start" x="6.62" y="-21" font-family="Helvetica,sans-Serif" font-size="10.00">+</text>
<text text-anchor="start" x="16.62" y="-21" font-family="Helvetica,sans-Serif" font-size="10.00">geometry()</text>
<text text-anchor="start" x="6.62" y="-5.75" font-family="Helvetica,sans-Serif" font-size="10.00">+</text>
<text text-anchor="start" x="16.62" y="-5.75" font-family="Helvetica,sans-Serif" font-size="10.00">visit()</text>
<polygon fill="#666666" stroke="#666666" points="2.62,-93.5 2.62,-93.5 124.88,-93.5 124.88,-93.5 2.62,-93.5"/>
<polygon fill="#666666" stroke="#666666" points="2.62,-78.25 2.62,-78.25 124.88,-78.25 124.88,-78.25 2.62,-78.25"/>
<polygon fill="none" stroke="#666666" points="2.62,0 2.62,-122 124.88,-122 124.88,0 2.62,0"/>
</a>
</g>
</g>
<!-- Node2 -->
<g id="Node000002" class="node">
<title>Node2</title>
<g id="a_Node000002"><a xlink:href="classgeojson_1_1_feature_base.html" target="_top" xlink:title="Represents an individual feature within a Geojson definition.">
<polygon fill="white" stroke="none" points="127.5,-650 0,-650 0,-158 127.5,-158 127.5,-650"/>
<text text-anchor="start" x="16.88" y="-636.5" font-family="Helvetica,sans-Serif" font-size="10.00">geojson::FeatureBase</text>
<text text-anchor="start" x="4.38" y="-621.25" font-family="Helvetica,sans-Serif" font-size="10.00">#</text>
<text text-anchor="start" x="14" y="-621.25" font-family="Helvetica,sans-Serif" font-size="10.00">type</text>
<text text-anchor="start" x="4.38" y="-606" font-family="Helvetica,sans-Serif" font-size="10.00">#</text>
<text text-anchor="start" x="14" y="-606" font-family="Helvetica,sans-Serif" font-size="10.00">geom</text>
<text text-anchor="start" x="4.38" y="-590.75" font-family="Helvetica,sans-Serif" font-size="10.00">#</text>
<text text-anchor="start" x="14" y="-590.75" font-family="Helvetica,sans-Serif" font-size="10.00">geometry_collection</text>
<text text-anchor="start" x="4.38" y="-575.5" font-family="Helvetica,sans-Serif" font-size="10.00">#</text>
<text text-anchor="start" x="14" y="-575.5" font-family="Helvetica,sans-Serif" font-size="10.00">properties</text>
<text text-anchor="start" x="4.38" y="-560.25" font-family="Helvetica,sans-Serif" font-size="10.00">#</text>
<text text-anchor="start" x="14" y="-560.25" font-family="Helvetica,sans-Serif" font-size="10.00">bounding_box</text>
<text text-anchor="start" x="4.38" y="-545" font-family="Helvetica,sans-Serif" font-size="10.00">#</text>
<text text-anchor="start" x="14" y="-545" font-family="Helvetica,sans-Serif" font-size="10.00">foreign_members</text>
<text text-anchor="start" x="4.38" y="-529.75" font-family="Helvetica,sans-Serif" font-size="10.00">#</text>
<text text-anchor="start" x="14" y="-529.75" font-family="Helvetica,sans-Serif" font-size="10.00">id</text>
<text text-anchor="start" x="4.38" y="-514.5" font-family="Helvetica,sans-Serif" font-size="10.00">#</text>
<text text-anchor="start" x="14" y="-514.5" font-family="Helvetica,sans-Serif" font-size="10.00">origination</text>
<text text-anchor="start" x="4.38" y="-499.25" font-family="Helvetica,sans-Serif" font-size="10.00">#</text>
<text text-anchor="start" x="14" y="-499.25" font-family="Helvetica,sans-Serif" font-size="10.00">destination</text>
<text text-anchor="start" x="4.38" y="-484" font-family="Helvetica,sans-Serif" font-size="10.00">#</text>
<text text-anchor="start" x="14" y="-484" font-family="Helvetica,sans-Serif" font-size="10.00">neighbors</text>
<text text-anchor="start" x="4" y="-468.75" font-family="Helvetica,sans-Serif" font-size="10.00">+</text>
<text text-anchor="start" x="14" y="-468.75" font-family="Helvetica,sans-Serif" font-size="10.00">FeatureBase()</text>
<text text-anchor="start" x="4" y="-453.5" font-family="Helvetica,sans-Serif" font-size="10.00">+</text>
<text text-anchor="start" x="14" y="-453.5" font-family="Helvetica,sans-Serif" font-size="10.00">~FeatureBase()</text>
<text text-anchor="start" x="4" y="-438.25" font-family="Helvetica,sans-Serif" font-size="10.00">+</text>
<text text-anchor="start" x="14" y="-438.25" font-family="Helvetica,sans-Serif" font-size="10.00">get_type()</text>
<text text-anchor="start" x="4" y="-423" font-family="Helvetica,sans-Serif" font-size="10.00">+</text>
<text text-anchor="start" x="14" y="-423" font-family="Helvetica,sans-Serif" font-size="10.00">add_origination_feature()</text>
<text text-anchor="start" x="4" y="-407.75" font-family="Helvetica,sans-Serif" font-size="10.00">+</text>
<text text-anchor="start" x="14" y="-407.75" font-family="Helvetica,sans-Serif" font-size="10.00">add_destination_feature()</text>
<text text-anchor="start" x="4" y="-392.5" font-family="Helvetica,sans-Serif" font-size="10.00">+</text>
<text text-anchor="start" x="14" y="-392.5" font-family="Helvetica,sans-Serif" font-size="10.00">assign_neighbors()</text>
<text text-anchor="start" x="4" y="-377.25" font-family="Helvetica,sans-Serif" font-size="10.00">+</text>
<text text-anchor="start" x="14" y="-377.25" font-family="Helvetica,sans-Serif" font-size="10.00">add_neighbor_feature()</text>
<text text-anchor="start" x="4" y="-362" font-family="Helvetica,sans-Serif" font-size="10.00">+</text>
<text text-anchor="start" x="14" y="-362" font-family="Helvetica,sans-Serif" font-size="10.00">get_property()</text>
<text text-anchor="start" x="4" y="-346.75" font-family="Helvetica,sans-Serif" font-size="10.00">+</text>
<text text-anchor="start" x="14" y="-346.75" font-family="Helvetica,sans-Serif" font-size="10.00">set_id()</text>
<text text-anchor="start" x="4" y="-331.5" font-family="Helvetica,sans-Serif" font-size="10.00">+</text>
<text text-anchor="start" x="14" y="-331.5" font-family="Helvetica,sans-Serif" font-size="10.00">get()</text>
<text text-anchor="start" x="4" y="-316.25" font-family="Helvetica,sans-Serif" font-size="10.00">+</text>
<text text-anchor="start" x="14" y="-316.25" font-family="Helvetica,sans-Serif" font-size="10.00">set()</text>
<text text-anchor="start" x="4" y="-301" font-family="Helvetica,sans-Serif" font-size="10.00">+</text>
<text text-anchor="start" x="14" y="-301" font-family="Helvetica,sans-Serif" font-size="10.00">set()</text>
<text text-anchor="start" x="4" y="-285.75" font-family="Helvetica,sans-Serif" font-size="10.00">+</text>
<text text-anchor="start" x="14" y="-285.75" font-family="Helvetica,sans-Serif" font-size="10.00">set()</text>
<text text-anchor="start" x="4" y="-270.5" font-family="Helvetica,sans-Serif" font-size="10.00">+</text>
<text text-anchor="start" x="14" y="-270.5" font-family="Helvetica,sans-Serif" font-size="10.00">set()</text>
<text text-anchor="start" x="4" y="-255.25" font-family="Helvetica,sans-Serif" font-size="10.00">+</text>
<text text-anchor="start" x="14" y="-255.25" font-family="Helvetica,sans-Serif" font-size="10.00">set()</text>
<text text-anchor="start" x="14" y="-240" font-family="Helvetica,sans-Serif" font-size="10.00">and 31 more...</text>
<text text-anchor="start" x="4.38" y="-224.75" font-family="Helvetica,sans-Serif" font-size="10.00">#</text>
<text text-anchor="start" x="14" y="-224.75" font-family="Helvetica,sans-Serif" font-size="10.00">FeatureBase()</text>
<text text-anchor="start" x="4.38" y="-209.5" font-family="Helvetica,sans-Serif" font-size="10.00">#</text>
<text text-anchor="start" x="14" y="-209.5" font-family="Helvetica,sans-Serif" font-size="10.00">break_links()</text>
<text text-anchor="start" x="4.38" y="-194.25" font-family="Helvetica,sans-Serif" font-size="10.00">#</text>
<text text-anchor="start" x="14" y="-194.25" font-family="Helvetica,sans-Serif" font-size="10.00">remove_destination()</text>
<text text-anchor="start" x="4.38" y="-179" font-family="Helvetica,sans-Serif" font-size="10.00">#</text>
<text text-anchor="start" x="14" y="-179" font-family="Helvetica,sans-Serif" font-size="10.00">remove_origination()</text>
<text text-anchor="start" x="4.38" y="-163.75" font-family="Helvetica,sans-Serif" font-size="10.00">#</text>
<text text-anchor="start" x="14" y="-163.75" font-family="Helvetica,sans-Serif" font-size="10.00">remove_neighbor()</text>
<polygon fill="#666666" stroke="#666666" points="0,-632.75 0,-632.75 127.5,-632.75 127.5,-632.75 0,-632.75"/>
<polygon fill="#666666" stroke="#666666" points="0,-480.25 0,-480.25 12,-480.25 12,-480.25 0,-480.25"/>
<polygon fill="#666666" stroke="#666666" points="12,-480.25 12,-480.25 127.5,-480.25 127.5,-480.25 12,-480.25"/>
<polygon fill="none" stroke="#666666" points="0,-158 0,-650 127.5,-650 127.5,-158 0,-158"/>
</a>
</g>
</g>
<!-- Node2&#45;&gt;Node1 -->
<g id="edge1_Node000001_Node000002" class="edge">
<title>Node2&#45;&gt;Node1</title>
<g id="a_edge1_Node000001_Node000002"><a xlink:title=" ">
<path fill="none" stroke="#63b8ff" d="M63.75,-147C63.75,-138.2 63.75,-129.81 63.75,-121.97"/>
<polygon fill="none" stroke="#63b8ff" points="60.25,-146.84 63.75,-156.84 67.25,-146.84 60.25,-146.84"/>
</a>
</g>
</g>
</g>
</svg>

<g id="navigator" transform="translate(0 0)" fill="#404254">
  <rect fill="#f2f5e9" fill-opacity="0.5" stroke="#606060" stroke-width=".5" x="0" y="0" width="60" height="60"/>
  <use id="zoomplus" xlink:href="#zoomPlus" x="17" y="9" onmousedown="handleZoom(evt,'in')"/>
  <use id="zoomminus" xlink:href="#zoomMin" x="42" y="9" onmousedown="handleZoom(evt,'out')"/>
  <use id="reset" xlink:href="#resetDef" x="30" y="36" onmousedown="handleReset()"/>
   <use id="arrowup" xlink:href="#arrowUp" x="0" y="0" onmousedown="handlePan(0,-1)"/>
  <use id="arrowright" xlink:href="#arrowRight" x="0" y="0" onmousedown="handlePan(1,0)"/>
  <use id="arrowdown" xlink:href="#arrowDown" x="0" y="0" onmousedown="handlePan(0,1)"/>
  <use id="arrowleft" xlink:href="#arrowLeft" x="0" y="0" onmousedown="handlePan(-1,0)"/>
</g>
<svg viewBox="0 0 15 15" width="100%" height="30px" preserveAspectRatio="xMaxYMin meet">
 <g id="arrow_out" transform="scale(0.3 0.3)">
  <a xlink:href="classgeojson_1_1_multi_line_string_feature__inherit__graph_org.svg" target="_base">
   <rect id="button" ry="5" rx="5" y="6" x="6" height="38" width="38"
        fill="#f2f5e9" fill-opacity="0.5" stroke="#606060" stroke-width="1.0"/>
   <path id="arrow"
     d="M 11.500037,31.436501 C 11.940474,20.09759 22.043105,11.32322 32.158766,21.979434 L 37.068811,17.246167 C 37.068811,17.246167 37.088388,32 37.088388,32 L 22.160133,31.978069 C 22.160133,31.978069 26.997745,27.140456 26.997745,27.140456 C 18.528582,18.264221 13.291696,25.230495 11.500037,31.436501 z"
     style="fill:#404040;"/>
  </a>
 </g>
</svg>

<style type='text/css'>
<![CDATA[
[data-mouse-over-selected='false'] { opacity: 0.7; }
[data-mouse-over-selected='true']  { opacity: 1.0; }
]]>
</style>
<script type="application/ecmascript"><![CDATA[
document.addEventListener('DOMContentLoaded', (event) => {
  highlightEdges();
  highlightAdjacentNodes();
});
]]></script>
</svg>
