<?xml version="1.0" encoding="UTF-8" standalone="no"?>
<!DOCTYPE svg PUBLIC "-//W3C//DTD SVG 1.1//EN"
 "http://www.w3.org/Graphics/SVG/1.1/DTD/svg11.dtd">
<!-- Generated by graphviz version 9.0.0 (20230911.1827)
 -->
<!-- Title: HY_FlowPath Pages: 1 -->
<!--zoomable 1422 -->

<svg id="main" version="1.1" xmlns="http://www.w3.org/2000/svg" xmlns:xlink="http://www.w3.org/1999/xlink" xml:space="preserve" onload="init(evt)">
<style type="text/css"><![CDATA[
.node, .edge {opacity: 0.7;}
.node.selected, .edge.selected {opacity: 1;}
.edge:hover path { stroke: red; }
.edge:hover polygon { stroke: red; fill: red; }
]]></style>

<defs>
  <circle id="rim" cx="0" cy="0" r="7"/>
  <circle id="rim2" cx="0" cy="0" r="3.5"/>
  <g id="zoomPlus">
    <use xlink:href="#rim" fill="#404040"><set attributeName="fill" to="#808080" begin="zoomplus.mouseover" end="zoomplus.mouseout"/></use>
    <path d="M-4,0h8M0,-4v8" fill="none" stroke="white" stroke-width="1.5" pointer-events="none"/>
  </g>
  <g id="zoomMin">
    <use xlink:href="#rim" fill="#404040"><set attributeName="fill" to="#808080" begin="zoomminus.mouseover" end="zoomminus.mouseout"/></use>
    <path d="M-4,0h8" fill="none" stroke="white" stroke-width="1.5" pointer-events="none"/>
  </g>
  <g id="arrowUp" transform="translate(30 24)">
    <use xlink:href="#rim"/>
    <path pointer-events="none" fill="none" stroke="white" stroke-width="1.5" d="M0,-3.0v7 M-2.5,-0.5L0,-3.0L2.5,-0.5"/>
  </g>
  <g id="arrowRight" transform="rotate(90) translate(36 -43)">
    <use xlink:href="#rim"/>
    <path pointer-events="none" fill="none" stroke="white" stroke-width="1.5" d="M0,-3.0v7 M-2.5,-0.5L0,-3.0L2.5,-0.5"/>
  </g>
  <g id="arrowDown" transform="rotate(180) translate(-30 -48)">
    <use xlink:href="#rim"/>
    <path pointer-events="none" fill="none" stroke="white" stroke-width="1.5" d="M0,-3.0v7 M-2.5,-0.5L0,-3.0L2.5,-0.5"/>
  </g>
  <g id="arrowLeft" transform="rotate(270) translate(-36 17)">
    <use xlink:href="#rim"/>
    <path pointer-events="none" fill="none" stroke="white" stroke-width="1.5" d="M0,-3.0v7 M-2.5,-0.5L0,-3.0L2.5,-0.5"/>
  </g>
  <g id="resetDef">
    <use xlink:href="#rim2" fill="#404040"><set attributeName="fill" to="#808080" begin="reset.mouseover" end="reset.mouseout"/></use>
  </g>
</defs>
<script type="application/ecmascript">
var viewWidth = 1020;
var viewHeight = 1422;
var sectionId = 'dynsection-1';
</script>
<script type="application/ecmascript" xlink:href="svg.min.js"/>
<svg id="graph" class="graph">
<g id="viewport">
<title>HY_FlowPath</title>
<!-- Node1 -->
<g id="Node000001" class="node">
<title>Node1</title>
<g id="a_Node000001"><a xlink:title=" ">
<polygon fill="#999999" stroke="none" points="209,-469.75 119,-469.75 119,-405.75 209,-405.75 209,-469.75"/>
<text text-anchor="start" x="133.62" y="-456.25" font-family="Helvetica,sans-Serif" font-size="10.00">HY_FlowPath</text>
<text text-anchor="start" x="162.5" y="-441.25" font-family="Helvetica,sans-Serif" font-size="10.00"> </text>
<text text-anchor="start" x="123" y="-426.25" font-family="Helvetica,sans-Serif" font-size="10.00">+</text>
<text text-anchor="start" x="133" y="-426.25" font-family="Helvetica,sans-Serif" font-size="10.00">HY_FlowPath()</text>
<text text-anchor="start" x="123" y="-411.25" font-family="Helvetica,sans-Serif" font-size="10.00">+</text>
<text text-anchor="start" x="133" y="-411.25" font-family="Helvetica,sans-Serif" font-size="10.00">~HY_FlowPath()</text>
<polygon fill="#666666" stroke="#666666" points="119,-452.75 119,-452.75 209,-452.75 209,-452.75 119,-452.75"/>
<polygon fill="#666666" stroke="#666666" points="119,-437.75 119,-437.75 209,-437.75 209,-437.75 119,-437.75"/>
<polygon fill="none" stroke="#666666" points="119,-405.75 119,-469.75 209,-469.75 209,-405.75 119,-405.75"/>
</a>
</g>
</g>
<!-- Node2 -->
<g id="Node000002" class="node">
<title>Node2</title>
<g id="a_Node000002"><a xlink:href="class_g_m___object.html" target="_top" xlink:title=" ">
<polygon fill="white" stroke="none" points="78,-611 0,-611 0,-547 78,-547 78,-611"/>
<text text-anchor="start" x="14.25" y="-597.5" font-family="Helvetica,sans-Serif" font-size="10.00">GM_Object</text>
<text text-anchor="start" x="37.5" y="-582.5" font-family="Helvetica,sans-Serif" font-size="10.00"> </text>
<text text-anchor="start" x="4" y="-567.5" font-family="Helvetica,sans-Serif" font-size="10.00">+</text>
<text text-anchor="start" x="14" y="-567.5" font-family="Helvetica,sans-Serif" font-size="10.00">GM_Object()</text>
<text text-anchor="start" x="4" y="-552.5" font-family="Helvetica,sans-Serif" font-size="10.00">+</text>
<text text-anchor="start" x="14" y="-552.5" font-family="Helvetica,sans-Serif" font-size="10.00">~GM_Object()</text>
<polygon fill="#666666" stroke="#666666" points="0,-594 0,-594 78,-594 78,-594 0,-594"/>
<polygon fill="#666666" stroke="#666666" points="0,-579 0,-579 78,-579 78,-579 0,-579"/>
<polygon fill="none" stroke="#666666" points="0,-547 0,-611 78,-611 78,-547 0,-547"/>
</a>
</g>
</g>
<!-- Node2&#45;&gt;Node1 -->
<g id="edge1_Node000001_Node000002" class="edge">
<title>Node2&#45;&gt;Node1</title>
<g id="a_edge1_Node000001_Node000002"><a xlink:title=" ">
<path fill="none" stroke="#63b8ff" d="M69.34,-538.13C75.07,-530.98 81.11,-523.68 87,-517 101.23,-500.84 117.9,-483.7 132.09,-469.59"/>
<polygon fill="none" stroke="#63b8ff" points="66.68,-535.85 63.22,-545.87 72.17,-540.19 66.68,-535.85"/>
</a>
</g>
</g>
<!-- Node3 -->
<g id="Node000003" class="node">
<title>Node3</title>
<g id="a_Node000003"><a xlink:href="class_h_y___catchment_realization.html" target="_top" xlink:title=" ">
<polygon fill="white" stroke="none" points="239.5,-641 96.5,-641 96.5,-517 239.5,-517 239.5,-641"/>
<text text-anchor="start" x="111" y="-627.5" font-family="Helvetica,sans-Serif" font-size="10.00">HY_CatchmentRealization</text>
<text text-anchor="start" x="100.88" y="-612.5" font-family="Helvetica,sans-Serif" font-size="10.00">#</text>
<text text-anchor="start" x="110.5" y="-612.5" font-family="Helvetica,sans-Serif" font-size="10.00">id_number</text>
<text text-anchor="start" x="100.5" y="-597.5" font-family="Helvetica,sans-Serif" font-size="10.00">+</text>
<text text-anchor="start" x="110.5" y="-597.5" font-family="Helvetica,sans-Serif" font-size="10.00">HY_CatchmentRealization()</text>
<text text-anchor="start" x="100.5" y="-582.5" font-family="Helvetica,sans-Serif" font-size="10.00">+</text>
<text text-anchor="start" x="110.5" y="-582.5" font-family="Helvetica,sans-Serif" font-size="10.00">HY_CatchmentRealization()</text>
<text text-anchor="start" x="100.5" y="-567.5" font-family="Helvetica,sans-Serif" font-size="10.00">+</text>
<text text-anchor="start" x="110.5" y="-567.5" font-family="Helvetica,sans-Serif" font-size="10.00">~HY_CatchmentRealization()</text>
<text text-anchor="start" x="100.5" y="-552.5" font-family="Helvetica,sans-Serif" font-size="10.00">+</text>
<text text-anchor="start" x="110.5" y="-552.5" font-family="Helvetica,sans-Serif" font-size="10.00">get_response()</text>
<text text-anchor="start" x="100.88" y="-537.5" font-family="Helvetica,sans-Serif" font-size="10.00">#</text>
<text text-anchor="start" x="110.5" y="-537.5" font-family="Helvetica,sans-Serif" font-size="10.00">get_catchment_id()</text>
<text text-anchor="start" x="100.88" y="-522.5" font-family="Helvetica,sans-Serif" font-size="10.00">#</text>
<text text-anchor="start" x="110.5" y="-522.5" font-family="Helvetica,sans-Serif" font-size="10.00">set_catchment_id()</text>
<polygon fill="#666666" stroke="#666666" points="96.5,-624 96.5,-624 239.5,-624 239.5,-624 96.5,-624"/>
<polygon fill="#666666" stroke="#666666" points="96.5,-609 96.5,-609 108.5,-609 108.5,-609 96.5,-609"/>
<polygon fill="#666666" stroke="#666666" points="108.5,-609 108.5,-609 239.5,-609 239.5,-609 108.5,-609"/>
<polygon fill="none" stroke="#666666" points="96.5,-517 96.5,-641 239.5,-641 239.5,-517 96.5,-517"/>
</a>
</g>
</g>
<!-- Node3&#45;&gt;Node1 -->
<g id="edge2_Node000001_Node000003" class="edge">
<title>Node3&#45;&gt;Node1</title>
<g id="a_edge2_Node000001_Node000003"><a xlink:title=" ">
<path fill="none" stroke="#63b8ff" d="M165.93,-506.01C165.56,-493.11 165.19,-480.32 164.88,-469.41"/>
<polygon fill="none" stroke="#63b8ff" points="162.43,-505.92 166.21,-515.82 169.43,-505.72 162.43,-505.92"/>
</a>
</g>
</g>
<!-- Node7 -->
<g id="Node000007" class="node">
<title>Node7</title>
<g id="a_Node000007"><a xlink:title=" ">
<polygon fill="white" stroke="none" points="509,-467.75 391,-467.75 391,-407.75 509,-407.75 509,-467.75"/>
<text text-anchor="start" x="396" y="-454.25" font-family="Helvetica,sans-Serif" font-size="10.00">std::shared_ptr&lt; HY</text>
<text text-anchor="start" x="396" y="-443" font-family="Helvetica,sans-Serif" font-size="10.00">_CatchmentRealization &gt;</text>
<text text-anchor="start" x="448.5" y="-428.25" font-family="Helvetica,sans-Serif" font-size="10.00"> </text>
<text text-anchor="start" x="407.5" y="-413.25" font-family="Helvetica,sans-Serif" font-size="10.00">+</text>
<text text-anchor="start" x="430" y="-413.25" font-family="Helvetica,sans-Serif" font-size="10.00">operator&#45;&gt;()</text>
<polygon fill="#666666" stroke="#666666" points="391,-439.75 391,-439.75 509,-439.75 509,-439.75 391,-439.75"/>
<polygon fill="#666666" stroke="#666666" points="391,-424.75 391,-424.75 509,-424.75 509,-424.75 391,-424.75"/>
<polygon fill="none" stroke="#666666" points="391,-407.75 391,-467.75 509,-467.75 509,-407.75 391,-407.75"/>
</a>
</g>
</g>
<!-- Node3&#45;&gt;Node7 -->
<g id="edge7_Node000007_Node000003" class="edge">
<title>Node3&#45;&gt;Node7</title>
<g id="a_edge7_Node000007_Node000003"><a xlink:title=" ">
<path fill="none" stroke="#63b8ff" d="M239.38,-525.31C244.24,-522.36 249.14,-519.56 254,-517 304.18,-490.54 323.42,-492.45 379.1,-470.74"/>
<polygon fill="none" stroke="#63b8ff" points="379.17,-470.71 383.25,-464.76 390.31,-466.24 386.23,-472.19 379.17,-470.71"/>
</a>
</g>
<text text-anchor="middle" x="337.75" y="-489.5" font-family="Helvetica,sans-Serif" font-size="10.00" fill="grey"> +ptr</text>
</g>
<!-- Node4 -->
<g id="Node000004" class="node">
<title>Node4</title>
<g id="a_Node000004"><a xlink:title=" ">
<polygon fill="white" stroke="none" points="593,-60 497,-60 497,0 593,0 593,-60"/>
<text text-anchor="start" x="501.88" y="-46.5" font-family="Helvetica,sans-Serif" font-size="10.00">std::shared_ptr&lt; HY</text>
<text text-anchor="start" x="514.62" y="-35.25" font-family="Helvetica,sans-Serif" font-size="10.00">_Catchment &gt;</text>
<text text-anchor="start" x="543.5" y="-20.5" font-family="Helvetica,sans-Serif" font-size="10.00"> </text>
<text text-anchor="start" x="508" y="-5.5" font-family="Helvetica,sans-Serif" font-size="10.00">+</text>
<text text-anchor="start" x="525" y="-5.5" font-family="Helvetica,sans-Serif" font-size="10.00">operator&#45;&gt;()</text>
<polygon fill="#666666" stroke="#666666" points="497,-32 497,-32 593,-32 593,-32 497,-32"/>
<polygon fill="#666666" stroke="#666666" points="497,-17 497,-17 593,-17 593,-17 497,-17"/>
<polygon fill="none" stroke="#666666" points="497,0 497,-60 593,-60 593,0 497,0"/>
</a>
</g>
</g>
<!-- Node4&#45;&gt;Node3 -->
<g id="edge3_Node000003_Node000004" class="edge">
<title>Node4&#45;&gt;Node3</title>
<g id="a_edge3_Node000003_Node000004"><a xlink:title=" ">
<path fill="none" stroke="#63b8ff" d="M504.78,-59.83C487.53,-73.22 467.76,-89.97 452,-107.25 345.06,-224.52 329.31,-264.99 256,-405.75 238.94,-438.5 220.31,-474.89 204.59,-505.76"/>
<polygon fill="none" stroke="#63b8ff" points="204.57,-505.8 205.41,-512.96 199.13,-516.49 198.28,-509.33 204.57,-505.8"/>
</a>
</g>
<text text-anchor="middle" x="322.75" y="-372.62" font-family="Helvetica,sans-Serif" font-size="10.00" fill="grey"> #realized_catchment</text>
</g>
<!-- Node5 -->
<g id="Node000005" class="node">
<title>Node5</title>
<g id="a_Node000005"><a xlink:href="class_h_y___catchment.html" target="_top" xlink:title=" ">
<polygon fill="white" stroke="none" points="629.5,-347.25 460.5,-347.25 460.5,-107.25 629.5,-107.25 629.5,-347.25"/>
<text text-anchor="start" x="511.62" y="-333.75" font-family="Helvetica,sans-Serif" font-size="10.00">HY_Catchment</text>
<text text-anchor="start" x="464.5" y="-318.75" font-family="Helvetica,sans-Serif" font-size="10.00">+</text>
<text text-anchor="start" x="474.5" y="-318.75" font-family="Helvetica,sans-Serif" font-size="10.00">ATMOSPHERIC_LAYER_HIGH</text>
<text text-anchor="start" x="464.5" y="-303.75" font-family="Helvetica,sans-Serif" font-size="10.00">+</text>
<text text-anchor="start" x="474.5" y="-303.75" font-family="Helvetica,sans-Serif" font-size="10.00">ATMOSPHERIC_Layer_LOW</text>
<text text-anchor="start" x="464.5" y="-288.75" font-family="Helvetica,sans-Serif" font-size="10.00">+</text>
<text text-anchor="start" x="474.5" y="-288.75" font-family="Helvetica,sans-Serif" font-size="10.00">CANOPY_LAYER</text>
<text text-anchor="start" x="464.5" y="-273.75" font-family="Helvetica,sans-Serif" font-size="10.00">+</text>
<text text-anchor="start" x="474.5" y="-273.75" font-family="Helvetica,sans-Serif" font-size="10.00">SNOW_LAYER</text>
<text text-anchor="start" x="464.5" y="-258.75" font-family="Helvetica,sans-Serif" font-size="10.00">+</text>
<text text-anchor="start" x="474.5" y="-258.75" font-family="Helvetica,sans-Serif" font-size="10.00">SURFACE_LAYER</text>
<text text-anchor="start" x="464.5" y="-243.75" font-family="Helvetica,sans-Serif" font-size="10.00">+</text>
<text text-anchor="start" x="474.5" y="-243.75" font-family="Helvetica,sans-Serif" font-size="10.00">GROUND_WATER_SHALLOW</text>
<text text-anchor="start" x="474.5" y="-232.5" font-family="Helvetica,sans-Serif" font-size="10.00">_LAYER</text>
<text text-anchor="start" x="464.5" y="-217.75" font-family="Helvetica,sans-Serif" font-size="10.00">+</text>
<text text-anchor="start" x="474.5" y="-217.75" font-family="Helvetica,sans-Serif" font-size="10.00">GROUND_WATER_DEEP_LAYER</text>
<text text-anchor="start" x="466" y="-202.75" font-family="Helvetica,sans-Serif" font-size="10.00">&#45;</text>
<text text-anchor="start" x="474.5" y="-202.75" font-family="Helvetica,sans-Serif" font-size="10.00">layer</text>
<text text-anchor="start" x="464.5" y="-187.75" font-family="Helvetica,sans-Serif" font-size="10.00">+</text>
<text text-anchor="start" x="474.5" y="-187.75" font-family="Helvetica,sans-Serif" font-size="10.00">HY_Catchment()</text>
<text text-anchor="start" x="464.5" y="-172.75" font-family="Helvetica,sans-Serif" font-size="10.00">+</text>
<text text-anchor="start" x="474.5" y="-172.75" font-family="Helvetica,sans-Serif" font-size="10.00">HY_Catchment()</text>
<text text-anchor="start" x="464.5" y="-157.75" font-family="Helvetica,sans-Serif" font-size="10.00">+</text>
<text text-anchor="start" x="474.5" y="-157.75" font-family="Helvetica,sans-Serif" font-size="10.00">~HY_Catchment()</text>
<text text-anchor="start" x="464.5" y="-142.75" font-family="Helvetica,sans-Serif" font-size="10.00">+</text>
<text text-anchor="start" x="474.5" y="-142.75" font-family="Helvetica,sans-Serif" font-size="10.00">get_outflow_nexuses()</text>
<text text-anchor="start" x="464.5" y="-127.75" font-family="Helvetica,sans-Serif" font-size="10.00">+</text>
<text text-anchor="start" x="474.5" y="-127.75" font-family="Helvetica,sans-Serif" font-size="10.00">get_layer()</text>
<text text-anchor="start" x="464.5" y="-112.75" font-family="Helvetica,sans-Serif" font-size="10.00">+</text>
<text text-anchor="start" x="474.5" y="-112.75" font-family="Helvetica,sans-Serif" font-size="10.00">set_layer()</text>
<polygon fill="#666666" stroke="#666666" points="460.5,-330.25 460.5,-330.25 629.5,-330.25 629.5,-330.25 460.5,-330.25"/>
<polygon fill="#666666" stroke="#666666" points="460.5,-199.25 460.5,-199.25 472.5,-199.25 472.5,-199.25 460.5,-199.25"/>
<polygon fill="#666666" stroke="#666666" points="472.5,-199.25 472.5,-199.25 629.5,-199.25 629.5,-199.25 472.5,-199.25"/>
<polygon fill="none" stroke="#666666" points="460.5,-107.25 460.5,-347.25 629.5,-347.25 629.5,-107.25 460.5,-107.25"/>
</a>
</g>
</g>
<!-- Node5&#45;&gt;Node4 -->
<g id="edge4_Node000004_Node000005" class="edge">
<title>Node5&#45;&gt;Node4</title>
<g id="a_edge4_Node000004_Node000005"><a xlink:title=" ">
<path fill="none" stroke="#63b8ff" d="M545,-107.33C545,-95.04 545,-83.22 545,-72.71"/>
<polygon fill="none" stroke="#63b8ff" points="545,-72.61 541,-66.61 545,-60.61 549,-66.61 545,-72.61"/>
</a>
</g>
<text text-anchor="middle" x="554.75" y="-79.75" font-family="Helvetica,sans-Serif" font-size="10.00" fill="grey"> +ptr</text>
</g>
<!-- Node6 -->
<g id="Node000006" class="node">
<title>Node6</title>
<g id="a_Node000006"><a xlink:href="class_h_y___hydro_feature.html" target="_top" xlink:title=" ">
<polygon fill="white" stroke="none" points="372.5,-469.75 265.5,-469.75 265.5,-405.75 372.5,-405.75 372.5,-469.75"/>
<text text-anchor="start" x="280" y="-456.25" font-family="Helvetica,sans-Serif" font-size="10.00">HY_HydroFeature</text>
<text text-anchor="start" x="317.5" y="-441.25" font-family="Helvetica,sans-Serif" font-size="10.00"> </text>
<text text-anchor="start" x="269.5" y="-426.25" font-family="Helvetica,sans-Serif" font-size="10.00">+</text>
<text text-anchor="start" x="279.5" y="-426.25" font-family="Helvetica,sans-Serif" font-size="10.00">HY_HydroFeature()</text>
<text text-anchor="start" x="269.5" y="-411.25" font-family="Helvetica,sans-Serif" font-size="10.00">+</text>
<text text-anchor="start" x="279.5" y="-411.25" font-family="Helvetica,sans-Serif" font-size="10.00">~HY_HydroFeature()</text>
<polygon fill="#666666" stroke="#666666" points="265.5,-452.75 265.5,-452.75 372.5,-452.75 372.5,-452.75 265.5,-452.75"/>
<polygon fill="#666666" stroke="#666666" points="265.5,-437.75 265.5,-437.75 372.5,-437.75 372.5,-437.75 265.5,-437.75"/>
<polygon fill="none" stroke="#666666" points="265.5,-405.75 265.5,-469.75 372.5,-469.75 372.5,-405.75 265.5,-405.75"/>
</a>
</g>
</g>
<!-- Node6&#45;&gt;Node5 -->
<g id="edge5_Node000005_Node000006" class="edge">
<title>Node6&#45;&gt;Node5</title>
<g id="a_edge5_Node000005_Node000006"><a xlink:title=" ">
<path fill="none" stroke="#63b8ff" d="M360.71,-398.27C388.71,-372.44 426.59,-337.49 460.73,-306"/>
<polygon fill="none" stroke="#63b8ff" points="358.44,-395.61 353.46,-404.96 363.18,-400.75 358.44,-395.61"/>
</a>
</g>
</g>
<!-- Node7&#45;&gt;Node5 -->
<g id="edge6_Node000005_Node000007" class="edge">
<title>Node7&#45;&gt;Node5</title>
<g id="a_edge6_Node000005_Node000007"><a xlink:title=" ">
<path fill="none" stroke="#63b8ff" d="M461.29,-408.06C466.57,-394.93 473.05,-379.22 479.25,-365.25 480.15,-363.22 481.07,-361.17 481.99,-359.12"/>
<polygon fill="none" stroke="#63b8ff" points="482.05,-358.98 480.88,-351.87 487,-348.05 488.17,-355.17 482.05,-358.98"/>
</a>
</g>
<text text-anchor="middle" x="504.88" y="-372.62" font-family="Helvetica,sans-Serif" font-size="10.00" fill="grey"> +realization</text>
</g>
<!-- Node8 -->
<g id="Node000008" class="node">
<title>Node8</title>
<g id="a_Node000008"><a xlink:title=" ">
<polygon fill="white" stroke="none" points="462,-899 366,-899 366,-850 462,-850 462,-899"/>
<text text-anchor="start" x="370.88" y="-885.5" font-family="Helvetica,sans-Serif" font-size="10.00">std::shared_ptr&lt; T &gt;</text>
<text text-anchor="start" x="412.5" y="-870.5" font-family="Helvetica,sans-Serif" font-size="10.00"> </text>
<text text-anchor="start" x="377" y="-855.5" font-family="Helvetica,sans-Serif" font-size="10.00">+</text>
<text text-anchor="start" x="394" y="-855.5" font-family="Helvetica,sans-Serif" font-size="10.00">operator&#45;&gt;()</text>
<polygon fill="#666666" stroke="#666666" points="366,-882 366,-882 462,-882 462,-882 366,-882"/>
<polygon fill="#666666" stroke="#666666" points="366,-867 366,-867 462,-867 462,-867 366,-867"/>
<polygon fill="none" stroke="#666666" points="366,-850 366,-899 462,-899 462,-850 366,-850"/>
</a>
</g>
</g>
<!-- Node8&#45;&gt;Node4 -->
<g id="edge19_Node000004_Node000008" class="edge">
<title>Node8&#45;&gt;Node4</title>
<g id="a_edge19_Node000004_Node000008"><a xlink:title=" ">
<path fill="none" stroke="orange" d="M473,-872.42C607.64,-868.35 926,-849.01 926,-757 926,-757 926,-757 926,-226.25 926,-78.16 695.2,-42.31 592.87,-33.7"/>
<polygon fill="orange" stroke="orange" points="473.12,-868.91 463.22,-872.69 473.32,-875.91 473.12,-868.91"/>
</a>
</g>
<text text-anchor="middle" x="968.75" y="-489.5" font-family="Helvetica,sans-Serif" font-size="10.00" fill="grey"> &lt; HY_Catchment &gt;</text>
</g>
<!-- Node8&#45;&gt;Node7 -->
<g id="edge8_Node000007_Node000008" class="edge">
<title>Node8&#45;&gt;Node7</title>
<g id="a_edge8_Node000007_Node000008"><a xlink:title=" ">
<path fill="none" stroke="orange" d="M431.72,-839.77C433.44,-835.4 434.94,-830.91 436,-826.5 467.62,-695.54 458.38,-532.54 452.82,-467.5"/>
<polygon fill="orange" stroke="orange" points="428.54,-838.32 427.73,-848.88 434.95,-841.13 428.54,-838.32"/>
</a>
</g>
<text text-anchor="middle" x="523.38" y="-679.62" font-family="Helvetica,sans-Serif" font-size="10.00" fill="grey"> &lt; HY_CatchmentRealization &gt;</text>
</g>
<!-- Node15 -->
<g id="Node000015" class="node">
<title>Node15</title>
<g id="a_Node000015"><a xlink:title=" ">
<polygon fill="white" stroke="none" points="252.5,-786 103.5,-786 103.5,-726 252.5,-726 252.5,-786"/>
<text text-anchor="start" x="108.25" y="-772.5" font-family="Helvetica,sans-Serif" font-size="10.00">std::shared_ptr&lt; data</text>
<text text-anchor="start" x="108.25" y="-761.25" font-family="Helvetica,sans-Serif" font-size="10.00">_access::GenericDataProvider &gt;</text>
<text text-anchor="start" x="176.5" y="-746.5" font-family="Helvetica,sans-Serif" font-size="10.00"> </text>
<text text-anchor="start" x="127.5" y="-731.5" font-family="Helvetica,sans-Serif" font-size="10.00">+</text>
<text text-anchor="start" x="157.5" y="-731.5" font-family="Helvetica,sans-Serif" font-size="10.00">operator&#45;&gt;()</text>
<polygon fill="#666666" stroke="#666666" points="103.5,-758 103.5,-758 252.5,-758 252.5,-758 103.5,-758"/>
<polygon fill="#666666" stroke="#666666" points="103.5,-743 103.5,-743 252.5,-743 252.5,-743 103.5,-743"/>
<polygon fill="none" stroke="#666666" points="103.5,-726 103.5,-786 252.5,-786 252.5,-726 103.5,-726"/>
</a>
</g>
</g>
<!-- Node8&#45;&gt;Node15 -->
<g id="edge24_Node000015_Node000008" class="edge">
<title>Node8&#45;&gt;Node15</title>
<g id="a_edge24_Node000015_Node000008"><a xlink:title=" ">
<path fill="none" stroke="orange" d="M355.26,-860.2C301.03,-847.74 228.05,-830.47 222.5,-826.5 208.28,-816.33 197.51,-800.07 190.13,-785.83"/>
<polygon fill="orange" stroke="orange" points="354.17,-863.54 364.7,-862.36 355.73,-856.71 354.17,-863.54"/>
</a>
</g>
<text text-anchor="start" x="223" y="-817" font-family="Helvetica,sans-Serif" font-size="10.00" fill="grey"> &lt; data_access::GenericData</text>
<text text-anchor="middle" x="285.25" y="-805.75" font-family="Helvetica,sans-Serif" font-size="10.00" fill="grey">Provider &gt;</text>
</g>
<!-- Node19 -->
<g id="Node000019" class="node">
<title>Node19</title>
<g id="a_Node000019"><a xlink:title=" ">
<polygon fill="white" stroke="none" points="387.5,-708 250.5,-708 250.5,-659 387.5,-659 387.5,-708"/>
<text text-anchor="start" x="255.25" y="-694.5" font-family="Helvetica,sans-Serif" font-size="10.00">std::shared_ptr&lt; linestring_t &gt;</text>
<text text-anchor="start" x="271.5" y="-679.5" font-family="Helvetica,sans-Serif" font-size="10.00">+</text>
<text text-anchor="start" x="298.5" y="-679.5" font-family="Helvetica,sans-Serif" font-size="10.00">ptr</text>
<text text-anchor="start" x="271.5" y="-664.5" font-family="Helvetica,sans-Serif" font-size="10.00">+</text>
<text text-anchor="start" x="298.5" y="-664.5" font-family="Helvetica,sans-Serif" font-size="10.00">operator&#45;&gt;()</text>
<polygon fill="#666666" stroke="#666666" points="250.5,-691 250.5,-691 387.5,-691 387.5,-691 250.5,-691"/>
<polygon fill="#666666" stroke="#666666" points="250.5,-676 250.5,-676 296.5,-676 296.5,-676 250.5,-676"/>
<polygon fill="#666666" stroke="#666666" points="296.5,-676 296.5,-676 387.5,-676 387.5,-676 296.5,-676"/>
<polygon fill="none" stroke="#666666" points="250.5,-659 250.5,-708 387.5,-708 387.5,-659 250.5,-659"/>
</a>
</g>
</g>
<!-- Node8&#45;&gt;Node19 -->
<g id="edge26_Node000019_Node000008" class="edge">
<title>Node8&#45;&gt;Node19</title>
<g id="a_edge26_Node000019_Node000008"><a xlink:title=" ">
<path fill="none" stroke="orange" d="M381.15,-841.78C377.07,-836.91 373.21,-831.75 370,-826.5 346.5,-788.06 331.56,-737.17 324.28,-707.92"/>
<polygon fill="orange" stroke="orange" points="378.37,-843.92 387.64,-849.06 383.6,-839.26 378.37,-843.92"/>
</a>
</g>
<text text-anchor="middle" x="403" y="-811.38" font-family="Helvetica,sans-Serif" font-size="10.00" fill="grey"> &lt; linestring_t &gt;</text>
</g>
<!-- Node9 -->
<g id="Node000009" class="node">
<title>Node9</title>
<g id="a_Node000009"><a xlink:title=" ">
<polygon fill="white" stroke="none" points="422,-1077.25 406,-1077.25 406,-1028.25 422,-1028.25 422,-1077.25"/>
<text text-anchor="start" x="411" y="-1063.75" font-family="Helvetica,sans-Serif" font-size="10.00">T</text>
<text text-anchor="start" x="412.5" y="-1048.75" font-family="Helvetica,sans-Serif" font-size="10.00"> </text>
<text text-anchor="start" x="412.5" y="-1033.75" font-family="Helvetica,sans-Serif" font-size="10.00"> </text>
<polygon fill="#666666" stroke="#666666" points="406,-1060.25 406,-1060.25 422,-1060.25 422,-1060.25 406,-1060.25"/>
<polygon fill="#666666" stroke="#666666" points="406,-1045.25 406,-1045.25 422,-1045.25 422,-1045.25 406,-1045.25"/>
<polygon fill="none" stroke="#666666" points="406,-1028.25 406,-1077.25 422,-1077.25 422,-1028.25 406,-1028.25"/>
</a>
</g>
</g>
<!-- Node9&#45;&gt;Node8 -->
<g id="edge9_Node000008_Node000009" class="edge">
<title>Node9&#45;&gt;Node8</title>
<g id="a_edge9_Node000008_Node000009"><a xlink:title=" ">
<path fill="none" stroke="#63b8ff" d="M414,-1028.35C414,-998.5 414,-946.59 414,-911.65"/>
<polygon fill="none" stroke="#63b8ff" points="414,-911.62 410,-905.62 414,-899.62 418,-905.62 414,-911.62"/>
</a>
</g>
<text text-anchor="middle" x="423.75" y="-924.25" font-family="Helvetica,sans-Serif" font-size="10.00" fill="grey"> +ptr</text>
</g>
<!-- Node13 -->
<g id="Node000013" class="node">
<title>Node13</title>
<g id="a_Node000013"><a xlink:title=" ">
<polygon fill="white" stroke="none" points="737.5,-603.5 660.5,-603.5 660.5,-554.5 737.5,-554.5 737.5,-603.5"/>
<text text-anchor="start" x="665.25" y="-590" font-family="Helvetica,sans-Serif" font-size="10.00">std::vector&lt; T &gt;</text>
<text text-anchor="start" x="697.5" y="-575" font-family="Helvetica,sans-Serif" font-size="10.00"> </text>
<text text-anchor="start" x="697.5" y="-560" font-family="Helvetica,sans-Serif" font-size="10.00"> </text>
<polygon fill="#666666" stroke="#666666" points="660.5,-586.5 660.5,-586.5 737.5,-586.5 737.5,-586.5 660.5,-586.5"/>
<polygon fill="#666666" stroke="#666666" points="660.5,-571.5 660.5,-571.5 737.5,-571.5 737.5,-571.5 660.5,-571.5"/>
<polygon fill="none" stroke="#666666" points="660.5,-554.5 660.5,-603.5 737.5,-603.5 737.5,-554.5 660.5,-554.5"/>
</a>
</g>
</g>
<!-- Node9&#45;&gt;Node13 -->
<g id="edge15_Node000013_Node000009" class="edge">
<title>Node9&#45;&gt;Node13</title>
<g id="a_edge15_Node000013_Node000009"><a xlink:title=" ">
<path fill="none" stroke="#63b8ff" d="M413.03,-1028.52C413.21,-1007.02 416.3,-974.96 431,-951.75 499.76,-843.15 600.28,-895.25 668,-786 700.41,-733.71 703.44,-659.97 701.82,-616.36"/>
<polygon fill="none" stroke="#63b8ff" points="701.81,-616.21 697.52,-610.42 701.21,-604.23 705.51,-610.02 701.81,-616.21"/>
</a>
</g>
<text text-anchor="middle" x="679" y="-811.38" font-family="Helvetica,sans-Serif" font-size="10.00" fill="grey"> +elements</text>
</g>
<!-- Node10 -->
<g id="Node000010" class="node">
<title>Node10</title>
<g id="a_Node000010"><a xlink:title=" ">
<polygon fill="white" stroke="none" points="642,-603.5 590,-603.5 590,-554.5 642,-554.5 642,-603.5"/>
<text text-anchor="start" x="595" y="-590" font-family="Helvetica,sans-Serif" font-size="10.00">std::string</text>
<text text-anchor="start" x="614.5" y="-575" font-family="Helvetica,sans-Serif" font-size="10.00"> </text>
<text text-anchor="start" x="614.5" y="-560" font-family="Helvetica,sans-Serif" font-size="10.00"> </text>
<polygon fill="#666666" stroke="#666666" points="590,-586.5 590,-586.5 642,-586.5 642,-586.5 590,-586.5"/>
<polygon fill="#666666" stroke="#666666" points="590,-571.5 590,-571.5 642,-571.5 642,-571.5 590,-571.5"/>
<polygon fill="none" stroke="#666666" points="590,-554.5 590,-603.5 642,-603.5 642,-554.5 590,-554.5"/>
</a>
</g>
</g>
<!-- Node10&#45;&gt;Node5 -->
<g id="edge10_Node000005_Node000010" class="edge">
<title>Node10&#45;&gt;Node5</title>
<g id="a_edge10_Node000005_Node000010"><a xlink:title=" ">
<path fill="none" stroke="#63b8ff" d="M598.34,-554.55C583.65,-533.56 563.75,-501.31 554.75,-469.75 544.8,-434.82 540.46,-395.91 539.08,-359.7"/>
<polygon fill="none" stroke="#63b8ff" points="539.08,-359.91 534.91,-354.03 538.73,-347.92 542.91,-353.8 539.08,-359.91"/>
</a>
</g>
<text text-anchor="middle" x="603.12" y="-456.38" font-family="Helvetica,sans-Serif" font-size="10.00" fill="grey"> &#45;conjoint_catchment</text>
<text text-anchor="middle" x="603.12" y="-445.12" font-family="Helvetica,sans-Serif" font-size="10.00" fill="grey">&#45;containing_catchment</text>
<text text-anchor="middle" x="603.12" y="-433.88" font-family="Helvetica,sans-Serif" font-size="10.00" fill="grey">&#45;id</text>
<text text-anchor="middle" x="603.12" y="-422.62" font-family="Helvetica,sans-Serif" font-size="10.00" fill="grey">&#45;lower_catchment</text>
<text text-anchor="middle" x="603.12" y="-411.38" font-family="Helvetica,sans-Serif" font-size="10.00" fill="grey">&#45;upper_catchment</text>
</g>
<!-- Node12 -->
<g id="Node000012" class="node">
<title>Node12</title>
<g id="a_Node000012"><a xlink:title=" ">
<polygon fill="white" stroke="none" points="760.5,-462.25 661.5,-462.25 661.5,-413.25 760.5,-413.25 760.5,-462.25"/>
<text text-anchor="start" x="666.38" y="-448.75" font-family="Helvetica,sans-Serif" font-size="10.00">std::vector&lt; Nexus &gt;</text>
<text text-anchor="start" x="709.5" y="-433.75" font-family="Helvetica,sans-Serif" font-size="10.00"> </text>
<text text-anchor="start" x="709.5" y="-418.75" font-family="Helvetica,sans-Serif" font-size="10.00"> </text>
<polygon fill="#666666" stroke="#666666" points="661.5,-445.25 661.5,-445.25 760.5,-445.25 760.5,-445.25 661.5,-445.25"/>
<polygon fill="#666666" stroke="#666666" points="661.5,-430.25 661.5,-430.25 760.5,-430.25 760.5,-430.25 661.5,-430.25"/>
<polygon fill="none" stroke="#666666" points="661.5,-413.25 661.5,-462.25 760.5,-462.25 760.5,-413.25 661.5,-413.25"/>
</a>
</g>
</g>
<!-- Node10&#45;&gt;Node12 -->
<g id="edge13_Node000012_Node000010" class="edge">
<title>Node10&#45;&gt;Node12</title>
<g id="a_edge13_Node000012_Node000010"><a xlink:title=" ">
<path fill="none" stroke="#63b8ff" d="M619.07,-554.69C622.55,-535.32 629.7,-507.78 644,-487.75 648.62,-481.29 654.35,-475.33 660.51,-469.97"/>
<polygon fill="none" stroke="#63b8ff" points="660.35,-470.1 662.54,-463.23 669.73,-462.61 667.54,-469.48 660.35,-470.1"/>
</a>
</g>
<text text-anchor="middle" x="668" y="-489.5" font-family="Helvetica,sans-Serif" font-size="10.00" fill="grey"> +elements</text>
</g>
<!-- Node14 -->
<g id="Node000014" class="node">
<title>Node14</title>
<g id="a_Node000014"><a xlink:title=" ">
<polygon fill="white" stroke="none" points="897,-462.25 779,-462.25 779,-413.25 897,-413.25 897,-462.25"/>
<text text-anchor="start" x="783.62" y="-448.75" font-family="Helvetica,sans-Serif" font-size="10.00">std::vector&lt; Catchment &gt;</text>
<text text-anchor="start" x="836.5" y="-433.75" font-family="Helvetica,sans-Serif" font-size="10.00"> </text>
<text text-anchor="start" x="836.5" y="-418.75" font-family="Helvetica,sans-Serif" font-size="10.00"> </text>
<polygon fill="#666666" stroke="#666666" points="779,-445.25 779,-445.25 897,-445.25 897,-445.25 779,-445.25"/>
<polygon fill="#666666" stroke="#666666" points="779,-430.25 779,-430.25 897,-430.25 897,-430.25 779,-430.25"/>
<polygon fill="none" stroke="#666666" points="779,-413.25 779,-462.25 897,-462.25 897,-413.25 779,-413.25"/>
</a>
</g>
</g>
<!-- Node10&#45;&gt;Node14 -->
<g id="edge17_Node000014_Node000010" class="edge">
<title>Node10&#45;&gt;Node14</title>
<g id="a_edge17_Node000014_Node000010"><a xlink:title=" ">
<path fill="none" stroke="#63b8ff" d="M624.23,-554.62C630.01,-541.58 639.05,-526.16 652,-517 686.02,-492.95 705.33,-514.52 744,-499 746.8,-497.88 769.15,-483.57 791.35,-469.18"/>
<polygon fill="none" stroke="#63b8ff" points="791.33,-469.2 794.18,-462.57 801.39,-462.66 798.54,-469.28 791.33,-469.2"/>
</a>
</g>
<text text-anchor="middle" x="786" y="-489.5" font-family="Helvetica,sans-Serif" font-size="10.00" fill="grey"> +elements</text>
</g>
<!-- Node11 -->
<g id="Node000011" class="node">
<title>Node11</title>
<g id="a_Node000011"><a xlink:title=" ">
<polygon fill="white" stroke="none" points="659,-786 573,-786 573,-726 659,-726 659,-786"/>
<text text-anchor="start" x="577.75" y="-772.5" font-family="Helvetica,sans-Serif" font-size="10.00">std::basic_string&lt;</text>
<text text-anchor="start" x="600.62" y="-761.25" font-family="Helvetica,sans-Serif" font-size="10.00"> Char &gt;</text>
<text text-anchor="start" x="614.5" y="-746.5" font-family="Helvetica,sans-Serif" font-size="10.00"> </text>
<text text-anchor="start" x="614.5" y="-731.5" font-family="Helvetica,sans-Serif" font-size="10.00"> </text>
<polygon fill="#666666" stroke="#666666" points="573,-758 573,-758 659,-758 659,-758 573,-758"/>
<polygon fill="#666666" stroke="#666666" points="573,-743 573,-743 659,-743 659,-743 573,-743"/>
<polygon fill="none" stroke="#666666" points="573,-726 573,-786 659,-786 659,-726 573,-726"/>
</a>
</g>
</g>
<!-- Node11&#45;&gt;Node10 -->
<g id="edge11_Node000010_Node000011" class="edge">
<title>Node11&#45;&gt;Node10</title>
<g id="a_edge11_Node000010_Node000011"><a xlink:title=" ">
<path fill="none" stroke="#63b8ff" d="M616,-714.99C616,-680.48 616,-631.83 616,-603.33"/>
<polygon fill="none" stroke="#63b8ff" points="612.5,-714.59 616,-724.59 619.5,-714.59 612.5,-714.59"/>
</a>
</g>
</g>
<!-- Node12&#45;&gt;Node5 -->
<g id="edge12_Node000005_Node000012" class="edge">
<title>Node12&#45;&gt;Node5</title>
<g id="a_edge12_Node000005_Node000012"><a xlink:title=" ">
<path fill="none" stroke="#63b8ff" d="M692.6,-413.64C678.68,-396.15 658.41,-370.7 637.33,-344.22"/>
<polygon fill="none" stroke="#63b8ff" points="637.26,-344.12 630.39,-341.92 629.78,-334.74 636.65,-336.94 637.26,-344.12"/>
</a>
</g>
<text text-anchor="middle" x="689.5" y="-378.25" font-family="Helvetica,sans-Serif" font-size="10.00" fill="grey"> &#45;inflows</text>
<text text-anchor="middle" x="689.5" y="-367" font-family="Helvetica,sans-Serif" font-size="10.00" fill="grey">&#45;outflows</text>
</g>
<!-- Node13&#45;&gt;Node12 -->
<g id="edge14_Node000012_Node000013" class="edge">
<title>Node13&#45;&gt;Node12</title>
<g id="a_edge14_Node000012_Node000013"><a xlink:title=" ">
<path fill="none" stroke="orange" d="M696,-543.49C695.15,-526.62 695.03,-506.05 697.5,-487.75 698.66,-479.18 700.91,-469.99 703.24,-461.91"/>
<polygon fill="orange" stroke="orange" points="692.48,-543.24 696.59,-553 699.46,-542.8 692.48,-543.24"/>
</a>
</g>
<text text-anchor="middle" x="720.25" y="-489.5" font-family="Helvetica,sans-Serif" font-size="10.00" fill="grey"> &lt; Nexus &gt;</text>
</g>
<!-- Node13&#45;&gt;Node14 -->
<g id="edge18_Node000014_Node000013" class="edge">
<title>Node13&#45;&gt;Node14</title>
<g id="a_edge18_Node000014_Node000013"><a xlink:title=" ">
<path fill="none" stroke="orange" d="M747.46,-554C770.54,-540.53 796.97,-521.81 815,-499 823.47,-488.28 829.09,-474.1 832.65,-462.18"/>
<polygon fill="orange" stroke="orange" points="745.78,-550.93 738.79,-558.89 749.22,-557.03 745.78,-550.93"/>
</a>
</g>
<text text-anchor="middle" x="854" y="-489.5" font-family="Helvetica,sans-Serif" font-size="10.00" fill="grey"> &lt; Catchment &gt;</text>
</g>
<!-- Node14&#45;&gt;Node5 -->
<g id="edge16_Node000005_Node000014" class="edge">
<title>Node14&#45;&gt;Node5</title>
<g id="a_edge16_Node000005_Node000014"><a xlink:title=" ">
<path fill="none" stroke="#63b8ff" d="M805.24,-413.44C765.46,-385.13 696.61,-336.14 639.72,-295.66"/>
<polygon fill="none" stroke="#63b8ff" points="639.76,-295.68 632.55,-295.46 629.98,-288.72 637.19,-288.94 639.76,-295.68"/>
</a>
</g>
<text text-anchor="middle" x="818.75" y="-372.62" font-family="Helvetica,sans-Serif" font-size="10.00" fill="grey"> &#45;contained_catchments</text>
</g>
<!-- Node15&#45;&gt;Node3 -->
<g id="edge20_Node000003_Node000015" class="edge">
<title>Node15&#45;&gt;Node3</title>
<g id="a_edge20_Node000003_Node000015"><a xlink:title=" ">
<path fill="none" stroke="#63b8ff" d="M176.35,-726.1C175.22,-706.34 173.67,-679.19 172.21,-653.65"/>
<polygon fill="none" stroke="#63b8ff" points="172.22,-653.77 167.88,-648.01 171.53,-641.79 175.87,-647.55 172.22,-653.77"/>
</a>
</g>
<text text-anchor="middle" x="194.38" y="-679.62" font-family="Helvetica,sans-Serif" font-size="10.00" fill="grey"> #forcing</text>
</g>
<!-- Node16 -->
<g id="Node000016" class="node">
<title>Node16</title>
<g id="a_Node000016"><a xlink:href="classdata__access_1_1_generic_data_provider.html" target="_top" xlink:title=" ">
<polygon fill="white" stroke="none" points="276,-904.5 152,-904.5 152,-844.5 276,-844.5 276,-904.5"/>
<text text-anchor="start" x="157" y="-891" font-family="Helvetica,sans-Serif" font-size="10.00">data_access::GenericData</text>
<text text-anchor="start" x="196" y="-879.75" font-family="Helvetica,sans-Serif" font-size="10.00">Provider</text>
<text text-anchor="start" x="212.5" y="-865" font-family="Helvetica,sans-Serif" font-size="10.00"> </text>
<text text-anchor="start" x="212.5" y="-850" font-family="Helvetica,sans-Serif" font-size="10.00"> </text>
<polygon fill="#666666" stroke="#666666" points="152,-876.5 152,-876.5 276,-876.5 276,-876.5 152,-876.5"/>
<polygon fill="#666666" stroke="#666666" points="152,-861.5 152,-861.5 276,-861.5 276,-861.5 152,-861.5"/>
<polygon fill="none" stroke="#666666" points="152,-844.5 152,-904.5 276,-904.5 276,-844.5 152,-844.5"/>
</a>
</g>
</g>
<!-- Node16&#45;&gt;Node15 -->
<g id="edge21_Node000015_Node000016" class="edge">
<title>Node16&#45;&gt;Node15</title>
<g id="a_edge21_Node000015_Node000016"><a xlink:title=" ">
<path fill="none" stroke="#63b8ff" d="M188.75,-844.71C184.98,-839.01 181.65,-832.83 179.5,-826.5 176.52,-817.72 175.19,-807.96 174.79,-798.58"/>
<polygon fill="none" stroke="#63b8ff" points="174.79,-798.64 170.79,-792.65 174.78,-786.64 178.79,-792.64 174.79,-798.64"/>
</a>
</g>
<text text-anchor="middle" x="189.75" y="-811.38" font-family="Helvetica,sans-Serif" font-size="10.00" fill="grey"> +ptr</text>
</g>
<!-- Node17 -->
<g id="Node000017" class="node">
<title>Node17</title>
<g id="a_Node000017"><a xlink:href="classdata__access_1_1_data_provider.html" target="_top" xlink:title=" ">
<polygon fill="white" stroke="none" points="624,-1153.75 440,-1153.75 440,-951.75 624,-951.75 624,-1153.75"/>
<text text-anchor="start" x="445" y="-1140.25" font-family="Helvetica,sans-Serif" font-size="10.00">data_access::DataProvider</text>
<text text-anchor="start" x="445" y="-1129" font-family="Helvetica,sans-Serif" font-size="10.00">&lt; double, CatchmentAggrDataSelector &gt;</text>
<text text-anchor="start" x="530.5" y="-1114.25" font-family="Helvetica,sans-Serif" font-size="10.00"> </text>
<text text-anchor="start" x="460" y="-1099.25" font-family="Helvetica,sans-Serif" font-size="10.00">+</text>
<text text-anchor="start" x="486" y="-1099.25" font-family="Helvetica,sans-Serif" font-size="10.00">~DataProvider()</text>
<text text-anchor="start" x="460" y="-1084.25" font-family="Helvetica,sans-Serif" font-size="10.00">+</text>
<text text-anchor="start" x="486" y="-1084.25" font-family="Helvetica,sans-Serif" font-size="10.00">get_available_variable</text>
<text text-anchor="start" x="486" y="-1073" font-family="Helvetica,sans-Serif" font-size="10.00">_names()</text>
<text text-anchor="start" x="460" y="-1058.25" font-family="Helvetica,sans-Serif" font-size="10.00">+</text>
<text text-anchor="start" x="486" y="-1058.25" font-family="Helvetica,sans-Serif" font-size="10.00">get_data_start_time()</text>
<text text-anchor="start" x="460" y="-1043.25" font-family="Helvetica,sans-Serif" font-size="10.00">+</text>
<text text-anchor="start" x="486" y="-1043.25" font-family="Helvetica,sans-Serif" font-size="10.00">get_data_stop_time()</text>
<text text-anchor="start" x="460" y="-1028.25" font-family="Helvetica,sans-Serif" font-size="10.00">+</text>
<text text-anchor="start" x="486" y="-1028.25" font-family="Helvetica,sans-Serif" font-size="10.00">record_duration()</text>
<text text-anchor="start" x="460" y="-1013.25" font-family="Helvetica,sans-Serif" font-size="10.00">+</text>
<text text-anchor="start" x="486" y="-1013.25" font-family="Helvetica,sans-Serif" font-size="10.00">get_ts_index_for_time()</text>
<text text-anchor="start" x="460" y="-998.25" font-family="Helvetica,sans-Serif" font-size="10.00">+</text>
<text text-anchor="start" x="486" y="-998.25" font-family="Helvetica,sans-Serif" font-size="10.00">get_value()</text>
<text text-anchor="start" x="460" y="-983.25" font-family="Helvetica,sans-Serif" font-size="10.00">+</text>
<text text-anchor="start" x="486" y="-983.25" font-family="Helvetica,sans-Serif" font-size="10.00">get_values()</text>
<text text-anchor="start" x="460" y="-968.25" font-family="Helvetica,sans-Serif" font-size="10.00">+</text>
<text text-anchor="start" x="486" y="-968.25" font-family="Helvetica,sans-Serif" font-size="10.00">is_property_sum_over</text>
<text text-anchor="start" x="486" y="-957" font-family="Helvetica,sans-Serif" font-size="10.00">_time_step()</text>
<polygon fill="#666666" stroke="#666666" points="440,-1125.75 440,-1125.75 624,-1125.75 624,-1125.75 440,-1125.75"/>
<polygon fill="#666666" stroke="#666666" points="440,-1110.75 440,-1110.75 624,-1110.75 624,-1110.75 440,-1110.75"/>
<polygon fill="none" stroke="#666666" points="440,-951.75 440,-1153.75 624,-1153.75 624,-951.75 440,-951.75"/>
</a>
</g>
</g>
<!-- Node17&#45;&gt;Node16 -->
<g id="edge22_Node000016_Node000017" class="edge">
<title>Node17&#45;&gt;Node16</title>
<g id="a_edge22_Node000016_Node000017"><a xlink:title=" ">
<path fill="none" stroke="#63b8ff" d="M463.92,-943.71C455.91,-935.74 447.26,-928.49 438,-922.5 434.53,-920.25 340.82,-901.05 275.72,-887.89"/>
<polygon fill="none" stroke="#63b8ff" points="461.24,-945.97 470.66,-950.8 466.31,-941.14 461.24,-945.97"/>
</a>
</g>
</g>
<!-- Node18 -->
<g id="Node000018" class="node">
<title>Node18</title>
<g id="a_Node000018"><a xlink:href="classdata__access_1_1_data_provider.html" target="_top" xlink:title=" ">
<polygon fill="white" stroke="none" points="600,-1414.25 464,-1414.25 464,-1212.25 600,-1212.25 600,-1414.25"/>
<text text-anchor="start" x="469" y="-1400.75" font-family="Helvetica,sans-Serif" font-size="10.00">data_access::DataProvider</text>
<text text-anchor="start" x="469" y="-1389.5" font-family="Helvetica,sans-Serif" font-size="10.00">&lt; data_type, selection_type &gt;</text>
<text text-anchor="start" x="530.5" y="-1374.75" font-family="Helvetica,sans-Serif" font-size="10.00"> </text>
<text text-anchor="start" x="472" y="-1359.75" font-family="Helvetica,sans-Serif" font-size="10.00">+</text>
<text text-anchor="start" x="486" y="-1359.75" font-family="Helvetica,sans-Serif" font-size="10.00">~DataProvider()</text>
<text text-anchor="start" x="472" y="-1344.75" font-family="Helvetica,sans-Serif" font-size="10.00">+</text>
<text text-anchor="start" x="486" y="-1344.75" font-family="Helvetica,sans-Serif" font-size="10.00">get_available_variable</text>
<text text-anchor="start" x="486" y="-1333.5" font-family="Helvetica,sans-Serif" font-size="10.00">_names()</text>
<text text-anchor="start" x="472" y="-1318.75" font-family="Helvetica,sans-Serif" font-size="10.00">+</text>
<text text-anchor="start" x="486" y="-1318.75" font-family="Helvetica,sans-Serif" font-size="10.00">get_data_start_time()</text>
<text text-anchor="start" x="472" y="-1303.75" font-family="Helvetica,sans-Serif" font-size="10.00">+</text>
<text text-anchor="start" x="486" y="-1303.75" font-family="Helvetica,sans-Serif" font-size="10.00">get_data_stop_time()</text>
<text text-anchor="start" x="472" y="-1288.75" font-family="Helvetica,sans-Serif" font-size="10.00">+</text>
<text text-anchor="start" x="486" y="-1288.75" font-family="Helvetica,sans-Serif" font-size="10.00">record_duration()</text>
<text text-anchor="start" x="472" y="-1273.75" font-family="Helvetica,sans-Serif" font-size="10.00">+</text>
<text text-anchor="start" x="486" y="-1273.75" font-family="Helvetica,sans-Serif" font-size="10.00">get_ts_index_for_time()</text>
<text text-anchor="start" x="472" y="-1258.75" font-family="Helvetica,sans-Serif" font-size="10.00">+</text>
<text text-anchor="start" x="486" y="-1258.75" font-family="Helvetica,sans-Serif" font-size="10.00">get_value()</text>
<text text-anchor="start" x="472" y="-1243.75" font-family="Helvetica,sans-Serif" font-size="10.00">+</text>
<text text-anchor="start" x="486" y="-1243.75" font-family="Helvetica,sans-Serif" font-size="10.00">get_values()</text>
<text text-anchor="start" x="472" y="-1228.75" font-family="Helvetica,sans-Serif" font-size="10.00">+</text>
<text text-anchor="start" x="486" y="-1228.75" font-family="Helvetica,sans-Serif" font-size="10.00">is_property_sum_over</text>
<text text-anchor="start" x="486" y="-1217.5" font-family="Helvetica,sans-Serif" font-size="10.00">_time_step()</text>
<polygon fill="#666666" stroke="#666666" points="464,-1386.25 464,-1386.25 600,-1386.25 600,-1386.25 464,-1386.25"/>
<polygon fill="#666666" stroke="#666666" points="464,-1371.25 464,-1371.25 600,-1371.25 600,-1371.25 464,-1371.25"/>
<polygon fill="none" stroke="#666666" points="464,-1212.25 464,-1414.25 600,-1414.25 600,-1212.25 464,-1212.25"/>
</a>
</g>
</g>
<!-- Node18&#45;&gt;Node17 -->
<g id="edge23_Node000017_Node000018" class="edge">
<title>Node18&#45;&gt;Node17</title>
<g id="a_edge23_Node000017_Node000018"><a xlink:title=" ">
<path fill="none" stroke="orange" d="M532,-1200.89C532,-1185.11 532,-1168.97 532,-1153.43"/>
<polygon fill="orange" stroke="orange" points="528.5,-1200.79 532,-1210.79 535.5,-1200.79 528.5,-1200.79"/>
</a>
</g>
<text text-anchor="start" x="532" y="-1184.75" font-family="Helvetica,sans-Serif" font-size="10.00" fill="grey"> &lt; double, CatchmentAggrData</text>
<text text-anchor="middle" x="598" y="-1173.5" font-family="Helvetica,sans-Serif" font-size="10.00" fill="grey">Selector &gt;</text>
</g>
<!-- Node19&#45;&gt;Node1 -->
<g id="edge25_Node000001_Node000019" class="edge">
<title>Node19&#45;&gt;Node1</title>
<g id="a_edge25_Node000001_Node000019"><a xlink:title=" ">
<path fill="none" stroke="#63b8ff" d="M312.33,-659.01C302.08,-625.45 280.2,-562.77 248,-517 238.22,-503.1 225.64,-489.78 213.2,-478.19"/>
<polygon fill="none" stroke="#63b8ff" points="213.36,-478.33 206.22,-477.28 204.44,-470.29 211.58,-471.34 213.36,-478.33"/>
</a>
</g>
<text text-anchor="middle" x="330.25" y="-575.12" font-family="Helvetica,sans-Serif" font-size="10.00" fill="grey"> &#45;flow_path</text>
</g>
</g>
</svg>

<g id="navigator" transform="translate(0 0)" fill="#404254">
  <rect fill="#f2f5e9" fill-opacity="0.5" stroke="#606060" stroke-width=".5" x="0" y="0" width="60" height="60"/>
  <use id="zoomplus" xlink:href="#zoomPlus" x="17" y="9" onmousedown="handleZoom(evt,'in')"/>
  <use id="zoomminus" xlink:href="#zoomMin" x="42" y="9" onmousedown="handleZoom(evt,'out')"/>
  <use id="reset" xlink:href="#resetDef" x="30" y="36" onmousedown="handleReset()"/>
   <use id="arrowup" xlink:href="#arrowUp" x="0" y="0" onmousedown="handlePan(0,-1)"/>
  <use id="arrowright" xlink:href="#arrowRight" x="0" y="0" onmousedown="handlePan(1,0)"/>
  <use id="arrowdown" xlink:href="#arrowDown" x="0" y="0" onmousedown="handlePan(0,1)"/>
  <use id="arrowleft" xlink:href="#arrowLeft" x="0" y="0" onmousedown="handlePan(-1,0)"/>
</g>
<svg viewBox="0 0 15 15" width="100%" height="30px" preserveAspectRatio="xMaxYMin meet">
 <g id="arrow_out" transform="scale(0.3 0.3)">
  <a xlink:href="class_h_y___flow_path__coll__graph_org.svg" target="_base">
   <rect id="button" ry="5" rx="5" y="6" x="6" height="38" width="38"
        fill="#f2f5e9" fill-opacity="0.5" stroke="#606060" stroke-width="1.0"/>
   <path id="arrow"
     d="M 11.500037,31.436501 C 11.940474,20.09759 22.043105,11.32322 32.158766,21.979434 L 37.068811,17.246167 C 37.068811,17.246167 37.088388,32 37.088388,32 L 22.160133,31.978069 C 22.160133,31.978069 26.997745,27.140456 26.997745,27.140456 C 18.528582,18.264221 13.291696,25.230495 11.500037,31.436501 z"
     style="fill:#404040;"/>
  </a>
 </g>
</svg>

<style type='text/css'>
<![CDATA[
[data-mouse-over-selected='false'] { opacity: 0.7; }
[data-mouse-over-selected='true']  { opacity: 1.0; }
]]>
</style>
<script type="application/ecmascript"><![CDATA[
document.addEventListener('DOMContentLoaded', (event) => {
  highlightEdges();
  highlightAdjacentNodes();
});
]]></script>
</svg>
