<?xml version="1.0" encoding="UTF-8" standalone="no"?>
<!DOCTYPE svg PUBLIC "-//W3C//DTD SVG 1.1//EN"
 "http://www.w3.org/Graphics/SVG/1.1/DTD/svg11.dtd">
<!-- Generated by graphviz version 2.44.0 ()
 -->
<!-- Title: HY_CatchmentArea Pages: 1 -->
<!--zoomable 651 -->
<svg id="main" version="1.1" xmlns="http://www.w3.org/2000/svg" xmlns:xlink="http://www.w3.org/1999/xlink" xml:space="preserve" onload="init(evt)">
<style type="text/css"><![CDATA[
.edge:hover path { stroke: red; }
.edge:hover polygon { stroke: red; fill: red; }
]]></style>
<script type="text/javascript"><![CDATA[
var edges = document.getElementsByTagName('g');
if (edges && edges.length) {
  for (var i=0;i<edges.length;i++) {
    if (edges[i].id.substr(0,4)=='edge') {
      edges[i].setAttribute('class','edge');
    }
  }
}
]]></script>
        <defs>
                <circle id="rim" cx="0" cy="0" r="7"/>
                <circle id="rim2" cx="0" cy="0" r="3.5"/>
                <g id="zoomPlus">
                        <use xlink:href="#rim" fill="#404040">
                                <set attributeName="fill" to="#808080" begin="zoomplus.mouseover" end="zoomplus.mouseout"/>
                        </use>
                        <path d="M-4,0h8M0,-4v8" fill="none" stroke="white" stroke-width="1.5" pointer-events="none"/>
                </g>
                <g id="zoomMin">
                        <use xlink:href="#rim" fill="#404040">
                                <set attributeName="fill" to="#808080" begin="zoomminus.mouseover" end="zoomminus.mouseout"/>
                        </use>
                        <path d="M-4,0h8" fill="none" stroke="white" stroke-width="1.5" pointer-events="none"/>
                </g>
                <g id="dirArrow">
                        <path fill="none" stroke="white" stroke-width="1.5" d="M0,-3.0v7 M-2.5,-0.5L0,-3.0L2.5,-0.5"/>
                </g>
               <g id="resetDef">
                       <use xlink:href="#rim2" fill="#404040">
                               <set attributeName="fill" to="#808080" begin="reset.mouseover" end="reset.mouseout"/>
                       </use>
               </g>
        </defs>

<script type="text/javascript">
var viewWidth = 481;
var viewHeight = 651;
var sectionId = 'dynsection-1';
</script>
<script xlink:href="svgpan.js"/>
<svg id="graph" class="graph">
<g id="viewport">
<title>HY_CatchmentArea</title>
<polygon fill="white" stroke="transparent" points="-4,4 -4,-647 476.5,-647 476.5,4 -4,4"/>
<!-- Node1 -->
<g id="node1" class="node">
<title>Node1</title>
<g id="a_node1"><a xlink:title=" ">
<polygon fill="#bfbfbf" stroke="black" points="255,-0.5 255,-101.5 378,-101.5 378,-0.5 255,-0.5"/>
<text text-anchor="middle" x="316.5" y="-89.5" font-family="Helvetica,sans-Serif" font-size="10.00">HY_CatchmentArea</text>
<polyline fill="none" stroke="black" points="255,-82.5 378,-82.5 "/>
<text text-anchor="start" x="263" y="-70.5" font-family="Helvetica,sans-Serif" font-size="10.00"># bounds</text>
<polyline fill="none" stroke="black" points="255,-63.5 378,-63.5 "/>
<text text-anchor="start" x="263" y="-51.5" font-family="Helvetica,sans-Serif" font-size="10.00">+ HY_CatchmentArea()</text>
<text text-anchor="start" x="263" y="-40.5" font-family="Helvetica,sans-Serif" font-size="10.00">+ HY_CatchmentArea()</text>
<text text-anchor="start" x="263" y="-29.5" font-family="Helvetica,sans-Serif" font-size="10.00">+ set_output_stream()</text>
<text text-anchor="start" x="263" y="-18.5" font-family="Helvetica,sans-Serif" font-size="10.00">+ write_output()</text>
<text text-anchor="start" x="263" y="-7.5" font-family="Helvetica,sans-Serif" font-size="10.00">+ ~HY_CatchmentArea()</text>
</a>
</g>
</g>
<!-- Node2 -->
<g id="node2" class="node">
<title>Node2</title>
<g id="a_node2"><a xlink:href="class_h_y___catchment_realization.html" target="_top" xlink:title=" ">
<polygon fill="white" stroke="black" points="96.5,-171.5 96.5,-283.5 246.5,-283.5 246.5,-171.5 96.5,-171.5"/>
<text text-anchor="middle" x="171.5" y="-271.5" font-family="Helvetica,sans-Serif" font-size="10.00">HY_CatchmentRealization</text>
<polyline fill="none" stroke="black" points="96.5,-264.5 246.5,-264.5 "/>
<text text-anchor="start" x="104.5" y="-252.5" font-family="Helvetica,sans-Serif" font-size="10.00"># id_number</text>
<polyline fill="none" stroke="black" points="96.5,-245.5 246.5,-245.5 "/>
<text text-anchor="start" x="104.5" y="-233.5" font-family="Helvetica,sans-Serif" font-size="10.00">+ HY_CatchmentRealization()</text>
<text text-anchor="start" x="104.5" y="-222.5" font-family="Helvetica,sans-Serif" font-size="10.00">+ HY_CatchmentRealization()</text>
<text text-anchor="start" x="104.5" y="-211.5" font-family="Helvetica,sans-Serif" font-size="10.00">+ ~HY_CatchmentRealization()</text>
<text text-anchor="start" x="104.5" y="-200.5" font-family="Helvetica,sans-Serif" font-size="10.00">+ get_response()</text>
<text text-anchor="start" x="104.5" y="-189.5" font-family="Helvetica,sans-Serif" font-size="10.00"># get_catchment_id()</text>
<text text-anchor="start" x="104.5" y="-178.5" font-family="Helvetica,sans-Serif" font-size="10.00"># set_catchment_id()</text>
</a>
</g>
</g>
<!-- Node2&#45;&gt;Node1 -->
<g id="edge1" class="edge">
<title>Node2&#45;&gt;Node1</title>
<path fill="none" stroke="midnightblue" d="M223.79,-163.57C240.75,-143.16 259.31,-120.83 275.34,-101.54"/>
<polygon fill="none" stroke="midnightblue" points="221.08,-161.36 217.38,-171.29 226.46,-165.83 221.08,-161.36"/>
</g>
<!-- Node3 -->
<g id="node3" class="node">
<title>Node3</title>
<g id="a_node3"><a xlink:title=" ">
<polygon fill="white" stroke="#bfbfbf" points="0,-353.5 0,-421.5 117,-421.5 117,-353.5 0,-353.5"/>
<text text-anchor="start" x="8" y="-409.5" font-family="Helvetica,sans-Serif" font-size="10.00">std::unique_ptr&lt; forcing</text>
<text text-anchor="middle" x="58.5" y="-398.5" font-family="Helvetica,sans-Serif" font-size="10.00">::ForcingProvider &gt;</text>
<polyline fill="none" stroke="#bfbfbf" points="0,-391.5 117,-391.5 "/>
<text text-anchor="start" x="8" y="-379.5" font-family="Helvetica,sans-Serif" font-size="10.00">+ ptr</text>
<polyline fill="none" stroke="#bfbfbf" points="0,-372.5 117,-372.5 "/>
<text text-anchor="start" x="8" y="-360.5" font-family="Helvetica,sans-Serif" font-size="10.00">+ operator&#45;&gt;()</text>
</a>
</g>
</g>
<!-- Node3&#45;&gt;Node2 -->
<g id="edge2" class="edge">
<title>Node3&#45;&gt;Node2</title>
<path fill="none" stroke="#404040" d="M82.19,-353.38C94.59,-336.04 110.22,-314.18 124.93,-293.62"/>
<polygon fill="none" stroke="#404040" points="125.07,-293.42 125.31,-286.21 132.05,-283.66 131.82,-290.86 125.07,-293.42"/>
<text text-anchor="middle" x="121" y="-327" font-family="Helvetica,sans-Serif" font-size="10.00"> #forcing</text>
</g>
<!-- Node4 -->
<g id="node4" class="node">
<title>Node4</title>
<g id="a_node4"><a xlink:title=" ">
<polygon fill="white" stroke="#bfbfbf" points="18.5,-475 18.5,-532 120.5,-532 120.5,-475 18.5,-475"/>
<text text-anchor="middle" x="69.5" y="-520" font-family="Helvetica,sans-Serif" font-size="10.00">std::unique_ptr&lt; T &gt;</text>
<polyline fill="none" stroke="#bfbfbf" points="18.5,-513 120.5,-513 "/>
<text text-anchor="middle" x="69.5" y="-501" font-family="Helvetica,sans-Serif" font-size="10.00"> </text>
<polyline fill="none" stroke="#bfbfbf" points="18.5,-494 120.5,-494 "/>
<text text-anchor="start" x="26.5" y="-482" font-family="Helvetica,sans-Serif" font-size="10.00">+ operator&#45;&gt;()</text>
</a>
</g>
</g>
<!-- Node4&#45;&gt;Node3 -->
<g id="edge3" class="edge">
<title>Node4&#45;&gt;Node3</title>
<path fill="none" stroke="orange" d="M60.51,-464.88C59.68,-460.23 58.98,-455.52 58.5,-451 57.5,-441.5 57.18,-431.15 57.2,-421.65"/>
<polygon fill="orange" stroke="orange" points="57.12,-465.74 62.48,-474.88 63.98,-464.39 57.12,-465.74"/>
<text text-anchor="middle" x="119" y="-443" font-family="Helvetica,sans-Serif" font-size="10.00"> &lt; forcing::ForcingProvider &gt;</text>
</g>
<!-- Node5 -->
<g id="node5" class="node">
<title>Node5</title>
<g id="a_node5"><a xlink:title=" ">
<polygon fill="white" stroke="#bfbfbf" points="115,-585.5 115,-642.5 144,-642.5 144,-585.5 115,-585.5"/>
<text text-anchor="middle" x="129.5" y="-630.5" font-family="Helvetica,sans-Serif" font-size="10.00">T</text>
<polyline fill="none" stroke="#bfbfbf" points="115,-623.5 144,-623.5 "/>
<text text-anchor="middle" x="129.5" y="-611.5" font-family="Helvetica,sans-Serif" font-size="10.00"> </text>
<polyline fill="none" stroke="#bfbfbf" points="115,-604.5 144,-604.5 "/>
<text text-anchor="middle" x="129.5" y="-592.5" font-family="Helvetica,sans-Serif" font-size="10.00"> </text>
</a>
</g>
</g>
<!-- Node5&#45;&gt;Node4 -->
<g id="edge4" class="edge">
<title>Node5&#45;&gt;Node4</title>
<path fill="none" stroke="#404040" d="M114.98,-586.74C107.68,-573.54 98.7,-557.31 90.66,-542.76"/>
<polygon fill="none" stroke="#404040" points="90.54,-542.54 84.13,-539.22 84.73,-532.04 91.13,-535.35 90.54,-542.54"/>
<text text-anchor="middle" x="113.5" y="-559" font-family="Helvetica,sans-Serif" font-size="10.00"> +ptr</text>
</g>
<!-- Node7 -->
<g id="node7" class="node">
<title>Node7</title>
<g id="a_node7"><a xlink:title=" ">
<polygon fill="white" stroke="#bfbfbf" points="150,-475 150,-532 253,-532 253,-475 150,-475"/>
<text text-anchor="middle" x="201.5" y="-520" font-family="Helvetica,sans-Serif" font-size="10.00">std::shared_ptr&lt; T &gt;</text>
<polyline fill="none" stroke="#bfbfbf" points="150,-513 253,-513 "/>
<text text-anchor="middle" x="201.5" y="-501" font-family="Helvetica,sans-Serif" font-size="10.00"> </text>
<polyline fill="none" stroke="#bfbfbf" points="150,-494 253,-494 "/>
<text text-anchor="start" x="158" y="-482" font-family="Helvetica,sans-Serif" font-size="10.00">+ operator&#45;&gt;()</text>
</a>
</g>
</g>
<!-- Node5&#45;&gt;Node7 -->
<g id="edge7" class="edge">
<title>Node5&#45;&gt;Node7</title>
<path fill="none" stroke="#404040" d="M144.07,-591.04C153.31,-577.13 165.5,-558.75 176.28,-542.51"/>
<polygon fill="none" stroke="#404040" points="176.47,-542.22 176.46,-535 183.11,-532.22 183.12,-539.43 176.47,-542.22"/>
<text text-anchor="middle" x="175.5" y="-559" font-family="Helvetica,sans-Serif" font-size="10.00"> +ptr</text>
</g>
<!-- Node6 -->
<g id="node6" class="node">
<title>Node6</title>
<g id="a_node6"><a xlink:title=" ">
<polygon fill="white" stroke="#bfbfbf" points="137,-353.5 137,-421.5 240,-421.5 240,-353.5 137,-353.5"/>
<text text-anchor="start" x="145" y="-409.5" font-family="Helvetica,sans-Serif" font-size="10.00">std::shared_ptr&lt; HY</text>
<text text-anchor="middle" x="188.5" y="-398.5" font-family="Helvetica,sans-Serif" font-size="10.00">_Catchment &gt;</text>
<polyline fill="none" stroke="#bfbfbf" points="137,-391.5 240,-391.5 "/>
<text text-anchor="start" x="145" y="-379.5" font-family="Helvetica,sans-Serif" font-size="10.00">+ ptr</text>
<polyline fill="none" stroke="#bfbfbf" points="137,-372.5 240,-372.5 "/>
<text text-anchor="start" x="145" y="-360.5" font-family="Helvetica,sans-Serif" font-size="10.00">+ operator&#45;&gt;()</text>
</a>
</g>
</g>
<!-- Node6&#45;&gt;Node2 -->
<g id="edge5" class="edge">
<title>Node6&#45;&gt;Node2</title>
<path fill="none" stroke="#404040" d="M184.94,-353.38C183.14,-336.67 180.89,-315.77 178.75,-295.87"/>
<polygon fill="none" stroke="#404040" points="178.72,-295.59 174.1,-290.05 177.43,-283.66 182.05,-289.2 178.72,-295.59"/>
<text text-anchor="middle" x="229.5" y="-327" font-family="Helvetica,sans-Serif" font-size="10.00"> #realized_catchment</text>
</g>
<!-- Node7&#45;&gt;Node6 -->
<g id="edge6" class="edge">
<title>Node7&#45;&gt;Node6</title>
<path fill="none" stroke="orange" d="M197.18,-464.64C195.59,-450.69 193.8,-435.01 192.27,-421.52"/>
<polygon fill="orange" stroke="orange" points="193.74,-465.36 198.35,-474.9 200.7,-464.57 193.74,-465.36"/>
<text text-anchor="middle" x="238.5" y="-443" font-family="Helvetica,sans-Serif" font-size="10.00"> &lt; HY_Catchment &gt;</text>
</g>
<!-- Node10 -->
<g id="node10" class="node">
<title>Node10</title>
<g id="a_node10"><a xlink:title=" ">
<polygon fill="white" stroke="#bfbfbf" points="259.5,-353.5 259.5,-421.5 361.5,-421.5 361.5,-353.5 259.5,-353.5"/>
<text text-anchor="start" x="267.5" y="-409.5" font-family="Helvetica,sans-Serif" font-size="10.00">std::shared_ptr&lt; std</text>
<text text-anchor="middle" x="310.5" y="-398.5" font-family="Helvetica,sans-Serif" font-size="10.00">::ostream &gt;</text>
<polyline fill="none" stroke="#bfbfbf" points="259.5,-391.5 361.5,-391.5 "/>
<text text-anchor="start" x="267.5" y="-379.5" font-family="Helvetica,sans-Serif" font-size="10.00">+ ptr</text>
<polyline fill="none" stroke="#bfbfbf" points="259.5,-372.5 361.5,-372.5 "/>
<text text-anchor="start" x="267.5" y="-360.5" font-family="Helvetica,sans-Serif" font-size="10.00">+ operator&#45;&gt;()</text>
</a>
</g>
</g>
<!-- Node7&#45;&gt;Node10 -->
<g id="edge11" class="edge">
<title>Node7&#45;&gt;Node10</title>
<path fill="none" stroke="orange" d="M261.59,-472.38C270.38,-466.16 278.73,-459.03 285.5,-451 292.58,-442.6 297.83,-431.95 301.65,-421.82"/>
<polygon fill="orange" stroke="orange" points="259.45,-469.6 253.07,-478.05 263.33,-475.42 259.45,-469.6"/>
<text text-anchor="middle" x="330" y="-443" font-family="Helvetica,sans-Serif" font-size="10.00"> &lt; std::ostream &gt;</text>
</g>
<!-- Node8 -->
<g id="node8" class="node">
<title>Node8</title>
<g id="a_node8"><a xlink:href="class_g_m___object.html" target="_top" xlink:title=" ">
<polygon fill="white" stroke="black" points="386.5,-193.5 386.5,-261.5 472.5,-261.5 472.5,-193.5 386.5,-193.5"/>
<text text-anchor="middle" x="429.5" y="-249.5" font-family="Helvetica,sans-Serif" font-size="10.00">GM_Object</text>
<polyline fill="none" stroke="black" points="386.5,-242.5 472.5,-242.5 "/>
<text text-anchor="middle" x="429.5" y="-230.5" font-family="Helvetica,sans-Serif" font-size="10.00"> </text>
<polyline fill="none" stroke="black" points="386.5,-223.5 472.5,-223.5 "/>
<text text-anchor="start" x="394.5" y="-211.5" font-family="Helvetica,sans-Serif" font-size="10.00">+ GM_Object()</text>
<text text-anchor="start" x="394.5" y="-200.5" font-family="Helvetica,sans-Serif" font-size="10.00">+ ~GM_Object()</text>
</a>
</g>
</g>
<!-- Node8&#45;&gt;Node1 -->
<g id="edge8" class="edge">
<title>Node8&#45;&gt;Node1</title>
<path fill="none" stroke="midnightblue" d="M402.46,-184.74C386.28,-159.76 365.64,-127.88 348.63,-101.62"/>
<polygon fill="none" stroke="midnightblue" points="399.61,-186.78 407.98,-193.27 405.48,-182.97 399.61,-186.78"/>
</g>
<!-- Node9 -->
<g id="node9" class="node">
<title>Node9</title>
<g id="a_node9"><a xlink:href="classutils_1_1_stream_handler.html" target="_top" xlink:title="This class provides a copyable interface to a std::ostream or std::ostream like object that may not s...">
<polygon fill="white" stroke="black" points="264.5,-149.5 264.5,-305.5 368.5,-305.5 368.5,-149.5 264.5,-149.5"/>
<text text-anchor="middle" x="316.5" y="-293.5" font-family="Helvetica,sans-Serif" font-size="10.00">utils::StreamHandler</text>
<polyline fill="none" stroke="black" points="264.5,-286.5 368.5,-286.5 "/>
<text text-anchor="middle" x="316.5" y="-274.5" font-family="Helvetica,sans-Serif" font-size="10.00"> </text>
<polyline fill="none" stroke="black" points="264.5,-267.5 368.5,-267.5 "/>
<text text-anchor="start" x="272.5" y="-255.5" font-family="Helvetica,sans-Serif" font-size="10.00">+ StreamHandler()</text>
<text text-anchor="start" x="272.5" y="-244.5" font-family="Helvetica,sans-Serif" font-size="10.00">+ StreamHandler()</text>
<text text-anchor="start" x="272.5" y="-233.5" font-family="Helvetica,sans-Serif" font-size="10.00">+ StreamHandler()</text>
<text text-anchor="start" x="272.5" y="-222.5" font-family="Helvetica,sans-Serif" font-size="10.00">+ StreamHandler()</text>
<text text-anchor="start" x="272.5" y="-211.5" font-family="Helvetica,sans-Serif" font-size="10.00">+ ~StreamHandler()</text>
<text text-anchor="start" x="272.5" y="-200.5" font-family="Helvetica,sans-Serif" font-size="10.00">+ operator=()</text>
<text text-anchor="start" x="272.5" y="-189.5" font-family="Helvetica,sans-Serif" font-size="10.00">+ put()</text>
<text text-anchor="start" x="272.5" y="-178.5" font-family="Helvetica,sans-Serif" font-size="10.00">+ put_indexed()</text>
<text text-anchor="start" x="272.5" y="-167.5" font-family="Helvetica,sans-Serif" font-size="10.00">+ put_var()</text>
<text text-anchor="start" x="272.5" y="-156.5" font-family="Helvetica,sans-Serif" font-size="10.00">+ operator&lt;&lt;()</text>
</a>
</g>
</g>
<!-- Node9&#45;&gt;Node1 -->
<g id="edge9" class="edge">
<title>Node9&#45;&gt;Node1</title>
<path fill="none" stroke="#404040" d="M316.5,-149.45C316.5,-137.52 316.5,-125.33 316.5,-113.78"/>
<polygon fill="none" stroke="#404040" points="316.5,-113.56 312.5,-107.56 316.5,-101.56 320.5,-107.56 316.5,-113.56"/>
<text text-anchor="middle" x="334" y="-123" font-family="Helvetica,sans-Serif" font-size="10.00"> #output</text>
</g>
<!-- Node10&#45;&gt;Node9 -->
<g id="edge10" class="edge">
<title>Node10&#45;&gt;Node9</title>
<path fill="none" stroke="#404040" d="M311.76,-353.38C312.16,-342.75 312.63,-330.42 313.11,-317.74"/>
<polygon fill="none" stroke="#404040" points="313.12,-317.51 309.35,-311.36 313.58,-305.52 317.34,-311.66 313.12,-317.51"/>
<text text-anchor="middle" x="348.5" y="-327" font-family="Helvetica,sans-Serif" font-size="10.00"> #output_stream</text>
</g>
<!-- Node11 -->
<g id="node11" class="node">
<title>Node11</title>
<g id="a_node11"><a xlink:title=" ">
<polygon fill="white" stroke="#bfbfbf" points="380,-359 380,-416 439,-416 439,-359 380,-359"/>
<text text-anchor="middle" x="409.5" y="-404" font-family="Helvetica,sans-Serif" font-size="10.00">std::string</text>
<polyline fill="none" stroke="#bfbfbf" points="380,-397 439,-397 "/>
<text text-anchor="middle" x="409.5" y="-385" font-family="Helvetica,sans-Serif" font-size="10.00"> </text>
<polyline fill="none" stroke="#bfbfbf" points="380,-378 439,-378 "/>
<text text-anchor="middle" x="409.5" y="-366" font-family="Helvetica,sans-Serif" font-size="10.00"> </text>
</a>
</g>
</g>
<!-- Node11&#45;&gt;Node9 -->
<g id="edge12" class="edge">
<title>Node11&#45;&gt;Node9</title>
<path fill="none" stroke="#404040" d="M400.59,-358.74C396.58,-347.65 391.42,-334.94 385.5,-324 382.37,-318.21 378.93,-312.37 375.32,-306.57"/>
<polygon fill="none" stroke="#404040" points="375.15,-306.31 368.53,-303.44 368.65,-296.23 375.26,-299.1 375.15,-306.31"/>
<text text-anchor="middle" x="401.5" y="-327" font-family="Helvetica,sans-Serif" font-size="10.00"> #sep</text>
</g>
<!-- Node12 -->
<g id="node12" class="node">
<title>Node12</title>
<g id="a_node12"><a xlink:title=" ">
<polygon fill="white" stroke="#bfbfbf" points="363,-469.5 363,-537.5 456,-537.5 456,-469.5 363,-469.5"/>
<text text-anchor="start" x="371" y="-525.5" font-family="Helvetica,sans-Serif" font-size="10.00">std::basic_string&lt;</text>
<text text-anchor="middle" x="409.5" y="-514.5" font-family="Helvetica,sans-Serif" font-size="10.00"> Char &gt;</text>
<polyline fill="none" stroke="#bfbfbf" points="363,-507.5 456,-507.5 "/>
<text text-anchor="middle" x="409.5" y="-495.5" font-family="Helvetica,sans-Serif" font-size="10.00"> </text>
<polyline fill="none" stroke="#bfbfbf" points="363,-488.5 456,-488.5 "/>
<text text-anchor="middle" x="409.5" y="-476.5" font-family="Helvetica,sans-Serif" font-size="10.00"> </text>
</a>
</g>
</g>
<!-- Node12&#45;&gt;Node11 -->
<g id="edge13" class="edge">
<title>Node12&#45;&gt;Node11</title>
<path fill="none" stroke="midnightblue" d="M409.5,-459.03C409.5,-444.67 409.5,-429.1 409.5,-416.24"/>
<polygon fill="none" stroke="midnightblue" points="406,-459.22 409.5,-469.22 413,-459.22 406,-459.22"/>
</g>
</g>
</svg>
        <g id="navigator" transform="translate(0 0)" fill="#404254">
                <rect fill="#f2f5e9" fill-opacity="0.5" stroke="#606060" stroke-width=".5" x="0" y="0" width="60" height="60"/>
                <use id="zoomplus" xlink:href="#zoomPlus" x="17" y="9" onmousedown="handleZoom(evt,'in')"/>
                <use id="zoomminus" xlink:href="#zoomMin" x="42" y="9" onmousedown="handleZoom(evt,'out')"/>
                <use id="reset" xlink:href="#resetDef" x="30" y="36" onmousedown="handleReset()"/>
                <g id="arrowUp" xlink:href="#dirArrow" transform="translate(30 24)" onmousedown="handlePan(0,-1)">
                  <use xlink:href="#rim" fill="#404040">
                        <set attributeName="fill" to="#808080" begin="arrowUp.mouseover" end="arrowUp.mouseout"/>
                  </use>
                  <path fill="none" stroke="white" stroke-width="1.5" d="M0,-3.0v7 M-2.5,-0.5L0,-3.0L2.5,-0.5"/>
                </g>
                <g id="arrowRight" xlink:href="#dirArrow" transform="rotate(90) translate(36 -43)" onmousedown="handlePan(1,0)">
                  <use xlink:href="#rim" fill="#404040">
                        <set attributeName="fill" to="#808080" begin="arrowRight.mouseover" end="arrowRight.mouseout"/>
                  </use>
                  <path fill="none" stroke="white" stroke-width="1.5" d="M0,-3.0v7 M-2.5,-0.5L0,-3.0L2.5,-0.5"/>
                </g>
                <g id="arrowDown" xlink:href="#dirArrow" transform="rotate(180) translate(-30 -48)" onmousedown="handlePan(0,1)">
                  <use xlink:href="#rim" fill="#404040">
                        <set attributeName="fill" to="#808080" begin="arrowDown.mouseover" end="arrowDown.mouseout"/>
                  </use>
                  <path fill="none" stroke="white" stroke-width="1.5" d="M0,-3.0v7 M-2.5,-0.5L0,-3.0L2.5,-0.5"/>
                </g>
                <g id="arrowLeft" xlink:href="#dirArrow" transform="rotate(270) translate(-36 17)" onmousedown="handlePan(-1,0)">
                  <use xlink:href="#rim" fill="#404040">
                        <set attributeName="fill" to="#808080" begin="arrowLeft.mouseover" end="arrowLeft.mouseout"/>
                  </use>
                  <path fill="none" stroke="white" stroke-width="1.5" d="M0,-3.0v7 M-2.5,-0.5L0,-3.0L2.5,-0.5"/>
                </g>
        </g>
        <svg viewBox="0 0 15 15" width="100%" height="30px" preserveAspectRatio="xMaxYMin meet">
         <g id="arrow_out" transform="scale(0.3 0.3)">
          <a xlink:href="class_h_y___catchment_area__coll__graph_org.svg" target="_base">
           <rect id="button" ry="5" rx="5" y="6" x="6" height="38" width="38"
                fill="#f2f5e9" fill-opacity="0.5" stroke="#606060" stroke-width="1.0"/>
           <path id="arrow"
             d="M 11.500037,31.436501 C 11.940474,20.09759 22.043105,11.32322 32.158766,21.979434 L 37.068811,17.246167 C 37.068811,17.246167 37.088388,32 37.088388,32 L 22.160133,31.978069 C 22.160133,31.978069 26.997745,27.140456 26.997745,27.140456 C 18.528582,18.264221 13.291696,25.230495 11.500037,31.436501 z"
             style="fill:#404040;"/>
          </a>
         </g>
        </svg>
</svg>
