<?xml version="1.0" encoding="UTF-8" standalone="no"?>
<!DOCTYPE svg PUBLIC "-//W3C//DTD SVG 1.1//EN"
 "http://www.w3.org/Graphics/SVG/1.1/DTD/svg11.dtd">
<!-- Generated by graphviz version 7.0.5 (20221223.1930)
 -->
<!-- Title: CsvPerFeatureForcingProvider Pages: 1 -->
<!--zoomable 1025 -->
<svg id="main" version="1.1" xmlns="http://www.w3.org/2000/svg" xmlns:xlink="http://www.w3.org/1999/xlink" xml:space="preserve" onload="init(evt)">
<style type="text/css"><![CDATA[
.edge:hover path { stroke: red; }
.edge:hover polygon { stroke: red; fill: red; }
]]></style>
<script type="text/javascript"><![CDATA[
var edges = document.getElementsByTagName('g');
if (edges && edges.length) {
  for (var i=0;i<edges.length;i++) {
    if (edges[i].id.substr(0,4)=='edge') {
      edges[i].setAttribute('class','edge');
    }
  }
}
]]></script>
        <defs>
                <circle id="rim" cx="0" cy="0" r="7"/>
                <circle id="rim2" cx="0" cy="0" r="3.5"/>
                <g id="zoomPlus">
                        <use xlink:href="#rim" fill="#404040">
                                <set attributeName="fill" to="#808080" begin="zoomplus.mouseover" end="zoomplus.mouseout"/>
                        </use>
                        <path d="M-4,0h8M0,-4v8" fill="none" stroke="white" stroke-width="1.5" pointer-events="none"/>
                </g>
                <g id="zoomMin">
                        <use xlink:href="#rim" fill="#404040">
                                <set attributeName="fill" to="#808080" begin="zoomminus.mouseover" end="zoomminus.mouseout"/>
                        </use>
                        <path d="M-4,0h8" fill="none" stroke="white" stroke-width="1.5" pointer-events="none"/>
                </g>
                <g id="dirArrow">
                        <path fill="none" stroke="white" stroke-width="1.5" d="M0,-3.0v7 M-2.5,-0.5L0,-3.0L2.5,-0.5"/>
                </g>
               <g id="resetDef">
                       <use xlink:href="#rim2" fill="#404040">
                               <set attributeName="fill" to="#808080" begin="reset.mouseover" end="reset.mouseout"/>
                       </use>
               </g>
        </defs>

<script type="text/javascript">
var viewWidth = 983;
var viewHeight = 1025;
var sectionId = 'dynsection-1';
</script>
<script xlink:href="svgpan.js"/>
<svg id="graph" class="graph">
<g id="viewport">
<title>CsvPerFeatureForcingProvider</title>
<!-- Node1 -->
<g id="node1" class="node">
<title>Node1</title>
<g id="a_node1"><a xlink:title="Forcing class providing time&#45;series precipiation forcing data to the model.">
<polygon fill="#999999" stroke="#666666" points="568,-349 401,-349 401,0 568,0 568,-349"/>
<text text-anchor="middle" x="484.5" y="-337" font-family="Helvetica,sans-Serif" font-size="10.00">{CsvPerFeatureForcingProvider</text>
<text text-anchor="start" x="409" y="-326" font-family="Helvetica,sans-Serif" font-size="10.00">|&#45; forcing_vector_index</text>
<text text-anchor="start" x="409" y="-315" font-family="Helvetica,sans-Serif" font-size="10.00">&#45; precipitation_rate</text>
<text text-anchor="start" x="409" y="-304" font-family="Helvetica,sans-Serif" font-size="10.00">_meters_per_second</text>
<text text-anchor="start" x="409" y="-293" font-family="Helvetica,sans-Serif" font-size="10.00">&#45; air_temperature_fahrenheit</text>
<text text-anchor="start" x="409" y="-282" font-family="Helvetica,sans-Serif" font-size="10.00">&#45; latitude</text>
<text text-anchor="start" x="409" y="-271" font-family="Helvetica,sans-Serif" font-size="10.00">&#45; longitude</text>
<text text-anchor="start" x="409" y="-260" font-family="Helvetica,sans-Serif" font-size="10.00">&#45; catchment_id</text>
<text text-anchor="start" x="409" y="-249" font-family="Helvetica,sans-Serif" font-size="10.00">&#45; day_of_year</text>
<text text-anchor="start" x="409" y="-238" font-family="Helvetica,sans-Serif" font-size="10.00">&#45; start_date_time_epoch</text>
<text text-anchor="start" x="409" y="-227" font-family="Helvetica,sans-Serif" font-size="10.00">&#45; end_date_time_epoch</text>
<text text-anchor="start" x="409" y="-216" font-family="Helvetica,sans-Serif" font-size="10.00">&#45; current_date_time_epoch</text>
<text text-anchor="start" x="409" y="-205" font-family="Helvetica,sans-Serif" font-size="10.00">|+ CsvPerFeatureForcingProvider()</text>
<text text-anchor="start" x="409" y="-194" font-family="Helvetica,sans-Serif" font-size="10.00">+ get_data_start_time()</text>
<text text-anchor="start" x="409" y="-183" font-family="Helvetica,sans-Serif" font-size="10.00">+ get_data_stop_time()</text>
<text text-anchor="start" x="409" y="-172" font-family="Helvetica,sans-Serif" font-size="10.00">+ record_duration()</text>
<text text-anchor="start" x="409" y="-161" font-family="Helvetica,sans-Serif" font-size="10.00">+ get_ts_index_for_time()</text>
<text text-anchor="start" x="409" y="-150" font-family="Helvetica,sans-Serif" font-size="10.00">+ get_value()</text>
<text text-anchor="start" x="409" y="-139" font-family="Helvetica,sans-Serif" font-size="10.00">+ get_values()</text>
<text text-anchor="start" x="409" y="-128" font-family="Helvetica,sans-Serif" font-size="10.00">+ is_param_sum_over_time</text>
<text text-anchor="start" x="409" y="-117" font-family="Helvetica,sans-Serif" font-size="10.00">_step()</text>
<text text-anchor="start" x="409" y="-106" font-family="Helvetica,sans-Serif" font-size="10.00">+ is_property_sum_over</text>
<text text-anchor="start" x="409" y="-95" font-family="Helvetica,sans-Serif" font-size="10.00">_time_step()</text>
<text text-anchor="start" x="409" y="-84" font-family="Helvetica,sans-Serif" font-size="10.00">+ get_avaliable_variable</text>
<text text-anchor="start" x="409" y="-73" font-family="Helvetica,sans-Serif" font-size="10.00">_names()</text>
<text text-anchor="start" x="409" y="-62" font-family="Helvetica,sans-Serif" font-size="10.00">&#45; check_forcing_vector</text>
<text text-anchor="start" x="409" y="-51" font-family="Helvetica,sans-Serif" font-size="10.00">_index_bounds()</text>
<text text-anchor="start" x="409" y="-40" font-family="Helvetica,sans-Serif" font-size="10.00">&#45; get_value_for_param</text>
<text text-anchor="start" x="409" y="-29" font-family="Helvetica,sans-Serif" font-size="10.00">_name()</text>
<text text-anchor="start" x="409" y="-18" font-family="Helvetica,sans-Serif" font-size="10.00">&#45; read_csv()</text>
<text text-anchor="middle" x="484.5" y="-7" font-family="Helvetica,sans-Serif" font-size="10.00">}</text>
</a>
</g>
</g>
<!-- Node2 -->
<g id="node2" class="node">
<title>Node2</title>
<g id="a_node2"><a xlink:href="classdata__access_1_1_generic_data_provider.html" target="_top" xlink:title=" ">
<polygon fill="white" stroke="#666666" points="173.5,-453.5 39.5,-453.5 39.5,-412.5 173.5,-412.5 173.5,-453.5"/>
<text text-anchor="start" x="47.5" y="-441.5" font-family="Helvetica,sans-Serif" font-size="10.00">{data_access::GenericData</text>
<text text-anchor="middle" x="106.5" y="-430.5" font-family="Helvetica,sans-Serif" font-size="10.00">Provider</text>
<text text-anchor="middle" x="106.5" y="-419.5" font-family="Helvetica,sans-Serif" font-size="10.00">||}</text>
</a>
</g>
</g>
<!-- Node2&#45;&gt;Node1 -->
<g id="edge1" class="edge">
<title>Node2&#45;&gt;Node1</title>
<path fill="none" stroke="#63b8ff" d="M142.24,-405.33C158.38,-393.43 177.78,-379.33 195.5,-367 263.8,-319.47 342.61,-267.42 400.67,-229.6"/>
<polygon fill="none" stroke="#63b8ff" points="140.32,-402.39 134.36,-411.15 144.48,-408.02 140.32,-402.39"/>
</g>
<!-- Node3 -->
<g id="node3" class="node">
<title>Node3</title>
<g id="a_node3"><a xlink:href="classdata__access_1_1_data_provider.html" target="_top" xlink:title=" ">
<polygon fill="white" stroke="#666666" points="191,-720 0,-720 0,-558 191,-558 191,-720"/>
<text text-anchor="start" x="8" y="-708" font-family="Helvetica,sans-Serif" font-size="10.00">{data_access::DataProvider</text>
<text text-anchor="middle" x="95.5" y="-697" font-family="Helvetica,sans-Serif" font-size="10.00">&lt; double, CatchmentAggrDataSelector &gt;</text>
<text text-anchor="start" x="8" y="-686" font-family="Helvetica,sans-Serif" font-size="10.00">||+ ~DataProvider()</text>
<text text-anchor="start" x="8" y="-675" font-family="Helvetica,sans-Serif" font-size="10.00">+ get_avaliable_variable</text>
<text text-anchor="start" x="8" y="-664" font-family="Helvetica,sans-Serif" font-size="10.00">_names()</text>
<text text-anchor="start" x="8" y="-653" font-family="Helvetica,sans-Serif" font-size="10.00">+ get_data_start_time()</text>
<text text-anchor="start" x="8" y="-642" font-family="Helvetica,sans-Serif" font-size="10.00">+ get_data_stop_time()</text>
<text text-anchor="start" x="8" y="-631" font-family="Helvetica,sans-Serif" font-size="10.00">+ record_duration()</text>
<text text-anchor="start" x="8" y="-620" font-family="Helvetica,sans-Serif" font-size="10.00">+ get_ts_index_for_time()</text>
<text text-anchor="start" x="8" y="-609" font-family="Helvetica,sans-Serif" font-size="10.00">+ get_value()</text>
<text text-anchor="start" x="8" y="-598" font-family="Helvetica,sans-Serif" font-size="10.00">+ get_values()</text>
<text text-anchor="start" x="8" y="-587" font-family="Helvetica,sans-Serif" font-size="10.00">+ is_property_sum_over</text>
<text text-anchor="start" x="8" y="-576" font-family="Helvetica,sans-Serif" font-size="10.00">_time_step()</text>
<text text-anchor="middle" x="95.5" y="-565" font-family="Helvetica,sans-Serif" font-size="10.00">}</text>
</a>
</g>
</g>
<!-- Node3&#45;&gt;Node2 -->
<g id="edge2" class="edge">
<title>Node3&#45;&gt;Node2</title>
<path fill="none" stroke="#63b8ff" d="M100.44,-546.46C102.31,-511.71 104.27,-475.32 105.44,-453.66"/>
<polygon fill="none" stroke="#63b8ff" points="96.96,-545.98 99.91,-556.16 103.95,-546.36 96.96,-545.98"/>
</g>
<!-- Node4 -->
<g id="node4" class="node">
<title>Node4</title>
<g id="a_node4"><a xlink:href="classdata__access_1_1_data_provider.html" target="_top" xlink:title=" ">
<polygon fill="white" stroke="#666666" points="165,-940 22,-940 22,-778 165,-778 165,-940"/>
<text text-anchor="start" x="30" y="-928" font-family="Helvetica,sans-Serif" font-size="10.00">{data_access::DataProvider</text>
<text text-anchor="middle" x="93.5" y="-917" font-family="Helvetica,sans-Serif" font-size="10.00">&lt; data_type, selection_type &gt;</text>
<text text-anchor="start" x="30" y="-906" font-family="Helvetica,sans-Serif" font-size="10.00">||+ ~DataProvider()</text>
<text text-anchor="start" x="30" y="-895" font-family="Helvetica,sans-Serif" font-size="10.00">+ get_avaliable_variable</text>
<text text-anchor="start" x="30" y="-884" font-family="Helvetica,sans-Serif" font-size="10.00">_names()</text>
<text text-anchor="start" x="30" y="-873" font-family="Helvetica,sans-Serif" font-size="10.00">+ get_data_start_time()</text>
<text text-anchor="start" x="30" y="-862" font-family="Helvetica,sans-Serif" font-size="10.00">+ get_data_stop_time()</text>
<text text-anchor="start" x="30" y="-851" font-family="Helvetica,sans-Serif" font-size="10.00">+ record_duration()</text>
<text text-anchor="start" x="30" y="-840" font-family="Helvetica,sans-Serif" font-size="10.00">+ get_ts_index_for_time()</text>
<text text-anchor="start" x="30" y="-829" font-family="Helvetica,sans-Serif" font-size="10.00">+ get_value()</text>
<text text-anchor="start" x="30" y="-818" font-family="Helvetica,sans-Serif" font-size="10.00">+ get_values()</text>
<text text-anchor="start" x="30" y="-807" font-family="Helvetica,sans-Serif" font-size="10.00">+ is_property_sum_over</text>
<text text-anchor="start" x="30" y="-796" font-family="Helvetica,sans-Serif" font-size="10.00">_time_step()</text>
<text text-anchor="middle" x="93.5" y="-785" font-family="Helvetica,sans-Serif" font-size="10.00">}</text>
</a>
</g>
</g>
<!-- Node4&#45;&gt;Node3 -->
<g id="edge3" class="edge">
<title>Node4&#45;&gt;Node3</title>
<path fill="none" stroke="orange" d="M94.25,-766.41C94.33,-756.82 94.41,-747.21 94.5,-738 94.55,-732.3 94.61,-726.41 94.67,-720.49"/>
<polygon fill="orange" stroke="orange" points="90.75,-766.09 94.16,-776.12 97.75,-766.15 90.75,-766.09"/>
<text text-anchor="start" x="94.5" y="-752" font-family="Helvetica,sans-Serif" font-size="10.00"> &lt; double, CatchmentAggrData</text>
<text text-anchor="middle" x="161" y="-741" font-family="Helvetica,sans-Serif" font-size="10.00">Selector &gt;</text>
</g>
<!-- Node5 -->
<g id="node5" class="node">
<title>Node5</title>
<g id="a_node5"><a xlink:title=" ">
<polygon fill="white" stroke="#666666" points="546,-448 423,-448 423,-418 546,-418 546,-448"/>
<text text-anchor="middle" x="484.5" y="-436" font-family="Helvetica,sans-Serif" font-size="10.00">{std::vector&lt; std::string &gt;</text>
<text text-anchor="middle" x="484.5" y="-425" font-family="Helvetica,sans-Serif" font-size="10.00">||}</text>
</a>
</g>
</g>
<!-- Node5&#45;&gt;Node1 -->
<g id="edge4" class="edge">
<title>Node5&#45;&gt;Node1</title>
<path fill="none" stroke="#404040" d="M484.5,-417.84C484.5,-405.25 484.5,-385.25 484.5,-362.02"/>
<polygon fill="none" stroke="#404040" points="484.5,-362.1 480.5,-356.1 484.5,-350.1 488.5,-356.1 484.5,-362.1"/>
<text text-anchor="middle" x="526.5" y="-375.5" font-family="Helvetica,sans-Serif" font-size="10.00"> &#45;available_forcings</text>
</g>
<!-- Node6 -->
<g id="node6" class="node">
<title>Node6</title>
<g id="a_node6"><a xlink:title=" ">
<polygon fill="white" stroke="#666666" points="691.5,-654 629.5,-654 629.5,-624 691.5,-624 691.5,-654"/>
<text text-anchor="middle" x="660.5" y="-642" font-family="Helvetica,sans-Serif" font-size="10.00">{std::string</text>
<text text-anchor="middle" x="660.5" y="-631" font-family="Helvetica,sans-Serif" font-size="10.00">||}</text>
</a>
</g>
</g>
<!-- Node6&#45;&gt;Node1 -->
<g id="edge21" class="edge">
<title>Node6&#45;&gt;Node1</title>
<path fill="none" stroke="#404040" d="M665.6,-623.77C679.74,-581.78 715.61,-455.76 671.5,-367 649.19,-322.12 612.49,-281.06 577.48,-248.57"/>
<polygon fill="none" stroke="#404040" points="577.68,-248.76 570.55,-247.67 568.81,-240.68 575.94,-241.76 577.68,-248.76"/>
<text text-anchor="middle" x="733.5" y="-430.5" font-family="Helvetica,sans-Serif" font-size="10.00"> &#45;forcing_file_name</text>
</g>
<!-- Node6&#45;&gt;Node5 -->
<g id="edge5" class="edge">
<title>Node6&#45;&gt;Node5</title>
<path fill="none" stroke="#404040" d="M646.71,-623.55C630.05,-605.38 602.19,-572.61 585.5,-540 572.18,-513.97 585.12,-499.55 566.5,-477 558.91,-467.81 548.83,-460.33 538.35,-454.35"/>
<polygon fill="none" stroke="#404040" points="538.37,-454.36 531.2,-455.16 527.71,-448.85 534.88,-448.05 538.37,-454.36"/>
<text text-anchor="middle" x="610" y="-506" font-family="Helvetica,sans-Serif" font-size="10.00"> +elements</text>
</g>
<!-- Node10 -->
<g id="node10" class="node">
<title>Node10</title>
<g id="a_node10"><a xlink:title=" ">
<polygon fill="white" stroke="#666666" points="908.5,-459 804.5,-459 804.5,-407 908.5,-407 908.5,-459"/>
<text text-anchor="start" x="812.5" y="-447" font-family="Helvetica,sans-Serif" font-size="10.00">{std::unordered_map</text>
<text text-anchor="start" x="812.5" y="-436" font-family="Helvetica,sans-Serif" font-size="10.00">&lt; std::string, std::</text>
<text text-anchor="middle" x="856.5" y="-425" font-family="Helvetica,sans-Serif" font-size="10.00">string &gt;</text>
<text text-anchor="middle" x="856.5" y="-414" font-family="Helvetica,sans-Serif" font-size="10.00">||}</text>
</a>
</g>
</g>
<!-- Node6&#45;&gt;Node10 -->
<g id="edge10" class="edge">
<title>Node6&#45;&gt;Node10</title>
<path fill="none" stroke="#404040" d="M669.45,-623.77C681.01,-605.03 701.33,-570.85 715.5,-540 727.95,-512.92 717.25,-497.9 738.5,-477 755.94,-459.85 767.51,-467.33 790.5,-459 791.06,-458.8 791.63,-458.59 792.19,-458.39"/>
<polygon fill="none" stroke="#404040" points="792.2,-458.38 796.45,-452.56 803.47,-454.24 799.22,-460.06 792.2,-458.38"/>
<text text-anchor="middle" x="763" y="-511.5" font-family="Helvetica,sans-Serif" font-size="10.00"> +elements</text>
<text text-anchor="middle" x="763" y="-500.5" font-family="Helvetica,sans-Serif" font-size="10.00">+keys</text>
</g>
<!-- Node13 -->
<g id="node13" class="node">
<title>Node13</title>
<g id="a_node13"><a xlink:title=" ">
<polygon fill="white" stroke="#666666" points="668.5,-459 564.5,-459 564.5,-407 668.5,-407 668.5,-459"/>
<text text-anchor="start" x="572.5" y="-447" font-family="Helvetica,sans-Serif" font-size="10.00">{std::unordered_map</text>
<text text-anchor="start" x="572.5" y="-436" font-family="Helvetica,sans-Serif" font-size="10.00">&lt; std::string, std::</text>
<text text-anchor="middle" x="616.5" y="-425" font-family="Helvetica,sans-Serif" font-size="10.00">vector&lt; double &gt; &gt;</text>
<text text-anchor="middle" x="616.5" y="-414" font-family="Helvetica,sans-Serif" font-size="10.00">||}</text>
</a>
</g>
</g>
<!-- Node6&#45;&gt;Node13 -->
<g id="edge15" class="edge">
<title>Node6&#45;&gt;Node13</title>
<path fill="none" stroke="#404040" d="M660.16,-623.87C659.12,-595.43 654.99,-529.48 638.5,-477 637.89,-475.06 637.2,-473.1 636.44,-471.14"/>
<polygon fill="none" stroke="#404040" points="636.44,-471.12 630.36,-467.25 631.59,-460.15 637.67,-464.02 636.44,-471.12"/>
<text text-anchor="middle" x="667" y="-506" font-family="Helvetica,sans-Serif" font-size="10.00"> +keys</text>
</g>
<!-- Node7 -->
<g id="node7" class="node">
<title>Node7</title>
<g id="a_node7"><a xlink:title=" ">
<polygon fill="white" stroke="#666666" points="703.5,-879.5 607.5,-879.5 607.5,-838.5 703.5,-838.5 703.5,-879.5"/>
<text text-anchor="start" x="615.5" y="-867.5" font-family="Helvetica,sans-Serif" font-size="10.00">{std::basic_string&lt;</text>
<text text-anchor="middle" x="655.5" y="-856.5" font-family="Helvetica,sans-Serif" font-size="10.00"> Char &gt;</text>
<text text-anchor="middle" x="655.5" y="-845.5" font-family="Helvetica,sans-Serif" font-size="10.00">||}</text>
</a>
</g>
</g>
<!-- Node7&#45;&gt;Node6 -->
<g id="edge6" class="edge">
<title>Node7&#45;&gt;Node6</title>
<path fill="none" stroke="#63b8ff" d="M656.22,-826.77C657.32,-778.82 659.38,-689 660.17,-654.24"/>
<polygon fill="none" stroke="#63b8ff" points="652.72,-826.68 655.99,-836.76 659.72,-826.84 652.72,-826.68"/>
</g>
<!-- Node8 -->
<g id="node8" class="node">
<title>Node8</title>
<g id="a_node8"><a xlink:title=" ">
<polygon fill="white" stroke="#666666" points="438,-874 351,-874 351,-844 438,-844 438,-874"/>
<text text-anchor="middle" x="394.5" y="-862" font-family="Helvetica,sans-Serif" font-size="10.00">{std::vector&lt; T &gt;</text>
<text text-anchor="middle" x="394.5" y="-851" font-family="Helvetica,sans-Serif" font-size="10.00">||}</text>
</a>
</g>
</g>
<!-- Node8&#45;&gt;Node5 -->
<g id="edge7" class="edge">
<title>Node8&#45;&gt;Node5</title>
<path fill="none" stroke="orange" d="M390.74,-832.56C383.91,-779.86 372.86,-655.57 403.5,-558 417.45,-513.6 452.16,-470 471.31,-448.26"/>
<polygon fill="orange" stroke="orange" points="387.25,-832.87 392.07,-842.3 394.18,-831.92 387.25,-832.87"/>
<text text-anchor="middle" x="434" y="-636.5" font-family="Helvetica,sans-Serif" font-size="10.00"> &lt; std::string &gt;</text>
</g>
<!-- Node14 -->
<g id="node14" class="node">
<title>Node14</title>
<g id="a_node14"><a xlink:title=" ">
<polygon fill="white" stroke="#666666" points="583.5,-659.5 473.5,-659.5 473.5,-618.5 583.5,-618.5 583.5,-659.5"/>
<text text-anchor="middle" x="528.5" y="-647.5" font-family="Helvetica,sans-Serif" font-size="10.00">{std::vector&lt; double &gt;</text>
<text text-anchor="start" x="481.5" y="-636.5" font-family="Helvetica,sans-Serif" font-size="10.00">|+ elements</text>
<text text-anchor="middle" x="528.5" y="-625.5" font-family="Helvetica,sans-Serif" font-size="10.00">|}</text>
</a>
</g>
</g>
<!-- Node8&#45;&gt;Node14 -->
<g id="edge17" class="edge">
<title>Node8&#45;&gt;Node14</title>
<path fill="none" stroke="orange" d="M409.26,-833.99C435.92,-790.61 491.62,-700 516.29,-659.86"/>
<polygon fill="orange" stroke="orange" points="406.34,-832.05 404.08,-842.41 412.3,-835.72 406.34,-832.05"/>
<text text-anchor="middle" x="490.5" y="-746.5" font-family="Helvetica,sans-Serif" font-size="10.00"> &lt; double &gt;</text>
</g>
<!-- Node15 -->
<g id="node15" class="node">
<title>Node15</title>
<g id="a_node15"><a xlink:title=" ">
<polygon fill="white" stroke="#666666" points="378.5,-529 270.5,-529 270.5,-488 378.5,-488 378.5,-529"/>
<text text-anchor="middle" x="324.5" y="-517" font-family="Helvetica,sans-Serif" font-size="10.00">{std::vector&lt; time_t &gt;</text>
<text text-anchor="start" x="278.5" y="-506" font-family="Helvetica,sans-Serif" font-size="10.00">|+ elements</text>
<text text-anchor="middle" x="324.5" y="-495" font-family="Helvetica,sans-Serif" font-size="10.00">|}</text>
</a>
</g>
</g>
<!-- Node8&#45;&gt;Node15 -->
<g id="edge20" class="edge">
<title>Node8&#45;&gt;Node15</title>
<path fill="none" stroke="orange" d="M375.36,-834.56C361.19,-815.68 342.94,-787.8 334.5,-760 309.41,-677.33 317.22,-572.25 321.99,-529.22"/>
<polygon fill="orange" stroke="orange" points="372.51,-836.59 381.4,-842.36 378.05,-832.31 372.51,-836.59"/>
<text text-anchor="middle" x="357.5" y="-746.5" font-family="Helvetica,sans-Serif" font-size="10.00"> &lt; time_t &gt;</text>
</g>
<!-- Node9 -->
<g id="node9" class="node">
<title>Node9</title>
<g id="a_node9"><a xlink:title=" ">
<polygon fill="white" stroke="#666666" points="409,-1017 380,-1017 380,-987 409,-987 409,-1017"/>
<text text-anchor="middle" x="394.5" y="-1005" font-family="Helvetica,sans-Serif" font-size="10.00">{T</text>
<text text-anchor="middle" x="394.5" y="-994" font-family="Helvetica,sans-Serif" font-size="10.00">||}</text>
</a>
</g>
</g>
<!-- Node9&#45;&gt;Node8 -->
<g id="edge8" class="edge">
<title>Node9&#45;&gt;Node8</title>
<path fill="none" stroke="#404040" d="M394.5,-986.7C394.5,-963.37 394.5,-916.74 394.5,-887.02"/>
<polygon fill="none" stroke="#404040" points="394.5,-887.24 390.5,-881.24 394.5,-875.24 398.5,-881.23 394.5,-887.24"/>
<text text-anchor="middle" x="419" y="-961" font-family="Helvetica,sans-Serif" font-size="10.00"> +elements</text>
</g>
<!-- Node11 -->
<g id="node11" class="node">
<title>Node11</title>
<g id="a_node11"><a xlink:title=" ">
<polygon fill="white" stroke="#666666" points="869.5,-659.5 765.5,-659.5 765.5,-618.5 869.5,-618.5 869.5,-659.5"/>
<text text-anchor="start" x="773.5" y="-647.5" font-family="Helvetica,sans-Serif" font-size="10.00">{std::unordered_map</text>
<text text-anchor="middle" x="817.5" y="-636.5" font-family="Helvetica,sans-Serif" font-size="10.00">&lt; K, T &gt;</text>
<text text-anchor="middle" x="817.5" y="-625.5" font-family="Helvetica,sans-Serif" font-size="10.00">||}</text>
</a>
</g>
</g>
<!-- Node9&#45;&gt;Node11 -->
<g id="edge13" class="edge">
<title>Node9&#45;&gt;Node11</title>
<path fill="none" stroke="#404040" d="M409.34,-1000.25C466.06,-997.07 668.12,-982.85 712.5,-940 765.63,-888.7 724.79,-847.6 749.5,-778 763.05,-739.85 784.39,-698.5 799.55,-671.11"/>
<polygon fill="none" stroke="#404040" points="799.51,-671.18 798.96,-663.99 805.38,-660.71 805.94,-667.9 799.51,-671.18"/>
<text text-anchor="middle" x="774" y="-856.5" font-family="Helvetica,sans-Serif" font-size="10.00"> +elements</text>
</g>
<!-- Node17 -->
<g id="node17" class="node">
<title>Node17</title>
<g id="a_node17"><a xlink:title=" ">
<polygon fill="white" stroke="#666666" points="317.5,-879.5 211.5,-879.5 211.5,-838.5 317.5,-838.5 317.5,-879.5"/>
<text text-anchor="middle" x="264.5" y="-867.5" font-family="Helvetica,sans-Serif" font-size="10.00">{std::shared_ptr&lt; T &gt;</text>
<text text-anchor="start" x="219.5" y="-856.5" font-family="Helvetica,sans-Serif" font-size="10.00">||+ operator&#45;&gt;()</text>
<text text-anchor="middle" x="264.5" y="-845.5" font-family="Helvetica,sans-Serif" font-size="10.00">}</text>
</a>
</g>
</g>
<!-- Node9&#45;&gt;Node17 -->
<g id="edge24" class="edge">
<title>Node9&#45;&gt;Node17</title>
<path fill="none" stroke="#404040" d="M381.32,-986.7C360.33,-963.93 318.87,-918.97 291.41,-889.19"/>
<polygon fill="none" stroke="#404040" points="291.43,-889.21 284.43,-887.51 283.3,-880.39 290.31,-882.09 291.43,-889.21"/>
<text text-anchor="middle" x="373.5" y="-961" font-family="Helvetica,sans-Serif" font-size="10.00"> +ptr</text>
</g>
<!-- Node10&#45;&gt;Node1 -->
<g id="edge9" class="edge">
<title>Node10&#45;&gt;Node1</title>
<path fill="none" stroke="#404040" d="M819.81,-406.7C764.29,-368.42 657.11,-294.51 578.82,-240.53"/>
<polygon fill="none" stroke="#404040" points="579.08,-240.71 571.87,-240.6 569.2,-233.9 576.41,-234.01 579.08,-240.71"/>
<text text-anchor="start" x="793.5" y="-381" font-family="Helvetica,sans-Serif" font-size="10.00"> &#45;available_forcings</text>
<text text-anchor="middle" x="835.5" y="-370" font-family="Helvetica,sans-Serif" font-size="10.00">_units</text>
</g>
<!-- Node11&#45;&gt;Node10 -->
<g id="edge11" class="edge">
<title>Node11&#45;&gt;Node10</title>
<path fill="none" stroke="orange" d="M848.08,-610.29C865.65,-592.23 886.05,-567.06 895.5,-540 904.74,-513.57 905.58,-503.12 895.5,-477 893.03,-470.61 889.12,-464.58 884.71,-459.17"/>
<polygon fill="orange" stroke="orange" points="845.96,-607.47 841.34,-617 850.89,-612.43 845.96,-607.47"/>
<text text-anchor="start" x="902.5" y="-511.5" font-family="Helvetica,sans-Serif" font-size="10.00"> &lt; std::string, std</text>
<text text-anchor="middle" x="938.5" y="-500.5" font-family="Helvetica,sans-Serif" font-size="10.00">::string &gt;</text>
</g>
<!-- Node11&#45;&gt;Node13 -->
<g id="edge18" class="edge">
<title>Node11&#45;&gt;Node13</title>
<path fill="none" stroke="orange" d="M813.64,-606.9C807.85,-562.7 796.66,-486.03 787.5,-477 753.78,-443.76 728.18,-471.44 682.5,-459 678.01,-457.78 673.39,-456.37 668.8,-454.85"/>
<polygon fill="orange" stroke="orange" points="810.14,-607.19 814.89,-616.66 817.09,-606.3 810.14,-607.19"/>
<text text-anchor="start" x="803.5" y="-511.5" font-family="Helvetica,sans-Serif" font-size="10.00"> &lt; std::string, std</text>
<text text-anchor="middle" x="846" y="-500.5" font-family="Helvetica,sans-Serif" font-size="10.00">::vector&lt; double &gt; &gt;</text>
</g>
<!-- Node12 -->
<g id="node12" class="node">
<title>Node12</title>
<g id="a_node12"><a xlink:title=" ">
<polygon fill="white" stroke="#666666" points="836,-874 807,-874 807,-844 836,-844 836,-874"/>
<text text-anchor="middle" x="821.5" y="-862" font-family="Helvetica,sans-Serif" font-size="10.00">{K</text>
<text text-anchor="middle" x="821.5" y="-851" font-family="Helvetica,sans-Serif" font-size="10.00">||}</text>
</a>
</g>
</g>
<!-- Node12&#45;&gt;Node11 -->
<g id="edge12" class="edge">
<title>Node12&#45;&gt;Node11</title>
<path fill="none" stroke="#404040" d="M821.24,-843.7C820.61,-809.22 818.98,-720.84 818.1,-672.61"/>
<polygon fill="none" stroke="#404040" points="818.1,-672.76 813.99,-666.84 817.88,-660.76 821.99,-666.69 818.1,-672.76"/>
<text text-anchor="middle" x="834" y="-746.5" font-family="Helvetica,sans-Serif" font-size="10.00"> +keys</text>
</g>
<!-- Node13&#45;&gt;Node1 -->
<g id="edge14" class="edge">
<title>Node13&#45;&gt;Node1</title>
<path fill="none" stroke="#404040" d="M603.6,-406.94C596.03,-392.22 585.71,-372.17 574.3,-350"/>
<polygon fill="none" stroke="#404040" points="574.34,-350.07 568.03,-346.56 568.84,-339.4 575.15,-342.9 574.34,-350.07"/>
<text text-anchor="middle" x="631" y="-375.5" font-family="Helvetica,sans-Serif" font-size="10.00"> &#45;forcing_vectors</text>
</g>
<!-- Node14&#45;&gt;Node13 -->
<g id="edge16" class="edge">
<title>Node14&#45;&gt;Node13</title>
<path fill="none" stroke="#404040" d="M520.07,-618.24C507.68,-585.82 488.92,-520.57 517.5,-477 518.78,-475.05 534.09,-468.09 552.3,-460.32"/>
<polygon fill="none" stroke="#404040" points="552.35,-460.3 556.33,-454.28 563.41,-455.64 559.44,-461.65 552.35,-460.3"/>
<text text-anchor="middle" x="542" y="-506" font-family="Helvetica,sans-Serif" font-size="10.00"> +elements</text>
</g>
<!-- Node15&#45;&gt;Node1 -->
<g id="edge19" class="edge">
<title>Node15&#45;&gt;Node1</title>
<path fill="none" stroke="#404040" d="M321.36,-487.7C318.85,-467.04 316.99,-433.95 325.5,-407 339.69,-362.06 365.84,-318.05 392.88,-280.68"/>
<polygon fill="none" stroke="#404040" points="392.87,-280.7 393.21,-273.5 399.99,-271.04 399.65,-278.25 392.87,-280.7"/>
<text text-anchor="middle" x="369.5" y="-430.5" font-family="Helvetica,sans-Serif" font-size="10.00"> &#45;time_epoch_vector</text>
</g>
<!-- Node16 -->
<g id="node16" class="node">
<title>Node16</title>
<g id="a_node16"><a xlink:title=" ">
<polygon fill="white" stroke="#666666" points="264.5,-540 154.5,-540 154.5,-477 264.5,-477 264.5,-540"/>
<text text-anchor="start" x="162.5" y="-528" font-family="Helvetica,sans-Serif" font-size="10.00">{std::shared_ptr&lt; time</text>
<text text-anchor="middle" x="209.5" y="-517" font-family="Helvetica,sans-Serif" font-size="10.00">_type &gt;</text>
<text text-anchor="start" x="162.5" y="-506" font-family="Helvetica,sans-Serif" font-size="10.00">|+ ptr</text>
<text text-anchor="start" x="162.5" y="-495" font-family="Helvetica,sans-Serif" font-size="10.00">|+ operator&#45;&gt;()</text>
<text text-anchor="middle" x="209.5" y="-484" font-family="Helvetica,sans-Serif" font-size="10.00">}</text>
</a>
</g>
</g>
<!-- Node16&#45;&gt;Node1 -->
<g id="edge22" class="edge">
<title>Node16&#45;&gt;Node1</title>
<path fill="none" stroke="#404040" d="M216.19,-476.81C221.66,-456 230.76,-428.48 244.5,-407 283.48,-346.09 341.57,-289.5 390.83,-247.52"/>
<polygon fill="none" stroke="#404040" points="390.69,-247.63 392.7,-240.71 399.87,-239.9 397.86,-246.82 390.69,-247.63"/>
<text text-anchor="middle" x="280" y="-436" font-family="Helvetica,sans-Serif" font-size="10.00"> &#45;end_date_time</text>
<text text-anchor="middle" x="280" y="-425" font-family="Helvetica,sans-Serif" font-size="10.00">&#45;start_date_time</text>
</g>
<!-- Node17&#45;&gt;Node16 -->
<g id="edge23" class="edge">
<title>Node17&#45;&gt;Node16</title>
<path fill="none" stroke="orange" d="M259.56,-826.69C249.09,-760.36 224.79,-606.4 214.38,-540.42"/>
<polygon fill="orange" stroke="orange" points="256.09,-827.18 261.11,-836.52 263.01,-826.09 256.09,-827.18"/>
<text text-anchor="middle" x="279" y="-746.5" font-family="Helvetica,sans-Serif" font-size="10.00"> &lt; time_type &gt;</text>
</g>
</g>
</svg>
        <g id="navigator" transform="translate(0 0)" fill="#404254">
                <rect fill="#f2f5e9" fill-opacity="0.5" stroke="#606060" stroke-width=".5" x="0" y="0" width="60" height="60"/>
                <use id="zoomplus" xlink:href="#zoomPlus" x="17" y="9" onmousedown="handleZoom(evt,'in')"/>
                <use id="zoomminus" xlink:href="#zoomMin" x="42" y="9" onmousedown="handleZoom(evt,'out')"/>
                <use id="reset" xlink:href="#resetDef" x="30" y="36" onmousedown="handleReset()"/>
                <g id="arrowUp" xlink:href="#dirArrow" transform="translate(30 24)" onmousedown="handlePan(0,-1)">
                  <use xlink:href="#rim" fill="#404040">
                        <set attributeName="fill" to="#808080" begin="arrowUp.mouseover" end="arrowUp.mouseout"/>
                  </use>
                  <path fill="none" stroke="white" stroke-width="1.5" d="M0,-3.0v7 M-2.5,-0.5L0,-3.0L2.5,-0.5"/>
                </g>
                <g id="arrowRight" xlink:href="#dirArrow" transform="rotate(90) translate(36 -43)" onmousedown="handlePan(1,0)">
                  <use xlink:href="#rim" fill="#404040">
                        <set attributeName="fill" to="#808080" begin="arrowRight.mouseover" end="arrowRight.mouseout"/>
                  </use>
                  <path fill="none" stroke="white" stroke-width="1.5" d="M0,-3.0v7 M-2.5,-0.5L0,-3.0L2.5,-0.5"/>
                </g>
                <g id="arrowDown" xlink:href="#dirArrow" transform="rotate(180) translate(-30 -48)" onmousedown="handlePan(0,1)">
                  <use xlink:href="#rim" fill="#404040">
                        <set attributeName="fill" to="#808080" begin="arrowDown.mouseover" end="arrowDown.mouseout"/>
                  </use>
                  <path fill="none" stroke="white" stroke-width="1.5" d="M0,-3.0v7 M-2.5,-0.5L0,-3.0L2.5,-0.5"/>
                </g>
                <g id="arrowLeft" xlink:href="#dirArrow" transform="rotate(270) translate(-36 17)" onmousedown="handlePan(-1,0)">
                  <use xlink:href="#rim" fill="#404040">
                        <set attributeName="fill" to="#808080" begin="arrowLeft.mouseover" end="arrowLeft.mouseout"/>
                  </use>
                  <path fill="none" stroke="white" stroke-width="1.5" d="M0,-3.0v7 M-2.5,-0.5L0,-3.0L2.5,-0.5"/>
                </g>
        </g>
        <svg viewBox="0 0 15 15" width="100%" height="30px" preserveAspectRatio="xMaxYMin meet">
         <g id="arrow_out" transform="scale(0.3 0.3)">
          <a xlink:href="class_csv_per_feature_forcing_provider__coll__graph_org.svg" target="_base">
           <rect id="button" ry="5" rx="5" y="6" x="6" height="38" width="38"
                fill="#f2f5e9" fill-opacity="0.5" stroke="#606060" stroke-width="1.0"/>
           <path id="arrow"
             d="M 11.500037,31.436501 C 11.940474,20.09759 22.043105,11.32322 32.158766,21.979434 L 37.068811,17.246167 C 37.068811,17.246167 37.088388,32 37.088388,32 L 22.160133,31.978069 C 22.160133,31.978069 26.997745,27.140456 26.997745,27.140456 C 18.528582,18.264221 13.291696,25.230495 11.500037,31.436501 z"
             style="fill:#404040;"/>
          </a>
         </g>
        </svg>
</svg>
