<?xml version="1.0" encoding="UTF-8" standalone="no"?>
<!DOCTYPE svg PUBLIC "-//W3C//DTD SVG 1.1//EN"
 "http://www.w3.org/Graphics/SVG/1.1/DTD/svg11.dtd">
<!-- Generated by graphviz version 2.50.0 (20220203.2022)
 -->
<!-- Title: geojson::JSONProperty Pages: 1 -->
<svg width="594pt" height="602pt"
 viewBox="0.00 0.00 593.50 602.00" xmlns="http://www.w3.org/2000/svg" xmlns:xlink="http://www.w3.org/1999/xlink">
<g id="graph0" class="graph" transform="scale(1 1) rotate(0) translate(4 598)">
<title>geojson::JSONProperty</title>
<polygon fill="white" stroke="transparent" points="-4,4 -4,-598 589.5,-598 589.5,4 -4,4"/>
<!-- Node1 -->
<g id="node1" class="node">
<title>Node1</title>
<g id="a_node1"><a xlink:title="@TODO: Convert JSONProperty into a variant of the supported types">
<polygon fill="#bfbfbf" stroke="black" points="226.5,-116.5 226.5,-371.5 344.5,-371.5 344.5,-116.5 226.5,-116.5"/>
<text text-anchor="middle" x="285.5" y="-359.5" font-family="Helvetica,sans-Serif" font-size="10.00">geojson::JSONProperty</text>
<polyline fill="none" stroke="black" points="226.5,-352.5 344.5,-352.5 "/>
<text text-anchor="start" x="234.5" y="-340.5" font-family="Helvetica,sans-Serif" font-size="10.00">&#45; type</text>
<text text-anchor="start" x="234.5" y="-329.5" font-family="Helvetica,sans-Serif" font-size="10.00">&#45; natural_number</text>
<text text-anchor="start" x="234.5" y="-318.5" font-family="Helvetica,sans-Serif" font-size="10.00">&#45; real_number</text>
<text text-anchor="start" x="234.5" y="-307.5" font-family="Helvetica,sans-Serif" font-size="10.00">&#45; boolean</text>
<polyline fill="none" stroke="black" points="226.5,-300.5 344.5,-300.5 "/>
<text text-anchor="start" x="234.5" y="-288.5" font-family="Helvetica,sans-Serif" font-size="10.00">+ JSONProperty()</text>
<text text-anchor="start" x="234.5" y="-277.5" font-family="Helvetica,sans-Serif" font-size="10.00">+ JSONProperty()</text>
<text text-anchor="start" x="234.5" y="-266.5" font-family="Helvetica,sans-Serif" font-size="10.00">+ JSONProperty()</text>
<text text-anchor="start" x="234.5" y="-255.5" font-family="Helvetica,sans-Serif" font-size="10.00">+ JSONProperty()</text>
<text text-anchor="start" x="234.5" y="-244.5" font-family="Helvetica,sans-Serif" font-size="10.00">+ JSONProperty()</text>
<text text-anchor="start" x="234.5" y="-233.5" font-family="Helvetica,sans-Serif" font-size="10.00">+ JSONProperty()</text>
<text text-anchor="start" x="234.5" y="-222.5" font-family="Helvetica,sans-Serif" font-size="10.00">+ JSONProperty()</text>
<text text-anchor="start" x="234.5" y="-211.5" font-family="Helvetica,sans-Serif" font-size="10.00">+ JSONProperty()</text>
<text text-anchor="start" x="234.5" y="-200.5" font-family="Helvetica,sans-Serif" font-size="10.00">+ JSONProperty()</text>
<text text-anchor="start" x="234.5" y="-189.5" font-family="Helvetica,sans-Serif" font-size="10.00">+ JSONProperty()</text>
<text text-anchor="start" x="234.5" y="-178.5" font-family="Helvetica,sans-Serif" font-size="10.00">+ ~JSONProperty()</text>
<text text-anchor="start" x="234.5" y="-167.5" font-family="Helvetica,sans-Serif" font-size="10.00">+ JSONProperty()</text>
<text text-anchor="start" x="234.5" y="-156.5" font-family="Helvetica,sans-Serif" font-size="10.00">+ JSONProperty()</text>
<text text-anchor="start" x="234.5" y="-145.5" font-family="Helvetica,sans-Serif" font-size="10.00">+ get_type()</text>
<text text-anchor="start" x="234.5" y="-134.5" font-family="Helvetica,sans-Serif" font-size="10.00">+ as_natural_number()</text>
<text text-anchor="start" x="234.5" y="-123.5" font-family="Helvetica,sans-Serif" font-size="10.00">and 15 more...</text>
</a>
</g>
</g>
<!-- Node4 -->
<g id="node4" class="node">
<title>Node4</title>
<g id="a_node4"><a xlink:title=" ">
<polygon fill="white" stroke="black" points="84,-0.5 84,-68.5 191,-68.5 191,-0.5 84,-0.5"/>
<text text-anchor="start" x="92" y="-56.5" font-family="Helvetica,sans-Serif" font-size="10.00">std::map&lt; std::string,</text>
<text text-anchor="middle" x="137.5" y="-45.5" font-family="Helvetica,sans-Serif" font-size="10.00"> JSONProperty &gt;</text>
<polyline fill="none" stroke="black" points="84,-38.5 191,-38.5 "/>
<text text-anchor="middle" x="137.5" y="-26.5" font-family="Helvetica,sans-Serif" font-size="10.00"> </text>
<polyline fill="none" stroke="black" points="84,-19.5 191,-19.5 "/>
<text text-anchor="middle" x="137.5" y="-7.5" font-family="Helvetica,sans-Serif" font-size="10.00"> </text>
</a>
</g>
</g>
<!-- Node1&#45;&gt;Node4 -->
<g id="edge5" class="edge">
<title>Node1&#45;&gt;Node4</title>
<path fill="none" stroke="#404040" d="M226.49,-136.37C215.6,-119.33 203.76,-102.3 191.5,-87 188.91,-83.77 186.12,-80.54 183.23,-77.37"/>
<polygon fill="none" stroke="#404040" points="183.16,-77.29 176.12,-75.71 174.88,-68.6 181.91,-70.19 183.16,-77.29"/>
<text text-anchor="middle" x="223" y="-90" font-family="Helvetica,sans-Serif" font-size="10.00"> +elements</text>
</g>
<!-- Node8 -->
<g id="node8" class="node">
<title>Node8</title>
<g id="a_node8"><a xlink:title=" ">
<polygon fill="white" stroke="black" points="362.5,-0.5 362.5,-68.5 466.5,-68.5 466.5,-0.5 362.5,-0.5"/>
<text text-anchor="start" x="370.5" y="-56.5" font-family="Helvetica,sans-Serif" font-size="10.00">std::vector&lt; geojson</text>
<text text-anchor="middle" x="414.5" y="-45.5" font-family="Helvetica,sans-Serif" font-size="10.00">::JSONProperty &gt;</text>
<polyline fill="none" stroke="black" points="362.5,-38.5 466.5,-38.5 "/>
<text text-anchor="middle" x="414.5" y="-26.5" font-family="Helvetica,sans-Serif" font-size="10.00"> </text>
<polyline fill="none" stroke="black" points="362.5,-19.5 466.5,-19.5 "/>
<text text-anchor="middle" x="414.5" y="-7.5" font-family="Helvetica,sans-Serif" font-size="10.00"> </text>
</a>
</g>
</g>
<!-- Node1&#45;&gt;Node8 -->
<g id="edge10" class="edge">
<title>Node1&#45;&gt;Node8</title>
<path fill="none" stroke="#404040" d="M321.32,-116.32C326.61,-105.94 332.64,-96 339.5,-87 343.45,-81.82 348.07,-76.97 353.05,-72.48"/>
<polygon fill="none" stroke="#404040" points="353.09,-72.45 355.15,-65.54 362.33,-64.79 360.26,-71.7 353.09,-72.45"/>
<text text-anchor="middle" x="364" y="-90" font-family="Helvetica,sans-Serif" font-size="10.00"> +elements</text>
</g>
<!-- Node2 -->
<g id="node2" class="node">
<title>Node2</title>
<g id="a_node2"><a xlink:title=" ">
<polygon fill="white" stroke="black" points="17,-430.5 17,-487.5 76,-487.5 76,-430.5 17,-430.5"/>
<text text-anchor="middle" x="46.5" y="-475.5" font-family="Helvetica,sans-Serif" font-size="10.00">std::string</text>
<polyline fill="none" stroke="black" points="17,-468.5 76,-468.5 "/>
<text text-anchor="middle" x="46.5" y="-456.5" font-family="Helvetica,sans-Serif" font-size="10.00"> </text>
<polyline fill="none" stroke="black" points="17,-449.5 76,-449.5 "/>
<text text-anchor="middle" x="46.5" y="-437.5" font-family="Helvetica,sans-Serif" font-size="10.00"> </text>
</a>
</g>
</g>
<!-- Node2&#45;&gt;Node1 -->
<g id="edge1" class="edge">
<title>Node2&#45;&gt;Node1</title>
<path fill="none" stroke="#404040" d="M76.3,-446.47C90.01,-441.27 106.52,-435.16 121.5,-430 146.62,-421.35 157.41,-428.15 178.5,-412 193.56,-400.47 207.09,-386.18 219.05,-370.84"/>
<polygon fill="none" stroke="#404040" points="219.1,-370.77 219.5,-363.57 226.3,-361.17 225.9,-368.37 219.1,-370.77"/>
<text text-anchor="middle" x="216.5" y="-404" font-family="Helvetica,sans-Serif" font-size="10.00"> &#45;key</text>
<text text-anchor="middle" x="216.5" y="-393" font-family="Helvetica,sans-Serif" font-size="10.00">&#45;string</text>
</g>
<!-- Node2&#45;&gt;Node4 -->
<g id="edge4" class="edge">
<title>Node2&#45;&gt;Node4</title>
<path fill="none" stroke="#404040" d="M38.96,-430.07C23.04,-364.94 -7.53,-199.95 56.5,-87 60.91,-79.23 67.02,-72.45 73.94,-66.59"/>
<polygon fill="none" stroke="#404040" points="74.19,-66.4 76.57,-59.59 83.77,-59.17 81.39,-65.98 74.19,-66.4"/>
<text text-anchor="middle" x="57" y="-241.5" font-family="Helvetica,sans-Serif" font-size="10.00"> +keys</text>
</g>
<!-- Node3 -->
<g id="node3" class="node">
<title>Node3</title>
<g id="a_node3"><a xlink:title=" ">
<polygon fill="white" stroke="black" points="0,-525.5 0,-593.5 93,-593.5 93,-525.5 0,-525.5"/>
<text text-anchor="start" x="8" y="-581.5" font-family="Helvetica,sans-Serif" font-size="10.00">std::basic_string&lt;</text>
<text text-anchor="middle" x="46.5" y="-570.5" font-family="Helvetica,sans-Serif" font-size="10.00"> Char &gt;</text>
<polyline fill="none" stroke="black" points="0,-563.5 93,-563.5 "/>
<text text-anchor="middle" x="46.5" y="-551.5" font-family="Helvetica,sans-Serif" font-size="10.00"> </text>
<polyline fill="none" stroke="black" points="0,-544.5 93,-544.5 "/>
<text text-anchor="middle" x="46.5" y="-532.5" font-family="Helvetica,sans-Serif" font-size="10.00"> </text>
</a>
</g>
</g>
<!-- Node3&#45;&gt;Node2 -->
<g id="edge2" class="edge">
<title>Node3&#45;&gt;Node2</title>
<path fill="none" stroke="midnightblue" d="M46.5,-515.38C46.5,-505.94 46.5,-496.2 46.5,-487.57"/>
<polygon fill="none" stroke="midnightblue" points="43,-515.43 46.5,-525.43 50,-515.43 43,-515.43"/>
</g>
<!-- Node4&#45;&gt;Node1 -->
<g id="edge3" class="edge">
<title>Node4&#45;&gt;Node1</title>
<path fill="none" stroke="#404040" d="M191.01,-44.54C216.83,-51.7 245.94,-64.44 263.5,-87 267.91,-92.67 271.65,-98.82 274.81,-105.29"/>
<polygon fill="none" stroke="#404040" points="274.86,-105.42 280.9,-109.36 279.59,-116.45 273.55,-112.51 274.86,-105.42"/>
<text text-anchor="middle" x="288.5" y="-90" font-family="Helvetica,sans-Serif" font-size="10.00"> &#45;values</text>
</g>
<!-- Node5 -->
<g id="node5" class="node">
<title>Node5</title>
<g id="a_node5"><a xlink:title=" ">
<polygon fill="white" stroke="black" points="101.5,-215.5 101.5,-272.5 189.5,-272.5 189.5,-215.5 101.5,-215.5"/>
<text text-anchor="middle" x="145.5" y="-260.5" font-family="Helvetica,sans-Serif" font-size="10.00">std::map&lt; K, T &gt;</text>
<polyline fill="none" stroke="black" points="101.5,-253.5 189.5,-253.5 "/>
<text text-anchor="middle" x="145.5" y="-241.5" font-family="Helvetica,sans-Serif" font-size="10.00"> </text>
<polyline fill="none" stroke="black" points="101.5,-234.5 189.5,-234.5 "/>
<text text-anchor="middle" x="145.5" y="-222.5" font-family="Helvetica,sans-Serif" font-size="10.00"> </text>
</a>
</g>
</g>
<!-- Node5&#45;&gt;Node4 -->
<g id="edge6" class="edge">
<title>Node5&#45;&gt;Node4</title>
<path fill="none" stroke="orange" d="M117.43,-207.05C97.47,-179.08 72.35,-138.36 61.5,-98 56.93,-81.01 68.34,-67.57 83.62,-57.58"/>
<polygon fill="orange" stroke="orange" points="114.72,-209.27 123.44,-215.3 120.38,-205.16 114.72,-209.27"/>
<text text-anchor="middle" x="126.5" y="-90" font-family="Helvetica,sans-Serif" font-size="10.00"> &lt; std::string, JSONProperty &gt;</text>
</g>
<!-- Node6 -->
<g id="node6" class="node">
<title>Node6</title>
<g id="a_node6"><a xlink:title=" ">
<polygon fill="white" stroke="black" points="131,-430.5 131,-487.5 160,-487.5 160,-430.5 131,-430.5"/>
<text text-anchor="middle" x="145.5" y="-475.5" font-family="Helvetica,sans-Serif" font-size="10.00">K</text>
<polyline fill="none" stroke="black" points="131,-468.5 160,-468.5 "/>
<text text-anchor="middle" x="145.5" y="-456.5" font-family="Helvetica,sans-Serif" font-size="10.00"> </text>
<polyline fill="none" stroke="black" points="131,-449.5 160,-449.5 "/>
<text text-anchor="middle" x="145.5" y="-437.5" font-family="Helvetica,sans-Serif" font-size="10.00"> </text>
</a>
</g>
</g>
<!-- Node6&#45;&gt;Node5 -->
<g id="edge7" class="edge">
<title>Node6&#45;&gt;Node5</title>
<path fill="none" stroke="#404040" d="M145.5,-430.15C145.5,-392.98 145.5,-326.91 145.5,-284.57"/>
<polygon fill="none" stroke="#404040" points="145.5,-284.52 141.5,-278.52 145.5,-272.52 149.5,-278.52 145.5,-284.52"/>
<text text-anchor="middle" x="160" y="-398.5" font-family="Helvetica,sans-Serif" font-size="10.00"> +keys</text>
</g>
<!-- Node7 -->
<g id="node7" class="node">
<title>Node7</title>
<g id="a_node7"><a xlink:title=" ">
<polygon fill="white" stroke="black" points="322,-430.5 322,-487.5 351,-487.5 351,-430.5 322,-430.5"/>
<text text-anchor="middle" x="336.5" y="-475.5" font-family="Helvetica,sans-Serif" font-size="10.00">T</text>
<polyline fill="none" stroke="black" points="322,-468.5 351,-468.5 "/>
<text text-anchor="middle" x="336.5" y="-456.5" font-family="Helvetica,sans-Serif" font-size="10.00"> </text>
<polyline fill="none" stroke="black" points="322,-449.5 351,-449.5 "/>
<text text-anchor="middle" x="336.5" y="-437.5" font-family="Helvetica,sans-Serif" font-size="10.00"> </text>
</a>
</g>
</g>
<!-- Node7&#45;&gt;Node5 -->
<g id="edge8" class="edge">
<title>Node7&#45;&gt;Node5</title>
<path fill="none" stroke="#404040" d="M322,-441.96C307.76,-426.96 284.84,-404.71 261.5,-390 243.63,-378.73 233.36,-385.96 217.5,-372 190.45,-348.19 171.23,-311.65 159.5,-283.87"/>
<polygon fill="none" stroke="#404040" points="159.42,-283.68 153.47,-279.62 154.92,-272.56 160.88,-276.62 159.42,-283.68"/>
<text text-anchor="middle" x="315" y="-398.5" font-family="Helvetica,sans-Serif" font-size="10.00"> +elements</text>
</g>
<!-- Node9 -->
<g id="node9" class="node">
<title>Node9</title>
<g id="a_node9"><a xlink:title=" ">
<polygon fill="white" stroke="black" points="402.5,-215.5 402.5,-272.5 486.5,-272.5 486.5,-215.5 402.5,-215.5"/>
<text text-anchor="middle" x="444.5" y="-260.5" font-family="Helvetica,sans-Serif" font-size="10.00">std::vector&lt; T &gt;</text>
<polyline fill="none" stroke="black" points="402.5,-253.5 486.5,-253.5 "/>
<text text-anchor="middle" x="444.5" y="-241.5" font-family="Helvetica,sans-Serif" font-size="10.00"> </text>
<polyline fill="none" stroke="black" points="402.5,-234.5 486.5,-234.5 "/>
<text text-anchor="middle" x="444.5" y="-222.5" font-family="Helvetica,sans-Serif" font-size="10.00"> </text>
</a>
</g>
</g>
<!-- Node7&#45;&gt;Node9 -->
<g id="edge12" class="edge">
<title>Node7&#45;&gt;Node9</title>
<path fill="none" stroke="#404040" d="M350.62,-430.15C369.63,-392.66 403.55,-325.77 424.99,-283.48"/>
<polygon fill="none" stroke="#404040" points="425.12,-283.22 424.27,-276.06 430.55,-272.52 431.4,-279.68 425.12,-283.22"/>
<text text-anchor="middle" x="393" y="-398.5" font-family="Helvetica,sans-Serif" font-size="10.00"> +elements</text>
</g>
<!-- Node8&#45;&gt;Node1 -->
<g id="edge9" class="edge">
<title>Node8&#45;&gt;Node1</title>
<path fill="none" stroke="#404040" d="M404.86,-68.72C401.5,-78.41 397.35,-88.85 392.5,-98 380.99,-119.74 366.45,-141.8 351.83,-161.94"/>
<polygon fill="none" stroke="#404040" points="351.79,-162.01 351.45,-169.21 344.67,-171.67 345.01,-164.46 351.79,-162.01"/>
<text text-anchor="middle" x="421" y="-90" font-family="Helvetica,sans-Serif" font-size="10.00"> &#45;value_list</text>
</g>
<!-- Node9&#45;&gt;Node8 -->
<g id="edge11" class="edge">
<title>Node9&#45;&gt;Node8</title>
<path fill="none" stroke="orange" d="M458.47,-205.93C468.46,-173.48 477.71,-125.62 462.5,-87 459.95,-80.52 456.15,-74.37 451.79,-68.73"/>
<polygon fill="orange" stroke="orange" points="455.13,-204.89 455.37,-215.48 461.78,-207.05 455.13,-204.89"/>
<text text-anchor="middle" x="525" y="-90" font-family="Helvetica,sans-Serif" font-size="10.00"> &lt; geojson::JSONProperty &gt;</text>
</g>
</g>
</svg>
