<?xml version="1.0" encoding="UTF-8" standalone="no"?>
<!DOCTYPE svg PUBLIC "-//W3C//DTD SVG 1.1//EN"
 "http://www.w3.org/Graphics/SVG/1.1/DTD/svg11.dtd">
<!-- Generated by graphviz version 2.44.0 ()
 -->
<!-- Title: HY_CatchmentDivide Pages: 1 -->
<!--zoomable 1445 -->
<svg id="main" version="1.1" xmlns="http://www.w3.org/2000/svg" xmlns:xlink="http://www.w3.org/1999/xlink" xml:space="preserve" onload="init(evt)">
<style type="text/css"><![CDATA[
.edge:hover path { stroke: red; }
.edge:hover polygon { stroke: red; fill: red; }
]]></style>
<script type="text/javascript"><![CDATA[
var edges = document.getElementsByTagName('g');
if (edges && edges.length) {
  for (var i=0;i<edges.length;i++) {
    if (edges[i].id.substr(0,4)=='edge') {
      edges[i].setAttribute('class','edge');
    }
  }
}
]]></script>
        <defs>
                <circle id="rim" cx="0" cy="0" r="7"/>
                <circle id="rim2" cx="0" cy="0" r="3.5"/>
                <g id="zoomPlus">
                        <use xlink:href="#rim" fill="#404040">
                                <set attributeName="fill" to="#808080" begin="zoomplus.mouseover" end="zoomplus.mouseout"/>
                        </use>
                        <path d="M-4,0h8M0,-4v8" fill="none" stroke="white" stroke-width="1.5" pointer-events="none"/>
                </g>
                <g id="zoomMin">
                        <use xlink:href="#rim" fill="#404040">
                                <set attributeName="fill" to="#808080" begin="zoomminus.mouseover" end="zoomminus.mouseout"/>
                        </use>
                        <path d="M-4,0h8" fill="none" stroke="white" stroke-width="1.5" pointer-events="none"/>
                </g>
                <g id="dirArrow">
                        <path fill="none" stroke="white" stroke-width="1.5" d="M0,-3.0v7 M-2.5,-0.5L0,-3.0L2.5,-0.5"/>
                </g>
               <g id="resetDef">
                       <use xlink:href="#rim2" fill="#404040">
                               <set attributeName="fill" to="#808080" begin="reset.mouseover" end="reset.mouseout"/>
                       </use>
               </g>
        </defs>

<script type="text/javascript">
var viewWidth = 1129;
var viewHeight = 1445;
var sectionId = 'dynsection-1';
</script>
<script xlink:href="svgpan.js"/>
<svg id="graph" class="graph">
<g id="viewport">
<title>HY_CatchmentDivide</title>
<polygon fill="white" stroke="transparent" points="-4,4 -4,-1441 1124.5,-1441 1124.5,4 -4,4"/>
<!-- Node1 -->
<g id="node1" class="node">
<title>Node1</title>
<g id="a_node1"><a xlink:title=" ">
<polygon fill="#bfbfbf" stroke="black" points="750.5,-0.5 750.5,-68.5 880.5,-68.5 880.5,-0.5 750.5,-0.5"/>
<text text-anchor="middle" x="815.5" y="-56.5" font-family="Helvetica,sans-Serif" font-size="10.00">HY_CatchmentDivide</text>
<polyline fill="none" stroke="black" points="750.5,-49.5 880.5,-49.5 "/>
<text text-anchor="start" x="758.5" y="-37.5" font-family="Helvetica,sans-Serif" font-size="10.00">&#45; id_number</text>
<polyline fill="none" stroke="black" points="750.5,-30.5 880.5,-30.5 "/>
<text text-anchor="start" x="758.5" y="-18.5" font-family="Helvetica,sans-Serif" font-size="10.00">+ HY_CatchmentDivide()</text>
<text text-anchor="start" x="758.5" y="-7.5" font-family="Helvetica,sans-Serif" font-size="10.00">+ ~HY_CatchmentDivide()</text>
</a>
</g>
</g>
<!-- Node2 -->
<g id="node2" class="node">
<title>Node2</title>
<g id="a_node2"><a xlink:href="class_h_y___catchment_realization.html" target="_top" xlink:title=" ">
<polygon fill="white" stroke="black" points="657.5,-106.5 657.5,-229.5 807.5,-229.5 807.5,-106.5 657.5,-106.5"/>
<text text-anchor="middle" x="732.5" y="-217.5" font-family="Helvetica,sans-Serif" font-size="10.00">HY_CatchmentRealization</text>
<polyline fill="none" stroke="black" points="657.5,-210.5 807.5,-210.5 "/>
<text text-anchor="start" x="665.5" y="-198.5" font-family="Helvetica,sans-Serif" font-size="10.00"># id_number</text>
<polyline fill="none" stroke="black" points="657.5,-191.5 807.5,-191.5 "/>
<text text-anchor="start" x="665.5" y="-179.5" font-family="Helvetica,sans-Serif" font-size="10.00">+ HY_CatchmentRealization()</text>
<text text-anchor="start" x="665.5" y="-168.5" font-family="Helvetica,sans-Serif" font-size="10.00">+ HY_CatchmentRealization()</text>
<text text-anchor="start" x="665.5" y="-157.5" font-family="Helvetica,sans-Serif" font-size="10.00">+ HY_CatchmentRealization()</text>
<text text-anchor="start" x="665.5" y="-146.5" font-family="Helvetica,sans-Serif" font-size="10.00">+ ~HY_CatchmentRealization()</text>
<text text-anchor="start" x="665.5" y="-135.5" font-family="Helvetica,sans-Serif" font-size="10.00">+ get_response()</text>
<text text-anchor="start" x="665.5" y="-124.5" font-family="Helvetica,sans-Serif" font-size="10.00"># get_catchment_id()</text>
<text text-anchor="start" x="665.5" y="-113.5" font-family="Helvetica,sans-Serif" font-size="10.00"># set_catchment_id()</text>
</a>
</g>
</g>
<!-- Node2&#45;&gt;Node1 -->
<g id="edge1" class="edge">
<title>Node2&#45;&gt;Node1</title>
<path fill="none" stroke="midnightblue" d="M776.2,-97.76C782.58,-87.65 788.89,-77.65 794.53,-68.73"/>
<polygon fill="none" stroke="midnightblue" points="773.22,-95.93 770.84,-106.25 779.14,-99.67 773.22,-95.93"/>
</g>
<!-- Node3 -->
<g id="node3" class="node">
<title>Node3</title>
<g id="a_node3"><a xlink:title=" ">
<polygon fill="white" stroke="#bfbfbf" points="913,-829.5 913,-897.5 1016,-897.5 1016,-829.5 913,-829.5"/>
<text text-anchor="start" x="921" y="-885.5" font-family="Helvetica,sans-Serif" font-size="10.00">std::shared_ptr&lt; HY</text>
<text text-anchor="middle" x="964.5" y="-874.5" font-family="Helvetica,sans-Serif" font-size="10.00">_Catchment &gt;</text>
<polyline fill="none" stroke="#bfbfbf" points="913,-867.5 1016,-867.5 "/>
<text text-anchor="start" x="921" y="-855.5" font-family="Helvetica,sans-Serif" font-size="10.00">+ ptr</text>
<polyline fill="none" stroke="#bfbfbf" points="913,-848.5 1016,-848.5 "/>
<text text-anchor="start" x="921" y="-836.5" font-family="Helvetica,sans-Serif" font-size="10.00">+ operator&#45;&gt;()</text>
</a>
</g>
</g>
<!-- Node3&#45;&gt;Node2 -->
<g id="edge2" class="edge">
<title>Node3&#45;&gt;Node2</title>
<path fill="none" stroke="#404040" d="M953.31,-829.05C917.66,-722.49 806.21,-389.33 756.66,-241.22"/>
<polygon fill="none" stroke="#404040" points="756.58,-240.98 750.88,-236.56 752.77,-229.6 758.47,-234.02 756.58,-240.98"/>
<text text-anchor="middle" x="991.5" y="-565" font-family="Helvetica,sans-Serif" font-size="10.00"> #realized_catchment</text>
</g>
<!-- Node4 -->
<g id="node4" class="node">
<title>Node4</title>
<g id="a_node4"><a xlink:title=" ">
<polygon fill="white" stroke="#bfbfbf" points="868,-1192 868,-1249 971,-1249 971,-1192 868,-1192"/>
<text text-anchor="middle" x="919.5" y="-1237" font-family="Helvetica,sans-Serif" font-size="10.00">std::shared_ptr&lt; T &gt;</text>
<polyline fill="none" stroke="#bfbfbf" points="868,-1230 971,-1230 "/>
<text text-anchor="middle" x="919.5" y="-1218" font-family="Helvetica,sans-Serif" font-size="10.00"> </text>
<polyline fill="none" stroke="#bfbfbf" points="868,-1211 971,-1211 "/>
<text text-anchor="start" x="876" y="-1199" font-family="Helvetica,sans-Serif" font-size="10.00">+ operator&#45;&gt;()</text>
</a>
</g>
</g>
<!-- Node4&#45;&gt;Node3 -->
<g id="edge3" class="edge">
<title>Node4&#45;&gt;Node3</title>
<path fill="none" stroke="orange" d="M926.59,-1181.54C930.73,-1158.57 935.83,-1128.67 939.5,-1102 949.5,-1029.3 957.62,-943.6 961.68,-897.62"/>
<polygon fill="orange" stroke="orange" points="923.12,-1181.1 924.77,-1191.56 930,-1182.35 923.12,-1181.1"/>
<text text-anchor="middle" x="983.5" y="-1094" font-family="Helvetica,sans-Serif" font-size="10.00"> &lt; HY_Catchment &gt;</text>
</g>
<!-- Node14 -->
<g id="node14" class="node">
<title>Node14</title>
<g id="a_node14"><a xlink:title=" ">
<polygon fill="white" stroke="#bfbfbf" points="825,-960.5 825,-1028.5 932,-1028.5 932,-960.5 825,-960.5"/>
<text text-anchor="start" x="833" y="-1016.5" font-family="Helvetica,sans-Serif" font-size="10.00">std::shared_ptr&lt; time</text>
<text text-anchor="middle" x="878.5" y="-1005.5" font-family="Helvetica,sans-Serif" font-size="10.00">_type &gt;</text>
<polyline fill="none" stroke="#bfbfbf" points="825,-998.5 932,-998.5 "/>
<text text-anchor="start" x="833" y="-986.5" font-family="Helvetica,sans-Serif" font-size="10.00">+ ptr</text>
<polyline fill="none" stroke="#bfbfbf" points="825,-979.5 932,-979.5 "/>
<text text-anchor="start" x="833" y="-967.5" font-family="Helvetica,sans-Serif" font-size="10.00">+ operator&#45;&gt;()</text>
</a>
</g>
</g>
<!-- Node4&#45;&gt;Node14 -->
<g id="edge16" class="edge">
<title>Node4&#45;&gt;Node14</title>
<path fill="none" stroke="orange" d="M902.97,-1182.45C893.75,-1159.73 883.21,-1129.77 878.5,-1102 874.39,-1077.75 874.55,-1049.96 875.65,-1028.84"/>
<polygon fill="orange" stroke="orange" points="899.75,-1183.82 906.82,-1191.71 906.21,-1181.14 899.75,-1183.82"/>
<text text-anchor="middle" x="909" y="-1094" font-family="Helvetica,sans-Serif" font-size="10.00"> &lt; time_type &gt;</text>
</g>
<!-- Node18 -->
<g id="node18" class="node">
<title>Node18</title>
<g id="a_node18"><a xlink:title=" ">
<polygon fill="white" stroke="#bfbfbf" points="934.5,-248.5 934.5,-305.5 1078.5,-305.5 1078.5,-248.5 934.5,-248.5"/>
<text text-anchor="middle" x="1006.5" y="-293.5" font-family="Helvetica,sans-Serif" font-size="10.00">std::shared_ptr&lt; linestring_t &gt;</text>
<polyline fill="none" stroke="#bfbfbf" points="934.5,-286.5 1078.5,-286.5 "/>
<text text-anchor="start" x="942.5" y="-274.5" font-family="Helvetica,sans-Serif" font-size="10.00">+ ptr</text>
<polyline fill="none" stroke="#bfbfbf" points="934.5,-267.5 1078.5,-267.5 "/>
<text text-anchor="start" x="942.5" y="-255.5" font-family="Helvetica,sans-Serif" font-size="10.00">+ operator&#45;&gt;()</text>
</a>
</g>
</g>
<!-- Node4&#45;&gt;Node18 -->
<g id="edge24" class="edge">
<title>Node4&#45;&gt;Node18</title>
<path fill="none" stroke="orange" d="M964.76,-1185.43C988.99,-1164.35 1016.63,-1135.04 1030.5,-1102 1069.08,-1010.07 1067.83,-402.08 1041.5,-324 1039.32,-317.53 1035.83,-311.26 1031.88,-305.53"/>
<polygon fill="orange" stroke="orange" points="962.39,-1182.85 957.03,-1191.98 966.92,-1188.19 962.39,-1182.85"/>
<text text-anchor="middle" x="1087" y="-992" font-family="Helvetica,sans-Serif" font-size="10.00"> &lt; linestring_t &gt;</text>
</g>
<!-- Node5 -->
<g id="node5" class="node">
<title>Node5</title>
<g id="a_node5"><a xlink:title=" ">
<polygon fill="white" stroke="#bfbfbf" points="753,-1374 753,-1431 782,-1431 782,-1374 753,-1374"/>
<text text-anchor="middle" x="767.5" y="-1419" font-family="Helvetica,sans-Serif" font-size="10.00">T</text>
<polyline fill="none" stroke="#bfbfbf" points="753,-1412 782,-1412 "/>
<text text-anchor="middle" x="767.5" y="-1400" font-family="Helvetica,sans-Serif" font-size="10.00"> </text>
<polyline fill="none" stroke="#bfbfbf" points="753,-1393 782,-1393 "/>
<text text-anchor="middle" x="767.5" y="-1381" font-family="Helvetica,sans-Serif" font-size="10.00"> </text>
</a>
</g>
</g>
<!-- Node5&#45;&gt;Node4 -->
<g id="edge4" class="edge">
<title>Node5&#45;&gt;Node4</title>
<path fill="none" stroke="#404040" d="M782.07,-1384.24C806.39,-1355.44 855.77,-1296.97 888.24,-1258.52"/>
<polygon fill="none" stroke="#404040" points="888.36,-1258.38 889.17,-1251.21 896.1,-1249.21 895.29,-1256.38 888.36,-1258.38"/>
<text text-anchor="middle" x="827.5" y="-1342" font-family="Helvetica,sans-Serif" font-size="10.00"> +ptr</text>
</g>
<!-- Node10 -->
<g id="node10" class="node">
<title>Node10</title>
<g id="a_node10"><a xlink:title=" ">
<polygon fill="white" stroke="#bfbfbf" points="633.5,-1192 633.5,-1249 717.5,-1249 717.5,-1192 633.5,-1192"/>
<text text-anchor="middle" x="675.5" y="-1237" font-family="Helvetica,sans-Serif" font-size="10.00">std::vector&lt; T &gt;</text>
<polyline fill="none" stroke="#bfbfbf" points="633.5,-1230 717.5,-1230 "/>
<text text-anchor="middle" x="675.5" y="-1218" font-family="Helvetica,sans-Serif" font-size="10.00"> </text>
<polyline fill="none" stroke="#bfbfbf" points="633.5,-1211 717.5,-1211 "/>
<text text-anchor="middle" x="675.5" y="-1199" font-family="Helvetica,sans-Serif" font-size="10.00"> </text>
</a>
</g>
</g>
<!-- Node5&#45;&gt;Node10 -->
<g id="edge10" class="edge">
<title>Node5&#45;&gt;Node10</title>
<path fill="none" stroke="#404040" d="M753.33,-1373.77C737.79,-1343.38 712.77,-1294.41 695.3,-1260.24"/>
<polygon fill="none" stroke="#404040" points="695.15,-1259.95 688.86,-1256.43 689.69,-1249.26 695.98,-1252.78 695.15,-1259.95"/>
<text text-anchor="middle" x="765" y="-1342" font-family="Helvetica,sans-Serif" font-size="10.00"> +elements</text>
</g>
<!-- Node6 -->
<g id="node6" class="node">
<title>Node6</title>
<g id="a_node6"><a xlink:href="class_forcing.html" target="_top" xlink:title="Forcing class providing time&#45;series precipiation forcing data to the model.">
<polygon fill="white" stroke="black" points="458.5,-324.5 458.5,-810.5 608.5,-810.5 608.5,-324.5 458.5,-324.5"/>
<text text-anchor="middle" x="533.5" y="-798.5" font-family="Helvetica,sans-Serif" font-size="10.00">Forcing</text>
<polyline fill="none" stroke="black" points="458.5,-791.5 608.5,-791.5 "/>
<text text-anchor="start" x="466.5" y="-779.5" font-family="Helvetica,sans-Serif" font-size="10.00">&#45; is_aorc_data</text>
<text text-anchor="start" x="466.5" y="-768.5" font-family="Helvetica,sans-Serif" font-size="10.00">&#45; forcing_vector_index</text>
<text text-anchor="start" x="466.5" y="-757.5" font-family="Helvetica,sans-Serif" font-size="10.00">&#45; precipitation_rate</text>
<text text-anchor="start" x="466.5" y="-746.5" font-family="Helvetica,sans-Serif" font-size="10.00">_meters_per_second</text>
<text text-anchor="start" x="466.5" y="-735.5" font-family="Helvetica,sans-Serif" font-size="10.00">&#45; air_temperature_fahrenheit</text>
<text text-anchor="start" x="466.5" y="-724.5" font-family="Helvetica,sans-Serif" font-size="10.00">&#45; latitude</text>
<text text-anchor="start" x="466.5" y="-713.5" font-family="Helvetica,sans-Serif" font-size="10.00">&#45; longitude</text>
<text text-anchor="start" x="466.5" y="-702.5" font-family="Helvetica,sans-Serif" font-size="10.00">&#45; catchment_id</text>
<text text-anchor="start" x="466.5" y="-691.5" font-family="Helvetica,sans-Serif" font-size="10.00">&#45; day_of_year</text>
<text text-anchor="start" x="466.5" y="-680.5" font-family="Helvetica,sans-Serif" font-size="10.00">&#45; start_date_time_epoch</text>
<text text-anchor="start" x="466.5" y="-669.5" font-family="Helvetica,sans-Serif" font-size="10.00">&#45; end_date_time_epoch</text>
<text text-anchor="start" x="466.5" y="-658.5" font-family="Helvetica,sans-Serif" font-size="10.00">&#45; current_date_time_epoch</text>
<polyline fill="none" stroke="black" points="458.5,-651.5 608.5,-651.5 "/>
<text text-anchor="start" x="466.5" y="-639.5" font-family="Helvetica,sans-Serif" font-size="10.00">+ Forcing()</text>
<text text-anchor="start" x="466.5" y="-628.5" font-family="Helvetica,sans-Serif" font-size="10.00">+ Forcing()</text>
<text text-anchor="start" x="466.5" y="-617.5" font-family="Helvetica,sans-Serif" font-size="10.00">+ Forcing()</text>
<text text-anchor="start" x="466.5" y="-606.5" font-family="Helvetica,sans-Serif" font-size="10.00">+ get_aorc_for_index()</text>
<text text-anchor="start" x="466.5" y="-595.5" font-family="Helvetica,sans-Serif" font-size="10.00">+ get_available_forcing</text>
<text text-anchor="start" x="466.5" y="-584.5" font-family="Helvetica,sans-Serif" font-size="10.00">_outputs()</text>
<text text-anchor="start" x="466.5" y="-573.5" font-family="Helvetica,sans-Serif" font-size="10.00">+ get_converted_value</text>
<text text-anchor="start" x="466.5" y="-562.5" font-family="Helvetica,sans-Serif" font-size="10.00">_for_param_in_units()</text>
<text text-anchor="start" x="466.5" y="-551.5" font-family="Helvetica,sans-Serif" font-size="10.00">+ get_converted_value</text>
<text text-anchor="start" x="466.5" y="-540.5" font-family="Helvetica,sans-Serif" font-size="10.00">_for_param_in_units()</text>
<text text-anchor="start" x="466.5" y="-529.5" font-family="Helvetica,sans-Serif" font-size="10.00">+ get_forcing_output</text>
<text text-anchor="start" x="466.5" y="-518.5" font-family="Helvetica,sans-Serif" font-size="10.00">_time_begin()</text>
<text text-anchor="start" x="466.5" y="-507.5" font-family="Helvetica,sans-Serif" font-size="10.00">+ get_forcing_output</text>
<text text-anchor="start" x="466.5" y="-496.5" font-family="Helvetica,sans-Serif" font-size="10.00">_time_end()</text>
<text text-anchor="start" x="466.5" y="-485.5" font-family="Helvetica,sans-Serif" font-size="10.00">+ get_ts_index_for_time()</text>
<text text-anchor="start" x="466.5" y="-474.5" font-family="Helvetica,sans-Serif" font-size="10.00">+ get_value()</text>
<text text-anchor="start" x="466.5" y="-463.5" font-family="Helvetica,sans-Serif" font-size="10.00">+ get_value_for_param</text>
<text text-anchor="start" x="466.5" y="-452.5" font-family="Helvetica,sans-Serif" font-size="10.00">_name()</text>
<text text-anchor="start" x="466.5" y="-441.5" font-family="Helvetica,sans-Serif" font-size="10.00">+ check_forcing_vector</text>
<text text-anchor="start" x="466.5" y="-430.5" font-family="Helvetica,sans-Serif" font-size="10.00">_index_bounds()</text>
<text text-anchor="start" x="466.5" y="-419.5" font-family="Helvetica,sans-Serif" font-size="10.00">+ get_current_hourly</text>
<text text-anchor="start" x="466.5" y="-408.5" font-family="Helvetica,sans-Serif" font-size="10.00">_precipitation_meters</text>
<text text-anchor="start" x="466.5" y="-397.5" font-family="Helvetica,sans-Serif" font-size="10.00">_per_second()</text>
<text text-anchor="start" x="466.5" y="-386.5" font-family="Helvetica,sans-Serif" font-size="10.00">+ get_next_hourly_precipitation</text>
<text text-anchor="start" x="466.5" y="-375.5" font-family="Helvetica,sans-Serif" font-size="10.00">_meters_per_second()</text>
<text text-anchor="start" x="466.5" y="-364.5" font-family="Helvetica,sans-Serif" font-size="10.00">and 15 more...</text>
<text text-anchor="start" x="466.5" y="-353.5" font-family="Helvetica,sans-Serif" font-size="10.00">+ get_forcing_field_names()</text>
<text text-anchor="start" x="466.5" y="-342.5" font-family="Helvetica,sans-Serif" font-size="10.00">&#45; read_forcing()</text>
<text text-anchor="start" x="466.5" y="-331.5" font-family="Helvetica,sans-Serif" font-size="10.00">&#45; read_forcing_aorc()</text>
</a>
</g>
</g>
<!-- Node6&#45;&gt;Node2 -->
<g id="edge5" class="edge">
<title>Node6&#45;&gt;Node2</title>
<path fill="none" stroke="#404040" d="M608.59,-416.51C638.79,-356.18 672.19,-289.46 696.7,-240.51"/>
<polygon fill="none" stroke="#404040" points="696.73,-240.45 695.84,-233.3 702.1,-229.72 702.99,-236.88 696.73,-240.45"/>
<text text-anchor="middle" x="709" y="-274.5" font-family="Helvetica,sans-Serif" font-size="10.00"> #forcing</text>
</g>
<!-- Node7 -->
<g id="node7" class="node">
<title>Node7</title>
<g id="a_node7"><a xlink:href="classforcing_1_1_forcing_provider.html" target="_top" xlink:title="An abstraction interface for types that provides forcing data.">
<polygon fill="white" stroke="black" points="146.5,-916.5 146.5,-1072.5 272.5,-1072.5 272.5,-916.5 146.5,-916.5"/>
<text text-anchor="middle" x="209.5" y="-1060.5" font-family="Helvetica,sans-Serif" font-size="10.00">forcing::ForcingProvider</text>
<polyline fill="none" stroke="black" points="146.5,-1053.5 272.5,-1053.5 "/>
<text text-anchor="middle" x="209.5" y="-1041.5" font-family="Helvetica,sans-Serif" font-size="10.00"> </text>
<polyline fill="none" stroke="black" points="146.5,-1034.5 272.5,-1034.5 "/>
<text text-anchor="start" x="154.5" y="-1022.5" font-family="Helvetica,sans-Serif" font-size="10.00">+ get_available_forcing</text>
<text text-anchor="start" x="154.5" y="-1011.5" font-family="Helvetica,sans-Serif" font-size="10.00">_outputs()</text>
<text text-anchor="start" x="154.5" y="-1000.5" font-family="Helvetica,sans-Serif" font-size="10.00">+ get_forcing_output</text>
<text text-anchor="start" x="154.5" y="-989.5" font-family="Helvetica,sans-Serif" font-size="10.00">_time_begin()</text>
<text text-anchor="start" x="154.5" y="-978.5" font-family="Helvetica,sans-Serif" font-size="10.00">+ get_forcing_output</text>
<text text-anchor="start" x="154.5" y="-967.5" font-family="Helvetica,sans-Serif" font-size="10.00">_time_end()</text>
<text text-anchor="start" x="154.5" y="-956.5" font-family="Helvetica,sans-Serif" font-size="10.00">+ get_ts_index_for_time()</text>
<text text-anchor="start" x="154.5" y="-945.5" font-family="Helvetica,sans-Serif" font-size="10.00">+ get_value()</text>
<text text-anchor="start" x="154.5" y="-934.5" font-family="Helvetica,sans-Serif" font-size="10.00">+ is_property_sum_over</text>
<text text-anchor="start" x="154.5" y="-923.5" font-family="Helvetica,sans-Serif" font-size="10.00">_time_step()</text>
</a>
</g>
</g>
<!-- Node7&#45;&gt;Node6 -->
<g id="edge6" class="edge">
<title>Node7&#45;&gt;Node6</title>
<path fill="none" stroke="midnightblue" d="M274.91,-907.7C327.96,-838.11 402.79,-739.96 458.31,-667.13"/>
<polygon fill="none" stroke="midnightblue" points="271.83,-905.97 268.55,-916.04 277.4,-910.21 271.83,-905.97"/>
</g>
<!-- Node8 -->
<g id="node8" class="node">
<title>Node8</title>
<g id="a_node8"><a xlink:title=" ">
<polygon fill="white" stroke="#bfbfbf" points="428.5,-966 428.5,-1023 558.5,-1023 558.5,-966 428.5,-966"/>
<text text-anchor="middle" x="493.5" y="-1011" font-family="Helvetica,sans-Serif" font-size="10.00">std::vector&lt; AORC_data &gt;</text>
<polyline fill="none" stroke="#bfbfbf" points="428.5,-1004 558.5,-1004 "/>
<text text-anchor="middle" x="493.5" y="-992" font-family="Helvetica,sans-Serif" font-size="10.00"> </text>
<polyline fill="none" stroke="#bfbfbf" points="428.5,-985 558.5,-985 "/>
<text text-anchor="middle" x="493.5" y="-973" font-family="Helvetica,sans-Serif" font-size="10.00"> </text>
</a>
</g>
</g>
<!-- Node8&#45;&gt;Node6 -->
<g id="edge7" class="edge">
<title>Node8&#45;&gt;Node6</title>
<path fill="none" stroke="#404040" d="M492.4,-965.92C491.7,-946.85 490.86,-920.89 490.5,-898 490.02,-867.34 487.99,-859.56 490.5,-829 490.67,-826.92 490.85,-824.83 491.03,-822.73"/>
<polygon fill="none" stroke="#404040" points="491.05,-822.6 487.63,-816.25 492.17,-810.65 495.59,-817 491.05,-822.6"/>
<text text-anchor="middle" x="523.5" y="-861" font-family="Helvetica,sans-Serif" font-size="10.00"> &#45;AORC_vector</text>
</g>
<!-- Node9 -->
<g id="node9" class="node">
<title>Node9</title>
<g id="a_node9"><a xlink:href="struct_a_o_r_c__data.html" target="_top" xlink:title=" ">
<polygon fill="white" stroke="black" points="359,-1120.5 359,-1320.5 492,-1320.5 492,-1120.5 359,-1120.5"/>
<text text-anchor="middle" x="425.5" y="-1308.5" font-family="Helvetica,sans-Serif" font-size="10.00">AORC_data</text>
<polyline fill="none" stroke="black" points="359,-1301.5 492,-1301.5 "/>
<text text-anchor="start" x="367" y="-1289.5" font-family="Helvetica,sans-Serif" font-size="10.00">+ APCP_surface_kg_per</text>
<text text-anchor="start" x="367" y="-1278.5" font-family="Helvetica,sans-Serif" font-size="10.00">_meters_squared</text>
<text text-anchor="start" x="367" y="-1267.5" font-family="Helvetica,sans-Serif" font-size="10.00">+ DLWRF_surface_W_per</text>
<text text-anchor="start" x="367" y="-1256.5" font-family="Helvetica,sans-Serif" font-size="10.00">_meters_squared</text>
<text text-anchor="start" x="367" y="-1245.5" font-family="Helvetica,sans-Serif" font-size="10.00">+ DSWRF_surface_W_per</text>
<text text-anchor="start" x="367" y="-1234.5" font-family="Helvetica,sans-Serif" font-size="10.00">_meters_squared</text>
<text text-anchor="start" x="367" y="-1223.5" font-family="Helvetica,sans-Serif" font-size="10.00">+ PRES_surface_Pa</text>
<text text-anchor="start" x="367" y="-1212.5" font-family="Helvetica,sans-Serif" font-size="10.00">+ SPFH_2maboveground</text>
<text text-anchor="start" x="367" y="-1201.5" font-family="Helvetica,sans-Serif" font-size="10.00">_kg_per_kg</text>
<text text-anchor="start" x="367" y="-1190.5" font-family="Helvetica,sans-Serif" font-size="10.00">+ TMP_2maboveground_K</text>
<text text-anchor="start" x="367" y="-1179.5" font-family="Helvetica,sans-Serif" font-size="10.00">+ UGRD_10maboveground</text>
<text text-anchor="start" x="367" y="-1168.5" font-family="Helvetica,sans-Serif" font-size="10.00">_meters_per_second</text>
<text text-anchor="start" x="367" y="-1157.5" font-family="Helvetica,sans-Serif" font-size="10.00">+ VGRD_10maboveground</text>
<text text-anchor="start" x="367" y="-1146.5" font-family="Helvetica,sans-Serif" font-size="10.00">_meters_per_second</text>
<polyline fill="none" stroke="black" points="359,-1139.5 492,-1139.5 "/>
<text text-anchor="middle" x="425.5" y="-1127.5" font-family="Helvetica,sans-Serif" font-size="10.00"> </text>
</a>
</g>
</g>
<!-- Node9&#45;&gt;Node8 -->
<g id="edge8" class="edge">
<title>Node9&#45;&gt;Node8</title>
<path fill="none" stroke="#404040" d="M420.26,-1120.32C421.51,-1110.28 423.51,-1100.35 426.5,-1091 433.31,-1069.72 446.7,-1049.04 459.73,-1032.4"/>
<polygon fill="none" stroke="#404040" points="459.73,-1032.4 460.42,-1025.22 467.31,-1023.09 466.62,-1030.27 459.73,-1032.4"/>
<text text-anchor="middle" x="451" y="-1094" font-family="Helvetica,sans-Serif" font-size="10.00"> +elements</text>
</g>
<!-- Node10&#45;&gt;Node8 -->
<g id="edge9" class="edge">
<title>Node10&#45;&gt;Node8</title>
<path fill="none" stroke="orange" d="M645.71,-1183.72C626.44,-1160.51 600.87,-1129.56 578.5,-1102 556.88,-1075.37 532.48,-1044.74 515.39,-1023.18"/>
<polygon fill="orange" stroke="orange" points="643.16,-1186.14 652.24,-1191.59 648.55,-1181.66 643.16,-1186.14"/>
<text text-anchor="middle" x="614" y="-1094" font-family="Helvetica,sans-Serif" font-size="10.00"> &lt; AORC_data &gt;</text>
</g>
<!-- Node11 -->
<g id="node11" class="node">
<title>Node11</title>
<g id="a_node11"><a xlink:title=" ">
<polygon fill="white" stroke="#bfbfbf" points="577,-966 577,-1023 682,-1023 682,-966 577,-966"/>
<text text-anchor="middle" x="629.5" y="-1011" font-family="Helvetica,sans-Serif" font-size="10.00">std::vector&lt; time_t &gt;</text>
<polyline fill="none" stroke="#bfbfbf" points="577,-1004 682,-1004 "/>
<text text-anchor="start" x="585" y="-992" font-family="Helvetica,sans-Serif" font-size="10.00">+ elements</text>
<polyline fill="none" stroke="#bfbfbf" points="577,-985 682,-985 "/>
<text text-anchor="middle" x="629.5" y="-973" font-family="Helvetica,sans-Serif" font-size="10.00"> </text>
</a>
</g>
</g>
<!-- Node10&#45;&gt;Node11 -->
<g id="edge12" class="edge">
<title>Node10&#45;&gt;Node11</title>
<path fill="none" stroke="orange" d="M669.82,-1181.74C665.76,-1156.06 659.9,-1121.36 653.5,-1091 648.67,-1068.08 642.13,-1042.34 637.1,-1023.37"/>
<polygon fill="orange" stroke="orange" points="666.39,-1182.47 671.39,-1191.81 673.3,-1181.39 666.39,-1182.47"/>
<text text-anchor="middle" x="679.5" y="-1094" font-family="Helvetica,sans-Serif" font-size="10.00"> &lt; time_t &gt;</text>
</g>
<!-- Node15 -->
<g id="node15" class="node">
<title>Node15</title>
<g id="a_node15"><a xlink:title=" ">
<polygon fill="white" stroke="#bfbfbf" points="290.5,-966 290.5,-1023 410.5,-1023 410.5,-966 290.5,-966"/>
<text text-anchor="middle" x="350.5" y="-1011" font-family="Helvetica,sans-Serif" font-size="10.00">std::vector&lt; std::string &gt;</text>
<polyline fill="none" stroke="#bfbfbf" points="290.5,-1004 410.5,-1004 "/>
<text text-anchor="middle" x="350.5" y="-992" font-family="Helvetica,sans-Serif" font-size="10.00"> </text>
<polyline fill="none" stroke="#bfbfbf" points="290.5,-985 410.5,-985 "/>
<text text-anchor="middle" x="350.5" y="-973" font-family="Helvetica,sans-Serif" font-size="10.00"> </text>
</a>
</g>
</g>
<!-- Node10&#45;&gt;Node15 -->
<g id="edge19" class="edge">
<title>Node10&#45;&gt;Node15</title>
<path fill="none" stroke="orange" d="M630.3,-1185.59C591.01,-1157.32 531.71,-1117.53 475.5,-1091 451.86,-1079.84 441.41,-1087.27 419.5,-1073 399.57,-1060.02 381.85,-1039.83 369.36,-1023.3"/>
<polygon fill="orange" stroke="orange" points="628.71,-1188.76 638.86,-1191.79 632.82,-1183.09 628.71,-1188.76"/>
<text text-anchor="middle" x="524" y="-1094" font-family="Helvetica,sans-Serif" font-size="10.00"> &lt; std::string &gt;</text>
</g>
<!-- Node16 -->
<g id="node16" class="node">
<title>Node16</title>
<g id="a_node16"><a xlink:title=" ">
<polygon fill="white" stroke="#bfbfbf" points="700,-966 700,-1023 807,-1023 807,-966 700,-966"/>
<text text-anchor="middle" x="753.5" y="-1011" font-family="Helvetica,sans-Serif" font-size="10.00">std::vector&lt; double &gt;</text>
<polyline fill="none" stroke="#bfbfbf" points="700,-1004 807,-1004 "/>
<text text-anchor="start" x="708" y="-992" font-family="Helvetica,sans-Serif" font-size="10.00">+ elements</text>
<polyline fill="none" stroke="#bfbfbf" points="700,-985 807,-985 "/>
<text text-anchor="middle" x="753.5" y="-973" font-family="Helvetica,sans-Serif" font-size="10.00"> </text>
</a>
</g>
</g>
<!-- Node10&#45;&gt;Node16 -->
<g id="edge21" class="edge">
<title>Node10&#45;&gt;Node16</title>
<path fill="none" stroke="orange" d="M688.58,-1181.92C704.22,-1137.03 730,-1062.99 743.9,-1023.06"/>
<polygon fill="orange" stroke="orange" points="685.2,-1180.99 685.22,-1191.58 691.81,-1183.29 685.2,-1180.99"/>
<text text-anchor="middle" x="743.5" y="-1094" font-family="Helvetica,sans-Serif" font-size="10.00"> &lt; double &gt;</text>
</g>
<!-- Node11&#45;&gt;Node6 -->
<g id="edge11" class="edge">
<title>Node11&#45;&gt;Node6</title>
<path fill="none" stroke="#404040" d="M611.72,-965.79C600.7,-947.3 587.22,-922.06 579.5,-898 571.77,-873.92 565.34,-848.43 559.99,-822.72"/>
<polygon fill="none" stroke="#404040" points="559.98,-822.67 554.87,-817.57 557.61,-810.9 562.71,-815.99 559.98,-822.67"/>
<text text-anchor="middle" x="623.5" y="-861" font-family="Helvetica,sans-Serif" font-size="10.00"> &#45;time_epoch_vector</text>
</g>
<!-- Node12 -->
<g id="node12" class="node">
<title>Node12</title>
<g id="a_node12"><a xlink:title=" ">
<polygon fill="white" stroke="#bfbfbf" points="17,-1192 17,-1249 76,-1249 76,-1192 17,-1192"/>
<text text-anchor="middle" x="46.5" y="-1237" font-family="Helvetica,sans-Serif" font-size="10.00">std::string</text>
<polyline fill="none" stroke="#bfbfbf" points="17,-1230 76,-1230 "/>
<text text-anchor="middle" x="46.5" y="-1218" font-family="Helvetica,sans-Serif" font-size="10.00"> </text>
<polyline fill="none" stroke="#bfbfbf" points="17,-1211 76,-1211 "/>
<text text-anchor="middle" x="46.5" y="-1199" font-family="Helvetica,sans-Serif" font-size="10.00"> </text>
</a>
</g>
</g>
<!-- Node12&#45;&gt;Node1 -->
<g id="edge25" class="edge">
<title>Node12&#45;&gt;Node1</title>
<path fill="none" stroke="#404040" d="M37.08,-1191.94C23.62,-1150.03 0.5,-1067.56 0.5,-995.5 0.5,-995.5 0.5,-995.5 0.5,-167 0.5,-92.74 534.74,-52.53 738.14,-39.91"/>
<polygon fill="none" stroke="#404040" points="738.21,-39.9 743.95,-35.54 750.18,-39.17 744.44,-43.53 738.21,-39.9"/>
<text text-anchor="middle" x="7" y="-565" font-family="Helvetica,sans-Serif" font-size="10.00"> &#45;id</text>
</g>
<!-- Node12&#45;&gt;Node6 -->
<g id="edge13" class="edge">
<title>Node12&#45;&gt;Node6</title>
<path fill="none" stroke="#404040" d="M39.71,-1191.93C27.5,-1136.07 7.37,-1007.13 55.5,-916 139.78,-756.43 333.9,-652.08 447.14,-602.41"/>
<polygon fill="none" stroke="#404040" points="447.16,-602.4 451.08,-596.34 458.17,-597.63 454.26,-603.68 447.16,-602.4"/>
<text text-anchor="middle" x="96.5" y="-992" font-family="Helvetica,sans-Serif" font-size="10.00"> &#45;forcing_file_name</text>
</g>
<!-- Node12&#45;&gt;Node15 -->
<g id="edge18" class="edge">
<title>Node12&#45;&gt;Node15</title>
<path fill="none" stroke="#404040" d="M76.14,-1204.59C122.55,-1180.48 214.05,-1129.86 281.5,-1073 295.69,-1061.04 309.63,-1046.16 321.22,-1032.64"/>
<polygon fill="none" stroke="#404040" points="321.51,-1032.3 322.3,-1025.13 329.22,-1023.1 328.43,-1030.27 321.51,-1032.3"/>
<text text-anchor="middle" x="283" y="-1094" font-family="Helvetica,sans-Serif" font-size="10.00"> +elements</text>
</g>
<!-- Node13 -->
<g id="node13" class="node">
<title>Node13</title>
<g id="a_node13"><a xlink:title=" ">
<polygon fill="white" stroke="#bfbfbf" points="0,-1368.5 0,-1436.5 93,-1436.5 93,-1368.5 0,-1368.5"/>
<text text-anchor="start" x="8" y="-1424.5" font-family="Helvetica,sans-Serif" font-size="10.00">std::basic_string&lt;</text>
<text text-anchor="middle" x="46.5" y="-1413.5" font-family="Helvetica,sans-Serif" font-size="10.00"> Char &gt;</text>
<polyline fill="none" stroke="#bfbfbf" points="0,-1406.5 93,-1406.5 "/>
<text text-anchor="middle" x="46.5" y="-1394.5" font-family="Helvetica,sans-Serif" font-size="10.00"> </text>
<polyline fill="none" stroke="#bfbfbf" points="0,-1387.5 93,-1387.5 "/>
<text text-anchor="middle" x="46.5" y="-1375.5" font-family="Helvetica,sans-Serif" font-size="10.00"> </text>
</a>
</g>
</g>
<!-- Node13&#45;&gt;Node12 -->
<g id="edge14" class="edge">
<title>Node13&#45;&gt;Node12</title>
<path fill="none" stroke="midnightblue" d="M46.5,-1358.38C46.5,-1324.41 46.5,-1278.1 46.5,-1249"/>
<polygon fill="none" stroke="midnightblue" points="43,-1358.49 46.5,-1368.49 50,-1358.49 43,-1358.49"/>
</g>
<!-- Node14&#45;&gt;Node6 -->
<g id="edge15" class="edge">
<title>Node14&#45;&gt;Node6</title>
<path fill="none" stroke="#404040" d="M861.02,-960.07C852.02,-942.01 841.33,-919.14 833.5,-898 822.46,-868.17 831.22,-856.06 814.5,-829 808.22,-818.83 803.33,-819.07 794.5,-811 735.08,-756.66 668.6,-694.88 617.6,-647.27"/>
<polygon fill="none" stroke="#404040" points="617.36,-647.05 610.24,-645.87 608.59,-638.86 615.7,-640.03 617.36,-647.05"/>
<text text-anchor="middle" x="869" y="-866.5" font-family="Helvetica,sans-Serif" font-size="10.00"> &#45;end_date_time</text>
<text text-anchor="middle" x="869" y="-855.5" font-family="Helvetica,sans-Serif" font-size="10.00">&#45;start_date_time</text>
</g>
<!-- Node15&#45;&gt;Node6 -->
<g id="edge17" class="edge">
<title>Node15&#45;&gt;Node6</title>
<path fill="none" stroke="#404040" d="M357.52,-965.94C366.29,-932.86 382.47,-875.97 401.5,-829 416.46,-792.06 434.68,-753.23 452.75,-717.17"/>
<polygon fill="none" stroke="#404040" points="452.95,-716.79 452.08,-709.63 458.35,-706.08 459.22,-713.24 452.95,-716.79"/>
<text text-anchor="middle" x="443.5" y="-861" font-family="Helvetica,sans-Serif" font-size="10.00"> &#45;available_forcings</text>
</g>
<!-- Node16&#45;&gt;Node6 -->
<g id="edge20" class="edge">
<title>Node16&#45;&gt;Node6</title>
<path fill="none" stroke="#404040" d="M732.44,-965.83C719.1,-947.36 702.22,-922.12 690.5,-898 676.37,-868.93 680.04,-858.79 667.5,-829 651.74,-791.56 632.77,-752.13 614.13,-715.59"/>
<polygon fill="none" stroke="#404040" points="614.1,-715.54 607.81,-712.02 608.62,-704.86 614.92,-708.37 614.1,-715.54"/>
<text text-anchor="start" x="690.5" y="-866.5" font-family="Helvetica,sans-Serif" font-size="10.00"> &#45;precipitation_rate</text>
<text text-anchor="middle" x="752.5" y="-855.5" font-family="Helvetica,sans-Serif" font-size="10.00">_meters_per_second_vector</text>
</g>
<!-- Node17 -->
<g id="node17" class="node">
<title>Node17</title>
<g id="a_node17"><a xlink:href="class_g_m___object.html" target="_top" xlink:title=" ">
<polygon fill="white" stroke="black" points="916.5,-134 916.5,-202 1002.5,-202 1002.5,-134 916.5,-134"/>
<text text-anchor="middle" x="959.5" y="-190" font-family="Helvetica,sans-Serif" font-size="10.00">GM_Object</text>
<polyline fill="none" stroke="black" points="916.5,-183 1002.5,-183 "/>
<text text-anchor="middle" x="959.5" y="-171" font-family="Helvetica,sans-Serif" font-size="10.00"> </text>
<polyline fill="none" stroke="black" points="916.5,-164 1002.5,-164 "/>
<text text-anchor="start" x="924.5" y="-152" font-family="Helvetica,sans-Serif" font-size="10.00">+ GM_Object()</text>
<text text-anchor="start" x="924.5" y="-141" font-family="Helvetica,sans-Serif" font-size="10.00">+ ~GM_Object()</text>
</a>
</g>
</g>
<!-- Node17&#45;&gt;Node1 -->
<g id="edge22" class="edge">
<title>Node17&#45;&gt;Node1</title>
<path fill="none" stroke="midnightblue" d="M923.05,-126.41C916.38,-119.43 909.35,-112.39 902.5,-106 888.85,-93.28 873.2,-80.18 858.97,-68.78"/>
<polygon fill="none" stroke="midnightblue" points="920.72,-129.04 930.13,-133.9 925.81,-124.23 920.72,-129.04"/>
</g>
<!-- Node18&#45;&gt;Node1 -->
<g id="edge23" class="edge">
<title>Node18&#45;&gt;Node1</title>
<path fill="none" stroke="#404040" d="M934.22,-270.57C904.96,-264.69 873.25,-252.99 852.5,-230 833.13,-208.54 823.24,-131.28 818.73,-80.83"/>
<polygon fill="none" stroke="#404040" points="818.71,-80.59 814.22,-74.95 817.7,-68.63 822.19,-74.28 818.71,-80.59"/>
<text text-anchor="middle" x="880" y="-165.5" font-family="Helvetica,sans-Serif" font-size="10.00"> &#45;divide_path</text>
</g>
</g>
</svg>
        <g id="navigator" transform="translate(0 0)" fill="#404254">
                <rect fill="#f2f5e9" fill-opacity="0.5" stroke="#606060" stroke-width=".5" x="0" y="0" width="60" height="60"/>
                <use id="zoomplus" xlink:href="#zoomPlus" x="17" y="9" onmousedown="handleZoom(evt,'in')"/>
                <use id="zoomminus" xlink:href="#zoomMin" x="42" y="9" onmousedown="handleZoom(evt,'out')"/>
                <use id="reset" xlink:href="#resetDef" x="30" y="36" onmousedown="handleReset()"/>
                <g id="arrowUp" xlink:href="#dirArrow" transform="translate(30 24)" onmousedown="handlePan(0,-1)">
                  <use xlink:href="#rim" fill="#404040">
                        <set attributeName="fill" to="#808080" begin="arrowUp.mouseover" end="arrowUp.mouseout"/>
                  </use>
                  <path fill="none" stroke="white" stroke-width="1.5" d="M0,-3.0v7 M-2.5,-0.5L0,-3.0L2.5,-0.5"/>
                </g>
                <g id="arrowRight" xlink:href="#dirArrow" transform="rotate(90) translate(36 -43)" onmousedown="handlePan(1,0)">
                  <use xlink:href="#rim" fill="#404040">
                        <set attributeName="fill" to="#808080" begin="arrowRight.mouseover" end="arrowRight.mouseout"/>
                  </use>
                  <path fill="none" stroke="white" stroke-width="1.5" d="M0,-3.0v7 M-2.5,-0.5L0,-3.0L2.5,-0.5"/>
                </g>
                <g id="arrowDown" xlink:href="#dirArrow" transform="rotate(180) translate(-30 -48)" onmousedown="handlePan(0,1)">
                  <use xlink:href="#rim" fill="#404040">
                        <set attributeName="fill" to="#808080" begin="arrowDown.mouseover" end="arrowDown.mouseout"/>
                  </use>
                  <path fill="none" stroke="white" stroke-width="1.5" d="M0,-3.0v7 M-2.5,-0.5L0,-3.0L2.5,-0.5"/>
                </g>
                <g id="arrowLeft" xlink:href="#dirArrow" transform="rotate(270) translate(-36 17)" onmousedown="handlePan(-1,0)">
                  <use xlink:href="#rim" fill="#404040">
                        <set attributeName="fill" to="#808080" begin="arrowLeft.mouseover" end="arrowLeft.mouseout"/>
                  </use>
                  <path fill="none" stroke="white" stroke-width="1.5" d="M0,-3.0v7 M-2.5,-0.5L0,-3.0L2.5,-0.5"/>
                </g>
        </g>
        <svg viewBox="0 0 15 15" width="100%" height="30px" preserveAspectRatio="xMaxYMin meet">
         <g id="arrow_out" transform="scale(0.3 0.3)">
          <a xlink:href="class_h_y___catchment_divide__coll__graph_org.svg" target="_base">
           <rect id="button" ry="5" rx="5" y="6" x="6" height="38" width="38"
                fill="#f2f5e9" fill-opacity="0.5" stroke="#606060" stroke-width="1.0"/>
           <path id="arrow"
             d="M 11.500037,31.436501 C 11.940474,20.09759 22.043105,11.32322 32.158766,21.979434 L 37.068811,17.246167 C 37.068811,17.246167 37.088388,32 37.088388,32 L 22.160133,31.978069 C 22.160133,31.978069 26.997745,27.140456 26.997745,27.140456 C 18.528582,18.264221 13.291696,25.230495 11.500037,31.436501 z"
             style="fill:#404040;"/>
          </a>
         </g>
        </svg>
</svg>
