<?xml version="1.0" encoding="UTF-8" standalone="no"?>
<!DOCTYPE svg PUBLIC "-//W3C//DTD SVG 1.1//EN"
 "http://www.w3.org/Graphics/SVG/1.1/DTD/svg11.dtd">
<!-- Generated by graphviz version 2.49.3 (20211027.1534)
 -->
<!-- Title: models::bmi::AbstractCLibBmiAdapter&lt; C &gt; Pages: 1 -->
<!--zoomable 1473 -->
<svg id="main" version="1.1" xmlns="http://www.w3.org/2000/svg" xmlns:xlink="http://www.w3.org/1999/xlink" xml:space="preserve" onload="init(evt)">
<style type="text/css"><![CDATA[
.edge:hover path { stroke: red; }
.edge:hover polygon { stroke: red; fill: red; }
]]></style>
<script type="text/javascript"><![CDATA[
var edges = document.getElementsByTagName('g');
if (edges && edges.length) {
  for (var i=0;i<edges.length;i++) {
    if (edges[i].id.substr(0,4)=='edge') {
      edges[i].setAttribute('class','edge');
    }
  }
}
]]></script>
        <defs>
                <circle id="rim" cx="0" cy="0" r="7"/>
                <circle id="rim2" cx="0" cy="0" r="3.5"/>
                <g id="zoomPlus">
                        <use xlink:href="#rim" fill="#404040">
                                <set attributeName="fill" to="#808080" begin="zoomplus.mouseover" end="zoomplus.mouseout"/>
                        </use>
                        <path d="M-4,0h8M0,-4v8" fill="none" stroke="white" stroke-width="1.5" pointer-events="none"/>
                </g>
                <g id="zoomMin">
                        <use xlink:href="#rim" fill="#404040">
                                <set attributeName="fill" to="#808080" begin="zoomminus.mouseover" end="zoomminus.mouseout"/>
                        </use>
                        <path d="M-4,0h8" fill="none" stroke="white" stroke-width="1.5" pointer-events="none"/>
                </g>
                <g id="dirArrow">
                        <path fill="none" stroke="white" stroke-width="1.5" d="M0,-3.0v7 M-2.5,-0.5L0,-3.0L2.5,-0.5"/>
                </g>
               <g id="resetDef">
                       <use xlink:href="#rim2" fill="#404040">
                               <set attributeName="fill" to="#808080" begin="reset.mouseover" end="reset.mouseout"/>
                       </use>
               </g>
        </defs>

<script type="text/javascript">
var viewWidth = 478;
var viewHeight = 1473;
var sectionId = 'dynsection-1';
</script>
<script xlink:href="svgpan.js"/>
<svg id="graph" class="graph">
<g id="viewport">
<title>models::bmi::AbstractCLibBmiAdapter&lt; C &gt;</title>
<polygon fill="white" stroke="transparent" points="-4,4 -4,-1469 474,-1469 474,4 -4,4"/>
<!-- Node1 -->
<g id="node1" class="node">
<title>Node1</title>
<g id="a_node1"><a xlink:title=" ">
<polygon fill="#bfbfbf" stroke="black" points="209,-0.5 209,-178.5 353,-178.5 353,-0.5 209,-0.5"/>
<text text-anchor="start" x="217" y="-166.5" font-family="Helvetica,sans-Serif" font-size="10.00">models::bmi::AbstractCLib</text>
<text text-anchor="middle" x="281" y="-155.5" font-family="Helvetica,sans-Serif" font-size="10.00">BmiAdapter&lt; C &gt;</text>
<polyline fill="none" stroke="black" points="209,-148.5 353,-148.5 "/>
<text text-anchor="start" x="217" y="-136.5" font-family="Helvetica,sans-Serif" font-size="10.00">&#45; dyn_lib_handle</text>
<polyline fill="none" stroke="black" points="209,-129.5 353,-129.5 "/>
<text text-anchor="start" x="217" y="-117.5" font-family="Helvetica,sans-Serif" font-size="10.00">+ AbstractCLibBmiAdapter()</text>
<text text-anchor="start" x="217" y="-106.5" font-family="Helvetica,sans-Serif" font-size="10.00">+ AbstractCLibBmiAdapter()</text>
<text text-anchor="start" x="217" y="-95.5" font-family="Helvetica,sans-Serif" font-size="10.00">+ ~AbstractCLibBmiAdapter()</text>
<text text-anchor="start" x="217" y="-84.5" font-family="Helvetica,sans-Serif" font-size="10.00">+ Finalize()</text>
<text text-anchor="start" x="217" y="-73.5" font-family="Helvetica,sans-Serif" font-size="10.00"># dynamic_library_load()</text>
<text text-anchor="start" x="217" y="-62.5" font-family="Helvetica,sans-Serif" font-size="10.00"># dynamic_load_symbol()</text>
<text text-anchor="start" x="217" y="-51.5" font-family="Helvetica,sans-Serif" font-size="10.00"># dynamic_load_symbol()</text>
<text text-anchor="start" x="217" y="-40.5" font-family="Helvetica,sans-Serif" font-size="10.00"># get_bmi_registration</text>
<text text-anchor="start" x="217" y="-29.5" font-family="Helvetica,sans-Serif" font-size="10.00">_function()</text>
<text text-anchor="start" x="217" y="-18.5" font-family="Helvetica,sans-Serif" font-size="10.00"># get_dyn_lib_handle()</text>
<text text-anchor="start" x="217" y="-7.5" font-family="Helvetica,sans-Serif" font-size="10.00">&#45; finalizeForLibAbstraction()</text>
</a>
</g>
</g>
<!-- Node2 -->
<g id="node2" class="node">
<title>Node2</title>
<g id="a_node2"><a xlink:href="classmodels_1_1bmi_1_1_bmi___adapter.html" target="_top" xlink:title=" ">
<polygon fill="white" stroke="black" points="89,-216.5 89,-603.5 241,-603.5 241,-216.5 89,-216.5"/>
<text text-anchor="middle" x="165" y="-591.5" font-family="Helvetica,sans-Serif" font-size="10.00">models::bmi::Bmi_Adapter&lt; C &gt;</text>
<polyline fill="none" stroke="black" points="89,-584.5 241,-584.5 "/>
<text text-anchor="start" x="97" y="-572.5" font-family="Helvetica,sans-Serif" font-size="10.00"># allow_model_exceed</text>
<text text-anchor="start" x="97" y="-561.5" font-family="Helvetica,sans-Serif" font-size="10.00">_end_time</text>
<text text-anchor="start" x="97" y="-550.5" font-family="Helvetica,sans-Serif" font-size="10.00"># bmi_init_config</text>
<text text-anchor="start" x="97" y="-539.5" font-family="Helvetica,sans-Serif" font-size="10.00"># bmi_model</text>
<text text-anchor="start" x="97" y="-528.5" font-family="Helvetica,sans-Serif" font-size="10.00"># bmi_model_has_fixed</text>
<text text-anchor="start" x="97" y="-517.5" font-family="Helvetica,sans-Serif" font-size="10.00">_time_step</text>
<text text-anchor="start" x="97" y="-506.5" font-family="Helvetica,sans-Serif" font-size="10.00"># bmi_model_time_convert</text>
<text text-anchor="start" x="97" y="-495.5" font-family="Helvetica,sans-Serif" font-size="10.00">_factor</text>
<text text-anchor="start" x="97" y="-484.5" font-family="Helvetica,sans-Serif" font-size="10.00"># bmi_model_time_step_size</text>
<text text-anchor="start" x="97" y="-473.5" font-family="Helvetica,sans-Serif" font-size="10.00"># bmi_model_uses_forcing_file</text>
<text text-anchor="start" x="97" y="-462.5" font-family="Helvetica,sans-Serif" font-size="10.00"># forcing_file_path</text>
<text text-anchor="start" x="97" y="-451.5" font-family="Helvetica,sans-Serif" font-size="10.00"># init_exception_msg</text>
<text text-anchor="start" x="97" y="-440.5" font-family="Helvetica,sans-Serif" font-size="10.00"># input_var_names</text>
<text text-anchor="start" x="97" y="-429.5" font-family="Helvetica,sans-Serif" font-size="10.00"># model_initialized</text>
<text text-anchor="start" x="97" y="-418.5" font-family="Helvetica,sans-Serif" font-size="10.00"># model_name</text>
<text text-anchor="start" x="97" y="-407.5" font-family="Helvetica,sans-Serif" font-size="10.00"># output</text>
<text text-anchor="start" x="97" y="-396.5" font-family="Helvetica,sans-Serif" font-size="10.00"># output_var_names</text>
<polyline fill="none" stroke="black" points="89,-389.5 241,-389.5 "/>
<text text-anchor="start" x="97" y="-377.5" font-family="Helvetica,sans-Serif" font-size="10.00">+ Bmi_Adapter()</text>
<text text-anchor="start" x="97" y="-366.5" font-family="Helvetica,sans-Serif" font-size="10.00">+ Bmi_Adapter()</text>
<text text-anchor="start" x="97" y="-355.5" font-family="Helvetica,sans-Serif" font-size="10.00">+ Bmi_Adapter()</text>
<text text-anchor="start" x="97" y="-344.5" font-family="Helvetica,sans-Serif" font-size="10.00">+ acquire_time_conversion</text>
<text text-anchor="start" x="97" y="-333.5" font-family="Helvetica,sans-Serif" font-size="10.00">_factor()</text>
<text text-anchor="start" x="97" y="-322.5" font-family="Helvetica,sans-Serif" font-size="10.00">+ convert_model_time</text>
<text text-anchor="start" x="97" y="-311.5" font-family="Helvetica,sans-Serif" font-size="10.00">_to_seconds()</text>
<text text-anchor="start" x="97" y="-300.5" font-family="Helvetica,sans-Serif" font-size="10.00">+ convert_seconds_to</text>
<text text-anchor="start" x="97" y="-289.5" font-family="Helvetica,sans-Serif" font-size="10.00">_model_time()</text>
<text text-anchor="start" x="97" y="-278.5" font-family="Helvetica,sans-Serif" font-size="10.00">+ get_analogous_cxx_type()</text>
<text text-anchor="start" x="97" y="-267.5" font-family="Helvetica,sans-Serif" font-size="10.00">+ Initialize()</text>
<text text-anchor="start" x="97" y="-256.5" font-family="Helvetica,sans-Serif" font-size="10.00">+ Initialize()</text>
<text text-anchor="start" x="97" y="-245.5" font-family="Helvetica,sans-Serif" font-size="10.00">+ isInitialized()</text>
<text text-anchor="start" x="97" y="-234.5" font-family="Helvetica,sans-Serif" font-size="10.00"># construct_and_init</text>
<text text-anchor="start" x="97" y="-223.5" font-family="Helvetica,sans-Serif" font-size="10.00">_backing_model()</text>
</a>
</g>
</g>
<!-- Node2&#45;&gt;Node1 -->
<g id="edge1" class="edge">
<title>Node2&#45;&gt;Node1</title>
<path fill="none" stroke="midnightblue" d="M238.67,-206.72C242.17,-197.12 245.58,-187.75 248.85,-178.76"/>
<polygon fill="none" stroke="midnightblue" points="235.29,-205.79 235.15,-216.38 241.86,-208.18 235.29,-205.79"/>
</g>
<!-- Node3 -->
<g id="node3" class="node">
<title>Node3</title>
<g id="a_node3"><a xlink:href="classbmi_1_1_bmi.html" target="_top" xlink:title=" ">
<polygon fill="white" stroke="black" points="0,-1031.5 0,-1253.5 122,-1253.5 122,-1031.5 0,-1031.5"/>
<text text-anchor="middle" x="61" y="-1241.5" font-family="Helvetica,sans-Serif" font-size="10.00">bmi::Bmi</text>
<polyline fill="none" stroke="black" points="0,-1234.5 122,-1234.5 "/>
<text text-anchor="middle" x="61" y="-1222.5" font-family="Helvetica,sans-Serif" font-size="10.00"> </text>
<polyline fill="none" stroke="black" points="0,-1215.5 122,-1215.5 "/>
<text text-anchor="start" x="8" y="-1203.5" font-family="Helvetica,sans-Serif" font-size="10.00">+ Initialize()</text>
<text text-anchor="start" x="8" y="-1192.5" font-family="Helvetica,sans-Serif" font-size="10.00">+ Update()</text>
<text text-anchor="start" x="8" y="-1181.5" font-family="Helvetica,sans-Serif" font-size="10.00">+ UpdateUntil()</text>
<text text-anchor="start" x="8" y="-1170.5" font-family="Helvetica,sans-Serif" font-size="10.00">+ Finalize()</text>
<text text-anchor="start" x="8" y="-1159.5" font-family="Helvetica,sans-Serif" font-size="10.00">+ GetComponentName()</text>
<text text-anchor="start" x="8" y="-1148.5" font-family="Helvetica,sans-Serif" font-size="10.00">+ GetInputItemCount()</text>
<text text-anchor="start" x="8" y="-1137.5" font-family="Helvetica,sans-Serif" font-size="10.00">+ GetOutputItemCount()</text>
<text text-anchor="start" x="8" y="-1126.5" font-family="Helvetica,sans-Serif" font-size="10.00">+ GetInputVarNames()</text>
<text text-anchor="start" x="8" y="-1115.5" font-family="Helvetica,sans-Serif" font-size="10.00">+ GetOutputVarNames()</text>
<text text-anchor="start" x="8" y="-1104.5" font-family="Helvetica,sans-Serif" font-size="10.00">+ GetVarGrid()</text>
<text text-anchor="start" x="8" y="-1093.5" font-family="Helvetica,sans-Serif" font-size="10.00">+ GetVarType()</text>
<text text-anchor="start" x="8" y="-1082.5" font-family="Helvetica,sans-Serif" font-size="10.00">+ GetVarUnits()</text>
<text text-anchor="start" x="8" y="-1071.5" font-family="Helvetica,sans-Serif" font-size="10.00">+ GetVarItemsize()</text>
<text text-anchor="start" x="8" y="-1060.5" font-family="Helvetica,sans-Serif" font-size="10.00">+ GetVarNbytes()</text>
<text text-anchor="start" x="8" y="-1049.5" font-family="Helvetica,sans-Serif" font-size="10.00">+ GetVarLocation()</text>
<text text-anchor="start" x="8" y="-1038.5" font-family="Helvetica,sans-Serif" font-size="10.00">and 26 more...</text>
</a>
</g>
</g>
<!-- Node3&#45;&gt;Node2 -->
<g id="edge2" class="edge">
<title>Node3&#45;&gt;Node2</title>
<path fill="none" stroke="midnightblue" d="M55.64,-1021.19C53.57,-921.18 56.09,-775.61 80,-651 82.98,-635.48 86.78,-619.62 91.12,-603.8"/>
<polygon fill="none" stroke="midnightblue" points="52.14,-1021.41 55.87,-1031.33 59.14,-1021.25 52.14,-1021.41"/>
</g>
<!-- Node4 -->
<g id="node4" class="node">
<title>Node4</title>
<g id="a_node4"><a xlink:href="classmodels_1_1bmi_1_1_bmi___adapter.html" target="_top" xlink:title="Abstract adapter interface for C++ classes to interact with the essential aspects of external models ...">
<polygon fill="white" stroke="black" points="89,-651.5 89,-983.5 241,-983.5 241,-651.5 89,-651.5"/>
<text text-anchor="middle" x="165" y="-971.5" font-family="Helvetica,sans-Serif" font-size="10.00">models::bmi::Bmi_Adapter&lt; T &gt;</text>
<polyline fill="none" stroke="black" points="89,-964.5 241,-964.5 "/>
<text text-anchor="start" x="97" y="-952.5" font-family="Helvetica,sans-Serif" font-size="10.00"># allow_model_exceed</text>
<text text-anchor="start" x="97" y="-941.5" font-family="Helvetica,sans-Serif" font-size="10.00">_end_time</text>
<text text-anchor="start" x="97" y="-930.5" font-family="Helvetica,sans-Serif" font-size="10.00"># bmi_model</text>
<text text-anchor="start" x="97" y="-919.5" font-family="Helvetica,sans-Serif" font-size="10.00"># bmi_model_has_fixed</text>
<text text-anchor="start" x="97" y="-908.5" font-family="Helvetica,sans-Serif" font-size="10.00">_time_step</text>
<text text-anchor="start" x="97" y="-897.5" font-family="Helvetica,sans-Serif" font-size="10.00"># bmi_model_time_convert</text>
<text text-anchor="start" x="97" y="-886.5" font-family="Helvetica,sans-Serif" font-size="10.00">_factor</text>
<text text-anchor="start" x="97" y="-875.5" font-family="Helvetica,sans-Serif" font-size="10.00"># bmi_model_time_step_size</text>
<text text-anchor="start" x="97" y="-864.5" font-family="Helvetica,sans-Serif" font-size="10.00"># bmi_model_uses_forcing_file</text>
<text text-anchor="start" x="97" y="-853.5" font-family="Helvetica,sans-Serif" font-size="10.00"># input_var_names</text>
<text text-anchor="start" x="97" y="-842.5" font-family="Helvetica,sans-Serif" font-size="10.00"># model_initialized</text>
<text text-anchor="start" x="97" y="-831.5" font-family="Helvetica,sans-Serif" font-size="10.00"># output_var_names</text>
<polyline fill="none" stroke="black" points="89,-824.5 241,-824.5 "/>
<text text-anchor="start" x="97" y="-812.5" font-family="Helvetica,sans-Serif" font-size="10.00">+ Bmi_Adapter()</text>
<text text-anchor="start" x="97" y="-801.5" font-family="Helvetica,sans-Serif" font-size="10.00">+ Bmi_Adapter()</text>
<text text-anchor="start" x="97" y="-790.5" font-family="Helvetica,sans-Serif" font-size="10.00">+ Bmi_Adapter()</text>
<text text-anchor="start" x="97" y="-779.5" font-family="Helvetica,sans-Serif" font-size="10.00">+ acquire_time_conversion</text>
<text text-anchor="start" x="97" y="-768.5" font-family="Helvetica,sans-Serif" font-size="10.00">_factor()</text>
<text text-anchor="start" x="97" y="-757.5" font-family="Helvetica,sans-Serif" font-size="10.00">+ convert_model_time</text>
<text text-anchor="start" x="97" y="-746.5" font-family="Helvetica,sans-Serif" font-size="10.00">_to_seconds()</text>
<text text-anchor="start" x="97" y="-735.5" font-family="Helvetica,sans-Serif" font-size="10.00">+ convert_seconds_to</text>
<text text-anchor="start" x="97" y="-724.5" font-family="Helvetica,sans-Serif" font-size="10.00">_model_time()</text>
<text text-anchor="start" x="97" y="-713.5" font-family="Helvetica,sans-Serif" font-size="10.00">+ get_analogous_cxx_type()</text>
<text text-anchor="start" x="97" y="-702.5" font-family="Helvetica,sans-Serif" font-size="10.00">+ Initialize()</text>
<text text-anchor="start" x="97" y="-691.5" font-family="Helvetica,sans-Serif" font-size="10.00">+ Initialize()</text>
<text text-anchor="start" x="97" y="-680.5" font-family="Helvetica,sans-Serif" font-size="10.00">+ isInitialized()</text>
<text text-anchor="start" x="97" y="-669.5" font-family="Helvetica,sans-Serif" font-size="10.00"># construct_and_init</text>
<text text-anchor="start" x="97" y="-658.5" font-family="Helvetica,sans-Serif" font-size="10.00">_backing_model()</text>
</a>
</g>
</g>
<!-- Node3&#45;&gt;Node4 -->
<g id="edge4" class="edge">
<title>Node3&#45;&gt;Node4</title>
<path fill="none" stroke="midnightblue" d="M99.66,-1021.44C103.62,-1009.12 107.7,-996.46 111.79,-983.76"/>
<polygon fill="none" stroke="midnightblue" points="96.23,-1020.65 96.5,-1031.25 102.9,-1022.8 96.23,-1020.65"/>
</g>
<!-- Node4&#45;&gt;Node2 -->
<g id="edge3" class="edge">
<title>Node4&#45;&gt;Node2</title>
<path fill="none" stroke="orange" d="M165,-640.95C165,-628.62 165,-616.15 165,-603.73"/>
<polygon fill="orange" stroke="orange" points="161.5,-641.28 165,-651.28 168.5,-641.28 161.5,-641.28"/>
<text text-anchor="middle" x="178" y="-625" font-family="Helvetica,sans-Serif" font-size="10.00"> &lt; C &gt;</text>
</g>
<!-- Node5 -->
<g id="node5" class="node">
<title>Node5</title>
<g id="a_node5"><a xlink:title=" ">
<polygon fill="white" stroke="#bfbfbf" points="287.5,-1301.5 287.5,-1358.5 346.5,-1358.5 346.5,-1301.5 287.5,-1301.5"/>
<text text-anchor="middle" x="317" y="-1346.5" font-family="Helvetica,sans-Serif" font-size="10.00">std::string</text>
<polyline fill="none" stroke="#bfbfbf" points="287.5,-1339.5 346.5,-1339.5 "/>
<text text-anchor="middle" x="317" y="-1327.5" font-family="Helvetica,sans-Serif" font-size="10.00"> </text>
<polyline fill="none" stroke="#bfbfbf" points="287.5,-1320.5 346.5,-1320.5 "/>
<text text-anchor="middle" x="317" y="-1308.5" font-family="Helvetica,sans-Serif" font-size="10.00"> </text>
</a>
</g>
</g>
<!-- Node5&#45;&gt;Node1 -->
<g id="edge9" class="edge">
<title>Node5&#45;&gt;Node1</title>
<path fill="none" stroke="#404040" d="M345.18,-1301.45C357.12,-1288.2 370.08,-1271.42 378,-1254 398.62,-1208.63 397,-1193.33 397,-1143.5 397,-1143.5 397,-1143.5 397,-409 397,-332.11 366.78,-250.74 337.2,-189.5"/>
<polygon fill="none" stroke="#404040" points="337.18,-189.46 330.94,-185.84 331.88,-178.69 338.12,-182.31 337.18,-189.46"/>
<text text-anchor="middle" x="433.5" y="-826" font-family="Helvetica,sans-Serif" font-size="10.00"> &#45;bmi_lib_file</text>
<text text-anchor="start" x="397" y="-815" font-family="Helvetica,sans-Serif" font-size="10.00">&#45;bmi_registration</text>
<text text-anchor="middle" x="433.5" y="-804" font-family="Helvetica,sans-Serif" font-size="10.00">_function</text>
</g>
<!-- Node5&#45;&gt;Node4 -->
<g id="edge5" class="edge">
<title>Node5&#45;&gt;Node4</title>
<path fill="none" stroke="#404040" d="M287.37,-1323.74C251.71,-1315.66 193.35,-1296.42 167,-1254 140.64,-1211.57 140.96,-1096.93 147.44,-995.92"/>
<polygon fill="none" stroke="#404040" points="147.46,-995.64 143.87,-989.39 148.26,-983.67 151.85,-989.92 147.46,-995.64"/>
<text text-anchor="middle" x="211.5" y="-1156.5" font-family="Helvetica,sans-Serif" font-size="10.00"> #bmi_init_config</text>
<text text-anchor="middle" x="211.5" y="-1145.5" font-family="Helvetica,sans-Serif" font-size="10.00">#forcing_file_path</text>
<text text-anchor="middle" x="211.5" y="-1134.5" font-family="Helvetica,sans-Serif" font-size="10.00">#init_exception_msg</text>
<text text-anchor="middle" x="211.5" y="-1123.5" font-family="Helvetica,sans-Serif" font-size="10.00">#model_name</text>
</g>
<!-- Node7 -->
<g id="node7" class="node">
<title>Node7</title>
<g id="a_node7"><a xlink:href="classutils_1_1_stream_handler.html" target="_top" xlink:title="This class provides a copyable interface to a std::ostream or std::ostream like object that may not s...">
<polygon fill="white" stroke="black" points="265,-1064.5 265,-1220.5 369,-1220.5 369,-1064.5 265,-1064.5"/>
<text text-anchor="middle" x="317" y="-1208.5" font-family="Helvetica,sans-Serif" font-size="10.00">utils::StreamHandler</text>
<polyline fill="none" stroke="black" points="265,-1201.5 369,-1201.5 "/>
<text text-anchor="start" x="273" y="-1189.5" font-family="Helvetica,sans-Serif" font-size="10.00"># output_stream</text>
<polyline fill="none" stroke="black" points="265,-1182.5 369,-1182.5 "/>
<text text-anchor="start" x="273" y="-1170.5" font-family="Helvetica,sans-Serif" font-size="10.00">+ StreamHandler()</text>
<text text-anchor="start" x="273" y="-1159.5" font-family="Helvetica,sans-Serif" font-size="10.00">+ StreamHandler()</text>
<text text-anchor="start" x="273" y="-1148.5" font-family="Helvetica,sans-Serif" font-size="10.00">+ StreamHandler()</text>
<text text-anchor="start" x="273" y="-1137.5" font-family="Helvetica,sans-Serif" font-size="10.00">+ StreamHandler()</text>
<text text-anchor="start" x="273" y="-1126.5" font-family="Helvetica,sans-Serif" font-size="10.00">+ ~StreamHandler()</text>
<text text-anchor="start" x="273" y="-1115.5" font-family="Helvetica,sans-Serif" font-size="10.00">+ operator=()</text>
<text text-anchor="start" x="273" y="-1104.5" font-family="Helvetica,sans-Serif" font-size="10.00">+ put()</text>
<text text-anchor="start" x="273" y="-1093.5" font-family="Helvetica,sans-Serif" font-size="10.00">+ put_indexed()</text>
<text text-anchor="start" x="273" y="-1082.5" font-family="Helvetica,sans-Serif" font-size="10.00">+ put_var()</text>
<text text-anchor="start" x="273" y="-1071.5" font-family="Helvetica,sans-Serif" font-size="10.00">+ operator&lt;&lt;()</text>
</a>
</g>
</g>
<!-- Node5&#45;&gt;Node7 -->
<g id="edge8" class="edge">
<title>Node5&#45;&gt;Node7</title>
<path fill="none" stroke="#404040" d="M317,-1301.23C317,-1282.9 317,-1257.77 317,-1232.96"/>
<polygon fill="none" stroke="#404040" points="317,-1232.83 313,-1226.83 317,-1220.83 321,-1226.83 317,-1232.83"/>
<text text-anchor="middle" x="329" y="-1275" font-family="Helvetica,sans-Serif" font-size="10.00"> #sep</text>
</g>
<!-- Node6 -->
<g id="node6" class="node">
<title>Node6</title>
<g id="a_node6"><a xlink:title=" ">
<polygon fill="white" stroke="#bfbfbf" points="270.5,-1396.5 270.5,-1464.5 363.5,-1464.5 363.5,-1396.5 270.5,-1396.5"/>
<text text-anchor="start" x="278.5" y="-1452.5" font-family="Helvetica,sans-Serif" font-size="10.00">std::basic_string&lt;</text>
<text text-anchor="middle" x="317" y="-1441.5" font-family="Helvetica,sans-Serif" font-size="10.00"> Char &gt;</text>
<polyline fill="none" stroke="#bfbfbf" points="270.5,-1434.5 363.5,-1434.5 "/>
<text text-anchor="middle" x="317" y="-1422.5" font-family="Helvetica,sans-Serif" font-size="10.00"> </text>
<polyline fill="none" stroke="#bfbfbf" points="270.5,-1415.5 363.5,-1415.5 "/>
<text text-anchor="middle" x="317" y="-1403.5" font-family="Helvetica,sans-Serif" font-size="10.00"> </text>
</a>
</g>
</g>
<!-- Node6&#45;&gt;Node5 -->
<g id="edge6" class="edge">
<title>Node6&#45;&gt;Node5</title>
<path fill="none" stroke="midnightblue" d="M317,-1386.38C317,-1376.94 317,-1367.2 317,-1358.57"/>
<polygon fill="none" stroke="midnightblue" points="313.5,-1386.43 317,-1396.43 320.5,-1386.43 313.5,-1386.43"/>
</g>
<!-- Node7&#45;&gt;Node4 -->
<g id="edge7" class="edge">
<title>Node7&#45;&gt;Node4</title>
<path fill="none" stroke="#404040" d="M280.59,-1064.13C270.14,-1041.92 258.3,-1016.77 246.29,-991.24"/>
<polygon fill="none" stroke="#404040" points="246.24,-991.14 240.07,-987.41 241.13,-980.28 247.31,-984.01 246.24,-991.14"/>
<text text-anchor="middle" x="271.5" y="-1005" font-family="Helvetica,sans-Serif" font-size="10.00"> #output</text>
</g>
</g>
</svg>
        <g id="navigator" transform="translate(0 0)" fill="#404254">
                <rect fill="#f2f5e9" fill-opacity="0.5" stroke="#606060" stroke-width=".5" x="0" y="0" width="60" height="60"/>
                <use id="zoomplus" xlink:href="#zoomPlus" x="17" y="9" onmousedown="handleZoom(evt,'in')"/>
                <use id="zoomminus" xlink:href="#zoomMin" x="42" y="9" onmousedown="handleZoom(evt,'out')"/>
                <use id="reset" xlink:href="#resetDef" x="30" y="36" onmousedown="handleReset()"/>
                <g id="arrowUp" xlink:href="#dirArrow" transform="translate(30 24)" onmousedown="handlePan(0,-1)">
                  <use xlink:href="#rim" fill="#404040">
                        <set attributeName="fill" to="#808080" begin="arrowUp.mouseover" end="arrowUp.mouseout"/>
                  </use>
                  <path fill="none" stroke="white" stroke-width="1.5" d="M0,-3.0v7 M-2.5,-0.5L0,-3.0L2.5,-0.5"/>
                </g>
                <g id="arrowRight" xlink:href="#dirArrow" transform="rotate(90) translate(36 -43)" onmousedown="handlePan(1,0)">
                  <use xlink:href="#rim" fill="#404040">
                        <set attributeName="fill" to="#808080" begin="arrowRight.mouseover" end="arrowRight.mouseout"/>
                  </use>
                  <path fill="none" stroke="white" stroke-width="1.5" d="M0,-3.0v7 M-2.5,-0.5L0,-3.0L2.5,-0.5"/>
                </g>
                <g id="arrowDown" xlink:href="#dirArrow" transform="rotate(180) translate(-30 -48)" onmousedown="handlePan(0,1)">
                  <use xlink:href="#rim" fill="#404040">
                        <set attributeName="fill" to="#808080" begin="arrowDown.mouseover" end="arrowDown.mouseout"/>
                  </use>
                  <path fill="none" stroke="white" stroke-width="1.5" d="M0,-3.0v7 M-2.5,-0.5L0,-3.0L2.5,-0.5"/>
                </g>
                <g id="arrowLeft" xlink:href="#dirArrow" transform="rotate(270) translate(-36 17)" onmousedown="handlePan(-1,0)">
                  <use xlink:href="#rim" fill="#404040">
                        <set attributeName="fill" to="#808080" begin="arrowLeft.mouseover" end="arrowLeft.mouseout"/>
                  </use>
                  <path fill="none" stroke="white" stroke-width="1.5" d="M0,-3.0v7 M-2.5,-0.5L0,-3.0L2.5,-0.5"/>
                </g>
        </g>
        <svg viewBox="0 0 15 15" width="100%" height="30px" preserveAspectRatio="xMaxYMin meet">
         <g id="arrow_out" transform="scale(0.3 0.3)">
          <a xlink:href="classmodels_1_1bmi_1_1_abstract_c_lib_bmi_adapter__coll__graph_org.svg" target="_base">
           <rect id="button" ry="5" rx="5" y="6" x="6" height="38" width="38"
                fill="#f2f5e9" fill-opacity="0.5" stroke="#606060" stroke-width="1.0"/>
           <path id="arrow"
             d="M 11.500037,31.436501 C 11.940474,20.09759 22.043105,11.32322 32.158766,21.979434 L 37.068811,17.246167 C 37.068811,17.246167 37.088388,32 37.088388,32 L 22.160133,31.978069 C 22.160133,31.978069 26.997745,27.140456 26.997745,27.140456 C 18.528582,18.264221 13.291696,25.230495 11.500037,31.436501 z"
             style="fill:#404040;"/>
          </a>
         </g>
        </svg>
</svg>
