<?xml version="1.0" encoding="UTF-8" standalone="no"?>
<!DOCTYPE svg PUBLIC "-//W3C//DTD SVG 1.1//EN"
 "http://www.w3.org/Graphics/SVG/1.1/DTD/svg11.dtd">
<!-- Generated by graphviz version 12.2.0 (20241103.1931)
 -->
<!-- Title: UnitsHelper Pages: 1 -->
<svg width="222pt" height="583pt"
 viewBox="0.00 0.00 221.96 582.50" xmlns="http://www.w3.org/2000/svg" xmlns:xlink="http://www.w3.org/1999/xlink">
<g id="graph0" class="graph" transform="scale(1 1) rotate(0) translate(4 578.5)">
<title>UnitsHelper</title>
<!-- Node1 -->
<g id="Node000001" class="node">
<title>Node1</title>
<g id="a_Node000001"><a xlink:title=" ">
<polygon fill="#999999" stroke="none" points="162.62,-91.5 44.12,-91.5 44.12,0 162.62,0 162.62,-91.5"/>
<text text-anchor="start" x="77.5" y="-78" font-family="Helvetica,sans-Serif" font-size="10.00">UnitsHelper</text>
<text text-anchor="start" x="101.88" y="-62.75" font-family="Helvetica,sans-Serif" font-size="10.00"> </text>
<text text-anchor="start" x="48.12" y="-47.5" font-family="Helvetica,sans-Serif" font-size="10.00">+</text>
<text text-anchor="start" x="58.12" y="-47.5" font-family="Helvetica,sans-Serif" font-size="10.00">get_converted_value()</text>
<text text-anchor="start" x="48.12" y="-32.25" font-family="Helvetica,sans-Serif" font-size="10.00">+</text>
<text text-anchor="start" x="58.12" y="-32.25" font-family="Helvetica,sans-Serif" font-size="10.00">convert_values()</text>
<text text-anchor="start" x="48.12" y="-17" font-family="Helvetica,sans-Serif" font-size="10.00">+</text>
<text text-anchor="start" x="58.12" y="-17" font-family="Helvetica,sans-Serif" font-size="10.00">record_unit_conversion</text>
<text text-anchor="start" x="58.12" y="-5.75" font-family="Helvetica,sans-Serif" font-size="10.00">_fault()</text>
<polygon fill="#666666" stroke="#666666" points="44.12,-74.25 44.12,-74.25 162.62,-74.25 162.62,-74.25 44.12,-74.25"/>
<polygon fill="#666666" stroke="#666666" points="44.12,-59 44.12,-59 162.62,-59 162.62,-59 44.12,-59"/>
<polygon fill="none" stroke="#666666" points="44.12,0 44.12,-91.5 162.62,-91.5 162.62,0 44.12,0"/>
</a>
</g>
</g>
<!-- Node2 -->
<g id="Node000002" class="node">
<title>Node2</title>
<g id="a_Node000002"><a xlink:title=" ">
<polygon fill="white" stroke="none" points="153.12,-199.75 53.62,-199.75 53.62,-138.75 153.12,-138.75 153.12,-199.75"/>
<text text-anchor="start" x="57.62" y="-186.25" font-family="Helvetica,sans-Serif" font-size="10.00">std::set&lt; UnitsHelper</text>
<text text-anchor="start" x="57.62" y="-175" font-family="Helvetica,sans-Serif" font-size="10.00">::unit_error_log_key &gt;</text>
<text text-anchor="start" x="101.88" y="-159.75" font-family="Helvetica,sans-Serif" font-size="10.00"> </text>
<text text-anchor="start" x="101.88" y="-144.5" font-family="Helvetica,sans-Serif" font-size="10.00"> </text>
<polygon fill="#666666" stroke="#666666" points="53.62,-171.25 53.62,-171.25 153.12,-171.25 153.12,-171.25 53.62,-171.25"/>
<polygon fill="#666666" stroke="#666666" points="53.62,-156 53.62,-156 153.12,-156 153.12,-156 53.62,-156"/>
<polygon fill="none" stroke="#666666" points="53.62,-138.75 53.62,-199.75 153.12,-199.75 153.12,-138.75 53.62,-138.75"/>
</a>
</g>
</g>
<!-- Node2&#45;&gt;Node1 -->
<g id="edge1_Node000001_Node000002" class="edge">
<title>Node2&#45;&gt;Node1</title>
<g id="a_edge1_Node000001_Node000002"><a xlink:title=" ">
<path fill="none" stroke="#63b8ff" d="M103.38,-138.84C103.38,-128.32 103.38,-116.07 103.38,-104"/>
<polygon fill="none" stroke="#63b8ff" points="103.38,-103.98 99.38,-97.98 103.38,-91.98 107.38,-97.98 103.38,-103.98"/>
</a>
</g>
<text text-anchor="middle" x="149.12" y="-111.25" font-family="Helvetica,sans-Serif" font-size="10.00" fill="grey"> &#45;unit_errors_reported</text>
</g>
<!-- Node3 -->
<g id="Node000003" class="node">
<title>Node3</title>
<g id="a_Node000003"><a xlink:href="struct_units_helper_1_1unit__error__log__key.html" target="_top" xlink:title=" ">
<polygon fill="white" stroke="none" points="104.75,-334.5 0,-334.5 0,-258.25 104.75,-258.25 104.75,-334.5"/>
<text text-anchor="start" x="4" y="-321" font-family="Helvetica,sans-Serif" font-size="10.00">UnitsHelper::unit_error</text>
<text text-anchor="start" x="33.25" y="-309.75" font-family="Helvetica,sans-Serif" font-size="10.00">_log_key</text>
<text text-anchor="start" x="50.88" y="-294.5" font-family="Helvetica,sans-Serif" font-size="10.00"> </text>
<text text-anchor="start" x="12.38" y="-279.25" font-family="Helvetica,sans-Serif" font-size="10.00">+</text>
<text text-anchor="start" x="30.75" y="-279.25" font-family="Helvetica,sans-Serif" font-size="10.00">operator&lt;()</text>
<text text-anchor="start" x="12.38" y="-264" font-family="Helvetica,sans-Serif" font-size="10.00">+</text>
<text text-anchor="start" x="30.75" y="-264" font-family="Helvetica,sans-Serif" font-size="10.00">operator==()</text>
<polygon fill="#666666" stroke="#666666" points="0,-306 0,-306 104.75,-306 104.75,-306 0,-306"/>
<polygon fill="#666666" stroke="#666666" points="0,-290.75 0,-290.75 104.75,-290.75 104.75,-290.75 0,-290.75"/>
<polygon fill="none" stroke="#666666" points="0,-258.25 0,-334.5 104.75,-334.5 104.75,-258.25 0,-258.25"/>
</a>
</g>
</g>
<!-- Node3&#45;&gt;Node2 -->
<g id="edge2_Node000002_Node000003" class="edge">
<title>Node3&#45;&gt;Node2</title>
<g id="a_edge2_Node000002_Node000003"><a xlink:title=" ">
<path fill="none" stroke="#63b8ff" d="M67.4,-258.51C73.43,-243.72 80.4,-226.61 86.59,-211.42"/>
<polygon fill="none" stroke="#63b8ff" points="86.49,-211.67 85.05,-204.61 91.02,-200.56 92.46,-207.63 86.49,-211.67"/>
</a>
</g>
<text text-anchor="middle" x="98.19" y="-225.12" font-family="Helvetica,sans-Serif" font-size="10.00" fill="grey"> +keys</text>
</g>
<!-- Node4 -->
<g id="Node000004" class="node">
<title>Node4</title>
<g id="a_Node000004"><a xlink:title=" ">
<polygon fill="white" stroke="none" points="74.38,-476.5 24.38,-476.5 24.38,-426.75 74.38,-426.75 74.38,-476.5"/>
<text text-anchor="start" x="28.38" y="-463" font-family="Helvetica,sans-Serif" font-size="10.00">std::string</text>
<text text-anchor="start" x="47.88" y="-447.75" font-family="Helvetica,sans-Serif" font-size="10.00"> </text>
<text text-anchor="start" x="47.88" y="-432.5" font-family="Helvetica,sans-Serif" font-size="10.00"> </text>
<polygon fill="#666666" stroke="#666666" points="24.38,-459.25 24.38,-459.25 74.38,-459.25 74.38,-459.25 24.38,-459.25"/>
<polygon fill="#666666" stroke="#666666" points="24.38,-444 24.38,-444 74.38,-444 74.38,-444 24.38,-444"/>
<polygon fill="none" stroke="#666666" points="24.38,-426.75 24.38,-476.5 74.38,-476.5 74.38,-426.75 24.38,-426.75"/>
</a>
</g>
</g>
<!-- Node4&#45;&gt;Node3 -->
<g id="edge3_Node000003_Node000004" class="edge">
<title>Node4&#45;&gt;Node3</title>
<g id="a_edge3_Node000003_Node000004"><a xlink:title=" ">
<path fill="none" stroke="#63b8ff" d="M49.84,-427.02C50.25,-405.8 50.88,-373.96 51.4,-347.14"/>
<polygon fill="none" stroke="#63b8ff" points="51.4,-347.34 47.51,-341.27 51.63,-335.34 55.51,-341.42 51.4,-347.34"/>
</a>
</g>
<text text-anchor="middle" x="93.98" y="-399.25" font-family="Helvetica,sans-Serif" font-size="10.00" fill="grey"> +failure_message</text>
<text text-anchor="middle" x="93.98" y="-388" font-family="Helvetica,sans-Serif" font-size="10.00" fill="grey">+provider_name</text>
<text text-anchor="middle" x="93.98" y="-376.75" font-family="Helvetica,sans-Serif" font-size="10.00" fill="grey">+provider_variable</text>
<text text-anchor="middle" x="93.98" y="-365.5" font-family="Helvetica,sans-Serif" font-size="10.00" fill="grey">+requester_name</text>
<text text-anchor="middle" x="93.98" y="-354.25" font-family="Helvetica,sans-Serif" font-size="10.00" fill="grey">+requester_variable</text>
</g>
<!-- Node5 -->
<g id="Node000005" class="node">
<title>Node5</title>
<g id="a_Node000005"><a xlink:title=" ">
<polygon fill="white" stroke="none" points="91.62,-574.5 7.12,-574.5 7.12,-513.5 91.62,-513.5 91.62,-574.5"/>
<text text-anchor="start" x="11.12" y="-561" font-family="Helvetica,sans-Serif" font-size="10.00">std::basic_string&lt;</text>
<text text-anchor="start" x="34" y="-549.75" font-family="Helvetica,sans-Serif" font-size="10.00"> Char &gt;</text>
<text text-anchor="start" x="47.88" y="-534.5" font-family="Helvetica,sans-Serif" font-size="10.00"> </text>
<text text-anchor="start" x="47.88" y="-519.25" font-family="Helvetica,sans-Serif" font-size="10.00"> </text>
<polygon fill="#666666" stroke="#666666" points="7.12,-546 7.12,-546 91.62,-546 91.62,-546 7.12,-546"/>
<polygon fill="#666666" stroke="#666666" points="7.12,-530.75 7.12,-530.75 91.62,-530.75 91.62,-530.75 7.12,-530.75"/>
<polygon fill="none" stroke="#666666" points="7.12,-513.5 7.12,-574.5 91.62,-574.5 91.62,-513.5 7.12,-513.5"/>
</a>
</g>
</g>
<!-- Node5&#45;&gt;Node4 -->
<g id="edge4_Node000004_Node000005" class="edge">
<title>Node5&#45;&gt;Node4</title>
<g id="a_edge4_Node000004_Node000005"><a xlink:title=" ">
<path fill="none" stroke="#63b8ff" d="M49.38,-502.4C49.38,-493.44 49.38,-484.25 49.38,-476.23"/>
<polygon fill="none" stroke="#63b8ff" points="45.88,-502.39 49.38,-512.39 52.88,-502.39 45.88,-502.39"/>
</a>
</g>
</g>
<!-- Node6 -->
<g id="Node000006" class="node">
<title>Node6</title>
<g id="a_Node000006"><a xlink:title=" ">
<polygon fill="white" stroke="none" points="187.75,-321.25 125,-321.25 125,-271.5 187.75,-271.5 187.75,-321.25"/>
<text text-anchor="start" x="129" y="-307.75" font-family="Helvetica,sans-Serif" font-size="10.00">std::set&lt; K &gt;</text>
<text text-anchor="start" x="154.88" y="-292.5" font-family="Helvetica,sans-Serif" font-size="10.00"> </text>
<text text-anchor="start" x="154.88" y="-277.25" font-family="Helvetica,sans-Serif" font-size="10.00"> </text>
<polygon fill="#666666" stroke="#666666" points="125,-304 125,-304 187.75,-304 187.75,-304 125,-304"/>
<polygon fill="#666666" stroke="#666666" points="125,-288.75 125,-288.75 187.75,-288.75 187.75,-288.75 125,-288.75"/>
<polygon fill="none" stroke="#666666" points="125,-271.5 125,-321.25 187.75,-321.25 187.75,-271.5 125,-271.5"/>
</a>
</g>
</g>
<!-- Node6&#45;&gt;Node2 -->
<g id="edge5_Node000002_Node000006" class="edge">
<title>Node6&#45;&gt;Node2</title>
<g id="a_edge5_Node000002_Node000006"><a xlink:title=" ">
<path fill="none" stroke="orange" d="M141.86,-261.1C133.71,-241.87 123.65,-218.12 115.86,-199.72"/>
<polygon fill="orange" stroke="orange" points="138.57,-262.31 145.69,-270.15 145.01,-259.58 138.57,-262.31"/>
</a>
</g>
<text text-anchor="start" x="131.46" y="-230.75" font-family="Helvetica,sans-Serif" font-size="10.00" fill="grey"> &lt; UnitsHelper::unit</text>
<text text-anchor="middle" x="172.71" y="-219.5" font-family="Helvetica,sans-Serif" font-size="10.00" fill="grey">_error_log_key &gt;</text>
</g>
<!-- Node7 -->
<g id="Node000007" class="node">
<title>Node7</title>
<g id="a_Node000007"><a xlink:title=" ">
<polygon fill="white" stroke="none" points="165.75,-476.5 151,-476.5 151,-426.75 165.75,-426.75 165.75,-476.5"/>
<text text-anchor="start" x="155" y="-463" font-family="Helvetica,sans-Serif" font-size="10.00">K</text>
<text text-anchor="start" x="156.88" y="-447.75" font-family="Helvetica,sans-Serif" font-size="10.00"> </text>
<text text-anchor="start" x="156.88" y="-432.5" font-family="Helvetica,sans-Serif" font-size="10.00"> </text>
<polygon fill="#666666" stroke="#666666" points="151,-459.25 151,-459.25 165.75,-459.25 165.75,-459.25 151,-459.25"/>
<polygon fill="#666666" stroke="#666666" points="151,-444 151,-444 165.75,-444 165.75,-444 151,-444"/>
<polygon fill="none" stroke="#666666" points="151,-426.75 151,-476.5 165.75,-476.5 165.75,-426.75 151,-426.75"/>
</a>
</g>
</g>
<!-- Node7&#45;&gt;Node6 -->
<g id="edge6_Node000006_Node000007" class="edge">
<title>Node7&#45;&gt;Node6</title>
<g id="a_edge6_Node000006_Node000007"><a xlink:title=" ">
<path fill="none" stroke="#63b8ff" d="M158.07,-427.02C157.74,-402.15 157.23,-362.69 156.85,-333.83"/>
<polygon fill="none" stroke="#63b8ff" points="156.85,-333.91 152.77,-327.96 156.7,-321.91 160.77,-327.86 156.85,-333.91"/>
</a>
</g>
<text text-anchor="middle" x="172.03" y="-376.75" font-family="Helvetica,sans-Serif" font-size="10.00" fill="grey"> +keys</text>
</g>
</g>
</svg>
