<?xml version="1.0" encoding="UTF-8" standalone="no"?>
<!DOCTYPE svg PUBLIC "-//W3C//DTD SVG 1.1//EN"
 "http://www.w3.org/Graphics/SVG/1.1/DTD/svg11.dtd">
<!-- Generated by graphviz version 2.49.3 (20211027.1534)
 -->
<!-- Title: data_access::DeferredWrappedProvider Pages: 1 -->
<svg width="292pt" height="1037pt"
 viewBox="0.00 0.00 292.00 1037.00" xmlns="http://www.w3.org/2000/svg" xmlns:xlink="http://www.w3.org/1999/xlink">
<g id="graph0" class="graph" transform="scale(1 1) rotate(0) translate(4 1033)">
<title>data_access::DeferredWrappedProvider</title>
<polygon fill="white" stroke="transparent" points="-4,4 -4,-1033 288,-1033 288,4 -4,4"/>
<!-- Node1 -->
<g id="node1" class="node">
<title>Node1</title>
<g id="a_node1"><a xlink:title="A specialized @WrappedForcingProvider that is created without first knowing the backing source it wra...">
<polygon fill="#bfbfbf" stroke="black" points="100.5,-0.5 100.5,-178.5 252.5,-178.5 252.5,-0.5 100.5,-0.5"/>
<text text-anchor="start" x="108.5" y="-166.5" font-family="Helvetica,sans-Serif" font-size="10.00">data_access::DeferredWrapped</text>
<text text-anchor="middle" x="176.5" y="-155.5" font-family="Helvetica,sans-Serif" font-size="10.00">Provider</text>
<polyline fill="none" stroke="black" points="100.5,-148.5 252.5,-148.5 "/>
<text text-anchor="start" x="108.5" y="-136.5" font-family="Helvetica,sans-Serif" font-size="10.00"># providedOutputs</text>
<polyline fill="none" stroke="black" points="100.5,-129.5 252.5,-129.5 "/>
<text text-anchor="start" x="108.5" y="-117.5" font-family="Helvetica,sans-Serif" font-size="10.00">+ DeferredWrappedProvider()</text>
<text text-anchor="start" x="108.5" y="-106.5" font-family="Helvetica,sans-Serif" font-size="10.00">+ DeferredWrappedProvider()</text>
<text text-anchor="start" x="108.5" y="-95.5" font-family="Helvetica,sans-Serif" font-size="10.00">+ DeferredWrappedProvider()</text>
<text text-anchor="start" x="108.5" y="-84.5" font-family="Helvetica,sans-Serif" font-size="10.00">+ get_avaliable_variable</text>
<text text-anchor="start" x="108.5" y="-73.5" font-family="Helvetica,sans-Serif" font-size="10.00">_names()</text>
<text text-anchor="start" x="108.5" y="-62.5" font-family="Helvetica,sans-Serif" font-size="10.00">+ get_available_forcing</text>
<text text-anchor="start" x="108.5" y="-51.5" font-family="Helvetica,sans-Serif" font-size="10.00">_outputs()</text>
<text text-anchor="start" x="108.5" y="-40.5" font-family="Helvetica,sans-Serif" font-size="10.00">+ getSetMessage()</text>
<text text-anchor="start" x="108.5" y="-29.5" font-family="Helvetica,sans-Serif" font-size="10.00">+ isReadyToProvideData()</text>
<text text-anchor="start" x="108.5" y="-18.5" font-family="Helvetica,sans-Serif" font-size="10.00">+ isWrappedProviderSet()</text>
<text text-anchor="start" x="108.5" y="-7.5" font-family="Helvetica,sans-Serif" font-size="10.00">+ setWrappedProvider()</text>
</a>
</g>
</g>
<!-- Node2 -->
<g id="node2" class="node">
<title>Node2</title>
<g id="a_node2"><a xlink:href="classdata__access_1_1_wrapped_forcing_provider.html" target="_top" xlink:title="Simple implementation that basically wraps another instance.">
<polygon fill="white" stroke="black" points="43,-226.5 43,-481.5 190,-481.5 190,-226.5 43,-226.5"/>
<text text-anchor="start" x="51" y="-469.5" font-family="Helvetica,sans-Serif" font-size="10.00">data_access::WrappedForcing</text>
<text text-anchor="middle" x="116.5" y="-458.5" font-family="Helvetica,sans-Serif" font-size="10.00">Provider</text>
<polyline fill="none" stroke="black" points="43,-451.5 190,-451.5 "/>
<text text-anchor="middle" x="116.5" y="-439.5" font-family="Helvetica,sans-Serif" font-size="10.00"> </text>
<polyline fill="none" stroke="black" points="43,-432.5 190,-432.5 "/>
<text text-anchor="start" x="51" y="-420.5" font-family="Helvetica,sans-Serif" font-size="10.00">+ WrappedForcingProvider()</text>
<text text-anchor="start" x="51" y="-409.5" font-family="Helvetica,sans-Serif" font-size="10.00">+ WrappedForcingProvider()</text>
<text text-anchor="start" x="51" y="-398.5" font-family="Helvetica,sans-Serif" font-size="10.00">+ WrappedForcingProvider()</text>
<text text-anchor="start" x="51" y="-387.5" font-family="Helvetica,sans-Serif" font-size="10.00">+ get_available_forcing</text>
<text text-anchor="start" x="51" y="-376.5" font-family="Helvetica,sans-Serif" font-size="10.00">_outputs()</text>
<text text-anchor="start" x="51" y="-365.5" font-family="Helvetica,sans-Serif" font-size="10.00">+ get_avaliable_variable</text>
<text text-anchor="start" x="51" y="-354.5" font-family="Helvetica,sans-Serif" font-size="10.00">_names()</text>
<text text-anchor="start" x="51" y="-343.5" font-family="Helvetica,sans-Serif" font-size="10.00">+ get_forcing_output</text>
<text text-anchor="start" x="51" y="-332.5" font-family="Helvetica,sans-Serif" font-size="10.00">_time_begin()</text>
<text text-anchor="start" x="51" y="-321.5" font-family="Helvetica,sans-Serif" font-size="10.00">+ get_data_start_time()</text>
<text text-anchor="start" x="51" y="-310.5" font-family="Helvetica,sans-Serif" font-size="10.00">+ get_forcing_output</text>
<text text-anchor="start" x="51" y="-299.5" font-family="Helvetica,sans-Serif" font-size="10.00">_time_end()</text>
<text text-anchor="start" x="51" y="-288.5" font-family="Helvetica,sans-Serif" font-size="10.00">+ get_data_stop_time()</text>
<text text-anchor="start" x="51" y="-277.5" font-family="Helvetica,sans-Serif" font-size="10.00">+ record_duration()</text>
<text text-anchor="start" x="51" y="-266.5" font-family="Helvetica,sans-Serif" font-size="10.00">+ get_ts_index_for_time()</text>
<text text-anchor="start" x="51" y="-255.5" font-family="Helvetica,sans-Serif" font-size="10.00">+ get_value()</text>
<text text-anchor="start" x="51" y="-244.5" font-family="Helvetica,sans-Serif" font-size="10.00">+ is_property_sum_over</text>
<text text-anchor="start" x="51" y="-233.5" font-family="Helvetica,sans-Serif" font-size="10.00">_time_step()</text>
</a>
</g>
</g>
<!-- Node2&#45;&gt;Node1 -->
<g id="edge1" class="edge">
<title>Node2&#45;&gt;Node1</title>
<path fill="none" stroke="midnightblue" d="M147.69,-216.53C150.63,-203.68 153.55,-190.9 156.34,-178.68"/>
<polygon fill="none" stroke="midnightblue" points="144.26,-215.83 145.45,-226.36 151.09,-217.39 144.26,-215.83"/>
</g>
<!-- Node3 -->
<g id="node3" class="node">
<title>Node3</title>
<g id="a_node3"><a xlink:href="classdata__access_1_1_generic_data_provider.html" target="_top" xlink:title=" ">
<polygon fill="white" stroke="black" points="30,-529.5 30,-597.5 161,-597.5 161,-529.5 30,-529.5"/>
<text text-anchor="start" x="38" y="-585.5" font-family="Helvetica,sans-Serif" font-size="10.00">data_access::GenericData</text>
<text text-anchor="middle" x="95.5" y="-574.5" font-family="Helvetica,sans-Serif" font-size="10.00">Provider</text>
<polyline fill="none" stroke="black" points="30,-567.5 161,-567.5 "/>
<text text-anchor="middle" x="95.5" y="-555.5" font-family="Helvetica,sans-Serif" font-size="10.00"> </text>
<polyline fill="none" stroke="black" points="30,-548.5 161,-548.5 "/>
<text text-anchor="middle" x="95.5" y="-536.5" font-family="Helvetica,sans-Serif" font-size="10.00"> </text>
</a>
</g>
</g>
<!-- Node3&#45;&gt;Node2 -->
<g id="edge2" class="edge">
<title>Node3&#45;&gt;Node2</title>
<path fill="none" stroke="midnightblue" d="M99.88,-519.19C101.03,-507.84 102.33,-495.02 103.68,-481.66"/>
<polygon fill="none" stroke="midnightblue" points="96.4,-518.86 98.87,-529.16 103.36,-519.56 96.4,-518.86"/>
</g>
<!-- Node3&#45;&gt;Node2 -->
<g id="edge5" class="edge">
<title>Node3&#45;&gt;Node2</title>
<path fill="none" stroke="#404040" d="M102.55,-529.35C103.67,-523.27 104.71,-516.96 105.5,-511 106.25,-505.33 106.95,-499.53 107.6,-493.67"/>
<polygon fill="none" stroke="#404040" points="107.62,-493.5 104.27,-487.11 108.88,-481.56 112.23,-487.95 107.62,-493.5"/>
<text text-anchor="middle" x="150" y="-503" font-family="Helvetica,sans-Serif" font-size="10.00"> #wrapped_provider</text>
</g>
<!-- Node4 -->
<g id="node4" class="node">
<title>Node4</title>
<g id="a_node4"><a xlink:href="classdata__access_1_1_data_provider.html" target="_top" xlink:title=" ">
<polygon fill="white" stroke="black" points="0,-635.5 0,-802.5 191,-802.5 191,-635.5 0,-635.5"/>
<text text-anchor="start" x="8" y="-790.5" font-family="Helvetica,sans-Serif" font-size="10.00">data_access::DataProvider</text>
<text text-anchor="middle" x="95.5" y="-779.5" font-family="Helvetica,sans-Serif" font-size="10.00">&lt; double, CatchmentAggrDataSelector &gt;</text>
<polyline fill="none" stroke="black" points="0,-772.5 191,-772.5 "/>
<text text-anchor="middle" x="95.5" y="-760.5" font-family="Helvetica,sans-Serif" font-size="10.00"> </text>
<polyline fill="none" stroke="black" points="0,-753.5 191,-753.5 "/>
<text text-anchor="start" x="8" y="-741.5" font-family="Helvetica,sans-Serif" font-size="10.00">+ ~DataProvider()</text>
<text text-anchor="start" x="8" y="-730.5" font-family="Helvetica,sans-Serif" font-size="10.00">+ get_avaliable_variable</text>
<text text-anchor="start" x="8" y="-719.5" font-family="Helvetica,sans-Serif" font-size="10.00">_names()</text>
<text text-anchor="start" x="8" y="-708.5" font-family="Helvetica,sans-Serif" font-size="10.00">+ get_data_start_time()</text>
<text text-anchor="start" x="8" y="-697.5" font-family="Helvetica,sans-Serif" font-size="10.00">+ get_data_stop_time()</text>
<text text-anchor="start" x="8" y="-686.5" font-family="Helvetica,sans-Serif" font-size="10.00">+ record_duration()</text>
<text text-anchor="start" x="8" y="-675.5" font-family="Helvetica,sans-Serif" font-size="10.00">+ get_ts_index_for_time()</text>
<text text-anchor="start" x="8" y="-664.5" font-family="Helvetica,sans-Serif" font-size="10.00">+ get_value()</text>
<text text-anchor="start" x="8" y="-653.5" font-family="Helvetica,sans-Serif" font-size="10.00">+ is_property_sum_over</text>
<text text-anchor="start" x="8" y="-642.5" font-family="Helvetica,sans-Serif" font-size="10.00">_time_step()</text>
</a>
</g>
</g>
<!-- Node4&#45;&gt;Node3 -->
<g id="edge3" class="edge">
<title>Node4&#45;&gt;Node3</title>
<path fill="none" stroke="midnightblue" d="M95.5,-625.17C95.5,-615.44 95.5,-606.07 95.5,-597.72"/>
<polygon fill="none" stroke="midnightblue" points="92,-625.41 95.5,-635.41 99,-625.41 92,-625.41"/>
</g>
<!-- Node5 -->
<g id="node5" class="node">
<title>Node5</title>
<g id="a_node5"><a xlink:href="classdata__access_1_1_data_provider.html" target="_top" xlink:title=" ">
<polygon fill="white" stroke="black" points="24,-861.5 24,-1028.5 167,-1028.5 167,-861.5 24,-861.5"/>
<text text-anchor="start" x="32" y="-1016.5" font-family="Helvetica,sans-Serif" font-size="10.00">data_access::DataProvider</text>
<text text-anchor="middle" x="95.5" y="-1005.5" font-family="Helvetica,sans-Serif" font-size="10.00">&lt; data_type, selection_type &gt;</text>
<polyline fill="none" stroke="black" points="24,-998.5 167,-998.5 "/>
<text text-anchor="middle" x="95.5" y="-986.5" font-family="Helvetica,sans-Serif" font-size="10.00"> </text>
<polyline fill="none" stroke="black" points="24,-979.5 167,-979.5 "/>
<text text-anchor="start" x="32" y="-967.5" font-family="Helvetica,sans-Serif" font-size="10.00">+ ~DataProvider()</text>
<text text-anchor="start" x="32" y="-956.5" font-family="Helvetica,sans-Serif" font-size="10.00">+ get_avaliable_variable</text>
<text text-anchor="start" x="32" y="-945.5" font-family="Helvetica,sans-Serif" font-size="10.00">_names()</text>
<text text-anchor="start" x="32" y="-934.5" font-family="Helvetica,sans-Serif" font-size="10.00">+ get_data_start_time()</text>
<text text-anchor="start" x="32" y="-923.5" font-family="Helvetica,sans-Serif" font-size="10.00">+ get_data_stop_time()</text>
<text text-anchor="start" x="32" y="-912.5" font-family="Helvetica,sans-Serif" font-size="10.00">+ record_duration()</text>
<text text-anchor="start" x="32" y="-901.5" font-family="Helvetica,sans-Serif" font-size="10.00">+ get_ts_index_for_time()</text>
<text text-anchor="start" x="32" y="-890.5" font-family="Helvetica,sans-Serif" font-size="10.00">+ get_value()</text>
<text text-anchor="start" x="32" y="-879.5" font-family="Helvetica,sans-Serif" font-size="10.00">+ is_property_sum_over</text>
<text text-anchor="start" x="32" y="-868.5" font-family="Helvetica,sans-Serif" font-size="10.00">_time_step()</text>
</a>
</g>
</g>
<!-- Node5&#45;&gt;Node4 -->
<g id="edge4" class="edge">
<title>Node5&#45;&gt;Node4</title>
<path fill="none" stroke="orange" d="M95.5,-850.84C95.5,-834.91 95.5,-818.45 95.5,-802.81"/>
<polygon fill="orange" stroke="orange" points="92,-851.23 95.5,-861.23 99,-851.23 92,-851.23"/>
<text text-anchor="start" x="95.5" y="-835" font-family="Helvetica,sans-Serif" font-size="10.00"> &lt; double, CatchmentAggrData</text>
<text text-anchor="middle" x="162" y="-824" font-family="Helvetica,sans-Serif" font-size="10.00">Selector &gt;</text>
</g>
<!-- Node6 -->
<g id="node6" class="node">
<title>Node6</title>
<g id="a_node6"><a xlink:title=" ">
<polygon fill="white" stroke="#bfbfbf" points="208,-325.5 208,-382.5 267,-382.5 267,-325.5 208,-325.5"/>
<text text-anchor="middle" x="237.5" y="-370.5" font-family="Helvetica,sans-Serif" font-size="10.00">std::string</text>
<polyline fill="none" stroke="#bfbfbf" points="208,-363.5 267,-363.5 "/>
<text text-anchor="middle" x="237.5" y="-351.5" font-family="Helvetica,sans-Serif" font-size="10.00"> </text>
<polyline fill="none" stroke="#bfbfbf" points="208,-344.5 267,-344.5 "/>
<text text-anchor="middle" x="237.5" y="-332.5" font-family="Helvetica,sans-Serif" font-size="10.00"> </text>
</a>
</g>
</g>
<!-- Node6&#45;&gt;Node1 -->
<g id="edge6" class="edge">
<title>Node6&#45;&gt;Node1</title>
<path fill="none" stroke="#404040" d="M231.09,-325.4C223.66,-293.42 210.98,-238.89 199.72,-190.42"/>
<polygon fill="none" stroke="#404040" points="199.68,-190.26 194.43,-185.32 196.97,-178.57 202.22,-183.51 199.68,-190.26"/>
<text text-anchor="middle" x="233" y="-200" font-family="Helvetica,sans-Serif" font-size="10.00"> #setMessage</text>
</g>
<!-- Node7 -->
<g id="node7" class="node">
<title>Node7</title>
<g id="a_node7"><a xlink:title=" ">
<polygon fill="white" stroke="#bfbfbf" points="191,-529.5 191,-597.5 284,-597.5 284,-529.5 191,-529.5"/>
<text text-anchor="start" x="199" y="-585.5" font-family="Helvetica,sans-Serif" font-size="10.00">std::basic_string&lt;</text>
<text text-anchor="middle" x="237.5" y="-574.5" font-family="Helvetica,sans-Serif" font-size="10.00"> Char &gt;</text>
<polyline fill="none" stroke="#bfbfbf" points="191,-567.5 284,-567.5 "/>
<text text-anchor="middle" x="237.5" y="-555.5" font-family="Helvetica,sans-Serif" font-size="10.00"> </text>
<polyline fill="none" stroke="#bfbfbf" points="191,-548.5 284,-548.5 "/>
<text text-anchor="middle" x="237.5" y="-536.5" font-family="Helvetica,sans-Serif" font-size="10.00"> </text>
</a>
</g>
</g>
<!-- Node7&#45;&gt;Node6 -->
<g id="edge7" class="edge">
<title>Node7&#45;&gt;Node6</title>
<path fill="none" stroke="midnightblue" d="M237.5,-519.16C237.5,-478.05 237.5,-417.53 237.5,-382.61"/>
<polygon fill="none" stroke="midnightblue" points="234,-519.16 237.5,-529.16 241,-519.16 234,-519.16"/>
</g>
</g>
</svg>
