<?xml version="1.0" encoding="UTF-8" standalone="no"?>
<!DOCTYPE svg PUBLIC "-//W3C//DTD SVG 1.1//EN"
 "http://www.w3.org/Graphics/SVG/1.1/DTD/svg11.dtd">
<!-- Generated by graphviz version 3.0.0 (20220413.0242)
 -->
<!-- Title: geojson::MultiLineStringFeature Pages: 1 -->
<!--zoomable 1362 -->
<svg id="main" version="1.1" xmlns="http://www.w3.org/2000/svg" xmlns:xlink="http://www.w3.org/1999/xlink" xml:space="preserve" onload="init(evt)">
<style type="text/css"><![CDATA[
.edge:hover path { stroke: red; }
.edge:hover polygon { stroke: red; fill: red; }
]]></style>
<script type="text/javascript"><![CDATA[
var edges = document.getElementsByTagName('g');
if (edges && edges.length) {
  for (var i=0;i<edges.length;i++) {
    if (edges[i].id.substr(0,4)=='edge') {
      edges[i].setAttribute('class','edge');
    }
  }
}
]]></script>
        <defs>
                <circle id="rim" cx="0" cy="0" r="7"/>
                <circle id="rim2" cx="0" cy="0" r="3.5"/>
                <g id="zoomPlus">
                        <use xlink:href="#rim" fill="#404040">
                                <set attributeName="fill" to="#808080" begin="zoomplus.mouseover" end="zoomplus.mouseout"/>
                        </use>
                        <path d="M-4,0h8M0,-4v8" fill="none" stroke="white" stroke-width="1.5" pointer-events="none"/>
                </g>
                <g id="zoomMin">
                        <use xlink:href="#rim" fill="#404040">
                                <set attributeName="fill" to="#808080" begin="zoomminus.mouseover" end="zoomminus.mouseout"/>
                        </use>
                        <path d="M-4,0h8" fill="none" stroke="white" stroke-width="1.5" pointer-events="none"/>
                </g>
                <g id="dirArrow">
                        <path fill="none" stroke="white" stroke-width="1.5" d="M0,-3.0v7 M-2.5,-0.5L0,-3.0L2.5,-0.5"/>
                </g>
               <g id="resetDef">
                       <use xlink:href="#rim2" fill="#404040">
                               <set attributeName="fill" to="#808080" begin="reset.mouseover" end="reset.mouseout"/>
                       </use>
               </g>
        </defs>

<script type="text/javascript">
var viewWidth = 736;
var viewHeight = 1362;
var sectionId = 'dynsection-1';
</script>
<script xlink:href="svgpan.js"/>
<svg id="graph" class="graph">
<g id="viewport">
<title>geojson::MultiLineStringFeature</title>
<polygon fill="white" stroke="transparent" points="-4,4 -4,-1358 731.5,-1358 731.5,4 -4,4"/>
<!-- Node1 -->
<g id="node1" class="node">
<title>Node1</title>
<g id="a_node1"><a xlink:title=" ">
<polygon fill="#bfbfbf" stroke="black" points="492,-0.5 492,-112.5 621,-112.5 621,-0.5 492,-0.5"/>
<text text-anchor="start" x="500" y="-100.5" font-family="Helvetica,sans-Serif" font-size="10.00">geojson::MultiLineString</text>
<text text-anchor="middle" x="556.5" y="-89.5" font-family="Helvetica,sans-Serif" font-size="10.00">Feature</text>
<polyline fill="none" stroke="black" points="492,-82.5 621,-82.5 "/>
<text text-anchor="middle" x="556.5" y="-70.5" font-family="Helvetica,sans-Serif" font-size="10.00"> </text>
<polyline fill="none" stroke="black" points="492,-63.5 621,-63.5 "/>
<text text-anchor="start" x="500" y="-51.5" font-family="Helvetica,sans-Serif" font-size="10.00">+ MultiLineStringFeature()</text>
<text text-anchor="start" x="500" y="-40.5" font-family="Helvetica,sans-Serif" font-size="10.00">+ MultiLineStringFeature()</text>
<text text-anchor="start" x="500" y="-29.5" font-family="Helvetica,sans-Serif" font-size="10.00">+ MultiLineStringFeature()</text>
<text text-anchor="start" x="500" y="-18.5" font-family="Helvetica,sans-Serif" font-size="10.00">+ geometry()</text>
<text text-anchor="start" x="500" y="-7.5" font-family="Helvetica,sans-Serif" font-size="10.00">+ visit()</text>
</a>
</g>
</g>
<!-- Node2 -->
<g id="node2" class="node">
<title>Node2</title>
<g id="a_node2"><a xlink:href="classgeojson_1_1_feature_base.html" target="_top" xlink:title="Represents an individual feature within a Geojson definition.">
<polygon fill="white" stroke="black" points="329.5,-182.5 329.5,-470.5 463.5,-470.5 463.5,-182.5 329.5,-182.5"/>
<text text-anchor="middle" x="396.5" y="-458.5" font-family="Helvetica,sans-Serif" font-size="10.00">geojson::FeatureBase</text>
<polyline fill="none" stroke="black" points="329.5,-451.5 463.5,-451.5 "/>
<text text-anchor="start" x="337.5" y="-439.5" font-family="Helvetica,sans-Serif" font-size="10.00"># type</text>
<text text-anchor="start" x="337.5" y="-428.5" font-family="Helvetica,sans-Serif" font-size="10.00"># geom</text>
<polyline fill="none" stroke="black" points="329.5,-421.5 463.5,-421.5 "/>
<text text-anchor="start" x="337.5" y="-409.5" font-family="Helvetica,sans-Serif" font-size="10.00">+ FeatureBase()</text>
<text text-anchor="start" x="337.5" y="-398.5" font-family="Helvetica,sans-Serif" font-size="10.00">+ ~FeatureBase()</text>
<text text-anchor="start" x="337.5" y="-387.5" font-family="Helvetica,sans-Serif" font-size="10.00">+ get_type()</text>
<text text-anchor="start" x="337.5" y="-376.5" font-family="Helvetica,sans-Serif" font-size="10.00">+ add_origination_feature()</text>
<text text-anchor="start" x="337.5" y="-365.5" font-family="Helvetica,sans-Serif" font-size="10.00">+ add_destination_feature()</text>
<text text-anchor="start" x="337.5" y="-354.5" font-family="Helvetica,sans-Serif" font-size="10.00">+ assign_neighbors()</text>
<text text-anchor="start" x="337.5" y="-343.5" font-family="Helvetica,sans-Serif" font-size="10.00">+ add_neighbor_feature()</text>
<text text-anchor="start" x="337.5" y="-332.5" font-family="Helvetica,sans-Serif" font-size="10.00">+ get_property()</text>
<text text-anchor="start" x="337.5" y="-321.5" font-family="Helvetica,sans-Serif" font-size="10.00">+ set_id()</text>
<text text-anchor="start" x="337.5" y="-310.5" font-family="Helvetica,sans-Serif" font-size="10.00">+ get()</text>
<text text-anchor="start" x="337.5" y="-299.5" font-family="Helvetica,sans-Serif" font-size="10.00">+ set()</text>
<text text-anchor="start" x="337.5" y="-288.5" font-family="Helvetica,sans-Serif" font-size="10.00">+ set()</text>
<text text-anchor="start" x="337.5" y="-277.5" font-family="Helvetica,sans-Serif" font-size="10.00">+ set()</text>
<text text-anchor="start" x="337.5" y="-266.5" font-family="Helvetica,sans-Serif" font-size="10.00">+ set()</text>
<text text-anchor="start" x="337.5" y="-255.5" font-family="Helvetica,sans-Serif" font-size="10.00">+ set()</text>
<text text-anchor="start" x="337.5" y="-244.5" font-family="Helvetica,sans-Serif" font-size="10.00">and 29 more...</text>
<text text-anchor="start" x="337.5" y="-233.5" font-family="Helvetica,sans-Serif" font-size="10.00"># FeatureBase()</text>
<text text-anchor="start" x="337.5" y="-222.5" font-family="Helvetica,sans-Serif" font-size="10.00"># break_links()</text>
<text text-anchor="start" x="337.5" y="-211.5" font-family="Helvetica,sans-Serif" font-size="10.00"># remove_destination()</text>
<text text-anchor="start" x="337.5" y="-200.5" font-family="Helvetica,sans-Serif" font-size="10.00"># remove_origination()</text>
<text text-anchor="start" x="337.5" y="-189.5" font-family="Helvetica,sans-Serif" font-size="10.00"># remove_neighbor()</text>
</a>
</g>
</g>
<!-- Node2&#45;&gt;Node1 -->
<g id="edge1" class="edge">
<title>Node2&#45;&gt;Node1</title>
<path fill="none" stroke="midnightblue" d="M468.98,-211.27C478.7,-195.47 488.44,-179.39 497.5,-164 507.26,-147.43 517.54,-129.18 526.73,-112.54"/>
<polygon fill="none" stroke="midnightblue" points="465.86,-209.66 463.59,-220.01 471.82,-213.33 465.86,-209.66"/>
</g>
<!-- Node14 -->
<g id="node14" class="node">
<title>Node14</title>
<g id="a_node14"><a xlink:title=" ">
<polygon fill="white" stroke="black" points="369.5,-22.5 369.5,-90.5 473.5,-90.5 473.5,-22.5 369.5,-22.5"/>
<text text-anchor="start" x="377.5" y="-78.5" font-family="Helvetica,sans-Serif" font-size="10.00">std::vector&lt; geojson</text>
<text text-anchor="middle" x="421.5" y="-67.5" font-family="Helvetica,sans-Serif" font-size="10.00">::FeatureBase * &gt;</text>
<polyline fill="none" stroke="black" points="369.5,-60.5 473.5,-60.5 "/>
<text text-anchor="middle" x="421.5" y="-48.5" font-family="Helvetica,sans-Serif" font-size="10.00"> </text>
<polyline fill="none" stroke="black" points="369.5,-41.5 473.5,-41.5 "/>
<text text-anchor="middle" x="421.5" y="-29.5" font-family="Helvetica,sans-Serif" font-size="10.00"> </text>
</a>
</g>
</g>
<!-- Node2&#45;&gt;Node14 -->
<g id="edge21" class="edge">
<title>Node2&#45;&gt;Node14</title>
<path fill="none" stroke="#404040" d="M377.03,-182.3C377.56,-164.88 379.5,-147.44 383.5,-131 385.94,-120.97 390.01,-110.77 394.59,-101.3"/>
<polygon fill="none" stroke="#404040" points="394.63,-101.22 393.84,-94.06 400.15,-90.57 400.94,-97.73 394.63,-101.22"/>
<text text-anchor="middle" x="408" y="-145" font-family="Helvetica,sans-Serif" font-size="10.00"> +elements</text>
</g>
<!-- Node3 -->
<g id="node3" class="node">
<title>Node3</title>
<g id="a_node3"><a xlink:title=" ">
<polygon fill="white" stroke="black" points="439.5,-977.5 439.5,-1045.5 545.5,-1045.5 545.5,-977.5 439.5,-977.5"/>
<text text-anchor="start" x="447.5" y="-1033.5" font-family="Helvetica,sans-Serif" font-size="10.00">std::vector&lt;::geojson</text>
<text text-anchor="middle" x="492.5" y="-1022.5" font-family="Helvetica,sans-Serif" font-size="10.00">::geometry &gt;</text>
<polyline fill="none" stroke="black" points="439.5,-1015.5 545.5,-1015.5 "/>
<text text-anchor="start" x="447.5" y="-1003.5" font-family="Helvetica,sans-Serif" font-size="10.00">+ elements</text>
<polyline fill="none" stroke="black" points="439.5,-996.5 545.5,-996.5 "/>
<text text-anchor="middle" x="492.5" y="-984.5" font-family="Helvetica,sans-Serif" font-size="10.00"> </text>
</a>
</g>
</g>
<!-- Node3&#45;&gt;Node2 -->
<g id="edge2" class="edge">
<title>Node3&#45;&gt;Node2</title>
<path fill="none" stroke="#404040" d="M492.78,-977.44C493.35,-883.27 493.31,-614.9 475.5,-529 472.32,-513.68 468.09,-498.01 463.23,-482.52"/>
<polygon fill="none" stroke="#404040" points="463.1,-482.13 457.44,-477.65 459.39,-470.71 465.05,-475.18 463.1,-482.13"/>
<text text-anchor="middle" x="536.5" y="-642.5" font-family="Helvetica,sans-Serif" font-size="10.00"> #geometry_collection</text>
</g>
<!-- Node4 -->
<g id="node4" class="node">
<title>Node4</title>
<g id="a_node4"><a xlink:title=" ">
<polygon fill="white" stroke="black" points="375.5,-1186 375.5,-1243 459.5,-1243 459.5,-1186 375.5,-1186"/>
<text text-anchor="middle" x="417.5" y="-1231" font-family="Helvetica,sans-Serif" font-size="10.00">std::vector&lt; T &gt;</text>
<polyline fill="none" stroke="black" points="375.5,-1224 459.5,-1224 "/>
<text text-anchor="middle" x="417.5" y="-1212" font-family="Helvetica,sans-Serif" font-size="10.00"> </text>
<polyline fill="none" stroke="black" points="375.5,-1205 459.5,-1205 "/>
<text text-anchor="middle" x="417.5" y="-1193" font-family="Helvetica,sans-Serif" font-size="10.00"> </text>
</a>
</g>
</g>
<!-- Node4&#45;&gt;Node3 -->
<g id="edge3" class="edge">
<title>Node4&#45;&gt;Node3</title>
<path fill="none" stroke="orange" d="M444.98,-1177.49C454.01,-1164.13 463.31,-1148.46 469.5,-1133 480.83,-1104.73 486.68,-1070.44 489.63,-1045.68"/>
<polygon fill="orange" stroke="orange" points="441.96,-1175.7 439.12,-1185.91 447.71,-1179.7 441.96,-1175.7"/>
<text text-anchor="middle" x="511.5" y="-1154" font-family="Helvetica,sans-Serif" font-size="10.00"> &lt;::geojson::geometry &gt;</text>
</g>
<!-- Node10 -->
<g id="node10" class="node">
<title>Node10</title>
<g id="a_node10"><a xlink:title=" ">
<polygon fill="white" stroke="black" points="231.5,-1064.5 231.5,-1132.5 335.5,-1132.5 335.5,-1064.5 231.5,-1064.5"/>
<text text-anchor="start" x="239.5" y="-1120.5" font-family="Helvetica,sans-Serif" font-size="10.00">std::vector&lt; geojson</text>
<text text-anchor="middle" x="283.5" y="-1109.5" font-family="Helvetica,sans-Serif" font-size="10.00">::JSONProperty &gt;</text>
<polyline fill="none" stroke="black" points="231.5,-1102.5 335.5,-1102.5 "/>
<text text-anchor="middle" x="283.5" y="-1090.5" font-family="Helvetica,sans-Serif" font-size="10.00"> </text>
<polyline fill="none" stroke="black" points="231.5,-1083.5 335.5,-1083.5 "/>
<text text-anchor="middle" x="283.5" y="-1071.5" font-family="Helvetica,sans-Serif" font-size="10.00"> </text>
</a>
</g>
</g>
<!-- Node4&#45;&gt;Node10 -->
<g id="edge13" class="edge">
<title>Node4&#45;&gt;Node10</title>
<path fill="none" stroke="orange" d="M365.13,-1207.89C335.6,-1201.75 301.02,-1188.89 282.5,-1162 276.71,-1153.6 275.31,-1142.94 275.85,-1132.82"/>
<polygon fill="orange" stroke="orange" points="364.86,-1211.4 375.33,-1209.8 366.14,-1204.52 364.86,-1211.4"/>
<text text-anchor="middle" x="343" y="-1154" font-family="Helvetica,sans-Serif" font-size="10.00"> &lt; geojson::JSONProperty &gt;</text>
</g>
<!-- Node13 -->
<g id="node13" class="node">
<title>Node13</title>
<g id="a_node13"><a xlink:title=" ">
<polygon fill="white" stroke="black" points="352,-616.5 352,-673.5 459,-673.5 459,-616.5 352,-616.5"/>
<text text-anchor="middle" x="405.5" y="-661.5" font-family="Helvetica,sans-Serif" font-size="10.00">std::vector&lt; double &gt;</text>
<polyline fill="none" stroke="black" points="352,-654.5 459,-654.5 "/>
<text text-anchor="start" x="360" y="-642.5" font-family="Helvetica,sans-Serif" font-size="10.00">+ elements</text>
<polyline fill="none" stroke="black" points="352,-635.5 459,-635.5 "/>
<text text-anchor="middle" x="405.5" y="-623.5" font-family="Helvetica,sans-Serif" font-size="10.00"> </text>
</a>
</g>
</g>
<!-- Node4&#45;&gt;Node13 -->
<g id="edge18" class="edge">
<title>Node4&#45;&gt;Node13</title>
<path fill="none" stroke="orange" d="M416.69,-1175.42C414.43,-1068.42 408.05,-766.78 406.09,-673.7"/>
<polygon fill="orange" stroke="orange" points="413.2,-1175.82 416.91,-1185.74 420.2,-1175.67 413.2,-1175.82"/>
<text text-anchor="middle" x="440.5" y="-1096" font-family="Helvetica,sans-Serif" font-size="10.00"> &lt; double &gt;</text>
</g>
<!-- Node4&#45;&gt;Node14 -->
<g id="edge22" class="edge">
<title>Node4&#45;&gt;Node14</title>
<path fill="none" stroke="orange" d="M469.77,-1205.33C526.32,-1193.17 608.5,-1164.34 608.5,-1099.5 608.5,-1099.5 608.5,-1099.5 608.5,-325.5 608.5,-225.97 558.55,-209.61 497.5,-131 486.47,-116.79 472.74,-102.69 460.01,-90.7"/>
<polygon fill="orange" stroke="orange" points="468.99,-1201.92 459.89,-1207.34 470.39,-1208.78 468.99,-1201.92"/>
<text text-anchor="middle" x="668" y="-642.5" font-family="Helvetica,sans-Serif" font-size="10.00"> &lt; geojson::FeatureBase * &gt;</text>
</g>
<!-- Node5 -->
<g id="node5" class="node">
<title>Node5</title>
<g id="a_node5"><a xlink:title=" ">
<polygon fill="white" stroke="black" points="349,-1296.5 349,-1353.5 378,-1353.5 378,-1296.5 349,-1296.5"/>
<text text-anchor="middle" x="363.5" y="-1341.5" font-family="Helvetica,sans-Serif" font-size="10.00">T</text>
<polyline fill="none" stroke="black" points="349,-1334.5 378,-1334.5 "/>
<text text-anchor="middle" x="363.5" y="-1322.5" font-family="Helvetica,sans-Serif" font-size="10.00"> </text>
<polyline fill="none" stroke="black" points="349,-1315.5 378,-1315.5 "/>
<text text-anchor="middle" x="363.5" y="-1303.5" font-family="Helvetica,sans-Serif" font-size="10.00"> </text>
</a>
</g>
</g>
<!-- Node5&#45;&gt;Node4 -->
<g id="edge4" class="edge">
<title>Node5&#45;&gt;Node4</title>
<path fill="none" stroke="#404040" d="M377.27,-1296.34C383.68,-1283.46 391.41,-1267.92 398.38,-1253.92"/>
<polygon fill="none" stroke="#404040" points="398.41,-1253.85 397.5,-1246.7 403.76,-1243.11 404.67,-1250.26 398.41,-1253.85"/>
<text text-anchor="middle" x="415" y="-1270" font-family="Helvetica,sans-Serif" font-size="10.00"> +elements</text>
</g>
<!-- Node11 -->
<g id="node11" class="node">
<title>Node11</title>
<g id="a_node11"><a xlink:title=" ">
<polygon fill="white" stroke="black" points="179.5,-1186 179.5,-1243 267.5,-1243 267.5,-1186 179.5,-1186"/>
<text text-anchor="middle" x="223.5" y="-1231" font-family="Helvetica,sans-Serif" font-size="10.00">std::map&lt; K, T &gt;</text>
<polyline fill="none" stroke="black" points="179.5,-1224 267.5,-1224 "/>
<text text-anchor="middle" x="223.5" y="-1212" font-family="Helvetica,sans-Serif" font-size="10.00"> </text>
<polyline fill="none" stroke="black" points="179.5,-1205 267.5,-1205 "/>
<text text-anchor="middle" x="223.5" y="-1193" font-family="Helvetica,sans-Serif" font-size="10.00"> </text>
</a>
</g>
</g>
<!-- Node5&#45;&gt;Node11 -->
<g id="edge16" class="edge">
<title>Node5&#45;&gt;Node11</title>
<path fill="none" stroke="#404040" d="M348.78,-1312.59C329.88,-1297.94 296.21,-1271.85 268.53,-1250.4"/>
<polygon fill="none" stroke="#404040" points="268.51,-1250.39 261.32,-1249.87 259.03,-1243.03 266.22,-1243.55 268.51,-1250.39"/>
<text text-anchor="middle" x="327" y="-1270" font-family="Helvetica,sans-Serif" font-size="10.00"> +elements</text>
</g>
<!-- Node6 -->
<g id="node6" class="node">
<title>Node6</title>
<g id="a_node6"><a xlink:title=" ">
<polygon fill="white" stroke="black" points="134,-529.5 134,-597.5 241,-597.5 241,-529.5 134,-529.5"/>
<text text-anchor="start" x="142" y="-585.5" font-family="Helvetica,sans-Serif" font-size="10.00">std::map&lt; std::string,</text>
<text text-anchor="middle" x="187.5" y="-574.5" font-family="Helvetica,sans-Serif" font-size="10.00"> JSONProperty &gt;</text>
<polyline fill="none" stroke="black" points="134,-567.5 241,-567.5 "/>
<text text-anchor="middle" x="187.5" y="-555.5" font-family="Helvetica,sans-Serif" font-size="10.00"> </text>
<polyline fill="none" stroke="black" points="134,-548.5 241,-548.5 "/>
<text text-anchor="middle" x="187.5" y="-536.5" font-family="Helvetica,sans-Serif" font-size="10.00"> </text>
</a>
</g>
</g>
<!-- Node6&#45;&gt;Node2 -->
<g id="edge5" class="edge">
<title>Node6&#45;&gt;Node2</title>
<path fill="none" stroke="#404040" d="M217,-529.33C243.99,-498.98 285.09,-452.77 321.15,-412.22"/>
<polygon fill="none" stroke="#404040" points="321.26,-412.1 322.26,-404.96 329.24,-403.13 328.24,-410.27 321.26,-412.1"/>
<text text-anchor="middle" x="291" y="-503" font-family="Helvetica,sans-Serif" font-size="10.00"> #foreign_members</text>
<text text-anchor="middle" x="291" y="-492" font-family="Helvetica,sans-Serif" font-size="10.00">#properties</text>
</g>
<!-- Node9 -->
<g id="node9" class="node">
<title>Node9</title>
<g id="a_node9"><a xlink:href="classgeojson_1_1_j_s_o_n_property.html" target="_top" xlink:title="@TODO: Convert JSONProperty into a variant of the supported types">
<polygon fill="white" stroke="black" points="200.5,-692.5 200.5,-958.5 318.5,-958.5 318.5,-692.5 200.5,-692.5"/>
<text text-anchor="middle" x="259.5" y="-946.5" font-family="Helvetica,sans-Serif" font-size="10.00">geojson::JSONProperty</text>
<polyline fill="none" stroke="black" points="200.5,-939.5 318.5,-939.5 "/>
<text text-anchor="start" x="208.5" y="-927.5" font-family="Helvetica,sans-Serif" font-size="10.00">&#45; type</text>
<text text-anchor="start" x="208.5" y="-916.5" font-family="Helvetica,sans-Serif" font-size="10.00">&#45; natural_number</text>
<text text-anchor="start" x="208.5" y="-905.5" font-family="Helvetica,sans-Serif" font-size="10.00">&#45; real_number</text>
<text text-anchor="start" x="208.5" y="-894.5" font-family="Helvetica,sans-Serif" font-size="10.00">&#45; boolean</text>
<text text-anchor="start" x="208.5" y="-883.5" font-family="Helvetica,sans-Serif" font-size="10.00">&#45; data</text>
<polyline fill="none" stroke="black" points="200.5,-876.5 318.5,-876.5 "/>
<text text-anchor="start" x="208.5" y="-864.5" font-family="Helvetica,sans-Serif" font-size="10.00">+ JSONProperty()</text>
<text text-anchor="start" x="208.5" y="-853.5" font-family="Helvetica,sans-Serif" font-size="10.00">+ JSONProperty()</text>
<text text-anchor="start" x="208.5" y="-842.5" font-family="Helvetica,sans-Serif" font-size="10.00">+ JSONProperty()</text>
<text text-anchor="start" x="208.5" y="-831.5" font-family="Helvetica,sans-Serif" font-size="10.00">+ JSONProperty()</text>
<text text-anchor="start" x="208.5" y="-820.5" font-family="Helvetica,sans-Serif" font-size="10.00">+ JSONProperty()</text>
<text text-anchor="start" x="208.5" y="-809.5" font-family="Helvetica,sans-Serif" font-size="10.00">+ JSONProperty()</text>
<text text-anchor="start" x="208.5" y="-798.5" font-family="Helvetica,sans-Serif" font-size="10.00">+ JSONProperty()</text>
<text text-anchor="start" x="208.5" y="-787.5" font-family="Helvetica,sans-Serif" font-size="10.00">+ JSONProperty()</text>
<text text-anchor="start" x="208.5" y="-776.5" font-family="Helvetica,sans-Serif" font-size="10.00">+ JSONProperty()</text>
<text text-anchor="start" x="208.5" y="-765.5" font-family="Helvetica,sans-Serif" font-size="10.00">+ JSONProperty()</text>
<text text-anchor="start" x="208.5" y="-754.5" font-family="Helvetica,sans-Serif" font-size="10.00">+ ~JSONProperty()</text>
<text text-anchor="start" x="208.5" y="-743.5" font-family="Helvetica,sans-Serif" font-size="10.00">+ JSONProperty()</text>
<text text-anchor="start" x="208.5" y="-732.5" font-family="Helvetica,sans-Serif" font-size="10.00">+ JSONProperty()</text>
<text text-anchor="start" x="208.5" y="-721.5" font-family="Helvetica,sans-Serif" font-size="10.00">+ get_type()</text>
<text text-anchor="start" x="208.5" y="-710.5" font-family="Helvetica,sans-Serif" font-size="10.00">+ as_natural_number()</text>
<text text-anchor="start" x="208.5" y="-699.5" font-family="Helvetica,sans-Serif" font-size="10.00">and 16 more...</text>
</a>
</g>
</g>
<!-- Node6&#45;&gt;Node9 -->
<g id="edge10" class="edge">
<title>Node6&#45;&gt;Node9</title>
<path fill="none" stroke="#404040" d="M225.46,-597.52C230.19,-603.23 234.44,-609.45 237.5,-616 246.85,-635.98 253.01,-658.18 256.96,-680.44"/>
<polygon fill="none" stroke="#404040" points="256.99,-680.59 261.89,-685.88 258.89,-692.44 253.99,-687.14 256.99,-680.59"/>
<text text-anchor="middle" x="272.5" y="-642.5" font-family="Helvetica,sans-Serif" font-size="10.00"> &#45;values</text>
</g>
<!-- Node7 -->
<g id="node7" class="node">
<title>Node7</title>
<g id="a_node7"><a xlink:title=" ">
<polygon fill="white" stroke="black" points="17,-1070 17,-1127 76,-1127 76,-1070 17,-1070"/>
<text text-anchor="middle" x="46.5" y="-1115" font-family="Helvetica,sans-Serif" font-size="10.00">std::string</text>
<polyline fill="none" stroke="black" points="17,-1108 76,-1108 "/>
<text text-anchor="middle" x="46.5" y="-1096" font-family="Helvetica,sans-Serif" font-size="10.00"> </text>
<polyline fill="none" stroke="black" points="17,-1089 76,-1089 "/>
<text text-anchor="middle" x="46.5" y="-1077" font-family="Helvetica,sans-Serif" font-size="10.00"> </text>
</a>
</g>
</g>
<!-- Node7&#45;&gt;Node2 -->
<g id="edge19" class="edge">
<title>Node7&#45;&gt;Node2</title>
<path fill="none" stroke="#404040" d="M41.37,-1069.82C28.57,-993.43 1.13,-774.83 72.5,-616 90.96,-574.91 94.26,-562.39 124.5,-529 181.53,-466.03 260.9,-409.92 319.18,-373"/>
<polygon fill="none" stroke="#404040" points="319.28,-372.94 322.23,-366.37 329.44,-366.56 326.48,-373.14 319.28,-372.94"/>
<text text-anchor="middle" x="80.5" y="-642.5" font-family="Helvetica,sans-Serif" font-size="10.00"> #id</text>
</g>
<!-- Node7&#45;&gt;Node6 -->
<g id="edge6" class="edge">
<title>Node7&#45;&gt;Node6</title>
<path fill="none" stroke="#404040" d="M46.8,-1069.55C48.07,-1003.15 54.55,-831.08 87.5,-692 95.84,-656.82 94.51,-644.7 116.5,-616 119.21,-612.47 122.22,-609.07 125.44,-605.83"/>
<polygon fill="none" stroke="#404040" points="125.53,-605.74 127.22,-598.73 134.35,-597.6 132.65,-604.61 125.53,-605.74"/>
<text text-anchor="middle" x="102" y="-823" font-family="Helvetica,sans-Serif" font-size="10.00"> +keys</text>
</g>
<!-- Node7&#45;&gt;Node9 -->
<g id="edge9" class="edge">
<title>Node7&#45;&gt;Node9</title>
<path fill="none" stroke="#404040" d="M52.34,-1069.74C59.12,-1039.16 70.62,-992.29 80.5,-977 108.5,-933.63 152.84,-896.22 190.38,-869.55"/>
<polygon fill="none" stroke="#404040" points="190.42,-869.52 193.06,-862.81 200.27,-862.66 197.63,-869.37 190.42,-869.52"/>
<text text-anchor="middle" x="94.5" y="-1014.5" font-family="Helvetica,sans-Serif" font-size="10.00"> &#45;key</text>
<text text-anchor="middle" x="94.5" y="-1003.5" font-family="Helvetica,sans-Serif" font-size="10.00">&#45;string</text>
</g>
<!-- Node8 -->
<g id="node8" class="node">
<title>Node8</title>
<g id="a_node8"><a xlink:title=" ">
<polygon fill="white" stroke="black" points="0,-1180.5 0,-1248.5 93,-1248.5 93,-1180.5 0,-1180.5"/>
<text text-anchor="start" x="8" y="-1236.5" font-family="Helvetica,sans-Serif" font-size="10.00">std::basic_string&lt;</text>
<text text-anchor="middle" x="46.5" y="-1225.5" font-family="Helvetica,sans-Serif" font-size="10.00"> Char &gt;</text>
<polyline fill="none" stroke="black" points="0,-1218.5 93,-1218.5 "/>
<text text-anchor="middle" x="46.5" y="-1206.5" font-family="Helvetica,sans-Serif" font-size="10.00"> </text>
<polyline fill="none" stroke="black" points="0,-1199.5 93,-1199.5 "/>
<text text-anchor="middle" x="46.5" y="-1187.5" font-family="Helvetica,sans-Serif" font-size="10.00"> </text>
</a>
</g>
</g>
<!-- Node8&#45;&gt;Node7 -->
<g id="edge7" class="edge">
<title>Node8&#45;&gt;Node7</title>
<path fill="none" stroke="midnightblue" d="M46.5,-1170.03C46.5,-1155.67 46.5,-1140.1 46.5,-1127.24"/>
<polygon fill="none" stroke="midnightblue" points="43,-1170.22 46.5,-1180.22 50,-1170.22 43,-1170.22"/>
</g>
<!-- Node9&#45;&gt;Node6 -->
<g id="edge8" class="edge">
<title>Node9&#45;&gt;Node6</title>
<path fill="none" stroke="#404040" d="M200.38,-712.56C195.57,-699.83 191.43,-686.81 188.5,-674 183.75,-653.23 182.96,-629.65 183.59,-609.71"/>
<polygon fill="none" stroke="#404040" points="183.6,-609.5 179.88,-603.32 184.15,-597.51 187.87,-603.69 183.6,-609.5"/>
<text text-anchor="middle" x="213" y="-642.5" font-family="Helvetica,sans-Serif" font-size="10.00"> +elements</text>
</g>
<!-- Node9&#45;&gt;Node10 -->
<g id="edge12" class="edge">
<title>Node9&#45;&gt;Node10</title>
<path fill="none" stroke="#404040" d="M271.22,-958.79C274.2,-992.45 277.2,-1026.38 279.49,-1052.25"/>
<polygon fill="none" stroke="#404040" points="279.5,-1052.32 284.01,-1057.94 280.56,-1064.27 276.04,-1058.65 279.5,-1052.32"/>
<text text-anchor="middle" x="304" y="-1009" font-family="Helvetica,sans-Serif" font-size="10.00"> +elements</text>
</g>
<!-- Node10&#45;&gt;Node9 -->
<g id="edge11" class="edge">
<title>Node10&#45;&gt;Node9</title>
<path fill="none" stroke="#404040" d="M322.33,-1064.45C326.87,-1058.79 330.83,-1052.58 333.5,-1046 345.03,-1017.58 340.45,-1006.87 333.5,-977 330.85,-965.62 327.22,-954.11 322.97,-942.79"/>
<polygon fill="none" stroke="#404040" points="322.94,-942.71 317.01,-938.6 318.53,-931.55 324.46,-935.66 322.94,-942.71"/>
<text text-anchor="middle" x="365" y="-1009" font-family="Helvetica,sans-Serif" font-size="10.00"> &#45;value_list</text>
</g>
<!-- Node11&#45;&gt;Node6 -->
<g id="edge14" class="edge">
<title>Node11&#45;&gt;Node6</title>
<path fill="none" stroke="orange" d="M198.89,-1176.98C178.44,-1144.27 150.9,-1094.18 139.5,-1046 100.41,-880.87 152.9,-676.54 176.78,-597.69"/>
<polygon fill="orange" stroke="orange" points="196.13,-1179.16 204.45,-1185.72 202.04,-1175.41 196.13,-1179.16"/>
<text text-anchor="middle" x="204.5" y="-1009" font-family="Helvetica,sans-Serif" font-size="10.00"> &lt; std::string, JSONProperty &gt;</text>
</g>
<!-- Node12 -->
<g id="node12" class="node">
<title>Node12</title>
<g id="a_node12"><a xlink:title=" ">
<polygon fill="white" stroke="black" points="209,-1296.5 209,-1353.5 238,-1353.5 238,-1296.5 209,-1296.5"/>
<text text-anchor="middle" x="223.5" y="-1341.5" font-family="Helvetica,sans-Serif" font-size="10.00">K</text>
<polyline fill="none" stroke="black" points="209,-1334.5 238,-1334.5 "/>
<text text-anchor="middle" x="223.5" y="-1322.5" font-family="Helvetica,sans-Serif" font-size="10.00"> </text>
<polyline fill="none" stroke="black" points="209,-1315.5 238,-1315.5 "/>
<text text-anchor="middle" x="223.5" y="-1303.5" font-family="Helvetica,sans-Serif" font-size="10.00"> </text>
</a>
</g>
</g>
<!-- Node12&#45;&gt;Node11 -->
<g id="edge15" class="edge">
<title>Node12&#45;&gt;Node11</title>
<path fill="none" stroke="#404040" d="M223.5,-1296.34C223.5,-1283.84 223.5,-1268.84 223.5,-1255.18"/>
<polygon fill="none" stroke="#404040" points="223.5,-1255.11 219.5,-1249.11 223.5,-1243.11 227.5,-1249.11 223.5,-1255.11"/>
<text text-anchor="middle" x="238" y="-1270" font-family="Helvetica,sans-Serif" font-size="10.00"> +keys</text>
</g>
<!-- Node13&#45;&gt;Node2 -->
<g id="edge17" class="edge">
<title>Node13&#45;&gt;Node2</title>
<path fill="none" stroke="#404040" d="M404.72,-616.47C403.85,-585.97 402.38,-534.32 400.92,-483.04"/>
<polygon fill="none" stroke="#404040" points="400.91,-482.72 396.75,-476.84 400.57,-470.73 404.74,-476.61 400.91,-482.72"/>
<text text-anchor="middle" x="438" y="-561" font-family="Helvetica,sans-Serif" font-size="10.00"> #bounding_box</text>
</g>
<!-- Node14&#45;&gt;Node2 -->
<g id="edge20" class="edge">
<title>Node14&#45;&gt;Node2</title>
<path fill="none" stroke="#404040" d="M429.72,-90.58C432.46,-103.15 435.15,-117.65 436.5,-131 437.79,-143.8 437.86,-157.01 437.03,-170.22"/>
<polygon fill="none" stroke="#404040" points="437.01,-170.39 440.5,-176.7 436.02,-182.35 432.53,-176.04 437.01,-170.39"/>
<text text-anchor="middle" x="466" y="-156" font-family="Helvetica,sans-Serif" font-size="10.00"> #destination</text>
<text text-anchor="middle" x="466" y="-145" font-family="Helvetica,sans-Serif" font-size="10.00">#neighbors</text>
<text text-anchor="middle" x="466" y="-134" font-family="Helvetica,sans-Serif" font-size="10.00">#origination</text>
</g>
</g>
</svg>
        <g id="navigator" transform="translate(0 0)" fill="#404254">
                <rect fill="#f2f5e9" fill-opacity="0.5" stroke="#606060" stroke-width=".5" x="0" y="0" width="60" height="60"/>
                <use id="zoomplus" xlink:href="#zoomPlus" x="17" y="9" onmousedown="handleZoom(evt,'in')"/>
                <use id="zoomminus" xlink:href="#zoomMin" x="42" y="9" onmousedown="handleZoom(evt,'out')"/>
                <use id="reset" xlink:href="#resetDef" x="30" y="36" onmousedown="handleReset()"/>
                <g id="arrowUp" xlink:href="#dirArrow" transform="translate(30 24)" onmousedown="handlePan(0,-1)">
                  <use xlink:href="#rim" fill="#404040">
                        <set attributeName="fill" to="#808080" begin="arrowUp.mouseover" end="arrowUp.mouseout"/>
                  </use>
                  <path fill="none" stroke="white" stroke-width="1.5" d="M0,-3.0v7 M-2.5,-0.5L0,-3.0L2.5,-0.5"/>
                </g>
                <g id="arrowRight" xlink:href="#dirArrow" transform="rotate(90) translate(36 -43)" onmousedown="handlePan(1,0)">
                  <use xlink:href="#rim" fill="#404040">
                        <set attributeName="fill" to="#808080" begin="arrowRight.mouseover" end="arrowRight.mouseout"/>
                  </use>
                  <path fill="none" stroke="white" stroke-width="1.5" d="M0,-3.0v7 M-2.5,-0.5L0,-3.0L2.5,-0.5"/>
                </g>
                <g id="arrowDown" xlink:href="#dirArrow" transform="rotate(180) translate(-30 -48)" onmousedown="handlePan(0,1)">
                  <use xlink:href="#rim" fill="#404040">
                        <set attributeName="fill" to="#808080" begin="arrowDown.mouseover" end="arrowDown.mouseout"/>
                  </use>
                  <path fill="none" stroke="white" stroke-width="1.5" d="M0,-3.0v7 M-2.5,-0.5L0,-3.0L2.5,-0.5"/>
                </g>
                <g id="arrowLeft" xlink:href="#dirArrow" transform="rotate(270) translate(-36 17)" onmousedown="handlePan(-1,0)">
                  <use xlink:href="#rim" fill="#404040">
                        <set attributeName="fill" to="#808080" begin="arrowLeft.mouseover" end="arrowLeft.mouseout"/>
                  </use>
                  <path fill="none" stroke="white" stroke-width="1.5" d="M0,-3.0v7 M-2.5,-0.5L0,-3.0L2.5,-0.5"/>
                </g>
        </g>
        <svg viewBox="0 0 15 15" width="100%" height="30px" preserveAspectRatio="xMaxYMin meet">
         <g id="arrow_out" transform="scale(0.3 0.3)">
          <a xlink:href="classgeojson_1_1_multi_line_string_feature__coll__graph_org.svg" target="_base">
           <rect id="button" ry="5" rx="5" y="6" x="6" height="38" width="38"
                fill="#f2f5e9" fill-opacity="0.5" stroke="#606060" stroke-width="1.0"/>
           <path id="arrow"
             d="M 11.500037,31.436501 C 11.940474,20.09759 22.043105,11.32322 32.158766,21.979434 L 37.068811,17.246167 C 37.068811,17.246167 37.088388,32 37.088388,32 L 22.160133,31.978069 C 22.160133,31.978069 26.997745,27.140456 26.997745,27.140456 C 18.528582,18.264221 13.291696,25.230495 11.500037,31.436501 z"
             style="fill:#404040;"/>
          </a>
         </g>
        </svg>
</svg>
