<?xml version="1.0" encoding="UTF-8" standalone="no"?>
<!DOCTYPE svg PUBLIC "-//W3C//DTD SVG 1.1//EN"
 "http://www.w3.org/Graphics/SVG/1.1/DTD/svg11.dtd">
<!-- Generated by graphviz version 12.2.0 (20241103.1931)
 -->
<!-- Title: ngen::mdframe Pages: 1 -->
<!--zoomable 1246 -->

<svg id="main" version="1.1" xmlns="http://www.w3.org/2000/svg" xmlns:xlink="http://www.w3.org/1999/xlink" xml:space="preserve" onload="init(evt)">

<style type="text/css"><![CDATA[
.node, .edge {opacity: 0.7;}
.node.selected, .edge.selected {opacity: 1;}
.edge:hover path { stroke: red; }
.edge:hover polygon { stroke: red; fill: red; }
]]></style>

<defs>
  <circle id="rim" cx="0" cy="0" r="7"/>
  <circle id="rim2" cx="0" cy="0" r="3.5"/>
  <g id="zoomPlus">
    <use xlink:href="#rim" fill="#404040"><set attributeName="fill" to="#808080" begin="zoomplus.mouseover" end="zoomplus.mouseout"/></use>
    <path d="M-4,0h8M0,-4v8" fill="none" stroke="white" stroke-width="1.5" pointer-events="none"/>
  </g>
  <g id="zoomMin">
    <use xlink:href="#rim" fill="#404040"><set attributeName="fill" to="#808080" begin="zoomminus.mouseover" end="zoomminus.mouseout"/></use>
    <path d="M-4,0h8" fill="none" stroke="white" stroke-width="1.5" pointer-events="none"/>
  </g>
  <g id="arrowUp" transform="translate(30 24)">
    <use xlink:href="#rim"/>
    <path pointer-events="none" fill="none" stroke="white" stroke-width="1.5" d="M0,-3.0v7 M-2.5,-0.5L0,-3.0L2.5,-0.5"/>
  </g>
  <g id="arrowRight" transform="rotate(90) translate(36 -43)">
    <use xlink:href="#rim"/>
    <path pointer-events="none" fill="none" stroke="white" stroke-width="1.5" d="M0,-3.0v7 M-2.5,-0.5L0,-3.0L2.5,-0.5"/>
  </g>
  <g id="arrowDown" transform="rotate(180) translate(-30 -48)">
    <use xlink:href="#rim"/>
    <path pointer-events="none" fill="none" stroke="white" stroke-width="1.5" d="M0,-3.0v7 M-2.5,-0.5L0,-3.0L2.5,-0.5"/>
  </g>
  <g id="arrowLeft" transform="rotate(270) translate(-36 17)">
    <use xlink:href="#rim"/>
    <path pointer-events="none" fill="none" stroke="white" stroke-width="1.5" d="M0,-3.0v7 M-2.5,-0.5L0,-3.0L2.5,-0.5"/>
  </g>
  <g id="resetDef">
    <use xlink:href="#rim2" fill="#404040"><set attributeName="fill" to="#808080" begin="reset.mouseover" end="reset.mouseout"/></use>
  </g>
</defs>
<script type="application/ecmascript">
var viewWidth = 565;
var viewHeight = 1246;
var sectionId = 'dynsection-0';
</script>
<script type="application/ecmascript" xlink:href="svg.min.js"/>
<svg id="graph" class="graph">
<g id="viewport">
<title>ngen::mdframe</title>
<!-- Node1 -->
<g id="Node000001" class="node">
<title>Node1</title>
<g id="a_Node000001"><a xlink:title="A multi&#45;dimensional, tagged data frame.">
<polygon fill="#999999" stroke="none" points="153,-217.5 63.75,-217.5 63.75,0 153,0 153,-217.5"/>
<text text-anchor="start" x="76.5" y="-204" font-family="Helvetica,sans-Serif" font-size="10.00">ngen::mdframe</text>
<text text-anchor="start" x="106.88" y="-188.75" font-family="Helvetica,sans-Serif" font-size="10.00"> </text>
<text text-anchor="start" x="67.75" y="-173.5" font-family="Helvetica,sans-Serif" font-size="10.00">+</text>
<text text-anchor="start" x="77.75" y="-173.5" font-family="Helvetica,sans-Serif" font-size="10.00">get_dimension()</text>
<text text-anchor="start" x="67.75" y="-158.25" font-family="Helvetica,sans-Serif" font-size="10.00">+</text>
<text text-anchor="start" x="77.75" y="-158.25" font-family="Helvetica,sans-Serif" font-size="10.00">has_dimension()</text>
<text text-anchor="start" x="67.75" y="-143" font-family="Helvetica,sans-Serif" font-size="10.00">+</text>
<text text-anchor="start" x="77.75" y="-143" font-family="Helvetica,sans-Serif" font-size="10.00">add_dimension()</text>
<text text-anchor="start" x="67.75" y="-127.75" font-family="Helvetica,sans-Serif" font-size="10.00">+</text>
<text text-anchor="start" x="77.75" y="-127.75" font-family="Helvetica,sans-Serif" font-size="10.00">add_dimension()</text>
<text text-anchor="start" x="67.75" y="-112.5" font-family="Helvetica,sans-Serif" font-size="10.00">+</text>
<text text-anchor="start" x="77.75" y="-112.5" font-family="Helvetica,sans-Serif" font-size="10.00">get_variable()</text>
<text text-anchor="start" x="67.75" y="-97.25" font-family="Helvetica,sans-Serif" font-size="10.00">+</text>
<text text-anchor="start" x="77.75" y="-97.25" font-family="Helvetica,sans-Serif" font-size="10.00">operator[]()</text>
<text text-anchor="start" x="67.75" y="-82" font-family="Helvetica,sans-Serif" font-size="10.00">+</text>
<text text-anchor="start" x="77.75" y="-82" font-family="Helvetica,sans-Serif" font-size="10.00">has_variable()</text>
<text text-anchor="start" x="67.75" y="-66.75" font-family="Helvetica,sans-Serif" font-size="10.00">+</text>
<text text-anchor="start" x="77.75" y="-66.75" font-family="Helvetica,sans-Serif" font-size="10.00">add_variable()</text>
<text text-anchor="start" x="67.75" y="-51.5" font-family="Helvetica,sans-Serif" font-size="10.00">+</text>
<text text-anchor="start" x="77.75" y="-51.5" font-family="Helvetica,sans-Serif" font-size="10.00">to_csv()</text>
<text text-anchor="start" x="67.75" y="-36.25" font-family="Helvetica,sans-Serif" font-size="10.00">+</text>
<text text-anchor="start" x="77.75" y="-36.25" font-family="Helvetica,sans-Serif" font-size="10.00">to_netcdf()</text>
<text text-anchor="start" x="69.25" y="-21" font-family="Helvetica,sans-Serif" font-size="10.00">&#45;</text>
<text text-anchor="start" x="77.75" y="-21" font-family="Helvetica,sans-Serif" font-size="10.00">find_dimension()</text>
<text text-anchor="start" x="69.25" y="-5.75" font-family="Helvetica,sans-Serif" font-size="10.00">&#45;</text>
<text text-anchor="start" x="77.75" y="-5.75" font-family="Helvetica,sans-Serif" font-size="10.00">find_variable()</text>
<polygon fill="#666666" stroke="#666666" points="63.75,-200.25 63.75,-200.25 153,-200.25 153,-200.25 63.75,-200.25"/>
<polygon fill="#666666" stroke="#666666" points="63.75,-185 63.75,-185 153,-185 153,-185 63.75,-185"/>
<polygon fill="none" stroke="#666666" points="63.75,0 63.75,-217.5 153,-217.5 153,0 63.75,0"/>
</a>
</g>
</g>
<!-- Node2 -->
<g id="Node000002" class="node">
<title>Node2</title>
<g id="a_Node000002"><a xlink:title=" ">
<polygon fill="white" stroke="none" points="147.38,-767 37.38,-767 37.38,-694.75 147.38,-694.75 147.38,-767"/>
<text text-anchor="start" x="41.38" y="-753.5" font-family="Helvetica,sans-Serif" font-size="10.00">std::unordered_set</text>
<text text-anchor="start" x="41.38" y="-742.25" font-family="Helvetica,sans-Serif" font-size="10.00">&lt; dimension, dimension</text>
<text text-anchor="start" x="75.5" y="-731" font-family="Helvetica,sans-Serif" font-size="10.00">::hash &gt;</text>
<text text-anchor="start" x="90.88" y="-715.75" font-family="Helvetica,sans-Serif" font-size="10.00"> </text>
<text text-anchor="start" x="90.88" y="-700.5" font-family="Helvetica,sans-Serif" font-size="10.00"> </text>
<polygon fill="#666666" stroke="#666666" points="37.38,-727.25 37.38,-727.25 147.38,-727.25 147.38,-727.25 37.38,-727.25"/>
<polygon fill="#666666" stroke="#666666" points="37.38,-712 37.38,-712 147.38,-712 147.38,-712 37.38,-712"/>
<polygon fill="none" stroke="#666666" points="37.38,-694.75 37.38,-767 147.38,-767 147.38,-694.75 37.38,-694.75"/>
</a>
</g>
</g>
<!-- Node2&#45;&gt;Node1 -->
<g id="edge1_Node000001_Node000002" class="edge">
<title>Node2&#45;&gt;Node1</title>
<g id="a_edge1_Node000001_Node000002"><a xlink:title=" ">
<path fill="none" stroke="#63b8ff" d="M91.71,-694.99C90.57,-627.26 88.78,-473.22 93.12,-343.75 94.36,-306.81 96.64,-266.63 99.07,-230.17"/>
<polygon fill="none" stroke="#63b8ff" points="99.06,-230.31 95.47,-224.05 99.87,-218.34 103.45,-224.59 99.06,-230.31"/>
</a>
</g>
<text text-anchor="middle" x="127.25" y="-345.5" font-family="Helvetica,sans-Serif" font-size="10.00" fill="grey"> &#45;m_dimensions</text>
</g>
<!-- Node3 -->
<g id="Node000003" class="node">
<title>Node3</title>
<g id="a_Node000003"><a xlink:href="structngen_1_1detail_1_1dimension.html" target="_top" xlink:title="Dimension Key.">
<polygon fill="white" stroke="none" points="442.12,-1043 336.62,-1043 336.62,-825.5 442.12,-825.5 442.12,-1043"/>
<text text-anchor="start" x="340.62" y="-1029.5" font-family="Helvetica,sans-Serif" font-size="10.00">ngen::detail::dimension</text>
<text text-anchor="start" x="350.12" y="-1014.25" font-family="Helvetica,sans-Serif" font-size="10.00">&#45;</text>
<text text-anchor="start" x="366.62" y="-1014.25" font-family="Helvetica,sans-Serif" font-size="10.00">mdframe</text>
<text text-anchor="start" x="350.12" y="-999" font-family="Helvetica,sans-Serif" font-size="10.00">&#45;</text>
<text text-anchor="start" x="366.62" y="-999" font-family="Helvetica,sans-Serif" font-size="10.00">m_size</text>
<text text-anchor="start" x="348.62" y="-983.75" font-family="Helvetica,sans-Serif" font-size="10.00">+</text>
<text text-anchor="start" x="366.62" y="-983.75" font-family="Helvetica,sans-Serif" font-size="10.00">dimension()</text>
<text text-anchor="start" x="348.62" y="-968.5" font-family="Helvetica,sans-Serif" font-size="10.00">+</text>
<text text-anchor="start" x="366.62" y="-968.5" font-family="Helvetica,sans-Serif" font-size="10.00">dimension()</text>
<text text-anchor="start" x="348.62" y="-953.25" font-family="Helvetica,sans-Serif" font-size="10.00">+</text>
<text text-anchor="start" x="366.62" y="-953.25" font-family="Helvetica,sans-Serif" font-size="10.00">operator=()</text>
<text text-anchor="start" x="348.62" y="-938" font-family="Helvetica,sans-Serif" font-size="10.00">+</text>
<text text-anchor="start" x="366.62" y="-938" font-family="Helvetica,sans-Serif" font-size="10.00">dimension()</text>
<text text-anchor="start" x="348.62" y="-922.75" font-family="Helvetica,sans-Serif" font-size="10.00">+</text>
<text text-anchor="start" x="366.62" y="-922.75" font-family="Helvetica,sans-Serif" font-size="10.00">operator=()</text>
<text text-anchor="start" x="348.62" y="-907.5" font-family="Helvetica,sans-Serif" font-size="10.00">+</text>
<text text-anchor="start" x="366.62" y="-907.5" font-family="Helvetica,sans-Serif" font-size="10.00">~dimension()</text>
<text text-anchor="start" x="348.62" y="-892.25" font-family="Helvetica,sans-Serif" font-size="10.00">+</text>
<text text-anchor="start" x="366.62" y="-892.25" font-family="Helvetica,sans-Serif" font-size="10.00">dimension()</text>
<text text-anchor="start" x="348.62" y="-877" font-family="Helvetica,sans-Serif" font-size="10.00">+</text>
<text text-anchor="start" x="366.62" y="-877" font-family="Helvetica,sans-Serif" font-size="10.00">dimension()</text>
<text text-anchor="start" x="348.62" y="-861.75" font-family="Helvetica,sans-Serif" font-size="10.00">+</text>
<text text-anchor="start" x="366.62" y="-861.75" font-family="Helvetica,sans-Serif" font-size="10.00">operator==()</text>
<text text-anchor="start" x="348.62" y="-846.5" font-family="Helvetica,sans-Serif" font-size="10.00">+</text>
<text text-anchor="start" x="366.62" y="-846.5" font-family="Helvetica,sans-Serif" font-size="10.00">size()</text>
<text text-anchor="start" x="348.62" y="-831.25" font-family="Helvetica,sans-Serif" font-size="10.00">+</text>
<text text-anchor="start" x="366.62" y="-831.25" font-family="Helvetica,sans-Serif" font-size="10.00">name()</text>
<polygon fill="#666666" stroke="#666666" points="336.62,-1025.75 336.62,-1025.75 442.12,-1025.75 442.12,-1025.75 336.62,-1025.75"/>
<polygon fill="#666666" stroke="#666666" points="336.62,-995.25 336.62,-995.25 364.62,-995.25 364.62,-995.25 336.62,-995.25"/>
<polygon fill="#666666" stroke="#666666" points="364.62,-995.25 364.62,-995.25 442.12,-995.25 442.12,-995.25 364.62,-995.25"/>
<polygon fill="none" stroke="#666666" points="336.62,-825.5 336.62,-1043 442.12,-1043 442.12,-825.5 336.62,-825.5"/>
</a>
</g>
</g>
<!-- Node3&#45;&gt;Node2 -->
<g id="edge2_Node000002_Node000003" class="edge">
<title>Node3&#45;&gt;Node2</title>
<g id="a_edge2_Node000002_Node000003"><a xlink:title=" ">
<path fill="none" stroke="#63b8ff" d="M336.67,-835.43C332.81,-831.79 328.71,-828.45 324.38,-825.5 284.31,-798.27 262.28,-824.38 216.88,-807.5 194.27,-799.1 171.24,-786.47 151.23,-773.92"/>
<polygon fill="none" stroke="#63b8ff" points="151.29,-773.96 144.08,-774.08 141.2,-767.47 148.41,-767.35 151.29,-773.96"/>
</a>
</g>
<text text-anchor="middle" x="231.12" y="-792.38" font-family="Helvetica,sans-Serif" font-size="10.00" fill="grey"> +keys</text>
</g>
<!-- Node10 -->
<g id="Node000010" class="node">
<title>Node10</title>
<g id="a_Node000010"><a xlink:title=" ">
<polygon fill="white" stroke="none" points="387.5,-761.38 299.25,-761.38 299.25,-700.38 387.5,-700.38 387.5,-761.38"/>
<text text-anchor="start" x="303.25" y="-747.88" font-family="Helvetica,sans-Serif" font-size="10.00">std::vector&lt; ngen::</text>
<text text-anchor="start" x="303.25" y="-736.62" font-family="Helvetica,sans-Serif" font-size="10.00">detail::dimension &gt;</text>
<text text-anchor="start" x="341.88" y="-721.38" font-family="Helvetica,sans-Serif" font-size="10.00"> </text>
<text text-anchor="start" x="341.88" y="-706.12" font-family="Helvetica,sans-Serif" font-size="10.00"> </text>
<polygon fill="#666666" stroke="#666666" points="299.25,-732.88 299.25,-732.88 387.5,-732.88 387.5,-732.88 299.25,-732.88"/>
<polygon fill="#666666" stroke="#666666" points="299.25,-717.62 299.25,-717.62 387.5,-717.62 387.5,-717.62 299.25,-717.62"/>
<polygon fill="none" stroke="#666666" points="299.25,-700.38 299.25,-761.38 387.5,-761.38 387.5,-700.38 299.25,-700.38"/>
</a>
</g>
</g>
<!-- Node3&#45;&gt;Node10 -->
<g id="edge12_Node000010_Node000003" class="edge">
<title>Node3&#45;&gt;Node10</title>
<g id="a_edge12_Node000010_Node000003"><a xlink:title=" ">
<path fill="none" stroke="#63b8ff" d="M386.89,-825.5C384.76,-811.66 381.7,-797.85 377.38,-785 375.95,-780.77 374.12,-776.55 372.04,-772.43"/>
<polygon fill="none" stroke="#63b8ff" points="372.04,-772.42 365.61,-769.16 366.14,-761.97 372.57,-765.23 372.04,-772.42"/>
</a>
</g>
<text text-anchor="middle" x="406.84" y="-792.38" font-family="Helvetica,sans-Serif" font-size="10.00" fill="grey"> +elements</text>
</g>
<!-- Node4 -->
<g id="Node000004" class="node">
<title>Node4</title>
<g id="a_Node000004"><a xlink:title=" ">
<polygon fill="white" stroke="none" points="495.38,-1140 445.38,-1140 445.38,-1090.25 495.38,-1090.25 495.38,-1140"/>
<text text-anchor="start" x="449.38" y="-1126.5" font-family="Helvetica,sans-Serif" font-size="10.00">std::string</text>
<text text-anchor="start" x="468.88" y="-1111.25" font-family="Helvetica,sans-Serif" font-size="10.00"> </text>
<text text-anchor="start" x="468.88" y="-1096" font-family="Helvetica,sans-Serif" font-size="10.00"> </text>
<polygon fill="#666666" stroke="#666666" points="445.38,-1122.75 445.38,-1122.75 495.38,-1122.75 495.38,-1122.75 445.38,-1122.75"/>
<polygon fill="#666666" stroke="#666666" points="445.38,-1107.5 445.38,-1107.5 495.38,-1107.5 495.38,-1107.5 445.38,-1107.5"/>
<polygon fill="none" stroke="#666666" points="445.38,-1090.25 445.38,-1140 495.38,-1140 495.38,-1090.25 445.38,-1090.25"/>
</a>
</g>
</g>
<!-- Node4&#45;&gt;Node3 -->
<g id="edge3_Node000003_Node000004" class="edge">
<title>Node4&#45;&gt;Node3</title>
<g id="a_edge3_Node000003_Node000004"><a xlink:title=" ">
<path fill="none" stroke="#63b8ff" d="M445.61,-1101.62C434.11,-1094.55 421.3,-1084.63 413.62,-1072.25 410.21,-1066.75 407.25,-1060.89 404.67,-1054.82"/>
<polygon fill="none" stroke="#63b8ff" points="404.74,-1054.99 398.88,-1050.79 400.51,-1043.76 406.37,-1047.97 404.74,-1054.99"/>
</a>
</g>
<text text-anchor="middle" x="435" y="-1062.75" font-family="Helvetica,sans-Serif" font-size="10.00" fill="grey"> &#45;m_name</text>
</g>
<!-- Node8 -->
<g id="Node000008" class="node">
<title>Node8</title>
<g id="a_Node000008"><a xlink:title=" ">
<polygon fill="white" stroke="none" points="278.12,-325.75 172.62,-325.75 172.62,-264.75 278.12,-264.75 278.12,-325.75"/>
<text text-anchor="start" x="176.62" y="-312.25" font-family="Helvetica,sans-Serif" font-size="10.00">std::unordered_map</text>
<text text-anchor="start" x="176.62" y="-301" font-family="Helvetica,sans-Serif" font-size="10.00">&lt; std::string, variable &gt;</text>
<text text-anchor="start" x="223.88" y="-285.75" font-family="Helvetica,sans-Serif" font-size="10.00"> </text>
<text text-anchor="start" x="223.88" y="-270.5" font-family="Helvetica,sans-Serif" font-size="10.00"> </text>
<polygon fill="#666666" stroke="#666666" points="172.62,-297.25 172.62,-297.25 278.12,-297.25 278.12,-297.25 172.62,-297.25"/>
<polygon fill="#666666" stroke="#666666" points="172.62,-282 172.62,-282 278.12,-282 278.12,-282 172.62,-282"/>
<polygon fill="none" stroke="#666666" points="172.62,-264.75 172.62,-325.75 278.12,-325.75 278.12,-264.75 172.62,-264.75"/>
</a>
</g>
</g>
<!-- Node4&#45;&gt;Node8 -->
<g id="edge8_Node000008_Node000004" class="edge">
<title>Node4&#45;&gt;Node8</title>
<g id="a_edge8_Node000008_Node000004"><a xlink:title=" ">
<path fill="none" stroke="#63b8ff" d="M483.39,-1090.33C500.49,-1056.78 528.38,-993.2 528.38,-935.25 528.38,-935.25 528.38,-935.25 528.38,-509.25 528.38,-393.76 379.23,-335.48 290.21,-310.98"/>
<polygon fill="none" stroke="#63b8ff" points="290.27,-310.99 283.45,-313.32 278.68,-307.91 285.51,-305.59 290.27,-310.99"/>
</a>
</g>
<text text-anchor="middle" x="542.62" y="-727" font-family="Helvetica,sans-Serif" font-size="10.00" fill="grey"> +keys</text>
</g>
<!-- Node9 -->
<g id="Node000009" class="node">
<title>Node9</title>
<g id="a_Node000009"><a xlink:href="structngen_1_1detail_1_1variable.html" target="_top" xlink:title="Variable Key.">
<polygon fill="white" stroke="none" points="390.88,-647.5 295.88,-647.5 295.88,-373 390.88,-373 390.88,-647.5"/>
<text text-anchor="start" x="299.88" y="-634" font-family="Helvetica,sans-Serif" font-size="10.00">ngen::detail::variable</text>
<text text-anchor="start" x="299.88" y="-622.75" font-family="Helvetica,sans-Serif" font-size="10.00">&lt; SupportedTypes &gt;</text>
<text text-anchor="start" x="306.75" y="-607.5" font-family="Helvetica,sans-Serif" font-size="10.00">&#45;</text>
<text text-anchor="start" x="320.62" y="-607.5" font-family="Helvetica,sans-Serif" font-size="10.00">m_data</text>
<text text-anchor="start" x="305.25" y="-592.25" font-family="Helvetica,sans-Serif" font-size="10.00">+</text>
<text text-anchor="start" x="320.62" y="-592.25" font-family="Helvetica,sans-Serif" font-size="10.00">variable()</text>
<text text-anchor="start" x="305.25" y="-577" font-family="Helvetica,sans-Serif" font-size="10.00">+</text>
<text text-anchor="start" x="320.62" y="-577" font-family="Helvetica,sans-Serif" font-size="10.00">set_data()</text>
<text text-anchor="start" x="305.25" y="-561.75" font-family="Helvetica,sans-Serif" font-size="10.00">+</text>
<text text-anchor="start" x="320.62" y="-561.75" font-family="Helvetica,sans-Serif" font-size="10.00">set_data()</text>
<text text-anchor="start" x="305.25" y="-546.5" font-family="Helvetica,sans-Serif" font-size="10.00">+</text>
<text text-anchor="start" x="320.62" y="-546.5" font-family="Helvetica,sans-Serif" font-size="10.00">values()</text>
<text text-anchor="start" x="305.25" y="-531.25" font-family="Helvetica,sans-Serif" font-size="10.00">+</text>
<text text-anchor="start" x="320.62" y="-531.25" font-family="Helvetica,sans-Serif" font-size="10.00">values()</text>
<text text-anchor="start" x="305.25" y="-516" font-family="Helvetica,sans-Serif" font-size="10.00">+</text>
<text text-anchor="start" x="320.62" y="-516" font-family="Helvetica,sans-Serif" font-size="10.00">operator==()</text>
<text text-anchor="start" x="305.25" y="-500.75" font-family="Helvetica,sans-Serif" font-size="10.00">+</text>
<text text-anchor="start" x="320.62" y="-500.75" font-family="Helvetica,sans-Serif" font-size="10.00">name()</text>
<text text-anchor="start" x="305.25" y="-485.5" font-family="Helvetica,sans-Serif" font-size="10.00">+</text>
<text text-anchor="start" x="320.62" y="-485.5" font-family="Helvetica,sans-Serif" font-size="10.00">dimensions()</text>
<text text-anchor="start" x="305.25" y="-470.25" font-family="Helvetica,sans-Serif" font-size="10.00">+</text>
<text text-anchor="start" x="320.62" y="-470.25" font-family="Helvetica,sans-Serif" font-size="10.00">size()</text>
<text text-anchor="start" x="305.25" y="-455" font-family="Helvetica,sans-Serif" font-size="10.00">+</text>
<text text-anchor="start" x="320.62" y="-455" font-family="Helvetica,sans-Serif" font-size="10.00">rank()</text>
<text text-anchor="start" x="305.25" y="-439.75" font-family="Helvetica,sans-Serif" font-size="10.00">+</text>
<text text-anchor="start" x="320.62" y="-439.75" font-family="Helvetica,sans-Serif" font-size="10.00">insert()</text>
<text text-anchor="start" x="305.25" y="-424.5" font-family="Helvetica,sans-Serif" font-size="10.00">+</text>
<text text-anchor="start" x="320.62" y="-424.5" font-family="Helvetica,sans-Serif" font-size="10.00">at()</text>
<text text-anchor="start" x="305.25" y="-409.25" font-family="Helvetica,sans-Serif" font-size="10.00">+</text>
<text text-anchor="start" x="320.62" y="-409.25" font-family="Helvetica,sans-Serif" font-size="10.00">at()</text>
<text text-anchor="start" x="305.25" y="-394" font-family="Helvetica,sans-Serif" font-size="10.00">+</text>
<text text-anchor="start" x="320.62" y="-394" font-family="Helvetica,sans-Serif" font-size="10.00">shape()</text>
<text text-anchor="start" x="305.25" y="-378.75" font-family="Helvetica,sans-Serif" font-size="10.00">+</text>
<text text-anchor="start" x="320.62" y="-378.75" font-family="Helvetica,sans-Serif" font-size="10.00">make()</text>
<polygon fill="#666666" stroke="#666666" points="295.88,-619 295.88,-619 390.88,-619 390.88,-619 295.88,-619"/>
<polygon fill="#666666" stroke="#666666" points="295.88,-603.75 295.88,-603.75 318.62,-603.75 318.62,-603.75 295.88,-603.75"/>
<polygon fill="#666666" stroke="#666666" points="318.62,-603.75 318.62,-603.75 390.88,-603.75 390.88,-603.75 318.62,-603.75"/>
<polygon fill="none" stroke="#666666" points="295.88,-373 295.88,-647.5 390.88,-647.5 390.88,-373 295.88,-373"/>
</a>
</g>
</g>
<!-- Node4&#45;&gt;Node9 -->
<g id="edge10_Node000009_Node000004" class="edge">
<title>Node4&#45;&gt;Node9</title>
<g id="a_edge10_Node000009_Node000004"><a xlink:title=" ">
<path fill="none" stroke="#63b8ff" d="M470.85,-1090.5C471.51,-1022.47 468.49,-821.08 415.38,-665.5 409.84,-649.3 403.13,-632.53 396.05,-616.28"/>
<polygon fill="none" stroke="#63b8ff" points="396.07,-616.34 389.98,-612.48 391.2,-605.37 397.29,-609.23 396.07,-616.34"/>
</a>
</g>
<text text-anchor="middle" x="470.77" y="-792.38" font-family="Helvetica,sans-Serif" font-size="10.00" fill="grey"> &#45;m_name</text>
</g>
<!-- Node5 -->
<g id="Node000005" class="node">
<title>Node5</title>
<g id="a_Node000005"><a xlink:title=" ">
<polygon fill="white" stroke="none" points="512.62,-1238 428.12,-1238 428.12,-1177 512.62,-1177 512.62,-1238"/>
<text text-anchor="start" x="432.12" y="-1224.5" font-family="Helvetica,sans-Serif" font-size="10.00">std::basic_string&lt;</text>
<text text-anchor="start" x="455" y="-1213.25" font-family="Helvetica,sans-Serif" font-size="10.00"> Char &gt;</text>
<text text-anchor="start" x="468.88" y="-1198" font-family="Helvetica,sans-Serif" font-size="10.00"> </text>
<text text-anchor="start" x="468.88" y="-1182.75" font-family="Helvetica,sans-Serif" font-size="10.00"> </text>
<polygon fill="#666666" stroke="#666666" points="428.12,-1209.5 428.12,-1209.5 512.62,-1209.5 512.62,-1209.5 428.12,-1209.5"/>
<polygon fill="#666666" stroke="#666666" points="428.12,-1194.25 428.12,-1194.25 512.62,-1194.25 512.62,-1194.25 428.12,-1194.25"/>
<polygon fill="none" stroke="#666666" points="428.12,-1177 428.12,-1238 512.62,-1238 512.62,-1177 428.12,-1177"/>
</a>
</g>
</g>
<!-- Node5&#45;&gt;Node4 -->
<g id="edge4_Node000004_Node000005" class="edge">
<title>Node5&#45;&gt;Node4</title>
<g id="a_edge4_Node000004_Node000005"><a xlink:title=" ">
<path fill="none" stroke="#63b8ff" d="M470.38,-1165.9C470.38,-1156.94 470.38,-1147.75 470.38,-1139.73"/>
<polygon fill="none" stroke="#63b8ff" points="466.88,-1165.89 470.38,-1175.89 473.88,-1165.89 466.88,-1165.89"/>
</a>
</g>
</g>
<!-- Node6 -->
<g id="Node000006" class="node">
<title>Node6</title>
<g id="a_Node000006"><a xlink:title=" ">
<polygon fill="white" stroke="none" points="110.75,-959.12 0,-959.12 0,-909.38 110.75,-909.38 110.75,-959.12"/>
<text text-anchor="start" x="4" y="-945.62" font-family="Helvetica,sans-Serif" font-size="10.00">std::unordered_set&lt; K &gt;</text>
<text text-anchor="start" x="53.88" y="-930.38" font-family="Helvetica,sans-Serif" font-size="10.00"> </text>
<text text-anchor="start" x="53.88" y="-915.12" font-family="Helvetica,sans-Serif" font-size="10.00"> </text>
<polygon fill="#666666" stroke="#666666" points="0,-941.88 0,-941.88 110.75,-941.88 110.75,-941.88 0,-941.88"/>
<polygon fill="#666666" stroke="#666666" points="0,-926.62 0,-926.62 110.75,-926.62 110.75,-926.62 0,-926.62"/>
<polygon fill="none" stroke="#666666" points="0,-909.38 0,-959.12 110.75,-959.12 110.75,-909.38 0,-909.38"/>
</a>
</g>
</g>
<!-- Node6&#45;&gt;Node2 -->
<g id="edge5_Node000002_Node000006" class="edge">
<title>Node6&#45;&gt;Node2</title>
<g id="a_edge5_Node000002_Node000006"><a xlink:title=" ">
<path fill="none" stroke="orange" d="M50.29,-898.15C47.15,-867.55 45.62,-822.35 57.12,-785 59.05,-778.76 61.96,-772.57 65.29,-766.75"/>
<polygon fill="orange" stroke="orange" points="46.81,-898.47 51.43,-908 53.76,-897.67 46.81,-898.47"/>
</a>
</g>
<text text-anchor="start" x="57.12" y="-798" font-family="Helvetica,sans-Serif" font-size="10.00" fill="grey"> &lt; dimension, dimension</text>
<text text-anchor="middle" x="109.25" y="-786.75" font-family="Helvetica,sans-Serif" font-size="10.00" fill="grey">::hash &gt;</text>
</g>
<!-- Node7 -->
<g id="Node000007" class="node">
<title>Node7</title>
<g id="a_Node000007"><a xlink:title=" ">
<polygon fill="white" stroke="none" points="114.75,-1140 100,-1140 100,-1090.25 114.75,-1090.25 114.75,-1140"/>
<text text-anchor="start" x="104" y="-1126.5" font-family="Helvetica,sans-Serif" font-size="10.00">K</text>
<text text-anchor="start" x="105.88" y="-1111.25" font-family="Helvetica,sans-Serif" font-size="10.00"> </text>
<text text-anchor="start" x="105.88" y="-1096" font-family="Helvetica,sans-Serif" font-size="10.00"> </text>
<polygon fill="#666666" stroke="#666666" points="100,-1122.75 100,-1122.75 114.75,-1122.75 114.75,-1122.75 100,-1122.75"/>
<polygon fill="#666666" stroke="#666666" points="100,-1107.5 100,-1107.5 114.75,-1107.5 114.75,-1107.5 100,-1107.5"/>
<polygon fill="none" stroke="#666666" points="100,-1090.25 100,-1140 114.75,-1140 114.75,-1090.25 100,-1090.25"/>
</a>
</g>
</g>
<!-- Node7&#45;&gt;Node6 -->
<g id="edge6_Node000006_Node000007" class="edge">
<title>Node7&#45;&gt;Node6</title>
<g id="a_edge6_Node000006_Node000007"><a xlink:title=" ">
<path fill="none" stroke="#63b8ff" d="M100.12,-1103.94C94.6,-1095.75 87.25,-1083.74 82.88,-1072.25 70.34,-1039.32 63.18,-999.66 59.32,-971.51"/>
<polygon fill="none" stroke="#63b8ff" points="59.32,-971.49 54.6,-966.04 57.8,-959.58 62.53,-965.03 59.32,-971.49"/>
</a>
</g>
<text text-anchor="middle" x="97.12" y="-1062.75" font-family="Helvetica,sans-Serif" font-size="10.00" fill="grey"> +keys</text>
</g>
<!-- Node13 -->
<g id="Node000013" class="node">
<title>Node13</title>
<g id="a_Node000013"><a xlink:title=" ">
<polygon fill="white" stroke="none" points="221.75,-964.75 129,-964.75 129,-903.75 221.75,-903.75 221.75,-964.75"/>
<text text-anchor="start" x="133" y="-951.25" font-family="Helvetica,sans-Serif" font-size="10.00">std::unordered_map</text>
<text text-anchor="start" x="158.12" y="-940" font-family="Helvetica,sans-Serif" font-size="10.00">&lt; K, T &gt;</text>
<text text-anchor="start" x="173.88" y="-924.75" font-family="Helvetica,sans-Serif" font-size="10.00"> </text>
<text text-anchor="start" x="173.88" y="-909.5" font-family="Helvetica,sans-Serif" font-size="10.00"> </text>
<polygon fill="#666666" stroke="#666666" points="129,-936.25 129,-936.25 221.75,-936.25 221.75,-936.25 129,-936.25"/>
<polygon fill="#666666" stroke="#666666" points="129,-921 129,-921 221.75,-921 221.75,-921 129,-921"/>
<polygon fill="none" stroke="#666666" points="129,-903.75 129,-964.75 221.75,-964.75 221.75,-903.75 129,-903.75"/>
</a>
</g>
</g>
<!-- Node7&#45;&gt;Node13 -->
<g id="edge16_Node000013_Node000007" class="edge">
<title>Node7&#45;&gt;Node13</title>
<g id="a_edge16_Node000013_Node000007"><a xlink:title=" ">
<path fill="none" stroke="#63b8ff" d="M114.65,-1094.98C125.33,-1066.88 145.52,-1013.78 159.68,-976.54"/>
<polygon fill="none" stroke="#63b8ff" points="159.64,-976.64 158.03,-969.61 163.9,-965.42 165.51,-972.45 159.64,-976.64"/>
</a>
</g>
<text text-anchor="middle" x="141.72" y="-1062.75" font-family="Helvetica,sans-Serif" font-size="10.00" fill="grey"> +keys</text>
</g>
<!-- Node8&#45;&gt;Node1 -->
<g id="edge7_Node000001_Node000008" class="edge">
<title>Node8&#45;&gt;Node1</title>
<g id="a_edge7_Node000001_Node000008"><a xlink:title=" ">
<path fill="none" stroke="#63b8ff" d="M206.84,-265.02C194.09,-244.92 176.51,-217.19 159.72,-190.71"/>
<polygon fill="none" stroke="#63b8ff" points="159.75,-190.76 153.16,-187.83 153.32,-180.63 159.91,-183.55 159.75,-190.76"/>
</a>
</g>
<text text-anchor="middle" x="222.87" y="-237.25" font-family="Helvetica,sans-Serif" font-size="10.00" fill="grey"> &#45;m_variables</text>
</g>
<!-- Node9&#45;&gt;Node8 -->
<g id="edge9_Node000008_Node000009" class="edge">
<title>Node9&#45;&gt;Node8</title>
<g id="a_edge9_Node000008_Node000009"><a xlink:title=" ">
<path fill="none" stroke="#63b8ff" d="M295.89,-423.54C279.32,-393.63 261.5,-361.46 247.91,-336.94"/>
<polygon fill="none" stroke="#63b8ff" points="247.86,-336.84 241.46,-333.53 242.05,-326.34 248.45,-329.65 247.86,-336.84"/>
</a>
</g>
<text text-anchor="middle" x="281.02" y="-345.5" font-family="Helvetica,sans-Serif" font-size="10.00" fill="grey"> +elements</text>
</g>
<!-- Node10&#45;&gt;Node9 -->
<g id="edge11_Node000009_Node000010" class="edge">
<title>Node10&#45;&gt;Node9</title>
<g id="a_edge11_Node000009_Node000010"><a xlink:title=" ">
<path fill="none" stroke="#63b8ff" d="M343.38,-700.39C343.38,-689.01 343.38,-675.09 343.38,-660.01"/>
<polygon fill="none" stroke="#63b8ff" points="343.38,-660 339.38,-654 343.38,-648 347.38,-654 343.38,-660"/>
</a>
</g>
<text text-anchor="middle" x="377.5" y="-667.25" font-family="Helvetica,sans-Serif" font-size="10.00" fill="grey"> &#45;m_dimensions</text>
</g>
<!-- Node11 -->
<g id="Node000011" class="node">
<title>Node11</title>
<g id="a_Node000011"><a xlink:title=" ">
<polygon fill="white" stroke="none" points="315.12,-959.12 239.62,-959.12 239.62,-909.38 315.12,-909.38 315.12,-959.12"/>
<text text-anchor="start" x="243.62" y="-945.62" font-family="Helvetica,sans-Serif" font-size="10.00">std::vector&lt; T &gt;</text>
<text text-anchor="start" x="275.88" y="-930.38" font-family="Helvetica,sans-Serif" font-size="10.00"> </text>
<text text-anchor="start" x="275.88" y="-915.12" font-family="Helvetica,sans-Serif" font-size="10.00"> </text>
<polygon fill="#666666" stroke="#666666" points="239.62,-941.88 239.62,-941.88 315.12,-941.88 315.12,-941.88 239.62,-941.88"/>
<polygon fill="#666666" stroke="#666666" points="239.62,-926.62 239.62,-926.62 315.12,-926.62 315.12,-926.62 239.62,-926.62"/>
<polygon fill="none" stroke="#666666" points="239.62,-909.38 239.62,-959.12 315.12,-959.12 315.12,-909.38 239.62,-909.38"/>
</a>
</g>
</g>
<!-- Node11&#45;&gt;Node10 -->
<g id="edge13_Node000010_Node000011" class="edge">
<title>Node11&#45;&gt;Node10</title>
<g id="a_edge13_Node000010_Node000011"><a xlink:title=" ">
<path fill="none" stroke="orange" d="M261.39,-899.04C249.15,-867.48 237.41,-820.3 257.12,-785 266.39,-768.42 283.18,-756.37 299.51,-747.99"/>
<polygon fill="orange" stroke="orange" points="258.08,-900.19 265.11,-908.11 264.55,-897.53 258.08,-900.19"/>
</a>
</g>
<text text-anchor="middle" x="315.25" y="-792.38" font-family="Helvetica,sans-Serif" font-size="10.00" fill="grey"> &lt; ngen::detail::dimension &gt;</text>
</g>
<!-- Node12 -->
<g id="Node000012" class="node">
<title>Node12</title>
<g id="a_Node000012"><a xlink:title=" ">
<polygon fill="white" stroke="none" points="242.38,-1140 228.38,-1140 228.38,-1090.25 242.38,-1090.25 242.38,-1140"/>
<text text-anchor="start" x="232.38" y="-1126.5" font-family="Helvetica,sans-Serif" font-size="10.00">T</text>
<text text-anchor="start" x="233.88" y="-1111.25" font-family="Helvetica,sans-Serif" font-size="10.00"> </text>
<text text-anchor="start" x="233.88" y="-1096" font-family="Helvetica,sans-Serif" font-size="10.00"> </text>
<polygon fill="#666666" stroke="#666666" points="228.38,-1122.75 228.38,-1122.75 242.38,-1122.75 242.38,-1122.75 228.38,-1122.75"/>
<polygon fill="#666666" stroke="#666666" points="228.38,-1107.5 228.38,-1107.5 242.38,-1107.5 242.38,-1107.5 228.38,-1107.5"/>
<polygon fill="none" stroke="#666666" points="228.38,-1090.25 228.38,-1140 242.38,-1140 242.38,-1090.25 228.38,-1090.25"/>
</a>
</g>
</g>
<!-- Node12&#45;&gt;Node11 -->
<g id="edge14_Node000011_Node000012" class="edge">
<title>Node12&#45;&gt;Node11</title>
<g id="a_edge14_Node000011_Node000012"><a xlink:title=" ">
<path fill="none" stroke="#63b8ff" d="M242.28,-1095.09C244.71,-1087.98 247.35,-1079.8 249.38,-1072.25 258.46,-1038.4 266.2,-999.16 271.23,-971.37"/>
<polygon fill="none" stroke="#63b8ff" points="271.22,-971.43 268.33,-964.82 273.31,-959.61 276.2,-966.22 271.22,-971.43"/>
</a>
</g>
<text text-anchor="middle" x="276.23" y="-1062.75" font-family="Helvetica,sans-Serif" font-size="10.00" fill="grey"> +elements</text>
</g>
<!-- Node12&#45;&gt;Node13 -->
<g id="edge17_Node000013_Node000012" class="edge">
<title>Node12&#45;&gt;Node13</title>
<g id="a_edge17_Node000013_Node000012"><a xlink:title=" ">
<path fill="none" stroke="#63b8ff" d="M228.45,-1108.73C219.67,-1101.46 204.78,-1087.65 197.38,-1072.25 183.11,-1042.58 177.81,-1005.56 175.96,-977.48"/>
<polygon fill="none" stroke="#63b8ff" points="175.96,-977.37 171.66,-971.58 175.36,-965.38 179.65,-971.18 175.96,-977.37"/>
</a>
</g>
<text text-anchor="middle" x="221.38" y="-1062.75" font-family="Helvetica,sans-Serif" font-size="10.00" fill="grey"> +elements</text>
</g>
<!-- Node13&#45;&gt;Node8 -->
<g id="edge15_Node000008_Node000013" class="edge">
<title>Node13&#45;&gt;Node8</title>
<g id="a_edge15_Node000008_Node000013"><a xlink:title=" ">
<path fill="none" stroke="orange" d="M178.59,-892.34C187.94,-773.13 215.03,-428.03 223.09,-325.38"/>
<polygon fill="orange" stroke="orange" points="175.1,-892.05 177.8,-902.29 182.08,-892.6 175.1,-892.05"/>
</a>
</g>
<text text-anchor="middle" x="246.23" y="-667.25" font-family="Helvetica,sans-Serif" font-size="10.00" fill="grey"> &lt; std::string, variable &gt;</text>
</g>
</g>
</svg>

<g id="navigator" transform="translate(0 0)" fill="#404254">
  <rect fill="#f2f5e9" fill-opacity="0.5" stroke="#606060" stroke-width=".5" x="0" y="0" width="60" height="60"/>
  <use id="zoomplus" xlink:href="#zoomPlus" x="17" y="9" onmousedown="handleZoom(evt,'in')"/>
  <use id="zoomminus" xlink:href="#zoomMin" x="42" y="9" onmousedown="handleZoom(evt,'out')"/>
  <use id="reset" xlink:href="#resetDef" x="30" y="36" onmousedown="handleReset()"/>
   <use id="arrowup" xlink:href="#arrowUp" x="0" y="0" onmousedown="handlePan(0,-1)"/>
  <use id="arrowright" xlink:href="#arrowRight" x="0" y="0" onmousedown="handlePan(1,0)"/>
  <use id="arrowdown" xlink:href="#arrowDown" x="0" y="0" onmousedown="handlePan(0,1)"/>
  <use id="arrowleft" xlink:href="#arrowLeft" x="0" y="0" onmousedown="handlePan(-1,0)"/>
</g>
<svg viewBox="0 0 15 15" width="100%" height="30px" preserveAspectRatio="xMaxYMin meet">
 <g id="arrow_out" transform="scale(0.3 0.3)">
  <a xlink:href="classngen_1_1mdframe__coll__graph_org.svg" target="_base">
   <rect id="button" ry="5" rx="5" y="6" x="6" height="38" width="38"
        fill="#f2f5e9" fill-opacity="0.5" stroke="#606060" stroke-width="1.0"/>
   <path id="arrow"
     d="M 11.500037,31.436501 C 11.940474,20.09759 22.043105,11.32322 32.158766,21.979434 L 37.068811,17.246167 C 37.068811,17.246167 37.088388,32 37.088388,32 L 22.160133,31.978069 C 22.160133,31.978069 26.997745,27.140456 26.997745,27.140456 C 18.528582,18.264221 13.291696,25.230495 11.500037,31.436501 z"
     style="fill:#404040;"/>
  </a>
 </g>
</svg>

<style type='text/css'>
<![CDATA[
[data-mouse-over-selected='false'] { opacity: 0.7; }
[data-mouse-over-selected='true']  { opacity: 1.0; }
]]>
</style>
<script type="application/ecmascript"><![CDATA[
document.addEventListener('DOMContentLoaded', (event) => {
  highlightEdges();
  highlightAdjacentNodes();
});
]]></script>
</svg>
