<?xml version="1.0" encoding="UTF-8" standalone="no"?>
<!DOCTYPE svg PUBLIC "-//W3C//DTD SVG 1.1//EN"
 "http://www.w3.org/Graphics/SVG/1.1/DTD/svg11.dtd">
<!-- Generated by graphviz version 7.0.5 (20221223.1930)
 -->
<!-- Title: HY_CartographicRealization Pages: 1 -->
<!--zoomable 1075 -->
<svg id="main" version="1.1" xmlns="http://www.w3.org/2000/svg" xmlns:xlink="http://www.w3.org/1999/xlink" xml:space="preserve" onload="init(evt)">
<style type="text/css"><![CDATA[
.edge:hover path { stroke: red; }
.edge:hover polygon { stroke: red; fill: red; }
]]></style>
<script type="text/javascript"><![CDATA[
var edges = document.getElementsByTagName('g');
if (edges && edges.length) {
  for (var i=0;i<edges.length;i++) {
    if (edges[i].id.substr(0,4)=='edge') {
      edges[i].setAttribute('class','edge');
    }
  }
}
]]></script>
        <defs>
                <circle id="rim" cx="0" cy="0" r="7"/>
                <circle id="rim2" cx="0" cy="0" r="3.5"/>
                <g id="zoomPlus">
                        <use xlink:href="#rim" fill="#404040">
                                <set attributeName="fill" to="#808080" begin="zoomplus.mouseover" end="zoomplus.mouseout"/>
                        </use>
                        <path d="M-4,0h8M0,-4v8" fill="none" stroke="white" stroke-width="1.5" pointer-events="none"/>
                </g>
                <g id="zoomMin">
                        <use xlink:href="#rim" fill="#404040">
                                <set attributeName="fill" to="#808080" begin="zoomminus.mouseover" end="zoomminus.mouseout"/>
                        </use>
                        <path d="M-4,0h8" fill="none" stroke="white" stroke-width="1.5" pointer-events="none"/>
                </g>
                <g id="dirArrow">
                        <path fill="none" stroke="white" stroke-width="1.5" d="M0,-3.0v7 M-2.5,-0.5L0,-3.0L2.5,-0.5"/>
                </g>
               <g id="resetDef">
                       <use xlink:href="#rim2" fill="#404040">
                               <set attributeName="fill" to="#808080" begin="reset.mouseover" end="reset.mouseout"/>
                       </use>
               </g>
        </defs>

<script type="text/javascript">
var viewWidth = 992;
var viewHeight = 1075;
var sectionId = 'dynsection-1';
</script>
<script xlink:href="svgpan.js"/>
<svg id="graph" class="graph">
<g id="viewport">
<title>HY_CartographicRealization</title>
<!-- Node1 -->
<g id="node1" class="node">
<title>Node1</title>
<g id="a_node1"><a xlink:title=" ">
<polygon fill="#999999" stroke="#666666" points="185.5,-284.5 27.5,-284.5 27.5,-232.5 185.5,-232.5 185.5,-284.5"/>
<text text-anchor="middle" x="106.5" y="-272.5" font-family="Helvetica,sans-Serif" font-size="10.00">{HY_CartographicRealization</text>
<text text-anchor="start" x="35.5" y="-261.5" font-family="Helvetica,sans-Serif" font-size="10.00">||+ HY_CartographicRealization()</text>
<text text-anchor="start" x="35.5" y="-250.5" font-family="Helvetica,sans-Serif" font-size="10.00">+ ~HY_CartographicRealization()</text>
<text text-anchor="middle" x="106.5" y="-239.5" font-family="Helvetica,sans-Serif" font-size="10.00">}</text>
</a>
</g>
</g>
<!-- Node2 -->
<g id="node2" class="node">
<title>Node2</title>
<g id="a_node2"><a xlink:href="class_h_y___catchment_realization.html" target="_top" xlink:title=" ">
<polygon fill="white" stroke="#666666" points="181.5,-440 31.5,-440 31.5,-333 181.5,-333 181.5,-440"/>
<text text-anchor="middle" x="106.5" y="-428" font-family="Helvetica,sans-Serif" font-size="10.00">{HY_CatchmentRealization</text>
<text text-anchor="start" x="39.5" y="-417" font-family="Helvetica,sans-Serif" font-size="10.00">|# id_number</text>
<text text-anchor="start" x="39.5" y="-406" font-family="Helvetica,sans-Serif" font-size="10.00">|+ HY_CatchmentRealization()</text>
<text text-anchor="start" x="39.5" y="-395" font-family="Helvetica,sans-Serif" font-size="10.00">+ HY_CatchmentRealization()</text>
<text text-anchor="start" x="39.5" y="-384" font-family="Helvetica,sans-Serif" font-size="10.00">+ ~HY_CatchmentRealization()</text>
<text text-anchor="start" x="39.5" y="-373" font-family="Helvetica,sans-Serif" font-size="10.00">+ get_response()</text>
<text text-anchor="start" x="39.5" y="-362" font-family="Helvetica,sans-Serif" font-size="10.00"># get_catchment_id()</text>
<text text-anchor="start" x="39.5" y="-351" font-family="Helvetica,sans-Serif" font-size="10.00"># set_catchment_id()</text>
<text text-anchor="middle" x="106.5" y="-340" font-family="Helvetica,sans-Serif" font-size="10.00">}</text>
</a>
</g>
</g>
<!-- Node2&#45;&gt;Node1 -->
<g id="edge1" class="edge">
<title>Node2&#45;&gt;Node1</title>
<path fill="none" stroke="#63b8ff" d="M106.5,-321.42C106.5,-308.44 106.5,-295.52 106.5,-284.86"/>
<polygon fill="none" stroke="#63b8ff" points="103,-321.28 106.5,-331.28 110,-321.28 103,-321.28"/>
</g>
<!-- Node6 -->
<g id="node6" class="node">
<title>Node6</title>
<g id="a_node6"><a xlink:title=" ">
<polygon fill="white" stroke="#666666" points="329,-284.5 204,-284.5 204,-232.5 329,-232.5 329,-284.5"/>
<text text-anchor="start" x="212" y="-272.5" font-family="Helvetica,sans-Serif" font-size="10.00">{std::shared_ptr&lt; HY</text>
<text text-anchor="middle" x="266.5" y="-261.5" font-family="Helvetica,sans-Serif" font-size="10.00">_CatchmentRealization &gt;</text>
<text text-anchor="start" x="212" y="-250.5" font-family="Helvetica,sans-Serif" font-size="10.00">||+ operator&#45;&gt;()</text>
<text text-anchor="middle" x="266.5" y="-239.5" font-family="Helvetica,sans-Serif" font-size="10.00">}</text>
</a>
</g>
</g>
<!-- Node2&#45;&gt;Node6 -->
<g id="edge6" class="edge">
<title>Node2&#45;&gt;Node6</title>
<path fill="none" stroke="#404040" d="M173.43,-332.79C190.71,-319.19 208.82,-304.92 224.43,-292.63"/>
<polygon fill="none" stroke="#404040" points="224.16,-292.84 226.4,-285.99 233.59,-285.42 231.35,-292.27 224.16,-292.84"/>
<text text-anchor="middle" x="216.5" y="-307" font-family="Helvetica,sans-Serif" font-size="10.00"> +ptr</text>
</g>
<!-- Node3 -->
<g id="node3" class="node">
<title>Node3</title>
<g id="a_node3"><a xlink:title=" ">
<polygon fill="white" stroke="#666666" points="572.5,-52 466.5,-52 466.5,0 572.5,0 572.5,-52"/>
<text text-anchor="start" x="474.5" y="-40" font-family="Helvetica,sans-Serif" font-size="10.00">{std::shared_ptr&lt; HY</text>
<text text-anchor="middle" x="519.5" y="-29" font-family="Helvetica,sans-Serif" font-size="10.00">_Catchment &gt;</text>
<text text-anchor="start" x="474.5" y="-18" font-family="Helvetica,sans-Serif" font-size="10.00">||+ operator&#45;&gt;()</text>
<text text-anchor="middle" x="519.5" y="-7" font-family="Helvetica,sans-Serif" font-size="10.00">}</text>
</a>
</g>
</g>
<!-- Node3&#45;&gt;Node2 -->
<g id="edge2" class="edge">
<title>Node3&#45;&gt;Node2</title>
<path fill="none" stroke="#404040" d="M466.36,-30.23C359.72,-39.92 121.09,-78.45 18.5,-231 -1.22,-260.33 14.3,-294.33 37.49,-322.96"/>
<polygon fill="none" stroke="#404040" points="37.56,-323.05 44.51,-325 45.38,-332.16 38.43,-330.2 37.56,-323.05"/>
<text text-anchor="middle" x="96.5" y="-199.5" font-family="Helvetica,sans-Serif" font-size="10.00"> #realized_catchment</text>
</g>
<!-- Node4 -->
<g id="node4" class="node">
<title>Node4</title>
<g id="a_node4"><a xlink:href="class_h_y___catchment.html" target="_top" xlink:title=" ">
<polygon fill="white" stroke="#666666" points="580.5,-173 458.5,-173 458.5,-99 580.5,-99 580.5,-173"/>
<text text-anchor="middle" x="519.5" y="-161" font-family="Helvetica,sans-Serif" font-size="10.00">{HY_Catchment</text>
<text text-anchor="start" x="466.5" y="-150" font-family="Helvetica,sans-Serif" font-size="10.00">||+ HY_Catchment()</text>
<text text-anchor="start" x="466.5" y="-139" font-family="Helvetica,sans-Serif" font-size="10.00">+ HY_Catchment()</text>
<text text-anchor="start" x="466.5" y="-128" font-family="Helvetica,sans-Serif" font-size="10.00">+ ~HY_Catchment()</text>
<text text-anchor="start" x="466.5" y="-117" font-family="Helvetica,sans-Serif" font-size="10.00">+ get_outflow_nexuses()</text>
<text text-anchor="middle" x="519.5" y="-106" font-family="Helvetica,sans-Serif" font-size="10.00">}</text>
</a>
</g>
</g>
<!-- Node4&#45;&gt;Node3 -->
<g id="edge3" class="edge">
<title>Node4&#45;&gt;Node3</title>
<path fill="none" stroke="#404040" d="M519.5,-98.74C519.5,-87.93 519.5,-76.06 519.5,-65.14"/>
<polygon fill="none" stroke="#404040" points="519.5,-65.33 515.5,-59.33 519.5,-53.33 523.5,-59.33 519.5,-65.33"/>
<text text-anchor="middle" x="529.5" y="-73" font-family="Helvetica,sans-Serif" font-size="10.00"> +ptr</text>
</g>
<!-- Node5 -->
<g id="node5" class="node">
<title>Node5</title>
<g id="a_node5"><a xlink:href="class_h_y___hydro_feature.html" target="_top" xlink:title=" ">
<polygon fill="white" stroke="#666666" points="869.5,-284.5 755.5,-284.5 755.5,-232.5 869.5,-232.5 869.5,-284.5"/>
<text text-anchor="middle" x="812.5" y="-272.5" font-family="Helvetica,sans-Serif" font-size="10.00">{HY_HydroFeature</text>
<text text-anchor="start" x="763.5" y="-261.5" font-family="Helvetica,sans-Serif" font-size="10.00">||+ HY_HydroFeature()</text>
<text text-anchor="start" x="763.5" y="-250.5" font-family="Helvetica,sans-Serif" font-size="10.00">+ ~HY_HydroFeature()</text>
<text text-anchor="middle" x="812.5" y="-239.5" font-family="Helvetica,sans-Serif" font-size="10.00">}</text>
</a>
</g>
</g>
<!-- Node5&#45;&gt;Node4 -->
<g id="edge4" class="edge">
<title>Node5&#45;&gt;Node4</title>
<path fill="none" stroke="#63b8ff" d="M744.9,-229.26C716.4,-217.39 682.86,-203.47 652.5,-191 629.1,-181.39 603.35,-170.91 580.79,-161.76"/>
<polygon fill="none" stroke="#63b8ff" points="743.18,-232.33 753.76,-232.95 745.87,-225.87 743.18,-232.33"/>
</g>
<!-- Node6&#45;&gt;Node4 -->
<g id="edge5" class="edge">
<title>Node6&#45;&gt;Node4</title>
<path fill="none" stroke="#404040" d="M311.32,-232.13C334.65,-219.26 363.81,-203.71 390.5,-191 408.39,-182.48 427.99,-173.91 446.38,-166.17"/>
<polygon fill="none" stroke="#404040" points="446.36,-166.19 450.36,-160.19 457.44,-161.57 453.44,-167.57 446.36,-166.19"/>
<text text-anchor="middle" x="416.5" y="-199.5" font-family="Helvetica,sans-Serif" font-size="10.00"> +realization</text>
</g>
<!-- Node7 -->
<g id="node7" class="node">
<title>Node7</title>
<g id="a_node7"><a xlink:title=" ">
<polygon fill="white" stroke="#666666" points="364.5,-638 258.5,-638 258.5,-597 364.5,-597 364.5,-638"/>
<text text-anchor="middle" x="311.5" y="-626" font-family="Helvetica,sans-Serif" font-size="10.00">{std::shared_ptr&lt; T &gt;</text>
<text text-anchor="start" x="266.5" y="-615" font-family="Helvetica,sans-Serif" font-size="10.00">||+ operator&#45;&gt;()</text>
<text text-anchor="middle" x="311.5" y="-604" font-family="Helvetica,sans-Serif" font-size="10.00">}</text>
</a>
</g>
</g>
<!-- Node7&#45;&gt;Node3 -->
<g id="edge18" class="edge">
<title>Node7&#45;&gt;Node3</title>
<path fill="none" stroke="orange" d="M376.26,-611.89C528.72,-600.18 897.5,-566.44 897.5,-514 897.5,-514 897.5,-514 897.5,-135 897.5,-68.28 677.05,-40.48 572.86,-31.07"/>
<polygon fill="orange" stroke="orange" points="376.01,-608.4 366.31,-612.65 376.54,-615.38 376.01,-608.4"/>
<text text-anchor="middle" x="940.5" y="-307" font-family="Helvetica,sans-Serif" font-size="10.00"> &lt; HY_Catchment &gt;</text>
</g>
<!-- Node7&#45;&gt;Node6 -->
<g id="edge7" class="edge">
<title>Node7&#45;&gt;Node6</title>
<path fill="none" stroke="orange" d="M304.34,-585.68C297.7,-555.96 288.03,-509.64 282.5,-469 273.5,-402.86 269.19,-324.22 267.47,-284.75"/>
<polygon fill="orange" stroke="orange" points="300.85,-586.13 306.47,-595.11 307.68,-584.58 300.85,-586.13"/>
<text text-anchor="middle" x="349" y="-461" font-family="Helvetica,sans-Serif" font-size="10.00"> &lt; HY_CatchmentRealization &gt;</text>
</g>
<!-- Node14 -->
<g id="node14" class="node">
<title>Node14</title>
<g id="a_node14"><a xlink:title=" ">
<polygon fill="white" stroke="#666666" points="184.5,-539 28.5,-539 28.5,-487 184.5,-487 184.5,-539"/>
<text text-anchor="start" x="36.5" y="-527" font-family="Helvetica,sans-Serif" font-size="10.00">{std::shared_ptr&lt; data</text>
<text text-anchor="middle" x="106.5" y="-516" font-family="Helvetica,sans-Serif" font-size="10.00">_access::GenericDataProvider &gt;</text>
<text text-anchor="start" x="36.5" y="-505" font-family="Helvetica,sans-Serif" font-size="10.00">||+ operator&#45;&gt;()</text>
<text text-anchor="middle" x="106.5" y="-494" font-family="Helvetica,sans-Serif" font-size="10.00">}</text>
</a>
</g>
</g>
<!-- Node7&#45;&gt;Node14 -->
<g id="edge23" class="edge">
<title>Node7&#45;&gt;Node14</title>
<path fill="none" stroke="orange" d="M246.89,-608.27C205.41,-601.89 156.28,-591.97 139.5,-579 126.78,-569.17 118.56,-553.1 113.5,-539.39"/>
<polygon fill="orange" stroke="orange" points="246.17,-611.7 256.58,-609.71 247.2,-604.78 246.17,-611.7"/>
<text text-anchor="start" x="139.5" y="-571" font-family="Helvetica,sans-Serif" font-size="10.00"> &lt; data_access::GenericData</text>
<text text-anchor="middle" x="202" y="-560" font-family="Helvetica,sans-Serif" font-size="10.00">Provider &gt;</text>
</g>
<!-- Node8 -->
<g id="node8" class="node">
<title>Node8</title>
<g id="a_node8"><a xlink:title=" ">
<polygon fill="white" stroke="#666666" points="404,-781 375,-781 375,-751 404,-751 404,-781"/>
<text text-anchor="middle" x="389.5" y="-769" font-family="Helvetica,sans-Serif" font-size="10.00">{T</text>
<text text-anchor="middle" x="389.5" y="-758" font-family="Helvetica,sans-Serif" font-size="10.00">||}</text>
</a>
</g>
</g>
<!-- Node8&#45;&gt;Node7 -->
<g id="edge8" class="edge">
<title>Node8&#45;&gt;Node7</title>
<path fill="none" stroke="#404040" d="M381.88,-750.69C369.49,-727.42 344.71,-680.88 328.11,-649.7"/>
<polygon fill="none" stroke="#404040" points="328.05,-649.58 321.69,-646.16 322.41,-638.98 328.76,-642.4 328.05,-649.58"/>
<text text-anchor="middle" x="347.5" y="-659" font-family="Helvetica,sans-Serif" font-size="10.00"> +ptr</text>
</g>
<!-- Node12 -->
<g id="node12" class="node">
<title>Node12</title>
<g id="a_node12"><a xlink:title=" ">
<polygon fill="white" stroke="#666666" points="470,-401.5 383,-401.5 383,-371.5 470,-371.5 470,-401.5"/>
<text text-anchor="middle" x="426.5" y="-389.5" font-family="Helvetica,sans-Serif" font-size="10.00">{std::vector&lt; T &gt;</text>
<text text-anchor="middle" x="426.5" y="-378.5" font-family="Helvetica,sans-Serif" font-size="10.00">||}</text>
</a>
</g>
</g>
<!-- Node8&#45;&gt;Node12 -->
<g id="edge14" class="edge">
<title>Node8&#45;&gt;Node12</title>
<path fill="none" stroke="#404040" d="M390.91,-750.66C396.41,-694.49 416.57,-488.81 423.85,-414.51"/>
<polygon fill="none" stroke="#404040" points="423.83,-414.69 420.44,-408.33 425.01,-402.75 428.4,-409.11 423.83,-414.69"/>
<text text-anchor="middle" x="435" y="-565.5" font-family="Helvetica,sans-Serif" font-size="10.00"> +elements</text>
</g>
<!-- Node9 -->
<g id="node9" class="node">
<title>Node9</title>
<g id="a_node9"><a xlink:title=" ">
<polygon fill="white" stroke="#666666" points="605.5,-401.5 543.5,-401.5 543.5,-371.5 605.5,-371.5 605.5,-401.5"/>
<text text-anchor="middle" x="574.5" y="-389.5" font-family="Helvetica,sans-Serif" font-size="10.00">{std::string</text>
<text text-anchor="middle" x="574.5" y="-378.5" font-family="Helvetica,sans-Serif" font-size="10.00">||}</text>
</a>
</g>
</g>
<!-- Node9&#45;&gt;Node4 -->
<g id="edge9" class="edge">
<title>Node9&#45;&gt;Node4</title>
<path fill="none" stroke="#404040" d="M585.13,-371.21C608.85,-337.46 661.19,-251.12 624.5,-191 616.82,-178.41 605.17,-168.64 592.38,-161.08"/>
<polygon fill="none" stroke="#404040" points="592.32,-161.05 585.14,-161.77 581.72,-155.43 588.89,-154.71 592.32,-161.05"/>
<text text-anchor="middle" x="686" y="-278" font-family="Helvetica,sans-Serif" font-size="10.00"> &#45;conjoint_catchment</text>
<text text-anchor="middle" x="686" y="-267" font-family="Helvetica,sans-Serif" font-size="10.00">&#45;containing_catchment</text>
<text text-anchor="middle" x="686" y="-256" font-family="Helvetica,sans-Serif" font-size="10.00">&#45;id</text>
<text text-anchor="middle" x="686" y="-245" font-family="Helvetica,sans-Serif" font-size="10.00">&#45;lower_catchment</text>
<text text-anchor="middle" x="686" y="-234" font-family="Helvetica,sans-Serif" font-size="10.00">&#45;upper_catchment</text>
</g>
<!-- Node11 -->
<g id="node11" class="node">
<title>Node11</title>
<g id="a_node11"><a xlink:title=" ">
<polygon fill="white" stroke="#666666" points="456,-273.5 347,-273.5 347,-243.5 456,-243.5 456,-273.5"/>
<text text-anchor="middle" x="401.5" y="-261.5" font-family="Helvetica,sans-Serif" font-size="10.00">{std::vector&lt; Nexus &gt;</text>
<text text-anchor="middle" x="401.5" y="-250.5" font-family="Helvetica,sans-Serif" font-size="10.00">||}</text>
</a>
</g>
</g>
<!-- Node9&#45;&gt;Node11 -->
<g id="edge12" class="edge">
<title>Node9&#45;&gt;Node11</title>
<path fill="none" stroke="#404040" d="M551.48,-371.21C532.43,-359.8 504.39,-343.97 478.5,-333 453.65,-322.47 439.86,-333.81 420.5,-315 412.68,-307.4 408.08,-296.45 405.37,-286.28"/>
<polygon fill="none" stroke="#404040" points="405.38,-286.34 400.26,-281.27 402.97,-274.59 408.09,-279.66 405.38,-286.34"/>
<text text-anchor="middle" x="445" y="-307" font-family="Helvetica,sans-Serif" font-size="10.00"> +elements</text>
</g>
<!-- Node13 -->
<g id="node13" class="node">
<title>Node13</title>
<g id="a_node13"><a xlink:title=" ">
<polygon fill="white" stroke="#666666" points="602.5,-273.5 474.5,-273.5 474.5,-243.5 602.5,-243.5 602.5,-273.5"/>
<text text-anchor="middle" x="538.5" y="-261.5" font-family="Helvetica,sans-Serif" font-size="10.00">{std::vector&lt; Catchment &gt;</text>
<text text-anchor="middle" x="538.5" y="-250.5" font-family="Helvetica,sans-Serif" font-size="10.00">||}</text>
</a>
</g>
</g>
<!-- Node9&#45;&gt;Node13 -->
<g id="edge16" class="edge">
<title>Node9&#45;&gt;Node13</title>
<path fill="none" stroke="#404040" d="M570.78,-371.02C566.55,-354.69 559.32,-327.35 552.5,-304 550.79,-298.16 548.88,-291.91 547.03,-286"/>
<polygon fill="none" stroke="#404040" points="547.09,-286.18 541.46,-281.67 543.46,-274.74 549.09,-279.25 547.09,-286.18"/>
<text text-anchor="middle" x="579" y="-307" font-family="Helvetica,sans-Serif" font-size="10.00"> +elements</text>
</g>
<!-- Node10 -->
<g id="node10" class="node">
<title>Node10</title>
<g id="a_node10"><a xlink:title=" ">
<polygon fill="white" stroke="#666666" points="622.5,-533.5 526.5,-533.5 526.5,-492.5 622.5,-492.5 622.5,-533.5"/>
<text text-anchor="start" x="534.5" y="-521.5" font-family="Helvetica,sans-Serif" font-size="10.00">{std::basic_string&lt;</text>
<text text-anchor="middle" x="574.5" y="-510.5" font-family="Helvetica,sans-Serif" font-size="10.00"> Char &gt;</text>
<text text-anchor="middle" x="574.5" y="-499.5" font-family="Helvetica,sans-Serif" font-size="10.00">||}</text>
</a>
</g>
</g>
<!-- Node10&#45;&gt;Node9 -->
<g id="edge10" class="edge">
<title>Node10&#45;&gt;Node9</title>
<path fill="none" stroke="#63b8ff" d="M574.5,-481.02C574.5,-455.65 574.5,-420.91 574.5,-401.71"/>
<polygon fill="none" stroke="#63b8ff" points="571,-480.76 574.5,-490.76 578,-480.76 571,-480.76"/>
</g>
<!-- Node11&#45;&gt;Node4 -->
<g id="edge11" class="edge">
<title>Node11&#45;&gt;Node4</title>
<path fill="none" stroke="#404040" d="M415.5,-243.2C430.07,-228.32 453.66,-204.24 474.69,-182.76"/>
<polygon fill="none" stroke="#404040" points="474.79,-182.66 476.13,-175.57 483.19,-174.08 481.85,-181.17 474.79,-182.66"/>
<text text-anchor="middle" x="484.5" y="-205" font-family="Helvetica,sans-Serif" font-size="10.00"> &#45;inflows</text>
<text text-anchor="middle" x="484.5" y="-194" font-family="Helvetica,sans-Serif" font-size="10.00">&#45;outflows</text>
</g>
<!-- Node12&#45;&gt;Node11 -->
<g id="edge13" class="edge">
<title>Node12&#45;&gt;Node11</title>
<path fill="none" stroke="orange" d="M389.83,-364.83C372.33,-352.79 353.15,-335.85 343.5,-315 335.72,-298.18 351.68,-283.85 368.81,-273.97"/>
<polygon fill="orange" stroke="orange" points="387.75,-367.65 398.04,-370.19 391.57,-361.79 387.75,-367.65"/>
<text text-anchor="middle" x="367" y="-307" font-family="Helvetica,sans-Serif" font-size="10.00"> &lt; Nexus &gt;</text>
</g>
<!-- Node12&#45;&gt;Node13 -->
<g id="edge17" class="edge">
<title>Node12&#45;&gt;Node13</title>
<path fill="none" stroke="orange" d="M439.93,-361.51C450.11,-344.46 465.11,-321.57 481.5,-304 492.03,-292.71 505.6,-282 516.86,-273.91"/>
<polygon fill="orange" stroke="orange" points="437.02,-359.56 435.01,-369.96 443.07,-363.08 437.02,-359.56"/>
<text text-anchor="middle" x="515" y="-307" font-family="Helvetica,sans-Serif" font-size="10.00"> &lt; Catchment &gt;</text>
</g>
<!-- Node13&#45;&gt;Node4 -->
<g id="edge15" class="edge">
<title>Node13&#45;&gt;Node4</title>
<path fill="none" stroke="#404040" d="M531.08,-243.09C527.11,-234.58 522.61,-223.46 520.5,-213 518.77,-204.4 517.87,-195.13 517.48,-186.13"/>
<polygon fill="none" stroke="#404040" points="517.48,-186.14 513.38,-180.21 517.27,-174.14 521.38,-180.07 517.48,-186.14"/>
<text text-anchor="middle" x="572.5" y="-199.5" font-family="Helvetica,sans-Serif" font-size="10.00"> &#45;contained_catchments</text>
</g>
<!-- Node14&#45;&gt;Node2 -->
<g id="edge19" class="edge">
<title>Node14&#45;&gt;Node2</title>
<path fill="none" stroke="#404040" d="M106.5,-486.51C106.5,-476.74 106.5,-465.08 106.5,-453.26"/>
<polygon fill="none" stroke="#404040" points="106.5,-453.35 102.5,-447.35 106.5,-441.35 110.5,-447.35 106.5,-453.35"/>
<text text-anchor="middle" x="125" y="-461" font-family="Helvetica,sans-Serif" font-size="10.00"> #forcing</text>
</g>
<!-- Node15 -->
<g id="node15" class="node">
<title>Node15</title>
<g id="a_node15"><a xlink:href="classdata__access_1_1_generic_data_provider.html" target="_top" xlink:title=" ">
<polygon fill="white" stroke="#666666" points="162.5,-638 28.5,-638 28.5,-597 162.5,-597 162.5,-638"/>
<text text-anchor="start" x="36.5" y="-626" font-family="Helvetica,sans-Serif" font-size="10.00">{data_access::GenericData</text>
<text text-anchor="middle" x="95.5" y="-615" font-family="Helvetica,sans-Serif" font-size="10.00">Provider</text>
<text text-anchor="middle" x="95.5" y="-604" font-family="Helvetica,sans-Serif" font-size="10.00">||}</text>
</a>
</g>
</g>
<!-- Node15&#45;&gt;Node14 -->
<g id="edge20" class="edge">
<title>Node15&#45;&gt;Node14</title>
<path fill="none" stroke="#404040" d="M94.79,-596.59C94.63,-585 94.88,-570.12 96.5,-557 96.7,-555.37 96.94,-553.72 97.2,-552.05"/>
<polygon fill="none" stroke="#404040" points="97.22,-551.97 94.44,-545.32 99.51,-540.19 102.29,-546.84 97.22,-551.97"/>
<text text-anchor="middle" x="106.5" y="-565.5" font-family="Helvetica,sans-Serif" font-size="10.00"> +ptr</text>
</g>
<!-- Node16 -->
<g id="node16" class="node">
<title>Node16</title>
<g id="a_node16"><a xlink:href="classdata__access_1_1_data_provider.html" target="_top" xlink:title=" ">
<polygon fill="white" stroke="#666666" points="191,-847 0,-847 0,-685 191,-685 191,-847"/>
<text text-anchor="start" x="8" y="-835" font-family="Helvetica,sans-Serif" font-size="10.00">{data_access::DataProvider</text>
<text text-anchor="middle" x="95.5" y="-824" font-family="Helvetica,sans-Serif" font-size="10.00">&lt; double, CatchmentAggrDataSelector &gt;</text>
<text text-anchor="start" x="8" y="-813" font-family="Helvetica,sans-Serif" font-size="10.00">||+ ~DataProvider()</text>
<text text-anchor="start" x="8" y="-802" font-family="Helvetica,sans-Serif" font-size="10.00">+ get_avaliable_variable</text>
<text text-anchor="start" x="8" y="-791" font-family="Helvetica,sans-Serif" font-size="10.00">_names()</text>
<text text-anchor="start" x="8" y="-780" font-family="Helvetica,sans-Serif" font-size="10.00">+ get_data_start_time()</text>
<text text-anchor="start" x="8" y="-769" font-family="Helvetica,sans-Serif" font-size="10.00">+ get_data_stop_time()</text>
<text text-anchor="start" x="8" y="-758" font-family="Helvetica,sans-Serif" font-size="10.00">+ record_duration()</text>
<text text-anchor="start" x="8" y="-747" font-family="Helvetica,sans-Serif" font-size="10.00">+ get_ts_index_for_time()</text>
<text text-anchor="start" x="8" y="-736" font-family="Helvetica,sans-Serif" font-size="10.00">+ get_value()</text>
<text text-anchor="start" x="8" y="-725" font-family="Helvetica,sans-Serif" font-size="10.00">+ get_values()</text>
<text text-anchor="start" x="8" y="-714" font-family="Helvetica,sans-Serif" font-size="10.00">+ is_property_sum_over</text>
<text text-anchor="start" x="8" y="-703" font-family="Helvetica,sans-Serif" font-size="10.00">_time_step()</text>
<text text-anchor="middle" x="95.5" y="-692" font-family="Helvetica,sans-Serif" font-size="10.00">}</text>
</a>
</g>
</g>
<!-- Node16&#45;&gt;Node15 -->
<g id="edge21" class="edge">
<title>Node16&#45;&gt;Node15</title>
<path fill="none" stroke="#63b8ff" d="M95.5,-673.61C95.5,-660.37 95.5,-647.97 95.5,-638.3"/>
<polygon fill="none" stroke="#63b8ff" points="92,-673.38 95.5,-683.38 99,-673.38 92,-673.38"/>
</g>
<!-- Node17 -->
<g id="node17" class="node">
<title>Node17</title>
<g id="a_node17"><a xlink:href="classdata__access_1_1_data_provider.html" target="_top" xlink:title=" ">
<polygon fill="white" stroke="#666666" points="167,-1067 24,-1067 24,-905 167,-905 167,-1067"/>
<text text-anchor="start" x="32" y="-1055" font-family="Helvetica,sans-Serif" font-size="10.00">{data_access::DataProvider</text>
<text text-anchor="middle" x="95.5" y="-1044" font-family="Helvetica,sans-Serif" font-size="10.00">&lt; data_type, selection_type &gt;</text>
<text text-anchor="start" x="32" y="-1033" font-family="Helvetica,sans-Serif" font-size="10.00">||+ ~DataProvider()</text>
<text text-anchor="start" x="32" y="-1022" font-family="Helvetica,sans-Serif" font-size="10.00">+ get_avaliable_variable</text>
<text text-anchor="start" x="32" y="-1011" font-family="Helvetica,sans-Serif" font-size="10.00">_names()</text>
<text text-anchor="start" x="32" y="-1000" font-family="Helvetica,sans-Serif" font-size="10.00">+ get_data_start_time()</text>
<text text-anchor="start" x="32" y="-989" font-family="Helvetica,sans-Serif" font-size="10.00">+ get_data_stop_time()</text>
<text text-anchor="start" x="32" y="-978" font-family="Helvetica,sans-Serif" font-size="10.00">+ record_duration()</text>
<text text-anchor="start" x="32" y="-967" font-family="Helvetica,sans-Serif" font-size="10.00">+ get_ts_index_for_time()</text>
<text text-anchor="start" x="32" y="-956" font-family="Helvetica,sans-Serif" font-size="10.00">+ get_value()</text>
<text text-anchor="start" x="32" y="-945" font-family="Helvetica,sans-Serif" font-size="10.00">+ get_values()</text>
<text text-anchor="start" x="32" y="-934" font-family="Helvetica,sans-Serif" font-size="10.00">+ is_property_sum_over</text>
<text text-anchor="start" x="32" y="-923" font-family="Helvetica,sans-Serif" font-size="10.00">_time_step()</text>
<text text-anchor="middle" x="95.5" y="-912" font-family="Helvetica,sans-Serif" font-size="10.00">}</text>
</a>
</g>
</g>
<!-- Node17&#45;&gt;Node16 -->
<g id="edge22" class="edge">
<title>Node17&#45;&gt;Node16</title>
<path fill="none" stroke="orange" d="M95.5,-893.68C95.5,-878.33 95.5,-862.49 95.5,-847.44"/>
<polygon fill="orange" stroke="orange" points="92,-893.24 95.5,-903.24 99,-893.24 92,-893.24"/>
<text text-anchor="start" x="95.5" y="-879" font-family="Helvetica,sans-Serif" font-size="10.00"> &lt; double, CatchmentAggrData</text>
<text text-anchor="middle" x="162" y="-868" font-family="Helvetica,sans-Serif" font-size="10.00">Selector &gt;</text>
</g>
</g>
</svg>
        <g id="navigator" transform="translate(0 0)" fill="#404254">
                <rect fill="#f2f5e9" fill-opacity="0.5" stroke="#606060" stroke-width=".5" x="0" y="0" width="60" height="60"/>
                <use id="zoomplus" xlink:href="#zoomPlus" x="17" y="9" onmousedown="handleZoom(evt,'in')"/>
                <use id="zoomminus" xlink:href="#zoomMin" x="42" y="9" onmousedown="handleZoom(evt,'out')"/>
                <use id="reset" xlink:href="#resetDef" x="30" y="36" onmousedown="handleReset()"/>
                <g id="arrowUp" xlink:href="#dirArrow" transform="translate(30 24)" onmousedown="handlePan(0,-1)">
                  <use xlink:href="#rim" fill="#404040">
                        <set attributeName="fill" to="#808080" begin="arrowUp.mouseover" end="arrowUp.mouseout"/>
                  </use>
                  <path fill="none" stroke="white" stroke-width="1.5" d="M0,-3.0v7 M-2.5,-0.5L0,-3.0L2.5,-0.5"/>
                </g>
                <g id="arrowRight" xlink:href="#dirArrow" transform="rotate(90) translate(36 -43)" onmousedown="handlePan(1,0)">
                  <use xlink:href="#rim" fill="#404040">
                        <set attributeName="fill" to="#808080" begin="arrowRight.mouseover" end="arrowRight.mouseout"/>
                  </use>
                  <path fill="none" stroke="white" stroke-width="1.5" d="M0,-3.0v7 M-2.5,-0.5L0,-3.0L2.5,-0.5"/>
                </g>
                <g id="arrowDown" xlink:href="#dirArrow" transform="rotate(180) translate(-30 -48)" onmousedown="handlePan(0,1)">
                  <use xlink:href="#rim" fill="#404040">
                        <set attributeName="fill" to="#808080" begin="arrowDown.mouseover" end="arrowDown.mouseout"/>
                  </use>
                  <path fill="none" stroke="white" stroke-width="1.5" d="M0,-3.0v7 M-2.5,-0.5L0,-3.0L2.5,-0.5"/>
                </g>
                <g id="arrowLeft" xlink:href="#dirArrow" transform="rotate(270) translate(-36 17)" onmousedown="handlePan(-1,0)">
                  <use xlink:href="#rim" fill="#404040">
                        <set attributeName="fill" to="#808080" begin="arrowLeft.mouseover" end="arrowLeft.mouseout"/>
                  </use>
                  <path fill="none" stroke="white" stroke-width="1.5" d="M0,-3.0v7 M-2.5,-0.5L0,-3.0L2.5,-0.5"/>
                </g>
        </g>
        <svg viewBox="0 0 15 15" width="100%" height="30px" preserveAspectRatio="xMaxYMin meet">
         <g id="arrow_out" transform="scale(0.3 0.3)">
          <a xlink:href="class_h_y___cartographic_realization__coll__graph_org.svg" target="_base">
           <rect id="button" ry="5" rx="5" y="6" x="6" height="38" width="38"
                fill="#f2f5e9" fill-opacity="0.5" stroke="#606060" stroke-width="1.0"/>
           <path id="arrow"
             d="M 11.500037,31.436501 C 11.940474,20.09759 22.043105,11.32322 32.158766,21.979434 L 37.068811,17.246167 C 37.068811,17.246167 37.088388,32 37.088388,32 L 22.160133,31.978069 C 22.160133,31.978069 26.997745,27.140456 26.997745,27.140456 C 18.528582,18.264221 13.291696,25.230495 11.500037,31.436501 z"
             style="fill:#404040;"/>
          </a>
         </g>
        </svg>
</svg>
