<?xml version="1.0" encoding="UTF-8" standalone="no"?>
<!DOCTYPE svg PUBLIC "-//W3C//DTD SVG 1.1//EN"
 "http://www.w3.org/Graphics/SVG/1.1/DTD/svg11.dtd">
<!-- Generated by graphviz version 12.2.0 (20241103.1931)
 -->
<!-- Title: ngen::mdarray&lt; T &gt; Pages: 1 -->
<svg width="220pt" height="619pt"
 viewBox="0.00 0.00 220.25 619.25" xmlns="http://www.w3.org/2000/svg" xmlns:xlink="http://www.w3.org/1999/xlink">
<g id="graph0" class="graph" transform="scale(1 1) rotate(0) translate(4 615.25)">
<title>ngen::mdarray&lt; T &gt;</title>
<!-- Node1 -->
<g id="Node000001" class="node">
<title>Node1</title>
<g id="a_Node000001"><a xlink:title=" ">
<polygon fill="#999999" stroke="none" points="157.25,-309 66.75,-309 66.75,0 157.25,0 157.25,-309"/>
<text text-anchor="start" x="70.75" y="-295.5" font-family="Helvetica,sans-Serif" font-size="10.00">ngen::mdarray&lt; T &gt;</text>
<text text-anchor="start" x="71.62" y="-280.25" font-family="Helvetica,sans-Serif" font-size="10.00">+</text>
<text text-anchor="start" x="82.5" y="-280.25" font-family="Helvetica,sans-Serif" font-size="10.00">iterator</text>
<text text-anchor="start" x="71.62" y="-265" font-family="Helvetica,sans-Serif" font-size="10.00">+</text>
<text text-anchor="start" x="82.5" y="-265" font-family="Helvetica,sans-Serif" font-size="10.00">mdarray()</text>
<text text-anchor="start" x="71.62" y="-249.75" font-family="Helvetica,sans-Serif" font-size="10.00">+</text>
<text text-anchor="start" x="82.5" y="-249.75" font-family="Helvetica,sans-Serif" font-size="10.00">mdarray()</text>
<text text-anchor="start" x="71.62" y="-234.5" font-family="Helvetica,sans-Serif" font-size="10.00">+</text>
<text text-anchor="start" x="82.5" y="-234.5" font-family="Helvetica,sans-Serif" font-size="10.00">mdarray()</text>
<text text-anchor="start" x="71.62" y="-219.25" font-family="Helvetica,sans-Serif" font-size="10.00">+</text>
<text text-anchor="start" x="82.5" y="-219.25" font-family="Helvetica,sans-Serif" font-size="10.00">at()</text>
<text text-anchor="start" x="71.62" y="-204" font-family="Helvetica,sans-Serif" font-size="10.00">+</text>
<text text-anchor="start" x="82.5" y="-204" font-family="Helvetica,sans-Serif" font-size="10.00">operator[]()</text>
<text text-anchor="start" x="71.62" y="-188.75" font-family="Helvetica,sans-Serif" font-size="10.00">+</text>
<text text-anchor="start" x="82.5" y="-188.75" font-family="Helvetica,sans-Serif" font-size="10.00">at()</text>
<text text-anchor="start" x="71.62" y="-173.5" font-family="Helvetica,sans-Serif" font-size="10.00">+</text>
<text text-anchor="start" x="82.5" y="-173.5" font-family="Helvetica,sans-Serif" font-size="10.00">operator[]()</text>
<text text-anchor="start" x="71.62" y="-158.25" font-family="Helvetica,sans-Serif" font-size="10.00">+</text>
<text text-anchor="start" x="82.5" y="-158.25" font-family="Helvetica,sans-Serif" font-size="10.00">insert()</text>
<text text-anchor="start" x="71.62" y="-143" font-family="Helvetica,sans-Serif" font-size="10.00">+</text>
<text text-anchor="start" x="82.5" y="-143" font-family="Helvetica,sans-Serif" font-size="10.00">insert()</text>
<text text-anchor="start" x="71.62" y="-127.75" font-family="Helvetica,sans-Serif" font-size="10.00">+</text>
<text text-anchor="start" x="82.5" y="-127.75" font-family="Helvetica,sans-Serif" font-size="10.00">size()</text>
<text text-anchor="start" x="71.62" y="-112.5" font-family="Helvetica,sans-Serif" font-size="10.00">+</text>
<text text-anchor="start" x="82.5" y="-112.5" font-family="Helvetica,sans-Serif" font-size="10.00">begin()</text>
<text text-anchor="start" x="71.62" y="-97.25" font-family="Helvetica,sans-Serif" font-size="10.00">+</text>
<text text-anchor="start" x="82.5" y="-97.25" font-family="Helvetica,sans-Serif" font-size="10.00">end()</text>
<text text-anchor="start" x="71.62" y="-82" font-family="Helvetica,sans-Serif" font-size="10.00">+</text>
<text text-anchor="start" x="82.5" y="-82" font-family="Helvetica,sans-Serif" font-size="10.00">rank()</text>
<text text-anchor="start" x="71.62" y="-66.75" font-family="Helvetica,sans-Serif" font-size="10.00">+</text>
<text text-anchor="start" x="82.5" y="-66.75" font-family="Helvetica,sans-Serif" font-size="10.00">shape()</text>
<text text-anchor="start" x="71.62" y="-51.5" font-family="Helvetica,sans-Serif" font-size="10.00">+</text>
<text text-anchor="start" x="82.5" y="-51.5" font-family="Helvetica,sans-Serif" font-size="10.00">index()</text>
<text text-anchor="start" x="71.62" y="-36.25" font-family="Helvetica,sans-Serif" font-size="10.00">+</text>
<text text-anchor="start" x="82.5" y="-36.25" font-family="Helvetica,sans-Serif" font-size="10.00">deindex()</text>
<text text-anchor="start" x="73.12" y="-21" font-family="Helvetica,sans-Serif" font-size="10.00">&#45;</text>
<text text-anchor="start" x="82.5" y="-21" font-family="Helvetica,sans-Serif" font-size="10.00">max_size()</text>
<text text-anchor="start" x="73.12" y="-5.75" font-family="Helvetica,sans-Serif" font-size="10.00">&#45;</text>
<text text-anchor="start" x="82.5" y="-5.75" font-family="Helvetica,sans-Serif" font-size="10.00">bounds_check()</text>
<polygon fill="#666666" stroke="#666666" points="66.75,-291.75 66.75,-291.75 157.25,-291.75 157.25,-291.75 66.75,-291.75"/>
<polygon fill="#666666" stroke="#666666" points="66.75,-276.5 66.75,-276.5 80.5,-276.5 80.5,-276.5 66.75,-276.5"/>
<polygon fill="#666666" stroke="#666666" points="80.5,-276.5 80.5,-276.5 157.25,-276.5 157.25,-276.5 80.5,-276.5"/>
<polygon fill="none" stroke="#666666" points="66.75,0 66.75,-309 157.25,-309 157.25,0 66.75,0"/>
</a>
</g>
</g>
<!-- Node2 -->
<g id="Node000002" class="node">
<title>Node2</title>
<g id="a_Node000002"><a xlink:title=" ">
<polygon fill="white" stroke="none" points="110,-411.62 0,-411.62 0,-361.88 110,-361.88 110,-411.62"/>
<text text-anchor="start" x="4" y="-398.12" font-family="Helvetica,sans-Serif" font-size="10.00">std::vector&lt; size_type &gt;</text>
<text text-anchor="start" x="17.06" y="-382.88" font-family="Helvetica,sans-Serif" font-size="10.00">+</text>
<text text-anchor="start" x="40.12" y="-382.88" font-family="Helvetica,sans-Serif" font-size="10.00">elements</text>
<text text-anchor="start" x="53.5" y="-367.62" font-family="Helvetica,sans-Serif" font-size="10.00"> </text>
<polygon fill="#666666" stroke="#666666" points="0,-394.38 0,-394.38 110,-394.38 110,-394.38 0,-394.38"/>
<polygon fill="#666666" stroke="#666666" points="0,-379.12 0,-379.12 38.12,-379.12 38.12,-379.12 0,-379.12"/>
<polygon fill="#666666" stroke="#666666" points="38.12,-379.12 38.12,-379.12 110,-379.12 110,-379.12 38.12,-379.12"/>
<polygon fill="none" stroke="#666666" points="0,-361.88 0,-411.62 110,-411.62 110,-361.88 0,-361.88"/>
</a>
</g>
</g>
<!-- Node2&#45;&gt;Node1 -->
<g id="edge1_Node000001_Node000002" class="edge">
<title>Node2&#45;&gt;Node1</title>
<g id="a_edge1_Node000001_Node000002"><a xlink:title=" ">
<path fill="none" stroke="#63b8ff" d="M60.89,-361.98C63.62,-350.94 67.12,-336.79 71.01,-321.06"/>
<polygon fill="none" stroke="#63b8ff" points="70.96,-321.29 68.52,-314.5 73.84,-309.64 76.28,-316.42 70.96,-321.29"/>
</a>
</g>
<text text-anchor="middle" x="91.27" y="-328.75" font-family="Helvetica,sans-Serif" font-size="10.00" fill="grey"> &#45;m_shape</text>
</g>
<!-- Node3 -->
<g id="Node000003" class="node">
<title>Node3</title>
<g id="a_Node000003"><a xlink:title=" ">
<polygon fill="white" stroke="none" points="149.75,-514.25 74.25,-514.25 74.25,-464.5 149.75,-464.5 149.75,-514.25"/>
<text text-anchor="start" x="78.25" y="-500.75" font-family="Helvetica,sans-Serif" font-size="10.00">std::vector&lt; T &gt;</text>
<text text-anchor="start" x="110.5" y="-485.5" font-family="Helvetica,sans-Serif" font-size="10.00"> </text>
<text text-anchor="start" x="110.5" y="-470.25" font-family="Helvetica,sans-Serif" font-size="10.00"> </text>
<polygon fill="#666666" stroke="#666666" points="74.25,-497 74.25,-497 149.75,-497 149.75,-497 74.25,-497"/>
<polygon fill="#666666" stroke="#666666" points="74.25,-481.75 74.25,-481.75 149.75,-481.75 149.75,-481.75 74.25,-481.75"/>
<polygon fill="none" stroke="#666666" points="74.25,-464.5 74.25,-514.25 149.75,-514.25 149.75,-464.5 74.25,-464.5"/>
</a>
</g>
</g>
<!-- Node3&#45;&gt;Node2 -->
<g id="edge2_Node000002_Node000003" class="edge">
<title>Node3&#45;&gt;Node2</title>
<g id="a_edge2_Node000002_Node000003"><a xlink:title=" ">
<path fill="none" stroke="orange" d="M85.45,-455.5C83.43,-452.52 81.5,-449.5 79.75,-446.5 73.34,-435.5 67.7,-422.53 63.42,-411.58"/>
<polygon fill="orange" stroke="orange" points="82.56,-457.47 91.25,-463.54 88.24,-453.38 82.56,-457.47"/>
</a>
</g>
<text text-anchor="middle" x="109.38" y="-437" font-family="Helvetica,sans-Serif" font-size="10.00" fill="grey"> &lt; size_type &gt;</text>
</g>
<!-- Node5 -->
<g id="Node000005" class="node">
<title>Node5</title>
<g id="a_Node000005"><a xlink:title=" ">
<polygon fill="white" stroke="none" points="212.25,-417.25 127.75,-417.25 127.75,-356.25 212.25,-356.25 212.25,-417.25"/>
<text text-anchor="start" x="131.75" y="-403.75" font-family="Helvetica,sans-Serif" font-size="10.00">std::vector&lt; value</text>
<text text-anchor="start" x="154.25" y="-392.5" font-family="Helvetica,sans-Serif" font-size="10.00">_type &gt;</text>
<text text-anchor="start" x="138.44" y="-377.25" font-family="Helvetica,sans-Serif" font-size="10.00">+</text>
<text text-anchor="start" x="155.12" y="-377.25" font-family="Helvetica,sans-Serif" font-size="10.00">elements</text>
<text text-anchor="start" x="168.5" y="-362" font-family="Helvetica,sans-Serif" font-size="10.00"> </text>
<polygon fill="#666666" stroke="#666666" points="127.75,-388.75 127.75,-388.75 212.25,-388.75 212.25,-388.75 127.75,-388.75"/>
<polygon fill="#666666" stroke="#666666" points="127.75,-373.5 127.75,-373.5 153.12,-373.5 153.12,-373.5 127.75,-373.5"/>
<polygon fill="#666666" stroke="#666666" points="153.12,-373.5 153.12,-373.5 212.25,-373.5 212.25,-373.5 153.12,-373.5"/>
<polygon fill="none" stroke="#666666" points="127.75,-356.25 127.75,-417.25 212.25,-417.25 212.25,-356.25 127.75,-356.25"/>
</a>
</g>
</g>
<!-- Node3&#45;&gt;Node5 -->
<g id="edge5_Node000005_Node000003" class="edge">
<title>Node3&#45;&gt;Node5</title>
<g id="a_edge5_Node000005_Node000003"><a xlink:title=" ">
<path fill="none" stroke="orange" d="M133.85,-455.05C135.63,-452.18 137.36,-449.3 139,-446.5 144.53,-437.04 150.22,-426.51 155.2,-417.01"/>
<polygon fill="orange" stroke="orange" points="130.96,-453.08 128.59,-463.4 136.88,-456.81 130.96,-453.08"/>
</a>
</g>
<text text-anchor="middle" x="177.91" y="-437" font-family="Helvetica,sans-Serif" font-size="10.00" fill="grey"> &lt; value_type &gt;</text>
</g>
<!-- Node4 -->
<g id="Node000004" class="node">
<title>Node4</title>
<g id="a_Node000004"><a xlink:title=" ">
<polygon fill="white" stroke="none" points="119,-611.25 105,-611.25 105,-561.5 119,-561.5 119,-611.25"/>
<text text-anchor="start" x="109" y="-597.75" font-family="Helvetica,sans-Serif" font-size="10.00">T</text>
<text text-anchor="start" x="110.5" y="-582.5" font-family="Helvetica,sans-Serif" font-size="10.00"> </text>
<text text-anchor="start" x="110.5" y="-567.25" font-family="Helvetica,sans-Serif" font-size="10.00"> </text>
<polygon fill="#666666" stroke="#666666" points="105,-594 105,-594 119,-594 119,-594 105,-594"/>
<polygon fill="#666666" stroke="#666666" points="105,-578.75 105,-578.75 119,-578.75 119,-578.75 105,-578.75"/>
<polygon fill="none" stroke="#666666" points="105,-561.5 105,-611.25 119,-611.25 119,-561.5 105,-561.5"/>
</a>
</g>
</g>
<!-- Node4&#45;&gt;Node3 -->
<g id="edge3_Node000003_Node000004" class="edge">
<title>Node4&#45;&gt;Node3</title>
<g id="a_edge3_Node000003_Node000004"><a xlink:title=" ">
<path fill="none" stroke="#63b8ff" d="M112,-561.89C112,-551.35 112,-538.67 112,-526.94"/>
<polygon fill="none" stroke="#63b8ff" points="112,-527.15 108,-521.15 112,-515.15 116,-521.15 112,-527.15"/>
</a>
</g>
<text text-anchor="middle" x="136" y="-534" font-family="Helvetica,sans-Serif" font-size="10.00" fill="grey"> +elements</text>
</g>
<!-- Node5&#45;&gt;Node1 -->
<g id="edge4_Node000001_Node000005" class="edge">
<title>Node5&#45;&gt;Node1</title>
<g id="a_edge4_Node000001_Node000005"><a xlink:title=" ">
<path fill="none" stroke="#63b8ff" d="M162.65,-356.59C160.11,-346.49 157.05,-334.34 153.71,-321.08"/>
<polygon fill="none" stroke="#63b8ff" points="153.72,-321.12 148.38,-316.28 150.79,-309.49 156.13,-314.33 153.72,-321.12"/>
</a>
</g>
<text text-anchor="middle" x="176.22" y="-328.75" font-family="Helvetica,sans-Serif" font-size="10.00" fill="grey"> &#45;m_data</text>
</g>
</g>
</svg>
