<?xml version="1.0" encoding="UTF-8" standalone="no"?>
<!DOCTYPE svg PUBLIC "-//W3C//DTD SVG 1.1//EN"
 "http://www.w3.org/Graphics/SVG/1.1/DTD/svg11.dtd">
<!-- Generated by graphviz version 12.2.0 (20241103.1931)
 -->
<!-- Title: geojson::JSONProperty Pages: 1 -->
<!--zoomable 620 -->

<svg id="main" version="1.1" xmlns="http://www.w3.org/2000/svg" xmlns:xlink="http://www.w3.org/1999/xlink" xml:space="preserve" onload="init(evt)">

<style type="text/css"><![CDATA[
.node, .edge {opacity: 0.7;}
.node.selected, .edge.selected {opacity: 1;}
.edge:hover path { stroke: red; }
.edge:hover polygon { stroke: red; fill: red; }
]]></style>

<defs>
  <circle id="rim" cx="0" cy="0" r="7"/>
  <circle id="rim2" cx="0" cy="0" r="3.5"/>
  <g id="zoomPlus">
    <use xlink:href="#rim" fill="#404040"><set attributeName="fill" to="#808080" begin="zoomplus.mouseover" end="zoomplus.mouseout"/></use>
    <path d="M-4,0h8M0,-4v8" fill="none" stroke="white" stroke-width="1.5" pointer-events="none"/>
  </g>
  <g id="zoomMin">
    <use xlink:href="#rim" fill="#404040"><set attributeName="fill" to="#808080" begin="zoomminus.mouseover" end="zoomminus.mouseout"/></use>
    <path d="M-4,0h8" fill="none" stroke="white" stroke-width="1.5" pointer-events="none"/>
  </g>
  <g id="arrowUp" transform="translate(30 24)">
    <use xlink:href="#rim"/>
    <path pointer-events="none" fill="none" stroke="white" stroke-width="1.5" d="M0,-3.0v7 M-2.5,-0.5L0,-3.0L2.5,-0.5"/>
  </g>
  <g id="arrowRight" transform="rotate(90) translate(36 -43)">
    <use xlink:href="#rim"/>
    <path pointer-events="none" fill="none" stroke="white" stroke-width="1.5" d="M0,-3.0v7 M-2.5,-0.5L0,-3.0L2.5,-0.5"/>
  </g>
  <g id="arrowDown" transform="rotate(180) translate(-30 -48)">
    <use xlink:href="#rim"/>
    <path pointer-events="none" fill="none" stroke="white" stroke-width="1.5" d="M0,-3.0v7 M-2.5,-0.5L0,-3.0L2.5,-0.5"/>
  </g>
  <g id="arrowLeft" transform="rotate(270) translate(-36 17)">
    <use xlink:href="#rim"/>
    <path pointer-events="none" fill="none" stroke="white" stroke-width="1.5" d="M0,-3.0v7 M-2.5,-0.5L0,-3.0L2.5,-0.5"/>
  </g>
  <g id="resetDef">
    <use xlink:href="#rim2" fill="#404040"><set attributeName="fill" to="#808080" begin="reset.mouseover" end="reset.mouseout"/></use>
  </g>
</defs>
<script type="application/ecmascript">
var viewWidth = 582;
var viewHeight = 620;
var sectionId = 'dynsection-0';
</script>
<script type="application/ecmascript" xlink:href="svg.min.js"/>
<svg id="graph" class="graph">
<g id="viewport">
<title>geojson::JSONProperty</title>
<!-- Node1 -->
<g id="Node000001" class="node">
<title>Node1</title>
<g id="a_Node000001"><a xlink:title="@TODO: Convert JSONProperty into a variant of the supported types">
<polygon fill="#999999" stroke="none" points="328.88,-417.25 219.62,-417.25 219.62,-108.25 328.88,-108.25 328.88,-417.25"/>
<text text-anchor="start" x="223.62" y="-403.75" font-family="Helvetica,sans-Serif" font-size="10.00">geojson::JSONProperty</text>
<text text-anchor="start" x="229.38" y="-388.5" font-family="Helvetica,sans-Serif" font-size="10.00">&#45;</text>
<text text-anchor="start" x="242.12" y="-388.5" font-family="Helvetica,sans-Serif" font-size="10.00">type</text>
<text text-anchor="start" x="229.38" y="-373.25" font-family="Helvetica,sans-Serif" font-size="10.00">&#45;</text>
<text text-anchor="start" x="242.12" y="-373.25" font-family="Helvetica,sans-Serif" font-size="10.00">data</text>
<text text-anchor="start" x="227.88" y="-358" font-family="Helvetica,sans-Serif" font-size="10.00">+</text>
<text text-anchor="start" x="242.12" y="-358" font-family="Helvetica,sans-Serif" font-size="10.00">JSONProperty()</text>
<text text-anchor="start" x="227.88" y="-342.75" font-family="Helvetica,sans-Serif" font-size="10.00">+</text>
<text text-anchor="start" x="242.12" y="-342.75" font-family="Helvetica,sans-Serif" font-size="10.00">JSONProperty()</text>
<text text-anchor="start" x="227.88" y="-327.5" font-family="Helvetica,sans-Serif" font-size="10.00">+</text>
<text text-anchor="start" x="242.12" y="-327.5" font-family="Helvetica,sans-Serif" font-size="10.00">JSONProperty()</text>
<text text-anchor="start" x="227.88" y="-312.25" font-family="Helvetica,sans-Serif" font-size="10.00">+</text>
<text text-anchor="start" x="242.12" y="-312.25" font-family="Helvetica,sans-Serif" font-size="10.00">JSONProperty()</text>
<text text-anchor="start" x="227.88" y="-297" font-family="Helvetica,sans-Serif" font-size="10.00">+</text>
<text text-anchor="start" x="242.12" y="-297" font-family="Helvetica,sans-Serif" font-size="10.00">JSONProperty()</text>
<text text-anchor="start" x="227.88" y="-281.75" font-family="Helvetica,sans-Serif" font-size="10.00">+</text>
<text text-anchor="start" x="242.12" y="-281.75" font-family="Helvetica,sans-Serif" font-size="10.00">JSONProperty()</text>
<text text-anchor="start" x="227.88" y="-266.5" font-family="Helvetica,sans-Serif" font-size="10.00">+</text>
<text text-anchor="start" x="242.12" y="-266.5" font-family="Helvetica,sans-Serif" font-size="10.00">JSONProperty()</text>
<text text-anchor="start" x="227.88" y="-251.25" font-family="Helvetica,sans-Serif" font-size="10.00">+</text>
<text text-anchor="start" x="242.12" y="-251.25" font-family="Helvetica,sans-Serif" font-size="10.00">JSONProperty()</text>
<text text-anchor="start" x="227.88" y="-236" font-family="Helvetica,sans-Serif" font-size="10.00">+</text>
<text text-anchor="start" x="242.12" y="-236" font-family="Helvetica,sans-Serif" font-size="10.00">JSONProperty()</text>
<text text-anchor="start" x="227.88" y="-220.75" font-family="Helvetica,sans-Serif" font-size="10.00">+</text>
<text text-anchor="start" x="242.12" y="-220.75" font-family="Helvetica,sans-Serif" font-size="10.00">JSONProperty()</text>
<text text-anchor="start" x="227.88" y="-205.5" font-family="Helvetica,sans-Serif" font-size="10.00">+</text>
<text text-anchor="start" x="242.12" y="-205.5" font-family="Helvetica,sans-Serif" font-size="10.00">JSONProperty()</text>
<text text-anchor="start" x="227.88" y="-190.25" font-family="Helvetica,sans-Serif" font-size="10.00">+</text>
<text text-anchor="start" x="242.12" y="-190.25" font-family="Helvetica,sans-Serif" font-size="10.00">~JSONProperty()</text>
<text text-anchor="start" x="227.88" y="-175" font-family="Helvetica,sans-Serif" font-size="10.00">+</text>
<text text-anchor="start" x="242.12" y="-175" font-family="Helvetica,sans-Serif" font-size="10.00">JSONProperty()</text>
<text text-anchor="start" x="227.88" y="-159.75" font-family="Helvetica,sans-Serif" font-size="10.00">+</text>
<text text-anchor="start" x="242.12" y="-159.75" font-family="Helvetica,sans-Serif" font-size="10.00">JSONProperty()</text>
<text text-anchor="start" x="227.88" y="-144.5" font-family="Helvetica,sans-Serif" font-size="10.00">+</text>
<text text-anchor="start" x="242.12" y="-144.5" font-family="Helvetica,sans-Serif" font-size="10.00">get_type()</text>
<text text-anchor="start" x="242.12" y="-129.25" font-family="Helvetica,sans-Serif" font-size="10.00">and 17 more...</text>
<text text-anchor="start" x="227.88" y="-114" font-family="Helvetica,sans-Serif" font-size="10.00">+</text>
<text text-anchor="start" x="242.12" y="-114" font-family="Helvetica,sans-Serif" font-size="10.00">print_property()</text>
<polygon fill="#666666" stroke="#666666" points="219.62,-400 219.62,-400 328.88,-400 328.88,-400 219.62,-400"/>
<polygon fill="#666666" stroke="#666666" points="219.62,-369.5 219.62,-369.5 240.12,-369.5 240.12,-369.5 219.62,-369.5"/>
<polygon fill="#666666" stroke="#666666" points="240.12,-369.5 240.12,-369.5 328.88,-369.5 328.88,-369.5 240.12,-369.5"/>
<polygon fill="none" stroke="#666666" points="219.62,-108.25 219.62,-417.25 328.88,-417.25 328.88,-108.25 219.62,-108.25"/>
</a>
</g>
</g>
<!-- Node4 -->
<g id="Node000004" class="node">
<title>Node4</title>
<g id="a_Node000004"><a xlink:title=" ">
<polygon fill="white" stroke="none" points="176.25,-61 78.25,-61 78.25,0 176.25,0 176.25,-61"/>
<text text-anchor="start" x="82.25" y="-47.5" font-family="Helvetica,sans-Serif" font-size="10.00">std::map&lt; std::string,</text>
<text text-anchor="start" x="90.5" y="-36.25" font-family="Helvetica,sans-Serif" font-size="10.00"> JSONProperty &gt;</text>
<text text-anchor="start" x="125.75" y="-21" font-family="Helvetica,sans-Serif" font-size="10.00"> </text>
<text text-anchor="start" x="125.75" y="-5.75" font-family="Helvetica,sans-Serif" font-size="10.00"> </text>
<polygon fill="#666666" stroke="#666666" points="78.25,-32.5 78.25,-32.5 176.25,-32.5 176.25,-32.5 78.25,-32.5"/>
<polygon fill="#666666" stroke="#666666" points="78.25,-17.25 78.25,-17.25 176.25,-17.25 176.25,-17.25 78.25,-17.25"/>
<polygon fill="none" stroke="#666666" points="78.25,0 78.25,-61 176.25,-61 176.25,0 78.25,0"/>
</a>
</g>
</g>
<!-- Node1&#45;&gt;Node4 -->
<g id="edge5_Node000004_Node000001" class="edge">
<title>Node1&#45;&gt;Node4</title>
<g id="a_edge5_Node000004_Node000001"><a xlink:title=" ">
<path fill="none" stroke="#63b8ff" d="M219.89,-138.89C208.42,-118.06 195.44,-97.28 181.25,-79 178.88,-75.94 176.29,-72.93 173.57,-69.99"/>
<polygon fill="none" stroke="#63b8ff" points="173.64,-70.07 166.58,-68.64 165.18,-61.56 172.25,-63 173.64,-70.07"/>
</a>
</g>
<text text-anchor="middle" x="211.86" y="-80.75" font-family="Helvetica,sans-Serif" font-size="10.00" fill="grey"> +elements</text>
</g>
<!-- Node8 -->
<g id="Node000008" class="node">
<title>Node8</title>
<g id="a_Node000008"><a xlink:title=" ">
<polygon fill="white" stroke="none" points="449.75,-61 354.75,-61 354.75,0 449.75,0 449.75,-61"/>
<text text-anchor="start" x="358.75" y="-47.5" font-family="Helvetica,sans-Serif" font-size="10.00">std::vector&lt; geojson</text>
<text text-anchor="start" x="364.38" y="-36.25" font-family="Helvetica,sans-Serif" font-size="10.00">::JSONProperty &gt;</text>
<text text-anchor="start" x="400.75" y="-21" font-family="Helvetica,sans-Serif" font-size="10.00"> </text>
<text text-anchor="start" x="400.75" y="-5.75" font-family="Helvetica,sans-Serif" font-size="10.00"> </text>
<polygon fill="#666666" stroke="#666666" points="354.75,-32.5 354.75,-32.5 449.75,-32.5 449.75,-32.5 354.75,-32.5"/>
<polygon fill="#666666" stroke="#666666" points="354.75,-17.25 354.75,-17.25 449.75,-17.25 449.75,-17.25 354.75,-17.25"/>
<polygon fill="none" stroke="#666666" points="354.75,0 354.75,-61 449.75,-61 449.75,0 354.75,0"/>
</a>
</g>
</g>
<!-- Node1&#45;&gt;Node8 -->
<g id="edge10_Node000008_Node000001" class="edge">
<title>Node1&#45;&gt;Node8</title>
<g id="a_edge10_Node000008_Node000001"><a xlink:title=" ">
<path fill="none" stroke="#63b8ff" d="M310.19,-108.57C315.41,-98.12 321.4,-88.13 328.25,-79 332.94,-72.75 338.71,-67.1 344.95,-62.06"/>
<polygon fill="none" stroke="#63b8ff" points="344.64,-62.28 347.11,-55.51 354.31,-55.18 351.85,-61.95 344.64,-62.28"/>
</a>
</g>
<text text-anchor="middle" x="352.25" y="-80.75" font-family="Helvetica,sans-Serif" font-size="10.00" fill="grey"> +elements</text>
</g>
<!-- Node2 -->
<g id="Node000002" class="node">
<title>Node2</title>
<g id="a_Node000002"><a xlink:title=" ">
<polygon fill="white" stroke="none" points="67.25,-514.25 17.25,-514.25 17.25,-464.5 67.25,-464.5 67.25,-514.25"/>
<text text-anchor="start" x="21.25" y="-500.75" font-family="Helvetica,sans-Serif" font-size="10.00">std::string</text>
<text text-anchor="start" x="40.75" y="-485.5" font-family="Helvetica,sans-Serif" font-size="10.00"> </text>
<text text-anchor="start" x="40.75" y="-470.25" font-family="Helvetica,sans-Serif" font-size="10.00"> </text>
<polygon fill="#666666" stroke="#666666" points="17.25,-497 17.25,-497 67.25,-497 67.25,-497 17.25,-497"/>
<polygon fill="#666666" stroke="#666666" points="17.25,-481.75 17.25,-481.75 67.25,-481.75 67.25,-481.75 17.25,-481.75"/>
<polygon fill="none" stroke="#666666" points="17.25,-464.5 17.25,-514.25 67.25,-514.25 67.25,-464.5 17.25,-464.5"/>
</a>
</g>
</g>
<!-- Node2&#45;&gt;Node1 -->
<g id="edge1_Node000001_Node000002" class="edge">
<title>Node2&#45;&gt;Node1</title>
<g id="a_edge1_Node000001_Node000002"><a xlink:title=" ">
<path fill="none" stroke="#63b8ff" d="M67.01,-480.84C103.29,-469.72 167.07,-449.87 171.25,-446.5 186.97,-433.81 200.72,-418.03 212.61,-401.11"/>
<polygon fill="none" stroke="#63b8ff" points="212.58,-401.15 212.6,-393.94 219.27,-391.19 219.25,-398.4 212.58,-401.15"/>
</a>
</g>
<text text-anchor="middle" x="193.98" y="-437" font-family="Helvetica,sans-Serif" font-size="10.00" fill="grey"> &#45;key</text>
</g>
<!-- Node2&#45;&gt;Node4 -->
<g id="edge4_Node000004_Node000002" class="edge">
<title>Node2&#45;&gt;Node4</title>
<g id="a_edge4_Node000004_Node000002"><a xlink:title=" ">
<path fill="none" stroke="#63b8ff" d="M35.05,-464.58C16.44,-398.18 -26.85,-207.34 47.25,-79 52.25,-70.34 59.5,-63.1 67.63,-57.09"/>
<polygon fill="none" stroke="#63b8ff" points="67.49,-57.18 70.33,-50.54 77.54,-50.61 74.7,-57.24 67.49,-57.18"/>
</a>
</g>
<text text-anchor="middle" x="45.59" y="-258.88" font-family="Helvetica,sans-Serif" font-size="10.00" fill="grey"> +keys</text>
</g>
<!-- Node3 -->
<g id="Node000003" class="node">
<title>Node3</title>
<g id="a_Node000003"><a xlink:title=" ">
<polygon fill="white" stroke="none" points="84.5,-612.25 0,-612.25 0,-551.25 84.5,-551.25 84.5,-612.25"/>
<text text-anchor="start" x="4" y="-598.75" font-family="Helvetica,sans-Serif" font-size="10.00">std::basic_string&lt;</text>
<text text-anchor="start" x="26.88" y="-587.5" font-family="Helvetica,sans-Serif" font-size="10.00"> Char &gt;</text>
<text text-anchor="start" x="40.75" y="-572.25" font-family="Helvetica,sans-Serif" font-size="10.00"> </text>
<text text-anchor="start" x="40.75" y="-557" font-family="Helvetica,sans-Serif" font-size="10.00"> </text>
<polygon fill="#666666" stroke="#666666" points="0,-583.75 0,-583.75 84.5,-583.75 84.5,-583.75 0,-583.75"/>
<polygon fill="#666666" stroke="#666666" points="0,-568.5 0,-568.5 84.5,-568.5 84.5,-568.5 0,-568.5"/>
<polygon fill="none" stroke="#666666" points="0,-551.25 0,-612.25 84.5,-612.25 84.5,-551.25 0,-551.25"/>
</a>
</g>
</g>
<!-- Node3&#45;&gt;Node2 -->
<g id="edge2_Node000002_Node000003" class="edge">
<title>Node3&#45;&gt;Node2</title>
<g id="a_edge2_Node000002_Node000003"><a xlink:title=" ">
<path fill="none" stroke="#63b8ff" d="M42.25,-540.15C42.25,-531.19 42.25,-522 42.25,-513.98"/>
<polygon fill="none" stroke="#63b8ff" points="38.75,-540.14 42.25,-550.14 45.75,-540.14 38.75,-540.14"/>
</a>
</g>
</g>
<!-- Node4&#45;&gt;Node1 -->
<g id="edge3_Node000001_Node000004" class="edge">
<title>Node4&#45;&gt;Node1</title>
<g id="a_edge3_Node000001_Node000004"><a xlink:title=" ">
<path fill="none" stroke="#63b8ff" d="M176.02,-37.69C202.69,-43.72 233.94,-55.59 252.25,-79 256.62,-84.59 260.39,-90.57 263.65,-96.86"/>
<polygon fill="none" stroke="#63b8ff" points="263.59,-96.73 269.72,-100.52 268.58,-107.64 262.45,-103.85 263.59,-96.73"/>
</a>
</g>
<text text-anchor="middle" x="274.8" y="-80.75" font-family="Helvetica,sans-Serif" font-size="10.00" fill="grey"> &#45;values</text>
</g>
<!-- Node5 -->
<g id="Node000005" class="node">
<title>Node5</title>
<g id="a_Node000005"><a xlink:title=" ">
<polygon fill="white" stroke="none" points="178.88,-287.62 99.62,-287.62 99.62,-237.88 178.88,-237.88 178.88,-287.62"/>
<text text-anchor="start" x="103.62" y="-274.12" font-family="Helvetica,sans-Serif" font-size="10.00">std::map&lt; K, T &gt;</text>
<text text-anchor="start" x="137.75" y="-258.88" font-family="Helvetica,sans-Serif" font-size="10.00"> </text>
<text text-anchor="start" x="137.75" y="-243.62" font-family="Helvetica,sans-Serif" font-size="10.00"> </text>
<polygon fill="#666666" stroke="#666666" points="99.62,-270.38 99.62,-270.38 178.88,-270.38 178.88,-270.38 99.62,-270.38"/>
<polygon fill="#666666" stroke="#666666" points="99.62,-255.12 99.62,-255.12 178.88,-255.12 178.88,-255.12 99.62,-255.12"/>
<polygon fill="none" stroke="#666666" points="99.62,-237.88 99.62,-287.62 178.88,-287.62 178.88,-237.88 99.62,-237.88"/>
</a>
</g>
</g>
<!-- Node5&#45;&gt;Node4 -->
<g id="edge6_Node000004_Node000005" class="edge">
<title>Node5&#45;&gt;Node4</title>
<g id="a_edge6_Node000004_Node000005"><a xlink:title=" ">
<path fill="none" stroke="orange" d="M116.49,-228.67C95.1,-195.41 64.58,-141.82 52.25,-90.25 47.94,-72.23 61.76,-58.74 78.67,-49.25"/>
<polygon fill="orange" stroke="orange" points="113.3,-230.18 121.7,-236.63 119.16,-226.35 113.3,-230.18"/>
</a>
</g>
<text text-anchor="middle" x="116.75" y="-80.75" font-family="Helvetica,sans-Serif" font-size="10.00" fill="grey"> &lt; std::string, JSONProperty &gt;</text>
</g>
<!-- Node6 -->
<g id="Node000006" class="node">
<title>Node6</title>
<g id="a_Node000006"><a xlink:title=" ">
<polygon fill="white" stroke="none" points="146.62,-514.25 131.88,-514.25 131.88,-464.5 146.62,-464.5 146.62,-514.25"/>
<text text-anchor="start" x="135.88" y="-500.75" font-family="Helvetica,sans-Serif" font-size="10.00">K</text>
<text text-anchor="start" x="137.75" y="-485.5" font-family="Helvetica,sans-Serif" font-size="10.00"> </text>
<text text-anchor="start" x="137.75" y="-470.25" font-family="Helvetica,sans-Serif" font-size="10.00"> </text>
<polygon fill="#666666" stroke="#666666" points="131.88,-497 131.88,-497 146.62,-497 146.62,-497 131.88,-497"/>
<polygon fill="#666666" stroke="#666666" points="131.88,-481.75 131.88,-481.75 146.62,-481.75 146.62,-481.75 131.88,-481.75"/>
<polygon fill="none" stroke="#666666" points="131.88,-464.5 131.88,-514.25 146.62,-514.25 146.62,-464.5 131.88,-464.5"/>
</a>
</g>
</g>
<!-- Node6&#45;&gt;Node5 -->
<g id="edge7_Node000005_Node000006" class="edge">
<title>Node6&#45;&gt;Node5</title>
<g id="a_edge7_Node000005_Node000006"><a xlink:title=" ">
<path fill="none" stroke="#63b8ff" d="M139.25,-464.76C139.25,-425.58 139.25,-346.86 139.25,-300.41"/>
<polygon fill="none" stroke="#63b8ff" points="139.25,-300.29 135.25,-294.29 139.25,-288.29 143.25,-294.29 139.25,-300.29"/>
</a>
</g>
<text text-anchor="middle" x="153.5" y="-437" font-family="Helvetica,sans-Serif" font-size="10.00" fill="grey"> +keys</text>
</g>
<!-- Node7 -->
<g id="Node000007" class="node">
<title>Node7</title>
<g id="a_Node000007"><a xlink:title=" ">
<polygon fill="white" stroke="none" points="322.25,-514.25 308.25,-514.25 308.25,-464.5 322.25,-464.5 322.25,-514.25"/>
<text text-anchor="start" x="312.25" y="-500.75" font-family="Helvetica,sans-Serif" font-size="10.00">T</text>
<text text-anchor="start" x="313.75" y="-485.5" font-family="Helvetica,sans-Serif" font-size="10.00"> </text>
<text text-anchor="start" x="313.75" y="-470.25" font-family="Helvetica,sans-Serif" font-size="10.00"> </text>
<polygon fill="#666666" stroke="#666666" points="308.25,-497 308.25,-497 322.25,-497 322.25,-497 308.25,-497"/>
<polygon fill="#666666" stroke="#666666" points="308.25,-481.75 308.25,-481.75 322.25,-481.75 322.25,-481.75 308.25,-481.75"/>
<polygon fill="none" stroke="#666666" points="308.25,-464.5 308.25,-514.25 322.25,-514.25 322.25,-464.5 308.25,-464.5"/>
</a>
</g>
</g>
<!-- Node7&#45;&gt;Node5 -->
<g id="edge8_Node000005_Node000007" class="edge">
<title>Node7&#45;&gt;Node5</title>
<g id="a_edge8_Node000005_Node000007"><a xlink:title=" ">
<path fill="none" stroke="#63b8ff" d="M308.32,-482.77C295.74,-472.69 268.14,-451.12 243.25,-435.25 229.16,-426.27 221.67,-429.45 210.25,-417.25 178.81,-383.66 159.26,-333.68 148.82,-299.96"/>
<polygon fill="none" stroke="#63b8ff" points="148.78,-299.84 143.25,-295.22 145.39,-288.33 150.93,-292.95 148.78,-299.84"/>
</a>
</g>
<text text-anchor="middle" x="283.55" y="-437" font-family="Helvetica,sans-Serif" font-size="10.00" fill="grey"> +elements</text>
</g>
<!-- Node9 -->
<g id="Node000009" class="node">
<title>Node9</title>
<g id="a_Node000009"><a xlink:title=" ">
<polygon fill="white" stroke="none" points="466,-287.62 390.5,-287.62 390.5,-237.88 466,-237.88 466,-287.62"/>
<text text-anchor="start" x="394.5" y="-274.12" font-family="Helvetica,sans-Serif" font-size="10.00">std::vector&lt; T &gt;</text>
<text text-anchor="start" x="426.75" y="-258.88" font-family="Helvetica,sans-Serif" font-size="10.00"> </text>
<text text-anchor="start" x="426.75" y="-243.62" font-family="Helvetica,sans-Serif" font-size="10.00"> </text>
<polygon fill="#666666" stroke="#666666" points="390.5,-270.38 390.5,-270.38 466,-270.38 466,-270.38 390.5,-270.38"/>
<polygon fill="#666666" stroke="#666666" points="390.5,-255.12 390.5,-255.12 466,-255.12 466,-255.12 390.5,-255.12"/>
<polygon fill="none" stroke="#666666" points="390.5,-237.88 390.5,-287.62 466,-287.62 466,-237.88 390.5,-237.88"/>
</a>
</g>
</g>
<!-- Node7&#45;&gt;Node9 -->
<g id="edge12_Node000009_Node000007" class="edge">
<title>Node7&#45;&gt;Node9</title>
<g id="a_edge12_Node000009_Node000007"><a xlink:title=" ">
<path fill="none" stroke="#63b8ff" d="M322.15,-474.66C339.46,-440.25 385.15,-349.42 410.57,-298.9"/>
<polygon fill="none" stroke="#63b8ff" points="410.61,-298.81 409.74,-291.65 416.01,-288.09 416.88,-295.24 410.61,-298.81"/>
</a>
</g>
<text text-anchor="middle" x="363.66" y="-437" font-family="Helvetica,sans-Serif" font-size="10.00" fill="grey"> +elements</text>
</g>
<!-- Node8&#45;&gt;Node1 -->
<g id="edge9_Node000001_Node000008" class="edge">
<title>Node8&#45;&gt;Node1</title>
<g id="a_edge9_Node000001_Node000008"><a xlink:title=" ">
<path fill="none" stroke="#63b8ff" d="M392.5,-60.96C389.01,-70.47 384.81,-80.96 380.25,-90.25 367.23,-116.8 351.25,-144.51 335.7,-169.72"/>
<polygon fill="none" stroke="#63b8ff" points="335.65,-169.79 335.87,-177 329.3,-179.97 329.08,-172.76 335.65,-169.79"/>
</a>
</g>
<text text-anchor="middle" x="408.49" y="-80.75" font-family="Helvetica,sans-Serif" font-size="10.00" fill="grey"> &#45;value_list</text>
</g>
<!-- Node9&#45;&gt;Node8 -->
<g id="edge11_Node000008_Node000009" class="edge">
<title>Node9&#45;&gt;Node8</title>
<g id="a_edge11_Node000008_Node000009"><a xlink:title=" ">
<path fill="none" stroke="orange" d="M442.26,-227.47C455.51,-189.66 470.58,-127.72 450.25,-79 447.54,-72.51 443.47,-66.45 438.81,-60.98"/>
<polygon fill="orange" stroke="orange" points="439.11,-225.91 438.95,-236.51 445.68,-228.32 439.11,-225.91"/>
</a>
</g>
<text text-anchor="middle" x="513.63" y="-80.75" font-family="Helvetica,sans-Serif" font-size="10.00" fill="grey"> &lt; geojson::JSONProperty &gt;</text>
</g>
</g>
</svg>

<g id="navigator" transform="translate(0 0)" fill="#404254">
  <rect fill="#f2f5e9" fill-opacity="0.5" stroke="#606060" stroke-width=".5" x="0" y="0" width="60" height="60"/>
  <use id="zoomplus" xlink:href="#zoomPlus" x="17" y="9" onmousedown="handleZoom(evt,'in')"/>
  <use id="zoomminus" xlink:href="#zoomMin" x="42" y="9" onmousedown="handleZoom(evt,'out')"/>
  <use id="reset" xlink:href="#resetDef" x="30" y="36" onmousedown="handleReset()"/>
   <use id="arrowup" xlink:href="#arrowUp" x="0" y="0" onmousedown="handlePan(0,-1)"/>
  <use id="arrowright" xlink:href="#arrowRight" x="0" y="0" onmousedown="handlePan(1,0)"/>
  <use id="arrowdown" xlink:href="#arrowDown" x="0" y="0" onmousedown="handlePan(0,1)"/>
  <use id="arrowleft" xlink:href="#arrowLeft" x="0" y="0" onmousedown="handlePan(-1,0)"/>
</g>
<svg viewBox="0 0 15 15" width="100%" height="30px" preserveAspectRatio="xMaxYMin meet">
 <g id="arrow_out" transform="scale(0.3 0.3)">
  <a xlink:href="classgeojson_1_1_j_s_o_n_property__coll__graph_org.svg" target="_base">
   <rect id="button" ry="5" rx="5" y="6" x="6" height="38" width="38"
        fill="#f2f5e9" fill-opacity="0.5" stroke="#606060" stroke-width="1.0"/>
   <path id="arrow"
     d="M 11.500037,31.436501 C 11.940474,20.09759 22.043105,11.32322 32.158766,21.979434 L 37.068811,17.246167 C 37.068811,17.246167 37.088388,32 37.088388,32 L 22.160133,31.978069 C 22.160133,31.978069 26.997745,27.140456 26.997745,27.140456 C 18.528582,18.264221 13.291696,25.230495 11.500037,31.436501 z"
     style="fill:#404040;"/>
  </a>
 </g>
</svg>

<style type='text/css'>
<![CDATA[
[data-mouse-over-selected='false'] { opacity: 0.7; }
[data-mouse-over-selected='true']  { opacity: 1.0; }
]]>
</style>
<script type="application/ecmascript"><![CDATA[
document.addEventListener('DOMContentLoaded', (event) => {
  highlightEdges();
  highlightAdjacentNodes();
});
]]></script>
</svg>
