<?xml version="1.0" encoding="UTF-8" standalone="no"?>
<!DOCTYPE svg PUBLIC "-//W3C//DTD SVG 1.1//EN"
 "http://www.w3.org/Graphics/SVG/1.1/DTD/svg11.dtd">
<!-- Generated by graphviz version 9.0.0 (20230911.1827)
 -->
<!-- Title: geojson::MultiLineStringFeature Pages: 1 -->
<svg width="720pt" height="1429pt"
 viewBox="0.00 0.00 719.50 1428.75" xmlns="http://www.w3.org/2000/svg" xmlns:xlink="http://www.w3.org/1999/xlink">
<g id="graph0" class="graph" transform="scale(1 1) rotate(0) translate(4 1424.75)">
<title>geojson::MultiLineStringFeature</title>
<!-- Node1 -->
<g id="Node000001" class="node">
<title>Node1</title>
<g id="a_Node000001"><a xlink:title=" ">
<polygon fill="#999999" stroke="none" points="603,-120 481,-120 481,0 603,0 603,-120"/>
<text text-anchor="start" x="490.25" y="-106.5" font-family="Helvetica,sans-Serif" font-size="10.00">geojson::MultiLineString</text>
<text text-anchor="start" x="525.5" y="-95.25" font-family="Helvetica,sans-Serif" font-size="10.00">Feature</text>
<text text-anchor="start" x="540.5" y="-80.5" font-family="Helvetica,sans-Serif" font-size="10.00"> </text>
<text text-anchor="start" x="485" y="-65.5" font-family="Helvetica,sans-Serif" font-size="10.00">+</text>
<text text-anchor="start" x="495" y="-65.5" font-family="Helvetica,sans-Serif" font-size="10.00">MultiLineStringFeature()</text>
<text text-anchor="start" x="485" y="-50.5" font-family="Helvetica,sans-Serif" font-size="10.00">+</text>
<text text-anchor="start" x="495" y="-50.5" font-family="Helvetica,sans-Serif" font-size="10.00">MultiLineStringFeature()</text>
<text text-anchor="start" x="485" y="-35.5" font-family="Helvetica,sans-Serif" font-size="10.00">+</text>
<text text-anchor="start" x="495" y="-35.5" font-family="Helvetica,sans-Serif" font-size="10.00">MultiLineStringFeature()</text>
<text text-anchor="start" x="485" y="-20.5" font-family="Helvetica,sans-Serif" font-size="10.00">+</text>
<text text-anchor="start" x="495" y="-20.5" font-family="Helvetica,sans-Serif" font-size="10.00">geometry()</text>
<text text-anchor="start" x="485" y="-5.5" font-family="Helvetica,sans-Serif" font-size="10.00">+</text>
<text text-anchor="start" x="495" y="-5.5" font-family="Helvetica,sans-Serif" font-size="10.00">visit()</text>
<polygon fill="#666666" stroke="#666666" points="481,-92 481,-92 603,-92 603,-92 481,-92"/>
<polygon fill="#666666" stroke="#666666" points="481,-77 481,-77 603,-77 603,-77 481,-77"/>
<polygon fill="none" stroke="#666666" points="481,0 481,-120 603,-120 603,0 481,0"/>
</a>
</g>
</g>
<!-- Node2 -->
<g id="Node000002" class="node">
<title>Node2</title>
<g id="a_Node000002"><a xlink:href="classgeojson_1_1_feature_base.html" target="_top" xlink:title="Represents an individual feature within a Geojson definition.">
<polygon fill="white" stroke="none" points="444.5,-553.75 317.5,-553.75 317.5,-189.75 444.5,-189.75 444.5,-553.75"/>
<text text-anchor="start" x="334.12" y="-540.25" font-family="Helvetica,sans-Serif" font-size="10.00">geojson::FeatureBase</text>
<text text-anchor="start" x="321.88" y="-525.25" font-family="Helvetica,sans-Serif" font-size="10.00">#</text>
<text text-anchor="start" x="331.5" y="-525.25" font-family="Helvetica,sans-Serif" font-size="10.00">type</text>
<text text-anchor="start" x="321.88" y="-510.25" font-family="Helvetica,sans-Serif" font-size="10.00">#</text>
<text text-anchor="start" x="331.5" y="-510.25" font-family="Helvetica,sans-Serif" font-size="10.00">geom</text>
<text text-anchor="start" x="321.5" y="-495.25" font-family="Helvetica,sans-Serif" font-size="10.00">+</text>
<text text-anchor="start" x="331.5" y="-495.25" font-family="Helvetica,sans-Serif" font-size="10.00">FeatureBase()</text>
<text text-anchor="start" x="321.5" y="-480.25" font-family="Helvetica,sans-Serif" font-size="10.00">+</text>
<text text-anchor="start" x="331.5" y="-480.25" font-family="Helvetica,sans-Serif" font-size="10.00">~FeatureBase()</text>
<text text-anchor="start" x="321.5" y="-465.25" font-family="Helvetica,sans-Serif" font-size="10.00">+</text>
<text text-anchor="start" x="331.5" y="-465.25" font-family="Helvetica,sans-Serif" font-size="10.00">get_type()</text>
<text text-anchor="start" x="321.5" y="-450.25" font-family="Helvetica,sans-Serif" font-size="10.00">+</text>
<text text-anchor="start" x="331.5" y="-450.25" font-family="Helvetica,sans-Serif" font-size="10.00">add_origination_feature()</text>
<text text-anchor="start" x="321.5" y="-435.25" font-family="Helvetica,sans-Serif" font-size="10.00">+</text>
<text text-anchor="start" x="331.5" y="-435.25" font-family="Helvetica,sans-Serif" font-size="10.00">add_destination_feature()</text>
<text text-anchor="start" x="321.5" y="-420.25" font-family="Helvetica,sans-Serif" font-size="10.00">+</text>
<text text-anchor="start" x="331.5" y="-420.25" font-family="Helvetica,sans-Serif" font-size="10.00">assign_neighbors()</text>
<text text-anchor="start" x="321.5" y="-405.25" font-family="Helvetica,sans-Serif" font-size="10.00">+</text>
<text text-anchor="start" x="331.5" y="-405.25" font-family="Helvetica,sans-Serif" font-size="10.00">add_neighbor_feature()</text>
<text text-anchor="start" x="321.5" y="-390.25" font-family="Helvetica,sans-Serif" font-size="10.00">+</text>
<text text-anchor="start" x="331.5" y="-390.25" font-family="Helvetica,sans-Serif" font-size="10.00">get_property()</text>
<text text-anchor="start" x="321.5" y="-375.25" font-family="Helvetica,sans-Serif" font-size="10.00">+</text>
<text text-anchor="start" x="331.5" y="-375.25" font-family="Helvetica,sans-Serif" font-size="10.00">set_id()</text>
<text text-anchor="start" x="321.5" y="-360.25" font-family="Helvetica,sans-Serif" font-size="10.00">+</text>
<text text-anchor="start" x="331.5" y="-360.25" font-family="Helvetica,sans-Serif" font-size="10.00">get()</text>
<text text-anchor="start" x="321.5" y="-345.25" font-family="Helvetica,sans-Serif" font-size="10.00">+</text>
<text text-anchor="start" x="331.5" y="-345.25" font-family="Helvetica,sans-Serif" font-size="10.00">set()</text>
<text text-anchor="start" x="321.5" y="-330.25" font-family="Helvetica,sans-Serif" font-size="10.00">+</text>
<text text-anchor="start" x="331.5" y="-330.25" font-family="Helvetica,sans-Serif" font-size="10.00">set()</text>
<text text-anchor="start" x="321.5" y="-315.25" font-family="Helvetica,sans-Serif" font-size="10.00">+</text>
<text text-anchor="start" x="331.5" y="-315.25" font-family="Helvetica,sans-Serif" font-size="10.00">set()</text>
<text text-anchor="start" x="321.5" y="-300.25" font-family="Helvetica,sans-Serif" font-size="10.00">+</text>
<text text-anchor="start" x="331.5" y="-300.25" font-family="Helvetica,sans-Serif" font-size="10.00">set()</text>
<text text-anchor="start" x="321.5" y="-285.25" font-family="Helvetica,sans-Serif" font-size="10.00">+</text>
<text text-anchor="start" x="331.5" y="-285.25" font-family="Helvetica,sans-Serif" font-size="10.00">set()</text>
<text text-anchor="start" x="331.5" y="-270.25" font-family="Helvetica,sans-Serif" font-size="10.00">and 31 more...</text>
<text text-anchor="start" x="321.88" y="-255.25" font-family="Helvetica,sans-Serif" font-size="10.00">#</text>
<text text-anchor="start" x="331.5" y="-255.25" font-family="Helvetica,sans-Serif" font-size="10.00">FeatureBase()</text>
<text text-anchor="start" x="321.88" y="-240.25" font-family="Helvetica,sans-Serif" font-size="10.00">#</text>
<text text-anchor="start" x="331.5" y="-240.25" font-family="Helvetica,sans-Serif" font-size="10.00">break_links()</text>
<text text-anchor="start" x="321.88" y="-225.25" font-family="Helvetica,sans-Serif" font-size="10.00">#</text>
<text text-anchor="start" x="331.5" y="-225.25" font-family="Helvetica,sans-Serif" font-size="10.00">remove_destination()</text>
<text text-anchor="start" x="321.88" y="-210.25" font-family="Helvetica,sans-Serif" font-size="10.00">#</text>
<text text-anchor="start" x="331.5" y="-210.25" font-family="Helvetica,sans-Serif" font-size="10.00">remove_origination()</text>
<text text-anchor="start" x="321.88" y="-195.25" font-family="Helvetica,sans-Serif" font-size="10.00">#</text>
<text text-anchor="start" x="331.5" y="-195.25" font-family="Helvetica,sans-Serif" font-size="10.00">remove_neighbor()</text>
<polygon fill="#666666" stroke="#666666" points="317.5,-536.75 317.5,-536.75 444.5,-536.75 444.5,-536.75 317.5,-536.75"/>
<polygon fill="#666666" stroke="#666666" points="317.5,-506.75 317.5,-506.75 329.5,-506.75 329.5,-506.75 317.5,-506.75"/>
<polygon fill="#666666" stroke="#666666" points="329.5,-506.75 329.5,-506.75 444.5,-506.75 444.5,-506.75 329.5,-506.75"/>
<polygon fill="none" stroke="#666666" points="317.5,-189.75 317.5,-553.75 444.5,-553.75 444.5,-189.75 317.5,-189.75"/>
</a>
</g>
</g>
<!-- Node2&#45;&gt;Node1 -->
<g id="edge1_Node000001_Node000002" class="edge">
<title>Node2&#45;&gt;Node1</title>
<g id="a_edge1_Node000001_Node000002"><a xlink:title=" ">
<path fill="none" stroke="#63b8ff" d="M449.7,-238.58C471.23,-197.15 493.91,-153.51 511.41,-119.86"/>
<polygon fill="none" stroke="#63b8ff" points="446.6,-236.94 445.1,-247.43 452.82,-240.17 446.6,-236.94"/>
</a>
</g>
</g>
<!-- Node14 -->
<g id="Node000014" class="node">
<title>Node14</title>
<g id="a_Node000014"><a xlink:title=" ">
<polygon fill="white" stroke="none" points="462.5,-90 365.5,-90 365.5,-30 462.5,-30 462.5,-90"/>
<text text-anchor="start" x="370.5" y="-76.5" font-family="Helvetica,sans-Serif" font-size="10.00">std::vector&lt; geojson</text>
<text text-anchor="start" x="376.88" y="-65.25" font-family="Helvetica,sans-Serif" font-size="10.00">::FeatureBase * &gt;</text>
<text text-anchor="start" x="412.5" y="-50.5" font-family="Helvetica,sans-Serif" font-size="10.00"> </text>
<text text-anchor="start" x="412.5" y="-35.5" font-family="Helvetica,sans-Serif" font-size="10.00"> </text>
<polygon fill="#666666" stroke="#666666" points="365.5,-62 365.5,-62 462.5,-62 462.5,-62 365.5,-62"/>
<polygon fill="#666666" stroke="#666666" points="365.5,-47 365.5,-47 462.5,-47 462.5,-47 365.5,-47"/>
<polygon fill="none" stroke="#666666" points="365.5,-30 365.5,-90 462.5,-90 462.5,-30 365.5,-30"/>
</a>
</g>
</g>
<!-- Node2&#45;&gt;Node14 -->
<g id="edge21_Node000014_Node000002" class="edge">
<title>Node2&#45;&gt;Node14</title>
<g id="a_edge21_Node000014_Node000002"><a xlink:title=" ">
<path fill="none" stroke="#63b8ff" d="M363.8,-189.86C365.17,-172.19 367.75,-154.65 372,-138 375.25,-125.27 381.07,-112.38 387.37,-100.88"/>
<polygon fill="none" stroke="#63b8ff" points="387.27,-101.06 386.82,-93.86 393.3,-90.68 393.74,-97.88 387.27,-101.06"/>
</a>
</g>
<text text-anchor="middle" x="396" y="-151" font-family="Helvetica,sans-Serif" font-size="10.00" fill="grey"> +elements</text>
</g>
<!-- Node3 -->
<g id="Node000003" class="node">
<title>Node3</title>
<g id="a_Node000003"><a xlink:title=" ">
<polygon fill="white" stroke="none" points="527.5,-1139.25 428.5,-1139.25 428.5,-1079.25 527.5,-1079.25 527.5,-1139.25"/>
<text text-anchor="start" x="433.38" y="-1125.75" font-family="Helvetica,sans-Serif" font-size="10.00">std::vector&lt;::geojson</text>
<text text-anchor="start" x="451.75" y="-1114.5" font-family="Helvetica,sans-Serif" font-size="10.00">::geometry &gt;</text>
<text text-anchor="start" x="443" y="-1099.75" font-family="Helvetica,sans-Serif" font-size="10.00">+</text>
<text text-anchor="start" x="463.5" y="-1099.75" font-family="Helvetica,sans-Serif" font-size="10.00">elements</text>
<text text-anchor="start" x="476.5" y="-1084.75" font-family="Helvetica,sans-Serif" font-size="10.00"> </text>
<polygon fill="#666666" stroke="#666666" points="428.5,-1111.25 428.5,-1111.25 527.5,-1111.25 527.5,-1111.25 428.5,-1111.25"/>
<polygon fill="#666666" stroke="#666666" points="428.5,-1096.25 428.5,-1096.25 461.5,-1096.25 461.5,-1096.25 428.5,-1096.25"/>
<polygon fill="#666666" stroke="#666666" points="461.5,-1096.25 461.5,-1096.25 527.5,-1096.25 527.5,-1096.25 461.5,-1096.25"/>
<polygon fill="none" stroke="#666666" points="428.5,-1079.25 428.5,-1139.25 527.5,-1139.25 527.5,-1079.25 428.5,-1079.25"/>
</a>
</g>
</g>
<!-- Node3&#45;&gt;Node2 -->
<g id="edge2_Node000002_Node000003" class="edge">
<title>Node3&#45;&gt;Node2</title>
<g id="a_edge2_Node000002_Node000003"><a xlink:title=" ">
<path fill="none" stroke="#63b8ff" d="M478.18,-1079.26C478.57,-987.28 478.39,-702.75 462,-612.25 458.44,-592.58 453.58,-572.32 448,-552.32"/>
<polygon fill="none" stroke="#63b8ff" points="447.99,-552.3 442.49,-547.64 444.68,-540.77 450.18,-545.43 447.99,-552.3"/>
</a>
</g>
<text text-anchor="middle" x="519.88" y="-710.88" font-family="Helvetica,sans-Serif" font-size="10.00" fill="grey"> #geometry_collection</text>
</g>
<!-- Node4 -->
<g id="Node000004" class="node">
<title>Node4</title>
<g id="a_Node000004"><a xlink:title=" ">
<polygon fill="white" stroke="none" points="442.5,-1319 365.5,-1319 365.5,-1270 442.5,-1270 442.5,-1319"/>
<text text-anchor="start" x="370.25" y="-1305.5" font-family="Helvetica,sans-Serif" font-size="10.00">std::vector&lt; T &gt;</text>
<text text-anchor="start" x="402.5" y="-1290.5" font-family="Helvetica,sans-Serif" font-size="10.00"> </text>
<text text-anchor="start" x="402.5" y="-1275.5" font-family="Helvetica,sans-Serif" font-size="10.00"> </text>
<polygon fill="#666666" stroke="#666666" points="365.5,-1302 365.5,-1302 442.5,-1302 442.5,-1302 365.5,-1302"/>
<polygon fill="#666666" stroke="#666666" points="365.5,-1287 365.5,-1287 442.5,-1287 442.5,-1287 365.5,-1287"/>
<polygon fill="none" stroke="#666666" points="365.5,-1270 365.5,-1319 442.5,-1319 442.5,-1270 365.5,-1270"/>
</a>
</g>
</g>
<!-- Node4&#45;&gt;Node3 -->
<g id="edge3_Node000003_Node000004" class="edge">
<title>Node4&#45;&gt;Node3</title>
<g id="a_edge3_Node000003_Node000004"><a xlink:title=" ">
<path fill="none" stroke="orange" d="M429.6,-1261.14C438.8,-1248.13 448.5,-1232.59 455,-1217.25 465.74,-1191.88 471.7,-1160.92 474.84,-1138.85"/>
<polygon fill="orange" stroke="orange" points="427,-1258.76 423.93,-1268.9 432.65,-1262.89 427,-1258.76"/>
</a>
</g>
<text text-anchor="middle" x="495.5" y="-1237" font-family="Helvetica,sans-Serif" font-size="10.00" fill="grey"> &lt;::geojson::geometry &gt;</text>
</g>
<!-- Node10 -->
<g id="Node000010" class="node">
<title>Node10</title>
<g id="a_Node000010"><a xlink:title=" ">
<polygon fill="white" stroke="none" points="319.5,-1217.25 222.5,-1217.25 222.5,-1157.25 319.5,-1157.25 319.5,-1217.25"/>
<text text-anchor="start" x="227.5" y="-1203.75" font-family="Helvetica,sans-Serif" font-size="10.00">std::vector&lt; geojson</text>
<text text-anchor="start" x="233.12" y="-1192.5" font-family="Helvetica,sans-Serif" font-size="10.00">::JSONProperty &gt;</text>
<text text-anchor="start" x="269.5" y="-1177.75" font-family="Helvetica,sans-Serif" font-size="10.00"> </text>
<text text-anchor="start" x="269.5" y="-1162.75" font-family="Helvetica,sans-Serif" font-size="10.00"> </text>
<polygon fill="#666666" stroke="#666666" points="222.5,-1189.25 222.5,-1189.25 319.5,-1189.25 319.5,-1189.25 222.5,-1189.25"/>
<polygon fill="#666666" stroke="#666666" points="222.5,-1174.25 222.5,-1174.25 319.5,-1174.25 319.5,-1174.25 222.5,-1174.25"/>
<polygon fill="none" stroke="#666666" points="222.5,-1157.25 222.5,-1217.25 319.5,-1217.25 319.5,-1157.25 222.5,-1157.25"/>
</a>
</g>
</g>
<!-- Node4&#45;&gt;Node10 -->
<g id="edge13_Node000010_Node000004" class="edge">
<title>Node4&#45;&gt;Node10</title>
<g id="a_edge13_Node000010_Node000004"><a xlink:title=" ">
<path fill="none" stroke="orange" d="M354.66,-1290C324.87,-1285.05 289.09,-1273.43 270,-1246.5 264.03,-1238.08 262.98,-1227.13 263.87,-1216.99"/>
<polygon fill="orange" stroke="orange" points="353.84,-1293.42 364.23,-1291.38 354.83,-1286.49 353.84,-1293.42"/>
</a>
</g>
<text text-anchor="middle" x="330" y="-1237" font-family="Helvetica,sans-Serif" font-size="10.00" fill="grey"> &lt; geojson::JSONProperty &gt;</text>
</g>
<!-- Node13 -->
<g id="Node000013" class="node">
<title>Node13</title>
<g id="a_Node000013"><a xlink:title=" ">
<polygon fill="white" stroke="none" points="442,-739.25 342,-739.25 342,-690.25 442,-690.25 442,-739.25"/>
<text text-anchor="start" x="347" y="-725.75" font-family="Helvetica,sans-Serif" font-size="10.00">std::vector&lt; double &gt;</text>
<text text-anchor="start" x="356.5" y="-710.75" font-family="Helvetica,sans-Serif" font-size="10.00">+</text>
<text text-anchor="start" x="377" y="-710.75" font-family="Helvetica,sans-Serif" font-size="10.00">elements</text>
<text text-anchor="start" x="390.5" y="-695.75" font-family="Helvetica,sans-Serif" font-size="10.00"> </text>
<polygon fill="#666666" stroke="#666666" points="342,-722.25 342,-722.25 442,-722.25 442,-722.25 342,-722.25"/>
<polygon fill="#666666" stroke="#666666" points="342,-707.25 342,-707.25 375,-707.25 375,-707.25 342,-707.25"/>
<polygon fill="#666666" stroke="#666666" points="375,-707.25 375,-707.25 442,-707.25 442,-707.25 375,-707.25"/>
<polygon fill="none" stroke="#666666" points="342,-690.25 342,-739.25 442,-739.25 442,-690.25 342,-690.25"/>
</a>
</g>
</g>
<!-- Node4&#45;&gt;Node13 -->
<g id="edge18_Node000013_Node000004" class="edge">
<title>Node4&#45;&gt;Node13</title>
<g id="a_edge18_Node000013_Node000004"><a xlink:title=" ">
<path fill="none" stroke="orange" d="M403.28,-1258.75C401.05,-1151.7 394.35,-828.79 392.48,-739.09"/>
<polygon fill="orange" stroke="orange" points="399.78,-1258.7 403.48,-1268.62 406.77,-1258.55 399.78,-1258.7"/>
</a>
</g>
<text text-anchor="middle" x="426.62" y="-1183.38" font-family="Helvetica,sans-Serif" font-size="10.00" fill="grey"> &lt; double &gt;</text>
</g>
<!-- Node4&#45;&gt;Node14 -->
<g id="edge22_Node000014_Node000004" class="edge">
<title>Node4&#45;&gt;Node14</title>
<g id="a_edge22_Node000014_Node000004"><a xlink:title=" ">
<path fill="none" stroke="orange" d="M453.39,-1287.51C509.39,-1277.64 593,-1252.2 593,-1188.25 593,-1188.25 593,-1188.25 593,-370.75 593,-256.52 547.35,-233.05 484,-138 472.58,-120.86 457.45,-103.72 444.18,-89.97"/>
<polygon fill="orange" stroke="orange" points="453.04,-1284.02 443.74,-1289.09 454.17,-1290.93 453.04,-1284.02"/>
</a>
</g>
<text text-anchor="middle" x="652.25" y="-710.88" font-family="Helvetica,sans-Serif" font-size="10.00" fill="grey"> &lt; geojson::FeatureBase * &gt;</text>
</g>
<!-- Node5 -->
<g id="Node000005" class="node">
<title>Node5</title>
<g id="a_Node000005"><a xlink:title=" ">
<polygon fill="white" stroke="none" points="342,-1420.75 326,-1420.75 326,-1371.75 342,-1371.75 342,-1420.75"/>
<text text-anchor="start" x="331" y="-1407.25" font-family="Helvetica,sans-Serif" font-size="10.00">T</text>
<text text-anchor="start" x="332.5" y="-1392.25" font-family="Helvetica,sans-Serif" font-size="10.00"> </text>
<text text-anchor="start" x="332.5" y="-1377.25" font-family="Helvetica,sans-Serif" font-size="10.00"> </text>
<polygon fill="#666666" stroke="#666666" points="326,-1403.75 326,-1403.75 342,-1403.75 342,-1403.75 326,-1403.75"/>
<polygon fill="#666666" stroke="#666666" points="326,-1388.75 326,-1388.75 342,-1388.75 342,-1388.75 326,-1388.75"/>
<polygon fill="none" stroke="#666666" points="326,-1371.75 326,-1420.75 342,-1420.75 342,-1371.75 326,-1371.75"/>
</a>
</g>
</g>
<!-- Node5&#45;&gt;Node4 -->
<g id="edge4_Node000004_Node000005" class="edge">
<title>Node5&#45;&gt;Node4</title>
<g id="a_edge4_Node000004_Node000005"><a xlink:title=" ">
<path fill="none" stroke="#63b8ff" d="M341.76,-1384.19C351.03,-1370.99 366.96,-1348.28 380.39,-1329.15"/>
<polygon fill="none" stroke="#63b8ff" points="380.32,-1329.24 380.49,-1322.03 387.22,-1319.42 387.04,-1326.63 380.32,-1329.24"/>
</a>
</g>
<text text-anchor="middle" x="393" y="-1344.25" font-family="Helvetica,sans-Serif" font-size="10.00" fill="grey"> +elements</text>
</g>
<!-- Node11 -->
<g id="Node000011" class="node">
<title>Node11</title>
<g id="a_Node000011"><a xlink:title=" ">
<polygon fill="white" stroke="none" points="202.5,-1319 121.5,-1319 121.5,-1270 202.5,-1270 202.5,-1319"/>
<text text-anchor="start" x="126.38" y="-1305.5" font-family="Helvetica,sans-Serif" font-size="10.00">std::map&lt; K, T &gt;</text>
<text text-anchor="start" x="160.5" y="-1290.5" font-family="Helvetica,sans-Serif" font-size="10.00"> </text>
<text text-anchor="start" x="160.5" y="-1275.5" font-family="Helvetica,sans-Serif" font-size="10.00"> </text>
<polygon fill="#666666" stroke="#666666" points="121.5,-1302 121.5,-1302 202.5,-1302 202.5,-1302 121.5,-1302"/>
<polygon fill="#666666" stroke="#666666" points="121.5,-1287 121.5,-1287 202.5,-1287 202.5,-1287 121.5,-1287"/>
<polygon fill="none" stroke="#666666" points="121.5,-1270 121.5,-1319 202.5,-1319 202.5,-1270 121.5,-1270"/>
</a>
</g>
</g>
<!-- Node5&#45;&gt;Node11 -->
<g id="edge16_Node000011_Node000005" class="edge">
<title>Node5&#45;&gt;Node11</title>
<g id="a_edge16_Node000011_Node000005"><a xlink:title=" ">
<path fill="none" stroke="#63b8ff" d="M326.16,-1390.7C306.52,-1379.31 253.86,-1348.78 213.43,-1325.33"/>
<polygon fill="none" stroke="#63b8ff" points="213.55,-1325.4 206.36,-1325.85 203.17,-1319.38 210.37,-1318.93 213.55,-1325.4"/>
</a>
</g>
<text text-anchor="middle" x="283" y="-1344.25" font-family="Helvetica,sans-Serif" font-size="10.00" fill="grey"> +elements</text>
</g>
<!-- Node6 -->
<g id="Node000006" class="node">
<title>Node6</title>
<g id="a_Node000006"><a xlink:title=" ">
<polygon fill="white" stroke="none" points="226,-672.25 126,-672.25 126,-612.25 226,-612.25 226,-672.25"/>
<text text-anchor="start" x="131" y="-658.75" font-family="Helvetica,sans-Serif" font-size="10.00">std::map&lt; std::string,</text>
<text text-anchor="start" x="139.25" y="-647.5" font-family="Helvetica,sans-Serif" font-size="10.00"> JSONProperty &gt;</text>
<text text-anchor="start" x="174.5" y="-632.75" font-family="Helvetica,sans-Serif" font-size="10.00"> </text>
<text text-anchor="start" x="174.5" y="-617.75" font-family="Helvetica,sans-Serif" font-size="10.00"> </text>
<polygon fill="#666666" stroke="#666666" points="126,-644.25 126,-644.25 226,-644.25 226,-644.25 126,-644.25"/>
<polygon fill="#666666" stroke="#666666" points="126,-629.25 126,-629.25 226,-629.25 226,-629.25 126,-629.25"/>
<polygon fill="none" stroke="#666666" points="126,-612.25 126,-672.25 226,-672.25 226,-612.25 126,-612.25"/>
</a>
</g>
</g>
<!-- Node6&#45;&gt;Node2 -->
<g id="edge5_Node000002_Node000006" class="edge">
<title>Node6&#45;&gt;Node2</title>
<g id="a_edge5_Node000002_Node000006"><a xlink:title=" ">
<path fill="none" stroke="#63b8ff" d="M198.13,-612.26C224.73,-577.43 270.67,-517.26 309.85,-465.95"/>
<polygon fill="none" stroke="#63b8ff" points="309.75,-466.06 310.22,-458.87 317.04,-456.53 316.57,-463.72 309.75,-466.06"/>
</a>
</g>
<text text-anchor="middle" x="267.25" y="-584.75" font-family="Helvetica,sans-Serif" font-size="10.00" fill="grey"> #foreign_members</text>
<text text-anchor="middle" x="267.25" y="-573.5" font-family="Helvetica,sans-Serif" font-size="10.00" fill="grey">#properties</text>
</g>
<!-- Node9 -->
<g id="Node000009" class="node">
<title>Node9</title>
<g id="a_Node000009"><a xlink:href="classgeojson_1_1_j_s_o_n_property.html" target="_top" xlink:title="@TODO: Convert JSONProperty into a variant of the supported types">
<polygon fill="white" stroke="none" points="302.5,-1061.25 191.5,-1061.25 191.5,-757.25 302.5,-757.25 302.5,-1061.25"/>
<text text-anchor="start" x="196.38" y="-1047.75" font-family="Helvetica,sans-Serif" font-size="10.00">geojson::JSONProperty</text>
<text text-anchor="start" x="201.5" y="-1032.75" font-family="Helvetica,sans-Serif" font-size="10.00">&#45;</text>
<text text-anchor="start" x="214.5" y="-1032.75" font-family="Helvetica,sans-Serif" font-size="10.00">type</text>
<text text-anchor="start" x="201.5" y="-1017.75" font-family="Helvetica,sans-Serif" font-size="10.00">&#45;</text>
<text text-anchor="start" x="214.5" y="-1017.75" font-family="Helvetica,sans-Serif" font-size="10.00">data</text>
<text text-anchor="start" x="200" y="-1002.75" font-family="Helvetica,sans-Serif" font-size="10.00">+</text>
<text text-anchor="start" x="214.5" y="-1002.75" font-family="Helvetica,sans-Serif" font-size="10.00">JSONProperty()</text>
<text text-anchor="start" x="200" y="-987.75" font-family="Helvetica,sans-Serif" font-size="10.00">+</text>
<text text-anchor="start" x="214.5" y="-987.75" font-family="Helvetica,sans-Serif" font-size="10.00">JSONProperty()</text>
<text text-anchor="start" x="200" y="-972.75" font-family="Helvetica,sans-Serif" font-size="10.00">+</text>
<text text-anchor="start" x="214.5" y="-972.75" font-family="Helvetica,sans-Serif" font-size="10.00">JSONProperty()</text>
<text text-anchor="start" x="200" y="-957.75" font-family="Helvetica,sans-Serif" font-size="10.00">+</text>
<text text-anchor="start" x="214.5" y="-957.75" font-family="Helvetica,sans-Serif" font-size="10.00">JSONProperty()</text>
<text text-anchor="start" x="200" y="-942.75" font-family="Helvetica,sans-Serif" font-size="10.00">+</text>
<text text-anchor="start" x="214.5" y="-942.75" font-family="Helvetica,sans-Serif" font-size="10.00">JSONProperty()</text>
<text text-anchor="start" x="200" y="-927.75" font-family="Helvetica,sans-Serif" font-size="10.00">+</text>
<text text-anchor="start" x="214.5" y="-927.75" font-family="Helvetica,sans-Serif" font-size="10.00">JSONProperty()</text>
<text text-anchor="start" x="200" y="-912.75" font-family="Helvetica,sans-Serif" font-size="10.00">+</text>
<text text-anchor="start" x="214.5" y="-912.75" font-family="Helvetica,sans-Serif" font-size="10.00">JSONProperty()</text>
<text text-anchor="start" x="200" y="-897.75" font-family="Helvetica,sans-Serif" font-size="10.00">+</text>
<text text-anchor="start" x="214.5" y="-897.75" font-family="Helvetica,sans-Serif" font-size="10.00">JSONProperty()</text>
<text text-anchor="start" x="200" y="-882.75" font-family="Helvetica,sans-Serif" font-size="10.00">+</text>
<text text-anchor="start" x="214.5" y="-882.75" font-family="Helvetica,sans-Serif" font-size="10.00">JSONProperty()</text>
<text text-anchor="start" x="200" y="-867.75" font-family="Helvetica,sans-Serif" font-size="10.00">+</text>
<text text-anchor="start" x="214.5" y="-867.75" font-family="Helvetica,sans-Serif" font-size="10.00">JSONProperty()</text>
<text text-anchor="start" x="200" y="-852.75" font-family="Helvetica,sans-Serif" font-size="10.00">+</text>
<text text-anchor="start" x="214.5" y="-852.75" font-family="Helvetica,sans-Serif" font-size="10.00">JSONProperty()</text>
<text text-anchor="start" x="200" y="-837.75" font-family="Helvetica,sans-Serif" font-size="10.00">+</text>
<text text-anchor="start" x="214.5" y="-837.75" font-family="Helvetica,sans-Serif" font-size="10.00">~JSONProperty()</text>
<text text-anchor="start" x="200" y="-822.75" font-family="Helvetica,sans-Serif" font-size="10.00">+</text>
<text text-anchor="start" x="214.5" y="-822.75" font-family="Helvetica,sans-Serif" font-size="10.00">JSONProperty()</text>
<text text-anchor="start" x="200" y="-807.75" font-family="Helvetica,sans-Serif" font-size="10.00">+</text>
<text text-anchor="start" x="214.5" y="-807.75" font-family="Helvetica,sans-Serif" font-size="10.00">JSONProperty()</text>
<text text-anchor="start" x="200" y="-792.75" font-family="Helvetica,sans-Serif" font-size="10.00">+</text>
<text text-anchor="start" x="214.5" y="-792.75" font-family="Helvetica,sans-Serif" font-size="10.00">get_type()</text>
<text text-anchor="start" x="214.5" y="-777.75" font-family="Helvetica,sans-Serif" font-size="10.00">and 17 more...</text>
<text text-anchor="start" x="200" y="-762.75" font-family="Helvetica,sans-Serif" font-size="10.00">+</text>
<text text-anchor="start" x="214.5" y="-762.75" font-family="Helvetica,sans-Serif" font-size="10.00">print_property()</text>
<polygon fill="#666666" stroke="#666666" points="191.5,-1044.25 191.5,-1044.25 302.5,-1044.25 302.5,-1044.25 191.5,-1044.25"/>
<polygon fill="#666666" stroke="#666666" points="191.5,-1014.25 191.5,-1014.25 212.5,-1014.25 212.5,-1014.25 191.5,-1014.25"/>
<polygon fill="#666666" stroke="#666666" points="212.5,-1014.25 212.5,-1014.25 302.5,-1014.25 302.5,-1014.25 212.5,-1014.25"/>
<polygon fill="none" stroke="#666666" points="191.5,-757.25 191.5,-1061.25 302.5,-1061.25 302.5,-757.25 191.5,-757.25"/>
</a>
</g>
</g>
<!-- Node6&#45;&gt;Node9 -->
<g id="edge10_Node000009_Node000006" class="edge">
<title>Node6&#45;&gt;Node9</title>
<g id="a_edge10_Node000009_Node000006"><a xlink:title=" ">
<path fill="none" stroke="#63b8ff" d="M212.25,-672C217.27,-677.54 221.8,-683.68 225,-690.25 233.26,-707.21 239.15,-725.78 243.27,-744.7"/>
<polygon fill="none" stroke="#63b8ff" points="243.3,-744.85 248.39,-749.96 245.62,-756.62 240.54,-751.51 243.3,-744.85"/>
</a>
</g>
<text text-anchor="middle" x="257.88" y="-710.88" font-family="Helvetica,sans-Serif" font-size="10.00" fill="grey"> &#45;values</text>
</g>
<!-- Node7 -->
<g id="Node000007" class="node">
<title>Node7</title>
<g id="a_Node000007"><a xlink:title=" ">
<polygon fill="white" stroke="none" points="69,-1211.75 17,-1211.75 17,-1162.75 69,-1162.75 69,-1211.75"/>
<text text-anchor="start" x="22" y="-1198.25" font-family="Helvetica,sans-Serif" font-size="10.00">std::string</text>
<text text-anchor="start" x="41.5" y="-1183.25" font-family="Helvetica,sans-Serif" font-size="10.00"> </text>
<text text-anchor="start" x="41.5" y="-1168.25" font-family="Helvetica,sans-Serif" font-size="10.00"> </text>
<polygon fill="#666666" stroke="#666666" points="17,-1194.75 17,-1194.75 69,-1194.75 69,-1194.75 17,-1194.75"/>
<polygon fill="#666666" stroke="#666666" points="17,-1179.75 17,-1179.75 69,-1179.75 69,-1179.75 17,-1179.75"/>
<polygon fill="none" stroke="#666666" points="17,-1162.75 17,-1211.75 69,-1211.75 69,-1162.75 17,-1162.75"/>
</a>
</g>
</g>
<!-- Node7&#45;&gt;Node2 -->
<g id="edge19_Node000002_Node000007" class="edge">
<title>Node7&#45;&gt;Node2</title>
<g id="a_edge19_Node000002_Node000007"><a xlink:title=" ">
<path fill="none" stroke="#63b8ff" d="M37.36,-1162.8C20.79,-1088.53 -21.52,-853.7 62,-690.25 119.73,-577.28 232.55,-479.89 307.36,-423.77"/>
<polygon fill="none" stroke="#63b8ff" points="307.29,-423.81 309.73,-417.03 316.93,-416.66 314.49,-423.45 307.29,-423.81"/>
</a>
</g>
<text text-anchor="middle" x="69.5" y="-710.88" font-family="Helvetica,sans-Serif" font-size="10.00" fill="grey"> #id</text>
</g>
<!-- Node7&#45;&gt;Node6 -->
<g id="edge6_Node000006_Node000007" class="edge">
<title>Node7&#45;&gt;Node6</title>
<g id="a_edge6_Node000006_Node000007"><a xlink:title=" ">
<path fill="none" stroke="#63b8ff" d="M42.21,-1163.05C40.54,-1097.96 39.47,-908.55 76.5,-757.25 84.19,-725.82 84.3,-715.12 105,-690.25 108.4,-686.16 112.26,-682.29 116.36,-678.66"/>
<polygon fill="none" stroke="#63b8ff" points="116.27,-678.74 118.42,-671.86 125.61,-671.2 123.45,-678.08 116.27,-678.74"/>
</a>
</g>
<text text-anchor="middle" x="91.25" y="-905.38" font-family="Helvetica,sans-Serif" font-size="10.00" fill="grey"> +keys</text>
</g>
<!-- Node7&#45;&gt;Node9 -->
<g id="edge9_Node000009_Node000007" class="edge">
<title>Node7&#45;&gt;Node9</title>
<g id="a_edge9_Node000009_Node000007"><a xlink:title=" ">
<path fill="none" stroke="#63b8ff" d="M48.95,-1162.92C56.08,-1135.93 68.13,-1093.39 76.75,-1079.25 104.29,-1034.06 146.43,-992.1 181.89,-961.29"/>
<polygon fill="none" stroke="#63b8ff" points="181.89,-961.29 183.85,-954.35 191.01,-953.49 189.05,-960.43 181.89,-961.29"/>
</a>
</g>
<text text-anchor="middle" x="87.12" y="-1105.38" font-family="Helvetica,sans-Serif" font-size="10.00" fill="grey"> &#45;key</text>
</g>
<!-- Node8 -->
<g id="Node000008" class="node">
<title>Node8</title>
<g id="a_Node000008"><a xlink:title=" ">
<polygon fill="white" stroke="none" points="86,-1324.5 0,-1324.5 0,-1264.5 86,-1264.5 86,-1324.5"/>
<text text-anchor="start" x="4.75" y="-1311" font-family="Helvetica,sans-Serif" font-size="10.00">std::basic_string&lt;</text>
<text text-anchor="start" x="27.62" y="-1299.75" font-family="Helvetica,sans-Serif" font-size="10.00"> Char &gt;</text>
<text text-anchor="start" x="41.5" y="-1285" font-family="Helvetica,sans-Serif" font-size="10.00"> </text>
<text text-anchor="start" x="41.5" y="-1270" font-family="Helvetica,sans-Serif" font-size="10.00"> </text>
<polygon fill="#666666" stroke="#666666" points="0,-1296.5 0,-1296.5 86,-1296.5 86,-1296.5 0,-1296.5"/>
<polygon fill="#666666" stroke="#666666" points="0,-1281.5 0,-1281.5 86,-1281.5 86,-1281.5 0,-1281.5"/>
<polygon fill="none" stroke="#666666" points="0,-1264.5 0,-1324.5 86,-1324.5 86,-1264.5 0,-1264.5"/>
</a>
</g>
</g>
<!-- Node8&#45;&gt;Node7 -->
<g id="edge7_Node000007_Node000008" class="edge">
<title>Node8&#45;&gt;Node7</title>
<g id="a_edge7_Node000007_Node000008"><a xlink:title=" ">
<path fill="none" stroke="#63b8ff" d="M43,-1253.31C43,-1239.23 43,-1223.9 43,-1211.66"/>
<polygon fill="none" stroke="#63b8ff" points="39.5,-1253.23 43,-1263.23 46.5,-1253.23 39.5,-1253.23"/>
</a>
</g>
</g>
<!-- Node9&#45;&gt;Node6 -->
<g id="edge8_Node000006_Node000009" class="edge">
<title>Node9&#45;&gt;Node6</title>
<g id="a_edge8_Node000006_Node000009"><a xlink:title=" ">
<path fill="none" stroke="#63b8ff" d="M191.61,-790.48C185.63,-773.6 180.46,-756.21 177,-739.25 173.42,-721.73 172.66,-702.02 173,-685.05"/>
<polygon fill="none" stroke="#63b8ff" points="173,-685.01 169.22,-678.87 173.43,-673.02 177.21,-679.16 173,-685.01"/>
</a>
</g>
<text text-anchor="middle" x="201" y="-710.88" font-family="Helvetica,sans-Serif" font-size="10.00" fill="grey"> +elements</text>
</g>
<!-- Node9&#45;&gt;Node10 -->
<g id="edge12_Node000010_Node000009" class="edge">
<title>Node9&#45;&gt;Node10</title>
<g id="a_edge12_Node000010_Node000009"><a xlink:title=" ">
<path fill="none" stroke="#63b8ff" d="M260.12,-1061.12C262.79,-1091.85 265.39,-1121.72 267.38,-1144.57"/>
<polygon fill="none" stroke="#63b8ff" points="267.38,-1144.64 271.89,-1150.27 268.42,-1156.6 263.92,-1150.97 267.38,-1144.64"/>
</a>
</g>
<text text-anchor="middle" x="291" y="-1105.38" font-family="Helvetica,sans-Serif" font-size="10.00" fill="grey"> +elements</text>
</g>
<!-- Node10&#45;&gt;Node9 -->
<g id="edge11_Node000009_Node000010" class="edge">
<title>Node10&#45;&gt;Node9</title>
<g id="a_edge11_Node000009_Node000010"><a xlink:title=" ">
<path fill="none" stroke="#63b8ff" d="M308.07,-1157.5C312.92,-1151.99 317.18,-1145.86 320,-1139.25 330.46,-1114.72 325.4,-1105.36 320,-1079.25 316.86,-1064.06 312.29,-1048.56 306.94,-1033.41"/>
<polygon fill="none" stroke="#63b8ff" points="306.95,-1033.45 301.13,-1029.2 302.81,-1022.19 308.63,-1026.44 306.95,-1033.45"/>
</a>
</g>
<text text-anchor="middle" x="350.25" y="-1105.38" font-family="Helvetica,sans-Serif" font-size="10.00" fill="grey"> &#45;value_list</text>
</g>
<!-- Node11&#45;&gt;Node6 -->
<g id="edge14_Node000006_Node000011" class="edge">
<title>Node11&#45;&gt;Node6</title>
<g id="a_edge14_Node000006_Node000011"><a xlink:title=" ">
<path fill="none" stroke="orange" d="M152.48,-1259.16C144.39,-1228.12 133.42,-1181.03 129,-1139.25 110.23,-961.84 152.21,-748.34 169.24,-672.07"/>
<polygon fill="orange" stroke="orange" points="149.08,-1260 155.03,-1268.77 155.84,-1258.2 149.08,-1260"/>
</a>
</g>
<text text-anchor="middle" x="193.5" y="-1105.38" font-family="Helvetica,sans-Serif" font-size="10.00" fill="grey"> &lt; std::string, JSONProperty &gt;</text>
</g>
<!-- Node12 -->
<g id="Node000012" class="node">
<title>Node12</title>
<g id="a_Node000012"><a xlink:title=" ">
<polygon fill="white" stroke="none" points="170,-1420.75 154,-1420.75 154,-1371.75 170,-1371.75 170,-1420.75"/>
<text text-anchor="start" x="158.62" y="-1407.25" font-family="Helvetica,sans-Serif" font-size="10.00">K</text>
<text text-anchor="start" x="160.5" y="-1392.25" font-family="Helvetica,sans-Serif" font-size="10.00"> </text>
<text text-anchor="start" x="160.5" y="-1377.25" font-family="Helvetica,sans-Serif" font-size="10.00"> </text>
<polygon fill="#666666" stroke="#666666" points="154,-1403.75 154,-1403.75 170,-1403.75 170,-1403.75 154,-1403.75"/>
<polygon fill="#666666" stroke="#666666" points="154,-1388.75 154,-1388.75 170,-1388.75 170,-1388.75 154,-1388.75"/>
<polygon fill="none" stroke="#666666" points="154,-1371.75 154,-1420.75 170,-1420.75 170,-1371.75 154,-1371.75"/>
</a>
</g>
</g>
<!-- Node12&#45;&gt;Node11 -->
<g id="edge15_Node000011_Node000012" class="edge">
<title>Node12&#45;&gt;Node11</title>
<g id="a_edge15_Node000011_Node000012"><a xlink:title=" ">
<path fill="none" stroke="#63b8ff" d="M162,-1371.86C162,-1359.86 162,-1344.97 162,-1331.53"/>
<polygon fill="none" stroke="#63b8ff" points="162,-1331.64 158,-1325.64 162,-1319.64 166,-1325.64 162,-1331.64"/>
</a>
</g>
<text text-anchor="middle" x="176.25" y="-1344.25" font-family="Helvetica,sans-Serif" font-size="10.00" fill="grey"> +keys</text>
</g>
<!-- Node13&#45;&gt;Node2 -->
<g id="edge17_Node000002_Node000013" class="edge">
<title>Node13&#45;&gt;Node2</title>
<g id="a_edge17_Node000002_Node000013"><a xlink:title=" ">
<path fill="none" stroke="#63b8ff" d="M391.24,-690.31C390.37,-663.32 388.86,-616.26 387.25,-566.51"/>
<polygon fill="none" stroke="#63b8ff" points="387.25,-566.36 383.05,-560.49 386.86,-554.37 391.05,-560.23 387.25,-566.36"/>
</a>
</g>
<text text-anchor="middle" x="424.38" y="-638.38" font-family="Helvetica,sans-Serif" font-size="10.00" fill="grey"> #bounding_box</text>
</g>
<!-- Node14&#45;&gt;Node2 -->
<g id="edge20_Node000002_Node000014" class="edge">
<title>Node14&#45;&gt;Node2</title>
<g id="a_edge20_Node000002_Node000014"><a xlink:title=" ">
<path fill="none" stroke="#63b8ff" d="M418.64,-89.8C420.73,-104.23 422.96,-121.99 424,-138 424.83,-150.82 424.81,-163.98 424.15,-177.2"/>
<polygon fill="none" stroke="#63b8ff" points="424.16,-177.02 427.76,-183.27 423.38,-188.99 419.78,-182.74 424.16,-177.02"/>
</a>
</g>
<text text-anchor="middle" x="452.38" y="-162.25" font-family="Helvetica,sans-Serif" font-size="10.00" fill="grey"> #destination</text>
<text text-anchor="middle" x="452.38" y="-151" font-family="Helvetica,sans-Serif" font-size="10.00" fill="grey">#neighbors</text>
<text text-anchor="middle" x="452.38" y="-139.75" font-family="Helvetica,sans-Serif" font-size="10.00" fill="grey">#origination</text>
</g>
</g>
</svg>
