<?xml version="1.0" encoding="UTF-8" standalone="no"?>
<!DOCTYPE svg PUBLIC "-//W3C//DTD SVG 1.1//EN"
 "http://www.w3.org/Graphics/SVG/1.1/DTD/svg11.dtd">
<!-- Generated by graphviz version 12.2.0 (20241103.1931)
 -->
<!-- Title: ngen::Layer Pages: 1 -->
<!--zoomable 456 -->

<svg id="main" version="1.1" xmlns="http://www.w3.org/2000/svg" xmlns:xlink="http://www.w3.org/1999/xlink" xml:space="preserve" onload="init(evt)">

<style type="text/css"><![CDATA[
.node, .edge {opacity: 0.7;}
.node.selected, .edge.selected {opacity: 1;}
.edge:hover path { stroke: red; }
.edge:hover polygon { stroke: red; fill: red; }
]]></style>

<defs>
  <circle id="rim" cx="0" cy="0" r="7"/>
  <circle id="rim2" cx="0" cy="0" r="3.5"/>
  <g id="zoomPlus">
    <use xlink:href="#rim" fill="#404040"><set attributeName="fill" to="#808080" begin="zoomplus.mouseover" end="zoomplus.mouseout"/></use>
    <path d="M-4,0h8M0,-4v8" fill="none" stroke="white" stroke-width="1.5" pointer-events="none"/>
  </g>
  <g id="zoomMin">
    <use xlink:href="#rim" fill="#404040"><set attributeName="fill" to="#808080" begin="zoomminus.mouseover" end="zoomminus.mouseout"/></use>
    <path d="M-4,0h8" fill="none" stroke="white" stroke-width="1.5" pointer-events="none"/>
  </g>
  <g id="arrowUp" transform="translate(30 24)">
    <use xlink:href="#rim"/>
    <path pointer-events="none" fill="none" stroke="white" stroke-width="1.5" d="M0,-3.0v7 M-2.5,-0.5L0,-3.0L2.5,-0.5"/>
  </g>
  <g id="arrowRight" transform="rotate(90) translate(36 -43)">
    <use xlink:href="#rim"/>
    <path pointer-events="none" fill="none" stroke="white" stroke-width="1.5" d="M0,-3.0v7 M-2.5,-0.5L0,-3.0L2.5,-0.5"/>
  </g>
  <g id="arrowDown" transform="rotate(180) translate(-30 -48)">
    <use xlink:href="#rim"/>
    <path pointer-events="none" fill="none" stroke="white" stroke-width="1.5" d="M0,-3.0v7 M-2.5,-0.5L0,-3.0L2.5,-0.5"/>
  </g>
  <g id="arrowLeft" transform="rotate(270) translate(-36 17)">
    <use xlink:href="#rim"/>
    <path pointer-events="none" fill="none" stroke="white" stroke-width="1.5" d="M0,-3.0v7 M-2.5,-0.5L0,-3.0L2.5,-0.5"/>
  </g>
  <g id="resetDef">
    <use xlink:href="#rim2" fill="#404040"><set attributeName="fill" to="#808080" begin="reset.mouseover" end="reset.mouseout"/></use>
  </g>
</defs>
<script type="application/ecmascript">
var viewWidth = 240;
var viewHeight = 456;
var sectionId = 'dynsection-0';
</script>
<script type="application/ecmascript" xlink:href="svg.min.js"/>
<svg id="graph" class="graph">
<g id="viewport">
<title>ngen::Layer</title>
<!-- Node1 -->
<g id="Node000001" class="node">
<title>Node1</title>
<g id="a_Node000001"><a xlink:title=" ">
<polygon fill="#999999" stroke="none" points="178.62,-447.75 56.38,-447.75 56.38,-146.75 178.62,-146.75 178.62,-447.75"/>
<text text-anchor="start" x="92.75" y="-434.25" font-family="Helvetica,sans-Serif" font-size="10.00">ngen::Layer</text>
<text text-anchor="start" x="60.75" y="-419" font-family="Helvetica,sans-Serif" font-size="10.00">#</text>
<text text-anchor="start" x="70.38" y="-419" font-family="Helvetica,sans-Serif" font-size="10.00">description</text>
<text text-anchor="start" x="60.75" y="-403.75" font-family="Helvetica,sans-Serif" font-size="10.00">#</text>
<text text-anchor="start" x="70.38" y="-403.75" font-family="Helvetica,sans-Serif" font-size="10.00">processing_units</text>
<text text-anchor="start" x="60.75" y="-388.5" font-family="Helvetica,sans-Serif" font-size="10.00">#</text>
<text text-anchor="start" x="70.38" y="-388.5" font-family="Helvetica,sans-Serif" font-size="10.00">simulation_time</text>
<text text-anchor="start" x="60.75" y="-373.25" font-family="Helvetica,sans-Serif" font-size="10.00">#</text>
<text text-anchor="start" x="70.38" y="-373.25" font-family="Helvetica,sans-Serif" font-size="10.00">features</text>
<text text-anchor="start" x="60.75" y="-358" font-family="Helvetica,sans-Serif" font-size="10.00">#</text>
<text text-anchor="start" x="70.38" y="-358" font-family="Helvetica,sans-Serif" font-size="10.00">catchment_data</text>
<text text-anchor="start" x="60.75" y="-342.75" font-family="Helvetica,sans-Serif" font-size="10.00">#</text>
<text text-anchor="start" x="70.38" y="-342.75" font-family="Helvetica,sans-Serif" font-size="10.00">output_time_index</text>
<text text-anchor="start" x="60.75" y="-327.5" font-family="Helvetica,sans-Serif" font-size="10.00">#</text>
<text text-anchor="start" x="70.38" y="-327.5" font-family="Helvetica,sans-Serif" font-size="10.00">catchment_output_mgr</text>
<text text-anchor="start" x="60.38" y="-312.25" font-family="Helvetica,sans-Serif" font-size="10.00">+</text>
<text text-anchor="start" x="70.38" y="-312.25" font-family="Helvetica,sans-Serif" font-size="10.00">Layer()</text>
<text text-anchor="start" x="60.38" y="-297" font-family="Helvetica,sans-Serif" font-size="10.00">+</text>
<text text-anchor="start" x="70.38" y="-297" font-family="Helvetica,sans-Serif" font-size="10.00">Layer()</text>
<text text-anchor="start" x="60.38" y="-281.75" font-family="Helvetica,sans-Serif" font-size="10.00">+</text>
<text text-anchor="start" x="70.38" y="-281.75" font-family="Helvetica,sans-Serif" font-size="10.00">~Layer()</text>
<text text-anchor="start" x="60.38" y="-266.5" font-family="Helvetica,sans-Serif" font-size="10.00">+</text>
<text text-anchor="start" x="70.38" y="-266.5" font-family="Helvetica,sans-Serif" font-size="10.00">next_timestep_epoch</text>
<text text-anchor="start" x="70.38" y="-255.25" font-family="Helvetica,sans-Serif" font-size="10.00">_time()</text>
<text text-anchor="start" x="60.38" y="-240" font-family="Helvetica,sans-Serif" font-size="10.00">+</text>
<text text-anchor="start" x="70.38" y="-240" font-family="Helvetica,sans-Serif" font-size="10.00">current_timestep_epoch</text>
<text text-anchor="start" x="70.38" y="-228.75" font-family="Helvetica,sans-Serif" font-size="10.00">_time()</text>
<text text-anchor="start" x="60.38" y="-213.5" font-family="Helvetica,sans-Serif" font-size="10.00">+</text>
<text text-anchor="start" x="70.38" y="-213.5" font-family="Helvetica,sans-Serif" font-size="10.00">get_id()</text>
<text text-anchor="start" x="60.38" y="-198.25" font-family="Helvetica,sans-Serif" font-size="10.00">+</text>
<text text-anchor="start" x="70.38" y="-198.25" font-family="Helvetica,sans-Serif" font-size="10.00">get_name()</text>
<text text-anchor="start" x="60.38" y="-183" font-family="Helvetica,sans-Serif" font-size="10.00">+</text>
<text text-anchor="start" x="70.38" y="-183" font-family="Helvetica,sans-Serif" font-size="10.00">get_time_step()</text>
<text text-anchor="start" x="60.38" y="-167.75" font-family="Helvetica,sans-Serif" font-size="10.00">+</text>
<text text-anchor="start" x="70.38" y="-167.75" font-family="Helvetica,sans-Serif" font-size="10.00">get_time_step_units()</text>
<text text-anchor="start" x="60.38" y="-152.5" font-family="Helvetica,sans-Serif" font-size="10.00">+</text>
<text text-anchor="start" x="70.38" y="-152.5" font-family="Helvetica,sans-Serif" font-size="10.00">update_models()</text>
<polygon fill="#666666" stroke="#666666" points="56.38,-430.5 56.38,-430.5 178.62,-430.5 178.62,-430.5 56.38,-430.5"/>
<polygon fill="#666666" stroke="#666666" points="56.38,-323.75 56.38,-323.75 68.38,-323.75 68.38,-323.75 56.38,-323.75"/>
<polygon fill="#666666" stroke="#666666" points="68.38,-323.75 68.38,-323.75 178.62,-323.75 178.62,-323.75 68.38,-323.75"/>
<polygon fill="none" stroke="#666666" points="56.38,-146.75 56.38,-447.75 178.62,-447.75 178.62,-146.75 56.38,-146.75"/>
</a>
</g>
</g>
<!-- Node2 -->
<g id="Node000002" class="node">
<title>Node2</title>
<g id="a_Node000002"><a xlink:href="classngen_1_1_domain_layer.html" target="_top" xlink:title=" ">
<polygon fill="white" stroke="none" points="111,-110.75 0,-110.75 0,0 111,0 111,-110.75"/>
<text text-anchor="start" x="14.25" y="-97.25" font-family="Helvetica,sans-Serif" font-size="10.00">ngen::DomainLayer</text>
<text text-anchor="start" x="5.5" y="-82" font-family="Helvetica,sans-Serif" font-size="10.00">&#45;</text>
<text text-anchor="start" x="14" y="-82" font-family="Helvetica,sans-Serif" font-size="10.00">formulation</text>
<text text-anchor="start" x="5.5" y="-66.75" font-family="Helvetica,sans-Serif" font-size="10.00">&#45;</text>
<text text-anchor="start" x="14" y="-66.75" font-family="Helvetica,sans-Serif" font-size="10.00">output_formulation_id</text>
<text text-anchor="start" x="5.5" y="-51.5" font-family="Helvetica,sans-Serif" font-size="10.00">&#45;</text>
<text text-anchor="start" x="14" y="-51.5" font-family="Helvetica,sans-Serif" font-size="10.00">output_catchment_id</text>
<text text-anchor="start" x="4" y="-36.25" font-family="Helvetica,sans-Serif" font-size="10.00">+</text>
<text text-anchor="start" x="14" y="-36.25" font-family="Helvetica,sans-Serif" font-size="10.00">DomainLayer()</text>
<text text-anchor="start" x="4" y="-21" font-family="Helvetica,sans-Serif" font-size="10.00">+</text>
<text text-anchor="start" x="14" y="-21" font-family="Helvetica,sans-Serif" font-size="10.00">DomainLayer()</text>
<text text-anchor="start" x="4" y="-5.75" font-family="Helvetica,sans-Serif" font-size="10.00">+</text>
<text text-anchor="start" x="14" y="-5.75" font-family="Helvetica,sans-Serif" font-size="10.00">update_models()</text>
<polygon fill="#666666" stroke="#666666" points="0,-93.5 0,-93.5 111,-93.5 111,-93.5 0,-93.5"/>
<polygon fill="#666666" stroke="#666666" points="0,-47.75 0,-47.75 12,-47.75 12,-47.75 0,-47.75"/>
<polygon fill="#666666" stroke="#666666" points="12,-47.75 12,-47.75 111,-47.75 111,-47.75 12,-47.75"/>
<polygon fill="none" stroke="#666666" points="0,0 0,-110.75 111,-110.75 111,0 0,0"/>
</a>
</g>
</g>
<!-- Node1&#45;&gt;Node2 -->
<g id="edge1_Node000001_Node000002" class="edge">
<title>Node1&#45;&gt;Node2</title>
<g id="a_edge1_Node000001_Node000002"><a xlink:title=" ">
<path fill="none" stroke="#63b8ff" d="M76.09,-136.04C73.79,-127.13 71.57,-118.56 69.5,-110.55"/>
<polygon fill="none" stroke="#63b8ff" points="72.67,-136.79 78.56,-145.6 79.45,-135.04 72.67,-136.79"/>
</a>
</g>
</g>
<!-- Node3 -->
<g id="Node000003" class="node">
<title>Node3</title>
<g id="a_Node000003"><a xlink:href="classngen_1_1_surface_layer.html" target="_top" xlink:title=" ">
<polygon fill="white" stroke="none" points="231.88,-87.88 129.12,-87.88 129.12,-22.88 231.88,-22.88 231.88,-87.88"/>
<text text-anchor="start" x="138.88" y="-74.38" font-family="Helvetica,sans-Serif" font-size="10.00">ngen::SurfaceLayer</text>
<text text-anchor="start" x="134.62" y="-59.12" font-family="Helvetica,sans-Serif" font-size="10.00">&#45;</text>
<text text-anchor="start" x="143.12" y="-59.12" font-family="Helvetica,sans-Serif" font-size="10.00">nexus_outputs_mgr</text>
<text text-anchor="start" x="133.12" y="-43.88" font-family="Helvetica,sans-Serif" font-size="10.00">+</text>
<text text-anchor="start" x="143.12" y="-43.88" font-family="Helvetica,sans-Serif" font-size="10.00">SurfaceLayer()</text>
<text text-anchor="start" x="133.12" y="-28.62" font-family="Helvetica,sans-Serif" font-size="10.00">+</text>
<text text-anchor="start" x="143.12" y="-28.62" font-family="Helvetica,sans-Serif" font-size="10.00">update_models()</text>
<polygon fill="#666666" stroke="#666666" points="129.12,-70.62 129.12,-70.62 231.88,-70.62 231.88,-70.62 129.12,-70.62"/>
<polygon fill="#666666" stroke="#666666" points="129.12,-55.38 129.12,-55.38 141.12,-55.38 141.12,-55.38 129.12,-55.38"/>
<polygon fill="#666666" stroke="#666666" points="141.12,-55.38 141.12,-55.38 231.88,-55.38 231.88,-55.38 141.12,-55.38"/>
<polygon fill="none" stroke="#666666" points="129.12,-22.88 129.12,-87.88 231.88,-87.88 231.88,-22.88 129.12,-22.88"/>
</a>
</g>
</g>
<!-- Node1&#45;&gt;Node3 -->
<g id="edge2_Node000001_Node000003" class="edge">
<title>Node1&#45;&gt;Node3</title>
<g id="a_edge2_Node000001_Node000003"><a xlink:title=" ">
<path fill="none" stroke="#63b8ff" d="M159.6,-135.96C164.34,-117.89 168.73,-101.21 172.24,-87.83"/>
<polygon fill="none" stroke="#63b8ff" points="156.22,-135.04 157.07,-145.6 162.99,-136.81 156.22,-135.04"/>
</a>
</g>
</g>
</g>
</svg>

<g id="navigator" transform="translate(0 0)" fill="#404254">
  <rect fill="#f2f5e9" fill-opacity="0.5" stroke="#606060" stroke-width=".5" x="0" y="0" width="60" height="60"/>
  <use id="zoomplus" xlink:href="#zoomPlus" x="17" y="9" onmousedown="handleZoom(evt,'in')"/>
  <use id="zoomminus" xlink:href="#zoomMin" x="42" y="9" onmousedown="handleZoom(evt,'out')"/>
  <use id="reset" xlink:href="#resetDef" x="30" y="36" onmousedown="handleReset()"/>
   <use id="arrowup" xlink:href="#arrowUp" x="0" y="0" onmousedown="handlePan(0,-1)"/>
  <use id="arrowright" xlink:href="#arrowRight" x="0" y="0" onmousedown="handlePan(1,0)"/>
  <use id="arrowdown" xlink:href="#arrowDown" x="0" y="0" onmousedown="handlePan(0,1)"/>
  <use id="arrowleft" xlink:href="#arrowLeft" x="0" y="0" onmousedown="handlePan(-1,0)"/>
</g>
<svg viewBox="0 0 15 15" width="100%" height="30px" preserveAspectRatio="xMaxYMin meet">
 <g id="arrow_out" transform="scale(0.3 0.3)">
  <a xlink:href="classngen_1_1_layer__inherit__graph_org.svg" target="_base">
   <rect id="button" ry="5" rx="5" y="6" x="6" height="38" width="38"
        fill="#f2f5e9" fill-opacity="0.5" stroke="#606060" stroke-width="1.0"/>
   <path id="arrow"
     d="M 11.500037,31.436501 C 11.940474,20.09759 22.043105,11.32322 32.158766,21.979434 L 37.068811,17.246167 C 37.068811,17.246167 37.088388,32 37.088388,32 L 22.160133,31.978069 C 22.160133,31.978069 26.997745,27.140456 26.997745,27.140456 C 18.528582,18.264221 13.291696,25.230495 11.500037,31.436501 z"
     style="fill:#404040;"/>
  </a>
 </g>
</svg>

<style type='text/css'>
<![CDATA[
[data-mouse-over-selected='false'] { opacity: 0.7; }
[data-mouse-over-selected='true']  { opacity: 1.0; }
]]>
</style>
<script type="application/ecmascript"><![CDATA[
document.addEventListener('DOMContentLoaded', (event) => {
  highlightEdges();
  highlightAdjacentNodes();
});
]]></script>
</svg>
