<?xml version="1.0" encoding="UTF-8" standalone="no"?>
<!DOCTYPE svg PUBLIC "-//W3C//DTD SVG 1.1//EN"
 "http://www.w3.org/Graphics/SVG/1.1/DTD/svg11.dtd">
<!-- Generated by graphviz version 2.44.0 ()
 -->
<!-- Title: models::bmi::Bmi_Adapter&lt; T &gt; Pages: 1 -->
<svg width="665pt" height="973pt"
 viewBox="0.00 0.00 665.00 973.00" xmlns="http://www.w3.org/2000/svg" xmlns:xlink="http://www.w3.org/1999/xlink">
<g id="graph0" class="graph" transform="scale(1 1) rotate(0) translate(4 969)">
<title>models::bmi::Bmi_Adapter&lt; T &gt;</title>
<polygon fill="white" stroke="transparent" points="-4,4 -4,-969 661,-969 661,4 -4,4"/>
<!-- Node1 -->
<g id="node1" class="node">
<title>Node1</title>
<g id="a_node1"><a xlink:title="Abstract adapter interface for C++ classes to interact with the essential aspects of external models ...">
<polygon fill="#bfbfbf" stroke="black" points="241,-0.5 241,-299.5 393,-299.5 393,-0.5 241,-0.5"/>
<text text-anchor="middle" x="317" y="-287.5" font-family="Helvetica,sans-Serif" font-size="10.00">models::bmi::Bmi_Adapter&lt; T &gt;</text>
<polyline fill="none" stroke="black" points="241,-280.5 393,-280.5 "/>
<text text-anchor="start" x="249" y="-268.5" font-family="Helvetica,sans-Serif" font-size="10.00"># allow_model_exceed</text>
<text text-anchor="start" x="249" y="-257.5" font-family="Helvetica,sans-Serif" font-size="10.00">_end_time</text>
<text text-anchor="start" x="249" y="-246.5" font-family="Helvetica,sans-Serif" font-size="10.00"># bmi_model</text>
<text text-anchor="start" x="249" y="-235.5" font-family="Helvetica,sans-Serif" font-size="10.00"># bmi_model_has_fixed</text>
<text text-anchor="start" x="249" y="-224.5" font-family="Helvetica,sans-Serif" font-size="10.00">_time_step</text>
<text text-anchor="start" x="249" y="-213.5" font-family="Helvetica,sans-Serif" font-size="10.00"># bmi_model_time_convert</text>
<text text-anchor="start" x="249" y="-202.5" font-family="Helvetica,sans-Serif" font-size="10.00">_factor</text>
<text text-anchor="start" x="249" y="-191.5" font-family="Helvetica,sans-Serif" font-size="10.00"># bmi_model_uses_forcing_file</text>
<text text-anchor="start" x="249" y="-180.5" font-family="Helvetica,sans-Serif" font-size="10.00"># model_initialized</text>
<polyline fill="none" stroke="black" points="241,-173.5 393,-173.5 "/>
<text text-anchor="start" x="249" y="-161.5" font-family="Helvetica,sans-Serif" font-size="10.00">+ Bmi_Adapter()</text>
<text text-anchor="start" x="249" y="-150.5" font-family="Helvetica,sans-Serif" font-size="10.00">+ Bmi_Adapter()</text>
<text text-anchor="start" x="249" y="-139.5" font-family="Helvetica,sans-Serif" font-size="10.00">+ Bmi_Adapter()</text>
<text text-anchor="start" x="249" y="-128.5" font-family="Helvetica,sans-Serif" font-size="10.00">+ acquire_time_conversion</text>
<text text-anchor="start" x="249" y="-117.5" font-family="Helvetica,sans-Serif" font-size="10.00">_factor()</text>
<text text-anchor="start" x="249" y="-106.5" font-family="Helvetica,sans-Serif" font-size="10.00">+ convert_model_time</text>
<text text-anchor="start" x="249" y="-95.5" font-family="Helvetica,sans-Serif" font-size="10.00">_to_seconds()</text>
<text text-anchor="start" x="249" y="-84.5" font-family="Helvetica,sans-Serif" font-size="10.00">+ convert_seconds_to</text>
<text text-anchor="start" x="249" y="-73.5" font-family="Helvetica,sans-Serif" font-size="10.00">_model_time()</text>
<text text-anchor="start" x="249" y="-62.5" font-family="Helvetica,sans-Serif" font-size="10.00">+ get_analogous_cxx_type()</text>
<text text-anchor="start" x="249" y="-51.5" font-family="Helvetica,sans-Serif" font-size="10.00">+ Initialize()</text>
<text text-anchor="start" x="249" y="-40.5" font-family="Helvetica,sans-Serif" font-size="10.00">+ Initialize()</text>
<text text-anchor="start" x="249" y="-29.5" font-family="Helvetica,sans-Serif" font-size="10.00">+ isInitialized()</text>
<text text-anchor="start" x="249" y="-18.5" font-family="Helvetica,sans-Serif" font-size="10.00"># construct_and_init</text>
<text text-anchor="start" x="249" y="-7.5" font-family="Helvetica,sans-Serif" font-size="10.00">_backing_model()</text>
</a>
</g>
</g>
<!-- Node2 -->
<g id="node2" class="node">
<title>Node2</title>
<g id="a_node2"><a xlink:href="classbmi_1_1_bmi.html" target="_top" xlink:title=" ">
<polygon fill="white" stroke="black" points="0,-347.5 0,-569.5 122,-569.5 122,-347.5 0,-347.5"/>
<text text-anchor="middle" x="61" y="-557.5" font-family="Helvetica,sans-Serif" font-size="10.00">bmi::Bmi</text>
<polyline fill="none" stroke="black" points="0,-550.5 122,-550.5 "/>
<text text-anchor="middle" x="61" y="-538.5" font-family="Helvetica,sans-Serif" font-size="10.00"> </text>
<polyline fill="none" stroke="black" points="0,-531.5 122,-531.5 "/>
<text text-anchor="start" x="8" y="-519.5" font-family="Helvetica,sans-Serif" font-size="10.00">+ Initialize()</text>
<text text-anchor="start" x="8" y="-508.5" font-family="Helvetica,sans-Serif" font-size="10.00">+ Update()</text>
<text text-anchor="start" x="8" y="-497.5" font-family="Helvetica,sans-Serif" font-size="10.00">+ UpdateUntil()</text>
<text text-anchor="start" x="8" y="-486.5" font-family="Helvetica,sans-Serif" font-size="10.00">+ Finalize()</text>
<text text-anchor="start" x="8" y="-475.5" font-family="Helvetica,sans-Serif" font-size="10.00">+ GetComponentName()</text>
<text text-anchor="start" x="8" y="-464.5" font-family="Helvetica,sans-Serif" font-size="10.00">+ GetInputItemCount()</text>
<text text-anchor="start" x="8" y="-453.5" font-family="Helvetica,sans-Serif" font-size="10.00">+ GetOutputItemCount()</text>
<text text-anchor="start" x="8" y="-442.5" font-family="Helvetica,sans-Serif" font-size="10.00">+ GetInputVarNames()</text>
<text text-anchor="start" x="8" y="-431.5" font-family="Helvetica,sans-Serif" font-size="10.00">+ GetOutputVarNames()</text>
<text text-anchor="start" x="8" y="-420.5" font-family="Helvetica,sans-Serif" font-size="10.00">+ GetVarGrid()</text>
<text text-anchor="start" x="8" y="-409.5" font-family="Helvetica,sans-Serif" font-size="10.00">+ GetVarType()</text>
<text text-anchor="start" x="8" y="-398.5" font-family="Helvetica,sans-Serif" font-size="10.00">+ GetVarUnits()</text>
<text text-anchor="start" x="8" y="-387.5" font-family="Helvetica,sans-Serif" font-size="10.00">+ GetVarItemsize()</text>
<text text-anchor="start" x="8" y="-376.5" font-family="Helvetica,sans-Serif" font-size="10.00">+ GetVarNbytes()</text>
<text text-anchor="start" x="8" y="-365.5" font-family="Helvetica,sans-Serif" font-size="10.00">+ GetVarLocation()</text>
<text text-anchor="start" x="8" y="-354.5" font-family="Helvetica,sans-Serif" font-size="10.00">and 26 more...</text>
</a>
</g>
</g>
<!-- Node2&#45;&gt;Node1 -->
<g id="edge1" class="edge">
<title>Node2&#45;&gt;Node1</title>
<path fill="none" stroke="midnightblue" d="M127.78,-339.93C133.05,-332.35 138.47,-324.98 144,-318 172.64,-281.84 208.79,-245.78 240.63,-216.47"/>
<polygon fill="none" stroke="midnightblue" points="124.88,-337.98 122.14,-348.21 130.66,-341.92 124.88,-337.98"/>
</g>
<!-- Node3 -->
<g id="node3" class="node">
<title>Node3</title>
<g id="a_node3"><a xlink:href="classutils_1_1_stream_handler.html" target="_top" xlink:title="This class provides a copyable interface to a std::ostream or std::ostream like object that may not s...">
<polygon fill="white" stroke="black" points="265,-380.5 265,-536.5 369,-536.5 369,-380.5 265,-380.5"/>
<text text-anchor="middle" x="317" y="-524.5" font-family="Helvetica,sans-Serif" font-size="10.00">utils::StreamHandler</text>
<polyline fill="none" stroke="black" points="265,-517.5 369,-517.5 "/>
<text text-anchor="middle" x="317" y="-505.5" font-family="Helvetica,sans-Serif" font-size="10.00"> </text>
<polyline fill="none" stroke="black" points="265,-498.5 369,-498.5 "/>
<text text-anchor="start" x="273" y="-486.5" font-family="Helvetica,sans-Serif" font-size="10.00">+ StreamHandler()</text>
<text text-anchor="start" x="273" y="-475.5" font-family="Helvetica,sans-Serif" font-size="10.00">+ StreamHandler()</text>
<text text-anchor="start" x="273" y="-464.5" font-family="Helvetica,sans-Serif" font-size="10.00">+ StreamHandler()</text>
<text text-anchor="start" x="273" y="-453.5" font-family="Helvetica,sans-Serif" font-size="10.00">+ StreamHandler()</text>
<text text-anchor="start" x="273" y="-442.5" font-family="Helvetica,sans-Serif" font-size="10.00">+ ~StreamHandler()</text>
<text text-anchor="start" x="273" y="-431.5" font-family="Helvetica,sans-Serif" font-size="10.00">+ operator=()</text>
<text text-anchor="start" x="273" y="-420.5" font-family="Helvetica,sans-Serif" font-size="10.00">+ put()</text>
<text text-anchor="start" x="273" y="-409.5" font-family="Helvetica,sans-Serif" font-size="10.00">+ put_indexed()</text>
<text text-anchor="start" x="273" y="-398.5" font-family="Helvetica,sans-Serif" font-size="10.00">+ put_var()</text>
<text text-anchor="start" x="273" y="-387.5" font-family="Helvetica,sans-Serif" font-size="10.00">+ operator&lt;&lt;()</text>
</a>
</g>
</g>
<!-- Node3&#45;&gt;Node1 -->
<g id="edge2" class="edge">
<title>Node3&#45;&gt;Node1</title>
<path fill="none" stroke="#404040" d="M317,-380.16C317,-359.15 317,-335.59 317,-311.79"/>
<polygon fill="none" stroke="#404040" points="317,-311.71 313,-305.71 317,-299.71 321,-305.71 317,-311.71"/>
<text text-anchor="middle" x="334.5" y="-321" font-family="Helvetica,sans-Serif" font-size="10.00"> #output</text>
</g>
<!-- Node4 -->
<g id="node4" class="node">
<title>Node4</title>
<g id="a_node4"><a xlink:title=" ">
<polygon fill="white" stroke="#bfbfbf" points="239,-675.5 239,-743.5 341,-743.5 341,-675.5 239,-675.5"/>
<text text-anchor="start" x="247" y="-731.5" font-family="Helvetica,sans-Serif" font-size="10.00">std::shared_ptr&lt; std</text>
<text text-anchor="middle" x="290" y="-720.5" font-family="Helvetica,sans-Serif" font-size="10.00">::ostream &gt;</text>
<polyline fill="none" stroke="#bfbfbf" points="239,-713.5 341,-713.5 "/>
<text text-anchor="start" x="247" y="-701.5" font-family="Helvetica,sans-Serif" font-size="10.00">+ ptr</text>
<polyline fill="none" stroke="#bfbfbf" points="239,-694.5 341,-694.5 "/>
<text text-anchor="start" x="247" y="-682.5" font-family="Helvetica,sans-Serif" font-size="10.00">+ operator&#45;&gt;()</text>
</a>
</g>
</g>
<!-- Node4&#45;&gt;Node3 -->
<g id="edge3" class="edge">
<title>Node4&#45;&gt;Node3</title>
<path fill="none" stroke="#404040" d="M273.54,-675.33C271.25,-669.36 269.25,-663.1 268,-657 261.85,-626.96 262.44,-618.16 268,-588 270.43,-574.83 274.14,-561.27 278.46,-548.11"/>
<polygon fill="none" stroke="#404040" points="278.49,-548.03 276.66,-541.05 282.4,-536.68 284.23,-543.65 278.49,-548.03"/>
<text text-anchor="middle" x="303" y="-620" font-family="Helvetica,sans-Serif" font-size="10.00"> #output_stream</text>
</g>
<!-- Node5 -->
<g id="node5" class="node">
<title>Node5</title>
<g id="a_node5"><a xlink:title=" ">
<polygon fill="white" stroke="#bfbfbf" points="353.5,-797 353.5,-854 456.5,-854 456.5,-797 353.5,-797"/>
<text text-anchor="middle" x="405" y="-842" font-family="Helvetica,sans-Serif" font-size="10.00">std::shared_ptr&lt; T &gt;</text>
<polyline fill="none" stroke="#bfbfbf" points="353.5,-835 456.5,-835 "/>
<text text-anchor="middle" x="405" y="-823" font-family="Helvetica,sans-Serif" font-size="10.00"> </text>
<polyline fill="none" stroke="#bfbfbf" points="353.5,-816 456.5,-816 "/>
<text text-anchor="start" x="361.5" y="-804" font-family="Helvetica,sans-Serif" font-size="10.00">+ operator&#45;&gt;()</text>
</a>
</g>
</g>
<!-- Node5&#45;&gt;Node4 -->
<g id="edge4" class="edge">
<title>Node5&#45;&gt;Node4</title>
<path fill="none" stroke="orange" d="M344.22,-800.54C331.54,-793.26 319.24,-784.15 310,-773 303.1,-764.67 298.56,-753.91 295.59,-743.68"/>
<polygon fill="orange" stroke="orange" points="342.57,-803.63 353.03,-805.3 345.89,-797.47 342.57,-803.63"/>
<text text-anchor="middle" x="346.5" y="-765" font-family="Helvetica,sans-Serif" font-size="10.00"> &lt; std::ostream &gt;</text>
</g>
<!-- Node9 -->
<g id="node9" class="node">
<title>Node9</title>
<g id="a_node9"><a xlink:title=" ">
<polygon fill="white" stroke="#bfbfbf" points="467.5,-594 467.5,-651 592.5,-651 592.5,-594 467.5,-594"/>
<text text-anchor="middle" x="530" y="-639" font-family="Helvetica,sans-Serif" font-size="10.00">std::shared_ptr&lt; double &gt;</text>
<polyline fill="none" stroke="#bfbfbf" points="467.5,-632 592.5,-632 "/>
<text text-anchor="start" x="475.5" y="-620" font-family="Helvetica,sans-Serif" font-size="10.00">+ ptr</text>
<polyline fill="none" stroke="#bfbfbf" points="467.5,-613 592.5,-613 "/>
<text text-anchor="start" x="475.5" y="-601" font-family="Helvetica,sans-Serif" font-size="10.00">+ operator&#45;&gt;()</text>
</a>
</g>
</g>
<!-- Node5&#45;&gt;Node9 -->
<g id="edge10" class="edge">
<title>Node5&#45;&gt;Node9</title>
<path fill="none" stroke="orange" d="M465.75,-799.56C477.2,-792.46 488.06,-783.68 496,-773 522.85,-736.91 529.07,-683.32 530.19,-651.06"/>
<polygon fill="orange" stroke="orange" points="463.82,-796.63 456.91,-804.67 467.32,-802.7 463.82,-796.63"/>
<text text-anchor="middle" x="526" y="-765" font-family="Helvetica,sans-Serif" font-size="10.00"> &lt; double &gt;</text>
</g>
<!-- Node10 -->
<g id="node10" class="node">
<title>Node10</title>
<g id="a_node10"><a xlink:title=" ">
<polygon fill="white" stroke="#bfbfbf" points="347,-588.5 347,-656.5 463,-656.5 463,-588.5 347,-588.5"/>
<text text-anchor="start" x="355" y="-644.5" font-family="Helvetica,sans-Serif" font-size="10.00">std::shared_ptr&lt; vector</text>
<text text-anchor="middle" x="405" y="-633.5" font-family="Helvetica,sans-Serif" font-size="10.00">&lt; string &gt; &gt;</text>
<polyline fill="none" stroke="#bfbfbf" points="347,-626.5 463,-626.5 "/>
<text text-anchor="start" x="355" y="-614.5" font-family="Helvetica,sans-Serif" font-size="10.00">+ ptr</text>
<polyline fill="none" stroke="#bfbfbf" points="347,-607.5 463,-607.5 "/>
<text text-anchor="start" x="355" y="-595.5" font-family="Helvetica,sans-Serif" font-size="10.00">+ operator&#45;&gt;()</text>
</a>
</g>
</g>
<!-- Node5&#45;&gt;Node10 -->
<g id="edge12" class="edge">
<title>Node5&#45;&gt;Node10</title>
<path fill="none" stroke="orange" d="M405,-786.96C405,-749.52 405,-692.54 405,-656.7"/>
<polygon fill="orange" stroke="orange" points="401.5,-786.97 405,-796.97 408.5,-786.97 401.5,-786.97"/>
<text text-anchor="middle" x="448.5" y="-765" font-family="Helvetica,sans-Serif" font-size="10.00"> &lt; vector&lt; string &gt; &gt;</text>
</g>
<!-- Node6 -->
<g id="node6" class="node">
<title>Node6</title>
<g id="a_node6"><a xlink:title=" ">
<polygon fill="white" stroke="#bfbfbf" points="390.5,-907.5 390.5,-964.5 419.5,-964.5 419.5,-907.5 390.5,-907.5"/>
<text text-anchor="middle" x="405" y="-952.5" font-family="Helvetica,sans-Serif" font-size="10.00">T</text>
<polyline fill="none" stroke="#bfbfbf" points="390.5,-945.5 419.5,-945.5 "/>
<text text-anchor="middle" x="405" y="-933.5" font-family="Helvetica,sans-Serif" font-size="10.00"> </text>
<polyline fill="none" stroke="#bfbfbf" points="390.5,-926.5 419.5,-926.5 "/>
<text text-anchor="middle" x="405" y="-914.5" font-family="Helvetica,sans-Serif" font-size="10.00"> </text>
</a>
</g>
</g>
<!-- Node6&#45;&gt;Node5 -->
<g id="edge5" class="edge">
<title>Node6&#45;&gt;Node5</title>
<path fill="none" stroke="#404040" d="M405,-907.34C405,-894.84 405,-879.84 405,-866.18"/>
<polygon fill="none" stroke="#404040" points="405,-866.11 401,-860.11 405,-854.11 409,-860.11 405,-866.11"/>
<text text-anchor="middle" x="415" y="-881" font-family="Helvetica,sans-Serif" font-size="10.00"> +ptr</text>
</g>
<!-- Node7 -->
<g id="node7" class="node">
<title>Node7</title>
<g id="a_node7"><a xlink:title=" ">
<polygon fill="white" stroke="#bfbfbf" points="135.5,-681 135.5,-738 194.5,-738 194.5,-681 135.5,-681"/>
<text text-anchor="middle" x="165" y="-726" font-family="Helvetica,sans-Serif" font-size="10.00">std::string</text>
<polyline fill="none" stroke="#bfbfbf" points="135.5,-719 194.5,-719 "/>
<text text-anchor="middle" x="165" y="-707" font-family="Helvetica,sans-Serif" font-size="10.00"> </text>
<polyline fill="none" stroke="#bfbfbf" points="135.5,-700 194.5,-700 "/>
<text text-anchor="middle" x="165" y="-688" font-family="Helvetica,sans-Serif" font-size="10.00"> </text>
</a>
</g>
</g>
<!-- Node7&#45;&gt;Node1 -->
<g id="edge8" class="edge">
<title>Node7&#45;&gt;Node1</title>
<path fill="none" stroke="#404040" d="M159.33,-680.76C147.91,-618.84 126.5,-465.48 167,-347 180.81,-306.59 206.6,-267.94 232.96,-235.8"/>
<polygon fill="none" stroke="#404040" points="233.06,-235.68 233.84,-228.51 240.76,-226.48 239.98,-233.65 233.06,-235.68"/>
<text text-anchor="middle" x="211.5" y="-472.5" font-family="Helvetica,sans-Serif" font-size="10.00"> #bmi_init_config</text>
<text text-anchor="middle" x="211.5" y="-461.5" font-family="Helvetica,sans-Serif" font-size="10.00">#forcing_file_path</text>
<text text-anchor="middle" x="211.5" y="-450.5" font-family="Helvetica,sans-Serif" font-size="10.00">#init_exception_msg</text>
<text text-anchor="middle" x="211.5" y="-439.5" font-family="Helvetica,sans-Serif" font-size="10.00">#model_name</text>
</g>
<!-- Node7&#45;&gt;Node3 -->
<g id="edge6" class="edge">
<title>Node7&#45;&gt;Node3</title>
<path fill="none" stroke="#404040" d="M179.08,-680.73C192.26,-655.66 213.16,-618.18 235,-588 241.28,-579.33 244.67,-578.63 251,-570 256.43,-562.59 261.83,-554.7 267.05,-546.69"/>
<polygon fill="none" stroke="#404040" points="267.1,-546.61 266.96,-539.4 273.56,-536.5 273.7,-543.71 267.1,-546.61"/>
<text text-anchor="middle" x="247" y="-620" font-family="Helvetica,sans-Serif" font-size="10.00"> #sep</text>
</g>
<!-- Node8 -->
<g id="node8" class="node">
<title>Node8</title>
<g id="a_node8"><a xlink:title=" ">
<polygon fill="white" stroke="#bfbfbf" points="118.5,-791.5 118.5,-859.5 211.5,-859.5 211.5,-791.5 118.5,-791.5"/>
<text text-anchor="start" x="126.5" y="-847.5" font-family="Helvetica,sans-Serif" font-size="10.00">std::basic_string&lt;</text>
<text text-anchor="middle" x="165" y="-836.5" font-family="Helvetica,sans-Serif" font-size="10.00"> Char &gt;</text>
<polyline fill="none" stroke="#bfbfbf" points="118.5,-829.5 211.5,-829.5 "/>
<text text-anchor="middle" x="165" y="-817.5" font-family="Helvetica,sans-Serif" font-size="10.00"> </text>
<polyline fill="none" stroke="#bfbfbf" points="118.5,-810.5 211.5,-810.5 "/>
<text text-anchor="middle" x="165" y="-798.5" font-family="Helvetica,sans-Serif" font-size="10.00"> </text>
</a>
</g>
</g>
<!-- Node8&#45;&gt;Node7 -->
<g id="edge7" class="edge">
<title>Node8&#45;&gt;Node7</title>
<path fill="none" stroke="midnightblue" d="M165,-781.03C165,-766.67 165,-751.1 165,-738.24"/>
<polygon fill="none" stroke="midnightblue" points="161.5,-781.22 165,-791.22 168.5,-781.22 161.5,-781.22"/>
</g>
<!-- Node9&#45;&gt;Node1 -->
<g id="edge9" class="edge">
<title>Node9&#45;&gt;Node1</title>
<path fill="none" stroke="#404040" d="M531.34,-593.93C532.75,-542.74 530.68,-430.62 492,-347 470.91,-301.39 435.56,-258.74 402.14,-224.95"/>
<polygon fill="none" stroke="#404040" points="401.75,-224.57 394.67,-223.18 393.24,-216.11 400.31,-217.5 401.75,-224.57"/>
<text text-anchor="middle" x="594" y="-456" font-family="Helvetica,sans-Serif" font-size="10.00"> #bmi_model_time_step_size</text>
</g>
<!-- Node10&#45;&gt;Node1 -->
<g id="edge11" class="edge">
<title>Node10&#45;&gt;Node1</title>
<path fill="none" stroke="#404040" d="M403.91,-588.22C401.72,-536.25 395.4,-432.89 378,-347 375.65,-335.41 372.89,-323.53 369.85,-311.63"/>
<polygon fill="none" stroke="#404040" points="369.78,-311.34 364.39,-306.55 366.74,-299.73 372.13,-304.52 369.78,-311.34"/>
<text text-anchor="middle" x="445" y="-461.5" font-family="Helvetica,sans-Serif" font-size="10.00"> #input_var_names</text>
<text text-anchor="middle" x="445" y="-450.5" font-family="Helvetica,sans-Serif" font-size="10.00">#output_var_names</text>
</g>
</g>
</svg>
