<?xml version="1.0" encoding="UTF-8" standalone="no"?>
<!DOCTYPE svg PUBLIC "-//W3C//DTD SVG 1.1//EN"
 "http://www.w3.org/Graphics/SVG/1.1/DTD/svg11.dtd">
<!-- Generated by graphviz version 9.0.0 (20230911.1827)
 -->
<!-- Title: HY_CatchmentArea Pages: 1 -->
<svg width="966pt" height="962pt"
 viewBox="0.00 0.00 966.00 962.25" xmlns="http://www.w3.org/2000/svg" xmlns:xlink="http://www.w3.org/1999/xlink">
<g id="graph0" class="graph" transform="scale(1 1) rotate(0) translate(4 958.25)">
<title>HY_CatchmentArea</title>
<!-- Node1 -->
<g id="Node000001" class="node">
<title>Node1</title>
<g id="a_Node000001"><a xlink:title=" ">
<polygon fill="#999999" stroke="none" points="144,-109 28,-109 28,0 144,0 144,-109"/>
<text text-anchor="start" x="42.5" y="-95.5" font-family="Helvetica,sans-Serif" font-size="10.00">HY_CatchmentArea</text>
<text text-anchor="start" x="32.38" y="-80.5" font-family="Helvetica,sans-Serif" font-size="10.00">#</text>
<text text-anchor="start" x="42" y="-80.5" font-family="Helvetica,sans-Serif" font-size="10.00">bounds</text>
<text text-anchor="start" x="32" y="-65.5" font-family="Helvetica,sans-Serif" font-size="10.00">+</text>
<text text-anchor="start" x="42" y="-65.5" font-family="Helvetica,sans-Serif" font-size="10.00">HY_CatchmentArea()</text>
<text text-anchor="start" x="32" y="-50.5" font-family="Helvetica,sans-Serif" font-size="10.00">+</text>
<text text-anchor="start" x="42" y="-50.5" font-family="Helvetica,sans-Serif" font-size="10.00">HY_CatchmentArea()</text>
<text text-anchor="start" x="32" y="-35.5" font-family="Helvetica,sans-Serif" font-size="10.00">+</text>
<text text-anchor="start" x="42" y="-35.5" font-family="Helvetica,sans-Serif" font-size="10.00">set_output_stream()</text>
<text text-anchor="start" x="32" y="-20.5" font-family="Helvetica,sans-Serif" font-size="10.00">+</text>
<text text-anchor="start" x="42" y="-20.5" font-family="Helvetica,sans-Serif" font-size="10.00">write_output()</text>
<text text-anchor="start" x="32" y="-5.5" font-family="Helvetica,sans-Serif" font-size="10.00">+</text>
<text text-anchor="start" x="42" y="-5.5" font-family="Helvetica,sans-Serif" font-size="10.00">~HY_CatchmentArea()</text>
<polygon fill="#666666" stroke="#666666" points="28,-92 28,-92 144,-92 144,-92 28,-92"/>
<polygon fill="#666666" stroke="#666666" points="28,-77 28,-77 40,-77 40,-77 28,-77"/>
<polygon fill="#666666" stroke="#666666" points="40,-77 40,-77 144,-77 144,-77 40,-77"/>
<polygon fill="none" stroke="#666666" points="28,0 28,-109 144,-109 144,0 28,0"/>
</a>
</g>
</g>
<!-- Node2 -->
<g id="Node000002" class="node">
<title>Node2</title>
<g id="a_Node000002"><a xlink:href="class_h_y___catchment_realization.html" target="_top" xlink:title=" ">
<polygon fill="white" stroke="none" points="245.5,-675 102.5,-675 102.5,-566 245.5,-566 245.5,-675"/>
<text text-anchor="start" x="117" y="-661.5" font-family="Helvetica,sans-Serif" font-size="10.00">HY_CatchmentRealization</text>
<text text-anchor="start" x="106.88" y="-646.5" font-family="Helvetica,sans-Serif" font-size="10.00">#</text>
<text text-anchor="start" x="116.5" y="-646.5" font-family="Helvetica,sans-Serif" font-size="10.00">id_number</text>
<text text-anchor="start" x="106.5" y="-631.5" font-family="Helvetica,sans-Serif" font-size="10.00">+</text>
<text text-anchor="start" x="116.5" y="-631.5" font-family="Helvetica,sans-Serif" font-size="10.00">HY_CatchmentRealization()</text>
<text text-anchor="start" x="106.5" y="-616.5" font-family="Helvetica,sans-Serif" font-size="10.00">+</text>
<text text-anchor="start" x="116.5" y="-616.5" font-family="Helvetica,sans-Serif" font-size="10.00">~HY_CatchmentRealization()</text>
<text text-anchor="start" x="106.5" y="-601.5" font-family="Helvetica,sans-Serif" font-size="10.00">+</text>
<text text-anchor="start" x="116.5" y="-601.5" font-family="Helvetica,sans-Serif" font-size="10.00">get_response()</text>
<text text-anchor="start" x="106.88" y="-586.5" font-family="Helvetica,sans-Serif" font-size="10.00">#</text>
<text text-anchor="start" x="116.5" y="-586.5" font-family="Helvetica,sans-Serif" font-size="10.00">get_catchment_id()</text>
<text text-anchor="start" x="106.88" y="-571.5" font-family="Helvetica,sans-Serif" font-size="10.00">#</text>
<text text-anchor="start" x="116.5" y="-571.5" font-family="Helvetica,sans-Serif" font-size="10.00">set_catchment_id()</text>
<polygon fill="#666666" stroke="#666666" points="102.5,-658 102.5,-658 245.5,-658 245.5,-658 102.5,-658"/>
<polygon fill="#666666" stroke="#666666" points="102.5,-643 102.5,-643 114.5,-643 114.5,-643 102.5,-643"/>
<polygon fill="#666666" stroke="#666666" points="114.5,-643 114.5,-643 245.5,-643 245.5,-643 114.5,-643"/>
<polygon fill="none" stroke="#666666" points="102.5,-566 102.5,-675 245.5,-675 245.5,-566 102.5,-566"/>
</a>
</g>
</g>
<!-- Node2&#45;&gt;Node1 -->
<g id="edge1_Node000001_Node000002" class="edge">
<title>Node2&#45;&gt;Node1</title>
<g id="a_edge1_Node000001_Node000002"><a xlink:title=" ">
<path fill="none" stroke="#63b8ff" d="M93.32,-564C66.38,-544.58 42.29,-525.84 39,-518.75 25.53,-489.71 15.93,-253.87 38,-156.25 41.63,-140.19 48.14,-123.68 55.22,-108.8"/>
<polygon fill="none" stroke="#63b8ff" points="91.14,-566.75 101.31,-569.72 95.21,-561.06 91.14,-566.75"/>
</a>
</g>
</g>
<!-- Node6 -->
<g id="Node000006" class="node">
<title>Node6</title>
<g id="a_Node000006"><a xlink:title=" ">
<polygon fill="white" stroke="none" points="318,-516.75 200,-516.75 200,-456.75 318,-456.75 318,-516.75"/>
<text text-anchor="start" x="205" y="-503.25" font-family="Helvetica,sans-Serif" font-size="10.00">std::shared_ptr&lt; HY</text>
<text text-anchor="start" x="205" y="-492" font-family="Helvetica,sans-Serif" font-size="10.00">_CatchmentRealization &gt;</text>
<text text-anchor="start" x="257.5" y="-477.25" font-family="Helvetica,sans-Serif" font-size="10.00"> </text>
<text text-anchor="start" x="216.5" y="-462.25" font-family="Helvetica,sans-Serif" font-size="10.00">+</text>
<text text-anchor="start" x="239" y="-462.25" font-family="Helvetica,sans-Serif" font-size="10.00">operator&#45;&gt;()</text>
<polygon fill="#666666" stroke="#666666" points="200,-488.75 200,-488.75 318,-488.75 318,-488.75 200,-488.75"/>
<polygon fill="#666666" stroke="#666666" points="200,-473.75 200,-473.75 318,-473.75 318,-473.75 200,-473.75"/>
<polygon fill="none" stroke="#666666" points="200,-456.75 200,-516.75 318,-516.75 318,-456.75 200,-456.75"/>
</a>
</g>
</g>
<!-- Node2&#45;&gt;Node6 -->
<g id="edge6_Node000006_Node000002" class="edge">
<title>Node2&#45;&gt;Node6</title>
<g id="a_edge6_Node000006_Node000002"><a xlink:title=" ">
<path fill="none" stroke="#63b8ff" d="M245.13,-567.94C250.21,-561.76 254.65,-555.1 258,-548 260.7,-542.27 262.19,-535.88 262.87,-529.46"/>
<polygon fill="none" stroke="#63b8ff" points="262.87,-529.35 259.07,-523.22 263.27,-517.35 267.07,-523.48 262.87,-529.35"/>
</a>
</g>
<text text-anchor="middle" x="270.75" y="-538.5" font-family="Helvetica,sans-Serif" font-size="10.00" fill="grey"> +ptr</text>
</g>
<!-- Node3 -->
<g id="Node000003" class="node">
<title>Node3</title>
<g id="a_Node000003"><a xlink:title=" ">
<polygon fill="white" stroke="none" points="587,-84.5 491,-84.5 491,-24.5 587,-24.5 587,-84.5"/>
<text text-anchor="start" x="495.88" y="-71" font-family="Helvetica,sans-Serif" font-size="10.00">std::shared_ptr&lt; HY</text>
<text text-anchor="start" x="508.62" y="-59.75" font-family="Helvetica,sans-Serif" font-size="10.00">_Catchment &gt;</text>
<text text-anchor="start" x="537.5" y="-45" font-family="Helvetica,sans-Serif" font-size="10.00"> </text>
<text text-anchor="start" x="502" y="-30" font-family="Helvetica,sans-Serif" font-size="10.00">+</text>
<text text-anchor="start" x="519" y="-30" font-family="Helvetica,sans-Serif" font-size="10.00">operator&#45;&gt;()</text>
<polygon fill="#666666" stroke="#666666" points="491,-56.5 491,-56.5 587,-56.5 587,-56.5 491,-56.5"/>
<polygon fill="#666666" stroke="#666666" points="491,-41.5 491,-41.5 587,-41.5 587,-41.5 491,-41.5"/>
<polygon fill="none" stroke="#666666" points="491,-24.5 491,-84.5 587,-84.5 587,-24.5 491,-24.5"/>
</a>
</g>
</g>
<!-- Node3&#45;&gt;Node2 -->
<g id="edge2_Node000002_Node000003" class="edge">
<title>Node3&#45;&gt;Node2</title>
<g id="a_edge2_Node000002_Node000003"><a xlink:title=" ">
<path fill="none" stroke="#63b8ff" d="M511.67,-84.18C492.88,-104.11 467.54,-131.45 446,-156.25 355.7,-260.23 342.58,-294.29 250,-396.25 225.18,-423.59 210.07,-423.13 191,-454.75 168.84,-491.49 163.61,-505.16 166,-548 166.1,-549.74 166.21,-551.5 166.33,-553.28"/>
<polygon fill="none" stroke="#63b8ff" points="166.32,-553.21 170.79,-558.86 167.29,-565.17 162.82,-559.51 166.32,-553.21"/>
</a>
</g>
<text text-anchor="middle" x="275.75" y="-421.62" font-family="Helvetica,sans-Serif" font-size="10.00" fill="grey"> #realized_catchment</text>
</g>
<!-- Node4 -->
<g id="Node000004" class="node">
<title>Node4</title>
<g id="a_Node000004"><a xlink:href="class_h_y___catchment.html" target="_top" xlink:title=" ">
<polygon fill="white" stroke="none" points="623.5,-396.25 454.5,-396.25 454.5,-156.25 623.5,-156.25 623.5,-396.25"/>
<text text-anchor="start" x="505.62" y="-382.75" font-family="Helvetica,sans-Serif" font-size="10.00">HY_Catchment</text>
<text text-anchor="start" x="458.5" y="-367.75" font-family="Helvetica,sans-Serif" font-size="10.00">+</text>
<text text-anchor="start" x="468.5" y="-367.75" font-family="Helvetica,sans-Serif" font-size="10.00">ATMOSPHERIC_LAYER_HIGH</text>
<text text-anchor="start" x="458.5" y="-352.75" font-family="Helvetica,sans-Serif" font-size="10.00">+</text>
<text text-anchor="start" x="468.5" y="-352.75" font-family="Helvetica,sans-Serif" font-size="10.00">ATMOSPHERIC_Layer_LOW</text>
<text text-anchor="start" x="458.5" y="-337.75" font-family="Helvetica,sans-Serif" font-size="10.00">+</text>
<text text-anchor="start" x="468.5" y="-337.75" font-family="Helvetica,sans-Serif" font-size="10.00">CANOPY_LAYER</text>
<text text-anchor="start" x="458.5" y="-322.75" font-family="Helvetica,sans-Serif" font-size="10.00">+</text>
<text text-anchor="start" x="468.5" y="-322.75" font-family="Helvetica,sans-Serif" font-size="10.00">SNOW_LAYER</text>
<text text-anchor="start" x="458.5" y="-307.75" font-family="Helvetica,sans-Serif" font-size="10.00">+</text>
<text text-anchor="start" x="468.5" y="-307.75" font-family="Helvetica,sans-Serif" font-size="10.00">SURFACE_LAYER</text>
<text text-anchor="start" x="458.5" y="-292.75" font-family="Helvetica,sans-Serif" font-size="10.00">+</text>
<text text-anchor="start" x="468.5" y="-292.75" font-family="Helvetica,sans-Serif" font-size="10.00">GROUND_WATER_SHALLOW</text>
<text text-anchor="start" x="468.5" y="-281.5" font-family="Helvetica,sans-Serif" font-size="10.00">_LAYER</text>
<text text-anchor="start" x="458.5" y="-266.75" font-family="Helvetica,sans-Serif" font-size="10.00">+</text>
<text text-anchor="start" x="468.5" y="-266.75" font-family="Helvetica,sans-Serif" font-size="10.00">GROUND_WATER_DEEP_LAYER</text>
<text text-anchor="start" x="460" y="-251.75" font-family="Helvetica,sans-Serif" font-size="10.00">&#45;</text>
<text text-anchor="start" x="468.5" y="-251.75" font-family="Helvetica,sans-Serif" font-size="10.00">layer</text>
<text text-anchor="start" x="458.5" y="-236.75" font-family="Helvetica,sans-Serif" font-size="10.00">+</text>
<text text-anchor="start" x="468.5" y="-236.75" font-family="Helvetica,sans-Serif" font-size="10.00">HY_Catchment()</text>
<text text-anchor="start" x="458.5" y="-221.75" font-family="Helvetica,sans-Serif" font-size="10.00">+</text>
<text text-anchor="start" x="468.5" y="-221.75" font-family="Helvetica,sans-Serif" font-size="10.00">HY_Catchment()</text>
<text text-anchor="start" x="458.5" y="-206.75" font-family="Helvetica,sans-Serif" font-size="10.00">+</text>
<text text-anchor="start" x="468.5" y="-206.75" font-family="Helvetica,sans-Serif" font-size="10.00">~HY_Catchment()</text>
<text text-anchor="start" x="458.5" y="-191.75" font-family="Helvetica,sans-Serif" font-size="10.00">+</text>
<text text-anchor="start" x="468.5" y="-191.75" font-family="Helvetica,sans-Serif" font-size="10.00">get_outflow_nexuses()</text>
<text text-anchor="start" x="458.5" y="-176.75" font-family="Helvetica,sans-Serif" font-size="10.00">+</text>
<text text-anchor="start" x="468.5" y="-176.75" font-family="Helvetica,sans-Serif" font-size="10.00">get_layer()</text>
<text text-anchor="start" x="458.5" y="-161.75" font-family="Helvetica,sans-Serif" font-size="10.00">+</text>
<text text-anchor="start" x="468.5" y="-161.75" font-family="Helvetica,sans-Serif" font-size="10.00">set_layer()</text>
<polygon fill="#666666" stroke="#666666" points="454.5,-379.25 454.5,-379.25 623.5,-379.25 623.5,-379.25 454.5,-379.25"/>
<polygon fill="#666666" stroke="#666666" points="454.5,-248.25 454.5,-248.25 466.5,-248.25 466.5,-248.25 454.5,-248.25"/>
<polygon fill="#666666" stroke="#666666" points="466.5,-248.25 466.5,-248.25 623.5,-248.25 623.5,-248.25 466.5,-248.25"/>
<polygon fill="none" stroke="#666666" points="454.5,-156.25 454.5,-396.25 623.5,-396.25 623.5,-156.25 454.5,-156.25"/>
</a>
</g>
</g>
<!-- Node4&#45;&gt;Node3 -->
<g id="edge3_Node000003_Node000004" class="edge">
<title>Node4&#45;&gt;Node3</title>
<g id="a_edge3_Node000003_Node000004"><a xlink:title=" ">
<path fill="none" stroke="#63b8ff" d="M539,-156.37C539,-135.14 539,-114.37 539,-97.24"/>
<polygon fill="none" stroke="#63b8ff" points="539,-97.25 535,-91.25 539,-85.25 543,-91.25 539,-97.25"/>
</a>
</g>
<text text-anchor="middle" x="548.75" y="-128.75" font-family="Helvetica,sans-Serif" font-size="10.00" fill="grey"> +ptr</text>
</g>
<!-- Node5 -->
<g id="Node000005" class="node">
<title>Node5</title>
<g id="a_Node000005"><a xlink:href="class_h_y___hydro_feature.html" target="_top" xlink:title=" ">
<polygon fill="white" stroke="none" points="502.5,-518.75 395.5,-518.75 395.5,-454.75 502.5,-454.75 502.5,-518.75"/>
<text text-anchor="start" x="410" y="-505.25" font-family="Helvetica,sans-Serif" font-size="10.00">HY_HydroFeature</text>
<text text-anchor="start" x="447.5" y="-490.25" font-family="Helvetica,sans-Serif" font-size="10.00"> </text>
<text text-anchor="start" x="399.5" y="-475.25" font-family="Helvetica,sans-Serif" font-size="10.00">+</text>
<text text-anchor="start" x="409.5" y="-475.25" font-family="Helvetica,sans-Serif" font-size="10.00">HY_HydroFeature()</text>
<text text-anchor="start" x="399.5" y="-460.25" font-family="Helvetica,sans-Serif" font-size="10.00">+</text>
<text text-anchor="start" x="409.5" y="-460.25" font-family="Helvetica,sans-Serif" font-size="10.00">~HY_HydroFeature()</text>
<polygon fill="#666666" stroke="#666666" points="395.5,-501.75 395.5,-501.75 502.5,-501.75 502.5,-501.75 395.5,-501.75"/>
<polygon fill="#666666" stroke="#666666" points="395.5,-486.75 395.5,-486.75 502.5,-486.75 502.5,-486.75 395.5,-486.75"/>
<polygon fill="none" stroke="#666666" points="395.5,-454.75 395.5,-518.75 502.5,-518.75 502.5,-454.75 395.5,-454.75"/>
</a>
</g>
</g>
<!-- Node5&#45;&gt;Node4 -->
<g id="edge4_Node000004_Node000005" class="edge">
<title>Node5&#45;&gt;Node4</title>
<g id="a_edge4_Node000004_Node000005"><a xlink:title=" ">
<path fill="none" stroke="#63b8ff" d="M466.78,-444.55C472.97,-430.21 480.26,-413.33 487.79,-395.89"/>
<polygon fill="none" stroke="#63b8ff" points="463.63,-443.03 462.88,-453.6 470.06,-445.8 463.63,-443.03"/>
</a>
</g>
</g>
<!-- Node6&#45;&gt;Node4 -->
<g id="edge5_Node000004_Node000006" class="edge">
<title>Node6&#45;&gt;Node4</title>
<g id="a_edge5_Node000004_Node000006"><a xlink:title=" ">
<path fill="none" stroke="#63b8ff" d="M317.81,-461.37C332.7,-454.24 348.33,-445.88 362,-436.75 390.8,-417.52 419.69,-393.81 445.54,-370.6"/>
<polygon fill="none" stroke="#63b8ff" points="445.36,-370.76 447.12,-363.77 454.25,-362.69 452.5,-369.69 445.36,-370.76"/>
</a>
</g>
<text text-anchor="middle" x="413.88" y="-421.62" font-family="Helvetica,sans-Serif" font-size="10.00" fill="grey"> +realization</text>
</g>
<!-- Node7 -->
<g id="Node000007" class="node">
<title>Node7</title>
<g id="a_Node000007"><a xlink:title=" ">
<polygon fill="white" stroke="none" points="472,-645 376,-645 376,-596 472,-596 472,-645"/>
<text text-anchor="start" x="380.88" y="-631.5" font-family="Helvetica,sans-Serif" font-size="10.00">std::shared_ptr&lt; T &gt;</text>
<text text-anchor="start" x="422.5" y="-616.5" font-family="Helvetica,sans-Serif" font-size="10.00"> </text>
<text text-anchor="start" x="387" y="-601.5" font-family="Helvetica,sans-Serif" font-size="10.00">+</text>
<text text-anchor="start" x="404" y="-601.5" font-family="Helvetica,sans-Serif" font-size="10.00">operator&#45;&gt;()</text>
<polygon fill="#666666" stroke="#666666" points="376,-628 376,-628 472,-628 472,-628 376,-628"/>
<polygon fill="#666666" stroke="#666666" points="376,-613 376,-613 472,-613 472,-613 376,-613"/>
<polygon fill="none" stroke="#666666" points="376,-596 376,-645 472,-645 472,-596 376,-596"/>
</a>
</g>
</g>
<!-- Node7&#45;&gt;Node3 -->
<g id="edge18_Node000003_Node000007" class="edge">
<title>Node7&#45;&gt;Node3</title>
<g id="a_edge18_Node000003_Node000007"><a xlink:title=" ">
<path fill="none" stroke="orange" d="M470.46,-590.64C487.63,-581.26 507.64,-571.8 527,-566 629.9,-535.21 706.49,-609.46 764,-518.75 862.37,-363.57 657.83,-159.02 573.3,-84.35"/>
<polygon fill="orange" stroke="orange" points="469.03,-587.42 462.03,-595.37 472.46,-593.53 469.03,-587.42"/>
</a>
</g>
<text text-anchor="middle" x="832.75" y="-421.62" font-family="Helvetica,sans-Serif" font-size="10.00" fill="grey"> &lt; HY_Catchment &gt;</text>
</g>
<!-- Node7&#45;&gt;Node6 -->
<g id="edge7_Node000006_Node000007" class="edge">
<title>Node7&#45;&gt;Node6</title>
<g id="a_edge7_Node000006_Node000007"><a xlink:title=" ">
<path fill="none" stroke="orange" d="M380.07,-589.77C362.36,-577.34 341.97,-562.44 324.25,-548 312.18,-538.16 299.47,-526.71 288.52,-516.45"/>
<polygon fill="orange" stroke="orange" points="377.61,-592.32 387.81,-595.17 381.61,-586.58 377.61,-592.32"/>
</a>
</g>
<text text-anchor="middle" x="390.38" y="-538.5" font-family="Helvetica,sans-Serif" font-size="10.00" fill="grey"> &lt; HY_CatchmentRealization &gt;</text>
</g>
<!-- Node16 -->
<g id="Node000016" class="node">
<title>Node16</title>
<g id="a_Node000016"><a xlink:title=" ">
<polygon fill="white" stroke="none" points="143.5,-516.75 48.5,-516.75 48.5,-456.75 143.5,-456.75 143.5,-516.75"/>
<text text-anchor="start" x="53.25" y="-503.25" font-family="Helvetica,sans-Serif" font-size="10.00">std::shared_ptr&lt; std</text>
<text text-anchor="start" x="72" y="-492" font-family="Helvetica,sans-Serif" font-size="10.00">::ostream &gt;</text>
<text text-anchor="start" x="94.5" y="-477.25" font-family="Helvetica,sans-Serif" font-size="10.00"> </text>
<text text-anchor="start" x="59" y="-462.25" font-family="Helvetica,sans-Serif" font-size="10.00">+</text>
<text text-anchor="start" x="75.5" y="-462.25" font-family="Helvetica,sans-Serif" font-size="10.00">operator&#45;&gt;()</text>
<polygon fill="#666666" stroke="#666666" points="48.5,-488.75 48.5,-488.75 143.5,-488.75 143.5,-488.75 48.5,-488.75"/>
<polygon fill="#666666" stroke="#666666" points="48.5,-473.75 48.5,-473.75 143.5,-473.75 143.5,-473.75 48.5,-473.75"/>
<polygon fill="none" stroke="#666666" points="48.5,-456.75 48.5,-516.75 143.5,-516.75 143.5,-456.75 48.5,-456.75"/>
</a>
</g>
</g>
<!-- Node7&#45;&gt;Node16 -->
<g id="edge26_Node000016_Node000007" class="edge">
<title>Node7&#45;&gt;Node16</title>
<g id="a_edge26_Node000016_Node000007"><a xlink:title=" ">
<path fill="none" stroke="orange" d="M365.53,-599.96C333.12,-589.39 292,-576.41 255,-566 222.83,-556.95 212.42,-561.82 182,-548 164.07,-539.86 145.97,-527.86 131.02,-516.71"/>
<polygon fill="orange" stroke="orange" points="364.14,-603.19 374.73,-602.98 366.32,-596.54 364.14,-603.19"/>
</a>
</g>
<text text-anchor="middle" x="218" y="-538.5" font-family="Helvetica,sans-Serif" font-size="10.00" fill="grey"> &lt; std::ostream &gt;</text>
</g>
<!-- Node8 -->
<g id="Node000008" class="node">
<title>Node8</title>
<g id="a_Node000008"><a xlink:title=" ">
<polygon fill="white" stroke="none" points="740,-776.75 724,-776.75 724,-727.75 740,-727.75 740,-776.75"/>
<text text-anchor="start" x="729" y="-763.25" font-family="Helvetica,sans-Serif" font-size="10.00">T</text>
<text text-anchor="start" x="730.5" y="-748.25" font-family="Helvetica,sans-Serif" font-size="10.00"> </text>
<text text-anchor="start" x="730.5" y="-733.25" font-family="Helvetica,sans-Serif" font-size="10.00"> </text>
<polygon fill="#666666" stroke="#666666" points="724,-759.75 724,-759.75 740,-759.75 740,-759.75 724,-759.75"/>
<polygon fill="#666666" stroke="#666666" points="724,-744.75 724,-744.75 740,-744.75 740,-744.75 724,-744.75"/>
<polygon fill="none" stroke="#666666" points="724,-727.75 724,-776.75 740,-776.75 740,-727.75 724,-727.75"/>
</a>
</g>
</g>
<!-- Node8&#45;&gt;Node7 -->
<g id="edge8_Node000007_Node000008" class="edge">
<title>Node8&#45;&gt;Node7</title>
<g id="a_edge8_Node000007_Node000008"><a xlink:title=" ">
<path fill="none" stroke="#63b8ff" d="M724.04,-748.68C696.37,-739.68 601.97,-708.26 527,-675 510.55,-667.7 493.04,-658.98 477.21,-650.72"/>
<polygon fill="none" stroke="#63b8ff" points="477.43,-650.84 470.26,-651.58 466.82,-645.24 473.99,-644.5 477.43,-650.84"/>
</a>
</g>
<text text-anchor="middle" x="602.75" y="-694.75" font-family="Helvetica,sans-Serif" font-size="10.00" fill="grey"> +ptr</text>
</g>
<!-- Node12 -->
<g id="Node000012" class="node">
<title>Node12</title>
<g id="a_Node000012"><a xlink:title=" ">
<polygon fill="white" stroke="none" points="881.5,-645 804.5,-645 804.5,-596 881.5,-596 881.5,-645"/>
<text text-anchor="start" x="809.25" y="-631.5" font-family="Helvetica,sans-Serif" font-size="10.00">std::vector&lt; T &gt;</text>
<text text-anchor="start" x="841.5" y="-616.5" font-family="Helvetica,sans-Serif" font-size="10.00"> </text>
<text text-anchor="start" x="841.5" y="-601.5" font-family="Helvetica,sans-Serif" font-size="10.00"> </text>
<polygon fill="#666666" stroke="#666666" points="804.5,-628 804.5,-628 881.5,-628 881.5,-628 804.5,-628"/>
<polygon fill="#666666" stroke="#666666" points="804.5,-613 804.5,-613 881.5,-613 881.5,-613 804.5,-613"/>
<polygon fill="none" stroke="#666666" points="804.5,-596 804.5,-645 881.5,-645 881.5,-596 804.5,-596"/>
</a>
</g>
</g>
<!-- Node8&#45;&gt;Node12 -->
<g id="edge14_Node000012_Node000008" class="edge">
<title>Node8&#45;&gt;Node12</title>
<g id="a_edge14_Node000012_Node000008"><a xlink:title=" ">
<path fill="none" stroke="#63b8ff" d="M739.98,-741.92C755.37,-723.93 789.8,-683.69 814.62,-654.67"/>
<polygon fill="none" stroke="#63b8ff" points="814.57,-654.73 815.43,-647.57 822.37,-645.61 821.51,-652.77 814.57,-654.73"/>
</a>
</g>
<text text-anchor="middle" x="804" y="-694.75" font-family="Helvetica,sans-Serif" font-size="10.00" fill="grey"> +elements</text>
</g>
<!-- Node9 -->
<g id="Node000009" class="node">
<title>Node9</title>
<g id="a_Node000009"><a xlink:title=" ">
<polygon fill="white" stroke="none" points="588,-645 536,-645 536,-596 588,-596 588,-645"/>
<text text-anchor="start" x="541" y="-631.5" font-family="Helvetica,sans-Serif" font-size="10.00">std::string</text>
<text text-anchor="start" x="560.5" y="-616.5" font-family="Helvetica,sans-Serif" font-size="10.00"> </text>
<text text-anchor="start" x="560.5" y="-601.5" font-family="Helvetica,sans-Serif" font-size="10.00"> </text>
<polygon fill="#666666" stroke="#666666" points="536,-628 536,-628 588,-628 588,-628 536,-628"/>
<polygon fill="#666666" stroke="#666666" points="536,-613 536,-613 588,-613 588,-613 536,-613"/>
<polygon fill="none" stroke="#666666" points="536,-596 536,-645 588,-645 588,-596 536,-596"/>
</a>
</g>
</g>
<!-- Node9&#45;&gt;Node4 -->
<g id="edge9_Node000004_Node000009" class="edge">
<title>Node9&#45;&gt;Node4</title>
<g id="a_edge9_Node000004_Node000009"><a xlink:title=" ">
<path fill="none" stroke="#63b8ff" d="M558.35,-596.36C555.28,-575.98 551.04,-545.47 548.75,-518.75 545.71,-483.28 543.61,-444.8 542.17,-409.2"/>
<polygon fill="none" stroke="#63b8ff" points="542.16,-409.12 537.94,-403.28 541.7,-397.13 545.93,-402.97 542.16,-409.12"/>
</a>
</g>
<text text-anchor="middle" x="597.12" y="-505.38" font-family="Helvetica,sans-Serif" font-size="10.00" fill="grey"> &#45;conjoint_catchment</text>
<text text-anchor="middle" x="597.12" y="-494.12" font-family="Helvetica,sans-Serif" font-size="10.00" fill="grey">&#45;containing_catchment</text>
<text text-anchor="middle" x="597.12" y="-482.88" font-family="Helvetica,sans-Serif" font-size="10.00" fill="grey">&#45;id</text>
<text text-anchor="middle" x="597.12" y="-471.62" font-family="Helvetica,sans-Serif" font-size="10.00" fill="grey">&#45;lower_catchment</text>
<text text-anchor="middle" x="597.12" y="-460.38" font-family="Helvetica,sans-Serif" font-size="10.00" fill="grey">&#45;upper_catchment</text>
</g>
<!-- Node11 -->
<g id="Node000011" class="node">
<title>Node11</title>
<g id="a_Node000011"><a xlink:title=" ">
<polygon fill="white" stroke="none" points="754.5,-511.25 655.5,-511.25 655.5,-462.25 754.5,-462.25 754.5,-511.25"/>
<text text-anchor="start" x="660.38" y="-497.75" font-family="Helvetica,sans-Serif" font-size="10.00">std::vector&lt; Nexus &gt;</text>
<text text-anchor="start" x="703.5" y="-482.75" font-family="Helvetica,sans-Serif" font-size="10.00"> </text>
<text text-anchor="start" x="703.5" y="-467.75" font-family="Helvetica,sans-Serif" font-size="10.00"> </text>
<polygon fill="#666666" stroke="#666666" points="655.5,-494.25 655.5,-494.25 754.5,-494.25 754.5,-494.25 655.5,-494.25"/>
<polygon fill="#666666" stroke="#666666" points="655.5,-479.25 655.5,-479.25 754.5,-479.25 754.5,-479.25 655.5,-479.25"/>
<polygon fill="none" stroke="#666666" points="655.5,-462.25 655.5,-511.25 754.5,-511.25 754.5,-462.25 655.5,-462.25"/>
</a>
</g>
</g>
<!-- Node9&#45;&gt;Node11 -->
<g id="edge12_Node000011_Node000009" class="edge">
<title>Node9&#45;&gt;Node11</title>
<g id="a_edge12_Node000011_Node000009"><a xlink:title=" ">
<path fill="none" stroke="#63b8ff" d="M587.24,-596.25C610.27,-575.03 644.54,-543.46 670.17,-519.84"/>
<polygon fill="none" stroke="#63b8ff" points="670.05,-519.95 671.75,-512.95 678.87,-511.82 677.17,-518.83 670.05,-519.95"/>
</a>
</g>
<text text-anchor="middle" x="674" y="-538.5" font-family="Helvetica,sans-Serif" font-size="10.00" fill="grey"> +elements</text>
</g>
<!-- Node13 -->
<g id="Node000013" class="node">
<title>Node13</title>
<g id="a_Node000013"><a xlink:title=" ">
<polygon fill="white" stroke="none" points="929,-511.25 811,-511.25 811,-462.25 929,-462.25 929,-511.25"/>
<text text-anchor="start" x="815.62" y="-497.75" font-family="Helvetica,sans-Serif" font-size="10.00">std::vector&lt; Catchment &gt;</text>
<text text-anchor="start" x="868.5" y="-482.75" font-family="Helvetica,sans-Serif" font-size="10.00"> </text>
<text text-anchor="start" x="868.5" y="-467.75" font-family="Helvetica,sans-Serif" font-size="10.00"> </text>
<polygon fill="#666666" stroke="#666666" points="811,-494.25 811,-494.25 929,-494.25 929,-494.25 811,-494.25"/>
<polygon fill="#666666" stroke="#666666" points="811,-479.25 811,-479.25 929,-479.25 929,-479.25 811,-479.25"/>
<polygon fill="none" stroke="#666666" points="811,-462.25 811,-511.25 929,-511.25 929,-462.25 811,-462.25"/>
</a>
</g>
</g>
<!-- Node9&#45;&gt;Node13 -->
<g id="edge16_Node000013_Node000009" class="edge">
<title>Node9&#45;&gt;Node13</title>
<g id="a_edge16_Node000013_Node000009"><a xlink:title=" ">
<path fill="none" stroke="#63b8ff" d="M587.82,-611.25C624.6,-599.14 693.85,-575.06 750,-548 758.84,-543.74 760.36,-541.4 769,-536.75 781.42,-530.07 794.89,-523.26 807.82,-516.91"/>
<polygon fill="none" stroke="#63b8ff" points="807.89,-516.88 811.54,-510.66 818.69,-511.63 815.04,-517.85 807.89,-516.88"/>
</a>
</g>
<text text-anchor="middle" x="793" y="-538.5" font-family="Helvetica,sans-Serif" font-size="10.00" fill="grey"> +elements</text>
</g>
<!-- Node15 -->
<g id="Node000015" class="node">
<title>Node15</title>
<g id="a_Node000015"><a xlink:href="classutils_1_1_stream_handler.html" target="_top" xlink:title="This class provides a copyable interface to a std::ostream or std::ostream like object that may not s...">
<polygon fill="white" stroke="none" points="240.5,-368.25 143.5,-368.25 143.5,-184.25 240.5,-184.25 240.5,-368.25"/>
<text text-anchor="start" x="148.12" y="-354.75" font-family="Helvetica,sans-Serif" font-size="10.00">utils::StreamHandler</text>
<text text-anchor="start" x="190.5" y="-339.75" font-family="Helvetica,sans-Serif" font-size="10.00"> </text>
<text text-anchor="start" x="148" y="-324.75" font-family="Helvetica,sans-Serif" font-size="10.00">+</text>
<text text-anchor="start" x="158.5" y="-324.75" font-family="Helvetica,sans-Serif" font-size="10.00">StreamHandler()</text>
<text text-anchor="start" x="148" y="-309.75" font-family="Helvetica,sans-Serif" font-size="10.00">+</text>
<text text-anchor="start" x="158.5" y="-309.75" font-family="Helvetica,sans-Serif" font-size="10.00">StreamHandler()</text>
<text text-anchor="start" x="148" y="-294.75" font-family="Helvetica,sans-Serif" font-size="10.00">+</text>
<text text-anchor="start" x="158.5" y="-294.75" font-family="Helvetica,sans-Serif" font-size="10.00">StreamHandler()</text>
<text text-anchor="start" x="148" y="-279.75" font-family="Helvetica,sans-Serif" font-size="10.00">+</text>
<text text-anchor="start" x="158.5" y="-279.75" font-family="Helvetica,sans-Serif" font-size="10.00">StreamHandler()</text>
<text text-anchor="start" x="148" y="-264.75" font-family="Helvetica,sans-Serif" font-size="10.00">+</text>
<text text-anchor="start" x="158.5" y="-264.75" font-family="Helvetica,sans-Serif" font-size="10.00">~StreamHandler()</text>
<text text-anchor="start" x="148" y="-249.75" font-family="Helvetica,sans-Serif" font-size="10.00">+</text>
<text text-anchor="start" x="158.5" y="-249.75" font-family="Helvetica,sans-Serif" font-size="10.00">operator=()</text>
<text text-anchor="start" x="148" y="-234.75" font-family="Helvetica,sans-Serif" font-size="10.00">+</text>
<text text-anchor="start" x="158.5" y="-234.75" font-family="Helvetica,sans-Serif" font-size="10.00">put()</text>
<text text-anchor="start" x="148" y="-219.75" font-family="Helvetica,sans-Serif" font-size="10.00">+</text>
<text text-anchor="start" x="158.5" y="-219.75" font-family="Helvetica,sans-Serif" font-size="10.00">put_indexed()</text>
<text text-anchor="start" x="148" y="-204.75" font-family="Helvetica,sans-Serif" font-size="10.00">+</text>
<text text-anchor="start" x="158.5" y="-204.75" font-family="Helvetica,sans-Serif" font-size="10.00">put_var()</text>
<text text-anchor="start" x="148" y="-189.75" font-family="Helvetica,sans-Serif" font-size="10.00">+</text>
<text text-anchor="start" x="158.5" y="-189.75" font-family="Helvetica,sans-Serif" font-size="10.00">operator&lt;&lt;()</text>
<polygon fill="#666666" stroke="#666666" points="143.5,-351.25 143.5,-351.25 240.5,-351.25 240.5,-351.25 143.5,-351.25"/>
<polygon fill="#666666" stroke="#666666" points="143.5,-336.25 143.5,-336.25 240.5,-336.25 240.5,-336.25 143.5,-336.25"/>
<polygon fill="none" stroke="#666666" points="143.5,-184.25 143.5,-368.25 240.5,-368.25 240.5,-184.25 143.5,-184.25"/>
</a>
</g>
</g>
<!-- Node9&#45;&gt;Node15 -->
<g id="edge27_Node000015_Node000009" class="edge">
<title>Node9&#45;&gt;Node15</title>
<g id="a_edge27_Node000015_Node000009"><a xlink:title=" ">
<path fill="none" stroke="#63b8ff" d="M539.19,-596.14C519.27,-577.15 488.66,-551.23 457,-536.75 418.62,-519.19 398.1,-543.28 363.75,-518.75 337.06,-499.69 353.32,-474.33 327,-454.75 298.8,-433.77 276.29,-460.08 250,-436.75 233.06,-421.72 221.07,-401.34 212.58,-380.18"/>
<polygon fill="none" stroke="#63b8ff" points="212.56,-380.12 206.73,-375.88 208.4,-368.87 214.23,-373.11 212.56,-380.12"/>
</a>
</g>
<text text-anchor="middle" x="374.62" y="-482.88" font-family="Helvetica,sans-Serif" font-size="10.00" fill="grey"> #sep</text>
</g>
<!-- Node10 -->
<g id="Node000010" class="node">
<title>Node10</title>
<g id="a_Node000010"><a xlink:title=" ">
<polygon fill="white" stroke="none" points="605,-782.25 519,-782.25 519,-722.25 605,-722.25 605,-782.25"/>
<text text-anchor="start" x="523.75" y="-768.75" font-family="Helvetica,sans-Serif" font-size="10.00">std::basic_string&lt;</text>
<text text-anchor="start" x="546.62" y="-757.5" font-family="Helvetica,sans-Serif" font-size="10.00"> Char &gt;</text>
<text text-anchor="start" x="560.5" y="-742.75" font-family="Helvetica,sans-Serif" font-size="10.00"> </text>
<text text-anchor="start" x="560.5" y="-727.75" font-family="Helvetica,sans-Serif" font-size="10.00"> </text>
<polygon fill="#666666" stroke="#666666" points="519,-754.25 519,-754.25 605,-754.25 605,-754.25 519,-754.25"/>
<polygon fill="#666666" stroke="#666666" points="519,-739.25 519,-739.25 605,-739.25 605,-739.25 519,-739.25"/>
<polygon fill="none" stroke="#666666" points="519,-722.25 519,-782.25 605,-782.25 605,-722.25 519,-722.25"/>
</a>
</g>
</g>
<!-- Node10&#45;&gt;Node9 -->
<g id="edge10_Node000009_Node000010" class="edge">
<title>Node10&#45;&gt;Node9</title>
<g id="a_edge10_Node000009_Node000010"><a xlink:title=" ">
<path fill="none" stroke="#63b8ff" d="M562,-711.17C562,-689.31 562,-663.04 562,-644.6"/>
<polygon fill="none" stroke="#63b8ff" points="558.5,-710.94 562,-720.94 565.5,-710.94 558.5,-710.94"/>
</a>
</g>
</g>
<!-- Node11&#45;&gt;Node4 -->
<g id="edge11_Node000004_Node000011" class="edge">
<title>Node11&#45;&gt;Node4</title>
<g id="a_edge11_Node000004_Node000011"><a xlink:title=" ">
<path fill="none" stroke="#63b8ff" d="M658.09,-462.29C652.37,-459.65 646.58,-457.08 641,-454.75 618.82,-445.5 606.74,-454 590,-436.75 581.66,-428.16 574.68,-418.2 568.85,-407.54"/>
<polygon fill="none" stroke="#63b8ff" points="568.95,-407.74 562.68,-404.17 563.57,-397.01 569.84,-400.58 568.95,-407.74"/>
</a>
</g>
<text text-anchor="middle" x="609.5" y="-427.25" font-family="Helvetica,sans-Serif" font-size="10.00" fill="grey"> &#45;inflows</text>
<text text-anchor="middle" x="609.5" y="-416" font-family="Helvetica,sans-Serif" font-size="10.00" fill="grey">&#45;outflows</text>
</g>
<!-- Node12&#45;&gt;Node11 -->
<g id="edge13_Node000011_Node000012" class="edge">
<title>Node12&#45;&gt;Node11</title>
<g id="a_edge13_Node000011_Node000012"><a xlink:title=" ">
<path fill="none" stroke="orange" d="M840.76,-584.95C838.11,-568.7 832.53,-550.02 821,-536.75 803.93,-517.11 777.67,-505.15 754.44,-497.96"/>
<polygon fill="orange" stroke="orange" points="837.28,-585.27 842.03,-594.74 844.22,-584.37 837.28,-585.27"/>
</a>
</g>
<text text-anchor="middle" x="850.25" y="-538.5" font-family="Helvetica,sans-Serif" font-size="10.00" fill="grey"> &lt; Nexus &gt;</text>
</g>
<!-- Node12&#45;&gt;Node13 -->
<g id="edge17_Node000013_Node000012" class="edge">
<title>Node12&#45;&gt;Node13</title>
<g id="a_edge17_Node000013_Node000012"><a xlink:title=" ">
<path fill="none" stroke="orange" d="M870.69,-587.03C878.88,-575.46 886.78,-561.86 891,-548 894.74,-535.71 890.78,-522.18 885.33,-511.07"/>
<polygon fill="orange" stroke="orange" points="867.91,-584.9 864.72,-595.01 873.51,-589.1 867.91,-584.9"/>
</a>
</g>
<text text-anchor="middle" x="925" y="-538.5" font-family="Helvetica,sans-Serif" font-size="10.00" fill="grey"> &lt; Catchment &gt;</text>
</g>
<!-- Node13&#45;&gt;Node4 -->
<g id="edge15_Node000004_Node000013" class="edge">
<title>Node13&#45;&gt;Node4</title>
<g id="a_edge15_Node000004_Node000013"><a xlink:title=" ">
<path fill="none" stroke="#63b8ff" d="M811.17,-467.22C795.9,-462.77 779.42,-458.29 764,-454.75 717.22,-443.99 698.43,-461.83 657.5,-436.75 648.81,-431.43 637.83,-420.07 626.06,-405.75"/>
<polygon fill="none" stroke="#63b8ff" points="626.29,-406.03 619.42,-403.83 618.8,-396.65 625.67,-398.84 626.29,-406.03"/>
</a>
</g>
<text text-anchor="middle" x="708.75" y="-421.62" font-family="Helvetica,sans-Serif" font-size="10.00" fill="grey"> &#45;contained_catchments</text>
</g>
<!-- Node14 -->
<g id="Node000014" class="node">
<title>Node14</title>
<g id="a_Node000014"><a xlink:href="class_g_m___object.html" target="_top" xlink:title=" ">
<polygon fill="white" stroke="none" points="125,-308.25 47,-308.25 47,-244.25 125,-244.25 125,-308.25"/>
<text text-anchor="start" x="61.25" y="-294.75" font-family="Helvetica,sans-Serif" font-size="10.00">GM_Object</text>
<text text-anchor="start" x="84.5" y="-279.75" font-family="Helvetica,sans-Serif" font-size="10.00"> </text>
<text text-anchor="start" x="51" y="-264.75" font-family="Helvetica,sans-Serif" font-size="10.00">+</text>
<text text-anchor="start" x="61" y="-264.75" font-family="Helvetica,sans-Serif" font-size="10.00">GM_Object()</text>
<text text-anchor="start" x="51" y="-249.75" font-family="Helvetica,sans-Serif" font-size="10.00">+</text>
<text text-anchor="start" x="61" y="-249.75" font-family="Helvetica,sans-Serif" font-size="10.00">~GM_Object()</text>
<polygon fill="#666666" stroke="#666666" points="47,-291.25 47,-291.25 125,-291.25 125,-291.25 47,-291.25"/>
<polygon fill="#666666" stroke="#666666" points="47,-276.25 47,-276.25 125,-276.25 125,-276.25 47,-276.25"/>
<polygon fill="none" stroke="#666666" points="47,-244.25 47,-308.25 125,-308.25 125,-244.25 47,-244.25"/>
</a>
</g>
</g>
<!-- Node14&#45;&gt;Node1 -->
<g id="edge19_Node000001_Node000014" class="edge">
<title>Node14&#45;&gt;Node1</title>
<g id="a_edge19_Node000001_Node000014"><a xlink:title=" ">
<path fill="none" stroke="#63b8ff" d="M86,-233.31C86,-197.87 86,-146.9 86,-108.61"/>
<polygon fill="none" stroke="#63b8ff" points="82.5,-233.18 86,-243.18 89.5,-233.18 82.5,-233.18"/>
</a>
</g>
</g>
<!-- Node15&#45;&gt;Node1 -->
<g id="edge20_Node000001_Node000015" class="edge">
<title>Node15&#45;&gt;Node1</title>
<g id="a_edge20_Node000001_Node000015"><a xlink:title=" ">
<path fill="none" stroke="#63b8ff" d="M148.12,-184.28C137.79,-162.86 126.98,-140.46 117.33,-120.45"/>
<polygon fill="none" stroke="#63b8ff" points="117.4,-120.59 111.19,-116.93 112.19,-109.79 118.4,-113.45 117.4,-120.59"/>
</a>
</g>
<text text-anchor="middle" x="140.25" y="-128.75" font-family="Helvetica,sans-Serif" font-size="10.00" fill="grey"> #output</text>
</g>
<!-- Node16&#45;&gt;Node15 -->
<g id="edge21_Node000015_Node000016" class="edge">
<title>Node16&#45;&gt;Node15</title>
<g id="a_edge21_Node000015_Node000016"><a xlink:title=" ">
<path fill="none" stroke="#63b8ff" d="M109.35,-456.76C118.72,-436.4 131.87,-407.85 144.93,-379.49"/>
<polygon fill="none" stroke="#63b8ff" points="144.91,-379.52 143.79,-372.4 149.93,-368.62 151.05,-375.74 144.91,-379.52"/>
</a>
</g>
<text text-anchor="middle" x="161.88" y="-421.62" font-family="Helvetica,sans-Serif" font-size="10.00" fill="grey"> #output_stream</text>
</g>
<!-- Node17 -->
<g id="Node000017" class="node">
<title>Node17</title>
<g id="a_Node000017"><a xlink:title=" ">
<polygon fill="white" stroke="none" points="84.5,-645 21.5,-645 21.5,-596 84.5,-596 84.5,-645"/>
<text text-anchor="start" x="26.38" y="-631.5" font-family="Helvetica,sans-Serif" font-size="10.00">std::ostream</text>
<text text-anchor="start" x="51.5" y="-616.5" font-family="Helvetica,sans-Serif" font-size="10.00"> </text>
<text text-anchor="start" x="51.5" y="-601.5" font-family="Helvetica,sans-Serif" font-size="10.00"> </text>
<polygon fill="#666666" stroke="#666666" points="21.5,-628 21.5,-628 84.5,-628 84.5,-628 21.5,-628"/>
<polygon fill="#666666" stroke="#666666" points="21.5,-613 21.5,-613 84.5,-613 84.5,-613 21.5,-613"/>
<polygon fill="none" stroke="#666666" points="21.5,-596 21.5,-645 84.5,-645 84.5,-596 21.5,-596"/>
</a>
</g>
</g>
<!-- Node17&#45;&gt;Node16 -->
<g id="edge22_Node000016_Node000017" class="edge">
<title>Node17&#45;&gt;Node16</title>
<g id="a_edge22_Node000016_Node000017"><a xlink:title=" ">
<path fill="none" stroke="#63b8ff" d="M60.59,-596.25C66.7,-577.51 75.45,-550.71 82.72,-528.44"/>
<polygon fill="none" stroke="#63b8ff" points="82.69,-528.54 80.75,-521.6 86.41,-517.13 88.35,-524.08 82.69,-528.54"/>
</a>
</g>
<text text-anchor="middle" x="88.75" y="-538.5" font-family="Helvetica,sans-Serif" font-size="10.00" fill="grey"> +ptr</text>
</g>
<!-- Node18 -->
<g id="Node000018" class="node">
<title>Node18</title>
<g id="a_Node000018"><a xlink:title=" ">
<polygon fill="white" stroke="none" points="98.5,-782.25 7.5,-782.25 7.5,-722.25 98.5,-722.25 98.5,-782.25"/>
<text text-anchor="start" x="12.12" y="-768.75" font-family="Helvetica,sans-Serif" font-size="10.00">std::basic_ostream</text>
<text text-anchor="start" x="34.62" y="-757.5" font-family="Helvetica,sans-Serif" font-size="10.00">&lt; Char &gt;</text>
<text text-anchor="start" x="51.5" y="-742.75" font-family="Helvetica,sans-Serif" font-size="10.00"> </text>
<text text-anchor="start" x="51.5" y="-727.75" font-family="Helvetica,sans-Serif" font-size="10.00"> </text>
<polygon fill="#666666" stroke="#666666" points="7.5,-754.25 7.5,-754.25 98.5,-754.25 98.5,-754.25 7.5,-754.25"/>
<polygon fill="#666666" stroke="#666666" points="7.5,-739.25 7.5,-739.25 98.5,-739.25 98.5,-739.25 7.5,-739.25"/>
<polygon fill="none" stroke="#666666" points="7.5,-722.25 7.5,-782.25 98.5,-782.25 98.5,-722.25 7.5,-722.25"/>
</a>
</g>
</g>
<!-- Node18&#45;&gt;Node17 -->
<g id="edge23_Node000017_Node000018" class="edge">
<title>Node18&#45;&gt;Node17</title>
<g id="a_edge23_Node000017_Node000018"><a xlink:title=" ">
<path fill="none" stroke="#63b8ff" d="M53,-711.17C53,-689.31 53,-663.04 53,-644.6"/>
<polygon fill="none" stroke="#63b8ff" points="49.5,-710.94 53,-720.94 56.5,-710.94 49.5,-710.94"/>
</a>
</g>
</g>
<!-- Node19 -->
<g id="Node000019" class="node">
<title>Node19</title>
<g id="a_Node000019"><a xlink:title=" ">
<polygon fill="white" stroke="none" points="106,-868.25 0,-868.25 0,-819.25 106,-819.25 106,-868.25"/>
<text text-anchor="start" x="5" y="-854.75" font-family="Helvetica,sans-Serif" font-size="10.00">std::basic_ios&lt; Char &gt;</text>
<text text-anchor="start" x="51.5" y="-839.75" font-family="Helvetica,sans-Serif" font-size="10.00"> </text>
<text text-anchor="start" x="51.5" y="-824.75" font-family="Helvetica,sans-Serif" font-size="10.00"> </text>
<polygon fill="#666666" stroke="#666666" points="0,-851.25 0,-851.25 106,-851.25 106,-851.25 0,-851.25"/>
<polygon fill="#666666" stroke="#666666" points="0,-836.25 0,-836.25 106,-836.25 106,-836.25 0,-836.25"/>
<polygon fill="none" stroke="#666666" points="0,-819.25 0,-868.25 106,-868.25 106,-819.25 0,-819.25"/>
</a>
</g>
</g>
<!-- Node19&#45;&gt;Node18 -->
<g id="edge24_Node000018_Node000019" class="edge">
<title>Node19&#45;&gt;Node18</title>
<g id="a_edge24_Node000018_Node000019"><a xlink:title=" ">
<path fill="none" stroke="#63b8ff" d="M53,-808.32C53,-799.62 53,-790.37 53,-781.99"/>
<polygon fill="none" stroke="#63b8ff" points="49.5,-808.19 53,-818.19 56.5,-808.19 49.5,-808.19"/>
</a>
</g>
</g>
<!-- Node20 -->
<g id="Node000020" class="node">
<title>Node20</title>
<g id="a_Node000020"><a xlink:title=" ">
<polygon fill="white" stroke="none" points="86.5,-954.25 19.5,-954.25 19.5,-905.25 86.5,-905.25 86.5,-954.25"/>
<text text-anchor="start" x="24.5" y="-940.75" font-family="Helvetica,sans-Serif" font-size="10.00">std::ios_base</text>
<text text-anchor="start" x="51.5" y="-925.75" font-family="Helvetica,sans-Serif" font-size="10.00"> </text>
<text text-anchor="start" x="51.5" y="-910.75" font-family="Helvetica,sans-Serif" font-size="10.00"> </text>
<polygon fill="#666666" stroke="#666666" points="19.5,-937.25 19.5,-937.25 86.5,-937.25 86.5,-937.25 19.5,-937.25"/>
<polygon fill="#666666" stroke="#666666" points="19.5,-922.25 19.5,-922.25 86.5,-922.25 86.5,-922.25 19.5,-922.25"/>
<polygon fill="none" stroke="#666666" points="19.5,-905.25 19.5,-954.25 86.5,-954.25 86.5,-905.25 19.5,-905.25"/>
</a>
</g>
</g>
<!-- Node20&#45;&gt;Node19 -->
<g id="edge25_Node000019_Node000020" class="edge">
<title>Node20&#45;&gt;Node19</title>
<g id="a_edge25_Node000019_Node000020"><a xlink:title=" ">
<path fill="none" stroke="#63b8ff" d="M53,-893.87C53,-885.16 53,-876.02 53,-868.02"/>
<polygon fill="none" stroke="#63b8ff" points="49.5,-893.84 53,-903.84 56.5,-893.84 49.5,-893.84"/>
</a>
</g>
</g>
</g>
</svg>
