<?xml version="1.0" encoding="UTF-8" standalone="no"?>
<!DOCTYPE svg PUBLIC "-//W3C//DTD SVG 1.1//EN"
 "http://www.w3.org/Graphics/SVG/1.1/DTD/svg11.dtd">
<!-- Generated by graphviz version 3.0.0 (20220413.0242)
 -->
<!-- Title: network::Network Pages: 1 -->
<svg width="354pt" height="634pt"
 viewBox="0.00 0.00 353.50 634.00" xmlns="http://www.w3.org/2000/svg" xmlns:xlink="http://www.w3.org/1999/xlink">
<g id="graph0" class="graph" transform="scale(1 1) rotate(0) translate(4 630)">
<title>network::Network</title>
<polygon fill="white" stroke="transparent" points="-4,4 -4,-630 349.5,-630 349.5,4 -4,4"/>
<!-- Node1 -->
<g id="node1" class="node">
<title>Node1</title>
<g id="a_node1"><a xlink:title="A lightweight, graph based index of hydrologic features.">
<polygon fill="#bfbfbf" stroke="black" points="57.5,-0.5 57.5,-222.5 172.5,-222.5 172.5,-0.5 57.5,-0.5"/>
<text text-anchor="middle" x="115" y="-210.5" font-family="Helvetica,sans-Serif" font-size="10.00">network::Network</text>
<polyline fill="none" stroke="black" points="57.5,-203.5 172.5,-203.5 "/>
<text text-anchor="start" x="65.5" y="-191.5" font-family="Helvetica,sans-Serif" font-size="10.00">&#45; graph</text>
<polyline fill="none" stroke="black" points="57.5,-184.5 172.5,-184.5 "/>
<text text-anchor="start" x="65.5" y="-172.5" font-family="Helvetica,sans-Serif" font-size="10.00">+ Network()</text>
<text text-anchor="start" x="65.5" y="-161.5" font-family="Helvetica,sans-Serif" font-size="10.00">+ Network()</text>
<text text-anchor="start" x="65.5" y="-150.5" font-family="Helvetica,sans-Serif" font-size="10.00">+ Network()</text>
<text text-anchor="start" x="65.5" y="-139.5" font-family="Helvetica,sans-Serif" font-size="10.00">+ ~Network()</text>
<text text-anchor="start" x="65.5" y="-128.5" font-family="Helvetica,sans-Serif" font-size="10.00">+ begin()</text>
<text text-anchor="start" x="65.5" y="-117.5" font-family="Helvetica,sans-Serif" font-size="10.00">+ end()</text>
<text text-anchor="start" x="65.5" y="-106.5" font-family="Helvetica,sans-Serif" font-size="10.00">+ filter()</text>
<text text-anchor="start" x="65.5" y="-95.5" font-family="Helvetica,sans-Serif" font-size="10.00">+ get_id()</text>
<text text-anchor="start" x="65.5" y="-84.5" font-family="Helvetica,sans-Serif" font-size="10.00">+ get_origination_ids()</text>
<text text-anchor="start" x="65.5" y="-73.5" font-family="Helvetica,sans-Serif" font-size="10.00">+ get_destination_ids()</text>
<text text-anchor="start" x="65.5" y="-62.5" font-family="Helvetica,sans-Serif" font-size="10.00">+ size()</text>
<text text-anchor="start" x="65.5" y="-51.5" font-family="Helvetica,sans-Serif" font-size="10.00">+ headwaters()</text>
<text text-anchor="start" x="65.5" y="-40.5" font-family="Helvetica,sans-Serif" font-size="10.00">+ tailwaters()</text>
<text text-anchor="start" x="65.5" y="-29.5" font-family="Helvetica,sans-Serif" font-size="10.00">+ print_network()</text>
<text text-anchor="start" x="65.5" y="-18.5" font-family="Helvetica,sans-Serif" font-size="10.00">&#45; init_indicies()</text>
<text text-anchor="start" x="65.5" y="-7.5" font-family="Helvetica,sans-Serif" font-size="10.00">&#45; get_sorted_index()</text>
</a>
</g>
</g>
<!-- Node2 -->
<g id="node2" class="node">
<title>Node2</title>
<g id="a_node2"><a xlink:title=" ">
<polygon fill="white" stroke="black" points="2,-309 2,-377 106,-377 106,-309 2,-309"/>
<text text-anchor="start" x="10" y="-365" font-family="Helvetica,sans-Serif" font-size="10.00">std::vector&lt; Graph</text>
<text text-anchor="middle" x="54" y="-354" font-family="Helvetica,sans-Serif" font-size="10.00">::vertex_descriptor &gt;</text>
<polyline fill="none" stroke="black" points="2,-347 106,-347 "/>
<text text-anchor="start" x="10" y="-335" font-family="Helvetica,sans-Serif" font-size="10.00">+ elements</text>
<polyline fill="none" stroke="black" points="2,-328 106,-328 "/>
<text text-anchor="middle" x="54" y="-316" font-family="Helvetica,sans-Serif" font-size="10.00"> </text>
</a>
</g>
</g>
<!-- Node2&#45;&gt;Node1 -->
<g id="edge1" class="edge">
<title>Node2&#45;&gt;Node1</title>
<path fill="none" stroke="#404040" d="M62.43,-308.76C67.46,-289.05 74.02,-263.58 80,-241 80.6,-238.74 81.21,-236.45 81.82,-234.15"/>
<polygon fill="none" stroke="#404040" points="81.83,-234.12 79.51,-227.29 84.92,-222.53 87.24,-229.36 81.83,-234.12"/>
<text text-anchor="middle" x="116.5" y="-277" font-family="Helvetica,sans-Serif" font-size="10.00"> &#45;headwaters_idx</text>
<text text-anchor="middle" x="116.5" y="-266" font-family="Helvetica,sans-Serif" font-size="10.00">&#45;tailwaters_idx</text>
<text text-anchor="middle" x="116.5" y="-255" font-family="Helvetica,sans-Serif" font-size="10.00">&#45;tdfp_order</text>
<text text-anchor="middle" x="116.5" y="-244" font-family="Helvetica,sans-Serif" font-size="10.00">&#45;topo_order</text>
</g>
<!-- Node3 -->
<g id="node3" class="node">
<title>Node3</title>
<g id="a_node3"><a xlink:title=" ">
<polygon fill="white" stroke="black" points="0,-447 0,-504 84,-504 84,-447 0,-447"/>
<text text-anchor="middle" x="42" y="-492" font-family="Helvetica,sans-Serif" font-size="10.00">std::vector&lt; T &gt;</text>
<polyline fill="none" stroke="black" points="0,-485 84,-485 "/>
<text text-anchor="middle" x="42" y="-473" font-family="Helvetica,sans-Serif" font-size="10.00"> </text>
<polyline fill="none" stroke="black" points="0,-466 84,-466 "/>
<text text-anchor="middle" x="42" y="-454" font-family="Helvetica,sans-Serif" font-size="10.00"> </text>
</a>
</g>
</g>
<!-- Node3&#45;&gt;Node2 -->
<g id="edge2" class="edge">
<title>Node3&#45;&gt;Node2</title>
<path fill="none" stroke="orange" d="M45.47,-436.8C47.2,-417.95 49.28,-395.36 50.95,-377.18"/>
<polygon fill="orange" stroke="orange" points="41.98,-436.55 44.54,-446.82 48.95,-437.19 41.98,-436.55"/>
<text text-anchor="middle" x="111" y="-409.5" font-family="Helvetica,sans-Serif" font-size="10.00"> &lt; Graph::vertex_descriptor &gt;</text>
</g>
<!-- Node4 -->
<g id="node4" class="node">
<title>Node4</title>
<g id="a_node4"><a xlink:title=" ">
<polygon fill="white" stroke="black" points="64.5,-563 64.5,-620 93.5,-620 93.5,-563 64.5,-563"/>
<text text-anchor="middle" x="79" y="-608" font-family="Helvetica,sans-Serif" font-size="10.00">T</text>
<polyline fill="none" stroke="black" points="64.5,-601 93.5,-601 "/>
<text text-anchor="middle" x="79" y="-589" font-family="Helvetica,sans-Serif" font-size="10.00"> </text>
<polyline fill="none" stroke="black" points="64.5,-582 93.5,-582 "/>
<text text-anchor="middle" x="79" y="-570" font-family="Helvetica,sans-Serif" font-size="10.00"> </text>
</a>
</g>
</g>
<!-- Node4&#45;&gt;Node3 -->
<g id="edge3" class="edge">
<title>Node4&#45;&gt;Node3</title>
<path fill="none" stroke="#404040" d="M64.35,-574.17C56.76,-564.63 48.21,-551.95 44,-539 41.67,-531.84 40.46,-523.97 39.92,-516.3"/>
<polygon fill="none" stroke="#404040" points="39.92,-516.14 35.76,-510.25 39.59,-504.14 43.76,-510.03 39.92,-516.14"/>
<text text-anchor="middle" x="68.5" y="-531" font-family="Helvetica,sans-Serif" font-size="10.00"> +elements</text>
</g>
<!-- Node8 -->
<g id="node8" class="node">
<title>Node8</title>
<g id="a_node8"><a xlink:title=" ">
<polygon fill="white" stroke="black" points="136.5,-441.5 136.5,-509.5 237.5,-509.5 237.5,-441.5 136.5,-441.5"/>
<text text-anchor="start" x="144.5" y="-497.5" font-family="Helvetica,sans-Serif" font-size="10.00">std::unordered_map</text>
<text text-anchor="middle" x="187" y="-486.5" font-family="Helvetica,sans-Serif" font-size="10.00">&lt; K, T &gt;</text>
<polyline fill="none" stroke="black" points="136.5,-479.5 237.5,-479.5 "/>
<text text-anchor="middle" x="187" y="-467.5" font-family="Helvetica,sans-Serif" font-size="10.00"> </text>
<polyline fill="none" stroke="black" points="136.5,-460.5 237.5,-460.5 "/>
<text text-anchor="middle" x="187" y="-448.5" font-family="Helvetica,sans-Serif" font-size="10.00"> </text>
</a>
</g>
</g>
<!-- Node4&#45;&gt;Node8 -->
<g id="edge9" class="edge">
<title>Node4&#45;&gt;Node8</title>
<path fill="none" stroke="#404040" d="M93.59,-573.2C104.48,-560.47 119.85,-542.87 134,-528 137.05,-524.79 140.25,-521.51 143.49,-518.24"/>
<polygon fill="none" stroke="#404040" points="143.62,-518.11 145.04,-511.04 152.12,-509.64 150.69,-516.71 143.62,-518.11"/>
<text text-anchor="middle" x="158.5" y="-531" font-family="Helvetica,sans-Serif" font-size="10.00"> +elements</text>
</g>
<!-- Node5 -->
<g id="node5" class="node">
<title>Node5</title>
<g id="a_node5"><a xlink:title=" ">
<polygon fill="white" stroke="black" points="136,-303.5 136,-382.5 240,-382.5 240,-303.5 136,-303.5"/>
<text text-anchor="start" x="144" y="-370.5" font-family="Helvetica,sans-Serif" font-size="10.00">std::unordered_map</text>
<text text-anchor="start" x="144" y="-359.5" font-family="Helvetica,sans-Serif" font-size="10.00">&lt; std::string, Graph</text>
<text text-anchor="middle" x="188" y="-348.5" font-family="Helvetica,sans-Serif" font-size="10.00">::vertex_descriptor &gt;</text>
<polyline fill="none" stroke="black" points="136,-341.5 240,-341.5 "/>
<text text-anchor="start" x="144" y="-329.5" font-family="Helvetica,sans-Serif" font-size="10.00">+ elements</text>
<polyline fill="none" stroke="black" points="136,-322.5 240,-322.5 "/>
<text text-anchor="middle" x="188" y="-310.5" font-family="Helvetica,sans-Serif" font-size="10.00"> </text>
</a>
</g>
</g>
<!-- Node5&#45;&gt;Node1 -->
<g id="edge4" class="edge">
<title>Node5&#45;&gt;Node1</title>
<path fill="none" stroke="#404040" d="M175.7,-303.33C169.53,-283.94 161.69,-259.28 153.7,-234.18"/>
<polygon fill="none" stroke="#404040" points="153.67,-234.07 148.04,-229.56 150.03,-222.63 155.66,-227.14 153.67,-234.07"/>
<text text-anchor="middle" x="205.5" y="-260.5" font-family="Helvetica,sans-Serif" font-size="10.00"> &#45;descriptor_map</text>
</g>
<!-- Node6 -->
<g id="node6" class="node">
<title>Node6</title>
<g id="a_node6"><a xlink:title=" ">
<polygon fill="white" stroke="black" points="269.5,-447 269.5,-504 328.5,-504 328.5,-447 269.5,-447"/>
<text text-anchor="middle" x="299" y="-492" font-family="Helvetica,sans-Serif" font-size="10.00">std::string</text>
<polyline fill="none" stroke="black" points="269.5,-485 328.5,-485 "/>
<text text-anchor="middle" x="299" y="-473" font-family="Helvetica,sans-Serif" font-size="10.00"> </text>
<polyline fill="none" stroke="black" points="269.5,-466 328.5,-466 "/>
<text text-anchor="middle" x="299" y="-454" font-family="Helvetica,sans-Serif" font-size="10.00"> </text>
</a>
</g>
</g>
<!-- Node6&#45;&gt;Node5 -->
<g id="edge5" class="edge">
<title>Node6&#45;&gt;Node5</title>
<path fill="none" stroke="#404040" d="M295.49,-446.9C292.5,-432.13 287.02,-414.29 277,-401 269.71,-391.33 260.26,-382.86 250.26,-375.61"/>
<polygon fill="none" stroke="#404040" points="250.07,-375.48 242.86,-375.44 240.12,-368.77 247.33,-368.81 250.07,-375.48"/>
<text text-anchor="middle" x="302.5" y="-409.5" font-family="Helvetica,sans-Serif" font-size="10.00"> +keys</text>
</g>
<!-- Node7 -->
<g id="node7" class="node">
<title>Node7</title>
<g id="a_node7"><a xlink:title=" ">
<polygon fill="white" stroke="black" points="252.5,-557.5 252.5,-625.5 345.5,-625.5 345.5,-557.5 252.5,-557.5"/>
<text text-anchor="start" x="260.5" y="-613.5" font-family="Helvetica,sans-Serif" font-size="10.00">std::basic_string&lt;</text>
<text text-anchor="middle" x="299" y="-602.5" font-family="Helvetica,sans-Serif" font-size="10.00"> Char &gt;</text>
<polyline fill="none" stroke="black" points="252.5,-595.5 345.5,-595.5 "/>
<text text-anchor="middle" x="299" y="-583.5" font-family="Helvetica,sans-Serif" font-size="10.00"> </text>
<polyline fill="none" stroke="black" points="252.5,-576.5 345.5,-576.5 "/>
<text text-anchor="middle" x="299" y="-564.5" font-family="Helvetica,sans-Serif" font-size="10.00"> </text>
</a>
</g>
</g>
<!-- Node7&#45;&gt;Node6 -->
<g id="edge6" class="edge">
<title>Node7&#45;&gt;Node6</title>
<path fill="none" stroke="midnightblue" d="M299,-547.03C299,-532.67 299,-517.1 299,-504.24"/>
<polygon fill="none" stroke="midnightblue" points="295.5,-547.22 299,-557.22 302.5,-547.22 295.5,-547.22"/>
</g>
<!-- Node8&#45;&gt;Node5 -->
<g id="edge7" class="edge">
<title>Node8&#45;&gt;Node5</title>
<path fill="none" stroke="orange" d="M187.33,-430.81C187.45,-415.26 187.59,-397.87 187.7,-382.77"/>
<polygon fill="orange" stroke="orange" points="183.83,-431.21 187.25,-441.23 190.83,-431.26 183.83,-431.21"/>
<text text-anchor="start" x="188" y="-415" font-family="Helvetica,sans-Serif" font-size="10.00"> &lt; std::string, Graph</text>
<text text-anchor="middle" x="232" y="-404" font-family="Helvetica,sans-Serif" font-size="10.00">::vertex_descriptor &gt;</text>
</g>
<!-- Node9 -->
<g id="node9" class="node">
<title>Node9</title>
<g id="a_node9"><a xlink:title=" ">
<polygon fill="white" stroke="black" points="172.5,-563 172.5,-620 201.5,-620 201.5,-563 172.5,-563"/>
<text text-anchor="middle" x="187" y="-608" font-family="Helvetica,sans-Serif" font-size="10.00">K</text>
<polyline fill="none" stroke="black" points="172.5,-601 201.5,-601 "/>
<text text-anchor="middle" x="187" y="-589" font-family="Helvetica,sans-Serif" font-size="10.00"> </text>
<polyline fill="none" stroke="black" points="172.5,-582 201.5,-582 "/>
<text text-anchor="middle" x="187" y="-570" font-family="Helvetica,sans-Serif" font-size="10.00"> </text>
</a>
</g>
</g>
<!-- Node9&#45;&gt;Node8 -->
<g id="edge8" class="edge">
<title>Node9&#45;&gt;Node8</title>
<path fill="none" stroke="#404040" d="M187,-562.9C187,-550.59 187,-535.76 187,-521.89"/>
<polygon fill="none" stroke="#404040" points="187,-521.52 183,-515.52 187,-509.52 191,-515.52 187,-521.52"/>
<text text-anchor="middle" x="201.5" y="-531" font-family="Helvetica,sans-Serif" font-size="10.00"> +keys</text>
</g>
</g>
</svg>
