<?xml version="1.0" encoding="UTF-8" standalone="no"?>
<!DOCTYPE svg PUBLIC "-//W3C//DTD SVG 1.1//EN"
 "http://www.w3.org/Graphics/SVG/1.1/DTD/svg11.dtd">
<!-- Generated by graphviz version 2.49.3 (20211027.1534)
 -->
<!-- Title: HY_PointHydroNexus Pages: 1 -->
<!--zoomable 806 -->
<svg id="main" version="1.1" xmlns="http://www.w3.org/2000/svg" xmlns:xlink="http://www.w3.org/1999/xlink" xml:space="preserve" onload="init(evt)">
<style type="text/css"><![CDATA[
.edge:hover path { stroke: red; }
.edge:hover polygon { stroke: red; fill: red; }
]]></style>
<script type="text/javascript"><![CDATA[
var edges = document.getElementsByTagName('g');
if (edges && edges.length) {
  for (var i=0;i<edges.length;i++) {
    if (edges[i].id.substr(0,4)=='edge') {
      edges[i].setAttribute('class','edge');
    }
  }
}
]]></script>
        <defs>
                <circle id="rim" cx="0" cy="0" r="7"/>
                <circle id="rim2" cx="0" cy="0" r="3.5"/>
                <g id="zoomPlus">
                        <use xlink:href="#rim" fill="#404040">
                                <set attributeName="fill" to="#808080" begin="zoomplus.mouseover" end="zoomplus.mouseout"/>
                        </use>
                        <path d="M-4,0h8M0,-4v8" fill="none" stroke="white" stroke-width="1.5" pointer-events="none"/>
                </g>
                <g id="zoomMin">
                        <use xlink:href="#rim" fill="#404040">
                                <set attributeName="fill" to="#808080" begin="zoomminus.mouseover" end="zoomminus.mouseout"/>
                        </use>
                        <path d="M-4,0h8" fill="none" stroke="white" stroke-width="1.5" pointer-events="none"/>
                </g>
                <g id="dirArrow">
                        <path fill="none" stroke="white" stroke-width="1.5" d="M0,-3.0v7 M-2.5,-0.5L0,-3.0L2.5,-0.5"/>
                </g>
               <g id="resetDef">
                       <use xlink:href="#rim2" fill="#404040">
                               <set attributeName="fill" to="#808080" begin="reset.mouseover" end="reset.mouseout"/>
                       </use>
               </g>
        </defs>

<script type="text/javascript">
var viewWidth = 342;
var viewHeight = 806;
var sectionId = 'dynsection-1';
</script>
<script xlink:href="svgpan.js"/>
<svg id="graph" class="graph">
<g id="viewport">
<title>HY_PointHydroNexus</title>
<polygon fill="white" stroke="transparent" points="-4,4 -4,-802 337.5,-802 337.5,4 -4,4"/>
<!-- Node1 -->
<g id="node1" class="node">
<title>Node1</title>
<g id="a_node1"><a xlink:title=" ">
<polygon fill="#bfbfbf" stroke="black" points="121.5,-0.5 121.5,-211.5 257.5,-211.5 257.5,-0.5 121.5,-0.5"/>
<text text-anchor="middle" x="189.5" y="-199.5" font-family="Helvetica,sans-Serif" font-size="10.00">HY_PointHydroNexus</text>
<polyline fill="none" stroke="black" points="121.5,-192.5 257.5,-192.5 "/>
<text text-anchor="start" x="129.5" y="-180.5" font-family="Helvetica,sans-Serif" font-size="10.00"># upstream_flows</text>
<text text-anchor="start" x="129.5" y="-169.5" font-family="Helvetica,sans-Serif" font-size="10.00"># downstream_requests</text>
<text text-anchor="start" x="129.5" y="-158.5" font-family="Helvetica,sans-Serif" font-size="10.00"># summed_flows</text>
<text text-anchor="start" x="129.5" y="-147.5" font-family="Helvetica,sans-Serif" font-size="10.00"># total_requests</text>
<text text-anchor="start" x="129.5" y="-136.5" font-family="Helvetica,sans-Serif" font-size="10.00"># min_timestep</text>
<text text-anchor="start" x="129.5" y="-125.5" font-family="Helvetica,sans-Serif" font-size="10.00"># completed</text>
<polyline fill="none" stroke="black" points="121.5,-118.5 257.5,-118.5 "/>
<text text-anchor="start" x="129.5" y="-106.5" font-family="Helvetica,sans-Serif" font-size="10.00">+ HY_PointHydroNexus()</text>
<text text-anchor="start" x="129.5" y="-95.5" font-family="Helvetica,sans-Serif" font-size="10.00">+ HY_PointHydroNexus()</text>
<text text-anchor="start" x="129.5" y="-84.5" font-family="Helvetica,sans-Serif" font-size="10.00">+ ~HY_PointHydroNexus()</text>
<text text-anchor="start" x="129.5" y="-73.5" font-family="Helvetica,sans-Serif" font-size="10.00">+ get_downstream_flow()</text>
<text text-anchor="start" x="129.5" y="-62.5" font-family="Helvetica,sans-Serif" font-size="10.00">+ add_upstream_flow()</text>
<text text-anchor="start" x="129.5" y="-51.5" font-family="Helvetica,sans-Serif" font-size="10.00">+ inspect_upstream_flows()</text>
<text text-anchor="start" x="129.5" y="-40.5" font-family="Helvetica,sans-Serif" font-size="10.00">+ inspect_downstream</text>
<text text-anchor="start" x="129.5" y="-29.5" font-family="Helvetica,sans-Serif" font-size="10.00">_requests()</text>
<text text-anchor="start" x="129.5" y="-18.5" font-family="Helvetica,sans-Serif" font-size="10.00">+ get_flow_units()</text>
<text text-anchor="start" x="129.5" y="-7.5" font-family="Helvetica,sans-Serif" font-size="10.00">+ set_mintime()</text>
</a>
</g>
</g>
<!-- Node2 -->
<g id="node2" class="node">
<title>Node2</title>
<g id="a_node2"><a xlink:href="class_h_y___hydro_nexus.html" target="_top" xlink:title=" ">
<polygon fill="white" stroke="black" points="111.5,-249.5 111.5,-449.5 267.5,-449.5 267.5,-249.5 111.5,-249.5"/>
<text text-anchor="middle" x="189.5" y="-437.5" font-family="Helvetica,sans-Serif" font-size="10.00">HY_HydroNexus</text>
<polyline fill="none" stroke="black" points="111.5,-430.5 267.5,-430.5 "/>
<text text-anchor="start" x="119.5" y="-418.5" font-family="Helvetica,sans-Serif" font-size="10.00">&#45; number_of_downstream</text>
<text text-anchor="start" x="119.5" y="-407.5" font-family="Helvetica,sans-Serif" font-size="10.00">_catchments</text>
<polyline fill="none" stroke="black" points="111.5,-400.5 267.5,-400.5 "/>
<text text-anchor="start" x="119.5" y="-388.5" font-family="Helvetica,sans-Serif" font-size="10.00">+ HY_HydroNexus()</text>
<text text-anchor="start" x="119.5" y="-377.5" font-family="Helvetica,sans-Serif" font-size="10.00">+ HY_HydroNexus()</text>
<text text-anchor="start" x="119.5" y="-366.5" font-family="Helvetica,sans-Serif" font-size="10.00">+ HY_HydroNexus()</text>
<text text-anchor="start" x="119.5" y="-355.5" font-family="Helvetica,sans-Serif" font-size="10.00">+ ~HY_HydroNexus()</text>
<text text-anchor="start" x="119.5" y="-344.5" font-family="Helvetica,sans-Serif" font-size="10.00">+ add_upstream_flow()</text>
<text text-anchor="start" x="119.5" y="-333.5" font-family="Helvetica,sans-Serif" font-size="10.00">+ get_downstream_flow()</text>
<text text-anchor="start" x="119.5" y="-322.5" font-family="Helvetica,sans-Serif" font-size="10.00">+ inspect_upstream_flows()</text>
<text text-anchor="start" x="119.5" y="-311.5" font-family="Helvetica,sans-Serif" font-size="10.00">+ inspect_downstream</text>
<text text-anchor="start" x="119.5" y="-300.5" font-family="Helvetica,sans-Serif" font-size="10.00">_requests()</text>
<text text-anchor="start" x="119.5" y="-289.5" font-family="Helvetica,sans-Serif" font-size="10.00">+ get_flow_units()</text>
<text text-anchor="start" x="119.5" y="-278.5" font-family="Helvetica,sans-Serif" font-size="10.00">+ get_receiving_catchments()</text>
<text text-anchor="start" x="119.5" y="-267.5" font-family="Helvetica,sans-Serif" font-size="10.00">+ get_contributing_catchments()</text>
<text text-anchor="start" x="119.5" y="-256.5" font-family="Helvetica,sans-Serif" font-size="10.00">+ get_id()</text>
</a>
</g>
</g>
<!-- Node2&#45;&gt;Node1 -->
<g id="edge1" class="edge">
<title>Node2&#45;&gt;Node1</title>
<path fill="none" stroke="midnightblue" d="M189.5,-239.03C189.5,-229.96 189.5,-220.8 189.5,-211.76"/>
<polygon fill="none" stroke="midnightblue" points="186,-239.23 189.5,-249.23 193,-239.23 186,-239.23"/>
</g>
<!-- Node3 -->
<g id="node3" class="node">
<title>Node3</title>
<g id="a_node3"><a xlink:title=" ">
<polygon fill="white" stroke="#bfbfbf" points="231,-624.5 231,-681.5 290,-681.5 290,-624.5 231,-624.5"/>
<text text-anchor="middle" x="260.5" y="-669.5" font-family="Helvetica,sans-Serif" font-size="10.00">std::string</text>
<polyline fill="none" stroke="#bfbfbf" points="231,-662.5 290,-662.5 "/>
<text text-anchor="middle" x="260.5" y="-650.5" font-family="Helvetica,sans-Serif" font-size="10.00"> </text>
<polyline fill="none" stroke="#bfbfbf" points="231,-643.5 290,-643.5 "/>
<text text-anchor="middle" x="260.5" y="-631.5" font-family="Helvetica,sans-Serif" font-size="10.00"> </text>
</a>
</g>
</g>
<!-- Node3&#45;&gt;Node2 -->
<g id="edge2" class="edge">
<title>Node3&#45;&gt;Node2</title>
<path fill="none" stroke="#404040" d="M284.5,-624.47C288.45,-618.69 292.05,-612.4 294.5,-606 316.49,-548.54 328.86,-524.92 305.5,-468 298.58,-451.14 287.94,-435.41 275.86,-421.28"/>
<polygon fill="none" stroke="#404040" points="275.76,-421.17 268.77,-419.38 267.74,-412.24 274.72,-414.03 275.76,-421.17"/>
<text text-anchor="middle" x="325.5" y="-540" font-family="Helvetica,sans-Serif" font-size="10.00"> #id</text>
</g>
<!-- Node8 -->
<g id="node8" class="node">
<title>Node8</title>
<g id="a_node8"><a xlink:title=" ">
<polygon fill="white" stroke="#bfbfbf" points="129.5,-514 129.5,-571 249.5,-571 249.5,-514 129.5,-514"/>
<text text-anchor="middle" x="189.5" y="-559" font-family="Helvetica,sans-Serif" font-size="10.00">std::vector&lt; std::string &gt;</text>
<polyline fill="none" stroke="#bfbfbf" points="129.5,-552 249.5,-552 "/>
<text text-anchor="middle" x="189.5" y="-540" font-family="Helvetica,sans-Serif" font-size="10.00"> </text>
<polyline fill="none" stroke="#bfbfbf" points="129.5,-533 249.5,-533 "/>
<text text-anchor="middle" x="189.5" y="-521" font-family="Helvetica,sans-Serif" font-size="10.00"> </text>
</a>
</g>
</g>
<!-- Node3&#45;&gt;Node8 -->
<g id="edge8" class="edge">
<title>Node3&#45;&gt;Node8</title>
<path fill="none" stroke="#404040" d="M249.87,-624.48C245.65,-614.84 240.4,-604.14 234.5,-595 231.37,-590.14 227.8,-585.27 224.07,-580.56"/>
<polygon fill="none" stroke="#404040" points="223.96,-580.43 217.05,-578.37 216.29,-571.2 223.2,-573.26 223.96,-580.43"/>
<text text-anchor="middle" x="266" y="-598" font-family="Helvetica,sans-Serif" font-size="10.00"> +elements</text>
</g>
<!-- Node4 -->
<g id="node4" class="node">
<title>Node4</title>
<g id="a_node4"><a xlink:title=" ">
<polygon fill="white" stroke="#bfbfbf" points="214,-729.5 214,-797.5 307,-797.5 307,-729.5 214,-729.5"/>
<text text-anchor="start" x="222" y="-785.5" font-family="Helvetica,sans-Serif" font-size="10.00">std::basic_string&lt;</text>
<text text-anchor="middle" x="260.5" y="-774.5" font-family="Helvetica,sans-Serif" font-size="10.00"> Char &gt;</text>
<polyline fill="none" stroke="#bfbfbf" points="214,-767.5 307,-767.5 "/>
<text text-anchor="middle" x="260.5" y="-755.5" font-family="Helvetica,sans-Serif" font-size="10.00"> </text>
<polyline fill="none" stroke="#bfbfbf" points="214,-748.5 307,-748.5 "/>
<text text-anchor="middle" x="260.5" y="-736.5" font-family="Helvetica,sans-Serif" font-size="10.00"> </text>
</a>
</g>
</g>
<!-- Node4&#45;&gt;Node3 -->
<g id="edge3" class="edge">
<title>Node4&#45;&gt;Node3</title>
<path fill="none" stroke="midnightblue" d="M260.5,-719.06C260.5,-706.51 260.5,-693.15 260.5,-681.83"/>
<polygon fill="none" stroke="midnightblue" points="257,-719.36 260.5,-729.36 264,-719.36 257,-719.36"/>
</g>
<!-- Node5 -->
<g id="node5" class="node">
<title>Node5</title>
<g id="a_node5"><a xlink:title=" ">
<polygon fill="white" stroke="#bfbfbf" points="0,-508.5 0,-576.5 103,-576.5 103,-508.5 0,-508.5"/>
<text text-anchor="start" x="8" y="-564.5" font-family="Helvetica,sans-Serif" font-size="10.00">std::shared_ptr&lt; HY</text>
<text text-anchor="middle" x="51.5" y="-553.5" font-family="Helvetica,sans-Serif" font-size="10.00">_HydroLocation &gt;</text>
<polyline fill="none" stroke="#bfbfbf" points="0,-546.5 103,-546.5 "/>
<text text-anchor="start" x="8" y="-534.5" font-family="Helvetica,sans-Serif" font-size="10.00">+ ptr</text>
<polyline fill="none" stroke="#bfbfbf" points="0,-527.5 103,-527.5 "/>
<text text-anchor="start" x="8" y="-515.5" font-family="Helvetica,sans-Serif" font-size="10.00">+ operator&#45;&gt;()</text>
</a>
</g>
</g>
<!-- Node5&#45;&gt;Node2 -->
<g id="edge4" class="edge">
<title>Node5&#45;&gt;Node2</title>
<path fill="none" stroke="#404040" d="M75.54,-508.23C85.57,-494.34 97.85,-477.34 110.59,-459.71"/>
<polygon fill="none" stroke="#404040" points="110.68,-459.59 110.95,-452.38 117.71,-449.86 117.44,-457.07 110.68,-459.59"/>
<text text-anchor="middle" x="129" y="-476.5" font-family="Helvetica,sans-Serif" font-size="10.00"> &#45;realization</text>
</g>
<!-- Node6 -->
<g id="node6" class="node">
<title>Node6</title>
<g id="a_node6"><a xlink:title=" ">
<polygon fill="white" stroke="#bfbfbf" points="2,-624.5 2,-681.5 105,-681.5 105,-624.5 2,-624.5"/>
<text text-anchor="middle" x="53.5" y="-669.5" font-family="Helvetica,sans-Serif" font-size="10.00">std::shared_ptr&lt; T &gt;</text>
<polyline fill="none" stroke="#bfbfbf" points="2,-662.5 105,-662.5 "/>
<text text-anchor="middle" x="53.5" y="-650.5" font-family="Helvetica,sans-Serif" font-size="10.00"> </text>
<polyline fill="none" stroke="#bfbfbf" points="2,-643.5 105,-643.5 "/>
<text text-anchor="start" x="10" y="-631.5" font-family="Helvetica,sans-Serif" font-size="10.00">+ operator&#45;&gt;()</text>
</a>
</g>
</g>
<!-- Node6&#45;&gt;Node5 -->
<g id="edge5" class="edge">
<title>Node6&#45;&gt;Node5</title>
<path fill="none" stroke="orange" d="M49.07,-614.25C48.84,-611.46 48.65,-608.69 48.5,-606 47.98,-596.45 48.18,-586.09 48.65,-576.59"/>
<polygon fill="orange" stroke="orange" points="45.59,-614.68 50,-624.31 52.56,-614.03 45.59,-614.68"/>
<text text-anchor="middle" x="99.5" y="-598" font-family="Helvetica,sans-Serif" font-size="10.00"> &lt; HY_HydroLocation &gt;</text>
</g>
<!-- Node7 -->
<g id="node7" class="node">
<title>Node7</title>
<g id="a_node7"><a xlink:title=" ">
<polygon fill="white" stroke="#bfbfbf" points="90,-735 90,-792 119,-792 119,-735 90,-735"/>
<text text-anchor="middle" x="104.5" y="-780" font-family="Helvetica,sans-Serif" font-size="10.00">T</text>
<polyline fill="none" stroke="#bfbfbf" points="90,-773 119,-773 "/>
<text text-anchor="middle" x="104.5" y="-761" font-family="Helvetica,sans-Serif" font-size="10.00"> </text>
<polyline fill="none" stroke="#bfbfbf" points="90,-754 119,-754 "/>
<text text-anchor="middle" x="104.5" y="-742" font-family="Helvetica,sans-Serif" font-size="10.00"> </text>
</a>
</g>
</g>
<!-- Node7&#45;&gt;Node6 -->
<g id="edge6" class="edge">
<title>Node7&#45;&gt;Node6</title>
<path fill="none" stroke="#404040" d="M91.5,-734.84C85.5,-722.09 78.29,-706.73 71.76,-692.84"/>
<polygon fill="none" stroke="#404040" points="71.58,-692.47 65.41,-688.74 66.48,-681.61 72.65,-685.34 71.58,-692.47"/>
<text text-anchor="middle" x="89.5" y="-703" font-family="Helvetica,sans-Serif" font-size="10.00"> +ptr</text>
</g>
<!-- Node9 -->
<g id="node9" class="node">
<title>Node9</title>
<g id="a_node9"><a xlink:title=" ">
<polygon fill="white" stroke="#bfbfbf" points="126.5,-624.5 126.5,-681.5 210.5,-681.5 210.5,-624.5 126.5,-624.5"/>
<text text-anchor="middle" x="168.5" y="-669.5" font-family="Helvetica,sans-Serif" font-size="10.00">std::vector&lt; T &gt;</text>
<polyline fill="none" stroke="#bfbfbf" points="126.5,-662.5 210.5,-662.5 "/>
<text text-anchor="middle" x="168.5" y="-650.5" font-family="Helvetica,sans-Serif" font-size="10.00"> </text>
<polyline fill="none" stroke="#bfbfbf" points="126.5,-643.5 210.5,-643.5 "/>
<text text-anchor="middle" x="168.5" y="-631.5" font-family="Helvetica,sans-Serif" font-size="10.00"> </text>
</a>
</g>
</g>
<!-- Node7&#45;&gt;Node9 -->
<g id="edge10" class="edge">
<title>Node7&#45;&gt;Node9</title>
<path fill="none" stroke="#404040" d="M119.02,-737.88C126.98,-724.4 137.01,-707.39 145.96,-692.22"/>
<polygon fill="none" stroke="#404040" points="146.14,-691.91 145.74,-684.71 152.23,-681.58 152.63,-688.78 146.14,-691.91"/>
<text text-anchor="middle" x="165" y="-703" font-family="Helvetica,sans-Serif" font-size="10.00"> +elements</text>
</g>
<!-- Node8&#45;&gt;Node2 -->
<g id="edge7" class="edge">
<title>Node8&#45;&gt;Node2</title>
<path fill="none" stroke="#404040" d="M189.5,-513.73C189.5,-499.5 189.5,-481.15 189.5,-461.91"/>
<polygon fill="none" stroke="#404040" points="189.5,-461.85 185.5,-455.85 189.5,-449.85 193.5,-455.85 189.5,-461.85"/>
<text text-anchor="middle" x="245.5" y="-482" font-family="Helvetica,sans-Serif" font-size="10.00"> &#45;contributing_catchments</text>
<text text-anchor="middle" x="245.5" y="-471" font-family="Helvetica,sans-Serif" font-size="10.00">&#45;receiving_catchments</text>
</g>
<!-- Node9&#45;&gt;Node8 -->
<g id="edge9" class="edge">
<title>Node9&#45;&gt;Node8</title>
<path fill="none" stroke="orange" d="M170.66,-614.33C171.36,-607.85 172.28,-601.2 173.5,-595 175.06,-587.1 177.37,-578.7 179.76,-571.02"/>
<polygon fill="orange" stroke="orange" points="167.17,-614.01 169.74,-624.29 174.14,-614.66 167.17,-614.01"/>
<text text-anchor="middle" x="204" y="-598" font-family="Helvetica,sans-Serif" font-size="10.00"> &lt; std::string &gt;</text>
</g>
</g>
</svg>
        <g id="navigator" transform="translate(0 0)" fill="#404254">
                <rect fill="#f2f5e9" fill-opacity="0.5" stroke="#606060" stroke-width=".5" x="0" y="0" width="60" height="60"/>
                <use id="zoomplus" xlink:href="#zoomPlus" x="17" y="9" onmousedown="handleZoom(evt,'in')"/>
                <use id="zoomminus" xlink:href="#zoomMin" x="42" y="9" onmousedown="handleZoom(evt,'out')"/>
                <use id="reset" xlink:href="#resetDef" x="30" y="36" onmousedown="handleReset()"/>
                <g id="arrowUp" xlink:href="#dirArrow" transform="translate(30 24)" onmousedown="handlePan(0,-1)">
                  <use xlink:href="#rim" fill="#404040">
                        <set attributeName="fill" to="#808080" begin="arrowUp.mouseover" end="arrowUp.mouseout"/>
                  </use>
                  <path fill="none" stroke="white" stroke-width="1.5" d="M0,-3.0v7 M-2.5,-0.5L0,-3.0L2.5,-0.5"/>
                </g>
                <g id="arrowRight" xlink:href="#dirArrow" transform="rotate(90) translate(36 -43)" onmousedown="handlePan(1,0)">
                  <use xlink:href="#rim" fill="#404040">
                        <set attributeName="fill" to="#808080" begin="arrowRight.mouseover" end="arrowRight.mouseout"/>
                  </use>
                  <path fill="none" stroke="white" stroke-width="1.5" d="M0,-3.0v7 M-2.5,-0.5L0,-3.0L2.5,-0.5"/>
                </g>
                <g id="arrowDown" xlink:href="#dirArrow" transform="rotate(180) translate(-30 -48)" onmousedown="handlePan(0,1)">
                  <use xlink:href="#rim" fill="#404040">
                        <set attributeName="fill" to="#808080" begin="arrowDown.mouseover" end="arrowDown.mouseout"/>
                  </use>
                  <path fill="none" stroke="white" stroke-width="1.5" d="M0,-3.0v7 M-2.5,-0.5L0,-3.0L2.5,-0.5"/>
                </g>
                <g id="arrowLeft" xlink:href="#dirArrow" transform="rotate(270) translate(-36 17)" onmousedown="handlePan(-1,0)">
                  <use xlink:href="#rim" fill="#404040">
                        <set attributeName="fill" to="#808080" begin="arrowLeft.mouseover" end="arrowLeft.mouseout"/>
                  </use>
                  <path fill="none" stroke="white" stroke-width="1.5" d="M0,-3.0v7 M-2.5,-0.5L0,-3.0L2.5,-0.5"/>
                </g>
        </g>
        <svg viewBox="0 0 15 15" width="100%" height="30px" preserveAspectRatio="xMaxYMin meet">
         <g id="arrow_out" transform="scale(0.3 0.3)">
          <a xlink:href="class_h_y___point_hydro_nexus__coll__graph_org.svg" target="_base">
           <rect id="button" ry="5" rx="5" y="6" x="6" height="38" width="38"
                fill="#f2f5e9" fill-opacity="0.5" stroke="#606060" stroke-width="1.0"/>
           <path id="arrow"
             d="M 11.500037,31.436501 C 11.940474,20.09759 22.043105,11.32322 32.158766,21.979434 L 37.068811,17.246167 C 37.068811,17.246167 37.088388,32 37.088388,32 L 22.160133,31.978069 C 22.160133,31.978069 26.997745,27.140456 26.997745,27.140456 C 18.528582,18.264221 13.291696,25.230495 11.500037,31.436501 z"
             style="fill:#404040;"/>
          </a>
         </g>
        </svg>
</svg>
