<?xml version="1.0" encoding="UTF-8" standalone="no"?>
<!DOCTYPE svg PUBLIC "-//W3C//DTD SVG 1.1//EN"
 "http://www.w3.org/Graphics/SVG/1.1/DTD/svg11.dtd">
<!-- Generated by graphviz version 9.0.0 (20230911.1827)
 -->
<!-- Title: ngen::sqlite::database Pages: 1 -->
<svg width="146pt" height="507pt"
 viewBox="0.00 0.00 145.75 506.75" xmlns="http://www.w3.org/2000/svg" xmlns:xlink="http://www.w3.org/1999/xlink">
<g id="graph0" class="graph" transform="scale(1 1) rotate(0) translate(4 502.75)">
<title>ngen::sqlite::database</title>
<!-- Node1 -->
<g id="Node000001" class="node">
<title>Node1</title>
<g id="a_Node000001"><a xlink:title=" ">
<polygon fill="#999999" stroke="none" points="107.5,-199 4.5,-199 4.5,0 107.5,0 107.5,-199"/>
<text text-anchor="start" x="9.5" y="-185.5" font-family="Helvetica,sans-Serif" font-size="10.00">ngen::sqlite::database</text>
<text text-anchor="start" x="54.5" y="-170.5" font-family="Helvetica,sans-Serif" font-size="10.00"> </text>
<text text-anchor="start" x="16.5" y="-155.5" font-family="Helvetica,sans-Serif" font-size="10.00">+</text>
<text text-anchor="start" x="34.5" y="-155.5" font-family="Helvetica,sans-Serif" font-size="10.00">database()</text>
<text text-anchor="start" x="16.5" y="-140.5" font-family="Helvetica,sans-Serif" font-size="10.00">+</text>
<text text-anchor="start" x="34.5" y="-140.5" font-family="Helvetica,sans-Serif" font-size="10.00">database()</text>
<text text-anchor="start" x="16.5" y="-125.5" font-family="Helvetica,sans-Serif" font-size="10.00">+</text>
<text text-anchor="start" x="34.5" y="-125.5" font-family="Helvetica,sans-Serif" font-size="10.00">operator=()</text>
<text text-anchor="start" x="16.5" y="-110.5" font-family="Helvetica,sans-Serif" font-size="10.00">+</text>
<text text-anchor="start" x="34.5" y="-110.5" font-family="Helvetica,sans-Serif" font-size="10.00">database()</text>
<text text-anchor="start" x="16.5" y="-95.5" font-family="Helvetica,sans-Serif" font-size="10.00">+</text>
<text text-anchor="start" x="34.5" y="-95.5" font-family="Helvetica,sans-Serif" font-size="10.00">operator=()</text>
<text text-anchor="start" x="16.5" y="-80.5" font-family="Helvetica,sans-Serif" font-size="10.00">+</text>
<text text-anchor="start" x="34.5" y="-80.5" font-family="Helvetica,sans-Serif" font-size="10.00">~database()</text>
<text text-anchor="start" x="16.5" y="-65.5" font-family="Helvetica,sans-Serif" font-size="10.00">+</text>
<text text-anchor="start" x="34.5" y="-65.5" font-family="Helvetica,sans-Serif" font-size="10.00">database()</text>
<text text-anchor="start" x="16.5" y="-50.5" font-family="Helvetica,sans-Serif" font-size="10.00">+</text>
<text text-anchor="start" x="34.5" y="-50.5" font-family="Helvetica,sans-Serif" font-size="10.00">connection()</text>
<text text-anchor="start" x="16.5" y="-35.5" font-family="Helvetica,sans-Serif" font-size="10.00">+</text>
<text text-anchor="start" x="34.5" y="-35.5" font-family="Helvetica,sans-Serif" font-size="10.00">contains()</text>
<text text-anchor="start" x="16.5" y="-20.5" font-family="Helvetica,sans-Serif" font-size="10.00">+</text>
<text text-anchor="start" x="34.5" y="-20.5" font-family="Helvetica,sans-Serif" font-size="10.00">query()</text>
<text text-anchor="start" x="16.5" y="-5.5" font-family="Helvetica,sans-Serif" font-size="10.00">+</text>
<text text-anchor="start" x="34.5" y="-5.5" font-family="Helvetica,sans-Serif" font-size="10.00">query()</text>
<polygon fill="#666666" stroke="#666666" points="4.5,-182 4.5,-182 107.5,-182 107.5,-182 4.5,-182"/>
<polygon fill="#666666" stroke="#666666" points="4.5,-167 4.5,-167 107.5,-167 107.5,-167 4.5,-167"/>
<polygon fill="none" stroke="#666666" points="4.5,0 4.5,-199 107.5,-199 107.5,0 4.5,0"/>
</a>
</g>
</g>
<!-- Node2 -->
<g id="Node000002" class="node">
<title>Node2</title>
<g id="a_Node000002"><a xlink:title=" ">
<polygon fill="white" stroke="none" points="112,-306.25 0,-306.25 0,-246.25 112,-246.25 112,-306.25"/>
<text text-anchor="start" x="4.62" y="-292.75" font-family="Helvetica,sans-Serif" font-size="10.00">std::unique_ptr&lt; sqlite3,</text>
<text text-anchor="start" x="36.12" y="-281.5" font-family="Helvetica,sans-Serif" font-size="10.00"> deleter &gt;</text>
<text text-anchor="start" x="15" y="-266.75" font-family="Helvetica,sans-Serif" font-size="10.00">+</text>
<text text-anchor="start" x="36" y="-266.75" font-family="Helvetica,sans-Serif" font-size="10.00">ptr</text>
<text text-anchor="start" x="15" y="-251.75" font-family="Helvetica,sans-Serif" font-size="10.00">+</text>
<text text-anchor="start" x="36" y="-251.75" font-family="Helvetica,sans-Serif" font-size="10.00">operator&#45;&gt;()</text>
<polygon fill="#666666" stroke="#666666" points="0,-278.25 0,-278.25 112,-278.25 112,-278.25 0,-278.25"/>
<polygon fill="#666666" stroke="#666666" points="0,-263.25 0,-263.25 34,-263.25 34,-263.25 0,-263.25"/>
<polygon fill="#666666" stroke="#666666" points="34,-263.25 34,-263.25 112,-263.25 112,-263.25 34,-263.25"/>
<polygon fill="none" stroke="#666666" points="0,-246.25 0,-306.25 112,-306.25 112,-246.25 0,-246.25"/>
</a>
</g>
</g>
<!-- Node2&#45;&gt;Node1 -->
<g id="edge1_Node000001_Node000002" class="edge">
<title>Node2&#45;&gt;Node1</title>
<g id="a_edge1_Node000001_Node000002"><a xlink:title=" ">
<path fill="none" stroke="#63b8ff" d="M56,-246.39C56,-236.36 56,-224.42 56,-211.76"/>
<polygon fill="none" stroke="#63b8ff" points="56,-211.8 52,-205.8 56,-199.8 60,-205.8 56,-211.8"/>
</a>
</g>
<text text-anchor="middle" x="71.75" y="-218.75" font-family="Helvetica,sans-Serif" font-size="10.00" fill="grey"> &#45;conn_</text>
</g>
<!-- Node3 -->
<g id="Node000003" class="node">
<title>Node3</title>
<g id="a_Node000003"><a xlink:title=" ">
<polygon fill="white" stroke="none" points="103.5,-402.5 8.5,-402.5 8.5,-353.5 103.5,-353.5 103.5,-402.5"/>
<text text-anchor="start" x="13.25" y="-389" font-family="Helvetica,sans-Serif" font-size="10.00">std::unique_ptr&lt; T &gt;</text>
<text text-anchor="start" x="54.5" y="-374" font-family="Helvetica,sans-Serif" font-size="10.00"> </text>
<text text-anchor="start" x="19" y="-359" font-family="Helvetica,sans-Serif" font-size="10.00">+</text>
<text text-anchor="start" x="35.5" y="-359" font-family="Helvetica,sans-Serif" font-size="10.00">operator&#45;&gt;()</text>
<polygon fill="#666666" stroke="#666666" points="8.5,-385.5 8.5,-385.5 103.5,-385.5 103.5,-385.5 8.5,-385.5"/>
<polygon fill="#666666" stroke="#666666" points="8.5,-370.5 8.5,-370.5 103.5,-370.5 103.5,-370.5 8.5,-370.5"/>
<polygon fill="none" stroke="#666666" points="8.5,-353.5 8.5,-402.5 103.5,-402.5 103.5,-353.5 8.5,-353.5"/>
</a>
</g>
</g>
<!-- Node3&#45;&gt;Node2 -->
<g id="edge2_Node000002_Node000003" class="edge">
<title>Node3&#45;&gt;Node2</title>
<g id="a_edge2_Node000002_Node000003"><a xlink:title=" ">
<path fill="none" stroke="orange" d="M56,-342.35C56,-330.55 56,-317.5 56,-306.2"/>
<polygon fill="orange" stroke="orange" points="52.5,-342.1 56,-352.1 59.5,-342.1 52.5,-342.1"/>
</a>
</g>
<text text-anchor="middle" x="96.88" y="-326" font-family="Helvetica,sans-Serif" font-size="10.00" fill="grey"> &lt; sqlite3, deleter &gt;</text>
</g>
<!-- Node4 -->
<g id="Node000004" class="node">
<title>Node4</title>
<g id="a_Node000004"><a xlink:title=" ">
<polygon fill="white" stroke="none" points="64,-498.75 48,-498.75 48,-449.75 64,-449.75 64,-498.75"/>
<text text-anchor="start" x="53" y="-485.25" font-family="Helvetica,sans-Serif" font-size="10.00">T</text>
<text text-anchor="start" x="54.5" y="-470.25" font-family="Helvetica,sans-Serif" font-size="10.00"> </text>
<text text-anchor="start" x="54.5" y="-455.25" font-family="Helvetica,sans-Serif" font-size="10.00"> </text>
<polygon fill="#666666" stroke="#666666" points="48,-481.75 48,-481.75 64,-481.75 64,-481.75 48,-481.75"/>
<polygon fill="#666666" stroke="#666666" points="48,-466.75 48,-466.75 64,-466.75 64,-466.75 48,-466.75"/>
<polygon fill="none" stroke="#666666" points="48,-449.75 48,-498.75 64,-498.75 64,-449.75 48,-449.75"/>
</a>
</g>
</g>
<!-- Node4&#45;&gt;Node3 -->
<g id="edge3_Node000003_Node000004" class="edge">
<title>Node4&#45;&gt;Node3</title>
<g id="a_edge3_Node000003_Node000004"><a xlink:title=" ">
<path fill="none" stroke="#63b8ff" d="M56,-449.95C56,-439.53 56,-427 56,-415.39"/>
<polygon fill="none" stroke="#63b8ff" points="56,-415.26 52,-409.26 56,-403.26 60,-409.26 56,-415.26"/>
</a>
</g>
<text text-anchor="middle" x="65.75" y="-422.25" font-family="Helvetica,sans-Serif" font-size="10.00" fill="grey"> +ptr</text>
</g>
</g>
</svg>
