<?xml version="1.0" encoding="UTF-8" standalone="no"?>
<!DOCTYPE svg PUBLIC "-//W3C//DTD SVG 1.1//EN"
 "http://www.w3.org/Graphics/SVG/1.1/DTD/svg11.dtd">
<!-- Generated by graphviz version 7.0.5 (20221223.1930)
 -->
<!-- Title: geopackage::sqlite_iter Pages: 1 -->
<svg width="379pt" height="533pt"
 viewBox="0.00 0.00 379.00 533.00" xmlns="http://www.w3.org/2000/svg" xmlns:xlink="http://www.w3.org/1999/xlink">
<g id="graph0" class="graph" transform="scale(1 1) rotate(0) translate(4 529)">
<title>geopackage::sqlite_iter</title>
<!-- Node1 -->
<g id="node1" class="node">
<title>Node1</title>
<g id="a_node1"><a xlink:title="SQLite3 row iterator.">
<polygon fill="#999999" stroke="#666666" points="243,-228 124,-228 124,0 243,0 243,-228"/>
<text text-anchor="middle" x="183.5" y="-216" font-family="Helvetica,sans-Serif" font-size="10.00">{geopackage::sqlite_iter</text>
<text text-anchor="start" x="132" y="-205" font-family="Helvetica,sans-Serif" font-size="10.00">|&#45; iteration_step</text>
<text text-anchor="start" x="132" y="-194" font-family="Helvetica,sans-Serif" font-size="10.00">&#45; iteration_finished</text>
<text text-anchor="start" x="132" y="-183" font-family="Helvetica,sans-Serif" font-size="10.00">&#45; column_count</text>
<text text-anchor="start" x="132" y="-172" font-family="Helvetica,sans-Serif" font-size="10.00">|+ sqlite_iter()</text>
<text text-anchor="start" x="132" y="-161" font-family="Helvetica,sans-Serif" font-size="10.00">+ done()</text>
<text text-anchor="start" x="132" y="-150" font-family="Helvetica,sans-Serif" font-size="10.00">+ next()</text>
<text text-anchor="start" x="132" y="-139" font-family="Helvetica,sans-Serif" font-size="10.00">+ restart()</text>
<text text-anchor="start" x="132" y="-128" font-family="Helvetica,sans-Serif" font-size="10.00">+ current_row()</text>
<text text-anchor="start" x="132" y="-117" font-family="Helvetica,sans-Serif" font-size="10.00">+ num_columns()</text>
<text text-anchor="start" x="132" y="-106" font-family="Helvetica,sans-Serif" font-size="10.00">+ column_index()</text>
<text text-anchor="start" x="132" y="-95" font-family="Helvetica,sans-Serif" font-size="10.00">+ columns()</text>
<text text-anchor="start" x="132" y="-84" font-family="Helvetica,sans-Serif" font-size="10.00">+ types()</text>
<text text-anchor="start" x="132" y="-73" font-family="Helvetica,sans-Serif" font-size="10.00">+ get()</text>
<text text-anchor="start" x="132" y="-62" font-family="Helvetica,sans-Serif" font-size="10.00">+ get()</text>
<text text-anchor="start" x="132" y="-51" font-family="Helvetica,sans-Serif" font-size="10.00">+ get()</text>
<text text-anchor="start" x="132" y="-40" font-family="Helvetica,sans-Serif" font-size="10.00">+ get()</text>
<text text-anchor="start" x="132" y="-29" font-family="Helvetica,sans-Serif" font-size="10.00">&#45; ptr()</text>
<text text-anchor="start" x="132" y="-18" font-family="Helvetica,sans-Serif" font-size="10.00">&#45; handle_get_index()</text>
<text text-anchor="middle" x="183.5" y="-7" font-family="Helvetica,sans-Serif" font-size="10.00">}</text>
</a>
</g>
</g>
<!-- Node2 -->
<g id="node2" class="node">
<title>Node2</title>
<g id="a_node2"><a xlink:title=" ">
<polygon fill="white" stroke="#666666" points="119,-338 0,-338 0,-275 119,-275 119,-338"/>
<text text-anchor="start" x="8" y="-326" font-family="Helvetica,sans-Serif" font-size="10.00">{std::unique_ptr&lt; sqlite3</text>
<text text-anchor="middle" x="59.5" y="-315" font-family="Helvetica,sans-Serif" font-size="10.00">_stmt, sqlite_deleter &gt;</text>
<text text-anchor="start" x="8" y="-304" font-family="Helvetica,sans-Serif" font-size="10.00">|+ ptr</text>
<text text-anchor="start" x="8" y="-293" font-family="Helvetica,sans-Serif" font-size="10.00">|+ operator&#45;&gt;()</text>
<text text-anchor="middle" x="59.5" y="-282" font-family="Helvetica,sans-Serif" font-size="10.00">}</text>
</a>
</g>
</g>
<!-- Node2&#45;&gt;Node1 -->
<g id="edge1" class="edge">
<title>Node2&#45;&gt;Node1</title>
<path fill="none" stroke="#404040" d="M79.42,-274.89C89.74,-259.04 103,-238.66 116.58,-217.8"/>
<polygon fill="none" stroke="#404040" points="116.66,-217.68 116.58,-210.47 123.21,-207.62 123.29,-214.84 116.66,-217.68"/>
<text text-anchor="middle" x="109" y="-249" font-family="Helvetica,sans-Serif" font-size="10.00"> &#45;stmt</text>
</g>
<!-- Node3 -->
<g id="node3" class="node">
<title>Node3</title>
<g id="a_node3"><a xlink:title=" ">
<polygon fill="white" stroke="#666666" points="119,-437 14,-437 14,-396 119,-396 119,-437"/>
<text text-anchor="middle" x="66.5" y="-425" font-family="Helvetica,sans-Serif" font-size="10.00">{std::unique_ptr&lt; T &gt;</text>
<text text-anchor="start" x="22" y="-414" font-family="Helvetica,sans-Serif" font-size="10.00">||+ operator&#45;&gt;()</text>
<text text-anchor="middle" x="66.5" y="-403" font-family="Helvetica,sans-Serif" font-size="10.00">}</text>
</a>
</g>
</g>
<!-- Node3&#45;&gt;Node2 -->
<g id="edge2" class="edge">
<title>Node3&#45;&gt;Node2</title>
<path fill="none" stroke="orange" d="M64.48,-384.27C63.54,-369.79 62.43,-352.63 61.49,-338.21"/>
<polygon fill="orange" stroke="orange" points="60.98,-384.43 65.12,-394.18 67.96,-383.98 60.98,-384.43"/>
<text text-anchor="start" x="64.5" y="-370" font-family="Helvetica,sans-Serif" font-size="10.00"> &lt; sqlite3_stmt, sqlite</text>
<text text-anchor="middle" x="111" y="-359" font-family="Helvetica,sans-Serif" font-size="10.00">_deleter &gt;</text>
</g>
<!-- Node4 -->
<g id="node4" class="node">
<title>Node4</title>
<g id="a_node4"><a xlink:title=" ">
<polygon fill="white" stroke="#666666" points="131,-519.5 102,-519.5 102,-489.5 131,-489.5 131,-519.5"/>
<text text-anchor="middle" x="116.5" y="-507.5" font-family="Helvetica,sans-Serif" font-size="10.00">{T</text>
<text text-anchor="middle" x="116.5" y="-496.5" font-family="Helvetica,sans-Serif" font-size="10.00">||}</text>
</a>
</g>
</g>
<!-- Node4&#45;&gt;Node3 -->
<g id="edge3" class="edge">
<title>Node4&#45;&gt;Node3</title>
<path fill="none" stroke="#404040" d="M108.24,-489.3C101.79,-478.19 92.57,-462.34 84.44,-448.36"/>
<polygon fill="none" stroke="#404040" points="84.43,-448.35 77.96,-445.17 78.4,-437.97 84.88,-441.15 84.43,-448.35"/>
<text text-anchor="middle" x="104.5" y="-458" font-family="Helvetica,sans-Serif" font-size="10.00"> +ptr</text>
</g>
<!-- Node8 -->
<g id="node8" class="node">
<title>Node8</title>
<g id="a_node8"><a xlink:title=" ">
<polygon fill="white" stroke="#666666" points="225,-431.5 138,-431.5 138,-401.5 225,-401.5 225,-431.5"/>
<text text-anchor="middle" x="181.5" y="-419.5" font-family="Helvetica,sans-Serif" font-size="10.00">{std::vector&lt; T &gt;</text>
<text text-anchor="middle" x="181.5" y="-408.5" font-family="Helvetica,sans-Serif" font-size="10.00">||}</text>
</a>
</g>
</g>
<!-- Node4&#45;&gt;Node8 -->
<g id="edge8" class="edge">
<title>Node4&#45;&gt;Node8</title>
<path fill="none" stroke="#404040" d="M127.23,-489.3C136.92,-476.48 151.39,-457.33 162.96,-442.03"/>
<polygon fill="none" stroke="#404040" points="162.97,-442.01 163.4,-434.82 170.21,-432.44 169.78,-439.64 162.97,-442.01"/>
<text text-anchor="middle" x="178" y="-458" font-family="Helvetica,sans-Serif" font-size="10.00"> +elements</text>
</g>
<!-- Node5 -->
<g id="node5" class="node">
<title>Node5</title>
<g id="a_node5"><a xlink:title=" ">
<polygon fill="white" stroke="#666666" points="371,-321.5 248,-321.5 248,-291.5 371,-291.5 371,-321.5"/>
<text text-anchor="middle" x="309.5" y="-309.5" font-family="Helvetica,sans-Serif" font-size="10.00">{std::vector&lt; std::string &gt;</text>
<text text-anchor="middle" x="309.5" y="-298.5" font-family="Helvetica,sans-Serif" font-size="10.00">||}</text>
</a>
</g>
</g>
<!-- Node5&#45;&gt;Node1 -->
<g id="edge4" class="edge">
<title>Node5&#45;&gt;Node1</title>
<path fill="none" stroke="#404040" d="M300.03,-291.18C289.02,-274.54 269.84,-245.54 250.18,-215.82"/>
<polygon fill="none" stroke="#404040" points="250.34,-216.05 243.69,-213.26 243.72,-206.04 250.36,-208.84 250.34,-216.05"/>
<text text-anchor="middle" x="311.5" y="-249" font-family="Helvetica,sans-Serif" font-size="10.00"> &#45;column_names</text>
</g>
<!-- Node6 -->
<g id="node6" class="node">
<title>Node6</title>
<g id="a_node6"><a xlink:title=" ">
<polygon fill="white" stroke="#666666" points="349.5,-431.5 287.5,-431.5 287.5,-401.5 349.5,-401.5 349.5,-431.5"/>
<text text-anchor="middle" x="318.5" y="-419.5" font-family="Helvetica,sans-Serif" font-size="10.00">{std::string</text>
<text text-anchor="middle" x="318.5" y="-408.5" font-family="Helvetica,sans-Serif" font-size="10.00">||}</text>
</a>
</g>
</g>
<!-- Node6&#45;&gt;Node5 -->
<g id="edge5" class="edge">
<title>Node6&#45;&gt;Node5</title>
<path fill="none" stroke="#404040" d="M317.32,-401.38C315.92,-384.58 313.55,-356.13 311.79,-334.94"/>
<polygon fill="none" stroke="#404040" points="311.78,-334.82 307.29,-329.18 310.78,-322.87 315.26,-328.51 311.78,-334.82"/>
<text text-anchor="middle" x="339" y="-364.5" font-family="Helvetica,sans-Serif" font-size="10.00"> +elements</text>
</g>
<!-- Node7 -->
<g id="node7" class="node">
<title>Node7</title>
<g id="a_node7"><a xlink:title=" ">
<polygon fill="white" stroke="#666666" points="366.5,-525 270.5,-525 270.5,-484 366.5,-484 366.5,-525"/>
<text text-anchor="start" x="278.5" y="-513" font-family="Helvetica,sans-Serif" font-size="10.00">{std::basic_string&lt;</text>
<text text-anchor="middle" x="318.5" y="-502" font-family="Helvetica,sans-Serif" font-size="10.00"> Char &gt;</text>
<text text-anchor="middle" x="318.5" y="-491" font-family="Helvetica,sans-Serif" font-size="10.00">||}</text>
</a>
</g>
</g>
<!-- Node7&#45;&gt;Node6 -->
<g id="edge6" class="edge">
<title>Node7&#45;&gt;Node6</title>
<path fill="none" stroke="#63b8ff" d="M318.5,-472.08C318.5,-458.35 318.5,-442.91 318.5,-431.97"/>
<polygon fill="none" stroke="#63b8ff" points="315,-472.04 318.5,-482.04 322,-472.04 315,-472.04"/>
</g>
<!-- Node8&#45;&gt;Node5 -->
<g id="edge7" class="edge">
<title>Node8&#45;&gt;Node5</title>
<path fill="none" stroke="orange" d="M205.45,-393.66C218.11,-382.27 233.99,-368.2 248.5,-356 262.48,-344.25 278.68,-331.4 290.87,-321.89"/>
<polygon fill="orange" stroke="orange" points="203.45,-390.75 198.38,-400.05 208.15,-395.94 203.45,-390.75"/>
<text text-anchor="middle" x="279" y="-364.5" font-family="Helvetica,sans-Serif" font-size="10.00"> &lt; std::string &gt;</text>
</g>
<!-- Node9 -->
<g id="node9" class="node">
<title>Node9</title>
<g id="a_node9"><a xlink:title=" ">
<polygon fill="white" stroke="#666666" points="229.5,-327 137.5,-327 137.5,-286 229.5,-286 229.5,-327"/>
<text text-anchor="middle" x="183.5" y="-315" font-family="Helvetica,sans-Serif" font-size="10.00">{std::vector&lt; int &gt;</text>
<text text-anchor="start" x="145.5" y="-304" font-family="Helvetica,sans-Serif" font-size="10.00">|+ elements</text>
<text text-anchor="middle" x="183.5" y="-293" font-family="Helvetica,sans-Serif" font-size="10.00">|}</text>
</a>
</g>
</g>
<!-- Node8&#45;&gt;Node9 -->
<g id="edge10" class="edge">
<title>Node8&#45;&gt;Node9</title>
<path fill="none" stroke="orange" d="M181.91,-389.97C182.08,-379.45 182.29,-367.14 182.5,-356 182.68,-346.57 182.89,-336.11 183.07,-327.32"/>
<polygon fill="orange" stroke="orange" points="178.41,-389.74 181.75,-399.8 185.41,-389.86 178.41,-389.74"/>
<text text-anchor="middle" x="197.5" y="-364.5" font-family="Helvetica,sans-Serif" font-size="10.00"> &lt; int &gt;</text>
</g>
<!-- Node9&#45;&gt;Node1 -->
<g id="edge9" class="edge">
<title>Node9&#45;&gt;Node1</title>
<path fill="none" stroke="#404040" d="M183.5,-285.83C183.5,-274.2 183.5,-258.38 183.5,-241.03"/>
<polygon fill="none" stroke="#404040" points="183.5,-241.07 179.5,-235.07 183.5,-229.07 187.5,-235.07 183.5,-241.07"/>
<text text-anchor="middle" x="216.5" y="-249" font-family="Helvetica,sans-Serif" font-size="10.00"> &#45;column_types</text>
</g>
</g>
</svg>
