<?xml version="1.0" encoding="UTF-8" standalone="no"?>
<!DOCTYPE svg PUBLIC "-//W3C//DTD SVG 1.1//EN"
 "http://www.w3.org/Graphics/SVG/1.1/DTD/svg11.dtd">
<!-- Generated by graphviz version 12.2.0 (20241103.1931)
 -->
<!-- Title: Visitor Pages: 1 -->
<svg width="277pt" height="574pt"
 viewBox="0.00 0.00 276.73 573.50" xmlns="http://www.w3.org/2000/svg" xmlns:xlink="http://www.w3.org/1999/xlink">
<g id="graph0" class="graph" transform="scale(1 1) rotate(0) translate(4 569.5)">
<title>Visitor</title>
<!-- Node1 -->
<g id="Node000001" class="node">
<title>Node1</title>
<g id="a_Node000001"><a xlink:title=" ">
<polygon fill="#999999" stroke="none" points="90.5,-156.5 48.5,-156.5 48.5,0 90.5,0 90.5,-156.5"/>
<text text-anchor="start" x="55.62" y="-143" font-family="Helvetica,sans-Serif" font-size="10.00">Visitor</text>
<text text-anchor="start" x="68" y="-127.75" font-family="Helvetica,sans-Serif" font-size="10.00"> </text>
<text text-anchor="start" x="52.5" y="-112.5" font-family="Helvetica,sans-Serif" font-size="10.00">+</text>
<text text-anchor="start" x="62.5" y="-112.5" font-family="Helvetica,sans-Serif" font-size="10.00">visit()</text>
<text text-anchor="start" x="52.5" y="-97.25" font-family="Helvetica,sans-Serif" font-size="10.00">+</text>
<text text-anchor="start" x="62.5" y="-97.25" font-family="Helvetica,sans-Serif" font-size="10.00">visit()</text>
<text text-anchor="start" x="52.5" y="-82" font-family="Helvetica,sans-Serif" font-size="10.00">+</text>
<text text-anchor="start" x="62.5" y="-82" font-family="Helvetica,sans-Serif" font-size="10.00">visit()</text>
<text text-anchor="start" x="52.5" y="-66.75" font-family="Helvetica,sans-Serif" font-size="10.00">+</text>
<text text-anchor="start" x="62.5" y="-66.75" font-family="Helvetica,sans-Serif" font-size="10.00">visit()</text>
<text text-anchor="start" x="52.5" y="-51.5" font-family="Helvetica,sans-Serif" font-size="10.00">+</text>
<text text-anchor="start" x="62.5" y="-51.5" font-family="Helvetica,sans-Serif" font-size="10.00">visit()</text>
<text text-anchor="start" x="52.5" y="-36.25" font-family="Helvetica,sans-Serif" font-size="10.00">+</text>
<text text-anchor="start" x="62.5" y="-36.25" font-family="Helvetica,sans-Serif" font-size="10.00">visit()</text>
<text text-anchor="start" x="52.5" y="-21" font-family="Helvetica,sans-Serif" font-size="10.00">+</text>
<text text-anchor="start" x="62.5" y="-21" font-family="Helvetica,sans-Serif" font-size="10.00">visit()</text>
<text text-anchor="start" x="52.5" y="-5.75" font-family="Helvetica,sans-Serif" font-size="10.00">+</text>
<text text-anchor="start" x="62.5" y="-5.75" font-family="Helvetica,sans-Serif" font-size="10.00">get()</text>
<polygon fill="#666666" stroke="#666666" points="48.5,-139.25 48.5,-139.25 90.5,-139.25 90.5,-139.25 48.5,-139.25"/>
<polygon fill="#666666" stroke="#666666" points="48.5,-124 48.5,-124 90.5,-124 90.5,-124 48.5,-124"/>
<polygon fill="none" stroke="#666666" points="48.5,0 48.5,-156.5 90.5,-156.5 90.5,0 48.5,0"/>
</a>
</g>
</g>
<!-- Node2 -->
<g id="Node000002" class="node">
<title>Node2</title>
<g id="a_Node000002"><a xlink:href="classgeojson_1_1_feature_visitor.html" target="_top" xlink:title="An abstract class used to operate on the children of FeatureBase.">
<polygon fill="white" stroke="none" points="107,-360.25 0,-360.25 0,-203.75 107,-203.75 107,-360.25"/>
<text text-anchor="start" x="4" y="-346.75" font-family="Helvetica,sans-Serif" font-size="10.00">geojson::FeatureVisitor</text>
<text text-anchor="start" x="52" y="-331.5" font-family="Helvetica,sans-Serif" font-size="10.00"> </text>
<text text-anchor="start" x="8.25" y="-316.25" font-family="Helvetica,sans-Serif" font-size="10.00">+</text>
<text text-anchor="start" x="22.5" y="-316.25" font-family="Helvetica,sans-Serif" font-size="10.00">visit()</text>
<text text-anchor="start" x="8.25" y="-301" font-family="Helvetica,sans-Serif" font-size="10.00">+</text>
<text text-anchor="start" x="22.5" y="-301" font-family="Helvetica,sans-Serif" font-size="10.00">visit()</text>
<text text-anchor="start" x="8.25" y="-285.75" font-family="Helvetica,sans-Serif" font-size="10.00">+</text>
<text text-anchor="start" x="22.5" y="-285.75" font-family="Helvetica,sans-Serif" font-size="10.00">visit()</text>
<text text-anchor="start" x="8.25" y="-270.5" font-family="Helvetica,sans-Serif" font-size="10.00">+</text>
<text text-anchor="start" x="22.5" y="-270.5" font-family="Helvetica,sans-Serif" font-size="10.00">visit()</text>
<text text-anchor="start" x="8.25" y="-255.25" font-family="Helvetica,sans-Serif" font-size="10.00">+</text>
<text text-anchor="start" x="22.5" y="-255.25" font-family="Helvetica,sans-Serif" font-size="10.00">visit()</text>
<text text-anchor="start" x="8.25" y="-240" font-family="Helvetica,sans-Serif" font-size="10.00">+</text>
<text text-anchor="start" x="22.5" y="-240" font-family="Helvetica,sans-Serif" font-size="10.00">visit()</text>
<text text-anchor="start" x="8.25" y="-224.75" font-family="Helvetica,sans-Serif" font-size="10.00">+</text>
<text text-anchor="start" x="22.5" y="-224.75" font-family="Helvetica,sans-Serif" font-size="10.00">visit()</text>
<text text-anchor="start" x="8.25" y="-209.5" font-family="Helvetica,sans-Serif" font-size="10.00">+</text>
<text text-anchor="start" x="22.5" y="-209.5" font-family="Helvetica,sans-Serif" font-size="10.00">~FeatureVisitor()</text>
<polygon fill="#666666" stroke="#666666" points="0,-343 0,-343 107,-343 107,-343 0,-343"/>
<polygon fill="#666666" stroke="#666666" points="0,-327.75 0,-327.75 107,-327.75 107,-327.75 0,-327.75"/>
<polygon fill="none" stroke="#666666" points="0,-203.75 0,-360.25 107,-360.25 107,-203.75 0,-203.75"/>
</a>
</g>
</g>
<!-- Node2&#45;&gt;Node1 -->
<g id="edge1_Node000001_Node000002" class="edge">
<title>Node2&#45;&gt;Node1</title>
<g id="a_edge1_Node000001_Node000002"><a xlink:title=" ">
<path fill="none" stroke="#63b8ff" d="M60.52,-192.43C61.48,-180.41 62.45,-168.14 63.39,-156.34"/>
<polygon fill="none" stroke="#63b8ff" points="57.04,-192.11 59.74,-202.35 64.02,-192.66 57.04,-192.11"/>
</a>
</g>
</g>
<!-- Node3 -->
<g id="Node000003" class="node">
<title>Node3</title>
<g id="a_Node000003"><a xlink:title=" ">
<polygon fill="white" stroke="none" points="236.25,-306.88 124.75,-306.88 124.75,-257.12 236.25,-257.12 236.25,-306.88"/>
<text text-anchor="start" x="128.75" y="-293.38" font-family="Helvetica,sans-Serif" font-size="10.00">std::vector&lt; std::string &gt;</text>
<text text-anchor="start" x="179" y="-278.12" font-family="Helvetica,sans-Serif" font-size="10.00"> </text>
<text text-anchor="start" x="179" y="-262.88" font-family="Helvetica,sans-Serif" font-size="10.00"> </text>
<polygon fill="#666666" stroke="#666666" points="124.75,-289.62 124.75,-289.62 236.25,-289.62 236.25,-289.62 124.75,-289.62"/>
<polygon fill="#666666" stroke="#666666" points="124.75,-274.38 124.75,-274.38 236.25,-274.38 236.25,-274.38 124.75,-274.38"/>
<polygon fill="none" stroke="#666666" points="124.75,-257.12 124.75,-306.88 236.25,-306.88 236.25,-257.12 124.75,-257.12"/>
</a>
</g>
</g>
<!-- Node3&#45;&gt;Node1 -->
<g id="edge2_Node000001_Node000003" class="edge">
<title>Node3&#45;&gt;Node1</title>
<g id="a_edge2_Node000001_Node000003"><a xlink:title=" ">
<path fill="none" stroke="#63b8ff" d="M167.55,-257.46C150.23,-225.99 119.1,-169.4 96.55,-128.42"/>
<polygon fill="none" stroke="#63b8ff" points="96.51,-128.35 90.12,-125.02 90.73,-117.84 97.13,-121.16 96.51,-128.35"/>
</a>
</g>
<text text-anchor="middle" x="139.25" y="-176.25" font-family="Helvetica,sans-Serif" font-size="10.00" fill="grey"> &#45;types</text>
</g>
<!-- Node4 -->
<g id="Node000004" class="node">
<title>Node4</title>
<g id="a_Node000004"><a xlink:title=" ">
<polygon fill="white" stroke="none" points="163.5,-457.25 113.5,-457.25 113.5,-407.5 163.5,-407.5 163.5,-457.25"/>
<text text-anchor="start" x="117.5" y="-443.75" font-family="Helvetica,sans-Serif" font-size="10.00">std::string</text>
<text text-anchor="start" x="137" y="-428.5" font-family="Helvetica,sans-Serif" font-size="10.00"> </text>
<text text-anchor="start" x="137" y="-413.25" font-family="Helvetica,sans-Serif" font-size="10.00"> </text>
<polygon fill="#666666" stroke="#666666" points="113.5,-440 113.5,-440 163.5,-440 163.5,-440 113.5,-440"/>
<polygon fill="#666666" stroke="#666666" points="113.5,-424.75 113.5,-424.75 163.5,-424.75 163.5,-424.75 113.5,-424.75"/>
<polygon fill="none" stroke="#666666" points="113.5,-407.5 113.5,-457.25 163.5,-457.25 163.5,-407.5 113.5,-407.5"/>
</a>
</g>
</g>
<!-- Node4&#45;&gt;Node3 -->
<g id="edge3_Node000003_Node000004" class="edge">
<title>Node4&#45;&gt;Node3</title>
<g id="a_edge3_Node000003_Node000004"><a xlink:title=" ">
<path fill="none" stroke="#63b8ff" d="M145.22,-407.57C147.8,-398.41 150.79,-387.84 153.5,-378.25 159.05,-358.65 165.24,-336.78 170.3,-318.95"/>
<polygon fill="none" stroke="#63b8ff" points="170.32,-318.9 168.1,-312.03 173.59,-307.35 175.8,-314.22 170.32,-318.9"/>
</a>
</g>
<text text-anchor="middle" x="177.5" y="-380" font-family="Helvetica,sans-Serif" font-size="10.00" fill="grey"> +elements</text>
</g>
<!-- Node5 -->
<g id="Node000005" class="node">
<title>Node5</title>
<g id="a_Node000005"><a xlink:title=" ">
<polygon fill="white" stroke="none" points="180.75,-565.5 96.25,-565.5 96.25,-504.5 180.75,-504.5 180.75,-565.5"/>
<text text-anchor="start" x="100.25" y="-552" font-family="Helvetica,sans-Serif" font-size="10.00">std::basic_string&lt;</text>
<text text-anchor="start" x="123.12" y="-540.75" font-family="Helvetica,sans-Serif" font-size="10.00"> Char &gt;</text>
<text text-anchor="start" x="137" y="-525.5" font-family="Helvetica,sans-Serif" font-size="10.00"> </text>
<text text-anchor="start" x="137" y="-510.25" font-family="Helvetica,sans-Serif" font-size="10.00"> </text>
<polygon fill="#666666" stroke="#666666" points="96.25,-537 96.25,-537 180.75,-537 180.75,-537 96.25,-537"/>
<polygon fill="#666666" stroke="#666666" points="96.25,-521.75 96.25,-521.75 180.75,-521.75 180.75,-521.75 96.25,-521.75"/>
<polygon fill="none" stroke="#666666" points="96.25,-504.5 96.25,-565.5 180.75,-565.5 180.75,-504.5 96.25,-504.5"/>
</a>
</g>
</g>
<!-- Node5&#45;&gt;Node4 -->
<g id="edge4_Node000004_Node000005" class="edge">
<title>Node5&#45;&gt;Node4</title>
<g id="a_edge4_Node000004_Node000005"><a xlink:title=" ">
<path fill="none" stroke="#63b8ff" d="M138.5,-493.23C138.5,-480.99 138.5,-467.97 138.5,-457.2"/>
<polygon fill="none" stroke="#63b8ff" points="135,-493.11 138.5,-503.11 142,-493.11 135,-493.11"/>
</a>
</g>
</g>
<!-- Node6 -->
<g id="Node000006" class="node">
<title>Node6</title>
<g id="a_Node000006"><a xlink:title=" ">
<polygon fill="white" stroke="none" points="257.25,-457.25 181.75,-457.25 181.75,-407.5 257.25,-407.5 257.25,-457.25"/>
<text text-anchor="start" x="185.75" y="-443.75" font-family="Helvetica,sans-Serif" font-size="10.00">std::vector&lt; T &gt;</text>
<text text-anchor="start" x="218" y="-428.5" font-family="Helvetica,sans-Serif" font-size="10.00"> </text>
<text text-anchor="start" x="218" y="-413.25" font-family="Helvetica,sans-Serif" font-size="10.00"> </text>
<polygon fill="#666666" stroke="#666666" points="181.75,-440 181.75,-440 257.25,-440 257.25,-440 181.75,-440"/>
<polygon fill="#666666" stroke="#666666" points="181.75,-424.75 181.75,-424.75 257.25,-424.75 257.25,-424.75 181.75,-424.75"/>
<polygon fill="none" stroke="#666666" points="181.75,-407.5 181.75,-457.25 257.25,-457.25 257.25,-407.5 181.75,-407.5"/>
</a>
</g>
</g>
<!-- Node6&#45;&gt;Node3 -->
<g id="edge5_Node000003_Node000006" class="edge">
<title>Node6&#45;&gt;Node3</title>
<g id="a_edge5_Node000003_Node000006"><a xlink:title=" ">
<path fill="none" stroke="orange" d="M210.4,-396.76C203.13,-369.11 193.14,-331.09 186.75,-306.78"/>
<polygon fill="orange" stroke="orange" points="206.92,-397.29 212.85,-406.07 213.69,-395.51 206.92,-397.29"/>
</a>
</g>
<text text-anchor="middle" x="238.35" y="-380" font-family="Helvetica,sans-Serif" font-size="10.00" fill="grey"> &lt; std::string &gt;</text>
</g>
<!-- Node7 -->
<g id="Node000007" class="node">
<title>Node7</title>
<g id="a_Node000007"><a xlink:title=" ">
<polygon fill="white" stroke="none" points="226.5,-559.88 212.5,-559.88 212.5,-510.12 226.5,-510.12 226.5,-559.88"/>
<text text-anchor="start" x="216.5" y="-546.38" font-family="Helvetica,sans-Serif" font-size="10.00">T</text>
<text text-anchor="start" x="218" y="-531.12" font-family="Helvetica,sans-Serif" font-size="10.00"> </text>
<text text-anchor="start" x="218" y="-515.88" font-family="Helvetica,sans-Serif" font-size="10.00"> </text>
<polygon fill="#666666" stroke="#666666" points="212.5,-542.62 212.5,-542.62 226.5,-542.62 226.5,-542.62 212.5,-542.62"/>
<polygon fill="#666666" stroke="#666666" points="212.5,-527.38 212.5,-527.38 226.5,-527.38 226.5,-527.38 212.5,-527.38"/>
<polygon fill="none" stroke="#666666" points="212.5,-510.12 212.5,-559.88 226.5,-559.88 226.5,-510.12 212.5,-510.12"/>
</a>
</g>
</g>
<!-- Node7&#45;&gt;Node6 -->
<g id="edge6_Node000006_Node000007" class="edge">
<title>Node7&#45;&gt;Node6</title>
<g id="a_edge6_Node000006_Node000007"><a xlink:title=" ">
<path fill="none" stroke="#63b8ff" d="M219.5,-510.15C219.5,-498.12 219.5,-483.27 219.5,-469.84"/>
<polygon fill="none" stroke="#63b8ff" points="219.5,-469.95 215.5,-463.95 219.5,-457.95 223.5,-463.95 219.5,-469.95"/>
</a>
</g>
<text text-anchor="middle" x="243.5" y="-477" font-family="Helvetica,sans-Serif" font-size="10.00" fill="grey"> +elements</text>
</g>
</g>
</svg>
