<?xml version="1.0" encoding="UTF-8" standalone="no"?>
<!DOCTYPE svg PUBLIC "-//W3C//DTD SVG 1.1//EN"
 "http://www.w3.org/Graphics/SVG/1.1/DTD/svg11.dtd">
<!-- Generated by graphviz version 2.49.3 (20211027.1534)
 -->
<!-- Title: geojson::JSONProperty Pages: 1 -->
<svg width="322pt" height="624pt"
 viewBox="0.00 0.00 322.00 624.00" xmlns="http://www.w3.org/2000/svg" xmlns:xlink="http://www.w3.org/1999/xlink">
<g id="graph0" class="graph" transform="scale(1 1) rotate(0) translate(4 620)">
<title>geojson::JSONProperty</title>
<polygon fill="white" stroke="transparent" points="-4,4 -4,-620 318,-620 318,4 -4,4"/>
<!-- Node1 -->
<g id="node1" class="node">
<title>Node1</title>
<g id="a_node1"><a xlink:title="@TODO: Convert JSONProperty into a variant of the supported types">
<polygon fill="#bfbfbf" stroke="black" points="0,-116.5 0,-393.5 118,-393.5 118,-116.5 0,-116.5"/>
<text text-anchor="middle" x="59" y="-381.5" font-family="Helvetica,sans-Serif" font-size="10.00">geojson::JSONProperty</text>
<polyline fill="none" stroke="black" points="0,-374.5 118,-374.5 "/>
<text text-anchor="start" x="8" y="-362.5" font-family="Helvetica,sans-Serif" font-size="10.00">&#45; type</text>
<text text-anchor="start" x="8" y="-351.5" font-family="Helvetica,sans-Serif" font-size="10.00">&#45; natural_number</text>
<text text-anchor="start" x="8" y="-340.5" font-family="Helvetica,sans-Serif" font-size="10.00">&#45; real_number</text>
<text text-anchor="start" x="8" y="-329.5" font-family="Helvetica,sans-Serif" font-size="10.00">&#45; boolean</text>
<text text-anchor="start" x="8" y="-318.5" font-family="Helvetica,sans-Serif" font-size="10.00">&#45; value_list</text>
<text text-anchor="start" x="8" y="-307.5" font-family="Helvetica,sans-Serif" font-size="10.00">&#45; data</text>
<polyline fill="none" stroke="black" points="0,-300.5 118,-300.5 "/>
<text text-anchor="start" x="8" y="-288.5" font-family="Helvetica,sans-Serif" font-size="10.00">+ JSONProperty()</text>
<text text-anchor="start" x="8" y="-277.5" font-family="Helvetica,sans-Serif" font-size="10.00">+ JSONProperty()</text>
<text text-anchor="start" x="8" y="-266.5" font-family="Helvetica,sans-Serif" font-size="10.00">+ JSONProperty()</text>
<text text-anchor="start" x="8" y="-255.5" font-family="Helvetica,sans-Serif" font-size="10.00">+ JSONProperty()</text>
<text text-anchor="start" x="8" y="-244.5" font-family="Helvetica,sans-Serif" font-size="10.00">+ JSONProperty()</text>
<text text-anchor="start" x="8" y="-233.5" font-family="Helvetica,sans-Serif" font-size="10.00">+ JSONProperty()</text>
<text text-anchor="start" x="8" y="-222.5" font-family="Helvetica,sans-Serif" font-size="10.00">+ JSONProperty()</text>
<text text-anchor="start" x="8" y="-211.5" font-family="Helvetica,sans-Serif" font-size="10.00">+ JSONProperty()</text>
<text text-anchor="start" x="8" y="-200.5" font-family="Helvetica,sans-Serif" font-size="10.00">+ JSONProperty()</text>
<text text-anchor="start" x="8" y="-189.5" font-family="Helvetica,sans-Serif" font-size="10.00">+ JSONProperty()</text>
<text text-anchor="start" x="8" y="-178.5" font-family="Helvetica,sans-Serif" font-size="10.00">+ ~JSONProperty()</text>
<text text-anchor="start" x="8" y="-167.5" font-family="Helvetica,sans-Serif" font-size="10.00">+ JSONProperty()</text>
<text text-anchor="start" x="8" y="-156.5" font-family="Helvetica,sans-Serif" font-size="10.00">+ JSONProperty()</text>
<text text-anchor="start" x="8" y="-145.5" font-family="Helvetica,sans-Serif" font-size="10.00">+ get_type()</text>
<text text-anchor="start" x="8" y="-134.5" font-family="Helvetica,sans-Serif" font-size="10.00">+ as_natural_number()</text>
<text text-anchor="start" x="8" y="-123.5" font-family="Helvetica,sans-Serif" font-size="10.00">and 16 more...</text>
</a>
</g>
</g>
<!-- Node4 -->
<g id="node4" class="node">
<title>Node4</title>
<g id="a_node4"><a xlink:title=" ">
<polygon fill="white" stroke="#bfbfbf" points="75.5,-0.5 75.5,-68.5 182.5,-68.5 182.5,-0.5 75.5,-0.5"/>
<text text-anchor="start" x="83.5" y="-56.5" font-family="Helvetica,sans-Serif" font-size="10.00">std::map&lt; std::string,</text>
<text text-anchor="middle" x="129" y="-45.5" font-family="Helvetica,sans-Serif" font-size="10.00"> JSONProperty &gt;</text>
<polyline fill="none" stroke="#bfbfbf" points="75.5,-38.5 182.5,-38.5 "/>
<text text-anchor="middle" x="129" y="-26.5" font-family="Helvetica,sans-Serif" font-size="10.00"> </text>
<polyline fill="none" stroke="#bfbfbf" points="75.5,-19.5 182.5,-19.5 "/>
<text text-anchor="middle" x="129" y="-7.5" font-family="Helvetica,sans-Serif" font-size="10.00"> </text>
</a>
</g>
</g>
<!-- Node1&#45;&gt;Node4 -->
<g id="edge5" class="edge">
<title>Node1&#45;&gt;Node4</title>
<path fill="none" stroke="#404040" d="M39.45,-116.34C41.62,-106.1 45.02,-96.19 50,-87 53.93,-79.75 59.37,-73.35 65.58,-67.76"/>
<polygon fill="none" stroke="#404040" points="65.76,-67.62 67.96,-60.75 75.14,-60.14 72.95,-67.01 65.76,-67.62"/>
<text text-anchor="middle" x="74.5" y="-90" font-family="Helvetica,sans-Serif" font-size="10.00"> +elements</text>
</g>
<!-- Node2 -->
<g id="node2" class="node">
<title>Node2</title>
<g id="a_node2"><a xlink:title=" ">
<polygon fill="white" stroke="#bfbfbf" points="65.5,-452.5 65.5,-509.5 124.5,-509.5 124.5,-452.5 65.5,-452.5"/>
<text text-anchor="middle" x="95" y="-497.5" font-family="Helvetica,sans-Serif" font-size="10.00">std::string</text>
<polyline fill="none" stroke="#bfbfbf" points="65.5,-490.5 124.5,-490.5 "/>
<text text-anchor="middle" x="95" y="-478.5" font-family="Helvetica,sans-Serif" font-size="10.00"> </text>
<polyline fill="none" stroke="#bfbfbf" points="65.5,-471.5 124.5,-471.5 "/>
<text text-anchor="middle" x="95" y="-459.5" font-family="Helvetica,sans-Serif" font-size="10.00"> </text>
</a>
</g>
</g>
<!-- Node2&#45;&gt;Node1 -->
<g id="edge1" class="edge">
<title>Node2&#45;&gt;Node1</title>
<path fill="none" stroke="#404040" d="M90.51,-452.08C88.47,-439.35 85.87,-423.2 83.05,-405.65"/>
<polygon fill="none" stroke="#404040" points="83.02,-405.47 78.12,-400.18 81.12,-393.62 86.02,-398.91 83.02,-405.47"/>
<text text-anchor="middle" x="102" y="-426" font-family="Helvetica,sans-Serif" font-size="10.00"> &#45;key</text>
<text text-anchor="middle" x="102" y="-415" font-family="Helvetica,sans-Serif" font-size="10.00">&#45;string</text>
</g>
<!-- Node2&#45;&gt;Node4 -->
<g id="edge4" class="edge">
<title>Node2&#45;&gt;Node4</title>
<path fill="none" stroke="#404040" d="M111.84,-452.45C114.92,-446.52 117.85,-440.18 120,-434 125.94,-416.96 125.04,-411.94 127,-394 141.27,-263.09 137.11,-229.65 140,-98 140.11,-93.11 140.51,-91.86 140,-87 139.77,-84.84 139.49,-82.64 139.17,-80.43"/>
<polygon fill="none" stroke="#404040" points="139.17,-80.41 134.21,-75.17 137.14,-68.58 142.09,-73.82 139.17,-80.41"/>
<text text-anchor="middle" x="154.5" y="-252.5" font-family="Helvetica,sans-Serif" font-size="10.00"> +keys</text>
</g>
<!-- Node3 -->
<g id="node3" class="node">
<title>Node3</title>
<g id="a_node3"><a xlink:title=" ">
<polygon fill="white" stroke="#bfbfbf" points="48.5,-547.5 48.5,-615.5 141.5,-615.5 141.5,-547.5 48.5,-547.5"/>
<text text-anchor="start" x="56.5" y="-603.5" font-family="Helvetica,sans-Serif" font-size="10.00">std::basic_string&lt;</text>
<text text-anchor="middle" x="95" y="-592.5" font-family="Helvetica,sans-Serif" font-size="10.00"> Char &gt;</text>
<polyline fill="none" stroke="#bfbfbf" points="48.5,-585.5 141.5,-585.5 "/>
<text text-anchor="middle" x="95" y="-573.5" font-family="Helvetica,sans-Serif" font-size="10.00"> </text>
<polyline fill="none" stroke="#bfbfbf" points="48.5,-566.5 141.5,-566.5 "/>
<text text-anchor="middle" x="95" y="-554.5" font-family="Helvetica,sans-Serif" font-size="10.00"> </text>
</a>
</g>
</g>
<!-- Node3&#45;&gt;Node2 -->
<g id="edge2" class="edge">
<title>Node3&#45;&gt;Node2</title>
<path fill="none" stroke="midnightblue" d="M95,-537.38C95,-527.94 95,-518.2 95,-509.57"/>
<polygon fill="none" stroke="midnightblue" points="91.5,-537.43 95,-547.43 98.5,-537.43 91.5,-537.43"/>
</g>
<!-- Node4&#45;&gt;Node1 -->
<g id="edge3" class="edge">
<title>Node4&#45;&gt;Node1</title>
<path fill="none" stroke="#404040" d="M113.31,-68.73C110.71,-74.75 108.17,-81.01 106,-87 103.91,-92.78 101.85,-98.7 99.84,-104.71"/>
<polygon fill="none" stroke="#404040" points="99.76,-104.93 101.69,-111.88 96.02,-116.33 94.09,-109.38 99.76,-104.93"/>
<text text-anchor="middle" x="123" y="-90" font-family="Helvetica,sans-Serif" font-size="10.00"> &#45;values</text>
</g>
<!-- Node5 -->
<g id="node5" class="node">
<title>Node5</title>
<g id="a_node5"><a xlink:title=" ">
<polygon fill="white" stroke="#bfbfbf" points="201,-226.5 201,-283.5 289,-283.5 289,-226.5 201,-226.5"/>
<text text-anchor="middle" x="245" y="-271.5" font-family="Helvetica,sans-Serif" font-size="10.00">std::map&lt; K, T &gt;</text>
<polyline fill="none" stroke="#bfbfbf" points="201,-264.5 289,-264.5 "/>
<text text-anchor="middle" x="245" y="-252.5" font-family="Helvetica,sans-Serif" font-size="10.00"> </text>
<polyline fill="none" stroke="#bfbfbf" points="201,-245.5 289,-245.5 "/>
<text text-anchor="middle" x="245" y="-233.5" font-family="Helvetica,sans-Serif" font-size="10.00"> </text>
</a>
</g>
</g>
<!-- Node5&#45;&gt;Node4 -->
<g id="edge6" class="edge">
<title>Node5&#45;&gt;Node4</title>
<path fill="none" stroke="orange" d="M231.51,-216.85C220.74,-188.58 204.58,-149.04 187,-116 179.76,-102.4 176.88,-99.59 168,-87 163.8,-81.04 159.22,-74.79 154.72,-68.78"/>
<polygon fill="orange" stroke="orange" points="228.28,-218.23 235.09,-226.35 234.84,-215.76 228.28,-218.23"/>
<text text-anchor="middle" x="240" y="-90" font-family="Helvetica,sans-Serif" font-size="10.00"> &lt; std::string, JSONProperty &gt;</text>
</g>
<!-- Node6 -->
<g id="node6" class="node">
<title>Node6</title>
<g id="a_node6"><a xlink:title=" ">
<polygon fill="white" stroke="#bfbfbf" points="204.5,-452.5 204.5,-509.5 233.5,-509.5 233.5,-452.5 204.5,-452.5"/>
<text text-anchor="middle" x="219" y="-497.5" font-family="Helvetica,sans-Serif" font-size="10.00">K</text>
<polyline fill="none" stroke="#bfbfbf" points="204.5,-490.5 233.5,-490.5 "/>
<text text-anchor="middle" x="219" y="-478.5" font-family="Helvetica,sans-Serif" font-size="10.00"> </text>
<polyline fill="none" stroke="#bfbfbf" points="204.5,-471.5 233.5,-471.5 "/>
<text text-anchor="middle" x="219" y="-459.5" font-family="Helvetica,sans-Serif" font-size="10.00"> </text>
</a>
</g>
</g>
<!-- Node6&#45;&gt;Node5 -->
<g id="edge7" class="edge">
<title>Node6&#45;&gt;Node5</title>
<path fill="none" stroke="#404040" d="M218.5,-452.49C218.51,-440.1 218.84,-425.29 220,-412 223.46,-372.25 231.06,-327.31 236.98,-295.91"/>
<polygon fill="none" stroke="#404040" points="237.05,-295.53 234.25,-288.89 239.31,-283.75 242.11,-290.39 237.05,-295.53"/>
<text text-anchor="middle" x="234.5" y="-420.5" font-family="Helvetica,sans-Serif" font-size="10.00"> +keys</text>
</g>
<!-- Node7 -->
<g id="node7" class="node">
<title>Node7</title>
<g id="a_node7"><a xlink:title=" ">
<polygon fill="white" stroke="#bfbfbf" points="256.5,-452.5 256.5,-509.5 285.5,-509.5 285.5,-452.5 256.5,-452.5"/>
<text text-anchor="middle" x="271" y="-497.5" font-family="Helvetica,sans-Serif" font-size="10.00">T</text>
<polyline fill="none" stroke="#bfbfbf" points="256.5,-490.5 285.5,-490.5 "/>
<text text-anchor="middle" x="271" y="-478.5" font-family="Helvetica,sans-Serif" font-size="10.00"> </text>
<polyline fill="none" stroke="#bfbfbf" points="256.5,-471.5 285.5,-471.5 "/>
<text text-anchor="middle" x="271" y="-459.5" font-family="Helvetica,sans-Serif" font-size="10.00"> </text>
</a>
</g>
</g>
<!-- Node7&#45;&gt;Node5 -->
<g id="edge8" class="edge">
<title>Node7&#45;&gt;Node5</title>
<path fill="none" stroke="#404040" d="M267.76,-452.08C263.19,-412.72 254.83,-340.69 249.61,-295.75"/>
<polygon fill="none" stroke="#404040" points="249.58,-295.48 244.92,-289.99 248.2,-283.56 252.86,-289.06 249.58,-295.48"/>
<text text-anchor="middle" x="289.5" y="-420.5" font-family="Helvetica,sans-Serif" font-size="10.00"> +elements</text>
</g>
</g>
</svg>
