<?xml version="1.0" encoding="UTF-8" standalone="no"?>
<!DOCTYPE svg PUBLIC "-//W3C//DTD SVG 1.1//EN"
 "http://www.w3.org/Graphics/SVG/1.1/DTD/svg11.dtd">
<!-- Generated by graphviz version 7.0.5 (20221223.1930)
 -->
<!-- Title: HY_CatchmentRealization Pages: 1 -->
<!--zoomable 1075 -->
<svg id="main" version="1.1" xmlns="http://www.w3.org/2000/svg" xmlns:xlink="http://www.w3.org/1999/xlink" xml:space="preserve" onload="init(evt)">
<style type="text/css"><![CDATA[
.edge:hover path { stroke: red; }
.edge:hover polygon { stroke: red; fill: red; }
]]></style>
<script type="text/javascript"><![CDATA[
var edges = document.getElementsByTagName('g');
if (edges && edges.length) {
  for (var i=0;i<edges.length;i++) {
    if (edges[i].id.substr(0,4)=='edge') {
      edges[i].setAttribute('class','edge');
    }
  }
}
]]></script>
        <defs>
                <circle id="rim" cx="0" cy="0" r="7"/>
                <circle id="rim2" cx="0" cy="0" r="3.5"/>
                <g id="zoomPlus">
                        <use xlink:href="#rim" fill="#404040">
                                <set attributeName="fill" to="#808080" begin="zoomplus.mouseover" end="zoomplus.mouseout"/>
                        </use>
                        <path d="M-4,0h8M0,-4v8" fill="none" stroke="white" stroke-width="1.5" pointer-events="none"/>
                </g>
                <g id="zoomMin">
                        <use xlink:href="#rim" fill="#404040">
                                <set attributeName="fill" to="#808080" begin="zoomminus.mouseover" end="zoomminus.mouseout"/>
                        </use>
                        <path d="M-4,0h8" fill="none" stroke="white" stroke-width="1.5" pointer-events="none"/>
                </g>
                <g id="dirArrow">
                        <path fill="none" stroke="white" stroke-width="1.5" d="M0,-3.0v7 M-2.5,-0.5L0,-3.0L2.5,-0.5"/>
                </g>
               <g id="resetDef">
                       <use xlink:href="#rim2" fill="#404040">
                               <set attributeName="fill" to="#808080" begin="reset.mouseover" end="reset.mouseout"/>
                       </use>
               </g>
        </defs>

<script type="text/javascript">
var viewWidth = 981;
var viewHeight = 1075;
var sectionId = 'dynsection-1';
</script>
<script xlink:href="svgpan.js"/>
<svg id="graph" class="graph">
<g id="viewport">
<title>HY_CatchmentRealization</title>
<!-- Node1 -->
<g id="node1" class="node">
<title>Node1</title>
<g id="a_node1"><a xlink:title=" ">
<polygon fill="#999999" stroke="#666666" points="246.5,-440 96.5,-440 96.5,-333 246.5,-333 246.5,-440"/>
<text text-anchor="middle" x="171.5" y="-428" font-family="Helvetica,sans-Serif" font-size="10.00">{HY_CatchmentRealization</text>
<text text-anchor="start" x="104.5" y="-417" font-family="Helvetica,sans-Serif" font-size="10.00">|# id_number</text>
<text text-anchor="start" x="104.5" y="-406" font-family="Helvetica,sans-Serif" font-size="10.00">|+ HY_CatchmentRealization()</text>
<text text-anchor="start" x="104.5" y="-395" font-family="Helvetica,sans-Serif" font-size="10.00">+ HY_CatchmentRealization()</text>
<text text-anchor="start" x="104.5" y="-384" font-family="Helvetica,sans-Serif" font-size="10.00">+ ~HY_CatchmentRealization()</text>
<text text-anchor="start" x="104.5" y="-373" font-family="Helvetica,sans-Serif" font-size="10.00">+ get_response()</text>
<text text-anchor="start" x="104.5" y="-362" font-family="Helvetica,sans-Serif" font-size="10.00"># get_catchment_id()</text>
<text text-anchor="start" x="104.5" y="-351" font-family="Helvetica,sans-Serif" font-size="10.00"># set_catchment_id()</text>
<text text-anchor="middle" x="171.5" y="-340" font-family="Helvetica,sans-Serif" font-size="10.00">}</text>
</a>
</g>
</g>
<!-- Node5 -->
<g id="node5" class="node">
<title>Node5</title>
<g id="a_node5"><a xlink:title=" ">
<polygon fill="white" stroke="#666666" points="432,-284.5 307,-284.5 307,-232.5 432,-232.5 432,-284.5"/>
<text text-anchor="start" x="315" y="-272.5" font-family="Helvetica,sans-Serif" font-size="10.00">{std::shared_ptr&lt; HY</text>
<text text-anchor="middle" x="369.5" y="-261.5" font-family="Helvetica,sans-Serif" font-size="10.00">_CatchmentRealization &gt;</text>
<text text-anchor="start" x="315" y="-250.5" font-family="Helvetica,sans-Serif" font-size="10.00">||+ operator&#45;&gt;()</text>
<text text-anchor="middle" x="369.5" y="-239.5" font-family="Helvetica,sans-Serif" font-size="10.00">}</text>
</a>
</g>
</g>
<!-- Node1&#45;&gt;Node5 -->
<g id="edge5" class="edge">
<title>Node1&#45;&gt;Node5</title>
<path fill="none" stroke="#404040" d="M206.35,-332.55C215.19,-321.99 225.38,-311.78 236.5,-304 253.77,-291.93 274.56,-282.93 294.52,-276.31"/>
<polygon fill="none" stroke="#404040" points="294.48,-276.32 299.02,-270.72 305.94,-272.76 301.4,-278.36 294.48,-276.32"/>
<text text-anchor="middle" x="246.5" y="-307" font-family="Helvetica,sans-Serif" font-size="10.00"> +ptr</text>
</g>
<!-- Node2 -->
<g id="node2" class="node">
<title>Node2</title>
<g id="a_node2"><a xlink:title=" ">
<polygon fill="white" stroke="#666666" points="331.5,-52 225.5,-52 225.5,0 331.5,0 331.5,-52"/>
<text text-anchor="start" x="233.5" y="-40" font-family="Helvetica,sans-Serif" font-size="10.00">{std::shared_ptr&lt; HY</text>
<text text-anchor="middle" x="278.5" y="-29" font-family="Helvetica,sans-Serif" font-size="10.00">_Catchment &gt;</text>
<text text-anchor="start" x="233.5" y="-18" font-family="Helvetica,sans-Serif" font-size="10.00">||+ operator&#45;&gt;()</text>
<text text-anchor="middle" x="278.5" y="-7" font-family="Helvetica,sans-Serif" font-size="10.00">}</text>
</a>
</g>
</g>
<!-- Node2&#45;&gt;Node1 -->
<g id="edge1" class="edge">
<title>Node2&#45;&gt;Node1</title>
<path fill="none" stroke="#404040" d="M255.3,-52.46C229.33,-82.84 188.76,-136.41 172.5,-191 160.1,-232.63 159.91,-281.54 162.79,-319.9"/>
<polygon fill="none" stroke="#404040" points="162.79,-319.88 167.29,-325.51 163.82,-331.84 159.32,-326.2 162.79,-319.88"/>
<text text-anchor="middle" x="218.5" y="-199.5" font-family="Helvetica,sans-Serif" font-size="10.00"> #realized_catchment</text>
</g>
<!-- Node3 -->
<g id="node3" class="node">
<title>Node3</title>
<g id="a_node3"><a xlink:href="class_h_y___catchment.html" target="_top" xlink:title=" ">
<polygon fill="white" stroke="#666666" points="582.5,-173 460.5,-173 460.5,-99 582.5,-99 582.5,-173"/>
<text text-anchor="middle" x="521.5" y="-161" font-family="Helvetica,sans-Serif" font-size="10.00">{HY_Catchment</text>
<text text-anchor="start" x="468.5" y="-150" font-family="Helvetica,sans-Serif" font-size="10.00">||+ HY_Catchment()</text>
<text text-anchor="start" x="468.5" y="-139" font-family="Helvetica,sans-Serif" font-size="10.00">+ HY_Catchment()</text>
<text text-anchor="start" x="468.5" y="-128" font-family="Helvetica,sans-Serif" font-size="10.00">+ ~HY_Catchment()</text>
<text text-anchor="start" x="468.5" y="-117" font-family="Helvetica,sans-Serif" font-size="10.00">+ get_outflow_nexuses()</text>
<text text-anchor="middle" x="521.5" y="-106" font-family="Helvetica,sans-Serif" font-size="10.00">}</text>
</a>
</g>
</g>
<!-- Node3&#45;&gt;Node2 -->
<g id="edge2" class="edge">
<title>Node3&#45;&gt;Node2</title>
<path fill="none" stroke="#404040" d="M460.18,-107.75C424.69,-91.97 380.02,-72.12 343.86,-56.05"/>
<polygon fill="none" stroke="#404040" points="343.74,-56 336.63,-57.21 332.77,-51.12 339.88,-49.9 343.74,-56"/>
<text text-anchor="middle" x="410.5" y="-73" font-family="Helvetica,sans-Serif" font-size="10.00"> +ptr</text>
</g>
<!-- Node4 -->
<g id="node4" class="node">
<title>Node4</title>
<g id="a_node4"><a xlink:href="class_h_y___hydro_feature.html" target="_top" xlink:title=" ">
<polygon fill="white" stroke="#666666" points="845.5,-284.5 731.5,-284.5 731.5,-232.5 845.5,-232.5 845.5,-284.5"/>
<text text-anchor="middle" x="788.5" y="-272.5" font-family="Helvetica,sans-Serif" font-size="10.00">{HY_HydroFeature</text>
<text text-anchor="start" x="739.5" y="-261.5" font-family="Helvetica,sans-Serif" font-size="10.00">||+ HY_HydroFeature()</text>
<text text-anchor="start" x="739.5" y="-250.5" font-family="Helvetica,sans-Serif" font-size="10.00">+ ~HY_HydroFeature()</text>
<text text-anchor="middle" x="788.5" y="-239.5" font-family="Helvetica,sans-Serif" font-size="10.00">}</text>
</a>
</g>
</g>
<!-- Node4&#45;&gt;Node3 -->
<g id="edge3" class="edge">
<title>Node4&#45;&gt;Node3</title>
<path fill="none" stroke="#63b8ff" d="M755,-224.37C741.47,-212.46 725.13,-199.81 708.5,-191 669.09,-170.11 620.6,-156.41 582.88,-148.03"/>
<polygon fill="none" stroke="#63b8ff" points="752.59,-226.9 762.35,-231.03 757.29,-221.72 752.59,-226.9"/>
</g>
<!-- Node5&#45;&gt;Node3 -->
<g id="edge4" class="edge">
<title>Node5&#45;&gt;Node3</title>
<path fill="none" stroke="#404040" d="M377.35,-232.2C382.64,-218.57 390.82,-202.28 402.5,-191 415.43,-178.51 431.77,-168.57 448.15,-160.81"/>
<polygon fill="none" stroke="#404040" points="448.25,-160.77 452.12,-154.68 459.22,-155.9 455.36,-161.99 448.25,-160.77"/>
<text text-anchor="middle" x="428.5" y="-199.5" font-family="Helvetica,sans-Serif" font-size="10.00"> +realization</text>
</g>
<!-- Node6 -->
<g id="node6" class="node">
<title>Node6</title>
<g id="a_node6"><a xlink:title=" ">
<polygon fill="white" stroke="#666666" points="381.5,-638 275.5,-638 275.5,-597 381.5,-597 381.5,-638"/>
<text text-anchor="middle" x="328.5" y="-626" font-family="Helvetica,sans-Serif" font-size="10.00">{std::shared_ptr&lt; T &gt;</text>
<text text-anchor="start" x="283.5" y="-615" font-family="Helvetica,sans-Serif" font-size="10.00">||+ operator&#45;&gt;()</text>
<text text-anchor="middle" x="328.5" y="-604" font-family="Helvetica,sans-Serif" font-size="10.00">}</text>
</a>
</g>
</g>
<!-- Node6&#45;&gt;Node2 -->
<g id="edge17" class="edge">
<title>Node6&#45;&gt;Node2</title>
<path fill="none" stroke="orange" d="M305.6,-587.44C292.44,-567.84 278.5,-540.76 278.5,-514 278.5,-514 278.5,-514 278.5,-135 278.5,-106.69 278.5,-74.2 278.5,-52.31"/>
<polygon fill="orange" stroke="orange" points="302.63,-589.3 311.26,-595.45 308.35,-585.27 302.63,-589.3"/>
<text text-anchor="middle" x="321.5" y="-307" font-family="Helvetica,sans-Serif" font-size="10.00"> &lt; HY_Catchment &gt;</text>
</g>
<!-- Node6&#45;&gt;Node5 -->
<g id="edge6" class="edge">
<title>Node6&#45;&gt;Node5</title>
<path fill="none" stroke="orange" d="M332.82,-585.5C340.32,-530.92 355.86,-414.06 365.5,-315 366.45,-305.19 367.28,-294.39 367.94,-284.94"/>
<polygon fill="orange" stroke="orange" points="329.38,-584.9 331.47,-595.28 336.31,-585.86 329.38,-584.9"/>
<text text-anchor="middle" x="416" y="-461" font-family="Helvetica,sans-Serif" font-size="10.00"> &lt; HY_CatchmentRealization &gt;</text>
</g>
<!-- Node13 -->
<g id="node13" class="node">
<title>Node13</title>
<g id="a_node13"><a xlink:title=" ">
<polygon fill="white" stroke="#666666" points="216.5,-539 60.5,-539 60.5,-487 216.5,-487 216.5,-539"/>
<text text-anchor="start" x="68.5" y="-527" font-family="Helvetica,sans-Serif" font-size="10.00">{std::shared_ptr&lt; data</text>
<text text-anchor="middle" x="138.5" y="-516" font-family="Helvetica,sans-Serif" font-size="10.00">_access::GenericDataProvider &gt;</text>
<text text-anchor="start" x="68.5" y="-505" font-family="Helvetica,sans-Serif" font-size="10.00">||+ operator&#45;&gt;()</text>
<text text-anchor="middle" x="138.5" y="-494" font-family="Helvetica,sans-Serif" font-size="10.00">}</text>
</a>
</g>
</g>
<!-- Node6&#45;&gt;Node13 -->
<g id="edge22" class="edge">
<title>Node6&#45;&gt;Node13</title>
<path fill="none" stroke="orange" d="M264.1,-612.23C215.77,-607.53 155.32,-597.97 139.5,-579 130.54,-568.25 130.02,-552.67 131.87,-539.45"/>
<polygon fill="orange" stroke="orange" points="263.68,-615.7 273.96,-613.13 264.32,-608.73 263.68,-615.7"/>
<text text-anchor="start" x="139.5" y="-571" font-family="Helvetica,sans-Serif" font-size="10.00"> &lt; data_access::GenericData</text>
<text text-anchor="middle" x="202" y="-560" font-family="Helvetica,sans-Serif" font-size="10.00">Provider &gt;</text>
</g>
<!-- Node7 -->
<g id="node7" class="node">
<title>Node7</title>
<g id="a_node7"><a xlink:title=" ">
<polygon fill="white" stroke="#666666" points="595,-781 566,-781 566,-751 595,-751 595,-781"/>
<text text-anchor="middle" x="580.5" y="-769" font-family="Helvetica,sans-Serif" font-size="10.00">{T</text>
<text text-anchor="middle" x="580.5" y="-758" font-family="Helvetica,sans-Serif" font-size="10.00">||}</text>
</a>
</g>
</g>
<!-- Node7&#45;&gt;Node6 -->
<g id="edge7" class="edge">
<title>Node7&#45;&gt;Node6</title>
<path fill="none" stroke="#404040" d="M565.86,-756.49C529.13,-735.14 431.85,-678.58 373.86,-644.87"/>
<polygon fill="none" stroke="#404040" points="373.97,-644.94 366.78,-645.38 363.6,-638.91 370.8,-638.46 373.97,-644.94"/>
<text text-anchor="middle" x="420.5" y="-659" font-family="Helvetica,sans-Serif" font-size="10.00"> +ptr</text>
</g>
<!-- Node11 -->
<g id="node11" class="node">
<title>Node11</title>
<g id="a_node11"><a xlink:title=" ">
<polygon fill="white" stroke="#666666" points="754,-401.5 667,-401.5 667,-371.5 754,-371.5 754,-401.5"/>
<text text-anchor="middle" x="710.5" y="-389.5" font-family="Helvetica,sans-Serif" font-size="10.00">{std::vector&lt; T &gt;</text>
<text text-anchor="middle" x="710.5" y="-378.5" font-family="Helvetica,sans-Serif" font-size="10.00">||}</text>
</a>
</g>
</g>
<!-- Node7&#45;&gt;Node11 -->
<g id="edge13" class="edge">
<title>Node7&#45;&gt;Node11</title>
<path fill="none" stroke="#404040" d="M585.44,-750.66C604.82,-694.37 675.91,-487.95 701.36,-414.04"/>
<polygon fill="none" stroke="#404040" points="701.36,-414.05 699.53,-407.07 705.26,-402.7 707.09,-409.68 701.36,-414.05"/>
<text text-anchor="middle" x="675" y="-565.5" font-family="Helvetica,sans-Serif" font-size="10.00"> +elements</text>
</g>
<!-- Node8 -->
<g id="node8" class="node">
<title>Node8</title>
<g id="a_node8"><a xlink:title=" ">
<polygon fill="white" stroke="#666666" points="597.5,-401.5 535.5,-401.5 535.5,-371.5 597.5,-371.5 597.5,-401.5"/>
<text text-anchor="middle" x="566.5" y="-389.5" font-family="Helvetica,sans-Serif" font-size="10.00">{std::string</text>
<text text-anchor="middle" x="566.5" y="-378.5" font-family="Helvetica,sans-Serif" font-size="10.00">||}</text>
</a>
</g>
</g>
<!-- Node8&#45;&gt;Node3 -->
<g id="edge8" class="edge">
<title>Node8&#45;&gt;Node3</title>
<path fill="none" stroke="#404040" d="M547.11,-371.21C525.38,-353.86 491.39,-322.37 477.5,-286 464.8,-252.75 476.89,-214.18 491.58,-184.61"/>
<polygon fill="none" stroke="#404040" points="491.5,-184.76 490.76,-177.59 497.1,-174.15 497.84,-181.32 491.5,-184.76"/>
<text text-anchor="middle" x="527" y="-278" font-family="Helvetica,sans-Serif" font-size="10.00"> &#45;conjoint_catchment</text>
<text text-anchor="middle" x="527" y="-267" font-family="Helvetica,sans-Serif" font-size="10.00">&#45;containing_catchment</text>
<text text-anchor="middle" x="527" y="-256" font-family="Helvetica,sans-Serif" font-size="10.00">&#45;id</text>
<text text-anchor="middle" x="527" y="-245" font-family="Helvetica,sans-Serif" font-size="10.00">&#45;lower_catchment</text>
<text text-anchor="middle" x="527" y="-234" font-family="Helvetica,sans-Serif" font-size="10.00">&#45;upper_catchment</text>
</g>
<!-- Node10 -->
<g id="node10" class="node">
<title>Node10</title>
<g id="a_node10"><a xlink:title=" ">
<polygon fill="white" stroke="#666666" points="973,-273.5 864,-273.5 864,-243.5 973,-243.5 973,-273.5"/>
<text text-anchor="middle" x="918.5" y="-261.5" font-family="Helvetica,sans-Serif" font-size="10.00">{std::vector&lt; Nexus &gt;</text>
<text text-anchor="middle" x="918.5" y="-250.5" font-family="Helvetica,sans-Serif" font-size="10.00">||}</text>
</a>
</g>
</g>
<!-- Node8&#45;&gt;Node10 -->
<g id="edge11" class="edge">
<title>Node8&#45;&gt;Node10</title>
<path fill="none" stroke="#404040" d="M573.82,-371.29C584.51,-352.23 606.32,-319.01 635.5,-304 678.92,-281.66 807.04,-297.48 854.5,-286 861.99,-284.19 869.74,-281.62 877.15,-278.8"/>
<polygon fill="none" stroke="#404040" points="877.25,-278.76 881.29,-272.79 888.35,-274.22 884.31,-280.19 877.25,-278.76"/>
<text text-anchor="middle" x="660" y="-307" font-family="Helvetica,sans-Serif" font-size="10.00"> +elements</text>
</g>
<!-- Node12 -->
<g id="node12" class="node">
<title>Node12</title>
<g id="a_node12"><a xlink:title=" ">
<polygon fill="white" stroke="#666666" points="713.5,-273.5 585.5,-273.5 585.5,-243.5 713.5,-243.5 713.5,-273.5"/>
<text text-anchor="middle" x="649.5" y="-261.5" font-family="Helvetica,sans-Serif" font-size="10.00">{std::vector&lt; Catchment &gt;</text>
<text text-anchor="middle" x="649.5" y="-250.5" font-family="Helvetica,sans-Serif" font-size="10.00">||}</text>
</a>
</g>
</g>
<!-- Node8&#45;&gt;Node12 -->
<g id="edge15" class="edge">
<title>Node8&#45;&gt;Node12</title>
<path fill="none" stroke="#404040" d="M562.56,-371.06C558.71,-353.78 555.07,-324.6 567.5,-304 573.46,-294.13 582.45,-286.3 592.32,-280.15"/>
<polygon fill="none" stroke="#404040" points="592.41,-280.1 595.75,-273.71 602.93,-274.33 599.59,-280.72 592.41,-280.1"/>
<text text-anchor="middle" x="592" y="-307" font-family="Helvetica,sans-Serif" font-size="10.00"> +elements</text>
</g>
<!-- Node9 -->
<g id="node9" class="node">
<title>Node9</title>
<g id="a_node9"><a xlink:title=" ">
<polygon fill="white" stroke="#666666" points="614.5,-533.5 518.5,-533.5 518.5,-492.5 614.5,-492.5 614.5,-533.5"/>
<text text-anchor="start" x="526.5" y="-521.5" font-family="Helvetica,sans-Serif" font-size="10.00">{std::basic_string&lt;</text>
<text text-anchor="middle" x="566.5" y="-510.5" font-family="Helvetica,sans-Serif" font-size="10.00"> Char &gt;</text>
<text text-anchor="middle" x="566.5" y="-499.5" font-family="Helvetica,sans-Serif" font-size="10.00">||}</text>
</a>
</g>
</g>
<!-- Node9&#45;&gt;Node8 -->
<g id="edge9" class="edge">
<title>Node9&#45;&gt;Node8</title>
<path fill="none" stroke="#63b8ff" d="M566.5,-481.02C566.5,-455.65 566.5,-420.91 566.5,-401.71"/>
<polygon fill="none" stroke="#63b8ff" points="563,-480.76 566.5,-490.76 570,-480.76 563,-480.76"/>
</g>
<!-- Node10&#45;&gt;Node3 -->
<g id="edge10" class="edge">
<title>Node10&#45;&gt;Node3</title>
<path fill="none" stroke="#404040" d="M884.78,-243.07C875.06,-239.04 864.4,-234.74 854.5,-231 803.09,-211.59 790.2,-206.57 737.5,-191 690.63,-177.16 637.38,-163.82 595.48,-153.86"/>
<polygon fill="none" stroke="#404040" points="595.41,-153.84 588.65,-156.36 583.73,-151.09 590.49,-148.57 595.41,-153.84"/>
<text text-anchor="middle" x="823.5" y="-205" font-family="Helvetica,sans-Serif" font-size="10.00"> &#45;inflows</text>
<text text-anchor="middle" x="823.5" y="-194" font-family="Helvetica,sans-Serif" font-size="10.00">&#45;outflows</text>
</g>
<!-- Node11&#45;&gt;Node10 -->
<g id="edge12" class="edge">
<title>Node11&#45;&gt;Node10</title>
<path fill="none" stroke="orange" d="M744.17,-365.1C786.36,-339.55 857.61,-296.39 894.6,-273.98"/>
<polygon fill="orange" stroke="orange" points="742.39,-362.09 735.65,-370.26 746.02,-368.07 742.39,-362.09"/>
<text text-anchor="middle" x="862" y="-307" font-family="Helvetica,sans-Serif" font-size="10.00"> &lt; Nexus &gt;</text>
</g>
<!-- Node11&#45;&gt;Node12 -->
<g id="edge16" class="edge">
<title>Node11&#45;&gt;Node12</title>
<path fill="none" stroke="orange" d="M706.73,-360.14C703.53,-343.47 697.91,-321.57 688.5,-304 682.49,-292.77 673.15,-281.98 665.12,-273.84"/>
<polygon fill="orange" stroke="orange" points="703.24,-360.48 708.4,-369.73 710.13,-359.28 703.24,-360.48"/>
<text text-anchor="middle" x="726" y="-307" font-family="Helvetica,sans-Serif" font-size="10.00"> &lt; Catchment &gt;</text>
</g>
<!-- Node12&#45;&gt;Node3 -->
<g id="edge14" class="edge">
<title>Node12&#45;&gt;Node3</title>
<path fill="none" stroke="#404040" d="M634.31,-243.2C618.37,-228.19 592.46,-203.8 569.5,-182.18"/>
<polygon fill="none" stroke="#404040" points="569.6,-182.28 562.49,-181.08 560.86,-174.06 567.97,-175.26 569.6,-182.28"/>
<text text-anchor="middle" x="652.5" y="-199.5" font-family="Helvetica,sans-Serif" font-size="10.00"> &#45;contained_catchments</text>
</g>
<!-- Node13&#45;&gt;Node1 -->
<g id="edge18" class="edge">
<title>Node13&#45;&gt;Node1</title>
<path fill="none" stroke="#404040" d="M145.26,-486.51C147.87,-476.63 151,-464.84 154.17,-452.89"/>
<polygon fill="none" stroke="#404040" points="154.16,-452.92 151.83,-446.1 157.23,-441.32 159.56,-448.15 154.16,-452.92"/>
<text text-anchor="middle" x="171" y="-461" font-family="Helvetica,sans-Serif" font-size="10.00"> #forcing</text>
</g>
<!-- Node14 -->
<g id="node14" class="node">
<title>Node14</title>
<g id="a_node14"><a xlink:href="classdata__access_1_1_generic_data_provider.html" target="_top" xlink:title=" ">
<polygon fill="white" stroke="#666666" points="162.5,-638 28.5,-638 28.5,-597 162.5,-597 162.5,-638"/>
<text text-anchor="start" x="36.5" y="-626" font-family="Helvetica,sans-Serif" font-size="10.00">{data_access::GenericData</text>
<text text-anchor="middle" x="95.5" y="-615" font-family="Helvetica,sans-Serif" font-size="10.00">Provider</text>
<text text-anchor="middle" x="95.5" y="-604" font-family="Helvetica,sans-Serif" font-size="10.00">||}</text>
</a>
</g>
</g>
<!-- Node14&#45;&gt;Node13 -->
<g id="edge19" class="edge">
<title>Node14&#45;&gt;Node13</title>
<path fill="none" stroke="#404040" d="M92.26,-596.73C91.15,-584.78 91.29,-569.49 96.5,-557 97.54,-554.52 98.79,-552.1 100.21,-549.76"/>
<polygon fill="none" stroke="#404040" points="100.18,-549.79 100.51,-542.59 107.28,-540.12 106.95,-547.33 100.18,-549.79"/>
<text text-anchor="middle" x="106.5" y="-565.5" font-family="Helvetica,sans-Serif" font-size="10.00"> +ptr</text>
</g>
<!-- Node15 -->
<g id="node15" class="node">
<title>Node15</title>
<g id="a_node15"><a xlink:href="classdata__access_1_1_data_provider.html" target="_top" xlink:title=" ">
<polygon fill="white" stroke="#666666" points="191,-847 0,-847 0,-685 191,-685 191,-847"/>
<text text-anchor="start" x="8" y="-835" font-family="Helvetica,sans-Serif" font-size="10.00">{data_access::DataProvider</text>
<text text-anchor="middle" x="95.5" y="-824" font-family="Helvetica,sans-Serif" font-size="10.00">&lt; double, CatchmentAggrDataSelector &gt;</text>
<text text-anchor="start" x="8" y="-813" font-family="Helvetica,sans-Serif" font-size="10.00">||+ ~DataProvider()</text>
<text text-anchor="start" x="8" y="-802" font-family="Helvetica,sans-Serif" font-size="10.00">+ get_avaliable_variable</text>
<text text-anchor="start" x="8" y="-791" font-family="Helvetica,sans-Serif" font-size="10.00">_names()</text>
<text text-anchor="start" x="8" y="-780" font-family="Helvetica,sans-Serif" font-size="10.00">+ get_data_start_time()</text>
<text text-anchor="start" x="8" y="-769" font-family="Helvetica,sans-Serif" font-size="10.00">+ get_data_stop_time()</text>
<text text-anchor="start" x="8" y="-758" font-family="Helvetica,sans-Serif" font-size="10.00">+ record_duration()</text>
<text text-anchor="start" x="8" y="-747" font-family="Helvetica,sans-Serif" font-size="10.00">+ get_ts_index_for_time()</text>
<text text-anchor="start" x="8" y="-736" font-family="Helvetica,sans-Serif" font-size="10.00">+ get_value()</text>
<text text-anchor="start" x="8" y="-725" font-family="Helvetica,sans-Serif" font-size="10.00">+ get_values()</text>
<text text-anchor="start" x="8" y="-714" font-family="Helvetica,sans-Serif" font-size="10.00">+ is_property_sum_over</text>
<text text-anchor="start" x="8" y="-703" font-family="Helvetica,sans-Serif" font-size="10.00">_time_step()</text>
<text text-anchor="middle" x="95.5" y="-692" font-family="Helvetica,sans-Serif" font-size="10.00">}</text>
</a>
</g>
</g>
<!-- Node15&#45;&gt;Node14 -->
<g id="edge20" class="edge">
<title>Node15&#45;&gt;Node14</title>
<path fill="none" stroke="#63b8ff" d="M95.5,-673.61C95.5,-660.37 95.5,-647.97 95.5,-638.3"/>
<polygon fill="none" stroke="#63b8ff" points="92,-673.38 95.5,-683.38 99,-673.38 92,-673.38"/>
</g>
<!-- Node16 -->
<g id="node16" class="node">
<title>Node16</title>
<g id="a_node16"><a xlink:href="classdata__access_1_1_data_provider.html" target="_top" xlink:title=" ">
<polygon fill="white" stroke="#666666" points="167,-1067 24,-1067 24,-905 167,-905 167,-1067"/>
<text text-anchor="start" x="32" y="-1055" font-family="Helvetica,sans-Serif" font-size="10.00">{data_access::DataProvider</text>
<text text-anchor="middle" x="95.5" y="-1044" font-family="Helvetica,sans-Serif" font-size="10.00">&lt; data_type, selection_type &gt;</text>
<text text-anchor="start" x="32" y="-1033" font-family="Helvetica,sans-Serif" font-size="10.00">||+ ~DataProvider()</text>
<text text-anchor="start" x="32" y="-1022" font-family="Helvetica,sans-Serif" font-size="10.00">+ get_avaliable_variable</text>
<text text-anchor="start" x="32" y="-1011" font-family="Helvetica,sans-Serif" font-size="10.00">_names()</text>
<text text-anchor="start" x="32" y="-1000" font-family="Helvetica,sans-Serif" font-size="10.00">+ get_data_start_time()</text>
<text text-anchor="start" x="32" y="-989" font-family="Helvetica,sans-Serif" font-size="10.00">+ get_data_stop_time()</text>
<text text-anchor="start" x="32" y="-978" font-family="Helvetica,sans-Serif" font-size="10.00">+ record_duration()</text>
<text text-anchor="start" x="32" y="-967" font-family="Helvetica,sans-Serif" font-size="10.00">+ get_ts_index_for_time()</text>
<text text-anchor="start" x="32" y="-956" font-family="Helvetica,sans-Serif" font-size="10.00">+ get_value()</text>
<text text-anchor="start" x="32" y="-945" font-family="Helvetica,sans-Serif" font-size="10.00">+ get_values()</text>
<text text-anchor="start" x="32" y="-934" font-family="Helvetica,sans-Serif" font-size="10.00">+ is_property_sum_over</text>
<text text-anchor="start" x="32" y="-923" font-family="Helvetica,sans-Serif" font-size="10.00">_time_step()</text>
<text text-anchor="middle" x="95.5" y="-912" font-family="Helvetica,sans-Serif" font-size="10.00">}</text>
</a>
</g>
</g>
<!-- Node16&#45;&gt;Node15 -->
<g id="edge21" class="edge">
<title>Node16&#45;&gt;Node15</title>
<path fill="none" stroke="orange" d="M95.5,-893.68C95.5,-878.33 95.5,-862.49 95.5,-847.44"/>
<polygon fill="orange" stroke="orange" points="92,-893.24 95.5,-903.24 99,-893.24 92,-893.24"/>
<text text-anchor="start" x="95.5" y="-879" font-family="Helvetica,sans-Serif" font-size="10.00"> &lt; double, CatchmentAggrData</text>
<text text-anchor="middle" x="162" y="-868" font-family="Helvetica,sans-Serif" font-size="10.00">Selector &gt;</text>
</g>
</g>
</svg>
        <g id="navigator" transform="translate(0 0)" fill="#404254">
                <rect fill="#f2f5e9" fill-opacity="0.5" stroke="#606060" stroke-width=".5" x="0" y="0" width="60" height="60"/>
                <use id="zoomplus" xlink:href="#zoomPlus" x="17" y="9" onmousedown="handleZoom(evt,'in')"/>
                <use id="zoomminus" xlink:href="#zoomMin" x="42" y="9" onmousedown="handleZoom(evt,'out')"/>
                <use id="reset" xlink:href="#resetDef" x="30" y="36" onmousedown="handleReset()"/>
                <g id="arrowUp" xlink:href="#dirArrow" transform="translate(30 24)" onmousedown="handlePan(0,-1)">
                  <use xlink:href="#rim" fill="#404040">
                        <set attributeName="fill" to="#808080" begin="arrowUp.mouseover" end="arrowUp.mouseout"/>
                  </use>
                  <path fill="none" stroke="white" stroke-width="1.5" d="M0,-3.0v7 M-2.5,-0.5L0,-3.0L2.5,-0.5"/>
                </g>
                <g id="arrowRight" xlink:href="#dirArrow" transform="rotate(90) translate(36 -43)" onmousedown="handlePan(1,0)">
                  <use xlink:href="#rim" fill="#404040">
                        <set attributeName="fill" to="#808080" begin="arrowRight.mouseover" end="arrowRight.mouseout"/>
                  </use>
                  <path fill="none" stroke="white" stroke-width="1.5" d="M0,-3.0v7 M-2.5,-0.5L0,-3.0L2.5,-0.5"/>
                </g>
                <g id="arrowDown" xlink:href="#dirArrow" transform="rotate(180) translate(-30 -48)" onmousedown="handlePan(0,1)">
                  <use xlink:href="#rim" fill="#404040">
                        <set attributeName="fill" to="#808080" begin="arrowDown.mouseover" end="arrowDown.mouseout"/>
                  </use>
                  <path fill="none" stroke="white" stroke-width="1.5" d="M0,-3.0v7 M-2.5,-0.5L0,-3.0L2.5,-0.5"/>
                </g>
                <g id="arrowLeft" xlink:href="#dirArrow" transform="rotate(270) translate(-36 17)" onmousedown="handlePan(-1,0)">
                  <use xlink:href="#rim" fill="#404040">
                        <set attributeName="fill" to="#808080" begin="arrowLeft.mouseover" end="arrowLeft.mouseout"/>
                  </use>
                  <path fill="none" stroke="white" stroke-width="1.5" d="M0,-3.0v7 M-2.5,-0.5L0,-3.0L2.5,-0.5"/>
                </g>
        </g>
        <svg viewBox="0 0 15 15" width="100%" height="30px" preserveAspectRatio="xMaxYMin meet">
         <g id="arrow_out" transform="scale(0.3 0.3)">
          <a xlink:href="class_h_y___catchment_realization__coll__graph_org.svg" target="_base">
           <rect id="button" ry="5" rx="5" y="6" x="6" height="38" width="38"
                fill="#f2f5e9" fill-opacity="0.5" stroke="#606060" stroke-width="1.0"/>
           <path id="arrow"
             d="M 11.500037,31.436501 C 11.940474,20.09759 22.043105,11.32322 32.158766,21.979434 L 37.068811,17.246167 C 37.068811,17.246167 37.088388,32 37.088388,32 L 22.160133,31.978069 C 22.160133,31.978069 26.997745,27.140456 26.997745,27.140456 C 18.528582,18.264221 13.291696,25.230495 11.500037,31.436501 z"
             style="fill:#404040;"/>
          </a>
         </g>
        </svg>
</svg>
