<?xml version="1.0" encoding="UTF-8" standalone="no"?>
<!DOCTYPE svg PUBLIC "-//W3C//DTD SVG 1.1//EN"
 "http://www.w3.org/Graphics/SVG/1.1/DTD/svg11.dtd">
<!-- Generated by graphviz version 3.0.0 (20221109.1736)
 -->
<!-- Title: realization::Formulation Pages: 1 -->
<svg width="211pt" height="453pt"
 viewBox="0.00 0.00 210.50 453.00" xmlns="http://www.w3.org/2000/svg" xmlns:xlink="http://www.w3.org/1999/xlink">
<g id="graph0" class="graph" transform="scale(1 1) rotate(0) translate(4 449)">
<title>realization::Formulation</title>
<polygon fill="white" stroke="transparent" points="-4,4 -4,-449 206.5,-449 206.5,4 -4,4"/>
<!-- Node1 -->
<g id="node1" class="node">
<title>Node1</title>
<g id="a_node1"><a xlink:title=" ">
<polygon fill="#bfbfbf" stroke="black" points="1.5,-0.5 1.5,-200.5 138.5,-200.5 138.5,-0.5 1.5,-0.5"/>
<text text-anchor="middle" x="70" y="-188.5" font-family="Helvetica,sans-Serif" font-size="10.00">realization::Formulation</text>
<polyline fill="none" stroke="black" points="1.5,-181.5 138.5,-181.5 "/>
<text text-anchor="middle" x="70" y="-169.5" font-family="Helvetica,sans-Serif" font-size="10.00"> </text>
<polyline fill="none" stroke="black" points="1.5,-162.5 138.5,-162.5 "/>
<text text-anchor="start" x="9.5" y="-150.5" font-family="Helvetica,sans-Serif" font-size="10.00">+ Formulation()</text>
<text text-anchor="start" x="9.5" y="-139.5" font-family="Helvetica,sans-Serif" font-size="10.00">+ ~Formulation()</text>
<text text-anchor="start" x="9.5" y="-128.5" font-family="Helvetica,sans-Serif" font-size="10.00">+ get_formulation_type()</text>
<text text-anchor="start" x="9.5" y="-117.5" font-family="Helvetica,sans-Serif" font-size="10.00">+ get_response()</text>
<text text-anchor="start" x="9.5" y="-106.5" font-family="Helvetica,sans-Serif" font-size="10.00">+ add_time()</text>
<text text-anchor="start" x="9.5" y="-95.5" font-family="Helvetica,sans-Serif" font-size="10.00">+ get_id()</text>
<text text-anchor="start" x="9.5" y="-84.5" font-family="Helvetica,sans-Serif" font-size="10.00">+ get_output_header_line()</text>
<text text-anchor="start" x="9.5" y="-73.5" font-family="Helvetica,sans-Serif" font-size="10.00">+ get_output_line_for</text>
<text text-anchor="start" x="9.5" y="-62.5" font-family="Helvetica,sans-Serif" font-size="10.00">_timestep()</text>
<text text-anchor="start" x="9.5" y="-51.5" font-family="Helvetica,sans-Serif" font-size="10.00">+ create_formulation()</text>
<text text-anchor="start" x="9.5" y="-40.5" font-family="Helvetica,sans-Serif" font-size="10.00">+ create_formulation()</text>
<text text-anchor="start" x="9.5" y="-29.5" font-family="Helvetica,sans-Serif" font-size="10.00"># get_required_parameters()</text>
<text text-anchor="start" x="9.5" y="-18.5" font-family="Helvetica,sans-Serif" font-size="10.00"># interpret_parameters()</text>
<text text-anchor="start" x="9.5" y="-7.5" font-family="Helvetica,sans-Serif" font-size="10.00"># validate_parameters()</text>
</a>
</g>
</g>
<!-- Node2 -->
<g id="node2" class="node">
<title>Node2</title>
<g id="a_node2"><a xlink:href="classrealization_1_1_et___aware.html" target="_top" xlink:title="Interface for type that is aware of parameters for evapotranspiration in certain calculations,...">
<polygon fill="white" stroke="black" points="0,-248.5 0,-338.5 108,-338.5 108,-248.5 0,-248.5"/>
<text text-anchor="middle" x="54" y="-326.5" font-family="Helvetica,sans-Serif" font-size="10.00">realization::Et_Aware</text>
<polyline fill="none" stroke="black" points="0,-319.5 108,-319.5 "/>
<text text-anchor="middle" x="54" y="-307.5" font-family="Helvetica,sans-Serif" font-size="10.00"> </text>
<polyline fill="none" stroke="black" points="0,-300.5 108,-300.5 "/>
<text text-anchor="start" x="8" y="-288.5" font-family="Helvetica,sans-Serif" font-size="10.00">+ Et_Aware()</text>
<text text-anchor="start" x="8" y="-277.5" font-family="Helvetica,sans-Serif" font-size="10.00">+ ~Et_Aware()</text>
<text text-anchor="start" x="8" y="-266.5" font-family="Helvetica,sans-Serif" font-size="10.00">+ is_et_params_set()</text>
<text text-anchor="start" x="8" y="-255.5" font-family="Helvetica,sans-Serif" font-size="10.00">+ set_et_params()</text>
</a>
</g>
</g>
<!-- Node2&#45;&gt;Node1 -->
<g id="edge1" class="edge">
<title>Node2&#45;&gt;Node1</title>
<path fill="none" stroke="midnightblue" d="M58.55,-238.15C59.54,-226.39 60.61,-213.59 61.69,-200.71"/>
<polygon fill="none" stroke="midnightblue" points="55.06,-237.94 57.71,-248.2 62.03,-238.53 55.06,-237.94"/>
</g>
<!-- Node3 -->
<g id="node3" class="node">
<title>Node3</title>
<g id="a_node3"><a xlink:title=" ">
<polygon fill="white" stroke="black" points="126.5,-265 126.5,-322 185.5,-322 185.5,-265 126.5,-265"/>
<text text-anchor="middle" x="156" y="-310" font-family="Helvetica,sans-Serif" font-size="10.00">std::string</text>
<polyline fill="none" stroke="black" points="126.5,-303 185.5,-303 "/>
<text text-anchor="middle" x="156" y="-291" font-family="Helvetica,sans-Serif" font-size="10.00"> </text>
<polyline fill="none" stroke="black" points="126.5,-284 185.5,-284 "/>
<text text-anchor="middle" x="156" y="-272" font-family="Helvetica,sans-Serif" font-size="10.00"> </text>
</a>
</g>
</g>
<!-- Node3&#45;&gt;Node1 -->
<g id="edge2" class="edge">
<title>Node3&#45;&gt;Node1</title>
<path fill="none" stroke="#404040" d="M143.49,-264.73C136.97,-250.24 128.51,-231.46 119.67,-211.82"/>
<polygon fill="none" stroke="#404040" points="119.66,-211.79 113.55,-207.96 114.73,-200.85 120.84,-204.68 119.66,-211.79"/>
<text text-anchor="middle" x="133" y="-222" font-family="Helvetica,sans-Serif" font-size="10.00"> #id</text>
</g>
<!-- Node4 -->
<g id="node4" class="node">
<title>Node4</title>
<g id="a_node4"><a xlink:title=" ">
<polygon fill="white" stroke="black" points="109.5,-376.5 109.5,-444.5 202.5,-444.5 202.5,-376.5 109.5,-376.5"/>
<text text-anchor="start" x="117.5" y="-432.5" font-family="Helvetica,sans-Serif" font-size="10.00">std::basic_string&lt;</text>
<text text-anchor="middle" x="156" y="-421.5" font-family="Helvetica,sans-Serif" font-size="10.00"> Char &gt;</text>
<polyline fill="none" stroke="black" points="109.5,-414.5 202.5,-414.5 "/>
<text text-anchor="middle" x="156" y="-402.5" font-family="Helvetica,sans-Serif" font-size="10.00"> </text>
<polyline fill="none" stroke="black" points="109.5,-395.5 202.5,-395.5 "/>
<text text-anchor="middle" x="156" y="-383.5" font-family="Helvetica,sans-Serif" font-size="10.00"> </text>
</a>
</g>
</g>
<!-- Node4&#45;&gt;Node3 -->
<g id="edge3" class="edge">
<title>Node4&#45;&gt;Node3</title>
<path fill="none" stroke="midnightblue" d="M156,-365.87C156,-351.23 156,-335.33 156,-322.25"/>
<polygon fill="none" stroke="midnightblue" points="152.5,-366.24 156,-376.24 159.5,-366.24 152.5,-366.24"/>
</g>
</g>
</svg>
