<?xml version="1.0" encoding="UTF-8" standalone="no"?>
<!DOCTYPE svg PUBLIC "-//W3C//DTD SVG 1.1//EN"
 "http://www.w3.org/Graphics/SVG/1.1/DTD/svg11.dtd">
<!-- Generated by graphviz version 7.0.5 (20221223.1930)
 -->
<!-- Title: HY_InteriorCatchment Pages: 1 -->
<svg width="922pt" height="973pt"
 viewBox="0.00 0.00 922.00 973.00" xmlns="http://www.w3.org/2000/svg" xmlns:xlink="http://www.w3.org/1999/xlink">
<g id="graph0" class="graph" transform="scale(1 1) rotate(0) translate(4 969)">
<title>HY_InteriorCatchment</title>
<!-- Node1 -->
<g id="node1" class="node">
<title>Node1</title>
<g id="a_node1"><a xlink:title=" ">
<polygon fill="#999999" stroke="#666666" points="319.5,-305 186.5,-305 186.5,-253 319.5,-253 319.5,-305"/>
<text text-anchor="middle" x="253" y="-293" font-family="Helvetica,sans-Serif" font-size="10.00">{HY_InteriorCatchment</text>
<text text-anchor="start" x="194.5" y="-282" font-family="Helvetica,sans-Serif" font-size="10.00">||+ HY_InteriorCatchment()</text>
<text text-anchor="start" x="194.5" y="-271" font-family="Helvetica,sans-Serif" font-size="10.00">+ ~HY_InteriorCatchment()</text>
<text text-anchor="middle" x="253" y="-260" font-family="Helvetica,sans-Serif" font-size="10.00">}</text>
</a>
</g>
</g>
<!-- Node2 -->
<g id="node2" class="node">
<title>Node2</title>
<g id="a_node2"><a xlink:href="class_h_y___catchment.html" target="_top" xlink:title=" ">
<polygon fill="white" stroke="#666666" points="383,-437 261,-437 261,-363 383,-363 383,-437"/>
<text text-anchor="middle" x="322" y="-425" font-family="Helvetica,sans-Serif" font-size="10.00">{HY_Catchment</text>
<text text-anchor="start" x="269" y="-414" font-family="Helvetica,sans-Serif" font-size="10.00">||+ HY_Catchment()</text>
<text text-anchor="start" x="269" y="-403" font-family="Helvetica,sans-Serif" font-size="10.00">+ HY_Catchment()</text>
<text text-anchor="start" x="269" y="-392" font-family="Helvetica,sans-Serif" font-size="10.00">+ ~HY_Catchment()</text>
<text text-anchor="start" x="269" y="-381" font-family="Helvetica,sans-Serif" font-size="10.00">+ get_outflow_nexuses()</text>
<text text-anchor="middle" x="322" y="-370" font-family="Helvetica,sans-Serif" font-size="10.00">}</text>
</a>
</g>
</g>
<!-- Node2&#45;&gt;Node1 -->
<g id="edge1" class="edge">
<title>Node2&#45;&gt;Node1</title>
<path fill="none" stroke="#63b8ff" d="M295.21,-352.79C285.82,-336.6 275.63,-319.02 267.61,-305.2"/>
<polygon fill="none" stroke="#63b8ff" points="292.12,-354.44 300.16,-361.34 298.18,-350.93 292.12,-354.44"/>
</g>
<!-- Node6 -->
<g id="node6" class="node">
<title>Node6</title>
<g id="a_node6"><a xlink:title=" ">
<polygon fill="white" stroke="#666666" points="577,-305 471,-305 471,-253 577,-253 577,-305"/>
<text text-anchor="start" x="479" y="-293" font-family="Helvetica,sans-Serif" font-size="10.00">{std::shared_ptr&lt; HY</text>
<text text-anchor="middle" x="524" y="-282" font-family="Helvetica,sans-Serif" font-size="10.00">_Catchment &gt;</text>
<text text-anchor="start" x="479" y="-271" font-family="Helvetica,sans-Serif" font-size="10.00">||+ operator&#45;&gt;()</text>
<text text-anchor="middle" x="524" y="-260" font-family="Helvetica,sans-Serif" font-size="10.00">}</text>
</a>
</g>
</g>
<!-- Node2&#45;&gt;Node6 -->
<g id="edge6" class="edge">
<title>Node2&#45;&gt;Node6</title>
<path fill="none" stroke="#404040" d="M383.43,-362.81C410.95,-346.6 443.13,-327.64 469.75,-311.96"/>
<polygon fill="none" stroke="#404040" points="469.68,-312 472.82,-305.51 480.02,-305.91 476.88,-312.4 469.68,-312"/>
<text text-anchor="middle" x="457" y="-331.5" font-family="Helvetica,sans-Serif" font-size="10.00"> +ptr</text>
</g>
<!-- Node3 -->
<g id="node3" class="node">
<title>Node3</title>
<g id="a_node3"><a xlink:href="class_h_y___hydro_feature.html" target="_top" xlink:title=" ">
<polygon fill="white" stroke="#666666" points="114,-602 0,-602 0,-550 114,-550 114,-602"/>
<text text-anchor="middle" x="57" y="-590" font-family="Helvetica,sans-Serif" font-size="10.00">{HY_HydroFeature</text>
<text text-anchor="start" x="8" y="-579" font-family="Helvetica,sans-Serif" font-size="10.00">||+ HY_HydroFeature()</text>
<text text-anchor="start" x="8" y="-568" font-family="Helvetica,sans-Serif" font-size="10.00">+ ~HY_HydroFeature()</text>
<text text-anchor="middle" x="57" y="-557" font-family="Helvetica,sans-Serif" font-size="10.00">}</text>
</a>
</g>
</g>
<!-- Node3&#45;&gt;Node2 -->
<g id="edge2" class="edge">
<title>Node3&#45;&gt;Node2</title>
<path fill="none" stroke="#63b8ff" d="M72.08,-539.36C85.22,-512.44 106.76,-476.57 136,-455 172.39,-428.15 221.89,-414.61 260.67,-407.8"/>
<polygon fill="none" stroke="#63b8ff" points="69.02,-537.64 67.94,-548.18 75.36,-540.62 69.02,-537.64"/>
</g>
<!-- Node4 -->
<g id="node4" class="node">
<title>Node4</title>
<g id="a_node4"><a xlink:title=" ">
<polygon fill="white" stroke="#666666" points="485.5,-52 360.5,-52 360.5,0 485.5,0 485.5,-52"/>
<text text-anchor="start" x="368.5" y="-40" font-family="Helvetica,sans-Serif" font-size="10.00">{std::shared_ptr&lt; HY</text>
<text text-anchor="middle" x="423" y="-29" font-family="Helvetica,sans-Serif" font-size="10.00">_CatchmentRealization &gt;</text>
<text text-anchor="start" x="368.5" y="-18" font-family="Helvetica,sans-Serif" font-size="10.00">||+ operator&#45;&gt;()</text>
<text text-anchor="middle" x="423" y="-7" font-family="Helvetica,sans-Serif" font-size="10.00">}</text>
</a>
</g>
</g>
<!-- Node4&#45;&gt;Node2 -->
<g id="edge3" class="edge">
<title>Node4&#45;&gt;Node2</title>
<path fill="none" stroke="#404040" d="M411.58,-52.27C395.31,-89.23 365.62,-160.56 349,-224 338.05,-265.8 330.99,-314.44 326.84,-349.83"/>
<polygon fill="none" stroke="#404040" points="326.84,-349.87 330.14,-356.28 325.49,-361.8 322.19,-355.39 326.84,-349.87"/>
<text text-anchor="middle" x="375" y="-227" font-family="Helvetica,sans-Serif" font-size="10.00"> +realization</text>
</g>
<!-- Node5 -->
<g id="node5" class="node">
<title>Node5</title>
<g id="a_node5"><a xlink:href="class_h_y___catchment_realization.html" target="_top" xlink:title=" ">
<polygon fill="white" stroke="#666666" points="654,-206 504,-206 504,-99 654,-99 654,-206"/>
<text text-anchor="middle" x="579" y="-194" font-family="Helvetica,sans-Serif" font-size="10.00">{HY_CatchmentRealization</text>
<text text-anchor="start" x="512" y="-183" font-family="Helvetica,sans-Serif" font-size="10.00">|# id_number</text>
<text text-anchor="start" x="512" y="-172" font-family="Helvetica,sans-Serif" font-size="10.00">|+ HY_CatchmentRealization()</text>
<text text-anchor="start" x="512" y="-161" font-family="Helvetica,sans-Serif" font-size="10.00">+ HY_CatchmentRealization()</text>
<text text-anchor="start" x="512" y="-150" font-family="Helvetica,sans-Serif" font-size="10.00">+ ~HY_CatchmentRealization()</text>
<text text-anchor="start" x="512" y="-139" font-family="Helvetica,sans-Serif" font-size="10.00">+ get_response()</text>
<text text-anchor="start" x="512" y="-128" font-family="Helvetica,sans-Serif" font-size="10.00"># get_catchment_id()</text>
<text text-anchor="start" x="512" y="-117" font-family="Helvetica,sans-Serif" font-size="10.00"># set_catchment_id()</text>
<text text-anchor="middle" x="579" y="-106" font-family="Helvetica,sans-Serif" font-size="10.00">}</text>
</a>
</g>
</g>
<!-- Node5&#45;&gt;Node4 -->
<g id="edge4" class="edge">
<title>Node5&#45;&gt;Node4</title>
<path fill="none" stroke="#404040" d="M512.84,-98.7C496.51,-85.67 479.48,-72.07 464.68,-60.27"/>
<polygon fill="none" stroke="#404040" points="464.92,-60.46 457.74,-59.84 455.54,-52.97 462.73,-53.59 464.92,-60.46"/>
<text text-anchor="middle" x="497" y="-73" font-family="Helvetica,sans-Serif" font-size="10.00"> +ptr</text>
</g>
<!-- Node6&#45;&gt;Node5 -->
<g id="edge5" class="edge">
<title>Node6&#45;&gt;Node5</title>
<path fill="none" stroke="#404040" d="M545.98,-252.7C550.07,-247.13 554,-241.07 557,-235 559.55,-229.84 561.84,-224.33 563.88,-218.72"/>
<polygon fill="none" stroke="#404040" points="563.93,-218.6 562.01,-211.65 567.69,-207.21 569.61,-214.16 563.93,-218.6"/>
<text text-anchor="middle" x="607" y="-227" font-family="Helvetica,sans-Serif" font-size="10.00"> #realized_catchment</text>
</g>
<!-- Node7 -->
<g id="node7" class="node">
<title>Node7</title>
<g id="a_node7"><a xlink:title=" ">
<polygon fill="white" stroke="#666666" points="590,-420.5 484,-420.5 484,-379.5 590,-379.5 590,-420.5"/>
<text text-anchor="middle" x="537" y="-408.5" font-family="Helvetica,sans-Serif" font-size="10.00">{std::shared_ptr&lt; T &gt;</text>
<text text-anchor="start" x="492" y="-397.5" font-family="Helvetica,sans-Serif" font-size="10.00">||+ operator&#45;&gt;()</text>
<text text-anchor="middle" x="537" y="-386.5" font-family="Helvetica,sans-Serif" font-size="10.00">}</text>
</a>
</g>
</g>
<!-- Node7&#45;&gt;Node4 -->
<g id="edge14" class="edge">
<title>Node7&#45;&gt;Node4</title>
<path fill="none" stroke="orange" d="M507.76,-371.38C478.33,-341.22 435.19,-289.84 420,-235 402.31,-171.13 411.52,-91.96 418.16,-52.23"/>
<polygon fill="orange" stroke="orange" points="505.06,-373.63 514.59,-378.24 510.01,-368.69 505.06,-373.63"/>
<text text-anchor="middle" x="486.5" y="-227" font-family="Helvetica,sans-Serif" font-size="10.00"> &lt; HY_CatchmentRealization &gt;</text>
</g>
<!-- Node7&#45;&gt;Node6 -->
<g id="edge7" class="edge">
<title>Node7&#45;&gt;Node6</title>
<path fill="none" stroke="orange" d="M528.98,-367.99C527.36,-360.51 525.88,-352.51 525,-345 523.47,-332 523.12,-317.43 523.2,-305.39"/>
<polygon fill="orange" stroke="orange" points="525.56,-368.74 531.23,-377.69 532.38,-367.16 525.56,-368.74"/>
<text text-anchor="middle" x="568" y="-331.5" font-family="Helvetica,sans-Serif" font-size="10.00"> &lt; HY_Catchment &gt;</text>
</g>
<!-- Node9 -->
<g id="node9" class="node">
<title>Node9</title>
<g id="a_node9"><a xlink:title=" ">
<polygon fill="white" stroke="#666666" points="772,-305 616,-305 616,-253 772,-253 772,-305"/>
<text text-anchor="start" x="624" y="-293" font-family="Helvetica,sans-Serif" font-size="10.00">{std::shared_ptr&lt; data</text>
<text text-anchor="middle" x="694" y="-282" font-family="Helvetica,sans-Serif" font-size="10.00">_access::GenericDataProvider &gt;</text>
<text text-anchor="start" x="624" y="-271" font-family="Helvetica,sans-Serif" font-size="10.00">||+ operator&#45;&gt;()</text>
<text text-anchor="middle" x="694" y="-260" font-family="Helvetica,sans-Serif" font-size="10.00">}</text>
</a>
</g>
</g>
<!-- Node7&#45;&gt;Node9 -->
<g id="edge13" class="edge">
<title>Node7&#45;&gt;Node9</title>
<path fill="none" stroke="orange" d="M576.43,-372.77C588,-364.41 600.39,-354.78 611,-345 620.5,-336.25 620.33,-331.57 630,-323 637.01,-316.79 644.98,-310.76 652.85,-305.27"/>
<polygon fill="orange" stroke="orange" points="574.75,-369.67 568.61,-378.3 578.79,-375.38 574.75,-369.67"/>
<text text-anchor="start" x="630" y="-337" font-family="Helvetica,sans-Serif" font-size="10.00"> &lt; data_access::GenericData</text>
<text text-anchor="middle" x="692.5" y="-326" font-family="Helvetica,sans-Serif" font-size="10.00">Provider &gt;</text>
</g>
<!-- Node8 -->
<g id="node8" class="node">
<title>Node8</title>
<g id="a_node8"><a xlink:title=" ">
<polygon fill="white" stroke="#666666" points="532.5,-959.5 503.5,-959.5 503.5,-929.5 532.5,-929.5 532.5,-959.5"/>
<text text-anchor="middle" x="518" y="-947.5" font-family="Helvetica,sans-Serif" font-size="10.00">{T</text>
<text text-anchor="middle" x="518" y="-936.5" font-family="Helvetica,sans-Serif" font-size="10.00">||}</text>
</a>
</g>
</g>
<!-- Node8&#45;&gt;Node7 -->
<g id="edge8" class="edge">
<title>Node8&#45;&gt;Node7</title>
<path fill="none" stroke="#404040" d="M527.27,-929.16C531.09,-922.41 535.07,-914.09 537,-906 578.55,-732.06 553.89,-514.7 542.15,-433.54"/>
<polygon fill="none" stroke="#404040" points="542.13,-433.4 537.29,-428.06 540.36,-421.54 545.2,-426.88 542.13,-433.4"/>
<text text-anchor="middle" x="570" y="-683.5" font-family="Helvetica,sans-Serif" font-size="10.00"> +ptr</text>
</g>
<!-- Node16 -->
<g id="node16" class="node">
<title>Node16</title>
<g id="a_node16"><a xlink:title=" ">
<polygon fill="white" stroke="#666666" points="503.5,-811 416.5,-811 416.5,-781 503.5,-781 503.5,-811"/>
<text text-anchor="middle" x="460" y="-799" font-family="Helvetica,sans-Serif" font-size="10.00">{std::vector&lt; T &gt;</text>
<text text-anchor="middle" x="460" y="-788" font-family="Helvetica,sans-Serif" font-size="10.00">||}</text>
</a>
</g>
</g>
<!-- Node8&#45;&gt;Node16 -->
<g id="edge20" class="edge">
<title>Node8&#45;&gt;Node16</title>
<path fill="none" stroke="#404040" d="M504.16,-929.18C498.44,-922.58 492.17,-914.35 488,-906 474.92,-879.8 467.56,-846.91 463.7,-824.15"/>
<polygon fill="none" stroke="#404040" points="463.71,-824.19 458.84,-818.87 461.87,-812.33 466.74,-817.65 463.71,-824.19"/>
<text text-anchor="middle" x="512.5" y="-898" font-family="Helvetica,sans-Serif" font-size="10.00"> +elements</text>
</g>
<!-- Node9&#45;&gt;Node5 -->
<g id="edge9" class="edge">
<title>Node9&#45;&gt;Node5</title>
<path fill="none" stroke="#404040" d="M678.4,-252.63C672.2,-243.28 664.7,-232.81 657,-224 654.58,-221.23 652.06,-218.46 649.46,-215.7"/>
<polygon fill="none" stroke="#404040" points="649.42,-215.66 642.37,-214.16 641.04,-207.07 648.09,-208.57 649.42,-215.66"/>
<text text-anchor="middle" x="682.5" y="-227" font-family="Helvetica,sans-Serif" font-size="10.00"> #forcing</text>
</g>
<!-- Node10 -->
<g id="node10" class="node">
<title>Node10</title>
<g id="a_node10"><a xlink:href="classdata__access_1_1_generic_data_provider.html" target="_top" xlink:title=" ">
<polygon fill="white" stroke="#666666" points="848,-420.5 714,-420.5 714,-379.5 848,-379.5 848,-420.5"/>
<text text-anchor="start" x="722" y="-408.5" font-family="Helvetica,sans-Serif" font-size="10.00">{data_access::GenericData</text>
<text text-anchor="middle" x="781" y="-397.5" font-family="Helvetica,sans-Serif" font-size="10.00">Provider</text>
<text text-anchor="middle" x="781" y="-386.5" font-family="Helvetica,sans-Serif" font-size="10.00">||}</text>
</a>
</g>
</g>
<!-- Node10&#45;&gt;Node9 -->
<g id="edge10" class="edge">
<title>Node10&#45;&gt;Node9</title>
<path fill="none" stroke="#404040" d="M779.09,-379.24C776.66,-362.84 771.21,-339.6 759,-323 756.56,-319.68 753.77,-316.53 750.76,-313.58"/>
<polygon fill="none" stroke="#404040" points="750.92,-313.72 743.77,-312.81 741.86,-305.86 749.01,-306.76 750.92,-313.72"/>
<text text-anchor="middle" x="780" y="-331.5" font-family="Helvetica,sans-Serif" font-size="10.00"> +ptr</text>
</g>
<!-- Node11 -->
<g id="node11" class="node">
<title>Node11</title>
<g id="a_node11"><a xlink:href="classdata__access_1_1_data_provider.html" target="_top" xlink:title=" ">
<polygon fill="white" stroke="#666666" points="876.5,-657 685.5,-657 685.5,-495 876.5,-495 876.5,-657"/>
<text text-anchor="start" x="693.5" y="-645" font-family="Helvetica,sans-Serif" font-size="10.00">{data_access::DataProvider</text>
<text text-anchor="middle" x="781" y="-634" font-family="Helvetica,sans-Serif" font-size="10.00">&lt; double, CatchmentAggrDataSelector &gt;</text>
<text text-anchor="start" x="693.5" y="-623" font-family="Helvetica,sans-Serif" font-size="10.00">||+ ~DataProvider()</text>
<text text-anchor="start" x="693.5" y="-612" font-family="Helvetica,sans-Serif" font-size="10.00">+ get_avaliable_variable</text>
<text text-anchor="start" x="693.5" y="-601" font-family="Helvetica,sans-Serif" font-size="10.00">_names()</text>
<text text-anchor="start" x="693.5" y="-590" font-family="Helvetica,sans-Serif" font-size="10.00">+ get_data_start_time()</text>
<text text-anchor="start" x="693.5" y="-579" font-family="Helvetica,sans-Serif" font-size="10.00">+ get_data_stop_time()</text>
<text text-anchor="start" x="693.5" y="-568" font-family="Helvetica,sans-Serif" font-size="10.00">+ record_duration()</text>
<text text-anchor="start" x="693.5" y="-557" font-family="Helvetica,sans-Serif" font-size="10.00">+ get_ts_index_for_time()</text>
<text text-anchor="start" x="693.5" y="-546" font-family="Helvetica,sans-Serif" font-size="10.00">+ get_value()</text>
<text text-anchor="start" x="693.5" y="-535" font-family="Helvetica,sans-Serif" font-size="10.00">+ get_values()</text>
<text text-anchor="start" x="693.5" y="-524" font-family="Helvetica,sans-Serif" font-size="10.00">+ is_property_sum_over</text>
<text text-anchor="start" x="693.5" y="-513" font-family="Helvetica,sans-Serif" font-size="10.00">_time_step()</text>
<text text-anchor="middle" x="781" y="-502" font-family="Helvetica,sans-Serif" font-size="10.00">}</text>
</a>
</g>
</g>
<!-- Node11&#45;&gt;Node10 -->
<g id="edge11" class="edge">
<title>Node11&#45;&gt;Node10</title>
<path fill="none" stroke="#63b8ff" d="M781,-483.35C781,-459.64 781,-436.4 781,-420.68"/>
<polygon fill="none" stroke="#63b8ff" points="777.5,-483.11 781,-493.11 784.5,-483.11 777.5,-483.11"/>
</g>
<!-- Node12 -->
<g id="node12" class="node">
<title>Node12</title>
<g id="a_node12"><a xlink:href="classdata__access_1_1_data_provider.html" target="_top" xlink:title=" ">
<polygon fill="white" stroke="#666666" points="852.5,-877 709.5,-877 709.5,-715 852.5,-715 852.5,-877"/>
<text text-anchor="start" x="717.5" y="-865" font-family="Helvetica,sans-Serif" font-size="10.00">{data_access::DataProvider</text>
<text text-anchor="middle" x="781" y="-854" font-family="Helvetica,sans-Serif" font-size="10.00">&lt; data_type, selection_type &gt;</text>
<text text-anchor="start" x="717.5" y="-843" font-family="Helvetica,sans-Serif" font-size="10.00">||+ ~DataProvider()</text>
<text text-anchor="start" x="717.5" y="-832" font-family="Helvetica,sans-Serif" font-size="10.00">+ get_avaliable_variable</text>
<text text-anchor="start" x="717.5" y="-821" font-family="Helvetica,sans-Serif" font-size="10.00">_names()</text>
<text text-anchor="start" x="717.5" y="-810" font-family="Helvetica,sans-Serif" font-size="10.00">+ get_data_start_time()</text>
<text text-anchor="start" x="717.5" y="-799" font-family="Helvetica,sans-Serif" font-size="10.00">+ get_data_stop_time()</text>
<text text-anchor="start" x="717.5" y="-788" font-family="Helvetica,sans-Serif" font-size="10.00">+ record_duration()</text>
<text text-anchor="start" x="717.5" y="-777" font-family="Helvetica,sans-Serif" font-size="10.00">+ get_ts_index_for_time()</text>
<text text-anchor="start" x="717.5" y="-766" font-family="Helvetica,sans-Serif" font-size="10.00">+ get_value()</text>
<text text-anchor="start" x="717.5" y="-755" font-family="Helvetica,sans-Serif" font-size="10.00">+ get_values()</text>
<text text-anchor="start" x="717.5" y="-744" font-family="Helvetica,sans-Serif" font-size="10.00">+ is_property_sum_over</text>
<text text-anchor="start" x="717.5" y="-733" font-family="Helvetica,sans-Serif" font-size="10.00">_time_step()</text>
<text text-anchor="middle" x="781" y="-722" font-family="Helvetica,sans-Serif" font-size="10.00">}</text>
</a>
</g>
</g>
<!-- Node12&#45;&gt;Node11 -->
<g id="edge12" class="edge">
<title>Node12&#45;&gt;Node11</title>
<path fill="none" stroke="orange" d="M781,-703.68C781,-688.33 781,-672.49 781,-657.44"/>
<polygon fill="orange" stroke="orange" points="777.5,-703.24 781,-713.24 784.5,-703.24 777.5,-703.24"/>
<text text-anchor="start" x="781" y="-689" font-family="Helvetica,sans-Serif" font-size="10.00"> &lt; double, CatchmentAggrData</text>
<text text-anchor="middle" x="847.5" y="-678" font-family="Helvetica,sans-Serif" font-size="10.00">Selector &gt;</text>
</g>
<!-- Node13 -->
<g id="node13" class="node">
<title>Node13</title>
<g id="a_node13"><a xlink:title=" ">
<polygon fill="white" stroke="#666666" points="277,-811 215,-811 215,-781 277,-781 277,-811"/>
<text text-anchor="middle" x="246" y="-799" font-family="Helvetica,sans-Serif" font-size="10.00">{std::string</text>
<text text-anchor="middle" x="246" y="-788" font-family="Helvetica,sans-Serif" font-size="10.00">||}</text>
</a>
</g>
</g>
<!-- Node13&#45;&gt;Node2 -->
<g id="edge15" class="edge">
<title>Node13&#45;&gt;Node2</title>
<path fill="none" stroke="#404040" d="M233.14,-780.63C212.88,-756.92 174.36,-707.21 160,-657 140.2,-587.78 124.07,-557.39 160,-495 179.31,-461.48 215.66,-438.81 249.04,-424.15"/>
<polygon fill="none" stroke="#404040" points="248.78,-424.26 252.78,-418.26 259.86,-419.64 255.86,-425.64 248.78,-424.26"/>
<text text-anchor="middle" x="209.5" y="-595.5" font-family="Helvetica,sans-Serif" font-size="10.00"> &#45;conjoint_catchment</text>
<text text-anchor="middle" x="209.5" y="-584.5" font-family="Helvetica,sans-Serif" font-size="10.00">&#45;containing_catchment</text>
<text text-anchor="middle" x="209.5" y="-573.5" font-family="Helvetica,sans-Serif" font-size="10.00">&#45;id</text>
<text text-anchor="middle" x="209.5" y="-562.5" font-family="Helvetica,sans-Serif" font-size="10.00">&#45;lower_catchment</text>
<text text-anchor="middle" x="209.5" y="-551.5" font-family="Helvetica,sans-Serif" font-size="10.00">&#45;upper_catchment</text>
</g>
<!-- Node15 -->
<g id="node15" class="node">
<title>Node15</title>
<g id="a_node15"><a xlink:title=" ">
<polygon fill="white" stroke="#666666" points="376.5,-591 267.5,-591 267.5,-561 376.5,-561 376.5,-591"/>
<text text-anchor="middle" x="322" y="-579" font-family="Helvetica,sans-Serif" font-size="10.00">{std::vector&lt; Nexus &gt;</text>
<text text-anchor="middle" x="322" y="-568" font-family="Helvetica,sans-Serif" font-size="10.00">||}</text>
</a>
</g>
</g>
<!-- Node13&#45;&gt;Node15 -->
<g id="edge18" class="edge">
<title>Node13&#45;&gt;Node15</title>
<path fill="none" stroke="#404040" d="M243.3,-780.84C239.53,-757.89 234.48,-711.45 247,-675 256.97,-645.97 279.27,-618.74 296.97,-600.39"/>
<polygon fill="none" stroke="#404040" points="296.85,-600.51 298.27,-593.44 305.34,-592.03 303.92,-599.1 296.85,-600.51"/>
<text text-anchor="middle" x="271.5" y="-683.5" font-family="Helvetica,sans-Serif" font-size="10.00"> +elements</text>
</g>
<!-- Node17 -->
<g id="node17" class="node">
<title>Node17</title>
<g id="a_node17"><a xlink:title=" ">
<polygon fill="white" stroke="#666666" points="523,-591 395,-591 395,-561 523,-561 523,-591"/>
<text text-anchor="middle" x="459" y="-579" font-family="Helvetica,sans-Serif" font-size="10.00">{std::vector&lt; Catchment &gt;</text>
<text text-anchor="middle" x="459" y="-568" font-family="Helvetica,sans-Serif" font-size="10.00">||}</text>
</a>
</g>
</g>
<!-- Node13&#45;&gt;Node17 -->
<g id="edge22" class="edge">
<title>Node13&#45;&gt;Node17</title>
<path fill="none" stroke="#404040" d="M252.72,-780.58C265.09,-755.52 293.86,-703.87 333,-675 353.02,-660.23 365.18,-670.62 386,-657 408.31,-642.41 428.29,-619.45 441.69,-601.86"/>
<polygon fill="none" stroke="#404040" points="441.68,-601.87 442.01,-594.66 448.79,-592.2 448.46,-599.4 441.68,-601.87"/>
<text text-anchor="middle" x="357.5" y="-683.5" font-family="Helvetica,sans-Serif" font-size="10.00"> +elements</text>
</g>
<!-- Node14 -->
<g id="node14" class="node">
<title>Node14</title>
<g id="a_node14"><a xlink:title=" ">
<polygon fill="white" stroke="#666666" points="294,-965 198,-965 198,-924 294,-924 294,-965"/>
<text text-anchor="start" x="206" y="-953" font-family="Helvetica,sans-Serif" font-size="10.00">{std::basic_string&lt;</text>
<text text-anchor="middle" x="246" y="-942" font-family="Helvetica,sans-Serif" font-size="10.00"> Char &gt;</text>
<text text-anchor="middle" x="246" y="-931" font-family="Helvetica,sans-Serif" font-size="10.00">||}</text>
</a>
</g>
</g>
<!-- Node14&#45;&gt;Node13 -->
<g id="edge16" class="edge">
<title>Node14&#45;&gt;Node13</title>
<path fill="none" stroke="#63b8ff" d="M246,-912.62C246,-881.38 246,-834.48 246,-811.18"/>
<polygon fill="none" stroke="#63b8ff" points="242.5,-912.23 246,-922.23 249.5,-912.23 242.5,-912.23"/>
</g>
<!-- Node15&#45;&gt;Node2 -->
<g id="edge17" class="edge">
<title>Node15&#45;&gt;Node2</title>
<path fill="none" stroke="#404040" d="M322,-560.76C322,-536.87 322,-487.66 322,-450.13"/>
<polygon fill="none" stroke="#404040" points="322,-450.31 318,-444.31 322,-438.31 326,-444.31 322,-450.31"/>
<text text-anchor="middle" x="342" y="-469" font-family="Helvetica,sans-Serif" font-size="10.00"> &#45;inflows</text>
<text text-anchor="middle" x="342" y="-458" font-family="Helvetica,sans-Serif" font-size="10.00">&#45;outflows</text>
</g>
<!-- Node16&#45;&gt;Node15 -->
<g id="edge19" class="edge">
<title>Node16&#45;&gt;Node15</title>
<path fill="none" stroke="orange" d="M444.86,-771.08C416.08,-725.63 354.32,-628.06 331.09,-591.36"/>
<polygon fill="orange" stroke="orange" points="441.83,-772.84 450.14,-779.42 447.74,-769.1 441.83,-772.84"/>
<text text-anchor="middle" x="418.5" y="-683.5" font-family="Helvetica,sans-Serif" font-size="10.00"> &lt; Nexus &gt;</text>
</g>
<!-- Node16&#45;&gt;Node17 -->
<g id="edge23" class="edge">
<title>Node16&#45;&gt;Node17</title>
<path fill="none" stroke="orange" d="M459.88,-769.33C459.67,-723.17 459.23,-627.6 459.07,-591.36"/>
<polygon fill="orange" stroke="orange" points="456.38,-769.2 459.93,-779.18 463.38,-769.17 456.38,-769.2"/>
<text text-anchor="middle" x="492.5" y="-683.5" font-family="Helvetica,sans-Serif" font-size="10.00"> &lt; Catchment &gt;</text>
</g>
<!-- Node17&#45;&gt;Node2 -->
<g id="edge21" class="edge">
<title>Node17&#45;&gt;Node2</title>
<path fill="none" stroke="#404040" d="M447.95,-560.5C430.64,-537.86 396.01,-492.76 366,-455 363.99,-452.47 361.92,-449.89 359.83,-447.28"/>
<polygon fill="none" stroke="#404040" points="359.81,-447.25 352.93,-445.09 352.27,-437.91 359.15,-440.07 359.81,-447.25"/>
<text text-anchor="middle" x="433" y="-463.5" font-family="Helvetica,sans-Serif" font-size="10.00"> &#45;contained_catchments</text>
</g>
</g>
</svg>
