<?xml version="1.0" encoding="UTF-8" standalone="no"?>
<!DOCTYPE svg PUBLIC "-//W3C//DTD SVG 1.1//EN"
 "http://www.w3.org/Graphics/SVG/1.1/DTD/svg11.dtd">
<!-- Generated by graphviz version 7.0.5 (20221223.1930)
 -->
<!-- Title: hy_features::hydrolocation::HY_HydroLocation Pages: 1 -->
<svg width="1010pt" height="1506pt"
 viewBox="0.00 0.00 1010.00 1506.00" xmlns="http://www.w3.org/2000/svg" xmlns:xlink="http://www.w3.org/1999/xlink">
<g id="graph0" class="graph" transform="scale(1 1) rotate(0) translate(4 1502)">
<title>hy_features::hydrolocation::HY_HydroLocation</title>
<!-- Node1 -->
<g id="node1" class="node">
<title>Node1</title>
<g id="a_node1"><a xlink:title=" ">
<polygon fill="#999999" stroke="#666666" points="229.5,-173 98.5,-173 98.5,0 229.5,0 229.5,-173"/>
<text text-anchor="start" x="106.5" y="-161" font-family="Helvetica,sans-Serif" font-size="10.00">{hy_features::hydrolocation</text>
<text text-anchor="middle" x="164" y="-150" font-family="Helvetica,sans-Serif" font-size="10.00">::HY_HydroLocation</text>
<text text-anchor="start" x="106.5" y="-139" font-family="Helvetica,sans-Serif" font-size="10.00">|&#45; _shape</text>
<text text-anchor="start" x="106.5" y="-128" font-family="Helvetica,sans-Serif" font-size="10.00">&#45; _type</text>
<text text-anchor="start" x="106.5" y="-117" font-family="Helvetica,sans-Serif" font-size="10.00">|+ HY_HydroLocation()</text>
<text text-anchor="start" x="106.5" y="-106" font-family="Helvetica,sans-Serif" font-size="10.00">+ HY_HydroLocation()</text>
<text text-anchor="start" x="106.5" y="-95" font-family="Helvetica,sans-Serif" font-size="10.00">+ geometry()</text>
<text text-anchor="start" x="106.5" y="-84" font-family="Helvetica,sans-Serif" font-size="10.00">+ geometry()</text>
<text text-anchor="start" x="106.5" y="-73" font-family="Helvetica,sans-Serif" font-size="10.00">+ itype()</text>
<text text-anchor="start" x="106.5" y="-62" font-family="Helvetica,sans-Serif" font-size="10.00">+ itype()</text>
<text text-anchor="start" x="106.5" y="-51" font-family="Helvetica,sans-Serif" font-size="10.00">+ referenced_position()</text>
<text text-anchor="start" x="106.5" y="-40" font-family="Helvetica,sans-Serif" font-size="10.00">+ referenced_position()</text>
<text text-anchor="start" x="106.5" y="-29" font-family="Helvetica,sans-Serif" font-size="10.00">+ realized_nexus()</text>
<text text-anchor="start" x="106.5" y="-18" font-family="Helvetica,sans-Serif" font-size="10.00">+ realized_nexus()</text>
<text text-anchor="middle" x="164" y="-7" font-family="Helvetica,sans-Serif" font-size="10.00">}</text>
</a>
</g>
</g>
<!-- Node2 -->
<g id="node2" class="node">
<title>Node2</title>
<g id="a_node2"><a xlink:href="class_g_m___object.html" target="_top" xlink:title=" ">
<polygon fill="white" stroke="#666666" points="797,-618.5 711,-618.5 711,-566.5 797,-566.5 797,-618.5"/>
<text text-anchor="middle" x="754" y="-606.5" font-family="Helvetica,sans-Serif" font-size="10.00">{GM_Object</text>
<text text-anchor="start" x="719" y="-595.5" font-family="Helvetica,sans-Serif" font-size="10.00">||+ GM_Object()</text>
<text text-anchor="start" x="719" y="-584.5" font-family="Helvetica,sans-Serif" font-size="10.00">+ ~GM_Object()</text>
<text text-anchor="middle" x="754" y="-573.5" font-family="Helvetica,sans-Serif" font-size="10.00">}</text>
</a>
</g>
</g>
<!-- Node2&#45;&gt;Node1 -->
<g id="edge1" class="edge">
<title>Node2&#45;&gt;Node1</title>
<path fill="none" stroke="#63b8ff" d="M747.31,-555.28C743.31,-530.51 739,-496.88 739,-467 739,-467 739,-467 739,-256 739,-150.94 380.99,-106.76 229.96,-92.8"/>
<polygon fill="none" stroke="#63b8ff" points="743.81,-555.56 748.92,-564.84 750.71,-554.4 743.81,-555.56"/>
</g>
<!-- Node8 -->
<g id="node8" class="node">
<title>Node8</title>
<g id="a_node8"><a xlink:href="class_h_y___flow_path.html" target="_top" xlink:title=" ">
<polygon fill="white" stroke="#666666" points="668.5,-492 571.5,-492 571.5,-440 668.5,-440 668.5,-492"/>
<text text-anchor="middle" x="620" y="-480" font-family="Helvetica,sans-Serif" font-size="10.00">{HY_FlowPath</text>
<text text-anchor="start" x="579.5" y="-469" font-family="Helvetica,sans-Serif" font-size="10.00">||+ HY_FlowPath()</text>
<text text-anchor="start" x="579.5" y="-458" font-family="Helvetica,sans-Serif" font-size="10.00">+ ~HY_FlowPath()</text>
<text text-anchor="middle" x="620" y="-447" font-family="Helvetica,sans-Serif" font-size="10.00">}</text>
</a>
</g>
</g>
<!-- Node2&#45;&gt;Node8 -->
<g id="edge8" class="edge">
<title>Node2&#45;&gt;Node8</title>
<path fill="none" stroke="#63b8ff" d="M718.35,-558.38C696.1,-537.71 667.9,-511.5 647.4,-492.46"/>
<polygon fill="none" stroke="#63b8ff" points="715.74,-560.73 725.45,-564.97 720.51,-555.6 715.74,-560.73"/>
</g>
<!-- Node3 -->
<g id="node3" class="node">
<title>Node3</title>
<g id="a_node3"><a xlink:href="classhy__features_1_1hydrolocation_1_1_h_y___indirect_position.html" target="_top" xlink:title=" ">
<polygon fill="white" stroke="#666666" points="229.5,-294 98.5,-294 98.5,-220 229.5,-220 229.5,-294"/>
<text text-anchor="start" x="106.5" y="-282" font-family="Helvetica,sans-Serif" font-size="10.00">{hy_features::hydrolocation</text>
<text text-anchor="middle" x="164" y="-271" font-family="Helvetica,sans-Serif" font-size="10.00">::HY_IndirectPosition</text>
<text text-anchor="start" x="106.5" y="-260" font-family="Helvetica,sans-Serif" font-size="10.00">|&#45; distance_description</text>
<text text-anchor="start" x="106.5" y="-249" font-family="Helvetica,sans-Serif" font-size="10.00">|+ HY_IndirectPosition()</text>
<text text-anchor="start" x="106.5" y="-238" font-family="Helvetica,sans-Serif" font-size="10.00">+ ~HY_IndirectPosition()</text>
<text text-anchor="middle" x="164" y="-227" font-family="Helvetica,sans-Serif" font-size="10.00">}</text>
</a>
</g>
</g>
<!-- Node3&#45;&gt;Node1 -->
<g id="edge2" class="edge">
<title>Node3&#45;&gt;Node1</title>
<path fill="none" stroke="#404040" d="M164,-219.85C164,-209.77 164,-198.3 164,-186.43"/>
<polygon fill="none" stroke="#404040" points="164,-186.35 160,-180.35 164,-174.35 168,-180.35 164,-186.35"/>
<text text-anchor="middle" x="212" y="-194" font-family="Helvetica,sans-Serif" font-size="10.00"> &#45;_referenced_position</text>
</g>
<!-- Node4 -->
<g id="node4" class="node">
<title>Node4</title>
<g id="a_node4"><a xlink:href="structhy__features_1_1hydrolocation_1_1_h_y___distance_from_referent.html" target="_top" xlink:title=" ">
<polygon fill="white" stroke="#666666" points="165,-1010 15,-1010 15,-936 165,-936 165,-1010"/>
<text text-anchor="start" x="23" y="-998" font-family="Helvetica,sans-Serif" font-size="10.00">{hy_features::hydrolocation</text>
<text text-anchor="middle" x="90" y="-987" font-family="Helvetica,sans-Serif" font-size="10.00">::HY_DistanceFromReferent</text>
<text text-anchor="start" x="23" y="-976" font-family="Helvetica,sans-Serif" font-size="10.00">|+ absolute</text>
<text text-anchor="start" x="23" y="-965" font-family="Helvetica,sans-Serif" font-size="10.00">+ interpolative</text>
<text text-anchor="start" x="23" y="-954" font-family="Helvetica,sans-Serif" font-size="10.00">|+ HY_DistanceFromReferent()</text>
<text text-anchor="middle" x="90" y="-943" font-family="Helvetica,sans-Serif" font-size="10.00">}</text>
</a>
</g>
</g>
<!-- Node4&#45;&gt;Node3 -->
<g id="edge3" class="edge">
<title>Node4&#45;&gt;Node3</title>
<path fill="none" stroke="#404040" d="M97.7,-935.62C103.69,-904.12 111,-857.26 111,-816 111,-816 111,-816 111,-366 111,-344.83 119.31,-323.49 129.35,-305.43"/>
<polygon fill="none" stroke="#404040" points="129.34,-305.44 128.98,-298.24 135.49,-295.13 135.85,-302.34 129.34,-305.44"/>
<text text-anchor="middle" x="164" y="-590" font-family="Helvetica,sans-Serif" font-size="10.00"> &#45;distance_from_referent</text>
</g>
<!-- Node5 -->
<g id="node5" class="node">
<title>Node5</title>
<g id="a_node5"><a xlink:title=" ">
<polygon fill="white" stroke="#666666" points="317,-1344 255,-1344 255,-1314 317,-1314 317,-1344"/>
<text text-anchor="middle" x="286" y="-1332" font-family="Helvetica,sans-Serif" font-size="10.00">{std::string</text>
<text text-anchor="middle" x="286" y="-1321" font-family="Helvetica,sans-Serif" font-size="10.00">||}</text>
</a>
</g>
</g>
<!-- Node5&#45;&gt;Node1 -->
<g id="edge34" class="edge">
<title>Node5&#45;&gt;Node1</title>
<path fill="none" stroke="#404040" d="M254.57,-1320.21C180.28,-1299.71 0,-1236.89 0,-1110 0,-1110 0,-1110 0,-256 0,-201.43 44.71,-157.91 87.45,-128.77"/>
<polygon fill="none" stroke="#404040" points="87.46,-128.77 90.28,-122.13 97.49,-122.17 94.67,-128.81 87.46,-128.77"/>
<text text-anchor="middle" x="37.5" y="-590" font-family="Helvetica,sans-Serif" font-size="10.00"> &#45;_realized_nexus</text>
</g>
<!-- Node5&#45;&gt;Node4 -->
<g id="edge4" class="edge">
<title>Node5&#45;&gt;Node4</title>
<path fill="none" stroke="#404040" d="M254.7,-1316.77C208.77,-1298.39 124.79,-1257.04 90,-1190 62.98,-1137.93 68.98,-1068.85 77.74,-1022.98"/>
<polygon fill="none" stroke="#404040" points="77.72,-1023.04 75.01,-1016.36 80.14,-1011.29 82.85,-1017.97 77.72,-1023.04"/>
<text text-anchor="middle" x="163.5" y="-1222" font-family="Helvetica,sans-Serif" font-size="10.00"> +accuracyStatement</text>
<text text-anchor="middle" x="163.5" y="-1211" font-family="Helvetica,sans-Serif" font-size="10.00">+precisionStatement</text>
</g>
<!-- Node11 -->
<g id="node11" class="node">
<title>Node11</title>
<g id="a_node11"><a xlink:href="class_h_y___catchment.html" target="_top" xlink:title=" ">
<polygon fill="white" stroke="#666666" points="389,-918 267,-918 267,-844 389,-844 389,-918"/>
<text text-anchor="middle" x="328" y="-906" font-family="Helvetica,sans-Serif" font-size="10.00">{HY_Catchment</text>
<text text-anchor="start" x="275" y="-895" font-family="Helvetica,sans-Serif" font-size="10.00">||+ HY_Catchment()</text>
<text text-anchor="start" x="275" y="-884" font-family="Helvetica,sans-Serif" font-size="10.00">+ HY_Catchment()</text>
<text text-anchor="start" x="275" y="-873" font-family="Helvetica,sans-Serif" font-size="10.00">+ ~HY_Catchment()</text>
<text text-anchor="start" x="275" y="-862" font-family="Helvetica,sans-Serif" font-size="10.00">+ get_outflow_nexuses()</text>
<text text-anchor="middle" x="328" y="-851" font-family="Helvetica,sans-Serif" font-size="10.00">}</text>
</a>
</g>
</g>
<!-- Node5&#45;&gt;Node11 -->
<g id="edge17" class="edge">
<title>Node5&#45;&gt;Node11</title>
<path fill="none" stroke="#404040" d="M295.28,-1313.61C306.94,-1294.98 326.89,-1261.19 339,-1230 345.63,-1212.92 346.11,-1208.1 349,-1190 366.85,-1078.38 393.34,-1044.6 362,-936 361.44,-934.04 360.78,-932.09 360.04,-930.15"/>
<polygon fill="none" stroke="#404040" points="360.06,-930.19 353.92,-926.4 355.06,-919.28 361.19,-923.07 360.06,-930.19"/>
<text text-anchor="middle" x="426.5" y="-1128.5" font-family="Helvetica,sans-Serif" font-size="10.00"> &#45;conjoint_catchment</text>
<text text-anchor="middle" x="426.5" y="-1117.5" font-family="Helvetica,sans-Serif" font-size="10.00">&#45;containing_catchment</text>
<text text-anchor="middle" x="426.5" y="-1106.5" font-family="Helvetica,sans-Serif" font-size="10.00">&#45;id</text>
<text text-anchor="middle" x="426.5" y="-1095.5" font-family="Helvetica,sans-Serif" font-size="10.00">&#45;lower_catchment</text>
<text text-anchor="middle" x="426.5" y="-1084.5" font-family="Helvetica,sans-Serif" font-size="10.00">&#45;upper_catchment</text>
</g>
<!-- Node16 -->
<g id="node16" class="node">
<title>Node16</title>
<g id="a_node16"><a xlink:title=" ">
<polygon fill="white" stroke="#666666" points="340.5,-1124 231.5,-1124 231.5,-1094 340.5,-1094 340.5,-1124"/>
<text text-anchor="middle" x="286" y="-1112" font-family="Helvetica,sans-Serif" font-size="10.00">{std::vector&lt; Nexus &gt;</text>
<text text-anchor="middle" x="286" y="-1101" font-family="Helvetica,sans-Serif" font-size="10.00">||}</text>
</a>
</g>
</g>
<!-- Node5&#45;&gt;Node16 -->
<g id="edge19" class="edge">
<title>Node5&#45;&gt;Node16</title>
<path fill="none" stroke="#404040" d="M286,-1313.7C286,-1277.9 286,-1183.97 286,-1137.23"/>
<polygon fill="none" stroke="#404040" points="286,-1137.26 282,-1131.26 286,-1125.26 290,-1131.26 286,-1137.26"/>
<text text-anchor="middle" x="310.5" y="-1216.5" font-family="Helvetica,sans-Serif" font-size="10.00"> +elements</text>
</g>
<!-- Node18 -->
<g id="node18" class="node">
<title>Node18</title>
<g id="a_node18"><a xlink:title=" ">
<polygon fill="white" stroke="#666666" points="622,-1124 494,-1124 494,-1094 622,-1094 622,-1124"/>
<text text-anchor="middle" x="558" y="-1112" font-family="Helvetica,sans-Serif" font-size="10.00">{std::vector&lt; Catchment &gt;</text>
<text text-anchor="middle" x="558" y="-1101" font-family="Helvetica,sans-Serif" font-size="10.00">||}</text>
</a>
</g>
</g>
<!-- Node5&#45;&gt;Node18 -->
<g id="edge23" class="edge">
<title>Node5&#45;&gt;Node18</title>
<path fill="none" stroke="#404040" d="M302.04,-1313.78C322.97,-1295.06 360.52,-1260.88 391,-1230 400.28,-1220.6 399.69,-1214.84 411,-1208 438.12,-1191.59 452.6,-1205.93 480,-1190 504.03,-1176.03 525.59,-1152.64 539.92,-1134.75"/>
<polygon fill="none" stroke="#404040" points="539.98,-1134.67 540.48,-1127.48 547.32,-1125.17 546.82,-1132.36 539.98,-1134.67"/>
<text text-anchor="middle" x="435.5" y="-1216.5" font-family="Helvetica,sans-Serif" font-size="10.00"> +elements</text>
</g>
<!-- Node6 -->
<g id="node6" class="node">
<title>Node6</title>
<g id="a_node6"><a xlink:title=" ">
<polygon fill="white" stroke="#666666" points="334,-1498 238,-1498 238,-1457 334,-1457 334,-1498"/>
<text text-anchor="start" x="246" y="-1486" font-family="Helvetica,sans-Serif" font-size="10.00">{std::basic_string&lt;</text>
<text text-anchor="middle" x="286" y="-1475" font-family="Helvetica,sans-Serif" font-size="10.00"> Char &gt;</text>
<text text-anchor="middle" x="286" y="-1464" font-family="Helvetica,sans-Serif" font-size="10.00">||}</text>
</a>
</g>
</g>
<!-- Node6&#45;&gt;Node5 -->
<g id="edge5" class="edge">
<title>Node6&#45;&gt;Node5</title>
<path fill="none" stroke="#63b8ff" d="M286,-1445.62C286,-1414.38 286,-1367.48 286,-1344.18"/>
<polygon fill="none" stroke="#63b8ff" points="282.5,-1445.23 286,-1455.23 289.5,-1445.23 282.5,-1445.23"/>
</g>
<!-- Node7 -->
<g id="node7" class="node">
<title>Node7</title>
<g id="a_node7"><a xlink:title=" ">
<polygon fill="white" stroke="#666666" points="354,-393 248,-393 248,-341 354,-341 354,-393"/>
<text text-anchor="start" x="256" y="-381" font-family="Helvetica,sans-Serif" font-size="10.00">{std::shared_ptr&lt; HY</text>
<text text-anchor="middle" x="301" y="-370" font-family="Helvetica,sans-Serif" font-size="10.00">_FlowPath &gt;</text>
<text text-anchor="start" x="256" y="-359" font-family="Helvetica,sans-Serif" font-size="10.00">||+ operator&#45;&gt;()</text>
<text text-anchor="middle" x="301" y="-348" font-family="Helvetica,sans-Serif" font-size="10.00">}</text>
</a>
</g>
</g>
<!-- Node7&#45;&gt;Node3 -->
<g id="edge6" class="edge">
<title>Node7&#45;&gt;Node3</title>
<path fill="none" stroke="#404040" d="M268.88,-340.68C254.41,-329.27 236.88,-315.45 220.33,-302.41"/>
<polygon fill="none" stroke="#404040" points="220.32,-302.4 213.13,-301.83 210.9,-294.97 218.08,-295.54 220.32,-302.4"/>
<text text-anchor="middle" x="266" y="-315" font-family="Helvetica,sans-Serif" font-size="10.00"> &#45;flowpath</text>
</g>
<!-- Node8&#45;&gt;Node7 -->
<g id="edge7" class="edge">
<title>Node8&#45;&gt;Node7</title>
<path fill="none" stroke="#404040" d="M571.2,-450.16C516.42,-433.5 427.26,-406.39 366.46,-387.9"/>
<polygon fill="none" stroke="#404040" points="366.66,-387.97 359.76,-390.05 355.18,-384.47 362.08,-382.39 366.66,-387.97"/>
<text text-anchor="middle" x="480" y="-414" font-family="Helvetica,sans-Serif" font-size="10.00"> +ptr</text>
</g>
<!-- Node9 -->
<g id="node9" class="node">
<title>Node9</title>
<g id="a_node9"><a xlink:href="class_h_y___catchment_realization.html" target="_top" xlink:title=" ">
<polygon fill="white" stroke="#666666" points="610,-646 460,-646 460,-539 610,-539 610,-646"/>
<text text-anchor="middle" x="535" y="-634" font-family="Helvetica,sans-Serif" font-size="10.00">{HY_CatchmentRealization</text>
<text text-anchor="start" x="468" y="-623" font-family="Helvetica,sans-Serif" font-size="10.00">|# id_number</text>
<text text-anchor="start" x="468" y="-612" font-family="Helvetica,sans-Serif" font-size="10.00">|+ HY_CatchmentRealization()</text>
<text text-anchor="start" x="468" y="-601" font-family="Helvetica,sans-Serif" font-size="10.00">+ HY_CatchmentRealization()</text>
<text text-anchor="start" x="468" y="-590" font-family="Helvetica,sans-Serif" font-size="10.00">+ ~HY_CatchmentRealization()</text>
<text text-anchor="start" x="468" y="-579" font-family="Helvetica,sans-Serif" font-size="10.00">+ get_response()</text>
<text text-anchor="start" x="468" y="-568" font-family="Helvetica,sans-Serif" font-size="10.00"># get_catchment_id()</text>
<text text-anchor="start" x="468" y="-557" font-family="Helvetica,sans-Serif" font-size="10.00"># set_catchment_id()</text>
<text text-anchor="middle" x="535" y="-546" font-family="Helvetica,sans-Serif" font-size="10.00">}</text>
</a>
</g>
</g>
<!-- Node9&#45;&gt;Node8 -->
<g id="edge9" class="edge">
<title>Node9&#45;&gt;Node8</title>
<path fill="none" stroke="#63b8ff" d="M577.51,-529.24C586.41,-516.2 595.31,-503.16 602.65,-492.41"/>
<polygon fill="none" stroke="#63b8ff" points="574.65,-527.22 571.9,-537.45 580.43,-531.17 574.65,-527.22"/>
</g>
<!-- Node13 -->
<g id="node13" class="node">
<title>Node13</title>
<g id="a_node13"><a xlink:title=" ">
<polygon fill="white" stroke="#666666" points="471.5,-492 346.5,-492 346.5,-440 471.5,-440 471.5,-492"/>
<text text-anchor="start" x="354.5" y="-480" font-family="Helvetica,sans-Serif" font-size="10.00">{std::shared_ptr&lt; HY</text>
<text text-anchor="middle" x="409" y="-469" font-family="Helvetica,sans-Serif" font-size="10.00">_CatchmentRealization &gt;</text>
<text text-anchor="start" x="354.5" y="-458" font-family="Helvetica,sans-Serif" font-size="10.00">||+ operator&#45;&gt;()</text>
<text text-anchor="middle" x="409" y="-447" font-family="Helvetica,sans-Serif" font-size="10.00">}</text>
</a>
</g>
</g>
<!-- Node9&#45;&gt;Node13 -->
<g id="edge14" class="edge">
<title>Node9&#45;&gt;Node13</title>
<path fill="none" stroke="#404040" d="M481.56,-538.7C468.76,-526.05 455.41,-512.86 443.71,-501.29"/>
<polygon fill="none" stroke="#404040" points="443.89,-501.48 436.81,-500.1 435.36,-493.04 442.43,-494.41 443.89,-501.48"/>
<text text-anchor="middle" x="470" y="-513" font-family="Helvetica,sans-Serif" font-size="10.00"> +ptr</text>
</g>
<!-- Node10 -->
<g id="node10" class="node">
<title>Node10</title>
<g id="a_node10"><a xlink:title=" ">
<polygon fill="white" stroke="#666666" points="575,-786 469,-786 469,-734 575,-734 575,-786"/>
<text text-anchor="start" x="477" y="-774" font-family="Helvetica,sans-Serif" font-size="10.00">{std::shared_ptr&lt; HY</text>
<text text-anchor="middle" x="522" y="-763" font-family="Helvetica,sans-Serif" font-size="10.00">_Catchment &gt;</text>
<text text-anchor="start" x="477" y="-752" font-family="Helvetica,sans-Serif" font-size="10.00">||+ operator&#45;&gt;()</text>
<text text-anchor="middle" x="522" y="-741" font-family="Helvetica,sans-Serif" font-size="10.00">}</text>
</a>
</g>
</g>
<!-- Node10&#45;&gt;Node9 -->
<g id="edge10" class="edge">
<title>Node10&#45;&gt;Node9</title>
<path fill="none" stroke="#404040" d="M530.96,-733.82C532.64,-728.04 534.13,-721.86 535,-716 537.72,-697.63 538.58,-677.53 538.54,-659.03"/>
<polygon fill="none" stroke="#404040" points="538.54,-659.11 534.46,-653.16 538.38,-647.11 542.46,-653.05 538.54,-659.11"/>
<text text-anchor="middle" x="584" y="-687.5" font-family="Helvetica,sans-Serif" font-size="10.00"> #realized_catchment</text>
</g>
<!-- Node11&#45;&gt;Node10 -->
<g id="edge11" class="edge">
<title>Node11&#45;&gt;Node10</title>
<path fill="none" stroke="#404040" d="M387.26,-843.65C413.57,-827.51 444.26,-808.69 469.7,-793.08"/>
<polygon fill="none" stroke="#404040" points="469.62,-793.13 472.64,-786.58 479.85,-786.86 476.83,-793.4 469.62,-793.13"/>
<text text-anchor="middle" x="458" y="-812.5" font-family="Helvetica,sans-Serif" font-size="10.00"> +ptr</text>
</g>
<!-- Node12 -->
<g id="node12" class="node">
<title>Node12</title>
<g id="a_node12"><a xlink:href="class_h_y___hydro_feature.html" target="_top" xlink:title=" ">
<polygon fill="white" stroke="#666666" points="213,-1135 99,-1135 99,-1083 213,-1083 213,-1135"/>
<text text-anchor="middle" x="156" y="-1123" font-family="Helvetica,sans-Serif" font-size="10.00">{HY_HydroFeature</text>
<text text-anchor="start" x="107" y="-1112" font-family="Helvetica,sans-Serif" font-size="10.00">||+ HY_HydroFeature()</text>
<text text-anchor="start" x="107" y="-1101" font-family="Helvetica,sans-Serif" font-size="10.00">+ ~HY_HydroFeature()</text>
<text text-anchor="middle" x="156" y="-1090" font-family="Helvetica,sans-Serif" font-size="10.00">}</text>
</a>
</g>
</g>
<!-- Node12&#45;&gt;Node11 -->
<g id="edge12" class="edge">
<title>Node12&#45;&gt;Node11</title>
<path fill="none" stroke="#63b8ff" d="M182.26,-1073.5C214.22,-1031.5 267.94,-960.91 300.47,-918.17"/>
<polygon fill="none" stroke="#63b8ff" points="179.58,-1071.23 176.31,-1081.31 185.15,-1075.47 179.58,-1071.23"/>
</g>
<!-- Node13&#45;&gt;Node11 -->
<g id="edge13" class="edge">
<title>Node13&#45;&gt;Node11</title>
<path fill="none" stroke="#404040" d="M346.05,-489.32C321.93,-500.76 296.12,-517.01 279,-539 243.7,-584.34 253.39,-607.02 246,-664 236.27,-738.99 263.46,-758.73 298,-826 299.06,-828.06 300.15,-830.15 301.26,-832.26"/>
<polygon fill="none" stroke="#404040" points="301.23,-832.21 307.6,-835.6 306.91,-842.78 300.55,-839.39 301.23,-832.21"/>
<text text-anchor="middle" x="272" y="-687.5" font-family="Helvetica,sans-Serif" font-size="10.00"> +realization</text>
</g>
<!-- Node14 -->
<g id="node14" class="node">
<title>Node14</title>
<g id="a_node14"><a xlink:title=" ">
<polygon fill="white" stroke="#666666" points="630,-901.5 524,-901.5 524,-860.5 630,-860.5 630,-901.5"/>
<text text-anchor="middle" x="577" y="-889.5" font-family="Helvetica,sans-Serif" font-size="10.00">{std::shared_ptr&lt; T &gt;</text>
<text text-anchor="start" x="532" y="-878.5" font-family="Helvetica,sans-Serif" font-size="10.00">||+ operator&#45;&gt;()</text>
<text text-anchor="middle" x="577" y="-867.5" font-family="Helvetica,sans-Serif" font-size="10.00">}</text>
</a>
</g>
</g>
<!-- Node14&#45;&gt;Node7 -->
<g id="edge33" class="edge">
<title>Node14&#45;&gt;Node7</title>
<path fill="none" stroke="orange" d="M512.48,-869.52C480.51,-861.75 442.88,-848.46 415,-826 342.52,-767.62 333.79,-735.42 308,-646 282.05,-556.01 291.41,-442.76 297.47,-393.18"/>
<polygon fill="orange" stroke="orange" points="511.52,-872.89 522.05,-871.7 513.08,-866.06 511.52,-872.89"/>
<text text-anchor="middle" x="348" y="-590" font-family="Helvetica,sans-Serif" font-size="10.00"> &lt; HY_FlowPath &gt;</text>
</g>
<!-- Node14&#45;&gt;Node10 -->
<g id="edge25" class="edge">
<title>Node14&#45;&gt;Node10</title>
<path fill="none" stroke="orange" d="M541.4,-852.39C533.97,-844.71 527.14,-835.77 523,-826 517.77,-813.63 517.18,-798.72 518.05,-786.3"/>
<polygon fill="orange" stroke="orange" points="538.85,-854.79 548.51,-859.15 543.68,-849.72 538.85,-854.79"/>
<text text-anchor="middle" x="566" y="-812.5" font-family="Helvetica,sans-Serif" font-size="10.00"> &lt; HY_Catchment &gt;</text>
</g>
<!-- Node14&#45;&gt;Node13 -->
<g id="edge15" class="edge">
<title>Node14&#45;&gt;Node13</title>
<path fill="none" stroke="orange" d="M529.59,-854.18C485.04,-826.74 421.76,-778.65 398,-716 382.7,-675.64 397.93,-546.97 405.39,-492.13"/>
<polygon fill="orange" stroke="orange" points="527.68,-857.12 538.06,-859.27 531.29,-851.12 527.68,-857.12"/>
<text text-anchor="middle" x="464.5" y="-687.5" font-family="Helvetica,sans-Serif" font-size="10.00"> &lt; HY_CatchmentRealization &gt;</text>
</g>
<!-- Node19 -->
<g id="node19" class="node">
<title>Node19</title>
<g id="a_node19"><a xlink:title=" ">
<polygon fill="white" stroke="#666666" points="750,-786 594,-786 594,-734 750,-734 750,-786"/>
<text text-anchor="start" x="602" y="-774" font-family="Helvetica,sans-Serif" font-size="10.00">{std::shared_ptr&lt; data</text>
<text text-anchor="middle" x="672" y="-763" font-family="Helvetica,sans-Serif" font-size="10.00">_access::GenericDataProvider &gt;</text>
<text text-anchor="start" x="602" y="-752" font-family="Helvetica,sans-Serif" font-size="10.00">||+ operator&#45;&gt;()</text>
<text text-anchor="middle" x="672" y="-741" font-family="Helvetica,sans-Serif" font-size="10.00">}</text>
</a>
</g>
</g>
<!-- Node14&#45;&gt;Node19 -->
<g id="edge30" class="edge">
<title>Node14&#45;&gt;Node19</title>
<path fill="none" stroke="orange" d="M596.92,-850.73C607.03,-836.34 619.73,-818.93 632,-804 636.79,-798.17 642.15,-792.12 647.36,-786.46"/>
<polygon fill="orange" stroke="orange" points="594.07,-848.69 591.24,-858.9 599.82,-852.68 594.07,-848.69"/>
<text text-anchor="start" x="632" y="-818" font-family="Helvetica,sans-Serif" font-size="10.00"> &lt; data_access::GenericData</text>
<text text-anchor="middle" x="694.5" y="-807" font-family="Helvetica,sans-Serif" font-size="10.00">Provider &gt;</text>
</g>
<!-- Node23 -->
<g id="node23" class="node">
<title>Node23</title>
<g id="a_node23"><a xlink:title=" ">
<polygon fill="white" stroke="#666666" points="861.5,-716 714.5,-716 714.5,-664 861.5,-664 861.5,-716"/>
<text text-anchor="middle" x="788" y="-704" font-family="Helvetica,sans-Serif" font-size="10.00">{std::shared_ptr&lt; linestring_t &gt;</text>
<text text-anchor="start" x="722.5" y="-693" font-family="Helvetica,sans-Serif" font-size="10.00">|+ ptr</text>
<text text-anchor="start" x="722.5" y="-682" font-family="Helvetica,sans-Serif" font-size="10.00">|+ operator&#45;&gt;()</text>
<text text-anchor="middle" x="788" y="-671" font-family="Helvetica,sans-Serif" font-size="10.00">}</text>
</a>
</g>
</g>
<!-- Node14&#45;&gt;Node23 -->
<g id="edge32" class="edge">
<title>Node14&#45;&gt;Node23</title>
<path fill="none" stroke="orange" d="M641.29,-876.5C680,-870.99 727.37,-857.65 757,-826 784.94,-796.16 789.44,-746.42 789.32,-716.37"/>
<polygon fill="orange" stroke="orange" points="641.09,-873 631.61,-877.73 641.97,-879.95 641.09,-873"/>
<text text-anchor="middle" x="804.5" y="-812.5" font-family="Helvetica,sans-Serif" font-size="10.00"> &lt; linestring_t &gt;</text>
</g>
<!-- Node15 -->
<g id="node15" class="node">
<title>Node15</title>
<g id="a_node15"><a xlink:title=" ">
<polygon fill="white" stroke="#666666" points="618.5,-1492.5 589.5,-1492.5 589.5,-1462.5 618.5,-1462.5 618.5,-1492.5"/>
<text text-anchor="middle" x="604" y="-1480.5" font-family="Helvetica,sans-Serif" font-size="10.00">{T</text>
<text text-anchor="middle" x="604" y="-1469.5" font-family="Helvetica,sans-Serif" font-size="10.00">||}</text>
</a>
</g>
</g>
<!-- Node15&#45;&gt;Node14 -->
<g id="edge16" class="edge">
<title>Node15&#45;&gt;Node14</title>
<path fill="none" stroke="#404040" d="M618.83,-1463.82C625.43,-1457.18 632.51,-1448.48 636,-1439 637.69,-1434.41 636.03,-1432.89 636,-1428 634.89,-1250.21 663.42,-1202.81 631,-1028 623.4,-987.03 605.37,-942.45 592.23,-913.47"/>
<polygon fill="none" stroke="#404040" points="592.19,-913.4 586.04,-909.64 587.14,-902.51 593.29,-906.27 592.19,-913.4"/>
<text text-anchor="middle" x="656" y="-1216.5" font-family="Helvetica,sans-Serif" font-size="10.00"> +ptr</text>
</g>
<!-- Node17 -->
<g id="node17" class="node">
<title>Node17</title>
<g id="a_node17"><a xlink:title=" ">
<polygon fill="white" stroke="#666666" points="601.5,-1344 514.5,-1344 514.5,-1314 601.5,-1314 601.5,-1344"/>
<text text-anchor="middle" x="558" y="-1332" font-family="Helvetica,sans-Serif" font-size="10.00">{std::vector&lt; T &gt;</text>
<text text-anchor="middle" x="558" y="-1321" font-family="Helvetica,sans-Serif" font-size="10.00">||}</text>
</a>
</g>
</g>
<!-- Node15&#45;&gt;Node17 -->
<g id="edge21" class="edge">
<title>Node15&#45;&gt;Node17</title>
<path fill="none" stroke="#404040" d="M596.81,-1462.13C593.54,-1455.24 589.79,-1446.81 587,-1439 577.19,-1411.51 568.97,-1379.08 563.82,-1356.78"/>
<polygon fill="none" stroke="#404040" points="563.85,-1356.93 558.63,-1351.95 561.22,-1345.22 566.44,-1350.19 563.85,-1356.93"/>
<text text-anchor="middle" x="611.5" y="-1431" font-family="Helvetica,sans-Serif" font-size="10.00"> +elements</text>
</g>
<!-- Node16&#45;&gt;Node11 -->
<g id="edge18" class="edge">
<title>Node16&#45;&gt;Node11</title>
<path fill="none" stroke="#404040" d="M288.69,-1093.52C294.67,-1061.37 309.27,-982.78 318.9,-930.98"/>
<polygon fill="none" stroke="#404040" points="318.87,-931.11 316.04,-924.48 321.07,-919.32 323.9,-925.95 318.87,-931.11"/>
<text text-anchor="middle" x="338" y="-976" font-family="Helvetica,sans-Serif" font-size="10.00"> &#45;inflows</text>
<text text-anchor="middle" x="338" y="-965" font-family="Helvetica,sans-Serif" font-size="10.00">&#45;outflows</text>
</g>
<!-- Node17&#45;&gt;Node16 -->
<g id="edge20" class="edge">
<title>Node17&#45;&gt;Node16</title>
<path fill="none" stroke="orange" d="M546.04,-1303.55C530.99,-1275.59 502.39,-1230.75 464,-1208 421.76,-1182.97 397.82,-1214.03 355,-1190 327.01,-1174.29 305.04,-1142.68 293.95,-1124.24"/>
<polygon fill="orange" stroke="orange" points="542.9,-1305.1 550.61,-1312.36 549.11,-1301.87 542.9,-1305.1"/>
<text text-anchor="middle" x="513.5" y="-1216.5" font-family="Helvetica,sans-Serif" font-size="10.00"> &lt; Nexus &gt;</text>
</g>
<!-- Node17&#45;&gt;Node18 -->
<g id="edge24" class="edge">
<title>Node17&#45;&gt;Node18</title>
<path fill="none" stroke="orange" d="M558,-1302.33C558,-1256.17 558,-1160.6 558,-1124.36"/>
<polygon fill="orange" stroke="orange" points="554.5,-1302.18 558,-1312.18 561.5,-1302.18 554.5,-1302.18"/>
<text text-anchor="middle" x="591.5" y="-1216.5" font-family="Helvetica,sans-Serif" font-size="10.00"> &lt; Catchment &gt;</text>
</g>
<!-- Node18&#45;&gt;Node11 -->
<g id="edge22" class="edge">
<title>Node18&#45;&gt;Node11</title>
<path fill="none" stroke="#404040" d="M545,-1093.75C517.43,-1063.74 450.75,-992.15 391,-936 387.81,-933 384.48,-929.95 381.1,-926.9"/>
<polygon fill="none" stroke="#404040" points="381.15,-926.94 374.01,-925.95 372.17,-918.98 379.32,-919.97 381.15,-926.94"/>
<text text-anchor="middle" x="517" y="-970.5" font-family="Helvetica,sans-Serif" font-size="10.00"> &#45;contained_catchments</text>
</g>
<!-- Node19&#45;&gt;Node9 -->
<g id="edge26" class="edge">
<title>Node19&#45;&gt;Node9</title>
<path fill="none" stroke="#404040" d="M666.09,-733.58C660.41,-713.19 650.25,-684.67 634,-664 629.76,-658.61 625,-653.45 619.93,-648.55"/>
<polygon fill="none" stroke="#404040" points="620.06,-648.67 612.93,-647.62 611.16,-640.63 618.29,-641.68 620.06,-648.67"/>
<text text-anchor="middle" x="678.5" y="-687.5" font-family="Helvetica,sans-Serif" font-size="10.00"> #forcing</text>
</g>
<!-- Node20 -->
<g id="node20" class="node">
<title>Node20</title>
<g id="a_node20"><a xlink:href="classdata__access_1_1_generic_data_provider.html" target="_top" xlink:title=" ">
<polygon fill="white" stroke="#666666" points="936,-901.5 802,-901.5 802,-860.5 936,-860.5 936,-901.5"/>
<text text-anchor="start" x="810" y="-889.5" font-family="Helvetica,sans-Serif" font-size="10.00">{data_access::GenericData</text>
<text text-anchor="middle" x="869" y="-878.5" font-family="Helvetica,sans-Serif" font-size="10.00">Provider</text>
<text text-anchor="middle" x="869" y="-867.5" font-family="Helvetica,sans-Serif" font-size="10.00">||}</text>
</a>
</g>
</g>
<!-- Node20&#45;&gt;Node19 -->
<g id="edge27" class="edge">
<title>Node20&#45;&gt;Node19</title>
<path fill="none" stroke="#404040" d="M868.54,-860.06C867.06,-842.86 862.16,-818.55 847,-804 834.23,-791.74 798.56,-781.92 762.72,-774.77"/>
<polygon fill="none" stroke="#404040" points="762.75,-774.78 756.11,-777.58 750.96,-772.53 757.61,-769.72 762.75,-774.78"/>
<text text-anchor="middle" x="870" y="-812.5" font-family="Helvetica,sans-Serif" font-size="10.00"> +ptr</text>
</g>
<!-- Node21 -->
<g id="node21" class="node">
<title>Node21</title>
<g id="a_node21"><a xlink:href="classdata__access_1_1_data_provider.html" target="_top" xlink:title=" ">
<polygon fill="white" stroke="#666666" points="964.5,-1190 773.5,-1190 773.5,-1028 964.5,-1028 964.5,-1190"/>
<text text-anchor="start" x="781.5" y="-1178" font-family="Helvetica,sans-Serif" font-size="10.00">{data_access::DataProvider</text>
<text text-anchor="middle" x="869" y="-1167" font-family="Helvetica,sans-Serif" font-size="10.00">&lt; double, CatchmentAggrDataSelector &gt;</text>
<text text-anchor="start" x="781.5" y="-1156" font-family="Helvetica,sans-Serif" font-size="10.00">||+ ~DataProvider()</text>
<text text-anchor="start" x="781.5" y="-1145" font-family="Helvetica,sans-Serif" font-size="10.00">+ get_avaliable_variable</text>
<text text-anchor="start" x="781.5" y="-1134" font-family="Helvetica,sans-Serif" font-size="10.00">_names()</text>
<text text-anchor="start" x="781.5" y="-1123" font-family="Helvetica,sans-Serif" font-size="10.00">+ get_data_start_time()</text>
<text text-anchor="start" x="781.5" y="-1112" font-family="Helvetica,sans-Serif" font-size="10.00">+ get_data_stop_time()</text>
<text text-anchor="start" x="781.5" y="-1101" font-family="Helvetica,sans-Serif" font-size="10.00">+ record_duration()</text>
<text text-anchor="start" x="781.5" y="-1090" font-family="Helvetica,sans-Serif" font-size="10.00">+ get_ts_index_for_time()</text>
<text text-anchor="start" x="781.5" y="-1079" font-family="Helvetica,sans-Serif" font-size="10.00">+ get_value()</text>
<text text-anchor="start" x="781.5" y="-1068" font-family="Helvetica,sans-Serif" font-size="10.00">+ get_values()</text>
<text text-anchor="start" x="781.5" y="-1057" font-family="Helvetica,sans-Serif" font-size="10.00">+ is_property_sum_over</text>
<text text-anchor="start" x="781.5" y="-1046" font-family="Helvetica,sans-Serif" font-size="10.00">_time_step()</text>
<text text-anchor="middle" x="869" y="-1035" font-family="Helvetica,sans-Serif" font-size="10.00">}</text>
</a>
</g>
</g>
<!-- Node21&#45;&gt;Node20 -->
<g id="edge28" class="edge">
<title>Node21&#45;&gt;Node20</title>
<path fill="none" stroke="#63b8ff" d="M869,-1016.43C869,-974.02 869,-927.43 869,-901.75"/>
<polygon fill="none" stroke="#63b8ff" points="865.5,-1016.17 869,-1026.17 872.5,-1016.17 865.5,-1016.17"/>
</g>
<!-- Node22 -->
<g id="node22" class="node">
<title>Node22</title>
<g id="a_node22"><a xlink:href="classdata__access_1_1_data_provider.html" target="_top" xlink:title=" ">
<polygon fill="white" stroke="#666666" points="940.5,-1410 797.5,-1410 797.5,-1248 940.5,-1248 940.5,-1410"/>
<text text-anchor="start" x="805.5" y="-1398" font-family="Helvetica,sans-Serif" font-size="10.00">{data_access::DataProvider</text>
<text text-anchor="middle" x="869" y="-1387" font-family="Helvetica,sans-Serif" font-size="10.00">&lt; data_type, selection_type &gt;</text>
<text text-anchor="start" x="805.5" y="-1376" font-family="Helvetica,sans-Serif" font-size="10.00">||+ ~DataProvider()</text>
<text text-anchor="start" x="805.5" y="-1365" font-family="Helvetica,sans-Serif" font-size="10.00">+ get_avaliable_variable</text>
<text text-anchor="start" x="805.5" y="-1354" font-family="Helvetica,sans-Serif" font-size="10.00">_names()</text>
<text text-anchor="start" x="805.5" y="-1343" font-family="Helvetica,sans-Serif" font-size="10.00">+ get_data_start_time()</text>
<text text-anchor="start" x="805.5" y="-1332" font-family="Helvetica,sans-Serif" font-size="10.00">+ get_data_stop_time()</text>
<text text-anchor="start" x="805.5" y="-1321" font-family="Helvetica,sans-Serif" font-size="10.00">+ record_duration()</text>
<text text-anchor="start" x="805.5" y="-1310" font-family="Helvetica,sans-Serif" font-size="10.00">+ get_ts_index_for_time()</text>
<text text-anchor="start" x="805.5" y="-1299" font-family="Helvetica,sans-Serif" font-size="10.00">+ get_value()</text>
<text text-anchor="start" x="805.5" y="-1288" font-family="Helvetica,sans-Serif" font-size="10.00">+ get_values()</text>
<text text-anchor="start" x="805.5" y="-1277" font-family="Helvetica,sans-Serif" font-size="10.00">+ is_property_sum_over</text>
<text text-anchor="start" x="805.5" y="-1266" font-family="Helvetica,sans-Serif" font-size="10.00">_time_step()</text>
<text text-anchor="middle" x="869" y="-1255" font-family="Helvetica,sans-Serif" font-size="10.00">}</text>
</a>
</g>
</g>
<!-- Node22&#45;&gt;Node21 -->
<g id="edge29" class="edge">
<title>Node22&#45;&gt;Node21</title>
<path fill="none" stroke="orange" d="M869,-1236.68C869,-1221.33 869,-1205.49 869,-1190.44"/>
<polygon fill="orange" stroke="orange" points="865.5,-1236.24 869,-1246.24 872.5,-1236.24 865.5,-1236.24"/>
<text text-anchor="start" x="869" y="-1222" font-family="Helvetica,sans-Serif" font-size="10.00"> &lt; double, CatchmentAggrData</text>
<text text-anchor="middle" x="935.5" y="-1211" font-family="Helvetica,sans-Serif" font-size="10.00">Selector &gt;</text>
</g>
<!-- Node23&#45;&gt;Node8 -->
<g id="edge31" class="edge">
<title>Node23&#45;&gt;Node8</title>
<path fill="none" stroke="#404040" d="M714.27,-666.85C684.86,-657.71 657.33,-648.63 655,-646 636.88,-625.57 627.29,-551.42 622.96,-505.21"/>
<polygon fill="none" stroke="#404040" points="622.96,-505.27 618.45,-499.64 621.91,-493.31 626.42,-498.94 622.96,-505.27"/>
<text text-anchor="middle" x="678.5" y="-590" font-family="Helvetica,sans-Serif" font-size="10.00"> &#45;flow_path</text>
</g>
</g>
</svg>
