<?xml version="1.0" encoding="UTF-8" standalone="no"?>
<!DOCTYPE svg PUBLIC "-//W3C//DTD SVG 1.1//EN"
 "http://www.w3.org/Graphics/SVG/1.1/DTD/svg11.dtd">
<!-- Generated by graphviz version 2.44.0 ()
 -->
<!-- Title: nexus::Nexus_Manager Pages: 1 -->
<!--zoomable 640 -->
<svg id="main" version="1.1" xmlns="http://www.w3.org/2000/svg" xmlns:xlink="http://www.w3.org/1999/xlink" xml:space="preserve" onload="init(evt)">
<style type="text/css"><![CDATA[
.edge:hover path { stroke: red; }
.edge:hover polygon { stroke: red; fill: red; }
]]></style>
<script type="text/javascript"><![CDATA[
var edges = document.getElementsByTagName('g');
if (edges && edges.length) {
  for (var i=0;i<edges.length;i++) {
    if (edges[i].id.substr(0,4)=='edge') {
      edges[i].setAttribute('class','edge');
    }
  }
}
]]></script>
        <defs>
                <circle id="rim" cx="0" cy="0" r="7"/>
                <circle id="rim2" cx="0" cy="0" r="3.5"/>
                <g id="zoomPlus">
                        <use xlink:href="#rim" fill="#404040">
                                <set attributeName="fill" to="#808080" begin="zoomplus.mouseover" end="zoomplus.mouseout"/>
                        </use>
                        <path d="M-4,0h8M0,-4v8" fill="none" stroke="white" stroke-width="1.5" pointer-events="none"/>
                </g>
                <g id="zoomMin">
                        <use xlink:href="#rim" fill="#404040">
                                <set attributeName="fill" to="#808080" begin="zoomminus.mouseover" end="zoomminus.mouseout"/>
                        </use>
                        <path d="M-4,0h8" fill="none" stroke="white" stroke-width="1.5" pointer-events="none"/>
                </g>
                <g id="dirArrow">
                        <path fill="none" stroke="white" stroke-width="1.5" d="M0,-3.0v7 M-2.5,-0.5L0,-3.0L2.5,-0.5"/>
                </g>
               <g id="resetDef">
                       <use xlink:href="#rim2" fill="#404040">
                               <set attributeName="fill" to="#808080" begin="reset.mouseover" end="reset.mouseout"/>
                       </use>
               </g>
        </defs>

<script type="text/javascript">
var viewWidth = 414;
var viewHeight = 640;
var sectionId = 'dynsection-0';
</script>
<script xlink:href="svgpan.js"/>
<svg id="graph" class="graph">
<g id="viewport">
<title>nexus::Nexus_Manager</title>
<polygon fill="white" stroke="transparent" points="-4,4 -4,-636 409.5,-636 409.5,4 -4,4"/>
<!-- Node1 -->
<g id="node1" class="node">
<title>Node1</title>
<g id="a_node1"><a xlink:title=" ">
<polygon fill="#bfbfbf" stroke="black" points="81,-0.5 81,-167.5 244,-167.5 244,-0.5 81,-0.5"/>
<text text-anchor="middle" x="162.5" y="-155.5" font-family="Helvetica,sans-Serif" font-size="10.00">nexus::Nexus_Manager</text>
<polyline fill="none" stroke="black" points="81,-148.5 244,-148.5 "/>
<text text-anchor="middle" x="162.5" y="-136.5" font-family="Helvetica,sans-Serif" font-size="10.00"> </text>
<polyline fill="none" stroke="black" points="81,-129.5 244,-129.5 "/>
<text text-anchor="start" x="89" y="-117.5" font-family="Helvetica,sans-Serif" font-size="10.00">+ Nexus_Manager()</text>
<text text-anchor="start" x="89" y="-106.5" font-family="Helvetica,sans-Serif" font-size="10.00">+ ~Nexus_Manager()</text>
<text text-anchor="start" x="89" y="-95.5" font-family="Helvetica,sans-Serif" font-size="10.00">+ add_nexus()</text>
<text text-anchor="start" x="89" y="-84.5" font-family="Helvetica,sans-Serif" font-size="10.00">+ get_nexus()</text>
<text text-anchor="start" x="89" y="-73.5" font-family="Helvetica,sans-Serif" font-size="10.00">+ contains()</text>
<text text-anchor="start" x="89" y="-62.5" font-family="Helvetica,sans-Serif" font-size="10.00">+ get_size()</text>
<text text-anchor="start" x="89" y="-51.5" font-family="Helvetica,sans-Serif" font-size="10.00">+ is_empty()</text>
<text text-anchor="start" x="89" y="-40.5" font-family="Helvetica,sans-Serif" font-size="10.00">+ begin()</text>
<text text-anchor="start" x="89" y="-29.5" font-family="Helvetica,sans-Serif" font-size="10.00">+ end()</text>
<text text-anchor="start" x="89" y="-18.5" font-family="Helvetica,sans-Serif" font-size="10.00"># construct_nexus()</text>
<text text-anchor="start" x="89" y="-7.5" font-family="Helvetica,sans-Serif" font-size="10.00"># construct_missing_formulation()</text>
</a>
</g>
</g>
<!-- Node2 -->
<g id="node2" class="node">
<title>Node2</title>
<g id="a_node2"><a xlink:title=" ">
<polygon fill="white" stroke="#bfbfbf" points="109,-215.5 109,-294.5 216,-294.5 216,-215.5 109,-215.5"/>
<text text-anchor="start" x="117" y="-282.5" font-family="Helvetica,sans-Serif" font-size="10.00">std::map&lt; std::string,</text>
<text text-anchor="start" x="117" y="-271.5" font-family="Helvetica,sans-Serif" font-size="10.00"> std::shared_ptr&lt; HY</text>
<text text-anchor="middle" x="162.5" y="-260.5" font-family="Helvetica,sans-Serif" font-size="10.00">_HydroNexus &gt; &gt;</text>
<polyline fill="none" stroke="#bfbfbf" points="109,-253.5 216,-253.5 "/>
<text text-anchor="middle" x="162.5" y="-241.5" font-family="Helvetica,sans-Serif" font-size="10.00"> </text>
<polyline fill="none" stroke="#bfbfbf" points="109,-234.5 216,-234.5 "/>
<text text-anchor="middle" x="162.5" y="-222.5" font-family="Helvetica,sans-Serif" font-size="10.00"> </text>
</a>
</g>
</g>
<!-- Node2&#45;&gt;Node1 -->
<g id="edge1" class="edge">
<title>Node2&#45;&gt;Node1</title>
<path fill="none" stroke="#404040" d="M162.5,-215.23C162.5,-204.45 162.5,-192.24 162.5,-179.74"/>
<polygon fill="none" stroke="#404040" points="162.5,-179.69 158.5,-173.69 162.5,-167.69 166.5,-173.69 162.5,-179.69"/>
<text text-anchor="middle" x="184.5" y="-189" font-family="Helvetica,sans-Serif" font-size="10.00"> #nexuses</text>
</g>
<!-- Node3 -->
<g id="node3" class="node">
<title>Node3</title>
<g id="a_node3"><a xlink:title=" ">
<polygon fill="white" stroke="#bfbfbf" points="26,-348 26,-405 85,-405 85,-348 26,-348"/>
<text text-anchor="middle" x="55.5" y="-393" font-family="Helvetica,sans-Serif" font-size="10.00">std::string</text>
<polyline fill="none" stroke="#bfbfbf" points="26,-386 85,-386 "/>
<text text-anchor="middle" x="55.5" y="-374" font-family="Helvetica,sans-Serif" font-size="10.00"> </text>
<polyline fill="none" stroke="#bfbfbf" points="26,-367 85,-367 "/>
<text text-anchor="middle" x="55.5" y="-355" font-family="Helvetica,sans-Serif" font-size="10.00"> </text>
</a>
</g>
</g>
<!-- Node3&#45;&gt;Node2 -->
<g id="edge2" class="edge">
<title>Node3&#45;&gt;Node2</title>
<path fill="none" stroke="#404040" d="M80.32,-347.78C91.97,-334.77 106.21,-318.87 119.54,-303.98"/>
<polygon fill="none" stroke="#404040" points="119.68,-303.82 120.7,-296.68 127.69,-294.88 126.66,-302.02 119.68,-303.82"/>
<text text-anchor="middle" x="124" y="-316" font-family="Helvetica,sans-Serif" font-size="10.00"> +keys</text>
</g>
<!-- Node4 -->
<g id="node4" class="node">
<title>Node4</title>
<g id="a_node4"><a xlink:title=" ">
<polygon fill="white" stroke="#bfbfbf" points="0,-458.5 0,-526.5 93,-526.5 93,-458.5 0,-458.5"/>
<text text-anchor="start" x="8" y="-514.5" font-family="Helvetica,sans-Serif" font-size="10.00">std::basic_string&lt;</text>
<text text-anchor="middle" x="46.5" y="-503.5" font-family="Helvetica,sans-Serif" font-size="10.00"> Char &gt;</text>
<polyline fill="none" stroke="#bfbfbf" points="0,-496.5 93,-496.5 "/>
<text text-anchor="middle" x="46.5" y="-484.5" font-family="Helvetica,sans-Serif" font-size="10.00"> </text>
<polyline fill="none" stroke="#bfbfbf" points="0,-477.5 93,-477.5 "/>
<text text-anchor="middle" x="46.5" y="-465.5" font-family="Helvetica,sans-Serif" font-size="10.00"> </text>
</a>
</g>
</g>
<!-- Node4&#45;&gt;Node3 -->
<g id="edge3" class="edge">
<title>Node4&#45;&gt;Node3</title>
<path fill="none" stroke="midnightblue" d="M49.93,-448.03C51.07,-433.67 52.3,-418.1 53.31,-405.24"/>
<polygon fill="none" stroke="midnightblue" points="46.43,-447.98 49.13,-458.22 53.4,-448.53 46.43,-447.98"/>
</g>
<!-- Node5 -->
<g id="node5" class="node">
<title>Node5</title>
<g id="a_node5"><a xlink:title=" ">
<polygon fill="white" stroke="#bfbfbf" points="111,-342.5 111,-410.5 214,-410.5 214,-342.5 111,-342.5"/>
<text text-anchor="start" x="119" y="-398.5" font-family="Helvetica,sans-Serif" font-size="10.00">std::shared_ptr&lt; HY</text>
<text text-anchor="middle" x="162.5" y="-387.5" font-family="Helvetica,sans-Serif" font-size="10.00">_HydroNexus &gt;</text>
<polyline fill="none" stroke="#bfbfbf" points="111,-380.5 214,-380.5 "/>
<text text-anchor="start" x="119" y="-368.5" font-family="Helvetica,sans-Serif" font-size="10.00">+ ptr</text>
<polyline fill="none" stroke="#bfbfbf" points="111,-361.5 214,-361.5 "/>
<text text-anchor="start" x="119" y="-349.5" font-family="Helvetica,sans-Serif" font-size="10.00">+ operator&#45;&gt;()</text>
</a>
</g>
</g>
<!-- Node5&#45;&gt;Node2 -->
<g id="edge4" class="edge">
<title>Node5&#45;&gt;Node2</title>
<path fill="none" stroke="#404040" d="M162.5,-342.21C162.5,-331.24 162.5,-318.78 162.5,-306.81"/>
<polygon fill="none" stroke="#404040" points="162.5,-306.6 158.5,-300.6 162.5,-294.6 166.5,-300.6 162.5,-306.6"/>
<text text-anchor="middle" x="187" y="-316" font-family="Helvetica,sans-Serif" font-size="10.00"> +elements</text>
</g>
<!-- Node6 -->
<g id="node6" class="node">
<title>Node6</title>
<g id="a_node6"><a xlink:title=" ">
<polygon fill="white" stroke="#bfbfbf" points="111,-464 111,-521 214,-521 214,-464 111,-464"/>
<text text-anchor="middle" x="162.5" y="-509" font-family="Helvetica,sans-Serif" font-size="10.00">std::shared_ptr&lt; T &gt;</text>
<polyline fill="none" stroke="#bfbfbf" points="111,-502 214,-502 "/>
<text text-anchor="middle" x="162.5" y="-490" font-family="Helvetica,sans-Serif" font-size="10.00"> </text>
<polyline fill="none" stroke="#bfbfbf" points="111,-483 214,-483 "/>
<text text-anchor="start" x="119" y="-471" font-family="Helvetica,sans-Serif" font-size="10.00">+ operator&#45;&gt;()</text>
</a>
</g>
</g>
<!-- Node6&#45;&gt;Node5 -->
<g id="edge5" class="edge">
<title>Node6&#45;&gt;Node5</title>
<path fill="none" stroke="orange" d="M162.5,-453.64C162.5,-439.69 162.5,-424.01 162.5,-410.52"/>
<polygon fill="orange" stroke="orange" points="159,-453.9 162.5,-463.9 166,-453.9 159,-453.9"/>
<text text-anchor="middle" x="208.5" y="-432" font-family="Helvetica,sans-Serif" font-size="10.00"> &lt; HY_HydroNexus &gt;</text>
</g>
<!-- Node7 -->
<g id="node7" class="node">
<title>Node7</title>
<g id="a_node7"><a xlink:title=" ">
<polygon fill="white" stroke="#bfbfbf" points="170,-574.5 170,-631.5 199,-631.5 199,-574.5 170,-574.5"/>
<text text-anchor="middle" x="184.5" y="-619.5" font-family="Helvetica,sans-Serif" font-size="10.00">T</text>
<polyline fill="none" stroke="#bfbfbf" points="170,-612.5 199,-612.5 "/>
<text text-anchor="middle" x="184.5" y="-600.5" font-family="Helvetica,sans-Serif" font-size="10.00"> </text>
<polyline fill="none" stroke="#bfbfbf" points="170,-593.5 199,-593.5 "/>
<text text-anchor="middle" x="184.5" y="-581.5" font-family="Helvetica,sans-Serif" font-size="10.00"> </text>
</a>
</g>
</g>
<!-- Node7&#45;&gt;Node6 -->
<g id="edge6" class="edge">
<title>Node7&#45;&gt;Node6</title>
<path fill="none" stroke="#404040" d="M169.92,-574.92C167.29,-568.85 164.93,-562.34 163.5,-556 161.86,-548.72 161.02,-540.85 160.68,-533.22"/>
<polygon fill="none" stroke="#404040" points="160.68,-533.17 156.6,-527.23 160.52,-521.17 164.6,-527.11 160.68,-533.17"/>
<text text-anchor="middle" x="173.5" y="-548" font-family="Helvetica,sans-Serif" font-size="10.00"> +ptr</text>
</g>
<!-- Node8 -->
<g id="node8" class="node">
<title>Node8</title>
<g id="a_node8"><a xlink:title=" ">
<polygon fill="white" stroke="#bfbfbf" points="232.5,-464 232.5,-521 320.5,-521 320.5,-464 232.5,-464"/>
<text text-anchor="middle" x="276.5" y="-509" font-family="Helvetica,sans-Serif" font-size="10.00">std::map&lt; K, T &gt;</text>
<polyline fill="none" stroke="#bfbfbf" points="232.5,-502 320.5,-502 "/>
<text text-anchor="middle" x="276.5" y="-490" font-family="Helvetica,sans-Serif" font-size="10.00"> </text>
<polyline fill="none" stroke="#bfbfbf" points="232.5,-483 320.5,-483 "/>
<text text-anchor="middle" x="276.5" y="-471" font-family="Helvetica,sans-Serif" font-size="10.00"> </text>
</a>
</g>
</g>
<!-- Node7&#45;&gt;Node8 -->
<g id="edge9" class="edge">
<title>Node7&#45;&gt;Node8</title>
<path fill="none" stroke="#404040" d="M199,-579.39C206.24,-568.64 215.38,-555.81 224.5,-545 228.75,-539.96 233.42,-534.85 238.15,-529.91"/>
<polygon fill="none" stroke="#404040" points="238.26,-529.79 239.62,-522.71 246.67,-521.23 245.32,-528.31 238.26,-529.79"/>
<text text-anchor="middle" x="249" y="-548" font-family="Helvetica,sans-Serif" font-size="10.00"> +elements</text>
</g>
<!-- Node8&#45;&gt;Node2 -->
<g id="edge7" class="edge">
<title>Node8&#45;&gt;Node2</title>
<path fill="none" stroke="orange" d="M268.79,-453.82C259.93,-416.16 242.97,-357.6 215.5,-313 211.6,-306.67 206.93,-300.43 202,-294.53"/>
<polygon fill="orange" stroke="orange" points="265.44,-454.88 271.07,-463.85 272.26,-453.33 265.44,-454.88"/>
<text text-anchor="start" x="257.5" y="-379.5" font-family="Helvetica,sans-Serif" font-size="10.00"> &lt; std::string, std</text>
<text text-anchor="middle" x="331.5" y="-368.5" font-family="Helvetica,sans-Serif" font-size="10.00">::shared_ptr&lt; HY_HydroNexus &gt; &gt;</text>
</g>
<!-- Node9 -->
<g id="node9" class="node">
<title>Node9</title>
<g id="a_node9"><a xlink:title=" ">
<polygon fill="white" stroke="#bfbfbf" points="263,-574.5 263,-631.5 292,-631.5 292,-574.5 263,-574.5"/>
<text text-anchor="middle" x="277.5" y="-619.5" font-family="Helvetica,sans-Serif" font-size="10.00">K</text>
<polyline fill="none" stroke="#bfbfbf" points="263,-612.5 292,-612.5 "/>
<text text-anchor="middle" x="277.5" y="-600.5" font-family="Helvetica,sans-Serif" font-size="10.00"> </text>
<polyline fill="none" stroke="#bfbfbf" points="263,-593.5 292,-593.5 "/>
<text text-anchor="middle" x="277.5" y="-581.5" font-family="Helvetica,sans-Serif" font-size="10.00"> </text>
</a>
</g>
</g>
<!-- Node9&#45;&gt;Node8 -->
<g id="edge8" class="edge">
<title>Node9&#45;&gt;Node8</title>
<path fill="none" stroke="#404040" d="M277.25,-574.34C277.13,-561.84 276.99,-546.84 276.87,-533.18"/>
<polygon fill="none" stroke="#404040" points="276.87,-533.11 272.81,-527.15 276.75,-521.11 280.81,-527.07 276.87,-533.11"/>
<text text-anchor="middle" x="292" y="-548" font-family="Helvetica,sans-Serif" font-size="10.00"> +keys</text>
</g>
</g>
</svg>
        <g id="navigator" transform="translate(0 0)" fill="#404254">
                <rect fill="#f2f5e9" fill-opacity="0.5" stroke="#606060" stroke-width=".5" x="0" y="0" width="60" height="60"/>
                <use id="zoomplus" xlink:href="#zoomPlus" x="17" y="9" onmousedown="handleZoom(evt,'in')"/>
                <use id="zoomminus" xlink:href="#zoomMin" x="42" y="9" onmousedown="handleZoom(evt,'out')"/>
                <use id="reset" xlink:href="#resetDef" x="30" y="36" onmousedown="handleReset()"/>
                <g id="arrowUp" xlink:href="#dirArrow" transform="translate(30 24)" onmousedown="handlePan(0,-1)">
                  <use xlink:href="#rim" fill="#404040">
                        <set attributeName="fill" to="#808080" begin="arrowUp.mouseover" end="arrowUp.mouseout"/>
                  </use>
                  <path fill="none" stroke="white" stroke-width="1.5" d="M0,-3.0v7 M-2.5,-0.5L0,-3.0L2.5,-0.5"/>
                </g>
                <g id="arrowRight" xlink:href="#dirArrow" transform="rotate(90) translate(36 -43)" onmousedown="handlePan(1,0)">
                  <use xlink:href="#rim" fill="#404040">
                        <set attributeName="fill" to="#808080" begin="arrowRight.mouseover" end="arrowRight.mouseout"/>
                  </use>
                  <path fill="none" stroke="white" stroke-width="1.5" d="M0,-3.0v7 M-2.5,-0.5L0,-3.0L2.5,-0.5"/>
                </g>
                <g id="arrowDown" xlink:href="#dirArrow" transform="rotate(180) translate(-30 -48)" onmousedown="handlePan(0,1)">
                  <use xlink:href="#rim" fill="#404040">
                        <set attributeName="fill" to="#808080" begin="arrowDown.mouseover" end="arrowDown.mouseout"/>
                  </use>
                  <path fill="none" stroke="white" stroke-width="1.5" d="M0,-3.0v7 M-2.5,-0.5L0,-3.0L2.5,-0.5"/>
                </g>
                <g id="arrowLeft" xlink:href="#dirArrow" transform="rotate(270) translate(-36 17)" onmousedown="handlePan(-1,0)">
                  <use xlink:href="#rim" fill="#404040">
                        <set attributeName="fill" to="#808080" begin="arrowLeft.mouseover" end="arrowLeft.mouseout"/>
                  </use>
                  <path fill="none" stroke="white" stroke-width="1.5" d="M0,-3.0v7 M-2.5,-0.5L0,-3.0L2.5,-0.5"/>
                </g>
        </g>
        <svg viewBox="0 0 15 15" width="100%" height="30px" preserveAspectRatio="xMaxYMin meet">
         <g id="arrow_out" transform="scale(0.3 0.3)">
          <a xlink:href="classnexus_1_1_nexus___manager__coll__graph_org.svg" target="_base">
           <rect id="button" ry="5" rx="5" y="6" x="6" height="38" width="38"
                fill="#f2f5e9" fill-opacity="0.5" stroke="#606060" stroke-width="1.0"/>
           <path id="arrow"
             d="M 11.500037,31.436501 C 11.940474,20.09759 22.043105,11.32322 32.158766,21.979434 L 37.068811,17.246167 C 37.068811,17.246167 37.088388,32 37.088388,32 L 22.160133,31.978069 C 22.160133,31.978069 26.997745,27.140456 26.997745,27.140456 C 18.528582,18.264221 13.291696,25.230495 11.500037,31.436501 z"
             style="fill:#404040;"/>
          </a>
         </g>
        </svg>
</svg>
