<?xml version="1.0" encoding="UTF-8" standalone="no"?>
<!DOCTYPE svg PUBLIC "-//W3C//DTD SVG 1.1//EN"
 "http://www.w3.org/Graphics/SVG/1.1/DTD/svg11.dtd">
<!-- Generated by graphviz version 2.44.0 ()
 -->
<!-- Title: HY_HydroNetwork Pages: 1 -->
<svg width="1998pt" height="1398pt"
 viewBox="0.00 0.00 1997.50 1398.00" xmlns="http://www.w3.org/2000/svg" xmlns:xlink="http://www.w3.org/1999/xlink">
<g id="graph0" class="graph" transform="scale(1 1) rotate(0) translate(4 1394)">
<title>HY_HydroNetwork</title>
<polygon fill="white" stroke="transparent" points="-4,4 -4,-1394 1993.5,-1394 1993.5,4 -4,4"/>
<!-- Node1 -->
<g id="node1" class="node">
<title>Node1</title>
<g id="a_node1"><a xlink:title=" ">
<polygon fill="#bfbfbf" stroke="black" points="218.5,-0.5 218.5,-68.5 336.5,-68.5 336.5,-0.5 218.5,-0.5"/>
<text text-anchor="middle" x="277.5" y="-56.5" font-family="Helvetica,sans-Serif" font-size="10.00">HY_HydroNetwork</text>
<polyline fill="none" stroke="black" points="218.5,-49.5 336.5,-49.5 "/>
<text text-anchor="middle" x="277.5" y="-37.5" font-family="Helvetica,sans-Serif" font-size="10.00"> </text>
<polyline fill="none" stroke="black" points="218.5,-30.5 336.5,-30.5 "/>
<text text-anchor="start" x="226.5" y="-18.5" font-family="Helvetica,sans-Serif" font-size="10.00">+ HY_HydroNetwork()</text>
<text text-anchor="start" x="226.5" y="-7.5" font-family="Helvetica,sans-Serif" font-size="10.00">+ ~HY_HydroNetwork()</text>
</a>
</g>
</g>
<!-- Node2 -->
<g id="node2" class="node">
<title>Node2</title>
<g id="a_node2"><a xlink:href="class_g_m___object.html" target="_top" xlink:title=" ">
<polygon fill="white" stroke="black" points="14.5,-134 14.5,-202 100.5,-202 100.5,-134 14.5,-134"/>
<text text-anchor="middle" x="57.5" y="-190" font-family="Helvetica,sans-Serif" font-size="10.00">GM_Object</text>
<polyline fill="none" stroke="black" points="14.5,-183 100.5,-183 "/>
<text text-anchor="middle" x="57.5" y="-171" font-family="Helvetica,sans-Serif" font-size="10.00"> </text>
<polyline fill="none" stroke="black" points="14.5,-164 100.5,-164 "/>
<text text-anchor="start" x="22.5" y="-152" font-family="Helvetica,sans-Serif" font-size="10.00">+ GM_Object()</text>
<text text-anchor="start" x="22.5" y="-141" font-family="Helvetica,sans-Serif" font-size="10.00">+ ~GM_Object()</text>
</a>
</g>
</g>
<!-- Node2&#45;&gt;Node1 -->
<g id="edge1" class="edge">
<title>Node2&#45;&gt;Node1</title>
<path fill="none" stroke="midnightblue" d="M83.73,-125.89C94.34,-111.94 107.61,-97.29 122.5,-87 151.08,-67.25 187.8,-54.61 218.32,-46.8"/>
<polygon fill="none" stroke="midnightblue" points="80.88,-123.85 77.8,-133.99 86.53,-127.99 80.88,-123.85"/>
</g>
<!-- Node3 -->
<g id="node3" class="node">
<title>Node3</title>
<g id="a_node3"><a xlink:href="class_h_y___catchment_realization.html" target="_top" xlink:title=" ">
<polygon fill="white" stroke="black" points="418.5,-106.5 418.5,-229.5 568.5,-229.5 568.5,-106.5 418.5,-106.5"/>
<text text-anchor="middle" x="493.5" y="-217.5" font-family="Helvetica,sans-Serif" font-size="10.00">HY_CatchmentRealization</text>
<polyline fill="none" stroke="black" points="418.5,-210.5 568.5,-210.5 "/>
<text text-anchor="start" x="426.5" y="-198.5" font-family="Helvetica,sans-Serif" font-size="10.00"># id_number</text>
<polyline fill="none" stroke="black" points="418.5,-191.5 568.5,-191.5 "/>
<text text-anchor="start" x="426.5" y="-179.5" font-family="Helvetica,sans-Serif" font-size="10.00">+ HY_CatchmentRealization()</text>
<text text-anchor="start" x="426.5" y="-168.5" font-family="Helvetica,sans-Serif" font-size="10.00">+ HY_CatchmentRealization()</text>
<text text-anchor="start" x="426.5" y="-157.5" font-family="Helvetica,sans-Serif" font-size="10.00">+ HY_CatchmentRealization()</text>
<text text-anchor="start" x="426.5" y="-146.5" font-family="Helvetica,sans-Serif" font-size="10.00">+ ~HY_CatchmentRealization()</text>
<text text-anchor="start" x="426.5" y="-135.5" font-family="Helvetica,sans-Serif" font-size="10.00">+ get_response()</text>
<text text-anchor="start" x="426.5" y="-124.5" font-family="Helvetica,sans-Serif" font-size="10.00"># get_catchment_id()</text>
<text text-anchor="start" x="426.5" y="-113.5" font-family="Helvetica,sans-Serif" font-size="10.00"># set_catchment_id()</text>
</a>
</g>
</g>
<!-- Node3&#45;&gt;Node1 -->
<g id="edge2" class="edge">
<title>Node3&#45;&gt;Node1</title>
<path fill="none" stroke="midnightblue" d="M409.55,-109.15C407.86,-108.09 406.17,-107.03 404.5,-106 382.73,-92.54 358.26,-78.67 336.65,-66.83"/>
<polygon fill="none" stroke="midnightblue" points="407.76,-112.16 418.08,-114.59 411.53,-106.26 407.76,-112.16"/>
</g>
<!-- Node4 -->
<g id="node4" class="node">
<title>Node4</title>
<g id="a_node4"><a xlink:title=" ">
<polygon fill="white" stroke="#bfbfbf" points="247,-782.5 247,-850.5 350,-850.5 350,-782.5 247,-782.5"/>
<text text-anchor="start" x="255" y="-838.5" font-family="Helvetica,sans-Serif" font-size="10.00">std::shared_ptr&lt; HY</text>
<text text-anchor="middle" x="298.5" y="-827.5" font-family="Helvetica,sans-Serif" font-size="10.00">_Catchment &gt;</text>
<polyline fill="none" stroke="#bfbfbf" points="247,-820.5 350,-820.5 "/>
<text text-anchor="start" x="255" y="-808.5" font-family="Helvetica,sans-Serif" font-size="10.00">+ ptr</text>
<polyline fill="none" stroke="#bfbfbf" points="247,-801.5 350,-801.5 "/>
<text text-anchor="start" x="255" y="-789.5" font-family="Helvetica,sans-Serif" font-size="10.00">+ operator&#45;&gt;()</text>
</a>
</g>
</g>
<!-- Node4&#45;&gt;Node3 -->
<g id="edge3" class="edge">
<title>Node4&#45;&gt;Node3</title>
<path fill="none" stroke="#404040" d="M289.18,-782.28C266.11,-692.68 215.28,-441.74 317.5,-277 340.67,-239.66 366.99,-252.9 404.5,-230 405.62,-229.32 406.74,-228.63 407.87,-227.93"/>
<polygon fill="none" stroke="#404040" points="407.96,-227.87 410.91,-221.28 418.11,-221.47 415.17,-228.05 407.96,-227.87"/>
<text text-anchor="middle" x="363.5" y="-518" font-family="Helvetica,sans-Serif" font-size="10.00"> #realized_catchment</text>
</g>
<!-- Node5 -->
<g id="node5" class="node">
<title>Node5</title>
<g id="a_node5"><a xlink:title=" ">
<polygon fill="white" stroke="#bfbfbf" points="450,-1145 450,-1202 553,-1202 553,-1145 450,-1145"/>
<text text-anchor="middle" x="501.5" y="-1190" font-family="Helvetica,sans-Serif" font-size="10.00">std::shared_ptr&lt; T &gt;</text>
<polyline fill="none" stroke="#bfbfbf" points="450,-1183 553,-1183 "/>
<text text-anchor="middle" x="501.5" y="-1171" font-family="Helvetica,sans-Serif" font-size="10.00"> </text>
<polyline fill="none" stroke="#bfbfbf" points="450,-1164 553,-1164 "/>
<text text-anchor="start" x="458" y="-1152" font-family="Helvetica,sans-Serif" font-size="10.00">+ operator&#45;&gt;()</text>
</a>
</g>
</g>
<!-- Node5&#45;&gt;Node4 -->
<g id="edge4" class="edge">
<title>Node5&#45;&gt;Node4</title>
<path fill="none" stroke="orange" d="M440.67,-1147.74C400.12,-1128.25 348.72,-1097.3 317.5,-1055 272.92,-994.6 282,-900.46 291.06,-850.79"/>
<polygon fill="orange" stroke="orange" points="439.39,-1151.01 449.93,-1152.08 442.37,-1144.67 439.39,-1151.01"/>
<text text-anchor="middle" x="360.5" y="-1047" font-family="Helvetica,sans-Serif" font-size="10.00"> &lt; HY_Catchment &gt;</text>
</g>
<!-- Node15 -->
<g id="node15" class="node">
<title>Node15</title>
<g id="a_node15"><a xlink:title=" ">
<polygon fill="white" stroke="#bfbfbf" points="690,-913.5 690,-981.5 797,-981.5 797,-913.5 690,-913.5"/>
<text text-anchor="start" x="698" y="-969.5" font-family="Helvetica,sans-Serif" font-size="10.00">std::shared_ptr&lt; time</text>
<text text-anchor="middle" x="743.5" y="-958.5" font-family="Helvetica,sans-Serif" font-size="10.00">_type &gt;</text>
<polyline fill="none" stroke="#bfbfbf" points="690,-951.5 797,-951.5 "/>
<text text-anchor="start" x="698" y="-939.5" font-family="Helvetica,sans-Serif" font-size="10.00">+ ptr</text>
<polyline fill="none" stroke="#bfbfbf" points="690,-932.5 797,-932.5 "/>
<text text-anchor="start" x="698" y="-920.5" font-family="Helvetica,sans-Serif" font-size="10.00">+ operator&#45;&gt;()</text>
</a>
</g>
</g>
<!-- Node5&#45;&gt;Node15 -->
<g id="edge17" class="edge">
<title>Node5&#45;&gt;Node15</title>
<path fill="none" stroke="orange" d="M562.7,-1154.85C612.11,-1137.43 679.6,-1105.9 718.5,-1055 734.53,-1034.02 740.52,-1004.43 742.65,-981.76"/>
<polygon fill="orange" stroke="orange" points="561.4,-1151.59 553.07,-1158.14 563.66,-1158.21 561.4,-1151.59"/>
<text text-anchor="middle" x="755" y="-1047" font-family="Helvetica,sans-Serif" font-size="10.00"> &lt; time_type &gt;</text>
</g>
<!-- Node19 -->
<g id="node19" class="node">
<title>Node19</title>
<g id="a_node19"><a xlink:title=" ">
<polygon fill="white" stroke="#bfbfbf" points="440,-913.5 440,-981.5 543,-981.5 543,-913.5 440,-913.5"/>
<text text-anchor="start" x="448" y="-969.5" font-family="Helvetica,sans-Serif" font-size="10.00">std::shared_ptr&lt; HY</text>
<text text-anchor="middle" x="491.5" y="-958.5" font-family="Helvetica,sans-Serif" font-size="10.00">_HydroNexus &gt;</text>
<polyline fill="none" stroke="#bfbfbf" points="440,-951.5 543,-951.5 "/>
<text text-anchor="start" x="448" y="-939.5" font-family="Helvetica,sans-Serif" font-size="10.00">+ ptr</text>
<polyline fill="none" stroke="#bfbfbf" points="440,-932.5 543,-932.5 "/>
<text text-anchor="start" x="448" y="-920.5" font-family="Helvetica,sans-Serif" font-size="10.00">+ operator&#45;&gt;()</text>
</a>
</g>
</g>
<!-- Node5&#45;&gt;Node19 -->
<g id="edge25" class="edge">
<title>Node5&#45;&gt;Node19</title>
<path fill="none" stroke="orange" d="M499.8,-1134.52C497.89,-1091.57 494.79,-1022.3 492.97,-981.51"/>
<polygon fill="orange" stroke="orange" points="496.31,-1134.75 500.25,-1144.58 503.3,-1134.44 496.31,-1134.75"/>
<text text-anchor="middle" x="542.5" y="-1047" font-family="Helvetica,sans-Serif" font-size="10.00"> &lt; HY_HydroNexus &gt;</text>
</g>
<!-- Node21 -->
<g id="node21" class="node">
<title>Node21</title>
<g id="a_node21"><a xlink:title=" ">
<polygon fill="white" stroke="#bfbfbf" points="0,-913.5 0,-981.5 103,-981.5 103,-913.5 0,-913.5"/>
<text text-anchor="start" x="8" y="-969.5" font-family="Helvetica,sans-Serif" font-size="10.00">std::shared_ptr&lt; HY</text>
<text text-anchor="middle" x="51.5" y="-958.5" font-family="Helvetica,sans-Serif" font-size="10.00">_CatchmentArea &gt;</text>
<polyline fill="none" stroke="#bfbfbf" points="0,-951.5 103,-951.5 "/>
<text text-anchor="start" x="8" y="-939.5" font-family="Helvetica,sans-Serif" font-size="10.00">+ ptr</text>
<polyline fill="none" stroke="#bfbfbf" points="0,-932.5 103,-932.5 "/>
<text text-anchor="start" x="8" y="-920.5" font-family="Helvetica,sans-Serif" font-size="10.00">+ operator&#45;&gt;()</text>
</a>
</g>
</g>
<!-- Node5&#45;&gt;Node21 -->
<g id="edge29" class="edge">
<title>Node5&#45;&gt;Node21</title>
<path fill="none" stroke="orange" d="M439.59,-1166.18C324.54,-1153.02 84.97,-1118.49 35.5,-1055 19.41,-1034.35 25.71,-1004.44 34.71,-981.57"/>
<polygon fill="orange" stroke="orange" points="439.32,-1169.67 449.65,-1167.31 440.11,-1162.72 439.32,-1169.67"/>
<text text-anchor="middle" x="88.5" y="-1047" font-family="Helvetica,sans-Serif" font-size="10.00"> &lt; HY_CatchmentArea &gt;</text>
</g>
<!-- Node23 -->
<g id="node23" class="node">
<title>Node23</title>
<g id="a_node23"><a xlink:title=" ">
<polygon fill="white" stroke="#bfbfbf" points="561.5,-913.5 561.5,-981.5 671.5,-981.5 671.5,-913.5 561.5,-913.5"/>
<text text-anchor="start" x="569.5" y="-969.5" font-family="Helvetica,sans-Serif" font-size="10.00">std::shared_ptr&lt; HY</text>
<text text-anchor="middle" x="616.5" y="-958.5" font-family="Helvetica,sans-Serif" font-size="10.00">_CatchementDivide &gt;</text>
<polyline fill="none" stroke="#bfbfbf" points="561.5,-951.5 671.5,-951.5 "/>
<text text-anchor="start" x="569.5" y="-939.5" font-family="Helvetica,sans-Serif" font-size="10.00">+ ptr</text>
<polyline fill="none" stroke="#bfbfbf" points="561.5,-932.5 671.5,-932.5 "/>
<text text-anchor="start" x="569.5" y="-920.5" font-family="Helvetica,sans-Serif" font-size="10.00">+ operator&#45;&gt;()</text>
</a>
</g>
</g>
<!-- Node5&#45;&gt;Node23 -->
<g id="edge33" class="edge">
<title>Node5&#45;&gt;Node23</title>
<path fill="none" stroke="orange" d="M535.27,-1137.48C554.75,-1115.44 578.14,-1085.48 592.5,-1055 603.41,-1031.85 609.48,-1003.5 612.79,-981.87"/>
<polygon fill="orange" stroke="orange" points="532.66,-1135.16 528.57,-1144.94 537.86,-1139.84 532.66,-1135.16"/>
<text text-anchor="middle" x="655.5" y="-1047" font-family="Helvetica,sans-Serif" font-size="10.00"> &lt; HY_CatchementDivide &gt;</text>
</g>
<!-- Node25 -->
<g id="node25" class="node">
<title>Node25</title>
<g id="a_node25"><a xlink:title=" ">
<polygon fill="white" stroke="#bfbfbf" points="319,-913.5 319,-981.5 422,-981.5 422,-913.5 319,-913.5"/>
<text text-anchor="start" x="327" y="-969.5" font-family="Helvetica,sans-Serif" font-size="10.00">std::shared_ptr&lt; HY</text>
<text text-anchor="middle" x="370.5" y="-958.5" font-family="Helvetica,sans-Serif" font-size="10.00">_FlowPath &gt;</text>
<polyline fill="none" stroke="#bfbfbf" points="319,-951.5 422,-951.5 "/>
<text text-anchor="start" x="327" y="-939.5" font-family="Helvetica,sans-Serif" font-size="10.00">+ ptr</text>
<polyline fill="none" stroke="#bfbfbf" points="319,-932.5 422,-932.5 "/>
<text text-anchor="start" x="327" y="-920.5" font-family="Helvetica,sans-Serif" font-size="10.00">+ operator&#45;&gt;()</text>
</a>
</g>
</g>
<!-- Node5&#45;&gt;Node25 -->
<g id="edge37" class="edge">
<title>Node5&#45;&gt;Node25</title>
<path fill="none" stroke="orange" d="M470.28,-1136.68C451.82,-1114.27 428.91,-1084.21 412.5,-1055 399.36,-1031.61 388.39,-1003.27 380.97,-981.71"/>
<polygon fill="orange" stroke="orange" points="467.77,-1139.13 476.86,-1144.57 473.14,-1134.65 467.77,-1139.13"/>
<text text-anchor="middle" x="452.5" y="-1047" font-family="Helvetica,sans-Serif" font-size="10.00"> &lt; HY_FlowPath &gt;</text>
</g>
<!-- Node6 -->
<g id="node6" class="node">
<title>Node6</title>
<g id="a_node6"><a xlink:title=" ">
<polygon fill="white" stroke="#bfbfbf" points="709,-1327 709,-1384 738,-1384 738,-1327 709,-1327"/>
<text text-anchor="middle" x="723.5" y="-1372" font-family="Helvetica,sans-Serif" font-size="10.00">T</text>
<polyline fill="none" stroke="#bfbfbf" points="709,-1365 738,-1365 "/>
<text text-anchor="middle" x="723.5" y="-1353" font-family="Helvetica,sans-Serif" font-size="10.00"> </text>
<polyline fill="none" stroke="#bfbfbf" points="709,-1346 738,-1346 "/>
<text text-anchor="middle" x="723.5" y="-1334" font-family="Helvetica,sans-Serif" font-size="10.00"> </text>
</a>
</g>
</g>
<!-- Node6&#45;&gt;Node5 -->
<g id="edge5" class="edge">
<title>Node6&#45;&gt;Node5</title>
<path fill="none" stroke="#404040" d="M708.93,-1342.69C676.13,-1316.09 595.39,-1250.62 544.86,-1209.66"/>
<polygon fill="none" stroke="#404040" points="544.81,-1209.62 537.63,-1208.94 535.49,-1202.06 542.67,-1202.73 544.81,-1209.62"/>
<text text-anchor="middle" x="667.5" y="-1295" font-family="Helvetica,sans-Serif" font-size="10.00"> +ptr</text>
</g>
<!-- Node11 -->
<g id="node11" class="node">
<title>Node11</title>
<g id="a_node11"><a xlink:title=" ">
<polygon fill="white" stroke="#bfbfbf" points="1036.5,-1145 1036.5,-1202 1120.5,-1202 1120.5,-1145 1036.5,-1145"/>
<text text-anchor="middle" x="1078.5" y="-1190" font-family="Helvetica,sans-Serif" font-size="10.00">std::vector&lt; T &gt;</text>
<polyline fill="none" stroke="#bfbfbf" points="1036.5,-1183 1120.5,-1183 "/>
<text text-anchor="middle" x="1078.5" y="-1171" font-family="Helvetica,sans-Serif" font-size="10.00"> </text>
<polyline fill="none" stroke="#bfbfbf" points="1036.5,-1164 1120.5,-1164 "/>
<text text-anchor="middle" x="1078.5" y="-1152" font-family="Helvetica,sans-Serif" font-size="10.00"> </text>
</a>
</g>
</g>
<!-- Node6&#45;&gt;Node11 -->
<g id="edge11" class="edge">
<title>Node6&#45;&gt;Node11</title>
<path fill="none" stroke="#404040" d="M738.3,-1346.99C786.79,-1322.41 942.49,-1243.46 1025.39,-1201.43"/>
<polygon fill="none" stroke="#404040" points="1025.64,-1201.3 1029.18,-1195.02 1036.34,-1195.88 1032.8,-1202.16 1025.64,-1201.3"/>
<text text-anchor="middle" x="862" y="-1295" font-family="Helvetica,sans-Serif" font-size="10.00"> +elements</text>
</g>
<!-- Node7 -->
<g id="node7" class="node">
<title>Node7</title>
<g id="a_node7"><a xlink:href="class_forcing.html" target="_top" xlink:title="Forcing class providing time&#45;series precipiation forcing data to the model.">
<polygon fill="white" stroke="black" points="1393.5,-277.5 1393.5,-763.5 1543.5,-763.5 1543.5,-277.5 1393.5,-277.5"/>
<text text-anchor="middle" x="1468.5" y="-751.5" font-family="Helvetica,sans-Serif" font-size="10.00">Forcing</text>
<polyline fill="none" stroke="black" points="1393.5,-744.5 1543.5,-744.5 "/>
<text text-anchor="start" x="1401.5" y="-732.5" font-family="Helvetica,sans-Serif" font-size="10.00">&#45; is_aorc_data</text>
<text text-anchor="start" x="1401.5" y="-721.5" font-family="Helvetica,sans-Serif" font-size="10.00">&#45; forcing_vector_index</text>
<text text-anchor="start" x="1401.5" y="-710.5" font-family="Helvetica,sans-Serif" font-size="10.00">&#45; precipitation_rate</text>
<text text-anchor="start" x="1401.5" y="-699.5" font-family="Helvetica,sans-Serif" font-size="10.00">_meters_per_second</text>
<text text-anchor="start" x="1401.5" y="-688.5" font-family="Helvetica,sans-Serif" font-size="10.00">&#45; air_temperature_fahrenheit</text>
<text text-anchor="start" x="1401.5" y="-677.5" font-family="Helvetica,sans-Serif" font-size="10.00">&#45; latitude</text>
<text text-anchor="start" x="1401.5" y="-666.5" font-family="Helvetica,sans-Serif" font-size="10.00">&#45; longitude</text>
<text text-anchor="start" x="1401.5" y="-655.5" font-family="Helvetica,sans-Serif" font-size="10.00">&#45; catchment_id</text>
<text text-anchor="start" x="1401.5" y="-644.5" font-family="Helvetica,sans-Serif" font-size="10.00">&#45; day_of_year</text>
<text text-anchor="start" x="1401.5" y="-633.5" font-family="Helvetica,sans-Serif" font-size="10.00">&#45; start_date_time_epoch</text>
<text text-anchor="start" x="1401.5" y="-622.5" font-family="Helvetica,sans-Serif" font-size="10.00">&#45; end_date_time_epoch</text>
<text text-anchor="start" x="1401.5" y="-611.5" font-family="Helvetica,sans-Serif" font-size="10.00">&#45; current_date_time_epoch</text>
<polyline fill="none" stroke="black" points="1393.5,-604.5 1543.5,-604.5 "/>
<text text-anchor="start" x="1401.5" y="-592.5" font-family="Helvetica,sans-Serif" font-size="10.00">+ Forcing()</text>
<text text-anchor="start" x="1401.5" y="-581.5" font-family="Helvetica,sans-Serif" font-size="10.00">+ Forcing()</text>
<text text-anchor="start" x="1401.5" y="-570.5" font-family="Helvetica,sans-Serif" font-size="10.00">+ Forcing()</text>
<text text-anchor="start" x="1401.5" y="-559.5" font-family="Helvetica,sans-Serif" font-size="10.00">+ get_aorc_for_index()</text>
<text text-anchor="start" x="1401.5" y="-548.5" font-family="Helvetica,sans-Serif" font-size="10.00">+ get_available_forcing</text>
<text text-anchor="start" x="1401.5" y="-537.5" font-family="Helvetica,sans-Serif" font-size="10.00">_outputs()</text>
<text text-anchor="start" x="1401.5" y="-526.5" font-family="Helvetica,sans-Serif" font-size="10.00">+ get_converted_value</text>
<text text-anchor="start" x="1401.5" y="-515.5" font-family="Helvetica,sans-Serif" font-size="10.00">_for_param_in_units()</text>
<text text-anchor="start" x="1401.5" y="-504.5" font-family="Helvetica,sans-Serif" font-size="10.00">+ get_converted_value</text>
<text text-anchor="start" x="1401.5" y="-493.5" font-family="Helvetica,sans-Serif" font-size="10.00">_for_param_in_units()</text>
<text text-anchor="start" x="1401.5" y="-482.5" font-family="Helvetica,sans-Serif" font-size="10.00">+ get_forcing_output</text>
<text text-anchor="start" x="1401.5" y="-471.5" font-family="Helvetica,sans-Serif" font-size="10.00">_time_begin()</text>
<text text-anchor="start" x="1401.5" y="-460.5" font-family="Helvetica,sans-Serif" font-size="10.00">+ get_forcing_output</text>
<text text-anchor="start" x="1401.5" y="-449.5" font-family="Helvetica,sans-Serif" font-size="10.00">_time_end()</text>
<text text-anchor="start" x="1401.5" y="-438.5" font-family="Helvetica,sans-Serif" font-size="10.00">+ get_ts_index_for_time()</text>
<text text-anchor="start" x="1401.5" y="-427.5" font-family="Helvetica,sans-Serif" font-size="10.00">+ get_value()</text>
<text text-anchor="start" x="1401.5" y="-416.5" font-family="Helvetica,sans-Serif" font-size="10.00">+ get_value_for_param</text>
<text text-anchor="start" x="1401.5" y="-405.5" font-family="Helvetica,sans-Serif" font-size="10.00">_name()</text>
<text text-anchor="start" x="1401.5" y="-394.5" font-family="Helvetica,sans-Serif" font-size="10.00">+ check_forcing_vector</text>
<text text-anchor="start" x="1401.5" y="-383.5" font-family="Helvetica,sans-Serif" font-size="10.00">_index_bounds()</text>
<text text-anchor="start" x="1401.5" y="-372.5" font-family="Helvetica,sans-Serif" font-size="10.00">+ get_current_hourly</text>
<text text-anchor="start" x="1401.5" y="-361.5" font-family="Helvetica,sans-Serif" font-size="10.00">_precipitation_meters</text>
<text text-anchor="start" x="1401.5" y="-350.5" font-family="Helvetica,sans-Serif" font-size="10.00">_per_second()</text>
<text text-anchor="start" x="1401.5" y="-339.5" font-family="Helvetica,sans-Serif" font-size="10.00">+ get_next_hourly_precipitation</text>
<text text-anchor="start" x="1401.5" y="-328.5" font-family="Helvetica,sans-Serif" font-size="10.00">_meters_per_second()</text>
<text text-anchor="start" x="1401.5" y="-317.5" font-family="Helvetica,sans-Serif" font-size="10.00">and 15 more...</text>
<text text-anchor="start" x="1401.5" y="-306.5" font-family="Helvetica,sans-Serif" font-size="10.00">+ get_forcing_field_names()</text>
<text text-anchor="start" x="1401.5" y="-295.5" font-family="Helvetica,sans-Serif" font-size="10.00">&#45; read_forcing()</text>
<text text-anchor="start" x="1401.5" y="-284.5" font-family="Helvetica,sans-Serif" font-size="10.00">&#45; read_forcing_aorc()</text>
</a>
</g>
</g>
<!-- Node7&#45;&gt;Node3 -->
<g id="edge6" class="edge">
<title>Node7&#45;&gt;Node3</title>
<path fill="none" stroke="#404040" d="M1393.37,-485.24C1281.35,-435.02 1063.18,-340.51 871.5,-277 792.61,-250.86 770.44,-252.74 690.5,-230 654.3,-219.7 614.62,-207.58 580.42,-196.86"/>
<polygon fill="none" stroke="#404040" points="580.01,-196.73 573.09,-198.75 568.56,-193.14 575.49,-191.12 580.01,-196.73"/>
<text text-anchor="middle" x="827" y="-251" font-family="Helvetica,sans-Serif" font-size="10.00"> #forcing</text>
</g>
<!-- Node8 -->
<g id="node8" class="node">
<title>Node8</title>
<g id="a_node8"><a xlink:href="classforcing_1_1_forcing_provider.html" target="_top" xlink:title="An abstraction interface for types that provides forcing data.">
<polygon fill="white" stroke="black" points="1214.5,-869.5 1214.5,-1025.5 1340.5,-1025.5 1340.5,-869.5 1214.5,-869.5"/>
<text text-anchor="middle" x="1277.5" y="-1013.5" font-family="Helvetica,sans-Serif" font-size="10.00">forcing::ForcingProvider</text>
<polyline fill="none" stroke="black" points="1214.5,-1006.5 1340.5,-1006.5 "/>
<text text-anchor="middle" x="1277.5" y="-994.5" font-family="Helvetica,sans-Serif" font-size="10.00"> </text>
<polyline fill="none" stroke="black" points="1214.5,-987.5 1340.5,-987.5 "/>
<text text-anchor="start" x="1222.5" y="-975.5" font-family="Helvetica,sans-Serif" font-size="10.00">+ get_available_forcing</text>
<text text-anchor="start" x="1222.5" y="-964.5" font-family="Helvetica,sans-Serif" font-size="10.00">_outputs()</text>
<text text-anchor="start" x="1222.5" y="-953.5" font-family="Helvetica,sans-Serif" font-size="10.00">+ get_forcing_output</text>
<text text-anchor="start" x="1222.5" y="-942.5" font-family="Helvetica,sans-Serif" font-size="10.00">_time_begin()</text>
<text text-anchor="start" x="1222.5" y="-931.5" font-family="Helvetica,sans-Serif" font-size="10.00">+ get_forcing_output</text>
<text text-anchor="start" x="1222.5" y="-920.5" font-family="Helvetica,sans-Serif" font-size="10.00">_time_end()</text>
<text text-anchor="start" x="1222.5" y="-909.5" font-family="Helvetica,sans-Serif" font-size="10.00">+ get_ts_index_for_time()</text>
<text text-anchor="start" x="1222.5" y="-898.5" font-family="Helvetica,sans-Serif" font-size="10.00">+ get_value()</text>
<text text-anchor="start" x="1222.5" y="-887.5" font-family="Helvetica,sans-Serif" font-size="10.00">+ is_property_sum_over</text>
<text text-anchor="start" x="1222.5" y="-876.5" font-family="Helvetica,sans-Serif" font-size="10.00">_time_step()</text>
</a>
</g>
</g>
<!-- Node8&#45;&gt;Node7 -->
<g id="edge7" class="edge">
<title>Node8&#45;&gt;Node7</title>
<path fill="none" stroke="midnightblue" d="M1316.51,-859.7C1338.64,-810.47 1367.08,-747.17 1393.37,-688.68"/>
<polygon fill="none" stroke="midnightblue" points="1313.22,-858.49 1312.31,-869.04 1319.6,-861.36 1313.22,-858.49"/>
</g>
<!-- Node9 -->
<g id="node9" class="node">
<title>Node9</title>
<g id="a_node9"><a xlink:title=" ">
<polygon fill="white" stroke="#bfbfbf" points="1607.5,-919 1607.5,-976 1737.5,-976 1737.5,-919 1607.5,-919"/>
<text text-anchor="middle" x="1672.5" y="-964" font-family="Helvetica,sans-Serif" font-size="10.00">std::vector&lt; AORC_data &gt;</text>
<polyline fill="none" stroke="#bfbfbf" points="1607.5,-957 1737.5,-957 "/>
<text text-anchor="middle" x="1672.5" y="-945" font-family="Helvetica,sans-Serif" font-size="10.00"> </text>
<polyline fill="none" stroke="#bfbfbf" points="1607.5,-938 1737.5,-938 "/>
<text text-anchor="middle" x="1672.5" y="-926" font-family="Helvetica,sans-Serif" font-size="10.00"> </text>
</a>
</g>
</g>
<!-- Node9&#45;&gt;Node7 -->
<g id="edge8" class="edge">
<title>Node9&#45;&gt;Node7</title>
<path fill="none" stroke="#404040" d="M1671.81,-918.75C1670.16,-885.23 1664.64,-827.68 1646.5,-782 1623.52,-724.14 1585.85,-666.3 1551.07,-619.88"/>
<polygon fill="none" stroke="#404040" points="1550.95,-619.71 1544.14,-617.35 1543.7,-610.15 1550.51,-612.51 1550.95,-619.71"/>
<text text-anchor="middle" x="1696.5" y="-814" font-family="Helvetica,sans-Serif" font-size="10.00"> &#45;AORC_vector</text>
</g>
<!-- Node10 -->
<g id="node10" class="node">
<title>Node10</title>
<g id="a_node10"><a xlink:href="struct_a_o_r_c__data.html" target="_top" xlink:title=" ">
<polygon fill="white" stroke="black" points="1606,-1073.5 1606,-1273.5 1739,-1273.5 1739,-1073.5 1606,-1073.5"/>
<text text-anchor="middle" x="1672.5" y="-1261.5" font-family="Helvetica,sans-Serif" font-size="10.00">AORC_data</text>
<polyline fill="none" stroke="black" points="1606,-1254.5 1739,-1254.5 "/>
<text text-anchor="start" x="1614" y="-1242.5" font-family="Helvetica,sans-Serif" font-size="10.00">+ APCP_surface_kg_per</text>
<text text-anchor="start" x="1614" y="-1231.5" font-family="Helvetica,sans-Serif" font-size="10.00">_meters_squared</text>
<text text-anchor="start" x="1614" y="-1220.5" font-family="Helvetica,sans-Serif" font-size="10.00">+ DLWRF_surface_W_per</text>
<text text-anchor="start" x="1614" y="-1209.5" font-family="Helvetica,sans-Serif" font-size="10.00">_meters_squared</text>
<text text-anchor="start" x="1614" y="-1198.5" font-family="Helvetica,sans-Serif" font-size="10.00">+ DSWRF_surface_W_per</text>
<text text-anchor="start" x="1614" y="-1187.5" font-family="Helvetica,sans-Serif" font-size="10.00">_meters_squared</text>
<text text-anchor="start" x="1614" y="-1176.5" font-family="Helvetica,sans-Serif" font-size="10.00">+ PRES_surface_Pa</text>
<text text-anchor="start" x="1614" y="-1165.5" font-family="Helvetica,sans-Serif" font-size="10.00">+ SPFH_2maboveground</text>
<text text-anchor="start" x="1614" y="-1154.5" font-family="Helvetica,sans-Serif" font-size="10.00">_kg_per_kg</text>
<text text-anchor="start" x="1614" y="-1143.5" font-family="Helvetica,sans-Serif" font-size="10.00">+ TMP_2maboveground_K</text>
<text text-anchor="start" x="1614" y="-1132.5" font-family="Helvetica,sans-Serif" font-size="10.00">+ UGRD_10maboveground</text>
<text text-anchor="start" x="1614" y="-1121.5" font-family="Helvetica,sans-Serif" font-size="10.00">_meters_per_second</text>
<text text-anchor="start" x="1614" y="-1110.5" font-family="Helvetica,sans-Serif" font-size="10.00">+ VGRD_10maboveground</text>
<text text-anchor="start" x="1614" y="-1099.5" font-family="Helvetica,sans-Serif" font-size="10.00">_meters_per_second</text>
<polyline fill="none" stroke="black" points="1606,-1092.5 1739,-1092.5 "/>
<text text-anchor="middle" x="1672.5" y="-1080.5" font-family="Helvetica,sans-Serif" font-size="10.00"> </text>
</a>
</g>
</g>
<!-- Node10&#45;&gt;Node9 -->
<g id="edge9" class="edge">
<title>Node10&#45;&gt;Node9</title>
<path fill="none" stroke="#404040" d="M1672.5,-1073.27C1672.5,-1043.32 1672.5,-1012.12 1672.5,-988.42"/>
<polygon fill="none" stroke="#404040" points="1672.5,-988.42 1668.5,-982.42 1672.5,-976.42 1676.5,-982.42 1672.5,-988.42"/>
<text text-anchor="middle" x="1697" y="-1047" font-family="Helvetica,sans-Serif" font-size="10.00"> +elements</text>
</g>
<!-- Node11&#45;&gt;Node9 -->
<g id="edge10" class="edge">
<title>Node11&#45;&gt;Node9</title>
<path fill="none" stroke="orange" d="M1130.51,-1152.95C1206.42,-1125.09 1352.49,-1074.02 1480.5,-1044 1532.15,-1031.89 1551.44,-1050.49 1598.5,-1026 1620.78,-1014.4 1640.14,-993.49 1653.46,-976.3"/>
<polygon fill="orange" stroke="orange" points="1128.89,-1149.82 1120.71,-1156.56 1131.31,-1156.39 1128.89,-1149.82"/>
<text text-anchor="middle" x="1516" y="-1047" font-family="Helvetica,sans-Serif" font-size="10.00"> &lt; AORC_data &gt;</text>
</g>
<!-- Node12 -->
<g id="node12" class="node">
<title>Node12</title>
<g id="a_node12"><a xlink:title=" ">
<polygon fill="white" stroke="#bfbfbf" points="1359,-919 1359,-976 1464,-976 1464,-919 1359,-919"/>
<text text-anchor="middle" x="1411.5" y="-964" font-family="Helvetica,sans-Serif" font-size="10.00">std::vector&lt; time_t &gt;</text>
<polyline fill="none" stroke="#bfbfbf" points="1359,-957 1464,-957 "/>
<text text-anchor="start" x="1367" y="-945" font-family="Helvetica,sans-Serif" font-size="10.00">+ elements</text>
<polyline fill="none" stroke="#bfbfbf" points="1359,-938 1464,-938 "/>
<text text-anchor="middle" x="1411.5" y="-926" font-family="Helvetica,sans-Serif" font-size="10.00"> </text>
</a>
</g>
</g>
<!-- Node11&#45;&gt;Node12 -->
<g id="edge13" class="edge">
<title>Node11&#45;&gt;Node12</title>
<path fill="none" stroke="orange" d="M1113.84,-1137.99C1146.37,-1108.29 1197.35,-1066.75 1249.5,-1044 1290.89,-1025.95 1310.7,-1049.1 1349.5,-1026 1369.49,-1014.1 1385.64,-993.2 1396.44,-976.1"/>
<polygon fill="orange" stroke="orange" points="1111.35,-1135.53 1106.38,-1144.89 1116.1,-1140.67 1111.35,-1135.53"/>
<text text-anchor="middle" x="1272.5" y="-1047" font-family="Helvetica,sans-Serif" font-size="10.00"> &lt; time_t &gt;</text>
</g>
<!-- Node16 -->
<g id="node16" class="node">
<title>Node16</title>
<g id="a_node16"><a xlink:title=" ">
<polygon fill="white" stroke="#bfbfbf" points="1755.5,-919 1755.5,-976 1875.5,-976 1875.5,-919 1755.5,-919"/>
<text text-anchor="middle" x="1815.5" y="-964" font-family="Helvetica,sans-Serif" font-size="10.00">std::vector&lt; std::string &gt;</text>
<polyline fill="none" stroke="#bfbfbf" points="1755.5,-957 1875.5,-957 "/>
<text text-anchor="middle" x="1815.5" y="-945" font-family="Helvetica,sans-Serif" font-size="10.00"> </text>
<polyline fill="none" stroke="#bfbfbf" points="1755.5,-938 1875.5,-938 "/>
<text text-anchor="middle" x="1815.5" y="-926" font-family="Helvetica,sans-Serif" font-size="10.00"> </text>
</a>
</g>
</g>
<!-- Node11&#45;&gt;Node16 -->
<g id="edge20" class="edge">
<title>Node11&#45;&gt;Node16</title>
<path fill="none" stroke="orange" d="M1130.5,-1159.1C1244.72,-1129.79 1514.71,-1061.23 1607.5,-1044 1668.75,-1032.63 1691.42,-1055.1 1746.5,-1026 1768.16,-1014.55 1786.28,-993.4 1798.51,-976.08"/>
<polygon fill="orange" stroke="orange" points="1129.41,-1155.76 1120.59,-1161.64 1131.15,-1162.54 1129.41,-1155.76"/>
<text text-anchor="middle" x="1638" y="-1047" font-family="Helvetica,sans-Serif" font-size="10.00"> &lt; std::string &gt;</text>
</g>
<!-- Node17 -->
<g id="node17" class="node">
<title>Node17</title>
<g id="a_node17"><a xlink:title=" ">
<polygon fill="white" stroke="#bfbfbf" points="1482,-919 1482,-976 1589,-976 1589,-919 1482,-919"/>
<text text-anchor="middle" x="1535.5" y="-964" font-family="Helvetica,sans-Serif" font-size="10.00">std::vector&lt; double &gt;</text>
<polyline fill="none" stroke="#bfbfbf" points="1482,-957 1589,-957 "/>
<text text-anchor="start" x="1490" y="-945" font-family="Helvetica,sans-Serif" font-size="10.00">+ elements</text>
<polyline fill="none" stroke="#bfbfbf" points="1482,-938 1589,-938 "/>
<text text-anchor="middle" x="1535.5" y="-926" font-family="Helvetica,sans-Serif" font-size="10.00"> </text>
</a>
</g>
</g>
<!-- Node11&#45;&gt;Node17 -->
<g id="edge22" class="edge">
<title>Node11&#45;&gt;Node17</title>
<path fill="none" stroke="orange" d="M1129.88,-1146.54C1188.8,-1117.72 1288.97,-1071.64 1379.5,-1044 1420.18,-1031.58 1437.07,-1047.97 1473.5,-1026 1493.42,-1013.99 1509.57,-993.09 1520.39,-976.02"/>
<polygon fill="orange" stroke="orange" points="1128.21,-1143.46 1120.78,-1151.01 1131.3,-1149.74 1128.21,-1143.46"/>
<text text-anchor="middle" x="1403.5" y="-1047" font-family="Helvetica,sans-Serif" font-size="10.00"> &lt; double &gt;</text>
</g>
<!-- Node18 -->
<g id="node18" class="node">
<title>Node18</title>
<g id="a_node18"><a xlink:title=" ">
<polygon fill="white" stroke="#bfbfbf" points="556,-486.5 556,-554.5 687,-554.5 687,-486.5 556,-486.5"/>
<text text-anchor="start" x="564" y="-542.5" font-family="Helvetica,sans-Serif" font-size="10.00">std::vector&lt; std::shared</text>
<text text-anchor="middle" x="621.5" y="-531.5" font-family="Helvetica,sans-Serif" font-size="10.00">_ptr&lt; HY_HydroNexus &gt; &gt;</text>
<polyline fill="none" stroke="#bfbfbf" points="556,-524.5 687,-524.5 "/>
<text text-anchor="middle" x="621.5" y="-512.5" font-family="Helvetica,sans-Serif" font-size="10.00"> </text>
<polyline fill="none" stroke="#bfbfbf" points="556,-505.5 687,-505.5 "/>
<text text-anchor="middle" x="621.5" y="-493.5" font-family="Helvetica,sans-Serif" font-size="10.00"> </text>
</a>
</g>
</g>
<!-- Node11&#45;&gt;Node18 -->
<g id="edge26" class="edge">
<title>Node11&#45;&gt;Node18</title>
<path fill="none" stroke="orange" d="M1036.21,-1138.06C1006.42,-1111.04 968.73,-1070.63 950.5,-1026 940.23,-1000.86 955.53,-801.37 936.5,-782 899.01,-743.85 738.33,-797.33 696.5,-764 632.4,-712.92 621.85,-608.05 620.88,-554.52"/>
<polygon fill="orange" stroke="orange" points="1034.19,-1140.94 1043.99,-1144.97 1038.84,-1135.71 1034.19,-1140.94"/>
<text text-anchor="start" x="950.5" y="-950.5" font-family="Helvetica,sans-Serif" font-size="10.00"> &lt; std::shared_ptr&lt;</text>
<text text-anchor="middle" x="996.5" y="-939.5" font-family="Helvetica,sans-Serif" font-size="10.00"> HY_HydroNexus &gt; &gt;</text>
</g>
<!-- Node20 -->
<g id="node20" class="node">
<title>Node20</title>
<g id="a_node20"><a xlink:title=" ">
<polygon fill="white" stroke="#bfbfbf" points="64,-486.5 64,-554.5 209,-554.5 209,-486.5 64,-486.5"/>
<text text-anchor="start" x="72" y="-542.5" font-family="Helvetica,sans-Serif" font-size="10.00">std::vector&lt; std::shared</text>
<text text-anchor="middle" x="136.5" y="-531.5" font-family="Helvetica,sans-Serif" font-size="10.00">_ptr&lt; HY_CatchmentArea &gt; &gt;</text>
<polyline fill="none" stroke="#bfbfbf" points="64,-524.5 209,-524.5 "/>
<text text-anchor="middle" x="136.5" y="-512.5" font-family="Helvetica,sans-Serif" font-size="10.00"> </text>
<polyline fill="none" stroke="#bfbfbf" points="64,-505.5 209,-505.5 "/>
<text text-anchor="middle" x="136.5" y="-493.5" font-family="Helvetica,sans-Serif" font-size="10.00"> </text>
</a>
</g>
</g>
<!-- Node11&#45;&gt;Node20 -->
<g id="edge30" class="edge">
<title>Node11&#45;&gt;Node20</title>
<path fill="none" stroke="orange" d="M1026.33,-1160.29C933.57,-1139.06 733.61,-1095.48 562.5,-1073 450.29,-1058.26 420.04,-1074.16 308.5,-1055 260.78,-1046.8 235.3,-1062.5 203.5,-1026 141.98,-955.38 136.4,-655.74 136.31,-554.83"/>
<polygon fill="orange" stroke="orange" points="1025.78,-1163.75 1036.31,-1162.58 1027.34,-1156.93 1025.78,-1163.75"/>
<text text-anchor="start" x="203.5" y="-950.5" font-family="Helvetica,sans-Serif" font-size="10.00"> &lt; std::shared_ptr&lt;</text>
<text text-anchor="middle" x="256.5" y="-939.5" font-family="Helvetica,sans-Serif" font-size="10.00"> HY_CatchmentArea &gt; &gt;</text>
</g>
<!-- Node22 -->
<g id="node22" class="node">
<title>Node22</title>
<g id="a_node22"><a xlink:title=" ">
<polygon fill="white" stroke="#bfbfbf" points="705,-486.5 705,-554.5 862,-554.5 862,-486.5 705,-486.5"/>
<text text-anchor="start" x="713" y="-542.5" font-family="Helvetica,sans-Serif" font-size="10.00">std::vector&lt; std::shared</text>
<text text-anchor="middle" x="783.5" y="-531.5" font-family="Helvetica,sans-Serif" font-size="10.00">_ptr&lt; HY_CatchementDivide &gt; &gt;</text>
<polyline fill="none" stroke="#bfbfbf" points="705,-524.5 862,-524.5 "/>
<text text-anchor="middle" x="783.5" y="-512.5" font-family="Helvetica,sans-Serif" font-size="10.00"> </text>
<polyline fill="none" stroke="#bfbfbf" points="705,-505.5 862,-505.5 "/>
<text text-anchor="middle" x="783.5" y="-493.5" font-family="Helvetica,sans-Serif" font-size="10.00"> </text>
</a>
</g>
</g>
<!-- Node11&#45;&gt;Node22 -->
<g id="edge34" class="edge">
<title>Node11&#45;&gt;Node22</title>
<path fill="none" stroke="orange" d="M1080.87,-1134.63C1083.18,-1075.65 1082.16,-959.22 1046.5,-869 994.49,-737.42 878.13,-612.65 819.18,-554.95"/>
<polygon fill="orange" stroke="orange" points="1077.36,-1134.81 1080.41,-1144.96 1084.35,-1135.13 1077.36,-1134.81"/>
<text text-anchor="start" x="1078.5" y="-950.5" font-family="Helvetica,sans-Serif" font-size="10.00"> &lt; std::shared_ptr&lt;</text>
<text text-anchor="middle" x="1137.5" y="-939.5" font-family="Helvetica,sans-Serif" font-size="10.00"> HY_CatchementDivide &gt; &gt;</text>
</g>
<!-- Node24 -->
<g id="node24" class="node">
<title>Node24</title>
<g id="a_node24"><a xlink:title=" ">
<polygon fill="white" stroke="#bfbfbf" points="419,-486.5 419,-554.5 538,-554.5 538,-486.5 419,-486.5"/>
<text text-anchor="start" x="427" y="-542.5" font-family="Helvetica,sans-Serif" font-size="10.00">std::vector&lt; std::shared</text>
<text text-anchor="middle" x="478.5" y="-531.5" font-family="Helvetica,sans-Serif" font-size="10.00">_ptr&lt; HY_FlowPath &gt; &gt;</text>
<polyline fill="none" stroke="#bfbfbf" points="419,-524.5 538,-524.5 "/>
<text text-anchor="middle" x="478.5" y="-512.5" font-family="Helvetica,sans-Serif" font-size="10.00"> </text>
<polyline fill="none" stroke="#bfbfbf" points="419,-505.5 538,-505.5 "/>
<text text-anchor="middle" x="478.5" y="-493.5" font-family="Helvetica,sans-Serif" font-size="10.00"> </text>
</a>
</g>
</g>
<!-- Node11&#45;&gt;Node24 -->
<g id="edge38" class="edge">
<title>Node11&#45;&gt;Node24</title>
<path fill="none" stroke="orange" d="M1027.01,-1149.67C978.01,-1125.51 905.44,-1082.98 861.5,-1026 787.58,-930.15 846.3,-840.82 740.5,-782 702.85,-761.07 580.63,-791.53 547.5,-764 485.05,-712.11 476.87,-608.09 477.11,-554.74"/>
<polygon fill="orange" stroke="orange" points="1025.65,-1152.9 1036.17,-1154.11 1028.7,-1146.6 1025.65,-1152.9"/>
<text text-anchor="start" x="861.5" y="-950.5" font-family="Helvetica,sans-Serif" font-size="10.00"> &lt; std::shared_ptr&lt;</text>
<text text-anchor="middle" x="902" y="-939.5" font-family="Helvetica,sans-Serif" font-size="10.00"> HY_FlowPath &gt; &gt;</text>
</g>
<!-- Node12&#45;&gt;Node7 -->
<g id="edge12" class="edge">
<title>Node12&#45;&gt;Node7</title>
<path fill="none" stroke="#404040" d="M1410.44,-918.75C1409.55,-885.96 1409.15,-829.83 1414.5,-782 1414.73,-779.91 1414.98,-777.81 1415.23,-775.7"/>
<polygon fill="none" stroke="#404040" points="1415.26,-775.48 1412.04,-769.03 1416.75,-763.57 1419.97,-770.03 1415.26,-775.48"/>
<text text-anchor="middle" x="1458.5" y="-814" font-family="Helvetica,sans-Serif" font-size="10.00"> &#45;time_epoch_vector</text>
</g>
<!-- Node13 -->
<g id="node13" class="node">
<title>Node13</title>
<g id="a_node13"><a xlink:title=" ">
<polygon fill="white" stroke="#bfbfbf" points="1842,-1145 1842,-1202 1901,-1202 1901,-1145 1842,-1145"/>
<text text-anchor="middle" x="1871.5" y="-1190" font-family="Helvetica,sans-Serif" font-size="10.00">std::string</text>
<polyline fill="none" stroke="#bfbfbf" points="1842,-1183 1901,-1183 "/>
<text text-anchor="middle" x="1871.5" y="-1171" font-family="Helvetica,sans-Serif" font-size="10.00"> </text>
<polyline fill="none" stroke="#bfbfbf" points="1842,-1164 1901,-1164 "/>
<text text-anchor="middle" x="1871.5" y="-1152" font-family="Helvetica,sans-Serif" font-size="10.00"> </text>
</a>
</g>
</g>
<!-- Node13&#45;&gt;Node7 -->
<g id="edge14" class="edge">
<title>Node13&#45;&gt;Node7</title>
<path fill="none" stroke="#404040" d="M1880.25,-1144.79C1900.2,-1075.79 1941.28,-893.82 1859.5,-782 1781,-674.66 1643.91,-598.39 1554.69,-557.15"/>
<polygon fill="none" stroke="#404040" points="1554.43,-557.03 1547.32,-558.18 1543.52,-552.05 1550.64,-550.9 1554.43,-557.03"/>
<text text-anchor="middle" x="1948.5" y="-945" font-family="Helvetica,sans-Serif" font-size="10.00"> &#45;forcing_file_name</text>
</g>
<!-- Node13&#45;&gt;Node16 -->
<g id="edge19" class="edge">
<title>Node13&#45;&gt;Node16</title>
<path fill="none" stroke="#404040" d="M1864.52,-1144.58C1854.66,-1105.13 1836.6,-1032.88 1825.37,-987.96"/>
<polygon fill="none" stroke="#404040" points="1825.3,-987.71 1819.97,-982.86 1822.39,-976.06 1827.73,-980.92 1825.3,-987.71"/>
<text text-anchor="middle" x="1866" y="-1047" font-family="Helvetica,sans-Serif" font-size="10.00"> +elements</text>
</g>
<!-- Node14 -->
<g id="node14" class="node">
<title>Node14</title>
<g id="a_node14"><a xlink:title=" ">
<polygon fill="white" stroke="#bfbfbf" points="1825,-1321.5 1825,-1389.5 1918,-1389.5 1918,-1321.5 1825,-1321.5"/>
<text text-anchor="start" x="1833" y="-1377.5" font-family="Helvetica,sans-Serif" font-size="10.00">std::basic_string&lt;</text>
<text text-anchor="middle" x="1871.5" y="-1366.5" font-family="Helvetica,sans-Serif" font-size="10.00"> Char &gt;</text>
<polyline fill="none" stroke="#bfbfbf" points="1825,-1359.5 1918,-1359.5 "/>
<text text-anchor="middle" x="1871.5" y="-1347.5" font-family="Helvetica,sans-Serif" font-size="10.00"> </text>
<polyline fill="none" stroke="#bfbfbf" points="1825,-1340.5 1918,-1340.5 "/>
<text text-anchor="middle" x="1871.5" y="-1328.5" font-family="Helvetica,sans-Serif" font-size="10.00"> </text>
</a>
</g>
</g>
<!-- Node14&#45;&gt;Node13 -->
<g id="edge15" class="edge">
<title>Node14&#45;&gt;Node13</title>
<path fill="none" stroke="midnightblue" d="M1871.5,-1311.38C1871.5,-1277.41 1871.5,-1231.1 1871.5,-1202"/>
<polygon fill="none" stroke="midnightblue" points="1868,-1311.49 1871.5,-1321.49 1875,-1311.49 1868,-1311.49"/>
</g>
<!-- Node15&#45;&gt;Node7 -->
<g id="edge16" class="edge">
<title>Node15&#45;&gt;Node7</title>
<path fill="none" stroke="#404040" d="M767.96,-913.48C779.98,-898.69 795.35,-881.76 811.5,-869 995.98,-723.28 1250.64,-608.97 1382.15,-555.16"/>
<polygon fill="none" stroke="#404040" points="1382.22,-555.14 1386.27,-549.17 1393.33,-550.61 1389.28,-556.58 1382.22,-555.14"/>
<text text-anchor="middle" x="962" y="-819.5" font-family="Helvetica,sans-Serif" font-size="10.00"> &#45;end_date_time</text>
<text text-anchor="middle" x="962" y="-808.5" font-family="Helvetica,sans-Serif" font-size="10.00">&#45;start_date_time</text>
</g>
<!-- Node16&#45;&gt;Node7 -->
<g id="edge18" class="edge">
<title>Node16&#45;&gt;Node7</title>
<path fill="none" stroke="#404040" d="M1804.99,-918.74C1791.38,-884.72 1765.57,-826.15 1733.5,-782 1681.42,-710.31 1608.94,-640.55 1552.94,-591.3"/>
<polygon fill="none" stroke="#404040" points="1552.79,-591.16 1545.64,-590.23 1543.75,-583.27 1550.9,-584.2 1552.79,-591.16"/>
<text text-anchor="middle" x="1813.5" y="-814" font-family="Helvetica,sans-Serif" font-size="10.00"> &#45;available_forcings</text>
</g>
<!-- Node17&#45;&gt;Node7 -->
<g id="edge21" class="edge">
<title>Node17&#45;&gt;Node7</title>
<path fill="none" stroke="#404040" d="M1531.16,-918.94C1526.25,-887.84 1517.75,-833.93 1508.57,-775.67"/>
<polygon fill="none" stroke="#404040" points="1508.53,-775.42 1503.64,-770.12 1506.66,-763.57 1511.55,-768.87 1508.53,-775.42"/>
<text text-anchor="start" x="1518.5" y="-819.5" font-family="Helvetica,sans-Serif" font-size="10.00"> &#45;precipitation_rate</text>
<text text-anchor="middle" x="1580.5" y="-808.5" font-family="Helvetica,sans-Serif" font-size="10.00">_meters_per_second_vector</text>
</g>
<!-- Node18&#45;&gt;Node1 -->
<g id="edge23" class="edge">
<title>Node18&#45;&gt;Node1</title>
<path fill="none" stroke="#404040" d="M621.39,-486.19C619.32,-433.68 607.26,-332 547.5,-277 474.89,-210.17 401.37,-298.66 330.5,-230 289.7,-190.47 314.86,-160.69 299.5,-106 297.17,-97.69 294.54,-88.88 291.94,-80.41"/>
<polygon fill="none" stroke="#404040" points="291.87,-80.19 286.27,-75.65 288.3,-68.74 293.91,-73.27 291.87,-80.19"/>
<text text-anchor="middle" x="370" y="-165.5" font-family="Helvetica,sans-Serif" font-size="10.00"> &#45;internal_nexuses</text>
</g>
<!-- Node19&#45;&gt;Node18 -->
<g id="edge24" class="edge">
<title>Node19&#45;&gt;Node18</title>
<path fill="none" stroke="#404040" d="M501.73,-913.2C512.97,-876.62 531.55,-816.13 547.5,-764 568.58,-695.13 592.94,-615.22 607.78,-566.53"/>
<polygon fill="none" stroke="#404040" points="607.84,-566.33 605.77,-559.42 611.34,-554.85 613.42,-561.75 607.84,-566.33"/>
<text text-anchor="middle" x="566" y="-814" font-family="Helvetica,sans-Serif" font-size="10.00"> +elements</text>
</g>
<!-- Node20&#45;&gt;Node1 -->
<g id="edge27" class="edge">
<title>Node20&#45;&gt;Node1</title>
<path fill="none" stroke="#404040" d="M133.53,-486.2C126.43,-399.52 111.8,-169.27 150.5,-106 163.5,-84.74 185.39,-69.39 207.36,-58.56"/>
<polygon fill="none" stroke="#404040" points="207.56,-58.46 211.34,-52.32 218.46,-53.44 214.68,-59.59 207.56,-58.46"/>
<text text-anchor="middle" x="181" y="-165.5" font-family="Helvetica,sans-Serif" font-size="10.00"> &#45;sub_network</text>
</g>
<!-- Node21&#45;&gt;Node20 -->
<g id="edge28" class="edge">
<title>Node21&#45;&gt;Node20</title>
<path fill="none" stroke="#404040" d="M58.17,-913.15C73.31,-837.43 110.31,-652.44 127.48,-566.61"/>
<polygon fill="none" stroke="#404040" points="127.51,-566.46 124.76,-559.79 129.86,-554.69 132.61,-561.36 127.51,-566.46"/>
<text text-anchor="middle" x="109" y="-814" font-family="Helvetica,sans-Serif" font-size="10.00"> +elements</text>
</g>
<!-- Node22&#45;&gt;Node1 -->
<g id="edge31" class="edge">
<title>Node22&#45;&gt;Node1</title>
<path fill="none" stroke="#404040" d="M778.84,-486.4C765.28,-404.24 717.5,-191.44 577.5,-106 507.03,-62.99 412.52,-46.22 348.55,-39.68"/>
<polygon fill="none" stroke="#404040" points="348.52,-39.67 342.17,-43.09 336.58,-38.54 342.93,-35.12 348.52,-39.67"/>
<text text-anchor="middle" x="728.5" y="-165.5" font-family="Helvetica,sans-Serif" font-size="10.00"> &#45;network_divides</text>
</g>
<!-- Node23&#45;&gt;Node22 -->
<g id="edge32" class="edge">
<title>Node23&#45;&gt;Node22</title>
<path fill="none" stroke="#404040" d="M631.79,-913.49C648.42,-877.15 675.46,-816.87 696.5,-764 723.7,-695.66 751.85,-615.06 768.51,-566.15"/>
<polygon fill="none" stroke="#404040" points="768.53,-566.08 766.68,-559.11 772.39,-554.72 774.25,-561.68 768.53,-566.08"/>
<text text-anchor="middle" x="712" y="-814" font-family="Helvetica,sans-Serif" font-size="10.00"> +elements</text>
</g>
<!-- Node24&#45;&gt;Node1 -->
<g id="edge35" class="edge">
<title>Node24&#45;&gt;Node1</title>
<path fill="none" stroke="#404040" d="M480.03,-486.41C480.52,-433.75 473.13,-331.29 413.5,-277 378.17,-244.83 353.02,-273.54 307.5,-259 279.29,-249.99 263.24,-255.09 247.5,-230 218.95,-184.5 236.78,-121.53 254.8,-79.7"/>
<polygon fill="none" stroke="#404040" points="254.91,-79.44 253.73,-72.33 259.84,-68.5 261.03,-75.61 254.91,-79.44"/>
<text text-anchor="middle" x="273.5" y="-165.5" font-family="Helvetica,sans-Serif" font-size="10.00"> &#45;flow_paths</text>
</g>
<!-- Node25&#45;&gt;Node24 -->
<g id="edge36" class="edge">
<title>Node25&#45;&gt;Node24</title>
<path fill="none" stroke="#404040" d="M378.97,-913.15C398.24,-837.35 445.32,-652.07 467.1,-566.35"/>
<polygon fill="none" stroke="#404040" points="467.11,-566.32 464.71,-559.52 470.06,-554.69 472.46,-561.49 467.11,-566.32"/>
<text text-anchor="middle" x="437" y="-814" font-family="Helvetica,sans-Serif" font-size="10.00"> +elements</text>
</g>
</g>
</svg>
