<?xml version="1.0" encoding="UTF-8" standalone="no"?>
<!DOCTYPE svg PUBLIC "-//W3C//DTD SVG 1.1//EN"
 "http://www.w3.org/Graphics/SVG/1.1/DTD/svg11.dtd">
<!-- Generated by graphviz version 9.0.0 (20230911.1827)
 -->
<!-- Title: data_access::OptionalWrappedDataProvider Pages: 1 -->
<svg width="766pt" height="1157pt"
 viewBox="0.00 0.00 765.50 1156.75" xmlns="http://www.w3.org/2000/svg" xmlns:xlink="http://www.w3.org/1999/xlink">
<g id="graph0" class="graph" transform="scale(1 1) rotate(0) translate(4 1152.75)">
<title>data_access::OptionalWrappedDataProvider</title>
<!-- Node1 -->
<g id="Node000001" class="node">
<title>Node1</title>
<g id="a_Node000001"><a xlink:title="Extension of DeferredWrappedProvider, where default values can be used instead of a backing provider.">
<polygon fill="#999999" stroke="none" points="637,-270 483,-270 483,0 637,0 637,-270"/>
<text text-anchor="start" x="492.88" y="-256.5" font-family="Helvetica,sans-Serif" font-size="10.00">data_access::OptionalWrapped</text>
<text text-anchor="start" x="531.88" y="-245.25" font-family="Helvetica,sans-Serif" font-size="10.00">DataProvider</text>
<text text-anchor="start" x="558.5" y="-230.5" font-family="Helvetica,sans-Serif" font-size="10.00"> </text>
<text text-anchor="start" x="487" y="-215.5" font-family="Helvetica,sans-Serif" font-size="10.00">+</text>
<text text-anchor="start" x="497" y="-215.5" font-family="Helvetica,sans-Serif" font-size="10.00">OptionalWrappedDataProvider()</text>
<text text-anchor="start" x="487" y="-200.5" font-family="Helvetica,sans-Serif" font-size="10.00">+</text>
<text text-anchor="start" x="497" y="-200.5" font-family="Helvetica,sans-Serif" font-size="10.00">OptionalWrappedDataProvider()</text>
<text text-anchor="start" x="487" y="-185.5" font-family="Helvetica,sans-Serif" font-size="10.00">+</text>
<text text-anchor="start" x="497" y="-185.5" font-family="Helvetica,sans-Serif" font-size="10.00">OptionalWrappedDataProvider()</text>
<text text-anchor="start" x="487" y="-170.5" font-family="Helvetica,sans-Serif" font-size="10.00">+</text>
<text text-anchor="start" x="497" y="-170.5" font-family="Helvetica,sans-Serif" font-size="10.00">OptionalWrappedDataProvider()</text>
<text text-anchor="start" x="487" y="-155.5" font-family="Helvetica,sans-Serif" font-size="10.00">+</text>
<text text-anchor="start" x="497" y="-155.5" font-family="Helvetica,sans-Serif" font-size="10.00">OptionalWrappedDataProvider()</text>
<text text-anchor="start" x="487" y="-140.5" font-family="Helvetica,sans-Serif" font-size="10.00">+</text>
<text text-anchor="start" x="497" y="-140.5" font-family="Helvetica,sans-Serif" font-size="10.00">OptionalWrappedDataProvider()</text>
<text text-anchor="start" x="487" y="-125.5" font-family="Helvetica,sans-Serif" font-size="10.00">+</text>
<text text-anchor="start" x="497" y="-125.5" font-family="Helvetica,sans-Serif" font-size="10.00">OptionalWrappedDataProvider()</text>
<text text-anchor="start" x="487" y="-110.5" font-family="Helvetica,sans-Serif" font-size="10.00">+</text>
<text text-anchor="start" x="497" y="-110.5" font-family="Helvetica,sans-Serif" font-size="10.00">get_value()</text>
<text text-anchor="start" x="487" y="-95.5" font-family="Helvetica,sans-Serif" font-size="10.00">+</text>
<text text-anchor="start" x="497" y="-95.5" font-family="Helvetica,sans-Serif" font-size="10.00">isDefaultOverride()</text>
<text text-anchor="start" x="487" y="-80.5" font-family="Helvetica,sans-Serif" font-size="10.00">+</text>
<text text-anchor="start" x="497" y="-80.5" font-family="Helvetica,sans-Serif" font-size="10.00">isReadyToProvideData()</text>
<text text-anchor="start" x="487" y="-65.5" font-family="Helvetica,sans-Serif" font-size="10.00">+</text>
<text text-anchor="start" x="497" y="-65.5" font-family="Helvetica,sans-Serif" font-size="10.00">isSuppliedWithDefault()</text>
<text text-anchor="start" x="487" y="-50.5" font-family="Helvetica,sans-Serif" font-size="10.00">+</text>
<text text-anchor="start" x="497" y="-50.5" font-family="Helvetica,sans-Serif" font-size="10.00">setWrappedProvider()</text>
<text text-anchor="start" x="487.38" y="-35.5" font-family="Helvetica,sans-Serif" font-size="10.00">#</text>
<text text-anchor="start" x="497" y="-35.5" font-family="Helvetica,sans-Serif" font-size="10.00">recordUsingDefault()</text>
<text text-anchor="start" x="488.5" y="-20.5" font-family="Helvetica,sans-Serif" font-size="10.00">&#45;</text>
<text text-anchor="start" x="497" y="-20.5" font-family="Helvetica,sans-Serif" font-size="10.00">isSuppliedByWrappedProvider()</text>
<text text-anchor="start" x="488.5" y="-5.5" font-family="Helvetica,sans-Serif" font-size="10.00">&#45;</text>
<text text-anchor="start" x="497" y="-5.5" font-family="Helvetica,sans-Serif" font-size="10.00">isSuppliedByProvider()</text>
<polygon fill="#666666" stroke="#666666" points="483,-242 483,-242 637,-242 637,-242 483,-242"/>
<polygon fill="#666666" stroke="#666666" points="483,-227 483,-227 637,-227 637,-227 483,-227"/>
<polygon fill="none" stroke="#666666" points="483,0 483,-270 637,-270 637,0 483,0"/>
</a>
</g>
</g>
<!-- Node2 -->
<g id="Node000002" class="node">
<title>Node2</title>
<g id="a_Node000002"><a xlink:href="classdata__access_1_1_deferred_wrapped_provider.html" target="_top" xlink:title="A specialized @WrappedDataProvider that is created without first knowing the backing source it wraps.">
<polygon fill="white" stroke="none" points="462.5,-483 317.5,-483 317.5,-307 462.5,-307 462.5,-483"/>
<text text-anchor="start" x="322.5" y="-469.5" font-family="Helvetica,sans-Serif" font-size="10.00">data_access::DeferredWrapped</text>
<text text-anchor="start" x="372" y="-458.25" font-family="Helvetica,sans-Serif" font-size="10.00">Provider</text>
<text text-anchor="start" x="388.5" y="-443.5" font-family="Helvetica,sans-Serif" font-size="10.00"> </text>
<text text-anchor="start" x="324" y="-428.5" font-family="Helvetica,sans-Serif" font-size="10.00">+</text>
<text text-anchor="start" x="336.5" y="-428.5" font-family="Helvetica,sans-Serif" font-size="10.00">DeferredWrappedProvider()</text>
<text text-anchor="start" x="324" y="-413.5" font-family="Helvetica,sans-Serif" font-size="10.00">+</text>
<text text-anchor="start" x="336.5" y="-413.5" font-family="Helvetica,sans-Serif" font-size="10.00">DeferredWrappedProvider()</text>
<text text-anchor="start" x="324" y="-398.5" font-family="Helvetica,sans-Serif" font-size="10.00">+</text>
<text text-anchor="start" x="336.5" y="-398.5" font-family="Helvetica,sans-Serif" font-size="10.00">DeferredWrappedProvider()</text>
<text text-anchor="start" x="324" y="-383.5" font-family="Helvetica,sans-Serif" font-size="10.00">+</text>
<text text-anchor="start" x="336.5" y="-383.5" font-family="Helvetica,sans-Serif" font-size="10.00">get_available_variable</text>
<text text-anchor="start" x="336.5" y="-372.25" font-family="Helvetica,sans-Serif" font-size="10.00">_names()</text>
<text text-anchor="start" x="324" y="-357.5" font-family="Helvetica,sans-Serif" font-size="10.00">+</text>
<text text-anchor="start" x="336.5" y="-357.5" font-family="Helvetica,sans-Serif" font-size="10.00">getSetMessage()</text>
<text text-anchor="start" x="324" y="-342.5" font-family="Helvetica,sans-Serif" font-size="10.00">+</text>
<text text-anchor="start" x="336.5" y="-342.5" font-family="Helvetica,sans-Serif" font-size="10.00">isReadyToProvideData()</text>
<text text-anchor="start" x="324" y="-327.5" font-family="Helvetica,sans-Serif" font-size="10.00">+</text>
<text text-anchor="start" x="336.5" y="-327.5" font-family="Helvetica,sans-Serif" font-size="10.00">isWrappedProviderSet()</text>
<text text-anchor="start" x="324" y="-312.5" font-family="Helvetica,sans-Serif" font-size="10.00">+</text>
<text text-anchor="start" x="336.5" y="-312.5" font-family="Helvetica,sans-Serif" font-size="10.00">setWrappedProvider()</text>
<polygon fill="#666666" stroke="#666666" points="317.5,-455 317.5,-455 462.5,-455 462.5,-455 317.5,-455"/>
<polygon fill="#666666" stroke="#666666" points="317.5,-440 317.5,-440 462.5,-440 462.5,-440 317.5,-440"/>
<polygon fill="none" stroke="#666666" points="317.5,-307 317.5,-483 462.5,-483 462.5,-307 317.5,-307"/>
</a>
</g>
</g>
<!-- Node2&#45;&gt;Node1 -->
<g id="edge1_Node000001_Node000002" class="edge">
<title>Node2&#45;&gt;Node1</title>
<g id="a_edge1_Node000001_Node000002"><a xlink:title=" ">
<path fill="none" stroke="#63b8ff" d="M453.57,-297.53C463.17,-282.95 473.17,-267.77 483.02,-252.82"/>
<polygon fill="none" stroke="#63b8ff" points="450.73,-295.47 448.15,-305.75 456.57,-299.32 450.73,-295.47"/>
</a>
</g>
</g>
<!-- Node3 -->
<g id="Node000003" class="node">
<title>Node3</title>
<g id="a_Node000003"><a xlink:href="classdata__access_1_1_wrapped_data_provider.html" target="_top" xlink:title="Simple implementation that basically wraps another instance.">
<polygon fill="white" stroke="none" points="269,-777.25 141,-777.25 141,-530.25 269,-530.25 269,-777.25"/>
<text text-anchor="start" x="145.75" y="-763.75" font-family="Helvetica,sans-Serif" font-size="10.00">data_access::WrappedData</text>
<text text-anchor="start" x="187" y="-752.5" font-family="Helvetica,sans-Serif" font-size="10.00">Provider</text>
<text text-anchor="start" x="203.5" y="-737.75" font-family="Helvetica,sans-Serif" font-size="10.00"> </text>
<text text-anchor="start" x="147" y="-722.75" font-family="Helvetica,sans-Serif" font-size="10.00">+</text>
<text text-anchor="start" x="159" y="-722.75" font-family="Helvetica,sans-Serif" font-size="10.00">WrappedDataProvider()</text>
<text text-anchor="start" x="147" y="-707.75" font-family="Helvetica,sans-Serif" font-size="10.00">+</text>
<text text-anchor="start" x="159" y="-707.75" font-family="Helvetica,sans-Serif" font-size="10.00">WrappedDataProvider()</text>
<text text-anchor="start" x="147" y="-692.75" font-family="Helvetica,sans-Serif" font-size="10.00">+</text>
<text text-anchor="start" x="159" y="-692.75" font-family="Helvetica,sans-Serif" font-size="10.00">WrappedDataProvider()</text>
<text text-anchor="start" x="147" y="-677.75" font-family="Helvetica,sans-Serif" font-size="10.00">+</text>
<text text-anchor="start" x="159" y="-677.75" font-family="Helvetica,sans-Serif" font-size="10.00">finalize()</text>
<text text-anchor="start" x="147" y="-662.75" font-family="Helvetica,sans-Serif" font-size="10.00">+</text>
<text text-anchor="start" x="159" y="-662.75" font-family="Helvetica,sans-Serif" font-size="10.00">get_available_variable</text>
<text text-anchor="start" x="159" y="-651.5" font-family="Helvetica,sans-Serif" font-size="10.00">_names()</text>
<text text-anchor="start" x="147" y="-636.75" font-family="Helvetica,sans-Serif" font-size="10.00">+</text>
<text text-anchor="start" x="159" y="-636.75" font-family="Helvetica,sans-Serif" font-size="10.00">get_data_start_time()</text>
<text text-anchor="start" x="147" y="-621.75" font-family="Helvetica,sans-Serif" font-size="10.00">+</text>
<text text-anchor="start" x="159" y="-621.75" font-family="Helvetica,sans-Serif" font-size="10.00">get_data_stop_time()</text>
<text text-anchor="start" x="147" y="-606.75" font-family="Helvetica,sans-Serif" font-size="10.00">+</text>
<text text-anchor="start" x="159" y="-606.75" font-family="Helvetica,sans-Serif" font-size="10.00">record_duration()</text>
<text text-anchor="start" x="147" y="-591.75" font-family="Helvetica,sans-Serif" font-size="10.00">+</text>
<text text-anchor="start" x="159" y="-591.75" font-family="Helvetica,sans-Serif" font-size="10.00">get_ts_index_for_time()</text>
<text text-anchor="start" x="147" y="-576.75" font-family="Helvetica,sans-Serif" font-size="10.00">+</text>
<text text-anchor="start" x="159" y="-576.75" font-family="Helvetica,sans-Serif" font-size="10.00">get_value()</text>
<text text-anchor="start" x="147" y="-561.75" font-family="Helvetica,sans-Serif" font-size="10.00">+</text>
<text text-anchor="start" x="159" y="-561.75" font-family="Helvetica,sans-Serif" font-size="10.00">get_values()</text>
<text text-anchor="start" x="147" y="-546.75" font-family="Helvetica,sans-Serif" font-size="10.00">+</text>
<text text-anchor="start" x="159" y="-546.75" font-family="Helvetica,sans-Serif" font-size="10.00">is_property_sum_over</text>
<text text-anchor="start" x="159" y="-535.5" font-family="Helvetica,sans-Serif" font-size="10.00">_time_step()</text>
<polygon fill="#666666" stroke="#666666" points="141,-749.25 141,-749.25 269,-749.25 269,-749.25 141,-749.25"/>
<polygon fill="#666666" stroke="#666666" points="141,-734.25 141,-734.25 269,-734.25 269,-734.25 141,-734.25"/>
<polygon fill="none" stroke="#666666" points="141,-530.25 141,-777.25 269,-777.25 269,-530.25 141,-530.25"/>
</a>
</g>
</g>
<!-- Node3&#45;&gt;Node2 -->
<g id="edge2_Node000002_Node000003" class="edge">
<title>Node3&#45;&gt;Node2</title>
<g id="a_edge2_Node000002_Node000003"><a xlink:title=" ">
<path fill="none" stroke="#63b8ff" d="M275.12,-534.36C276.08,-532.98 277.04,-531.61 278,-530.25 290.19,-513.04 304.02,-495.27 317.7,-478.53"/>
<polygon fill="none" stroke="#63b8ff" points="272.39,-532.15 269.65,-542.38 278.17,-536.09 272.39,-532.15"/>
</a>
</g>
</g>
<!-- Node4 -->
<g id="Node000004" class="node">
<title>Node4</title>
<g id="a_Node000004"><a xlink:href="classdata__access_1_1_data_provider.html" target="_top" xlink:title=" ">
<polygon fill="white" stroke="none" points="273.5,-1036 154.5,-1036 154.5,-830 273.5,-830 273.5,-1036"/>
<text text-anchor="start" x="169" y="-1022.5" font-family="Helvetica,sans-Serif" font-size="10.00">GenericDataProvider</text>
<text text-anchor="start" x="212.5" y="-1007.5" font-family="Helvetica,sans-Serif" font-size="10.00"> </text>
<text text-anchor="start" x="158.5" y="-992.5" font-family="Helvetica,sans-Serif" font-size="10.00">+</text>
<text text-anchor="start" x="168.5" y="-992.5" font-family="Helvetica,sans-Serif" font-size="10.00">~DataProvider()</text>
<text text-anchor="start" x="158.5" y="-977.5" font-family="Helvetica,sans-Serif" font-size="10.00">+</text>
<text text-anchor="start" x="168.5" y="-977.5" font-family="Helvetica,sans-Serif" font-size="10.00">finalize()</text>
<text text-anchor="start" x="158.5" y="-962.5" font-family="Helvetica,sans-Serif" font-size="10.00">+</text>
<text text-anchor="start" x="168.5" y="-962.5" font-family="Helvetica,sans-Serif" font-size="10.00">get_available_variable</text>
<text text-anchor="start" x="168.5" y="-951.25" font-family="Helvetica,sans-Serif" font-size="10.00">_names()</text>
<text text-anchor="start" x="158.5" y="-936.5" font-family="Helvetica,sans-Serif" font-size="10.00">+</text>
<text text-anchor="start" x="168.5" y="-936.5" font-family="Helvetica,sans-Serif" font-size="10.00">get_data_start_time()</text>
<text text-anchor="start" x="158.5" y="-921.5" font-family="Helvetica,sans-Serif" font-size="10.00">+</text>
<text text-anchor="start" x="168.5" y="-921.5" font-family="Helvetica,sans-Serif" font-size="10.00">get_data_stop_time()</text>
<text text-anchor="start" x="158.5" y="-906.5" font-family="Helvetica,sans-Serif" font-size="10.00">+</text>
<text text-anchor="start" x="168.5" y="-906.5" font-family="Helvetica,sans-Serif" font-size="10.00">record_duration()</text>
<text text-anchor="start" x="158.5" y="-891.5" font-family="Helvetica,sans-Serif" font-size="10.00">+</text>
<text text-anchor="start" x="168.5" y="-891.5" font-family="Helvetica,sans-Serif" font-size="10.00">get_ts_index_for_time()</text>
<text text-anchor="start" x="158.5" y="-876.5" font-family="Helvetica,sans-Serif" font-size="10.00">+</text>
<text text-anchor="start" x="168.5" y="-876.5" font-family="Helvetica,sans-Serif" font-size="10.00">get_value()</text>
<text text-anchor="start" x="158.5" y="-861.5" font-family="Helvetica,sans-Serif" font-size="10.00">+</text>
<text text-anchor="start" x="168.5" y="-861.5" font-family="Helvetica,sans-Serif" font-size="10.00">get_values()</text>
<text text-anchor="start" x="158.5" y="-846.5" font-family="Helvetica,sans-Serif" font-size="10.00">+</text>
<text text-anchor="start" x="168.5" y="-846.5" font-family="Helvetica,sans-Serif" font-size="10.00">is_property_sum_over</text>
<text text-anchor="start" x="168.5" y="-835.25" font-family="Helvetica,sans-Serif" font-size="10.00">_time_step()</text>
<polygon fill="#666666" stroke="#666666" points="154.5,-1019 154.5,-1019 273.5,-1019 273.5,-1019 154.5,-1019"/>
<polygon fill="#666666" stroke="#666666" points="154.5,-1004 154.5,-1004 273.5,-1004 273.5,-1004 154.5,-1004"/>
<polygon fill="none" stroke="#666666" points="154.5,-830 154.5,-1036 273.5,-1036 273.5,-830 154.5,-830"/>
</a>
</g>
</g>
<!-- Node4&#45;&gt;Node3 -->
<g id="edge3_Node000003_Node000004" class="edge">
<title>Node4&#45;&gt;Node3</title>
<g id="a_edge3_Node000003_Node000004"><a xlink:title=" ">
<path fill="none" stroke="#63b8ff" d="M210.33,-818.87C209.88,-805.11 209.42,-791 208.97,-777.11"/>
<polygon fill="none" stroke="#63b8ff" points="206.83,-818.94 210.65,-828.82 213.82,-818.72 206.83,-818.94"/>
</a>
</g>
</g>
<!-- Node5 -->
<g id="Node000005" class="node">
<title>Node5</title>
<g id="a_Node000005"><a xlink:href="classdata__access_1_1_data_provider.html" target="_top" xlink:title=" ">
<polygon fill="white" stroke="none" points="136,-1041.5 0,-1041.5 0,-824.5 136,-824.5 136,-1041.5"/>
<text text-anchor="start" x="5" y="-1028" font-family="Helvetica,sans-Serif" font-size="10.00">data_access::DataProvider</text>
<text text-anchor="start" x="5" y="-1016.75" font-family="Helvetica,sans-Serif" font-size="10.00">&lt; data_type, selection_type &gt;</text>
<text text-anchor="start" x="66.5" y="-1002" font-family="Helvetica,sans-Serif" font-size="10.00"> </text>
<text text-anchor="start" x="8" y="-987" font-family="Helvetica,sans-Serif" font-size="10.00">+</text>
<text text-anchor="start" x="22" y="-987" font-family="Helvetica,sans-Serif" font-size="10.00">~DataProvider()</text>
<text text-anchor="start" x="8" y="-972" font-family="Helvetica,sans-Serif" font-size="10.00">+</text>
<text text-anchor="start" x="22" y="-972" font-family="Helvetica,sans-Serif" font-size="10.00">finalize()</text>
<text text-anchor="start" x="8" y="-957" font-family="Helvetica,sans-Serif" font-size="10.00">+</text>
<text text-anchor="start" x="22" y="-957" font-family="Helvetica,sans-Serif" font-size="10.00">get_available_variable</text>
<text text-anchor="start" x="22" y="-945.75" font-family="Helvetica,sans-Serif" font-size="10.00">_names()</text>
<text text-anchor="start" x="8" y="-931" font-family="Helvetica,sans-Serif" font-size="10.00">+</text>
<text text-anchor="start" x="22" y="-931" font-family="Helvetica,sans-Serif" font-size="10.00">get_data_start_time()</text>
<text text-anchor="start" x="8" y="-916" font-family="Helvetica,sans-Serif" font-size="10.00">+</text>
<text text-anchor="start" x="22" y="-916" font-family="Helvetica,sans-Serif" font-size="10.00">get_data_stop_time()</text>
<text text-anchor="start" x="8" y="-901" font-family="Helvetica,sans-Serif" font-size="10.00">+</text>
<text text-anchor="start" x="22" y="-901" font-family="Helvetica,sans-Serif" font-size="10.00">record_duration()</text>
<text text-anchor="start" x="8" y="-886" font-family="Helvetica,sans-Serif" font-size="10.00">+</text>
<text text-anchor="start" x="22" y="-886" font-family="Helvetica,sans-Serif" font-size="10.00">get_ts_index_for_time()</text>
<text text-anchor="start" x="8" y="-871" font-family="Helvetica,sans-Serif" font-size="10.00">+</text>
<text text-anchor="start" x="22" y="-871" font-family="Helvetica,sans-Serif" font-size="10.00">get_value()</text>
<text text-anchor="start" x="8" y="-856" font-family="Helvetica,sans-Serif" font-size="10.00">+</text>
<text text-anchor="start" x="22" y="-856" font-family="Helvetica,sans-Serif" font-size="10.00">get_values()</text>
<text text-anchor="start" x="8" y="-841" font-family="Helvetica,sans-Serif" font-size="10.00">+</text>
<text text-anchor="start" x="22" y="-841" font-family="Helvetica,sans-Serif" font-size="10.00">is_property_sum_over</text>
<text text-anchor="start" x="22" y="-829.75" font-family="Helvetica,sans-Serif" font-size="10.00">_time_step()</text>
<polygon fill="#666666" stroke="#666666" points="0,-1013.5 0,-1013.5 136,-1013.5 136,-1013.5 0,-1013.5"/>
<polygon fill="#666666" stroke="#666666" points="0,-998.5 0,-998.5 136,-998.5 136,-998.5 0,-998.5"/>
<polygon fill="none" stroke="#666666" points="0,-824.5 0,-1041.5 136,-1041.5 136,-824.5 0,-824.5"/>
</a>
</g>
</g>
<!-- Node5&#45;&gt;Node3 -->
<g id="edge4_Node000003_Node000005" class="edge">
<title>Node5&#45;&gt;Node3</title>
<g id="a_edge4_Node000003_Node000005"><a xlink:title=" ">
<path fill="none" stroke="#63b8ff" d="M108.56,-824.54C112.89,-814.55 117.4,-804.65 122,-795.25 126.02,-787.03 130.35,-778.64 134.84,-770.26"/>
<polygon fill="none" stroke="#63b8ff" points="134.88,-770.19 134.25,-763.01 140.63,-759.65 141.27,-766.84 134.88,-770.19"/>
</a>
</g>
<text text-anchor="middle" x="164" y="-797" font-family="Helvetica,sans-Serif" font-size="10.00" fill="grey"> #wrapped_provider</text>
</g>
<!-- Node6 -->
<g id="Node000006" class="node">
<title>Node6</title>
<g id="a_Node000006"><a xlink:title=" ">
<polygon fill="white" stroke="none" points="400.5,-678.25 287.5,-678.25 287.5,-629.25 400.5,-629.25 400.5,-678.25"/>
<text text-anchor="start" x="292.25" y="-664.75" font-family="Helvetica,sans-Serif" font-size="10.00">std::vector&lt; std::string &gt;</text>
<text text-anchor="start" x="342.5" y="-649.75" font-family="Helvetica,sans-Serif" font-size="10.00"> </text>
<text text-anchor="start" x="342.5" y="-634.75" font-family="Helvetica,sans-Serif" font-size="10.00"> </text>
<polygon fill="#666666" stroke="#666666" points="287.5,-661.25 287.5,-661.25 400.5,-661.25 400.5,-661.25 287.5,-661.25"/>
<polygon fill="#666666" stroke="#666666" points="287.5,-646.25 287.5,-646.25 400.5,-646.25 400.5,-646.25 287.5,-646.25"/>
<polygon fill="none" stroke="#666666" points="287.5,-629.25 287.5,-678.25 400.5,-678.25 400.5,-629.25 287.5,-629.25"/>
</a>
</g>
</g>
<!-- Node6&#45;&gt;Node2 -->
<g id="edge5_Node000002_Node000006" class="edge">
<title>Node6&#45;&gt;Node2</title>
<g id="a_edge5_Node000002_Node000006"><a xlink:title=" ">
<path fill="none" stroke="#63b8ff" d="M341.12,-629.31C338.08,-599.23 334.91,-545.61 344.25,-501 344.64,-499.11 345.07,-497.22 345.54,-495.32"/>
<polygon fill="none" stroke="#63b8ff" points="345.57,-495.2 343.32,-488.35 348.78,-483.64 351.03,-490.49 345.57,-495.2"/>
</a>
</g>
<text text-anchor="middle" x="384.38" y="-502.75" font-family="Helvetica,sans-Serif" font-size="10.00" fill="grey"> #providedOutputs</text>
</g>
<!-- Node7 -->
<g id="Node000007" class="node">
<title>Node7</title>
<g id="a_Node000007"><a xlink:title=" ">
<polygon fill="white" stroke="none" points="463,-957.5 411,-957.5 411,-908.5 463,-908.5 463,-957.5"/>
<text text-anchor="start" x="416" y="-944" font-family="Helvetica,sans-Serif" font-size="10.00">std::string</text>
<text text-anchor="start" x="435.5" y="-929" font-family="Helvetica,sans-Serif" font-size="10.00"> </text>
<text text-anchor="start" x="435.5" y="-914" font-family="Helvetica,sans-Serif" font-size="10.00"> </text>
<polygon fill="#666666" stroke="#666666" points="411,-940.5 411,-940.5 463,-940.5 463,-940.5 411,-940.5"/>
<polygon fill="#666666" stroke="#666666" points="411,-925.5 411,-925.5 463,-925.5 463,-925.5 411,-925.5"/>
<polygon fill="none" stroke="#666666" points="411,-908.5 411,-957.5 463,-957.5 463,-908.5 411,-908.5"/>
</a>
</g>
</g>
<!-- Node7&#45;&gt;Node2 -->
<g id="edge10_Node000002_Node000007" class="edge">
<title>Node7&#45;&gt;Node2</title>
<g id="a_edge10_Node000002_Node000007"><a xlink:title=" ">
<path fill="none" stroke="#63b8ff" d="M438.44,-908.89C442,-844 449.18,-654.88 423,-501 422.7,-499.24 422.38,-497.47 422.04,-495.68"/>
<polygon fill="none" stroke="#63b8ff" points="422.01,-495.54 416.84,-490.52 419.48,-483.81 424.66,-488.84 422.01,-495.54"/>
</a>
</g>
<text text-anchor="middle" x="473.38" y="-649.88" font-family="Helvetica,sans-Serif" font-size="10.00" fill="grey"> #setMessage</text>
</g>
<!-- Node7&#45;&gt;Node6 -->
<g id="edge6_Node000006_Node000007" class="edge">
<title>Node7&#45;&gt;Node6</title>
<g id="a_edge6_Node000006_Node000007"><a xlink:title=" ">
<path fill="none" stroke="#63b8ff" d="M430.48,-908.89C423.43,-886.2 410.76,-851.2 393,-824.5 386.73,-815.08 380.36,-816.46 375,-806.5 355.44,-770.13 348.19,-722.79 345.52,-690.73"/>
<polygon fill="none" stroke="#63b8ff" points="345.53,-690.87 341.13,-685.16 344.7,-678.9 349.11,-684.61 345.53,-690.87"/>
</a>
</g>
<text text-anchor="middle" x="399" y="-797" font-family="Helvetica,sans-Serif" font-size="10.00" fill="grey"> +elements</text>
</g>
<!-- Node11 -->
<g id="Node000011" class="node">
<title>Node11</title>
<g id="a_Node000011"><a xlink:title=" ">
<polygon fill="white" stroke="none" points="734,-683.75 634,-683.75 634,-623.75 734,-623.75 734,-683.75"/>
<text text-anchor="start" x="639" y="-670.25" font-family="Helvetica,sans-Serif" font-size="10.00">std::map&lt; std::string,</text>
<text text-anchor="start" x="664.5" y="-659" font-family="Helvetica,sans-Serif" font-size="10.00"> double &gt;</text>
<text text-anchor="start" x="648.5" y="-644.25" font-family="Helvetica,sans-Serif" font-size="10.00">+</text>
<text text-anchor="start" x="669" y="-644.25" font-family="Helvetica,sans-Serif" font-size="10.00">elements</text>
<text text-anchor="start" x="682.5" y="-629.25" font-family="Helvetica,sans-Serif" font-size="10.00"> </text>
<polygon fill="#666666" stroke="#666666" points="634,-655.75 634,-655.75 734,-655.75 734,-655.75 634,-655.75"/>
<polygon fill="#666666" stroke="#666666" points="634,-640.75 634,-640.75 667,-640.75 667,-640.75 634,-640.75"/>
<polygon fill="#666666" stroke="#666666" points="667,-640.75 667,-640.75 734,-640.75 734,-640.75 667,-640.75"/>
<polygon fill="none" stroke="#666666" points="634,-623.75 634,-683.75 734,-683.75 734,-623.75 634,-623.75"/>
</a>
</g>
</g>
<!-- Node7&#45;&gt;Node11 -->
<g id="edge12_Node000011_Node000007" class="edge">
<title>Node7&#45;&gt;Node11</title>
<g id="a_edge12_Node000011_Node000007"><a xlink:title=" ">
<path fill="none" stroke="#63b8ff" d="M449.83,-908.7C468.05,-877.84 504.42,-823.98 550.5,-795.25 579.4,-777.23 598.5,-798.66 625,-777.25 650.36,-756.76 665.53,-722.72 674.12,-695.72"/>
<polygon fill="none" stroke="#63b8ff" points="674.08,-695.87 671.94,-688.99 677.47,-684.36 679.61,-691.25 674.08,-695.87"/>
</a>
</g>
<text text-anchor="middle" x="564.25" y="-797" font-family="Helvetica,sans-Serif" font-size="10.00" fill="grey"> +keys</text>
</g>
<!-- Node14 -->
<g id="Node000014" class="node">
<title>Node14</title>
<g id="a_Node000014"><a xlink:title=" ">
<polygon fill="white" stroke="none" points="616,-683.75 516,-683.75 516,-623.75 616,-623.75 616,-683.75"/>
<text text-anchor="start" x="521" y="-670.25" font-family="Helvetica,sans-Serif" font-size="10.00">std::map&lt; std::string,</text>
<text text-anchor="start" x="555.5" y="-659" font-family="Helvetica,sans-Serif" font-size="10.00"> int &gt;</text>
<text text-anchor="start" x="530.5" y="-644.25" font-family="Helvetica,sans-Serif" font-size="10.00">+</text>
<text text-anchor="start" x="551" y="-644.25" font-family="Helvetica,sans-Serif" font-size="10.00">elements</text>
<text text-anchor="start" x="564.5" y="-629.25" font-family="Helvetica,sans-Serif" font-size="10.00"> </text>
<polygon fill="#666666" stroke="#666666" points="516,-655.75 516,-655.75 616,-655.75 616,-655.75 516,-655.75"/>
<polygon fill="#666666" stroke="#666666" points="516,-640.75 516,-640.75 549,-640.75 549,-640.75 516,-640.75"/>
<polygon fill="#666666" stroke="#666666" points="549,-640.75 549,-640.75 616,-640.75 616,-640.75 549,-640.75"/>
<polygon fill="none" stroke="#666666" points="516,-623.75 516,-683.75 616,-683.75 616,-623.75 516,-623.75"/>
</a>
</g>
</g>
<!-- Node7&#45;&gt;Node14 -->
<g id="edge17_Node000014_Node000007" class="edge">
<title>Node7&#45;&gt;Node14</title>
<g id="a_edge17_Node000014_Node000007"><a xlink:title=" ">
<path fill="none" stroke="#63b8ff" d="M439.66,-908.57C443.88,-879.71 454.27,-830.23 478.5,-795.25 485.99,-784.44 493.53,-787.32 502,-777.25 522.57,-752.79 539.06,-720.62 550.15,-695.38"/>
<polygon fill="none" stroke="#63b8ff" points="550.11,-695.49 548.77,-688.4 554.8,-684.45 556.13,-691.53 550.11,-695.49"/>
</a>
</g>
<text text-anchor="middle" x="493.25" y="-797" font-family="Helvetica,sans-Serif" font-size="10.00" fill="grey"> +keys</text>
</g>
<!-- Node8 -->
<g id="Node000008" class="node">
<title>Node8</title>
<g id="a_Node000008"><a xlink:title=" ">
<polygon fill="white" stroke="none" points="474,-1148.75 388,-1148.75 388,-1088.75 474,-1088.75 474,-1148.75"/>
<text text-anchor="start" x="392.75" y="-1135.25" font-family="Helvetica,sans-Serif" font-size="10.00">std::basic_string&lt;</text>
<text text-anchor="start" x="415.62" y="-1124" font-family="Helvetica,sans-Serif" font-size="10.00"> Char &gt;</text>
<text text-anchor="start" x="429.5" y="-1109.25" font-family="Helvetica,sans-Serif" font-size="10.00"> </text>
<text text-anchor="start" x="429.5" y="-1094.25" font-family="Helvetica,sans-Serif" font-size="10.00"> </text>
<polygon fill="#666666" stroke="#666666" points="388,-1120.75 388,-1120.75 474,-1120.75 474,-1120.75 388,-1120.75"/>
<polygon fill="#666666" stroke="#666666" points="388,-1105.75 388,-1105.75 474,-1105.75 474,-1105.75 388,-1105.75"/>
<polygon fill="none" stroke="#666666" points="388,-1088.75 388,-1148.75 474,-1148.75 474,-1088.75 388,-1088.75"/>
</a>
</g>
</g>
<!-- Node8&#45;&gt;Node7 -->
<g id="edge7_Node000007_Node000008" class="edge">
<title>Node8&#45;&gt;Node7</title>
<g id="a_edge7_Node000007_Node000008"><a xlink:title=" ">
<path fill="none" stroke="#63b8ff" d="M432.31,-1077.71C433.51,-1040.88 435.25,-987.54 436.24,-957.27"/>
<polygon fill="none" stroke="#63b8ff" points="428.82,-1077.42 431.99,-1087.53 435.81,-1077.65 428.82,-1077.42"/>
</a>
</g>
</g>
<!-- Node9 -->
<g id="Node000009" class="node">
<title>Node9</title>
<g id="a_Node000009"><a xlink:title=" ">
<polygon fill="white" stroke="none" points="384.5,-957.5 307.5,-957.5 307.5,-908.5 384.5,-908.5 384.5,-957.5"/>
<text text-anchor="start" x="312.25" y="-944" font-family="Helvetica,sans-Serif" font-size="10.00">std::vector&lt; T &gt;</text>
<text text-anchor="start" x="344.5" y="-929" font-family="Helvetica,sans-Serif" font-size="10.00"> </text>
<text text-anchor="start" x="344.5" y="-914" font-family="Helvetica,sans-Serif" font-size="10.00"> </text>
<polygon fill="#666666" stroke="#666666" points="307.5,-940.5 307.5,-940.5 384.5,-940.5 384.5,-940.5 307.5,-940.5"/>
<polygon fill="#666666" stroke="#666666" points="307.5,-925.5 307.5,-925.5 384.5,-925.5 384.5,-925.5 307.5,-925.5"/>
<polygon fill="none" stroke="#666666" points="307.5,-908.5 307.5,-957.5 384.5,-957.5 384.5,-908.5 307.5,-908.5"/>
</a>
</g>
</g>
<!-- Node9&#45;&gt;Node6 -->
<g id="edge8_Node000006_Node000009" class="edge">
<title>Node9&#45;&gt;Node6</title>
<g id="a_edge8_Node000006_Node000009"><a xlink:title=" ">
<path fill="none" stroke="orange" d="M327.13,-899.03C314.18,-874.42 298.13,-839.49 291.25,-806.5 281.48,-759.67 308.47,-707.48 327.36,-678.13"/>
<polygon fill="orange" stroke="orange" points="323.91,-900.44 331.74,-907.58 330.07,-897.12 323.91,-900.44"/>
</a>
</g>
<text text-anchor="middle" x="322.38" y="-797" font-family="Helvetica,sans-Serif" font-size="10.00" fill="grey"> &lt; std::string &gt;</text>
</g>
<!-- Node10 -->
<g id="Node000010" class="node">
<title>Node10</title>
<g id="a_Node000010"><a xlink:title=" ">
<polygon fill="white" stroke="none" points="526,-1143.25 510,-1143.25 510,-1094.25 526,-1094.25 526,-1143.25"/>
<text text-anchor="start" x="515" y="-1129.75" font-family="Helvetica,sans-Serif" font-size="10.00">T</text>
<text text-anchor="start" x="516.5" y="-1114.75" font-family="Helvetica,sans-Serif" font-size="10.00"> </text>
<text text-anchor="start" x="516.5" y="-1099.75" font-family="Helvetica,sans-Serif" font-size="10.00"> </text>
<polygon fill="#666666" stroke="#666666" points="510,-1126.25 510,-1126.25 526,-1126.25 526,-1126.25 510,-1126.25"/>
<polygon fill="#666666" stroke="#666666" points="510,-1111.25 510,-1111.25 526,-1111.25 526,-1111.25 510,-1111.25"/>
<polygon fill="none" stroke="#666666" points="510,-1094.25 510,-1143.25 526,-1143.25 526,-1094.25 510,-1094.25"/>
</a>
</g>
</g>
<!-- Node10&#45;&gt;Node9 -->
<g id="edge9_Node000009_Node000010" class="edge">
<title>Node10&#45;&gt;Node9</title>
<g id="a_edge9_Node000009_Node000010"><a xlink:title=" ">
<path fill="none" stroke="#63b8ff" d="M510.23,-1110.68C503.33,-1104.56 492.83,-1095.62 483,-1088.75 448.84,-1064.87 430.76,-1071.67 402,-1041.5 382.28,-1020.81 367.72,-991.81 358.39,-969.14"/>
<polygon fill="none" stroke="#63b8ff" points="358.46,-969.31 352.55,-965.18 354.08,-958.13 360,-962.26 358.46,-969.31"/>
</a>
</g>
<text text-anchor="middle" x="473" y="-1061.25" font-family="Helvetica,sans-Serif" font-size="10.00" fill="grey"> +elements</text>
</g>
<!-- Node12 -->
<g id="Node000012" class="node">
<title>Node12</title>
<g id="a_Node000012"><a xlink:title=" ">
<polygon fill="white" stroke="none" points="641.5,-957.5 560.5,-957.5 560.5,-908.5 641.5,-908.5 641.5,-957.5"/>
<text text-anchor="start" x="565.38" y="-944" font-family="Helvetica,sans-Serif" font-size="10.00">std::map&lt; K, T &gt;</text>
<text text-anchor="start" x="599.5" y="-929" font-family="Helvetica,sans-Serif" font-size="10.00"> </text>
<text text-anchor="start" x="599.5" y="-914" font-family="Helvetica,sans-Serif" font-size="10.00"> </text>
<polygon fill="#666666" stroke="#666666" points="560.5,-940.5 560.5,-940.5 641.5,-940.5 641.5,-940.5 560.5,-940.5"/>
<polygon fill="#666666" stroke="#666666" points="560.5,-925.5 560.5,-925.5 641.5,-925.5 641.5,-925.5 560.5,-925.5"/>
<polygon fill="none" stroke="#666666" points="560.5,-908.5 560.5,-957.5 641.5,-957.5 641.5,-908.5 560.5,-908.5"/>
</a>
</g>
</g>
<!-- Node10&#45;&gt;Node12 -->
<g id="edge15_Node000012_Node000010" class="edge">
<title>Node10&#45;&gt;Node12</title>
<g id="a_edge15_Node000012_Node000010"><a xlink:title=" ">
<path fill="none" stroke="#63b8ff" d="M525.96,-1100.13C539.54,-1070.06 567.44,-1008.29 585.13,-969.13"/>
<polygon fill="none" stroke="#63b8ff" points="585.18,-969.03 584,-961.92 590.11,-958.1 591.29,-965.21 585.18,-969.03"/>
</a>
</g>
<text text-anchor="middle" x="566" y="-1061.25" font-family="Helvetica,sans-Serif" font-size="10.00" fill="grey"> +elements</text>
</g>
<!-- Node11&#45;&gt;Node1 -->
<g id="edge11_Node000001_Node000011" class="edge">
<title>Node11&#45;&gt;Node1</title>
<g id="a_edge11_Node000001_Node000011"><a xlink:title=" ">
<path fill="none" stroke="#63b8ff" d="M685.74,-624.2C688.54,-564.05 690.63,-420.47 656,-307 652.23,-294.66 647.48,-282.23 642.11,-270"/>
<polygon fill="none" stroke="#63b8ff" points="642.15,-270.09 636.02,-266.29 637.17,-259.17 643.3,-262.97 642.15,-270.09"/>
</a>
</g>
<text text-anchor="middle" x="716.25" y="-391.12" font-family="Helvetica,sans-Serif" font-size="10.00" fill="grey"> &#45;defaultValues</text>
</g>
<!-- Node12&#45;&gt;Node11 -->
<g id="edge13_Node000011_Node000012" class="edge">
<title>Node12&#45;&gt;Node11</title>
<g id="a_edge13_Node000011_Node000012"><a xlink:title=" ">
<path fill="none" stroke="orange" d="M620.18,-898.87C633.63,-874.18 650.94,-839.22 661,-806.5 673.8,-764.86 679.63,-714.51 682.17,-683.56"/>
<polygon fill="orange" stroke="orange" points="617.2,-897.02 615.41,-907.47 623.32,-900.42 617.2,-897.02"/>
</a>
</g>
<text text-anchor="middle" x="710.25" y="-797" font-family="Helvetica,sans-Serif" font-size="10.00" fill="grey"> &lt; std::string, double &gt;</text>
</g>
<!-- Node12&#45;&gt;Node14 -->
<g id="edge18_Node000014_Node000012" class="edge">
<title>Node12&#45;&gt;Node14</title>
<g id="a_edge18_Node000014_Node000012"><a xlink:title=" ">
<path fill="none" stroke="orange" d="M596.4,-897.7C593.04,-872.48 588.41,-837.37 584.5,-806.5 579.08,-763.71 573.09,-714.1 569.43,-683.57"/>
<polygon fill="orange" stroke="orange" points="592.9,-897.93 597.69,-907.38 599.84,-897 592.9,-897.93"/>
</a>
</g>
<text text-anchor="middle" x="622.25" y="-797" font-family="Helvetica,sans-Serif" font-size="10.00" fill="grey"> &lt; std::string, int &gt;</text>
</g>
<!-- Node13 -->
<g id="Node000013" class="node">
<title>Node13</title>
<g id="a_Node000013"><a xlink:title=" ">
<polygon fill="white" stroke="none" points="614,-1143.25 598,-1143.25 598,-1094.25 614,-1094.25 614,-1143.25"/>
<text text-anchor="start" x="602.62" y="-1129.75" font-family="Helvetica,sans-Serif" font-size="10.00">K</text>
<text text-anchor="start" x="604.5" y="-1114.75" font-family="Helvetica,sans-Serif" font-size="10.00"> </text>
<text text-anchor="start" x="604.5" y="-1099.75" font-family="Helvetica,sans-Serif" font-size="10.00"> </text>
<polygon fill="#666666" stroke="#666666" points="598,-1126.25 598,-1126.25 614,-1126.25 614,-1126.25 598,-1126.25"/>
<polygon fill="#666666" stroke="#666666" points="598,-1111.25 598,-1111.25 614,-1111.25 614,-1111.25 598,-1111.25"/>
<polygon fill="none" stroke="#666666" points="598,-1094.25 598,-1143.25 614,-1143.25 614,-1094.25 598,-1094.25"/>
</a>
</g>
</g>
<!-- Node13&#45;&gt;Node12 -->
<g id="edge14_Node000012_Node000013" class="edge">
<title>Node13&#45;&gt;Node12</title>
<g id="a_edge14_Node000012_Node000013"><a xlink:title=" ">
<path fill="none" stroke="#63b8ff" d="M605.37,-1094.48C604.51,-1063.08 602.98,-1006.86 601.98,-970"/>
<polygon fill="none" stroke="#63b8ff" points="601.99,-970.27 597.83,-964.38 601.66,-958.27 605.82,-964.16 601.99,-970.27"/>
</a>
</g>
<text text-anchor="middle" x="618.25" y="-1061.25" font-family="Helvetica,sans-Serif" font-size="10.00" fill="grey"> +keys</text>
</g>
<!-- Node14&#45;&gt;Node1 -->
<g id="edge16_Node000001_Node000014" class="edge">
<title>Node14&#45;&gt;Node1</title>
<g id="a_edge16_Node000001_Node000014"><a xlink:title=" ">
<path fill="none" stroke="#63b8ff" d="M565.66,-623.86C564.92,-559.72 563.09,-401.73 561.7,-282.79"/>
<polygon fill="none" stroke="#63b8ff" points="561.71,-282.85 557.64,-276.89 561.57,-270.85 565.64,-276.8 561.71,-282.85"/>
</a>
</g>
<text text-anchor="middle" x="607.88" y="-391.12" font-family="Helvetica,sans-Serif" font-size="10.00" fill="grey"> &#45;defaultUsageWaits</text>
</g>
</g>
</svg>
