<?xml version="1.0" encoding="UTF-8" standalone="no"?>
<!DOCTYPE svg PUBLIC "-//W3C//DTD SVG 1.1//EN"
 "http://www.w3.org/Graphics/SVG/1.1/DTD/svg11.dtd">
<!-- Generated by graphviz version 2.44.0 ()
 -->
<!-- Title: models::bmi::AbstractCLibBmiAdapter&lt; C &gt; Pages: 1 -->
<svg width="788pt" height="1624pt"
 viewBox="0.00 0.00 787.50 1624.00" xmlns="http://www.w3.org/2000/svg" xmlns:xlink="http://www.w3.org/1999/xlink">
<g id="graph0" class="graph" transform="scale(1 1) rotate(0) translate(4 1620)">
<title>models::bmi::AbstractCLibBmiAdapter&lt; C &gt;</title>
<polygon fill="white" stroke="transparent" points="-4,4 -4,-1620 783.5,-1620 783.5,4 -4,4"/>
<!-- Node1 -->
<g id="node1" class="node">
<title>Node1</title>
<g id="a_node1"><a xlink:title=" ">
<polygon fill="#bfbfbf" stroke="black" points="582.5,-0.5 582.5,-178.5 726.5,-178.5 726.5,-0.5 582.5,-0.5"/>
<text text-anchor="start" x="590.5" y="-166.5" font-family="Helvetica,sans-Serif" font-size="10.00">models::bmi::AbstractCLib</text>
<text text-anchor="middle" x="654.5" y="-155.5" font-family="Helvetica,sans-Serif" font-size="10.00">BmiAdapter&lt; C &gt;</text>
<polyline fill="none" stroke="black" points="582.5,-148.5 726.5,-148.5 "/>
<text text-anchor="start" x="590.5" y="-136.5" font-family="Helvetica,sans-Serif" font-size="10.00">&#45; dyn_lib_handle</text>
<polyline fill="none" stroke="black" points="582.5,-129.5 726.5,-129.5 "/>
<text text-anchor="start" x="590.5" y="-117.5" font-family="Helvetica,sans-Serif" font-size="10.00">+ AbstractCLibBmiAdapter()</text>
<text text-anchor="start" x="590.5" y="-106.5" font-family="Helvetica,sans-Serif" font-size="10.00">+ AbstractCLibBmiAdapter()</text>
<text text-anchor="start" x="590.5" y="-95.5" font-family="Helvetica,sans-Serif" font-size="10.00">+ ~AbstractCLibBmiAdapter()</text>
<text text-anchor="start" x="590.5" y="-84.5" font-family="Helvetica,sans-Serif" font-size="10.00">+ Finalize()</text>
<text text-anchor="start" x="590.5" y="-73.5" font-family="Helvetica,sans-Serif" font-size="10.00"># dynamic_library_load()</text>
<text text-anchor="start" x="590.5" y="-62.5" font-family="Helvetica,sans-Serif" font-size="10.00"># dynamic_load_symbol()</text>
<text text-anchor="start" x="590.5" y="-51.5" font-family="Helvetica,sans-Serif" font-size="10.00"># dynamic_load_symbol()</text>
<text text-anchor="start" x="590.5" y="-40.5" font-family="Helvetica,sans-Serif" font-size="10.00"># get_bmi_registration</text>
<text text-anchor="start" x="590.5" y="-29.5" font-family="Helvetica,sans-Serif" font-size="10.00">_function()</text>
<text text-anchor="start" x="590.5" y="-18.5" font-family="Helvetica,sans-Serif" font-size="10.00"># get_dyn_lib_handle()</text>
<text text-anchor="start" x="590.5" y="-7.5" font-family="Helvetica,sans-Serif" font-size="10.00">&#45; finalizeForLibAbstraction()</text>
</a>
</g>
</g>
<!-- Node2 -->
<g id="node2" class="node">
<title>Node2</title>
<g id="a_node2"><a xlink:href="classmodels_1_1bmi_1_1_bmi___adapter.html" target="_top" xlink:title=" ">
<polygon fill="white" stroke="black" points="526.5,-216.5 526.5,-603.5 678.5,-603.5 678.5,-216.5 526.5,-216.5"/>
<text text-anchor="middle" x="602.5" y="-591.5" font-family="Helvetica,sans-Serif" font-size="10.00">models::bmi::Bmi_Adapter&lt; C &gt;</text>
<polyline fill="none" stroke="black" points="526.5,-584.5 678.5,-584.5 "/>
<text text-anchor="start" x="534.5" y="-572.5" font-family="Helvetica,sans-Serif" font-size="10.00"># allow_model_exceed</text>
<text text-anchor="start" x="534.5" y="-561.5" font-family="Helvetica,sans-Serif" font-size="10.00">_end_time</text>
<text text-anchor="start" x="534.5" y="-550.5" font-family="Helvetica,sans-Serif" font-size="10.00"># bmi_init_config</text>
<text text-anchor="start" x="534.5" y="-539.5" font-family="Helvetica,sans-Serif" font-size="10.00"># bmi_model</text>
<text text-anchor="start" x="534.5" y="-528.5" font-family="Helvetica,sans-Serif" font-size="10.00"># bmi_model_has_fixed</text>
<text text-anchor="start" x="534.5" y="-517.5" font-family="Helvetica,sans-Serif" font-size="10.00">_time_step</text>
<text text-anchor="start" x="534.5" y="-506.5" font-family="Helvetica,sans-Serif" font-size="10.00"># bmi_model_time_convert</text>
<text text-anchor="start" x="534.5" y="-495.5" font-family="Helvetica,sans-Serif" font-size="10.00">_factor</text>
<text text-anchor="start" x="534.5" y="-484.5" font-family="Helvetica,sans-Serif" font-size="10.00"># bmi_model_time_step_size</text>
<text text-anchor="start" x="534.5" y="-473.5" font-family="Helvetica,sans-Serif" font-size="10.00"># bmi_model_uses_forcing_file</text>
<text text-anchor="start" x="534.5" y="-462.5" font-family="Helvetica,sans-Serif" font-size="10.00"># forcing_file_path</text>
<text text-anchor="start" x="534.5" y="-451.5" font-family="Helvetica,sans-Serif" font-size="10.00"># init_exception_msg</text>
<text text-anchor="start" x="534.5" y="-440.5" font-family="Helvetica,sans-Serif" font-size="10.00"># input_var_names</text>
<text text-anchor="start" x="534.5" y="-429.5" font-family="Helvetica,sans-Serif" font-size="10.00"># model_initialized</text>
<text text-anchor="start" x="534.5" y="-418.5" font-family="Helvetica,sans-Serif" font-size="10.00"># model_name</text>
<text text-anchor="start" x="534.5" y="-407.5" font-family="Helvetica,sans-Serif" font-size="10.00"># output</text>
<text text-anchor="start" x="534.5" y="-396.5" font-family="Helvetica,sans-Serif" font-size="10.00"># output_var_names</text>
<polyline fill="none" stroke="black" points="526.5,-389.5 678.5,-389.5 "/>
<text text-anchor="start" x="534.5" y="-377.5" font-family="Helvetica,sans-Serif" font-size="10.00">+ Bmi_Adapter()</text>
<text text-anchor="start" x="534.5" y="-366.5" font-family="Helvetica,sans-Serif" font-size="10.00">+ Bmi_Adapter()</text>
<text text-anchor="start" x="534.5" y="-355.5" font-family="Helvetica,sans-Serif" font-size="10.00">+ Bmi_Adapter()</text>
<text text-anchor="start" x="534.5" y="-344.5" font-family="Helvetica,sans-Serif" font-size="10.00">+ acquire_time_conversion</text>
<text text-anchor="start" x="534.5" y="-333.5" font-family="Helvetica,sans-Serif" font-size="10.00">_factor()</text>
<text text-anchor="start" x="534.5" y="-322.5" font-family="Helvetica,sans-Serif" font-size="10.00">+ convert_model_time</text>
<text text-anchor="start" x="534.5" y="-311.5" font-family="Helvetica,sans-Serif" font-size="10.00">_to_seconds()</text>
<text text-anchor="start" x="534.5" y="-300.5" font-family="Helvetica,sans-Serif" font-size="10.00">+ convert_seconds_to</text>
<text text-anchor="start" x="534.5" y="-289.5" font-family="Helvetica,sans-Serif" font-size="10.00">_model_time()</text>
<text text-anchor="start" x="534.5" y="-278.5" font-family="Helvetica,sans-Serif" font-size="10.00">+ get_analogous_cxx_type()</text>
<text text-anchor="start" x="534.5" y="-267.5" font-family="Helvetica,sans-Serif" font-size="10.00">+ Initialize()</text>
<text text-anchor="start" x="534.5" y="-256.5" font-family="Helvetica,sans-Serif" font-size="10.00">+ Initialize()</text>
<text text-anchor="start" x="534.5" y="-245.5" font-family="Helvetica,sans-Serif" font-size="10.00">+ isInitialized()</text>
<text text-anchor="start" x="534.5" y="-234.5" font-family="Helvetica,sans-Serif" font-size="10.00"># construct_and_init</text>
<text text-anchor="start" x="534.5" y="-223.5" font-family="Helvetica,sans-Serif" font-size="10.00">_backing_model()</text>
</a>
</g>
</g>
<!-- Node2&#45;&gt;Node1 -->
<g id="edge1" class="edge">
<title>Node2&#45;&gt;Node1</title>
<path fill="none" stroke="midnightblue" d="M635.57,-206.42C637.12,-196.93 638.64,-187.66 640.09,-178.76"/>
<polygon fill="none" stroke="midnightblue" points="632.11,-205.95 633.95,-216.38 639.01,-207.07 632.11,-205.95"/>
</g>
<!-- Node3 -->
<g id="node3" class="node">
<title>Node3</title>
<g id="a_node3"><a xlink:href="classbmi_1_1_bmi.html" target="_top" xlink:title=" ">
<polygon fill="white" stroke="black" points="556.5,-998.5 556.5,-1220.5 678.5,-1220.5 678.5,-998.5 556.5,-998.5"/>
<text text-anchor="middle" x="617.5" y="-1208.5" font-family="Helvetica,sans-Serif" font-size="10.00">bmi::Bmi</text>
<polyline fill="none" stroke="black" points="556.5,-1201.5 678.5,-1201.5 "/>
<text text-anchor="middle" x="617.5" y="-1189.5" font-family="Helvetica,sans-Serif" font-size="10.00"> </text>
<polyline fill="none" stroke="black" points="556.5,-1182.5 678.5,-1182.5 "/>
<text text-anchor="start" x="564.5" y="-1170.5" font-family="Helvetica,sans-Serif" font-size="10.00">+ Initialize()</text>
<text text-anchor="start" x="564.5" y="-1159.5" font-family="Helvetica,sans-Serif" font-size="10.00">+ Update()</text>
<text text-anchor="start" x="564.5" y="-1148.5" font-family="Helvetica,sans-Serif" font-size="10.00">+ UpdateUntil()</text>
<text text-anchor="start" x="564.5" y="-1137.5" font-family="Helvetica,sans-Serif" font-size="10.00">+ Finalize()</text>
<text text-anchor="start" x="564.5" y="-1126.5" font-family="Helvetica,sans-Serif" font-size="10.00">+ GetComponentName()</text>
<text text-anchor="start" x="564.5" y="-1115.5" font-family="Helvetica,sans-Serif" font-size="10.00">+ GetInputItemCount()</text>
<text text-anchor="start" x="564.5" y="-1104.5" font-family="Helvetica,sans-Serif" font-size="10.00">+ GetOutputItemCount()</text>
<text text-anchor="start" x="564.5" y="-1093.5" font-family="Helvetica,sans-Serif" font-size="10.00">+ GetInputVarNames()</text>
<text text-anchor="start" x="564.5" y="-1082.5" font-family="Helvetica,sans-Serif" font-size="10.00">+ GetOutputVarNames()</text>
<text text-anchor="start" x="564.5" y="-1071.5" font-family="Helvetica,sans-Serif" font-size="10.00">+ GetVarGrid()</text>
<text text-anchor="start" x="564.5" y="-1060.5" font-family="Helvetica,sans-Serif" font-size="10.00">+ GetVarType()</text>
<text text-anchor="start" x="564.5" y="-1049.5" font-family="Helvetica,sans-Serif" font-size="10.00">+ GetVarUnits()</text>
<text text-anchor="start" x="564.5" y="-1038.5" font-family="Helvetica,sans-Serif" font-size="10.00">+ GetVarItemsize()</text>
<text text-anchor="start" x="564.5" y="-1027.5" font-family="Helvetica,sans-Serif" font-size="10.00">+ GetVarNbytes()</text>
<text text-anchor="start" x="564.5" y="-1016.5" font-family="Helvetica,sans-Serif" font-size="10.00">+ GetVarLocation()</text>
<text text-anchor="start" x="564.5" y="-1005.5" font-family="Helvetica,sans-Serif" font-size="10.00">and 26 more...</text>
</a>
</g>
</g>
<!-- Node3&#45;&gt;Node2 -->
<g id="edge2" class="edge">
<title>Node3&#45;&gt;Node2</title>
<path fill="none" stroke="midnightblue" d="M614.91,-988.3C612.64,-882.62 609.29,-726.92 606.65,-603.84"/>
<polygon fill="none" stroke="midnightblue" points="611.42,-988.44 615.13,-998.36 618.42,-988.29 611.42,-988.44"/>
</g>
<!-- Node4 -->
<g id="node4" class="node">
<title>Node4</title>
<g id="a_node4"><a xlink:href="classmodels_1_1bmi_1_1_bmi___adapter.html" target="_top" xlink:title="Abstract adapter interface for C++ classes to interact with the essential aspects of external models ...">
<polygon fill="white" stroke="black" points="329.5,-651.5 329.5,-950.5 481.5,-950.5 481.5,-651.5 329.5,-651.5"/>
<text text-anchor="middle" x="405.5" y="-938.5" font-family="Helvetica,sans-Serif" font-size="10.00">models::bmi::Bmi_Adapter&lt; T &gt;</text>
<polyline fill="none" stroke="black" points="329.5,-931.5 481.5,-931.5 "/>
<text text-anchor="start" x="337.5" y="-919.5" font-family="Helvetica,sans-Serif" font-size="10.00"># allow_model_exceed</text>
<text text-anchor="start" x="337.5" y="-908.5" font-family="Helvetica,sans-Serif" font-size="10.00">_end_time</text>
<text text-anchor="start" x="337.5" y="-897.5" font-family="Helvetica,sans-Serif" font-size="10.00"># bmi_model</text>
<text text-anchor="start" x="337.5" y="-886.5" font-family="Helvetica,sans-Serif" font-size="10.00"># bmi_model_has_fixed</text>
<text text-anchor="start" x="337.5" y="-875.5" font-family="Helvetica,sans-Serif" font-size="10.00">_time_step</text>
<text text-anchor="start" x="337.5" y="-864.5" font-family="Helvetica,sans-Serif" font-size="10.00"># bmi_model_time_convert</text>
<text text-anchor="start" x="337.5" y="-853.5" font-family="Helvetica,sans-Serif" font-size="10.00">_factor</text>
<text text-anchor="start" x="337.5" y="-842.5" font-family="Helvetica,sans-Serif" font-size="10.00"># bmi_model_uses_forcing_file</text>
<text text-anchor="start" x="337.5" y="-831.5" font-family="Helvetica,sans-Serif" font-size="10.00"># model_initialized</text>
<polyline fill="none" stroke="black" points="329.5,-824.5 481.5,-824.5 "/>
<text text-anchor="start" x="337.5" y="-812.5" font-family="Helvetica,sans-Serif" font-size="10.00">+ Bmi_Adapter()</text>
<text text-anchor="start" x="337.5" y="-801.5" font-family="Helvetica,sans-Serif" font-size="10.00">+ Bmi_Adapter()</text>
<text text-anchor="start" x="337.5" y="-790.5" font-family="Helvetica,sans-Serif" font-size="10.00">+ Bmi_Adapter()</text>
<text text-anchor="start" x="337.5" y="-779.5" font-family="Helvetica,sans-Serif" font-size="10.00">+ acquire_time_conversion</text>
<text text-anchor="start" x="337.5" y="-768.5" font-family="Helvetica,sans-Serif" font-size="10.00">_factor()</text>
<text text-anchor="start" x="337.5" y="-757.5" font-family="Helvetica,sans-Serif" font-size="10.00">+ convert_model_time</text>
<text text-anchor="start" x="337.5" y="-746.5" font-family="Helvetica,sans-Serif" font-size="10.00">_to_seconds()</text>
<text text-anchor="start" x="337.5" y="-735.5" font-family="Helvetica,sans-Serif" font-size="10.00">+ convert_seconds_to</text>
<text text-anchor="start" x="337.5" y="-724.5" font-family="Helvetica,sans-Serif" font-size="10.00">_model_time()</text>
<text text-anchor="start" x="337.5" y="-713.5" font-family="Helvetica,sans-Serif" font-size="10.00">+ get_analogous_cxx_type()</text>
<text text-anchor="start" x="337.5" y="-702.5" font-family="Helvetica,sans-Serif" font-size="10.00">+ Initialize()</text>
<text text-anchor="start" x="337.5" y="-691.5" font-family="Helvetica,sans-Serif" font-size="10.00">+ Initialize()</text>
<text text-anchor="start" x="337.5" y="-680.5" font-family="Helvetica,sans-Serif" font-size="10.00">+ isInitialized()</text>
<text text-anchor="start" x="337.5" y="-669.5" font-family="Helvetica,sans-Serif" font-size="10.00"># construct_and_init</text>
<text text-anchor="start" x="337.5" y="-658.5" font-family="Helvetica,sans-Serif" font-size="10.00">_backing_model()</text>
</a>
</g>
</g>
<!-- Node3&#45;&gt;Node4 -->
<g id="edge4" class="edge">
<title>Node3&#45;&gt;Node4</title>
<path fill="none" stroke="midnightblue" d="M550.7,-1009.94C547.94,-1005.9 545.19,-1001.91 542.5,-998 522.89,-969.54 501.55,-938.86 481.68,-910.42"/>
<polygon fill="none" stroke="midnightblue" points="547.87,-1012 556.41,-1018.27 553.65,-1008.05 547.87,-1012"/>
</g>
<!-- Node4&#45;&gt;Node2 -->
<g id="edge3" class="edge">
<title>Node4&#45;&gt;Node2</title>
<path fill="none" stroke="orange" d="M485.39,-642.24C498.94,-615.5 512.96,-587.8 526.41,-561.26"/>
<polygon fill="orange" stroke="orange" points="482.22,-640.77 480.82,-651.27 488.46,-643.93 482.22,-640.77"/>
<text text-anchor="middle" x="505.5" y="-625" font-family="Helvetica,sans-Serif" font-size="10.00"> &lt; C &gt;</text>
</g>
<!-- Node5 -->
<g id="node5" class="node">
<title>Node5</title>
<g id="a_node5"><a xlink:href="classutils_1_1_stream_handler.html" target="_top" xlink:title="This class provides a copyable interface to a std::ostream or std::ostream like object that may not s...">
<polygon fill="white" stroke="black" points="309.5,-1031.5 309.5,-1187.5 413.5,-1187.5 413.5,-1031.5 309.5,-1031.5"/>
<text text-anchor="middle" x="361.5" y="-1175.5" font-family="Helvetica,sans-Serif" font-size="10.00">utils::StreamHandler</text>
<polyline fill="none" stroke="black" points="309.5,-1168.5 413.5,-1168.5 "/>
<text text-anchor="middle" x="361.5" y="-1156.5" font-family="Helvetica,sans-Serif" font-size="10.00"> </text>
<polyline fill="none" stroke="black" points="309.5,-1149.5 413.5,-1149.5 "/>
<text text-anchor="start" x="317.5" y="-1137.5" font-family="Helvetica,sans-Serif" font-size="10.00">+ StreamHandler()</text>
<text text-anchor="start" x="317.5" y="-1126.5" font-family="Helvetica,sans-Serif" font-size="10.00">+ StreamHandler()</text>
<text text-anchor="start" x="317.5" y="-1115.5" font-family="Helvetica,sans-Serif" font-size="10.00">+ StreamHandler()</text>
<text text-anchor="start" x="317.5" y="-1104.5" font-family="Helvetica,sans-Serif" font-size="10.00">+ StreamHandler()</text>
<text text-anchor="start" x="317.5" y="-1093.5" font-family="Helvetica,sans-Serif" font-size="10.00">+ ~StreamHandler()</text>
<text text-anchor="start" x="317.5" y="-1082.5" font-family="Helvetica,sans-Serif" font-size="10.00">+ operator=()</text>
<text text-anchor="start" x="317.5" y="-1071.5" font-family="Helvetica,sans-Serif" font-size="10.00">+ put()</text>
<text text-anchor="start" x="317.5" y="-1060.5" font-family="Helvetica,sans-Serif" font-size="10.00">+ put_indexed()</text>
<text text-anchor="start" x="317.5" y="-1049.5" font-family="Helvetica,sans-Serif" font-size="10.00">+ put_var()</text>
<text text-anchor="start" x="317.5" y="-1038.5" font-family="Helvetica,sans-Serif" font-size="10.00">+ operator&lt;&lt;()</text>
</a>
</g>
</g>
<!-- Node5&#45;&gt;Node4 -->
<g id="edge5" class="edge">
<title>Node5&#45;&gt;Node4</title>
<path fill="none" stroke="#404040" d="M372.6,-1031.16C375.62,-1010.15 379,-986.59 382.42,-962.79"/>
<polygon fill="none" stroke="#404040" points="382.45,-962.59 379.34,-956.08 384.15,-950.71 387.26,-957.22 382.45,-962.59"/>
<text text-anchor="middle" x="399" y="-972" font-family="Helvetica,sans-Serif" font-size="10.00"> #output</text>
</g>
<!-- Node6 -->
<g id="node6" class="node">
<title>Node6</title>
<g id="a_node6"><a xlink:title=" ">
<polygon fill="white" stroke="#bfbfbf" points="265.5,-1326.5 265.5,-1394.5 367.5,-1394.5 367.5,-1326.5 265.5,-1326.5"/>
<text text-anchor="start" x="273.5" y="-1382.5" font-family="Helvetica,sans-Serif" font-size="10.00">std::shared_ptr&lt; std</text>
<text text-anchor="middle" x="316.5" y="-1371.5" font-family="Helvetica,sans-Serif" font-size="10.00">::ostream &gt;</text>
<polyline fill="none" stroke="#bfbfbf" points="265.5,-1364.5 367.5,-1364.5 "/>
<text text-anchor="start" x="273.5" y="-1352.5" font-family="Helvetica,sans-Serif" font-size="10.00">+ ptr</text>
<polyline fill="none" stroke="#bfbfbf" points="265.5,-1345.5 367.5,-1345.5 "/>
<text text-anchor="start" x="273.5" y="-1333.5" font-family="Helvetica,sans-Serif" font-size="10.00">+ operator&#45;&gt;()</text>
</a>
</g>
</g>
<!-- Node6&#45;&gt;Node5 -->
<g id="edge6" class="edge">
<title>Node6&#45;&gt;Node5</title>
<path fill="none" stroke="#404040" d="M314.34,-1326.26C313.41,-1301.92 313.5,-1268.18 318.5,-1239 320.74,-1225.91 324.09,-1212.34 327.94,-1199.14"/>
<polygon fill="none" stroke="#404040" points="327.94,-1199.14 325.87,-1192.24 331.44,-1187.66 333.52,-1194.57 327.94,-1199.14"/>
<text text-anchor="middle" x="353.5" y="-1271" font-family="Helvetica,sans-Serif" font-size="10.00"> #output_stream</text>
</g>
<!-- Node7 -->
<g id="node7" class="node">
<title>Node7</title>
<g id="a_node7"><a xlink:title=" ">
<polygon fill="white" stroke="#bfbfbf" points="154,-1448 154,-1505 257,-1505 257,-1448 154,-1448"/>
<text text-anchor="middle" x="205.5" y="-1493" font-family="Helvetica,sans-Serif" font-size="10.00">std::shared_ptr&lt; T &gt;</text>
<polyline fill="none" stroke="#bfbfbf" points="154,-1486 257,-1486 "/>
<text text-anchor="middle" x="205.5" y="-1474" font-family="Helvetica,sans-Serif" font-size="10.00"> </text>
<polyline fill="none" stroke="#bfbfbf" points="154,-1467 257,-1467 "/>
<text text-anchor="start" x="162" y="-1455" font-family="Helvetica,sans-Serif" font-size="10.00">+ operator&#45;&gt;()</text>
</a>
</g>
</g>
<!-- Node7&#45;&gt;Node6 -->
<g id="edge7" class="edge">
<title>Node7&#45;&gt;Node6</title>
<path fill="none" stroke="orange" d="M265.8,-1448.51C276.42,-1441.7 286.59,-1433.54 294.5,-1424 301.48,-1415.59 306.3,-1404.81 309.62,-1394.59"/>
<polygon fill="orange" stroke="orange" points="263.97,-1445.53 257.22,-1453.7 267.59,-1451.52 263.97,-1445.53"/>
<text text-anchor="middle" x="339" y="-1416" font-family="Helvetica,sans-Serif" font-size="10.00"> &lt; std::ostream &gt;</text>
</g>
<!-- Node11 -->
<g id="node11" class="node">
<title>Node11</title>
<g id="a_node11"><a xlink:title=" ">
<polygon fill="white" stroke="#bfbfbf" points="0,-1245 0,-1302 125,-1302 125,-1245 0,-1245"/>
<text text-anchor="middle" x="62.5" y="-1290" font-family="Helvetica,sans-Serif" font-size="10.00">std::shared_ptr&lt; double &gt;</text>
<polyline fill="none" stroke="#bfbfbf" points="0,-1283 125,-1283 "/>
<text text-anchor="start" x="8" y="-1271" font-family="Helvetica,sans-Serif" font-size="10.00">+ ptr</text>
<polyline fill="none" stroke="#bfbfbf" points="0,-1264 125,-1264 "/>
<text text-anchor="start" x="8" y="-1252" font-family="Helvetica,sans-Serif" font-size="10.00">+ operator&#45;&gt;()</text>
</a>
</g>
</g>
<!-- Node7&#45;&gt;Node11 -->
<g id="edge13" class="edge">
<title>Node7&#45;&gt;Node11</title>
<path fill="none" stroke="orange" d="M166.51,-1440.81C161.22,-1435.4 156.05,-1429.71 151.5,-1424 120.15,-1384.67 91.93,-1333.26 76.03,-1302.12"/>
<polygon fill="orange" stroke="orange" points="164.18,-1443.43 173.75,-1447.98 169.11,-1438.46 164.18,-1443.43"/>
<text text-anchor="middle" x="175.5" y="-1416" font-family="Helvetica,sans-Serif" font-size="10.00"> &lt; double &gt;</text>
</g>
<!-- Node12 -->
<g id="node12" class="node">
<title>Node12</title>
<g id="a_node12"><a xlink:title=" ">
<polygon fill="white" stroke="#bfbfbf" points="147.5,-1239.5 147.5,-1307.5 263.5,-1307.5 263.5,-1239.5 147.5,-1239.5"/>
<text text-anchor="start" x="155.5" y="-1295.5" font-family="Helvetica,sans-Serif" font-size="10.00">std::shared_ptr&lt; vector</text>
<text text-anchor="middle" x="205.5" y="-1284.5" font-family="Helvetica,sans-Serif" font-size="10.00">&lt; string &gt; &gt;</text>
<polyline fill="none" stroke="#bfbfbf" points="147.5,-1277.5 263.5,-1277.5 "/>
<text text-anchor="start" x="155.5" y="-1265.5" font-family="Helvetica,sans-Serif" font-size="10.00">+ ptr</text>
<polyline fill="none" stroke="#bfbfbf" points="147.5,-1258.5 263.5,-1258.5 "/>
<text text-anchor="start" x="155.5" y="-1246.5" font-family="Helvetica,sans-Serif" font-size="10.00">+ operator&#45;&gt;()</text>
</a>
</g>
</g>
<!-- Node7&#45;&gt;Node12 -->
<g id="edge15" class="edge">
<title>Node7&#45;&gt;Node12</title>
<path fill="none" stroke="orange" d="M203.87,-1437.9C203.72,-1433.22 203.59,-1428.5 203.5,-1424 202.72,-1384.03 203.61,-1338.05 204.43,-1307.75"/>
<polygon fill="orange" stroke="orange" points="200.38,-1438.11 204.23,-1447.98 207.37,-1437.86 200.38,-1438.11"/>
<text text-anchor="middle" x="247" y="-1416" font-family="Helvetica,sans-Serif" font-size="10.00"> &lt; vector&lt; string &gt; &gt;</text>
</g>
<!-- Node8 -->
<g id="node8" class="node">
<title>Node8</title>
<g id="a_node8"><a xlink:title=" ">
<polygon fill="white" stroke="#bfbfbf" points="191,-1558.5 191,-1615.5 220,-1615.5 220,-1558.5 191,-1558.5"/>
<text text-anchor="middle" x="205.5" y="-1603.5" font-family="Helvetica,sans-Serif" font-size="10.00">T</text>
<polyline fill="none" stroke="#bfbfbf" points="191,-1596.5 220,-1596.5 "/>
<text text-anchor="middle" x="205.5" y="-1584.5" font-family="Helvetica,sans-Serif" font-size="10.00"> </text>
<polyline fill="none" stroke="#bfbfbf" points="191,-1577.5 220,-1577.5 "/>
<text text-anchor="middle" x="205.5" y="-1565.5" font-family="Helvetica,sans-Serif" font-size="10.00"> </text>
</a>
</g>
</g>
<!-- Node8&#45;&gt;Node7 -->
<g id="edge8" class="edge">
<title>Node8&#45;&gt;Node7</title>
<path fill="none" stroke="#404040" d="M205.5,-1558.34C205.5,-1545.84 205.5,-1530.84 205.5,-1517.18"/>
<polygon fill="none" stroke="#404040" points="205.5,-1517.11 201.5,-1511.11 205.5,-1505.11 209.5,-1511.11 205.5,-1517.11"/>
<text text-anchor="middle" x="215.5" y="-1532" font-family="Helvetica,sans-Serif" font-size="10.00"> +ptr</text>
</g>
<!-- Node9 -->
<g id="node9" class="node">
<title>Node9</title>
<g id="a_node9"><a xlink:title=" ">
<polygon fill="white" stroke="#bfbfbf" points="420,-1332 420,-1389 479,-1389 479,-1332 420,-1332"/>
<text text-anchor="middle" x="449.5" y="-1377" font-family="Helvetica,sans-Serif" font-size="10.00">std::string</text>
<polyline fill="none" stroke="#bfbfbf" points="420,-1370 479,-1370 "/>
<text text-anchor="middle" x="449.5" y="-1358" font-family="Helvetica,sans-Serif" font-size="10.00"> </text>
<polyline fill="none" stroke="#bfbfbf" points="420,-1351 479,-1351 "/>
<text text-anchor="middle" x="449.5" y="-1339" font-family="Helvetica,sans-Serif" font-size="10.00"> </text>
</a>
</g>
</g>
<!-- Node9&#45;&gt;Node1 -->
<g id="edge16" class="edge">
<title>Node9&#45;&gt;Node1</title>
<path fill="none" stroke="#404040" d="M479.28,-1351.26C530.8,-1335.34 635.96,-1295.21 687.5,-1221 715.93,-1180.07 706.5,-1160.33 706.5,-1110.5 706.5,-1110.5 706.5,-1110.5 706.5,-409 706.5,-322.81 702.73,-300.84 687.5,-216 685.99,-207.62 684.21,-198.97 682.27,-190.32"/>
<polygon fill="none" stroke="#404040" points="682.25,-190.24 677,-185.31 679.54,-178.56 684.79,-183.49 682.25,-190.24"/>
<text text-anchor="middle" x="743" y="-809.5" font-family="Helvetica,sans-Serif" font-size="10.00"> &#45;bmi_lib_file</text>
<text text-anchor="start" x="706.5" y="-798.5" font-family="Helvetica,sans-Serif" font-size="10.00">&#45;bmi_registration</text>
<text text-anchor="middle" x="743" y="-787.5" font-family="Helvetica,sans-Serif" font-size="10.00">_function</text>
</g>
<!-- Node9&#45;&gt;Node4 -->
<g id="edge11" class="edge">
<title>Node9&#45;&gt;Node4</title>
<path fill="none" stroke="#404040" d="M447.57,-1331.55C443.12,-1267.44 431.64,-1104.85 420.5,-969 420.33,-966.96 420.16,-964.9 419.99,-962.83"/>
<polygon fill="none" stroke="#404040" points="419.99,-962.82 415.5,-957.17 418.99,-950.86 423.48,-956.5 419.99,-962.82"/>
<text text-anchor="middle" x="485" y="-1123.5" font-family="Helvetica,sans-Serif" font-size="10.00"> #bmi_init_config</text>
<text text-anchor="middle" x="485" y="-1112.5" font-family="Helvetica,sans-Serif" font-size="10.00">#forcing_file_path</text>
<text text-anchor="middle" x="485" y="-1101.5" font-family="Helvetica,sans-Serif" font-size="10.00">#init_exception_msg</text>
<text text-anchor="middle" x="485" y="-1090.5" font-family="Helvetica,sans-Serif" font-size="10.00">#model_name</text>
</g>
<!-- Node9&#45;&gt;Node5 -->
<g id="edge9" class="edge">
<title>Node9&#45;&gt;Node5</title>
<path fill="none" stroke="#404040" d="M426.1,-1331.88C420.69,-1324.48 415.4,-1316.24 411.5,-1308 402.24,-1288.42 390.39,-1242.36 380.56,-1199.65"/>
<polygon fill="none" stroke="#404040" points="380.5,-1199.42 375.27,-1194.45 377.84,-1187.72 383.07,-1192.68 380.5,-1199.42"/>
<text text-anchor="middle" x="423.5" y="-1271" font-family="Helvetica,sans-Serif" font-size="10.00"> #sep</text>
</g>
<!-- Node10 -->
<g id="node10" class="node">
<title>Node10</title>
<g id="a_node10"><a xlink:title=" ">
<polygon fill="white" stroke="#bfbfbf" points="403,-1442.5 403,-1510.5 496,-1510.5 496,-1442.5 403,-1442.5"/>
<text text-anchor="start" x="411" y="-1498.5" font-family="Helvetica,sans-Serif" font-size="10.00">std::basic_string&lt;</text>
<text text-anchor="middle" x="449.5" y="-1487.5" font-family="Helvetica,sans-Serif" font-size="10.00"> Char &gt;</text>
<polyline fill="none" stroke="#bfbfbf" points="403,-1480.5 496,-1480.5 "/>
<text text-anchor="middle" x="449.5" y="-1468.5" font-family="Helvetica,sans-Serif" font-size="10.00"> </text>
<polyline fill="none" stroke="#bfbfbf" points="403,-1461.5 496,-1461.5 "/>
<text text-anchor="middle" x="449.5" y="-1449.5" font-family="Helvetica,sans-Serif" font-size="10.00"> </text>
</a>
</g>
</g>
<!-- Node10&#45;&gt;Node9 -->
<g id="edge10" class="edge">
<title>Node10&#45;&gt;Node9</title>
<path fill="none" stroke="midnightblue" d="M449.5,-1432.03C449.5,-1417.67 449.5,-1402.1 449.5,-1389.24"/>
<polygon fill="none" stroke="midnightblue" points="446,-1432.22 449.5,-1442.22 453,-1432.22 446,-1432.22"/>
</g>
<!-- Node11&#45;&gt;Node4 -->
<g id="edge12" class="edge">
<title>Node11&#45;&gt;Node4</title>
<path fill="none" stroke="#404040" d="M53.84,-1244.85C39.2,-1192.56 15.4,-1077.32 61.5,-998 116.28,-903.73 235.24,-851.04 317.82,-824.59"/>
<polygon fill="none" stroke="#404040" points="318.02,-824.52 322.56,-818.92 329.47,-820.95 324.94,-826.55 318.02,-824.52"/>
<text text-anchor="middle" x="124.5" y="-1107" font-family="Helvetica,sans-Serif" font-size="10.00"> #bmi_model_time_step_size</text>
</g>
<!-- Node12&#45;&gt;Node4 -->
<g id="edge14" class="edge">
<title>Node12&#45;&gt;Node4</title>
<path fill="none" stroke="#404040" d="M199.15,-1239.16C190.57,-1185.79 180.03,-1078.94 214.5,-998 236.87,-945.48 280.31,-899.09 320.11,-864.64"/>
<polygon fill="none" stroke="#404040" points="320.19,-864.58 322.18,-857.64 329.34,-856.81 327.35,-863.74 320.19,-864.58"/>
<text text-anchor="middle" x="257.5" y="-1112.5" font-family="Helvetica,sans-Serif" font-size="10.00"> #input_var_names</text>
<text text-anchor="middle" x="257.5" y="-1101.5" font-family="Helvetica,sans-Serif" font-size="10.00">#output_var_names</text>
</g>
</g>
</svg>
