<?xml version="1.0" encoding="UTF-8" standalone="no"?>
<!DOCTYPE svg PUBLIC "-//W3C//DTD SVG 1.1//EN"
 "http://www.w3.org/Graphics/SVG/1.1/DTD/svg11.dtd">
<!-- Generated by graphviz version 3.0.0 (20221109.1736)
 -->
<!-- Title: HY_CatchmentRealization Pages: 1 -->
<svg width="976pt" height="1208pt"
 viewBox="0.00 0.00 975.50 1208.00" xmlns="http://www.w3.org/2000/svg" xmlns:xlink="http://www.w3.org/1999/xlink">
<g id="graph0" class="graph" transform="scale(1 1) rotate(0) translate(4 1204)">
<title>HY_CatchmentRealization</title>
<polygon fill="white" stroke="transparent" points="-4,4 -4,-1204 971.5,-1204 971.5,4 -4,4"/>
<!-- Node1 -->
<g id="node1" class="node">
<title>Node1</title>
<g id="a_node1"><a xlink:title=" ">
<polygon fill="#bfbfbf" stroke="black" points="96.5,-381.5 96.5,-493.5 246.5,-493.5 246.5,-381.5 96.5,-381.5"/>
<text text-anchor="middle" x="171.5" y="-481.5" font-family="Helvetica,sans-Serif" font-size="10.00">HY_CatchmentRealization</text>
<polyline fill="none" stroke="black" points="96.5,-474.5 246.5,-474.5 "/>
<text text-anchor="start" x="104.5" y="-462.5" font-family="Helvetica,sans-Serif" font-size="10.00"># id_number</text>
<polyline fill="none" stroke="black" points="96.5,-455.5 246.5,-455.5 "/>
<text text-anchor="start" x="104.5" y="-443.5" font-family="Helvetica,sans-Serif" font-size="10.00">+ HY_CatchmentRealization()</text>
<text text-anchor="start" x="104.5" y="-432.5" font-family="Helvetica,sans-Serif" font-size="10.00">+ HY_CatchmentRealization()</text>
<text text-anchor="start" x="104.5" y="-421.5" font-family="Helvetica,sans-Serif" font-size="10.00">+ ~HY_CatchmentRealization()</text>
<text text-anchor="start" x="104.5" y="-410.5" font-family="Helvetica,sans-Serif" font-size="10.00">+ get_response()</text>
<text text-anchor="start" x="104.5" y="-399.5" font-family="Helvetica,sans-Serif" font-size="10.00"># get_catchment_id()</text>
<text text-anchor="start" x="104.5" y="-388.5" font-family="Helvetica,sans-Serif" font-size="10.00"># set_catchment_id()</text>
</a>
</g>
</g>
<!-- Node5 -->
<g id="node5" class="node">
<title>Node5</title>
<g id="a_node5"><a xlink:title=" ">
<polygon fill="white" stroke="black" points="307,-265.5 307,-333.5 432,-333.5 432,-265.5 307,-265.5"/>
<text text-anchor="start" x="315" y="-321.5" font-family="Helvetica,sans-Serif" font-size="10.00">std::shared_ptr&lt; HY</text>
<text text-anchor="middle" x="369.5" y="-310.5" font-family="Helvetica,sans-Serif" font-size="10.00">_CatchmentRealization &gt;</text>
<polyline fill="none" stroke="black" points="307,-303.5 432,-303.5 "/>
<text text-anchor="middle" x="369.5" y="-291.5" font-family="Helvetica,sans-Serif" font-size="10.00"> </text>
<polyline fill="none" stroke="black" points="307,-284.5 432,-284.5 "/>
<text text-anchor="start" x="315" y="-272.5" font-family="Helvetica,sans-Serif" font-size="10.00">+ operator&#45;&gt;()</text>
</a>
</g>
</g>
<!-- Node1&#45;&gt;Node5 -->
<g id="edge5" class="edge">
<title>Node1&#45;&gt;Node5</title>
<path fill="none" stroke="#404040" d="M207.07,-381.1C215.75,-370.44 225.68,-360.09 236.5,-352 253.98,-338.92 275.2,-328.74 295.51,-321.02"/>
<polygon fill="none" stroke="#404040" points="295.71,-320.94 300,-315.14 307,-316.86 302.72,-322.66 295.71,-320.94"/>
<text text-anchor="middle" x="246.5" y="-355" font-family="Helvetica,sans-Serif" font-size="10.00"> +ptr</text>
</g>
<!-- Node2 -->
<g id="node2" class="node">
<title>Node2</title>
<g id="a_node2"><a xlink:title=" ">
<polygon fill="white" stroke="black" points="227,-0.5 227,-68.5 330,-68.5 330,-0.5 227,-0.5"/>
<text text-anchor="start" x="235" y="-56.5" font-family="Helvetica,sans-Serif" font-size="10.00">std::shared_ptr&lt; HY</text>
<text text-anchor="middle" x="278.5" y="-45.5" font-family="Helvetica,sans-Serif" font-size="10.00">_Catchment &gt;</text>
<polyline fill="none" stroke="black" points="227,-38.5 330,-38.5 "/>
<text text-anchor="middle" x="278.5" y="-26.5" font-family="Helvetica,sans-Serif" font-size="10.00"> </text>
<polyline fill="none" stroke="black" points="227,-19.5 330,-19.5 "/>
<text text-anchor="start" x="235" y="-7.5" font-family="Helvetica,sans-Serif" font-size="10.00">+ operator&#45;&gt;()</text>
</a>
</g>
</g>
<!-- Node2&#45;&gt;Node1 -->
<g id="edge1" class="edge">
<title>Node2&#45;&gt;Node1</title>
<path fill="none" stroke="#404040" d="M252.89,-68.83C226.84,-105 188.14,-165.58 172.5,-225 160.12,-272.02 160.28,-326.99 163.32,-369.11"/>
<polygon fill="none" stroke="#404040" points="163.33,-369.22 167.8,-374.88 164.3,-381.18 159.83,-375.52 163.33,-369.22"/>
<text text-anchor="middle" x="218.5" y="-233.5" font-family="Helvetica,sans-Serif" font-size="10.00"> #realized_catchment</text>
</g>
<!-- Node3 -->
<g id="node3" class="node">
<title>Node3</title>
<g id="a_node3"><a xlink:href="class_h_y___catchment.html" target="_top" xlink:title=" ">
<polygon fill="white" stroke="black" points="460.5,-116.5 460.5,-206.5 582.5,-206.5 582.5,-116.5 460.5,-116.5"/>
<text text-anchor="middle" x="521.5" y="-194.5" font-family="Helvetica,sans-Serif" font-size="10.00">HY_Catchment</text>
<polyline fill="none" stroke="black" points="460.5,-187.5 582.5,-187.5 "/>
<text text-anchor="middle" x="521.5" y="-175.5" font-family="Helvetica,sans-Serif" font-size="10.00"> </text>
<polyline fill="none" stroke="black" points="460.5,-168.5 582.5,-168.5 "/>
<text text-anchor="start" x="468.5" y="-156.5" font-family="Helvetica,sans-Serif" font-size="10.00">+ HY_Catchment()</text>
<text text-anchor="start" x="468.5" y="-145.5" font-family="Helvetica,sans-Serif" font-size="10.00">+ HY_Catchment()</text>
<text text-anchor="start" x="468.5" y="-134.5" font-family="Helvetica,sans-Serif" font-size="10.00">+ ~HY_Catchment()</text>
<text text-anchor="start" x="468.5" y="-123.5" font-family="Helvetica,sans-Serif" font-size="10.00">+ get_outflow_nexuses()</text>
</a>
</g>
</g>
<!-- Node3&#45;&gt;Node2 -->
<g id="edge2" class="edge">
<title>Node3&#45;&gt;Node2</title>
<path fill="none" stroke="#404040" d="M460.49,-129.12C424.06,-110.37 377.87,-86.62 341.15,-67.72"/>
<polygon fill="none" stroke="#404040" points="340.74,-67.52 333.58,-68.33 330.07,-62.03 337.24,-61.22 340.74,-67.52"/>
<text text-anchor="middle" x="410.5" y="-90" font-family="Helvetica,sans-Serif" font-size="10.00"> +ptr</text>
</g>
<!-- Node4 -->
<g id="node4" class="node">
<title>Node4</title>
<g id="a_node4"><a xlink:href="class_h_y___hydro_feature.html" target="_top" xlink:title=" ">
<polygon fill="white" stroke="black" points="729.5,-265.5 729.5,-333.5 843.5,-333.5 843.5,-265.5 729.5,-265.5"/>
<text text-anchor="middle" x="786.5" y="-321.5" font-family="Helvetica,sans-Serif" font-size="10.00">HY_HydroFeature</text>
<polyline fill="none" stroke="black" points="729.5,-314.5 843.5,-314.5 "/>
<text text-anchor="middle" x="786.5" y="-302.5" font-family="Helvetica,sans-Serif" font-size="10.00"> </text>
<polyline fill="none" stroke="black" points="729.5,-295.5 843.5,-295.5 "/>
<text text-anchor="start" x="737.5" y="-283.5" font-family="Helvetica,sans-Serif" font-size="10.00">+ HY_HydroFeature()</text>
<text text-anchor="start" x="737.5" y="-272.5" font-family="Helvetica,sans-Serif" font-size="10.00">+ ~HY_HydroFeature()</text>
</a>
</g>
</g>
<!-- Node4&#45;&gt;Node3 -->
<g id="edge3" class="edge">
<title>Node4&#45;&gt;Node3</title>
<path fill="none" stroke="midnightblue" d="M749.64,-258.11C737.17,-246.2 722.57,-233.96 707.5,-225 668.71,-201.92 620.25,-185.99 582.51,-175.99"/>
<polygon fill="none" stroke="midnightblue" points="747.53,-260.94 757.12,-265.45 752.44,-255.95 747.53,-260.94"/>
</g>
<!-- Node5&#45;&gt;Node3 -->
<g id="edge4" class="edge">
<title>Node5&#45;&gt;Node3</title>
<path fill="none" stroke="#404040" d="M379.03,-265.36C384.25,-251.63 391.86,-236.31 402.5,-225 415.55,-211.12 432.37,-199.74 449.24,-190.68"/>
<polygon fill="none" stroke="#404040" points="449.59,-190.49 453.13,-184.21 460.29,-185.05 456.76,-191.34 449.59,-190.49"/>
<text text-anchor="middle" x="428.5" y="-233.5" font-family="Helvetica,sans-Serif" font-size="10.00"> +realization</text>
</g>
<!-- Node6 -->
<g id="node6" class="node">
<title>Node6</title>
<g id="a_node6"><a xlink:title=" ">
<polygon fill="white" stroke="black" points="277,-674 277,-731 380,-731 380,-674 277,-674"/>
<text text-anchor="middle" x="328.5" y="-719" font-family="Helvetica,sans-Serif" font-size="10.00">std::shared_ptr&lt; T &gt;</text>
<polyline fill="none" stroke="black" points="277,-712 380,-712 "/>
<text text-anchor="middle" x="328.5" y="-700" font-family="Helvetica,sans-Serif" font-size="10.00"> </text>
<polyline fill="none" stroke="black" points="277,-693 380,-693 "/>
<text text-anchor="start" x="285" y="-681" font-family="Helvetica,sans-Serif" font-size="10.00">+ operator&#45;&gt;()</text>
</a>
</g>
</g>
<!-- Node6&#45;&gt;Node2 -->
<g id="edge17" class="edge">
<title>Node6&#45;&gt;Node2</title>
<path fill="none" stroke="orange" d="M305.48,-665.15C292.36,-640.98 278.5,-608 278.5,-576.5 278.5,-576.5 278.5,-576.5 278.5,-160.5 278.5,-129.36 278.5,-93.85 278.5,-68.66"/>
<polygon fill="orange" stroke="orange" points="302.49,-666.97 310.45,-673.96 308.59,-663.53 302.49,-666.97"/>
<text text-anchor="middle" x="321.5" y="-355" font-family="Helvetica,sans-Serif" font-size="10.00"> &lt; HY_Catchment &gt;</text>
</g>
<!-- Node6&#45;&gt;Node5 -->
<g id="edge6" class="edge">
<title>Node6&#45;&gt;Node5</title>
<path fill="none" stroke="orange" d="M333.19,-663.74C340.82,-601.26 356.02,-472.4 365.5,-363 366.33,-353.47 367.06,-343.1 367.66,-333.61"/>
<polygon fill="orange" stroke="orange" points="329.69,-663.55 331.94,-673.9 336.63,-664.4 329.69,-663.55"/>
<text text-anchor="middle" x="418" y="-515" font-family="Helvetica,sans-Serif" font-size="10.00"> &lt; HY_CatchmentRealization &gt;</text>
</g>
<!-- Node13 -->
<g id="node13" class="node">
<title>Node13</title>
<g id="a_node13"><a xlink:title=" ">
<polygon fill="white" stroke="black" points="60.5,-541.5 60.5,-609.5 216.5,-609.5 216.5,-541.5 60.5,-541.5"/>
<text text-anchor="start" x="68.5" y="-597.5" font-family="Helvetica,sans-Serif" font-size="10.00">std::shared_ptr&lt; data</text>
<text text-anchor="middle" x="138.5" y="-586.5" font-family="Helvetica,sans-Serif" font-size="10.00">_access::GenericDataProvider &gt;</text>
<polyline fill="none" stroke="black" points="60.5,-579.5 216.5,-579.5 "/>
<text text-anchor="middle" x="138.5" y="-567.5" font-family="Helvetica,sans-Serif" font-size="10.00"> </text>
<polyline fill="none" stroke="black" points="60.5,-560.5 216.5,-560.5 "/>
<text text-anchor="start" x="68.5" y="-548.5" font-family="Helvetica,sans-Serif" font-size="10.00">+ operator&#45;&gt;()</text>
</a>
</g>
</g>
<!-- Node6&#45;&gt;Node13 -->
<g id="edge22" class="edge">
<title>Node6&#45;&gt;Node13</title>
<path fill="none" stroke="orange" d="M266.76,-688.54C214.75,-677 147.55,-660.39 139.5,-650 130.82,-638.8 129.48,-623.5 130.75,-609.75"/>
<polygon fill="orange" stroke="orange" points="266.09,-691.97 276.61,-690.7 267.59,-685.14 266.09,-691.97"/>
<text text-anchor="start" x="139.5" y="-642" font-family="Helvetica,sans-Serif" font-size="10.00"> &lt; data_access::GenericData</text>
<text text-anchor="middle" x="202" y="-631" font-family="Helvetica,sans-Serif" font-size="10.00">Provider &gt;</text>
</g>
<!-- Node7 -->
<g id="node7" class="node">
<title>Node7</title>
<g id="a_node7"><a xlink:title=" ">
<polygon fill="white" stroke="black" points="565,-845 565,-902 594,-902 594,-845 565,-845"/>
<text text-anchor="middle" x="579.5" y="-890" font-family="Helvetica,sans-Serif" font-size="10.00">T</text>
<polyline fill="none" stroke="black" points="565,-883 594,-883 "/>
<text text-anchor="middle" x="579.5" y="-871" font-family="Helvetica,sans-Serif" font-size="10.00"> </text>
<polyline fill="none" stroke="black" points="565,-864 594,-864 "/>
<text text-anchor="middle" x="579.5" y="-852" font-family="Helvetica,sans-Serif" font-size="10.00"> </text>
</a>
</g>
</g>
<!-- Node7&#45;&gt;Node6 -->
<g id="edge7" class="edge">
<title>Node7&#45;&gt;Node6</title>
<path fill="none" stroke="#404040" d="M564.92,-862.68C529.59,-838.89 438,-777.23 379.75,-738"/>
<polygon fill="none" stroke="#404040" points="379.59,-737.9 372.38,-737.86 369.63,-731.2 376.84,-731.23 379.59,-737.9"/>
<text text-anchor="middle" x="427.5" y="-758" font-family="Helvetica,sans-Serif" font-size="10.00"> +ptr</text>
</g>
<!-- Node11 -->
<g id="node11" class="node">
<title>Node11</title>
<g id="a_node11"><a xlink:title=" ">
<polygon fill="white" stroke="black" points="667.5,-409 667.5,-466 751.5,-466 751.5,-409 667.5,-409"/>
<text text-anchor="middle" x="709.5" y="-454" font-family="Helvetica,sans-Serif" font-size="10.00">std::vector&lt; T &gt;</text>
<polyline fill="none" stroke="black" points="667.5,-447 751.5,-447 "/>
<text text-anchor="middle" x="709.5" y="-435" font-family="Helvetica,sans-Serif" font-size="10.00"> </text>
<polyline fill="none" stroke="black" points="667.5,-428 751.5,-428 "/>
<text text-anchor="middle" x="709.5" y="-416" font-family="Helvetica,sans-Serif" font-size="10.00"> </text>
</a>
</g>
</g>
<!-- Node7&#45;&gt;Node11 -->
<g id="edge13" class="edge">
<title>Node7&#45;&gt;Node11</title>
<path fill="none" stroke="#404040" d="M587.83,-844.69C610.23,-769.9 671.83,-564.27 697.75,-477.71"/>
<polygon fill="none" stroke="#404040" points="697.8,-477.57 695.69,-470.68 701.24,-466.08 703.35,-472.97 697.8,-477.57"/>
<text text-anchor="middle" x="676" y="-636.5" font-family="Helvetica,sans-Serif" font-size="10.00"> +elements</text>
</g>
<!-- Node8 -->
<g id="node8" class="node">
<title>Node8</title>
<g id="a_node8"><a xlink:title=" ">
<polygon fill="white" stroke="black" points="536,-409 536,-466 595,-466 595,-409 536,-409"/>
<text text-anchor="middle" x="565.5" y="-454" font-family="Helvetica,sans-Serif" font-size="10.00">std::string</text>
<polyline fill="none" stroke="black" points="536,-447 595,-447 "/>
<text text-anchor="middle" x="565.5" y="-435" font-family="Helvetica,sans-Serif" font-size="10.00"> </text>
<polyline fill="none" stroke="black" points="536,-428 595,-428 "/>
<text text-anchor="middle" x="565.5" y="-416" font-family="Helvetica,sans-Serif" font-size="10.00"> </text>
</a>
</g>
</g>
<!-- Node8&#45;&gt;Node3 -->
<g id="edge8" class="edge">
<title>Node8&#45;&gt;Node3</title>
<path fill="none" stroke="#404040" d="M535.9,-412.13C515.44,-393.25 489.92,-365.11 478.5,-334 464.57,-296.07 476.34,-251.81 491.05,-217.75"/>
<polygon fill="none" stroke="#404040" points="491.15,-217.54 489.99,-210.42 496.12,-206.62 497.27,-213.74 491.15,-217.54"/>
<text text-anchor="middle" x="528" y="-319" font-family="Helvetica,sans-Serif" font-size="10.00"> &#45;conjoint_catchment</text>
<text text-anchor="middle" x="528" y="-308" font-family="Helvetica,sans-Serif" font-size="10.00">&#45;containing_catchment</text>
<text text-anchor="middle" x="528" y="-297" font-family="Helvetica,sans-Serif" font-size="10.00">&#45;id</text>
<text text-anchor="middle" x="528" y="-286" font-family="Helvetica,sans-Serif" font-size="10.00">&#45;lower_catchment</text>
<text text-anchor="middle" x="528" y="-275" font-family="Helvetica,sans-Serif" font-size="10.00">&#45;upper_catchment</text>
</g>
<!-- Node10 -->
<g id="node10" class="node">
<title>Node10</title>
<g id="a_node10"><a xlink:title=" ">
<polygon fill="white" stroke="black" points="861.5,-271 861.5,-328 967.5,-328 967.5,-271 861.5,-271"/>
<text text-anchor="middle" x="914.5" y="-316" font-family="Helvetica,sans-Serif" font-size="10.00">std::vector&lt; Nexus &gt;</text>
<polyline fill="none" stroke="black" points="861.5,-309 967.5,-309 "/>
<text text-anchor="middle" x="914.5" y="-297" font-family="Helvetica,sans-Serif" font-size="10.00"> </text>
<polyline fill="none" stroke="black" points="861.5,-290 967.5,-290 "/>
<text text-anchor="middle" x="914.5" y="-278" font-family="Helvetica,sans-Serif" font-size="10.00"> </text>
</a>
</g>
</g>
<!-- Node8&#45;&gt;Node10 -->
<g id="edge11" class="edge">
<title>Node8&#45;&gt;Node10</title>
<path fill="none" stroke="#404040" d="M580.2,-408.6C592.07,-389.15 610.7,-364.52 634.5,-352 677.52,-329.37 805.9,-347.85 852.5,-334 853.98,-333.56 855.47,-333.08 856.96,-332.57"/>
<polygon fill="none" stroke="#404040" points="857.17,-332.48 861.28,-326.55 868.33,-328.06 864.23,-333.99 857.17,-332.48"/>
<text text-anchor="middle" x="659" y="-355" font-family="Helvetica,sans-Serif" font-size="10.00"> +elements</text>
</g>
<!-- Node12 -->
<g id="node12" class="node">
<title>Node12</title>
<g id="a_node12"><a xlink:title=" ">
<polygon fill="white" stroke="black" points="586,-271 586,-328 711,-328 711,-271 586,-271"/>
<text text-anchor="middle" x="648.5" y="-316" font-family="Helvetica,sans-Serif" font-size="10.00">std::vector&lt; Catchment &gt;</text>
<polyline fill="none" stroke="black" points="586,-309 711,-309 "/>
<text text-anchor="middle" x="648.5" y="-297" font-family="Helvetica,sans-Serif" font-size="10.00"> </text>
<polyline fill="none" stroke="black" points="586,-290 711,-290 "/>
<text text-anchor="middle" x="648.5" y="-278" font-family="Helvetica,sans-Serif" font-size="10.00"> </text>
</a>
</g>
</g>
<!-- Node8&#45;&gt;Node12 -->
<g id="edge15" class="edge">
<title>Node8&#45;&gt;Node12</title>
<path fill="none" stroke="#404040" d="M559.42,-408.9C557.06,-391.5 556.89,-369.15 566.5,-352 569.79,-346.13 574.05,-340.84 578.9,-336.09"/>
<polygon fill="none" stroke="#404040" points="579.09,-335.93 581.03,-328.99 588.19,-328.12 586.25,-335.06 579.09,-335.93"/>
<text text-anchor="middle" x="591" y="-355" font-family="Helvetica,sans-Serif" font-size="10.00"> +elements</text>
</g>
<!-- Node9 -->
<g id="node9" class="node">
<title>Node9</title>
<g id="a_node9"><a xlink:title=" ">
<polygon fill="white" stroke="black" points="519,-541.5 519,-609.5 612,-609.5 612,-541.5 519,-541.5"/>
<text text-anchor="start" x="527" y="-597.5" font-family="Helvetica,sans-Serif" font-size="10.00">std::basic_string&lt;</text>
<text text-anchor="middle" x="565.5" y="-586.5" font-family="Helvetica,sans-Serif" font-size="10.00"> Char &gt;</text>
<polyline fill="none" stroke="black" points="519,-579.5 612,-579.5 "/>
<text text-anchor="middle" x="565.5" y="-567.5" font-family="Helvetica,sans-Serif" font-size="10.00"> </text>
<polyline fill="none" stroke="black" points="519,-560.5 612,-560.5 "/>
<text text-anchor="middle" x="565.5" y="-548.5" font-family="Helvetica,sans-Serif" font-size="10.00"> </text>
</a>
</g>
</g>
<!-- Node9&#45;&gt;Node8 -->
<g id="edge9" class="edge">
<title>Node9&#45;&gt;Node8</title>
<path fill="none" stroke="midnightblue" d="M565.5,-531.16C565.5,-509.95 565.5,-485.03 565.5,-466.38"/>
<polygon fill="none" stroke="midnightblue" points="562,-531.23 565.5,-541.23 569,-531.23 562,-531.23"/>
</g>
<!-- Node10&#45;&gt;Node3 -->
<g id="edge10" class="edge">
<title>Node10&#45;&gt;Node3</title>
<path fill="none" stroke="#404040" d="M865.12,-270.88C860.89,-268.8 856.65,-266.81 852.5,-265 766.71,-227.47 662.88,-197.68 594.66,-180.1"/>
<polygon fill="none" stroke="#404040" points="594.39,-180.03 587.59,-182.43 582.77,-177.07 589.57,-174.67 594.39,-180.03"/>
<text text-anchor="middle" x="819.5" y="-239" font-family="Helvetica,sans-Serif" font-size="10.00"> &#45;inflows</text>
<text text-anchor="middle" x="819.5" y="-228" font-family="Helvetica,sans-Serif" font-size="10.00">&#45;outflows</text>
</g>
<!-- Node11&#45;&gt;Node10 -->
<g id="edge12" class="edge">
<title>Node11&#45;&gt;Node10</title>
<path fill="none" stroke="orange" d="M759.56,-403.29C794.27,-380.26 839.97,-349.95 872.73,-328.21"/>
<polygon fill="orange" stroke="orange" points="757.38,-400.53 750.98,-408.98 761.25,-406.37 757.38,-400.53"/>
<text text-anchor="middle" x="859" y="-355" font-family="Helvetica,sans-Serif" font-size="10.00"> &lt; Nexus &gt;</text>
</g>
<!-- Node11&#45;&gt;Node12 -->
<g id="edge16" class="edge">
<title>Node11&#45;&gt;Node12</title>
<path fill="none" stroke="orange" d="M703.03,-398.88C699.6,-383.83 694.59,-366.63 687.5,-352 683.49,-343.72 678.04,-335.47 672.5,-328.06"/>
<polygon fill="orange" stroke="orange" points="699.66,-399.85 705.16,-408.9 706.51,-398.39 699.66,-399.85"/>
<text text-anchor="middle" x="725" y="-355" font-family="Helvetica,sans-Serif" font-size="10.00"> &lt; Catchment &gt;</text>
</g>
<!-- Node12&#45;&gt;Node3 -->
<g id="edge14" class="edge">
<title>Node12&#45;&gt;Node3</title>
<path fill="none" stroke="#404040" d="M622.8,-270.98C607.91,-255.03 588.66,-234.41 570.94,-215.44"/>
<polygon fill="none" stroke="#404040" points="570.85,-215.35 563.83,-213.69 562.66,-206.58 569.68,-208.23 570.85,-215.35"/>
<text text-anchor="middle" x="651.5" y="-233.5" font-family="Helvetica,sans-Serif" font-size="10.00"> &#45;contained_catchments</text>
</g>
<!-- Node13&#45;&gt;Node1 -->
<g id="edge18" class="edge">
<title>Node13&#45;&gt;Node1</title>
<path fill="none" stroke="#404040" d="M146.57,-541.23C149.2,-530.38 152.23,-517.93 155.24,-505.51"/>
<polygon fill="none" stroke="#404040" points="155.28,-505.34 152.81,-498.57 158.11,-493.68 160.58,-500.45 155.28,-505.34"/>
<text text-anchor="middle" x="172" y="-515" font-family="Helvetica,sans-Serif" font-size="10.00"> #forcing</text>
</g>
<!-- Node14 -->
<g id="node14" class="node">
<title>Node14</title>
<g id="a_node14"><a xlink:href="classdata__access_1_1_generic_data_provider.html" target="_top" xlink:title=" ">
<polygon fill="white" stroke="black" points="30,-668.5 30,-736.5 161,-736.5 161,-668.5 30,-668.5"/>
<text text-anchor="start" x="38" y="-724.5" font-family="Helvetica,sans-Serif" font-size="10.00">data_access::GenericData</text>
<text text-anchor="middle" x="95.5" y="-713.5" font-family="Helvetica,sans-Serif" font-size="10.00">Provider</text>
<polyline fill="none" stroke="black" points="30,-706.5 161,-706.5 "/>
<text text-anchor="middle" x="95.5" y="-694.5" font-family="Helvetica,sans-Serif" font-size="10.00"> </text>
<polyline fill="none" stroke="black" points="30,-687.5 161,-687.5 "/>
<text text-anchor="middle" x="95.5" y="-675.5" font-family="Helvetica,sans-Serif" font-size="10.00"> </text>
</a>
</g>
</g>
<!-- Node14&#45;&gt;Node13 -->
<g id="edge19" class="edge">
<title>Node14&#45;&gt;Node13</title>
<path fill="none" stroke="#404040" d="M91.36,-668.46C90.91,-655.5 91.88,-640.71 96.5,-628 97.48,-625.3 98.67,-622.64 100.01,-620.04"/>
<polygon fill="none" stroke="#404040" points="100.07,-619.95 99.76,-612.74 106.3,-609.69 106.6,-616.89 100.07,-619.95"/>
<text text-anchor="middle" x="106.5" y="-636.5" font-family="Helvetica,sans-Serif" font-size="10.00"> +ptr</text>
</g>
<!-- Node15 -->
<g id="node15" class="node">
<title>Node15</title>
<g id="a_node15"><a xlink:href="classdata__access_1_1_data_provider.html" target="_top" xlink:title=" ">
<polygon fill="white" stroke="black" points="0,-784.5 0,-962.5 191,-962.5 191,-784.5 0,-784.5"/>
<text text-anchor="start" x="8" y="-950.5" font-family="Helvetica,sans-Serif" font-size="10.00">data_access::DataProvider</text>
<text text-anchor="middle" x="95.5" y="-939.5" font-family="Helvetica,sans-Serif" font-size="10.00">&lt; double, CatchmentAggrDataSelector &gt;</text>
<polyline fill="none" stroke="black" points="0,-932.5 191,-932.5 "/>
<text text-anchor="middle" x="95.5" y="-920.5" font-family="Helvetica,sans-Serif" font-size="10.00"> </text>
<polyline fill="none" stroke="black" points="0,-913.5 191,-913.5 "/>
<text text-anchor="start" x="8" y="-901.5" font-family="Helvetica,sans-Serif" font-size="10.00">+ ~DataProvider()</text>
<text text-anchor="start" x="8" y="-890.5" font-family="Helvetica,sans-Serif" font-size="10.00">+ get_avaliable_variable</text>
<text text-anchor="start" x="8" y="-879.5" font-family="Helvetica,sans-Serif" font-size="10.00">_names()</text>
<text text-anchor="start" x="8" y="-868.5" font-family="Helvetica,sans-Serif" font-size="10.00">+ get_data_start_time()</text>
<text text-anchor="start" x="8" y="-857.5" font-family="Helvetica,sans-Serif" font-size="10.00">+ get_data_stop_time()</text>
<text text-anchor="start" x="8" y="-846.5" font-family="Helvetica,sans-Serif" font-size="10.00">+ record_duration()</text>
<text text-anchor="start" x="8" y="-835.5" font-family="Helvetica,sans-Serif" font-size="10.00">+ get_ts_index_for_time()</text>
<text text-anchor="start" x="8" y="-824.5" font-family="Helvetica,sans-Serif" font-size="10.00">+ get_value()</text>
<text text-anchor="start" x="8" y="-813.5" font-family="Helvetica,sans-Serif" font-size="10.00">+ get_values()</text>
<text text-anchor="start" x="8" y="-802.5" font-family="Helvetica,sans-Serif" font-size="10.00">+ is_property_sum_over</text>
<text text-anchor="start" x="8" y="-791.5" font-family="Helvetica,sans-Serif" font-size="10.00">_time_step()</text>
</a>
</g>
</g>
<!-- Node15&#45;&gt;Node14 -->
<g id="edge20" class="edge">
<title>Node15&#45;&gt;Node14</title>
<path fill="none" stroke="midnightblue" d="M95.5,-773.77C95.5,-760.44 95.5,-747.59 95.5,-736.61"/>
<polygon fill="none" stroke="midnightblue" points="92,-774.04 95.5,-784.04 99,-774.04 92,-774.04"/>
</g>
<!-- Node16 -->
<g id="node16" class="node">
<title>Node16</title>
<g id="a_node16"><a xlink:href="classdata__access_1_1_data_provider.html" target="_top" xlink:title=" ">
<polygon fill="white" stroke="black" points="24,-1021.5 24,-1199.5 167,-1199.5 167,-1021.5 24,-1021.5"/>
<text text-anchor="start" x="32" y="-1187.5" font-family="Helvetica,sans-Serif" font-size="10.00">data_access::DataProvider</text>
<text text-anchor="middle" x="95.5" y="-1176.5" font-family="Helvetica,sans-Serif" font-size="10.00">&lt; data_type, selection_type &gt;</text>
<polyline fill="none" stroke="black" points="24,-1169.5 167,-1169.5 "/>
<text text-anchor="middle" x="95.5" y="-1157.5" font-family="Helvetica,sans-Serif" font-size="10.00"> </text>
<polyline fill="none" stroke="black" points="24,-1150.5 167,-1150.5 "/>
<text text-anchor="start" x="32" y="-1138.5" font-family="Helvetica,sans-Serif" font-size="10.00">+ ~DataProvider()</text>
<text text-anchor="start" x="32" y="-1127.5" font-family="Helvetica,sans-Serif" font-size="10.00">+ get_avaliable_variable</text>
<text text-anchor="start" x="32" y="-1116.5" font-family="Helvetica,sans-Serif" font-size="10.00">_names()</text>
<text text-anchor="start" x="32" y="-1105.5" font-family="Helvetica,sans-Serif" font-size="10.00">+ get_data_start_time()</text>
<text text-anchor="start" x="32" y="-1094.5" font-family="Helvetica,sans-Serif" font-size="10.00">+ get_data_stop_time()</text>
<text text-anchor="start" x="32" y="-1083.5" font-family="Helvetica,sans-Serif" font-size="10.00">+ record_duration()</text>
<text text-anchor="start" x="32" y="-1072.5" font-family="Helvetica,sans-Serif" font-size="10.00">+ get_ts_index_for_time()</text>
<text text-anchor="start" x="32" y="-1061.5" font-family="Helvetica,sans-Serif" font-size="10.00">+ get_value()</text>
<text text-anchor="start" x="32" y="-1050.5" font-family="Helvetica,sans-Serif" font-size="10.00">+ get_values()</text>
<text text-anchor="start" x="32" y="-1039.5" font-family="Helvetica,sans-Serif" font-size="10.00">+ is_property_sum_over</text>
<text text-anchor="start" x="32" y="-1028.5" font-family="Helvetica,sans-Serif" font-size="10.00">_time_step()</text>
</a>
</g>
</g>
<!-- Node16&#45;&gt;Node15 -->
<g id="edge21" class="edge">
<title>Node16&#45;&gt;Node15</title>
<path fill="none" stroke="orange" d="M95.5,-1010.91C95.5,-994.94 95.5,-978.49 95.5,-962.78"/>
<polygon fill="orange" stroke="orange" points="92,-1011.33 95.5,-1021.33 99,-1011.33 92,-1011.33"/>
<text text-anchor="start" x="95.5" y="-995" font-family="Helvetica,sans-Serif" font-size="10.00"> &lt; double, CatchmentAggrData</text>
<text text-anchor="middle" x="162" y="-984" font-family="Helvetica,sans-Serif" font-size="10.00">Selector &gt;</text>
</g>
</g>
</svg>
