<?xml version="1.0" encoding="UTF-8" standalone="no"?>
<!DOCTYPE svg PUBLIC "-//W3C//DTD SVG 1.1//EN"
 "http://www.w3.org/Graphics/SVG/1.1/DTD/svg11.dtd">
<!-- Generated by graphviz version 2.42.3 ()
 -->
<!-- Title: HY_CatchmentArea Pages: 1 -->
<svg width="262pt" height="408pt"
 viewBox="0.00 0.00 262.00 408.00" xmlns="http://www.w3.org/2000/svg" xmlns:xlink="http://www.w3.org/1999/xlink">
<g id="graph0" class="graph" transform="scale(1 1) rotate(0) translate(4 404)">
<title>HY_CatchmentArea</title>
<polygon fill="white" stroke="transparent" points="-4,4 -4,-404 258,-404 258,4 -4,4"/>
<!-- Node1 -->
<g id="node1" class="node">
<title>Node1</title>
<g id="a_node1"><a xlink:title=" ">
<polygon fill="#bfbfbf" stroke="black" points="81.5,-204.5 81.5,-272.5 204.5,-272.5 204.5,-204.5 81.5,-204.5"/>
<text text-anchor="middle" x="143" y="-260.5" font-family="Helvetica,sans-Serif" font-size="10.00">HY_CatchmentArea</text>
<polyline fill="none" stroke="black" points="81.5,-253.5 204.5,-253.5 "/>
<text text-anchor="start" x="89.5" y="-241.5" font-family="Helvetica,sans-Serif" font-size="10.00"># bounds</text>
<polyline fill="none" stroke="black" points="81.5,-234.5 204.5,-234.5 "/>
<text text-anchor="start" x="89.5" y="-222.5" font-family="Helvetica,sans-Serif" font-size="10.00">+ HY_CatchmentArea()</text>
<text text-anchor="start" x="89.5" y="-211.5" font-family="Helvetica,sans-Serif" font-size="10.00">+ ~HY_CatchmentArea()</text>
</a>
</g>
</g>
<!-- Node4 -->
<g id="node4" class="node">
<title>Node4</title>
<g id="a_node4"><a xlink:href="class_simple___lumped___model___realization.html" target="_top" xlink:title=" ">
<polygon fill="white" stroke="black" points="75.5,-0.5 75.5,-167.5 210.5,-167.5 210.5,-0.5 75.5,-0.5"/>
<text text-anchor="start" x="83.5" y="-155.5" font-family="Helvetica,sans-Serif" font-size="10.00">Simple_Lumped_Model</text>
<text text-anchor="middle" x="143" y="-144.5" font-family="Helvetica,sans-Serif" font-size="10.00">_Realization</text>
<polyline fill="none" stroke="black" points="75.5,-137.5 210.5,-137.5 "/>
<text text-anchor="start" x="83.5" y="-125.5" font-family="Helvetica,sans-Serif" font-size="10.00">&#45; state</text>
<text text-anchor="start" x="83.5" y="-114.5" font-family="Helvetica,sans-Serif" font-size="10.00">&#45; fluxes</text>
<text text-anchor="start" x="83.5" y="-103.5" font-family="Helvetica,sans-Serif" font-size="10.00">&#45; cascade_backing_storage</text>
<text text-anchor="start" x="83.5" y="-92.5" font-family="Helvetica,sans-Serif" font-size="10.00">&#45; params</text>
<polyline fill="none" stroke="black" points="75.5,-85.5 210.5,-85.5 "/>
<text text-anchor="start" x="83.5" y="-73.5" font-family="Helvetica,sans-Serif" font-size="10.00">+ Simple_Lumped_Model</text>
<text text-anchor="start" x="83.5" y="-62.5" font-family="Helvetica,sans-Serif" font-size="10.00">_Realization()</text>
<text text-anchor="start" x="83.5" y="-51.5" font-family="Helvetica,sans-Serif" font-size="10.00">+ ~Simple_Lumped_Model</text>
<text text-anchor="start" x="83.5" y="-40.5" font-family="Helvetica,sans-Serif" font-size="10.00">_Realization()</text>
<text text-anchor="start" x="83.5" y="-29.5" font-family="Helvetica,sans-Serif" font-size="10.00">+ get_response()</text>
<text text-anchor="start" x="83.5" y="-18.5" font-family="Helvetica,sans-Serif" font-size="10.00">+ calc_et()</text>
<text text-anchor="start" x="83.5" y="-7.5" font-family="Helvetica,sans-Serif" font-size="10.00">+ add_time()</text>
</a>
</g>
</g>
<!-- Node1&#45;&gt;Node4 -->
<g id="edge3" class="edge">
<title>Node1&#45;&gt;Node4</title>
<path fill="none" stroke="midnightblue" d="M143,-194.23C143,-185.88 143,-176.89 143,-167.76"/>
<polygon fill="none" stroke="midnightblue" points="139.5,-194.41 143,-204.41 146.5,-194.41 139.5,-194.41"/>
</g>
<!-- Node2 -->
<g id="node2" class="node">
<title>Node2</title>
<g id="a_node2"><a xlink:href="class_h_y___catchment_realization.html" target="_top" xlink:title=" ">
<polygon fill="white" stroke="black" points="0,-309.5 0,-399.5 150,-399.5 150,-309.5 0,-309.5"/>
<text text-anchor="middle" x="75" y="-387.5" font-family="Helvetica,sans-Serif" font-size="10.00">HY_CatchmentRealization</text>
<polyline fill="none" stroke="black" points="0,-380.5 150,-380.5 "/>
<text text-anchor="start" x="8" y="-368.5" font-family="Helvetica,sans-Serif" font-size="10.00"># realized_catchment</text>
<text text-anchor="start" x="8" y="-357.5" font-family="Helvetica,sans-Serif" font-size="10.00"># id_number</text>
<text text-anchor="start" x="8" y="-346.5" font-family="Helvetica,sans-Serif" font-size="10.00"># id</text>
<polyline fill="none" stroke="black" points="0,-339.5 150,-339.5 "/>
<text text-anchor="start" x="8" y="-327.5" font-family="Helvetica,sans-Serif" font-size="10.00">+ HY_CatchmentRealization()</text>
<text text-anchor="start" x="8" y="-316.5" font-family="Helvetica,sans-Serif" font-size="10.00">+ ~HY_CatchmentRealization()</text>
</a>
</g>
</g>
<!-- Node2&#45;&gt;Node1 -->
<g id="edge1" class="edge">
<title>Node2&#45;&gt;Node1</title>
<path fill="none" stroke="midnightblue" d="M106.45,-300.77C112.12,-291.27 117.88,-281.61 123.11,-272.85"/>
<polygon fill="none" stroke="midnightblue" points="103.41,-299.04 101.29,-309.42 109.42,-302.63 103.41,-299.04"/>
</g>
<!-- Node3 -->
<g id="node3" class="node">
<title>Node3</title>
<g id="a_node3"><a xlink:href="class_g_m___object.html" target="_top" xlink:title=" ">
<polygon fill="white" stroke="black" points="168,-320.5 168,-388.5 254,-388.5 254,-320.5 168,-320.5"/>
<text text-anchor="middle" x="211" y="-376.5" font-family="Helvetica,sans-Serif" font-size="10.00">GM_Object</text>
<polyline fill="none" stroke="black" points="168,-369.5 254,-369.5 "/>
<text text-anchor="middle" x="211" y="-357.5" font-family="Helvetica,sans-Serif" font-size="10.00"> </text>
<polyline fill="none" stroke="black" points="168,-350.5 254,-350.5 "/>
<text text-anchor="start" x="176" y="-338.5" font-family="Helvetica,sans-Serif" font-size="10.00">+ GM_Object()</text>
<text text-anchor="start" x="176" y="-327.5" font-family="Helvetica,sans-Serif" font-size="10.00">+ ~GM_Object()</text>
</a>
</g>
</g>
<!-- Node3&#45;&gt;Node1 -->
<g id="edge2" class="edge">
<title>Node3&#45;&gt;Node1</title>
<path fill="none" stroke="midnightblue" d="M185.97,-311.55C178.32,-298.71 170.01,-284.78 162.76,-272.62"/>
<polygon fill="none" stroke="midnightblue" points="183.02,-313.42 191.15,-320.22 189.03,-309.84 183.02,-313.42"/>
</g>
</g>
</svg>
