<?xml version="1.0" encoding="UTF-8" standalone="no"?>
<!DOCTYPE svg PUBLIC "-//W3C//DTD SVG 1.1//EN"
 "http://www.w3.org/Graphics/SVG/1.1/DTD/svg11.dtd">
<!-- Generated by graphviz version 12.2.0 (20241103.1931)
 -->
<!-- Title: geojson::FeatureBase Pages: 1 -->
<svg width="719pt" height="1386pt"
 viewBox="0.00 0.00 718.75 1386.25" xmlns="http://www.w3.org/2000/svg" xmlns:xlink="http://www.w3.org/1999/xlink">
<g id="graph0" class="graph" transform="scale(1 1) rotate(0) translate(4 1382.25)">
<title>geojson::FeatureBase</title>
<!-- Node1 -->
<g id="Node000001" class="node">
<title>Node1</title>
<g id="a_Node000001"><a xlink:title="Represents an individual feature within a Geojson definition.">
<polygon fill="#999999" stroke="none" points="444,-500.75 316.5,-500.75 316.5,-130.75 444,-130.75 444,-500.75"/>
<text text-anchor="start" x="333.38" y="-487.25" font-family="Helvetica,sans-Serif" font-size="10.00">geojson::FeatureBase</text>
<text text-anchor="start" x="320.88" y="-472" font-family="Helvetica,sans-Serif" font-size="10.00">#</text>
<text text-anchor="start" x="330.5" y="-472" font-family="Helvetica,sans-Serif" font-size="10.00">type</text>
<text text-anchor="start" x="320.88" y="-456.75" font-family="Helvetica,sans-Serif" font-size="10.00">#</text>
<text text-anchor="start" x="330.5" y="-456.75" font-family="Helvetica,sans-Serif" font-size="10.00">geom</text>
<text text-anchor="start" x="320.5" y="-441.5" font-family="Helvetica,sans-Serif" font-size="10.00">+</text>
<text text-anchor="start" x="330.5" y="-441.5" font-family="Helvetica,sans-Serif" font-size="10.00">FeatureBase()</text>
<text text-anchor="start" x="320.5" y="-426.25" font-family="Helvetica,sans-Serif" font-size="10.00">+</text>
<text text-anchor="start" x="330.5" y="-426.25" font-family="Helvetica,sans-Serif" font-size="10.00">~FeatureBase()</text>
<text text-anchor="start" x="320.5" y="-411" font-family="Helvetica,sans-Serif" font-size="10.00">+</text>
<text text-anchor="start" x="330.5" y="-411" font-family="Helvetica,sans-Serif" font-size="10.00">get_type()</text>
<text text-anchor="start" x="320.5" y="-395.75" font-family="Helvetica,sans-Serif" font-size="10.00">+</text>
<text text-anchor="start" x="330.5" y="-395.75" font-family="Helvetica,sans-Serif" font-size="10.00">add_origination_feature()</text>
<text text-anchor="start" x="320.5" y="-380.5" font-family="Helvetica,sans-Serif" font-size="10.00">+</text>
<text text-anchor="start" x="330.5" y="-380.5" font-family="Helvetica,sans-Serif" font-size="10.00">add_destination_feature()</text>
<text text-anchor="start" x="320.5" y="-365.25" font-family="Helvetica,sans-Serif" font-size="10.00">+</text>
<text text-anchor="start" x="330.5" y="-365.25" font-family="Helvetica,sans-Serif" font-size="10.00">assign_neighbors()</text>
<text text-anchor="start" x="320.5" y="-350" font-family="Helvetica,sans-Serif" font-size="10.00">+</text>
<text text-anchor="start" x="330.5" y="-350" font-family="Helvetica,sans-Serif" font-size="10.00">add_neighbor_feature()</text>
<text text-anchor="start" x="320.5" y="-334.75" font-family="Helvetica,sans-Serif" font-size="10.00">+</text>
<text text-anchor="start" x="330.5" y="-334.75" font-family="Helvetica,sans-Serif" font-size="10.00">get_property()</text>
<text text-anchor="start" x="320.5" y="-319.5" font-family="Helvetica,sans-Serif" font-size="10.00">+</text>
<text text-anchor="start" x="330.5" y="-319.5" font-family="Helvetica,sans-Serif" font-size="10.00">set_id()</text>
<text text-anchor="start" x="320.5" y="-304.25" font-family="Helvetica,sans-Serif" font-size="10.00">+</text>
<text text-anchor="start" x="330.5" y="-304.25" font-family="Helvetica,sans-Serif" font-size="10.00">get()</text>
<text text-anchor="start" x="320.5" y="-289" font-family="Helvetica,sans-Serif" font-size="10.00">+</text>
<text text-anchor="start" x="330.5" y="-289" font-family="Helvetica,sans-Serif" font-size="10.00">set()</text>
<text text-anchor="start" x="320.5" y="-273.75" font-family="Helvetica,sans-Serif" font-size="10.00">+</text>
<text text-anchor="start" x="330.5" y="-273.75" font-family="Helvetica,sans-Serif" font-size="10.00">set()</text>
<text text-anchor="start" x="320.5" y="-258.5" font-family="Helvetica,sans-Serif" font-size="10.00">+</text>
<text text-anchor="start" x="330.5" y="-258.5" font-family="Helvetica,sans-Serif" font-size="10.00">set()</text>
<text text-anchor="start" x="320.5" y="-243.25" font-family="Helvetica,sans-Serif" font-size="10.00">+</text>
<text text-anchor="start" x="330.5" y="-243.25" font-family="Helvetica,sans-Serif" font-size="10.00">set()</text>
<text text-anchor="start" x="320.5" y="-228" font-family="Helvetica,sans-Serif" font-size="10.00">+</text>
<text text-anchor="start" x="330.5" y="-228" font-family="Helvetica,sans-Serif" font-size="10.00">set()</text>
<text text-anchor="start" x="330.5" y="-212.75" font-family="Helvetica,sans-Serif" font-size="10.00">and 31 more...</text>
<text text-anchor="start" x="320.88" y="-197.5" font-family="Helvetica,sans-Serif" font-size="10.00">#</text>
<text text-anchor="start" x="330.5" y="-197.5" font-family="Helvetica,sans-Serif" font-size="10.00">FeatureBase()</text>
<text text-anchor="start" x="320.88" y="-182.25" font-family="Helvetica,sans-Serif" font-size="10.00">#</text>
<text text-anchor="start" x="330.5" y="-182.25" font-family="Helvetica,sans-Serif" font-size="10.00">break_links()</text>
<text text-anchor="start" x="320.88" y="-167" font-family="Helvetica,sans-Serif" font-size="10.00">#</text>
<text text-anchor="start" x="330.5" y="-167" font-family="Helvetica,sans-Serif" font-size="10.00">remove_destination()</text>
<text text-anchor="start" x="320.88" y="-151.75" font-family="Helvetica,sans-Serif" font-size="10.00">#</text>
<text text-anchor="start" x="330.5" y="-151.75" font-family="Helvetica,sans-Serif" font-size="10.00">remove_origination()</text>
<text text-anchor="start" x="320.88" y="-136.5" font-family="Helvetica,sans-Serif" font-size="10.00">#</text>
<text text-anchor="start" x="330.5" y="-136.5" font-family="Helvetica,sans-Serif" font-size="10.00">remove_neighbor()</text>
<polygon fill="#666666" stroke="#666666" points="316.5,-483.5 316.5,-483.5 444,-483.5 444,-483.5 316.5,-483.5"/>
<polygon fill="#666666" stroke="#666666" points="316.5,-453 316.5,-453 328.5,-453 328.5,-453 316.5,-453"/>
<polygon fill="#666666" stroke="#666666" points="328.5,-453 328.5,-453 444,-453 444,-453 328.5,-453"/>
<polygon fill="none" stroke="#666666" points="316.5,-130.75 316.5,-500.75 444,-500.75 444,-130.75 316.5,-130.75"/>
</a>
</g>
</g>
<!-- Node13 -->
<g id="Node000013" class="node">
<title>Node13</title>
<g id="a_Node000013"><a xlink:title=" ">
<polygon fill="white" stroke="none" points="505.75,-61 410.75,-61 410.75,0 505.75,0 505.75,-61"/>
<text text-anchor="start" x="414.75" y="-47.5" font-family="Helvetica,sans-Serif" font-size="10.00">std::vector&lt; geojson</text>
<text text-anchor="start" x="421.12" y="-36.25" font-family="Helvetica,sans-Serif" font-size="10.00">::FeatureBase * &gt;</text>
<text text-anchor="start" x="456.75" y="-21" font-family="Helvetica,sans-Serif" font-size="10.00"> </text>
<text text-anchor="start" x="456.75" y="-5.75" font-family="Helvetica,sans-Serif" font-size="10.00"> </text>
<polygon fill="#666666" stroke="#666666" points="410.75,-32.5 410.75,-32.5 505.75,-32.5 505.75,-32.5 410.75,-32.5"/>
<polygon fill="#666666" stroke="#666666" points="410.75,-17.25 410.75,-17.25 505.75,-17.25 505.75,-17.25 410.75,-17.25"/>
<polygon fill="none" stroke="#666666" points="410.75,0 410.75,-61 505.75,-61 505.75,0 410.75,0"/>
</a>
</g>
</g>
<!-- Node1&#45;&gt;Node13 -->
<g id="edge20_Node000013_Node000001" class="edge">
<title>Node1&#45;&gt;Node13</title>
<g id="a_edge20_Node000013_Node000001"><a xlink:title=" ">
<path fill="none" stroke="#63b8ff" d="M431.27,-130.91C432.95,-124.78 434.62,-118.72 436.25,-112.75 439.78,-99.85 443.6,-85.8 447.05,-73.06"/>
<polygon fill="none" stroke="#63b8ff" points="446.98,-73.3 444.69,-66.46 450.11,-61.72 452.41,-68.55 446.98,-73.3"/>
</a>
</g>
<text text-anchor="middle" x="469.36" y="-92" font-family="Helvetica,sans-Serif" font-size="10.00" fill="grey"> +elements</text>
</g>
<!-- Node2 -->
<g id="Node000002" class="node">
<title>Node2</title>
<g id="a_Node000002"><a xlink:title=" ">
<polygon fill="white" stroke="none" points="525.88,-1094 428.62,-1094 428.62,-1033 525.88,-1033 525.88,-1094"/>
<text text-anchor="start" x="432.62" y="-1080.5" font-family="Helvetica,sans-Serif" font-size="10.00">std::vector&lt;::geojson</text>
<text text-anchor="start" x="451" y="-1069.25" font-family="Helvetica,sans-Serif" font-size="10.00">::geometry &gt;</text>
<text text-anchor="start" x="442.5" y="-1054" font-family="Helvetica,sans-Serif" font-size="10.00">+</text>
<text text-anchor="start" x="462.38" y="-1054" font-family="Helvetica,sans-Serif" font-size="10.00">elements</text>
<text text-anchor="start" x="475.75" y="-1038.75" font-family="Helvetica,sans-Serif" font-size="10.00"> </text>
<polygon fill="#666666" stroke="#666666" points="428.62,-1065.5 428.62,-1065.5 525.88,-1065.5 525.88,-1065.5 428.62,-1065.5"/>
<polygon fill="#666666" stroke="#666666" points="428.62,-1050.25 428.62,-1050.25 460.38,-1050.25 460.38,-1050.25 428.62,-1050.25"/>
<polygon fill="#666666" stroke="#666666" points="460.38,-1050.25 460.38,-1050.25 525.88,-1050.25 525.88,-1050.25 460.38,-1050.25"/>
<polygon fill="none" stroke="#666666" points="428.62,-1033 428.62,-1094 525.88,-1094 525.88,-1033 428.62,-1033"/>
</a>
</g>
</g>
<!-- Node2&#45;&gt;Node1 -->
<g id="edge1_Node000001_Node000002" class="edge">
<title>Node2&#45;&gt;Node1</title>
<g id="a_edge1_Node000001_Node000002"><a xlink:title=" ">
<path fill="none" stroke="#63b8ff" d="M477.43,-1033.09C477.84,-939.77 477.69,-651.11 461.25,-559.25 457.74,-539.62 452.96,-519.41 447.48,-499.43"/>
<polygon fill="none" stroke="#63b8ff" points="447.48,-499.45 442,-494.76 444.22,-487.9 449.7,-492.58 447.48,-499.45"/>
</a>
</g>
<text text-anchor="middle" x="519.07" y="-659.25" font-family="Helvetica,sans-Serif" font-size="10.00" fill="grey"> #geometry_collection</text>
</g>
<!-- Node3 -->
<g id="Node000003" class="node">
<title>Node3</title>
<g id="a_Node000003"><a xlink:title=" ">
<polygon fill="white" stroke="none" points="441,-1275.62 365.5,-1275.62 365.5,-1225.88 441,-1225.88 441,-1275.62"/>
<text text-anchor="start" x="369.5" y="-1262.12" font-family="Helvetica,sans-Serif" font-size="10.00">std::vector&lt; T &gt;</text>
<text text-anchor="start" x="401.75" y="-1246.88" font-family="Helvetica,sans-Serif" font-size="10.00"> </text>
<text text-anchor="start" x="401.75" y="-1231.62" font-family="Helvetica,sans-Serif" font-size="10.00"> </text>
<polygon fill="#666666" stroke="#666666" points="365.5,-1258.38 365.5,-1258.38 441,-1258.38 441,-1258.38 365.5,-1258.38"/>
<polygon fill="#666666" stroke="#666666" points="365.5,-1243.12 365.5,-1243.12 441,-1243.12 441,-1243.12 365.5,-1243.12"/>
<polygon fill="none" stroke="#666666" points="365.5,-1225.88 365.5,-1275.62 441,-1275.62 441,-1225.88 365.5,-1225.88"/>
</a>
</g>
</g>
<!-- Node3&#45;&gt;Node2 -->
<g id="edge2_Node000002_Node000003" class="edge">
<title>Node3&#45;&gt;Node2</title>
<g id="a_edge2_Node000002_Node000003"><a xlink:title=" ">
<path fill="none" stroke="orange" d="M428.86,-1217.16C438.07,-1204.06 447.77,-1188.43 454.25,-1173 464.99,-1147.44 470.92,-1116.3 474.06,-1093.95"/>
<polygon fill="orange" stroke="orange" points="426.23,-1214.83 423.19,-1224.98 431.89,-1218.94 426.23,-1214.83"/>
</a>
</g>
<text text-anchor="middle" x="494.17" y="-1192.75" font-family="Helvetica,sans-Serif" font-size="10.00" fill="grey"> &lt;::geojson::geometry &gt;</text>
</g>
<!-- Node9 -->
<g id="Node000009" class="node">
<title>Node9</title>
<g id="a_Node000009"><a xlink:title=" ">
<polygon fill="white" stroke="none" points="317.75,-1173 222.75,-1173 222.75,-1112 317.75,-1112 317.75,-1173"/>
<text text-anchor="start" x="226.75" y="-1159.5" font-family="Helvetica,sans-Serif" font-size="10.00">std::vector&lt; geojson</text>
<text text-anchor="start" x="232.38" y="-1148.25" font-family="Helvetica,sans-Serif" font-size="10.00">::JSONProperty &gt;</text>
<text text-anchor="start" x="268.75" y="-1133" font-family="Helvetica,sans-Serif" font-size="10.00"> </text>
<text text-anchor="start" x="268.75" y="-1117.75" font-family="Helvetica,sans-Serif" font-size="10.00"> </text>
<polygon fill="#666666" stroke="#666666" points="222.75,-1144.5 222.75,-1144.5 317.75,-1144.5 317.75,-1144.5 222.75,-1144.5"/>
<polygon fill="#666666" stroke="#666666" points="222.75,-1129.25 222.75,-1129.25 317.75,-1129.25 317.75,-1129.25 222.75,-1129.25"/>
<polygon fill="none" stroke="#666666" points="222.75,-1112 222.75,-1173 317.75,-1173 317.75,-1112 222.75,-1112"/>
</a>
</g>
</g>
<!-- Node3&#45;&gt;Node9 -->
<g id="edge12_Node000009_Node000003" class="edge">
<title>Node3&#45;&gt;Node9</title>
<g id="a_edge12_Node000009_Node000003"><a xlink:title=" ">
<path fill="none" stroke="orange" d="M354.48,-1246.16C324.57,-1241.15 288.45,-1229.42 269.25,-1202.25 263.3,-1193.84 262.21,-1182.92 263.06,-1172.78"/>
<polygon fill="orange" stroke="orange" points="353.69,-1249.58 364.09,-1247.56 354.7,-1242.66 353.69,-1249.58"/>
</a>
</g>
<text text-anchor="middle" x="329.25" y="-1192.75" font-family="Helvetica,sans-Serif" font-size="10.00" fill="grey"> &lt; geojson::JSONProperty &gt;</text>
</g>
<!-- Node12 -->
<g id="Node000012" class="node">
<title>Node12</title>
<g id="a_Node000012"><a xlink:title=" ">
<polygon fill="white" stroke="none" points="441.25,-688 343.25,-688 343.25,-638.25 441.25,-638.25 441.25,-688"/>
<text text-anchor="start" x="347.25" y="-674.5" font-family="Helvetica,sans-Serif" font-size="10.00">std::vector&lt; double &gt;</text>
<text text-anchor="start" x="357.31" y="-659.25" font-family="Helvetica,sans-Serif" font-size="10.00">+</text>
<text text-anchor="start" x="377.38" y="-659.25" font-family="Helvetica,sans-Serif" font-size="10.00">elements</text>
<text text-anchor="start" x="390.75" y="-644" font-family="Helvetica,sans-Serif" font-size="10.00"> </text>
<polygon fill="#666666" stroke="#666666" points="343.25,-670.75 343.25,-670.75 441.25,-670.75 441.25,-670.75 343.25,-670.75"/>
<polygon fill="#666666" stroke="#666666" points="343.25,-655.5 343.25,-655.5 375.38,-655.5 375.38,-655.5 343.25,-655.5"/>
<polygon fill="#666666" stroke="#666666" points="375.38,-655.5 375.38,-655.5 441.25,-655.5 441.25,-655.5 375.38,-655.5"/>
<polygon fill="none" stroke="#666666" points="343.25,-638.25 343.25,-688 441.25,-688 441.25,-638.25 343.25,-638.25"/>
</a>
</g>
</g>
<!-- Node3&#45;&gt;Node12 -->
<g id="edge17_Node000012_Node000003" class="edge">
<title>Node3&#45;&gt;Node12</title>
<g id="a_edge17_Node000012_Node000003"><a xlink:title=" ">
<path fill="none" stroke="orange" d="M402.59,-1214.85C400.56,-1106.68 394.4,-778.79 392.69,-687.78"/>
<polygon fill="orange" stroke="orange" points="399.09,-1214.62 402.78,-1224.55 406.09,-1214.49 399.09,-1214.62"/>
</a>
</g>
<text text-anchor="middle" x="425.43" y="-1138.62" font-family="Helvetica,sans-Serif" font-size="10.00" fill="grey"> &lt; double &gt;</text>
</g>
<!-- Node3&#45;&gt;Node13 -->
<g id="edge21_Node000013_Node000003" class="edge">
<title>Node3&#45;&gt;Node13</title>
<g id="a_edge21_Node000013_Node000003"><a xlink:title=" ">
<path fill="none" stroke="orange" d="M451.72,-1243.71C507.72,-1233.71 592.25,-1207.95 592.25,-1143.5 592.25,-1143.5 592.25,-1143.5 592.25,-314.75 592.25,-201.78 554.87,-176.17 497.25,-79 493.6,-72.85 489.19,-66.67 484.67,-60.89"/>
<polygon fill="orange" stroke="orange" points="451.37,-1240.22 442.08,-1245.31 452.52,-1247.13 451.37,-1240.22"/>
</a>
</g>
<text text-anchor="middle" x="651.5" y="-659.25" font-family="Helvetica,sans-Serif" font-size="10.00" fill="grey"> &lt; geojson::FeatureBase * &gt;</text>
</g>
<!-- Node4 -->
<g id="Node000004" class="node">
<title>Node4</title>
<g id="a_Node000004"><a xlink:title=" ">
<polygon fill="white" stroke="none" points="340.25,-1378.25 326.25,-1378.25 326.25,-1328.5 340.25,-1328.5 340.25,-1378.25"/>
<text text-anchor="start" x="330.25" y="-1364.75" font-family="Helvetica,sans-Serif" font-size="10.00">T</text>
<text text-anchor="start" x="331.75" y="-1349.5" font-family="Helvetica,sans-Serif" font-size="10.00"> </text>
<text text-anchor="start" x="331.75" y="-1334.25" font-family="Helvetica,sans-Serif" font-size="10.00"> </text>
<polygon fill="#666666" stroke="#666666" points="326.25,-1361 326.25,-1361 340.25,-1361 340.25,-1361 326.25,-1361"/>
<polygon fill="#666666" stroke="#666666" points="326.25,-1345.75 326.25,-1345.75 340.25,-1345.75 340.25,-1345.75 326.25,-1345.75"/>
<polygon fill="none" stroke="#666666" points="326.25,-1328.5 326.25,-1378.25 340.25,-1378.25 340.25,-1328.5 326.25,-1328.5"/>
</a>
</g>
</g>
<!-- Node4&#45;&gt;Node3 -->
<g id="edge3_Node000003_Node000004" class="edge">
<title>Node4&#45;&gt;Node3</title>
<g id="a_edge3_Node000003_Node000004"><a xlink:title=" ">
<path fill="none" stroke="#63b8ff" d="M340.22,-1342.36C349.32,-1329.27 365.73,-1305.69 379.52,-1285.86"/>
<polygon fill="none" stroke="#63b8ff" points="379.48,-1285.92 379.62,-1278.71 386.33,-1276.07 386.19,-1283.28 379.48,-1285.92"/>
</a>
</g>
<text text-anchor="middle" x="392.25" y="-1301" font-family="Helvetica,sans-Serif" font-size="10.00" fill="grey"> +elements</text>
</g>
<!-- Node10 -->
<g id="Node000010" class="node">
<title>Node10</title>
<g id="a_Node000010"><a xlink:title=" ">
<polygon fill="white" stroke="none" points="199.88,-1275.62 120.62,-1275.62 120.62,-1225.88 199.88,-1225.88 199.88,-1275.62"/>
<text text-anchor="start" x="124.62" y="-1262.12" font-family="Helvetica,sans-Serif" font-size="10.00">std::map&lt; K, T &gt;</text>
<text text-anchor="start" x="158.75" y="-1246.88" font-family="Helvetica,sans-Serif" font-size="10.00"> </text>
<text text-anchor="start" x="158.75" y="-1231.62" font-family="Helvetica,sans-Serif" font-size="10.00"> </text>
<polygon fill="#666666" stroke="#666666" points="120.62,-1258.38 120.62,-1258.38 199.88,-1258.38 199.88,-1258.38 120.62,-1258.38"/>
<polygon fill="#666666" stroke="#666666" points="120.62,-1243.12 120.62,-1243.12 199.88,-1243.12 199.88,-1243.12 120.62,-1243.12"/>
<polygon fill="none" stroke="#666666" points="120.62,-1225.88 120.62,-1275.62 199.88,-1275.62 199.88,-1225.88 120.62,-1225.88"/>
</a>
</g>
</g>
<!-- Node4&#45;&gt;Node10 -->
<g id="edge15_Node000010_Node000004" class="edge">
<title>Node4&#45;&gt;Node10</title>
<g id="a_edge15_Node000010_Node000004"><a xlink:title=" ">
<path fill="none" stroke="#63b8ff" d="M326.25,-1348.31C307.03,-1337.12 252.07,-1305.16 210.62,-1281.05"/>
<polygon fill="none" stroke="#63b8ff" points="210.75,-1281.12 203.55,-1281.56 200.37,-1275.09 207.57,-1274.65 210.75,-1281.12"/>
</a>
</g>
<text text-anchor="middle" x="281.11" y="-1301" font-family="Helvetica,sans-Serif" font-size="10.00" fill="grey"> +elements</text>
</g>
<!-- Node5 -->
<g id="Node000005" class="node">
<title>Node5</title>
<g id="a_Node000005"><a xlink:title=" ">
<polygon fill="white" stroke="none" points="224.25,-620.25 126.25,-620.25 126.25,-559.25 224.25,-559.25 224.25,-620.25"/>
<text text-anchor="start" x="130.25" y="-606.75" font-family="Helvetica,sans-Serif" font-size="10.00">std::map&lt; std::string,</text>
<text text-anchor="start" x="138.5" y="-595.5" font-family="Helvetica,sans-Serif" font-size="10.00"> JSONProperty &gt;</text>
<text text-anchor="start" x="173.75" y="-580.25" font-family="Helvetica,sans-Serif" font-size="10.00"> </text>
<text text-anchor="start" x="173.75" y="-565" font-family="Helvetica,sans-Serif" font-size="10.00"> </text>
<polygon fill="#666666" stroke="#666666" points="126.25,-591.75 126.25,-591.75 224.25,-591.75 224.25,-591.75 126.25,-591.75"/>
<polygon fill="#666666" stroke="#666666" points="126.25,-576.5 126.25,-576.5 224.25,-576.5 224.25,-576.5 126.25,-576.5"/>
<polygon fill="none" stroke="#666666" points="126.25,-559.25 126.25,-620.25 224.25,-620.25 224.25,-559.25 126.25,-559.25"/>
</a>
</g>
</g>
<!-- Node5&#45;&gt;Node1 -->
<g id="edge4_Node000001_Node000005" class="edge">
<title>Node5&#45;&gt;Node1</title>
<g id="a_edge4_Node000001_Node000005"><a xlink:title=" ">
<path fill="none" stroke="#63b8ff" d="M197.38,-559.38C223.93,-524.16 269.75,-463.37 308.88,-411.44"/>
<polygon fill="none" stroke="#63b8ff" points="308.85,-411.49 309.26,-404.29 316.07,-401.91 315.65,-409.11 308.85,-411.49"/>
</a>
</g>
<text text-anchor="middle" x="266.04" y="-531.75" font-family="Helvetica,sans-Serif" font-size="10.00" fill="grey"> #foreign_members</text>
<text text-anchor="middle" x="266.04" y="-520.5" font-family="Helvetica,sans-Serif" font-size="10.00" fill="grey">#properties</text>
</g>
<!-- Node8 -->
<g id="Node000008" class="node">
<title>Node8</title>
<g id="a_Node000008"><a xlink:href="classgeojson_1_1_j_s_o_n_property.html" target="_top" xlink:title="@TODO: Convert JSONProperty into a variant of the supported types">
<polygon fill="white" stroke="none" points="300.88,-1015 191.62,-1015 191.62,-706 300.88,-706 300.88,-1015"/>
<text text-anchor="start" x="195.62" y="-1001.5" font-family="Helvetica,sans-Serif" font-size="10.00">geojson::JSONProperty</text>
<text text-anchor="start" x="201.38" y="-986.25" font-family="Helvetica,sans-Serif" font-size="10.00">&#45;</text>
<text text-anchor="start" x="214.12" y="-986.25" font-family="Helvetica,sans-Serif" font-size="10.00">type</text>
<text text-anchor="start" x="201.38" y="-971" font-family="Helvetica,sans-Serif" font-size="10.00">&#45;</text>
<text text-anchor="start" x="214.12" y="-971" font-family="Helvetica,sans-Serif" font-size="10.00">data</text>
<text text-anchor="start" x="199.88" y="-955.75" font-family="Helvetica,sans-Serif" font-size="10.00">+</text>
<text text-anchor="start" x="214.12" y="-955.75" font-family="Helvetica,sans-Serif" font-size="10.00">JSONProperty()</text>
<text text-anchor="start" x="199.88" y="-940.5" font-family="Helvetica,sans-Serif" font-size="10.00">+</text>
<text text-anchor="start" x="214.12" y="-940.5" font-family="Helvetica,sans-Serif" font-size="10.00">JSONProperty()</text>
<text text-anchor="start" x="199.88" y="-925.25" font-family="Helvetica,sans-Serif" font-size="10.00">+</text>
<text text-anchor="start" x="214.12" y="-925.25" font-family="Helvetica,sans-Serif" font-size="10.00">JSONProperty()</text>
<text text-anchor="start" x="199.88" y="-910" font-family="Helvetica,sans-Serif" font-size="10.00">+</text>
<text text-anchor="start" x="214.12" y="-910" font-family="Helvetica,sans-Serif" font-size="10.00">JSONProperty()</text>
<text text-anchor="start" x="199.88" y="-894.75" font-family="Helvetica,sans-Serif" font-size="10.00">+</text>
<text text-anchor="start" x="214.12" y="-894.75" font-family="Helvetica,sans-Serif" font-size="10.00">JSONProperty()</text>
<text text-anchor="start" x="199.88" y="-879.5" font-family="Helvetica,sans-Serif" font-size="10.00">+</text>
<text text-anchor="start" x="214.12" y="-879.5" font-family="Helvetica,sans-Serif" font-size="10.00">JSONProperty()</text>
<text text-anchor="start" x="199.88" y="-864.25" font-family="Helvetica,sans-Serif" font-size="10.00">+</text>
<text text-anchor="start" x="214.12" y="-864.25" font-family="Helvetica,sans-Serif" font-size="10.00">JSONProperty()</text>
<text text-anchor="start" x="199.88" y="-849" font-family="Helvetica,sans-Serif" font-size="10.00">+</text>
<text text-anchor="start" x="214.12" y="-849" font-family="Helvetica,sans-Serif" font-size="10.00">JSONProperty()</text>
<text text-anchor="start" x="199.88" y="-833.75" font-family="Helvetica,sans-Serif" font-size="10.00">+</text>
<text text-anchor="start" x="214.12" y="-833.75" font-family="Helvetica,sans-Serif" font-size="10.00">JSONProperty()</text>
<text text-anchor="start" x="199.88" y="-818.5" font-family="Helvetica,sans-Serif" font-size="10.00">+</text>
<text text-anchor="start" x="214.12" y="-818.5" font-family="Helvetica,sans-Serif" font-size="10.00">JSONProperty()</text>
<text text-anchor="start" x="199.88" y="-803.25" font-family="Helvetica,sans-Serif" font-size="10.00">+</text>
<text text-anchor="start" x="214.12" y="-803.25" font-family="Helvetica,sans-Serif" font-size="10.00">JSONProperty()</text>
<text text-anchor="start" x="199.88" y="-788" font-family="Helvetica,sans-Serif" font-size="10.00">+</text>
<text text-anchor="start" x="214.12" y="-788" font-family="Helvetica,sans-Serif" font-size="10.00">~JSONProperty()</text>
<text text-anchor="start" x="199.88" y="-772.75" font-family="Helvetica,sans-Serif" font-size="10.00">+</text>
<text text-anchor="start" x="214.12" y="-772.75" font-family="Helvetica,sans-Serif" font-size="10.00">JSONProperty()</text>
<text text-anchor="start" x="199.88" y="-757.5" font-family="Helvetica,sans-Serif" font-size="10.00">+</text>
<text text-anchor="start" x="214.12" y="-757.5" font-family="Helvetica,sans-Serif" font-size="10.00">JSONProperty()</text>
<text text-anchor="start" x="199.88" y="-742.25" font-family="Helvetica,sans-Serif" font-size="10.00">+</text>
<text text-anchor="start" x="214.12" y="-742.25" font-family="Helvetica,sans-Serif" font-size="10.00">get_type()</text>
<text text-anchor="start" x="214.12" y="-727" font-family="Helvetica,sans-Serif" font-size="10.00">and 17 more...</text>
<text text-anchor="start" x="199.88" y="-711.75" font-family="Helvetica,sans-Serif" font-size="10.00">+</text>
<text text-anchor="start" x="214.12" y="-711.75" font-family="Helvetica,sans-Serif" font-size="10.00">print_property()</text>
<polygon fill="#666666" stroke="#666666" points="191.62,-997.75 191.62,-997.75 300.88,-997.75 300.88,-997.75 191.62,-997.75"/>
<polygon fill="#666666" stroke="#666666" points="191.62,-967.25 191.62,-967.25 212.12,-967.25 212.12,-967.25 191.62,-967.25"/>
<polygon fill="#666666" stroke="#666666" points="212.12,-967.25 212.12,-967.25 300.88,-967.25 300.88,-967.25 212.12,-967.25"/>
<polygon fill="none" stroke="#666666" points="191.62,-706 191.62,-1015 300.88,-1015 300.88,-706 191.62,-706"/>
</a>
</g>
</g>
<!-- Node5&#45;&gt;Node8 -->
<g id="edge9_Node000008_Node000005" class="edge">
<title>Node5&#45;&gt;Node8</title>
<g id="a_edge9_Node000008_Node000005"><a xlink:title=" ">
<path fill="none" stroke="#63b8ff" d="M211.76,-620.12C216.68,-625.64 221.11,-631.74 224.25,-638.25 232.58,-655.5 238.51,-674.38 242.66,-693.6"/>
<polygon fill="none" stroke="#63b8ff" points="242.66,-693.61 247.73,-698.73 244.96,-705.39 239.88,-700.26 242.66,-693.61"/>
</a>
</g>
<text text-anchor="middle" x="257.19" y="-659.25" font-family="Helvetica,sans-Serif" font-size="10.00" fill="grey"> &#45;values</text>
</g>
<!-- Node6 -->
<g id="Node000006" class="node">
<title>Node6</title>
<g id="a_Node000006"><a xlink:title=" ">
<polygon fill="white" stroke="none" points="67.25,-1167.38 17.25,-1167.38 17.25,-1117.62 67.25,-1117.62 67.25,-1167.38"/>
<text text-anchor="start" x="21.25" y="-1153.88" font-family="Helvetica,sans-Serif" font-size="10.00">std::string</text>
<text text-anchor="start" x="40.75" y="-1138.62" font-family="Helvetica,sans-Serif" font-size="10.00"> </text>
<text text-anchor="start" x="40.75" y="-1123.38" font-family="Helvetica,sans-Serif" font-size="10.00"> </text>
<polygon fill="#666666" stroke="#666666" points="17.25,-1150.12 17.25,-1150.12 67.25,-1150.12 67.25,-1150.12 17.25,-1150.12"/>
<polygon fill="#666666" stroke="#666666" points="17.25,-1134.88 17.25,-1134.88 67.25,-1134.88 67.25,-1134.88 17.25,-1134.88"/>
<polygon fill="none" stroke="#666666" points="17.25,-1117.62 17.25,-1167.38 67.25,-1167.38 67.25,-1117.62 17.25,-1117.62"/>
</a>
</g>
</g>
<!-- Node6&#45;&gt;Node1 -->
<g id="edge18_Node000001_Node000006" class="edge">
<title>Node6&#45;&gt;Node1</title>
<g id="a_edge18_Node000001_Node000006"><a xlink:title=" ">
<path fill="none" stroke="#63b8ff" d="M36.42,-1117.67C19.29,-1042.17 -24.51,-803.56 61.25,-638.25 119.87,-525.26 231.91,-426.61 306.37,-369.34"/>
<polygon fill="none" stroke="#63b8ff" points="306.36,-369.36 308.71,-362.54 315.91,-362.09 313.55,-368.9 306.36,-369.36"/>
</a>
</g>
<text text-anchor="middle" x="68.75" y="-659.25" font-family="Helvetica,sans-Serif" font-size="10.00" fill="grey"> #id</text>
</g>
<!-- Node6&#45;&gt;Node5 -->
<g id="edge5_Node000005_Node000006" class="edge">
<title>Node6&#45;&gt;Node5</title>
<g id="a_edge5_Node000005_Node000006"><a xlink:title=" ">
<path fill="none" stroke="#63b8ff" d="M41.44,-1117.96C39.73,-1051.91 38.55,-859.67 75.75,-706 83.44,-674.25 83.46,-663.45 104.25,-638.25 107.85,-633.88 111.96,-629.77 116.33,-625.92"/>
<polygon fill="none" stroke="#63b8ff" points="116.21,-626.01 118.38,-619.14 125.56,-618.49 123.39,-625.37 116.21,-626.01"/>
</a>
</g>
<text text-anchor="middle" x="90" y="-856.62" font-family="Helvetica,sans-Serif" font-size="10.00" fill="grey"> +keys</text>
</g>
<!-- Node6&#45;&gt;Node8 -->
<g id="edge8_Node000008_Node000006" class="edge">
<title>Node6&#45;&gt;Node8</title>
<g id="a_edge8_Node000008_Node000006"><a xlink:title=" ">
<path fill="none" stroke="#63b8ff" d="M48.19,-1117.86C55.31,-1090.5 67.36,-1047.37 76,-1033 103.68,-987 146.23,-944.13 181.86,-912.76"/>
<polygon fill="none" stroke="#63b8ff" points="181.96,-912.68 183.88,-905.72 191.03,-904.82 189.12,-911.77 181.96,-912.68"/>
</a>
</g>
<text text-anchor="middle" x="86.12" y="-1059.62" font-family="Helvetica,sans-Serif" font-size="10.00" fill="grey"> &#45;key</text>
</g>
<!-- Node7 -->
<g id="Node000007" class="node">
<title>Node7</title>
<g id="a_Node000007"><a xlink:title=" ">
<polygon fill="white" stroke="none" points="84.5,-1281.25 0,-1281.25 0,-1220.25 84.5,-1220.25 84.5,-1281.25"/>
<text text-anchor="start" x="4" y="-1267.75" font-family="Helvetica,sans-Serif" font-size="10.00">std::basic_string&lt;</text>
<text text-anchor="start" x="26.88" y="-1256.5" font-family="Helvetica,sans-Serif" font-size="10.00"> Char &gt;</text>
<text text-anchor="start" x="40.75" y="-1241.25" font-family="Helvetica,sans-Serif" font-size="10.00"> </text>
<text text-anchor="start" x="40.75" y="-1226" font-family="Helvetica,sans-Serif" font-size="10.00"> </text>
<polygon fill="#666666" stroke="#666666" points="0,-1252.75 0,-1252.75 84.5,-1252.75 84.5,-1252.75 0,-1252.75"/>
<polygon fill="#666666" stroke="#666666" points="0,-1237.5 0,-1237.5 84.5,-1237.5 84.5,-1237.5 0,-1237.5"/>
<polygon fill="none" stroke="#666666" points="0,-1220.25 0,-1281.25 84.5,-1281.25 84.5,-1220.25 0,-1220.25"/>
</a>
</g>
</g>
<!-- Node7&#45;&gt;Node6 -->
<g id="edge6_Node000006_Node000007" class="edge">
<title>Node7&#45;&gt;Node6</title>
<g id="a_edge6_Node000006_Node000007"><a xlink:title=" ">
<path fill="none" stroke="#63b8ff" d="M42.25,-1209C42.25,-1194.92 42.25,-1179.62 42.25,-1167.35"/>
<polygon fill="none" stroke="#63b8ff" points="38.75,-1208.92 42.25,-1218.92 45.75,-1208.92 38.75,-1208.92"/>
</a>
</g>
</g>
<!-- Node8&#45;&gt;Node5 -->
<g id="edge7_Node000005_Node000008" class="edge">
<title>Node8&#45;&gt;Node5</title>
<g id="a_edge7_Node000005_Node000008"><a xlink:title=" ">
<path fill="none" stroke="#63b8ff" d="M191.68,-742.29C185.35,-724.44 179.87,-705.97 176.25,-688 172.65,-670.15 171.91,-650.08 172.25,-632.83"/>
<polygon fill="none" stroke="#63b8ff" points="172.25,-632.88 168.47,-626.74 172.68,-620.88 176.46,-627.02 172.25,-632.88"/>
</a>
</g>
<text text-anchor="middle" x="200.25" y="-659.25" font-family="Helvetica,sans-Serif" font-size="10.00" fill="grey"> +elements</text>
</g>
<!-- Node8&#45;&gt;Node9 -->
<g id="edge11_Node000009_Node000008" class="edge">
<title>Node8&#45;&gt;Node9</title>
<g id="a_edge11_Node000009_Node000008"><a xlink:title=" ">
<path fill="none" stroke="#63b8ff" d="M259.4,-1014.94C262.07,-1046.03 264.66,-1076.23 266.64,-1099.33"/>
<polygon fill="none" stroke="#63b8ff" points="266.63,-1099.21 271.12,-1104.85 267.65,-1111.17 263.15,-1105.53 266.63,-1099.21"/>
</a>
</g>
<text text-anchor="middle" x="289.66" y="-1059.62" font-family="Helvetica,sans-Serif" font-size="10.00" fill="grey"> +elements</text>
</g>
<!-- Node9&#45;&gt;Node8 -->
<g id="edge10_Node000008_Node000009" class="edge">
<title>Node9&#45;&gt;Node8</title>
<g id="a_edge10_Node000008_Node000009"><a xlink:title=" ">
<path fill="none" stroke="#63b8ff" d="M307.56,-1112.12C312.31,-1106.63 316.48,-1100.55 319.25,-1094 329.82,-1069.03 324.67,-1059.56 319.25,-1033 315.95,-1016.83 311.07,-1000.3 305.37,-984.18"/>
<polygon fill="none" stroke="#63b8ff" points="305.32,-984.06 299.49,-979.82 301.17,-972.81 307,-977.05 305.32,-984.06"/>
</a>
</g>
<text text-anchor="middle" x="348.64" y="-1059.62" font-family="Helvetica,sans-Serif" font-size="10.00" fill="grey"> &#45;value_list</text>
</g>
<!-- Node10&#45;&gt;Node5 -->
<g id="edge13_Node000005_Node000010" class="edge">
<title>Node10&#45;&gt;Node5</title>
<g id="a_edge13_Node000005_Node000010"><a xlink:title=" ">
<path fill="none" stroke="orange" d="M151.05,-1215.19C143.21,-1183.84 132.54,-1136.19 128.25,-1094 109.94,-913.94 151.64,-697.36 168.54,-619.98"/>
<polygon fill="orange" stroke="orange" points="147.56,-1215.68 153.42,-1224.5 154.34,-1213.95 147.56,-1215.68"/>
</a>
</g>
<text text-anchor="middle" x="192.75" y="-1059.62" font-family="Helvetica,sans-Serif" font-size="10.00" fill="grey"> &lt; std::string, JSONProperty &gt;</text>
</g>
<!-- Node11 -->
<g id="Node000011" class="node">
<title>Node11</title>
<g id="a_Node000011"><a xlink:title=" ">
<polygon fill="white" stroke="none" points="167.62,-1378.25 152.88,-1378.25 152.88,-1328.5 167.62,-1328.5 167.62,-1378.25"/>
<text text-anchor="start" x="156.88" y="-1364.75" font-family="Helvetica,sans-Serif" font-size="10.00">K</text>
<text text-anchor="start" x="158.75" y="-1349.5" font-family="Helvetica,sans-Serif" font-size="10.00"> </text>
<text text-anchor="start" x="158.75" y="-1334.25" font-family="Helvetica,sans-Serif" font-size="10.00"> </text>
<polygon fill="#666666" stroke="#666666" points="152.88,-1361 152.88,-1361 167.62,-1361 167.62,-1361 152.88,-1361"/>
<polygon fill="#666666" stroke="#666666" points="152.88,-1345.75 152.88,-1345.75 167.62,-1345.75 167.62,-1345.75 152.88,-1345.75"/>
<polygon fill="none" stroke="#666666" points="152.88,-1328.5 152.88,-1378.25 167.62,-1378.25 167.62,-1328.5 152.88,-1328.5"/>
</a>
</g>
</g>
<!-- Node11&#45;&gt;Node10 -->
<g id="edge14_Node000010_Node000011" class="edge">
<title>Node11&#45;&gt;Node10</title>
<g id="a_edge14_Node000010_Node000011"><a xlink:title=" ">
<path fill="none" stroke="#63b8ff" d="M160.25,-1328.53C160.25,-1316.5 160.25,-1301.65 160.25,-1288.22"/>
<polygon fill="none" stroke="#63b8ff" points="160.25,-1288.33 156.25,-1282.33 160.25,-1276.33 164.25,-1282.33 160.25,-1288.33"/>
</a>
</g>
<text text-anchor="middle" x="174.5" y="-1301" font-family="Helvetica,sans-Serif" font-size="10.00" fill="grey"> +keys</text>
</g>
<!-- Node12&#45;&gt;Node1 -->
<g id="edge16_Node000001_Node000012" class="edge">
<title>Node12&#45;&gt;Node1</title>
<g id="a_edge16_Node000001_Node000012"><a xlink:title=" ">
<path fill="none" stroke="#63b8ff" d="M391.43,-638.39C390.48,-611.13 388.83,-563.67 387.08,-513.45"/>
<polygon fill="none" stroke="#63b8ff" points="387.09,-513.53 382.88,-507.67 386.67,-501.53 390.88,-507.39 387.09,-513.53"/>
</a>
</g>
<text text-anchor="middle" x="424.03" y="-585.88" font-family="Helvetica,sans-Serif" font-size="10.00" fill="grey"> #bounding_box</text>
</g>
<!-- Node13&#45;&gt;Node1 -->
<g id="edge19_Node000001_Node000013" class="edge">
<title>Node13&#45;&gt;Node1</title>
<g id="a_edge19_Node000001_Node000013"><a xlink:title=" ">
<path fill="none" stroke="#63b8ff" d="M410.78,-50.72C399.17,-57.81 388.17,-67.11 381.5,-79 374.53,-91.43 369.44,-104.83 365.83,-118.72"/>
<polygon fill="none" stroke="#63b8ff" points="365.9,-118.45 368.47,-125.19 363.24,-130.16 360.67,-123.42 365.9,-118.45"/>
</a>
</g>
<text text-anchor="middle" x="408.88" y="-103.25" font-family="Helvetica,sans-Serif" font-size="10.00" fill="grey"> #destination</text>
<text text-anchor="middle" x="408.88" y="-92" font-family="Helvetica,sans-Serif" font-size="10.00" fill="grey">#neighbors</text>
<text text-anchor="middle" x="408.88" y="-80.75" font-family="Helvetica,sans-Serif" font-size="10.00" fill="grey">#origination</text>
</g>
</g>
</svg>
