<?xml version="1.0" encoding="UTF-8" standalone="no"?>
<!DOCTYPE svg PUBLIC "-//W3C//DTD SVG 1.1//EN"
 "http://www.w3.org/Graphics/SVG/1.1/DTD/svg11.dtd">
<!-- Generated by graphviz version 2.49.3 (20211027.1534)
 -->
<!-- Title: giuh::giuh_kernel_impl Pages: 1 -->
<svg width="157pt" height="757pt"
 viewBox="0.00 0.00 157.00 757.00" xmlns="http://www.w3.org/2000/svg" xmlns:xlink="http://www.w3.org/1999/xlink">
<g id="graph0" class="graph" transform="scale(1 1) rotate(0) translate(4 753)">
<title>giuh::giuh_kernel_impl</title>
<polygon fill="white" stroke="transparent" points="-4,4 -4,-753 153,-753 153,4 -4,4"/>
<!-- Node1 -->
<g id="node1" class="node">
<title>Node1</title>
<g id="a_node1"><a xlink:title="A concrete implementation of a GIUH calculation kernel.">
<polygon fill="#bfbfbf" stroke="black" points="0,-0.5 0,-277.5 149,-277.5 149,-0.5 0,-0.5"/>
<text text-anchor="middle" x="74.5" y="-265.5" font-family="Helvetica,sans-Serif" font-size="10.00">giuh::giuh_kernel_impl</text>
<polyline fill="none" stroke="black" points="0,-258.5 149,-258.5 "/>
<text text-anchor="start" x="8" y="-246.5" font-family="Helvetica,sans-Serif" font-size="10.00">&#45; cdf_cumulative_freqs</text>
<text text-anchor="start" x="8" y="-235.5" font-family="Helvetica,sans-Serif" font-size="10.00">&#45; cdf_times</text>
<text text-anchor="start" x="8" y="-224.5" font-family="Helvetica,sans-Serif" font-size="10.00">&#45; regularized_times_s</text>
<text text-anchor="start" x="8" y="-213.5" font-family="Helvetica,sans-Serif" font-size="10.00">&#45; interpolated_regularized_cdf</text>
<text text-anchor="start" x="8" y="-202.5" font-family="Helvetica,sans-Serif" font-size="10.00">&#45; interpolated_incremental</text>
<text text-anchor="start" x="8" y="-191.5" font-family="Helvetica,sans-Serif" font-size="10.00">_runoff</text>
<text text-anchor="start" x="8" y="-180.5" font-family="Helvetica,sans-Serif" font-size="10.00">&#45; carry_overs_list_head</text>
<polyline fill="none" stroke="black" points="0,-173.5 149,-173.5 "/>
<text text-anchor="start" x="8" y="-161.5" font-family="Helvetica,sans-Serif" font-size="10.00">+ giuh_kernel_impl()</text>
<text text-anchor="start" x="8" y="-150.5" font-family="Helvetica,sans-Serif" font-size="10.00">+ giuh_kernel_impl()</text>
<text text-anchor="start" x="8" y="-139.5" font-family="Helvetica,sans-Serif" font-size="10.00">+ ~giuh_kernel_impl()</text>
<text text-anchor="start" x="8" y="-128.5" font-family="Helvetica,sans-Serif" font-size="10.00">+ calc_giuh_output()</text>
<text text-anchor="start" x="8" y="-117.5" font-family="Helvetica,sans-Serif" font-size="10.00">+ get_interpolated_incremental</text>
<text text-anchor="start" x="8" y="-106.5" font-family="Helvetica,sans-Serif" font-size="10.00">_runoff()</text>
<text text-anchor="start" x="8" y="-95.5" font-family="Helvetica,sans-Serif" font-size="10.00">+ get_regularized_times_s()</text>
<text text-anchor="start" x="8" y="-84.5" font-family="Helvetica,sans-Serif" font-size="10.00">+ get_interpolated_regularized</text>
<text text-anchor="start" x="8" y="-73.5" font-family="Helvetica,sans-Serif" font-size="10.00">_cdf()</text>
<text text-anchor="start" x="8" y="-62.5" font-family="Helvetica,sans-Serif" font-size="10.00">+ set_interpolation_regularity</text>
<text text-anchor="start" x="8" y="-51.5" font-family="Helvetica,sans-Serif" font-size="10.00">_seconds()</text>
<text text-anchor="start" x="8" y="-40.5" font-family="Helvetica,sans-Serif" font-size="10.00">+ make_from_incremental</text>
<text text-anchor="start" x="8" y="-29.5" font-family="Helvetica,sans-Serif" font-size="10.00">_runoffs()</text>
<text text-anchor="start" x="8" y="-18.5" font-family="Helvetica,sans-Serif" font-size="10.00">&#45; interpolate_regularized</text>
<text text-anchor="start" x="8" y="-7.5" font-family="Helvetica,sans-Serif" font-size="10.00">_cdf()</text>
</a>
</g>
</g>
<!-- Node2 -->
<g id="node2" class="node">
<title>Node2</title>
<g id="a_node2"><a xlink:href="classgiuh_1_1giuh__kernel.html" target="_top" xlink:title="Pseudo&#45;abstract class declaring the interface for a GIUH calculation kernel for a catchment.">
<polygon fill="white" stroke="black" points="0,-315.5 0,-526.5 149,-526.5 149,-315.5 0,-315.5"/>
<text text-anchor="middle" x="74.5" y="-514.5" font-family="Helvetica,sans-Serif" font-size="10.00">giuh::giuh_kernel</text>
<polyline fill="none" stroke="black" points="0,-507.5 149,-507.5 "/>
<text text-anchor="start" x="8" y="-495.5" font-family="Helvetica,sans-Serif" font-size="10.00">&#45; interpolation_regularity</text>
<text text-anchor="start" x="8" y="-484.5" font-family="Helvetica,sans-Serif" font-size="10.00">_seconds</text>
<polyline fill="none" stroke="black" points="0,-477.5 149,-477.5 "/>
<text text-anchor="start" x="8" y="-465.5" font-family="Helvetica,sans-Serif" font-size="10.00">+ giuh_kernel()</text>
<text text-anchor="start" x="8" y="-454.5" font-family="Helvetica,sans-Serif" font-size="10.00">+ giuh_kernel()</text>
<text text-anchor="start" x="8" y="-443.5" font-family="Helvetica,sans-Serif" font-size="10.00">+ calc_giuh_output()</text>
<text text-anchor="start" x="8" y="-432.5" font-family="Helvetica,sans-Serif" font-size="10.00">+ get_catchment_id()</text>
<text text-anchor="start" x="8" y="-421.5" font-family="Helvetica,sans-Serif" font-size="10.00">+ get_comid()</text>
<text text-anchor="start" x="8" y="-410.5" font-family="Helvetica,sans-Serif" font-size="10.00">+ get_regularized_times_s()</text>
<text text-anchor="start" x="8" y="-399.5" font-family="Helvetica,sans-Serif" font-size="10.00">+ get_interpolation_regularity</text>
<text text-anchor="start" x="8" y="-388.5" font-family="Helvetica,sans-Serif" font-size="10.00">_seconds()</text>
<text text-anchor="start" x="8" y="-377.5" font-family="Helvetica,sans-Serif" font-size="10.00">+ get_interpolated_incremental</text>
<text text-anchor="start" x="8" y="-366.5" font-family="Helvetica,sans-Serif" font-size="10.00">_runoff()</text>
<text text-anchor="start" x="8" y="-355.5" font-family="Helvetica,sans-Serif" font-size="10.00">+ get_interpolated_regularized</text>
<text text-anchor="start" x="8" y="-344.5" font-family="Helvetica,sans-Serif" font-size="10.00">_cdf()</text>
<text text-anchor="start" x="8" y="-333.5" font-family="Helvetica,sans-Serif" font-size="10.00">+ set_interpolation_regularity</text>
<text text-anchor="start" x="8" y="-322.5" font-family="Helvetica,sans-Serif" font-size="10.00">_seconds()</text>
</a>
</g>
</g>
<!-- Node2&#45;&gt;Node1 -->
<g id="edge1" class="edge">
<title>Node2&#45;&gt;Node1</title>
<path fill="none" stroke="midnightblue" d="M74.5,-305.2C74.5,-296.15 74.5,-286.96 74.5,-277.78"/>
<polygon fill="none" stroke="midnightblue" points="71,-305.34 74.5,-315.34 78,-305.34 71,-305.34"/>
</g>
<!-- Node3 -->
<g id="node3" class="node">
<title>Node3</title>
<g id="a_node3"><a xlink:title=" ">
<polygon fill="white" stroke="#bfbfbf" points="45,-585.5 45,-642.5 104,-642.5 104,-585.5 45,-585.5"/>
<text text-anchor="middle" x="74.5" y="-630.5" font-family="Helvetica,sans-Serif" font-size="10.00">std::string</text>
<polyline fill="none" stroke="#bfbfbf" points="45,-623.5 104,-623.5 "/>
<text text-anchor="middle" x="74.5" y="-611.5" font-family="Helvetica,sans-Serif" font-size="10.00"> </text>
<polyline fill="none" stroke="#bfbfbf" points="45,-604.5 104,-604.5 "/>
<text text-anchor="middle" x="74.5" y="-592.5" font-family="Helvetica,sans-Serif" font-size="10.00"> </text>
</a>
</g>
</g>
<!-- Node3&#45;&gt;Node2 -->
<g id="edge2" class="edge">
<title>Node3&#45;&gt;Node2</title>
<path fill="none" stroke="#404040" d="M74.5,-585.23C74.5,-572.37 74.5,-556.13 74.5,-538.91"/>
<polygon fill="none" stroke="#404040" points="74.5,-538.86 70.5,-532.86 74.5,-526.86 78.5,-532.86 74.5,-538.86"/>
<text text-anchor="middle" x="108" y="-559" font-family="Helvetica,sans-Serif" font-size="10.00"> #catchment_id</text>
<text text-anchor="middle" x="108" y="-548" font-family="Helvetica,sans-Serif" font-size="10.00">#comid</text>
</g>
<!-- Node4 -->
<g id="node4" class="node">
<title>Node4</title>
<g id="a_node4"><a xlink:title=" ">
<polygon fill="white" stroke="#bfbfbf" points="28,-680.5 28,-748.5 121,-748.5 121,-680.5 28,-680.5"/>
<text text-anchor="start" x="36" y="-736.5" font-family="Helvetica,sans-Serif" font-size="10.00">std::basic_string&lt;</text>
<text text-anchor="middle" x="74.5" y="-725.5" font-family="Helvetica,sans-Serif" font-size="10.00"> Char &gt;</text>
<polyline fill="none" stroke="#bfbfbf" points="28,-718.5 121,-718.5 "/>
<text text-anchor="middle" x="74.5" y="-706.5" font-family="Helvetica,sans-Serif" font-size="10.00"> </text>
<polyline fill="none" stroke="#bfbfbf" points="28,-699.5 121,-699.5 "/>
<text text-anchor="middle" x="74.5" y="-687.5" font-family="Helvetica,sans-Serif" font-size="10.00"> </text>
</a>
</g>
</g>
<!-- Node4&#45;&gt;Node3 -->
<g id="edge3" class="edge">
<title>Node4&#45;&gt;Node3</title>
<path fill="none" stroke="midnightblue" d="M74.5,-670.38C74.5,-660.94 74.5,-651.2 74.5,-642.57"/>
<polygon fill="none" stroke="midnightblue" points="71,-670.43 74.5,-680.43 78,-670.43 71,-670.43"/>
</g>
</g>
</svg>
