<?xml version="1.0" encoding="UTF-8" standalone="no"?>
<!DOCTYPE svg PUBLIC "-//W3C//DTD SVG 1.1//EN"
 "http://www.w3.org/Graphics/SVG/1.1/DTD/svg11.dtd">
<!-- Generated by graphviz version 2.44.0 ()
 -->
<!-- Title: giuh::giuh_kernel_impl Pages: 1 -->
<svg width="567pt" height="755pt"
 viewBox="0.00 0.00 566.50 755.00" xmlns="http://www.w3.org/2000/svg" xmlns:xlink="http://www.w3.org/1999/xlink">
<g id="graph0" class="graph" transform="scale(1 1) rotate(0) translate(4 751)">
<title>giuh::giuh_kernel_impl</title>
<polygon fill="white" stroke="transparent" points="-4,4 -4,-751 562.5,-751 562.5,4 -4,4"/>
<!-- Node1 -->
<g id="node1" class="node">
<title>Node1</title>
<g id="a_node1"><a xlink:title="A concrete implementation of a GIUH calculation kernel.">
<polygon fill="#bfbfbf" stroke="black" points="188,-0.5 188,-211.5 337,-211.5 337,-0.5 188,-0.5"/>
<text text-anchor="middle" x="262.5" y="-199.5" font-family="Helvetica,sans-Serif" font-size="10.00">giuh::giuh_kernel_impl</text>
<polyline fill="none" stroke="black" points="188,-192.5 337,-192.5 "/>
<text text-anchor="middle" x="262.5" y="-180.5" font-family="Helvetica,sans-Serif" font-size="10.00"> </text>
<polyline fill="none" stroke="black" points="188,-173.5 337,-173.5 "/>
<text text-anchor="start" x="196" y="-161.5" font-family="Helvetica,sans-Serif" font-size="10.00">+ giuh_kernel_impl()</text>
<text text-anchor="start" x="196" y="-150.5" font-family="Helvetica,sans-Serif" font-size="10.00">+ giuh_kernel_impl()</text>
<text text-anchor="start" x="196" y="-139.5" font-family="Helvetica,sans-Serif" font-size="10.00">+ ~giuh_kernel_impl()</text>
<text text-anchor="start" x="196" y="-128.5" font-family="Helvetica,sans-Serif" font-size="10.00">+ calc_giuh_output()</text>
<text text-anchor="start" x="196" y="-117.5" font-family="Helvetica,sans-Serif" font-size="10.00">+ get_interpolated_incremental</text>
<text text-anchor="start" x="196" y="-106.5" font-family="Helvetica,sans-Serif" font-size="10.00">_runoff()</text>
<text text-anchor="start" x="196" y="-95.5" font-family="Helvetica,sans-Serif" font-size="10.00">+ get_regularized_times_s()</text>
<text text-anchor="start" x="196" y="-84.5" font-family="Helvetica,sans-Serif" font-size="10.00">+ get_interpolated_regularized</text>
<text text-anchor="start" x="196" y="-73.5" font-family="Helvetica,sans-Serif" font-size="10.00">_cdf()</text>
<text text-anchor="start" x="196" y="-62.5" font-family="Helvetica,sans-Serif" font-size="10.00">+ set_interpolation_regularity</text>
<text text-anchor="start" x="196" y="-51.5" font-family="Helvetica,sans-Serif" font-size="10.00">_seconds()</text>
<text text-anchor="start" x="196" y="-40.5" font-family="Helvetica,sans-Serif" font-size="10.00">+ make_from_incremental</text>
<text text-anchor="start" x="196" y="-29.5" font-family="Helvetica,sans-Serif" font-size="10.00">_runoffs()</text>
<text text-anchor="start" x="196" y="-18.5" font-family="Helvetica,sans-Serif" font-size="10.00">&#45; interpolate_regularized</text>
<text text-anchor="start" x="196" y="-7.5" font-family="Helvetica,sans-Serif" font-size="10.00">_cdf()</text>
</a>
</g>
</g>
<!-- Node2 -->
<g id="node2" class="node">
<title>Node2</title>
<g id="a_node2"><a xlink:href="classgiuh_1_1giuh__kernel.html" target="_top" xlink:title="Pseudo&#45;abstract class declaring the interface for a GIUH calculation kernel for a catchment.">
<polygon fill="white" stroke="black" points="0,-303.5 0,-514.5 149,-514.5 149,-303.5 0,-303.5"/>
<text text-anchor="middle" x="74.5" y="-502.5" font-family="Helvetica,sans-Serif" font-size="10.00">giuh::giuh_kernel</text>
<polyline fill="none" stroke="black" points="0,-495.5 149,-495.5 "/>
<text text-anchor="start" x="8" y="-483.5" font-family="Helvetica,sans-Serif" font-size="10.00">&#45; interpolation_regularity</text>
<text text-anchor="start" x="8" y="-472.5" font-family="Helvetica,sans-Serif" font-size="10.00">_seconds</text>
<polyline fill="none" stroke="black" points="0,-465.5 149,-465.5 "/>
<text text-anchor="start" x="8" y="-453.5" font-family="Helvetica,sans-Serif" font-size="10.00">+ giuh_kernel()</text>
<text text-anchor="start" x="8" y="-442.5" font-family="Helvetica,sans-Serif" font-size="10.00">+ giuh_kernel()</text>
<text text-anchor="start" x="8" y="-431.5" font-family="Helvetica,sans-Serif" font-size="10.00">+ calc_giuh_output()</text>
<text text-anchor="start" x="8" y="-420.5" font-family="Helvetica,sans-Serif" font-size="10.00">+ get_catchment_id()</text>
<text text-anchor="start" x="8" y="-409.5" font-family="Helvetica,sans-Serif" font-size="10.00">+ get_comid()</text>
<text text-anchor="start" x="8" y="-398.5" font-family="Helvetica,sans-Serif" font-size="10.00">+ get_regularized_times_s()</text>
<text text-anchor="start" x="8" y="-387.5" font-family="Helvetica,sans-Serif" font-size="10.00">+ get_interpolation_regularity</text>
<text text-anchor="start" x="8" y="-376.5" font-family="Helvetica,sans-Serif" font-size="10.00">_seconds()</text>
<text text-anchor="start" x="8" y="-365.5" font-family="Helvetica,sans-Serif" font-size="10.00">+ get_interpolated_incremental</text>
<text text-anchor="start" x="8" y="-354.5" font-family="Helvetica,sans-Serif" font-size="10.00">_runoff()</text>
<text text-anchor="start" x="8" y="-343.5" font-family="Helvetica,sans-Serif" font-size="10.00">+ get_interpolated_regularized</text>
<text text-anchor="start" x="8" y="-332.5" font-family="Helvetica,sans-Serif" font-size="10.00">_cdf()</text>
<text text-anchor="start" x="8" y="-321.5" font-family="Helvetica,sans-Serif" font-size="10.00">+ set_interpolation_regularity</text>
<text text-anchor="start" x="8" y="-310.5" font-family="Helvetica,sans-Serif" font-size="10.00">_seconds()</text>
</a>
</g>
</g>
<!-- Node2&#45;&gt;Node1 -->
<g id="edge1" class="edge">
<title>Node2&#45;&gt;Node1</title>
<path fill="none" stroke="midnightblue" d="M145.45,-294.4C162.39,-267.27 180.4,-238.44 197.09,-211.73"/>
<polygon fill="none" stroke="midnightblue" points="142.32,-292.81 139.99,-303.15 148.26,-296.52 142.32,-292.81"/>
</g>
<!-- Node3 -->
<g id="node3" class="node">
<title>Node3</title>
<g id="a_node3"><a xlink:title=" ">
<polygon fill="white" stroke="#bfbfbf" points="45,-573.5 45,-630.5 104,-630.5 104,-573.5 45,-573.5"/>
<text text-anchor="middle" x="74.5" y="-618.5" font-family="Helvetica,sans-Serif" font-size="10.00">std::string</text>
<polyline fill="none" stroke="#bfbfbf" points="45,-611.5 104,-611.5 "/>
<text text-anchor="middle" x="74.5" y="-599.5" font-family="Helvetica,sans-Serif" font-size="10.00"> </text>
<polyline fill="none" stroke="#bfbfbf" points="45,-592.5 104,-592.5 "/>
<text text-anchor="middle" x="74.5" y="-580.5" font-family="Helvetica,sans-Serif" font-size="10.00"> </text>
</a>
</g>
</g>
<!-- Node3&#45;&gt;Node2 -->
<g id="edge2" class="edge">
<title>Node3&#45;&gt;Node2</title>
<path fill="none" stroke="#404040" d="M74.5,-573.23C74.5,-560.37 74.5,-544.13 74.5,-526.91"/>
<polygon fill="none" stroke="#404040" points="74.5,-526.86 70.5,-520.86 74.5,-514.86 78.5,-520.86 74.5,-526.86"/>
<text text-anchor="middle" x="108" y="-547" font-family="Helvetica,sans-Serif" font-size="10.00"> #catchment_id</text>
<text text-anchor="middle" x="108" y="-536" font-family="Helvetica,sans-Serif" font-size="10.00">#comid</text>
</g>
<!-- Node4 -->
<g id="node4" class="node">
<title>Node4</title>
<g id="a_node4"><a xlink:title=" ">
<polygon fill="white" stroke="#bfbfbf" points="28,-678.5 28,-746.5 121,-746.5 121,-678.5 28,-678.5"/>
<text text-anchor="start" x="36" y="-734.5" font-family="Helvetica,sans-Serif" font-size="10.00">std::basic_string&lt;</text>
<text text-anchor="middle" x="74.5" y="-723.5" font-family="Helvetica,sans-Serif" font-size="10.00"> Char &gt;</text>
<polyline fill="none" stroke="#bfbfbf" points="28,-716.5 121,-716.5 "/>
<text text-anchor="middle" x="74.5" y="-704.5" font-family="Helvetica,sans-Serif" font-size="10.00"> </text>
<polyline fill="none" stroke="#bfbfbf" points="28,-697.5 121,-697.5 "/>
<text text-anchor="middle" x="74.5" y="-685.5" font-family="Helvetica,sans-Serif" font-size="10.00"> </text>
</a>
</g>
</g>
<!-- Node4&#45;&gt;Node3 -->
<g id="edge3" class="edge">
<title>Node4&#45;&gt;Node3</title>
<path fill="none" stroke="midnightblue" d="M74.5,-668.06C74.5,-655.51 74.5,-642.15 74.5,-630.83"/>
<polygon fill="none" stroke="midnightblue" points="71,-668.36 74.5,-678.36 78,-668.36 71,-668.36"/>
</g>
<!-- Node5 -->
<g id="node5" class="node">
<title>Node5</title>
<g id="a_node5"><a xlink:title=" ">
<polygon fill="white" stroke="#bfbfbf" points="167,-380.5 167,-437.5 256,-437.5 256,-380.5 167,-380.5"/>
<text text-anchor="middle" x="211.5" y="-425.5" font-family="Helvetica,sans-Serif" font-size="10.00">std::vector&lt; int &gt;</text>
<polyline fill="none" stroke="#bfbfbf" points="167,-418.5 256,-418.5 "/>
<text text-anchor="start" x="175" y="-406.5" font-family="Helvetica,sans-Serif" font-size="10.00">+ elements</text>
<polyline fill="none" stroke="#bfbfbf" points="167,-399.5 256,-399.5 "/>
<text text-anchor="middle" x="211.5" y="-387.5" font-family="Helvetica,sans-Serif" font-size="10.00"> </text>
</a>
</g>
</g>
<!-- Node5&#45;&gt;Node1 -->
<g id="edge4" class="edge">
<title>Node5&#45;&gt;Node1</title>
<path fill="none" stroke="#404040" d="M206.69,-380.48C201.43,-345.18 195.16,-282.27 206.5,-230 206.97,-227.82 207.49,-225.62 208.04,-223.43"/>
<polygon fill="none" stroke="#404040" points="208.1,-223.22 205.88,-216.36 211.35,-211.67 213.58,-218.53 208.1,-223.22"/>
<text text-anchor="middle" x="252.5" y="-255" font-family="Helvetica,sans-Serif" font-size="10.00"> &#45;regularized_times_s</text>
</g>
<!-- Node6 -->
<g id="node6" class="node">
<title>Node6</title>
<g id="a_node6"><a xlink:title=" ">
<polygon fill="white" stroke="#bfbfbf" points="285.5,-573.5 285.5,-630.5 369.5,-630.5 369.5,-573.5 285.5,-573.5"/>
<text text-anchor="middle" x="327.5" y="-618.5" font-family="Helvetica,sans-Serif" font-size="10.00">std::vector&lt; T &gt;</text>
<polyline fill="none" stroke="#bfbfbf" points="285.5,-611.5 369.5,-611.5 "/>
<text text-anchor="middle" x="327.5" y="-599.5" font-family="Helvetica,sans-Serif" font-size="10.00"> </text>
<polyline fill="none" stroke="#bfbfbf" points="285.5,-592.5 369.5,-592.5 "/>
<text text-anchor="middle" x="327.5" y="-580.5" font-family="Helvetica,sans-Serif" font-size="10.00"> </text>
</a>
</g>
</g>
<!-- Node6&#45;&gt;Node5 -->
<g id="edge5" class="edge">
<title>Node6&#45;&gt;Node5</title>
<path fill="none" stroke="orange" d="M300.83,-564.98C298.35,-561.61 295.87,-558.24 293.5,-555 280.53,-537.28 275.93,-533.75 264.5,-515 249.09,-489.72 234.13,-459.39 224.06,-437.84"/>
<polygon fill="orange" stroke="orange" points="298.21,-567.33 306.96,-573.3 303.84,-563.17 298.21,-567.33"/>
<text text-anchor="middle" x="308.5" y="-541.5" font-family="Helvetica,sans-Serif" font-size="10.00"> &lt; int &gt;</text>
</g>
<!-- Node10 -->
<g id="node10" class="node">
<title>Node10</title>
<g id="a_node10"><a xlink:title=" ">
<polygon fill="white" stroke="#bfbfbf" points="274,-380.5 274,-437.5 381,-437.5 381,-380.5 274,-380.5"/>
<text text-anchor="middle" x="327.5" y="-425.5" font-family="Helvetica,sans-Serif" font-size="10.00">std::vector&lt; double &gt;</text>
<polyline fill="none" stroke="#bfbfbf" points="274,-418.5 381,-418.5 "/>
<text text-anchor="start" x="282" y="-406.5" font-family="Helvetica,sans-Serif" font-size="10.00">+ elements</text>
<polyline fill="none" stroke="#bfbfbf" points="274,-399.5 381,-399.5 "/>
<text text-anchor="middle" x="327.5" y="-387.5" font-family="Helvetica,sans-Serif" font-size="10.00"> </text>
</a>
</g>
</g>
<!-- Node6&#45;&gt;Node10 -->
<g id="edge11" class="edge">
<title>Node6&#45;&gt;Node10</title>
<path fill="none" stroke="orange" d="M327.5,-562.86C327.5,-525.91 327.5,-470.78 327.5,-437.81"/>
<polygon fill="orange" stroke="orange" points="324,-563.23 327.5,-573.23 331,-563.23 324,-563.23"/>
<text text-anchor="middle" x="351.5" y="-541.5" font-family="Helvetica,sans-Serif" font-size="10.00"> &lt; double &gt;</text>
</g>
<!-- Node7 -->
<g id="node7" class="node">
<title>Node7</title>
<g id="a_node7"><a xlink:title=" ">
<polygon fill="white" stroke="#bfbfbf" points="362,-684 362,-741 391,-741 391,-684 362,-684"/>
<text text-anchor="middle" x="376.5" y="-729" font-family="Helvetica,sans-Serif" font-size="10.00">T</text>
<polyline fill="none" stroke="#bfbfbf" points="362,-722 391,-722 "/>
<text text-anchor="middle" x="376.5" y="-710" font-family="Helvetica,sans-Serif" font-size="10.00"> </text>
<polyline fill="none" stroke="#bfbfbf" points="362,-703 391,-703 "/>
<text text-anchor="middle" x="376.5" y="-691" font-family="Helvetica,sans-Serif" font-size="10.00"> </text>
</a>
</g>
</g>
<!-- Node7&#45;&gt;Node6 -->
<g id="edge6" class="edge">
<title>Node7&#45;&gt;Node6</title>
<path fill="none" stroke="#404040" d="M364.01,-683.84C358.25,-671.09 351.31,-655.73 345.04,-641.84"/>
<polygon fill="none" stroke="#404040" points="344.91,-641.55 338.79,-637.72 339.97,-630.61 346.08,-634.43 344.91,-641.55"/>
<text text-anchor="middle" x="377" y="-652" font-family="Helvetica,sans-Serif" font-size="10.00"> +elements</text>
</g>
<!-- Node9 -->
<g id="node9" class="node">
<title>Node9</title>
<g id="a_node9"><a xlink:title=" ">
<polygon fill="white" stroke="#bfbfbf" points="394,-573.5 394,-630.5 497,-630.5 497,-573.5 394,-573.5"/>
<text text-anchor="middle" x="445.5" y="-618.5" font-family="Helvetica,sans-Serif" font-size="10.00">std::shared_ptr&lt; T &gt;</text>
<polyline fill="none" stroke="#bfbfbf" points="394,-611.5 497,-611.5 "/>
<text text-anchor="middle" x="445.5" y="-599.5" font-family="Helvetica,sans-Serif" font-size="10.00"> </text>
<polyline fill="none" stroke="#bfbfbf" points="394,-592.5 497,-592.5 "/>
<text text-anchor="start" x="402" y="-580.5" font-family="Helvetica,sans-Serif" font-size="10.00">+ operator&#45;&gt;()</text>
</a>
</g>
</g>
<!-- Node7&#45;&gt;Node9 -->
<g id="edge9" class="edge">
<title>Node7&#45;&gt;Node9</title>
<path fill="none" stroke="#404040" d="M391.13,-688.49C399.88,-674.74 411.2,-656.94 421.25,-641.13"/>
<polygon fill="none" stroke="#404040" points="421.52,-640.72 421.36,-633.51 427.95,-630.59 428.11,-637.8 421.52,-640.72"/>
<text text-anchor="middle" x="425.5" y="-652" font-family="Helvetica,sans-Serif" font-size="10.00"> +ptr</text>
</g>
<!-- Node8 -->
<g id="node8" class="node">
<title>Node8</title>
<g id="a_node8"><a xlink:title=" ">
<polygon fill="white" stroke="#bfbfbf" points="409,-375 409,-443 516,-443 516,-375 409,-375"/>
<text text-anchor="start" x="417" y="-431" font-family="Helvetica,sans-Serif" font-size="10.00">std::shared_ptr&lt; giuh</text>
<text text-anchor="middle" x="462.5" y="-420" font-family="Helvetica,sans-Serif" font-size="10.00">::giuh_carry_over &gt;</text>
<polyline fill="none" stroke="#bfbfbf" points="409,-413 516,-413 "/>
<text text-anchor="start" x="417" y="-401" font-family="Helvetica,sans-Serif" font-size="10.00">+ ptr</text>
<polyline fill="none" stroke="#bfbfbf" points="409,-394 516,-394 "/>
<text text-anchor="start" x="417" y="-382" font-family="Helvetica,sans-Serif" font-size="10.00">+ operator&#45;&gt;()</text>
</a>
</g>
</g>
<!-- Node8&#45;&gt;Node1 -->
<g id="edge7" class="edge">
<title>Node8&#45;&gt;Node1</title>
<path fill="none" stroke="#404040" d="M465.38,-374.88C467.06,-337.03 464.77,-274.59 437.5,-230 416.26,-195.27 381.12,-167.72 347.87,-147.58"/>
<polygon fill="none" stroke="#404040" points="347.52,-147.37 340.32,-147.79 337.17,-141.3 344.37,-140.89 347.52,-147.37"/>
<text text-anchor="middle" x="508.5" y="-255" font-family="Helvetica,sans-Serif" font-size="10.00"> &#45;carry_overs_list_head</text>
</g>
<!-- Node9&#45;&gt;Node8 -->
<g id="edge8" class="edge">
<title>Node9&#45;&gt;Node8</title>
<path fill="none" stroke="orange" d="M448.89,-562.94C452,-527.96 456.57,-476.64 459.54,-443.27"/>
<polygon fill="orange" stroke="orange" points="445.37,-562.96 447.97,-573.23 452.34,-563.58 445.37,-562.96"/>
<text text-anchor="start" x="451.5" y="-547" font-family="Helvetica,sans-Serif" font-size="10.00"> &lt; giuh::giuh_carry</text>
<text text-anchor="middle" x="490.5" y="-536" font-family="Helvetica,sans-Serif" font-size="10.00">_over &gt;</text>
</g>
<!-- Node10&#45;&gt;Node1 -->
<g id="edge10" class="edge">
<title>Node10&#45;&gt;Node1</title>
<path fill="none" stroke="#404040" d="M324.07,-380.35C319.46,-345.18 310.45,-282.67 298.5,-230 298.01,-227.86 297.51,-225.69 296.99,-223.52"/>
<polygon fill="none" stroke="#404040" points="296.97,-223.44 291.66,-218.57 294.11,-211.79 299.42,-216.66 296.97,-223.44"/>
<text text-anchor="middle" x="371.5" y="-277" font-family="Helvetica,sans-Serif" font-size="10.00"> &#45;cdf_cumulative_freqs</text>
<text text-anchor="middle" x="371.5" y="-266" font-family="Helvetica,sans-Serif" font-size="10.00">&#45;cdf_times</text>
<text text-anchor="start" x="309.5" y="-255" font-family="Helvetica,sans-Serif" font-size="10.00">&#45;interpolated_incremental</text>
<text text-anchor="middle" x="371.5" y="-244" font-family="Helvetica,sans-Serif" font-size="10.00">_runoff</text>
<text text-anchor="middle" x="371.5" y="-233" font-family="Helvetica,sans-Serif" font-size="10.00">&#45;interpolated_regularized_cdf</text>
</g>
</g>
</svg>
