<?xml version="1.0" encoding="UTF-8" standalone="no"?>
<!DOCTYPE svg PUBLIC "-//W3C//DTD SVG 1.1//EN"
 "http://www.w3.org/Graphics/SVG/1.1/DTD/svg11.dtd">
<!-- Generated by graphviz version 9.0.0 (20230911.1827)
 -->
<!-- Title: models::bmi::Bmi_Adapter Pages: 1 -->
<svg width="696pt" height="1231pt"
 viewBox="0.00 0.00 695.75 1231.00" xmlns="http://www.w3.org/2000/svg" xmlns:xlink="http://www.w3.org/1999/xlink">
<g id="graph0" class="graph" transform="scale(1 1) rotate(0) translate(4 1227)">
<title>models::bmi::Bmi_Adapter</title>
<!-- Node1 -->
<g id="Node000001" class="node">
<title>Node1</title>
<g id="a_Node000001"><a xlink:title="Abstract adapter interface for C++ classes to interact with the essential aspects of external models ...">
<polygon fill="#999999" stroke="none" points="338,-370 195,-370 195,0 338,0 338,-370"/>
<text text-anchor="start" x="210.25" y="-356.5" font-family="Helvetica,sans-Serif" font-size="10.00">models::bmi::Bmi_Adapter</text>
<text text-anchor="start" x="199.38" y="-341.5" font-family="Helvetica,sans-Serif" font-size="10.00">#</text>
<text text-anchor="start" x="209" y="-341.5" font-family="Helvetica,sans-Serif" font-size="10.00">allow_model_exceed</text>
<text text-anchor="start" x="209" y="-330.25" font-family="Helvetica,sans-Serif" font-size="10.00">_end_time</text>
<text text-anchor="start" x="199.38" y="-315.5" font-family="Helvetica,sans-Serif" font-size="10.00">#</text>
<text text-anchor="start" x="209" y="-315.5" font-family="Helvetica,sans-Serif" font-size="10.00">bmi_model_has_fixed</text>
<text text-anchor="start" x="209" y="-304.25" font-family="Helvetica,sans-Serif" font-size="10.00">_time_step</text>
<text text-anchor="start" x="199.38" y="-289.5" font-family="Helvetica,sans-Serif" font-size="10.00">#</text>
<text text-anchor="start" x="209" y="-289.5" font-family="Helvetica,sans-Serif" font-size="10.00">bmi_model_time_convert</text>
<text text-anchor="start" x="209" y="-278.25" font-family="Helvetica,sans-Serif" font-size="10.00">_factor</text>
<text text-anchor="start" x="199.38" y="-263.5" font-family="Helvetica,sans-Serif" font-size="10.00">#</text>
<text text-anchor="start" x="209" y="-263.5" font-family="Helvetica,sans-Serif" font-size="10.00">bmi_model_uses_forcing_file</text>
<text text-anchor="start" x="199.38" y="-248.5" font-family="Helvetica,sans-Serif" font-size="10.00">#</text>
<text text-anchor="start" x="209" y="-248.5" font-family="Helvetica,sans-Serif" font-size="10.00">model_initialized</text>
<text text-anchor="start" x="199" y="-233.5" font-family="Helvetica,sans-Serif" font-size="10.00">+</text>
<text text-anchor="start" x="209" y="-233.5" font-family="Helvetica,sans-Serif" font-size="10.00">Bmi_Adapter()</text>
<text text-anchor="start" x="199" y="-218.5" font-family="Helvetica,sans-Serif" font-size="10.00">+</text>
<text text-anchor="start" x="209" y="-218.5" font-family="Helvetica,sans-Serif" font-size="10.00">Bmi_Adapter()</text>
<text text-anchor="start" x="199" y="-203.5" font-family="Helvetica,sans-Serif" font-size="10.00">+</text>
<text text-anchor="start" x="209" y="-203.5" font-family="Helvetica,sans-Serif" font-size="10.00">Bmi_Adapter()</text>
<text text-anchor="start" x="199" y="-188.5" font-family="Helvetica,sans-Serif" font-size="10.00">+</text>
<text text-anchor="start" x="209" y="-188.5" font-family="Helvetica,sans-Serif" font-size="10.00">~Bmi_Adapter()</text>
<text text-anchor="start" x="199" y="-173.5" font-family="Helvetica,sans-Serif" font-size="10.00">+</text>
<text text-anchor="start" x="209" y="-173.5" font-family="Helvetica,sans-Serif" font-size="10.00">is_model_initialized()</text>
<text text-anchor="start" x="199" y="-158.5" font-family="Helvetica,sans-Serif" font-size="10.00">+</text>
<text text-anchor="start" x="209" y="-158.5" font-family="Helvetica,sans-Serif" font-size="10.00">get_time_convert_factor()</text>
<text text-anchor="start" x="199" y="-143.5" font-family="Helvetica,sans-Serif" font-size="10.00">+</text>
<text text-anchor="start" x="209" y="-143.5" font-family="Helvetica,sans-Serif" font-size="10.00">convert_model_time</text>
<text text-anchor="start" x="209" y="-132.25" font-family="Helvetica,sans-Serif" font-size="10.00">_to_seconds()</text>
<text text-anchor="start" x="199" y="-117.5" font-family="Helvetica,sans-Serif" font-size="10.00">+</text>
<text text-anchor="start" x="209" y="-117.5" font-family="Helvetica,sans-Serif" font-size="10.00">convert_seconds_to</text>
<text text-anchor="start" x="209" y="-106.25" font-family="Helvetica,sans-Serif" font-size="10.00">_model_time()</text>
<text text-anchor="start" x="199" y="-91.5" font-family="Helvetica,sans-Serif" font-size="10.00">+</text>
<text text-anchor="start" x="209" y="-91.5" font-family="Helvetica,sans-Serif" font-size="10.00">get_analogous_cxx_type()</text>
<text text-anchor="start" x="199" y="-76.5" font-family="Helvetica,sans-Serif" font-size="10.00">+</text>
<text text-anchor="start" x="209" y="-76.5" font-family="Helvetica,sans-Serif" font-size="10.00">Initialize()</text>
<text text-anchor="start" x="199" y="-61.5" font-family="Helvetica,sans-Serif" font-size="10.00">+</text>
<text text-anchor="start" x="209" y="-61.5" font-family="Helvetica,sans-Serif" font-size="10.00">Initialize()</text>
<text text-anchor="start" x="199" y="-46.5" font-family="Helvetica,sans-Serif" font-size="10.00">+</text>
<text text-anchor="start" x="209" y="-46.5" font-family="Helvetica,sans-Serif" font-size="10.00">isInitialized()</text>
<text text-anchor="start" x="199" y="-31.5" font-family="Helvetica,sans-Serif" font-size="10.00">+</text>
<text text-anchor="start" x="209" y="-31.5" font-family="Helvetica,sans-Serif" font-size="10.00">get_model_name()</text>
<text text-anchor="start" x="199.38" y="-16.5" font-family="Helvetica,sans-Serif" font-size="10.00">#</text>
<text text-anchor="start" x="209" y="-16.5" font-family="Helvetica,sans-Serif" font-size="10.00">construct_and_init</text>
<text text-anchor="start" x="209" y="-5.25" font-family="Helvetica,sans-Serif" font-size="10.00">_backing_model()</text>
<polygon fill="#666666" stroke="#666666" points="195,-353 195,-353 338,-353 338,-353 195,-353"/>
<polygon fill="#666666" stroke="#666666" points="195,-245 195,-245 207,-245 207,-245 195,-245"/>
<polygon fill="#666666" stroke="#666666" points="207,-245 207,-245 338,-245 338,-245 207,-245"/>
<polygon fill="none" stroke="#666666" points="195,0 195,-370 338,-370 338,0 195,0"/>
</a>
</g>
</g>
<!-- Node2 -->
<g id="Node000002" class="node">
<title>Node2</title>
<g id="a_Node000002"><a xlink:href="classbmi_1_1_bmi.html" target="_top" xlink:title=" ">
<polygon fill="white" stroke="none" points="115,-702.5 0,-702.5 0,-428.5 115,-428.5 115,-702.5"/>
<text text-anchor="start" x="38.75" y="-689" font-family="Helvetica,sans-Serif" font-size="10.00">bmi::Bmi</text>
<text text-anchor="start" x="56" y="-674" font-family="Helvetica,sans-Serif" font-size="10.00"> </text>
<text text-anchor="start" x="4" y="-659" font-family="Helvetica,sans-Serif" font-size="10.00">+</text>
<text text-anchor="start" x="14" y="-659" font-family="Helvetica,sans-Serif" font-size="10.00">~Bmi()</text>
<text text-anchor="start" x="4" y="-644" font-family="Helvetica,sans-Serif" font-size="10.00">+</text>
<text text-anchor="start" x="14" y="-644" font-family="Helvetica,sans-Serif" font-size="10.00">Initialize()</text>
<text text-anchor="start" x="4" y="-629" font-family="Helvetica,sans-Serif" font-size="10.00">+</text>
<text text-anchor="start" x="14" y="-629" font-family="Helvetica,sans-Serif" font-size="10.00">Update()</text>
<text text-anchor="start" x="4" y="-614" font-family="Helvetica,sans-Serif" font-size="10.00">+</text>
<text text-anchor="start" x="14" y="-614" font-family="Helvetica,sans-Serif" font-size="10.00">UpdateUntil()</text>
<text text-anchor="start" x="4" y="-599" font-family="Helvetica,sans-Serif" font-size="10.00">+</text>
<text text-anchor="start" x="14" y="-599" font-family="Helvetica,sans-Serif" font-size="10.00">Finalize()</text>
<text text-anchor="start" x="4" y="-584" font-family="Helvetica,sans-Serif" font-size="10.00">+</text>
<text text-anchor="start" x="14" y="-584" font-family="Helvetica,sans-Serif" font-size="10.00">GetComponentName()</text>
<text text-anchor="start" x="4" y="-569" font-family="Helvetica,sans-Serif" font-size="10.00">+</text>
<text text-anchor="start" x="14" y="-569" font-family="Helvetica,sans-Serif" font-size="10.00">GetInputItemCount()</text>
<text text-anchor="start" x="4" y="-554" font-family="Helvetica,sans-Serif" font-size="10.00">+</text>
<text text-anchor="start" x="14" y="-554" font-family="Helvetica,sans-Serif" font-size="10.00">GetOutputItemCount()</text>
<text text-anchor="start" x="4" y="-539" font-family="Helvetica,sans-Serif" font-size="10.00">+</text>
<text text-anchor="start" x="14" y="-539" font-family="Helvetica,sans-Serif" font-size="10.00">GetInputVarNames()</text>
<text text-anchor="start" x="4" y="-524" font-family="Helvetica,sans-Serif" font-size="10.00">+</text>
<text text-anchor="start" x="14" y="-524" font-family="Helvetica,sans-Serif" font-size="10.00">GetOutputVarNames()</text>
<text text-anchor="start" x="4" y="-509" font-family="Helvetica,sans-Serif" font-size="10.00">+</text>
<text text-anchor="start" x="14" y="-509" font-family="Helvetica,sans-Serif" font-size="10.00">GetVarGrid()</text>
<text text-anchor="start" x="4" y="-494" font-family="Helvetica,sans-Serif" font-size="10.00">+</text>
<text text-anchor="start" x="14" y="-494" font-family="Helvetica,sans-Serif" font-size="10.00">GetVarType()</text>
<text text-anchor="start" x="4" y="-479" font-family="Helvetica,sans-Serif" font-size="10.00">+</text>
<text text-anchor="start" x="14" y="-479" font-family="Helvetica,sans-Serif" font-size="10.00">GetVarUnits()</text>
<text text-anchor="start" x="4" y="-464" font-family="Helvetica,sans-Serif" font-size="10.00">+</text>
<text text-anchor="start" x="14" y="-464" font-family="Helvetica,sans-Serif" font-size="10.00">GetVarItemsize()</text>
<text text-anchor="start" x="4" y="-449" font-family="Helvetica,sans-Serif" font-size="10.00">+</text>
<text text-anchor="start" x="14" y="-449" font-family="Helvetica,sans-Serif" font-size="10.00">GetVarNbytes()</text>
<text text-anchor="start" x="14" y="-434" font-family="Helvetica,sans-Serif" font-size="10.00">and 27 more...</text>
<polygon fill="#666666" stroke="#666666" points="0,-685.5 0,-685.5 115,-685.5 115,-685.5 0,-685.5"/>
<polygon fill="#666666" stroke="#666666" points="0,-670.5 0,-670.5 115,-670.5 115,-670.5 0,-670.5"/>
<polygon fill="none" stroke="#666666" points="0,-428.5 0,-702.5 115,-702.5 115,-428.5 0,-428.5"/>
</a>
</g>
</g>
<!-- Node2&#45;&gt;Node1 -->
<g id="edge1_Node000001_Node000002" class="edge">
<title>Node2&#45;&gt;Node1</title>
<g id="a_edge1_Node000001_Node000002"><a xlink:title=" ">
<path fill="none" stroke="#63b8ff" d="M120.15,-434.79C121.27,-432.68 122.39,-430.58 123.5,-428.5 145.79,-386.94 171.6,-342.25 195.1,-302.7"/>
<polygon fill="none" stroke="#63b8ff" points="117.14,-432.99 115.61,-443.47 123.35,-436.24 117.14,-432.99"/>
</a>
</g>
</g>
<!-- Node3 -->
<g id="Node000003" class="node">
<title>Node3</title>
<g id="a_Node000003"><a xlink:title=" ">
<polygon fill="white" stroke="none" points="588.5,-943.75 536.5,-943.75 536.5,-894.75 588.5,-894.75 588.5,-943.75"/>
<text text-anchor="start" x="541.5" y="-930.25" font-family="Helvetica,sans-Serif" font-size="10.00">std::string</text>
<text text-anchor="start" x="561" y="-915.25" font-family="Helvetica,sans-Serif" font-size="10.00"> </text>
<text text-anchor="start" x="561" y="-900.25" font-family="Helvetica,sans-Serif" font-size="10.00"> </text>
<polygon fill="#666666" stroke="#666666" points="536.5,-926.75 536.5,-926.75 588.5,-926.75 588.5,-926.75 536.5,-926.75"/>
<polygon fill="#666666" stroke="#666666" points="536.5,-911.75 536.5,-911.75 588.5,-911.75 588.5,-911.75 536.5,-911.75"/>
<polygon fill="none" stroke="#666666" points="536.5,-894.75 536.5,-943.75 588.5,-943.75 588.5,-894.75 536.5,-894.75"/>
</a>
</g>
</g>
<!-- Node3&#45;&gt;Node1 -->
<g id="edge2_Node000001_Node000003" class="edge">
<title>Node3&#45;&gt;Node1</title>
<g id="a_edge2_Node000001_Node000003"><a xlink:title=" ">
<path fill="none" stroke="#63b8ff" d="M566.52,-894.79C577.91,-821.48 604.78,-591.88 526.5,-428.5 487.67,-347.46 408.93,-280.17 348.22,-237.2"/>
<polygon fill="none" stroke="#63b8ff" points="348.46,-237.37 341.25,-237.22 338.61,-230.5 345.82,-230.65 348.46,-237.37"/>
</a>
</g>
<text text-anchor="middle" x="623.75" y="-758" font-family="Helvetica,sans-Serif" font-size="10.00" fill="grey"> #bmi_init_config</text>
<text text-anchor="middle" x="623.75" y="-746.75" font-family="Helvetica,sans-Serif" font-size="10.00" fill="grey">#forcing_file_path</text>
<text text-anchor="middle" x="623.75" y="-735.5" font-family="Helvetica,sans-Serif" font-size="10.00" fill="grey">#init_exception_msg</text>
<text text-anchor="middle" x="623.75" y="-724.25" font-family="Helvetica,sans-Serif" font-size="10.00" fill="grey">#model_name</text>
</g>
<!-- Node9 -->
<g id="Node000009" class="node">
<title>Node9</title>
<g id="a_Node000009"><a xlink:title=" ">
<polygon fill="white" stroke="none" points="534,-842 421,-842 421,-793 534,-793 534,-842"/>
<text text-anchor="start" x="425.75" y="-828.5" font-family="Helvetica,sans-Serif" font-size="10.00">std::vector&lt; std::string &gt;</text>
<text text-anchor="start" x="476" y="-813.5" font-family="Helvetica,sans-Serif" font-size="10.00"> </text>
<text text-anchor="start" x="476" y="-798.5" font-family="Helvetica,sans-Serif" font-size="10.00"> </text>
<polygon fill="#666666" stroke="#666666" points="421,-825 421,-825 534,-825 534,-825 421,-825"/>
<polygon fill="#666666" stroke="#666666" points="421,-810 421,-810 534,-810 534,-810 421,-810"/>
<polygon fill="none" stroke="#666666" points="421,-793 421,-842 534,-842 534,-793 421,-793"/>
</a>
</g>
</g>
<!-- Node3&#45;&gt;Node9 -->
<g id="edge9_Node000009_Node000003" class="edge">
<title>Node3&#45;&gt;Node9</title>
<g id="a_edge9_Node000009_Node000003"><a xlink:title=" ">
<path fill="none" stroke="#63b8ff" d="M536.55,-905.63C524.25,-898.56 510.17,-888.75 500.5,-876.75 495.13,-870.08 490.88,-862.01 487.58,-854.02"/>
<polygon fill="none" stroke="#63b8ff" points="487.53,-853.88 481.73,-849.6 483.45,-842.6 489.25,-846.88 487.53,-853.88"/>
</a>
</g>
<text text-anchor="middle" x="524.5" y="-867.25" font-family="Helvetica,sans-Serif" font-size="10.00" fill="grey"> +elements</text>
</g>
<!-- Node11 -->
<g id="Node000011" class="node">
<title>Node11</title>
<g id="a_Node000011"><a xlink:href="classutils_1_1_stream_handler.html" target="_top" xlink:title="This class provides a copyable interface to a std::ostream or std::ostream like object that may not s...">
<polygon fill="white" stroke="none" points="230,-657.5 133,-657.5 133,-473.5 230,-473.5 230,-657.5"/>
<text text-anchor="start" x="137.62" y="-644" font-family="Helvetica,sans-Serif" font-size="10.00">utils::StreamHandler</text>
<text text-anchor="start" x="180" y="-629" font-family="Helvetica,sans-Serif" font-size="10.00"> </text>
<text text-anchor="start" x="137.5" y="-614" font-family="Helvetica,sans-Serif" font-size="10.00">+</text>
<text text-anchor="start" x="148" y="-614" font-family="Helvetica,sans-Serif" font-size="10.00">StreamHandler()</text>
<text text-anchor="start" x="137.5" y="-599" font-family="Helvetica,sans-Serif" font-size="10.00">+</text>
<text text-anchor="start" x="148" y="-599" font-family="Helvetica,sans-Serif" font-size="10.00">StreamHandler()</text>
<text text-anchor="start" x="137.5" y="-584" font-family="Helvetica,sans-Serif" font-size="10.00">+</text>
<text text-anchor="start" x="148" y="-584" font-family="Helvetica,sans-Serif" font-size="10.00">StreamHandler()</text>
<text text-anchor="start" x="137.5" y="-569" font-family="Helvetica,sans-Serif" font-size="10.00">+</text>
<text text-anchor="start" x="148" y="-569" font-family="Helvetica,sans-Serif" font-size="10.00">StreamHandler()</text>
<text text-anchor="start" x="137.5" y="-554" font-family="Helvetica,sans-Serif" font-size="10.00">+</text>
<text text-anchor="start" x="148" y="-554" font-family="Helvetica,sans-Serif" font-size="10.00">~StreamHandler()</text>
<text text-anchor="start" x="137.5" y="-539" font-family="Helvetica,sans-Serif" font-size="10.00">+</text>
<text text-anchor="start" x="148" y="-539" font-family="Helvetica,sans-Serif" font-size="10.00">operator=()</text>
<text text-anchor="start" x="137.5" y="-524" font-family="Helvetica,sans-Serif" font-size="10.00">+</text>
<text text-anchor="start" x="148" y="-524" font-family="Helvetica,sans-Serif" font-size="10.00">put()</text>
<text text-anchor="start" x="137.5" y="-509" font-family="Helvetica,sans-Serif" font-size="10.00">+</text>
<text text-anchor="start" x="148" y="-509" font-family="Helvetica,sans-Serif" font-size="10.00">put_indexed()</text>
<text text-anchor="start" x="137.5" y="-494" font-family="Helvetica,sans-Serif" font-size="10.00">+</text>
<text text-anchor="start" x="148" y="-494" font-family="Helvetica,sans-Serif" font-size="10.00">put_var()</text>
<text text-anchor="start" x="137.5" y="-479" font-family="Helvetica,sans-Serif" font-size="10.00">+</text>
<text text-anchor="start" x="148" y="-479" font-family="Helvetica,sans-Serif" font-size="10.00">operator&lt;&lt;()</text>
<polygon fill="#666666" stroke="#666666" points="133,-640.5 133,-640.5 230,-640.5 230,-640.5 133,-640.5"/>
<polygon fill="#666666" stroke="#666666" points="133,-625.5 133,-625.5 230,-625.5 230,-625.5 133,-625.5"/>
<polygon fill="none" stroke="#666666" points="133,-473.5 133,-657.5 230,-657.5 230,-473.5 133,-473.5"/>
</a>
</g>
</g>
<!-- Node3&#45;&gt;Node11 -->
<g id="edge20_Node000011_Node000003" class="edge">
<title>Node3&#45;&gt;Node11</title>
<g id="a_edge20_Node000011_Node000003"><a xlink:title=" ">
<path fill="none" stroke="#63b8ff" d="M588.22,-894.98C629.61,-854.83 701.62,-771.91 652.5,-720.5 622.23,-688.81 295.85,-725.43 258.5,-702.5 244.4,-693.85 232.66,-681.6 222.94,-667.97"/>
<polygon fill="none" stroke="#63b8ff" points="223,-668.07 216.36,-665.27 216.39,-658.06 223.03,-660.86 223,-668.07"/>
</a>
</g>
<text text-anchor="middle" x="676.12" y="-813.62" font-family="Helvetica,sans-Serif" font-size="10.00" fill="grey"> #sep</text>
</g>
<!-- Node4 -->
<g id="Node000004" class="node">
<title>Node4</title>
<g id="a_Node000004"><a xlink:title=" ">
<polygon fill="white" stroke="none" points="605.5,-1051 519.5,-1051 519.5,-991 605.5,-991 605.5,-1051"/>
<text text-anchor="start" x="524.25" y="-1037.5" font-family="Helvetica,sans-Serif" font-size="10.00">std::basic_string&lt;</text>
<text text-anchor="start" x="547.12" y="-1026.25" font-family="Helvetica,sans-Serif" font-size="10.00"> Char &gt;</text>
<text text-anchor="start" x="561" y="-1011.5" font-family="Helvetica,sans-Serif" font-size="10.00"> </text>
<text text-anchor="start" x="561" y="-996.5" font-family="Helvetica,sans-Serif" font-size="10.00"> </text>
<polygon fill="#666666" stroke="#666666" points="519.5,-1023 519.5,-1023 605.5,-1023 605.5,-1023 519.5,-1023"/>
<polygon fill="#666666" stroke="#666666" points="519.5,-1008 519.5,-1008 605.5,-1008 605.5,-1008 519.5,-1008"/>
<polygon fill="none" stroke="#666666" points="519.5,-991 519.5,-1051 605.5,-1051 605.5,-991 519.5,-991"/>
</a>
</g>
</g>
<!-- Node4&#45;&gt;Node3 -->
<g id="edge3_Node000003_Node000004" class="edge">
<title>Node4&#45;&gt;Node3</title>
<g id="a_edge3_Node000003_Node000004"><a xlink:title=" ">
<path fill="none" stroke="#63b8ff" d="M562.5,-979.74C562.5,-967.49 562.5,-954.42 562.5,-943.67"/>
<polygon fill="none" stroke="#63b8ff" points="559,-979.63 562.5,-989.63 566,-979.63 559,-979.63"/>
</a>
</g>
</g>
<!-- Node5 -->
<g id="Node000005" class="node">
<title>Node5</title>
<g id="a_Node000005"><a xlink:title=" ">
<polygon fill="white" stroke="none" points="320.5,-769.5 202.5,-769.5 202.5,-720.5 320.5,-720.5 320.5,-769.5"/>
<text text-anchor="start" x="207.12" y="-756" font-family="Helvetica,sans-Serif" font-size="10.00">std::shared_ptr&lt; double &gt;</text>
<text text-anchor="start" x="219" y="-741" font-family="Helvetica,sans-Serif" font-size="10.00">+</text>
<text text-anchor="start" x="241.5" y="-741" font-family="Helvetica,sans-Serif" font-size="10.00">ptr</text>
<text text-anchor="start" x="219" y="-726" font-family="Helvetica,sans-Serif" font-size="10.00">+</text>
<text text-anchor="start" x="241.5" y="-726" font-family="Helvetica,sans-Serif" font-size="10.00">operator&#45;&gt;()</text>
<polygon fill="#666666" stroke="#666666" points="202.5,-752.5 202.5,-752.5 320.5,-752.5 320.5,-752.5 202.5,-752.5"/>
<polygon fill="#666666" stroke="#666666" points="202.5,-737.5 202.5,-737.5 239.5,-737.5 239.5,-737.5 202.5,-737.5"/>
<polygon fill="#666666" stroke="#666666" points="239.5,-737.5 239.5,-737.5 320.5,-737.5 320.5,-737.5 239.5,-737.5"/>
<polygon fill="none" stroke="#666666" points="202.5,-720.5 202.5,-769.5 320.5,-769.5 320.5,-720.5 202.5,-720.5"/>
</a>
</g>
</g>
<!-- Node5&#45;&gt;Node1 -->
<g id="edge4_Node000001_Node000005" class="edge">
<title>Node5&#45;&gt;Node1</title>
<g id="a_edge4_Node000001_Node000005"><a xlink:title=" ">
<path fill="none" stroke="#63b8ff" d="M261.71,-720.73C262.22,-663.29 263.6,-510.15 264.74,-382.4"/>
<polygon fill="none" stroke="#63b8ff" points="264.74,-382.63 260.79,-376.59 264.85,-370.63 268.79,-376.66 264.74,-382.63"/>
</a>
</g>
<text text-anchor="middle" x="327.12" y="-561.62" font-family="Helvetica,sans-Serif" font-size="10.00" fill="grey"> #bmi_model_time_step_size</text>
</g>
<!-- Node6 -->
<g id="Node000006" class="node">
<title>Node6</title>
<g id="a_Node000006"><a xlink:title=" ">
<polygon fill="white" stroke="none" points="314.5,-943.75 218.5,-943.75 218.5,-894.75 314.5,-894.75 314.5,-943.75"/>
<text text-anchor="start" x="223.38" y="-930.25" font-family="Helvetica,sans-Serif" font-size="10.00">std::shared_ptr&lt; T &gt;</text>
<text text-anchor="start" x="265" y="-915.25" font-family="Helvetica,sans-Serif" font-size="10.00"> </text>
<text text-anchor="start" x="229.5" y="-900.25" font-family="Helvetica,sans-Serif" font-size="10.00">+</text>
<text text-anchor="start" x="246.5" y="-900.25" font-family="Helvetica,sans-Serif" font-size="10.00">operator&#45;&gt;()</text>
<polygon fill="#666666" stroke="#666666" points="218.5,-926.75 218.5,-926.75 314.5,-926.75 314.5,-926.75 218.5,-926.75"/>
<polygon fill="#666666" stroke="#666666" points="218.5,-911.75 218.5,-911.75 314.5,-911.75 314.5,-911.75 218.5,-911.75"/>
<polygon fill="none" stroke="#666666" points="218.5,-894.75 218.5,-943.75 314.5,-943.75 314.5,-894.75 218.5,-894.75"/>
</a>
</g>
</g>
<!-- Node6&#45;&gt;Node5 -->
<g id="edge5_Node000005_Node000006" class="edge">
<title>Node6&#45;&gt;Node5</title>
<g id="a_edge5_Node000005_Node000006"><a xlink:title=" ">
<path fill="none" stroke="orange" d="M264.53,-883.55C264.43,-881.25 264.33,-878.97 264.25,-876.75 262.83,-839.09 262.1,-795.29 261.76,-769.15"/>
<polygon fill="orange" stroke="orange" points="261.03,-883.67 265.03,-893.48 268.03,-883.32 261.03,-883.67"/>
</a>
</g>
<text text-anchor="middle" x="288.12" y="-867.25" font-family="Helvetica,sans-Serif" font-size="10.00" fill="grey"> &lt; double &gt;</text>
</g>
<!-- Node8 -->
<g id="Node000008" class="node">
<title>Node8</title>
<g id="a_Node000008"><a xlink:title=" ">
<polygon fill="white" stroke="none" points="517.5,-595.5 409.5,-595.5 409.5,-535.5 517.5,-535.5 517.5,-595.5"/>
<text text-anchor="start" x="414.38" y="-582" font-family="Helvetica,sans-Serif" font-size="10.00">std::shared_ptr&lt; std</text>
<text text-anchor="start" x="414.38" y="-570.75" font-family="Helvetica,sans-Serif" font-size="10.00">::vector&lt; std::string &gt; &gt;</text>
<text text-anchor="start" x="462" y="-556" font-family="Helvetica,sans-Serif" font-size="10.00"> </text>
<text text-anchor="start" x="423.5" y="-541" font-family="Helvetica,sans-Serif" font-size="10.00">+</text>
<text text-anchor="start" x="443.5" y="-541" font-family="Helvetica,sans-Serif" font-size="10.00">operator&#45;&gt;()</text>
<polygon fill="#666666" stroke="#666666" points="409.5,-567.5 409.5,-567.5 517.5,-567.5 517.5,-567.5 409.5,-567.5"/>
<polygon fill="#666666" stroke="#666666" points="409.5,-552.5 409.5,-552.5 517.5,-552.5 517.5,-552.5 409.5,-552.5"/>
<polygon fill="none" stroke="#666666" points="409.5,-535.5 409.5,-595.5 517.5,-595.5 517.5,-535.5 409.5,-535.5"/>
</a>
</g>
</g>
<!-- Node6&#45;&gt;Node8 -->
<g id="edge12_Node000008_Node000006" class="edge">
<title>Node6&#45;&gt;Node8</title>
<g id="a_edge12_Node000008_Node000006"><a xlink:title=" ">
<path fill="none" stroke="orange" d="M304.5,-886.55C307.1,-883.42 309.48,-880.14 311.5,-876.75 332.47,-841.59 317.22,-824.72 334.25,-787.5 353.41,-745.63 369.74,-741.95 393.5,-702.5 415.08,-666.67 436.6,-623.45 449.97,-595.5"/>
<polygon fill="orange" stroke="orange" points="301.99,-884.11 297.78,-893.83 307.13,-888.86 301.99,-884.11"/>
</a>
</g>
<text text-anchor="start" x="334.5" y="-819.25" font-family="Helvetica,sans-Serif" font-size="10.00" fill="grey"> &lt; std::vector&lt; std</text>
<text text-anchor="middle" x="373.12" y="-808" font-family="Helvetica,sans-Serif" font-size="10.00" fill="grey">::string &gt; &gt;</text>
</g>
<!-- Node12 -->
<g id="Node000012" class="node">
<title>Node12</title>
<g id="a_Node000012"><a xlink:title=" ">
<polygon fill="white" stroke="none" points="175,-847.5 80,-847.5 80,-787.5 175,-787.5 175,-847.5"/>
<text text-anchor="start" x="84.75" y="-834" font-family="Helvetica,sans-Serif" font-size="10.00">std::shared_ptr&lt; std</text>
<text text-anchor="start" x="103.5" y="-822.75" font-family="Helvetica,sans-Serif" font-size="10.00">::ostream &gt;</text>
<text text-anchor="start" x="126" y="-808" font-family="Helvetica,sans-Serif" font-size="10.00"> </text>
<text text-anchor="start" x="90.5" y="-793" font-family="Helvetica,sans-Serif" font-size="10.00">+</text>
<text text-anchor="start" x="107" y="-793" font-family="Helvetica,sans-Serif" font-size="10.00">operator&#45;&gt;()</text>
<polygon fill="#666666" stroke="#666666" points="80,-819.5 80,-819.5 175,-819.5 175,-819.5 80,-819.5"/>
<polygon fill="#666666" stroke="#666666" points="80,-804.5 80,-804.5 175,-804.5 175,-804.5 80,-804.5"/>
<polygon fill="none" stroke="#666666" points="80,-787.5 80,-847.5 175,-847.5 175,-787.5 80,-787.5"/>
</a>
</g>
</g>
<!-- Node6&#45;&gt;Node12 -->
<g id="edge19_Node000012_Node000006" class="edge">
<title>Node6&#45;&gt;Node12</title>
<g id="a_edge19_Node000012_Node000006"><a xlink:title=" ">
<path fill="none" stroke="orange" d="M208.46,-899.47C194.87,-893.49 181.01,-885.96 169.5,-876.75 159.48,-868.72 150.72,-857.73 143.83,-847.45"/>
<polygon fill="orange" stroke="orange" points="206.79,-902.57 217.37,-903.17 209.47,-896.1 206.79,-902.57"/>
</a>
</g>
<text text-anchor="middle" x="205.5" y="-867.25" font-family="Helvetica,sans-Serif" font-size="10.00" fill="grey"> &lt; std::ostream &gt;</text>
</g>
<!-- Node7 -->
<g id="Node000007" class="node">
<title>Node7</title>
<g id="a_Node000007"><a xlink:title=" ">
<polygon fill="white" stroke="none" points="310.5,-1045.5 294.5,-1045.5 294.5,-996.5 310.5,-996.5 310.5,-1045.5"/>
<text text-anchor="start" x="299.5" y="-1032" font-family="Helvetica,sans-Serif" font-size="10.00">T</text>
<text text-anchor="start" x="301" y="-1017" font-family="Helvetica,sans-Serif" font-size="10.00"> </text>
<text text-anchor="start" x="301" y="-1002" font-family="Helvetica,sans-Serif" font-size="10.00"> </text>
<polygon fill="#666666" stroke="#666666" points="294.5,-1028.5 294.5,-1028.5 310.5,-1028.5 310.5,-1028.5 294.5,-1028.5"/>
<polygon fill="#666666" stroke="#666666" points="294.5,-1013.5 294.5,-1013.5 310.5,-1013.5 310.5,-1013.5 294.5,-1013.5"/>
<polygon fill="none" stroke="#666666" points="294.5,-996.5 294.5,-1045.5 310.5,-1045.5 310.5,-996.5 294.5,-996.5"/>
</a>
</g>
</g>
<!-- Node7&#45;&gt;Node6 -->
<g id="edge6_Node000006_Node000007" class="edge">
<title>Node7&#45;&gt;Node6</title>
<g id="a_edge6_Node000006_Node000007"><a xlink:title=" ">
<path fill="none" stroke="#63b8ff" d="M294.51,-997.86C290.07,-985.56 284.44,-969.95 279.39,-955.96"/>
<polygon fill="none" stroke="#63b8ff" points="279.35,-955.85 273.55,-951.57 275.27,-944.56 281.07,-948.85 279.35,-955.85"/>
</a>
</g>
<text text-anchor="middle" x="294.25" y="-963.5" font-family="Helvetica,sans-Serif" font-size="10.00" fill="grey"> +ptr</text>
</g>
<!-- Node10 -->
<g id="Node000010" class="node">
<title>Node10</title>
<g id="a_Node000010"><a xlink:title=" ">
<polygon fill="white" stroke="none" points="414,-943.75 337,-943.75 337,-894.75 414,-894.75 414,-943.75"/>
<text text-anchor="start" x="341.75" y="-930.25" font-family="Helvetica,sans-Serif" font-size="10.00">std::vector&lt; T &gt;</text>
<text text-anchor="start" x="374" y="-915.25" font-family="Helvetica,sans-Serif" font-size="10.00"> </text>
<text text-anchor="start" x="374" y="-900.25" font-family="Helvetica,sans-Serif" font-size="10.00"> </text>
<polygon fill="#666666" stroke="#666666" points="337,-926.75 337,-926.75 414,-926.75 414,-926.75 337,-926.75"/>
<polygon fill="#666666" stroke="#666666" points="337,-911.75 337,-911.75 414,-911.75 414,-911.75 337,-911.75"/>
<polygon fill="none" stroke="#666666" points="337,-894.75 337,-943.75 414,-943.75 414,-894.75 337,-894.75"/>
</a>
</g>
</g>
<!-- Node7&#45;&gt;Node10 -->
<g id="edge11_Node000010_Node000007" class="edge">
<title>Node7&#45;&gt;Node10</title>
<g id="a_edge11_Node000010_Node000007"><a xlink:title=" ">
<path fill="none" stroke="#63b8ff" d="M310.31,-1009.33C319.93,-996.18 336.74,-973.22 350.87,-953.9"/>
<polygon fill="none" stroke="#63b8ff" points="350.77,-954.04 351.09,-946.84 357.86,-944.36 357.54,-951.56 350.77,-954.04"/>
</a>
</g>
<text text-anchor="middle" x="367.5" y="-963.5" font-family="Helvetica,sans-Serif" font-size="10.00" fill="grey"> +elements</text>
</g>
<!-- Node8&#45;&gt;Node1 -->
<g id="edge7_Node000001_Node000008" class="edge">
<title>Node8&#45;&gt;Node1</title>
<g id="a_edge7_Node000001_Node000008"><a xlink:title=" ">
<path fill="none" stroke="#63b8ff" d="M449.38,-535.74C435.77,-508.14 414.5,-465.33 395.5,-428.5 379.02,-396.56 361.07,-362.41 343.93,-330.12"/>
<polygon fill="none" stroke="#63b8ff" points="343.96,-330.17 337.61,-326.75 338.33,-319.58 344.68,-323 343.96,-330.17"/>
</a>
</g>
<text text-anchor="middle" x="428.25" y="-401" font-family="Helvetica,sans-Serif" font-size="10.00" fill="grey"> #input_var_names</text>
<text text-anchor="middle" x="428.25" y="-389.75" font-family="Helvetica,sans-Serif" font-size="10.00" fill="grey">#output_var_names</text>
</g>
<!-- Node9&#45;&gt;Node8 -->
<g id="edge8_Node000008_Node000009" class="edge">
<title>Node9&#45;&gt;Node8</title>
<g id="a_edge8_Node000008_Node000009"><a xlink:title=" ">
<path fill="none" stroke="#63b8ff" d="M476.21,-793.43C473.85,-751.28 468.81,-661.31 465.83,-608.19"/>
<polygon fill="none" stroke="#63b8ff" points="465.83,-608.09 461.5,-602.32 465.16,-596.11 469.49,-601.88 465.83,-608.09"/>
</a>
</g>
<text text-anchor="middle" x="485.25" y="-741.12" font-family="Helvetica,sans-Serif" font-size="10.00" fill="grey"> +ptr</text>
</g>
<!-- Node10&#45;&gt;Node9 -->
<g id="edge10_Node000009_Node000010" class="edge">
<title>Node10&#45;&gt;Node9</title>
<g id="a_edge10_Node000009_Node000010"><a xlink:title=" ">
<path fill="none" stroke="orange" d="M407.43,-887.02C422.41,-872.38 439.95,-855.22 453.74,-841.74"/>
<polygon fill="orange" stroke="orange" points="405.2,-884.31 400.5,-893.8 410.09,-889.32 405.2,-884.31"/>
</a>
</g>
<text text-anchor="middle" x="456.88" y="-867.25" font-family="Helvetica,sans-Serif" font-size="10.00" fill="grey"> &lt; std::string &gt;</text>
</g>
<!-- Node11&#45;&gt;Node1 -->
<g id="edge13_Node000001_Node000011" class="edge">
<title>Node11&#45;&gt;Node1</title>
<g id="a_edge13_Node000001_Node000011"><a xlink:title=" ">
<path fill="none" stroke="#63b8ff" d="M199.71,-473.68C205.39,-446.12 211.79,-415.79 218,-388 218.42,-386.13 218.84,-384.25 219.26,-382.36"/>
<polygon fill="none" stroke="#63b8ff" points="219.26,-382.38 216.68,-375.65 221.91,-370.68 224.49,-377.41 219.26,-382.38"/>
</a>
</g>
<text text-anchor="middle" x="235.75" y="-395.38" font-family="Helvetica,sans-Serif" font-size="10.00" fill="grey"> #output</text>
</g>
<!-- Node12&#45;&gt;Node11 -->
<g id="edge14_Node000011_Node000012" class="edge">
<title>Node12&#45;&gt;Node11</title>
<g id="a_edge14_Node000011_Node000012"><a xlink:title=" ">
<path fill="none" stroke="#63b8ff" d="M123.13,-787.71C121.01,-768.52 119.7,-742.82 123.75,-720.5 126.8,-703.66 131.6,-686.26 137.14,-669.48"/>
<polygon fill="none" stroke="#63b8ff" points="137.1,-669.6 135.27,-662.62 141.01,-658.25 142.84,-665.23 137.1,-669.6"/>
</a>
</g>
<text text-anchor="middle" x="159.38" y="-741.12" font-family="Helvetica,sans-Serif" font-size="10.00" fill="grey"> #output_stream</text>
</g>
<!-- Node13 -->
<g id="Node000013" class="node">
<title>Node13</title>
<g id="a_Node000013"><a xlink:title=" ">
<polygon fill="white" stroke="none" points="157,-943.75 94,-943.75 94,-894.75 157,-894.75 157,-943.75"/>
<text text-anchor="start" x="98.88" y="-930.25" font-family="Helvetica,sans-Serif" font-size="10.00">std::ostream</text>
<text text-anchor="start" x="124" y="-915.25" font-family="Helvetica,sans-Serif" font-size="10.00"> </text>
<text text-anchor="start" x="124" y="-900.25" font-family="Helvetica,sans-Serif" font-size="10.00"> </text>
<polygon fill="#666666" stroke="#666666" points="94,-926.75 94,-926.75 157,-926.75 157,-926.75 94,-926.75"/>
<polygon fill="#666666" stroke="#666666" points="94,-911.75 94,-911.75 157,-911.75 157,-911.75 94,-911.75"/>
<polygon fill="none" stroke="#666666" points="94,-894.75 94,-943.75 157,-943.75 157,-894.75 94,-894.75"/>
</a>
</g>
</g>
<!-- Node13&#45;&gt;Node12 -->
<g id="edge15_Node000012_Node000013" class="edge">
<title>Node13&#45;&gt;Node12</title>
<g id="a_edge15_Node000012_Node000013"><a xlink:title=" ">
<path fill="none" stroke="#63b8ff" d="M125.97,-894.86C126.18,-884.57 126.42,-872.16 126.66,-860.36"/>
<polygon fill="none" stroke="#63b8ff" points="126.66,-860.35 122.78,-854.27 126.9,-848.35 130.78,-854.43 126.66,-860.35"/>
</a>
</g>
<text text-anchor="middle" x="136.25" y="-867.25" font-family="Helvetica,sans-Serif" font-size="10.00" fill="grey"> +ptr</text>
</g>
<!-- Node14 -->
<g id="Node000014" class="node">
<title>Node14</title>
<g id="a_Node000014"><a xlink:title=" ">
<polygon fill="white" stroke="none" points="171,-1051 80,-1051 80,-991 171,-991 171,-1051"/>
<text text-anchor="start" x="84.62" y="-1037.5" font-family="Helvetica,sans-Serif" font-size="10.00">std::basic_ostream</text>
<text text-anchor="start" x="107.12" y="-1026.25" font-family="Helvetica,sans-Serif" font-size="10.00">&lt; Char &gt;</text>
<text text-anchor="start" x="124" y="-1011.5" font-family="Helvetica,sans-Serif" font-size="10.00"> </text>
<text text-anchor="start" x="124" y="-996.5" font-family="Helvetica,sans-Serif" font-size="10.00"> </text>
<polygon fill="#666666" stroke="#666666" points="80,-1023 80,-1023 171,-1023 171,-1023 80,-1023"/>
<polygon fill="#666666" stroke="#666666" points="80,-1008 80,-1008 171,-1008 171,-1008 80,-1008"/>
<polygon fill="none" stroke="#666666" points="80,-991 80,-1051 171,-1051 171,-991 80,-991"/>
</a>
</g>
</g>
<!-- Node14&#45;&gt;Node13 -->
<g id="edge16_Node000013_Node000014" class="edge">
<title>Node14&#45;&gt;Node13</title>
<g id="a_edge16_Node000013_Node000014"><a xlink:title=" ">
<path fill="none" stroke="#63b8ff" d="M125.5,-979.74C125.5,-967.49 125.5,-954.42 125.5,-943.67"/>
<polygon fill="none" stroke="#63b8ff" points="122,-979.63 125.5,-989.63 129,-979.63 122,-979.63"/>
</a>
</g>
</g>
<!-- Node15 -->
<g id="Node000015" class="node">
<title>Node15</title>
<g id="a_Node000015"><a xlink:title=" ">
<polygon fill="white" stroke="none" points="178.5,-1137 72.5,-1137 72.5,-1088 178.5,-1088 178.5,-1137"/>
<text text-anchor="start" x="77.5" y="-1123.5" font-family="Helvetica,sans-Serif" font-size="10.00">std::basic_ios&lt; Char &gt;</text>
<text text-anchor="start" x="124" y="-1108.5" font-family="Helvetica,sans-Serif" font-size="10.00"> </text>
<text text-anchor="start" x="124" y="-1093.5" font-family="Helvetica,sans-Serif" font-size="10.00"> </text>
<polygon fill="#666666" stroke="#666666" points="72.5,-1120 72.5,-1120 178.5,-1120 178.5,-1120 72.5,-1120"/>
<polygon fill="#666666" stroke="#666666" points="72.5,-1105 72.5,-1105 178.5,-1105 178.5,-1105 72.5,-1105"/>
<polygon fill="none" stroke="#666666" points="72.5,-1088 72.5,-1137 178.5,-1137 178.5,-1088 72.5,-1088"/>
</a>
</g>
</g>
<!-- Node15&#45;&gt;Node14 -->
<g id="edge17_Node000014_Node000015" class="edge">
<title>Node15&#45;&gt;Node14</title>
<g id="a_edge17_Node000014_Node000015"><a xlink:title=" ">
<path fill="none" stroke="#63b8ff" d="M125.5,-1077.07C125.5,-1068.37 125.5,-1059.12 125.5,-1050.74"/>
<polygon fill="none" stroke="#63b8ff" points="122,-1076.94 125.5,-1086.94 129,-1076.94 122,-1076.94"/>
</a>
</g>
</g>
<!-- Node16 -->
<g id="Node000016" class="node">
<title>Node16</title>
<g id="a_Node000016"><a xlink:title=" ">
<polygon fill="white" stroke="none" points="159,-1223 92,-1223 92,-1174 159,-1174 159,-1223"/>
<text text-anchor="start" x="97" y="-1209.5" font-family="Helvetica,sans-Serif" font-size="10.00">std::ios_base</text>
<text text-anchor="start" x="124" y="-1194.5" font-family="Helvetica,sans-Serif" font-size="10.00"> </text>
<text text-anchor="start" x="124" y="-1179.5" font-family="Helvetica,sans-Serif" font-size="10.00"> </text>
<polygon fill="#666666" stroke="#666666" points="92,-1206 92,-1206 159,-1206 159,-1206 92,-1206"/>
<polygon fill="#666666" stroke="#666666" points="92,-1191 92,-1191 159,-1191 159,-1191 92,-1191"/>
<polygon fill="none" stroke="#666666" points="92,-1174 92,-1223 159,-1223 159,-1174 92,-1174"/>
</a>
</g>
</g>
<!-- Node16&#45;&gt;Node15 -->
<g id="edge18_Node000015_Node000016" class="edge">
<title>Node16&#45;&gt;Node15</title>
<g id="a_edge18_Node000015_Node000016"><a xlink:title=" ">
<path fill="none" stroke="#63b8ff" d="M125.5,-1162.62C125.5,-1153.91 125.5,-1144.77 125.5,-1136.77"/>
<polygon fill="none" stroke="#63b8ff" points="122,-1162.59 125.5,-1172.59 129,-1162.59 122,-1162.59"/>
</a>
</g>
</g>
</g>
</svg>
