<?xml version="1.0" encoding="UTF-8" standalone="no"?>
<!DOCTYPE svg PUBLIC "-//W3C//DTD SVG 1.1//EN"
 "http://www.w3.org/Graphics/SVG/1.1/DTD/svg11.dtd">
<!-- Generated by graphviz version 7.0.5 (20221223.1930)
 -->
<!-- Title: HY_HydroNexus Pages: 1 -->
<svg width="344pt" height="500pt"
 viewBox="0.00 0.00 344.00 500.00" xmlns="http://www.w3.org/2000/svg" xmlns:xlink="http://www.w3.org/1999/xlink">
<g id="graph0" class="graph" transform="scale(1 1) rotate(0) translate(4 496)">
<title>HY_HydroNexus</title>
<!-- Node1 -->
<g id="node1" class="node">
<title>Node1</title>
<g id="a_node1"><a xlink:title=" ">
<polygon fill="#999999" stroke="#666666" points="270,-195 114,-195 114,0 270,0 270,-195"/>
<text text-anchor="middle" x="192" y="-183" font-family="Helvetica,sans-Serif" font-size="10.00">{HY_HydroNexus</text>
<text text-anchor="start" x="122" y="-172" font-family="Helvetica,sans-Serif" font-size="10.00">|&#45; number_of_downstream</text>
<text text-anchor="start" x="122" y="-161" font-family="Helvetica,sans-Serif" font-size="10.00">_catchments</text>
<text text-anchor="start" x="122" y="-150" font-family="Helvetica,sans-Serif" font-size="10.00">|+ HY_HydroNexus()</text>
<text text-anchor="start" x="122" y="-139" font-family="Helvetica,sans-Serif" font-size="10.00">+ HY_HydroNexus()</text>
<text text-anchor="start" x="122" y="-128" font-family="Helvetica,sans-Serif" font-size="10.00">+ HY_HydroNexus()</text>
<text text-anchor="start" x="122" y="-117" font-family="Helvetica,sans-Serif" font-size="10.00">+ ~HY_HydroNexus()</text>
<text text-anchor="start" x="122" y="-106" font-family="Helvetica,sans-Serif" font-size="10.00">+ add_upstream_flow()</text>
<text text-anchor="start" x="122" y="-95" font-family="Helvetica,sans-Serif" font-size="10.00">+ get_downstream_flow()</text>
<text text-anchor="start" x="122" y="-84" font-family="Helvetica,sans-Serif" font-size="10.00">+ inspect_upstream_flows()</text>
<text text-anchor="start" x="122" y="-73" font-family="Helvetica,sans-Serif" font-size="10.00">+ inspect_downstream</text>
<text text-anchor="start" x="122" y="-62" font-family="Helvetica,sans-Serif" font-size="10.00">_requests()</text>
<text text-anchor="start" x="122" y="-51" font-family="Helvetica,sans-Serif" font-size="10.00">+ get_flow_units()</text>
<text text-anchor="start" x="122" y="-40" font-family="Helvetica,sans-Serif" font-size="10.00">+ get_receiving_catchments()</text>
<text text-anchor="start" x="122" y="-29" font-family="Helvetica,sans-Serif" font-size="10.00">+ get_contributing_catchments()</text>
<text text-anchor="start" x="122" y="-18" font-family="Helvetica,sans-Serif" font-size="10.00">+ get_id()</text>
<text text-anchor="middle" x="192" y="-7" font-family="Helvetica,sans-Serif" font-size="10.00">}</text>
</a>
</g>
</g>
<!-- Node2 -->
<g id="node2" class="node">
<title>Node2</title>
<g id="a_node2"><a xlink:title=" ">
<polygon fill="white" stroke="#666666" points="293,-398.5 231,-398.5 231,-368.5 293,-368.5 293,-398.5"/>
<text text-anchor="middle" x="262" y="-386.5" font-family="Helvetica,sans-Serif" font-size="10.00">{std::string</text>
<text text-anchor="middle" x="262" y="-375.5" font-family="Helvetica,sans-Serif" font-size="10.00">||}</text>
</a>
</g>
</g>
<!-- Node2&#45;&gt;Node1 -->
<g id="edge1" class="edge">
<title>Node2&#45;&gt;Node1</title>
<path fill="none" stroke="#404040" d="M279.05,-368.07C285.45,-361.68 292.11,-353.66 296,-345 320.16,-291.27 330.72,-267.35 308,-213 301.19,-196.72 290.82,-181.57 279.02,-167.98"/>
<polygon fill="none" stroke="#404040" points="278.92,-167.87 271.92,-166.15 270.82,-159.03 277.82,-160.75 278.92,-167.87"/>
<text text-anchor="middle" x="328" y="-282" font-family="Helvetica,sans-Serif" font-size="10.00"> #id</text>
</g>
<!-- Node7 -->
<g id="node7" class="node">
<title>Node7</title>
<g id="a_node7"><a xlink:title=" ">
<polygon fill="white" stroke="#666666" points="253.5,-299.5 130.5,-299.5 130.5,-269.5 253.5,-269.5 253.5,-299.5"/>
<text text-anchor="middle" x="192" y="-287.5" font-family="Helvetica,sans-Serif" font-size="10.00">{std::vector&lt; std::string &gt;</text>
<text text-anchor="middle" x="192" y="-276.5" font-family="Helvetica,sans-Serif" font-size="10.00">||}</text>
</a>
</g>
</g>
<!-- Node2&#45;&gt;Node7 -->
<g id="edge7" class="edge">
<title>Node2&#45;&gt;Node7</title>
<path fill="none" stroke="#404040" d="M255.57,-368.38C250.76,-358.41 243.71,-344.93 236,-334 229.98,-325.47 222.63,-316.83 215.66,-309.24"/>
<polygon fill="none" stroke="#404040" points="215.76,-309.34 208.73,-307.74 207.5,-300.64 214.53,-302.24 215.76,-309.34"/>
<text text-anchor="middle" x="267.5" y="-337" font-family="Helvetica,sans-Serif" font-size="10.00"> +elements</text>
</g>
<!-- Node3 -->
<g id="node3" class="node">
<title>Node3</title>
<g id="a_node3"><a xlink:title=" ">
<polygon fill="white" stroke="#666666" points="310,-492 214,-492 214,-451 310,-451 310,-492"/>
<text text-anchor="start" x="222" y="-480" font-family="Helvetica,sans-Serif" font-size="10.00">{std::basic_string&lt;</text>
<text text-anchor="middle" x="262" y="-469" font-family="Helvetica,sans-Serif" font-size="10.00"> Char &gt;</text>
<text text-anchor="middle" x="262" y="-458" font-family="Helvetica,sans-Serif" font-size="10.00">||}</text>
</a>
</g>
</g>
<!-- Node3&#45;&gt;Node2 -->
<g id="edge2" class="edge">
<title>Node3&#45;&gt;Node2</title>
<path fill="none" stroke="#63b8ff" d="M262,-439.08C262,-425.35 262,-409.91 262,-398.97"/>
<polygon fill="none" stroke="#63b8ff" points="258.5,-439.04 262,-449.04 265.5,-439.04 258.5,-439.04"/>
</g>
<!-- Node4 -->
<g id="node4" class="node">
<title>Node4</title>
<g id="a_node4"><a xlink:title=" ">
<polygon fill="white" stroke="#666666" points="106,-316 0,-316 0,-253 106,-253 106,-316"/>
<text text-anchor="start" x="8" y="-304" font-family="Helvetica,sans-Serif" font-size="10.00">{std::shared_ptr&lt; HY</text>
<text text-anchor="middle" x="53" y="-293" font-family="Helvetica,sans-Serif" font-size="10.00">_HydroLocation &gt;</text>
<text text-anchor="start" x="8" y="-282" font-family="Helvetica,sans-Serif" font-size="10.00">|+ ptr</text>
<text text-anchor="start" x="8" y="-271" font-family="Helvetica,sans-Serif" font-size="10.00">|+ operator&#45;&gt;()</text>
<text text-anchor="middle" x="53" y="-260" font-family="Helvetica,sans-Serif" font-size="10.00">}</text>
</a>
</g>
</g>
<!-- Node4&#45;&gt;Node1 -->
<g id="edge3" class="edge">
<title>Node4&#45;&gt;Node1</title>
<path fill="none" stroke="#404040" d="M76.27,-252.54C86.28,-239.21 98.64,-222.76 111.51,-205.63"/>
<polygon fill="none" stroke="#404040" points="111.39,-205.79 111.79,-198.59 118.59,-196.2 118.19,-203.4 111.39,-205.79"/>
<text text-anchor="middle" x="130.5" y="-221.5" font-family="Helvetica,sans-Serif" font-size="10.00"> &#45;realization</text>
</g>
<!-- Node5 -->
<g id="node5" class="node">
<title>Node5</title>
<g id="a_node5"><a xlink:title=" ">
<polygon fill="white" stroke="#666666" points="107,-404 1,-404 1,-363 107,-363 107,-404"/>
<text text-anchor="middle" x="54" y="-392" font-family="Helvetica,sans-Serif" font-size="10.00">{std::shared_ptr&lt; T &gt;</text>
<text text-anchor="start" x="9" y="-381" font-family="Helvetica,sans-Serif" font-size="10.00">||+ operator&#45;&gt;()</text>
<text text-anchor="middle" x="54" y="-370" font-family="Helvetica,sans-Serif" font-size="10.00">}</text>
</a>
</g>
</g>
<!-- Node5&#45;&gt;Node4 -->
<g id="edge4" class="edge">
<title>Node5&#45;&gt;Node4</title>
<path fill="none" stroke="orange" d="M50.42,-351.34C50.25,-349.2 50.11,-347.07 50,-345 49.51,-335.7 49.73,-325.59 50.23,-316.38"/>
<polygon fill="orange" stroke="orange" points="46.93,-351.55 51.35,-361.17 53.89,-350.89 46.93,-351.55"/>
<text text-anchor="middle" x="101" y="-337" font-family="Helvetica,sans-Serif" font-size="10.00"> &lt; HY_HydroLocation &gt;</text>
</g>
<!-- Node6 -->
<g id="node6" class="node">
<title>Node6</title>
<g id="a_node6"><a xlink:title=" ">
<polygon fill="white" stroke="#666666" points="117.5,-486.5 88.5,-486.5 88.5,-456.5 117.5,-456.5 117.5,-486.5"/>
<text text-anchor="middle" x="103" y="-474.5" font-family="Helvetica,sans-Serif" font-size="10.00">{T</text>
<text text-anchor="middle" x="103" y="-463.5" font-family="Helvetica,sans-Serif" font-size="10.00">||}</text>
</a>
</g>
</g>
<!-- Node6&#45;&gt;Node5 -->
<g id="edge5" class="edge">
<title>Node6&#45;&gt;Node5</title>
<path fill="none" stroke="#404040" d="M94.91,-456.3C88.58,-445.19 79.55,-429.34 71.58,-415.36"/>
<polygon fill="none" stroke="#404040" points="71.61,-415.4 65.16,-412.17 65.67,-404.98 72.11,-408.21 71.61,-415.4"/>
<text text-anchor="middle" x="92" y="-425" font-family="Helvetica,sans-Serif" font-size="10.00"> +ptr</text>
</g>
<!-- Node8 -->
<g id="node8" class="node">
<title>Node8</title>
<g id="a_node8"><a xlink:title=" ">
<polygon fill="white" stroke="#666666" points="212.5,-398.5 125.5,-398.5 125.5,-368.5 212.5,-368.5 212.5,-398.5"/>
<text text-anchor="middle" x="169" y="-386.5" font-family="Helvetica,sans-Serif" font-size="10.00">{std::vector&lt; T &gt;</text>
<text text-anchor="middle" x="169" y="-375.5" font-family="Helvetica,sans-Serif" font-size="10.00">||}</text>
</a>
</g>
</g>
<!-- Node6&#45;&gt;Node8 -->
<g id="edge9" class="edge">
<title>Node6&#45;&gt;Node8</title>
<path fill="none" stroke="#404040" d="M113.9,-456.3C123.74,-443.48 138.43,-424.33 150.17,-409.03"/>
<polygon fill="none" stroke="#404040" points="150.23,-408.96 150.71,-401.76 157.54,-399.44 157.06,-406.63 150.23,-408.96"/>
<text text-anchor="middle" x="164.5" y="-425" font-family="Helvetica,sans-Serif" font-size="10.00"> +elements</text>
</g>
<!-- Node7&#45;&gt;Node1 -->
<g id="edge6" class="edge">
<title>Node7&#45;&gt;Node1</title>
<path fill="none" stroke="#404040" d="M192,-269.29C192,-255.31 192,-232.57 192,-208.18"/>
<polygon fill="none" stroke="#404040" points="192,-208.22 188,-202.22 192,-196.22 196,-202.22 192,-208.22"/>
<text text-anchor="middle" x="248" y="-227" font-family="Helvetica,sans-Serif" font-size="10.00"> &#45;contributing_catchments</text>
<text text-anchor="middle" x="248" y="-216" font-family="Helvetica,sans-Serif" font-size="10.00">&#45;receiving_catchments</text>
</g>
<!-- Node8&#45;&gt;Node7 -->
<g id="edge8" class="edge">
<title>Node8&#45;&gt;Node7</title>
<path fill="none" stroke="orange" d="M171.12,-357.02C172.01,-349.54 173.27,-341.39 175,-334 177.77,-322.19 182.39,-309.24 186.12,-299.69"/>
<polygon fill="orange" stroke="orange" points="167.65,-356.54 170.1,-366.85 174.61,-357.26 167.65,-356.54"/>
<text text-anchor="middle" x="205.5" y="-337" font-family="Helvetica,sans-Serif" font-size="10.00"> &lt; std::string &gt;</text>
</g>
</g>
</svg>
