<?xml version="1.0" encoding="UTF-8" standalone="no"?>
<!DOCTYPE svg PUBLIC "-//W3C//DTD SVG 1.1//EN"
 "http://www.w3.org/Graphics/SVG/1.1/DTD/svg11.dtd">
<!-- Generated by graphviz version 3.0.0 (20221109.1736)
 -->
<!-- Title: utils::FileStreamHandler Pages: 1 -->
<!--zoomable 809 -->
<svg id="main" version="1.1" xmlns="http://www.w3.org/2000/svg" xmlns:xlink="http://www.w3.org/1999/xlink" xml:space="preserve" onload="init(evt)">
<style type="text/css"><![CDATA[
.edge:hover path { stroke: red; }
.edge:hover polygon { stroke: red; fill: red; }
]]></style>
<script type="text/javascript"><![CDATA[
var edges = document.getElementsByTagName('g');
if (edges && edges.length) {
  for (var i=0;i<edges.length;i++) {
    if (edges[i].id.substr(0,4)=='edge') {
      edges[i].setAttribute('class','edge');
    }
  }
}
]]></script>
        <defs>
                <circle id="rim" cx="0" cy="0" r="7"/>
                <circle id="rim2" cx="0" cy="0" r="3.5"/>
                <g id="zoomPlus">
                        <use xlink:href="#rim" fill="#404040">
                                <set attributeName="fill" to="#808080" begin="zoomplus.mouseover" end="zoomplus.mouseout"/>
                        </use>
                        <path d="M-4,0h8M0,-4v8" fill="none" stroke="white" stroke-width="1.5" pointer-events="none"/>
                </g>
                <g id="zoomMin">
                        <use xlink:href="#rim" fill="#404040">
                                <set attributeName="fill" to="#808080" begin="zoomminus.mouseover" end="zoomminus.mouseout"/>
                        </use>
                        <path d="M-4,0h8" fill="none" stroke="white" stroke-width="1.5" pointer-events="none"/>
                </g>
                <g id="dirArrow">
                        <path fill="none" stroke="white" stroke-width="1.5" d="M0,-3.0v7 M-2.5,-0.5L0,-3.0L2.5,-0.5"/>
                </g>
               <g id="resetDef">
                       <use xlink:href="#rim2" fill="#404040">
                               <set attributeName="fill" to="#808080" begin="reset.mouseover" end="reset.mouseout"/>
                       </use>
               </g>
        </defs>

<script type="text/javascript">
var viewWidth = 332;
var viewHeight = 809;
var sectionId = 'dynsection-1';
</script>
<script xlink:href="svgpan.js"/>
<svg id="graph" class="graph">
<g id="viewport">
<title>utils::FileStreamHandler</title>
<polygon fill="white" stroke="transparent" points="-4,4 -4,-805 328,-805 328,4 -4,4"/>
<!-- Node1 -->
<g id="node1" class="node">
<title>Node1</title>
<g id="a_node1"><a xlink:title=" ">
<polygon fill="#bfbfbf" stroke="black" points="150.5,-0.5 150.5,-68.5 270.5,-68.5 270.5,-0.5 150.5,-0.5"/>
<text text-anchor="middle" x="210.5" y="-56.5" font-family="Helvetica,sans-Serif" font-size="10.00">utils::FileStreamHandler</text>
<polyline fill="none" stroke="black" points="150.5,-49.5 270.5,-49.5 "/>
<text text-anchor="middle" x="210.5" y="-37.5" font-family="Helvetica,sans-Serif" font-size="10.00"> </text>
<polyline fill="none" stroke="black" points="150.5,-30.5 270.5,-30.5 "/>
<text text-anchor="start" x="158.5" y="-18.5" font-family="Helvetica,sans-Serif" font-size="10.00">+ FileStreamHandler()</text>
<text text-anchor="start" x="158.5" y="-7.5" font-family="Helvetica,sans-Serif" font-size="10.00">+ ~FileStreamHandler()</text>
</a>
</g>
</g>
<!-- Node2 -->
<g id="node2" class="node">
<title>Node2</title>
<g id="a_node2"><a xlink:href="classutils_1_1_stream_handler.html" target="_top" xlink:title="This class provides a copyable interface to a std::ostream or std::ostream like object that may not s...">
<polygon fill="white" stroke="black" points="158.5,-106.5 158.5,-262.5 262.5,-262.5 262.5,-106.5 158.5,-106.5"/>
<text text-anchor="middle" x="210.5" y="-250.5" font-family="Helvetica,sans-Serif" font-size="10.00">utils::StreamHandler</text>
<polyline fill="none" stroke="black" points="158.5,-243.5 262.5,-243.5 "/>
<text text-anchor="middle" x="210.5" y="-231.5" font-family="Helvetica,sans-Serif" font-size="10.00"> </text>
<polyline fill="none" stroke="black" points="158.5,-224.5 262.5,-224.5 "/>
<text text-anchor="start" x="166.5" y="-212.5" font-family="Helvetica,sans-Serif" font-size="10.00">+ StreamHandler()</text>
<text text-anchor="start" x="166.5" y="-201.5" font-family="Helvetica,sans-Serif" font-size="10.00">+ StreamHandler()</text>
<text text-anchor="start" x="166.5" y="-190.5" font-family="Helvetica,sans-Serif" font-size="10.00">+ StreamHandler()</text>
<text text-anchor="start" x="166.5" y="-179.5" font-family="Helvetica,sans-Serif" font-size="10.00">+ StreamHandler()</text>
<text text-anchor="start" x="166.5" y="-168.5" font-family="Helvetica,sans-Serif" font-size="10.00">+ ~StreamHandler()</text>
<text text-anchor="start" x="166.5" y="-157.5" font-family="Helvetica,sans-Serif" font-size="10.00">+ operator=()</text>
<text text-anchor="start" x="166.5" y="-146.5" font-family="Helvetica,sans-Serif" font-size="10.00">+ put()</text>
<text text-anchor="start" x="166.5" y="-135.5" font-family="Helvetica,sans-Serif" font-size="10.00">+ put_indexed()</text>
<text text-anchor="start" x="166.5" y="-124.5" font-family="Helvetica,sans-Serif" font-size="10.00">+ put_var()</text>
<text text-anchor="start" x="166.5" y="-113.5" font-family="Helvetica,sans-Serif" font-size="10.00">+ operator&lt;&lt;()</text>
</a>
</g>
</g>
<!-- Node2&#45;&gt;Node1 -->
<g id="edge1" class="edge">
<title>Node2&#45;&gt;Node1</title>
<path fill="none" stroke="midnightblue" d="M210.5,-96.2C210.5,-86.43 210.5,-76.98 210.5,-68.57"/>
<polygon fill="none" stroke="midnightblue" points="207,-96.47 210.5,-106.47 214,-96.47 207,-96.47"/>
</g>
<!-- Node3 -->
<g id="node3" class="node">
<title>Node3</title>
<g id="a_node3"><a xlink:title=" ">
<polygon fill="white" stroke="black" points="110.5,-310.5 110.5,-378.5 212.5,-378.5 212.5,-310.5 110.5,-310.5"/>
<text text-anchor="start" x="118.5" y="-366.5" font-family="Helvetica,sans-Serif" font-size="10.00">std::shared_ptr&lt; std</text>
<text text-anchor="middle" x="161.5" y="-355.5" font-family="Helvetica,sans-Serif" font-size="10.00">::ostream &gt;</text>
<polyline fill="none" stroke="black" points="110.5,-348.5 212.5,-348.5 "/>
<text text-anchor="middle" x="161.5" y="-336.5" font-family="Helvetica,sans-Serif" font-size="10.00"> </text>
<polyline fill="none" stroke="black" points="110.5,-329.5 212.5,-329.5 "/>
<text text-anchor="start" x="118.5" y="-317.5" font-family="Helvetica,sans-Serif" font-size="10.00">+ operator&#45;&gt;()</text>
</a>
</g>
</g>
<!-- Node3&#45;&gt;Node2 -->
<g id="edge2" class="edge">
<title>Node3&#45;&gt;Node2</title>
<path fill="none" stroke="#404040" d="M164.67,-310.42C166.02,-300.82 167.9,-290.4 170.5,-281 171.13,-278.73 171.8,-276.43 172.5,-274.13"/>
<polygon fill="none" stroke="#404040" points="172.55,-273.98 170.62,-267.03 176.29,-262.58 178.22,-269.52 172.55,-273.98"/>
<text text-anchor="middle" x="205.5" y="-284" font-family="Helvetica,sans-Serif" font-size="10.00"> #output_stream</text>
</g>
<!-- Node4 -->
<g id="node4" class="node">
<title>Node4</title>
<g id="a_node4"><a xlink:title=" ">
<polygon fill="white" stroke="black" points="21.5,-432 21.5,-489 91.5,-489 91.5,-432 21.5,-432"/>
<text text-anchor="middle" x="56.5" y="-477" font-family="Helvetica,sans-Serif" font-size="10.00">std::ostream</text>
<polyline fill="none" stroke="black" points="21.5,-470 91.5,-470 "/>
<text text-anchor="middle" x="56.5" y="-458" font-family="Helvetica,sans-Serif" font-size="10.00"> </text>
<polyline fill="none" stroke="black" points="21.5,-451 91.5,-451 "/>
<text text-anchor="middle" x="56.5" y="-439" font-family="Helvetica,sans-Serif" font-size="10.00"> </text>
</a>
</g>
</g>
<!-- Node4&#45;&gt;Node3 -->
<g id="edge3" class="edge">
<title>Node4&#45;&gt;Node3</title>
<path fill="none" stroke="#404040" d="M81.92,-431.9C94.18,-418.59 109.16,-402.33 122.8,-387.52"/>
<polygon fill="none" stroke="#404040" points="122.96,-387.35 124.08,-380.22 131.09,-378.52 129.96,-385.64 122.96,-387.35"/>
<text text-anchor="middle" x="122.5" y="-400" font-family="Helvetica,sans-Serif" font-size="10.00"> +ptr</text>
</g>
<!-- Node5 -->
<g id="node5" class="node">
<title>Node5</title>
<g id="a_node5"><a xlink:title=" ">
<polygon fill="white" stroke="black" points="7.5,-542.5 7.5,-610.5 105.5,-610.5 105.5,-542.5 7.5,-542.5"/>
<text text-anchor="start" x="15.5" y="-598.5" font-family="Helvetica,sans-Serif" font-size="10.00">std::basic_ostream</text>
<text text-anchor="middle" x="56.5" y="-587.5" font-family="Helvetica,sans-Serif" font-size="10.00">&lt; Char &gt;</text>
<polyline fill="none" stroke="black" points="7.5,-580.5 105.5,-580.5 "/>
<text text-anchor="middle" x="56.5" y="-568.5" font-family="Helvetica,sans-Serif" font-size="10.00"> </text>
<polyline fill="none" stroke="black" points="7.5,-561.5 105.5,-561.5 "/>
<text text-anchor="middle" x="56.5" y="-549.5" font-family="Helvetica,sans-Serif" font-size="10.00"> </text>
</a>
</g>
</g>
<!-- Node5&#45;&gt;Node4 -->
<g id="edge4" class="edge">
<title>Node5&#45;&gt;Node4</title>
<path fill="none" stroke="midnightblue" d="M56.5,-532.03C56.5,-517.67 56.5,-502.1 56.5,-489.24"/>
<polygon fill="none" stroke="midnightblue" points="53,-532.22 56.5,-542.22 60,-532.22 53,-532.22"/>
</g>
<!-- Node6 -->
<g id="node6" class="node">
<title>Node6</title>
<g id="a_node6"><a xlink:title=" ">
<polygon fill="white" stroke="black" points="0,-648.5 0,-705.5 113,-705.5 113,-648.5 0,-648.5"/>
<text text-anchor="middle" x="56.5" y="-693.5" font-family="Helvetica,sans-Serif" font-size="10.00">std::basic_ios&lt; Char &gt;</text>
<polyline fill="none" stroke="black" points="0,-686.5 113,-686.5 "/>
<text text-anchor="middle" x="56.5" y="-674.5" font-family="Helvetica,sans-Serif" font-size="10.00"> </text>
<polyline fill="none" stroke="black" points="0,-667.5 113,-667.5 "/>
<text text-anchor="middle" x="56.5" y="-655.5" font-family="Helvetica,sans-Serif" font-size="10.00"> </text>
</a>
</g>
</g>
<!-- Node6&#45;&gt;Node5 -->
<g id="edge5" class="edge">
<title>Node6&#45;&gt;Node5</title>
<path fill="none" stroke="midnightblue" d="M56.5,-638.01C56.5,-628.96 56.5,-619.38 56.5,-610.58"/>
<polygon fill="none" stroke="midnightblue" points="53,-638.3 56.5,-648.3 60,-638.3 53,-638.3"/>
</g>
<!-- Node7 -->
<g id="node7" class="node">
<title>Node7</title>
<g id="a_node7"><a xlink:title=" ">
<polygon fill="white" stroke="black" points="19.5,-743.5 19.5,-800.5 93.5,-800.5 93.5,-743.5 19.5,-743.5"/>
<text text-anchor="middle" x="56.5" y="-788.5" font-family="Helvetica,sans-Serif" font-size="10.00">std::ios_base</text>
<polyline fill="none" stroke="black" points="19.5,-781.5 93.5,-781.5 "/>
<text text-anchor="middle" x="56.5" y="-769.5" font-family="Helvetica,sans-Serif" font-size="10.00"> </text>
<polyline fill="none" stroke="black" points="19.5,-762.5 93.5,-762.5 "/>
<text text-anchor="middle" x="56.5" y="-750.5" font-family="Helvetica,sans-Serif" font-size="10.00"> </text>
</a>
</g>
</g>
<!-- Node7&#45;&gt;Node6 -->
<g id="edge6" class="edge">
<title>Node7&#45;&gt;Node6</title>
<path fill="none" stroke="midnightblue" d="M56.5,-733.24C56.5,-724.03 56.5,-714.35 56.5,-705.71"/>
<polygon fill="none" stroke="midnightblue" points="53,-733.35 56.5,-743.35 60,-733.35 53,-733.35"/>
</g>
<!-- Node8 -->
<g id="node8" class="node">
<title>Node8</title>
<g id="a_node8"><a xlink:title=" ">
<polygon fill="white" stroke="black" points="110,-432 110,-489 213,-489 213,-432 110,-432"/>
<text text-anchor="middle" x="161.5" y="-477" font-family="Helvetica,sans-Serif" font-size="10.00">std::shared_ptr&lt; T &gt;</text>
<polyline fill="none" stroke="black" points="110,-470 213,-470 "/>
<text text-anchor="middle" x="161.5" y="-458" font-family="Helvetica,sans-Serif" font-size="10.00"> </text>
<polyline fill="none" stroke="black" points="110,-451 213,-451 "/>
<text text-anchor="start" x="118" y="-439" font-family="Helvetica,sans-Serif" font-size="10.00">+ operator&#45;&gt;()</text>
</a>
</g>
</g>
<!-- Node8&#45;&gt;Node3 -->
<g id="edge7" class="edge">
<title>Node8&#45;&gt;Node3</title>
<path fill="none" stroke="orange" d="M161.5,-421.64C161.5,-407.69 161.5,-392.01 161.5,-378.52"/>
<polygon fill="orange" stroke="orange" points="158,-421.9 161.5,-431.9 165,-421.9 158,-421.9"/>
<text text-anchor="middle" x="198" y="-400" font-family="Helvetica,sans-Serif" font-size="10.00"> &lt; std::ostream &gt;</text>
</g>
<!-- Node9 -->
<g id="node9" class="node">
<title>Node9</title>
<g id="a_node9"><a xlink:title=" ">
<polygon fill="white" stroke="black" points="147,-548 147,-605 176,-605 176,-548 147,-548"/>
<text text-anchor="middle" x="161.5" y="-593" font-family="Helvetica,sans-Serif" font-size="10.00">T</text>
<polyline fill="none" stroke="black" points="147,-586 176,-586 "/>
<text text-anchor="middle" x="161.5" y="-574" font-family="Helvetica,sans-Serif" font-size="10.00"> </text>
<polyline fill="none" stroke="black" points="147,-567 176,-567 "/>
<text text-anchor="middle" x="161.5" y="-555" font-family="Helvetica,sans-Serif" font-size="10.00"> </text>
</a>
</g>
</g>
<!-- Node9&#45;&gt;Node8 -->
<g id="edge8" class="edge">
<title>Node9&#45;&gt;Node8</title>
<path fill="none" stroke="#404040" d="M161.5,-547.9C161.5,-534 161.5,-516.89 161.5,-501.57"/>
<polygon fill="none" stroke="#404040" points="161.5,-501.24 157.5,-495.24 161.5,-489.24 165.5,-495.24 161.5,-501.24"/>
<text text-anchor="middle" x="171.5" y="-516" font-family="Helvetica,sans-Serif" font-size="10.00"> +ptr</text>
</g>
<!-- Node10 -->
<g id="node10" class="node">
<title>Node10</title>
<g id="a_node10"><a xlink:title=" ">
<polygon fill="white" stroke="black" points="239,-316 239,-373 298,-373 298,-316 239,-316"/>
<text text-anchor="middle" x="268.5" y="-361" font-family="Helvetica,sans-Serif" font-size="10.00">std::string</text>
<polyline fill="none" stroke="black" points="239,-354 298,-354 "/>
<text text-anchor="middle" x="268.5" y="-342" font-family="Helvetica,sans-Serif" font-size="10.00"> </text>
<polyline fill="none" stroke="black" points="239,-335 298,-335 "/>
<text text-anchor="middle" x="268.5" y="-323" font-family="Helvetica,sans-Serif" font-size="10.00"> </text>
</a>
</g>
</g>
<!-- Node10&#45;&gt;Node2 -->
<g id="edge9" class="edge">
<title>Node10&#45;&gt;Node2</title>
<path fill="none" stroke="#404040" d="M258.4,-315.98C254.03,-304.07 248.64,-289.4 243.08,-274.25"/>
<polygon fill="none" stroke="#404040" points="242.94,-273.86 237.11,-269.61 238.8,-262.6 244.62,-266.85 242.94,-273.86"/>
<text text-anchor="middle" x="259.5" y="-284" font-family="Helvetica,sans-Serif" font-size="10.00"> #sep</text>
</g>
<!-- Node11 -->
<g id="node11" class="node">
<title>Node11</title>
<g id="a_node11"><a xlink:title=" ">
<polygon fill="white" stroke="black" points="231,-426.5 231,-494.5 324,-494.5 324,-426.5 231,-426.5"/>
<text text-anchor="start" x="239" y="-482.5" font-family="Helvetica,sans-Serif" font-size="10.00">std::basic_string&lt;</text>
<text text-anchor="middle" x="277.5" y="-471.5" font-family="Helvetica,sans-Serif" font-size="10.00"> Char &gt;</text>
<polyline fill="none" stroke="black" points="231,-464.5 324,-464.5 "/>
<text text-anchor="middle" x="277.5" y="-452.5" font-family="Helvetica,sans-Serif" font-size="10.00"> </text>
<polyline fill="none" stroke="black" points="231,-445.5 324,-445.5 "/>
<text text-anchor="middle" x="277.5" y="-433.5" font-family="Helvetica,sans-Serif" font-size="10.00"> </text>
</a>
</g>
</g>
<!-- Node11&#45;&gt;Node10 -->
<g id="edge10" class="edge">
<title>Node11&#45;&gt;Node10</title>
<path fill="none" stroke="midnightblue" d="M274.07,-416.03C272.93,-401.67 271.7,-386.1 270.69,-373.24"/>
<polygon fill="none" stroke="midnightblue" points="270.6,-416.53 274.87,-426.22 277.57,-415.98 270.6,-416.53"/>
</g>
</g>
</svg>
        <g id="navigator" transform="translate(0 0)" fill="#404254">
                <rect fill="#f2f5e9" fill-opacity="0.5" stroke="#606060" stroke-width=".5" x="0" y="0" width="60" height="60"/>
                <use id="zoomplus" xlink:href="#zoomPlus" x="17" y="9" onmousedown="handleZoom(evt,'in')"/>
                <use id="zoomminus" xlink:href="#zoomMin" x="42" y="9" onmousedown="handleZoom(evt,'out')"/>
                <use id="reset" xlink:href="#resetDef" x="30" y="36" onmousedown="handleReset()"/>
                <g id="arrowUp" xlink:href="#dirArrow" transform="translate(30 24)" onmousedown="handlePan(0,-1)">
                  <use xlink:href="#rim" fill="#404040">
                        <set attributeName="fill" to="#808080" begin="arrowUp.mouseover" end="arrowUp.mouseout"/>
                  </use>
                  <path fill="none" stroke="white" stroke-width="1.5" d="M0,-3.0v7 M-2.5,-0.5L0,-3.0L2.5,-0.5"/>
                </g>
                <g id="arrowRight" xlink:href="#dirArrow" transform="rotate(90) translate(36 -43)" onmousedown="handlePan(1,0)">
                  <use xlink:href="#rim" fill="#404040">
                        <set attributeName="fill" to="#808080" begin="arrowRight.mouseover" end="arrowRight.mouseout"/>
                  </use>
                  <path fill="none" stroke="white" stroke-width="1.5" d="M0,-3.0v7 M-2.5,-0.5L0,-3.0L2.5,-0.5"/>
                </g>
                <g id="arrowDown" xlink:href="#dirArrow" transform="rotate(180) translate(-30 -48)" onmousedown="handlePan(0,1)">
                  <use xlink:href="#rim" fill="#404040">
                        <set attributeName="fill" to="#808080" begin="arrowDown.mouseover" end="arrowDown.mouseout"/>
                  </use>
                  <path fill="none" stroke="white" stroke-width="1.5" d="M0,-3.0v7 M-2.5,-0.5L0,-3.0L2.5,-0.5"/>
                </g>
                <g id="arrowLeft" xlink:href="#dirArrow" transform="rotate(270) translate(-36 17)" onmousedown="handlePan(-1,0)">
                  <use xlink:href="#rim" fill="#404040">
                        <set attributeName="fill" to="#808080" begin="arrowLeft.mouseover" end="arrowLeft.mouseout"/>
                  </use>
                  <path fill="none" stroke="white" stroke-width="1.5" d="M0,-3.0v7 M-2.5,-0.5L0,-3.0L2.5,-0.5"/>
                </g>
        </g>
        <svg viewBox="0 0 15 15" width="100%" height="30px" preserveAspectRatio="xMaxYMin meet">
         <g id="arrow_out" transform="scale(0.3 0.3)">
          <a xlink:href="classutils_1_1_file_stream_handler__coll__graph_org.svg" target="_base">
           <rect id="button" ry="5" rx="5" y="6" x="6" height="38" width="38"
                fill="#f2f5e9" fill-opacity="0.5" stroke="#606060" stroke-width="1.0"/>
           <path id="arrow"
             d="M 11.500037,31.436501 C 11.940474,20.09759 22.043105,11.32322 32.158766,21.979434 L 37.068811,17.246167 C 37.068811,17.246167 37.088388,32 37.088388,32 L 22.160133,31.978069 C 22.160133,31.978069 26.997745,27.140456 26.997745,27.140456 C 18.528582,18.264221 13.291696,25.230495 11.500037,31.436501 z"
             style="fill:#404040;"/>
          </a>
         </g>
        </svg>
</svg>
