<?xml version="1.0" encoding="UTF-8" standalone="no"?>
<!DOCTYPE svg PUBLIC "-//W3C//DTD SVG 1.1//EN"
 "http://www.w3.org/Graphics/SVG/1.1/DTD/svg11.dtd">
<!-- Generated by graphviz version 12.2.0 (20241103.1931)
 -->
<!-- Title: HY_CatchmentDivide Pages: 1 -->
<!--zoomable 750 -->

<svg id="main" version="1.1" xmlns="http://www.w3.org/2000/svg" xmlns:xlink="http://www.w3.org/1999/xlink" xml:space="preserve" onload="init(evt)">

<style type="text/css"><![CDATA[
.node, .edge {opacity: 0.7;}
.node.selected, .edge.selected {opacity: 1;}
.edge:hover path { stroke: red; }
.edge:hover polygon { stroke: red; fill: red; }
]]></style>

<defs>
  <circle id="rim" cx="0" cy="0" r="7"/>
  <circle id="rim2" cx="0" cy="0" r="3.5"/>
  <g id="zoomPlus">
    <use xlink:href="#rim" fill="#404040"><set attributeName="fill" to="#808080" begin="zoomplus.mouseover" end="zoomplus.mouseout"/></use>
    <path d="M-4,0h8M0,-4v8" fill="none" stroke="white" stroke-width="1.5" pointer-events="none"/>
  </g>
  <g id="zoomMin">
    <use xlink:href="#rim" fill="#404040"><set attributeName="fill" to="#808080" begin="zoomminus.mouseover" end="zoomminus.mouseout"/></use>
    <path d="M-4,0h8" fill="none" stroke="white" stroke-width="1.5" pointer-events="none"/>
  </g>
  <g id="arrowUp" transform="translate(30 24)">
    <use xlink:href="#rim"/>
    <path pointer-events="none" fill="none" stroke="white" stroke-width="1.5" d="M0,-3.0v7 M-2.5,-0.5L0,-3.0L2.5,-0.5"/>
  </g>
  <g id="arrowRight" transform="rotate(90) translate(36 -43)">
    <use xlink:href="#rim"/>
    <path pointer-events="none" fill="none" stroke="white" stroke-width="1.5" d="M0,-3.0v7 M-2.5,-0.5L0,-3.0L2.5,-0.5"/>
  </g>
  <g id="arrowDown" transform="rotate(180) translate(-30 -48)">
    <use xlink:href="#rim"/>
    <path pointer-events="none" fill="none" stroke="white" stroke-width="1.5" d="M0,-3.0v7 M-2.5,-0.5L0,-3.0L2.5,-0.5"/>
  </g>
  <g id="arrowLeft" transform="rotate(270) translate(-36 17)">
    <use xlink:href="#rim"/>
    <path pointer-events="none" fill="none" stroke="white" stroke-width="1.5" d="M0,-3.0v7 M-2.5,-0.5L0,-3.0L2.5,-0.5"/>
  </g>
  <g id="resetDef">
    <use xlink:href="#rim2" fill="#404040"><set attributeName="fill" to="#808080" begin="reset.mouseover" end="reset.mouseout"/></use>
  </g>
</defs>
<script type="application/ecmascript">
var viewWidth = 1059;
var viewHeight = 750;
var sectionId = 'dynsection-1';
</script>
<script type="application/ecmascript" xlink:href="svg.min.js"/>
<svg id="graph" class="graph">
<g id="viewport">
<title>HY_CatchmentDivide</title>
<!-- Node1 -->
<g id="Node000001" class="node">
<title>Node1</title>
<g id="a_Node000001"><a xlink:title=" ">
<polygon fill="#999999" stroke="none" points="294.71,-262.75 171.71,-262.75 171.71,-197.75 294.71,-197.75 294.71,-262.75"/>
<text text-anchor="start" x="186.33" y="-249.25" font-family="Helvetica,sans-Serif" font-size="10.00">HY_CatchmentDivide</text>
<text text-anchor="start" x="177.21" y="-234" font-family="Helvetica,sans-Serif" font-size="10.00">&#45;</text>
<text text-anchor="start" x="185.71" y="-234" font-family="Helvetica,sans-Serif" font-size="10.00">id_number</text>
<text text-anchor="start" x="175.71" y="-218.75" font-family="Helvetica,sans-Serif" font-size="10.00">+</text>
<text text-anchor="start" x="185.71" y="-218.75" font-family="Helvetica,sans-Serif" font-size="10.00">HY_CatchmentDivide()</text>
<text text-anchor="start" x="175.71" y="-203.5" font-family="Helvetica,sans-Serif" font-size="10.00">+</text>
<text text-anchor="start" x="185.71" y="-203.5" font-family="Helvetica,sans-Serif" font-size="10.00">~HY_CatchmentDivide()</text>
<polygon fill="#666666" stroke="#666666" points="171.71,-245.5 171.71,-245.5 294.71,-245.5 294.71,-245.5 171.71,-245.5"/>
<polygon fill="#666666" stroke="#666666" points="171.71,-230.25 171.71,-230.25 183.71,-230.25 183.71,-230.25 171.71,-230.25"/>
<polygon fill="#666666" stroke="#666666" points="183.71,-230.25 183.71,-230.25 294.71,-230.25 294.71,-230.25 183.71,-230.25"/>
<polygon fill="none" stroke="#666666" points="171.71,-197.75 171.71,-262.75 294.71,-262.75 294.71,-197.75 171.71,-197.75"/>
</a>
</g>
</g>
<!-- Node2 -->
<g id="Node000002" class="node">
<title>Node2</title>
<g id="a_Node000002"><a xlink:href="class_h_y___catchment_realization.html" target="_top" xlink:title=" ">
<polygon fill="white" stroke="none" points="143.83,-633.75 0.58,-633.75 0.58,-523 143.83,-523 143.83,-633.75"/>
<text text-anchor="start" x="15.21" y="-620.25" font-family="Helvetica,sans-Serif" font-size="10.00">HY_CatchmentRealization</text>
<text text-anchor="start" x="4.96" y="-605" font-family="Helvetica,sans-Serif" font-size="10.00">#</text>
<text text-anchor="start" x="14.58" y="-605" font-family="Helvetica,sans-Serif" font-size="10.00">id_number</text>
<text text-anchor="start" x="4.58" y="-589.75" font-family="Helvetica,sans-Serif" font-size="10.00">+</text>
<text text-anchor="start" x="14.58" y="-589.75" font-family="Helvetica,sans-Serif" font-size="10.00">HY_CatchmentRealization()</text>
<text text-anchor="start" x="4.58" y="-574.5" font-family="Helvetica,sans-Serif" font-size="10.00">+</text>
<text text-anchor="start" x="14.58" y="-574.5" font-family="Helvetica,sans-Serif" font-size="10.00">~HY_CatchmentRealization()</text>
<text text-anchor="start" x="4.58" y="-559.25" font-family="Helvetica,sans-Serif" font-size="10.00">+</text>
<text text-anchor="start" x="14.58" y="-559.25" font-family="Helvetica,sans-Serif" font-size="10.00">get_response()</text>
<text text-anchor="start" x="4.96" y="-544" font-family="Helvetica,sans-Serif" font-size="10.00">#</text>
<text text-anchor="start" x="14.58" y="-544" font-family="Helvetica,sans-Serif" font-size="10.00">get_catchment_id()</text>
<text text-anchor="start" x="4.96" y="-528.75" font-family="Helvetica,sans-Serif" font-size="10.00">#</text>
<text text-anchor="start" x="14.58" y="-528.75" font-family="Helvetica,sans-Serif" font-size="10.00">set_catchment_id()</text>
<polygon fill="#666666" stroke="#666666" points="0.58,-616.5 0.58,-616.5 143.83,-616.5 143.83,-616.5 0.58,-616.5"/>
<polygon fill="#666666" stroke="#666666" points="0.58,-601.25 0.58,-601.25 12.58,-601.25 12.58,-601.25 0.58,-601.25"/>
<polygon fill="#666666" stroke="#666666" points="12.58,-601.25 12.58,-601.25 143.83,-601.25 143.83,-601.25 12.58,-601.25"/>
<polygon fill="none" stroke="#666666" points="0.58,-523 0.58,-633.75 143.83,-633.75 143.83,-523 0.58,-523"/>
</a>
</g>
</g>
<!-- Node2&#45;&gt;Node1 -->
<g id="edge1_Node000001_Node000002" class="edge">
<title>Node2&#45;&gt;Node1</title>
<g id="a_edge1_Node000001_Node000002"><a xlink:title=" ">
<path fill="none" stroke="#63b8ff" d="M71.39,-512.01C73.04,-480.4 78.1,-442.51 91.21,-410.75 115.61,-351.61 165.48,-295.86 199.14,-262.63"/>
<polygon fill="none" stroke="#63b8ff" points="67.9,-511.71 70.99,-521.84 74.9,-511.99 67.9,-511.71"/>
</a>
</g>
</g>
<!-- Node6 -->
<g id="Node000006" class="node">
<title>Node6</title>
<g id="a_Node000006"><a xlink:title=" ">
<polygon fill="white" stroke="none" points="504.21,-473.75 388.21,-473.75 388.21,-412.75 504.21,-412.75 504.21,-473.75"/>
<text text-anchor="start" x="392.21" y="-460.25" font-family="Helvetica,sans-Serif" font-size="10.00">std::shared_ptr&lt; HY</text>
<text text-anchor="start" x="392.21" y="-449" font-family="Helvetica,sans-Serif" font-size="10.00">_CatchmentRealization &gt;</text>
<text text-anchor="start" x="444.71" y="-433.75" font-family="Helvetica,sans-Serif" font-size="10.00"> </text>
<text text-anchor="start" x="404.14" y="-418.5" font-family="Helvetica,sans-Serif" font-size="10.00">+</text>
<text text-anchor="start" x="426.08" y="-418.5" font-family="Helvetica,sans-Serif" font-size="10.00">operator&#45;&gt;()</text>
<polygon fill="#666666" stroke="#666666" points="388.21,-445.25 388.21,-445.25 504.21,-445.25 504.21,-445.25 388.21,-445.25"/>
<polygon fill="#666666" stroke="#666666" points="388.21,-430 388.21,-430 504.21,-430 504.21,-430 388.21,-430"/>
<polygon fill="none" stroke="#666666" points="388.21,-412.75 388.21,-473.75 504.21,-473.75 504.21,-412.75 388.21,-412.75"/>
</a>
</g>
</g>
<!-- Node2&#45;&gt;Node6 -->
<g id="edge6_Node000006_Node000002" class="edge">
<title>Node2&#45;&gt;Node6</title>
<g id="a_edge6_Node000006_Node000002"><a xlink:title=" ">
<path fill="none" stroke="#63b8ff" d="M143.77,-553.9C185.45,-540.05 238.95,-521.95 286.21,-505 315.81,-494.38 348.28,-482.16 376.19,-471.47"/>
<polygon fill="none" stroke="#63b8ff" points="376.21,-471.46 380.38,-465.58 387.42,-467.16 383.25,-473.05 376.21,-471.46"/>
</a>
</g>
<text text-anchor="middle" x="326.73" y="-495.5" font-family="Helvetica,sans-Serif" font-size="10.00" fill="grey"> +ptr</text>
</g>
<!-- Node3 -->
<g id="Node000003" class="node">
<title>Node3</title>
<g id="a_Node000003"><a xlink:title=" ">
<polygon fill="white" stroke="none" points="407.33,-61 313.08,-61 313.08,0 407.33,0 407.33,-61"/>
<text text-anchor="start" x="317.08" y="-47.5" font-family="Helvetica,sans-Serif" font-size="10.00">std::shared_ptr&lt; HY</text>
<text text-anchor="start" x="329.83" y="-36.25" font-family="Helvetica,sans-Serif" font-size="10.00">_Catchment &gt;</text>
<text text-anchor="start" x="358.71" y="-21" font-family="Helvetica,sans-Serif" font-size="10.00"> </text>
<text text-anchor="start" x="323.58" y="-5.75" font-family="Helvetica,sans-Serif" font-size="10.00">+</text>
<text text-anchor="start" x="340.08" y="-5.75" font-family="Helvetica,sans-Serif" font-size="10.00">operator&#45;&gt;()</text>
<polygon fill="#666666" stroke="#666666" points="313.08,-32.5 313.08,-32.5 407.33,-32.5 407.33,-32.5 313.08,-32.5"/>
<polygon fill="#666666" stroke="#666666" points="313.08,-17.25 313.08,-17.25 407.33,-17.25 407.33,-17.25 313.08,-17.25"/>
<polygon fill="none" stroke="#666666" points="313.08,0 313.08,-61 407.33,-61 407.33,0 313.08,0"/>
</a>
</g>
</g>
<!-- Node3&#45;&gt;Node2 -->
<g id="edge2_Node000002_Node000003" class="edge">
<title>Node3&#45;&gt;Node2</title>
<g id="a_edge2_Node000002_Node000003"><a xlink:title=" ">
<path fill="none" stroke="#63b8ff" d="M313.16,-40.72C270.19,-51.09 206.89,-71.52 163.21,-108.25 59.04,-195.83 41.27,-239.16 4.71,-370.25 -8.64,-418.1 9.48,-471.37 30.29,-511.91"/>
<polygon fill="none" stroke="#63b8ff" points="30.27,-511.87 36.62,-515.28 35.92,-522.46 29.57,-519.05 30.27,-511.87"/>
</a>
</g>
<text text-anchor="middle" x="50.46" y="-377.62" font-family="Helvetica,sans-Serif" font-size="10.00" fill="grey"> #realized_catchment</text>
</g>
<!-- Node4 -->
<g id="Node000004" class="node">
<title>Node4</title>
<g id="a_Node000004"><a xlink:href="class_h_y___catchment.html" target="_top" xlink:title=" ">
<polygon fill="white" stroke="none" points="791.96,-352.25 622.46,-352.25 622.46,-108.25 791.96,-108.25 791.96,-352.25"/>
<text text-anchor="start" x="673.83" y="-338.75" font-family="Helvetica,sans-Serif" font-size="10.00">HY_Catchment</text>
<text text-anchor="start" x="626.46" y="-323.5" font-family="Helvetica,sans-Serif" font-size="10.00">+</text>
<text text-anchor="start" x="636.46" y="-323.5" font-family="Helvetica,sans-Serif" font-size="10.00">ATMOSPHERIC_LAYER_HIGH</text>
<text text-anchor="start" x="626.46" y="-308.25" font-family="Helvetica,sans-Serif" font-size="10.00">+</text>
<text text-anchor="start" x="636.46" y="-308.25" font-family="Helvetica,sans-Serif" font-size="10.00">ATMOSPHERIC_Layer_LOW</text>
<text text-anchor="start" x="626.46" y="-293" font-family="Helvetica,sans-Serif" font-size="10.00">+</text>
<text text-anchor="start" x="636.46" y="-293" font-family="Helvetica,sans-Serif" font-size="10.00">CANOPY_LAYER</text>
<text text-anchor="start" x="626.46" y="-277.75" font-family="Helvetica,sans-Serif" font-size="10.00">+</text>
<text text-anchor="start" x="636.46" y="-277.75" font-family="Helvetica,sans-Serif" font-size="10.00">SNOW_LAYER</text>
<text text-anchor="start" x="626.46" y="-262.5" font-family="Helvetica,sans-Serif" font-size="10.00">+</text>
<text text-anchor="start" x="636.46" y="-262.5" font-family="Helvetica,sans-Serif" font-size="10.00">SURFACE_LAYER</text>
<text text-anchor="start" x="626.46" y="-247.25" font-family="Helvetica,sans-Serif" font-size="10.00">+</text>
<text text-anchor="start" x="636.46" y="-247.25" font-family="Helvetica,sans-Serif" font-size="10.00">GROUND_WATER_SHALLOW</text>
<text text-anchor="start" x="636.46" y="-236" font-family="Helvetica,sans-Serif" font-size="10.00">_LAYER</text>
<text text-anchor="start" x="626.46" y="-220.75" font-family="Helvetica,sans-Serif" font-size="10.00">+</text>
<text text-anchor="start" x="636.46" y="-220.75" font-family="Helvetica,sans-Serif" font-size="10.00">GROUND_WATER_DEEP_LAYER</text>
<text text-anchor="start" x="627.96" y="-205.5" font-family="Helvetica,sans-Serif" font-size="10.00">&#45;</text>
<text text-anchor="start" x="636.46" y="-205.5" font-family="Helvetica,sans-Serif" font-size="10.00">layer</text>
<text text-anchor="start" x="626.46" y="-190.25" font-family="Helvetica,sans-Serif" font-size="10.00">+</text>
<text text-anchor="start" x="636.46" y="-190.25" font-family="Helvetica,sans-Serif" font-size="10.00">HY_Catchment()</text>
<text text-anchor="start" x="626.46" y="-175" font-family="Helvetica,sans-Serif" font-size="10.00">+</text>
<text text-anchor="start" x="636.46" y="-175" font-family="Helvetica,sans-Serif" font-size="10.00">HY_Catchment()</text>
<text text-anchor="start" x="626.46" y="-159.75" font-family="Helvetica,sans-Serif" font-size="10.00">+</text>
<text text-anchor="start" x="636.46" y="-159.75" font-family="Helvetica,sans-Serif" font-size="10.00">~HY_Catchment()</text>
<text text-anchor="start" x="626.46" y="-144.5" font-family="Helvetica,sans-Serif" font-size="10.00">+</text>
<text text-anchor="start" x="636.46" y="-144.5" font-family="Helvetica,sans-Serif" font-size="10.00">get_outflow_nexuses()</text>
<text text-anchor="start" x="626.46" y="-129.25" font-family="Helvetica,sans-Serif" font-size="10.00">+</text>
<text text-anchor="start" x="636.46" y="-129.25" font-family="Helvetica,sans-Serif" font-size="10.00">get_layer()</text>
<text text-anchor="start" x="626.46" y="-114" font-family="Helvetica,sans-Serif" font-size="10.00">+</text>
<text text-anchor="start" x="636.46" y="-114" font-family="Helvetica,sans-Serif" font-size="10.00">set_layer()</text>
<polygon fill="#666666" stroke="#666666" points="622.46,-335 622.46,-335 791.96,-335 791.96,-335 622.46,-335"/>
<polygon fill="#666666" stroke="#666666" points="622.46,-201.75 622.46,-201.75 634.46,-201.75 634.46,-201.75 622.46,-201.75"/>
<polygon fill="#666666" stroke="#666666" points="634.46,-201.75 634.46,-201.75 791.96,-201.75 791.96,-201.75 634.46,-201.75"/>
<polygon fill="none" stroke="#666666" points="622.46,-108.25 622.46,-352.25 791.96,-352.25 791.96,-108.25 622.46,-108.25"/>
</a>
</g>
</g>
<!-- Node4&#45;&gt;Node3 -->
<g id="edge3_Node000003_Node000004" class="edge">
<title>Node4&#45;&gt;Node3</title>
<g id="a_edge3_Node000003_Node000004"><a xlink:title=" ">
<path fill="none" stroke="#63b8ff" d="M622.76,-181.13C559.33,-144.98 474.1,-96.41 418.19,-64.55"/>
<polygon fill="none" stroke="#63b8ff" points="418.28,-64.6 411.09,-65.1 407.86,-58.66 415.05,-58.15 418.28,-64.6"/>
</a>
</g>
<text text-anchor="middle" x="472.49" y="-80.75" font-family="Helvetica,sans-Serif" font-size="10.00" fill="grey"> +ptr</text>
</g>
<!-- Node5 -->
<g id="Node000005" class="node">
<title>Node5</title>
<g id="a_Node000005"><a xlink:href="class_h_y___hydro_feature.html" target="_top" xlink:title=" ">
<polygon fill="white" stroke="none" points="792.83,-475.75 685.58,-475.75 685.58,-410.75 792.83,-410.75 792.83,-475.75"/>
<text text-anchor="start" x="700.21" y="-462.25" font-family="Helvetica,sans-Serif" font-size="10.00">HY_HydroFeature</text>
<text text-anchor="start" x="737.71" y="-447" font-family="Helvetica,sans-Serif" font-size="10.00"> </text>
<text text-anchor="start" x="689.58" y="-431.75" font-family="Helvetica,sans-Serif" font-size="10.00">+</text>
<text text-anchor="start" x="699.58" y="-431.75" font-family="Helvetica,sans-Serif" font-size="10.00">HY_HydroFeature()</text>
<text text-anchor="start" x="689.58" y="-416.5" font-family="Helvetica,sans-Serif" font-size="10.00">+</text>
<text text-anchor="start" x="699.58" y="-416.5" font-family="Helvetica,sans-Serif" font-size="10.00">~HY_HydroFeature()</text>
<polygon fill="#666666" stroke="#666666" points="685.58,-458.5 685.58,-458.5 792.83,-458.5 792.83,-458.5 685.58,-458.5"/>
<polygon fill="#666666" stroke="#666666" points="685.58,-443.25 685.58,-443.25 792.83,-443.25 792.83,-443.25 685.58,-443.25"/>
<polygon fill="none" stroke="#666666" points="685.58,-410.75 685.58,-475.75 792.83,-475.75 792.83,-410.75 685.58,-410.75"/>
</a>
</g>
</g>
<!-- Node5&#45;&gt;Node4 -->
<g id="edge4_Node000004_Node000005" class="edge">
<title>Node5&#45;&gt;Node4</title>
<g id="a_edge4_Node000004_Node000005"><a xlink:title=" ">
<path fill="none" stroke="#63b8ff" d="M732.78,-399.87C730.64,-385.76 728.14,-369.28 725.56,-352.25"/>
<polygon fill="none" stroke="#63b8ff" points="729.3,-400.26 734.26,-409.62 736.22,-399.21 729.3,-400.26"/>
</a>
</g>
</g>
<!-- Node6&#45;&gt;Node4 -->
<g id="edge5_Node000004_Node000006" class="edge">
<title>Node6&#45;&gt;Node4</title>
<g id="a_edge5_Node000004_Node000006"><a xlink:title=" ">
<path fill="none" stroke="#63b8ff" d="M482.5,-412.91C516.03,-385.8 567.33,-344.33 612.45,-307.85"/>
<polygon fill="none" stroke="#63b8ff" points="612.54,-307.78 614.69,-300.9 621.87,-300.24 619.72,-307.12 612.54,-307.78"/>
</a>
</g>
<text text-anchor="middle" x="556.5" y="-377.62" font-family="Helvetica,sans-Serif" font-size="10.00" fill="grey"> +realization</text>
</g>
<!-- Node7 -->
<g id="Node000007" class="node">
<title>Node7</title>
<g id="a_Node000007"><a xlink:title=" ">
<polygon fill="white" stroke="none" points="424.33,-603.25 330.08,-603.25 330.08,-553.5 424.33,-553.5 424.33,-603.25"/>
<text text-anchor="start" x="334.08" y="-589.75" font-family="Helvetica,sans-Serif" font-size="10.00">std::shared_ptr&lt; T &gt;</text>
<text text-anchor="start" x="375.71" y="-574.5" font-family="Helvetica,sans-Serif" font-size="10.00"> </text>
<text text-anchor="start" x="340.58" y="-559.25" font-family="Helvetica,sans-Serif" font-size="10.00">+</text>
<text text-anchor="start" x="357.08" y="-559.25" font-family="Helvetica,sans-Serif" font-size="10.00">operator&#45;&gt;()</text>
<polygon fill="#666666" stroke="#666666" points="330.08,-586 330.08,-586 424.33,-586 424.33,-586 330.08,-586"/>
<polygon fill="#666666" stroke="#666666" points="330.08,-570.75 330.08,-570.75 424.33,-570.75 424.33,-570.75 330.08,-570.75"/>
<polygon fill="none" stroke="#666666" points="330.08,-553.5 330.08,-603.25 424.33,-603.25 424.33,-553.5 330.08,-553.5"/>
</a>
</g>
</g>
<!-- Node7&#45;&gt;Node3 -->
<g id="edge18_Node000003_Node000007" class="edge">
<title>Node7&#45;&gt;Node3</title>
<g id="a_edge18_Node000003_Node000007"><a xlink:title=" ">
<path fill="none" stroke="orange" d="M376.11,-542.26C372.98,-441.72 364.02,-154 361.12,-60.93"/>
<polygon fill="orange" stroke="orange" points="372.61,-542.17 376.42,-552.06 379.61,-541.95 372.61,-542.17"/>
</a>
</g>
<text text-anchor="middle" x="414.16" y="-377.62" font-family="Helvetica,sans-Serif" font-size="10.00" fill="grey"> &lt; HY_Catchment &gt;</text>
</g>
<!-- Node7&#45;&gt;Node6 -->
<g id="edge7_Node000006_Node000007" class="edge">
<title>Node7&#45;&gt;Node6</title>
<g id="a_edge7_Node000006_Node000007"><a xlink:title=" ">
<path fill="none" stroke="orange" d="M379.69,-542.36C381.96,-526.72 386.28,-508.53 394.46,-493.75 398.43,-486.57 403.8,-479.8 409.57,-473.71"/>
<polygon fill="orange" stroke="orange" points="376.22,-541.87 378.5,-552.22 383.17,-542.71 376.22,-541.87"/>
</a>
</g>
<text text-anchor="middle" x="460.83" y="-495.5" font-family="Helvetica,sans-Serif" font-size="10.00" fill="grey"> &lt; HY_CatchmentRealization &gt;</text>
</g>
<!-- Node15 -->
<g id="Node000015" class="node">
<title>Node15</title>
<g id="a_Node000015"><a xlink:title=" ">
<polygon fill="white" stroke="none" points="235.96,-468.12 100.46,-468.12 100.46,-418.38 235.96,-418.38 235.96,-468.12"/>
<text text-anchor="start" x="104.46" y="-454.62" font-family="Helvetica,sans-Serif" font-size="10.00">std::shared_ptr&lt; linestring_t &gt;</text>
<text text-anchor="start" x="121.27" y="-439.38" font-family="Helvetica,sans-Serif" font-size="10.00">+</text>
<text text-anchor="start" x="148.08" y="-439.38" font-family="Helvetica,sans-Serif" font-size="10.00">ptr</text>
<text text-anchor="start" x="121.27" y="-424.12" font-family="Helvetica,sans-Serif" font-size="10.00">+</text>
<text text-anchor="start" x="148.08" y="-424.12" font-family="Helvetica,sans-Serif" font-size="10.00">operator&#45;&gt;()</text>
<polygon fill="#666666" stroke="#666666" points="100.46,-450.88 100.46,-450.88 235.96,-450.88 235.96,-450.88 100.46,-450.88"/>
<polygon fill="#666666" stroke="#666666" points="100.46,-435.62 100.46,-435.62 146.08,-435.62 146.08,-435.62 100.46,-435.62"/>
<polygon fill="#666666" stroke="#666666" points="146.08,-435.62 146.08,-435.62 235.96,-435.62 235.96,-435.62 146.08,-435.62"/>
<polygon fill="none" stroke="#666666" points="100.46,-418.38 100.46,-468.12 235.96,-468.12 235.96,-418.38 100.46,-418.38"/>
</a>
</g>
</g>
<!-- Node7&#45;&gt;Node15 -->
<g id="edge21_Node000015_Node000007" class="edge">
<title>Node7&#45;&gt;Node15</title>
<g id="a_edge21_Node000015_Node000007"><a xlink:title=" ">
<path fill="none" stroke="orange" d="M319.63,-557.76C288.41,-545.48 250.19,-527.67 220.21,-505 206.59,-494.7 194.05,-480.27 184.7,-468.06"/>
<polygon fill="orange" stroke="orange" points="318.36,-561.02 328.95,-561.33 320.86,-554.48 318.36,-561.02"/>
</a>
</g>
<text text-anchor="middle" x="253.21" y="-495.5" font-family="Helvetica,sans-Serif" font-size="10.00" fill="grey"> &lt; linestring_t &gt;</text>
</g>
<!-- Node8 -->
<g id="Node000008" class="node">
<title>Node8</title>
<g id="a_Node000008"><a xlink:title=" ">
<polygon fill="white" stroke="none" points="491.21,-736.38 477.21,-736.38 477.21,-686.62 491.21,-686.62 491.21,-736.38"/>
<text text-anchor="start" x="481.21" y="-722.88" font-family="Helvetica,sans-Serif" font-size="10.00">T</text>
<text text-anchor="start" x="482.71" y="-707.62" font-family="Helvetica,sans-Serif" font-size="10.00"> </text>
<text text-anchor="start" x="482.71" y="-692.38" font-family="Helvetica,sans-Serif" font-size="10.00"> </text>
<polygon fill="#666666" stroke="#666666" points="477.21,-719.12 477.21,-719.12 491.21,-719.12 491.21,-719.12 477.21,-719.12"/>
<polygon fill="#666666" stroke="#666666" points="477.21,-703.88 477.21,-703.88 491.21,-703.88 491.21,-703.88 477.21,-703.88"/>
<polygon fill="none" stroke="#666666" points="477.21,-686.62 477.21,-736.38 491.21,-736.38 491.21,-686.62 477.21,-686.62"/>
</a>
</g>
</g>
<!-- Node8&#45;&gt;Node7 -->
<g id="edge8_Node000007_Node000008" class="edge">
<title>Node8&#45;&gt;Node7</title>
<g id="a_edge8_Node000007_Node000008"><a xlink:title=" ">
<path fill="none" stroke="#63b8ff" d="M477.51,-702.3C463.27,-684.84 429.27,-643.17 404.8,-613.19"/>
<polygon fill="none" stroke="#63b8ff" points="404.74,-613.12 397.85,-611 397.16,-603.82 404.05,-605.94 404.74,-613.12"/>
</a>
</g>
<text text-anchor="middle" x="453.19" y="-653.5" font-family="Helvetica,sans-Serif" font-size="10.00" fill="grey"> +ptr</text>
</g>
<!-- Node12 -->
<g id="Node000012" class="node">
<title>Node12</title>
<g id="a_Node000012"><a xlink:title=" ">
<polygon fill="white" stroke="none" points="656.96,-603.25 581.46,-603.25 581.46,-553.5 656.96,-553.5 656.96,-603.25"/>
<text text-anchor="start" x="585.46" y="-589.75" font-family="Helvetica,sans-Serif" font-size="10.00">std::vector&lt; T &gt;</text>
<text text-anchor="start" x="617.71" y="-574.5" font-family="Helvetica,sans-Serif" font-size="10.00"> </text>
<text text-anchor="start" x="617.71" y="-559.25" font-family="Helvetica,sans-Serif" font-size="10.00"> </text>
<polygon fill="#666666" stroke="#666666" points="581.46,-586 581.46,-586 656.96,-586 656.96,-586 581.46,-586"/>
<polygon fill="#666666" stroke="#666666" points="581.46,-570.75 581.46,-570.75 656.96,-570.75 656.96,-570.75 581.46,-570.75"/>
<polygon fill="none" stroke="#666666" points="581.46,-553.5 581.46,-603.25 656.96,-603.25 656.96,-553.5 581.46,-553.5"/>
</a>
</g>
</g>
<!-- Node8&#45;&gt;Node12 -->
<g id="edge14_Node000012_Node000008" class="edge">
<title>Node8&#45;&gt;Node12</title>
<g id="a_edge14_Node000012_Node000008"><a xlink:title=" ">
<path fill="none" stroke="#63b8ff" d="M491.09,-703.82C508.25,-687.14 553.88,-642.83 585.76,-611.86"/>
<polygon fill="none" stroke="#63b8ff" points="585.51,-612.11 587.03,-605.06 594.12,-603.75 592.6,-610.79 585.51,-612.11"/>
</a>
</g>
<text text-anchor="middle" x="567.62" y="-653.5" font-family="Helvetica,sans-Serif" font-size="10.00" fill="grey"> +elements</text>
</g>
<!-- Node9 -->
<g id="Node000009" class="node">
<title>Node9</title>
<g id="a_Node000009"><a xlink:title=" ">
<polygon fill="white" stroke="none" points="729.21,-603.25 679.21,-603.25 679.21,-553.5 729.21,-553.5 729.21,-603.25"/>
<text text-anchor="start" x="683.21" y="-589.75" font-family="Helvetica,sans-Serif" font-size="10.00">std::string</text>
<text text-anchor="start" x="702.71" y="-574.5" font-family="Helvetica,sans-Serif" font-size="10.00"> </text>
<text text-anchor="start" x="702.71" y="-559.25" font-family="Helvetica,sans-Serif" font-size="10.00"> </text>
<polygon fill="#666666" stroke="#666666" points="679.21,-586 679.21,-586 729.21,-586 729.21,-586 679.21,-586"/>
<polygon fill="#666666" stroke="#666666" points="679.21,-570.75 679.21,-570.75 729.21,-570.75 729.21,-570.75 679.21,-570.75"/>
<polygon fill="none" stroke="#666666" points="679.21,-553.5 679.21,-603.25 729.21,-603.25 729.21,-553.5 679.21,-553.5"/>
</a>
</g>
</g>
<!-- Node9&#45;&gt;Node1 -->
<g id="edge22_Node000001_Node000009" class="edge">
<title>Node9&#45;&gt;Node1</title>
<g id="a_edge22_Node000001_Node000009"><a xlink:title=" ">
<path fill="none" stroke="#63b8ff" d="M692.08,-553.63C685.64,-543.01 676.84,-531.09 666.21,-523 647.07,-508.45 637.56,-513.83 615.21,-505 585.08,-493.1 572.3,-497.67 548.46,-475.75 524.26,-453.51 535.56,-434.84 513.21,-410.75 453.88,-346.84 367.11,-295.87 305.92,-264.81"/>
<polygon fill="none" stroke="#63b8ff" points="305.96,-264.83 298.8,-265.72 295.23,-259.46 302.39,-258.56 305.96,-264.83"/>
</a>
</g>
<text text-anchor="middle" x="554.83" y="-439.38" font-family="Helvetica,sans-Serif" font-size="10.00" fill="grey"> &#45;id</text>
</g>
<!-- Node9&#45;&gt;Node4 -->
<g id="edge9_Node000004_Node000009" class="edge">
<title>Node9&#45;&gt;Node4</title>
<g id="a_edge9_Node000004_Node000009"><a xlink:title=" ">
<path fill="none" stroke="#63b8ff" d="M729.06,-576.33C781.29,-572.55 900.61,-555.21 936.21,-475.75 955.38,-432.96 960.25,-411.09 937.21,-370.25 908.51,-319.37 852.86,-285.01 803.49,-263.18"/>
<polygon fill="none" stroke="#63b8ff" points="803.62,-263.23 796.53,-264.56 792.58,-258.52 799.67,-257.2 803.62,-263.23"/>
</a>
</g>
<text text-anchor="middle" x="1001.74" y="-461.88" font-family="Helvetica,sans-Serif" font-size="10.00" fill="grey"> &#45;conjoint_catchment</text>
<text text-anchor="middle" x="1001.74" y="-450.62" font-family="Helvetica,sans-Serif" font-size="10.00" fill="grey">&#45;containing_catchment</text>
<text text-anchor="middle" x="1001.74" y="-439.38" font-family="Helvetica,sans-Serif" font-size="10.00" fill="grey">&#45;id</text>
<text text-anchor="middle" x="1001.74" y="-428.12" font-family="Helvetica,sans-Serif" font-size="10.00" fill="grey">&#45;lower_catchment</text>
<text text-anchor="middle" x="1001.74" y="-416.88" font-family="Helvetica,sans-Serif" font-size="10.00" fill="grey">&#45;upper_catchment</text>
</g>
<!-- Node11 -->
<g id="Node000011" class="node">
<title>Node11</title>
<g id="a_Node000011"><a xlink:title=" ">
<polygon fill="white" stroke="none" points="667.83,-468.12 570.58,-468.12 570.58,-418.38 667.83,-418.38 667.83,-468.12"/>
<text text-anchor="start" x="574.58" y="-454.62" font-family="Helvetica,sans-Serif" font-size="10.00">std::vector&lt; Nexus &gt;</text>
<text text-anchor="start" x="617.71" y="-439.38" font-family="Helvetica,sans-Serif" font-size="10.00"> </text>
<text text-anchor="start" x="617.71" y="-424.12" font-family="Helvetica,sans-Serif" font-size="10.00"> </text>
<polygon fill="#666666" stroke="#666666" points="570.58,-450.88 570.58,-450.88 667.83,-450.88 667.83,-450.88 570.58,-450.88"/>
<polygon fill="#666666" stroke="#666666" points="570.58,-435.62 570.58,-435.62 667.83,-435.62 667.83,-435.62 570.58,-435.62"/>
<polygon fill="none" stroke="#666666" points="570.58,-418.38 570.58,-468.12 667.83,-468.12 667.83,-418.38 570.58,-418.38"/>
</a>
</g>
</g>
<!-- Node9&#45;&gt;Node11 -->
<g id="edge12_Node000011_Node000009" class="edge">
<title>Node9&#45;&gt;Node11</title>
<g id="a_edge12_Node000011_Node000009"><a xlink:title=" ">
<path fill="none" stroke="#63b8ff" d="M697.51,-553.74C691.88,-536.25 682.74,-512.33 670.21,-493.75 666.33,-488 661.69,-482.38 656.82,-477.12"/>
<polygon fill="none" stroke="#63b8ff" points="656.96,-477.27 649.9,-475.81 648.53,-468.72 655.59,-470.19 656.96,-477.27"/>
</a>
</g>
<text text-anchor="middle" x="700.61" y="-495.5" font-family="Helvetica,sans-Serif" font-size="10.00" fill="grey"> +elements</text>
</g>
<!-- Node13 -->
<g id="Node000013" class="node">
<title>Node13</title>
<g id="a_Node000013"><a xlink:title=" ">
<polygon fill="white" stroke="none" points="927.58,-468.12 810.83,-468.12 810.83,-418.38 927.58,-418.38 927.58,-468.12"/>
<text text-anchor="start" x="814.83" y="-454.62" font-family="Helvetica,sans-Serif" font-size="10.00">std::vector&lt; Catchment &gt;</text>
<text text-anchor="start" x="867.71" y="-439.38" font-family="Helvetica,sans-Serif" font-size="10.00"> </text>
<text text-anchor="start" x="867.71" y="-424.12" font-family="Helvetica,sans-Serif" font-size="10.00"> </text>
<polygon fill="#666666" stroke="#666666" points="810.83,-450.88 810.83,-450.88 927.58,-450.88 927.58,-450.88 810.83,-450.88"/>
<polygon fill="#666666" stroke="#666666" points="810.83,-435.62 810.83,-435.62 927.58,-435.62 927.58,-435.62 810.83,-435.62"/>
<polygon fill="none" stroke="#666666" points="810.83,-418.38 810.83,-468.12 927.58,-468.12 927.58,-418.38 810.83,-418.38"/>
</a>
</g>
</g>
<!-- Node9&#45;&gt;Node13 -->
<g id="edge16_Node000013_Node000009" class="edge">
<title>Node9&#45;&gt;Node13</title>
<g id="a_edge16_Node000013_Node000009"><a xlink:title=" ">
<path fill="none" stroke="#63b8ff" d="M728.98,-570.61C760.08,-560.92 813.24,-540.27 845.21,-505 851.57,-497.98 856.34,-489.06 859.88,-480.24"/>
<polygon fill="none" stroke="#63b8ff" points="859.88,-480.23 858.06,-473.25 863.8,-468.89 865.62,-475.86 859.88,-480.23"/>
</a>
</g>
<text text-anchor="middle" x="876.54" y="-495.5" font-family="Helvetica,sans-Serif" font-size="10.00" fill="grey"> +elements</text>
</g>
<!-- Node10 -->
<g id="Node000010" class="node">
<title>Node10</title>
<g id="a_Node000010"><a xlink:title=" ">
<polygon fill="white" stroke="none" points="746.46,-742 661.96,-742 661.96,-681 746.46,-681 746.46,-742"/>
<text text-anchor="start" x="665.96" y="-728.5" font-family="Helvetica,sans-Serif" font-size="10.00">std::basic_string&lt;</text>
<text text-anchor="start" x="688.83" y="-717.25" font-family="Helvetica,sans-Serif" font-size="10.00"> Char &gt;</text>
<text text-anchor="start" x="702.71" y="-702" font-family="Helvetica,sans-Serif" font-size="10.00"> </text>
<text text-anchor="start" x="702.71" y="-686.75" font-family="Helvetica,sans-Serif" font-size="10.00"> </text>
<polygon fill="#666666" stroke="#666666" points="661.96,-713.5 661.96,-713.5 746.46,-713.5 746.46,-713.5 661.96,-713.5"/>
<polygon fill="#666666" stroke="#666666" points="661.96,-698.25 661.96,-698.25 746.46,-698.25 746.46,-698.25 661.96,-698.25"/>
<polygon fill="none" stroke="#666666" points="661.96,-681 661.96,-742 746.46,-742 746.46,-681 661.96,-681"/>
</a>
</g>
</g>
<!-- Node10&#45;&gt;Node9 -->
<g id="edge10_Node000009_Node000010" class="edge">
<title>Node10&#45;&gt;Node9</title>
<g id="a_edge10_Node000009_Node000010"><a xlink:title=" ">
<path fill="none" stroke="#63b8ff" d="M704.21,-669.75C704.21,-647.83 704.21,-621.57 704.21,-603.02"/>
<polygon fill="none" stroke="#63b8ff" points="700.71,-669.56 704.21,-679.56 707.71,-669.56 700.71,-669.56"/>
</a>
</g>
</g>
<!-- Node11&#45;&gt;Node4 -->
<g id="edge11_Node000004_Node000011" class="edge">
<title>Node11&#45;&gt;Node4</title>
<g id="a_edge11_Node000004_Node000011"><a xlink:title=" ">
<path fill="none" stroke="#63b8ff" d="M633.66,-418.48C638.27,-410.45 643.21,-401.34 647.21,-392.75 651.51,-383.49 655.73,-373.84 659.82,-364.05"/>
<polygon fill="none" stroke="#63b8ff" points="659.84,-364 658.41,-356.93 664.39,-352.9 665.82,-359.97 659.84,-364"/>
</a>
</g>
<text text-anchor="middle" x="676.23" y="-383.25" font-family="Helvetica,sans-Serif" font-size="10.00" fill="grey"> &#45;inflows</text>
<text text-anchor="middle" x="676.23" y="-372" font-family="Helvetica,sans-Serif" font-size="10.00" fill="grey">&#45;outflows</text>
</g>
<!-- Node12&#45;&gt;Node11 -->
<g id="edge13_Node000011_Node000012" class="edge">
<title>Node12&#45;&gt;Node11</title>
<g id="a_edge13_Node000011_Node000012"><a xlink:title=" ">
<path fill="none" stroke="orange" d="M619.21,-542.33C619.21,-518.82 619.21,-488.51 619.21,-467.84"/>
<polygon fill="orange" stroke="orange" points="615.71,-542.06 619.21,-552.06 622.71,-542.06 615.71,-542.06"/>
</a>
</g>
<text text-anchor="middle" x="642.46" y="-495.5" font-family="Helvetica,sans-Serif" font-size="10.00" fill="grey"> &lt; Nexus &gt;</text>
</g>
<!-- Node12&#45;&gt;Node13 -->
<g id="edge17_Node000013_Node000012" class="edge">
<title>Node12&#45;&gt;Node13</title>
<g id="a_edge17_Node000013_Node000012"><a xlink:title=" ">
<path fill="none" stroke="orange" d="M644.3,-545.12C651.9,-537 660.76,-528.91 670.21,-523 693.09,-508.68 702.75,-513.97 728.21,-505 761.56,-493.25 769.74,-489.78 802.21,-475.75 807.87,-473.3 813.77,-470.67 819.61,-468"/>
<polygon fill="orange" stroke="orange" points="641.88,-542.58 637.87,-552.39 647.12,-547.22 641.88,-542.58"/>
</a>
</g>
<text text-anchor="middle" x="791.04" y="-495.5" font-family="Helvetica,sans-Serif" font-size="10.00" fill="grey"> &lt; Catchment &gt;</text>
</g>
<!-- Node13&#45;&gt;Node4 -->
<g id="edge15_Node000004_Node000013" class="edge">
<title>Node13&#45;&gt;Node4</title>
<g id="a_edge15_Node000004_Node000013"><a xlink:title=" ">
<path fill="none" stroke="#63b8ff" d="M850.94,-418.46C837.86,-401.42 819.17,-377.07 799.56,-351.54"/>
<polygon fill="none" stroke="#63b8ff" points="799.58,-351.56 792.75,-349.24 792.27,-342.04 799.1,-344.37 799.58,-351.56"/>
</a>
</g>
<text text-anchor="middle" x="881.81" y="-377.62" font-family="Helvetica,sans-Serif" font-size="10.00" fill="grey"> &#45;contained_catchments</text>
</g>
<!-- Node14 -->
<g id="Node000014" class="node">
<title>Node14</title>
<g id="a_Node000014"><a xlink:href="class_g_m___object.html" target="_top" xlink:title=" ">
<polygon fill="white" stroke="none" points="332.58,-475.75 253.83,-475.75 253.83,-410.75 332.58,-410.75 332.58,-475.75"/>
<text text-anchor="start" x="268.46" y="-462.25" font-family="Helvetica,sans-Serif" font-size="10.00">GM_Object</text>
<text text-anchor="start" x="291.71" y="-447" font-family="Helvetica,sans-Serif" font-size="10.00"> </text>
<text text-anchor="start" x="257.83" y="-431.75" font-family="Helvetica,sans-Serif" font-size="10.00">+</text>
<text text-anchor="start" x="267.83" y="-431.75" font-family="Helvetica,sans-Serif" font-size="10.00">GM_Object()</text>
<text text-anchor="start" x="257.83" y="-416.5" font-family="Helvetica,sans-Serif" font-size="10.00">+</text>
<text text-anchor="start" x="267.83" y="-416.5" font-family="Helvetica,sans-Serif" font-size="10.00">~GM_Object()</text>
<polygon fill="#666666" stroke="#666666" points="253.83,-458.5 253.83,-458.5 332.58,-458.5 332.58,-458.5 253.83,-458.5"/>
<polygon fill="#666666" stroke="#666666" points="253.83,-443.25 253.83,-443.25 332.58,-443.25 332.58,-443.25 253.83,-443.25"/>
<polygon fill="none" stroke="#666666" points="253.83,-410.75 253.83,-475.75 332.58,-475.75 332.58,-410.75 253.83,-410.75"/>
</a>
</g>
</g>
<!-- Node14&#45;&gt;Node1 -->
<g id="edge19_Node000001_Node000014" class="edge">
<title>Node14&#45;&gt;Node1</title>
<g id="a_edge19_Node000001_Node000014"><a xlink:title=" ">
<path fill="none" stroke="#63b8ff" d="M281.26,-400.23C269.71,-359.62 252.48,-299.03 242.1,-262.51"/>
<polygon fill="none" stroke="#63b8ff" points="277.84,-401 283.94,-409.66 284.57,-399.08 277.84,-401"/>
</a>
</g>
</g>
<!-- Node15&#45;&gt;Node1 -->
<g id="edge20_Node000001_Node000015" class="edge">
<title>Node15&#45;&gt;Node1</title>
<g id="a_edge20_Node000001_Node000015"><a xlink:title=" ">
<path fill="none" stroke="#63b8ff" d="M175.54,-418.46C186.26,-383.63 206.42,-318.21 219.83,-274.67"/>
<polygon fill="none" stroke="#63b8ff" points="219.79,-274.8 217.73,-267.89 223.32,-263.33 225.38,-270.24 219.79,-274.8"/>
</a>
</g>
<text text-anchor="middle" x="216.61" y="-377.62" font-family="Helvetica,sans-Serif" font-size="10.00" fill="grey"> &#45;divide_path</text>
</g>
</g>
</svg>

<g id="navigator" transform="translate(0 0)" fill="#404254">
  <rect fill="#f2f5e9" fill-opacity="0.5" stroke="#606060" stroke-width=".5" x="0" y="0" width="60" height="60"/>
  <use id="zoomplus" xlink:href="#zoomPlus" x="17" y="9" onmousedown="handleZoom(evt,'in')"/>
  <use id="zoomminus" xlink:href="#zoomMin" x="42" y="9" onmousedown="handleZoom(evt,'out')"/>
  <use id="reset" xlink:href="#resetDef" x="30" y="36" onmousedown="handleReset()"/>
   <use id="arrowup" xlink:href="#arrowUp" x="0" y="0" onmousedown="handlePan(0,-1)"/>
  <use id="arrowright" xlink:href="#arrowRight" x="0" y="0" onmousedown="handlePan(1,0)"/>
  <use id="arrowdown" xlink:href="#arrowDown" x="0" y="0" onmousedown="handlePan(0,1)"/>
  <use id="arrowleft" xlink:href="#arrowLeft" x="0" y="0" onmousedown="handlePan(-1,0)"/>
</g>
<svg viewBox="0 0 15 15" width="100%" height="30px" preserveAspectRatio="xMaxYMin meet">
 <g id="arrow_out" transform="scale(0.3 0.3)">
  <a xlink:href="class_h_y___catchment_divide__coll__graph_org.svg" target="_base">
   <rect id="button" ry="5" rx="5" y="6" x="6" height="38" width="38"
        fill="#f2f5e9" fill-opacity="0.5" stroke="#606060" stroke-width="1.0"/>
   <path id="arrow"
     d="M 11.500037,31.436501 C 11.940474,20.09759 22.043105,11.32322 32.158766,21.979434 L 37.068811,17.246167 C 37.068811,17.246167 37.088388,32 37.088388,32 L 22.160133,31.978069 C 22.160133,31.978069 26.997745,27.140456 26.997745,27.140456 C 18.528582,18.264221 13.291696,25.230495 11.500037,31.436501 z"
     style="fill:#404040;"/>
  </a>
 </g>
</svg>

<style type='text/css'>
<![CDATA[
[data-mouse-over-selected='false'] { opacity: 0.7; }
[data-mouse-over-selected='true']  { opacity: 1.0; }
]]>
</style>
<script type="application/ecmascript"><![CDATA[
document.addEventListener('DOMContentLoaded', (event) => {
  highlightEdges();
  highlightAdjacentNodes();
});
]]></script>
</svg>
