<?xml version="1.0" encoding="UTF-8" standalone="no"?>
<!DOCTYPE svg PUBLIC "-//W3C//DTD SVG 1.1//EN"
 "http://www.w3.org/Graphics/SVG/1.1/DTD/svg11.dtd">
<!-- Generated by graphviz version 3.0.0 (20220413.0242)
 -->
<!-- Title: models::bmi::Bmi_Adapter&lt; T &gt; Pages: 1 -->
<svg width="709pt" height="1163pt"
 viewBox="0.00 0.00 709.00 1163.00" xmlns="http://www.w3.org/2000/svg" xmlns:xlink="http://www.w3.org/1999/xlink">
<g id="graph0" class="graph" transform="scale(1 1) rotate(0) translate(4 1159)">
<title>models::bmi::Bmi_Adapter&lt; T &gt;</title>
<polygon fill="white" stroke="transparent" points="-4,4 -4,-1159 705,-1159 705,4 -4,4"/>
<!-- Node1 -->
<g id="node1" class="node">
<title>Node1</title>
<g id="a_node1"><a xlink:title="Abstract adapter interface for C++ classes to interact with the essential aspects of external models ...">
<polygon fill="#bfbfbf" stroke="black" points="204,-0.5 204,-299.5 356,-299.5 356,-0.5 204,-0.5"/>
<text text-anchor="middle" x="280" y="-287.5" font-family="Helvetica,sans-Serif" font-size="10.00">models::bmi::Bmi_Adapter&lt; T &gt;</text>
<polyline fill="none" stroke="black" points="204,-280.5 356,-280.5 "/>
<text text-anchor="start" x="212" y="-268.5" font-family="Helvetica,sans-Serif" font-size="10.00"># allow_model_exceed</text>
<text text-anchor="start" x="212" y="-257.5" font-family="Helvetica,sans-Serif" font-size="10.00">_end_time</text>
<text text-anchor="start" x="212" y="-246.5" font-family="Helvetica,sans-Serif" font-size="10.00"># bmi_model</text>
<text text-anchor="start" x="212" y="-235.5" font-family="Helvetica,sans-Serif" font-size="10.00"># bmi_model_has_fixed</text>
<text text-anchor="start" x="212" y="-224.5" font-family="Helvetica,sans-Serif" font-size="10.00">_time_step</text>
<text text-anchor="start" x="212" y="-213.5" font-family="Helvetica,sans-Serif" font-size="10.00"># bmi_model_time_convert</text>
<text text-anchor="start" x="212" y="-202.5" font-family="Helvetica,sans-Serif" font-size="10.00">_factor</text>
<text text-anchor="start" x="212" y="-191.5" font-family="Helvetica,sans-Serif" font-size="10.00"># bmi_model_uses_forcing_file</text>
<text text-anchor="start" x="212" y="-180.5" font-family="Helvetica,sans-Serif" font-size="10.00"># model_initialized</text>
<polyline fill="none" stroke="black" points="204,-173.5 356,-173.5 "/>
<text text-anchor="start" x="212" y="-161.5" font-family="Helvetica,sans-Serif" font-size="10.00">+ Bmi_Adapter()</text>
<text text-anchor="start" x="212" y="-150.5" font-family="Helvetica,sans-Serif" font-size="10.00">+ Bmi_Adapter()</text>
<text text-anchor="start" x="212" y="-139.5" font-family="Helvetica,sans-Serif" font-size="10.00">+ Bmi_Adapter()</text>
<text text-anchor="start" x="212" y="-128.5" font-family="Helvetica,sans-Serif" font-size="10.00">+ acquire_time_conversion</text>
<text text-anchor="start" x="212" y="-117.5" font-family="Helvetica,sans-Serif" font-size="10.00">_factor()</text>
<text text-anchor="start" x="212" y="-106.5" font-family="Helvetica,sans-Serif" font-size="10.00">+ convert_model_time</text>
<text text-anchor="start" x="212" y="-95.5" font-family="Helvetica,sans-Serif" font-size="10.00">_to_seconds()</text>
<text text-anchor="start" x="212" y="-84.5" font-family="Helvetica,sans-Serif" font-size="10.00">+ convert_seconds_to</text>
<text text-anchor="start" x="212" y="-73.5" font-family="Helvetica,sans-Serif" font-size="10.00">_model_time()</text>
<text text-anchor="start" x="212" y="-62.5" font-family="Helvetica,sans-Serif" font-size="10.00">+ get_analogous_cxx_type()</text>
<text text-anchor="start" x="212" y="-51.5" font-family="Helvetica,sans-Serif" font-size="10.00">+ Initialize()</text>
<text text-anchor="start" x="212" y="-40.5" font-family="Helvetica,sans-Serif" font-size="10.00">+ Initialize()</text>
<text text-anchor="start" x="212" y="-29.5" font-family="Helvetica,sans-Serif" font-size="10.00">+ isInitialized()</text>
<text text-anchor="start" x="212" y="-18.5" font-family="Helvetica,sans-Serif" font-size="10.00"># construct_and_init</text>
<text text-anchor="start" x="212" y="-7.5" font-family="Helvetica,sans-Serif" font-size="10.00">_backing_model()</text>
</a>
</g>
</g>
<!-- Node2 -->
<g id="node2" class="node">
<title>Node2</title>
<g id="a_node2"><a xlink:href="classbmi_1_1_bmi.html" target="_top" xlink:title=" ">
<polygon fill="white" stroke="black" points="0,-358.5 0,-580.5 122,-580.5 122,-358.5 0,-358.5"/>
<text text-anchor="middle" x="61" y="-568.5" font-family="Helvetica,sans-Serif" font-size="10.00">bmi::Bmi</text>
<polyline fill="none" stroke="black" points="0,-561.5 122,-561.5 "/>
<text text-anchor="middle" x="61" y="-549.5" font-family="Helvetica,sans-Serif" font-size="10.00"> </text>
<polyline fill="none" stroke="black" points="0,-542.5 122,-542.5 "/>
<text text-anchor="start" x="8" y="-530.5" font-family="Helvetica,sans-Serif" font-size="10.00">+ Initialize()</text>
<text text-anchor="start" x="8" y="-519.5" font-family="Helvetica,sans-Serif" font-size="10.00">+ Update()</text>
<text text-anchor="start" x="8" y="-508.5" font-family="Helvetica,sans-Serif" font-size="10.00">+ UpdateUntil()</text>
<text text-anchor="start" x="8" y="-497.5" font-family="Helvetica,sans-Serif" font-size="10.00">+ Finalize()</text>
<text text-anchor="start" x="8" y="-486.5" font-family="Helvetica,sans-Serif" font-size="10.00">+ GetComponentName()</text>
<text text-anchor="start" x="8" y="-475.5" font-family="Helvetica,sans-Serif" font-size="10.00">+ GetInputItemCount()</text>
<text text-anchor="start" x="8" y="-464.5" font-family="Helvetica,sans-Serif" font-size="10.00">+ GetOutputItemCount()</text>
<text text-anchor="start" x="8" y="-453.5" font-family="Helvetica,sans-Serif" font-size="10.00">+ GetInputVarNames()</text>
<text text-anchor="start" x="8" y="-442.5" font-family="Helvetica,sans-Serif" font-size="10.00">+ GetOutputVarNames()</text>
<text text-anchor="start" x="8" y="-431.5" font-family="Helvetica,sans-Serif" font-size="10.00">+ GetVarGrid()</text>
<text text-anchor="start" x="8" y="-420.5" font-family="Helvetica,sans-Serif" font-size="10.00">+ GetVarType()</text>
<text text-anchor="start" x="8" y="-409.5" font-family="Helvetica,sans-Serif" font-size="10.00">+ GetVarUnits()</text>
<text text-anchor="start" x="8" y="-398.5" font-family="Helvetica,sans-Serif" font-size="10.00">+ GetVarItemsize()</text>
<text text-anchor="start" x="8" y="-387.5" font-family="Helvetica,sans-Serif" font-size="10.00">+ GetVarNbytes()</text>
<text text-anchor="start" x="8" y="-376.5" font-family="Helvetica,sans-Serif" font-size="10.00">+ GetVarLocation()</text>
<text text-anchor="start" x="8" y="-365.5" font-family="Helvetica,sans-Serif" font-size="10.00">and 26 more...</text>
</a>
</g>
</g>
<!-- Node2&#45;&gt;Node1 -->
<g id="edge1" class="edge">
<title>Node2&#45;&gt;Node1</title>
<path fill="none" stroke="midnightblue" d="M127.69,-362.91C128.8,-361.26 129.9,-359.62 131,-358 154.12,-323.79 180.17,-287.04 203.94,-254.13"/>
<polygon fill="none" stroke="midnightblue" points="124.76,-361.01 122.14,-371.27 130.59,-364.88 124.76,-361.01"/>
</g>
<!-- Node3 -->
<g id="node3" class="node">
<title>Node3</title>
<g id="a_node3"><a xlink:title=" ">
<polygon fill="white" stroke="black" points="544.5,-791.5 544.5,-848.5 603.5,-848.5 603.5,-791.5 544.5,-791.5"/>
<text text-anchor="middle" x="574" y="-836.5" font-family="Helvetica,sans-Serif" font-size="10.00">std::string</text>
<polyline fill="none" stroke="black" points="544.5,-829.5 603.5,-829.5 "/>
<text text-anchor="middle" x="574" y="-817.5" font-family="Helvetica,sans-Serif" font-size="10.00"> </text>
<polyline fill="none" stroke="black" points="544.5,-810.5 603.5,-810.5 "/>
<text text-anchor="middle" x="574" y="-798.5" font-family="Helvetica,sans-Serif" font-size="10.00"> </text>
</a>
</g>
</g>
<!-- Node3&#45;&gt;Node1 -->
<g id="edge2" class="edge">
<title>Node3&#45;&gt;Node1</title>
<path fill="none" stroke="#404040" d="M579.99,-791.48C594.78,-716.63 626.47,-505.17 549,-358 509.49,-282.95 429.39,-226.86 366.81,-192.13"/>
<polygon fill="none" stroke="#404040" points="366.68,-192.06 359.5,-192.7 356.14,-186.32 363.33,-185.68 366.68,-192.06"/>
<text text-anchor="middle" x="643.5" y="-642" font-family="Helvetica,sans-Serif" font-size="10.00"> #bmi_init_config</text>
<text text-anchor="middle" x="643.5" y="-631" font-family="Helvetica,sans-Serif" font-size="10.00">#forcing_file_path</text>
<text text-anchor="middle" x="643.5" y="-620" font-family="Helvetica,sans-Serif" font-size="10.00">#init_exception_msg</text>
<text text-anchor="middle" x="643.5" y="-609" font-family="Helvetica,sans-Serif" font-size="10.00">#model_name</text>
</g>
<!-- Node9 -->
<g id="node9" class="node">
<title>Node9</title>
<g id="a_node9"><a xlink:title=" ">
<polygon fill="white" stroke="black" points="444,-681 444,-738 546,-738 546,-681 444,-681"/>
<text text-anchor="middle" x="495" y="-726" font-family="Helvetica,sans-Serif" font-size="10.00">std::vector&lt; string &gt;</text>
<polyline fill="none" stroke="black" points="444,-719 546,-719 "/>
<text text-anchor="middle" x="495" y="-707" font-family="Helvetica,sans-Serif" font-size="10.00"> </text>
<polyline fill="none" stroke="black" points="444,-700 546,-700 "/>
<text text-anchor="middle" x="495" y="-688" font-family="Helvetica,sans-Serif" font-size="10.00"> </text>
</a>
</g>
</g>
<!-- Node3&#45;&gt;Node9 -->
<g id="edge9" class="edge">
<title>Node3&#45;&gt;Node9</title>
<path fill="none" stroke="#404040" d="M544.38,-803.42C532.39,-795.75 519.43,-785.45 511,-773 506.32,-766.08 503,-757.89 500.66,-749.76"/>
<polygon fill="none" stroke="#404040" points="500.65,-749.71 495.37,-744.79 497.87,-738.03 503.15,-742.94 500.65,-749.71"/>
<text text-anchor="middle" x="535.5" y="-765" font-family="Helvetica,sans-Serif" font-size="10.00"> +elements</text>
</g>
<!-- Node11 -->
<g id="node11" class="node">
<title>Node11</title>
<g id="a_node11"><a xlink:href="classutils_1_1_stream_handler.html" target="_top" xlink:title="This class provides a copyable interface to a std::ostream or std::ostream like object that may not s...">
<polygon fill="white" stroke="black" points="140,-391.5 140,-547.5 244,-547.5 244,-391.5 140,-391.5"/>
<text text-anchor="middle" x="192" y="-535.5" font-family="Helvetica,sans-Serif" font-size="10.00">utils::StreamHandler</text>
<polyline fill="none" stroke="black" points="140,-528.5 244,-528.5 "/>
<text text-anchor="middle" x="192" y="-516.5" font-family="Helvetica,sans-Serif" font-size="10.00"> </text>
<polyline fill="none" stroke="black" points="140,-509.5 244,-509.5 "/>
<text text-anchor="start" x="148" y="-497.5" font-family="Helvetica,sans-Serif" font-size="10.00">+ StreamHandler()</text>
<text text-anchor="start" x="148" y="-486.5" font-family="Helvetica,sans-Serif" font-size="10.00">+ StreamHandler()</text>
<text text-anchor="start" x="148" y="-475.5" font-family="Helvetica,sans-Serif" font-size="10.00">+ StreamHandler()</text>
<text text-anchor="start" x="148" y="-464.5" font-family="Helvetica,sans-Serif" font-size="10.00">+ StreamHandler()</text>
<text text-anchor="start" x="148" y="-453.5" font-family="Helvetica,sans-Serif" font-size="10.00">+ ~StreamHandler()</text>
<text text-anchor="start" x="148" y="-442.5" font-family="Helvetica,sans-Serif" font-size="10.00">+ operator=()</text>
<text text-anchor="start" x="148" y="-431.5" font-family="Helvetica,sans-Serif" font-size="10.00">+ put()</text>
<text text-anchor="start" x="148" y="-420.5" font-family="Helvetica,sans-Serif" font-size="10.00">+ put_indexed()</text>
<text text-anchor="start" x="148" y="-409.5" font-family="Helvetica,sans-Serif" font-size="10.00">+ put_var()</text>
<text text-anchor="start" x="148" y="-398.5" font-family="Helvetica,sans-Serif" font-size="10.00">+ operator&lt;&lt;()</text>
</a>
</g>
</g>
<!-- Node3&#45;&gt;Node11 -->
<g id="edge20" class="edge">
<title>Node3&#45;&gt;Node11</title>
<path fill="none" stroke="#404040" d="M602.05,-791.47C645.1,-745.98 717.15,-654.66 664,-599 633.96,-567.55 311.33,-601.55 273,-581 261.6,-574.89 251.4,-566.39 242.38,-556.8"/>
<polygon fill="none" stroke="#404040" points="242.34,-556.75 235.38,-554.86 234.45,-547.71 241.41,-549.6 242.34,-556.75"/>
<text text-anchor="middle" x="689" y="-707" font-family="Helvetica,sans-Serif" font-size="10.00"> #sep</text>
</g>
<!-- Node4 -->
<g id="node4" class="node">
<title>Node4</title>
<g id="a_node4"><a xlink:title=" ">
<polygon fill="white" stroke="black" points="527.5,-896.5 527.5,-964.5 620.5,-964.5 620.5,-896.5 527.5,-896.5"/>
<text text-anchor="start" x="535.5" y="-952.5" font-family="Helvetica,sans-Serif" font-size="10.00">std::basic_string&lt;</text>
<text text-anchor="middle" x="574" y="-941.5" font-family="Helvetica,sans-Serif" font-size="10.00"> Char &gt;</text>
<polyline fill="none" stroke="black" points="527.5,-934.5 620.5,-934.5 "/>
<text text-anchor="middle" x="574" y="-922.5" font-family="Helvetica,sans-Serif" font-size="10.00"> </text>
<polyline fill="none" stroke="black" points="527.5,-915.5 620.5,-915.5 "/>
<text text-anchor="middle" x="574" y="-903.5" font-family="Helvetica,sans-Serif" font-size="10.00"> </text>
</a>
</g>
</g>
<!-- Node4&#45;&gt;Node3 -->
<g id="edge3" class="edge">
<title>Node4&#45;&gt;Node3</title>
<path fill="none" stroke="midnightblue" d="M574,-886.06C574,-873.51 574,-860.15 574,-848.83"/>
<polygon fill="none" stroke="midnightblue" points="570.5,-886.36 574,-896.36 577.5,-886.36 570.5,-886.36"/>
</g>
<!-- Node5 -->
<g id="node5" class="node">
<title>Node5</title>
<g id="a_node5"><a xlink:title=" ">
<polygon fill="white" stroke="black" points="213.5,-599.5 213.5,-656.5 338.5,-656.5 338.5,-599.5 213.5,-599.5"/>
<text text-anchor="middle" x="276" y="-644.5" font-family="Helvetica,sans-Serif" font-size="10.00">std::shared_ptr&lt; double &gt;</text>
<polyline fill="none" stroke="black" points="213.5,-637.5 338.5,-637.5 "/>
<text text-anchor="start" x="221.5" y="-625.5" font-family="Helvetica,sans-Serif" font-size="10.00">+ ptr</text>
<polyline fill="none" stroke="black" points="213.5,-618.5 338.5,-618.5 "/>
<text text-anchor="start" x="221.5" y="-606.5" font-family="Helvetica,sans-Serif" font-size="10.00">+ operator&#45;&gt;()</text>
</a>
</g>
</g>
<!-- Node5&#45;&gt;Node1 -->
<g id="edge4" class="edge">
<title>Node5&#45;&gt;Node1</title>
<path fill="none" stroke="#404040" d="M276.23,-599.35C276.7,-544.18 277.77,-416.72 278.65,-311.74"/>
<polygon fill="none" stroke="#404040" points="278.65,-311.71 274.7,-305.68 278.75,-299.71 282.7,-305.75 278.65,-311.71"/>
<text text-anchor="middle" x="342" y="-467" font-family="Helvetica,sans-Serif" font-size="10.00"> #bmi_model_time_step_size</text>
</g>
<!-- Node6 -->
<g id="node6" class="node">
<title>Node6</title>
<g id="a_node6"><a xlink:title=" ">
<polygon fill="white" stroke="black" points="229.5,-791.5 229.5,-848.5 332.5,-848.5 332.5,-791.5 229.5,-791.5"/>
<text text-anchor="middle" x="281" y="-836.5" font-family="Helvetica,sans-Serif" font-size="10.00">std::shared_ptr&lt; T &gt;</text>
<polyline fill="none" stroke="black" points="229.5,-829.5 332.5,-829.5 "/>
<text text-anchor="middle" x="281" y="-817.5" font-family="Helvetica,sans-Serif" font-size="10.00"> </text>
<polyline fill="none" stroke="black" points="229.5,-810.5 332.5,-810.5 "/>
<text text-anchor="start" x="237.5" y="-798.5" font-family="Helvetica,sans-Serif" font-size="10.00">+ operator&#45;&gt;()</text>
</a>
</g>
</g>
<!-- Node6&#45;&gt;Node5 -->
<g id="edge5" class="edge">
<title>Node6&#45;&gt;Node5</title>
<path fill="none" stroke="orange" d="M277.47,-781.24C277.29,-778.46 277.13,-775.68 277,-773 275.1,-732.54 275.21,-685.62 275.54,-656.62"/>
<polygon fill="orange" stroke="orange" points="273.99,-781.59 278.23,-791.29 280.97,-781.06 273.99,-781.59"/>
<text text-anchor="middle" x="301" y="-765" font-family="Helvetica,sans-Serif" font-size="10.00"> &lt; double &gt;</text>
</g>
<!-- Node8 -->
<g id="node8" class="node">
<title>Node8</title>
<g id="a_node8"><a xlink:title=" ">
<polygon fill="white" stroke="black" points="424,-435.5 424,-503.5 540,-503.5 540,-435.5 424,-435.5"/>
<text text-anchor="start" x="432" y="-491.5" font-family="Helvetica,sans-Serif" font-size="10.00">std::shared_ptr&lt; vector</text>
<text text-anchor="middle" x="482" y="-480.5" font-family="Helvetica,sans-Serif" font-size="10.00">&lt; string &gt; &gt;</text>
<polyline fill="none" stroke="black" points="424,-473.5 540,-473.5 "/>
<text text-anchor="middle" x="482" y="-461.5" font-family="Helvetica,sans-Serif" font-size="10.00"> </text>
<polyline fill="none" stroke="black" points="424,-454.5 540,-454.5 "/>
<text text-anchor="start" x="432" y="-442.5" font-family="Helvetica,sans-Serif" font-size="10.00">+ operator&#45;&gt;()</text>
</a>
</g>
</g>
<!-- Node6&#45;&gt;Node8 -->
<g id="edge12" class="edge">
<title>Node6&#45;&gt;Node8</title>
<path fill="none" stroke="orange" d="M318.09,-783.69C320.66,-780.24 323.01,-776.66 325,-773 346.33,-733.67 330.36,-716.11 348,-675 349.98,-670.38 422.45,-560.54 459.97,-503.79"/>
<polygon fill="orange" stroke="orange" points="315.37,-781.48 311.76,-791.45 320.79,-785.91 315.37,-781.48"/>
<text text-anchor="middle" x="391.5" y="-707" font-family="Helvetica,sans-Serif" font-size="10.00"> &lt; vector&lt; string &gt; &gt;</text>
</g>
<!-- Node12 -->
<g id="node12" class="node">
<title>Node12</title>
<g id="a_node12"><a xlink:title=" ">
<polygon fill="white" stroke="black" points="87,-675.5 87,-743.5 189,-743.5 189,-675.5 87,-675.5"/>
<text text-anchor="start" x="95" y="-731.5" font-family="Helvetica,sans-Serif" font-size="10.00">std::shared_ptr&lt; std</text>
<text text-anchor="middle" x="138" y="-720.5" font-family="Helvetica,sans-Serif" font-size="10.00">::ostream &gt;</text>
<polyline fill="none" stroke="black" points="87,-713.5 189,-713.5 "/>
<text text-anchor="middle" x="138" y="-701.5" font-family="Helvetica,sans-Serif" font-size="10.00"> </text>
<polyline fill="none" stroke="black" points="87,-694.5 189,-694.5 "/>
<text text-anchor="start" x="95" y="-682.5" font-family="Helvetica,sans-Serif" font-size="10.00">+ operator&#45;&gt;()</text>
</a>
</g>
</g>
<!-- Node6&#45;&gt;Node12 -->
<g id="edge19" class="edge">
<title>Node6&#45;&gt;Node12</title>
<path fill="none" stroke="orange" d="M219.95,-797.23C206.29,-790.7 192.46,-782.65 181,-773 171.33,-764.86 162.86,-754.03 156.06,-743.68"/>
<polygon fill="orange" stroke="orange" points="218.79,-800.55 229.35,-801.51 221.69,-794.18 218.79,-800.55"/>
<text text-anchor="middle" x="217.5" y="-765" font-family="Helvetica,sans-Serif" font-size="10.00"> &lt; std::ostream &gt;</text>
</g>
<!-- Node7 -->
<g id="node7" class="node">
<title>Node7</title>
<g id="a_node7"><a xlink:title=" ">
<polygon fill="white" stroke="black" points="310.5,-902 310.5,-959 339.5,-959 339.5,-902 310.5,-902"/>
<text text-anchor="middle" x="325" y="-947" font-family="Helvetica,sans-Serif" font-size="10.00">T</text>
<polyline fill="none" stroke="black" points="310.5,-940 339.5,-940 "/>
<text text-anchor="middle" x="325" y="-928" font-family="Helvetica,sans-Serif" font-size="10.00"> </text>
<polyline fill="none" stroke="black" points="310.5,-921 339.5,-921 "/>
<text text-anchor="middle" x="325" y="-909" font-family="Helvetica,sans-Serif" font-size="10.00"> </text>
</a>
</g>
</g>
<!-- Node7&#45;&gt;Node6 -->
<g id="edge6" class="edge">
<title>Node7&#45;&gt;Node6</title>
<path fill="none" stroke="#404040" d="M313.78,-901.84C308.61,-889.09 302.38,-873.73 296.75,-859.84"/>
<polygon fill="none" stroke="#404040" points="296.71,-859.73 290.74,-855.67 292.2,-848.61 298.16,-852.67 296.71,-859.73"/>
<text text-anchor="middle" x="313" y="-870" font-family="Helvetica,sans-Serif" font-size="10.00"> +ptr</text>
</g>
<!-- Node10 -->
<g id="node10" class="node">
<title>Node10</title>
<g id="a_node10"><a xlink:title=" ">
<polygon fill="white" stroke="black" points="364,-791.5 364,-848.5 448,-848.5 448,-791.5 364,-791.5"/>
<text text-anchor="middle" x="406" y="-836.5" font-family="Helvetica,sans-Serif" font-size="10.00">std::vector&lt; T &gt;</text>
<polyline fill="none" stroke="black" points="364,-829.5 448,-829.5 "/>
<text text-anchor="middle" x="406" y="-817.5" font-family="Helvetica,sans-Serif" font-size="10.00"> </text>
<polyline fill="none" stroke="black" points="364,-810.5 448,-810.5 "/>
<text text-anchor="middle" x="406" y="-798.5" font-family="Helvetica,sans-Serif" font-size="10.00"> </text>
</a>
</g>
</g>
<!-- Node7&#45;&gt;Node10 -->
<g id="edge11" class="edge">
<title>Node7&#45;&gt;Node10</title>
<path fill="none" stroke="#404040" d="M339.67,-909.85C350.34,-895.56 365.12,-875.76 378.02,-858.49"/>
<polygon fill="none" stroke="#404040" points="378.17,-858.28 378.55,-851.08 385.35,-848.66 384.96,-855.87 378.17,-858.28"/>
<text text-anchor="middle" x="395.5" y="-870" font-family="Helvetica,sans-Serif" font-size="10.00"> +elements</text>
</g>
<!-- Node8&#45;&gt;Node1 -->
<g id="edge7" class="edge">
<title>Node8&#45;&gt;Node1</title>
<path fill="none" stroke="#404040" d="M460.95,-435.42C437.65,-398.79 398.62,-337.44 362.76,-281.08"/>
<polygon fill="none" stroke="#404040" points="362.55,-280.75 355.95,-277.83 356.11,-270.62 362.7,-273.54 362.55,-280.75"/>
<text text-anchor="middle" x="443" y="-332" font-family="Helvetica,sans-Serif" font-size="10.00"> #input_var_names</text>
<text text-anchor="middle" x="443" y="-321" font-family="Helvetica,sans-Serif" font-size="10.00">#output_var_names</text>
</g>
<!-- Node9&#45;&gt;Node8 -->
<g id="edge8" class="edge">
<title>Node9&#45;&gt;Node8</title>
<path fill="none" stroke="#404040" d="M493.48,-680.73C491.27,-640.24 487.14,-564.51 484.48,-515.86"/>
<polygon fill="none" stroke="#404040" points="484.47,-515.79 480.15,-510.02 483.82,-503.81 488.14,-509.58 484.47,-515.79"/>
<text text-anchor="middle" x="502" y="-625.5" font-family="Helvetica,sans-Serif" font-size="10.00"> +ptr</text>
</g>
<!-- Node10&#45;&gt;Node9 -->
<g id="edge10" class="edge">
<title>Node10&#45;&gt;Node9</title>
<path fill="none" stroke="orange" d="M435.2,-783.41C447.27,-768.69 461.06,-751.88 472.35,-738.11"/>
<polygon fill="orange" stroke="orange" points="432.32,-781.39 428.69,-791.34 437.74,-785.83 432.32,-781.39"/>
<text text-anchor="middle" x="472.5" y="-765" font-family="Helvetica,sans-Serif" font-size="10.00"> &lt; string &gt;</text>
</g>
<!-- Node11&#45;&gt;Node1 -->
<g id="edge13" class="edge">
<title>Node11&#45;&gt;Node1</title>
<path fill="none" stroke="#404040" d="M211.47,-391.42C217.57,-367.82 224.42,-341.81 231,-318 231.59,-315.85 232.19,-313.69 232.8,-311.52"/>
<polygon fill="none" stroke="#404040" points="232.84,-311.36 230.61,-304.5 236.08,-299.8 238.31,-306.66 232.84,-311.36"/>
<text text-anchor="middle" x="248.5" y="-326.5" font-family="Helvetica,sans-Serif" font-size="10.00"> #output</text>
</g>
<!-- Node12&#45;&gt;Node11 -->
<g id="edge14" class="edge">
<title>Node12&#45;&gt;Node11</title>
<path fill="none" stroke="#404040" d="M132.54,-675.06C130,-653.18 128.6,-624.11 134,-599 136.87,-585.67 141.23,-572.07 146.31,-558.93"/>
<polygon fill="none" stroke="#404040" points="146.42,-558.64 144.97,-551.58 150.93,-547.52 152.38,-554.59 146.42,-558.64"/>
<text text-anchor="middle" x="169" y="-625.5" font-family="Helvetica,sans-Serif" font-size="10.00"> #output_stream</text>
</g>
<!-- Node13 -->
<g id="node13" class="node">
<title>Node13</title>
<g id="a_node13"><a xlink:title=" ">
<polygon fill="white" stroke="black" points="102,-791.5 102,-848.5 172,-848.5 172,-791.5 102,-791.5"/>
<text text-anchor="middle" x="137" y="-836.5" font-family="Helvetica,sans-Serif" font-size="10.00">std::ostream</text>
<polyline fill="none" stroke="black" points="102,-829.5 172,-829.5 "/>
<text text-anchor="middle" x="137" y="-817.5" font-family="Helvetica,sans-Serif" font-size="10.00"> </text>
<polyline fill="none" stroke="black" points="102,-810.5 172,-810.5 "/>
<text text-anchor="middle" x="137" y="-798.5" font-family="Helvetica,sans-Serif" font-size="10.00"> </text>
</a>
</g>
</g>
<!-- Node13&#45;&gt;Node12 -->
<g id="edge15" class="edge">
<title>Node13&#45;&gt;Node12</title>
<path fill="none" stroke="#404040" d="M137.25,-791.34C137.35,-780.53 137.47,-767.85 137.58,-755.77"/>
<polygon fill="none" stroke="#404040" points="137.58,-755.52 133.64,-749.48 137.7,-743.52 141.64,-749.56 137.58,-755.52"/>
<text text-anchor="middle" x="148" y="-765" font-family="Helvetica,sans-Serif" font-size="10.00"> +ptr</text>
</g>
<!-- Node14 -->
<g id="node14" class="node">
<title>Node14</title>
<g id="a_node14"><a xlink:title=" ">
<polygon fill="white" stroke="black" points="88,-896.5 88,-964.5 186,-964.5 186,-896.5 88,-896.5"/>
<text text-anchor="start" x="96" y="-952.5" font-family="Helvetica,sans-Serif" font-size="10.00">std::basic_ostream</text>
<text text-anchor="middle" x="137" y="-941.5" font-family="Helvetica,sans-Serif" font-size="10.00">&lt; Char &gt;</text>
<polyline fill="none" stroke="black" points="88,-934.5 186,-934.5 "/>
<text text-anchor="middle" x="137" y="-922.5" font-family="Helvetica,sans-Serif" font-size="10.00"> </text>
<polyline fill="none" stroke="black" points="88,-915.5 186,-915.5 "/>
<text text-anchor="middle" x="137" y="-903.5" font-family="Helvetica,sans-Serif" font-size="10.00"> </text>
</a>
</g>
</g>
<!-- Node14&#45;&gt;Node13 -->
<g id="edge16" class="edge">
<title>Node14&#45;&gt;Node13</title>
<path fill="none" stroke="midnightblue" d="M137,-886.06C137,-873.51 137,-860.15 137,-848.83"/>
<polygon fill="none" stroke="midnightblue" points="133.5,-886.36 137,-896.36 140.5,-886.36 133.5,-886.36"/>
</g>
<!-- Node15 -->
<g id="node15" class="node">
<title>Node15</title>
<g id="a_node15"><a xlink:title=" ">
<polygon fill="white" stroke="black" points="80.5,-1002.5 80.5,-1059.5 193.5,-1059.5 193.5,-1002.5 80.5,-1002.5"/>
<text text-anchor="middle" x="137" y="-1047.5" font-family="Helvetica,sans-Serif" font-size="10.00">std::basic_ios&lt; Char &gt;</text>
<polyline fill="none" stroke="black" points="80.5,-1040.5 193.5,-1040.5 "/>
<text text-anchor="middle" x="137" y="-1028.5" font-family="Helvetica,sans-Serif" font-size="10.00"> </text>
<polyline fill="none" stroke="black" points="80.5,-1021.5 193.5,-1021.5 "/>
<text text-anchor="middle" x="137" y="-1009.5" font-family="Helvetica,sans-Serif" font-size="10.00"> </text>
</a>
</g>
</g>
<!-- Node15&#45;&gt;Node14 -->
<g id="edge17" class="edge">
<title>Node15&#45;&gt;Node14</title>
<path fill="none" stroke="midnightblue" d="M137,-992.01C137,-982.96 137,-973.38 137,-964.58"/>
<polygon fill="none" stroke="midnightblue" points="133.5,-992.3 137,-1002.3 140.5,-992.3 133.5,-992.3"/>
</g>
<!-- Node16 -->
<g id="node16" class="node">
<title>Node16</title>
<g id="a_node16"><a xlink:title=" ">
<polygon fill="white" stroke="black" points="100,-1097.5 100,-1154.5 174,-1154.5 174,-1097.5 100,-1097.5"/>
<text text-anchor="middle" x="137" y="-1142.5" font-family="Helvetica,sans-Serif" font-size="10.00">std::ios_base</text>
<polyline fill="none" stroke="black" points="100,-1135.5 174,-1135.5 "/>
<text text-anchor="middle" x="137" y="-1123.5" font-family="Helvetica,sans-Serif" font-size="10.00"> </text>
<polyline fill="none" stroke="black" points="100,-1116.5 174,-1116.5 "/>
<text text-anchor="middle" x="137" y="-1104.5" font-family="Helvetica,sans-Serif" font-size="10.00"> </text>
</a>
</g>
</g>
<!-- Node16&#45;&gt;Node15 -->
<g id="edge18" class="edge">
<title>Node16&#45;&gt;Node15</title>
<path fill="none" stroke="midnightblue" d="M137,-1087.24C137,-1078.03 137,-1068.35 137,-1059.71"/>
<polygon fill="none" stroke="midnightblue" points="133.5,-1087.35 137,-1097.35 140.5,-1087.35 133.5,-1087.35"/>
</g>
</g>
</svg>
