<?xml version="1.0" encoding="UTF-8" standalone="no"?>
<!DOCTYPE svg PUBLIC "-//W3C//DTD SVG 1.1//EN"
 "http://www.w3.org/Graphics/SVG/1.1/DTD/svg11.dtd">
<!-- Generated by graphviz version 2.44.0 ()
 -->
<!-- Title: HY_HydroNetwork Pages: 1 -->
<svg width="262pt" height="292pt"
 viewBox="0.00 0.00 262.00 292.00" xmlns="http://www.w3.org/2000/svg" xmlns:xlink="http://www.w3.org/1999/xlink">
<g id="graph0" class="graph" transform="scale(1 1) rotate(0) translate(4 288)">
<title>HY_HydroNetwork</title>
<polygon fill="white" stroke="transparent" points="-4,4 -4,-288 258,-288 258,4 -4,4"/>
<!-- Node1 -->
<g id="node1" class="node">
<title>Node1</title>
<g id="a_node1"><a xlink:title=" ">
<polygon fill="#bfbfbf" stroke="black" points="52,-0.5 52,-101.5 170,-101.5 170,-0.5 52,-0.5"/>
<text text-anchor="middle" x="111" y="-89.5" font-family="Helvetica,sans-Serif" font-size="10.00">HY_HydroNetwork</text>
<polyline fill="none" stroke="black" points="52,-82.5 170,-82.5 "/>
<text text-anchor="start" x="60" y="-70.5" font-family="Helvetica,sans-Serif" font-size="10.00">&#45; flow_paths</text>
<text text-anchor="start" x="60" y="-59.5" font-family="Helvetica,sans-Serif" font-size="10.00">&#45; sub_network</text>
<text text-anchor="start" x="60" y="-48.5" font-family="Helvetica,sans-Serif" font-size="10.00">&#45; network_divides</text>
<text text-anchor="start" x="60" y="-37.5" font-family="Helvetica,sans-Serif" font-size="10.00">&#45; internal_nexuses</text>
<polyline fill="none" stroke="black" points="52,-30.5 170,-30.5 "/>
<text text-anchor="start" x="60" y="-18.5" font-family="Helvetica,sans-Serif" font-size="10.00">+ HY_HydroNetwork()</text>
<text text-anchor="start" x="60" y="-7.5" font-family="Helvetica,sans-Serif" font-size="10.00">+ ~HY_HydroNetwork()</text>
</a>
</g>
</g>
<!-- Node2 -->
<g id="node2" class="node">
<title>Node2</title>
<g id="a_node2"><a xlink:href="class_g_m___object.html" target="_top" xlink:title=" ">
<polygon fill="white" stroke="black" points="0,-177 0,-245 86,-245 86,-177 0,-177"/>
<text text-anchor="middle" x="43" y="-233" font-family="Helvetica,sans-Serif" font-size="10.00">GM_Object</text>
<polyline fill="none" stroke="black" points="0,-226 86,-226 "/>
<text text-anchor="middle" x="43" y="-214" font-family="Helvetica,sans-Serif" font-size="10.00"> </text>
<polyline fill="none" stroke="black" points="0,-207 86,-207 "/>
<text text-anchor="start" x="8" y="-195" font-family="Helvetica,sans-Serif" font-size="10.00">+ GM_Object()</text>
<text text-anchor="start" x="8" y="-184" font-family="Helvetica,sans-Serif" font-size="10.00">+ ~GM_Object()</text>
</a>
</g>
</g>
<!-- Node2&#45;&gt;Node1 -->
<g id="edge1" class="edge">
<title>Node2&#45;&gt;Node1</title>
<path fill="none" stroke="midnightblue" d="M61.26,-167.56C70.01,-147.24 80.54,-122.77 89.66,-101.59"/>
<polygon fill="none" stroke="midnightblue" points="57.99,-166.31 57.26,-176.88 64.42,-169.08 57.99,-166.31"/>
</g>
<!-- Node3 -->
<g id="node3" class="node">
<title>Node3</title>
<g id="a_node3"><a xlink:href="class_h_y___catchment_realization.html" target="_top" xlink:title=" ">
<polygon fill="white" stroke="black" points="104,-138.5 104,-283.5 254,-283.5 254,-138.5 104,-138.5"/>
<text text-anchor="middle" x="179" y="-271.5" font-family="Helvetica,sans-Serif" font-size="10.00">HY_CatchmentRealization</text>
<polyline fill="none" stroke="black" points="104,-264.5 254,-264.5 "/>
<text text-anchor="start" x="112" y="-252.5" font-family="Helvetica,sans-Serif" font-size="10.00"># realized_catchment</text>
<text text-anchor="start" x="112" y="-241.5" font-family="Helvetica,sans-Serif" font-size="10.00"># id_number</text>
<text text-anchor="start" x="112" y="-230.5" font-family="Helvetica,sans-Serif" font-size="10.00"># forcing</text>
<polyline fill="none" stroke="black" points="104,-223.5 254,-223.5 "/>
<text text-anchor="start" x="112" y="-211.5" font-family="Helvetica,sans-Serif" font-size="10.00">+ HY_CatchmentRealization()</text>
<text text-anchor="start" x="112" y="-200.5" font-family="Helvetica,sans-Serif" font-size="10.00">+ HY_CatchmentRealization()</text>
<text text-anchor="start" x="112" y="-189.5" font-family="Helvetica,sans-Serif" font-size="10.00">+ HY_CatchmentRealization()</text>
<text text-anchor="start" x="112" y="-178.5" font-family="Helvetica,sans-Serif" font-size="10.00">+ ~HY_CatchmentRealization()</text>
<text text-anchor="start" x="112" y="-167.5" font-family="Helvetica,sans-Serif" font-size="10.00">+ get_response()</text>
<text text-anchor="start" x="112" y="-156.5" font-family="Helvetica,sans-Serif" font-size="10.00"># get_catchment_id()</text>
<text text-anchor="start" x="112" y="-145.5" font-family="Helvetica,sans-Serif" font-size="10.00"># set_catchment_id()</text>
</a>
</g>
</g>
<!-- Node3&#45;&gt;Node1 -->
<g id="edge2" class="edge">
<title>Node3&#45;&gt;Node1</title>
<path fill="none" stroke="midnightblue" d="M144.17,-129.06C140.15,-119.72 136.14,-110.41 132.38,-101.67"/>
<polygon fill="none" stroke="midnightblue" points="141.02,-130.59 148.18,-138.4 147.44,-127.83 141.02,-130.59"/>
</g>
</g>
</svg>
