<?xml version="1.0" encoding="UTF-8" standalone="no"?>
<!DOCTYPE svg PUBLIC "-//W3C//DTD SVG 1.1//EN"
 "http://www.w3.org/Graphics/SVG/1.1/DTD/svg11.dtd">
<!-- Generated by graphviz version 9.0.0 (20230911.1827)
 -->
<!-- Title: Visitor Pages: 1 -->
<svg width="281pt" height="567pt"
 viewBox="0.00 0.00 281.25 566.75" xmlns="http://www.w3.org/2000/svg" xmlns:xlink="http://www.w3.org/1999/xlink">
<g id="graph0" class="graph" transform="scale(1 1) rotate(0) translate(4 562.75)">
<title>Visitor</title>
<!-- Node1 -->
<g id="Node000001" class="node">
<title>Node1</title>
<g id="a_Node000001"><a xlink:title=" ">
<polygon fill="#999999" stroke="none" points="91.5,-154 49.5,-154 49.5,0 91.5,0 91.5,-154"/>
<text text-anchor="start" x="56.62" y="-140.5" font-family="Helvetica,sans-Serif" font-size="10.00">Visitor</text>
<text text-anchor="start" x="69" y="-125.5" font-family="Helvetica,sans-Serif" font-size="10.00"> </text>
<text text-anchor="start" x="53.5" y="-110.5" font-family="Helvetica,sans-Serif" font-size="10.00">+</text>
<text text-anchor="start" x="63.5" y="-110.5" font-family="Helvetica,sans-Serif" font-size="10.00">visit()</text>
<text text-anchor="start" x="53.5" y="-95.5" font-family="Helvetica,sans-Serif" font-size="10.00">+</text>
<text text-anchor="start" x="63.5" y="-95.5" font-family="Helvetica,sans-Serif" font-size="10.00">visit()</text>
<text text-anchor="start" x="53.5" y="-80.5" font-family="Helvetica,sans-Serif" font-size="10.00">+</text>
<text text-anchor="start" x="63.5" y="-80.5" font-family="Helvetica,sans-Serif" font-size="10.00">visit()</text>
<text text-anchor="start" x="53.5" y="-65.5" font-family="Helvetica,sans-Serif" font-size="10.00">+</text>
<text text-anchor="start" x="63.5" y="-65.5" font-family="Helvetica,sans-Serif" font-size="10.00">visit()</text>
<text text-anchor="start" x="53.5" y="-50.5" font-family="Helvetica,sans-Serif" font-size="10.00">+</text>
<text text-anchor="start" x="63.5" y="-50.5" font-family="Helvetica,sans-Serif" font-size="10.00">visit()</text>
<text text-anchor="start" x="53.5" y="-35.5" font-family="Helvetica,sans-Serif" font-size="10.00">+</text>
<text text-anchor="start" x="63.5" y="-35.5" font-family="Helvetica,sans-Serif" font-size="10.00">visit()</text>
<text text-anchor="start" x="53.5" y="-20.5" font-family="Helvetica,sans-Serif" font-size="10.00">+</text>
<text text-anchor="start" x="63.5" y="-20.5" font-family="Helvetica,sans-Serif" font-size="10.00">visit()</text>
<text text-anchor="start" x="53.5" y="-5.5" font-family="Helvetica,sans-Serif" font-size="10.00">+</text>
<text text-anchor="start" x="63.5" y="-5.5" font-family="Helvetica,sans-Serif" font-size="10.00">get()</text>
<polygon fill="#666666" stroke="#666666" points="49.5,-137 49.5,-137 91.5,-137 91.5,-137 49.5,-137"/>
<polygon fill="#666666" stroke="#666666" points="49.5,-122 49.5,-122 91.5,-122 91.5,-122 49.5,-122"/>
<polygon fill="none" stroke="#666666" points="49.5,0 49.5,-154 91.5,-154 91.5,0 49.5,0"/>
</a>
</g>
</g>
<!-- Node2 -->
<g id="Node000002" class="node">
<title>Node2</title>
<g id="a_Node000002"><a xlink:href="classgeojson_1_1_feature_visitor.html" target="_top" xlink:title="An abstract class used to operate on the children of FeatureBase.">
<polygon fill="white" stroke="none" points="109,-355.25 0,-355.25 0,-201.25 109,-201.25 109,-355.25"/>
<text text-anchor="start" x="5" y="-341.75" font-family="Helvetica,sans-Serif" font-size="10.00">geojson::FeatureVisitor</text>
<text text-anchor="start" x="53" y="-326.75" font-family="Helvetica,sans-Serif" font-size="10.00"> </text>
<text text-anchor="start" x="8.5" y="-311.75" font-family="Helvetica,sans-Serif" font-size="10.00">+</text>
<text text-anchor="start" x="23" y="-311.75" font-family="Helvetica,sans-Serif" font-size="10.00">visit()</text>
<text text-anchor="start" x="8.5" y="-296.75" font-family="Helvetica,sans-Serif" font-size="10.00">+</text>
<text text-anchor="start" x="23" y="-296.75" font-family="Helvetica,sans-Serif" font-size="10.00">visit()</text>
<text text-anchor="start" x="8.5" y="-281.75" font-family="Helvetica,sans-Serif" font-size="10.00">+</text>
<text text-anchor="start" x="23" y="-281.75" font-family="Helvetica,sans-Serif" font-size="10.00">visit()</text>
<text text-anchor="start" x="8.5" y="-266.75" font-family="Helvetica,sans-Serif" font-size="10.00">+</text>
<text text-anchor="start" x="23" y="-266.75" font-family="Helvetica,sans-Serif" font-size="10.00">visit()</text>
<text text-anchor="start" x="8.5" y="-251.75" font-family="Helvetica,sans-Serif" font-size="10.00">+</text>
<text text-anchor="start" x="23" y="-251.75" font-family="Helvetica,sans-Serif" font-size="10.00">visit()</text>
<text text-anchor="start" x="8.5" y="-236.75" font-family="Helvetica,sans-Serif" font-size="10.00">+</text>
<text text-anchor="start" x="23" y="-236.75" font-family="Helvetica,sans-Serif" font-size="10.00">visit()</text>
<text text-anchor="start" x="8.5" y="-221.75" font-family="Helvetica,sans-Serif" font-size="10.00">+</text>
<text text-anchor="start" x="23" y="-221.75" font-family="Helvetica,sans-Serif" font-size="10.00">visit()</text>
<text text-anchor="start" x="8.5" y="-206.75" font-family="Helvetica,sans-Serif" font-size="10.00">+</text>
<text text-anchor="start" x="23" y="-206.75" font-family="Helvetica,sans-Serif" font-size="10.00">~FeatureVisitor()</text>
<polygon fill="#666666" stroke="#666666" points="0,-338.25 0,-338.25 109,-338.25 109,-338.25 0,-338.25"/>
<polygon fill="#666666" stroke="#666666" points="0,-323.25 0,-323.25 109,-323.25 109,-323.25 0,-323.25"/>
<polygon fill="none" stroke="#666666" points="0,-201.25 0,-355.25 109,-355.25 109,-201.25 0,-201.25"/>
</a>
</g>
</g>
<!-- Node2&#45;&gt;Node1 -->
<g id="edge1_Node000001_Node000002" class="edge">
<title>Node2&#45;&gt;Node1</title>
<g id="a_edge1_Node000001_Node000002"><a xlink:title=" ">
<path fill="none" stroke="#63b8ff" d="M61.52,-189.89C62.48,-177.82 63.47,-165.51 64.42,-153.69"/>
<polygon fill="none" stroke="#63b8ff" points="58.03,-189.6 60.72,-199.85 65.01,-190.16 58.03,-189.6"/>
</a>
</g>
</g>
<!-- Node3 -->
<g id="Node000003" class="node">
<title>Node3</title>
<g id="a_Node000003"><a xlink:title=" ">
<polygon fill="white" stroke="none" points="240,-302.75 127,-302.75 127,-253.75 240,-253.75 240,-302.75"/>
<text text-anchor="start" x="131.75" y="-289.25" font-family="Helvetica,sans-Serif" font-size="10.00">std::vector&lt; std::string &gt;</text>
<text text-anchor="start" x="182" y="-274.25" font-family="Helvetica,sans-Serif" font-size="10.00"> </text>
<text text-anchor="start" x="182" y="-259.25" font-family="Helvetica,sans-Serif" font-size="10.00"> </text>
<polygon fill="#666666" stroke="#666666" points="127,-285.75 127,-285.75 240,-285.75 240,-285.75 127,-285.75"/>
<polygon fill="#666666" stroke="#666666" points="127,-270.75 127,-270.75 240,-270.75 240,-270.75 127,-270.75"/>
<polygon fill="none" stroke="#666666" points="127,-253.75 127,-302.75 240,-302.75 240,-253.75 127,-253.75"/>
</a>
</g>
</g>
<!-- Node3&#45;&gt;Node1 -->
<g id="edge2_Node000001_Node000003" class="edge">
<title>Node3&#45;&gt;Node1</title>
<g id="a_edge2_Node000001_Node000003"><a xlink:title=" ">
<path fill="none" stroke="#63b8ff" d="M170.32,-254C152.63,-222.82 120.8,-166.7 97.83,-126.2"/>
<polygon fill="none" stroke="#63b8ff" points="97.83,-126.18 91.39,-122.94 91.91,-115.74 98.35,-118.99 97.83,-126.18"/>
</a>
</g>
<text text-anchor="middle" x="141.75" y="-173.75" font-family="Helvetica,sans-Serif" font-size="10.00" fill="grey"> &#45;types</text>
</g>
<!-- Node4 -->
<g id="Node000004" class="node">
<title>Node4</title>
<g id="a_Node000004"><a xlink:title=" ">
<polygon fill="white" stroke="none" points="166.5,-451.5 114.5,-451.5 114.5,-402.5 166.5,-402.5 166.5,-451.5"/>
<text text-anchor="start" x="119.5" y="-438" font-family="Helvetica,sans-Serif" font-size="10.00">std::string</text>
<text text-anchor="start" x="139" y="-423" font-family="Helvetica,sans-Serif" font-size="10.00"> </text>
<text text-anchor="start" x="139" y="-408" font-family="Helvetica,sans-Serif" font-size="10.00"> </text>
<polygon fill="#666666" stroke="#666666" points="114.5,-434.5 114.5,-434.5 166.5,-434.5 166.5,-434.5 114.5,-434.5"/>
<polygon fill="#666666" stroke="#666666" points="114.5,-419.5 114.5,-419.5 166.5,-419.5 166.5,-419.5 114.5,-419.5"/>
<polygon fill="none" stroke="#666666" points="114.5,-402.5 114.5,-451.5 166.5,-451.5 166.5,-402.5 114.5,-402.5"/>
</a>
</g>
</g>
<!-- Node4&#45;&gt;Node3 -->
<g id="edge3_Node000003_Node000004" class="edge">
<title>Node4&#45;&gt;Node3</title>
<g id="a_edge3_Node000003_Node000004"><a xlink:title=" ">
<path fill="none" stroke="#63b8ff" d="M147.31,-402.75C154.26,-379.03 165.14,-341.92 173.15,-314.56"/>
<polygon fill="none" stroke="#63b8ff" points="173.09,-314.78 170.94,-307.89 176.46,-303.26 178.62,-310.14 173.09,-314.78"/>
</a>
</g>
<text text-anchor="middle" x="180.5" y="-375" font-family="Helvetica,sans-Serif" font-size="10.00" fill="grey"> +elements</text>
</g>
<!-- Node5 -->
<g id="Node000005" class="node">
<title>Node5</title>
<g id="a_Node000005"><a xlink:title=" ">
<polygon fill="white" stroke="none" points="183.5,-558.75 97.5,-558.75 97.5,-498.75 183.5,-498.75 183.5,-558.75"/>
<text text-anchor="start" x="102.25" y="-545.25" font-family="Helvetica,sans-Serif" font-size="10.00">std::basic_string&lt;</text>
<text text-anchor="start" x="125.12" y="-534" font-family="Helvetica,sans-Serif" font-size="10.00"> Char &gt;</text>
<text text-anchor="start" x="139" y="-519.25" font-family="Helvetica,sans-Serif" font-size="10.00"> </text>
<text text-anchor="start" x="139" y="-504.25" font-family="Helvetica,sans-Serif" font-size="10.00"> </text>
<polygon fill="#666666" stroke="#666666" points="97.5,-530.75 97.5,-530.75 183.5,-530.75 183.5,-530.75 97.5,-530.75"/>
<polygon fill="#666666" stroke="#666666" points="97.5,-515.75 97.5,-515.75 183.5,-515.75 183.5,-515.75 97.5,-515.75"/>
<polygon fill="none" stroke="#666666" points="97.5,-498.75 97.5,-558.75 183.5,-558.75 183.5,-498.75 97.5,-498.75"/>
</a>
</g>
</g>
<!-- Node5&#45;&gt;Node4 -->
<g id="edge4_Node000004_Node000005" class="edge">
<title>Node5&#45;&gt;Node4</title>
<g id="a_edge4_Node000004_Node000005"><a xlink:title=" ">
<path fill="none" stroke="#63b8ff" d="M140.5,-487.49C140.5,-475.24 140.5,-462.17 140.5,-451.42"/>
<polygon fill="none" stroke="#63b8ff" points="137,-487.38 140.5,-497.38 144,-487.38 137,-487.38"/>
</a>
</g>
</g>
<!-- Node6 -->
<g id="Node000006" class="node">
<title>Node6</title>
<g id="a_Node000006"><a xlink:title=" ">
<polygon fill="white" stroke="none" points="262,-451.5 185,-451.5 185,-402.5 262,-402.5 262,-451.5"/>
<text text-anchor="start" x="189.75" y="-438" font-family="Helvetica,sans-Serif" font-size="10.00">std::vector&lt; T &gt;</text>
<text text-anchor="start" x="222" y="-423" font-family="Helvetica,sans-Serif" font-size="10.00"> </text>
<text text-anchor="start" x="222" y="-408" font-family="Helvetica,sans-Serif" font-size="10.00"> </text>
<polygon fill="#666666" stroke="#666666" points="185,-434.5 185,-434.5 262,-434.5 262,-434.5 185,-434.5"/>
<polygon fill="#666666" stroke="#666666" points="185,-419.5 185,-419.5 262,-419.5 262,-419.5 185,-419.5"/>
<polygon fill="none" stroke="#666666" points="185,-402.5 185,-451.5 262,-451.5 262,-402.5 185,-402.5"/>
</a>
</g>
</g>
<!-- Node6&#45;&gt;Node3 -->
<g id="edge5_Node000003_Node000006" class="edge">
<title>Node6&#45;&gt;Node3</title>
<g id="a_edge5_Node000003_Node000006"><a xlink:title=" ">
<path fill="none" stroke="orange" d="M214.14,-391.67C206.65,-364.19 196.35,-326.4 189.81,-302.39"/>
<polygon fill="orange" stroke="orange" points="210.76,-392.56 216.76,-401.29 217.51,-390.72 210.76,-392.56"/>
</a>
</g>
<text text-anchor="middle" x="242.88" y="-375" font-family="Helvetica,sans-Serif" font-size="10.00" fill="grey"> &lt; std::string &gt;</text>
</g>
<!-- Node7 -->
<g id="Node000007" class="node">
<title>Node7</title>
<g id="a_Node000007"><a xlink:title=" ">
<polygon fill="white" stroke="none" points="231.5,-553.25 215.5,-553.25 215.5,-504.25 231.5,-504.25 231.5,-553.25"/>
<text text-anchor="start" x="220.5" y="-539.75" font-family="Helvetica,sans-Serif" font-size="10.00">T</text>
<text text-anchor="start" x="222" y="-524.75" font-family="Helvetica,sans-Serif" font-size="10.00"> </text>
<text text-anchor="start" x="222" y="-509.75" font-family="Helvetica,sans-Serif" font-size="10.00"> </text>
<polygon fill="#666666" stroke="#666666" points="215.5,-536.25 215.5,-536.25 231.5,-536.25 231.5,-536.25 215.5,-536.25"/>
<polygon fill="#666666" stroke="#666666" points="215.5,-521.25 215.5,-521.25 231.5,-521.25 231.5,-521.25 215.5,-521.25"/>
<polygon fill="none" stroke="#666666" points="215.5,-504.25 215.5,-553.25 231.5,-553.25 231.5,-504.25 215.5,-504.25"/>
</a>
</g>
</g>
<!-- Node7&#45;&gt;Node6 -->
<g id="edge6_Node000006_Node000007" class="edge">
<title>Node7&#45;&gt;Node6</title>
<g id="a_edge6_Node000006_Node000007"><a xlink:title=" ">
<path fill="none" stroke="#63b8ff" d="M223.5,-504.36C223.5,-492.36 223.5,-477.47 223.5,-464.03"/>
<polygon fill="none" stroke="#63b8ff" points="223.5,-464.14 219.5,-458.14 223.5,-452.14 227.5,-458.14 223.5,-464.14"/>
</a>
</g>
<text text-anchor="middle" x="247.5" y="-471.25" font-family="Helvetica,sans-Serif" font-size="10.00" fill="grey"> +elements</text>
</g>
</g>
</svg>
