<?xml version="1.0" encoding="UTF-8" standalone="no"?>
<!DOCTYPE svg PUBLIC "-//W3C//DTD SVG 1.1//EN"
 "http://www.w3.org/Graphics/SVG/1.1/DTD/svg11.dtd">
<!-- Generated by graphviz version 9.0.0 (20230911.1827)
 -->
<!-- Title: HY_Catchment Pages: 1 -->
<svg width="444pt" height="583pt"
 viewBox="0.00 0.00 444.00 583.00" xmlns="http://www.w3.org/2000/svg" xmlns:xlink="http://www.w3.org/1999/xlink">
<g id="graph0" class="graph" transform="scale(1 1) rotate(0) translate(4 579)">
<title>HY_Catchment</title>
<!-- Node1 -->
<g id="Node000001" class="node">
<title>Node1</title>
<g id="a_Node000001"><a xlink:title=" ">
<polygon fill="#999999" stroke="none" points="309.5,-475 140.5,-475 140.5,-100 309.5,-100 309.5,-475"/>
<text text-anchor="start" x="191.62" y="-461.5" font-family="Helvetica,sans-Serif" font-size="10.00">HY_Catchment</text>
<text text-anchor="start" x="144.5" y="-446.5" font-family="Helvetica,sans-Serif" font-size="10.00">+</text>
<text text-anchor="start" x="154.5" y="-446.5" font-family="Helvetica,sans-Serif" font-size="10.00">realization</text>
<text text-anchor="start" x="144.5" y="-431.5" font-family="Helvetica,sans-Serif" font-size="10.00">+</text>
<text text-anchor="start" x="154.5" y="-431.5" font-family="Helvetica,sans-Serif" font-size="10.00">ATMOSPHERIC_LAYER_HIGH</text>
<text text-anchor="start" x="144.5" y="-416.5" font-family="Helvetica,sans-Serif" font-size="10.00">+</text>
<text text-anchor="start" x="154.5" y="-416.5" font-family="Helvetica,sans-Serif" font-size="10.00">ATMOSPHERIC_Layer_LOW</text>
<text text-anchor="start" x="144.5" y="-401.5" font-family="Helvetica,sans-Serif" font-size="10.00">+</text>
<text text-anchor="start" x="154.5" y="-401.5" font-family="Helvetica,sans-Serif" font-size="10.00">CANOPY_LAYER</text>
<text text-anchor="start" x="144.5" y="-386.5" font-family="Helvetica,sans-Serif" font-size="10.00">+</text>
<text text-anchor="start" x="154.5" y="-386.5" font-family="Helvetica,sans-Serif" font-size="10.00">SNOW_LAYER</text>
<text text-anchor="start" x="144.5" y="-371.5" font-family="Helvetica,sans-Serif" font-size="10.00">+</text>
<text text-anchor="start" x="154.5" y="-371.5" font-family="Helvetica,sans-Serif" font-size="10.00">SURFACE_LAYER</text>
<text text-anchor="start" x="144.5" y="-356.5" font-family="Helvetica,sans-Serif" font-size="10.00">+</text>
<text text-anchor="start" x="154.5" y="-356.5" font-family="Helvetica,sans-Serif" font-size="10.00">GROUND_WATER_SHALLOW</text>
<text text-anchor="start" x="154.5" y="-345.25" font-family="Helvetica,sans-Serif" font-size="10.00">_LAYER</text>
<text text-anchor="start" x="144.5" y="-330.5" font-family="Helvetica,sans-Serif" font-size="10.00">+</text>
<text text-anchor="start" x="154.5" y="-330.5" font-family="Helvetica,sans-Serif" font-size="10.00">GROUND_WATER_DEEP_LAYER</text>
<text text-anchor="start" x="146" y="-315.5" font-family="Helvetica,sans-Serif" font-size="10.00">&#45;</text>
<text text-anchor="start" x="154.5" y="-315.5" font-family="Helvetica,sans-Serif" font-size="10.00">id</text>
<text text-anchor="start" x="146" y="-300.5" font-family="Helvetica,sans-Serif" font-size="10.00">&#45;</text>
<text text-anchor="start" x="154.5" y="-300.5" font-family="Helvetica,sans-Serif" font-size="10.00">inflows</text>
<text text-anchor="start" x="146" y="-285.5" font-family="Helvetica,sans-Serif" font-size="10.00">&#45;</text>
<text text-anchor="start" x="154.5" y="-285.5" font-family="Helvetica,sans-Serif" font-size="10.00">outflows</text>
<text text-anchor="start" x="146" y="-270.5" font-family="Helvetica,sans-Serif" font-size="10.00">&#45;</text>
<text text-anchor="start" x="154.5" y="-270.5" font-family="Helvetica,sans-Serif" font-size="10.00">contained_catchments</text>
<text text-anchor="start" x="146" y="-255.5" font-family="Helvetica,sans-Serif" font-size="10.00">&#45;</text>
<text text-anchor="start" x="154.5" y="-255.5" font-family="Helvetica,sans-Serif" font-size="10.00">containing_catchment</text>
<text text-anchor="start" x="146" y="-240.5" font-family="Helvetica,sans-Serif" font-size="10.00">&#45;</text>
<text text-anchor="start" x="154.5" y="-240.5" font-family="Helvetica,sans-Serif" font-size="10.00">conjoint_catchment</text>
<text text-anchor="start" x="146" y="-225.5" font-family="Helvetica,sans-Serif" font-size="10.00">&#45;</text>
<text text-anchor="start" x="154.5" y="-225.5" font-family="Helvetica,sans-Serif" font-size="10.00">upper_catchment</text>
<text text-anchor="start" x="146" y="-210.5" font-family="Helvetica,sans-Serif" font-size="10.00">&#45;</text>
<text text-anchor="start" x="154.5" y="-210.5" font-family="Helvetica,sans-Serif" font-size="10.00">lower_catchment</text>
<text text-anchor="start" x="146" y="-195.5" font-family="Helvetica,sans-Serif" font-size="10.00">&#45;</text>
<text text-anchor="start" x="154.5" y="-195.5" font-family="Helvetica,sans-Serif" font-size="10.00">layer</text>
<text text-anchor="start" x="144.5" y="-180.5" font-family="Helvetica,sans-Serif" font-size="10.00">+</text>
<text text-anchor="start" x="154.5" y="-180.5" font-family="Helvetica,sans-Serif" font-size="10.00">HY_Catchment()</text>
<text text-anchor="start" x="144.5" y="-165.5" font-family="Helvetica,sans-Serif" font-size="10.00">+</text>
<text text-anchor="start" x="154.5" y="-165.5" font-family="Helvetica,sans-Serif" font-size="10.00">HY_Catchment()</text>
<text text-anchor="start" x="144.5" y="-150.5" font-family="Helvetica,sans-Serif" font-size="10.00">+</text>
<text text-anchor="start" x="154.5" y="-150.5" font-family="Helvetica,sans-Serif" font-size="10.00">~HY_Catchment()</text>
<text text-anchor="start" x="144.5" y="-135.5" font-family="Helvetica,sans-Serif" font-size="10.00">+</text>
<text text-anchor="start" x="154.5" y="-135.5" font-family="Helvetica,sans-Serif" font-size="10.00">get_outflow_nexuses()</text>
<text text-anchor="start" x="144.5" y="-120.5" font-family="Helvetica,sans-Serif" font-size="10.00">+</text>
<text text-anchor="start" x="154.5" y="-120.5" font-family="Helvetica,sans-Serif" font-size="10.00">get_layer()</text>
<text text-anchor="start" x="144.5" y="-105.5" font-family="Helvetica,sans-Serif" font-size="10.00">+</text>
<text text-anchor="start" x="154.5" y="-105.5" font-family="Helvetica,sans-Serif" font-size="10.00">set_layer()</text>
<polygon fill="#666666" stroke="#666666" points="140.5,-458 140.5,-458 309.5,-458 309.5,-458 140.5,-458"/>
<polygon fill="#666666" stroke="#666666" points="140.5,-192 140.5,-192 152.5,-192 152.5,-192 140.5,-192"/>
<polygon fill="#666666" stroke="#666666" points="152.5,-192 152.5,-192 309.5,-192 309.5,-192 152.5,-192"/>
<polygon fill="none" stroke="#666666" points="140.5,-100 140.5,-475 309.5,-475 309.5,-100 140.5,-100"/>
</a>
</g>
</g>
<!-- Node3 -->
<g id="Node000003" class="node">
<title>Node3</title>
<g id="a_Node000003"><a xlink:href="class_h_y___catchment_aggregate.html" target="_top" xlink:title=" ">
<polygon fill="white" stroke="none" points="140,-64 0,-64 0,0 140,0 140,-64"/>
<text text-anchor="start" x="14.5" y="-50.5" font-family="Helvetica,sans-Serif" font-size="10.00">HY_CatchmentAggregate</text>
<text text-anchor="start" x="68.5" y="-35.5" font-family="Helvetica,sans-Serif" font-size="10.00"> </text>
<text text-anchor="start" x="4" y="-20.5" font-family="Helvetica,sans-Serif" font-size="10.00">+</text>
<text text-anchor="start" x="14" y="-20.5" font-family="Helvetica,sans-Serif" font-size="10.00">HY_CatchmentAggregate()</text>
<text text-anchor="start" x="4" y="-5.5" font-family="Helvetica,sans-Serif" font-size="10.00">+</text>
<text text-anchor="start" x="14" y="-5.5" font-family="Helvetica,sans-Serif" font-size="10.00">~HY_CatchmentAggregate()</text>
<polygon fill="#666666" stroke="#666666" points="0,-47 0,-47 140,-47 140,-47 0,-47"/>
<polygon fill="#666666" stroke="#666666" points="0,-32 0,-32 140,-32 140,-32 0,-32"/>
<polygon fill="none" stroke="#666666" points="0,0 0,-64 140,-64 140,0 0,0"/>
</a>
</g>
</g>
<!-- Node1&#45;&gt;Node3 -->
<g id="edge2_Node000001_Node000003" class="edge">
<title>Node1&#45;&gt;Node3</title>
<g id="a_edge2_Node000001_Node000003"><a xlink:title=" ">
<path fill="none" stroke="#63b8ff" d="M134.75,-138.9C117.3,-110.35 100.73,-83.26 88.72,-63.62"/>
<polygon fill="none" stroke="#63b8ff" points="131.7,-140.63 139.91,-147.33 137.68,-136.97 131.7,-140.63"/>
</a>
</g>
</g>
<!-- Node4 -->
<g id="Node000004" class="node">
<title>Node4</title>
<g id="a_Node000004"><a xlink:href="class_h_y___dendritic_catchment.html" target="_top" xlink:title=" ">
<polygon fill="white" stroke="none" points="292,-64 158,-64 158,0 292,0 292,-64"/>
<text text-anchor="start" x="172.5" y="-50.5" font-family="Helvetica,sans-Serif" font-size="10.00">HY_DendriticCatchment</text>
<text text-anchor="start" x="223.5" y="-35.5" font-family="Helvetica,sans-Serif" font-size="10.00"> </text>
<text text-anchor="start" x="162" y="-20.5" font-family="Helvetica,sans-Serif" font-size="10.00">+</text>
<text text-anchor="start" x="172" y="-20.5" font-family="Helvetica,sans-Serif" font-size="10.00">HY_DendriticCatchment()</text>
<text text-anchor="start" x="162" y="-5.5" font-family="Helvetica,sans-Serif" font-size="10.00">+</text>
<text text-anchor="start" x="172" y="-5.5" font-family="Helvetica,sans-Serif" font-size="10.00">~HY_DendriticCatchment()</text>
<polygon fill="#666666" stroke="#666666" points="158,-47 158,-47 292,-47 292,-47 158,-47"/>
<polygon fill="#666666" stroke="#666666" points="158,-32 158,-32 292,-32 292,-32 158,-32"/>
<polygon fill="none" stroke="#666666" points="158,0 158,-64 292,-64 292,0 158,0"/>
</a>
</g>
</g>
<!-- Node1&#45;&gt;Node4 -->
<g id="edge3_Node000001_Node000004" class="edge">
<title>Node1&#45;&gt;Node4</title>
<g id="a_edge3_Node000001_Node000004"><a xlink:title=" ">
<path fill="none" stroke="#63b8ff" d="M225,-88.77C225,-79.63 225,-71.21 225,-63.83"/>
<polygon fill="none" stroke="#63b8ff" points="221.5,-88.75 225,-98.75 228.5,-88.75 221.5,-88.75"/>
</a>
</g>
</g>
<!-- Node5 -->
<g id="Node000005" class="node">
<title>Node5</title>
<g id="a_Node000005"><a xlink:href="class_h_y___interior_catchment.html" target="_top" xlink:title=" ">
<polygon fill="white" stroke="none" points="436,-64 310,-64 310,0 436,0 436,-64"/>
<text text-anchor="start" x="324.62" y="-50.5" font-family="Helvetica,sans-Serif" font-size="10.00">HY_InteriorCatchment</text>
<text text-anchor="start" x="371.5" y="-35.5" font-family="Helvetica,sans-Serif" font-size="10.00"> </text>
<text text-anchor="start" x="314" y="-20.5" font-family="Helvetica,sans-Serif" font-size="10.00">+</text>
<text text-anchor="start" x="324" y="-20.5" font-family="Helvetica,sans-Serif" font-size="10.00">HY_InteriorCatchment()</text>
<text text-anchor="start" x="314" y="-5.5" font-family="Helvetica,sans-Serif" font-size="10.00">+</text>
<text text-anchor="start" x="324" y="-5.5" font-family="Helvetica,sans-Serif" font-size="10.00">~HY_InteriorCatchment()</text>
<polygon fill="#666666" stroke="#666666" points="310,-47 310,-47 436,-47 436,-47 310,-47"/>
<polygon fill="#666666" stroke="#666666" points="310,-32 310,-32 436,-32 436,-32 310,-32"/>
<polygon fill="none" stroke="#666666" points="310,0 310,-64 436,-64 436,0 310,0"/>
</a>
</g>
</g>
<!-- Node1&#45;&gt;Node5 -->
<g id="edge4_Node000001_Node000005" class="edge">
<title>Node1&#45;&gt;Node5</title>
<g id="a_edge4_Node000001_Node000005"><a xlink:title=" ">
<path fill="none" stroke="#63b8ff" d="M315.01,-132.33C330.2,-106.31 344.44,-81.92 355.01,-63.81"/>
<polygon fill="none" stroke="#63b8ff" points="312.16,-130.27 310.14,-140.67 318.2,-133.8 312.16,-130.27"/>
</a>
</g>
</g>
<!-- Node2 -->
<g id="Node000002" class="node">
<title>Node2</title>
<g id="a_Node000002"><a xlink:href="class_h_y___hydro_feature.html" target="_top" xlink:title=" ">
<polygon fill="white" stroke="none" points="278.5,-575 171.5,-575 171.5,-511 278.5,-511 278.5,-575"/>
<text text-anchor="start" x="186" y="-561.5" font-family="Helvetica,sans-Serif" font-size="10.00">HY_HydroFeature</text>
<text text-anchor="start" x="223.5" y="-546.5" font-family="Helvetica,sans-Serif" font-size="10.00"> </text>
<text text-anchor="start" x="175.5" y="-531.5" font-family="Helvetica,sans-Serif" font-size="10.00">+</text>
<text text-anchor="start" x="185.5" y="-531.5" font-family="Helvetica,sans-Serif" font-size="10.00">HY_HydroFeature()</text>
<text text-anchor="start" x="175.5" y="-516.5" font-family="Helvetica,sans-Serif" font-size="10.00">+</text>
<text text-anchor="start" x="185.5" y="-516.5" font-family="Helvetica,sans-Serif" font-size="10.00">~HY_HydroFeature()</text>
<polygon fill="#666666" stroke="#666666" points="171.5,-558 171.5,-558 278.5,-558 278.5,-558 171.5,-558"/>
<polygon fill="#666666" stroke="#666666" points="171.5,-543 171.5,-543 278.5,-543 278.5,-543 171.5,-543"/>
<polygon fill="none" stroke="#666666" points="171.5,-511 171.5,-575 278.5,-575 278.5,-511 171.5,-511"/>
</a>
</g>
</g>
<!-- Node2&#45;&gt;Node1 -->
<g id="edge1_Node000001_Node000002" class="edge">
<title>Node2&#45;&gt;Node1</title>
<g id="a_edge1_Node000001_Node000002"><a xlink:title=" ">
<path fill="none" stroke="#63b8ff" d="M225,-499.79C225,-492.14 225,-483.72 225,-474.8"/>
<polygon fill="none" stroke="#63b8ff" points="221.5,-499.66 225,-509.66 228.5,-499.66 221.5,-499.66"/>
</a>
</g>
</g>
</g>
</svg>
