<?xml version="1.0" encoding="UTF-8" standalone="no"?>
<!DOCTYPE svg PUBLIC "-//W3C//DTD SVG 1.1//EN"
 "http://www.w3.org/Graphics/SVG/1.1/DTD/svg11.dtd">
<!-- Generated by graphviz version 9.0.0 (20230911.1827)
 -->
<!-- Title: utils::FileStreamHandler Pages: 1 -->
<svg width="121pt" height="307pt"
 viewBox="0.00 0.00 121.00 307.00" xmlns="http://www.w3.org/2000/svg" xmlns:xlink="http://www.w3.org/1999/xlink">
<g id="graph0" class="graph" transform="scale(1 1) rotate(0) translate(4 303)">
<title>utils::FileStreamHandler</title>
<!-- Node1 -->
<g id="Node000001" class="node">
<title>Node1</title>
<g id="a_Node000001"><a xlink:title=" ">
<polygon fill="#999999" stroke="none" points="113,-64 0,-64 0,0 113,0 113,-64"/>
<text text-anchor="start" x="4.75" y="-50.5" font-family="Helvetica,sans-Serif" font-size="10.00">utils::FileStreamHandler</text>
<text text-anchor="start" x="55" y="-35.5" font-family="Helvetica,sans-Serif" font-size="10.00"> </text>
<text text-anchor="start" x="4.5" y="-20.5" font-family="Helvetica,sans-Serif" font-size="10.00">+</text>
<text text-anchor="start" x="15" y="-20.5" font-family="Helvetica,sans-Serif" font-size="10.00">FileStreamHandler()</text>
<text text-anchor="start" x="4.5" y="-5.5" font-family="Helvetica,sans-Serif" font-size="10.00">+</text>
<text text-anchor="start" x="15" y="-5.5" font-family="Helvetica,sans-Serif" font-size="10.00">~FileStreamHandler()</text>
<polygon fill="#666666" stroke="#666666" points="0,-47 0,-47 113,-47 113,-47 0,-47"/>
<polygon fill="#666666" stroke="#666666" points="0,-32 0,-32 113,-32 113,-32 0,-32"/>
<polygon fill="none" stroke="#666666" points="0,0 0,-64 113,-64 113,0 0,0"/>
</a>
</g>
</g>
<!-- Node2 -->
<g id="Node000002" class="node">
<title>Node2</title>
<g id="a_Node000002"><a xlink:href="classutils_1_1_stream_handler.html" target="_top" xlink:title="This class provides a copyable interface to a std::ostream or std::ostream like object that may not s...">
<polygon fill="white" stroke="none" points="105,-299 8,-299 8,-100 105,-100 105,-299"/>
<text text-anchor="start" x="12.62" y="-285.5" font-family="Helvetica,sans-Serif" font-size="10.00">utils::StreamHandler</text>
<text text-anchor="start" x="12.88" y="-270.5" font-family="Helvetica,sans-Serif" font-size="10.00">#</text>
<text text-anchor="start" x="23" y="-270.5" font-family="Helvetica,sans-Serif" font-size="10.00">output_stream</text>
<text text-anchor="start" x="12.88" y="-255.5" font-family="Helvetica,sans-Serif" font-size="10.00">#</text>
<text text-anchor="start" x="23" y="-255.5" font-family="Helvetica,sans-Serif" font-size="10.00">sep</text>
<text text-anchor="start" x="12.5" y="-240.5" font-family="Helvetica,sans-Serif" font-size="10.00">+</text>
<text text-anchor="start" x="23" y="-240.5" font-family="Helvetica,sans-Serif" font-size="10.00">StreamHandler()</text>
<text text-anchor="start" x="12.5" y="-225.5" font-family="Helvetica,sans-Serif" font-size="10.00">+</text>
<text text-anchor="start" x="23" y="-225.5" font-family="Helvetica,sans-Serif" font-size="10.00">StreamHandler()</text>
<text text-anchor="start" x="12.5" y="-210.5" font-family="Helvetica,sans-Serif" font-size="10.00">+</text>
<text text-anchor="start" x="23" y="-210.5" font-family="Helvetica,sans-Serif" font-size="10.00">StreamHandler()</text>
<text text-anchor="start" x="12.5" y="-195.5" font-family="Helvetica,sans-Serif" font-size="10.00">+</text>
<text text-anchor="start" x="23" y="-195.5" font-family="Helvetica,sans-Serif" font-size="10.00">StreamHandler()</text>
<text text-anchor="start" x="12.5" y="-180.5" font-family="Helvetica,sans-Serif" font-size="10.00">+</text>
<text text-anchor="start" x="23" y="-180.5" font-family="Helvetica,sans-Serif" font-size="10.00">~StreamHandler()</text>
<text text-anchor="start" x="12.5" y="-165.5" font-family="Helvetica,sans-Serif" font-size="10.00">+</text>
<text text-anchor="start" x="23" y="-165.5" font-family="Helvetica,sans-Serif" font-size="10.00">operator=()</text>
<text text-anchor="start" x="12.5" y="-150.5" font-family="Helvetica,sans-Serif" font-size="10.00">+</text>
<text text-anchor="start" x="23" y="-150.5" font-family="Helvetica,sans-Serif" font-size="10.00">put()</text>
<text text-anchor="start" x="12.5" y="-135.5" font-family="Helvetica,sans-Serif" font-size="10.00">+</text>
<text text-anchor="start" x="23" y="-135.5" font-family="Helvetica,sans-Serif" font-size="10.00">put_indexed()</text>
<text text-anchor="start" x="12.5" y="-120.5" font-family="Helvetica,sans-Serif" font-size="10.00">+</text>
<text text-anchor="start" x="23" y="-120.5" font-family="Helvetica,sans-Serif" font-size="10.00">put_var()</text>
<text text-anchor="start" x="12.5" y="-105.5" font-family="Helvetica,sans-Serif" font-size="10.00">+</text>
<text text-anchor="start" x="23" y="-105.5" font-family="Helvetica,sans-Serif" font-size="10.00">operator&lt;&lt;()</text>
<polygon fill="#666666" stroke="#666666" points="8,-282 8,-282 105,-282 105,-282 8,-282"/>
<polygon fill="#666666" stroke="#666666" points="8,-252 8,-252 21,-252 21,-252 8,-252"/>
<polygon fill="#666666" stroke="#666666" points="21,-252 21,-252 105,-252 105,-252 21,-252"/>
<polygon fill="none" stroke="#666666" points="8,-100 8,-299 105,-299 105,-100 8,-100"/>
</a>
</g>
</g>
<!-- Node2&#45;&gt;Node1 -->
<g id="edge1_Node000001_Node000002" class="edge">
<title>Node2&#45;&gt;Node1</title>
<g id="a_edge1_Node000001_Node000002"><a xlink:title=" ">
<path fill="none" stroke="#63b8ff" d="M56.5,-89.02C56.5,-79.92 56.5,-71.31 56.5,-63.69"/>
<polygon fill="none" stroke="#63b8ff" points="53,-88.8 56.5,-98.8 60,-88.8 53,-88.8"/>
</a>
</g>
</g>
</g>
</svg>
