<?xml version="1.0" encoding="UTF-8" standalone="no"?>
<!DOCTYPE svg PUBLIC "-//W3C//DTD SVG 1.1//EN"
 "http://www.w3.org/Graphics/SVG/1.1/DTD/svg11.dtd">
<!-- Generated by graphviz version 3.0.0 (20221109.1736)
 -->
<!-- Title: Visitor Pages: 1 -->
<svg width="294pt" height="535pt"
 viewBox="0.00 0.00 294.00 535.00" xmlns="http://www.w3.org/2000/svg" xmlns:xlink="http://www.w3.org/1999/xlink">
<g id="graph0" class="graph" transform="scale(1 1) rotate(0) translate(4 531)">
<title>Visitor</title>
<polygon fill="white" stroke="transparent" points="-4,4 -4,-531 290,-531 290,4 -4,4"/>
<!-- Node1 -->
<g id="node1" class="node">
<title>Node1</title>
<g id="a_node1"><a xlink:title=" ">
<polygon fill="#bfbfbf" stroke="black" points="49.5,-0.5 49.5,-134.5 98.5,-134.5 98.5,-0.5 49.5,-0.5"/>
<text text-anchor="middle" x="74" y="-122.5" font-family="Helvetica,sans-Serif" font-size="10.00">Visitor</text>
<polyline fill="none" stroke="black" points="49.5,-115.5 98.5,-115.5 "/>
<text text-anchor="middle" x="74" y="-103.5" font-family="Helvetica,sans-Serif" font-size="10.00"> </text>
<polyline fill="none" stroke="black" points="49.5,-96.5 98.5,-96.5 "/>
<text text-anchor="start" x="57.5" y="-84.5" font-family="Helvetica,sans-Serif" font-size="10.00">+ visit()</text>
<text text-anchor="start" x="57.5" y="-73.5" font-family="Helvetica,sans-Serif" font-size="10.00">+ visit()</text>
<text text-anchor="start" x="57.5" y="-62.5" font-family="Helvetica,sans-Serif" font-size="10.00">+ visit()</text>
<text text-anchor="start" x="57.5" y="-51.5" font-family="Helvetica,sans-Serif" font-size="10.00">+ visit()</text>
<text text-anchor="start" x="57.5" y="-40.5" font-family="Helvetica,sans-Serif" font-size="10.00">+ visit()</text>
<text text-anchor="start" x="57.5" y="-29.5" font-family="Helvetica,sans-Serif" font-size="10.00">+ visit()</text>
<text text-anchor="start" x="57.5" y="-18.5" font-family="Helvetica,sans-Serif" font-size="10.00">+ visit()</text>
<text text-anchor="start" x="57.5" y="-7.5" font-family="Helvetica,sans-Serif" font-size="10.00">+ get()</text>
</a>
</g>
</g>
<!-- Node2 -->
<g id="node2" class="node">
<title>Node2</title>
<g id="a_node2"><a xlink:href="classgeojson_1_1_feature_visitor.html" target="_top" xlink:title="An abstract class used to operate on the children of FeatureBase.">
<polygon fill="white" stroke="black" points="0,-182.5 0,-305.5 116,-305.5 116,-182.5 0,-182.5"/>
<text text-anchor="middle" x="58" y="-293.5" font-family="Helvetica,sans-Serif" font-size="10.00">geojson::FeatureVisitor</text>
<polyline fill="none" stroke="black" points="0,-286.5 116,-286.5 "/>
<text text-anchor="middle" x="58" y="-274.5" font-family="Helvetica,sans-Serif" font-size="10.00"> </text>
<polyline fill="none" stroke="black" points="0,-267.5 116,-267.5 "/>
<text text-anchor="start" x="8" y="-255.5" font-family="Helvetica,sans-Serif" font-size="10.00">+ visit()</text>
<text text-anchor="start" x="8" y="-244.5" font-family="Helvetica,sans-Serif" font-size="10.00">+ visit()</text>
<text text-anchor="start" x="8" y="-233.5" font-family="Helvetica,sans-Serif" font-size="10.00">+ visit()</text>
<text text-anchor="start" x="8" y="-222.5" font-family="Helvetica,sans-Serif" font-size="10.00">+ visit()</text>
<text text-anchor="start" x="8" y="-211.5" font-family="Helvetica,sans-Serif" font-size="10.00">+ visit()</text>
<text text-anchor="start" x="8" y="-200.5" font-family="Helvetica,sans-Serif" font-size="10.00">+ visit()</text>
<text text-anchor="start" x="8" y="-189.5" font-family="Helvetica,sans-Serif" font-size="10.00">+ visit()</text>
</a>
</g>
</g>
<!-- Node2&#45;&gt;Node1 -->
<g id="edge1" class="edge">
<title>Node2&#45;&gt;Node1</title>
<path fill="none" stroke="midnightblue" d="M64.5,-172.16C65.63,-159.75 66.81,-146.87 67.94,-134.59"/>
<polygon fill="none" stroke="midnightblue" points="60.98,-172.18 63.55,-182.46 67.95,-172.82 60.98,-172.18"/>
</g>
<!-- Node3 -->
<g id="node3" class="node">
<title>Node3</title>
<g id="a_node3"><a xlink:title=" ">
<polygon fill="white" stroke="black" points="134,-215.5 134,-272.5 254,-272.5 254,-215.5 134,-215.5"/>
<text text-anchor="middle" x="194" y="-260.5" font-family="Helvetica,sans-Serif" font-size="10.00">std::vector&lt; std::string &gt;</text>
<polyline fill="none" stroke="black" points="134,-253.5 254,-253.5 "/>
<text text-anchor="middle" x="194" y="-241.5" font-family="Helvetica,sans-Serif" font-size="10.00"> </text>
<polyline fill="none" stroke="black" points="134,-234.5 254,-234.5 "/>
<text text-anchor="middle" x="194" y="-222.5" font-family="Helvetica,sans-Serif" font-size="10.00"> </text>
</a>
</g>
</g>
<!-- Node3&#45;&gt;Node1 -->
<g id="edge2" class="edge">
<title>Node3&#45;&gt;Node1</title>
<path fill="none" stroke="#404040" d="M174.99,-215.35C156.32,-188.21 127.52,-146.32 105.44,-114.22"/>
<polygon fill="none" stroke="#404040" points="105.33,-114.06 98.64,-111.39 98.53,-104.18 105.23,-106.85 105.33,-114.06"/>
<text text-anchor="middle" x="152.5" y="-156" font-family="Helvetica,sans-Serif" font-size="10.00"> &#45;types</text>
</g>
<!-- Node4 -->
<g id="node4" class="node">
<title>Node4</title>
<g id="a_node4"><a xlink:title=" ">
<polygon fill="white" stroke="black" points="117.5,-353.5 117.5,-410.5 176.5,-410.5 176.5,-353.5 117.5,-353.5"/>
<text text-anchor="middle" x="147" y="-398.5" font-family="Helvetica,sans-Serif" font-size="10.00">std::string</text>
<polyline fill="none" stroke="black" points="117.5,-391.5 176.5,-391.5 "/>
<text text-anchor="middle" x="147" y="-379.5" font-family="Helvetica,sans-Serif" font-size="10.00"> </text>
<polyline fill="none" stroke="black" points="117.5,-372.5 176.5,-372.5 "/>
<text text-anchor="middle" x="147" y="-360.5" font-family="Helvetica,sans-Serif" font-size="10.00"> </text>
</a>
</g>
</g>
<!-- Node4&#45;&gt;Node3 -->
<g id="edge3" class="edge">
<title>Node4&#45;&gt;Node3</title>
<path fill="none" stroke="#404040" d="M156.51,-353.48C163.38,-333.61 172.75,-306.49 180.4,-284.34"/>
<polygon fill="none" stroke="#404040" points="180.42,-284.29 178.6,-277.31 184.34,-272.95 186.16,-279.92 180.42,-284.29"/>
<text text-anchor="middle" x="191.5" y="-327" font-family="Helvetica,sans-Serif" font-size="10.00"> +elements</text>
</g>
<!-- Node5 -->
<g id="node5" class="node">
<title>Node5</title>
<g id="a_node5"><a xlink:title=" ">
<polygon fill="white" stroke="black" points="100.5,-458.5 100.5,-526.5 193.5,-526.5 193.5,-458.5 100.5,-458.5"/>
<text text-anchor="start" x="108.5" y="-514.5" font-family="Helvetica,sans-Serif" font-size="10.00">std::basic_string&lt;</text>
<text text-anchor="middle" x="147" y="-503.5" font-family="Helvetica,sans-Serif" font-size="10.00"> Char &gt;</text>
<polyline fill="none" stroke="black" points="100.5,-496.5 193.5,-496.5 "/>
<text text-anchor="middle" x="147" y="-484.5" font-family="Helvetica,sans-Serif" font-size="10.00"> </text>
<polyline fill="none" stroke="black" points="100.5,-477.5 193.5,-477.5 "/>
<text text-anchor="middle" x="147" y="-465.5" font-family="Helvetica,sans-Serif" font-size="10.00"> </text>
</a>
</g>
</g>
<!-- Node5&#45;&gt;Node4 -->
<g id="edge4" class="edge">
<title>Node5&#45;&gt;Node4</title>
<path fill="none" stroke="midnightblue" d="M147,-448.06C147,-435.51 147,-422.15 147,-410.83"/>
<polygon fill="none" stroke="midnightblue" points="143.5,-448.36 147,-458.36 150.5,-448.36 143.5,-448.36"/>
</g>
<!-- Node6 -->
<g id="node6" class="node">
<title>Node6</title>
<g id="a_node6"><a xlink:title=" ">
<polygon fill="white" stroke="black" points="195,-353.5 195,-410.5 279,-410.5 279,-353.5 195,-353.5"/>
<text text-anchor="middle" x="237" y="-398.5" font-family="Helvetica,sans-Serif" font-size="10.00">std::vector&lt; T &gt;</text>
<polyline fill="none" stroke="black" points="195,-391.5 279,-391.5 "/>
<text text-anchor="middle" x="237" y="-379.5" font-family="Helvetica,sans-Serif" font-size="10.00"> </text>
<polyline fill="none" stroke="black" points="195,-372.5 279,-372.5 "/>
<text text-anchor="middle" x="237" y="-360.5" font-family="Helvetica,sans-Serif" font-size="10.00"> </text>
</a>
</g>
</g>
<!-- Node6&#45;&gt;Node3 -->
<g id="edge5" class="edge">
<title>Node6&#45;&gt;Node3</title>
<path fill="none" stroke="orange" d="M225.19,-343.65C218.13,-321.31 209.3,-293.38 202.84,-272.95"/>
<polygon fill="orange" stroke="orange" points="221.95,-345 228.3,-353.48 228.62,-342.89 221.95,-345"/>
<text text-anchor="middle" x="252.5" y="-327" font-family="Helvetica,sans-Serif" font-size="10.00"> &lt; std::string &gt;</text>
</g>
<!-- Node7 -->
<g id="node7" class="node">
<title>Node7</title>
<g id="a_node7"><a xlink:title=" ">
<polygon fill="white" stroke="black" points="222.5,-464 222.5,-521 251.5,-521 251.5,-464 222.5,-464"/>
<text text-anchor="middle" x="237" y="-509" font-family="Helvetica,sans-Serif" font-size="10.00">T</text>
<polyline fill="none" stroke="black" points="222.5,-502 251.5,-502 "/>
<text text-anchor="middle" x="237" y="-490" font-family="Helvetica,sans-Serif" font-size="10.00"> </text>
<polyline fill="none" stroke="black" points="222.5,-483 251.5,-483 "/>
<text text-anchor="middle" x="237" y="-471" font-family="Helvetica,sans-Serif" font-size="10.00"> </text>
</a>
</g>
</g>
<!-- Node7&#45;&gt;Node6 -->
<g id="edge6" class="edge">
<title>Node7&#45;&gt;Node6</title>
<path fill="none" stroke="#404040" d="M237,-463.84C237,-451.34 237,-436.34 237,-422.68"/>
<polygon fill="none" stroke="#404040" points="237,-422.61 233,-416.61 237,-410.61 241,-416.61 237,-422.61"/>
<text text-anchor="middle" x="261.5" y="-432" font-family="Helvetica,sans-Serif" font-size="10.00"> +elements</text>
</g>
</g>
</svg>
