<?xml version="1.0" encoding="UTF-8" standalone="no"?>
<!DOCTYPE svg PUBLIC "-//W3C//DTD SVG 1.1//EN"
 "http://www.w3.org/Graphics/SVG/1.1/DTD/svg11.dtd">
<!-- Generated by graphviz version 3.0.0 (20221109.1736)
 -->
<!-- Title: HY_CatchmentAggregate Pages: 1 -->
<!--zoomable 1092 -->
<svg id="main" version="1.1" xmlns="http://www.w3.org/2000/svg" xmlns:xlink="http://www.w3.org/1999/xlink" xml:space="preserve" onload="init(evt)">
<style type="text/css"><![CDATA[
.edge:hover path { stroke: red; }
.edge:hover polygon { stroke: red; fill: red; }
]]></style>
<script type="text/javascript"><![CDATA[
var edges = document.getElementsByTagName('g');
if (edges && edges.length) {
  for (var i=0;i<edges.length;i++) {
    if (edges[i].id.substr(0,4)=='edge') {
      edges[i].setAttribute('class','edge');
    }
  }
}
]]></script>
        <defs>
                <circle id="rim" cx="0" cy="0" r="7"/>
                <circle id="rim2" cx="0" cy="0" r="3.5"/>
                <g id="zoomPlus">
                        <use xlink:href="#rim" fill="#404040">
                                <set attributeName="fill" to="#808080" begin="zoomplus.mouseover" end="zoomplus.mouseout"/>
                        </use>
                        <path d="M-4,0h8M0,-4v8" fill="none" stroke="white" stroke-width="1.5" pointer-events="none"/>
                </g>
                <g id="zoomMin">
                        <use xlink:href="#rim" fill="#404040">
                                <set attributeName="fill" to="#808080" begin="zoomminus.mouseover" end="zoomminus.mouseout"/>
                        </use>
                        <path d="M-4,0h8" fill="none" stroke="white" stroke-width="1.5" pointer-events="none"/>
                </g>
                <g id="dirArrow">
                        <path fill="none" stroke="white" stroke-width="1.5" d="M0,-3.0v7 M-2.5,-0.5L0,-3.0L2.5,-0.5"/>
                </g>
               <g id="resetDef">
                       <use xlink:href="#rim2" fill="#404040">
                               <set attributeName="fill" to="#808080" begin="reset.mouseover" end="reset.mouseout"/>
                       </use>
               </g>
        </defs>

<script type="text/javascript">
var viewWidth = 918;
var viewHeight = 1092;
var sectionId = 'dynsection-1';
</script>
<script xlink:href="svgpan.js"/>
<svg id="graph" class="graph">
<g id="viewport">
<title>HY_CatchmentAggregate</title>
<polygon fill="white" stroke="transparent" points="-4,4 -4,-1088 914,-1088 914,4 -4,4"/>
<!-- Node1 -->
<g id="node1" class="node">
<title>Node1</title>
<g id="a_node1"><a xlink:title=" ">
<polygon fill="#bfbfbf" stroke="black" points="168.5,-276.5 168.5,-344.5 315.5,-344.5 315.5,-276.5 168.5,-276.5"/>
<text text-anchor="middle" x="242" y="-332.5" font-family="Helvetica,sans-Serif" font-size="10.00">HY_CatchmentAggregate</text>
<polyline fill="none" stroke="black" points="168.5,-325.5 315.5,-325.5 "/>
<text text-anchor="middle" x="242" y="-313.5" font-family="Helvetica,sans-Serif" font-size="10.00"> </text>
<polyline fill="none" stroke="black" points="168.5,-306.5 315.5,-306.5 "/>
<text text-anchor="start" x="176.5" y="-294.5" font-family="Helvetica,sans-Serif" font-size="10.00">+ HY_CatchmentAggregate()</text>
<text text-anchor="start" x="176.5" y="-283.5" font-family="Helvetica,sans-Serif" font-size="10.00">+ ~HY_CatchmentAggregate()</text>
</a>
</g>
</g>
<!-- Node2 -->
<g id="node2" class="node">
<title>Node2</title>
<g id="a_node2"><a xlink:href="class_h_y___catchment.html" target="_top" xlink:title=" ">
<polygon fill="white" stroke="black" points="259,-403.5 259,-493.5 381,-493.5 381,-403.5 259,-403.5"/>
<text text-anchor="middle" x="320" y="-481.5" font-family="Helvetica,sans-Serif" font-size="10.00">HY_Catchment</text>
<polyline fill="none" stroke="black" points="259,-474.5 381,-474.5 "/>
<text text-anchor="middle" x="320" y="-462.5" font-family="Helvetica,sans-Serif" font-size="10.00"> </text>
<polyline fill="none" stroke="black" points="259,-455.5 381,-455.5 "/>
<text text-anchor="start" x="267" y="-443.5" font-family="Helvetica,sans-Serif" font-size="10.00">+ HY_Catchment()</text>
<text text-anchor="start" x="267" y="-432.5" font-family="Helvetica,sans-Serif" font-size="10.00">+ HY_Catchment()</text>
<text text-anchor="start" x="267" y="-421.5" font-family="Helvetica,sans-Serif" font-size="10.00">+ ~HY_Catchment()</text>
<text text-anchor="start" x="267" y="-410.5" font-family="Helvetica,sans-Serif" font-size="10.00">+ get_outflow_nexuses()</text>
</a>
</g>
</g>
<!-- Node2&#45;&gt;Node1 -->
<g id="edge1" class="edge">
<title>Node2&#45;&gt;Node1</title>
<path fill="none" stroke="midnightblue" d="M289.44,-394.22C279.86,-377.51 269.56,-359.56 261.02,-344.66"/>
<polygon fill="none" stroke="midnightblue" points="286.66,-396.41 294.68,-403.34 292.74,-392.93 286.66,-396.41"/>
</g>
<!-- Node6 -->
<g id="node6" class="node">
<title>Node6</title>
<g id="a_node6"><a xlink:title=" ">
<polygon fill="white" stroke="black" points="468.5,-276.5 468.5,-344.5 571.5,-344.5 571.5,-276.5 468.5,-276.5"/>
<text text-anchor="start" x="476.5" y="-332.5" font-family="Helvetica,sans-Serif" font-size="10.00">std::shared_ptr&lt; HY</text>
<text text-anchor="middle" x="520" y="-321.5" font-family="Helvetica,sans-Serif" font-size="10.00">_Catchment &gt;</text>
<polyline fill="none" stroke="black" points="468.5,-314.5 571.5,-314.5 "/>
<text text-anchor="middle" x="520" y="-302.5" font-family="Helvetica,sans-Serif" font-size="10.00"> </text>
<polyline fill="none" stroke="black" points="468.5,-295.5 571.5,-295.5 "/>
<text text-anchor="start" x="476.5" y="-283.5" font-family="Helvetica,sans-Serif" font-size="10.00">+ operator&#45;&gt;()</text>
</a>
</g>
</g>
<!-- Node2&#45;&gt;Node6 -->
<g id="edge6" class="edge">
<title>Node2&#45;&gt;Node6</title>
<path fill="none" stroke="#404040" d="M381.09,-405.96C406.54,-388.66 435.96,-368.65 461.16,-351.51"/>
<polygon fill="none" stroke="#404040" points="461.39,-351.35 464.1,-344.67 471.31,-344.61 468.6,-351.29 461.39,-351.35"/>
<text text-anchor="middle" x="453" y="-371.5" font-family="Helvetica,sans-Serif" font-size="10.00"> +ptr</text>
</g>
<!-- Node3 -->
<g id="node3" class="node">
<title>Node3</title>
<g id="a_node3"><a xlink:href="class_h_y___hydro_feature.html" target="_top" xlink:title=" ">
<polygon fill="white" stroke="black" points="0,-607.5 0,-675.5 114,-675.5 114,-607.5 0,-607.5"/>
<text text-anchor="middle" x="57" y="-663.5" font-family="Helvetica,sans-Serif" font-size="10.00">HY_HydroFeature</text>
<polyline fill="none" stroke="black" points="0,-656.5 114,-656.5 "/>
<text text-anchor="middle" x="57" y="-644.5" font-family="Helvetica,sans-Serif" font-size="10.00"> </text>
<polyline fill="none" stroke="black" points="0,-637.5 114,-637.5 "/>
<text text-anchor="start" x="8" y="-625.5" font-family="Helvetica,sans-Serif" font-size="10.00">+ HY_HydroFeature()</text>
<text text-anchor="start" x="8" y="-614.5" font-family="Helvetica,sans-Serif" font-size="10.00">+ ~HY_HydroFeature()</text>
</a>
</g>
</g>
<!-- Node3&#45;&gt;Node2 -->
<g id="edge2" class="edge">
<title>Node3&#45;&gt;Node2</title>
<path fill="none" stroke="midnightblue" d="M73.9,-598.08C87.03,-570.07 107.77,-534.53 136,-512 171.47,-483.7 220.46,-467.88 258.97,-459.25"/>
<polygon fill="none" stroke="midnightblue" points="70.68,-596.7 69.74,-607.25 77.06,-599.59 70.68,-596.7"/>
</g>
<!-- Node4 -->
<g id="node4" class="node">
<title>Node4</title>
<g id="a_node4"><a xlink:title=" ">
<polygon fill="white" stroke="black" points="356.5,-0.5 356.5,-68.5 481.5,-68.5 481.5,-0.5 356.5,-0.5"/>
<text text-anchor="start" x="364.5" y="-56.5" font-family="Helvetica,sans-Serif" font-size="10.00">std::shared_ptr&lt; HY</text>
<text text-anchor="middle" x="419" y="-45.5" font-family="Helvetica,sans-Serif" font-size="10.00">_CatchmentRealization &gt;</text>
<polyline fill="none" stroke="black" points="356.5,-38.5 481.5,-38.5 "/>
<text text-anchor="middle" x="419" y="-26.5" font-family="Helvetica,sans-Serif" font-size="10.00"> </text>
<polyline fill="none" stroke="black" points="356.5,-19.5 481.5,-19.5 "/>
<text text-anchor="start" x="364.5" y="-7.5" font-family="Helvetica,sans-Serif" font-size="10.00">+ operator&#45;&gt;()</text>
</a>
</g>
</g>
<!-- Node4&#45;&gt;Node2 -->
<g id="edge3" class="edge">
<title>Node4&#45;&gt;Node2</title>
<path fill="none" stroke="#404040" d="M404.97,-68.55C388.1,-109.62 360.19,-182.24 345,-247 333.75,-294.97 327.32,-350.67 323.81,-391.16"/>
<polygon fill="none" stroke="#404040" points="323.8,-391.26 327.29,-397.57 322.81,-403.22 319.32,-396.91 323.8,-391.26"/>
<text text-anchor="middle" x="371" y="-250" font-family="Helvetica,sans-Serif" font-size="10.00"> +realization</text>
</g>
<!-- Node5 -->
<g id="node5" class="node">
<title>Node5</title>
<g id="a_node5"><a xlink:href="class_h_y___catchment_realization.html" target="_top" xlink:title=" ">
<polygon fill="white" stroke="black" points="500,-116.5 500,-228.5 650,-228.5 650,-116.5 500,-116.5"/>
<text text-anchor="middle" x="575" y="-216.5" font-family="Helvetica,sans-Serif" font-size="10.00">HY_CatchmentRealization</text>
<polyline fill="none" stroke="black" points="500,-209.5 650,-209.5 "/>
<text text-anchor="start" x="508" y="-197.5" font-family="Helvetica,sans-Serif" font-size="10.00"># id_number</text>
<polyline fill="none" stroke="black" points="500,-190.5 650,-190.5 "/>
<text text-anchor="start" x="508" y="-178.5" font-family="Helvetica,sans-Serif" font-size="10.00">+ HY_CatchmentRealization()</text>
<text text-anchor="start" x="508" y="-167.5" font-family="Helvetica,sans-Serif" font-size="10.00">+ HY_CatchmentRealization()</text>
<text text-anchor="start" x="508" y="-156.5" font-family="Helvetica,sans-Serif" font-size="10.00">+ ~HY_CatchmentRealization()</text>
<text text-anchor="start" x="508" y="-145.5" font-family="Helvetica,sans-Serif" font-size="10.00">+ get_response()</text>
<text text-anchor="start" x="508" y="-134.5" font-family="Helvetica,sans-Serif" font-size="10.00"># get_catchment_id()</text>
<text text-anchor="start" x="508" y="-123.5" font-family="Helvetica,sans-Serif" font-size="10.00"># set_catchment_id()</text>
</a>
</g>
</g>
<!-- Node5&#45;&gt;Node4 -->
<g id="edge4" class="edge">
<title>Node5&#45;&gt;Node4</title>
<path fill="none" stroke="#404040" d="M511.55,-116.18C496.33,-102.91 480.34,-88.97 466.01,-76.48"/>
<polygon fill="none" stroke="#404040" points="465.91,-76.39 458.76,-75.47 456.86,-68.51 464.01,-69.44 465.91,-76.39"/>
<text text-anchor="middle" x="497" y="-90" font-family="Helvetica,sans-Serif" font-size="10.00"> +ptr</text>
</g>
<!-- Node6&#45;&gt;Node5 -->
<g id="edge5" class="edge">
<title>Node6&#45;&gt;Node5</title>
<path fill="none" stroke="#404040" d="M543.42,-276.27C546.96,-270.36 550.32,-264.13 553,-258 555.44,-252.41 557.66,-246.5 559.67,-240.49"/>
<polygon fill="none" stroke="#404040" points="559.71,-240.36 557.66,-233.45 563.26,-228.9 565.3,-235.81 559.71,-240.36"/>
<text text-anchor="middle" x="602" y="-250" font-family="Helvetica,sans-Serif" font-size="10.00"> #realized_catchment</text>
</g>
<!-- Node7 -->
<g id="node7" class="node">
<title>Node7</title>
<g id="a_node7"><a xlink:title=" ">
<polygon fill="white" stroke="black" points="480.5,-420 480.5,-477 583.5,-477 583.5,-420 480.5,-420"/>
<text text-anchor="middle" x="532" y="-465" font-family="Helvetica,sans-Serif" font-size="10.00">std::shared_ptr&lt; T &gt;</text>
<polyline fill="none" stroke="black" points="480.5,-458 583.5,-458 "/>
<text text-anchor="middle" x="532" y="-446" font-family="Helvetica,sans-Serif" font-size="10.00"> </text>
<polyline fill="none" stroke="black" points="480.5,-439 583.5,-439 "/>
<text text-anchor="start" x="488.5" y="-427" font-family="Helvetica,sans-Serif" font-size="10.00">+ operator&#45;&gt;()</text>
</a>
</g>
</g>
<!-- Node7&#45;&gt;Node4 -->
<g id="edge14" class="edge">
<title>Node7&#45;&gt;Node4</title>
<path fill="none" stroke="orange" d="M500.77,-412.18C471.52,-376.29 430.23,-317.65 416,-258 400.36,-192.43 407.44,-112.87 413.53,-68.86"/>
<polygon fill="orange" stroke="orange" points="498.11,-414.45 507.19,-419.92 503.5,-409.99 498.11,-414.45"/>
<text text-anchor="middle" x="482.5" y="-250" font-family="Helvetica,sans-Serif" font-size="10.00"> &lt; HY_CatchmentRealization &gt;</text>
</g>
<!-- Node7&#45;&gt;Node6 -->
<g id="edge7" class="edge">
<title>Node7&#45;&gt;Node6</title>
<path fill="none" stroke="orange" d="M524.38,-409.9C523,-401.72 521.76,-393.1 521,-385 519.77,-371.91 519.36,-357.46 519.32,-344.86"/>
<polygon fill="orange" stroke="orange" points="520.96,-410.71 526.17,-419.94 527.86,-409.48 520.96,-410.71"/>
<text text-anchor="middle" x="564" y="-371.5" font-family="Helvetica,sans-Serif" font-size="10.00"> &lt; HY_Catchment &gt;</text>
</g>
<!-- Node9 -->
<g id="node9" class="node">
<title>Node9</title>
<g id="a_node9"><a xlink:title=" ">
<polygon fill="white" stroke="black" points="612,-276.5 612,-344.5 768,-344.5 768,-276.5 612,-276.5"/>
<text text-anchor="start" x="620" y="-332.5" font-family="Helvetica,sans-Serif" font-size="10.00">std::shared_ptr&lt; data</text>
<text text-anchor="middle" x="690" y="-321.5" font-family="Helvetica,sans-Serif" font-size="10.00">_access::GenericDataProvider &gt;</text>
<polyline fill="none" stroke="black" points="612,-314.5 768,-314.5 "/>
<text text-anchor="middle" x="690" y="-302.5" font-family="Helvetica,sans-Serif" font-size="10.00"> </text>
<polyline fill="none" stroke="black" points="612,-295.5 768,-295.5 "/>
<text text-anchor="start" x="620" y="-283.5" font-family="Helvetica,sans-Serif" font-size="10.00">+ operator&#45;&gt;()</text>
</a>
</g>
</g>
<!-- Node7&#45;&gt;Node9 -->
<g id="edge13" class="edge">
<title>Node7&#45;&gt;Node9</title>
<path fill="none" stroke="orange" d="M575.7,-413.13C586.24,-404.29 597.27,-394.56 607,-385 616.22,-375.95 616.71,-371.98 626,-363 632.46,-356.76 639.62,-350.47 646.74,-344.54"/>
<polygon fill="orange" stroke="orange" points="573.23,-410.63 567.76,-419.7 577.69,-416.02 573.23,-410.63"/>
<text text-anchor="start" x="626" y="-377" font-family="Helvetica,sans-Serif" font-size="10.00"> &lt; data_access::GenericData</text>
<text text-anchor="middle" x="688.5" y="-366" font-family="Helvetica,sans-Serif" font-size="10.00">Provider &gt;</text>
</g>
<!-- Node8 -->
<g id="node8" class="node">
<title>Node8</title>
<g id="a_node8"><a xlink:title=" ">
<polygon fill="white" stroke="black" points="498.5,-1021 498.5,-1078 527.5,-1078 527.5,-1021 498.5,-1021"/>
<text text-anchor="middle" x="513" y="-1066" font-family="Helvetica,sans-Serif" font-size="10.00">T</text>
<polyline fill="none" stroke="black" points="498.5,-1059 527.5,-1059 "/>
<text text-anchor="middle" x="513" y="-1047" font-family="Helvetica,sans-Serif" font-size="10.00"> </text>
<polyline fill="none" stroke="black" points="498.5,-1040 527.5,-1040 "/>
<text text-anchor="middle" x="513" y="-1028" font-family="Helvetica,sans-Serif" font-size="10.00"> </text>
</a>
</g>
</g>
<!-- Node8&#45;&gt;Node7 -->
<g id="edge8" class="edge">
<title>Node8&#45;&gt;Node7</title>
<path fill="none" stroke="#404040" d="M524.55,-1020.89C527.21,-1013.28 529.65,-1004.94 531,-997 563.04,-809.27 545.54,-580.02 536.42,-489.24"/>
<polygon fill="none" stroke="#404040" points="536.4,-489.06 531.8,-483.5 535.17,-477.12 539.76,-482.68 536.4,-489.06"/>
<text text-anchor="middle" x="559" y="-757.5" font-family="Helvetica,sans-Serif" font-size="10.00"> +ptr</text>
</g>
<!-- Node16 -->
<g id="node16" class="node">
<title>Node16</title>
<g id="a_node16"><a xlink:title=" ">
<polygon fill="white" stroke="black" points="413,-850 413,-907 497,-907 497,-850 413,-850"/>
<text text-anchor="middle" x="455" y="-895" font-family="Helvetica,sans-Serif" font-size="10.00">std::vector&lt; T &gt;</text>
<polyline fill="none" stroke="black" points="413,-888 497,-888 "/>
<text text-anchor="middle" x="455" y="-876" font-family="Helvetica,sans-Serif" font-size="10.00"> </text>
<polyline fill="none" stroke="black" points="413,-869 497,-869 "/>
<text text-anchor="middle" x="455" y="-857" font-family="Helvetica,sans-Serif" font-size="10.00"> </text>
</a>
</g>
</g>
<!-- Node8&#45;&gt;Node16 -->
<g id="edge20" class="edge">
<title>Node8&#45;&gt;Node16</title>
<path fill="none" stroke="#404040" d="M498.45,-1027.74C492.63,-1018.65 486.3,-1007.64 482,-997 471.9,-971.99 465.13,-942.4 460.89,-919.16"/>
<polygon fill="none" stroke="#404040" points="460.89,-919.14 455.93,-913.91 458.85,-907.31 463.81,-912.55 460.89,-919.14"/>
<text text-anchor="middle" x="506.5" y="-989" font-family="Helvetica,sans-Serif" font-size="10.00"> +elements</text>
</g>
<!-- Node9&#45;&gt;Node5 -->
<g id="edge9" class="edge">
<title>Node9&#45;&gt;Node5</title>
<path fill="none" stroke="#404040" d="M672.02,-276.3C666.14,-266.5 659.24,-256 652,-247 649.51,-243.9 646.89,-240.81 644.19,-237.74"/>
<polygon fill="none" stroke="#404040" points="643.96,-237.48 636.96,-235.74 635.87,-228.62 642.87,-230.35 643.96,-237.48"/>
<text text-anchor="middle" x="677.5" y="-250" font-family="Helvetica,sans-Serif" font-size="10.00"> #forcing</text>
</g>
<!-- Node10 -->
<g id="node10" class="node">
<title>Node10</title>
<g id="a_node10"><a xlink:href="classdata__access_1_1_generic_data_provider.html" target="_top" xlink:title=" ">
<polygon fill="white" stroke="black" points="711.5,-414.5 711.5,-482.5 842.5,-482.5 842.5,-414.5 711.5,-414.5"/>
<text text-anchor="start" x="719.5" y="-470.5" font-family="Helvetica,sans-Serif" font-size="10.00">data_access::GenericData</text>
<text text-anchor="middle" x="777" y="-459.5" font-family="Helvetica,sans-Serif" font-size="10.00">Provider</text>
<polyline fill="none" stroke="black" points="711.5,-452.5 842.5,-452.5 "/>
<text text-anchor="middle" x="777" y="-440.5" font-family="Helvetica,sans-Serif" font-size="10.00"> </text>
<polyline fill="none" stroke="black" points="711.5,-433.5 842.5,-433.5 "/>
<text text-anchor="middle" x="777" y="-421.5" font-family="Helvetica,sans-Serif" font-size="10.00"> </text>
</a>
</g>
</g>
<!-- Node10&#45;&gt;Node9 -->
<g id="edge10" class="edge">
<title>Node10&#45;&gt;Node9</title>
<path fill="none" stroke="#404040" d="M773.38,-414.2C770.39,-397.76 764.93,-378.24 755,-363 752.84,-359.68 750.39,-356.48 747.74,-353.42"/>
<polygon fill="none" stroke="#404040" points="747.61,-353.27 740.56,-351.72 739.29,-344.62 746.33,-346.18 747.61,-353.27"/>
<text text-anchor="middle" x="775" y="-371.5" font-family="Helvetica,sans-Serif" font-size="10.00"> +ptr</text>
</g>
<!-- Node11 -->
<g id="node11" class="node">
<title>Node11</title>
<g id="a_node11"><a xlink:href="classdata__access_1_1_data_provider.html" target="_top" xlink:title=" ">
<polygon fill="white" stroke="black" points="681.5,-552.5 681.5,-730.5 872.5,-730.5 872.5,-552.5 681.5,-552.5"/>
<text text-anchor="start" x="689.5" y="-718.5" font-family="Helvetica,sans-Serif" font-size="10.00">data_access::DataProvider</text>
<text text-anchor="middle" x="777" y="-707.5" font-family="Helvetica,sans-Serif" font-size="10.00">&lt; double, CatchmentAggrDataSelector &gt;</text>
<polyline fill="none" stroke="black" points="681.5,-700.5 872.5,-700.5 "/>
<text text-anchor="middle" x="777" y="-688.5" font-family="Helvetica,sans-Serif" font-size="10.00"> </text>
<polyline fill="none" stroke="black" points="681.5,-681.5 872.5,-681.5 "/>
<text text-anchor="start" x="689.5" y="-669.5" font-family="Helvetica,sans-Serif" font-size="10.00">+ ~DataProvider()</text>
<text text-anchor="start" x="689.5" y="-658.5" font-family="Helvetica,sans-Serif" font-size="10.00">+ get_avaliable_variable</text>
<text text-anchor="start" x="689.5" y="-647.5" font-family="Helvetica,sans-Serif" font-size="10.00">_names()</text>
<text text-anchor="start" x="689.5" y="-636.5" font-family="Helvetica,sans-Serif" font-size="10.00">+ get_data_start_time()</text>
<text text-anchor="start" x="689.5" y="-625.5" font-family="Helvetica,sans-Serif" font-size="10.00">+ get_data_stop_time()</text>
<text text-anchor="start" x="689.5" y="-614.5" font-family="Helvetica,sans-Serif" font-size="10.00">+ record_duration()</text>
<text text-anchor="start" x="689.5" y="-603.5" font-family="Helvetica,sans-Serif" font-size="10.00">+ get_ts_index_for_time()</text>
<text text-anchor="start" x="689.5" y="-592.5" font-family="Helvetica,sans-Serif" font-size="10.00">+ get_value()</text>
<text text-anchor="start" x="689.5" y="-581.5" font-family="Helvetica,sans-Serif" font-size="10.00">+ get_values()</text>
<text text-anchor="start" x="689.5" y="-570.5" font-family="Helvetica,sans-Serif" font-size="10.00">+ is_property_sum_over</text>
<text text-anchor="start" x="689.5" y="-559.5" font-family="Helvetica,sans-Serif" font-size="10.00">_time_step()</text>
</a>
</g>
</g>
<!-- Node11&#45;&gt;Node10 -->
<g id="edge11" class="edge">
<title>Node11&#45;&gt;Node10</title>
<path fill="none" stroke="midnightblue" d="M777,-542.07C777,-520.59 777,-499.31 777,-482.57"/>
<polygon fill="none" stroke="midnightblue" points="773.5,-542.27 777,-552.27 780.5,-542.27 773.5,-542.27"/>
</g>
<!-- Node12 -->
<g id="node12" class="node">
<title>Node12</title>
<g id="a_node12"><a xlink:href="classdata__access_1_1_data_provider.html" target="_top" xlink:title=" ">
<polygon fill="white" stroke="black" points="705.5,-789.5 705.5,-967.5 848.5,-967.5 848.5,-789.5 705.5,-789.5"/>
<text text-anchor="start" x="713.5" y="-955.5" font-family="Helvetica,sans-Serif" font-size="10.00">data_access::DataProvider</text>
<text text-anchor="middle" x="777" y="-944.5" font-family="Helvetica,sans-Serif" font-size="10.00">&lt; data_type, selection_type &gt;</text>
<polyline fill="none" stroke="black" points="705.5,-937.5 848.5,-937.5 "/>
<text text-anchor="middle" x="777" y="-925.5" font-family="Helvetica,sans-Serif" font-size="10.00"> </text>
<polyline fill="none" stroke="black" points="705.5,-918.5 848.5,-918.5 "/>
<text text-anchor="start" x="713.5" y="-906.5" font-family="Helvetica,sans-Serif" font-size="10.00">+ ~DataProvider()</text>
<text text-anchor="start" x="713.5" y="-895.5" font-family="Helvetica,sans-Serif" font-size="10.00">+ get_avaliable_variable</text>
<text text-anchor="start" x="713.5" y="-884.5" font-family="Helvetica,sans-Serif" font-size="10.00">_names()</text>
<text text-anchor="start" x="713.5" y="-873.5" font-family="Helvetica,sans-Serif" font-size="10.00">+ get_data_start_time()</text>
<text text-anchor="start" x="713.5" y="-862.5" font-family="Helvetica,sans-Serif" font-size="10.00">+ get_data_stop_time()</text>
<text text-anchor="start" x="713.5" y="-851.5" font-family="Helvetica,sans-Serif" font-size="10.00">+ record_duration()</text>
<text text-anchor="start" x="713.5" y="-840.5" font-family="Helvetica,sans-Serif" font-size="10.00">+ get_ts_index_for_time()</text>
<text text-anchor="start" x="713.5" y="-829.5" font-family="Helvetica,sans-Serif" font-size="10.00">+ get_value()</text>
<text text-anchor="start" x="713.5" y="-818.5" font-family="Helvetica,sans-Serif" font-size="10.00">+ get_values()</text>
<text text-anchor="start" x="713.5" y="-807.5" font-family="Helvetica,sans-Serif" font-size="10.00">+ is_property_sum_over</text>
<text text-anchor="start" x="713.5" y="-796.5" font-family="Helvetica,sans-Serif" font-size="10.00">_time_step()</text>
</a>
</g>
</g>
<!-- Node12&#45;&gt;Node11 -->
<g id="edge12" class="edge">
<title>Node12&#45;&gt;Node11</title>
<path fill="none" stroke="orange" d="M777,-778.91C777,-762.94 777,-746.49 777,-730.78"/>
<polygon fill="orange" stroke="orange" points="773.5,-779.33 777,-789.33 780.5,-779.33 773.5,-779.33"/>
<text text-anchor="start" x="777" y="-763" font-family="Helvetica,sans-Serif" font-size="10.00"> &lt; double, CatchmentAggrData</text>
<text text-anchor="middle" x="843.5" y="-752" font-family="Helvetica,sans-Serif" font-size="10.00">Selector &gt;</text>
</g>
<!-- Node13 -->
<g id="node13" class="node">
<title>Node13</title>
<g id="a_node13"><a xlink:title=" ">
<polygon fill="white" stroke="black" points="211.5,-850 211.5,-907 270.5,-907 270.5,-850 211.5,-850"/>
<text text-anchor="middle" x="241" y="-895" font-family="Helvetica,sans-Serif" font-size="10.00">std::string</text>
<polyline fill="none" stroke="black" points="211.5,-888 270.5,-888 "/>
<text text-anchor="middle" x="241" y="-876" font-family="Helvetica,sans-Serif" font-size="10.00"> </text>
<polyline fill="none" stroke="black" points="211.5,-869 270.5,-869 "/>
<text text-anchor="middle" x="241" y="-857" font-family="Helvetica,sans-Serif" font-size="10.00"> </text>
</a>
</g>
</g>
<!-- Node13&#45;&gt;Node2 -->
<g id="edge15" class="edge">
<title>Node13&#45;&gt;Node2</title>
<path fill="none" stroke="#404040" d="M219.83,-849.92C199.68,-821.78 170.73,-775.98 159,-731 138.92,-654.02 120.72,-621.74 159,-552 178.05,-517.29 214.39,-492.65 247.74,-476.24"/>
<polygon fill="none" stroke="#404040" points="248.04,-476.1 251.77,-469.93 258.9,-470.99 255.17,-477.17 248.04,-476.1"/>
<text text-anchor="middle" x="208.5" y="-661" font-family="Helvetica,sans-Serif" font-size="10.00"> &#45;conjoint_catchment</text>
<text text-anchor="middle" x="208.5" y="-650" font-family="Helvetica,sans-Serif" font-size="10.00">&#45;containing_catchment</text>
<text text-anchor="middle" x="208.5" y="-639" font-family="Helvetica,sans-Serif" font-size="10.00">&#45;id</text>
<text text-anchor="middle" x="208.5" y="-628" font-family="Helvetica,sans-Serif" font-size="10.00">&#45;lower_catchment</text>
<text text-anchor="middle" x="208.5" y="-617" font-family="Helvetica,sans-Serif" font-size="10.00">&#45;upper_catchment</text>
</g>
<!-- Node15 -->
<g id="node15" class="node">
<title>Node15</title>
<g id="a_node15"><a xlink:title=" ">
<polygon fill="white" stroke="black" points="267,-613 267,-670 373,-670 373,-613 267,-613"/>
<text text-anchor="middle" x="320" y="-658" font-family="Helvetica,sans-Serif" font-size="10.00">std::vector&lt; Nexus &gt;</text>
<polyline fill="none" stroke="black" points="267,-651 373,-651 "/>
<text text-anchor="middle" x="320" y="-639" font-family="Helvetica,sans-Serif" font-size="10.00"> </text>
<polyline fill="none" stroke="black" points="267,-632 373,-632 "/>
<text text-anchor="middle" x="320" y="-620" font-family="Helvetica,sans-Serif" font-size="10.00"> </text>
</a>
</g>
</g>
<!-- Node13&#45;&gt;Node15 -->
<g id="edge18" class="edge">
<title>Node13&#45;&gt;Node15</title>
<path fill="none" stroke="#404040" d="M236.42,-849.88C233.12,-823.31 230.95,-782.35 242,-749 243.35,-744.93 269.84,-709.14 291.58,-680.15"/>
<polygon fill="none" stroke="#404040" points="291.81,-679.84 292.22,-672.64 299.02,-670.25 298.61,-677.45 291.81,-679.84"/>
<text text-anchor="middle" x="266.5" y="-757.5" font-family="Helvetica,sans-Serif" font-size="10.00"> +elements</text>
</g>
<!-- Node17 -->
<g id="node17" class="node">
<title>Node17</title>
<g id="a_node17"><a xlink:title=" ">
<polygon fill="white" stroke="black" points="391.5,-613 391.5,-670 516.5,-670 516.5,-613 391.5,-613"/>
<text text-anchor="middle" x="454" y="-658" font-family="Helvetica,sans-Serif" font-size="10.00">std::vector&lt; Catchment &gt;</text>
<polyline fill="none" stroke="black" points="391.5,-651 516.5,-651 "/>
<text text-anchor="middle" x="454" y="-639" font-family="Helvetica,sans-Serif" font-size="10.00"> </text>
<polyline fill="none" stroke="black" points="391.5,-632 516.5,-632 "/>
<text text-anchor="middle" x="454" y="-620" font-family="Helvetica,sans-Serif" font-size="10.00"> </text>
</a>
</g>
</g>
<!-- Node13&#45;&gt;Node17 -->
<g id="edge22" class="edge">
<title>Node13&#45;&gt;Node17</title>
<path fill="none" stroke="#404040" d="M253.62,-849.8C268.15,-820.8 294.66,-775.82 330,-749 349.48,-734.22 361.96,-745.02 382,-731 401.13,-717.62 417.91,-697.8 430.44,-680.3"/>
<polygon fill="none" stroke="#404040" points="430.5,-680.21 430.62,-673 437.32,-670.34 437.2,-677.55 430.5,-680.21"/>
<text text-anchor="middle" x="354.5" y="-757.5" font-family="Helvetica,sans-Serif" font-size="10.00"> +elements</text>
</g>
<!-- Node14 -->
<g id="node14" class="node">
<title>Node14</title>
<g id="a_node14"><a xlink:title=" ">
<polygon fill="white" stroke="black" points="194.5,-1015.5 194.5,-1083.5 287.5,-1083.5 287.5,-1015.5 194.5,-1015.5"/>
<text text-anchor="start" x="202.5" y="-1071.5" font-family="Helvetica,sans-Serif" font-size="10.00">std::basic_string&lt;</text>
<text text-anchor="middle" x="241" y="-1060.5" font-family="Helvetica,sans-Serif" font-size="10.00"> Char &gt;</text>
<polyline fill="none" stroke="black" points="194.5,-1053.5 287.5,-1053.5 "/>
<text text-anchor="middle" x="241" y="-1041.5" font-family="Helvetica,sans-Serif" font-size="10.00"> </text>
<polyline fill="none" stroke="black" points="194.5,-1034.5 287.5,-1034.5 "/>
<text text-anchor="middle" x="241" y="-1022.5" font-family="Helvetica,sans-Serif" font-size="10.00"> </text>
</a>
</g>
</g>
<!-- Node14&#45;&gt;Node13 -->
<g id="edge16" class="edge">
<title>Node14&#45;&gt;Node13</title>
<path fill="none" stroke="midnightblue" d="M241,-1005.06C241,-974.23 241,-933.78 241,-907.23"/>
<polygon fill="none" stroke="midnightblue" points="237.5,-1005.11 241,-1015.11 244.5,-1005.11 237.5,-1005.11"/>
</g>
<!-- Node15&#45;&gt;Node2 -->
<g id="edge17" class="edge">
<title>Node15&#45;&gt;Node2</title>
<path fill="none" stroke="#404040" d="M320,-612.73C320,-584.78 320,-540.88 320,-505.64"/>
<polygon fill="none" stroke="#404040" points="320,-505.58 316,-499.58 320,-493.58 324,-499.58 320,-505.58"/>
<text text-anchor="middle" x="340" y="-526" font-family="Helvetica,sans-Serif" font-size="10.00"> &#45;inflows</text>
<text text-anchor="middle" x="340" y="-515" font-family="Helvetica,sans-Serif" font-size="10.00">&#45;outflows</text>
</g>
<!-- Node16&#45;&gt;Node15 -->
<g id="edge19" class="edge">
<title>Node16&#45;&gt;Node15</title>
<path fill="none" stroke="orange" d="M434,-840.94C406.91,-793.79 360.39,-712.81 336,-670.34"/>
<polygon fill="orange" stroke="orange" points="430.97,-842.69 438.98,-849.62 437.04,-839.21 430.97,-842.69"/>
<text text-anchor="middle" x="414.5" y="-757.5" font-family="Helvetica,sans-Serif" font-size="10.00"> &lt; Nexus &gt;</text>
</g>
<!-- Node16&#45;&gt;Node17 -->
<g id="edge23" class="edge">
<title>Node16&#45;&gt;Node17</title>
<path fill="none" stroke="orange" d="M454.84,-839.46C454.64,-792.11 454.3,-712.37 454.12,-670.34"/>
<polygon fill="orange" stroke="orange" points="451.34,-839.63 454.88,-849.62 458.34,-839.6 451.34,-839.63"/>
<text text-anchor="middle" x="487.5" y="-757.5" font-family="Helvetica,sans-Serif" font-size="10.00"> &lt; Catchment &gt;</text>
</g>
<!-- Node17&#45;&gt;Node2 -->
<g id="edge21" class="edge">
<title>Node17&#45;&gt;Node2</title>
<path fill="none" stroke="#404040" d="M434.71,-612.91C416.5,-586.88 388.42,-546.77 364,-512 362.03,-509.2 360.02,-506.33 357.98,-503.43"/>
<polygon fill="none" stroke="#404040" points="357.93,-503.35 351.2,-500.75 351.02,-493.54 357.75,-496.15 357.93,-503.35"/>
<text text-anchor="middle" x="430" y="-520.5" font-family="Helvetica,sans-Serif" font-size="10.00"> &#45;contained_catchments</text>
</g>
</g>
</svg>
        <g id="navigator" transform="translate(0 0)" fill="#404254">
                <rect fill="#f2f5e9" fill-opacity="0.5" stroke="#606060" stroke-width=".5" x="0" y="0" width="60" height="60"/>
                <use id="zoomplus" xlink:href="#zoomPlus" x="17" y="9" onmousedown="handleZoom(evt,'in')"/>
                <use id="zoomminus" xlink:href="#zoomMin" x="42" y="9" onmousedown="handleZoom(evt,'out')"/>
                <use id="reset" xlink:href="#resetDef" x="30" y="36" onmousedown="handleReset()"/>
                <g id="arrowUp" xlink:href="#dirArrow" transform="translate(30 24)" onmousedown="handlePan(0,-1)">
                  <use xlink:href="#rim" fill="#404040">
                        <set attributeName="fill" to="#808080" begin="arrowUp.mouseover" end="arrowUp.mouseout"/>
                  </use>
                  <path fill="none" stroke="white" stroke-width="1.5" d="M0,-3.0v7 M-2.5,-0.5L0,-3.0L2.5,-0.5"/>
                </g>
                <g id="arrowRight" xlink:href="#dirArrow" transform="rotate(90) translate(36 -43)" onmousedown="handlePan(1,0)">
                  <use xlink:href="#rim" fill="#404040">
                        <set attributeName="fill" to="#808080" begin="arrowRight.mouseover" end="arrowRight.mouseout"/>
                  </use>
                  <path fill="none" stroke="white" stroke-width="1.5" d="M0,-3.0v7 M-2.5,-0.5L0,-3.0L2.5,-0.5"/>
                </g>
                <g id="arrowDown" xlink:href="#dirArrow" transform="rotate(180) translate(-30 -48)" onmousedown="handlePan(0,1)">
                  <use xlink:href="#rim" fill="#404040">
                        <set attributeName="fill" to="#808080" begin="arrowDown.mouseover" end="arrowDown.mouseout"/>
                  </use>
                  <path fill="none" stroke="white" stroke-width="1.5" d="M0,-3.0v7 M-2.5,-0.5L0,-3.0L2.5,-0.5"/>
                </g>
                <g id="arrowLeft" xlink:href="#dirArrow" transform="rotate(270) translate(-36 17)" onmousedown="handlePan(-1,0)">
                  <use xlink:href="#rim" fill="#404040">
                        <set attributeName="fill" to="#808080" begin="arrowLeft.mouseover" end="arrowLeft.mouseout"/>
                  </use>
                  <path fill="none" stroke="white" stroke-width="1.5" d="M0,-3.0v7 M-2.5,-0.5L0,-3.0L2.5,-0.5"/>
                </g>
        </g>
        <svg viewBox="0 0 15 15" width="100%" height="30px" preserveAspectRatio="xMaxYMin meet">
         <g id="arrow_out" transform="scale(0.3 0.3)">
          <a xlink:href="class_h_y___catchment_aggregate__coll__graph_org.svg" target="_base">
           <rect id="button" ry="5" rx="5" y="6" x="6" height="38" width="38"
                fill="#f2f5e9" fill-opacity="0.5" stroke="#606060" stroke-width="1.0"/>
           <path id="arrow"
             d="M 11.500037,31.436501 C 11.940474,20.09759 22.043105,11.32322 32.158766,21.979434 L 37.068811,17.246167 C 37.068811,17.246167 37.088388,32 37.088388,32 L 22.160133,31.978069 C 22.160133,31.978069 26.997745,27.140456 26.997745,27.140456 C 18.528582,18.264221 13.291696,25.230495 11.500037,31.436501 z"
             style="fill:#404040;"/>
          </a>
         </g>
        </svg>
</svg>
