<?xml version="1.0" encoding="UTF-8" standalone="no"?>
<!DOCTYPE svg PUBLIC "-//W3C//DTD SVG 1.1//EN"
 "http://www.w3.org/Graphics/SVG/1.1/DTD/svg11.dtd">
<!-- Generated by graphviz version 2.49.3 (20211027.1534)
 -->
<!-- Title: tshirt::tshirt_model Pages: 1 -->
<!--zoomable 1188 -->
<svg id="main" version="1.1" xmlns="http://www.w3.org/2000/svg" xmlns:xlink="http://www.w3.org/1999/xlink" xml:space="preserve" onload="init(evt)">
<style type="text/css"><![CDATA[
.edge:hover path { stroke: red; }
.edge:hover polygon { stroke: red; fill: red; }
]]></style>
<script type="text/javascript"><![CDATA[
var edges = document.getElementsByTagName('g');
if (edges && edges.length) {
  for (var i=0;i<edges.length;i++) {
    if (edges[i].id.substr(0,4)=='edge') {
      edges[i].setAttribute('class','edge');
    }
  }
}
]]></script>
        <defs>
                <circle id="rim" cx="0" cy="0" r="7"/>
                <circle id="rim2" cx="0" cy="0" r="3.5"/>
                <g id="zoomPlus">
                        <use xlink:href="#rim" fill="#404040">
                                <set attributeName="fill" to="#808080" begin="zoomplus.mouseover" end="zoomplus.mouseout"/>
                        </use>
                        <path d="M-4,0h8M0,-4v8" fill="none" stroke="white" stroke-width="1.5" pointer-events="none"/>
                </g>
                <g id="zoomMin">
                        <use xlink:href="#rim" fill="#404040">
                                <set attributeName="fill" to="#808080" begin="zoomminus.mouseover" end="zoomminus.mouseout"/>
                        </use>
                        <path d="M-4,0h8" fill="none" stroke="white" stroke-width="1.5" pointer-events="none"/>
                </g>
                <g id="dirArrow">
                        <path fill="none" stroke="white" stroke-width="1.5" d="M0,-3.0v7 M-2.5,-0.5L0,-3.0L2.5,-0.5"/>
                </g>
               <g id="resetDef">
                       <use xlink:href="#rim2" fill="#404040">
                               <set attributeName="fill" to="#808080" begin="reset.mouseover" end="reset.mouseout"/>
                       </use>
               </g>
        </defs>

<script type="text/javascript">
var viewWidth = 509;
var viewHeight = 1188;
var sectionId = 'dynsection-0';
</script>
<script xlink:href="svgpan.js"/>
<svg id="graph" class="graph">
<g id="viewport">
<title>tshirt::tshirt_model</title>
<polygon fill="white" stroke="transparent" points="-4,4 -4,-1184 505,-1184 505,4 -4,4"/>
<!-- Node1 -->
<g id="node1" class="node">
<title>Node1</title>
<g id="a_node1"><a xlink:title="Tshirt model class.">
<polygon fill="#bfbfbf" stroke="black" points="45.5,-0.5 45.5,-365.5 190.5,-365.5 190.5,-0.5 45.5,-0.5"/>
<text text-anchor="middle" x="118" y="-353.5" font-family="Helvetica,sans-Serif" font-size="10.00">tshirt::tshirt_model</text>
<polyline fill="none" stroke="black" points="45.5,-346.5 190.5,-346.5 "/>
<text text-anchor="start" x="53.5" y="-334.5" font-family="Helvetica,sans-Serif" font-size="10.00">&#45; current_state</text>
<text text-anchor="start" x="53.5" y="-323.5" font-family="Helvetica,sans-Serif" font-size="10.00">&#45; previous_state</text>
<text text-anchor="start" x="53.5" y="-312.5" font-family="Helvetica,sans-Serif" font-size="10.00">&#45; soil_lf_nash_res</text>
<text text-anchor="start" x="53.5" y="-301.5" font-family="Helvetica,sans-Serif" font-size="10.00">&#45; lf_outlet_index</text>
<text text-anchor="start" x="53.5" y="-290.5" font-family="Helvetica,sans-Serif" font-size="10.00">&#45; perc_outlet_index</text>
<text text-anchor="start" x="53.5" y="-279.5" font-family="Helvetica,sans-Serif" font-size="10.00">&#45; fluxes</text>
<text text-anchor="start" x="53.5" y="-268.5" font-family="Helvetica,sans-Serif" font-size="10.00">&#45; mass_check_error_bound</text>
<text text-anchor="start" x="53.5" y="-257.5" font-family="Helvetica,sans-Serif" font-size="10.00">&#45; soil_field_capacity</text>
<text text-anchor="start" x="53.5" y="-246.5" font-family="Helvetica,sans-Serif" font-size="10.00">_storage_threshold</text>
<polyline fill="none" stroke="black" points="45.5,-239.5 190.5,-239.5 "/>
<text text-anchor="start" x="53.5" y="-227.5" font-family="Helvetica,sans-Serif" font-size="10.00">+ tshirt_model()</text>
<text text-anchor="start" x="53.5" y="-216.5" font-family="Helvetica,sans-Serif" font-size="10.00">+ tshirt_model()</text>
<text text-anchor="start" x="53.5" y="-205.5" font-family="Helvetica,sans-Serif" font-size="10.00">+ calc_evapotranspiration()</text>
<text text-anchor="start" x="53.5" y="-194.5" font-family="Helvetica,sans-Serif" font-size="10.00">+ calc_soil_field_capacity</text>
<text text-anchor="start" x="53.5" y="-183.5" font-family="Helvetica,sans-Serif" font-size="10.00">_storage_threshold()</text>
<text text-anchor="start" x="53.5" y="-172.5" font-family="Helvetica,sans-Serif" font-size="10.00">+ get_current_state()</text>
<text text-anchor="start" x="53.5" y="-161.5" font-family="Helvetica,sans-Serif" font-size="10.00">+ get_fluxes()</text>
<text text-anchor="start" x="53.5" y="-150.5" font-family="Helvetica,sans-Serif" font-size="10.00">+ get_mass_check_error</text>
<text text-anchor="start" x="53.5" y="-139.5" font-family="Helvetica,sans-Serif" font-size="10.00">_bound()</text>
<text text-anchor="start" x="53.5" y="-128.5" font-family="Helvetica,sans-Serif" font-size="10.00">+ mass_check()</text>
<text text-anchor="start" x="53.5" y="-117.5" font-family="Helvetica,sans-Serif" font-size="10.00">+ run()</text>
<text text-anchor="start" x="53.5" y="-106.5" font-family="Helvetica,sans-Serif" font-size="10.00"># manage_state_before</text>
<text text-anchor="start" x="53.5" y="-95.5" font-family="Helvetica,sans-Serif" font-size="10.00">_next_time_step_run()</text>
<text text-anchor="start" x="53.5" y="-84.5" font-family="Helvetica,sans-Serif" font-size="10.00"># set_mass_check_error</text>
<text text-anchor="start" x="53.5" y="-73.5" font-family="Helvetica,sans-Serif" font-size="10.00">_bound()</text>
<text text-anchor="start" x="53.5" y="-62.5" font-family="Helvetica,sans-Serif" font-size="10.00">&#45; check_valid()</text>
<text text-anchor="start" x="53.5" y="-51.5" font-family="Helvetica,sans-Serif" font-size="10.00">&#45; initialize_groundwater</text>
<text text-anchor="start" x="53.5" y="-40.5" font-family="Helvetica,sans-Serif" font-size="10.00">_reservoir()</text>
<text text-anchor="start" x="53.5" y="-29.5" font-family="Helvetica,sans-Serif" font-size="10.00">&#45; initialize_soil_reservoir()</text>
<text text-anchor="start" x="53.5" y="-18.5" font-family="Helvetica,sans-Serif" font-size="10.00">&#45; initialize_subsurface</text>
<text text-anchor="start" x="53.5" y="-7.5" font-family="Helvetica,sans-Serif" font-size="10.00">_lateral_flow_nash_cascade()</text>
</a>
</g>
</g>
<!-- Node2 -->
<g id="node2" class="node">
<title>Node2</title>
<g id="a_node2"><a xlink:href="structtshirt_1_1tshirt__params.html" target="_top" xlink:title="Structure for containing and organizing the parameters of the Tshirt hydrological model.">
<polygon fill="white" stroke="black" points="2.5,-424.5 2.5,-690.5 141.5,-690.5 141.5,-424.5 2.5,-424.5"/>
<text text-anchor="middle" x="72" y="-678.5" font-family="Helvetica,sans-Serif" font-size="10.00">tshirt::tshirt_params</text>
<polyline fill="none" stroke="black" points="2.5,-671.5 141.5,-671.5 "/>
<text text-anchor="start" x="10.5" y="-659.5" font-family="Helvetica,sans-Serif" font-size="10.00">+ maxsmc</text>
<text text-anchor="start" x="10.5" y="-648.5" font-family="Helvetica,sans-Serif" font-size="10.00">+ wltsmc</text>
<text text-anchor="start" x="10.5" y="-637.5" font-family="Helvetica,sans-Serif" font-size="10.00">+ satdk</text>
<text text-anchor="start" x="10.5" y="-626.5" font-family="Helvetica,sans-Serif" font-size="10.00">+ satpsi</text>
<text text-anchor="start" x="10.5" y="-615.5" font-family="Helvetica,sans-Serif" font-size="10.00">+ slope</text>
<text text-anchor="start" x="10.5" y="-604.5" font-family="Helvetica,sans-Serif" font-size="10.00">+ b</text>
<text text-anchor="start" x="10.5" y="-593.5" font-family="Helvetica,sans-Serif" font-size="10.00">+ multiplier</text>
<text text-anchor="start" x="10.5" y="-582.5" font-family="Helvetica,sans-Serif" font-size="10.00">+ alpha_fc</text>
<text text-anchor="start" x="10.5" y="-571.5" font-family="Helvetica,sans-Serif" font-size="10.00">+ Klf</text>
<text text-anchor="start" x="10.5" y="-560.5" font-family="Helvetica,sans-Serif" font-size="10.00">+ Kn</text>
<text text-anchor="start" x="10.5" y="-549.5" font-family="Helvetica,sans-Serif" font-size="10.00">+ nash_n</text>
<text text-anchor="start" x="10.5" y="-538.5" font-family="Helvetica,sans-Serif" font-size="10.00">+ Cgw</text>
<text text-anchor="start" x="10.5" y="-527.5" font-family="Helvetica,sans-Serif" font-size="10.00">+ Cschaake</text>
<text text-anchor="start" x="10.5" y="-516.5" font-family="Helvetica,sans-Serif" font-size="10.00">+ expon</text>
<text text-anchor="start" x="10.5" y="-505.5" font-family="Helvetica,sans-Serif" font-size="10.00">+ max_soil_storage_meters</text>
<text text-anchor="start" x="10.5" y="-494.5" font-family="Helvetica,sans-Serif" font-size="10.00">+ max_groundwater_storage</text>
<text text-anchor="start" x="10.5" y="-483.5" font-family="Helvetica,sans-Serif" font-size="10.00">_meters</text>
<text text-anchor="start" x="10.5" y="-472.5" font-family="Helvetica,sans-Serif" font-size="10.00">+ max_lateral_flow</text>
<text text-anchor="start" x="10.5" y="-461.5" font-family="Helvetica,sans-Serif" font-size="10.00">+ refkdt</text>
<text text-anchor="start" x="10.5" y="-450.5" font-family="Helvetica,sans-Serif" font-size="10.00">+ depth</text>
<polyline fill="none" stroke="black" points="2.5,-443.5 141.5,-443.5 "/>
<text text-anchor="start" x="10.5" y="-431.5" font-family="Helvetica,sans-Serif" font-size="10.00">+ tshirt_params()</text>
</a>
</g>
</g>
<!-- Node2&#45;&gt;Node1 -->
<g id="edge1" class="edge">
<title>Node2&#45;&gt;Node1</title>
<path fill="none" stroke="#404040" d="M88.32,-424.38C90.19,-409.21 92.13,-393.52 94.07,-377.75"/>
<polygon fill="none" stroke="#404040" points="94.09,-377.6 90.86,-371.15 95.56,-365.69 98.8,-372.13 94.09,-377.6"/>
<text text-anchor="middle" x="128" y="-392.5" font-family="Helvetica,sans-Serif" font-size="10.00"> &#45;model_params</text>
</g>
<!-- Node3 -->
<g id="node3" class="node">
<title>Node3</title>
<g id="a_node3"><a xlink:href="class_reservoir_1_1_explicit___time_1_1_reservoir.html" target="_top" xlink:title="Reservoir that has zero, one, or multiple outlets.">
<polygon fill="white" stroke="black" points="160,-441 160,-674 280,-674 280,-441 160,-441"/>
<text text-anchor="start" x="168" y="-662" font-family="Helvetica,sans-Serif" font-size="10.00">Reservoir::Explicit</text>
<text text-anchor="middle" x="220" y="-651" font-family="Helvetica,sans-Serif" font-size="10.00">_Time::Reservoir</text>
<polyline fill="none" stroke="black" points="160,-644 280,-644 "/>
<text text-anchor="middle" x="220" y="-632" font-family="Helvetica,sans-Serif" font-size="10.00"> </text>
<polyline fill="none" stroke="black" points="160,-625 280,-625 "/>
<text text-anchor="start" x="168" y="-613" font-family="Helvetica,sans-Serif" font-size="10.00">+ Reservoir()</text>
<text text-anchor="start" x="168" y="-602" font-family="Helvetica,sans-Serif" font-size="10.00">+ Reservoir()</text>
<text text-anchor="start" x="168" y="-591" font-family="Helvetica,sans-Serif" font-size="10.00">+ Reservoir()</text>
<text text-anchor="start" x="168" y="-580" font-family="Helvetica,sans-Serif" font-size="10.00">+ Reservoir()</text>
<text text-anchor="start" x="168" y="-569" font-family="Helvetica,sans-Serif" font-size="10.00">+ response_meters_per</text>
<text text-anchor="start" x="168" y="-558" font-family="Helvetica,sans-Serif" font-size="10.00">_second()</text>
<text text-anchor="start" x="168" y="-547" font-family="Helvetica,sans-Serif" font-size="10.00">+ add_outlet()</text>
<text text-anchor="start" x="168" y="-536" font-family="Helvetica,sans-Serif" font-size="10.00">+ add_outlet()</text>
<text text-anchor="start" x="168" y="-525" font-family="Helvetica,sans-Serif" font-size="10.00">+ add_outlet()</text>
<text text-anchor="start" x="168" y="-514" font-family="Helvetica,sans-Serif" font-size="10.00">+ sort_outlets()</text>
<text text-anchor="start" x="168" y="-503" font-family="Helvetica,sans-Serif" font-size="10.00">+ check_highest_outlet</text>
<text text-anchor="start" x="168" y="-492" font-family="Helvetica,sans-Serif" font-size="10.00">_against_max_storage()</text>
<text text-anchor="start" x="168" y="-481" font-family="Helvetica,sans-Serif" font-size="10.00">+ get_storage_height</text>
<text text-anchor="start" x="168" y="-470" font-family="Helvetica,sans-Serif" font-size="10.00">_meters()</text>
<text text-anchor="start" x="168" y="-459" font-family="Helvetica,sans-Serif" font-size="10.00">+ velocity_meters_per</text>
<text text-anchor="start" x="168" y="-448" font-family="Helvetica,sans-Serif" font-size="10.00">_second_for_outlet()</text>
</a>
</g>
</g>
<!-- Node3&#45;&gt;Node1 -->
<g id="edge2" class="edge">
<title>Node3&#45;&gt;Node1</title>
<path fill="none" stroke="#404040" d="M188.36,-440.94C182.8,-420.65 176.89,-399.06 170.94,-377.34"/>
<polygon fill="none" stroke="#404040" points="170.9,-377.19 165.46,-372.46 167.73,-365.62 173.18,-370.35 170.9,-377.19"/>
<text text-anchor="middle" x="230" y="-398" font-family="Helvetica,sans-Serif" font-size="10.00"> &#45;groundwater_reservoir</text>
<text text-anchor="middle" x="230" y="-387" font-family="Helvetica,sans-Serif" font-size="10.00">&#45;soil_reservoir</text>
</g>
<!-- Node4 -->
<g id="node4" class="node">
<title>Node4</title>
<g id="a_node4"><a xlink:href="structreservoir__parameters.html" target="_top" xlink:title=" ">
<polygon fill="white" stroke="black" points="0,-738.5 0,-806.5 140,-806.5 140,-738.5 0,-738.5"/>
<text text-anchor="middle" x="70" y="-794.5" font-family="Helvetica,sans-Serif" font-size="10.00">reservoir_parameters</text>
<polyline fill="none" stroke="black" points="0,-787.5 140,-787.5 "/>
<text text-anchor="start" x="8" y="-775.5" font-family="Helvetica,sans-Serif" font-size="10.00">+ minimum_storage_meters</text>
<text text-anchor="start" x="8" y="-764.5" font-family="Helvetica,sans-Serif" font-size="10.00">+ maximum_storage_meters</text>
<polyline fill="none" stroke="black" points="0,-757.5 140,-757.5 "/>
<text text-anchor="middle" x="70" y="-745.5" font-family="Helvetica,sans-Serif" font-size="10.00"> </text>
</a>
</g>
</g>
<!-- Node4&#45;&gt;Node3 -->
<g id="edge3" class="edge">
<title>Node4&#45;&gt;Node3</title>
<path fill="none" stroke="#404040" d="M107.47,-738.3C121.78,-724.52 137.63,-707.82 150,-691 151.6,-688.83 153.18,-686.62 154.75,-684.37"/>
<polygon fill="none" stroke="#404040" points="154.81,-684.28 154.84,-677.07 161.51,-674.32 161.48,-681.53 154.81,-684.28"/>
<text text-anchor="middle" x="162.5" y="-712" font-family="Helvetica,sans-Serif" font-size="10.00"> &#45;parameters</text>
</g>
<!-- Node5 -->
<g id="node5" class="node">
<title>Node5</title>
<g id="a_node5"><a xlink:href="structreservoir__state.html" target="_top" xlink:title=" ">
<polygon fill="white" stroke="black" points="158,-738.5 158,-806.5 282,-806.5 282,-738.5 158,-738.5"/>
<text text-anchor="middle" x="220" y="-794.5" font-family="Helvetica,sans-Serif" font-size="10.00">reservoir_state</text>
<polyline fill="none" stroke="black" points="158,-787.5 282,-787.5 "/>
<text text-anchor="start" x="166" y="-775.5" font-family="Helvetica,sans-Serif" font-size="10.00">+ current_storage_height</text>
<text text-anchor="start" x="166" y="-764.5" font-family="Helvetica,sans-Serif" font-size="10.00">_meters</text>
<polyline fill="none" stroke="black" points="158,-757.5 282,-757.5 "/>
<text text-anchor="middle" x="220" y="-745.5" font-family="Helvetica,sans-Serif" font-size="10.00"> </text>
</a>
</g>
</g>
<!-- Node5&#45;&gt;Node3 -->
<g id="edge4" class="edge">
<title>Node5&#45;&gt;Node3</title>
<path fill="none" stroke="#404040" d="M220,-738.22C220,-723.59 220,-705.38 220,-686.22"/>
<polygon fill="none" stroke="#404040" points="220,-686.19 216,-680.19 220,-674.19 224,-680.19 220,-686.19"/>
<text text-anchor="middle" x="234" y="-712" font-family="Helvetica,sans-Serif" font-size="10.00"> &#45;state</text>
</g>
<!-- Node6 -->
<g id="node6" class="node">
<title>Node6</title>
<g id="a_node6"><a xlink:title=" ">
<polygon fill="white" stroke="#bfbfbf" points="300.5,-738.5 300.5,-806.5 431.5,-806.5 431.5,-738.5 300.5,-738.5"/>
<text text-anchor="start" x="308.5" y="-794.5" font-family="Helvetica,sans-Serif" font-size="10.00">std::vector&lt; std::shared</text>
<text text-anchor="middle" x="366" y="-783.5" font-family="Helvetica,sans-Serif" font-size="10.00">_ptr&lt; Reservoir_Outlet &gt; &gt;</text>
<polyline fill="none" stroke="#bfbfbf" points="300.5,-776.5 431.5,-776.5 "/>
<text text-anchor="middle" x="366" y="-764.5" font-family="Helvetica,sans-Serif" font-size="10.00"> </text>
<polyline fill="none" stroke="#bfbfbf" points="300.5,-757.5 431.5,-757.5 "/>
<text text-anchor="middle" x="366" y="-745.5" font-family="Helvetica,sans-Serif" font-size="10.00"> </text>
</a>
</g>
</g>
<!-- Node6&#45;&gt;Node3 -->
<g id="edge5" class="edge">
<title>Node6&#45;&gt;Node3</title>
<path fill="none" stroke="#404040" d="M343.19,-738.22C327.98,-716.04 307.15,-685.65 286.94,-656.16"/>
<polygon fill="none" stroke="#404040" points="286.91,-656.11 280.21,-653.42 280.12,-646.21 286.81,-648.9 286.91,-656.11"/>
<text text-anchor="middle" x="344.5" y="-712" font-family="Helvetica,sans-Serif" font-size="10.00"> &#45;outlets</text>
</g>
<!-- Node7 -->
<g id="node7" class="node">
<title>Node7</title>
<g id="a_node7"><a xlink:title=" ">
<polygon fill="white" stroke="#bfbfbf" points="232,-854.5 232,-922.5 362,-922.5 362,-854.5 232,-854.5"/>
<text text-anchor="start" x="240" y="-910.5" font-family="Helvetica,sans-Serif" font-size="10.00">std::shared_ptr&lt; Reservoir</text>
<text text-anchor="middle" x="297" y="-899.5" font-family="Helvetica,sans-Serif" font-size="10.00">_Outlet &gt;</text>
<polyline fill="none" stroke="#bfbfbf" points="232,-892.5 362,-892.5 "/>
<text text-anchor="start" x="240" y="-880.5" font-family="Helvetica,sans-Serif" font-size="10.00">+ ptr</text>
<polyline fill="none" stroke="#bfbfbf" points="232,-873.5 362,-873.5 "/>
<text text-anchor="start" x="240" y="-861.5" font-family="Helvetica,sans-Serif" font-size="10.00">+ operator&#45;&gt;()</text>
</a>
</g>
</g>
<!-- Node7&#45;&gt;Node6 -->
<g id="edge6" class="edge">
<title>Node7&#45;&gt;Node6</title>
<path fill="none" stroke="#404040" d="M317.14,-854.22C324.16,-842.63 332.14,-829.45 339.58,-817.15"/>
<polygon fill="none" stroke="#404040" points="339.74,-816.89 339.42,-809.69 345.95,-806.62 346.27,-813.83 339.74,-816.89"/>
<text text-anchor="middle" x="358.5" y="-828" font-family="Helvetica,sans-Serif" font-size="10.00"> +elements</text>
</g>
<!-- Node8 -->
<g id="node8" class="node">
<title>Node8</title>
<g id="a_node8"><a xlink:title=" ">
<polygon fill="white" stroke="#bfbfbf" points="255.5,-1017.5 255.5,-1074.5 358.5,-1074.5 358.5,-1017.5 255.5,-1017.5"/>
<text text-anchor="middle" x="307" y="-1062.5" font-family="Helvetica,sans-Serif" font-size="10.00">std::shared_ptr&lt; T &gt;</text>
<polyline fill="none" stroke="#bfbfbf" points="255.5,-1055.5 358.5,-1055.5 "/>
<text text-anchor="middle" x="307" y="-1043.5" font-family="Helvetica,sans-Serif" font-size="10.00"> </text>
<polyline fill="none" stroke="#bfbfbf" points="255.5,-1036.5 358.5,-1036.5 "/>
<text text-anchor="start" x="263.5" y="-1024.5" font-family="Helvetica,sans-Serif" font-size="10.00">+ operator&#45;&gt;()</text>
</a>
</g>
</g>
<!-- Node8&#45;&gt;Node7 -->
<g id="edge7" class="edge">
<title>Node8&#45;&gt;Node7</title>
<path fill="none" stroke="orange" d="M277.9,-1008.4C276.36,-1005.33 275.02,-1002.18 274,-999 266.11,-974.46 268.63,-966.21 274,-941 275.31,-934.87 277.4,-928.59 279.8,-922.61"/>
<polygon fill="orange" stroke="orange" points="275.02,-1010.41 283.06,-1017.31 281.08,-1006.9 275.02,-1010.41"/>
<text text-anchor="middle" x="320" y="-967.5" font-family="Helvetica,sans-Serif" font-size="10.00"> &lt; Reservoir_Outlet &gt;</text>
</g>
<!-- Node9 -->
<g id="node9" class="node">
<title>Node9</title>
<g id="a_node9"><a xlink:title=" ">
<polygon fill="white" stroke="#bfbfbf" points="339.5,-1122.5 339.5,-1179.5 368.5,-1179.5 368.5,-1122.5 339.5,-1122.5"/>
<text text-anchor="middle" x="354" y="-1167.5" font-family="Helvetica,sans-Serif" font-size="10.00">T</text>
<polyline fill="none" stroke="#bfbfbf" points="339.5,-1160.5 368.5,-1160.5 "/>
<text text-anchor="middle" x="354" y="-1148.5" font-family="Helvetica,sans-Serif" font-size="10.00"> </text>
<polyline fill="none" stroke="#bfbfbf" points="339.5,-1141.5 368.5,-1141.5 "/>
<text text-anchor="middle" x="354" y="-1129.5" font-family="Helvetica,sans-Serif" font-size="10.00"> </text>
</a>
</g>
</g>
<!-- Node9&#45;&gt;Node8 -->
<g id="edge8" class="edge">
<title>Node9&#45;&gt;Node8</title>
<path fill="none" stroke="#404040" d="M341.4,-1122.4C336.29,-1111.2 330.3,-1098.06 324.76,-1085.92"/>
<polygon fill="none" stroke="#404040" points="324.61,-1085.6 318.48,-1081.8 319.63,-1074.68 325.76,-1078.48 324.61,-1085.6"/>
<text text-anchor="middle" x="342" y="-1096" font-family="Helvetica,sans-Serif" font-size="10.00"> +ptr</text>
</g>
<!-- Node10 -->
<g id="node10" class="node">
<title>Node10</title>
<g id="a_node10"><a xlink:title=" ">
<polygon fill="white" stroke="#bfbfbf" points="375,-941.5 375,-998.5 459,-998.5 459,-941.5 375,-941.5"/>
<text text-anchor="middle" x="417" y="-986.5" font-family="Helvetica,sans-Serif" font-size="10.00">std::vector&lt; T &gt;</text>
<polyline fill="none" stroke="#bfbfbf" points="375,-979.5 459,-979.5 "/>
<text text-anchor="middle" x="417" y="-967.5" font-family="Helvetica,sans-Serif" font-size="10.00"> </text>
<polyline fill="none" stroke="#bfbfbf" points="375,-960.5 459,-960.5 "/>
<text text-anchor="middle" x="417" y="-948.5" font-family="Helvetica,sans-Serif" font-size="10.00"> </text>
</a>
</g>
</g>
<!-- Node9&#45;&gt;Node10 -->
<g id="edge10" class="edge">
<title>Node9&#45;&gt;Node10</title>
<path fill="none" stroke="#404040" d="M363.71,-1122.42C374.3,-1092.33 391.33,-1043.93 403.29,-1009.97"/>
<polygon fill="none" stroke="#404040" points="403.3,-1009.93 401.52,-1002.94 407.28,-998.61 409.06,-1005.6 403.3,-1009.93"/>
<text text-anchor="middle" x="397.5" y="-1096" font-family="Helvetica,sans-Serif" font-size="10.00"> +elements</text>
</g>
<!-- Node10&#45;&gt;Node6 -->
<g id="edge9" class="edge">
<title>Node10&#45;&gt;Node6</title>
<path fill="none" stroke="orange" d="M411.04,-931.07C405.97,-901.75 397.79,-860.35 387,-825 385.17,-819 382.91,-812.72 380.57,-806.7"/>
<polygon fill="orange" stroke="orange" points="407.65,-932.01 412.77,-941.29 414.55,-930.84 407.65,-932.01"/>
<text text-anchor="start" x="409" y="-891.5" font-family="Helvetica,sans-Serif" font-size="10.00"> &lt; std::shared_ptr&lt;</text>
<text text-anchor="middle" x="455" y="-880.5" font-family="Helvetica,sans-Serif" font-size="10.00"> Reservoir_Outlet &gt; &gt;</text>
</g>
</g>
</svg>
        <g id="navigator" transform="translate(0 0)" fill="#404254">
                <rect fill="#f2f5e9" fill-opacity="0.5" stroke="#606060" stroke-width=".5" x="0" y="0" width="60" height="60"/>
                <use id="zoomplus" xlink:href="#zoomPlus" x="17" y="9" onmousedown="handleZoom(evt,'in')"/>
                <use id="zoomminus" xlink:href="#zoomMin" x="42" y="9" onmousedown="handleZoom(evt,'out')"/>
                <use id="reset" xlink:href="#resetDef" x="30" y="36" onmousedown="handleReset()"/>
                <g id="arrowUp" xlink:href="#dirArrow" transform="translate(30 24)" onmousedown="handlePan(0,-1)">
                  <use xlink:href="#rim" fill="#404040">
                        <set attributeName="fill" to="#808080" begin="arrowUp.mouseover" end="arrowUp.mouseout"/>
                  </use>
                  <path fill="none" stroke="white" stroke-width="1.5" d="M0,-3.0v7 M-2.5,-0.5L0,-3.0L2.5,-0.5"/>
                </g>
                <g id="arrowRight" xlink:href="#dirArrow" transform="rotate(90) translate(36 -43)" onmousedown="handlePan(1,0)">
                  <use xlink:href="#rim" fill="#404040">
                        <set attributeName="fill" to="#808080" begin="arrowRight.mouseover" end="arrowRight.mouseout"/>
                  </use>
                  <path fill="none" stroke="white" stroke-width="1.5" d="M0,-3.0v7 M-2.5,-0.5L0,-3.0L2.5,-0.5"/>
                </g>
                <g id="arrowDown" xlink:href="#dirArrow" transform="rotate(180) translate(-30 -48)" onmousedown="handlePan(0,1)">
                  <use xlink:href="#rim" fill="#404040">
                        <set attributeName="fill" to="#808080" begin="arrowDown.mouseover" end="arrowDown.mouseout"/>
                  </use>
                  <path fill="none" stroke="white" stroke-width="1.5" d="M0,-3.0v7 M-2.5,-0.5L0,-3.0L2.5,-0.5"/>
                </g>
                <g id="arrowLeft" xlink:href="#dirArrow" transform="rotate(270) translate(-36 17)" onmousedown="handlePan(-1,0)">
                  <use xlink:href="#rim" fill="#404040">
                        <set attributeName="fill" to="#808080" begin="arrowLeft.mouseover" end="arrowLeft.mouseout"/>
                  </use>
                  <path fill="none" stroke="white" stroke-width="1.5" d="M0,-3.0v7 M-2.5,-0.5L0,-3.0L2.5,-0.5"/>
                </g>
        </g>
        <svg viewBox="0 0 15 15" width="100%" height="30px" preserveAspectRatio="xMaxYMin meet">
         <g id="arrow_out" transform="scale(0.3 0.3)">
          <a xlink:href="classtshirt_1_1tshirt__model__coll__graph_org.svg" target="_base">
           <rect id="button" ry="5" rx="5" y="6" x="6" height="38" width="38"
                fill="#f2f5e9" fill-opacity="0.5" stroke="#606060" stroke-width="1.0"/>
           <path id="arrow"
             d="M 11.500037,31.436501 C 11.940474,20.09759 22.043105,11.32322 32.158766,21.979434 L 37.068811,17.246167 C 37.068811,17.246167 37.088388,32 37.088388,32 L 22.160133,31.978069 C 22.160133,31.978069 26.997745,27.140456 26.997745,27.140456 C 18.528582,18.264221 13.291696,25.230495 11.500037,31.436501 z"
             style="fill:#404040;"/>
          </a>
         </g>
        </svg>
</svg>
