<?xml version="1.0" encoding="UTF-8" standalone="no"?>
<!DOCTYPE svg PUBLIC "-//W3C//DTD SVG 1.1//EN"
 "http://www.w3.org/Graphics/SVG/1.1/DTD/svg11.dtd">
<!-- Generated by graphviz version 12.2.0 (20241103.1931)
 -->
<!-- Title: utils::StreamHandler Pages: 1 -->
<!--zoomable 709 -->

<svg id="main" version="1.1" xmlns="http://www.w3.org/2000/svg" xmlns:xlink="http://www.w3.org/1999/xlink" xml:space="preserve" onload="init(evt)">

<style type="text/css"><![CDATA[
.node, .edge {opacity: 0.7;}
.node.selected, .edge.selected {opacity: 1;}
.edge:hover path { stroke: red; }
.edge:hover polygon { stroke: red; fill: red; }
]]></style>

<defs>
  <circle id="rim" cx="0" cy="0" r="7"/>
  <circle id="rim2" cx="0" cy="0" r="3.5"/>
  <g id="zoomPlus">
    <use xlink:href="#rim" fill="#404040"><set attributeName="fill" to="#808080" begin="zoomplus.mouseover" end="zoomplus.mouseout"/></use>
    <path d="M-4,0h8M0,-4v8" fill="none" stroke="white" stroke-width="1.5" pointer-events="none"/>
  </g>
  <g id="zoomMin">
    <use xlink:href="#rim" fill="#404040"><set attributeName="fill" to="#808080" begin="zoomminus.mouseover" end="zoomminus.mouseout"/></use>
    <path d="M-4,0h8" fill="none" stroke="white" stroke-width="1.5" pointer-events="none"/>
  </g>
  <g id="arrowUp" transform="translate(30 24)">
    <use xlink:href="#rim"/>
    <path pointer-events="none" fill="none" stroke="white" stroke-width="1.5" d="M0,-3.0v7 M-2.5,-0.5L0,-3.0L2.5,-0.5"/>
  </g>
  <g id="arrowRight" transform="rotate(90) translate(36 -43)">
    <use xlink:href="#rim"/>
    <path pointer-events="none" fill="none" stroke="white" stroke-width="1.5" d="M0,-3.0v7 M-2.5,-0.5L0,-3.0L2.5,-0.5"/>
  </g>
  <g id="arrowDown" transform="rotate(180) translate(-30 -48)">
    <use xlink:href="#rim"/>
    <path pointer-events="none" fill="none" stroke="white" stroke-width="1.5" d="M0,-3.0v7 M-2.5,-0.5L0,-3.0L2.5,-0.5"/>
  </g>
  <g id="arrowLeft" transform="rotate(270) translate(-36 17)">
    <use xlink:href="#rim"/>
    <path pointer-events="none" fill="none" stroke="white" stroke-width="1.5" d="M0,-3.0v7 M-2.5,-0.5L0,-3.0L2.5,-0.5"/>
  </g>
  <g id="resetDef">
    <use xlink:href="#rim2" fill="#404040"><set attributeName="fill" to="#808080" begin="reset.mouseover" end="reset.mouseout"/></use>
  </g>
</defs>
<script type="application/ecmascript">
var viewWidth = 305;
var viewHeight = 709;
var sectionId = 'dynsection-1';
</script>
<script type="application/ecmascript" xlink:href="svg.min.js"/>
<svg id="graph" class="graph">
<g id="viewport">
<title>utils::StreamHandler</title>
<!-- Node1 -->
<g id="Node000001" class="node">
<title>Node1</title>
<g id="a_Node000001"><a xlink:title="This class provides a copyable interface to a std::ostream or std::ostream like object that may not s...">
<polygon fill="#999999" stroke="none" points="243.88,-202.25 148.12,-202.25 148.12,0 243.88,0 243.88,-202.25"/>
<text text-anchor="start" x="152.12" y="-188.75" font-family="Helvetica,sans-Serif" font-size="10.00">utils::StreamHandler</text>
<text text-anchor="start" x="194.5" y="-173.5" font-family="Helvetica,sans-Serif" font-size="10.00"> </text>
<text text-anchor="start" x="152.44" y="-158.25" font-family="Helvetica,sans-Serif" font-size="10.00">+</text>
<text text-anchor="start" x="162.75" y="-158.25" font-family="Helvetica,sans-Serif" font-size="10.00">StreamHandler()</text>
<text text-anchor="start" x="152.44" y="-143" font-family="Helvetica,sans-Serif" font-size="10.00">+</text>
<text text-anchor="start" x="162.75" y="-143" font-family="Helvetica,sans-Serif" font-size="10.00">StreamHandler()</text>
<text text-anchor="start" x="152.44" y="-127.75" font-family="Helvetica,sans-Serif" font-size="10.00">+</text>
<text text-anchor="start" x="162.75" y="-127.75" font-family="Helvetica,sans-Serif" font-size="10.00">StreamHandler()</text>
<text text-anchor="start" x="152.44" y="-112.5" font-family="Helvetica,sans-Serif" font-size="10.00">+</text>
<text text-anchor="start" x="162.75" y="-112.5" font-family="Helvetica,sans-Serif" font-size="10.00">StreamHandler()</text>
<text text-anchor="start" x="152.44" y="-97.25" font-family="Helvetica,sans-Serif" font-size="10.00">+</text>
<text text-anchor="start" x="162.75" y="-97.25" font-family="Helvetica,sans-Serif" font-size="10.00">~StreamHandler()</text>
<text text-anchor="start" x="152.44" y="-82" font-family="Helvetica,sans-Serif" font-size="10.00">+</text>
<text text-anchor="start" x="162.75" y="-82" font-family="Helvetica,sans-Serif" font-size="10.00">operator=()</text>
<text text-anchor="start" x="152.44" y="-66.75" font-family="Helvetica,sans-Serif" font-size="10.00">+</text>
<text text-anchor="start" x="162.75" y="-66.75" font-family="Helvetica,sans-Serif" font-size="10.00">put()</text>
<text text-anchor="start" x="152.44" y="-51.5" font-family="Helvetica,sans-Serif" font-size="10.00">+</text>
<text text-anchor="start" x="162.75" y="-51.5" font-family="Helvetica,sans-Serif" font-size="10.00">put_indexed()</text>
<text text-anchor="start" x="152.44" y="-36.25" font-family="Helvetica,sans-Serif" font-size="10.00">+</text>
<text text-anchor="start" x="162.75" y="-36.25" font-family="Helvetica,sans-Serif" font-size="10.00">put_var()</text>
<text text-anchor="start" x="152.44" y="-21" font-family="Helvetica,sans-Serif" font-size="10.00">+</text>
<text text-anchor="start" x="162.75" y="-21" font-family="Helvetica,sans-Serif" font-size="10.00">operator&lt;&lt;()</text>
<text text-anchor="start" x="152.44" y="-5.75" font-family="Helvetica,sans-Serif" font-size="10.00">+</text>
<text text-anchor="start" x="162.75" y="-5.75" font-family="Helvetica,sans-Serif" font-size="10.00">getNullStream()</text>
<polygon fill="#666666" stroke="#666666" points="148.12,-185 148.12,-185 243.88,-185 243.88,-185 148.12,-185"/>
<polygon fill="#666666" stroke="#666666" points="148.12,-169.75 148.12,-169.75 243.88,-169.75 243.88,-169.75 148.12,-169.75"/>
<polygon fill="none" stroke="#666666" points="148.12,0 148.12,-202.25 243.88,-202.25 243.88,0 148.12,0"/>
</a>
</g>
</g>
<!-- Node2 -->
<g id="Node000002" class="node">
<title>Node2</title>
<g id="a_Node000002"><a xlink:title=" ">
<polygon fill="white" stroke="none" points="194.75,-310.5 101.25,-310.5 101.25,-249.5 194.75,-249.5 194.75,-310.5"/>
<text text-anchor="start" x="105.25" y="-297" font-family="Helvetica,sans-Serif" font-size="10.00">std::shared_ptr&lt; std</text>
<text text-anchor="start" x="124" y="-285.75" font-family="Helvetica,sans-Serif" font-size="10.00">::ostream &gt;</text>
<text text-anchor="start" x="146.5" y="-270.5" font-family="Helvetica,sans-Serif" font-size="10.00"> </text>
<text text-anchor="start" x="111.56" y="-255.25" font-family="Helvetica,sans-Serif" font-size="10.00">+</text>
<text text-anchor="start" x="127.88" y="-255.25" font-family="Helvetica,sans-Serif" font-size="10.00">operator&#45;&gt;()</text>
<polygon fill="#666666" stroke="#666666" points="101.25,-282 101.25,-282 194.75,-282 194.75,-282 101.25,-282"/>
<polygon fill="#666666" stroke="#666666" points="101.25,-266.75 101.25,-266.75 194.75,-266.75 194.75,-266.75 101.25,-266.75"/>
<polygon fill="none" stroke="#666666" points="101.25,-249.5 101.25,-310.5 194.75,-310.5 194.75,-249.5 101.25,-249.5"/>
</a>
</g>
</g>
<!-- Node2&#45;&gt;Node1 -->
<g id="edge1_Node000001_Node000002" class="edge">
<title>Node2&#45;&gt;Node1</title>
<g id="a_edge1_Node000001_Node000002"><a xlink:title=" ">
<path fill="none" stroke="#63b8ff" d="M149.75,-249.79C150.68,-240.29 152.1,-229.75 154.25,-220.25 154.67,-218.39 155.11,-216.53 155.57,-214.65"/>
<polygon fill="none" stroke="#63b8ff" points="155.57,-214.66 153.22,-207.85 158.61,-203.06 160.96,-209.88 155.57,-214.66"/>
</a>
</g>
<text text-anchor="middle" x="189.12" y="-222" font-family="Helvetica,sans-Serif" font-size="10.00" fill="grey"> #output_stream</text>
</g>
<!-- Node3 -->
<g id="Node000003" class="node">
<title>Node3</title>
<g id="a_Node000003"><a xlink:title=" ">
<polygon fill="white" stroke="none" points="82.62,-413.12 21.38,-413.12 21.38,-363.38 82.62,-363.38 82.62,-413.12"/>
<text text-anchor="start" x="25.38" y="-399.62" font-family="Helvetica,sans-Serif" font-size="10.00">std::ostream</text>
<text text-anchor="start" x="50.5" y="-384.38" font-family="Helvetica,sans-Serif" font-size="10.00"> </text>
<text text-anchor="start" x="50.5" y="-369.12" font-family="Helvetica,sans-Serif" font-size="10.00"> </text>
<polygon fill="#666666" stroke="#666666" points="21.38,-395.88 21.38,-395.88 82.62,-395.88 82.62,-395.88 21.38,-395.88"/>
<polygon fill="#666666" stroke="#666666" points="21.38,-380.62 21.38,-380.62 82.62,-380.62 82.62,-380.62 21.38,-380.62"/>
<polygon fill="none" stroke="#666666" points="21.38,-363.38 21.38,-413.12 82.62,-413.12 82.62,-363.38 21.38,-363.38"/>
</a>
</g>
</g>
<!-- Node3&#45;&gt;Node2 -->
<g id="edge2_Node000002_Node000003" class="edge">
<title>Node3&#45;&gt;Node2</title>
<g id="a_edge2_Node000002_Node000003"><a xlink:title=" ">
<path fill="none" stroke="#63b8ff" d="M73.54,-363.41C85.15,-350.56 99.76,-334.39 112.96,-319.78"/>
<polygon fill="none" stroke="#63b8ff" points="112.74,-320.03 113.79,-312.89 120.78,-311.12 119.73,-318.26 112.74,-320.03"/>
</a>
</g>
<text text-anchor="middle" x="112.63" y="-330.25" font-family="Helvetica,sans-Serif" font-size="10.00" fill="grey"> +ptr</text>
</g>
<!-- Node4 -->
<g id="Node000004" class="node">
<title>Node4</title>
<g id="a_Node000004"><a xlink:title=" ">
<polygon fill="white" stroke="none" points="96.88,-527 7.12,-527 7.12,-466 96.88,-466 96.88,-527"/>
<text text-anchor="start" x="11.12" y="-513.5" font-family="Helvetica,sans-Serif" font-size="10.00">std::basic_ostream</text>
<text text-anchor="start" x="33.62" y="-502.25" font-family="Helvetica,sans-Serif" font-size="10.00">&lt; Char &gt;</text>
<text text-anchor="start" x="50.5" y="-487" font-family="Helvetica,sans-Serif" font-size="10.00"> </text>
<text text-anchor="start" x="50.5" y="-471.75" font-family="Helvetica,sans-Serif" font-size="10.00"> </text>
<polygon fill="#666666" stroke="#666666" points="7.12,-498.5 7.12,-498.5 96.88,-498.5 96.88,-498.5 7.12,-498.5"/>
<polygon fill="#666666" stroke="#666666" points="7.12,-483.25 7.12,-483.25 96.88,-483.25 96.88,-483.25 7.12,-483.25"/>
<polygon fill="none" stroke="#666666" points="7.12,-466 7.12,-527 96.88,-527 96.88,-466 7.12,-466"/>
</a>
</g>
</g>
<!-- Node4&#45;&gt;Node3 -->
<g id="edge3_Node000003_Node000004" class="edge">
<title>Node4&#45;&gt;Node3</title>
<g id="a_edge3_Node000003_Node000004"><a xlink:title=" ">
<path fill="none" stroke="#63b8ff" d="M52,-454.75C52,-440.67 52,-425.37 52,-413.1"/>
<polygon fill="none" stroke="#63b8ff" points="48.5,-454.67 52,-464.67 55.5,-454.67 48.5,-454.67"/>
</a>
</g>
</g>
<!-- Node5 -->
<g id="Node000005" class="node">
<title>Node5</title>
<g id="a_Node000005"><a xlink:title=" ">
<polygon fill="white" stroke="none" points="104,-613.75 0,-613.75 0,-564 104,-564 104,-613.75"/>
<text text-anchor="start" x="4" y="-600.25" font-family="Helvetica,sans-Serif" font-size="10.00">std::basic_ios&lt; Char &gt;</text>
<text text-anchor="start" x="50.5" y="-585" font-family="Helvetica,sans-Serif" font-size="10.00"> </text>
<text text-anchor="start" x="50.5" y="-569.75" font-family="Helvetica,sans-Serif" font-size="10.00"> </text>
<polygon fill="#666666" stroke="#666666" points="0,-596.5 0,-596.5 104,-596.5 104,-596.5 0,-596.5"/>
<polygon fill="#666666" stroke="#666666" points="0,-581.25 0,-581.25 104,-581.25 104,-581.25 0,-581.25"/>
<polygon fill="none" stroke="#666666" points="0,-564 0,-613.75 104,-613.75 104,-564 0,-564"/>
</a>
</g>
</g>
<!-- Node5&#45;&gt;Node4 -->
<g id="edge4_Node000004_Node000005" class="edge">
<title>Node5&#45;&gt;Node4</title>
<g id="a_edge4_Node000004_Node000005"><a xlink:title=" ">
<path fill="none" stroke="#63b8ff" d="M52,-552.87C52,-544.29 52,-535.19 52,-526.9"/>
<polygon fill="none" stroke="#63b8ff" points="48.5,-552.62 52,-562.62 55.5,-552.62 48.5,-552.62"/>
</a>
</g>
</g>
<!-- Node6 -->
<g id="Node000006" class="node">
<title>Node6</title>
<g id="a_Node000006"><a xlink:title=" ">
<polygon fill="white" stroke="none" points="84.5,-700.5 19.5,-700.5 19.5,-650.75 84.5,-650.75 84.5,-700.5"/>
<text text-anchor="start" x="23.5" y="-687" font-family="Helvetica,sans-Serif" font-size="10.00">std::ios_base</text>
<text text-anchor="start" x="50.5" y="-671.75" font-family="Helvetica,sans-Serif" font-size="10.00"> </text>
<text text-anchor="start" x="50.5" y="-656.5" font-family="Helvetica,sans-Serif" font-size="10.00"> </text>
<polygon fill="#666666" stroke="#666666" points="19.5,-683.25 19.5,-683.25 84.5,-683.25 84.5,-683.25 19.5,-683.25"/>
<polygon fill="#666666" stroke="#666666" points="19.5,-668 19.5,-668 84.5,-668 84.5,-668 19.5,-668"/>
<polygon fill="none" stroke="#666666" points="19.5,-650.75 19.5,-700.5 84.5,-700.5 84.5,-650.75 19.5,-650.75"/>
</a>
</g>
</g>
<!-- Node6&#45;&gt;Node5 -->
<g id="edge5_Node000005_Node000006" class="edge">
<title>Node6&#45;&gt;Node5</title>
<g id="a_edge5_Node000005_Node000006"><a xlink:title=" ">
<path fill="none" stroke="#63b8ff" d="M52,-639.54C52,-630.82 52,-621.68 52,-613.65"/>
<polygon fill="none" stroke="#63b8ff" points="48.5,-639.5 52,-649.5 55.5,-639.5 48.5,-639.5"/>
</a>
</g>
</g>
<!-- Node7 -->
<g id="Node000007" class="node">
<title>Node7</title>
<g id="a_Node000007"><a xlink:title=" ">
<polygon fill="white" stroke="none" points="195.12,-413.12 100.88,-413.12 100.88,-363.38 195.12,-363.38 195.12,-413.12"/>
<text text-anchor="start" x="104.88" y="-399.62" font-family="Helvetica,sans-Serif" font-size="10.00">std::shared_ptr&lt; T &gt;</text>
<text text-anchor="start" x="146.5" y="-384.38" font-family="Helvetica,sans-Serif" font-size="10.00"> </text>
<text text-anchor="start" x="111.38" y="-369.12" font-family="Helvetica,sans-Serif" font-size="10.00">+</text>
<text text-anchor="start" x="127.88" y="-369.12" font-family="Helvetica,sans-Serif" font-size="10.00">operator&#45;&gt;()</text>
<polygon fill="#666666" stroke="#666666" points="100.88,-395.88 100.88,-395.88 195.12,-395.88 195.12,-395.88 100.88,-395.88"/>
<polygon fill="#666666" stroke="#666666" points="100.88,-380.62 100.88,-380.62 195.12,-380.62 195.12,-380.62 100.88,-380.62"/>
<polygon fill="none" stroke="#666666" points="100.88,-363.38 100.88,-413.12 195.12,-413.12 195.12,-363.38 100.88,-363.38"/>
</a>
</g>
</g>
<!-- Node7&#45;&gt;Node2 -->
<g id="edge6_Node000002_Node000007" class="edge">
<title>Node7&#45;&gt;Node2</title>
<g id="a_edge6_Node000002_Node000007"><a xlink:title=" ">
<path fill="none" stroke="orange" d="M148,-352.1C148,-338.61 148,-323.36 148,-310.46"/>
<polygon fill="orange" stroke="orange" points="144.5,-351.89 148,-361.89 151.5,-351.89 144.5,-351.89"/>
</a>
</g>
<text text-anchor="middle" x="184" y="-330.25" font-family="Helvetica,sans-Serif" font-size="10.00" fill="grey"> &lt; std::ostream &gt;</text>
</g>
<!-- Node8 -->
<g id="Node000008" class="node">
<title>Node8</title>
<g id="a_Node000008"><a xlink:title=" ">
<polygon fill="white" stroke="none" points="155,-521.38 141,-521.38 141,-471.62 155,-471.62 155,-521.38"/>
<text text-anchor="start" x="145" y="-507.88" font-family="Helvetica,sans-Serif" font-size="10.00">T</text>
<text text-anchor="start" x="146.5" y="-492.62" font-family="Helvetica,sans-Serif" font-size="10.00"> </text>
<text text-anchor="start" x="146.5" y="-477.38" font-family="Helvetica,sans-Serif" font-size="10.00"> </text>
<polygon fill="#666666" stroke="#666666" points="141,-504.12 141,-504.12 155,-504.12 155,-504.12 141,-504.12"/>
<polygon fill="#666666" stroke="#666666" points="141,-488.88 141,-488.88 155,-488.88 155,-488.88 141,-488.88"/>
<polygon fill="none" stroke="#666666" points="141,-471.62 141,-521.38 155,-521.38 155,-471.62 141,-471.62"/>
</a>
</g>
</g>
<!-- Node8&#45;&gt;Node7 -->
<g id="edge7_Node000007_Node000008" class="edge">
<title>Node8&#45;&gt;Node7</title>
<g id="a_edge7_Node000007_Node000008"><a xlink:title=" ">
<path fill="none" stroke="#63b8ff" d="M148,-471.66C148,-458.12 148,-440.9 148,-425.7"/>
<polygon fill="none" stroke="#63b8ff" points="148,-425.92 144,-419.92 148,-413.92 152,-419.92 148,-425.92"/>
</a>
</g>
<text text-anchor="middle" x="157.75" y="-438.5" font-family="Helvetica,sans-Serif" font-size="10.00" fill="grey"> +ptr</text>
</g>
<!-- Node9 -->
<g id="Node000009" class="node">
<title>Node9</title>
<g id="a_Node000009"><a xlink:title=" ">
<polygon fill="white" stroke="none" points="273,-304.88 223,-304.88 223,-255.12 273,-255.12 273,-304.88"/>
<text text-anchor="start" x="227" y="-291.38" font-family="Helvetica,sans-Serif" font-size="10.00">std::string</text>
<text text-anchor="start" x="246.5" y="-276.12" font-family="Helvetica,sans-Serif" font-size="10.00"> </text>
<text text-anchor="start" x="246.5" y="-260.88" font-family="Helvetica,sans-Serif" font-size="10.00"> </text>
<polygon fill="#666666" stroke="#666666" points="223,-287.62 223,-287.62 273,-287.62 273,-287.62 223,-287.62"/>
<polygon fill="#666666" stroke="#666666" points="223,-272.38 223,-272.38 273,-272.38 273,-272.38 223,-272.38"/>
<polygon fill="none" stroke="#666666" points="223,-255.12 223,-304.88 273,-304.88 273,-255.12 223,-255.12"/>
</a>
</g>
</g>
<!-- Node9&#45;&gt;Node1 -->
<g id="edge8_Node000001_Node000009" class="edge">
<title>Node9&#45;&gt;Node1</title>
<g id="a_edge8_Node000001_Node000009"><a xlink:title=" ">
<path fill="none" stroke="#63b8ff" d="M240.99,-255.15C237.71,-243.99 233.54,-229.81 229.07,-214.6"/>
<polygon fill="none" stroke="#63b8ff" points="229.07,-214.61 223.54,-209.98 225.68,-203.09 231.21,-207.72 229.07,-214.61"/>
</a>
</g>
<text text-anchor="middle" x="244.26" y="-222" font-family="Helvetica,sans-Serif" font-size="10.00" fill="grey"> #sep</text>
</g>
<!-- Node10 -->
<g id="Node000010" class="node">
<title>Node10</title>
<g id="a_Node000010"><a xlink:title=" ">
<polygon fill="white" stroke="none" points="297.25,-418.75 212.75,-418.75 212.75,-357.75 297.25,-357.75 297.25,-418.75"/>
<text text-anchor="start" x="216.75" y="-405.25" font-family="Helvetica,sans-Serif" font-size="10.00">std::basic_string&lt;</text>
<text text-anchor="start" x="239.62" y="-394" font-family="Helvetica,sans-Serif" font-size="10.00"> Char &gt;</text>
<text text-anchor="start" x="253.5" y="-378.75" font-family="Helvetica,sans-Serif" font-size="10.00"> </text>
<text text-anchor="start" x="253.5" y="-363.5" font-family="Helvetica,sans-Serif" font-size="10.00"> </text>
<polygon fill="#666666" stroke="#666666" points="212.75,-390.25 212.75,-390.25 297.25,-390.25 297.25,-390.25 212.75,-390.25"/>
<polygon fill="#666666" stroke="#666666" points="212.75,-375 212.75,-375 297.25,-375 297.25,-375 212.75,-375"/>
<polygon fill="none" stroke="#666666" points="212.75,-357.75 212.75,-418.75 297.25,-418.75 297.25,-357.75 212.75,-357.75"/>
</a>
</g>
</g>
<!-- Node10&#45;&gt;Node9 -->
<g id="edge9_Node000009_Node000010" class="edge">
<title>Node10&#45;&gt;Node9</title>
<g id="a_edge9_Node000009_Node000010"><a xlink:title=" ">
<path fill="none" stroke="#63b8ff" d="M252.32,-346.5C251.39,-332.42 250.38,-317.12 249.57,-304.85"/>
<polygon fill="none" stroke="#63b8ff" points="248.82,-346.68 252.97,-356.43 255.8,-346.22 248.82,-346.68"/>
</a>
</g>
</g>
</g>
</svg>

<g id="navigator" transform="translate(0 0)" fill="#404254">
  <rect fill="#f2f5e9" fill-opacity="0.5" stroke="#606060" stroke-width=".5" x="0" y="0" width="60" height="60"/>
  <use id="zoomplus" xlink:href="#zoomPlus" x="17" y="9" onmousedown="handleZoom(evt,'in')"/>
  <use id="zoomminus" xlink:href="#zoomMin" x="42" y="9" onmousedown="handleZoom(evt,'out')"/>
  <use id="reset" xlink:href="#resetDef" x="30" y="36" onmousedown="handleReset()"/>
   <use id="arrowup" xlink:href="#arrowUp" x="0" y="0" onmousedown="handlePan(0,-1)"/>
  <use id="arrowright" xlink:href="#arrowRight" x="0" y="0" onmousedown="handlePan(1,0)"/>
  <use id="arrowdown" xlink:href="#arrowDown" x="0" y="0" onmousedown="handlePan(0,1)"/>
  <use id="arrowleft" xlink:href="#arrowLeft" x="0" y="0" onmousedown="handlePan(-1,0)"/>
</g>
<svg viewBox="0 0 15 15" width="100%" height="30px" preserveAspectRatio="xMaxYMin meet">
 <g id="arrow_out" transform="scale(0.3 0.3)">
  <a xlink:href="classutils_1_1_stream_handler__coll__graph_org.svg" target="_base">
   <rect id="button" ry="5" rx="5" y="6" x="6" height="38" width="38"
        fill="#f2f5e9" fill-opacity="0.5" stroke="#606060" stroke-width="1.0"/>
   <path id="arrow"
     d="M 11.500037,31.436501 C 11.940474,20.09759 22.043105,11.32322 32.158766,21.979434 L 37.068811,17.246167 C 37.068811,17.246167 37.088388,32 37.088388,32 L 22.160133,31.978069 C 22.160133,31.978069 26.997745,27.140456 26.997745,27.140456 C 18.528582,18.264221 13.291696,25.230495 11.500037,31.436501 z"
     style="fill:#404040;"/>
  </a>
 </g>
</svg>

<style type='text/css'>
<![CDATA[
[data-mouse-over-selected='false'] { opacity: 0.7; }
[data-mouse-over-selected='true']  { opacity: 1.0; }
]]>
</style>
<script type="application/ecmascript"><![CDATA[
document.addEventListener('DOMContentLoaded', (event) => {
  highlightEdges();
  highlightAdjacentNodes();
});
]]></script>
</svg>
