<?xml version="1.0" encoding="UTF-8" standalone="no"?>
<!DOCTYPE svg PUBLIC "-//W3C//DTD SVG 1.1//EN"
 "http://www.w3.org/Graphics/SVG/1.1/DTD/svg11.dtd">
<!-- Generated by graphviz version 7.0.5 (20221223.1930)
 -->
<!-- Title: models::bmi::Bmi_Adapter&lt; T &gt; Pages: 1 -->
<!--zoomable 1016 -->
<svg id="main" version="1.1" xmlns="http://www.w3.org/2000/svg" xmlns:xlink="http://www.w3.org/1999/xlink" xml:space="preserve" onload="init(evt)">
<style type="text/css"><![CDATA[
.edge:hover path { stroke: red; }
.edge:hover polygon { stroke: red; fill: red; }
]]></style>
<script type="text/javascript"><![CDATA[
var edges = document.getElementsByTagName('g');
if (edges && edges.length) {
  for (var i=0;i<edges.length;i++) {
    if (edges[i].id.substr(0,4)=='edge') {
      edges[i].setAttribute('class','edge');
    }
  }
}
]]></script>
        <defs>
                <circle id="rim" cx="0" cy="0" r="7"/>
                <circle id="rim2" cx="0" cy="0" r="3.5"/>
                <g id="zoomPlus">
                        <use xlink:href="#rim" fill="#404040">
                                <set attributeName="fill" to="#808080" begin="zoomplus.mouseover" end="zoomplus.mouseout"/>
                        </use>
                        <path d="M-4,0h8M0,-4v8" fill="none" stroke="white" stroke-width="1.5" pointer-events="none"/>
                </g>
                <g id="zoomMin">
                        <use xlink:href="#rim" fill="#404040">
                                <set attributeName="fill" to="#808080" begin="zoomminus.mouseover" end="zoomminus.mouseout"/>
                        </use>
                        <path d="M-4,0h8" fill="none" stroke="white" stroke-width="1.5" pointer-events="none"/>
                </g>
                <g id="dirArrow">
                        <path fill="none" stroke="white" stroke-width="1.5" d="M0,-3.0v7 M-2.5,-0.5L0,-3.0L2.5,-0.5"/>
                </g>
               <g id="resetDef">
                       <use xlink:href="#rim2" fill="#404040">
                               <set attributeName="fill" to="#808080" begin="reset.mouseover" end="reset.mouseout"/>
                       </use>
               </g>
        </defs>

<script type="text/javascript">
var viewWidth = 720;
var viewHeight = 1016;
var sectionId = 'dynsection-1';
</script>
<script xlink:href="svgpan.js"/>
<svg id="graph" class="graph">
<g id="viewport">
<title>models::bmi::Bmi_Adapter&lt; T &gt;</title>
<!-- Node1 -->
<g id="node1" class="node">
<title>Node1</title>
<g id="a_node1"><a xlink:title="Abstract adapter interface for C++ classes to interact with the essential aspects of external models ...">
<polygon fill="#999999" stroke="#666666" points="361.5,-294 206.5,-294 206.5,0 361.5,0 361.5,-294"/>
<text text-anchor="middle" x="284" y="-282" font-family="Helvetica,sans-Serif" font-size="10.00">{models::bmi::Bmi_Adapter&lt; T &gt;</text>
<text text-anchor="start" x="214.5" y="-271" font-family="Helvetica,sans-Serif" font-size="10.00">|# allow_model_exceed</text>
<text text-anchor="start" x="214.5" y="-260" font-family="Helvetica,sans-Serif" font-size="10.00">_end_time</text>
<text text-anchor="start" x="214.5" y="-249" font-family="Helvetica,sans-Serif" font-size="10.00"># bmi_model</text>
<text text-anchor="start" x="214.5" y="-238" font-family="Helvetica,sans-Serif" font-size="10.00"># bmi_model_has_fixed</text>
<text text-anchor="start" x="214.5" y="-227" font-family="Helvetica,sans-Serif" font-size="10.00">_time_step</text>
<text text-anchor="start" x="214.5" y="-216" font-family="Helvetica,sans-Serif" font-size="10.00"># bmi_model_time_convert</text>
<text text-anchor="start" x="214.5" y="-205" font-family="Helvetica,sans-Serif" font-size="10.00">_factor</text>
<text text-anchor="start" x="214.5" y="-194" font-family="Helvetica,sans-Serif" font-size="10.00"># bmi_model_uses_forcing_file</text>
<text text-anchor="start" x="214.5" y="-183" font-family="Helvetica,sans-Serif" font-size="10.00"># model_initialized</text>
<text text-anchor="start" x="214.5" y="-172" font-family="Helvetica,sans-Serif" font-size="10.00">|+ Bmi_Adapter()</text>
<text text-anchor="start" x="214.5" y="-161" font-family="Helvetica,sans-Serif" font-size="10.00">+ Bmi_Adapter()</text>
<text text-anchor="start" x="214.5" y="-150" font-family="Helvetica,sans-Serif" font-size="10.00">+ Bmi_Adapter()</text>
<text text-anchor="start" x="214.5" y="-139" font-family="Helvetica,sans-Serif" font-size="10.00">+ get_time_convert_factor()</text>
<text text-anchor="start" x="214.5" y="-128" font-family="Helvetica,sans-Serif" font-size="10.00">+ convert_model_time</text>
<text text-anchor="start" x="214.5" y="-117" font-family="Helvetica,sans-Serif" font-size="10.00">_to_seconds()</text>
<text text-anchor="start" x="214.5" y="-106" font-family="Helvetica,sans-Serif" font-size="10.00">+ convert_seconds_to</text>
<text text-anchor="start" x="214.5" y="-95" font-family="Helvetica,sans-Serif" font-size="10.00">_model_time()</text>
<text text-anchor="start" x="214.5" y="-84" font-family="Helvetica,sans-Serif" font-size="10.00">+ get_analogous_cxx_type()</text>
<text text-anchor="start" x="214.5" y="-73" font-family="Helvetica,sans-Serif" font-size="10.00">+ Initialize()</text>
<text text-anchor="start" x="214.5" y="-62" font-family="Helvetica,sans-Serif" font-size="10.00">+ Initialize()</text>
<text text-anchor="start" x="214.5" y="-51" font-family="Helvetica,sans-Serif" font-size="10.00">+ isInitialized()</text>
<text text-anchor="start" x="214.5" y="-40" font-family="Helvetica,sans-Serif" font-size="10.00">+ get_model_name()</text>
<text text-anchor="start" x="214.5" y="-29" font-family="Helvetica,sans-Serif" font-size="10.00"># construct_and_init</text>
<text text-anchor="start" x="214.5" y="-18" font-family="Helvetica,sans-Serif" font-size="10.00">_backing_model()</text>
<text text-anchor="middle" x="284" y="-7" font-family="Helvetica,sans-Serif" font-size="10.00">}</text>
</a>
</g>
</g>
<!-- Node2 -->
<g id="node2" class="node">
<title>Node2</title>
<g id="a_node2"><a xlink:href="classbmi_1_1_bmi.html" target="_top" xlink:title=" ">
<polygon fill="white" stroke="#666666" points="122,-558 0,-558 0,-352 122,-352 122,-558"/>
<text text-anchor="middle" x="61" y="-546" font-family="Helvetica,sans-Serif" font-size="10.00">{bmi::Bmi</text>
<text text-anchor="start" x="8" y="-535" font-family="Helvetica,sans-Serif" font-size="10.00">||+ Initialize()</text>
<text text-anchor="start" x="8" y="-524" font-family="Helvetica,sans-Serif" font-size="10.00">+ Update()</text>
<text text-anchor="start" x="8" y="-513" font-family="Helvetica,sans-Serif" font-size="10.00">+ UpdateUntil()</text>
<text text-anchor="start" x="8" y="-502" font-family="Helvetica,sans-Serif" font-size="10.00">+ Finalize()</text>
<text text-anchor="start" x="8" y="-491" font-family="Helvetica,sans-Serif" font-size="10.00">+ GetComponentName()</text>
<text text-anchor="start" x="8" y="-480" font-family="Helvetica,sans-Serif" font-size="10.00">+ GetInputItemCount()</text>
<text text-anchor="start" x="8" y="-469" font-family="Helvetica,sans-Serif" font-size="10.00">+ GetOutputItemCount()</text>
<text text-anchor="start" x="8" y="-458" font-family="Helvetica,sans-Serif" font-size="10.00">+ GetInputVarNames()</text>
<text text-anchor="start" x="8" y="-447" font-family="Helvetica,sans-Serif" font-size="10.00">+ GetOutputVarNames()</text>
<text text-anchor="start" x="8" y="-436" font-family="Helvetica,sans-Serif" font-size="10.00">+ GetVarGrid()</text>
<text text-anchor="start" x="8" y="-425" font-family="Helvetica,sans-Serif" font-size="10.00">+ GetVarType()</text>
<text text-anchor="start" x="8" y="-414" font-family="Helvetica,sans-Serif" font-size="10.00">+ GetVarUnits()</text>
<text text-anchor="start" x="8" y="-403" font-family="Helvetica,sans-Serif" font-size="10.00">+ GetVarItemsize()</text>
<text text-anchor="start" x="8" y="-392" font-family="Helvetica,sans-Serif" font-size="10.00">+ GetVarNbytes()</text>
<text text-anchor="start" x="8" y="-381" font-family="Helvetica,sans-Serif" font-size="10.00">+ GetVarLocation()</text>
<text text-anchor="start" x="8" y="-370" font-family="Helvetica,sans-Serif" font-size="10.00">and 26 more...</text>
<text text-anchor="middle" x="61" y="-359" font-family="Helvetica,sans-Serif" font-size="10.00">}</text>
</a>
</g>
</g>
<!-- Node2&#45;&gt;Node1 -->
<g id="edge1" class="edge">
<title>Node2&#45;&gt;Node1</title>
<path fill="none" stroke="#63b8ff" d="M128.88,-354.96C129.59,-353.97 130.3,-352.98 131,-352 155.01,-318.55 181.76,-282.48 206.1,-250.11"/>
<polygon fill="none" stroke="#63b8ff" points="126.26,-352.61 123.32,-362.79 131.96,-356.67 126.26,-352.61"/>
</g>
<!-- Node3 -->
<g id="node3" class="node">
<title>Node3</title>
<g id="a_node3"><a xlink:title=" ">
<polygon fill="white" stroke="#666666" points="621,-780.5 559,-780.5 559,-750.5 621,-750.5 621,-780.5"/>
<text text-anchor="middle" x="590" y="-768.5" font-family="Helvetica,sans-Serif" font-size="10.00">{std::string</text>
<text text-anchor="middle" x="590" y="-757.5" font-family="Helvetica,sans-Serif" font-size="10.00">||}</text>
</a>
</g>
</g>
<!-- Node3&#45;&gt;Node1 -->
<g id="edge2" class="edge">
<title>Node3&#45;&gt;Node1</title>
<path fill="none" stroke="#404040" d="M592.57,-750.16C601.75,-694.63 628.51,-490.08 552,-352 511.98,-279.78 434.56,-225.16 373.19,-190.7"/>
<polygon fill="none" stroke="#404040" points="373.23,-190.72 366.04,-191.33 362.72,-184.94 369.9,-184.33 373.23,-190.72"/>
<text text-anchor="middle" x="648.5" y="-616" font-family="Helvetica,sans-Serif" font-size="10.00"> #bmi_init_config</text>
<text text-anchor="middle" x="648.5" y="-605" font-family="Helvetica,sans-Serif" font-size="10.00">#forcing_file_path</text>
<text text-anchor="middle" x="648.5" y="-594" font-family="Helvetica,sans-Serif" font-size="10.00">#init_exception_msg</text>
<text text-anchor="middle" x="648.5" y="-583" font-family="Helvetica,sans-Serif" font-size="10.00">#model_name</text>
</g>
<!-- Node9 -->
<g id="node9" class="node">
<title>Node9</title>
<g id="a_node9"><a xlink:title=" ">
<polygon fill="white" stroke="#666666" points="561.5,-687 438.5,-687 438.5,-657 561.5,-657 561.5,-687"/>
<text text-anchor="middle" x="500" y="-675" font-family="Helvetica,sans-Serif" font-size="10.00">{std::vector&lt; std::string &gt;</text>
<text text-anchor="middle" x="500" y="-664" font-family="Helvetica,sans-Serif" font-size="10.00">||}</text>
</a>
</g>
</g>
<!-- Node3&#45;&gt;Node9 -->
<g id="edge9" class="edge">
<title>Node3&#45;&gt;Node9</title>
<path fill="none" stroke="#404040" d="M558.63,-750.44C547.63,-744.4 535.84,-736.51 527,-727 519.56,-718.99 513.7,-708.55 509.37,-698.98"/>
<polygon fill="none" stroke="#404040" points="509.43,-699.13 503.46,-695.09 504.89,-688.02 510.86,-692.06 509.43,-699.13"/>
<text text-anchor="middle" x="551.5" y="-719" font-family="Helvetica,sans-Serif" font-size="10.00"> +elements</text>
</g>
<!-- Node11 -->
<g id="node11" class="node">
<title>Node11</title>
<g id="a_node11"><a xlink:href="classutils_1_1_stream_handler.html" target="_top" xlink:title="This class provides a copyable interface to a std::ostream or std::ostream like object that may not s...">
<polygon fill="white" stroke="#666666" points="247.5,-525 140.5,-525 140.5,-385 247.5,-385 247.5,-525"/>
<text text-anchor="middle" x="194" y="-513" font-family="Helvetica,sans-Serif" font-size="10.00">{utils::StreamHandler</text>
<text text-anchor="start" x="148.5" y="-502" font-family="Helvetica,sans-Serif" font-size="10.00">||+ StreamHandler()</text>
<text text-anchor="start" x="148.5" y="-491" font-family="Helvetica,sans-Serif" font-size="10.00">+ StreamHandler()</text>
<text text-anchor="start" x="148.5" y="-480" font-family="Helvetica,sans-Serif" font-size="10.00">+ StreamHandler()</text>
<text text-anchor="start" x="148.5" y="-469" font-family="Helvetica,sans-Serif" font-size="10.00">+ StreamHandler()</text>
<text text-anchor="start" x="148.5" y="-458" font-family="Helvetica,sans-Serif" font-size="10.00">+ ~StreamHandler()</text>
<text text-anchor="start" x="148.5" y="-447" font-family="Helvetica,sans-Serif" font-size="10.00">+ operator=()</text>
<text text-anchor="start" x="148.5" y="-436" font-family="Helvetica,sans-Serif" font-size="10.00">+ put()</text>
<text text-anchor="start" x="148.5" y="-425" font-family="Helvetica,sans-Serif" font-size="10.00">+ put_indexed()</text>
<text text-anchor="start" x="148.5" y="-414" font-family="Helvetica,sans-Serif" font-size="10.00">+ put_var()</text>
<text text-anchor="start" x="148.5" y="-403" font-family="Helvetica,sans-Serif" font-size="10.00">+ operator&lt;&lt;()</text>
<text text-anchor="middle" x="194" y="-392" font-family="Helvetica,sans-Serif" font-size="10.00">}</text>
</a>
</g>
</g>
<!-- Node3&#45;&gt;Node11 -->
<g id="edge20" class="edge">
<title>Node3&#45;&gt;Node11</title>
<path fill="none" stroke="#404040" d="M606.8,-750.2C644.9,-716.13 730.76,-629.07 680,-576 648.94,-543.53 316.08,-578.31 276,-558 264.6,-552.22 254.25,-544.06 245.04,-534.84"/>
<polygon fill="none" stroke="#404040" points="244.98,-534.78 237.97,-533.09 236.83,-525.97 243.84,-527.66 244.98,-534.78"/>
<text text-anchor="middle" x="700" y="-669.5" font-family="Helvetica,sans-Serif" font-size="10.00"> #sep</text>
</g>
<!-- Node4 -->
<g id="node4" class="node">
<title>Node4</title>
<g id="a_node4"><a xlink:title=" ">
<polygon fill="white" stroke="#666666" points="638,-874 542,-874 542,-833 638,-833 638,-874"/>
<text text-anchor="start" x="550" y="-862" font-family="Helvetica,sans-Serif" font-size="10.00">{std::basic_string&lt;</text>
<text text-anchor="middle" x="590" y="-851" font-family="Helvetica,sans-Serif" font-size="10.00"> Char &gt;</text>
<text text-anchor="middle" x="590" y="-840" font-family="Helvetica,sans-Serif" font-size="10.00">||}</text>
</a>
</g>
</g>
<!-- Node4&#45;&gt;Node3 -->
<g id="edge3" class="edge">
<title>Node4&#45;&gt;Node3</title>
<path fill="none" stroke="#63b8ff" d="M590,-821.08C590,-807.35 590,-791.91 590,-780.97"/>
<polygon fill="none" stroke="#63b8ff" points="586.5,-821.04 590,-831.04 593.5,-821.04 586.5,-821.04"/>
</g>
<!-- Node5 -->
<g id="node5" class="node">
<title>Node5</title>
<g id="a_node5"><a xlink:title=" ">
<polygon fill="white" stroke="#666666" points="343,-628 215,-628 215,-576 343,-576 343,-628"/>
<text text-anchor="middle" x="279" y="-616" font-family="Helvetica,sans-Serif" font-size="10.00">{std::shared_ptr&lt; double &gt;</text>
<text text-anchor="start" x="223" y="-605" font-family="Helvetica,sans-Serif" font-size="10.00">|+ ptr</text>
<text text-anchor="start" x="223" y="-594" font-family="Helvetica,sans-Serif" font-size="10.00">|+ operator&#45;&gt;()</text>
<text text-anchor="middle" x="279" y="-583" font-family="Helvetica,sans-Serif" font-size="10.00">}</text>
</a>
</g>
</g>
<!-- Node5&#45;&gt;Node1 -->
<g id="edge4" class="edge">
<title>Node5&#45;&gt;Node1</title>
<path fill="none" stroke="#404040" d="M279.28,-575.67C279.84,-524.8 281.15,-406.57 282.24,-307.28"/>
<polygon fill="none" stroke="#404040" points="282.24,-307.24 278.31,-301.2 282.37,-295.24 286.31,-301.29 282.24,-307.24"/>
<text text-anchor="middle" x="345" y="-452.5" font-family="Helvetica,sans-Serif" font-size="10.00"> #bmi_model_time_step_size</text>
</g>
<!-- Node6 -->
<g id="node6" class="node">
<title>Node6</title>
<g id="a_node6"><a xlink:title=" ">
<polygon fill="white" stroke="#666666" points="335,-786 229,-786 229,-745 335,-745 335,-786"/>
<text text-anchor="middle" x="282" y="-774" font-family="Helvetica,sans-Serif" font-size="10.00">{std::shared_ptr&lt; T &gt;</text>
<text text-anchor="start" x="237" y="-763" font-family="Helvetica,sans-Serif" font-size="10.00">||+ operator&#45;&gt;()</text>
<text text-anchor="middle" x="282" y="-752" font-family="Helvetica,sans-Serif" font-size="10.00">}</text>
</a>
</g>
</g>
<!-- Node6&#45;&gt;Node5 -->
<g id="edge5" class="edge">
<title>Node6&#45;&gt;Node5</title>
<path fill="none" stroke="orange" d="M280.23,-733.32C280.14,-731.18 280.06,-729.06 280,-727 278.95,-692.79 278.82,-653.24 278.87,-628.18"/>
<polygon fill="orange" stroke="orange" points="276.73,-733.32 280.7,-743.14 283.72,-732.99 276.73,-733.32"/>
<text text-anchor="middle" x="304" y="-719" font-family="Helvetica,sans-Serif" font-size="10.00"> &lt; double &gt;</text>
</g>
<!-- Node8 -->
<g id="node8" class="node">
<title>Node8</title>
<g id="a_node8"><a xlink:title=" ">
<polygon fill="white" stroke="#666666" points="543.5,-481 428.5,-481 428.5,-429 543.5,-429 543.5,-481"/>
<text text-anchor="start" x="436.5" y="-469" font-family="Helvetica,sans-Serif" font-size="10.00">{std::shared_ptr&lt; std</text>
<text text-anchor="middle" x="486" y="-458" font-family="Helvetica,sans-Serif" font-size="10.00">::vector&lt; std::string &gt; &gt;</text>
<text text-anchor="start" x="436.5" y="-447" font-family="Helvetica,sans-Serif" font-size="10.00">||+ operator&#45;&gt;()</text>
<text text-anchor="middle" x="486" y="-436" font-family="Helvetica,sans-Serif" font-size="10.00">}</text>
</a>
</g>
</g>
<!-- Node6&#45;&gt;Node8 -->
<g id="edge12" class="edge">
<title>Node6&#45;&gt;Node8</title>
<path fill="none" stroke="orange" d="M320.06,-736.9C323,-733.79 325.71,-730.48 328,-727 348.56,-695.73 334.82,-679.74 351,-646 355.28,-637.08 431.75,-530.98 467.66,-481.33"/>
<polygon fill="orange" stroke="orange" points="317.82,-734.2 312.96,-743.62 322.63,-739.29 317.82,-734.2"/>
<text text-anchor="start" x="351" y="-675" font-family="Helvetica,sans-Serif" font-size="10.00"> &lt; std::vector&lt; std</text>
<text text-anchor="middle" x="390" y="-664" font-family="Helvetica,sans-Serif" font-size="10.00">::string &gt; &gt;</text>
</g>
<!-- Node12 -->
<g id="node12" class="node">
<title>Node12</title>
<g id="a_node12"><a xlink:title=" ">
<polygon fill="white" stroke="#666666" points="192.5,-698 87.5,-698 87.5,-646 192.5,-646 192.5,-698"/>
<text text-anchor="start" x="95.5" y="-686" font-family="Helvetica,sans-Serif" font-size="10.00">{std::shared_ptr&lt; std</text>
<text text-anchor="middle" x="140" y="-675" font-family="Helvetica,sans-Serif" font-size="10.00">::ostream &gt;</text>
<text text-anchor="start" x="95.5" y="-664" font-family="Helvetica,sans-Serif" font-size="10.00">||+ operator&#45;&gt;()</text>
<text text-anchor="middle" x="140" y="-653" font-family="Helvetica,sans-Serif" font-size="10.00">}</text>
</a>
</g>
</g>
<!-- Node6&#45;&gt;Node12 -->
<g id="edge19" class="edge">
<title>Node6&#45;&gt;Node12</title>
<path fill="none" stroke="orange" d="M218.14,-745.63C206.21,-740.6 194.27,-734.43 184,-727 173.32,-719.27 163.76,-708.34 156.3,-698.33"/>
<polygon fill="orange" stroke="orange" points="216.58,-748.78 227.17,-749.21 219.16,-742.27 216.58,-748.78"/>
<text text-anchor="middle" x="220.5" y="-719" font-family="Helvetica,sans-Serif" font-size="10.00"> &lt; std::ostream &gt;</text>
</g>
<!-- Node7 -->
<g id="node7" class="node">
<title>Node7</title>
<g id="a_node7"><a xlink:title=" ">
<polygon fill="white" stroke="#666666" points="330.5,-868.5 301.5,-868.5 301.5,-838.5 330.5,-838.5 330.5,-868.5"/>
<text text-anchor="middle" x="316" y="-856.5" font-family="Helvetica,sans-Serif" font-size="10.00">{T</text>
<text text-anchor="middle" x="316" y="-845.5" font-family="Helvetica,sans-Serif" font-size="10.00">||}</text>
</a>
</g>
</g>
<!-- Node7&#45;&gt;Node6 -->
<g id="edge6" class="edge">
<title>Node7&#45;&gt;Node6</title>
<path fill="none" stroke="#404040" d="M310.39,-838.3C306.08,-827.41 299.98,-811.97 294.53,-798.2"/>
<polygon fill="none" stroke="#404040" points="294.53,-798.19 288.6,-794.08 290.12,-787.03 296.04,-791.14 294.53,-798.19"/>
<text text-anchor="middle" x="312" y="-807" font-family="Helvetica,sans-Serif" font-size="10.00"> +ptr</text>
</g>
<!-- Node10 -->
<g id="node10" class="node">
<title>Node10</title>
<g id="a_node10"><a xlink:title=" ">
<polygon fill="white" stroke="#666666" points="443.5,-780.5 356.5,-780.5 356.5,-750.5 443.5,-750.5 443.5,-780.5"/>
<text text-anchor="middle" x="400" y="-768.5" font-family="Helvetica,sans-Serif" font-size="10.00">{std::vector&lt; T &gt;</text>
<text text-anchor="middle" x="400" y="-757.5" font-family="Helvetica,sans-Serif" font-size="10.00">||}</text>
</a>
</g>
</g>
<!-- Node7&#45;&gt;Node10 -->
<g id="edge11" class="edge">
<title>Node7&#45;&gt;Node10</title>
<path fill="none" stroke="#404040" d="M329.87,-838.3C342.76,-825.1 362.19,-805.21 377.33,-789.71"/>
<polygon fill="none" stroke="#404040" points="377.09,-789.95 378.42,-782.86 385.48,-781.37 384.15,-788.45 377.09,-789.95"/>
<text text-anchor="middle" x="388.5" y="-807" font-family="Helvetica,sans-Serif" font-size="10.00"> +elements</text>
</g>
<!-- Node8&#45;&gt;Node1 -->
<g id="edge7" class="edge">
<title>Node8&#45;&gt;Node1</title>
<path fill="none" stroke="#404040" d="M469.3,-428.7C447.14,-395.13 406.43,-333.46 368.8,-276.46"/>
<polygon fill="none" stroke="#404040" points="368.92,-276.65 362.28,-273.84 362.31,-266.63 368.96,-269.44 368.92,-276.65"/>
<text text-anchor="middle" x="447" y="-326" font-family="Helvetica,sans-Serif" font-size="10.00"> #input_var_names</text>
<text text-anchor="middle" x="447" y="-315" font-family="Helvetica,sans-Serif" font-size="10.00">#output_var_names</text>
</g>
<!-- Node9&#45;&gt;Node8 -->
<g id="edge8" class="edge">
<title>Node9&#45;&gt;Node8</title>
<path fill="none" stroke="#404040" d="M499.06,-656.56C496.92,-623.75 491.65,-542.72 488.49,-494.29"/>
<polygon fill="none" stroke="#404040" points="488.48,-494.14 484.1,-488.41 487.7,-482.17 492.09,-487.89 488.48,-494.14"/>
<text text-anchor="middle" x="507" y="-599.5" font-family="Helvetica,sans-Serif" font-size="10.00"> +ptr</text>
</g>
<!-- Node10&#45;&gt;Node9 -->
<g id="edge10" class="edge">
<title>Node10&#45;&gt;Node9</title>
<path fill="none" stroke="orange" d="M423.92,-742.62C442.57,-725.55 467.95,-702.33 484.15,-687.5"/>
<polygon fill="orange" stroke="orange" points="421.76,-739.85 416.74,-749.18 426.48,-745.01 421.76,-739.85"/>
<text text-anchor="middle" x="483.5" y="-719" font-family="Helvetica,sans-Serif" font-size="10.00"> &lt; std::string &gt;</text>
</g>
<!-- Node11&#45;&gt;Node1 -->
<g id="edge13" class="edge">
<title>Node11&#45;&gt;Node1</title>
<path fill="none" stroke="#404040" d="M213.89,-384.63C220.56,-361.51 228.06,-335.63 235,-312 235.54,-310.17 236.08,-308.34 236.62,-306.49"/>
<polygon fill="none" stroke="#404040" points="236.6,-306.55 234.46,-299.66 240,-295.04 242.14,-301.93 236.6,-306.55"/>
<text text-anchor="middle" x="252.5" y="-320.5" font-family="Helvetica,sans-Serif" font-size="10.00"> #output</text>
</g>
<!-- Node12&#45;&gt;Node11 -->
<g id="edge14" class="edge">
<title>Node12&#45;&gt;Node11</title>
<path fill="none" stroke="#404040" d="M135.33,-645.67C132.62,-626.33 130.69,-599.17 136,-576 138.96,-563.09 143.49,-549.96 148.74,-537.35"/>
<polygon fill="none" stroke="#404040" points="148.78,-537.26 147.54,-530.16 153.61,-526.27 154.86,-533.37 148.78,-537.26"/>
<text text-anchor="middle" x="171" y="-599.5" font-family="Helvetica,sans-Serif" font-size="10.00"> #output_stream</text>
</g>
<!-- Node13 -->
<g id="node13" class="node">
<title>Node13</title>
<g id="a_node13"><a xlink:title=" ">
<polygon fill="white" stroke="#666666" points="176.5,-780.5 103.5,-780.5 103.5,-750.5 176.5,-750.5 176.5,-780.5"/>
<text text-anchor="middle" x="140" y="-768.5" font-family="Helvetica,sans-Serif" font-size="10.00">{std::ostream</text>
<text text-anchor="middle" x="140" y="-757.5" font-family="Helvetica,sans-Serif" font-size="10.00">||}</text>
</a>
</g>
</g>
<!-- Node13&#45;&gt;Node12 -->
<g id="edge15" class="edge">
<title>Node13&#45;&gt;Node12</title>
<path fill="none" stroke="#404040" d="M140,-750.2C140,-739.69 140,-724.88 140,-711.04"/>
<polygon fill="none" stroke="#404040" points="140,-711.15 136,-705.15 140,-699.15 144,-705.15 140,-711.15"/>
<text text-anchor="middle" x="150" y="-719" font-family="Helvetica,sans-Serif" font-size="10.00"> +ptr</text>
</g>
<!-- Node14 -->
<g id="node14" class="node">
<title>Node14</title>
<g id="a_node14"><a xlink:title=" ">
<polygon fill="white" stroke="#666666" points="190.5,-874 89.5,-874 89.5,-833 190.5,-833 190.5,-874"/>
<text text-anchor="start" x="97.5" y="-862" font-family="Helvetica,sans-Serif" font-size="10.00">{std::basic_ostream</text>
<text text-anchor="middle" x="140" y="-851" font-family="Helvetica,sans-Serif" font-size="10.00">&lt; Char &gt;</text>
<text text-anchor="middle" x="140" y="-840" font-family="Helvetica,sans-Serif" font-size="10.00">||}</text>
</a>
</g>
</g>
<!-- Node14&#45;&gt;Node13 -->
<g id="edge16" class="edge">
<title>Node14&#45;&gt;Node13</title>
<path fill="none" stroke="#63b8ff" d="M140,-821.08C140,-807.35 140,-791.91 140,-780.97"/>
<polygon fill="none" stroke="#63b8ff" points="136.5,-821.04 140,-831.04 143.5,-821.04 136.5,-821.04"/>
</g>
<!-- Node15 -->
<g id="node15" class="node">
<title>Node15</title>
<g id="a_node15"><a xlink:title=" ">
<polygon fill="white" stroke="#666666" points="198,-941 82,-941 82,-911 198,-911 198,-941"/>
<text text-anchor="middle" x="140" y="-929" font-family="Helvetica,sans-Serif" font-size="10.00">{std::basic_ios&lt; Char &gt;</text>
<text text-anchor="middle" x="140" y="-918" font-family="Helvetica,sans-Serif" font-size="10.00">||}</text>
</a>
</g>
</g>
<!-- Node15&#45;&gt;Node14 -->
<g id="edge17" class="edge">
<title>Node15&#45;&gt;Node14</title>
<path fill="none" stroke="#63b8ff" d="M140,-899.42C140,-891.16 140,-882.14 140,-874.36"/>
<polygon fill="none" stroke="#63b8ff" points="136.5,-899.22 140,-909.22 143.5,-899.22 136.5,-899.22"/>
</g>
<!-- Node16 -->
<g id="node16" class="node">
<title>Node16</title>
<g id="a_node16"><a xlink:title=" ">
<polygon fill="white" stroke="#666666" points="178.5,-1008 101.5,-1008 101.5,-978 178.5,-978 178.5,-1008"/>
<text text-anchor="middle" x="140" y="-996" font-family="Helvetica,sans-Serif" font-size="10.00">{std::ios_base</text>
<text text-anchor="middle" x="140" y="-985" font-family="Helvetica,sans-Serif" font-size="10.00">||}</text>
</a>
</g>
</g>
<!-- Node16&#45;&gt;Node15 -->
<g id="edge18" class="edge">
<title>Node16&#45;&gt;Node15</title>
<path fill="none" stroke="#63b8ff" d="M140,-966.28C140,-957.81 140,-948.7 140,-941.39"/>
<polygon fill="none" stroke="#63b8ff" points="136.5,-966.06 140,-976.06 143.5,-966.06 136.5,-966.06"/>
</g>
</g>
</svg>
        <g id="navigator" transform="translate(0 0)" fill="#404254">
                <rect fill="#f2f5e9" fill-opacity="0.5" stroke="#606060" stroke-width=".5" x="0" y="0" width="60" height="60"/>
                <use id="zoomplus" xlink:href="#zoomPlus" x="17" y="9" onmousedown="handleZoom(evt,'in')"/>
                <use id="zoomminus" xlink:href="#zoomMin" x="42" y="9" onmousedown="handleZoom(evt,'out')"/>
                <use id="reset" xlink:href="#resetDef" x="30" y="36" onmousedown="handleReset()"/>
                <g id="arrowUp" xlink:href="#dirArrow" transform="translate(30 24)" onmousedown="handlePan(0,-1)">
                  <use xlink:href="#rim" fill="#404040">
                        <set attributeName="fill" to="#808080" begin="arrowUp.mouseover" end="arrowUp.mouseout"/>
                  </use>
                  <path fill="none" stroke="white" stroke-width="1.5" d="M0,-3.0v7 M-2.5,-0.5L0,-3.0L2.5,-0.5"/>
                </g>
                <g id="arrowRight" xlink:href="#dirArrow" transform="rotate(90) translate(36 -43)" onmousedown="handlePan(1,0)">
                  <use xlink:href="#rim" fill="#404040">
                        <set attributeName="fill" to="#808080" begin="arrowRight.mouseover" end="arrowRight.mouseout"/>
                  </use>
                  <path fill="none" stroke="white" stroke-width="1.5" d="M0,-3.0v7 M-2.5,-0.5L0,-3.0L2.5,-0.5"/>
                </g>
                <g id="arrowDown" xlink:href="#dirArrow" transform="rotate(180) translate(-30 -48)" onmousedown="handlePan(0,1)">
                  <use xlink:href="#rim" fill="#404040">
                        <set attributeName="fill" to="#808080" begin="arrowDown.mouseover" end="arrowDown.mouseout"/>
                  </use>
                  <path fill="none" stroke="white" stroke-width="1.5" d="M0,-3.0v7 M-2.5,-0.5L0,-3.0L2.5,-0.5"/>
                </g>
                <g id="arrowLeft" xlink:href="#dirArrow" transform="rotate(270) translate(-36 17)" onmousedown="handlePan(-1,0)">
                  <use xlink:href="#rim" fill="#404040">
                        <set attributeName="fill" to="#808080" begin="arrowLeft.mouseover" end="arrowLeft.mouseout"/>
                  </use>
                  <path fill="none" stroke="white" stroke-width="1.5" d="M0,-3.0v7 M-2.5,-0.5L0,-3.0L2.5,-0.5"/>
                </g>
        </g>
        <svg viewBox="0 0 15 15" width="100%" height="30px" preserveAspectRatio="xMaxYMin meet">
         <g id="arrow_out" transform="scale(0.3 0.3)">
          <a xlink:href="classmodels_1_1bmi_1_1_bmi___adapter__coll__graph_org.svg" target="_base">
           <rect id="button" ry="5" rx="5" y="6" x="6" height="38" width="38"
                fill="#f2f5e9" fill-opacity="0.5" stroke="#606060" stroke-width="1.0"/>
           <path id="arrow"
             d="M 11.500037,31.436501 C 11.940474,20.09759 22.043105,11.32322 32.158766,21.979434 L 37.068811,17.246167 C 37.068811,17.246167 37.088388,32 37.088388,32 L 22.160133,31.978069 C 22.160133,31.978069 26.997745,27.140456 26.997745,27.140456 C 18.528582,18.264221 13.291696,25.230495 11.500037,31.436501 z"
             style="fill:#404040;"/>
          </a>
         </g>
        </svg>
</svg>
