<?xml version="1.0" encoding="UTF-8" standalone="no"?>
<!DOCTYPE svg PUBLIC "-//W3C//DTD SVG 1.1//EN"
 "http://www.w3.org/Graphics/SVG/1.1/DTD/svg11.dtd">
<!-- Generated by graphviz version 9.0.0 (20230911.1827)
 -->
<!-- Title: data_access::DeferredWrappedProvider Pages: 1 -->
<svg width="232pt" height="1387pt"
 viewBox="0.00 0.00 232.00 1386.50" xmlns="http://www.w3.org/2000/svg" xmlns:xlink="http://www.w3.org/1999/xlink">
<g id="graph0" class="graph" transform="scale(1 1) rotate(0) translate(4 1382.5)">
<title>data_access::DeferredWrappedProvider</title>
<!-- Node1 -->
<g id="Node000001" class="node">
<title>Node1</title>
<g id="a_Node000001"><a xlink:title="A specialized @WrappedDataProvider that is created without first knowing the backing source it wraps.">
<polygon fill="#999999" stroke="none" points="164.5,-513 19.5,-513 19.5,-322 164.5,-322 164.5,-513"/>
<text text-anchor="start" x="24.5" y="-499.5" font-family="Helvetica,sans-Serif" font-size="10.00">data_access::DeferredWrapped</text>
<text text-anchor="start" x="74" y="-488.25" font-family="Helvetica,sans-Serif" font-size="10.00">Provider</text>
<text text-anchor="start" x="26.38" y="-473.5" font-family="Helvetica,sans-Serif" font-size="10.00">#</text>
<text text-anchor="start" x="38.5" y="-473.5" font-family="Helvetica,sans-Serif" font-size="10.00">providedOutputs</text>
<text text-anchor="start" x="26.38" y="-458.5" font-family="Helvetica,sans-Serif" font-size="10.00">#</text>
<text text-anchor="start" x="38.5" y="-458.5" font-family="Helvetica,sans-Serif" font-size="10.00">setMessage</text>
<text text-anchor="start" x="26" y="-443.5" font-family="Helvetica,sans-Serif" font-size="10.00">+</text>
<text text-anchor="start" x="38.5" y="-443.5" font-family="Helvetica,sans-Serif" font-size="10.00">DeferredWrappedProvider()</text>
<text text-anchor="start" x="26" y="-428.5" font-family="Helvetica,sans-Serif" font-size="10.00">+</text>
<text text-anchor="start" x="38.5" y="-428.5" font-family="Helvetica,sans-Serif" font-size="10.00">DeferredWrappedProvider()</text>
<text text-anchor="start" x="26" y="-413.5" font-family="Helvetica,sans-Serif" font-size="10.00">+</text>
<text text-anchor="start" x="38.5" y="-413.5" font-family="Helvetica,sans-Serif" font-size="10.00">DeferredWrappedProvider()</text>
<text text-anchor="start" x="26" y="-398.5" font-family="Helvetica,sans-Serif" font-size="10.00">+</text>
<text text-anchor="start" x="38.5" y="-398.5" font-family="Helvetica,sans-Serif" font-size="10.00">get_available_variable</text>
<text text-anchor="start" x="38.5" y="-387.25" font-family="Helvetica,sans-Serif" font-size="10.00">_names()</text>
<text text-anchor="start" x="26" y="-372.5" font-family="Helvetica,sans-Serif" font-size="10.00">+</text>
<text text-anchor="start" x="38.5" y="-372.5" font-family="Helvetica,sans-Serif" font-size="10.00">getSetMessage()</text>
<text text-anchor="start" x="26" y="-357.5" font-family="Helvetica,sans-Serif" font-size="10.00">+</text>
<text text-anchor="start" x="38.5" y="-357.5" font-family="Helvetica,sans-Serif" font-size="10.00">isReadyToProvideData()</text>
<text text-anchor="start" x="26" y="-342.5" font-family="Helvetica,sans-Serif" font-size="10.00">+</text>
<text text-anchor="start" x="38.5" y="-342.5" font-family="Helvetica,sans-Serif" font-size="10.00">isWrappedProviderSet()</text>
<text text-anchor="start" x="26" y="-327.5" font-family="Helvetica,sans-Serif" font-size="10.00">+</text>
<text text-anchor="start" x="38.5" y="-327.5" font-family="Helvetica,sans-Serif" font-size="10.00">setWrappedProvider()</text>
<polygon fill="#666666" stroke="#666666" points="19.5,-485 19.5,-485 164.5,-485 164.5,-485 19.5,-485"/>
<polygon fill="#666666" stroke="#666666" points="19.5,-455 19.5,-455 36.5,-455 36.5,-455 19.5,-455"/>
<polygon fill="#666666" stroke="#666666" points="36.5,-455 36.5,-455 164.5,-455 164.5,-455 36.5,-455"/>
<polygon fill="none" stroke="#666666" points="19.5,-322 19.5,-513 164.5,-513 164.5,-322 19.5,-322"/>
</a>
</g>
</g>
<!-- Node6 -->
<g id="Node000006" class="node">
<title>Node6</title>
<g id="a_Node000006"><a xlink:href="classdata__access_1_1_optional_wrapped_data_provider.html" target="_top" xlink:title="Extension of DeferredWrappedProvider, where default values can be used instead of a backing provider.">
<polygon fill="white" stroke="none" points="169,-285 15,-285 15,0 169,0 169,-285"/>
<text text-anchor="start" x="24.88" y="-271.5" font-family="Helvetica,sans-Serif" font-size="10.00">data_access::OptionalWrapped</text>
<text text-anchor="start" x="63.88" y="-260.25" font-family="Helvetica,sans-Serif" font-size="10.00">DataProvider</text>
<text text-anchor="start" x="20.5" y="-245.5" font-family="Helvetica,sans-Serif" font-size="10.00">&#45;</text>
<text text-anchor="start" x="29" y="-245.5" font-family="Helvetica,sans-Serif" font-size="10.00">defaultValues</text>
<text text-anchor="start" x="20.5" y="-230.5" font-family="Helvetica,sans-Serif" font-size="10.00">&#45;</text>
<text text-anchor="start" x="29" y="-230.5" font-family="Helvetica,sans-Serif" font-size="10.00">defaultUsageWaits</text>
<text text-anchor="start" x="19" y="-215.5" font-family="Helvetica,sans-Serif" font-size="10.00">+</text>
<text text-anchor="start" x="29" y="-215.5" font-family="Helvetica,sans-Serif" font-size="10.00">OptionalWrappedDataProvider()</text>
<text text-anchor="start" x="19" y="-200.5" font-family="Helvetica,sans-Serif" font-size="10.00">+</text>
<text text-anchor="start" x="29" y="-200.5" font-family="Helvetica,sans-Serif" font-size="10.00">OptionalWrappedDataProvider()</text>
<text text-anchor="start" x="19" y="-185.5" font-family="Helvetica,sans-Serif" font-size="10.00">+</text>
<text text-anchor="start" x="29" y="-185.5" font-family="Helvetica,sans-Serif" font-size="10.00">OptionalWrappedDataProvider()</text>
<text text-anchor="start" x="19" y="-170.5" font-family="Helvetica,sans-Serif" font-size="10.00">+</text>
<text text-anchor="start" x="29" y="-170.5" font-family="Helvetica,sans-Serif" font-size="10.00">OptionalWrappedDataProvider()</text>
<text text-anchor="start" x="19" y="-155.5" font-family="Helvetica,sans-Serif" font-size="10.00">+</text>
<text text-anchor="start" x="29" y="-155.5" font-family="Helvetica,sans-Serif" font-size="10.00">OptionalWrappedDataProvider()</text>
<text text-anchor="start" x="19" y="-140.5" font-family="Helvetica,sans-Serif" font-size="10.00">+</text>
<text text-anchor="start" x="29" y="-140.5" font-family="Helvetica,sans-Serif" font-size="10.00">OptionalWrappedDataProvider()</text>
<text text-anchor="start" x="19" y="-125.5" font-family="Helvetica,sans-Serif" font-size="10.00">+</text>
<text text-anchor="start" x="29" y="-125.5" font-family="Helvetica,sans-Serif" font-size="10.00">OptionalWrappedDataProvider()</text>
<text text-anchor="start" x="19" y="-110.5" font-family="Helvetica,sans-Serif" font-size="10.00">+</text>
<text text-anchor="start" x="29" y="-110.5" font-family="Helvetica,sans-Serif" font-size="10.00">get_value()</text>
<text text-anchor="start" x="19" y="-95.5" font-family="Helvetica,sans-Serif" font-size="10.00">+</text>
<text text-anchor="start" x="29" y="-95.5" font-family="Helvetica,sans-Serif" font-size="10.00">isDefaultOverride()</text>
<text text-anchor="start" x="19" y="-80.5" font-family="Helvetica,sans-Serif" font-size="10.00">+</text>
<text text-anchor="start" x="29" y="-80.5" font-family="Helvetica,sans-Serif" font-size="10.00">isReadyToProvideData()</text>
<text text-anchor="start" x="19" y="-65.5" font-family="Helvetica,sans-Serif" font-size="10.00">+</text>
<text text-anchor="start" x="29" y="-65.5" font-family="Helvetica,sans-Serif" font-size="10.00">isSuppliedWithDefault()</text>
<text text-anchor="start" x="19" y="-50.5" font-family="Helvetica,sans-Serif" font-size="10.00">+</text>
<text text-anchor="start" x="29" y="-50.5" font-family="Helvetica,sans-Serif" font-size="10.00">setWrappedProvider()</text>
<text text-anchor="start" x="19.38" y="-35.5" font-family="Helvetica,sans-Serif" font-size="10.00">#</text>
<text text-anchor="start" x="29" y="-35.5" font-family="Helvetica,sans-Serif" font-size="10.00">recordUsingDefault()</text>
<text text-anchor="start" x="20.5" y="-20.5" font-family="Helvetica,sans-Serif" font-size="10.00">&#45;</text>
<text text-anchor="start" x="29" y="-20.5" font-family="Helvetica,sans-Serif" font-size="10.00">isSuppliedByWrappedProvider()</text>
<text text-anchor="start" x="20.5" y="-5.5" font-family="Helvetica,sans-Serif" font-size="10.00">&#45;</text>
<text text-anchor="start" x="29" y="-5.5" font-family="Helvetica,sans-Serif" font-size="10.00">isSuppliedByProvider()</text>
<polygon fill="#666666" stroke="#666666" points="15,-257 15,-257 169,-257 169,-257 15,-257"/>
<polygon fill="#666666" stroke="#666666" points="15,-227 15,-227 27,-227 27,-227 15,-227"/>
<polygon fill="#666666" stroke="#666666" points="27,-227 27,-227 169,-227 169,-227 27,-227"/>
<polygon fill="none" stroke="#666666" points="15,0 15,-285 169,-285 169,0 15,0"/>
</a>
</g>
</g>
<!-- Node1&#45;&gt;Node6 -->
<g id="edge5_Node000001_Node000006" class="edge">
<title>Node1&#45;&gt;Node6</title>
<g id="a_edge5_Node000001_Node000006"><a xlink:title=" ">
<path fill="none" stroke="#63b8ff" d="M92,-310.91C92,-302.26 92,-293.44 92,-284.59"/>
<polygon fill="none" stroke="#63b8ff" points="88.5,-310.65 92,-320.65 95.5,-310.65 88.5,-310.65"/>
</a>
</g>
</g>
<!-- Node2 -->
<g id="Node000002" class="node">
<title>Node2</title>
<g id="a_Node000002"><a xlink:href="classdata__access_1_1_wrapped_data_provider.html" target="_top" xlink:title="Simple implementation that basically wraps another instance.">
<polygon fill="white" stroke="none" points="156,-782 28,-782 28,-550 156,-550 156,-782"/>
<text text-anchor="start" x="32.75" y="-768.5" font-family="Helvetica,sans-Serif" font-size="10.00">data_access::WrappedData</text>
<text text-anchor="start" x="74" y="-757.25" font-family="Helvetica,sans-Serif" font-size="10.00">Provider</text>
<text text-anchor="start" x="34.38" y="-742.5" font-family="Helvetica,sans-Serif" font-size="10.00">#</text>
<text text-anchor="start" x="46" y="-742.5" font-family="Helvetica,sans-Serif" font-size="10.00">wrapped_provider</text>
<text text-anchor="start" x="34" y="-727.5" font-family="Helvetica,sans-Serif" font-size="10.00">+</text>
<text text-anchor="start" x="46" y="-727.5" font-family="Helvetica,sans-Serif" font-size="10.00">WrappedDataProvider()</text>
<text text-anchor="start" x="34" y="-712.5" font-family="Helvetica,sans-Serif" font-size="10.00">+</text>
<text text-anchor="start" x="46" y="-712.5" font-family="Helvetica,sans-Serif" font-size="10.00">WrappedDataProvider()</text>
<text text-anchor="start" x="34" y="-697.5" font-family="Helvetica,sans-Serif" font-size="10.00">+</text>
<text text-anchor="start" x="46" y="-697.5" font-family="Helvetica,sans-Serif" font-size="10.00">WrappedDataProvider()</text>
<text text-anchor="start" x="34" y="-682.5" font-family="Helvetica,sans-Serif" font-size="10.00">+</text>
<text text-anchor="start" x="46" y="-682.5" font-family="Helvetica,sans-Serif" font-size="10.00">get_available_variable</text>
<text text-anchor="start" x="46" y="-671.25" font-family="Helvetica,sans-Serif" font-size="10.00">_names()</text>
<text text-anchor="start" x="34" y="-656.5" font-family="Helvetica,sans-Serif" font-size="10.00">+</text>
<text text-anchor="start" x="46" y="-656.5" font-family="Helvetica,sans-Serif" font-size="10.00">get_data_start_time()</text>
<text text-anchor="start" x="34" y="-641.5" font-family="Helvetica,sans-Serif" font-size="10.00">+</text>
<text text-anchor="start" x="46" y="-641.5" font-family="Helvetica,sans-Serif" font-size="10.00">get_data_stop_time()</text>
<text text-anchor="start" x="34" y="-626.5" font-family="Helvetica,sans-Serif" font-size="10.00">+</text>
<text text-anchor="start" x="46" y="-626.5" font-family="Helvetica,sans-Serif" font-size="10.00">record_duration()</text>
<text text-anchor="start" x="34" y="-611.5" font-family="Helvetica,sans-Serif" font-size="10.00">+</text>
<text text-anchor="start" x="46" y="-611.5" font-family="Helvetica,sans-Serif" font-size="10.00">get_ts_index_for_time()</text>
<text text-anchor="start" x="34" y="-596.5" font-family="Helvetica,sans-Serif" font-size="10.00">+</text>
<text text-anchor="start" x="46" y="-596.5" font-family="Helvetica,sans-Serif" font-size="10.00">get_value()</text>
<text text-anchor="start" x="34" y="-581.5" font-family="Helvetica,sans-Serif" font-size="10.00">+</text>
<text text-anchor="start" x="46" y="-581.5" font-family="Helvetica,sans-Serif" font-size="10.00">get_values()</text>
<text text-anchor="start" x="34" y="-566.5" font-family="Helvetica,sans-Serif" font-size="10.00">+</text>
<text text-anchor="start" x="46" y="-566.5" font-family="Helvetica,sans-Serif" font-size="10.00">is_property_sum_over</text>
<text text-anchor="start" x="46" y="-555.25" font-family="Helvetica,sans-Serif" font-size="10.00">_time_step()</text>
<polygon fill="#666666" stroke="#666666" points="28,-754 28,-754 156,-754 156,-754 28,-754"/>
<polygon fill="#666666" stroke="#666666" points="28,-739 28,-739 44,-739 44,-739 28,-739"/>
<polygon fill="#666666" stroke="#666666" points="44,-739 44,-739 156,-739 156,-739 44,-739"/>
<polygon fill="none" stroke="#666666" points="28,-550 28,-782 156,-782 156,-550 28,-550"/>
</a>
</g>
</g>
<!-- Node2&#45;&gt;Node1 -->
<g id="edge1_Node000001_Node000002" class="edge">
<title>Node2&#45;&gt;Node1</title>
<g id="a_edge1_Node000001_Node000002"><a xlink:title=" ">
<path fill="none" stroke="#63b8ff" d="M92,-538.67C92,-530.02 92,-521.38 92,-512.94"/>
<polygon fill="none" stroke="#63b8ff" points="88.5,-538.54 92,-548.54 95.5,-538.54 88.5,-538.54"/>
</a>
</g>
</g>
<!-- Node3 -->
<g id="Node000003" class="node">
<title>Node3</title>
<g id="a_Node000003"><a xlink:href="classdata__access_1_1_generic_data_provider.html" target="_top" xlink:title=" ">
<polygon fill="white" stroke="none" points="154,-879 30,-879 30,-819 154,-819 154,-879"/>
<text text-anchor="start" x="35" y="-865.5" font-family="Helvetica,sans-Serif" font-size="10.00">data_access::GenericData</text>
<text text-anchor="start" x="74" y="-854.25" font-family="Helvetica,sans-Serif" font-size="10.00">Provider</text>
<text text-anchor="start" x="90.5" y="-839.5" font-family="Helvetica,sans-Serif" font-size="10.00"> </text>
<text text-anchor="start" x="90.5" y="-824.5" font-family="Helvetica,sans-Serif" font-size="10.00"> </text>
<polygon fill="#666666" stroke="#666666" points="30,-851 30,-851 154,-851 154,-851 30,-851"/>
<polygon fill="#666666" stroke="#666666" points="30,-836 30,-836 154,-836 154,-836 30,-836"/>
<polygon fill="none" stroke="#666666" points="30,-819 30,-879 154,-879 154,-819 30,-819"/>
</a>
</g>
</g>
<!-- Node3&#45;&gt;Node2 -->
<g id="edge2_Node000002_Node000003" class="edge">
<title>Node3&#45;&gt;Node2</title>
<g id="a_edge2_Node000002_Node000003"><a xlink:title=" ">
<path fill="none" stroke="#63b8ff" d="M92,-808.05C92,-799.93 92,-791.02 92,-781.74"/>
<polygon fill="none" stroke="#63b8ff" points="88.5,-807.81 92,-817.81 95.5,-807.81 88.5,-807.81"/>
</a>
</g>
</g>
<!-- Node4 -->
<g id="Node000004" class="node">
<title>Node4</title>
<g id="a_Node000004"><a xlink:href="classdata__access_1_1_data_provider.html" target="_top" xlink:title=" ">
<polygon fill="white" stroke="none" points="184,-1118 0,-1118 0,-916 184,-916 184,-1118"/>
<text text-anchor="start" x="5" y="-1104.5" font-family="Helvetica,sans-Serif" font-size="10.00">data_access::DataProvider</text>
<text text-anchor="start" x="5" y="-1093.25" font-family="Helvetica,sans-Serif" font-size="10.00">&lt; double, CatchmentAggrDataSelector &gt;</text>
<text text-anchor="start" x="90.5" y="-1078.5" font-family="Helvetica,sans-Serif" font-size="10.00"> </text>
<text text-anchor="start" x="20" y="-1063.5" font-family="Helvetica,sans-Serif" font-size="10.00">+</text>
<text text-anchor="start" x="46" y="-1063.5" font-family="Helvetica,sans-Serif" font-size="10.00">~DataProvider()</text>
<text text-anchor="start" x="20" y="-1048.5" font-family="Helvetica,sans-Serif" font-size="10.00">+</text>
<text text-anchor="start" x="46" y="-1048.5" font-family="Helvetica,sans-Serif" font-size="10.00">get_available_variable</text>
<text text-anchor="start" x="46" y="-1037.25" font-family="Helvetica,sans-Serif" font-size="10.00">_names()</text>
<text text-anchor="start" x="20" y="-1022.5" font-family="Helvetica,sans-Serif" font-size="10.00">+</text>
<text text-anchor="start" x="46" y="-1022.5" font-family="Helvetica,sans-Serif" font-size="10.00">get_data_start_time()</text>
<text text-anchor="start" x="20" y="-1007.5" font-family="Helvetica,sans-Serif" font-size="10.00">+</text>
<text text-anchor="start" x="46" y="-1007.5" font-family="Helvetica,sans-Serif" font-size="10.00">get_data_stop_time()</text>
<text text-anchor="start" x="20" y="-992.5" font-family="Helvetica,sans-Serif" font-size="10.00">+</text>
<text text-anchor="start" x="46" y="-992.5" font-family="Helvetica,sans-Serif" font-size="10.00">record_duration()</text>
<text text-anchor="start" x="20" y="-977.5" font-family="Helvetica,sans-Serif" font-size="10.00">+</text>
<text text-anchor="start" x="46" y="-977.5" font-family="Helvetica,sans-Serif" font-size="10.00">get_ts_index_for_time()</text>
<text text-anchor="start" x="20" y="-962.5" font-family="Helvetica,sans-Serif" font-size="10.00">+</text>
<text text-anchor="start" x="46" y="-962.5" font-family="Helvetica,sans-Serif" font-size="10.00">get_value()</text>
<text text-anchor="start" x="20" y="-947.5" font-family="Helvetica,sans-Serif" font-size="10.00">+</text>
<text text-anchor="start" x="46" y="-947.5" font-family="Helvetica,sans-Serif" font-size="10.00">get_values()</text>
<text text-anchor="start" x="20" y="-932.5" font-family="Helvetica,sans-Serif" font-size="10.00">+</text>
<text text-anchor="start" x="46" y="-932.5" font-family="Helvetica,sans-Serif" font-size="10.00">is_property_sum_over</text>
<text text-anchor="start" x="46" y="-921.25" font-family="Helvetica,sans-Serif" font-size="10.00">_time_step()</text>
<polygon fill="#666666" stroke="#666666" points="0,-1090 0,-1090 184,-1090 184,-1090 0,-1090"/>
<polygon fill="#666666" stroke="#666666" points="0,-1075 0,-1075 184,-1075 184,-1075 0,-1075"/>
<polygon fill="none" stroke="#666666" points="0,-916 0,-1118 184,-1118 184,-916 0,-916"/>
</a>
</g>
</g>
<!-- Node4&#45;&gt;Node3 -->
<g id="edge3_Node000003_Node000004" class="edge">
<title>Node4&#45;&gt;Node3</title>
<g id="a_edge3_Node000003_Node000004"><a xlink:title=" ">
<path fill="none" stroke="#63b8ff" d="M92,-904.8C92,-895.37 92,-886.49 92,-878.74"/>
<polygon fill="none" stroke="#63b8ff" points="88.5,-904.57 92,-914.57 95.5,-904.57 88.5,-904.57"/>
</a>
</g>
</g>
<!-- Node5 -->
<g id="Node000005" class="node">
<title>Node5</title>
<g id="a_Node000005"><a xlink:href="classdata__access_1_1_data_provider.html" target="_top" xlink:title=" ">
<polygon fill="white" stroke="none" points="160,-1378.5 24,-1378.5 24,-1176.5 160,-1176.5 160,-1378.5"/>
<text text-anchor="start" x="29" y="-1365" font-family="Helvetica,sans-Serif" font-size="10.00">data_access::DataProvider</text>
<text text-anchor="start" x="29" y="-1353.75" font-family="Helvetica,sans-Serif" font-size="10.00">&lt; data_type, selection_type &gt;</text>
<text text-anchor="start" x="90.5" y="-1339" font-family="Helvetica,sans-Serif" font-size="10.00"> </text>
<text text-anchor="start" x="32" y="-1324" font-family="Helvetica,sans-Serif" font-size="10.00">+</text>
<text text-anchor="start" x="46" y="-1324" font-family="Helvetica,sans-Serif" font-size="10.00">~DataProvider()</text>
<text text-anchor="start" x="32" y="-1309" font-family="Helvetica,sans-Serif" font-size="10.00">+</text>
<text text-anchor="start" x="46" y="-1309" font-family="Helvetica,sans-Serif" font-size="10.00">get_available_variable</text>
<text text-anchor="start" x="46" y="-1297.75" font-family="Helvetica,sans-Serif" font-size="10.00">_names()</text>
<text text-anchor="start" x="32" y="-1283" font-family="Helvetica,sans-Serif" font-size="10.00">+</text>
<text text-anchor="start" x="46" y="-1283" font-family="Helvetica,sans-Serif" font-size="10.00">get_data_start_time()</text>
<text text-anchor="start" x="32" y="-1268" font-family="Helvetica,sans-Serif" font-size="10.00">+</text>
<text text-anchor="start" x="46" y="-1268" font-family="Helvetica,sans-Serif" font-size="10.00">get_data_stop_time()</text>
<text text-anchor="start" x="32" y="-1253" font-family="Helvetica,sans-Serif" font-size="10.00">+</text>
<text text-anchor="start" x="46" y="-1253" font-family="Helvetica,sans-Serif" font-size="10.00">record_duration()</text>
<text text-anchor="start" x="32" y="-1238" font-family="Helvetica,sans-Serif" font-size="10.00">+</text>
<text text-anchor="start" x="46" y="-1238" font-family="Helvetica,sans-Serif" font-size="10.00">get_ts_index_for_time()</text>
<text text-anchor="start" x="32" y="-1223" font-family="Helvetica,sans-Serif" font-size="10.00">+</text>
<text text-anchor="start" x="46" y="-1223" font-family="Helvetica,sans-Serif" font-size="10.00">get_value()</text>
<text text-anchor="start" x="32" y="-1208" font-family="Helvetica,sans-Serif" font-size="10.00">+</text>
<text text-anchor="start" x="46" y="-1208" font-family="Helvetica,sans-Serif" font-size="10.00">get_values()</text>
<text text-anchor="start" x="32" y="-1193" font-family="Helvetica,sans-Serif" font-size="10.00">+</text>
<text text-anchor="start" x="46" y="-1193" font-family="Helvetica,sans-Serif" font-size="10.00">is_property_sum_over</text>
<text text-anchor="start" x="46" y="-1181.75" font-family="Helvetica,sans-Serif" font-size="10.00">_time_step()</text>
<polygon fill="#666666" stroke="#666666" points="24,-1350.5 24,-1350.5 160,-1350.5 160,-1350.5 24,-1350.5"/>
<polygon fill="#666666" stroke="#666666" points="24,-1335.5 24,-1335.5 160,-1335.5 160,-1335.5 24,-1335.5"/>
<polygon fill="none" stroke="#666666" points="24,-1176.5 24,-1378.5 160,-1378.5 160,-1176.5 24,-1176.5"/>
</a>
</g>
</g>
<!-- Node5&#45;&gt;Node4 -->
<g id="edge4_Node000004_Node000005" class="edge">
<title>Node5&#45;&gt;Node4</title>
<g id="a_edge4_Node000004_Node000005"><a xlink:title=" ">
<path fill="none" stroke="orange" d="M92,-1165.14C92,-1149.36 92,-1133.22 92,-1117.68"/>
<polygon fill="orange" stroke="orange" points="88.5,-1165.04 92,-1175.04 95.5,-1165.04 88.5,-1165.04"/>
</a>
</g>
<text text-anchor="start" x="92" y="-1149" font-family="Helvetica,sans-Serif" font-size="10.00" fill="grey"> &lt; double, CatchmentAggrData</text>
<text text-anchor="middle" x="158" y="-1137.75" font-family="Helvetica,sans-Serif" font-size="10.00" fill="grey">Selector &gt;</text>
</g>
</g>
</svg>
