<?xml version="1.0" encoding="UTF-8" standalone="no"?>
<!DOCTYPE svg PUBLIC "-//W3C//DTD SVG 1.1//EN"
 "http://www.w3.org/Graphics/SVG/1.1/DTD/svg11.dtd">
<!-- Generated by graphviz version 7.0.5 (20221223.1930)
 -->
<!-- Title: HY_CatchmentArea Pages: 1 -->
<svg width="950pt" height="1249pt"
 viewBox="0.00 0.00 950.00 1249.00" xmlns="http://www.w3.org/2000/svg" xmlns:xlink="http://www.w3.org/1999/xlink">
<g id="graph0" class="graph" transform="scale(1 1) rotate(0) translate(4 1245)">
<title>HY_CatchmentArea</title>
<!-- Node1 -->
<g id="node1" class="node">
<title>Node1</title>
<g id="a_node1"><a xlink:title=" ">
<polygon fill="#999999" stroke="#666666" points="540.5,-316 417.5,-316 417.5,-220 540.5,-220 540.5,-316"/>
<text text-anchor="middle" x="479" y="-304" font-family="Helvetica,sans-Serif" font-size="10.00">{HY_CatchmentArea</text>
<text text-anchor="start" x="425.5" y="-293" font-family="Helvetica,sans-Serif" font-size="10.00">|# bounds</text>
<text text-anchor="start" x="425.5" y="-282" font-family="Helvetica,sans-Serif" font-size="10.00">|+ HY_CatchmentArea()</text>
<text text-anchor="start" x="425.5" y="-271" font-family="Helvetica,sans-Serif" font-size="10.00">+ HY_CatchmentArea()</text>
<text text-anchor="start" x="425.5" y="-260" font-family="Helvetica,sans-Serif" font-size="10.00">+ set_output_stream()</text>
<text text-anchor="start" x="425.5" y="-249" font-family="Helvetica,sans-Serif" font-size="10.00">+ write_output()</text>
<text text-anchor="start" x="425.5" y="-238" font-family="Helvetica,sans-Serif" font-size="10.00">+ ~HY_CatchmentArea()</text>
<text text-anchor="middle" x="479" y="-227" font-family="Helvetica,sans-Serif" font-size="10.00">}</text>
</a>
</g>
</g>
<!-- Node2 -->
<g id="node2" class="node">
<title>Node2</title>
<g id="a_node2"><a xlink:href="class_h_y___catchment_realization.html" target="_top" xlink:title=" ">
<polygon fill="white" stroke="#666666" points="292,-530.5 142,-530.5 142,-423.5 292,-423.5 292,-530.5"/>
<text text-anchor="middle" x="217" y="-518.5" font-family="Helvetica,sans-Serif" font-size="10.00">{HY_CatchmentRealization</text>
<text text-anchor="start" x="150" y="-507.5" font-family="Helvetica,sans-Serif" font-size="10.00">|# id_number</text>
<text text-anchor="start" x="150" y="-496.5" font-family="Helvetica,sans-Serif" font-size="10.00">|+ HY_CatchmentRealization()</text>
<text text-anchor="start" x="150" y="-485.5" font-family="Helvetica,sans-Serif" font-size="10.00">+ HY_CatchmentRealization()</text>
<text text-anchor="start" x="150" y="-474.5" font-family="Helvetica,sans-Serif" font-size="10.00">+ ~HY_CatchmentRealization()</text>
<text text-anchor="start" x="150" y="-463.5" font-family="Helvetica,sans-Serif" font-size="10.00">+ get_response()</text>
<text text-anchor="start" x="150" y="-452.5" font-family="Helvetica,sans-Serif" font-size="10.00"># get_catchment_id()</text>
<text text-anchor="start" x="150" y="-441.5" font-family="Helvetica,sans-Serif" font-size="10.00"># set_catchment_id()</text>
<text text-anchor="middle" x="217" y="-430.5" font-family="Helvetica,sans-Serif" font-size="10.00">}</text>
</a>
</g>
</g>
<!-- Node2&#45;&gt;Node1 -->
<g id="edge1" class="edge">
<title>Node2&#45;&gt;Node1</title>
<path fill="none" stroke="#63b8ff" d="M289.86,-415.94C293.62,-412.91 297.35,-409.91 301,-407 339.36,-376.39 382.88,-342.63 417.29,-316.16"/>
<polygon fill="none" stroke="#63b8ff" points="287.8,-413.11 282.23,-422.12 292.21,-418.55 287.8,-413.11"/>
</g>
<!-- Node6 -->
<g id="node6" class="node">
<title>Node6</title>
<g id="a_node6"><a xlink:title=" ">
<polygon fill="white" stroke="#666666" points="266.5,-294 141.5,-294 141.5,-242 266.5,-242 266.5,-294"/>
<text text-anchor="start" x="149.5" y="-282" font-family="Helvetica,sans-Serif" font-size="10.00">{std::shared_ptr&lt; HY</text>
<text text-anchor="middle" x="204" y="-271" font-family="Helvetica,sans-Serif" font-size="10.00">_CatchmentRealization &gt;</text>
<text text-anchor="start" x="149.5" y="-260" font-family="Helvetica,sans-Serif" font-size="10.00">||+ operator&#45;&gt;()</text>
<text text-anchor="middle" x="204" y="-249" font-family="Helvetica,sans-Serif" font-size="10.00">}</text>
</a>
</g>
</g>
<!-- Node2&#45;&gt;Node6 -->
<g id="edge6" class="edge">
<title>Node2&#45;&gt;Node6</title>
<path fill="none" stroke="#404040" d="M213.69,-423.23C211.42,-387.07 208.45,-339.94 206.41,-307.34"/>
<polygon fill="none" stroke="#404040" points="206.4,-307.21 202.03,-301.47 205.65,-295.23 210.02,-300.97 206.4,-307.21"/>
<text text-anchor="middle" x="222" y="-359" font-family="Helvetica,sans-Serif" font-size="10.00"> +ptr</text>
</g>
<!-- Node3 -->
<g id="node3" class="node">
<title>Node3</title>
<g id="a_node3"><a xlink:title=" ">
<polygon fill="white" stroke="#666666" points="154,-52 48,-52 48,0 154,0 154,-52"/>
<text text-anchor="start" x="56" y="-40" font-family="Helvetica,sans-Serif" font-size="10.00">{std::shared_ptr&lt; HY</text>
<text text-anchor="middle" x="101" y="-29" font-family="Helvetica,sans-Serif" font-size="10.00">_Catchment &gt;</text>
<text text-anchor="start" x="56" y="-18" font-family="Helvetica,sans-Serif" font-size="10.00">||+ operator&#45;&gt;()</text>
<text text-anchor="middle" x="101" y="-7" font-family="Helvetica,sans-Serif" font-size="10.00">}</text>
</a>
</g>
</g>
<!-- Node3&#45;&gt;Node2 -->
<g id="edge2" class="edge">
<title>Node3&#45;&gt;Node2</title>
<path fill="none" stroke="#404040" d="M100.53,-52.38C100.26,-103.49 103.15,-221.93 132,-316 142.22,-349.32 159.51,-383.76 175.84,-412.12"/>
<polygon fill="none" stroke="#404040" points="175.74,-411.95 182.23,-415.1 181.82,-422.3 175.33,-419.15 175.74,-411.95"/>
<text text-anchor="middle" x="155" y="-194" font-family="Helvetica,sans-Serif" font-size="10.00"> #realized_catchment</text>
</g>
<!-- Node4 -->
<g id="node4" class="node">
<title>Node4</title>
<g id="a_node4"><a xlink:href="class_h_y___catchment.html" target="_top" xlink:title=" ">
<polygon fill="white" stroke="#666666" points="526,-173 404,-173 404,-99 526,-99 526,-173"/>
<text text-anchor="middle" x="465" y="-161" font-family="Helvetica,sans-Serif" font-size="10.00">{HY_Catchment</text>
<text text-anchor="start" x="412" y="-150" font-family="Helvetica,sans-Serif" font-size="10.00">||+ HY_Catchment()</text>
<text text-anchor="start" x="412" y="-139" font-family="Helvetica,sans-Serif" font-size="10.00">+ HY_Catchment()</text>
<text text-anchor="start" x="412" y="-128" font-family="Helvetica,sans-Serif" font-size="10.00">+ ~HY_Catchment()</text>
<text text-anchor="start" x="412" y="-117" font-family="Helvetica,sans-Serif" font-size="10.00">+ get_outflow_nexuses()</text>
<text text-anchor="middle" x="465" y="-106" font-family="Helvetica,sans-Serif" font-size="10.00">}</text>
</a>
</g>
</g>
<!-- Node4&#45;&gt;Node3 -->
<g id="edge3" class="edge">
<title>Node4&#45;&gt;Node3</title>
<path fill="none" stroke="#404040" d="M403.66,-116.8C337.86,-97.28 233.75,-66.39 166.41,-46.41"/>
<polygon fill="none" stroke="#404040" points="166.65,-46.48 159.76,-48.61 155.15,-43.07 162.04,-40.94 166.65,-46.48"/>
<text text-anchor="middle" x="293" y="-73" font-family="Helvetica,sans-Serif" font-size="10.00"> +ptr</text>
</g>
<!-- Node5 -->
<g id="node5" class="node">
<title>Node5</title>
<g id="a_node5"><a xlink:href="class_h_y___hydro_feature.html" target="_top" xlink:title=" ">
<polygon fill="white" stroke="#666666" points="399,-294 285,-294 285,-242 399,-242 399,-294"/>
<text text-anchor="middle" x="342" y="-282" font-family="Helvetica,sans-Serif" font-size="10.00">{HY_HydroFeature</text>
<text text-anchor="start" x="293" y="-271" font-family="Helvetica,sans-Serif" font-size="10.00">||+ HY_HydroFeature()</text>
<text text-anchor="start" x="293" y="-260" font-family="Helvetica,sans-Serif" font-size="10.00">+ ~HY_HydroFeature()</text>
<text text-anchor="middle" x="342" y="-249" font-family="Helvetica,sans-Serif" font-size="10.00">}</text>
</a>
</g>
</g>
<!-- Node5&#45;&gt;Node4 -->
<g id="edge4" class="edge">
<title>Node5&#45;&gt;Node4</title>
<path fill="none" stroke="#63b8ff" d="M373.72,-233.48C391.21,-214.99 412.94,-192.02 430.81,-173.13"/>
<polygon fill="none" stroke="#63b8ff" points="371.38,-230.86 367.05,-240.53 376.46,-235.67 371.38,-230.86"/>
</g>
<!-- Node6&#45;&gt;Node4 -->
<g id="edge5" class="edge">
<title>Node6&#45;&gt;Node4</title>
<path fill="none" stroke="#404040" d="M240.29,-241.65C251.5,-234.27 264.05,-226.47 276,-220 313.24,-199.85 356.36,-180.62 392,-165.75"/>
<polygon fill="none" stroke="#404040" points="391.86,-165.81 395.88,-159.82 402.95,-161.23 398.93,-167.22 391.86,-165.81"/>
<text text-anchor="middle" x="358" y="-194" font-family="Helvetica,sans-Serif" font-size="10.00"> +realization</text>
</g>
<!-- Node7 -->
<g id="node7" class="node">
<title>Node7</title>
<g id="a_node7"><a xlink:title=" ">
<polygon fill="white" stroke="#666666" points="200,-745 94,-745 94,-704 200,-704 200,-745"/>
<text text-anchor="middle" x="147" y="-733" font-family="Helvetica,sans-Serif" font-size="10.00">{std::shared_ptr&lt; T &gt;</text>
<text text-anchor="start" x="102" y="-722" font-family="Helvetica,sans-Serif" font-size="10.00">||+ operator&#45;&gt;()</text>
<text text-anchor="middle" x="147" y="-711" font-family="Helvetica,sans-Serif" font-size="10.00">}</text>
</a>
</g>
</g>
<!-- Node7&#45;&gt;Node3 -->
<g id="edge18" class="edge">
<title>Node7&#45;&gt;Node3</title>
<path fill="none" stroke="orange" d="M82.76,-705.87C43.2,-690.66 0,-664.18 0,-621 0,-621 0,-621 0,-135 0,-99.7 29.14,-71.16 56.11,-52.31"/>
<polygon fill="orange" stroke="orange" points="81.5,-709.13 92.09,-709.25 83.88,-702.55 81.5,-709.13"/>
<text text-anchor="middle" x="43" y="-359" font-family="Helvetica,sans-Serif" font-size="10.00"> &lt; HY_Catchment &gt;</text>
</g>
<!-- Node7&#45;&gt;Node6 -->
<g id="edge7" class="edge">
<title>Node7&#45;&gt;Node6</title>
<path fill="none" stroke="orange" d="M137.25,-692.9C128.38,-663.34 115.95,-617.12 111,-576 101.96,-500.8 110.13,-479.21 133,-407 146.18,-365.39 171.11,-321.18 187.64,-294.32"/>
<polygon fill="orange" stroke="orange" points="133.85,-693.75 140.13,-702.29 140.55,-691.7 133.85,-693.75"/>
<text text-anchor="middle" x="177.5" y="-568" font-family="Helvetica,sans-Serif" font-size="10.00"> &lt; HY_CatchmentRealization &gt;</text>
</g>
<!-- Node14 -->
<g id="node14" class="node">
<title>Node14</title>
<g id="a_node14"><a xlink:title=" ">
<polygon fill="white" stroke="#666666" points="314,-646 158,-646 158,-594 314,-594 314,-646"/>
<text text-anchor="start" x="166" y="-634" font-family="Helvetica,sans-Serif" font-size="10.00">{std::shared_ptr&lt; data</text>
<text text-anchor="middle" x="236" y="-623" font-family="Helvetica,sans-Serif" font-size="10.00">_access::GenericDataProvider &gt;</text>
<text text-anchor="start" x="166" y="-612" font-family="Helvetica,sans-Serif" font-size="10.00">||+ operator&#45;&gt;()</text>
<text text-anchor="middle" x="236" y="-601" font-family="Helvetica,sans-Serif" font-size="10.00">}</text>
</a>
</g>
</g>
<!-- Node7&#45;&gt;Node14 -->
<g id="edge23" class="edge">
<title>Node7&#45;&gt;Node14</title>
<path fill="none" stroke="orange" d="M141.44,-692.19C141.25,-682.51 142.76,-672.24 148,-664 152.38,-657.11 158.21,-651.3 164.8,-646.39"/>
<polygon fill="orange" stroke="orange" points="137.94,-692.33 142.24,-702.01 144.91,-691.76 137.94,-692.33"/>
<text text-anchor="start" x="148" y="-678" font-family="Helvetica,sans-Serif" font-size="10.00"> &lt; data_access::GenericData</text>
<text text-anchor="middle" x="210.5" y="-667" font-family="Helvetica,sans-Serif" font-size="10.00">Provider &gt;</text>
</g>
<!-- Node20 -->
<g id="node20" class="node">
<title>Node20</title>
<g id="a_node20"><a xlink:title=" ">
<polygon fill="white" stroke="#666666" points="437.5,-646 332.5,-646 332.5,-594 437.5,-594 437.5,-646"/>
<text text-anchor="start" x="340.5" y="-634" font-family="Helvetica,sans-Serif" font-size="10.00">{std::shared_ptr&lt; std</text>
<text text-anchor="middle" x="385" y="-623" font-family="Helvetica,sans-Serif" font-size="10.00">::ostream &gt;</text>
<text text-anchor="start" x="340.5" y="-612" font-family="Helvetica,sans-Serif" font-size="10.00">||+ operator&#45;&gt;()</text>
<text text-anchor="middle" x="385" y="-601" font-family="Helvetica,sans-Serif" font-size="10.00">}</text>
</a>
</g>
</g>
<!-- Node7&#45;&gt;Node20 -->
<g id="edge31" class="edge">
<title>Node7&#45;&gt;Node20</title>
<path fill="none" stroke="orange" d="M211.43,-711.84C232.18,-706.18 254.56,-697.92 273,-686 283.85,-678.99 281.68,-671.78 292,-664 299.25,-658.54 315.48,-650.61 332.39,-643.03"/>
<polygon fill="orange" stroke="orange" points="210.73,-708.41 201.9,-714.28 212.46,-715.19 210.73,-708.41"/>
<text text-anchor="middle" x="328.5" y="-672.5" font-family="Helvetica,sans-Serif" font-size="10.00"> &lt; std::ostream &gt;</text>
</g>
<!-- Node8 -->
<g id="node8" class="node">
<title>Node8</title>
<g id="a_node8"><a xlink:title=" ">
<polygon fill="white" stroke="#666666" points="507.5,-888 478.5,-888 478.5,-858 507.5,-858 507.5,-888"/>
<text text-anchor="middle" x="493" y="-876" font-family="Helvetica,sans-Serif" font-size="10.00">{T</text>
<text text-anchor="middle" x="493" y="-865" font-family="Helvetica,sans-Serif" font-size="10.00">||}</text>
</a>
</g>
</g>
<!-- Node8&#45;&gt;Node7 -->
<g id="edge8" class="edge">
<title>Node8&#45;&gt;Node7</title>
<path fill="none" stroke="#404040" d="M492.9,-857.57C491.96,-839.52 487.5,-808.94 469,-792 450.26,-774.84 301.82,-749.38 213.17,-735.47"/>
<polygon fill="none" stroke="#404040" points="213.03,-735.45 206.48,-738.48 201.17,-733.6 207.71,-730.57 213.03,-735.45"/>
<text text-anchor="middle" x="429" y="-766" font-family="Helvetica,sans-Serif" font-size="10.00"> +ptr</text>
</g>
<!-- Node12 -->
<g id="node12" class="node">
<title>Node12</title>
<g id="a_node12"><a xlink:title=" ">
<polygon fill="white" stroke="#666666" points="557.5,-635 470.5,-635 470.5,-605 557.5,-605 557.5,-635"/>
<text text-anchor="middle" x="514" y="-623" font-family="Helvetica,sans-Serif" font-size="10.00">{std::vector&lt; T &gt;</text>
<text text-anchor="middle" x="514" y="-612" font-family="Helvetica,sans-Serif" font-size="10.00">||}</text>
</a>
</g>
</g>
<!-- Node8&#45;&gt;Node12 -->
<g id="edge14" class="edge">
<title>Node8&#45;&gt;Node12</title>
<path fill="none" stroke="#404040" d="M493.51,-857.59C494.61,-828.5 497.56,-760.72 503,-704 504.79,-685.31 507.58,-664.35 509.89,-648.17"/>
<polygon fill="none" stroke="#404040" points="509.9,-648.12 506.82,-641.61 511.65,-636.25 514.73,-642.77 509.9,-648.12"/>
<text text-anchor="middle" x="527.5" y="-722" font-family="Helvetica,sans-Serif" font-size="10.00"> +elements</text>
</g>
<!-- Node9 -->
<g id="node9" class="node">
<title>Node9</title>
<g id="a_node9"><a xlink:title=" ">
<polygon fill="white" stroke="#666666" points="760,-635 698,-635 698,-605 760,-605 760,-635"/>
<text text-anchor="middle" x="729" y="-623" font-family="Helvetica,sans-Serif" font-size="10.00">{std::string</text>
<text text-anchor="middle" x="729" y="-612" font-family="Helvetica,sans-Serif" font-size="10.00">||}</text>
</a>
</g>
</g>
<!-- Node9&#45;&gt;Node4 -->
<g id="edge9" class="edge">
<title>Node9&#45;&gt;Node4</title>
<path fill="none" stroke="#404040" d="M754.83,-604.63C773.76,-592.27 797.41,-572.43 805,-547 846.69,-407.3 874.4,-330.24 779,-220 747.92,-184.08 621.74,-159.49 539.1,-146.87"/>
<polygon fill="none" stroke="#404040" points="538.99,-146.86 532.47,-149.93 527.12,-145.09 533.65,-142.02 538.99,-146.86"/>
<text text-anchor="middle" x="892.5" y="-381" font-family="Helvetica,sans-Serif" font-size="10.00"> &#45;conjoint_catchment</text>
<text text-anchor="middle" x="892.5" y="-370" font-family="Helvetica,sans-Serif" font-size="10.00">&#45;containing_catchment</text>
<text text-anchor="middle" x="892.5" y="-359" font-family="Helvetica,sans-Serif" font-size="10.00">&#45;id</text>
<text text-anchor="middle" x="892.5" y="-348" font-family="Helvetica,sans-Serif" font-size="10.00">&#45;lower_catchment</text>
<text text-anchor="middle" x="892.5" y="-337" font-family="Helvetica,sans-Serif" font-size="10.00">&#45;upper_catchment</text>
</g>
<!-- Node11 -->
<g id="node11" class="node">
<title>Node11</title>
<g id="a_node11"><a xlink:title=" ">
<polygon fill="white" stroke="#666666" points="795.5,-492 686.5,-492 686.5,-462 795.5,-462 795.5,-492"/>
<text text-anchor="middle" x="741" y="-480" font-family="Helvetica,sans-Serif" font-size="10.00">{std::vector&lt; Nexus &gt;</text>
<text text-anchor="middle" x="741" y="-469" font-family="Helvetica,sans-Serif" font-size="10.00">||}</text>
</a>
</g>
</g>
<!-- Node9&#45;&gt;Node11 -->
<g id="edge12" class="edge">
<title>Node9&#45;&gt;Node11</title>
<path fill="none" stroke="#404040" d="M730.22,-604.7C732.2,-581.37 736.17,-534.74 738.7,-505.02"/>
<polygon fill="none" stroke="#404040" points="738.69,-505.19 735.21,-498.87 739.7,-493.23 743.18,-499.55 738.69,-505.19"/>
<text text-anchor="middle" x="757.5" y="-568" font-family="Helvetica,sans-Serif" font-size="10.00"> +elements</text>
</g>
<!-- Node13 -->
<g id="node13" class="node">
<title>Node13</title>
<g id="a_node13"><a xlink:title=" ">
<polygon fill="white" stroke="#666666" points="668,-492 540,-492 540,-462 668,-462 668,-492"/>
<text text-anchor="middle" x="604" y="-480" font-family="Helvetica,sans-Serif" font-size="10.00">{std::vector&lt; Catchment &gt;</text>
<text text-anchor="middle" x="604" y="-469" font-family="Helvetica,sans-Serif" font-size="10.00">||}</text>
</a>
</g>
</g>
<!-- Node9&#45;&gt;Node13 -->
<g id="edge16" class="edge">
<title>Node9&#45;&gt;Node13</title>
<path fill="none" stroke="#404040" d="M697.64,-617.77C668.33,-614.75 626.02,-605.22 605,-576 590.33,-555.61 592.25,-526.13 596.5,-504.84"/>
<polygon fill="none" stroke="#404040" points="596.52,-504.77 594.01,-498.01 599.28,-493.09 601.79,-499.85 596.52,-504.77"/>
<text text-anchor="middle" x="629.5" y="-568" font-family="Helvetica,sans-Serif" font-size="10.00"> +elements</text>
</g>
<!-- Node19 -->
<g id="node19" class="node">
<title>Node19</title>
<g id="a_node19"><a xlink:href="classutils_1_1_stream_handler.html" target="_top" xlink:title="This class provides a copyable interface to a std::ostream or std::ostream like object that may not s...">
<polygon fill="white" stroke="#666666" points="417.5,-547 310.5,-547 310.5,-407 417.5,-407 417.5,-547"/>
<text text-anchor="middle" x="364" y="-535" font-family="Helvetica,sans-Serif" font-size="10.00">{utils::StreamHandler</text>
<text text-anchor="start" x="318.5" y="-524" font-family="Helvetica,sans-Serif" font-size="10.00">||+ StreamHandler()</text>
<text text-anchor="start" x="318.5" y="-513" font-family="Helvetica,sans-Serif" font-size="10.00">+ StreamHandler()</text>
<text text-anchor="start" x="318.5" y="-502" font-family="Helvetica,sans-Serif" font-size="10.00">+ StreamHandler()</text>
<text text-anchor="start" x="318.5" y="-491" font-family="Helvetica,sans-Serif" font-size="10.00">+ StreamHandler()</text>
<text text-anchor="start" x="318.5" y="-480" font-family="Helvetica,sans-Serif" font-size="10.00">+ ~StreamHandler()</text>
<text text-anchor="start" x="318.5" y="-469" font-family="Helvetica,sans-Serif" font-size="10.00">+ operator=()</text>
<text text-anchor="start" x="318.5" y="-458" font-family="Helvetica,sans-Serif" font-size="10.00">+ put()</text>
<text text-anchor="start" x="318.5" y="-447" font-family="Helvetica,sans-Serif" font-size="10.00">+ put_indexed()</text>
<text text-anchor="start" x="318.5" y="-436" font-family="Helvetica,sans-Serif" font-size="10.00">+ put_var()</text>
<text text-anchor="start" x="318.5" y="-425" font-family="Helvetica,sans-Serif" font-size="10.00">+ operator&lt;&lt;()</text>
<text text-anchor="middle" x="364" y="-414" font-family="Helvetica,sans-Serif" font-size="10.00">}</text>
</a>
</g>
</g>
<!-- Node9&#45;&gt;Node19 -->
<g id="edge32" class="edge">
<title>Node9&#45;&gt;Node19</title>
<path fill="none" stroke="#404040" d="M697.64,-614.07C635.96,-604.28 503.08,-582.78 483,-576 459.56,-568.09 451.19,-564.84 427.95,-547.26"/>
<polygon fill="none" stroke="#404040" points="428.05,-547.34 420.85,-546.84 418.55,-540.01 425.74,-540.5 428.05,-547.34"/>
<text text-anchor="middle" x="495" y="-568" font-family="Helvetica,sans-Serif" font-size="10.00"> #sep</text>
</g>
<!-- Node10 -->
<g id="node10" class="node">
<title>Node10</title>
<g id="a_node10"><a xlink:title=" ">
<polygon fill="white" stroke="#666666" points="777,-745 681,-745 681,-704 777,-704 777,-745"/>
<text text-anchor="start" x="689" y="-733" font-family="Helvetica,sans-Serif" font-size="10.00">{std::basic_string&lt;</text>
<text text-anchor="middle" x="729" y="-722" font-family="Helvetica,sans-Serif" font-size="10.00"> Char &gt;</text>
<text text-anchor="middle" x="729" y="-711" font-family="Helvetica,sans-Serif" font-size="10.00">||}</text>
</a>
</g>
</g>
<!-- Node10&#45;&gt;Node9 -->
<g id="edge10" class="edge">
<title>Node10&#45;&gt;Node9</title>
<path fill="none" stroke="#63b8ff" d="M729,-692.34C729,-673.4 729,-650.12 729,-635.41"/>
<polygon fill="none" stroke="#63b8ff" points="725.5,-692.22 729,-702.22 732.5,-692.22 725.5,-692.22"/>
</g>
<!-- Node11&#45;&gt;Node4 -->
<g id="edge11" class="edge">
<title>Node11&#45;&gt;Node4</title>
<path fill="none" stroke="#404040" d="M742.72,-461.79C747.03,-419.48 753.85,-292.74 692,-220 653.99,-175.3 589.78,-154.67 539.33,-145.15"/>
<polygon fill="none" stroke="#404040" points="539.2,-145.13 532.61,-148.04 527.38,-143.06 533.98,-140.15 539.2,-145.13"/>
<text text-anchor="middle" x="755" y="-271" font-family="Helvetica,sans-Serif" font-size="10.00"> &#45;inflows</text>
<text text-anchor="middle" x="755" y="-260" font-family="Helvetica,sans-Serif" font-size="10.00">&#45;outflows</text>
</g>
<!-- Node12&#45;&gt;Node11 -->
<g id="edge13" class="edge">
<title>Node12&#45;&gt;Node11</title>
<path fill="none" stroke="orange" d="M568.84,-609.45C595.99,-602.98 628.34,-592.5 654,-576 688.83,-553.61 718.11,-513.52 732.12,-492.22"/>
<polygon fill="orange" stroke="orange" points="568.42,-605.96 559.43,-611.58 569.96,-612.79 568.42,-605.96"/>
<text text-anchor="middle" x="691.5" y="-568" font-family="Helvetica,sans-Serif" font-size="10.00"> &lt; Nexus &gt;</text>
</g>
<!-- Node12&#45;&gt;Node13 -->
<g id="edge17" class="edge">
<title>Node12&#45;&gt;Node13</title>
<path fill="none" stroke="orange" d="M510.53,-593.29C510.29,-584.04 511.23,-573.74 515,-565 517.01,-560.34 564.07,-515.6 588.92,-492.17"/>
<polygon fill="orange" stroke="orange" points="507.03,-593.4 511.27,-603.11 514.01,-592.87 507.03,-593.4"/>
<text text-anchor="middle" x="548.5" y="-568" font-family="Helvetica,sans-Serif" font-size="10.00"> &lt; Catchment &gt;</text>
</g>
<!-- Node13&#45;&gt;Node4 -->
<g id="edge15" class="edge">
<title>Node13&#45;&gt;Node4</title>
<path fill="none" stroke="#404040" d="M603.83,-461.69C602.78,-421.18 595.73,-303.19 550,-220 542.55,-206.44 532.17,-193.71 521.21,-182.47"/>
<polygon fill="none" stroke="#404040" points="521.16,-182.42 514.07,-181.09 512.57,-174.03 519.66,-175.36 521.16,-182.42"/>
<text text-anchor="middle" x="636" y="-265.5" font-family="Helvetica,sans-Serif" font-size="10.00"> &#45;contained_catchments</text>
</g>
<!-- Node14&#45;&gt;Node2 -->
<g id="edge19" class="edge">
<title>Node14&#45;&gt;Node2</title>
<path fill="none" stroke="#404040" d="M244.27,-593.77C245.82,-588 247.2,-581.84 248,-576 249.47,-565.26 248.5,-554.1 246.16,-543.33"/>
<polygon fill="none" stroke="#404040" points="246.17,-543.37 240.76,-538.6 243.08,-531.77 248.49,-536.54 246.17,-543.37"/>
<text text-anchor="middle" x="267.5" y="-568" font-family="Helvetica,sans-Serif" font-size="10.00"> #forcing</text>
</g>
<!-- Node15 -->
<g id="node15" class="node">
<title>Node15</title>
<g id="a_node15"><a xlink:href="classdata__access_1_1_generic_data_provider.html" target="_top" xlink:title=" ">
<polygon fill="white" stroke="#666666" points="445,-745 311,-745 311,-704 445,-704 445,-745"/>
<text text-anchor="start" x="319" y="-733" font-family="Helvetica,sans-Serif" font-size="10.00">{data_access::GenericData</text>
<text text-anchor="middle" x="378" y="-722" font-family="Helvetica,sans-Serif" font-size="10.00">Provider</text>
<text text-anchor="middle" x="378" y="-711" font-family="Helvetica,sans-Serif" font-size="10.00">||}</text>
</a>
</g>
</g>
<!-- Node15&#45;&gt;Node14 -->
<g id="edge20" class="edge">
<title>Node15&#45;&gt;Node14</title>
<path fill="none" stroke="#404040" d="M379.98,-703.67C380.16,-690.95 378.2,-674.83 369,-664 367.17,-661.84 349.03,-655.55 326.7,-648.43"/>
<polygon fill="none" stroke="#404040" points="326.63,-648.41 319.71,-650.42 315.19,-644.79 322.11,-642.79 326.63,-648.41"/>
<text text-anchor="middle" x="389" y="-672.5" font-family="Helvetica,sans-Serif" font-size="10.00"> +ptr</text>
</g>
<!-- Node16 -->
<g id="node16" class="node">
<title>Node16</title>
<g id="a_node16"><a xlink:href="classdata__access_1_1_data_provider.html" target="_top" xlink:title=" ">
<polygon fill="white" stroke="#666666" points="460.5,-954 269.5,-954 269.5,-792 460.5,-792 460.5,-954"/>
<text text-anchor="start" x="277.5" y="-942" font-family="Helvetica,sans-Serif" font-size="10.00">{data_access::DataProvider</text>
<text text-anchor="middle" x="365" y="-931" font-family="Helvetica,sans-Serif" font-size="10.00">&lt; double, CatchmentAggrDataSelector &gt;</text>
<text text-anchor="start" x="277.5" y="-920" font-family="Helvetica,sans-Serif" font-size="10.00">||+ ~DataProvider()</text>
<text text-anchor="start" x="277.5" y="-909" font-family="Helvetica,sans-Serif" font-size="10.00">+ get_avaliable_variable</text>
<text text-anchor="start" x="277.5" y="-898" font-family="Helvetica,sans-Serif" font-size="10.00">_names()</text>
<text text-anchor="start" x="277.5" y="-887" font-family="Helvetica,sans-Serif" font-size="10.00">+ get_data_start_time()</text>
<text text-anchor="start" x="277.5" y="-876" font-family="Helvetica,sans-Serif" font-size="10.00">+ get_data_stop_time()</text>
<text text-anchor="start" x="277.5" y="-865" font-family="Helvetica,sans-Serif" font-size="10.00">+ record_duration()</text>
<text text-anchor="start" x="277.5" y="-854" font-family="Helvetica,sans-Serif" font-size="10.00">+ get_ts_index_for_time()</text>
<text text-anchor="start" x="277.5" y="-843" font-family="Helvetica,sans-Serif" font-size="10.00">+ get_value()</text>
<text text-anchor="start" x="277.5" y="-832" font-family="Helvetica,sans-Serif" font-size="10.00">+ get_values()</text>
<text text-anchor="start" x="277.5" y="-821" font-family="Helvetica,sans-Serif" font-size="10.00">+ is_property_sum_over</text>
<text text-anchor="start" x="277.5" y="-810" font-family="Helvetica,sans-Serif" font-size="10.00">_time_step()</text>
<text text-anchor="middle" x="365" y="-799" font-family="Helvetica,sans-Serif" font-size="10.00">}</text>
</a>
</g>
</g>
<!-- Node16&#45;&gt;Node15 -->
<g id="edge21" class="edge">
<title>Node16&#45;&gt;Node15</title>
<path fill="none" stroke="#63b8ff" d="M373.11,-780.61C374.28,-767.37 375.39,-754.97 376.24,-745.3"/>
<polygon fill="none" stroke="#63b8ff" points="369.64,-780.11 372.24,-790.38 376.61,-780.73 369.64,-780.11"/>
</g>
<!-- Node17 -->
<g id="node17" class="node">
<title>Node17</title>
<g id="a_node17"><a xlink:href="classdata__access_1_1_data_provider.html" target="_top" xlink:title=" ">
<polygon fill="white" stroke="#666666" points="436.5,-1174 293.5,-1174 293.5,-1012 436.5,-1012 436.5,-1174"/>
<text text-anchor="start" x="301.5" y="-1162" font-family="Helvetica,sans-Serif" font-size="10.00">{data_access::DataProvider</text>
<text text-anchor="middle" x="365" y="-1151" font-family="Helvetica,sans-Serif" font-size="10.00">&lt; data_type, selection_type &gt;</text>
<text text-anchor="start" x="301.5" y="-1140" font-family="Helvetica,sans-Serif" font-size="10.00">||+ ~DataProvider()</text>
<text text-anchor="start" x="301.5" y="-1129" font-family="Helvetica,sans-Serif" font-size="10.00">+ get_avaliable_variable</text>
<text text-anchor="start" x="301.5" y="-1118" font-family="Helvetica,sans-Serif" font-size="10.00">_names()</text>
<text text-anchor="start" x="301.5" y="-1107" font-family="Helvetica,sans-Serif" font-size="10.00">+ get_data_start_time()</text>
<text text-anchor="start" x="301.5" y="-1096" font-family="Helvetica,sans-Serif" font-size="10.00">+ get_data_stop_time()</text>
<text text-anchor="start" x="301.5" y="-1085" font-family="Helvetica,sans-Serif" font-size="10.00">+ record_duration()</text>
<text text-anchor="start" x="301.5" y="-1074" font-family="Helvetica,sans-Serif" font-size="10.00">+ get_ts_index_for_time()</text>
<text text-anchor="start" x="301.5" y="-1063" font-family="Helvetica,sans-Serif" font-size="10.00">+ get_value()</text>
<text text-anchor="start" x="301.5" y="-1052" font-family="Helvetica,sans-Serif" font-size="10.00">+ get_values()</text>
<text text-anchor="start" x="301.5" y="-1041" font-family="Helvetica,sans-Serif" font-size="10.00">+ is_property_sum_over</text>
<text text-anchor="start" x="301.5" y="-1030" font-family="Helvetica,sans-Serif" font-size="10.00">_time_step()</text>
<text text-anchor="middle" x="365" y="-1019" font-family="Helvetica,sans-Serif" font-size="10.00">}</text>
</a>
</g>
</g>
<!-- Node17&#45;&gt;Node16 -->
<g id="edge22" class="edge">
<title>Node17&#45;&gt;Node16</title>
<path fill="none" stroke="orange" d="M365,-1000.68C365,-985.33 365,-969.49 365,-954.44"/>
<polygon fill="orange" stroke="orange" points="361.5,-1000.24 365,-1010.24 368.5,-1000.24 361.5,-1000.24"/>
<text text-anchor="start" x="365" y="-986" font-family="Helvetica,sans-Serif" font-size="10.00"> &lt; double, CatchmentAggrData</text>
<text text-anchor="middle" x="431.5" y="-975" font-family="Helvetica,sans-Serif" font-size="10.00">Selector &gt;</text>
</g>
<!-- Node18 -->
<g id="node18" class="node">
<title>Node18</title>
<g id="a_node18"><a xlink:href="class_g_m___object.html" target="_top" xlink:title=" ">
<polygon fill="white" stroke="#666666" points="522,-503 436,-503 436,-451 522,-451 522,-503"/>
<text text-anchor="middle" x="479" y="-491" font-family="Helvetica,sans-Serif" font-size="10.00">{GM_Object</text>
<text text-anchor="start" x="444" y="-480" font-family="Helvetica,sans-Serif" font-size="10.00">||+ GM_Object()</text>
<text text-anchor="start" x="444" y="-469" font-family="Helvetica,sans-Serif" font-size="10.00">+ ~GM_Object()</text>
<text text-anchor="middle" x="479" y="-458" font-family="Helvetica,sans-Serif" font-size="10.00">}</text>
</a>
</g>
</g>
<!-- Node18&#45;&gt;Node1 -->
<g id="edge24" class="edge">
<title>Node18&#45;&gt;Node1</title>
<path fill="none" stroke="#63b8ff" d="M479,-439.25C479,-404.96 479,-353.61 479,-316.28"/>
<polygon fill="none" stroke="#63b8ff" points="475.5,-439.1 479,-449.1 482.5,-439.1 475.5,-439.1"/>
</g>
<!-- Node19&#45;&gt;Node1 -->
<g id="edge25" class="edge">
<title>Node19&#45;&gt;Node1</title>
<path fill="none" stroke="#404040" d="M400.24,-406.65C412.61,-383.42 426.69,-357.47 440,-334 441.22,-331.85 442.47,-329.67 443.73,-327.47"/>
<polygon fill="none" stroke="#404040" points="443.69,-327.56 443.26,-320.36 449.73,-317.19 450.17,-324.39 443.69,-327.56"/>
<text text-anchor="middle" x="457.5" y="-359" font-family="Helvetica,sans-Serif" font-size="10.00"> #output</text>
</g>
<!-- Node20&#45;&gt;Node19 -->
<g id="edge26" class="edge">
<title>Node20&#45;&gt;Node19</title>
<path fill="none" stroke="#404040" d="M374.94,-593.86C372.99,-588.07 371.18,-581.89 370,-576 368.96,-570.83 368.08,-565.48 367.35,-560.06"/>
<polygon fill="none" stroke="#404040" points="367.36,-560.19 362.7,-554.69 365.98,-548.27 370.64,-553.77 367.36,-560.19"/>
<text text-anchor="middle" x="405" y="-568" font-family="Helvetica,sans-Serif" font-size="10.00"> #output_stream</text>
</g>
<!-- Node21 -->
<g id="node21" class="node">
<title>Node21</title>
<g id="a_node21"><a xlink:title=" ">
<polygon fill="white" stroke="#666666" points="633.5,-739.5 560.5,-739.5 560.5,-709.5 633.5,-709.5 633.5,-739.5"/>
<text text-anchor="middle" x="597" y="-727.5" font-family="Helvetica,sans-Serif" font-size="10.00">{std::ostream</text>
<text text-anchor="middle" x="597" y="-716.5" font-family="Helvetica,sans-Serif" font-size="10.00">||}</text>
</a>
</g>
</g>
<!-- Node21&#45;&gt;Node20 -->
<g id="edge27" class="edge">
<title>Node21&#45;&gt;Node20</title>
<path fill="none" stroke="#404040" d="M567.08,-709.03C536.6,-694.3 488.39,-670.99 449.23,-652.06"/>
<polygon fill="none" stroke="#404040" points="449.28,-652.08 442.14,-653.07 438.48,-646.86 445.62,-645.87 449.28,-652.08"/>
<text text-anchor="middle" x="526" y="-672.5" font-family="Helvetica,sans-Serif" font-size="10.00"> +ptr</text>
</g>
<!-- Node22 -->
<g id="node22" class="node">
<title>Node22</title>
<g id="a_node22"><a xlink:title=" ">
<polygon fill="white" stroke="#666666" points="647.5,-893.5 546.5,-893.5 546.5,-852.5 647.5,-852.5 647.5,-893.5"/>
<text text-anchor="start" x="554.5" y="-881.5" font-family="Helvetica,sans-Serif" font-size="10.00">{std::basic_ostream</text>
<text text-anchor="middle" x="597" y="-870.5" font-family="Helvetica,sans-Serif" font-size="10.00">&lt; Char &gt;</text>
<text text-anchor="middle" x="597" y="-859.5" font-family="Helvetica,sans-Serif" font-size="10.00">||}</text>
</a>
</g>
</g>
<!-- Node22&#45;&gt;Node21 -->
<g id="edge28" class="edge">
<title>Node22&#45;&gt;Node21</title>
<path fill="none" stroke="#63b8ff" d="M597,-841.12C597,-809.88 597,-762.98 597,-739.68"/>
<polygon fill="none" stroke="#63b8ff" points="593.5,-840.73 597,-850.73 600.5,-840.73 593.5,-840.73"/>
</g>
<!-- Node23 -->
<g id="node23" class="node">
<title>Node23</title>
<g id="a_node23"><a xlink:title=" ">
<polygon fill="white" stroke="#666666" points="655,-1108 539,-1108 539,-1078 655,-1078 655,-1108"/>
<text text-anchor="middle" x="597" y="-1096" font-family="Helvetica,sans-Serif" font-size="10.00">{std::basic_ios&lt; Char &gt;</text>
<text text-anchor="middle" x="597" y="-1085" font-family="Helvetica,sans-Serif" font-size="10.00">||}</text>
</a>
</g>
</g>
<!-- Node23&#45;&gt;Node22 -->
<g id="edge29" class="edge">
<title>Node23&#45;&gt;Node22</title>
<path fill="none" stroke="#63b8ff" d="M597,-1066.31C597,-1022.32 597,-933.49 597,-893.86"/>
<polygon fill="none" stroke="#63b8ff" points="593.5,-1066.18 597,-1076.18 600.5,-1066.18 593.5,-1066.18"/>
</g>
<!-- Node24 -->
<g id="node24" class="node">
<title>Node24</title>
<g id="a_node24"><a xlink:title=" ">
<polygon fill="white" stroke="#666666" points="635.5,-1241 558.5,-1241 558.5,-1211 635.5,-1211 635.5,-1241"/>
<text text-anchor="middle" x="597" y="-1229" font-family="Helvetica,sans-Serif" font-size="10.00">{std::ios_base</text>
<text text-anchor="middle" x="597" y="-1218" font-family="Helvetica,sans-Serif" font-size="10.00">||}</text>
</a>
</g>
</g>
<!-- Node24&#45;&gt;Node23 -->
<g id="edge30" class="edge">
<title>Node24&#45;&gt;Node23</title>
<path fill="none" stroke="#63b8ff" d="M597,-1199.39C597,-1172.17 597,-1130.09 597,-1108.25"/>
<polygon fill="none" stroke="#63b8ff" points="593.5,-1199.22 597,-1209.22 600.5,-1199.22 593.5,-1199.22"/>
</g>
</g>
</svg>
