<?xml version="1.0" encoding="UTF-8" standalone="no"?>
<!DOCTYPE svg PUBLIC "-//W3C//DTD SVG 1.1//EN"
 "http://www.w3.org/Graphics/SVG/1.1/DTD/svg11.dtd">
<!-- Generated by graphviz version 2.42.3 ()
 -->
<!-- Title: HY_CatchmentDivide Pages: 1 -->
<svg width="262pt" height="226pt"
 viewBox="0.00 0.00 262.00 226.00" xmlns="http://www.w3.org/2000/svg" xmlns:xlink="http://www.w3.org/1999/xlink">
<g id="graph0" class="graph" transform="scale(1 1) rotate(0) translate(4 222)">
<title>HY_CatchmentDivide</title>
<polygon fill="white" stroke="transparent" points="-4,4 -4,-222 258,-222 258,4 -4,4"/>
<!-- Node1 -->
<g id="node1" class="node">
<title>Node1</title>
<g id="a_node1"><a xlink:title=" ">
<polygon fill="#bfbfbf" stroke="black" points="78,-0.5 78,-90.5 208,-90.5 208,-0.5 78,-0.5"/>
<text text-anchor="middle" x="143" y="-78.5" font-family="Helvetica,sans-Serif" font-size="10.00">HY_CatchmentDivide</text>
<polyline fill="none" stroke="black" points="78,-71.5 208,-71.5 "/>
<text text-anchor="start" x="86" y="-59.5" font-family="Helvetica,sans-Serif" font-size="10.00">&#45; divide_path</text>
<text text-anchor="start" x="86" y="-48.5" font-family="Helvetica,sans-Serif" font-size="10.00">&#45; id_number</text>
<text text-anchor="start" x="86" y="-37.5" font-family="Helvetica,sans-Serif" font-size="10.00">&#45; id</text>
<polyline fill="none" stroke="black" points="78,-30.5 208,-30.5 "/>
<text text-anchor="start" x="86" y="-18.5" font-family="Helvetica,sans-Serif" font-size="10.00">+ HY_CatchmentDivide()</text>
<text text-anchor="start" x="86" y="-7.5" font-family="Helvetica,sans-Serif" font-size="10.00">+ ~HY_CatchmentDivide()</text>
</a>
</g>
</g>
<!-- Node2 -->
<g id="node2" class="node">
<title>Node2</title>
<g id="a_node2"><a xlink:href="class_h_y___catchment_realization.html" target="_top" xlink:title=" ">
<polygon fill="white" stroke="black" points="0,-127.5 0,-217.5 150,-217.5 150,-127.5 0,-127.5"/>
<text text-anchor="middle" x="75" y="-205.5" font-family="Helvetica,sans-Serif" font-size="10.00">HY_CatchmentRealization</text>
<polyline fill="none" stroke="black" points="0,-198.5 150,-198.5 "/>
<text text-anchor="start" x="8" y="-186.5" font-family="Helvetica,sans-Serif" font-size="10.00"># realized_catchment</text>
<text text-anchor="start" x="8" y="-175.5" font-family="Helvetica,sans-Serif" font-size="10.00"># id_number</text>
<text text-anchor="start" x="8" y="-164.5" font-family="Helvetica,sans-Serif" font-size="10.00"># id</text>
<polyline fill="none" stroke="black" points="0,-157.5 150,-157.5 "/>
<text text-anchor="start" x="8" y="-145.5" font-family="Helvetica,sans-Serif" font-size="10.00">+ HY_CatchmentRealization()</text>
<text text-anchor="start" x="8" y="-134.5" font-family="Helvetica,sans-Serif" font-size="10.00">+ ~HY_CatchmentRealization()</text>
</a>
</g>
</g>
<!-- Node2&#45;&gt;Node1 -->
<g id="edge1" class="edge">
<title>Node2&#45;&gt;Node1</title>
<path fill="none" stroke="midnightblue" d="M103.78,-118.6C108.85,-109.27 114.09,-99.65 119.01,-90.59"/>
<polygon fill="none" stroke="midnightblue" points="100.68,-116.97 98.97,-127.43 106.83,-120.32 100.68,-116.97"/>
</g>
<!-- Node3 -->
<g id="node3" class="node">
<title>Node3</title>
<g id="a_node3"><a xlink:href="class_g_m___object.html" target="_top" xlink:title=" ">
<polygon fill="white" stroke="black" points="168,-138.5 168,-206.5 254,-206.5 254,-138.5 168,-138.5"/>
<text text-anchor="middle" x="211" y="-194.5" font-family="Helvetica,sans-Serif" font-size="10.00">GM_Object</text>
<polyline fill="none" stroke="black" points="168,-187.5 254,-187.5 "/>
<text text-anchor="middle" x="211" y="-175.5" font-family="Helvetica,sans-Serif" font-size="10.00"> </text>
<polyline fill="none" stroke="black" points="168,-168.5 254,-168.5 "/>
<text text-anchor="start" x="176" y="-156.5" font-family="Helvetica,sans-Serif" font-size="10.00">+ GM_Object()</text>
<text text-anchor="start" x="176" y="-145.5" font-family="Helvetica,sans-Serif" font-size="10.00">+ ~GM_Object()</text>
</a>
</g>
</g>
<!-- Node3&#45;&gt;Node1 -->
<g id="edge2" class="edge">
<title>Node3&#45;&gt;Node1</title>
<path fill="none" stroke="midnightblue" d="M188.14,-129.49C181.35,-117 173.89,-103.28 167.02,-90.66"/>
<polygon fill="none" stroke="midnightblue" points="185.1,-131.22 192.96,-138.33 191.25,-127.87 185.1,-131.22"/>
</g>
</g>
</svg>
