<?xml version="1.0" encoding="UTF-8" standalone="no"?>
<!DOCTYPE svg PUBLIC "-//W3C//DTD SVG 1.1//EN"
 "http://www.w3.org/Graphics/SVG/1.1/DTD/svg11.dtd">
<!-- Generated by graphviz version 9.0.0 (20230911.1827)
 -->
<!-- Title: models::bmi::AbstractCLibBmiAdapter Pages: 1 -->
<!--zoomable 1459 -->

<svg id="main" version="1.1" xmlns="http://www.w3.org/2000/svg" xmlns:xlink="http://www.w3.org/1999/xlink" xml:space="preserve" onload="init(evt)">
<style type="text/css"><![CDATA[
.node, .edge {opacity: 0.7;}
.node.selected, .edge.selected {opacity: 1;}
.edge:hover path { stroke: red; }
.edge:hover polygon { stroke: red; fill: red; }
]]></style>

<defs>
  <circle id="rim" cx="0" cy="0" r="7"/>
  <circle id="rim2" cx="0" cy="0" r="3.5"/>
  <g id="zoomPlus">
    <use xlink:href="#rim" fill="#404040"><set attributeName="fill" to="#808080" begin="zoomplus.mouseover" end="zoomplus.mouseout"/></use>
    <path d="M-4,0h8M0,-4v8" fill="none" stroke="white" stroke-width="1.5" pointer-events="none"/>
  </g>
  <g id="zoomMin">
    <use xlink:href="#rim" fill="#404040"><set attributeName="fill" to="#808080" begin="zoomminus.mouseover" end="zoomminus.mouseout"/></use>
    <path d="M-4,0h8" fill="none" stroke="white" stroke-width="1.5" pointer-events="none"/>
  </g>
  <g id="arrowUp" transform="translate(30 24)">
    <use xlink:href="#rim"/>
    <path pointer-events="none" fill="none" stroke="white" stroke-width="1.5" d="M0,-3.0v7 M-2.5,-0.5L0,-3.0L2.5,-0.5"/>
  </g>
  <g id="arrowRight" transform="rotate(90) translate(36 -43)">
    <use xlink:href="#rim"/>
    <path pointer-events="none" fill="none" stroke="white" stroke-width="1.5" d="M0,-3.0v7 M-2.5,-0.5L0,-3.0L2.5,-0.5"/>
  </g>
  <g id="arrowDown" transform="rotate(180) translate(-30 -48)">
    <use xlink:href="#rim"/>
    <path pointer-events="none" fill="none" stroke="white" stroke-width="1.5" d="M0,-3.0v7 M-2.5,-0.5L0,-3.0L2.5,-0.5"/>
  </g>
  <g id="arrowLeft" transform="rotate(270) translate(-36 17)">
    <use xlink:href="#rim"/>
    <path pointer-events="none" fill="none" stroke="white" stroke-width="1.5" d="M0,-3.0v7 M-2.5,-0.5L0,-3.0L2.5,-0.5"/>
  </g>
  <g id="resetDef">
    <use xlink:href="#rim2" fill="#404040"><set attributeName="fill" to="#808080" begin="reset.mouseover" end="reset.mouseout"/></use>
  </g>
</defs>
<script type="application/ecmascript">
var viewWidth = 750;
var viewHeight = 1459;
var sectionId = 'dynsection-1';
</script>
<script type="application/ecmascript" xlink:href="svg.min.js"/>
<svg id="graph" class="graph">
<g id="viewport">
<title>models::bmi::AbstractCLibBmiAdapter</title>
<!-- Node1 -->
<g id="Node000001" class="node">
<title>Node1</title>
<g id="a_Node000001"><a xlink:title=" ">
<polygon fill="#999999" stroke="none" points="137,-206 0,-206 0,0 137,0 137,-206"/>
<text text-anchor="start" x="11.88" y="-192.5" font-family="Helvetica,sans-Serif" font-size="10.00">models::bmi::AbstractCLib</text>
<text text-anchor="start" x="43" y="-181.25" font-family="Helvetica,sans-Serif" font-size="10.00">BmiAdapter</text>
<text text-anchor="start" x="5.5" y="-166.5" font-family="Helvetica,sans-Serif" font-size="10.00">&#45;</text>
<text text-anchor="start" x="14" y="-166.5" font-family="Helvetica,sans-Serif" font-size="10.00">dyn_lib_handle</text>
<text text-anchor="start" x="4" y="-151.5" font-family="Helvetica,sans-Serif" font-size="10.00">+</text>
<text text-anchor="start" x="14" y="-151.5" font-family="Helvetica,sans-Serif" font-size="10.00">AbstractCLibBmiAdapter()</text>
<text text-anchor="start" x="4" y="-136.5" font-family="Helvetica,sans-Serif" font-size="10.00">+</text>
<text text-anchor="start" x="14" y="-136.5" font-family="Helvetica,sans-Serif" font-size="10.00">AbstractCLibBmiAdapter()</text>
<text text-anchor="start" x="4" y="-121.5" font-family="Helvetica,sans-Serif" font-size="10.00">+</text>
<text text-anchor="start" x="14" y="-121.5" font-family="Helvetica,sans-Serif" font-size="10.00">~AbstractCLibBmiAdapter()</text>
<text text-anchor="start" x="4" y="-106.5" font-family="Helvetica,sans-Serif" font-size="10.00">+</text>
<text text-anchor="start" x="14" y="-106.5" font-family="Helvetica,sans-Serif" font-size="10.00">Finalize()</text>
<text text-anchor="start" x="4.38" y="-91.5" font-family="Helvetica,sans-Serif" font-size="10.00">#</text>
<text text-anchor="start" x="14" y="-91.5" font-family="Helvetica,sans-Serif" font-size="10.00">dynamic_library_load()</text>
<text text-anchor="start" x="4.38" y="-76.5" font-family="Helvetica,sans-Serif" font-size="10.00">#</text>
<text text-anchor="start" x="14" y="-76.5" font-family="Helvetica,sans-Serif" font-size="10.00">dynamic_load_symbol()</text>
<text text-anchor="start" x="4.38" y="-61.5" font-family="Helvetica,sans-Serif" font-size="10.00">#</text>
<text text-anchor="start" x="14" y="-61.5" font-family="Helvetica,sans-Serif" font-size="10.00">dynamic_load_symbol()</text>
<text text-anchor="start" x="4.38" y="-46.5" font-family="Helvetica,sans-Serif" font-size="10.00">#</text>
<text text-anchor="start" x="14" y="-46.5" font-family="Helvetica,sans-Serif" font-size="10.00">get_bmi_registration</text>
<text text-anchor="start" x="14" y="-35.25" font-family="Helvetica,sans-Serif" font-size="10.00">_function()</text>
<text text-anchor="start" x="4.38" y="-20.5" font-family="Helvetica,sans-Serif" font-size="10.00">#</text>
<text text-anchor="start" x="14" y="-20.5" font-family="Helvetica,sans-Serif" font-size="10.00">get_dyn_lib_handle()</text>
<text text-anchor="start" x="5.5" y="-5.5" font-family="Helvetica,sans-Serif" font-size="10.00">&#45;</text>
<text text-anchor="start" x="14" y="-5.5" font-family="Helvetica,sans-Serif" font-size="10.00">finalizeForLibAbstraction()</text>
<polygon fill="#666666" stroke="#666666" points="0,-178 0,-178 137,-178 137,-178 0,-178"/>
<polygon fill="#666666" stroke="#666666" points="0,-163 0,-163 12,-163 12,-163 0,-163"/>
<polygon fill="#666666" stroke="#666666" points="12,-163 12,-163 137,-163 137,-163 12,-163"/>
<polygon fill="none" stroke="#666666" points="0,0 0,-206 137,-206 137,0 0,0"/>
</a>
</g>
</g>
<!-- Node2 -->
<g id="Node000002" class="node">
<title>Node2</title>
<g id="a_Node000002"><a xlink:href="classmodels_1_1bmi_1_1_bmi___adapter.html" target="_top" xlink:title="Abstract adapter interface for C++ classes to interact with the essential aspects of external models ...">
<polygon fill="white" stroke="none" points="353,-598 210,-598 210,-243 353,-243 353,-598"/>
<text text-anchor="start" x="225.25" y="-584.5" font-family="Helvetica,sans-Serif" font-size="10.00">models::bmi::Bmi_Adapter</text>
<text text-anchor="start" x="214.38" y="-569.5" font-family="Helvetica,sans-Serif" font-size="10.00">#</text>
<text text-anchor="start" x="224" y="-569.5" font-family="Helvetica,sans-Serif" font-size="10.00">allow_model_exceed</text>
<text text-anchor="start" x="224" y="-558.25" font-family="Helvetica,sans-Serif" font-size="10.00">_end_time</text>
<text text-anchor="start" x="214.38" y="-543.5" font-family="Helvetica,sans-Serif" font-size="10.00">#</text>
<text text-anchor="start" x="224" y="-543.5" font-family="Helvetica,sans-Serif" font-size="10.00">bmi_model_has_fixed</text>
<text text-anchor="start" x="224" y="-532.25" font-family="Helvetica,sans-Serif" font-size="10.00">_time_step</text>
<text text-anchor="start" x="214.38" y="-517.5" font-family="Helvetica,sans-Serif" font-size="10.00">#</text>
<text text-anchor="start" x="224" y="-517.5" font-family="Helvetica,sans-Serif" font-size="10.00">bmi_model_time_convert</text>
<text text-anchor="start" x="224" y="-506.25" font-family="Helvetica,sans-Serif" font-size="10.00">_factor</text>
<text text-anchor="start" x="214.38" y="-491.5" font-family="Helvetica,sans-Serif" font-size="10.00">#</text>
<text text-anchor="start" x="224" y="-491.5" font-family="Helvetica,sans-Serif" font-size="10.00">bmi_model_uses_forcing_file</text>
<text text-anchor="start" x="214.38" y="-476.5" font-family="Helvetica,sans-Serif" font-size="10.00">#</text>
<text text-anchor="start" x="224" y="-476.5" font-family="Helvetica,sans-Serif" font-size="10.00">model_initialized</text>
<text text-anchor="start" x="214" y="-461.5" font-family="Helvetica,sans-Serif" font-size="10.00">+</text>
<text text-anchor="start" x="224" y="-461.5" font-family="Helvetica,sans-Serif" font-size="10.00">Bmi_Adapter()</text>
<text text-anchor="start" x="214" y="-446.5" font-family="Helvetica,sans-Serif" font-size="10.00">+</text>
<text text-anchor="start" x="224" y="-446.5" font-family="Helvetica,sans-Serif" font-size="10.00">Bmi_Adapter()</text>
<text text-anchor="start" x="214" y="-431.5" font-family="Helvetica,sans-Serif" font-size="10.00">+</text>
<text text-anchor="start" x="224" y="-431.5" font-family="Helvetica,sans-Serif" font-size="10.00">Bmi_Adapter()</text>
<text text-anchor="start" x="214" y="-416.5" font-family="Helvetica,sans-Serif" font-size="10.00">+</text>
<text text-anchor="start" x="224" y="-416.5" font-family="Helvetica,sans-Serif" font-size="10.00">is_model_initialized()</text>
<text text-anchor="start" x="214" y="-401.5" font-family="Helvetica,sans-Serif" font-size="10.00">+</text>
<text text-anchor="start" x="224" y="-401.5" font-family="Helvetica,sans-Serif" font-size="10.00">get_time_convert_factor()</text>
<text text-anchor="start" x="214" y="-386.5" font-family="Helvetica,sans-Serif" font-size="10.00">+</text>
<text text-anchor="start" x="224" y="-386.5" font-family="Helvetica,sans-Serif" font-size="10.00">convert_model_time</text>
<text text-anchor="start" x="224" y="-375.25" font-family="Helvetica,sans-Serif" font-size="10.00">_to_seconds()</text>
<text text-anchor="start" x="214" y="-360.5" font-family="Helvetica,sans-Serif" font-size="10.00">+</text>
<text text-anchor="start" x="224" y="-360.5" font-family="Helvetica,sans-Serif" font-size="10.00">convert_seconds_to</text>
<text text-anchor="start" x="224" y="-349.25" font-family="Helvetica,sans-Serif" font-size="10.00">_model_time()</text>
<text text-anchor="start" x="214" y="-334.5" font-family="Helvetica,sans-Serif" font-size="10.00">+</text>
<text text-anchor="start" x="224" y="-334.5" font-family="Helvetica,sans-Serif" font-size="10.00">get_analogous_cxx_type()</text>
<text text-anchor="start" x="214" y="-319.5" font-family="Helvetica,sans-Serif" font-size="10.00">+</text>
<text text-anchor="start" x="224" y="-319.5" font-family="Helvetica,sans-Serif" font-size="10.00">Initialize()</text>
<text text-anchor="start" x="214" y="-304.5" font-family="Helvetica,sans-Serif" font-size="10.00">+</text>
<text text-anchor="start" x="224" y="-304.5" font-family="Helvetica,sans-Serif" font-size="10.00">Initialize()</text>
<text text-anchor="start" x="214" y="-289.5" font-family="Helvetica,sans-Serif" font-size="10.00">+</text>
<text text-anchor="start" x="224" y="-289.5" font-family="Helvetica,sans-Serif" font-size="10.00">isInitialized()</text>
<text text-anchor="start" x="214" y="-274.5" font-family="Helvetica,sans-Serif" font-size="10.00">+</text>
<text text-anchor="start" x="224" y="-274.5" font-family="Helvetica,sans-Serif" font-size="10.00">get_model_name()</text>
<text text-anchor="start" x="214.38" y="-259.5" font-family="Helvetica,sans-Serif" font-size="10.00">#</text>
<text text-anchor="start" x="224" y="-259.5" font-family="Helvetica,sans-Serif" font-size="10.00">construct_and_init</text>
<text text-anchor="start" x="224" y="-248.25" font-family="Helvetica,sans-Serif" font-size="10.00">_backing_model()</text>
<polygon fill="#666666" stroke="#666666" points="210,-581 210,-581 353,-581 353,-581 210,-581"/>
<polygon fill="#666666" stroke="#666666" points="210,-473 210,-473 222,-473 222,-473 210,-473"/>
<polygon fill="#666666" stroke="#666666" points="222,-473 222,-473 353,-473 353,-473 222,-473"/>
<polygon fill="none" stroke="#666666" points="210,-243 210,-598 353,-598 353,-243 210,-243"/>
</a>
</g>
</g>
<!-- Node2&#45;&gt;Node1 -->
<g id="edge1_Node000001_Node000002" class="edge">
<title>Node2&#45;&gt;Node1</title>
<g id="a_edge1_Node000001_Node000002"><a xlink:title=" ">
<path fill="none" stroke="#63b8ff" d="M203.85,-304.48C181.94,-272.03 158.27,-236.97 136.95,-205.38"/>
<polygon fill="none" stroke="#63b8ff" points="200.93,-306.42 209.43,-312.75 206.74,-302.5 200.93,-306.42"/>
</a>
</g>
</g>
<!-- Node3 -->
<g id="Node000003" class="node">
<title>Node3</title>
<g id="a_Node000003"><a xlink:href="classbmi_1_1_bmi.html" target="_top" xlink:title=" ">
<polygon fill="white" stroke="none" points="300,-930.5 185,-930.5 185,-656.5 300,-656.5 300,-930.5"/>
<text text-anchor="start" x="223.75" y="-917" font-family="Helvetica,sans-Serif" font-size="10.00">bmi::Bmi</text>
<text text-anchor="start" x="241" y="-902" font-family="Helvetica,sans-Serif" font-size="10.00"> </text>
<text text-anchor="start" x="189" y="-887" font-family="Helvetica,sans-Serif" font-size="10.00">+</text>
<text text-anchor="start" x="199" y="-887" font-family="Helvetica,sans-Serif" font-size="10.00">Initialize()</text>
<text text-anchor="start" x="189" y="-872" font-family="Helvetica,sans-Serif" font-size="10.00">+</text>
<text text-anchor="start" x="199" y="-872" font-family="Helvetica,sans-Serif" font-size="10.00">Update()</text>
<text text-anchor="start" x="189" y="-857" font-family="Helvetica,sans-Serif" font-size="10.00">+</text>
<text text-anchor="start" x="199" y="-857" font-family="Helvetica,sans-Serif" font-size="10.00">UpdateUntil()</text>
<text text-anchor="start" x="189" y="-842" font-family="Helvetica,sans-Serif" font-size="10.00">+</text>
<text text-anchor="start" x="199" y="-842" font-family="Helvetica,sans-Serif" font-size="10.00">Finalize()</text>
<text text-anchor="start" x="189" y="-827" font-family="Helvetica,sans-Serif" font-size="10.00">+</text>
<text text-anchor="start" x="199" y="-827" font-family="Helvetica,sans-Serif" font-size="10.00">GetComponentName()</text>
<text text-anchor="start" x="189" y="-812" font-family="Helvetica,sans-Serif" font-size="10.00">+</text>
<text text-anchor="start" x="199" y="-812" font-family="Helvetica,sans-Serif" font-size="10.00">GetInputItemCount()</text>
<text text-anchor="start" x="189" y="-797" font-family="Helvetica,sans-Serif" font-size="10.00">+</text>
<text text-anchor="start" x="199" y="-797" font-family="Helvetica,sans-Serif" font-size="10.00">GetOutputItemCount()</text>
<text text-anchor="start" x="189" y="-782" font-family="Helvetica,sans-Serif" font-size="10.00">+</text>
<text text-anchor="start" x="199" y="-782" font-family="Helvetica,sans-Serif" font-size="10.00">GetInputVarNames()</text>
<text text-anchor="start" x="189" y="-767" font-family="Helvetica,sans-Serif" font-size="10.00">+</text>
<text text-anchor="start" x="199" y="-767" font-family="Helvetica,sans-Serif" font-size="10.00">GetOutputVarNames()</text>
<text text-anchor="start" x="189" y="-752" font-family="Helvetica,sans-Serif" font-size="10.00">+</text>
<text text-anchor="start" x="199" y="-752" font-family="Helvetica,sans-Serif" font-size="10.00">GetVarGrid()</text>
<text text-anchor="start" x="189" y="-737" font-family="Helvetica,sans-Serif" font-size="10.00">+</text>
<text text-anchor="start" x="199" y="-737" font-family="Helvetica,sans-Serif" font-size="10.00">GetVarType()</text>
<text text-anchor="start" x="189" y="-722" font-family="Helvetica,sans-Serif" font-size="10.00">+</text>
<text text-anchor="start" x="199" y="-722" font-family="Helvetica,sans-Serif" font-size="10.00">GetVarUnits()</text>
<text text-anchor="start" x="189" y="-707" font-family="Helvetica,sans-Serif" font-size="10.00">+</text>
<text text-anchor="start" x="199" y="-707" font-family="Helvetica,sans-Serif" font-size="10.00">GetVarItemsize()</text>
<text text-anchor="start" x="189" y="-692" font-family="Helvetica,sans-Serif" font-size="10.00">+</text>
<text text-anchor="start" x="199" y="-692" font-family="Helvetica,sans-Serif" font-size="10.00">GetVarNbytes()</text>
<text text-anchor="start" x="189" y="-677" font-family="Helvetica,sans-Serif" font-size="10.00">+</text>
<text text-anchor="start" x="199" y="-677" font-family="Helvetica,sans-Serif" font-size="10.00">GetVarLocation()</text>
<text text-anchor="start" x="199" y="-662" font-family="Helvetica,sans-Serif" font-size="10.00">and 26 more...</text>
<polygon fill="#666666" stroke="#666666" points="185,-913.5 185,-913.5 300,-913.5 300,-913.5 185,-913.5"/>
<polygon fill="#666666" stroke="#666666" points="185,-898.5 185,-898.5 300,-898.5 300,-898.5 185,-898.5"/>
<polygon fill="none" stroke="#666666" points="185,-656.5 185,-930.5 300,-930.5 300,-656.5 185,-656.5"/>
</a>
</g>
</g>
<!-- Node3&#45;&gt;Node2 -->
<g id="edge2_Node000002_Node000003" class="edge">
<title>Node3&#45;&gt;Node2</title>
<g id="a_edge2_Node000002_Node000003"><a xlink:title=" ">
<path fill="none" stroke="#63b8ff" d="M257.96,-645.43C259.6,-629.82 261.28,-613.82 262.95,-597.92"/>
<polygon fill="none" stroke="#63b8ff" points="254.5,-644.91 256.93,-655.22 261.46,-645.64 254.5,-644.91"/>
</a>
</g>
</g>
<!-- Node4 -->
<g id="Node000004" class="node">
<title>Node4</title>
<g id="a_Node000004"><a xlink:title=" ">
<polygon fill="white" stroke="none" points="217.5,-1171.75 165.5,-1171.75 165.5,-1122.75 217.5,-1122.75 217.5,-1171.75"/>
<text text-anchor="start" x="170.5" y="-1158.25" font-family="Helvetica,sans-Serif" font-size="10.00">std::string</text>
<text text-anchor="start" x="190" y="-1143.25" font-family="Helvetica,sans-Serif" font-size="10.00"> </text>
<text text-anchor="start" x="190" y="-1128.25" font-family="Helvetica,sans-Serif" font-size="10.00"> </text>
<polygon fill="#666666" stroke="#666666" points="165.5,-1154.75 165.5,-1154.75 217.5,-1154.75 217.5,-1154.75 165.5,-1154.75"/>
<polygon fill="#666666" stroke="#666666" points="165.5,-1139.75 165.5,-1139.75 217.5,-1139.75 217.5,-1139.75 165.5,-1139.75"/>
<polygon fill="none" stroke="#666666" points="165.5,-1122.75 165.5,-1171.75 217.5,-1171.75 217.5,-1122.75 165.5,-1122.75"/>
</a>
</g>
</g>
<!-- Node4&#45;&gt;Node1 -->
<g id="edge22_Node000001_Node000004" class="edge">
<title>Node4&#45;&gt;Node1</title>
<g id="a_edge22_Node000001_Node000004"><a xlink:title=" ">
<path fill="none" stroke="#63b8ff" d="M165.79,-1139.84C126.62,-1128.34 56.5,-1100.27 56.5,-1046.5 56.5,-1046.5 56.5,-1046.5 56.5,-419.5 56.5,-352.99 59.2,-278.64 62.03,-218.83"/>
<polygon fill="none" stroke="#63b8ff" points="62.03,-218.8 58.33,-212.61 62.61,-206.81 66.32,-213 62.03,-218.8"/>
</a>
</g>
<text text-anchor="middle" x="92.5" y="-800.88" font-family="Helvetica,sans-Serif" font-size="10.00" fill="grey"> &#45;bmi_lib_file</text>
<text text-anchor="start" x="56.5" y="-789.62" font-family="Helvetica,sans-Serif" font-size="10.00" fill="grey">&#45;bmi_registration</text>
<text text-anchor="middle" x="92.5" y="-778.38" font-family="Helvetica,sans-Serif" font-size="10.00" fill="grey">_function</text>
</g>
<!-- Node4&#45;&gt;Node2 -->
<g id="edge3_Node000002_Node000004" class="edge">
<title>Node4&#45;&gt;Node2</title>
<g id="a_edge3_Node000002_Node000004"><a xlink:title=" ">
<path fill="none" stroke="#63b8ff" d="M183.7,-1122.89C174.46,-1093.88 159.61,-1042.7 154,-997.5 141.78,-899.02 132.73,-824.95 175.5,-656.5 182.78,-627.84 193.35,-598.32 205.05,-570.3"/>
<polygon fill="none" stroke="#63b8ff" points="205.07,-570.26 203.74,-563.17 209.77,-559.22 211.1,-566.31 205.07,-570.26"/>
</a>
</g>
<text text-anchor="middle" x="198.75" y="-986" font-family="Helvetica,sans-Serif" font-size="10.00" fill="grey"> #bmi_init_config</text>
<text text-anchor="middle" x="198.75" y="-974.75" font-family="Helvetica,sans-Serif" font-size="10.00" fill="grey">#forcing_file_path</text>
<text text-anchor="middle" x="198.75" y="-963.5" font-family="Helvetica,sans-Serif" font-size="10.00" fill="grey">#init_exception_msg</text>
<text text-anchor="middle" x="198.75" y="-952.25" font-family="Helvetica,sans-Serif" font-size="10.00" fill="grey">#model_name</text>
</g>
<!-- Node10 -->
<g id="Node000010" class="node">
<title>Node10</title>
<g id="a_Node000010"><a xlink:title=" ">
<polygon fill="white" stroke="none" points="373,-1070 260,-1070 260,-1021 373,-1021 373,-1070"/>
<text text-anchor="start" x="264.75" y="-1056.5" font-family="Helvetica,sans-Serif" font-size="10.00">std::vector&lt; std::string &gt;</text>
<text text-anchor="start" x="315" y="-1041.5" font-family="Helvetica,sans-Serif" font-size="10.00"> </text>
<text text-anchor="start" x="315" y="-1026.5" font-family="Helvetica,sans-Serif" font-size="10.00"> </text>
<polygon fill="#666666" stroke="#666666" points="260,-1053 260,-1053 373,-1053 373,-1053 260,-1053"/>
<polygon fill="#666666" stroke="#666666" points="260,-1038 260,-1038 373,-1038 373,-1038 260,-1038"/>
<polygon fill="none" stroke="#666666" points="260,-1021 260,-1070 373,-1070 373,-1021 260,-1021"/>
</a>
</g>
</g>
<!-- Node4&#45;&gt;Node10 -->
<g id="edge10_Node000010_Node000004" class="edge">
<title>Node4&#45;&gt;Node10</title>
<g id="a_edge10_Node000010_Node000004"><a xlink:title=" ">
<path fill="none" stroke="#63b8ff" d="M217.4,-1125.58C234.62,-1111.84 257.55,-1093.54 277.02,-1078"/>
<polygon fill="none" stroke="#63b8ff" points="277.04,-1077.99 279.24,-1071.12 286.42,-1070.5 284.23,-1077.37 277.04,-1077.99"/>
</a>
</g>
<text text-anchor="middle" x="278.5" y="-1095.25" font-family="Helvetica,sans-Serif" font-size="10.00" fill="grey"> +elements</text>
</g>
<!-- Node12 -->
<g id="Node000012" class="node">
<title>Node12</title>
<g id="a_Node000012"><a xlink:href="classutils_1_1_stream_handler.html" target="_top" xlink:title="This class provides a copyable interface to a std::ostream or std::ostream like object that may not s...">
<polygon fill="white" stroke="none" points="415,-885.5 318,-885.5 318,-701.5 415,-701.5 415,-885.5"/>
<text text-anchor="start" x="322.62" y="-872" font-family="Helvetica,sans-Serif" font-size="10.00">utils::StreamHandler</text>
<text text-anchor="start" x="365" y="-857" font-family="Helvetica,sans-Serif" font-size="10.00"> </text>
<text text-anchor="start" x="322.5" y="-842" font-family="Helvetica,sans-Serif" font-size="10.00">+</text>
<text text-anchor="start" x="333" y="-842" font-family="Helvetica,sans-Serif" font-size="10.00">StreamHandler()</text>
<text text-anchor="start" x="322.5" y="-827" font-family="Helvetica,sans-Serif" font-size="10.00">+</text>
<text text-anchor="start" x="333" y="-827" font-family="Helvetica,sans-Serif" font-size="10.00">StreamHandler()</text>
<text text-anchor="start" x="322.5" y="-812" font-family="Helvetica,sans-Serif" font-size="10.00">+</text>
<text text-anchor="start" x="333" y="-812" font-family="Helvetica,sans-Serif" font-size="10.00">StreamHandler()</text>
<text text-anchor="start" x="322.5" y="-797" font-family="Helvetica,sans-Serif" font-size="10.00">+</text>
<text text-anchor="start" x="333" y="-797" font-family="Helvetica,sans-Serif" font-size="10.00">StreamHandler()</text>
<text text-anchor="start" x="322.5" y="-782" font-family="Helvetica,sans-Serif" font-size="10.00">+</text>
<text text-anchor="start" x="333" y="-782" font-family="Helvetica,sans-Serif" font-size="10.00">~StreamHandler()</text>
<text text-anchor="start" x="322.5" y="-767" font-family="Helvetica,sans-Serif" font-size="10.00">+</text>
<text text-anchor="start" x="333" y="-767" font-family="Helvetica,sans-Serif" font-size="10.00">operator=()</text>
<text text-anchor="start" x="322.5" y="-752" font-family="Helvetica,sans-Serif" font-size="10.00">+</text>
<text text-anchor="start" x="333" y="-752" font-family="Helvetica,sans-Serif" font-size="10.00">put()</text>
<text text-anchor="start" x="322.5" y="-737" font-family="Helvetica,sans-Serif" font-size="10.00">+</text>
<text text-anchor="start" x="333" y="-737" font-family="Helvetica,sans-Serif" font-size="10.00">put_indexed()</text>
<text text-anchor="start" x="322.5" y="-722" font-family="Helvetica,sans-Serif" font-size="10.00">+</text>
<text text-anchor="start" x="333" y="-722" font-family="Helvetica,sans-Serif" font-size="10.00">put_var()</text>
<text text-anchor="start" x="322.5" y="-707" font-family="Helvetica,sans-Serif" font-size="10.00">+</text>
<text text-anchor="start" x="333" y="-707" font-family="Helvetica,sans-Serif" font-size="10.00">operator&lt;&lt;()</text>
<polygon fill="#666666" stroke="#666666" points="318,-868.5 318,-868.5 415,-868.5 415,-868.5 318,-868.5"/>
<polygon fill="#666666" stroke="#666666" points="318,-853.5 318,-853.5 415,-853.5 415,-853.5 318,-853.5"/>
<polygon fill="none" stroke="#666666" points="318,-701.5 318,-885.5 415,-885.5 415,-701.5 318,-701.5"/>
</a>
</g>
</g>
<!-- Node4&#45;&gt;Node12 -->
<g id="edge21_Node000012_Node000004" class="edge">
<title>Node4&#45;&gt;Node12</title>
<g id="a_edge21_Node000012_Node000004"><a xlink:title=" ">
<path fill="none" stroke="#63b8ff" d="M193.96,-1123.01C197.7,-1095.63 206.7,-1049.55 227.25,-1015.5 233.3,-1005.47 238.24,-1005.8 246.5,-997.5 275.11,-968.74 286.44,-964.55 308.5,-930.5 315.3,-920 321.62,-908.56 327.39,-896.93"/>
<polygon fill="none" stroke="#63b8ff" points="327.4,-896.9 326.38,-889.76 332.58,-886.08 333.6,-893.22 327.4,-896.9"/>
</a>
</g>
<text text-anchor="middle" x="239.12" y="-1041.62" font-family="Helvetica,sans-Serif" font-size="10.00" fill="grey"> #sep</text>
</g>
<!-- Node5 -->
<g id="Node000005" class="node">
<title>Node5</title>
<g id="a_Node000005"><a xlink:title=" ">
<polygon fill="white" stroke="none" points="234.5,-1279 148.5,-1279 148.5,-1219 234.5,-1219 234.5,-1279"/>
<text text-anchor="start" x="153.25" y="-1265.5" font-family="Helvetica,sans-Serif" font-size="10.00">std::basic_string&lt;</text>
<text text-anchor="start" x="176.12" y="-1254.25" font-family="Helvetica,sans-Serif" font-size="10.00"> Char &gt;</text>
<text text-anchor="start" x="190" y="-1239.5" font-family="Helvetica,sans-Serif" font-size="10.00"> </text>
<text text-anchor="start" x="190" y="-1224.5" font-family="Helvetica,sans-Serif" font-size="10.00"> </text>
<polygon fill="#666666" stroke="#666666" points="148.5,-1251 148.5,-1251 234.5,-1251 234.5,-1251 148.5,-1251"/>
<polygon fill="#666666" stroke="#666666" points="148.5,-1236 148.5,-1236 234.5,-1236 234.5,-1236 148.5,-1236"/>
<polygon fill="none" stroke="#666666" points="148.5,-1219 148.5,-1279 234.5,-1279 234.5,-1219 148.5,-1219"/>
</a>
</g>
</g>
<!-- Node5&#45;&gt;Node4 -->
<g id="edge4_Node000004_Node000005" class="edge">
<title>Node5&#45;&gt;Node4</title>
<g id="a_edge4_Node000004_Node000005"><a xlink:title=" ">
<path fill="none" stroke="#63b8ff" d="M191.5,-1207.74C191.5,-1195.49 191.5,-1182.42 191.5,-1171.67"/>
<polygon fill="none" stroke="#63b8ff" points="188,-1207.63 191.5,-1217.63 195,-1207.63 188,-1207.63"/>
</a>
</g>
</g>
<!-- Node6 -->
<g id="Node000006" class="node">
<title>Node6</title>
<g id="a_Node000006"><a xlink:title=" ">
<polygon fill="white" stroke="none" points="676.5,-997.5 558.5,-997.5 558.5,-948.5 676.5,-948.5 676.5,-997.5"/>
<text text-anchor="start" x="563.12" y="-984" font-family="Helvetica,sans-Serif" font-size="10.00">std::shared_ptr&lt; double &gt;</text>
<text text-anchor="start" x="575" y="-969" font-family="Helvetica,sans-Serif" font-size="10.00">+</text>
<text text-anchor="start" x="597.5" y="-969" font-family="Helvetica,sans-Serif" font-size="10.00">ptr</text>
<text text-anchor="start" x="575" y="-954" font-family="Helvetica,sans-Serif" font-size="10.00">+</text>
<text text-anchor="start" x="597.5" y="-954" font-family="Helvetica,sans-Serif" font-size="10.00">operator&#45;&gt;()</text>
<polygon fill="#666666" stroke="#666666" points="558.5,-980.5 558.5,-980.5 676.5,-980.5 676.5,-980.5 558.5,-980.5"/>
<polygon fill="#666666" stroke="#666666" points="558.5,-965.5 558.5,-965.5 595.5,-965.5 595.5,-965.5 558.5,-965.5"/>
<polygon fill="#666666" stroke="#666666" points="595.5,-965.5 595.5,-965.5 676.5,-965.5 676.5,-965.5 595.5,-965.5"/>
<polygon fill="none" stroke="#666666" points="558.5,-948.5 558.5,-997.5 676.5,-997.5 676.5,-948.5 558.5,-948.5"/>
</a>
</g>
</g>
<!-- Node6&#45;&gt;Node2 -->
<g id="edge5_Node000002_Node000006" class="edge">
<title>Node6&#45;&gt;Node2</title>
<g id="a_edge5_Node000002_Node000006"><a xlink:title=" ">
<path fill="none" stroke="#63b8ff" d="M617.46,-948.83C616.38,-894.08 607.78,-754.04 550.5,-656.5 504.95,-578.94 424.67,-513.83 363.63,-471.96"/>
<polygon fill="none" stroke="#63b8ff" points="363.54,-471.9 356.33,-471.85 353.6,-465.18 360.81,-465.23 363.54,-471.9"/>
</a>
</g>
<text text-anchor="middle" x="679.12" y="-789.62" font-family="Helvetica,sans-Serif" font-size="10.00" fill="grey"> #bmi_model_time_step_size</text>
</g>
<!-- Node7 -->
<g id="Node000007" class="node">
<title>Node7</title>
<g id="a_Node000007"><a xlink:title=" ">
<polygon fill="white" stroke="none" points="570.5,-1171.75 474.5,-1171.75 474.5,-1122.75 570.5,-1122.75 570.5,-1171.75"/>
<text text-anchor="start" x="479.38" y="-1158.25" font-family="Helvetica,sans-Serif" font-size="10.00">std::shared_ptr&lt; T &gt;</text>
<text text-anchor="start" x="521" y="-1143.25" font-family="Helvetica,sans-Serif" font-size="10.00"> </text>
<text text-anchor="start" x="485.5" y="-1128.25" font-family="Helvetica,sans-Serif" font-size="10.00">+</text>
<text text-anchor="start" x="502.5" y="-1128.25" font-family="Helvetica,sans-Serif" font-size="10.00">operator&#45;&gt;()</text>
<polygon fill="#666666" stroke="#666666" points="474.5,-1154.75 474.5,-1154.75 570.5,-1154.75 570.5,-1154.75 474.5,-1154.75"/>
<polygon fill="#666666" stroke="#666666" points="474.5,-1139.75 474.5,-1139.75 570.5,-1139.75 570.5,-1139.75 474.5,-1139.75"/>
<polygon fill="none" stroke="#666666" points="474.5,-1122.75 474.5,-1171.75 570.5,-1171.75 570.5,-1122.75 474.5,-1122.75"/>
</a>
</g>
</g>
<!-- Node7&#45;&gt;Node6 -->
<g id="edge6_Node000006_Node000007" class="edge">
<title>Node7&#45;&gt;Node6</title>
<g id="a_edge6_Node000006_Node000007"><a xlink:title=" ">
<path fill="none" stroke="orange" d="M573.3,-1116.12C587.39,-1105.16 601.11,-1091.48 609.5,-1075.5 622.32,-1051.08 622.48,-1018.73 620.66,-997.19"/>
<polygon fill="orange" stroke="orange" points="571.25,-1113.28 565.26,-1122.02 575.39,-1118.92 571.25,-1113.28"/>
</a>
</g>
<text text-anchor="middle" x="619.12" y="-1095.25" font-family="Helvetica,sans-Serif" font-size="10.00" fill="grey"> &lt; double &gt;</text>
</g>
<!-- Node9 -->
<g id="Node000009" class="node">
<title>Node9</title>
<g id="a_Node000009"><a xlink:title=" ">
<polygon fill="white" stroke="none" points="541.5,-823.5 433.5,-823.5 433.5,-763.5 541.5,-763.5 541.5,-823.5"/>
<text text-anchor="start" x="438.38" y="-810" font-family="Helvetica,sans-Serif" font-size="10.00">std::shared_ptr&lt; std</text>
<text text-anchor="start" x="438.38" y="-798.75" font-family="Helvetica,sans-Serif" font-size="10.00">::vector&lt; std::string &gt; &gt;</text>
<text text-anchor="start" x="486" y="-784" font-family="Helvetica,sans-Serif" font-size="10.00"> </text>
<text text-anchor="start" x="447.5" y="-769" font-family="Helvetica,sans-Serif" font-size="10.00">+</text>
<text text-anchor="start" x="467.5" y="-769" font-family="Helvetica,sans-Serif" font-size="10.00">operator&#45;&gt;()</text>
<polygon fill="#666666" stroke="#666666" points="433.5,-795.5 433.5,-795.5 541.5,-795.5 541.5,-795.5 433.5,-795.5"/>
<polygon fill="#666666" stroke="#666666" points="433.5,-780.5 433.5,-780.5 541.5,-780.5 541.5,-780.5 433.5,-780.5"/>
<polygon fill="none" stroke="#666666" points="433.5,-763.5 433.5,-823.5 541.5,-823.5 541.5,-763.5 433.5,-763.5"/>
</a>
</g>
</g>
<!-- Node7&#45;&gt;Node9 -->
<g id="edge13_Node000009_Node000007" class="edge">
<title>Node7&#45;&gt;Node9</title>
<g id="a_edge13_Node000009_Node000007"><a xlink:title=" ">
<path fill="none" stroke="orange" d="M519.07,-1111.78C512.18,-1042.54 496.78,-887.72 490.37,-823.39"/>
<polygon fill="orange" stroke="orange" points="515.55,-1111.79 520.03,-1121.39 522.52,-1111.09 515.55,-1111.79"/>
</a>
</g>
<text text-anchor="start" x="514.5" y="-1047.25" font-family="Helvetica,sans-Serif" font-size="10.00" fill="grey"> &lt; std::vector&lt; std</text>
<text text-anchor="middle" x="553.12" y="-1036" font-family="Helvetica,sans-Serif" font-size="10.00" fill="grey">::string &gt; &gt;</text>
</g>
<!-- Node13 -->
<g id="Node000013" class="node">
<title>Node13</title>
<g id="a_Node000013"><a xlink:title=" ">
<polygon fill="white" stroke="none" points="486,-1075.5 391,-1075.5 391,-1015.5 486,-1015.5 486,-1075.5"/>
<text text-anchor="start" x="395.75" y="-1062" font-family="Helvetica,sans-Serif" font-size="10.00">std::shared_ptr&lt; std</text>
<text text-anchor="start" x="414.5" y="-1050.75" font-family="Helvetica,sans-Serif" font-size="10.00">::ostream &gt;</text>
<text text-anchor="start" x="437" y="-1036" font-family="Helvetica,sans-Serif" font-size="10.00"> </text>
<text text-anchor="start" x="401.5" y="-1021" font-family="Helvetica,sans-Serif" font-size="10.00">+</text>
<text text-anchor="start" x="418" y="-1021" font-family="Helvetica,sans-Serif" font-size="10.00">operator&#45;&gt;()</text>
<polygon fill="#666666" stroke="#666666" points="391,-1047.5 391,-1047.5 486,-1047.5 486,-1047.5 391,-1047.5"/>
<polygon fill="#666666" stroke="#666666" points="391,-1032.5 391,-1032.5 486,-1032.5 486,-1032.5 391,-1032.5"/>
<polygon fill="none" stroke="#666666" points="391,-1015.5 391,-1075.5 486,-1075.5 486,-1015.5 391,-1015.5"/>
</a>
</g>
</g>
<!-- Node7&#45;&gt;Node13 -->
<g id="edge20_Node000013_Node000007" class="edge">
<title>Node7&#45;&gt;Node13</title>
<g id="a_edge20_Node000013_Node000007"><a xlink:title=" ">
<path fill="none" stroke="orange" d="M464.84,-1121.21C454.43,-1115.6 445.82,-1109.81 442.5,-1104.75 436.89,-1096.19 435.08,-1085.32 434.95,-1075.29"/>
<polygon fill="orange" stroke="orange" points="462.95,-1124.18 473.45,-1125.61 466.13,-1117.95 462.95,-1124.18"/>
</a>
</g>
<text text-anchor="middle" x="478.5" y="-1095.25" font-family="Helvetica,sans-Serif" font-size="10.00" fill="grey"> &lt; std::ostream &gt;</text>
</g>
<!-- Node8 -->
<g id="Node000008" class="node">
<title>Node8</title>
<g id="a_Node000008"><a xlink:title=" ">
<polygon fill="white" stroke="none" points="465.5,-1273.5 449.5,-1273.5 449.5,-1224.5 465.5,-1224.5 465.5,-1273.5"/>
<text text-anchor="start" x="454.5" y="-1260" font-family="Helvetica,sans-Serif" font-size="10.00">T</text>
<text text-anchor="start" x="456" y="-1245" font-family="Helvetica,sans-Serif" font-size="10.00"> </text>
<text text-anchor="start" x="456" y="-1230" font-family="Helvetica,sans-Serif" font-size="10.00"> </text>
<polygon fill="#666666" stroke="#666666" points="449.5,-1256.5 449.5,-1256.5 465.5,-1256.5 465.5,-1256.5 449.5,-1256.5"/>
<polygon fill="#666666" stroke="#666666" points="449.5,-1241.5 449.5,-1241.5 465.5,-1241.5 465.5,-1241.5 449.5,-1241.5"/>
<polygon fill="none" stroke="#666666" points="449.5,-1224.5 449.5,-1273.5 465.5,-1273.5 465.5,-1224.5 449.5,-1224.5"/>
</a>
</g>
</g>
<!-- Node8&#45;&gt;Node7 -->
<g id="edge7_Node000007_Node000008" class="edge">
<title>Node8&#45;&gt;Node7</title>
<g id="a_edge7_Node000007_Node000008"><a xlink:title=" ">
<path fill="none" stroke="#63b8ff" d="M465.47,-1235.77C474.1,-1222.52 488.25,-1200.81 500.3,-1182.33"/>
<polygon fill="none" stroke="#63b8ff" points="500.23,-1182.43 500.15,-1175.22 506.78,-1172.38 506.85,-1179.59 500.23,-1182.43"/>
</a>
</g>
<text text-anchor="middle" x="503.25" y="-1191.5" font-family="Helvetica,sans-Serif" font-size="10.00" fill="grey"> +ptr</text>
</g>
<!-- Node11 -->
<g id="Node000011" class="node">
<title>Node11</title>
<g id="a_Node000011"><a xlink:title=" ">
<polygon fill="white" stroke="none" points="451,-1171.75 374,-1171.75 374,-1122.75 451,-1122.75 451,-1171.75"/>
<text text-anchor="start" x="378.75" y="-1158.25" font-family="Helvetica,sans-Serif" font-size="10.00">std::vector&lt; T &gt;</text>
<text text-anchor="start" x="411" y="-1143.25" font-family="Helvetica,sans-Serif" font-size="10.00"> </text>
<text text-anchor="start" x="411" y="-1128.25" font-family="Helvetica,sans-Serif" font-size="10.00"> </text>
<polygon fill="#666666" stroke="#666666" points="374,-1154.75 374,-1154.75 451,-1154.75 451,-1154.75 374,-1154.75"/>
<polygon fill="#666666" stroke="#666666" points="374,-1139.75 374,-1139.75 451,-1139.75 451,-1139.75 374,-1139.75"/>
<polygon fill="none" stroke="#666666" points="374,-1122.75 374,-1171.75 451,-1171.75 451,-1122.75 374,-1122.75"/>
</a>
</g>
</g>
<!-- Node8&#45;&gt;Node11 -->
<g id="edge12_Node000011_Node000008" class="edge">
<title>Node8&#45;&gt;Node11</title>
<g id="a_edge12_Node000011_Node000008"><a xlink:title=" ">
<path fill="none" stroke="#63b8ff" d="M449.66,-1230.62C443.76,-1217.55 435.48,-1199.19 428.23,-1183.12"/>
<polygon fill="none" stroke="#63b8ff" points="428.25,-1183.17 422.14,-1179.34 423.32,-1172.23 429.43,-1176.05 428.25,-1183.17"/>
</a>
</g>
<text text-anchor="middle" x="458.5" y="-1191.5" font-family="Helvetica,sans-Serif" font-size="10.00" fill="grey"> +elements</text>
</g>
<!-- Node9&#45;&gt;Node2 -->
<g id="edge8_Node000002_Node000009" class="edge">
<title>Node9&#45;&gt;Node2</title>
<g id="a_edge8_Node000002_Node000009"><a xlink:title=" ">
<path fill="none" stroke="#63b8ff" d="M475.27,-763.65C463.2,-735.8 443.8,-692.66 424.5,-656.5 404.63,-619.27 381.44,-579.75 359.59,-543.94"/>
<polygon fill="none" stroke="#63b8ff" points="359.6,-543.96 353.06,-540.93 353.33,-533.73 359.88,-536.75 359.6,-543.96"/>
</a>
</g>
<text text-anchor="middle" x="456.25" y="-629" font-family="Helvetica,sans-Serif" font-size="10.00" fill="grey"> #input_var_names</text>
<text text-anchor="middle" x="456.25" y="-617.75" font-family="Helvetica,sans-Serif" font-size="10.00" fill="grey">#output_var_names</text>
</g>
<!-- Node10&#45;&gt;Node9 -->
<g id="edge9_Node000009_Node000010" class="edge">
<title>Node10&#45;&gt;Node9</title>
<g id="a_edge9_Node000009_Node000010"><a xlink:title=" ">
<path fill="none" stroke="#63b8ff" d="M329.24,-1021.02C341.69,-999.84 362.33,-968.96 387,-948.5 401.23,-936.7 411.52,-943.66 424.5,-930.5 450.45,-904.2 466.99,-865.23 476.58,-835.75"/>
<polygon fill="none" stroke="#63b8ff" points="476.6,-835.68 474.54,-828.77 480.13,-824.21 482.19,-831.12 476.6,-835.68"/>
</a>
</g>
<text text-anchor="middle" x="396.25" y="-969.12" font-family="Helvetica,sans-Serif" font-size="10.00" fill="grey"> +ptr</text>
</g>
<!-- Node11&#45;&gt;Node10 -->
<g id="edge11_Node000010_Node000011" class="edge">
<title>Node11&#45;&gt;Node10</title>
<g id="a_edge11_Node000010_Node000011"><a xlink:title=" ">
<path fill="none" stroke="orange" d="M382.05,-1114.62C368.04,-1100.06 351.72,-1083.1 338.87,-1069.74"/>
<polygon fill="orange" stroke="orange" points="379.49,-1116.99 388.94,-1121.77 384.53,-1112.14 379.49,-1116.99"/>
</a>
</g>
<text text-anchor="middle" x="400.88" y="-1095.25" font-family="Helvetica,sans-Serif" font-size="10.00" fill="grey"> &lt; std::string &gt;</text>
</g>
<!-- Node12&#45;&gt;Node2 -->
<g id="edge14_Node000002_Node000012" class="edge">
<title>Node12&#45;&gt;Node2</title>
<g id="a_edge14_Node000002_Node000012"><a xlink:title=" ">
<path fill="none" stroke="#63b8ff" d="M345.71,-701.74C339.35,-674 332.11,-642.39 324.83,-610.64"/>
<polygon fill="none" stroke="#63b8ff" points="324.82,-610.57 319.58,-605.62 322.14,-598.87 327.38,-603.83 324.82,-610.57"/>
</a>
</g>
<text text-anchor="middle" x="346.75" y="-623.38" font-family="Helvetica,sans-Serif" font-size="10.00" fill="grey"> #output</text>
</g>
<!-- Node13&#45;&gt;Node12 -->
<g id="edge15_Node000012_Node000013" class="edge">
<title>Node13&#45;&gt;Node12</title>
<g id="a_edge15_Node000012_Node000013"><a xlink:title=" ">
<path fill="none" stroke="#63b8ff" d="M430.24,-1015.82C421.9,-986.87 408.53,-940.42 396.17,-897.54"/>
<polygon fill="none" stroke="#63b8ff" points="396.21,-897.65 390.7,-892.99 392.89,-886.12 398.39,-890.78 396.21,-897.65"/>
</a>
</g>
<text text-anchor="middle" x="459.38" y="-969.12" font-family="Helvetica,sans-Serif" font-size="10.00" fill="grey"> #output_stream</text>
</g>
<!-- Node14 -->
<g id="Node000014" class="node">
<title>Node14</title>
<g id="a_Node000014"><a xlink:title=" ">
<polygon fill="white" stroke="none" points="346,-1171.75 283,-1171.75 283,-1122.75 346,-1122.75 346,-1171.75"/>
<text text-anchor="start" x="287.88" y="-1158.25" font-family="Helvetica,sans-Serif" font-size="10.00">std::ostream</text>
<text text-anchor="start" x="313" y="-1143.25" font-family="Helvetica,sans-Serif" font-size="10.00"> </text>
<text text-anchor="start" x="313" y="-1128.25" font-family="Helvetica,sans-Serif" font-size="10.00"> </text>
<polygon fill="#666666" stroke="#666666" points="283,-1154.75 283,-1154.75 346,-1154.75 346,-1154.75 283,-1154.75"/>
<polygon fill="#666666" stroke="#666666" points="283,-1139.75 283,-1139.75 346,-1139.75 346,-1139.75 283,-1139.75"/>
<polygon fill="none" stroke="#666666" points="283,-1122.75 283,-1171.75 346,-1171.75 346,-1122.75 283,-1122.75"/>
</a>
</g>
</g>
<!-- Node14&#45;&gt;Node13 -->
<g id="edge16_Node000013_Node000014" class="edge">
<title>Node14&#45;&gt;Node13</title>
<g id="a_edge16_Node000013_Node000014"><a xlink:title=" ">
<path fill="none" stroke="#63b8ff" d="M322.08,-1122.97C326.33,-1112.86 332.51,-1101.53 341,-1093.5 353.21,-1081.96 361.32,-1083.16 379.37,-1076.35"/>
<polygon fill="none" stroke="#63b8ff" points="379.4,-1076.34 383.34,-1070.3 390.43,-1071.61 386.49,-1077.65 379.4,-1076.34"/>
</a>
</g>
<text text-anchor="middle" x="351.25" y="-1095.25" font-family="Helvetica,sans-Serif" font-size="10.00" fill="grey"> +ptr</text>
</g>
<!-- Node15 -->
<g id="Node000015" class="node">
<title>Node15</title>
<g id="a_Node000015"><a xlink:title=" ">
<polygon fill="white" stroke="none" points="360,-1279 269,-1279 269,-1219 360,-1219 360,-1279"/>
<text text-anchor="start" x="273.62" y="-1265.5" font-family="Helvetica,sans-Serif" font-size="10.00">std::basic_ostream</text>
<text text-anchor="start" x="296.12" y="-1254.25" font-family="Helvetica,sans-Serif" font-size="10.00">&lt; Char &gt;</text>
<text text-anchor="start" x="313" y="-1239.5" font-family="Helvetica,sans-Serif" font-size="10.00"> </text>
<text text-anchor="start" x="313" y="-1224.5" font-family="Helvetica,sans-Serif" font-size="10.00"> </text>
<polygon fill="#666666" stroke="#666666" points="269,-1251 269,-1251 360,-1251 360,-1251 269,-1251"/>
<polygon fill="#666666" stroke="#666666" points="269,-1236 269,-1236 360,-1236 360,-1236 269,-1236"/>
<polygon fill="none" stroke="#666666" points="269,-1219 269,-1279 360,-1279 360,-1219 269,-1219"/>
</a>
</g>
</g>
<!-- Node15&#45;&gt;Node14 -->
<g id="edge17_Node000014_Node000015" class="edge">
<title>Node15&#45;&gt;Node14</title>
<g id="a_edge17_Node000014_Node000015"><a xlink:title=" ">
<path fill="none" stroke="#63b8ff" d="M314.5,-1207.74C314.5,-1195.49 314.5,-1182.42 314.5,-1171.67"/>
<polygon fill="none" stroke="#63b8ff" points="311,-1207.63 314.5,-1217.63 318,-1207.63 311,-1207.63"/>
</a>
</g>
</g>
<!-- Node16 -->
<g id="Node000016" class="node">
<title>Node16</title>
<g id="a_Node000016"><a xlink:title=" ">
<polygon fill="white" stroke="none" points="367.5,-1365 261.5,-1365 261.5,-1316 367.5,-1316 367.5,-1365"/>
<text text-anchor="start" x="266.5" y="-1351.5" font-family="Helvetica,sans-Serif" font-size="10.00">std::basic_ios&lt; Char &gt;</text>
<text text-anchor="start" x="313" y="-1336.5" font-family="Helvetica,sans-Serif" font-size="10.00"> </text>
<text text-anchor="start" x="313" y="-1321.5" font-family="Helvetica,sans-Serif" font-size="10.00"> </text>
<polygon fill="#666666" stroke="#666666" points="261.5,-1348 261.5,-1348 367.5,-1348 367.5,-1348 261.5,-1348"/>
<polygon fill="#666666" stroke="#666666" points="261.5,-1333 261.5,-1333 367.5,-1333 367.5,-1333 261.5,-1333"/>
<polygon fill="none" stroke="#666666" points="261.5,-1316 261.5,-1365 367.5,-1365 367.5,-1316 261.5,-1316"/>
</a>
</g>
</g>
<!-- Node16&#45;&gt;Node15 -->
<g id="edge18_Node000015_Node000016" class="edge">
<title>Node16&#45;&gt;Node15</title>
<g id="a_edge18_Node000015_Node000016"><a xlink:title=" ">
<path fill="none" stroke="#63b8ff" d="M314.5,-1305.07C314.5,-1296.37 314.5,-1287.12 314.5,-1278.74"/>
<polygon fill="none" stroke="#63b8ff" points="311,-1304.94 314.5,-1314.94 318,-1304.94 311,-1304.94"/>
</a>
</g>
</g>
<!-- Node17 -->
<g id="Node000017" class="node">
<title>Node17</title>
<g id="a_Node000017"><a xlink:title=" ">
<polygon fill="white" stroke="none" points="348,-1451 281,-1451 281,-1402 348,-1402 348,-1451"/>
<text text-anchor="start" x="286" y="-1437.5" font-family="Helvetica,sans-Serif" font-size="10.00">std::ios_base</text>
<text text-anchor="start" x="313" y="-1422.5" font-family="Helvetica,sans-Serif" font-size="10.00"> </text>
<text text-anchor="start" x="313" y="-1407.5" font-family="Helvetica,sans-Serif" font-size="10.00"> </text>
<polygon fill="#666666" stroke="#666666" points="281,-1434 281,-1434 348,-1434 348,-1434 281,-1434"/>
<polygon fill="#666666" stroke="#666666" points="281,-1419 281,-1419 348,-1419 348,-1419 281,-1419"/>
<polygon fill="none" stroke="#666666" points="281,-1402 281,-1451 348,-1451 348,-1402 281,-1402"/>
</a>
</g>
</g>
<!-- Node17&#45;&gt;Node16 -->
<g id="edge19_Node000016_Node000017" class="edge">
<title>Node17&#45;&gt;Node16</title>
<g id="a_edge19_Node000016_Node000017"><a xlink:title=" ">
<path fill="none" stroke="#63b8ff" d="M314.5,-1390.62C314.5,-1381.91 314.5,-1372.77 314.5,-1364.77"/>
<polygon fill="none" stroke="#63b8ff" points="311,-1390.59 314.5,-1400.59 318,-1390.59 311,-1390.59"/>
</a>
</g>
</g>
</g>
</svg>

<g id="navigator" transform="translate(0 0)" fill="#404254">
  <rect fill="#f2f5e9" fill-opacity="0.5" stroke="#606060" stroke-width=".5" x="0" y="0" width="60" height="60"/>
  <use id="zoomplus" xlink:href="#zoomPlus" x="17" y="9" onmousedown="handleZoom(evt,'in')"/>
  <use id="zoomminus" xlink:href="#zoomMin" x="42" y="9" onmousedown="handleZoom(evt,'out')"/>
  <use id="reset" xlink:href="#resetDef" x="30" y="36" onmousedown="handleReset()"/>
   <use id="arrowup" xlink:href="#arrowUp" x="0" y="0" onmousedown="handlePan(0,-1)"/>
  <use id="arrowright" xlink:href="#arrowRight" x="0" y="0" onmousedown="handlePan(1,0)"/>
  <use id="arrowdown" xlink:href="#arrowDown" x="0" y="0" onmousedown="handlePan(0,1)"/>
  <use id="arrowleft" xlink:href="#arrowLeft" x="0" y="0" onmousedown="handlePan(-1,0)"/>
</g>
<svg viewBox="0 0 15 15" width="100%" height="30px" preserveAspectRatio="xMaxYMin meet">
 <g id="arrow_out" transform="scale(0.3 0.3)">
  <a xlink:href="classmodels_1_1bmi_1_1_abstract_c_lib_bmi_adapter__coll__graph_org.svg" target="_base">
   <rect id="button" ry="5" rx="5" y="6" x="6" height="38" width="38"
        fill="#f2f5e9" fill-opacity="0.5" stroke="#606060" stroke-width="1.0"/>
   <path id="arrow"
     d="M 11.500037,31.436501 C 11.940474,20.09759 22.043105,11.32322 32.158766,21.979434 L 37.068811,17.246167 C 37.068811,17.246167 37.088388,32 37.088388,32 L 22.160133,31.978069 C 22.160133,31.978069 26.997745,27.140456 26.997745,27.140456 C 18.528582,18.264221 13.291696,25.230495 11.500037,31.436501 z"
     style="fill:#404040;"/>
  </a>
 </g>
</svg>

<style type='text/css'>
<![CDATA[
[data-mouse-over-selected='false'] { opacity: 0.7; }
[data-mouse-over-selected='true']  { opacity: 1.0; }
]]>
</style>
<script type="application/ecmascript"><![CDATA[
document.addEventListener('DOMContentLoaded', (event) => {
  highlightEdges();
  highlightAdjacentNodes();
});
]]></script>
</svg>
