<?xml version="1.0" encoding="UTF-8" standalone="no"?>
<!DOCTYPE svg PUBLIC "-//W3C//DTD SVG 1.1//EN"
 "http://www.w3.org/Graphics/SVG/1.1/DTD/svg11.dtd">
<!-- Generated by graphviz version 12.2.0 (20241103.1931)
 -->
<!-- Title: external::ExternalIntegrationException Pages: 1 -->
<svg width="194pt" height="325pt"
 viewBox="0.00 0.00 193.64 325.00" xmlns="http://www.w3.org/2000/svg" xmlns:xlink="http://www.w3.org/1999/xlink">

<svg id="main" version="1.1" xmlns="http://www.w3.org/2000/svg" xmlns:xlink="http://www.w3.org/1999/xlink" xml:space="preserve">

<style type="text/css"><![CDATA[
.node, .edge {opacity: 0.7;}
.node.selected, .edge.selected {opacity: 1;}
.edge:hover path { stroke: red; }
.edge:hover polygon { stroke: red; fill: red; }
]]></style>
<script type="application/ecmascript" xlink:href="svg.min.js"/>
<svg id="graph" class="graph">
<g id="graph0" class="graph" transform="scale(1 1) rotate(0) translate(4 321)">
<title>external::ExternalIntegrationException</title>
<!-- Node1 -->
<g id="Node000001" class="node">
<title>Node1</title>
<g id="a_Node000001"><a xlink:title="Custom exception indicating a problem when integrating with some external component.">
<polygon fill="#999999" stroke="none" points="146.25,-122 0,-122 0,0 146.25,0 146.25,-122"/>
<text text-anchor="start" x="13.88" y="-108.5" font-family="Helvetica,sans-Serif" font-size="10.00">external::ExternalIntegration</text>
<text text-anchor="start" x="52.12" y="-97.25" font-family="Helvetica,sans-Serif" font-size="10.00">Exception</text>
<text text-anchor="start" x="71.62" y="-82" font-family="Helvetica,sans-Serif" font-size="10.00"> </text>
<text text-anchor="start" x="4" y="-66.75" font-family="Helvetica,sans-Serif" font-size="10.00">+</text>
<text text-anchor="start" x="14" y="-66.75" font-family="Helvetica,sans-Serif" font-size="10.00">ExternalIntegrationException()</text>
<text text-anchor="start" x="4" y="-51.5" font-family="Helvetica,sans-Serif" font-size="10.00">+</text>
<text text-anchor="start" x="14" y="-51.5" font-family="Helvetica,sans-Serif" font-size="10.00">ExternalIntegrationException()</text>
<text text-anchor="start" x="4" y="-36.25" font-family="Helvetica,sans-Serif" font-size="10.00">+</text>
<text text-anchor="start" x="14" y="-36.25" font-family="Helvetica,sans-Serif" font-size="10.00">ExternalIntegrationException()</text>
<text text-anchor="start" x="4" y="-21" font-family="Helvetica,sans-Serif" font-size="10.00">+</text>
<text text-anchor="start" x="14" y="-21" font-family="Helvetica,sans-Serif" font-size="10.00">ExternalIntegrationException()</text>
<text text-anchor="start" x="4" y="-5.75" font-family="Helvetica,sans-Serif" font-size="10.00">+</text>
<text text-anchor="start" x="14" y="-5.75" font-family="Helvetica,sans-Serif" font-size="10.00">what()</text>
<polygon fill="#666666" stroke="#666666" points="0,-93.5 0,-93.5 146.25,-93.5 146.25,-93.5 0,-93.5"/>
<polygon fill="#666666" stroke="#666666" points="0,-78.25 0,-78.25 146.25,-78.25 146.25,-78.25 0,-78.25"/>
<polygon fill="none" stroke="#666666" points="0,0 0,-122 146.25,-122 146.25,0 0,0"/>
</a>
</g>
</g>
<!-- Node2 -->
<g id="Node000002" class="node">
<title>Node2</title>
<g id="a_Node000002"><a xlink:title=" ">
<polygon fill="white" stroke="none" points="90.75,-219 23.5,-219 23.5,-169.25 90.75,-169.25 90.75,-219"/>
<text text-anchor="start" x="27.5" y="-205.5" font-family="Helvetica,sans-Serif" font-size="10.00">std::exception</text>
<text text-anchor="start" x="55.62" y="-190.25" font-family="Helvetica,sans-Serif" font-size="10.00"> </text>
<text text-anchor="start" x="55.62" y="-175" font-family="Helvetica,sans-Serif" font-size="10.00"> </text>
<polygon fill="#666666" stroke="#666666" points="23.5,-201.75 23.5,-201.75 90.75,-201.75 90.75,-201.75 23.5,-201.75"/>
<polygon fill="#666666" stroke="#666666" points="23.5,-186.5 23.5,-186.5 90.75,-186.5 90.75,-186.5 23.5,-186.5"/>
<polygon fill="none" stroke="#666666" points="23.5,-169.25 23.5,-219 90.75,-219 90.75,-169.25 23.5,-169.25"/>
</a>
</g>
</g>
<!-- Node2&#45;&gt;Node1 -->
<g id="edge1_Node000001_Node000002" class="edge">
<title>Node2&#45;&gt;Node1</title>
<g id="a_edge1_Node000001_Node000002"><a xlink:title=" ">
<path fill="none" stroke="#63b8ff" d="M61.41,-157.98C62.77,-146.85 64.31,-134.22 65.82,-121.86"/>
<polygon fill="none" stroke="#63b8ff" points="57.94,-157.53 60.21,-167.88 64.89,-158.37 57.94,-157.53"/>
</a>
</g>
</g>
<!-- Node3 -->
<g id="Node000003" class="node">
<title>Node3</title>
<g id="a_Node000003"><a xlink:title=" ">
<polygon fill="white" stroke="none" points="159.12,-219 109.12,-219 109.12,-169.25 159.12,-169.25 159.12,-219"/>
<text text-anchor="start" x="113.12" y="-205.5" font-family="Helvetica,sans-Serif" font-size="10.00">std::string</text>
<text text-anchor="start" x="132.62" y="-190.25" font-family="Helvetica,sans-Serif" font-size="10.00"> </text>
<text text-anchor="start" x="132.62" y="-175" font-family="Helvetica,sans-Serif" font-size="10.00"> </text>
<polygon fill="#666666" stroke="#666666" points="109.12,-201.75 109.12,-201.75 159.12,-201.75 159.12,-201.75 109.12,-201.75"/>
<polygon fill="#666666" stroke="#666666" points="109.12,-186.5 109.12,-186.5 159.12,-186.5 159.12,-186.5 109.12,-186.5"/>
<polygon fill="none" stroke="#666666" points="109.12,-169.25 109.12,-219 159.12,-219 159.12,-169.25 109.12,-169.25"/>
</a>
</g>
</g>
<!-- Node3&#45;&gt;Node1 -->
<g id="edge2_Node000001_Node000003" class="edge">
<title>Node3&#45;&gt;Node1</title>
<g id="a_edge2_Node000001_Node000003"><a xlink:title=" ">
<path fill="none" stroke="#63b8ff" d="M123.08,-169.38C118.27,-159.05 112.36,-146.34 106.31,-133.32"/>
<polygon fill="none" stroke="#63b8ff" points="106.41,-133.56 100.26,-129.8 101.35,-122.68 107.51,-126.43 106.41,-133.56"/>
</a>
</g>
<text text-anchor="middle" x="150.02" y="-141.75" font-family="Helvetica,sans-Serif" font-size="10.00" fill="grey"> &#45;what_message</text>
</g>
<!-- Node4 -->
<g id="Node000004" class="node">
<title>Node4</title>
<g id="a_Node000004"><a xlink:title=" ">
<polygon fill="white" stroke="none" points="176.38,-317 91.88,-317 91.88,-256 176.38,-256 176.38,-317"/>
<text text-anchor="start" x="95.88" y="-303.5" font-family="Helvetica,sans-Serif" font-size="10.00">std::basic_string&lt;</text>
<text text-anchor="start" x="118.75" y="-292.25" font-family="Helvetica,sans-Serif" font-size="10.00"> Char &gt;</text>
<text text-anchor="start" x="132.62" y="-277" font-family="Helvetica,sans-Serif" font-size="10.00"> </text>
<text text-anchor="start" x="132.62" y="-261.75" font-family="Helvetica,sans-Serif" font-size="10.00"> </text>
<polygon fill="#666666" stroke="#666666" points="91.88,-288.5 91.88,-288.5 176.38,-288.5 176.38,-288.5 91.88,-288.5"/>
<polygon fill="#666666" stroke="#666666" points="91.88,-273.25 91.88,-273.25 176.38,-273.25 176.38,-273.25 91.88,-273.25"/>
<polygon fill="none" stroke="#666666" points="91.88,-256 91.88,-317 176.38,-317 176.38,-256 91.88,-256"/>
</a>
</g>
</g>
<!-- Node4&#45;&gt;Node3 -->
<g id="edge3_Node000003_Node000004" class="edge">
<title>Node4&#45;&gt;Node3</title>
<g id="a_edge3_Node000003_Node000004"><a xlink:title=" ">
<path fill="none" stroke="#63b8ff" d="M134.12,-244.9C134.12,-235.94 134.12,-226.75 134.12,-218.73"/>
<polygon fill="none" stroke="#63b8ff" points="130.63,-244.89 134.13,-254.89 137.63,-244.89 130.63,-244.89"/>
</a>
</g>
</g>
</g>
</svg>
</svg>

<style type='text/css'>
<![CDATA[
[data-mouse-over-selected='false'] { opacity: 0.7; }
[data-mouse-over-selected='true']  { opacity: 1.0; }
]]>
</style>
<script type="application/ecmascript"><![CDATA[
document.addEventListener('DOMContentLoaded', (event) => {
  highlightEdges();
  highlightAdjacentNodes();
});
]]></script>
</svg>
