<?xml version="1.0" encoding="UTF-8" standalone="no"?>
<!DOCTYPE svg PUBLIC "-//W3C//DTD SVG 1.1//EN"
 "http://www.w3.org/Graphics/SVG/1.1/DTD/svg11.dtd">
<!-- Generated by graphviz version 9.0.0 (20230911.1827)
 -->
<!-- Title: HY_FlowPath Pages: 1 -->
<svg width="1011pt" height="741pt"
 viewBox="0.00 0.00 1011.41 741.25" xmlns="http://www.w3.org/2000/svg" xmlns:xlink="http://www.w3.org/1999/xlink">
<g id="graph0" class="graph" transform="scale(1 1) rotate(0) translate(4 737.25)">
<title>HY_FlowPath</title>
<!-- Node1 -->
<g id="Node000001" class="node">
<title>Node1</title>
<g id="a_Node000001"><a xlink:title=" ">
<polygon fill="#999999" stroke="none" points="221.16,-259.25 131.16,-259.25 131.16,-195.25 221.16,-195.25 221.16,-259.25"/>
<text text-anchor="start" x="145.79" y="-245.75" font-family="Helvetica,sans-Serif" font-size="10.00">HY_FlowPath</text>
<text text-anchor="start" x="174.66" y="-230.75" font-family="Helvetica,sans-Serif" font-size="10.00"> </text>
<text text-anchor="start" x="135.16" y="-215.75" font-family="Helvetica,sans-Serif" font-size="10.00">+</text>
<text text-anchor="start" x="145.16" y="-215.75" font-family="Helvetica,sans-Serif" font-size="10.00">HY_FlowPath()</text>
<text text-anchor="start" x="135.16" y="-200.75" font-family="Helvetica,sans-Serif" font-size="10.00">+</text>
<text text-anchor="start" x="145.16" y="-200.75" font-family="Helvetica,sans-Serif" font-size="10.00">~HY_FlowPath()</text>
<polygon fill="#666666" stroke="#666666" points="131.16,-242.25 131.16,-242.25 221.16,-242.25 221.16,-242.25 131.16,-242.25"/>
<polygon fill="#666666" stroke="#666666" points="131.16,-227.25 131.16,-227.25 221.16,-227.25 221.16,-227.25 131.16,-227.25"/>
<polygon fill="none" stroke="#666666" points="131.16,-195.25 131.16,-259.25 221.16,-259.25 221.16,-195.25 131.16,-195.25"/>
</a>
</g>
</g>
<!-- Node2 -->
<g id="Node000002" class="node">
<title>Node2</title>
<g id="a_Node000002"><a xlink:href="class_g_m___object.html" target="_top" xlink:title=" ">
<polygon fill="white" stroke="none" points="341.16,-469.75 263.16,-469.75 263.16,-405.75 341.16,-405.75 341.16,-469.75"/>
<text text-anchor="start" x="277.41" y="-456.25" font-family="Helvetica,sans-Serif" font-size="10.00">GM_Object</text>
<text text-anchor="start" x="300.66" y="-441.25" font-family="Helvetica,sans-Serif" font-size="10.00"> </text>
<text text-anchor="start" x="267.16" y="-426.25" font-family="Helvetica,sans-Serif" font-size="10.00">+</text>
<text text-anchor="start" x="277.16" y="-426.25" font-family="Helvetica,sans-Serif" font-size="10.00">GM_Object()</text>
<text text-anchor="start" x="267.16" y="-411.25" font-family="Helvetica,sans-Serif" font-size="10.00">+</text>
<text text-anchor="start" x="277.16" y="-411.25" font-family="Helvetica,sans-Serif" font-size="10.00">~GM_Object()</text>
<polygon fill="#666666" stroke="#666666" points="263.16,-452.75 263.16,-452.75 341.16,-452.75 341.16,-452.75 263.16,-452.75"/>
<polygon fill="#666666" stroke="#666666" points="263.16,-437.75 263.16,-437.75 341.16,-437.75 341.16,-437.75 263.16,-437.75"/>
<polygon fill="none" stroke="#666666" points="263.16,-405.75 263.16,-469.75 341.16,-469.75 341.16,-405.75 263.16,-405.75"/>
</a>
</g>
</g>
<!-- Node2&#45;&gt;Node1 -->
<g id="edge1_Node000001_Node000002" class="edge">
<title>Node2&#45;&gt;Node1</title>
<g id="a_edge1_Node000001_Node000002"><a xlink:title=" ">
<path fill="none" stroke="#63b8ff" d="M277.69,-396.25C253.44,-356.12 216.83,-295.54 194.83,-259.14"/>
<polygon fill="none" stroke="#63b8ff" points="274.62,-397.94 282.79,-404.69 280.61,-394.32 274.62,-397.94"/>
</a>
</g>
</g>
<!-- Node3 -->
<g id="Node000003" class="node">
<title>Node3</title>
<g id="a_Node000003"><a xlink:href="class_h_y___catchment_realization.html" target="_top" xlink:title=" ">
<polygon fill="white" stroke="none" points="150.66,-626 7.66,-626 7.66,-517 150.66,-517 150.66,-626"/>
<text text-anchor="start" x="22.16" y="-612.5" font-family="Helvetica,sans-Serif" font-size="10.00">HY_CatchmentRealization</text>
<text text-anchor="start" x="12.04" y="-597.5" font-family="Helvetica,sans-Serif" font-size="10.00">#</text>
<text text-anchor="start" x="21.66" y="-597.5" font-family="Helvetica,sans-Serif" font-size="10.00">id_number</text>
<text text-anchor="start" x="11.66" y="-582.5" font-family="Helvetica,sans-Serif" font-size="10.00">+</text>
<text text-anchor="start" x="21.66" y="-582.5" font-family="Helvetica,sans-Serif" font-size="10.00">HY_CatchmentRealization()</text>
<text text-anchor="start" x="11.66" y="-567.5" font-family="Helvetica,sans-Serif" font-size="10.00">+</text>
<text text-anchor="start" x="21.66" y="-567.5" font-family="Helvetica,sans-Serif" font-size="10.00">~HY_CatchmentRealization()</text>
<text text-anchor="start" x="11.66" y="-552.5" font-family="Helvetica,sans-Serif" font-size="10.00">+</text>
<text text-anchor="start" x="21.66" y="-552.5" font-family="Helvetica,sans-Serif" font-size="10.00">get_response()</text>
<text text-anchor="start" x="12.04" y="-537.5" font-family="Helvetica,sans-Serif" font-size="10.00">#</text>
<text text-anchor="start" x="21.66" y="-537.5" font-family="Helvetica,sans-Serif" font-size="10.00">get_catchment_id()</text>
<text text-anchor="start" x="12.04" y="-522.5" font-family="Helvetica,sans-Serif" font-size="10.00">#</text>
<text text-anchor="start" x="21.66" y="-522.5" font-family="Helvetica,sans-Serif" font-size="10.00">set_catchment_id()</text>
<polygon fill="#666666" stroke="#666666" points="7.66,-609 7.66,-609 150.66,-609 150.66,-609 7.66,-609"/>
<polygon fill="#666666" stroke="#666666" points="7.66,-594 7.66,-594 19.66,-594 19.66,-594 7.66,-594"/>
<polygon fill="#666666" stroke="#666666" points="19.66,-594 19.66,-594 150.66,-594 150.66,-594 19.66,-594"/>
<polygon fill="none" stroke="#666666" points="7.66,-517 7.66,-626 150.66,-626 150.66,-517 7.66,-517"/>
</a>
</g>
</g>
<!-- Node3&#45;&gt;Node1 -->
<g id="edge2_Node000001_Node000003" class="edge">
<title>Node3&#45;&gt;Node1</title>
<g id="a_edge2_Node000001_Node000003"><a xlink:title=" ">
<path fill="none" stroke="#63b8ff" d="M82.15,-505.63C84.7,-474.94 89.42,-438.03 98.16,-405.75 112.72,-351.98 141.06,-293.55 159.27,-258.95"/>
<polygon fill="none" stroke="#63b8ff" points="78.67,-505.31 81.39,-515.55 85.65,-505.85 78.67,-505.31"/>
</a>
</g>
</g>
<!-- Node7 -->
<g id="Node000007" class="node">
<title>Node7</title>
<g id="a_Node000007"><a xlink:title=" ">
<polygon fill="white" stroke="none" points="515.16,-467.75 397.16,-467.75 397.16,-407.75 515.16,-407.75 515.16,-467.75"/>
<text text-anchor="start" x="402.16" y="-454.25" font-family="Helvetica,sans-Serif" font-size="10.00">std::shared_ptr&lt; HY</text>
<text text-anchor="start" x="402.16" y="-443" font-family="Helvetica,sans-Serif" font-size="10.00">_CatchmentRealization &gt;</text>
<text text-anchor="start" x="454.66" y="-428.25" font-family="Helvetica,sans-Serif" font-size="10.00"> </text>
<text text-anchor="start" x="413.66" y="-413.25" font-family="Helvetica,sans-Serif" font-size="10.00">+</text>
<text text-anchor="start" x="436.16" y="-413.25" font-family="Helvetica,sans-Serif" font-size="10.00">operator&#45;&gt;()</text>
<polygon fill="#666666" stroke="#666666" points="397.16,-439.75 397.16,-439.75 515.16,-439.75 515.16,-439.75 397.16,-439.75"/>
<polygon fill="#666666" stroke="#666666" points="397.16,-424.75 397.16,-424.75 515.16,-424.75 515.16,-424.75 397.16,-424.75"/>
<polygon fill="none" stroke="#666666" points="397.16,-407.75 397.16,-467.75 515.16,-467.75 515.16,-407.75 397.16,-407.75"/>
</a>
</g>
</g>
<!-- Node3&#45;&gt;Node7 -->
<g id="edge7_Node000007_Node000003" class="edge">
<title>Node3&#45;&gt;Node7</title>
<g id="a_edge7_Node000007_Node000003"><a xlink:title=" ">
<path fill="none" stroke="#63b8ff" d="M150.55,-547.45C192.5,-533.74 246.49,-515.79 294.16,-499 324.25,-488.4 357.29,-476.22 385.64,-465.59"/>
<polygon fill="none" stroke="#63b8ff" points="385.4,-465.68 389.61,-459.82 396.63,-461.46 392.42,-467.31 385.4,-465.68"/>
</a>
</g>
<text text-anchor="middle" x="335.91" y="-489.5" font-family="Helvetica,sans-Serif" font-size="10.00" fill="grey"> +ptr</text>
</g>
<!-- Node4 -->
<g id="Node000004" class="node">
<title>Node4</title>
<g id="a_Node000004"><a xlink:title=" ">
<polygon fill="white" stroke="none" points="417.16,-60 321.16,-60 321.16,0 417.16,0 417.16,-60"/>
<text text-anchor="start" x="326.04" y="-46.5" font-family="Helvetica,sans-Serif" font-size="10.00">std::shared_ptr&lt; HY</text>
<text text-anchor="start" x="338.79" y="-35.25" font-family="Helvetica,sans-Serif" font-size="10.00">_Catchment &gt;</text>
<text text-anchor="start" x="367.66" y="-20.5" font-family="Helvetica,sans-Serif" font-size="10.00"> </text>
<text text-anchor="start" x="332.16" y="-5.5" font-family="Helvetica,sans-Serif" font-size="10.00">+</text>
<text text-anchor="start" x="349.16" y="-5.5" font-family="Helvetica,sans-Serif" font-size="10.00">operator&#45;&gt;()</text>
<polygon fill="#666666" stroke="#666666" points="321.16,-32 321.16,-32 417.16,-32 417.16,-32 321.16,-32"/>
<polygon fill="#666666" stroke="#666666" points="321.16,-17 321.16,-17 417.16,-17 417.16,-17 321.16,-17"/>
<polygon fill="none" stroke="#666666" points="321.16,0 321.16,-60 417.16,-60 417.16,0 321.16,0"/>
</a>
</g>
</g>
<!-- Node4&#45;&gt;Node3 -->
<g id="edge3_Node000003_Node000004" class="edge">
<title>Node4&#45;&gt;Node3</title>
<g id="a_edge3_Node000003_Node000004"><a xlink:title=" ">
<path fill="none" stroke="#63b8ff" d="M321.62,-34.05C267.24,-39.93 178.45,-57.09 122.16,-107.25 1.17,-215.07 -13.4,-269.28 8.66,-387.75 16.21,-428.27 32.41,-471.39 47.39,-505.56"/>
<polygon fill="none" stroke="#63b8ff" points="47.35,-505.48 53.45,-509.32 52.25,-516.43 46.15,-512.59 47.35,-505.48"/>
</a>
</g>
<text text-anchor="middle" x="54.91" y="-372.62" font-family="Helvetica,sans-Serif" font-size="10.00" fill="grey"> #realized_catchment</text>
</g>
<!-- Node5 -->
<g id="Node000005" class="node">
<title>Node5</title>
<g id="a_Node000005"><a xlink:href="class_h_y___catchment.html" target="_top" xlink:title=" ">
<polygon fill="white" stroke="none" points="700.66,-347.25 531.66,-347.25 531.66,-107.25 700.66,-107.25 700.66,-347.25"/>
<text text-anchor="start" x="582.79" y="-333.75" font-family="Helvetica,sans-Serif" font-size="10.00">HY_Catchment</text>
<text text-anchor="start" x="535.66" y="-318.75" font-family="Helvetica,sans-Serif" font-size="10.00">+</text>
<text text-anchor="start" x="545.66" y="-318.75" font-family="Helvetica,sans-Serif" font-size="10.00">ATMOSPHERIC_LAYER_HIGH</text>
<text text-anchor="start" x="535.66" y="-303.75" font-family="Helvetica,sans-Serif" font-size="10.00">+</text>
<text text-anchor="start" x="545.66" y="-303.75" font-family="Helvetica,sans-Serif" font-size="10.00">ATMOSPHERIC_Layer_LOW</text>
<text text-anchor="start" x="535.66" y="-288.75" font-family="Helvetica,sans-Serif" font-size="10.00">+</text>
<text text-anchor="start" x="545.66" y="-288.75" font-family="Helvetica,sans-Serif" font-size="10.00">CANOPY_LAYER</text>
<text text-anchor="start" x="535.66" y="-273.75" font-family="Helvetica,sans-Serif" font-size="10.00">+</text>
<text text-anchor="start" x="545.66" y="-273.75" font-family="Helvetica,sans-Serif" font-size="10.00">SNOW_LAYER</text>
<text text-anchor="start" x="535.66" y="-258.75" font-family="Helvetica,sans-Serif" font-size="10.00">+</text>
<text text-anchor="start" x="545.66" y="-258.75" font-family="Helvetica,sans-Serif" font-size="10.00">SURFACE_LAYER</text>
<text text-anchor="start" x="535.66" y="-243.75" font-family="Helvetica,sans-Serif" font-size="10.00">+</text>
<text text-anchor="start" x="545.66" y="-243.75" font-family="Helvetica,sans-Serif" font-size="10.00">GROUND_WATER_SHALLOW</text>
<text text-anchor="start" x="545.66" y="-232.5" font-family="Helvetica,sans-Serif" font-size="10.00">_LAYER</text>
<text text-anchor="start" x="535.66" y="-217.75" font-family="Helvetica,sans-Serif" font-size="10.00">+</text>
<text text-anchor="start" x="545.66" y="-217.75" font-family="Helvetica,sans-Serif" font-size="10.00">GROUND_WATER_DEEP_LAYER</text>
<text text-anchor="start" x="537.16" y="-202.75" font-family="Helvetica,sans-Serif" font-size="10.00">&#45;</text>
<text text-anchor="start" x="545.66" y="-202.75" font-family="Helvetica,sans-Serif" font-size="10.00">layer</text>
<text text-anchor="start" x="535.66" y="-187.75" font-family="Helvetica,sans-Serif" font-size="10.00">+</text>
<text text-anchor="start" x="545.66" y="-187.75" font-family="Helvetica,sans-Serif" font-size="10.00">HY_Catchment()</text>
<text text-anchor="start" x="535.66" y="-172.75" font-family="Helvetica,sans-Serif" font-size="10.00">+</text>
<text text-anchor="start" x="545.66" y="-172.75" font-family="Helvetica,sans-Serif" font-size="10.00">HY_Catchment()</text>
<text text-anchor="start" x="535.66" y="-157.75" font-family="Helvetica,sans-Serif" font-size="10.00">+</text>
<text text-anchor="start" x="545.66" y="-157.75" font-family="Helvetica,sans-Serif" font-size="10.00">~HY_Catchment()</text>
<text text-anchor="start" x="535.66" y="-142.75" font-family="Helvetica,sans-Serif" font-size="10.00">+</text>
<text text-anchor="start" x="545.66" y="-142.75" font-family="Helvetica,sans-Serif" font-size="10.00">get_outflow_nexuses()</text>
<text text-anchor="start" x="535.66" y="-127.75" font-family="Helvetica,sans-Serif" font-size="10.00">+</text>
<text text-anchor="start" x="545.66" y="-127.75" font-family="Helvetica,sans-Serif" font-size="10.00">get_layer()</text>
<text text-anchor="start" x="535.66" y="-112.75" font-family="Helvetica,sans-Serif" font-size="10.00">+</text>
<text text-anchor="start" x="545.66" y="-112.75" font-family="Helvetica,sans-Serif" font-size="10.00">set_layer()</text>
<polygon fill="#666666" stroke="#666666" points="531.66,-330.25 531.66,-330.25 700.66,-330.25 700.66,-330.25 531.66,-330.25"/>
<polygon fill="#666666" stroke="#666666" points="531.66,-199.25 531.66,-199.25 543.66,-199.25 543.66,-199.25 531.66,-199.25"/>
<polygon fill="#666666" stroke="#666666" points="543.66,-199.25 543.66,-199.25 700.66,-199.25 700.66,-199.25 543.66,-199.25"/>
<polygon fill="none" stroke="#666666" points="531.66,-107.25 531.66,-347.25 700.66,-347.25 700.66,-107.25 531.66,-107.25"/>
</a>
</g>
</g>
<!-- Node5&#45;&gt;Node4 -->
<g id="edge4_Node000004_Node000005" class="edge">
<title>Node5&#45;&gt;Node4</title>
<g id="a_edge4_Node000004_Node000005"><a xlink:title=" ">
<path fill="none" stroke="#63b8ff" d="M531.85,-159.6C493.01,-128.9 448.4,-93.64 415.73,-67.81"/>
<polygon fill="none" stroke="#63b8ff" points="415.68,-67.77 408.5,-67.19 406.27,-60.33 413.46,-60.92 415.68,-67.77"/>
</a>
</g>
<text text-anchor="middle" x="450.91" y="-79.75" font-family="Helvetica,sans-Serif" font-size="10.00" fill="grey"> +ptr</text>
</g>
<!-- Node6 -->
<g id="Node000006" class="node">
<title>Node6</title>
<g id="a_Node000006"><a xlink:href="class_h_y___hydro_feature.html" target="_top" xlink:title=" ">
<polygon fill="white" stroke="none" points="640.66,-469.75 533.66,-469.75 533.66,-405.75 640.66,-405.75 640.66,-469.75"/>
<text text-anchor="start" x="548.16" y="-456.25" font-family="Helvetica,sans-Serif" font-size="10.00">HY_HydroFeature</text>
<text text-anchor="start" x="585.66" y="-441.25" font-family="Helvetica,sans-Serif" font-size="10.00"> </text>
<text text-anchor="start" x="537.66" y="-426.25" font-family="Helvetica,sans-Serif" font-size="10.00">+</text>
<text text-anchor="start" x="547.66" y="-426.25" font-family="Helvetica,sans-Serif" font-size="10.00">HY_HydroFeature()</text>
<text text-anchor="start" x="537.66" y="-411.25" font-family="Helvetica,sans-Serif" font-size="10.00">+</text>
<text text-anchor="start" x="547.66" y="-411.25" font-family="Helvetica,sans-Serif" font-size="10.00">~HY_HydroFeature()</text>
<polygon fill="#666666" stroke="#666666" points="533.66,-452.75 533.66,-452.75 640.66,-452.75 640.66,-452.75 533.66,-452.75"/>
<polygon fill="#666666" stroke="#666666" points="533.66,-437.75 533.66,-437.75 640.66,-437.75 640.66,-437.75 533.66,-437.75"/>
<polygon fill="none" stroke="#666666" points="533.66,-405.75 533.66,-469.75 640.66,-469.75 640.66,-405.75 533.66,-405.75"/>
</a>
</g>
</g>
<!-- Node6&#45;&gt;Node5 -->
<g id="edge5_Node000005_Node000006" class="edge">
<title>Node6&#45;&gt;Node5</title>
<g id="a_edge5_Node000005_Node000006"><a xlink:title=" ">
<path fill="none" stroke="#63b8ff" d="M593.01,-394.7C594.98,-380.55 597.28,-363.99 599.66,-346.89"/>
<polygon fill="none" stroke="#63b8ff" points="589.56,-394.1 591.65,-404.49 596.5,-395.06 589.56,-394.1"/>
</a>
</g>
</g>
<!-- Node7&#45;&gt;Node5 -->
<g id="edge6_Node000005_Node000007" class="edge">
<title>Node7&#45;&gt;Node5</title>
<g id="a_edge6_Node000005_Node000007"><a xlink:title=" ">
<path fill="none" stroke="#63b8ff" d="M478.41,-407.76C490.77,-391.65 507.07,-370.41 524.12,-348.2"/>
<polygon fill="none" stroke="#63b8ff" points="524.14,-348.17 524.62,-340.98 531.44,-338.65 530.96,-345.85 524.14,-348.17"/>
</a>
</g>
<text text-anchor="middle" x="533.04" y="-372.62" font-family="Helvetica,sans-Serif" font-size="10.00" fill="grey"> +realization</text>
</g>
<!-- Node8 -->
<g id="Node000008" class="node">
<title>Node8</title>
<g id="a_Node000008"><a xlink:title=" ">
<polygon fill="white" stroke="none" points="439.16,-596 343.16,-596 343.16,-547 439.16,-547 439.16,-596"/>
<text text-anchor="start" x="348.04" y="-582.5" font-family="Helvetica,sans-Serif" font-size="10.00">std::shared_ptr&lt; T &gt;</text>
<text text-anchor="start" x="389.66" y="-567.5" font-family="Helvetica,sans-Serif" font-size="10.00"> </text>
<text text-anchor="start" x="354.16" y="-552.5" font-family="Helvetica,sans-Serif" font-size="10.00">+</text>
<text text-anchor="start" x="371.16" y="-552.5" font-family="Helvetica,sans-Serif" font-size="10.00">operator&#45;&gt;()</text>
<polygon fill="#666666" stroke="#666666" points="343.16,-579 343.16,-579 439.16,-579 439.16,-579 343.16,-579"/>
<polygon fill="#666666" stroke="#666666" points="343.16,-564 343.16,-564 439.16,-564 439.16,-564 343.16,-564"/>
<polygon fill="none" stroke="#666666" points="343.16,-547 343.16,-596 439.16,-596 439.16,-547 343.16,-547"/>
</a>
</g>
</g>
<!-- Node8&#45;&gt;Node4 -->
<g id="edge19_Node000004_Node000008" class="edge">
<title>Node8&#45;&gt;Node4</title>
<g id="a_edge19_Node000004_Node000008"><a xlink:title=" ">
<path fill="none" stroke="orange" d="M389.75,-535.88C385.7,-436.49 374.08,-151.53 370.34,-59.82"/>
<polygon fill="orange" stroke="orange" points="386.25,-535.96 390.16,-545.81 393.25,-535.67 386.25,-535.96"/>
</a>
</g>
<text text-anchor="middle" x="426.91" y="-372.62" font-family="Helvetica,sans-Serif" font-size="10.00" fill="grey"> &lt; HY_Catchment &gt;</text>
</g>
<!-- Node8&#45;&gt;Node7 -->
<g id="edge8_Node000007_Node000008" class="edge">
<title>Node8&#45;&gt;Node7</title>
<g id="a_edge8_Node000007_Node000008"><a xlink:title=" ">
<path fill="none" stroke="orange" d="M407.58,-537.22C418.23,-515.64 431.95,-487.84 442.09,-467.28"/>
<polygon fill="orange" stroke="orange" points="404.59,-535.38 403.3,-545.89 410.87,-538.47 404.59,-535.38"/>
</a>
</g>
<text text-anchor="middle" x="498.54" y="-489.5" font-family="Helvetica,sans-Serif" font-size="10.00" fill="grey"> &lt; HY_CatchmentRealization &gt;</text>
</g>
<!-- Node15 -->
<g id="Node000015" class="node">
<title>Node15</title>
<g id="a_Node000015"><a xlink:title=" ">
<polygon fill="white" stroke="none" points="244.66,-462.25 107.66,-462.25 107.66,-413.25 244.66,-413.25 244.66,-462.25"/>
<text text-anchor="start" x="112.41" y="-448.75" font-family="Helvetica,sans-Serif" font-size="10.00">std::shared_ptr&lt; linestring_t &gt;</text>
<text text-anchor="start" x="128.66" y="-433.75" font-family="Helvetica,sans-Serif" font-size="10.00">+</text>
<text text-anchor="start" x="155.66" y="-433.75" font-family="Helvetica,sans-Serif" font-size="10.00">ptr</text>
<text text-anchor="start" x="128.66" y="-418.75" font-family="Helvetica,sans-Serif" font-size="10.00">+</text>
<text text-anchor="start" x="155.66" y="-418.75" font-family="Helvetica,sans-Serif" font-size="10.00">operator&#45;&gt;()</text>
<polygon fill="#666666" stroke="#666666" points="107.66,-445.25 107.66,-445.25 244.66,-445.25 244.66,-445.25 107.66,-445.25"/>
<polygon fill="#666666" stroke="#666666" points="107.66,-430.25 107.66,-430.25 153.66,-430.25 153.66,-430.25 107.66,-430.25"/>
<polygon fill="#666666" stroke="#666666" points="153.66,-430.25 153.66,-430.25 244.66,-430.25 244.66,-430.25 153.66,-430.25"/>
<polygon fill="none" stroke="#666666" points="107.66,-413.25 107.66,-462.25 244.66,-462.25 244.66,-413.25 107.66,-413.25"/>
</a>
</g>
</g>
<!-- Node8&#45;&gt;Node15 -->
<g id="edge21_Node000015_Node000008" class="edge">
<title>Node8&#45;&gt;Node15</title>
<g id="a_edge21_Node000015_Node000008"><a xlink:title=" ">
<path fill="none" stroke="orange" d="M332.51,-552C299.89,-540 259.65,-522.25 228.16,-499 214.38,-488.82 201.75,-474.37 192.39,-462.17"/>
<polygon fill="orange" stroke="orange" points="331.24,-555.26 341.83,-555.34 333.6,-548.67 331.24,-555.26"/>
</a>
</g>
<text text-anchor="middle" x="261.16" y="-489.5" font-family="Helvetica,sans-Serif" font-size="10.00" fill="grey"> &lt; linestring_t &gt;</text>
</g>
<!-- Node9 -->
<g id="Node000009" class="node">
<title>Node9</title>
<g id="a_Node000009"><a xlink:title=" ">
<polygon fill="white" stroke="none" points="540.16,-727.75 524.16,-727.75 524.16,-678.75 540.16,-678.75 540.16,-727.75"/>
<text text-anchor="start" x="529.16" y="-714.25" font-family="Helvetica,sans-Serif" font-size="10.00">T</text>
<text text-anchor="start" x="530.66" y="-699.25" font-family="Helvetica,sans-Serif" font-size="10.00"> </text>
<text text-anchor="start" x="530.66" y="-684.25" font-family="Helvetica,sans-Serif" font-size="10.00"> </text>
<polygon fill="#666666" stroke="#666666" points="524.16,-710.75 524.16,-710.75 540.16,-710.75 540.16,-710.75 524.16,-710.75"/>
<polygon fill="#666666" stroke="#666666" points="524.16,-695.75 524.16,-695.75 540.16,-695.75 540.16,-695.75 524.16,-695.75"/>
<polygon fill="none" stroke="#666666" points="524.16,-678.75 524.16,-727.75 540.16,-727.75 540.16,-678.75 524.16,-678.75"/>
</a>
</g>
</g>
<!-- Node9&#45;&gt;Node8 -->
<g id="edge9_Node000008_Node000009" class="edge">
<title>Node9&#45;&gt;Node8</title>
<g id="a_edge9_Node000008_Node000009"><a xlink:title=" ">
<path fill="none" stroke="#63b8ff" d="M524.18,-694.9C505.62,-677.82 458.66,-634.62 425.83,-604.4"/>
<polygon fill="none" stroke="#63b8ff" points="426.06,-604.61 418.93,-603.49 417.23,-596.48 424.35,-597.6 426.06,-604.61"/>
</a>
</g>
<text text-anchor="middle" x="487.91" y="-645.75" font-family="Helvetica,sans-Serif" font-size="10.00" fill="grey"> +ptr</text>
</g>
<!-- Node13 -->
<g id="Node000013" class="node">
<title>Node13</title>
<g id="a_Node000013"><a xlink:title=" ">
<polygon fill="white" stroke="none" points="664.66,-596 587.66,-596 587.66,-547 664.66,-547 664.66,-596"/>
<text text-anchor="start" x="592.41" y="-582.5" font-family="Helvetica,sans-Serif" font-size="10.00">std::vector&lt; T &gt;</text>
<text text-anchor="start" x="624.66" y="-567.5" font-family="Helvetica,sans-Serif" font-size="10.00"> </text>
<text text-anchor="start" x="624.66" y="-552.5" font-family="Helvetica,sans-Serif" font-size="10.00"> </text>
<polygon fill="#666666" stroke="#666666" points="587.66,-579 587.66,-579 664.66,-579 664.66,-579 587.66,-579"/>
<polygon fill="#666666" stroke="#666666" points="587.66,-564 587.66,-564 664.66,-564 664.66,-564 587.66,-564"/>
<polygon fill="none" stroke="#666666" points="587.66,-547 587.66,-596 664.66,-596 664.66,-547 587.66,-547"/>
</a>
</g>
</g>
<!-- Node9&#45;&gt;Node13 -->
<g id="edge15_Node000013_Node000009" class="edge">
<title>Node9&#45;&gt;Node13</title>
<g id="a_edge15_Node000013_Node000009"><a xlink:title=" ">
<path fill="none" stroke="#63b8ff" d="M539.86,-691.63C553.23,-673.17 581.3,-634.42 601.81,-606.11"/>
<polygon fill="none" stroke="#63b8ff" points="601.69,-606.28 601.97,-599.08 608.73,-596.57 608.45,-603.77 601.69,-606.28"/>
</a>
</g>
<text text-anchor="middle" x="597.16" y="-645.75" font-family="Helvetica,sans-Serif" font-size="10.00" fill="grey"> +elements</text>
</g>
<!-- Node10 -->
<g id="Node000010" class="node">
<title>Node10</title>
<g id="a_Node000010"><a xlink:title=" ">
<polygon fill="white" stroke="none" points="882.16,-596 830.16,-596 830.16,-547 882.16,-547 882.16,-596"/>
<text text-anchor="start" x="835.16" y="-582.5" font-family="Helvetica,sans-Serif" font-size="10.00">std::string</text>
<text text-anchor="start" x="854.66" y="-567.5" font-family="Helvetica,sans-Serif" font-size="10.00"> </text>
<text text-anchor="start" x="854.66" y="-552.5" font-family="Helvetica,sans-Serif" font-size="10.00"> </text>
<polygon fill="#666666" stroke="#666666" points="830.16,-579 830.16,-579 882.16,-579 882.16,-579 830.16,-579"/>
<polygon fill="#666666" stroke="#666666" points="830.16,-564 830.16,-564 882.16,-564 882.16,-564 830.16,-564"/>
<polygon fill="none" stroke="#666666" points="830.16,-547 830.16,-596 882.16,-596 882.16,-547 830.16,-547"/>
</a>
</g>
</g>
<!-- Node10&#45;&gt;Node5 -->
<g id="edge10_Node000005_Node000010" class="edge">
<title>Node10&#45;&gt;Node5</title>
<g id="a_edge10_Node000005_Node000010"><a xlink:title=" ">
<path fill="none" stroke="#63b8ff" d="M874.76,-547.11C884.32,-533.79 895.19,-516.33 901.16,-499 908.51,-477.7 905.12,-407.47 904.16,-405.75 863.51,-332.94 779.37,-286.3 712.48,-259.19"/>
<polygon fill="none" stroke="#63b8ff" points="712.63,-259.25 705.58,-260.77 701.47,-254.85 708.52,-253.33 712.63,-259.25"/>
</a>
</g>
<text text-anchor="middle" x="954.29" y="-456.38" font-family="Helvetica,sans-Serif" font-size="10.00" fill="grey"> &#45;conjoint_catchment</text>
<text text-anchor="middle" x="954.29" y="-445.12" font-family="Helvetica,sans-Serif" font-size="10.00" fill="grey">&#45;containing_catchment</text>
<text text-anchor="middle" x="954.29" y="-433.88" font-family="Helvetica,sans-Serif" font-size="10.00" fill="grey">&#45;id</text>
<text text-anchor="middle" x="954.29" y="-422.62" font-family="Helvetica,sans-Serif" font-size="10.00" fill="grey">&#45;lower_catchment</text>
<text text-anchor="middle" x="954.29" y="-411.38" font-family="Helvetica,sans-Serif" font-size="10.00" fill="grey">&#45;upper_catchment</text>
</g>
<!-- Node12 -->
<g id="Node000012" class="node">
<title>Node12</title>
<g id="a_Node000012"><a xlink:title=" ">
<polygon fill="white" stroke="none" points="894.66,-462.25 795.66,-462.25 795.66,-413.25 894.66,-413.25 894.66,-462.25"/>
<text text-anchor="start" x="800.54" y="-448.75" font-family="Helvetica,sans-Serif" font-size="10.00">std::vector&lt; Nexus &gt;</text>
<text text-anchor="start" x="843.66" y="-433.75" font-family="Helvetica,sans-Serif" font-size="10.00"> </text>
<text text-anchor="start" x="843.66" y="-418.75" font-family="Helvetica,sans-Serif" font-size="10.00"> </text>
<polygon fill="#666666" stroke="#666666" points="795.66,-445.25 795.66,-445.25 894.66,-445.25 894.66,-445.25 795.66,-445.25"/>
<polygon fill="#666666" stroke="#666666" points="795.66,-430.25 795.66,-430.25 894.66,-430.25 894.66,-430.25 795.66,-430.25"/>
<polygon fill="none" stroke="#666666" points="795.66,-413.25 795.66,-462.25 894.66,-462.25 894.66,-413.25 795.66,-413.25"/>
</a>
</g>
</g>
<!-- Node10&#45;&gt;Node12 -->
<g id="edge13_Node000012_Node000010" class="edge">
<title>Node10&#45;&gt;Node12</title>
<g id="a_edge13_Node000012_Node000010"><a xlink:title=" ">
<path fill="none" stroke="#63b8ff" d="M854.22,-547.25C852.55,-527.24 850.11,-498.04 848.19,-474.97"/>
<polygon fill="none" stroke="#63b8ff" points="848.2,-475.07 843.71,-469.42 847.2,-463.11 851.68,-468.76 848.2,-475.07"/>
</a>
</g>
<text text-anchor="middle" x="873.16" y="-489.5" font-family="Helvetica,sans-Serif" font-size="10.00" fill="grey"> +elements</text>
</g>
<!-- Node14 -->
<g id="Node000014" class="node">
<title>Node14</title>
<g id="a_Node000014"><a xlink:title=" ">
<polygon fill="white" stroke="none" points="777.16,-462.25 659.16,-462.25 659.16,-413.25 777.16,-413.25 777.16,-462.25"/>
<text text-anchor="start" x="663.79" y="-448.75" font-family="Helvetica,sans-Serif" font-size="10.00">std::vector&lt; Catchment &gt;</text>
<text text-anchor="start" x="716.66" y="-433.75" font-family="Helvetica,sans-Serif" font-size="10.00"> </text>
<text text-anchor="start" x="716.66" y="-418.75" font-family="Helvetica,sans-Serif" font-size="10.00"> </text>
<polygon fill="#666666" stroke="#666666" points="659.16,-445.25 659.16,-445.25 777.16,-445.25 777.16,-445.25 659.16,-445.25"/>
<polygon fill="#666666" stroke="#666666" points="659.16,-430.25 659.16,-430.25 777.16,-430.25 777.16,-430.25 659.16,-430.25"/>
<polygon fill="none" stroke="#666666" points="659.16,-413.25 659.16,-462.25 777.16,-462.25 777.16,-413.25 659.16,-413.25"/>
</a>
</g>
</g>
<!-- Node10&#45;&gt;Node14 -->
<g id="edge17_Node000014_Node000010" class="edge">
<title>Node10&#45;&gt;Node14</title>
<g id="a_edge17_Node000014_Node000010"><a xlink:title=" ">
<path fill="none" stroke="#63b8ff" d="M831.81,-547.25C809.68,-526.12 776.81,-494.74 752.1,-471.15"/>
<polygon fill="none" stroke="#63b8ff" points="752.07,-471.12 744.97,-469.87 743.39,-462.83 750.49,-464.08 752.07,-471.12"/>
</a>
</g>
<text text-anchor="middle" x="802.16" y="-489.5" font-family="Helvetica,sans-Serif" font-size="10.00" fill="grey"> +elements</text>
</g>
<!-- Node11 -->
<g id="Node000011" class="node">
<title>Node11</title>
<g id="a_Node000011"><a xlink:title=" ">
<polygon fill="white" stroke="none" points="899.16,-733.25 813.16,-733.25 813.16,-673.25 899.16,-673.25 899.16,-733.25"/>
<text text-anchor="start" x="817.91" y="-719.75" font-family="Helvetica,sans-Serif" font-size="10.00">std::basic_string&lt;</text>
<text text-anchor="start" x="840.79" y="-708.5" font-family="Helvetica,sans-Serif" font-size="10.00"> Char &gt;</text>
<text text-anchor="start" x="854.66" y="-693.75" font-family="Helvetica,sans-Serif" font-size="10.00"> </text>
<text text-anchor="start" x="854.66" y="-678.75" font-family="Helvetica,sans-Serif" font-size="10.00"> </text>
<polygon fill="#666666" stroke="#666666" points="813.16,-705.25 813.16,-705.25 899.16,-705.25 899.16,-705.25 813.16,-705.25"/>
<polygon fill="#666666" stroke="#666666" points="813.16,-690.25 813.16,-690.25 899.16,-690.25 899.16,-690.25 813.16,-690.25"/>
<polygon fill="none" stroke="#666666" points="813.16,-673.25 813.16,-733.25 899.16,-733.25 899.16,-673.25 813.16,-673.25"/>
</a>
</g>
</g>
<!-- Node11&#45;&gt;Node10 -->
<g id="edge11_Node000010_Node000011" class="edge">
<title>Node11&#45;&gt;Node10</title>
<g id="a_edge11_Node000010_Node000011"><a xlink:title=" ">
<path fill="none" stroke="#63b8ff" d="M856.16,-662.17C856.16,-640.31 856.16,-614.04 856.16,-595.6"/>
<polygon fill="none" stroke="#63b8ff" points="852.66,-661.94 856.16,-671.94 859.66,-661.94 852.66,-661.94"/>
</a>
</g>
</g>
<!-- Node12&#45;&gt;Node5 -->
<g id="edge12_Node000005_Node000012" class="edge">
<title>Node12&#45;&gt;Node5</title>
<g id="a_edge12_Node000005_Node000012"><a xlink:title=" ">
<path fill="none" stroke="#63b8ff" d="M822.89,-413.45C809.11,-399.25 790.91,-380.9 774.16,-365.25 753.81,-346.22 731.46,-326.29 710.13,-307.71"/>
<polygon fill="none" stroke="#63b8ff" points="710.16,-307.73 703.01,-306.82 701.1,-299.86 708.26,-300.78 710.16,-307.73"/>
</a>
</g>
<text text-anchor="middle" x="814.66" y="-378.25" font-family="Helvetica,sans-Serif" font-size="10.00" fill="grey"> &#45;inflows</text>
<text text-anchor="middle" x="814.66" y="-367" font-family="Helvetica,sans-Serif" font-size="10.00" fill="grey">&#45;outflows</text>
</g>
<!-- Node13&#45;&gt;Node12 -->
<g id="edge14_Node000012_Node000013" class="edge">
<title>Node13&#45;&gt;Node12</title>
<g id="a_edge14_Node000012_Node000013"><a xlink:title=" ">
<path fill="none" stroke="orange" d="M654.58,-539.02C671.85,-521.62 695.23,-500.92 719.66,-487.75 746.62,-473.22 757.66,-480.94 786.16,-469.75 791.76,-467.55 797.52,-464.97 803.15,-462.24"/>
<polygon fill="orange" stroke="orange" points="652.1,-536.54 647.66,-546.16 657.13,-541.41 652.1,-536.54"/>
</a>
</g>
<text text-anchor="middle" x="742.41" y="-489.5" font-family="Helvetica,sans-Serif" font-size="10.00" fill="grey"> &lt; Nexus &gt;</text>
</g>
<!-- Node13&#45;&gt;Node14 -->
<g id="edge18_Node000014_Node000013" class="edge">
<title>Node13&#45;&gt;Node14</title>
<g id="a_edge18_Node000014_Node000013"><a xlink:title=" ">
<path fill="none" stroke="orange" d="M618.94,-535.6C617.54,-519.94 618.62,-501.85 627.16,-487.75 629.91,-483.22 649.45,-472.46 669.73,-462.17"/>
<polygon fill="orange" stroke="orange" points="615.47,-536.04 620.22,-545.5 622.41,-535.14 615.47,-536.04"/>
</a>
</g>
<text text-anchor="middle" x="660.16" y="-489.5" font-family="Helvetica,sans-Serif" font-size="10.00" fill="grey"> &lt; Catchment &gt;</text>
</g>
<!-- Node14&#45;&gt;Node5 -->
<g id="edge16_Node000005_Node000014" class="edge">
<title>Node14&#45;&gt;Node5</title>
<g id="a_edge16_Node000005_Node000014"><a xlink:title=" ">
<path fill="none" stroke="#63b8ff" d="M691.42,-413.38C683.92,-405.79 676.29,-396.94 670.66,-387.75 665.12,-378.69 660.05,-369 655.43,-359.03"/>
<polygon fill="none" stroke="#63b8ff" points="655.43,-359.02 649.34,-355.15 650.58,-348.04 656.66,-351.92 655.43,-359.02"/>
</a>
</g>
<text text-anchor="middle" x="721.91" y="-372.62" font-family="Helvetica,sans-Serif" font-size="10.00" fill="grey"> &#45;contained_catchments</text>
</g>
<!-- Node15&#45;&gt;Node1 -->
<g id="edge20_Node000001_Node000015" class="edge">
<title>Node15&#45;&gt;Node1</title>
<g id="a_edge20_Node000001_Node000015"><a xlink:title=" ">
<path fill="none" stroke="#63b8ff" d="M176.16,-413.64C176.16,-379.6 176.16,-315.37 176.16,-272.18"/>
<polygon fill="none" stroke="#63b8ff" points="176.16,-272.14 172.16,-266.14 176.16,-260.14 180.16,-266.14 176.16,-272.14"/>
</a>
</g>
<text text-anchor="middle" x="199.41" y="-372.62" font-family="Helvetica,sans-Serif" font-size="10.00" fill="grey"> &#45;flow_path</text>
</g>
</g>
</svg>
