<?xml version="1.0" encoding="UTF-8" standalone="no"?>
<!DOCTYPE svg PUBLIC "-//W3C//DTD SVG 1.1//EN"
 "http://www.w3.org/Graphics/SVG/1.1/DTD/svg11.dtd">
<!-- Generated by graphviz version 12.2.0 (20241103.1931)
 -->
<!-- Title: geojson::SentinelFeature Pages: 1 -->
<svg width="719pt" height="1390pt"
 viewBox="0.00 0.00 718.75 1390.25" xmlns="http://www.w3.org/2000/svg" xmlns:xlink="http://www.w3.org/1999/xlink">
<g id="graph0" class="graph" transform="scale(1 1) rotate(0) translate(4 1386.25)">
<title>geojson::SentinelFeature</title>
<!-- Node1 -->
<g id="Node000001" class="node">
<title>Node1</title>
<g id="a_Node000001"><a xlink:title=" ">
<polygon fill="#999999" stroke="none" points="600.5,-65 486,-65 486,0 600.5,0 600.5,-65"/>
<text text-anchor="start" x="490" y="-51.5" font-family="Helvetica,sans-Serif" font-size="10.00">geojson::SentinelFeature</text>
<text text-anchor="start" x="541.75" y="-36.25" font-family="Helvetica,sans-Serif" font-size="10.00"> </text>
<text text-anchor="start" x="495.56" y="-21" font-family="Helvetica,sans-Serif" font-size="10.00">+</text>
<text text-anchor="start" x="511.12" y="-21" font-family="Helvetica,sans-Serif" font-size="10.00">SentinelFeature()</text>
<text text-anchor="start" x="495.56" y="-5.75" font-family="Helvetica,sans-Serif" font-size="10.00">+</text>
<text text-anchor="start" x="511.12" y="-5.75" font-family="Helvetica,sans-Serif" font-size="10.00">visit()</text>
<polygon fill="#666666" stroke="#666666" points="486,-47.75 486,-47.75 600.5,-47.75 600.5,-47.75 486,-47.75"/>
<polygon fill="#666666" stroke="#666666" points="486,-32.5 486,-32.5 600.5,-32.5 600.5,-32.5 486,-32.5"/>
<polygon fill="none" stroke="#666666" points="486,0 486,-65 600.5,-65 600.5,0 486,0"/>
</a>
</g>
</g>
<!-- Node2 -->
<g id="Node000002" class="node">
<title>Node2</title>
<g id="a_Node000002"><a xlink:href="classgeojson_1_1_feature_base.html" target="_top" xlink:title="Represents an individual feature within a Geojson definition.">
<polygon fill="white" stroke="none" points="444,-504.75 316.5,-504.75 316.5,-134.75 444,-134.75 444,-504.75"/>
<text text-anchor="start" x="333.38" y="-491.25" font-family="Helvetica,sans-Serif" font-size="10.00">geojson::FeatureBase</text>
<text text-anchor="start" x="320.88" y="-476" font-family="Helvetica,sans-Serif" font-size="10.00">#</text>
<text text-anchor="start" x="330.5" y="-476" font-family="Helvetica,sans-Serif" font-size="10.00">type</text>
<text text-anchor="start" x="320.88" y="-460.75" font-family="Helvetica,sans-Serif" font-size="10.00">#</text>
<text text-anchor="start" x="330.5" y="-460.75" font-family="Helvetica,sans-Serif" font-size="10.00">geom</text>
<text text-anchor="start" x="320.5" y="-445.5" font-family="Helvetica,sans-Serif" font-size="10.00">+</text>
<text text-anchor="start" x="330.5" y="-445.5" font-family="Helvetica,sans-Serif" font-size="10.00">FeatureBase()</text>
<text text-anchor="start" x="320.5" y="-430.25" font-family="Helvetica,sans-Serif" font-size="10.00">+</text>
<text text-anchor="start" x="330.5" y="-430.25" font-family="Helvetica,sans-Serif" font-size="10.00">~FeatureBase()</text>
<text text-anchor="start" x="320.5" y="-415" font-family="Helvetica,sans-Serif" font-size="10.00">+</text>
<text text-anchor="start" x="330.5" y="-415" font-family="Helvetica,sans-Serif" font-size="10.00">get_type()</text>
<text text-anchor="start" x="320.5" y="-399.75" font-family="Helvetica,sans-Serif" font-size="10.00">+</text>
<text text-anchor="start" x="330.5" y="-399.75" font-family="Helvetica,sans-Serif" font-size="10.00">add_origination_feature()</text>
<text text-anchor="start" x="320.5" y="-384.5" font-family="Helvetica,sans-Serif" font-size="10.00">+</text>
<text text-anchor="start" x="330.5" y="-384.5" font-family="Helvetica,sans-Serif" font-size="10.00">add_destination_feature()</text>
<text text-anchor="start" x="320.5" y="-369.25" font-family="Helvetica,sans-Serif" font-size="10.00">+</text>
<text text-anchor="start" x="330.5" y="-369.25" font-family="Helvetica,sans-Serif" font-size="10.00">assign_neighbors()</text>
<text text-anchor="start" x="320.5" y="-354" font-family="Helvetica,sans-Serif" font-size="10.00">+</text>
<text text-anchor="start" x="330.5" y="-354" font-family="Helvetica,sans-Serif" font-size="10.00">add_neighbor_feature()</text>
<text text-anchor="start" x="320.5" y="-338.75" font-family="Helvetica,sans-Serif" font-size="10.00">+</text>
<text text-anchor="start" x="330.5" y="-338.75" font-family="Helvetica,sans-Serif" font-size="10.00">get_property()</text>
<text text-anchor="start" x="320.5" y="-323.5" font-family="Helvetica,sans-Serif" font-size="10.00">+</text>
<text text-anchor="start" x="330.5" y="-323.5" font-family="Helvetica,sans-Serif" font-size="10.00">set_id()</text>
<text text-anchor="start" x="320.5" y="-308.25" font-family="Helvetica,sans-Serif" font-size="10.00">+</text>
<text text-anchor="start" x="330.5" y="-308.25" font-family="Helvetica,sans-Serif" font-size="10.00">get()</text>
<text text-anchor="start" x="320.5" y="-293" font-family="Helvetica,sans-Serif" font-size="10.00">+</text>
<text text-anchor="start" x="330.5" y="-293" font-family="Helvetica,sans-Serif" font-size="10.00">set()</text>
<text text-anchor="start" x="320.5" y="-277.75" font-family="Helvetica,sans-Serif" font-size="10.00">+</text>
<text text-anchor="start" x="330.5" y="-277.75" font-family="Helvetica,sans-Serif" font-size="10.00">set()</text>
<text text-anchor="start" x="320.5" y="-262.5" font-family="Helvetica,sans-Serif" font-size="10.00">+</text>
<text text-anchor="start" x="330.5" y="-262.5" font-family="Helvetica,sans-Serif" font-size="10.00">set()</text>
<text text-anchor="start" x="320.5" y="-247.25" font-family="Helvetica,sans-Serif" font-size="10.00">+</text>
<text text-anchor="start" x="330.5" y="-247.25" font-family="Helvetica,sans-Serif" font-size="10.00">set()</text>
<text text-anchor="start" x="320.5" y="-232" font-family="Helvetica,sans-Serif" font-size="10.00">+</text>
<text text-anchor="start" x="330.5" y="-232" font-family="Helvetica,sans-Serif" font-size="10.00">set()</text>
<text text-anchor="start" x="330.5" y="-216.75" font-family="Helvetica,sans-Serif" font-size="10.00">and 31 more...</text>
<text text-anchor="start" x="320.88" y="-201.5" font-family="Helvetica,sans-Serif" font-size="10.00">#</text>
<text text-anchor="start" x="330.5" y="-201.5" font-family="Helvetica,sans-Serif" font-size="10.00">FeatureBase()</text>
<text text-anchor="start" x="320.88" y="-186.25" font-family="Helvetica,sans-Serif" font-size="10.00">#</text>
<text text-anchor="start" x="330.5" y="-186.25" font-family="Helvetica,sans-Serif" font-size="10.00">break_links()</text>
<text text-anchor="start" x="320.88" y="-171" font-family="Helvetica,sans-Serif" font-size="10.00">#</text>
<text text-anchor="start" x="330.5" y="-171" font-family="Helvetica,sans-Serif" font-size="10.00">remove_destination()</text>
<text text-anchor="start" x="320.88" y="-155.75" font-family="Helvetica,sans-Serif" font-size="10.00">#</text>
<text text-anchor="start" x="330.5" y="-155.75" font-family="Helvetica,sans-Serif" font-size="10.00">remove_origination()</text>
<text text-anchor="start" x="320.88" y="-140.5" font-family="Helvetica,sans-Serif" font-size="10.00">#</text>
<text text-anchor="start" x="330.5" y="-140.5" font-family="Helvetica,sans-Serif" font-size="10.00">remove_neighbor()</text>
<polygon fill="#666666" stroke="#666666" points="316.5,-487.5 316.5,-487.5 444,-487.5 444,-487.5 316.5,-487.5"/>
<polygon fill="#666666" stroke="#666666" points="316.5,-457 316.5,-457 328.5,-457 328.5,-457 316.5,-457"/>
<polygon fill="#666666" stroke="#666666" points="328.5,-457 328.5,-457 444,-457 444,-457 328.5,-457"/>
<polygon fill="none" stroke="#666666" points="316.5,-134.75 316.5,-504.75 444,-504.75 444,-134.75 316.5,-134.75"/>
</a>
</g>
</g>
<!-- Node2&#45;&gt;Node1 -->
<g id="edge1_Node000001_Node000002" class="edge">
<title>Node2&#45;&gt;Node1</title>
<g id="a_edge1_Node000001_Node000002"><a xlink:title=" ">
<path fill="none" stroke="#63b8ff" d="M449.67,-197.27C477.39,-148.75 507.03,-96.89 525.35,-64.83"/>
<polygon fill="none" stroke="#63b8ff" points="446.64,-195.51 444.72,-205.93 452.72,-198.98 446.64,-195.51"/>
</a>
</g>
</g>
<!-- Node14 -->
<g id="Node000014" class="node">
<title>Node14</title>
<g id="a_Node000014"><a xlink:title=" ">
<polygon fill="white" stroke="none" points="467.75,-63 372.75,-63 372.75,-2 467.75,-2 467.75,-63"/>
<text text-anchor="start" x="376.75" y="-49.5" font-family="Helvetica,sans-Serif" font-size="10.00">std::vector&lt; geojson</text>
<text text-anchor="start" x="383.12" y="-38.25" font-family="Helvetica,sans-Serif" font-size="10.00">::FeatureBase * &gt;</text>
<text text-anchor="start" x="418.75" y="-23" font-family="Helvetica,sans-Serif" font-size="10.00"> </text>
<text text-anchor="start" x="418.75" y="-7.75" font-family="Helvetica,sans-Serif" font-size="10.00"> </text>
<polygon fill="#666666" stroke="#666666" points="372.75,-34.5 372.75,-34.5 467.75,-34.5 467.75,-34.5 372.75,-34.5"/>
<polygon fill="#666666" stroke="#666666" points="372.75,-19.25 372.75,-19.25 467.75,-19.25 467.75,-19.25 372.75,-19.25"/>
<polygon fill="none" stroke="#666666" points="372.75,-2 372.75,-63 467.75,-63 467.75,-2 372.75,-2"/>
</a>
</g>
</g>
<!-- Node2&#45;&gt;Node14 -->
<g id="edge21_Node000014_Node000002" class="edge">
<title>Node2&#45;&gt;Node14</title>
<g id="a_edge21_Node000014_Node000002"><a xlink:title=" ">
<path fill="none" stroke="#63b8ff" d="M361.29,-135.06C363.66,-117.12 367.77,-99.48 374.25,-83 375.53,-79.73 377.14,-76.56 378.99,-73.49"/>
<polygon fill="none" stroke="#63b8ff" points="379.04,-73.42 379.26,-66.22 386,-63.65 385.78,-70.86 379.04,-73.42"/>
</a>
</g>
<text text-anchor="middle" x="398.25" y="-96" font-family="Helvetica,sans-Serif" font-size="10.00" fill="grey"> +elements</text>
</g>
<!-- Node3 -->
<g id="Node000003" class="node">
<title>Node3</title>
<g id="a_Node000003"><a xlink:title=" ">
<polygon fill="white" stroke="none" points="525.88,-1098 428.62,-1098 428.62,-1037 525.88,-1037 525.88,-1098"/>
<text text-anchor="start" x="432.62" y="-1084.5" font-family="Helvetica,sans-Serif" font-size="10.00">std::vector&lt;::geojson</text>
<text text-anchor="start" x="451" y="-1073.25" font-family="Helvetica,sans-Serif" font-size="10.00">::geometry &gt;</text>
<text text-anchor="start" x="442.5" y="-1058" font-family="Helvetica,sans-Serif" font-size="10.00">+</text>
<text text-anchor="start" x="462.38" y="-1058" font-family="Helvetica,sans-Serif" font-size="10.00">elements</text>
<text text-anchor="start" x="475.75" y="-1042.75" font-family="Helvetica,sans-Serif" font-size="10.00"> </text>
<polygon fill="#666666" stroke="#666666" points="428.62,-1069.5 428.62,-1069.5 525.88,-1069.5 525.88,-1069.5 428.62,-1069.5"/>
<polygon fill="#666666" stroke="#666666" points="428.62,-1054.25 428.62,-1054.25 460.38,-1054.25 460.38,-1054.25 428.62,-1054.25"/>
<polygon fill="#666666" stroke="#666666" points="460.38,-1054.25 460.38,-1054.25 525.88,-1054.25 525.88,-1054.25 460.38,-1054.25"/>
<polygon fill="none" stroke="#666666" points="428.62,-1037 428.62,-1098 525.88,-1098 525.88,-1037 428.62,-1037"/>
</a>
</g>
</g>
<!-- Node3&#45;&gt;Node2 -->
<g id="edge2_Node000002_Node000003" class="edge">
<title>Node3&#45;&gt;Node2</title>
<g id="a_edge2_Node000002_Node000003"><a xlink:title=" ">
<path fill="none" stroke="#63b8ff" d="M477.43,-1037.09C477.84,-943.77 477.69,-655.11 461.25,-563.25 457.74,-543.62 452.96,-523.41 447.48,-503.43"/>
<polygon fill="none" stroke="#63b8ff" points="447.48,-503.45 442,-498.76 444.22,-491.9 449.7,-496.58 447.48,-503.45"/>
</a>
</g>
<text text-anchor="middle" x="519.07" y="-663.25" font-family="Helvetica,sans-Serif" font-size="10.00" fill="grey"> #geometry_collection</text>
</g>
<!-- Node4 -->
<g id="Node000004" class="node">
<title>Node4</title>
<g id="a_Node000004"><a xlink:title=" ">
<polygon fill="white" stroke="none" points="441,-1279.62 365.5,-1279.62 365.5,-1229.88 441,-1229.88 441,-1279.62"/>
<text text-anchor="start" x="369.5" y="-1266.12" font-family="Helvetica,sans-Serif" font-size="10.00">std::vector&lt; T &gt;</text>
<text text-anchor="start" x="401.75" y="-1250.88" font-family="Helvetica,sans-Serif" font-size="10.00"> </text>
<text text-anchor="start" x="401.75" y="-1235.62" font-family="Helvetica,sans-Serif" font-size="10.00"> </text>
<polygon fill="#666666" stroke="#666666" points="365.5,-1262.38 365.5,-1262.38 441,-1262.38 441,-1262.38 365.5,-1262.38"/>
<polygon fill="#666666" stroke="#666666" points="365.5,-1247.12 365.5,-1247.12 441,-1247.12 441,-1247.12 365.5,-1247.12"/>
<polygon fill="none" stroke="#666666" points="365.5,-1229.88 365.5,-1279.62 441,-1279.62 441,-1229.88 365.5,-1229.88"/>
</a>
</g>
</g>
<!-- Node4&#45;&gt;Node3 -->
<g id="edge3_Node000003_Node000004" class="edge">
<title>Node4&#45;&gt;Node3</title>
<g id="a_edge3_Node000003_Node000004"><a xlink:title=" ">
<path fill="none" stroke="orange" d="M428.86,-1221.16C438.07,-1208.06 447.77,-1192.43 454.25,-1177 464.99,-1151.44 470.92,-1120.3 474.06,-1097.95"/>
<polygon fill="orange" stroke="orange" points="426.23,-1218.83 423.19,-1228.98 431.89,-1222.94 426.23,-1218.83"/>
</a>
</g>
<text text-anchor="middle" x="494.17" y="-1196.75" font-family="Helvetica,sans-Serif" font-size="10.00" fill="grey"> &lt;::geojson::geometry &gt;</text>
</g>
<!-- Node10 -->
<g id="Node000010" class="node">
<title>Node10</title>
<g id="a_Node000010"><a xlink:title=" ">
<polygon fill="white" stroke="none" points="317.75,-1177 222.75,-1177 222.75,-1116 317.75,-1116 317.75,-1177"/>
<text text-anchor="start" x="226.75" y="-1163.5" font-family="Helvetica,sans-Serif" font-size="10.00">std::vector&lt; geojson</text>
<text text-anchor="start" x="232.38" y="-1152.25" font-family="Helvetica,sans-Serif" font-size="10.00">::JSONProperty &gt;</text>
<text text-anchor="start" x="268.75" y="-1137" font-family="Helvetica,sans-Serif" font-size="10.00"> </text>
<text text-anchor="start" x="268.75" y="-1121.75" font-family="Helvetica,sans-Serif" font-size="10.00"> </text>
<polygon fill="#666666" stroke="#666666" points="222.75,-1148.5 222.75,-1148.5 317.75,-1148.5 317.75,-1148.5 222.75,-1148.5"/>
<polygon fill="#666666" stroke="#666666" points="222.75,-1133.25 222.75,-1133.25 317.75,-1133.25 317.75,-1133.25 222.75,-1133.25"/>
<polygon fill="none" stroke="#666666" points="222.75,-1116 222.75,-1177 317.75,-1177 317.75,-1116 222.75,-1116"/>
</a>
</g>
</g>
<!-- Node4&#45;&gt;Node10 -->
<g id="edge13_Node000010_Node000004" class="edge">
<title>Node4&#45;&gt;Node10</title>
<g id="a_edge13_Node000010_Node000004"><a xlink:title=" ">
<path fill="none" stroke="orange" d="M354.48,-1250.16C324.57,-1245.15 288.45,-1233.42 269.25,-1206.25 263.3,-1197.84 262.21,-1186.92 263.06,-1176.78"/>
<polygon fill="orange" stroke="orange" points="353.69,-1253.58 364.09,-1251.56 354.7,-1246.66 353.69,-1253.58"/>
</a>
</g>
<text text-anchor="middle" x="329.25" y="-1196.75" font-family="Helvetica,sans-Serif" font-size="10.00" fill="grey"> &lt; geojson::JSONProperty &gt;</text>
</g>
<!-- Node13 -->
<g id="Node000013" class="node">
<title>Node13</title>
<g id="a_Node000013"><a xlink:title=" ">
<polygon fill="white" stroke="none" points="441.25,-692 343.25,-692 343.25,-642.25 441.25,-642.25 441.25,-692"/>
<text text-anchor="start" x="347.25" y="-678.5" font-family="Helvetica,sans-Serif" font-size="10.00">std::vector&lt; double &gt;</text>
<text text-anchor="start" x="357.31" y="-663.25" font-family="Helvetica,sans-Serif" font-size="10.00">+</text>
<text text-anchor="start" x="377.38" y="-663.25" font-family="Helvetica,sans-Serif" font-size="10.00">elements</text>
<text text-anchor="start" x="390.75" y="-648" font-family="Helvetica,sans-Serif" font-size="10.00"> </text>
<polygon fill="#666666" stroke="#666666" points="343.25,-674.75 343.25,-674.75 441.25,-674.75 441.25,-674.75 343.25,-674.75"/>
<polygon fill="#666666" stroke="#666666" points="343.25,-659.5 343.25,-659.5 375.38,-659.5 375.38,-659.5 343.25,-659.5"/>
<polygon fill="#666666" stroke="#666666" points="375.38,-659.5 375.38,-659.5 441.25,-659.5 441.25,-659.5 375.38,-659.5"/>
<polygon fill="none" stroke="#666666" points="343.25,-642.25 343.25,-692 441.25,-692 441.25,-642.25 343.25,-642.25"/>
</a>
</g>
</g>
<!-- Node4&#45;&gt;Node13 -->
<g id="edge18_Node000013_Node000004" class="edge">
<title>Node4&#45;&gt;Node13</title>
<g id="a_edge18_Node000013_Node000004"><a xlink:title=" ">
<path fill="none" stroke="orange" d="M402.59,-1218.85C400.56,-1110.68 394.4,-782.79 392.69,-691.78"/>
<polygon fill="orange" stroke="orange" points="399.09,-1218.62 402.78,-1228.55 406.09,-1218.49 399.09,-1218.62"/>
</a>
</g>
<text text-anchor="middle" x="425.43" y="-1142.62" font-family="Helvetica,sans-Serif" font-size="10.00" fill="grey"> &lt; double &gt;</text>
</g>
<!-- Node4&#45;&gt;Node14 -->
<g id="edge22_Node000014_Node000004" class="edge">
<title>Node4&#45;&gt;Node14</title>
<g id="a_edge22_Node000014_Node000004"><a xlink:title=" ">
<path fill="none" stroke="orange" d="M451.72,-1247.71C507.72,-1237.71 592.25,-1211.95 592.25,-1147.5 592.25,-1147.5 592.25,-1147.5 592.25,-318.75 592.25,-203.87 558.03,-172.69 486.25,-83 480.43,-75.73 473.31,-68.96 465.93,-62.91"/>
<polygon fill="orange" stroke="orange" points="451.37,-1244.22 442.08,-1249.31 452.52,-1251.13 451.37,-1244.22"/>
</a>
</g>
<text text-anchor="middle" x="651.5" y="-663.25" font-family="Helvetica,sans-Serif" font-size="10.00" fill="grey"> &lt; geojson::FeatureBase * &gt;</text>
</g>
<!-- Node5 -->
<g id="Node000005" class="node">
<title>Node5</title>
<g id="a_Node000005"><a xlink:title=" ">
<polygon fill="white" stroke="none" points="340.25,-1382.25 326.25,-1382.25 326.25,-1332.5 340.25,-1332.5 340.25,-1382.25"/>
<text text-anchor="start" x="330.25" y="-1368.75" font-family="Helvetica,sans-Serif" font-size="10.00">T</text>
<text text-anchor="start" x="331.75" y="-1353.5" font-family="Helvetica,sans-Serif" font-size="10.00"> </text>
<text text-anchor="start" x="331.75" y="-1338.25" font-family="Helvetica,sans-Serif" font-size="10.00"> </text>
<polygon fill="#666666" stroke="#666666" points="326.25,-1365 326.25,-1365 340.25,-1365 340.25,-1365 326.25,-1365"/>
<polygon fill="#666666" stroke="#666666" points="326.25,-1349.75 326.25,-1349.75 340.25,-1349.75 340.25,-1349.75 326.25,-1349.75"/>
<polygon fill="none" stroke="#666666" points="326.25,-1332.5 326.25,-1382.25 340.25,-1382.25 340.25,-1332.5 326.25,-1332.5"/>
</a>
</g>
</g>
<!-- Node5&#45;&gt;Node4 -->
<g id="edge4_Node000004_Node000005" class="edge">
<title>Node5&#45;&gt;Node4</title>
<g id="a_edge4_Node000004_Node000005"><a xlink:title=" ">
<path fill="none" stroke="#63b8ff" d="M340.22,-1346.36C349.32,-1333.27 365.73,-1309.69 379.52,-1289.86"/>
<polygon fill="none" stroke="#63b8ff" points="379.48,-1289.92 379.62,-1282.71 386.33,-1280.07 386.19,-1287.28 379.48,-1289.92"/>
</a>
</g>
<text text-anchor="middle" x="392.25" y="-1305" font-family="Helvetica,sans-Serif" font-size="10.00" fill="grey"> +elements</text>
</g>
<!-- Node11 -->
<g id="Node000011" class="node">
<title>Node11</title>
<g id="a_Node000011"><a xlink:title=" ">
<polygon fill="white" stroke="none" points="199.88,-1279.62 120.62,-1279.62 120.62,-1229.88 199.88,-1229.88 199.88,-1279.62"/>
<text text-anchor="start" x="124.62" y="-1266.12" font-family="Helvetica,sans-Serif" font-size="10.00">std::map&lt; K, T &gt;</text>
<text text-anchor="start" x="158.75" y="-1250.88" font-family="Helvetica,sans-Serif" font-size="10.00"> </text>
<text text-anchor="start" x="158.75" y="-1235.62" font-family="Helvetica,sans-Serif" font-size="10.00"> </text>
<polygon fill="#666666" stroke="#666666" points="120.62,-1262.38 120.62,-1262.38 199.88,-1262.38 199.88,-1262.38 120.62,-1262.38"/>
<polygon fill="#666666" stroke="#666666" points="120.62,-1247.12 120.62,-1247.12 199.88,-1247.12 199.88,-1247.12 120.62,-1247.12"/>
<polygon fill="none" stroke="#666666" points="120.62,-1229.88 120.62,-1279.62 199.88,-1279.62 199.88,-1229.88 120.62,-1229.88"/>
</a>
</g>
</g>
<!-- Node5&#45;&gt;Node11 -->
<g id="edge16_Node000011_Node000005" class="edge">
<title>Node5&#45;&gt;Node11</title>
<g id="a_edge16_Node000011_Node000005"><a xlink:title=" ">
<path fill="none" stroke="#63b8ff" d="M326.25,-1352.31C307.03,-1341.12 252.07,-1309.16 210.62,-1285.05"/>
<polygon fill="none" stroke="#63b8ff" points="210.75,-1285.12 203.55,-1285.56 200.37,-1279.09 207.57,-1278.65 210.75,-1285.12"/>
</a>
</g>
<text text-anchor="middle" x="281.11" y="-1305" font-family="Helvetica,sans-Serif" font-size="10.00" fill="grey"> +elements</text>
</g>
<!-- Node6 -->
<g id="Node000006" class="node">
<title>Node6</title>
<g id="a_Node000006"><a xlink:title=" ">
<polygon fill="white" stroke="none" points="224.25,-624.25 126.25,-624.25 126.25,-563.25 224.25,-563.25 224.25,-624.25"/>
<text text-anchor="start" x="130.25" y="-610.75" font-family="Helvetica,sans-Serif" font-size="10.00">std::map&lt; std::string,</text>
<text text-anchor="start" x="138.5" y="-599.5" font-family="Helvetica,sans-Serif" font-size="10.00"> JSONProperty &gt;</text>
<text text-anchor="start" x="173.75" y="-584.25" font-family="Helvetica,sans-Serif" font-size="10.00"> </text>
<text text-anchor="start" x="173.75" y="-569" font-family="Helvetica,sans-Serif" font-size="10.00"> </text>
<polygon fill="#666666" stroke="#666666" points="126.25,-595.75 126.25,-595.75 224.25,-595.75 224.25,-595.75 126.25,-595.75"/>
<polygon fill="#666666" stroke="#666666" points="126.25,-580.5 126.25,-580.5 224.25,-580.5 224.25,-580.5 126.25,-580.5"/>
<polygon fill="none" stroke="#666666" points="126.25,-563.25 126.25,-624.25 224.25,-624.25 224.25,-563.25 126.25,-563.25"/>
</a>
</g>
</g>
<!-- Node6&#45;&gt;Node2 -->
<g id="edge5_Node000002_Node000006" class="edge">
<title>Node6&#45;&gt;Node2</title>
<g id="a_edge5_Node000002_Node000006"><a xlink:title=" ">
<path fill="none" stroke="#63b8ff" d="M197.38,-563.38C223.93,-528.16 269.75,-467.37 308.88,-415.44"/>
<polygon fill="none" stroke="#63b8ff" points="308.85,-415.49 309.26,-408.29 316.07,-405.91 315.65,-413.11 308.85,-415.49"/>
</a>
</g>
<text text-anchor="middle" x="266.04" y="-535.75" font-family="Helvetica,sans-Serif" font-size="10.00" fill="grey"> #foreign_members</text>
<text text-anchor="middle" x="266.04" y="-524.5" font-family="Helvetica,sans-Serif" font-size="10.00" fill="grey">#properties</text>
</g>
<!-- Node9 -->
<g id="Node000009" class="node">
<title>Node9</title>
<g id="a_Node000009"><a xlink:href="classgeojson_1_1_j_s_o_n_property.html" target="_top" xlink:title="@TODO: Convert JSONProperty into a variant of the supported types">
<polygon fill="white" stroke="none" points="300.88,-1019 191.62,-1019 191.62,-710 300.88,-710 300.88,-1019"/>
<text text-anchor="start" x="195.62" y="-1005.5" font-family="Helvetica,sans-Serif" font-size="10.00">geojson::JSONProperty</text>
<text text-anchor="start" x="201.38" y="-990.25" font-family="Helvetica,sans-Serif" font-size="10.00">&#45;</text>
<text text-anchor="start" x="214.12" y="-990.25" font-family="Helvetica,sans-Serif" font-size="10.00">type</text>
<text text-anchor="start" x="201.38" y="-975" font-family="Helvetica,sans-Serif" font-size="10.00">&#45;</text>
<text text-anchor="start" x="214.12" y="-975" font-family="Helvetica,sans-Serif" font-size="10.00">data</text>
<text text-anchor="start" x="199.88" y="-959.75" font-family="Helvetica,sans-Serif" font-size="10.00">+</text>
<text text-anchor="start" x="214.12" y="-959.75" font-family="Helvetica,sans-Serif" font-size="10.00">JSONProperty()</text>
<text text-anchor="start" x="199.88" y="-944.5" font-family="Helvetica,sans-Serif" font-size="10.00">+</text>
<text text-anchor="start" x="214.12" y="-944.5" font-family="Helvetica,sans-Serif" font-size="10.00">JSONProperty()</text>
<text text-anchor="start" x="199.88" y="-929.25" font-family="Helvetica,sans-Serif" font-size="10.00">+</text>
<text text-anchor="start" x="214.12" y="-929.25" font-family="Helvetica,sans-Serif" font-size="10.00">JSONProperty()</text>
<text text-anchor="start" x="199.88" y="-914" font-family="Helvetica,sans-Serif" font-size="10.00">+</text>
<text text-anchor="start" x="214.12" y="-914" font-family="Helvetica,sans-Serif" font-size="10.00">JSONProperty()</text>
<text text-anchor="start" x="199.88" y="-898.75" font-family="Helvetica,sans-Serif" font-size="10.00">+</text>
<text text-anchor="start" x="214.12" y="-898.75" font-family="Helvetica,sans-Serif" font-size="10.00">JSONProperty()</text>
<text text-anchor="start" x="199.88" y="-883.5" font-family="Helvetica,sans-Serif" font-size="10.00">+</text>
<text text-anchor="start" x="214.12" y="-883.5" font-family="Helvetica,sans-Serif" font-size="10.00">JSONProperty()</text>
<text text-anchor="start" x="199.88" y="-868.25" font-family="Helvetica,sans-Serif" font-size="10.00">+</text>
<text text-anchor="start" x="214.12" y="-868.25" font-family="Helvetica,sans-Serif" font-size="10.00">JSONProperty()</text>
<text text-anchor="start" x="199.88" y="-853" font-family="Helvetica,sans-Serif" font-size="10.00">+</text>
<text text-anchor="start" x="214.12" y="-853" font-family="Helvetica,sans-Serif" font-size="10.00">JSONProperty()</text>
<text text-anchor="start" x="199.88" y="-837.75" font-family="Helvetica,sans-Serif" font-size="10.00">+</text>
<text text-anchor="start" x="214.12" y="-837.75" font-family="Helvetica,sans-Serif" font-size="10.00">JSONProperty()</text>
<text text-anchor="start" x="199.88" y="-822.5" font-family="Helvetica,sans-Serif" font-size="10.00">+</text>
<text text-anchor="start" x="214.12" y="-822.5" font-family="Helvetica,sans-Serif" font-size="10.00">JSONProperty()</text>
<text text-anchor="start" x="199.88" y="-807.25" font-family="Helvetica,sans-Serif" font-size="10.00">+</text>
<text text-anchor="start" x="214.12" y="-807.25" font-family="Helvetica,sans-Serif" font-size="10.00">JSONProperty()</text>
<text text-anchor="start" x="199.88" y="-792" font-family="Helvetica,sans-Serif" font-size="10.00">+</text>
<text text-anchor="start" x="214.12" y="-792" font-family="Helvetica,sans-Serif" font-size="10.00">~JSONProperty()</text>
<text text-anchor="start" x="199.88" y="-776.75" font-family="Helvetica,sans-Serif" font-size="10.00">+</text>
<text text-anchor="start" x="214.12" y="-776.75" font-family="Helvetica,sans-Serif" font-size="10.00">JSONProperty()</text>
<text text-anchor="start" x="199.88" y="-761.5" font-family="Helvetica,sans-Serif" font-size="10.00">+</text>
<text text-anchor="start" x="214.12" y="-761.5" font-family="Helvetica,sans-Serif" font-size="10.00">JSONProperty()</text>
<text text-anchor="start" x="199.88" y="-746.25" font-family="Helvetica,sans-Serif" font-size="10.00">+</text>
<text text-anchor="start" x="214.12" y="-746.25" font-family="Helvetica,sans-Serif" font-size="10.00">get_type()</text>
<text text-anchor="start" x="214.12" y="-731" font-family="Helvetica,sans-Serif" font-size="10.00">and 17 more...</text>
<text text-anchor="start" x="199.88" y="-715.75" font-family="Helvetica,sans-Serif" font-size="10.00">+</text>
<text text-anchor="start" x="214.12" y="-715.75" font-family="Helvetica,sans-Serif" font-size="10.00">print_property()</text>
<polygon fill="#666666" stroke="#666666" points="191.62,-1001.75 191.62,-1001.75 300.88,-1001.75 300.88,-1001.75 191.62,-1001.75"/>
<polygon fill="#666666" stroke="#666666" points="191.62,-971.25 191.62,-971.25 212.12,-971.25 212.12,-971.25 191.62,-971.25"/>
<polygon fill="#666666" stroke="#666666" points="212.12,-971.25 212.12,-971.25 300.88,-971.25 300.88,-971.25 212.12,-971.25"/>
<polygon fill="none" stroke="#666666" points="191.62,-710 191.62,-1019 300.88,-1019 300.88,-710 191.62,-710"/>
</a>
</g>
</g>
<!-- Node6&#45;&gt;Node9 -->
<g id="edge10_Node000009_Node000006" class="edge">
<title>Node6&#45;&gt;Node9</title>
<g id="a_edge10_Node000009_Node000006"><a xlink:title=" ">
<path fill="none" stroke="#63b8ff" d="M211.76,-624.12C216.68,-629.64 221.11,-635.74 224.25,-642.25 232.58,-659.5 238.51,-678.38 242.66,-697.6"/>
<polygon fill="none" stroke="#63b8ff" points="242.66,-697.61 247.73,-702.73 244.96,-709.39 239.88,-704.26 242.66,-697.61"/>
</a>
</g>
<text text-anchor="middle" x="257.19" y="-663.25" font-family="Helvetica,sans-Serif" font-size="10.00" fill="grey"> &#45;values</text>
</g>
<!-- Node7 -->
<g id="Node000007" class="node">
<title>Node7</title>
<g id="a_Node000007"><a xlink:title=" ">
<polygon fill="white" stroke="none" points="67.25,-1171.38 17.25,-1171.38 17.25,-1121.62 67.25,-1121.62 67.25,-1171.38"/>
<text text-anchor="start" x="21.25" y="-1157.88" font-family="Helvetica,sans-Serif" font-size="10.00">std::string</text>
<text text-anchor="start" x="40.75" y="-1142.62" font-family="Helvetica,sans-Serif" font-size="10.00"> </text>
<text text-anchor="start" x="40.75" y="-1127.38" font-family="Helvetica,sans-Serif" font-size="10.00"> </text>
<polygon fill="#666666" stroke="#666666" points="17.25,-1154.12 17.25,-1154.12 67.25,-1154.12 67.25,-1154.12 17.25,-1154.12"/>
<polygon fill="#666666" stroke="#666666" points="17.25,-1138.88 17.25,-1138.88 67.25,-1138.88 67.25,-1138.88 17.25,-1138.88"/>
<polygon fill="none" stroke="#666666" points="17.25,-1121.62 17.25,-1171.38 67.25,-1171.38 67.25,-1121.62 17.25,-1121.62"/>
</a>
</g>
</g>
<!-- Node7&#45;&gt;Node2 -->
<g id="edge19_Node000002_Node000007" class="edge">
<title>Node7&#45;&gt;Node2</title>
<g id="a_edge19_Node000002_Node000007"><a xlink:title=" ">
<path fill="none" stroke="#63b8ff" d="M36.42,-1121.67C19.29,-1046.17 -24.51,-807.56 61.25,-642.25 119.87,-529.26 231.91,-430.61 306.37,-373.34"/>
<polygon fill="none" stroke="#63b8ff" points="306.36,-373.36 308.71,-366.54 315.91,-366.09 313.55,-372.9 306.36,-373.36"/>
</a>
</g>
<text text-anchor="middle" x="68.75" y="-663.25" font-family="Helvetica,sans-Serif" font-size="10.00" fill="grey"> #id</text>
</g>
<!-- Node7&#45;&gt;Node6 -->
<g id="edge6_Node000006_Node000007" class="edge">
<title>Node7&#45;&gt;Node6</title>
<g id="a_edge6_Node000006_Node000007"><a xlink:title=" ">
<path fill="none" stroke="#63b8ff" d="M41.44,-1121.96C39.73,-1055.91 38.55,-863.67 75.75,-710 83.44,-678.25 83.46,-667.45 104.25,-642.25 107.85,-637.88 111.96,-633.77 116.33,-629.92"/>
<polygon fill="none" stroke="#63b8ff" points="116.21,-630.01 118.38,-623.14 125.56,-622.49 123.39,-629.37 116.21,-630.01"/>
</a>
</g>
<text text-anchor="middle" x="90" y="-860.62" font-family="Helvetica,sans-Serif" font-size="10.00" fill="grey"> +keys</text>
</g>
<!-- Node7&#45;&gt;Node9 -->
<g id="edge9_Node000009_Node000007" class="edge">
<title>Node7&#45;&gt;Node9</title>
<g id="a_edge9_Node000009_Node000007"><a xlink:title=" ">
<path fill="none" stroke="#63b8ff" d="M48.19,-1121.86C55.31,-1094.5 67.36,-1051.37 76,-1037 103.68,-991 146.23,-948.13 181.86,-916.76"/>
<polygon fill="none" stroke="#63b8ff" points="181.96,-916.68 183.88,-909.72 191.03,-908.82 189.12,-915.77 181.96,-916.68"/>
</a>
</g>
<text text-anchor="middle" x="86.12" y="-1063.62" font-family="Helvetica,sans-Serif" font-size="10.00" fill="grey"> &#45;key</text>
</g>
<!-- Node8 -->
<g id="Node000008" class="node">
<title>Node8</title>
<g id="a_Node000008"><a xlink:title=" ">
<polygon fill="white" stroke="none" points="84.5,-1285.25 0,-1285.25 0,-1224.25 84.5,-1224.25 84.5,-1285.25"/>
<text text-anchor="start" x="4" y="-1271.75" font-family="Helvetica,sans-Serif" font-size="10.00">std::basic_string&lt;</text>
<text text-anchor="start" x="26.88" y="-1260.5" font-family="Helvetica,sans-Serif" font-size="10.00"> Char &gt;</text>
<text text-anchor="start" x="40.75" y="-1245.25" font-family="Helvetica,sans-Serif" font-size="10.00"> </text>
<text text-anchor="start" x="40.75" y="-1230" font-family="Helvetica,sans-Serif" font-size="10.00"> </text>
<polygon fill="#666666" stroke="#666666" points="0,-1256.75 0,-1256.75 84.5,-1256.75 84.5,-1256.75 0,-1256.75"/>
<polygon fill="#666666" stroke="#666666" points="0,-1241.5 0,-1241.5 84.5,-1241.5 84.5,-1241.5 0,-1241.5"/>
<polygon fill="none" stroke="#666666" points="0,-1224.25 0,-1285.25 84.5,-1285.25 84.5,-1224.25 0,-1224.25"/>
</a>
</g>
</g>
<!-- Node8&#45;&gt;Node7 -->
<g id="edge7_Node000007_Node000008" class="edge">
<title>Node8&#45;&gt;Node7</title>
<g id="a_edge7_Node000007_Node000008"><a xlink:title=" ">
<path fill="none" stroke="#63b8ff" d="M42.25,-1213C42.25,-1198.92 42.25,-1183.62 42.25,-1171.35"/>
<polygon fill="none" stroke="#63b8ff" points="38.75,-1212.92 42.25,-1222.92 45.75,-1212.92 38.75,-1212.92"/>
</a>
</g>
</g>
<!-- Node9&#45;&gt;Node6 -->
<g id="edge8_Node000006_Node000009" class="edge">
<title>Node9&#45;&gt;Node6</title>
<g id="a_edge8_Node000006_Node000009"><a xlink:title=" ">
<path fill="none" stroke="#63b8ff" d="M191.68,-746.29C185.35,-728.44 179.87,-709.97 176.25,-692 172.65,-674.15 171.91,-654.08 172.25,-636.83"/>
<polygon fill="none" stroke="#63b8ff" points="172.25,-636.88 168.47,-630.74 172.68,-624.88 176.46,-631.02 172.25,-636.88"/>
</a>
</g>
<text text-anchor="middle" x="200.25" y="-663.25" font-family="Helvetica,sans-Serif" font-size="10.00" fill="grey"> +elements</text>
</g>
<!-- Node9&#45;&gt;Node10 -->
<g id="edge12_Node000010_Node000009" class="edge">
<title>Node9&#45;&gt;Node10</title>
<g id="a_edge12_Node000010_Node000009"><a xlink:title=" ">
<path fill="none" stroke="#63b8ff" d="M259.4,-1018.94C262.07,-1050.03 264.66,-1080.23 266.64,-1103.33"/>
<polygon fill="none" stroke="#63b8ff" points="266.63,-1103.21 271.12,-1108.85 267.65,-1115.17 263.15,-1109.53 266.63,-1103.21"/>
</a>
</g>
<text text-anchor="middle" x="289.66" y="-1063.62" font-family="Helvetica,sans-Serif" font-size="10.00" fill="grey"> +elements</text>
</g>
<!-- Node10&#45;&gt;Node9 -->
<g id="edge11_Node000009_Node000010" class="edge">
<title>Node10&#45;&gt;Node9</title>
<g id="a_edge11_Node000009_Node000010"><a xlink:title=" ">
<path fill="none" stroke="#63b8ff" d="M307.56,-1116.12C312.31,-1110.63 316.48,-1104.55 319.25,-1098 329.82,-1073.03 324.67,-1063.56 319.25,-1037 315.95,-1020.83 311.07,-1004.3 305.37,-988.18"/>
<polygon fill="none" stroke="#63b8ff" points="305.32,-988.06 299.49,-983.82 301.17,-976.81 307,-981.05 305.32,-988.06"/>
</a>
</g>
<text text-anchor="middle" x="348.64" y="-1063.62" font-family="Helvetica,sans-Serif" font-size="10.00" fill="grey"> &#45;value_list</text>
</g>
<!-- Node11&#45;&gt;Node6 -->
<g id="edge14_Node000006_Node000011" class="edge">
<title>Node11&#45;&gt;Node6</title>
<g id="a_edge14_Node000006_Node000011"><a xlink:title=" ">
<path fill="none" stroke="orange" d="M151.05,-1219.19C143.21,-1187.84 132.54,-1140.19 128.25,-1098 109.94,-917.94 151.64,-701.36 168.54,-623.98"/>
<polygon fill="orange" stroke="orange" points="147.56,-1219.68 153.42,-1228.5 154.34,-1217.95 147.56,-1219.68"/>
</a>
</g>
<text text-anchor="middle" x="192.75" y="-1063.62" font-family="Helvetica,sans-Serif" font-size="10.00" fill="grey"> &lt; std::string, JSONProperty &gt;</text>
</g>
<!-- Node12 -->
<g id="Node000012" class="node">
<title>Node12</title>
<g id="a_Node000012"><a xlink:title=" ">
<polygon fill="white" stroke="none" points="167.62,-1382.25 152.88,-1382.25 152.88,-1332.5 167.62,-1332.5 167.62,-1382.25"/>
<text text-anchor="start" x="156.88" y="-1368.75" font-family="Helvetica,sans-Serif" font-size="10.00">K</text>
<text text-anchor="start" x="158.75" y="-1353.5" font-family="Helvetica,sans-Serif" font-size="10.00"> </text>
<text text-anchor="start" x="158.75" y="-1338.25" font-family="Helvetica,sans-Serif" font-size="10.00"> </text>
<polygon fill="#666666" stroke="#666666" points="152.88,-1365 152.88,-1365 167.62,-1365 167.62,-1365 152.88,-1365"/>
<polygon fill="#666666" stroke="#666666" points="152.88,-1349.75 152.88,-1349.75 167.62,-1349.75 167.62,-1349.75 152.88,-1349.75"/>
<polygon fill="none" stroke="#666666" points="152.88,-1332.5 152.88,-1382.25 167.62,-1382.25 167.62,-1332.5 152.88,-1332.5"/>
</a>
</g>
</g>
<!-- Node12&#45;&gt;Node11 -->
<g id="edge15_Node000011_Node000012" class="edge">
<title>Node12&#45;&gt;Node11</title>
<g id="a_edge15_Node000011_Node000012"><a xlink:title=" ">
<path fill="none" stroke="#63b8ff" d="M160.25,-1332.53C160.25,-1320.5 160.25,-1305.65 160.25,-1292.22"/>
<polygon fill="none" stroke="#63b8ff" points="160.25,-1292.33 156.25,-1286.33 160.25,-1280.33 164.25,-1286.33 160.25,-1292.33"/>
</a>
</g>
<text text-anchor="middle" x="174.5" y="-1305" font-family="Helvetica,sans-Serif" font-size="10.00" fill="grey"> +keys</text>
</g>
<!-- Node13&#45;&gt;Node2 -->
<g id="edge17_Node000002_Node000013" class="edge">
<title>Node13&#45;&gt;Node2</title>
<g id="a_edge17_Node000002_Node000013"><a xlink:title=" ">
<path fill="none" stroke="#63b8ff" d="M391.43,-642.39C390.48,-615.13 388.83,-567.67 387.08,-517.45"/>
<polygon fill="none" stroke="#63b8ff" points="387.09,-517.53 382.88,-511.67 386.67,-505.53 390.88,-511.39 387.09,-517.53"/>
</a>
</g>
<text text-anchor="middle" x="424.03" y="-589.88" font-family="Helvetica,sans-Serif" font-size="10.00" fill="grey"> #bounding_box</text>
</g>
<!-- Node14&#45;&gt;Node2 -->
<g id="edge20_Node000002_Node000014" class="edge">
<title>Node14&#45;&gt;Node2</title>
<g id="a_edge20_Node000002_Node000014"><a xlink:title=" ">
<path fill="none" stroke="#63b8ff" d="M424.99,-62.83C426.91,-78.8 428.26,-98.89 426.25,-116.75 426.05,-118.53 425.84,-120.31 425.62,-122.1"/>
<polygon fill="none" stroke="#63b8ff" points="425.62,-122.13 428.79,-128.6 424.04,-134.02 420.86,-127.55 425.62,-122.13"/>
</a>
</g>
<text text-anchor="middle" x="454.62" y="-107.25" font-family="Helvetica,sans-Serif" font-size="10.00" fill="grey"> #destination</text>
<text text-anchor="middle" x="454.62" y="-96" font-family="Helvetica,sans-Serif" font-size="10.00" fill="grey">#neighbors</text>
<text text-anchor="middle" x="454.62" y="-84.75" font-family="Helvetica,sans-Serif" font-size="10.00" fill="grey">#origination</text>
</g>
</g>
</svg>
