<?xml version="1.0" encoding="UTF-8" standalone="no"?>
<!DOCTYPE svg PUBLIC "-//W3C//DTD SVG 1.1//EN"
 "http://www.w3.org/Graphics/SVG/1.1/DTD/svg11.dtd">
<!-- Generated by graphviz version 3.0.0 (20221109.1736)
 -->
<!-- Title: HY_PointHydroNexus Pages: 1 -->
<svg width="680pt" height="772pt"
 viewBox="0.00 0.00 679.50 772.00" xmlns="http://www.w3.org/2000/svg" xmlns:xlink="http://www.w3.org/1999/xlink">
<g id="graph0" class="graph" transform="scale(1 1) rotate(0) translate(4 768)">
<title>HY_PointHydroNexus</title>
<polygon fill="white" stroke="transparent" points="-4,4 -4,-768 675.5,-768 675.5,4 -4,4"/>
<!-- Node1 -->
<g id="node1" class="node">
<title>Node1</title>
<g id="a_node1"><a xlink:title=" ">
<polygon fill="#bfbfbf" stroke="black" points="345.5,-0.5 345.5,-156.5 481.5,-156.5 481.5,-0.5 345.5,-0.5"/>
<text text-anchor="middle" x="413.5" y="-144.5" font-family="Helvetica,sans-Serif" font-size="10.00">HY_PointHydroNexus</text>
<polyline fill="none" stroke="black" points="345.5,-137.5 481.5,-137.5 "/>
<text text-anchor="start" x="353.5" y="-125.5" font-family="Helvetica,sans-Serif" font-size="10.00"># min_timestep</text>
<polyline fill="none" stroke="black" points="345.5,-118.5 481.5,-118.5 "/>
<text text-anchor="start" x="353.5" y="-106.5" font-family="Helvetica,sans-Serif" font-size="10.00">+ HY_PointHydroNexus()</text>
<text text-anchor="start" x="353.5" y="-95.5" font-family="Helvetica,sans-Serif" font-size="10.00">+ HY_PointHydroNexus()</text>
<text text-anchor="start" x="353.5" y="-84.5" font-family="Helvetica,sans-Serif" font-size="10.00">+ ~HY_PointHydroNexus()</text>
<text text-anchor="start" x="353.5" y="-73.5" font-family="Helvetica,sans-Serif" font-size="10.00">+ get_downstream_flow()</text>
<text text-anchor="start" x="353.5" y="-62.5" font-family="Helvetica,sans-Serif" font-size="10.00">+ add_upstream_flow()</text>
<text text-anchor="start" x="353.5" y="-51.5" font-family="Helvetica,sans-Serif" font-size="10.00">+ inspect_upstream_flows()</text>
<text text-anchor="start" x="353.5" y="-40.5" font-family="Helvetica,sans-Serif" font-size="10.00">+ inspect_downstream</text>
<text text-anchor="start" x="353.5" y="-29.5" font-family="Helvetica,sans-Serif" font-size="10.00">_requests()</text>
<text text-anchor="start" x="353.5" y="-18.5" font-family="Helvetica,sans-Serif" font-size="10.00">+ get_flow_units()</text>
<text text-anchor="start" x="353.5" y="-7.5" font-family="Helvetica,sans-Serif" font-size="10.00">+ set_mintime()</text>
</a>
</g>
</g>
<!-- Node2 -->
<g id="node2" class="node">
<title>Node2</title>
<g id="a_node2"><a xlink:href="class_h_y___hydro_nexus.html" target="_top" xlink:title=" ">
<polygon fill="white" stroke="black" points="81.5,-215.5 81.5,-415.5 237.5,-415.5 237.5,-215.5 81.5,-215.5"/>
<text text-anchor="middle" x="159.5" y="-403.5" font-family="Helvetica,sans-Serif" font-size="10.00">HY_HydroNexus</text>
<polyline fill="none" stroke="black" points="81.5,-396.5 237.5,-396.5 "/>
<text text-anchor="start" x="89.5" y="-384.5" font-family="Helvetica,sans-Serif" font-size="10.00">&#45; number_of_downstream</text>
<text text-anchor="start" x="89.5" y="-373.5" font-family="Helvetica,sans-Serif" font-size="10.00">_catchments</text>
<polyline fill="none" stroke="black" points="81.5,-366.5 237.5,-366.5 "/>
<text text-anchor="start" x="89.5" y="-354.5" font-family="Helvetica,sans-Serif" font-size="10.00">+ HY_HydroNexus()</text>
<text text-anchor="start" x="89.5" y="-343.5" font-family="Helvetica,sans-Serif" font-size="10.00">+ HY_HydroNexus()</text>
<text text-anchor="start" x="89.5" y="-332.5" font-family="Helvetica,sans-Serif" font-size="10.00">+ HY_HydroNexus()</text>
<text text-anchor="start" x="89.5" y="-321.5" font-family="Helvetica,sans-Serif" font-size="10.00">+ ~HY_HydroNexus()</text>
<text text-anchor="start" x="89.5" y="-310.5" font-family="Helvetica,sans-Serif" font-size="10.00">+ add_upstream_flow()</text>
<text text-anchor="start" x="89.5" y="-299.5" font-family="Helvetica,sans-Serif" font-size="10.00">+ get_downstream_flow()</text>
<text text-anchor="start" x="89.5" y="-288.5" font-family="Helvetica,sans-Serif" font-size="10.00">+ inspect_upstream_flows()</text>
<text text-anchor="start" x="89.5" y="-277.5" font-family="Helvetica,sans-Serif" font-size="10.00">+ inspect_downstream</text>
<text text-anchor="start" x="89.5" y="-266.5" font-family="Helvetica,sans-Serif" font-size="10.00">_requests()</text>
<text text-anchor="start" x="89.5" y="-255.5" font-family="Helvetica,sans-Serif" font-size="10.00">+ get_flow_units()</text>
<text text-anchor="start" x="89.5" y="-244.5" font-family="Helvetica,sans-Serif" font-size="10.00">+ get_receiving_catchments()</text>
<text text-anchor="start" x="89.5" y="-233.5" font-family="Helvetica,sans-Serif" font-size="10.00">+ get_contributing_catchments()</text>
<text text-anchor="start" x="89.5" y="-222.5" font-family="Helvetica,sans-Serif" font-size="10.00">+ get_id()</text>
</a>
</g>
</g>
<!-- Node2&#45;&gt;Node1 -->
<g id="edge1" class="edge">
<title>Node2&#45;&gt;Node1</title>
<path fill="none" stroke="midnightblue" d="M245.53,-234.91C278.08,-204.79 314.66,-170.94 345.35,-142.55"/>
<polygon fill="none" stroke="midnightblue" points="242.74,-232.71 237.78,-242.07 247.5,-237.85 242.74,-232.71"/>
</g>
<!-- Node3 -->
<g id="node3" class="node">
<title>Node3</title>
<g id="a_node3"><a xlink:title=" ">
<polygon fill="white" stroke="black" points="17,-590.5 17,-647.5 76,-647.5 76,-590.5 17,-590.5"/>
<text text-anchor="middle" x="46.5" y="-635.5" font-family="Helvetica,sans-Serif" font-size="10.00">std::string</text>
<polyline fill="none" stroke="black" points="17,-628.5 76,-628.5 "/>
<text text-anchor="middle" x="46.5" y="-616.5" font-family="Helvetica,sans-Serif" font-size="10.00"> </text>
<polyline fill="none" stroke="black" points="17,-609.5 76,-609.5 "/>
<text text-anchor="middle" x="46.5" y="-597.5" font-family="Helvetica,sans-Serif" font-size="10.00"> </text>
</a>
</g>
</g>
<!-- Node3&#45;&gt;Node2 -->
<g id="edge2" class="edge">
<title>Node3&#45;&gt;Node2</title>
<path fill="none" stroke="#404040" d="M37.64,-590.35C29.64,-560.73 21,-512.73 34.5,-474 43.22,-448.99 57.75,-424.97 73.88,-403.54"/>
<polygon fill="none" stroke="#404040" points="74.03,-403.36 74.55,-396.17 81.39,-393.89 80.87,-401.08 74.03,-403.36"/>
<text text-anchor="middle" x="42.5" y="-506" font-family="Helvetica,sans-Serif" font-size="10.00"> #id</text>
</g>
<!-- Node8 -->
<g id="node8" class="node">
<title>Node8</title>
<g id="a_node8"><a xlink:title=" ">
<polygon fill="white" stroke="black" points="59.5,-480 59.5,-537 179.5,-537 179.5,-480 59.5,-480"/>
<text text-anchor="middle" x="119.5" y="-525" font-family="Helvetica,sans-Serif" font-size="10.00">std::vector&lt; std::string &gt;</text>
<polyline fill="none" stroke="black" points="59.5,-518 179.5,-518 "/>
<text text-anchor="middle" x="119.5" y="-506" font-family="Helvetica,sans-Serif" font-size="10.00"> </text>
<polyline fill="none" stroke="black" points="59.5,-499 179.5,-499 "/>
<text text-anchor="middle" x="119.5" y="-487" font-family="Helvetica,sans-Serif" font-size="10.00"> </text>
</a>
</g>
</g>
<!-- Node3&#45;&gt;Node8 -->
<g id="edge8" class="edge">
<title>Node3&#45;&gt;Node8</title>
<path fill="none" stroke="#404040" d="M52.75,-590.4C55.71,-580.64 59.86,-569.9 65.5,-561 68.8,-555.8 72.73,-550.76 76.96,-545.99"/>
<polygon fill="none" stroke="#404040" points="77.06,-545.88 78.3,-538.78 85.34,-537.2 84.09,-544.3 77.06,-545.88"/>
<text text-anchor="middle" x="90" y="-564" font-family="Helvetica,sans-Serif" font-size="10.00"> +elements</text>
</g>
<!-- Node4 -->
<g id="node4" class="node">
<title>Node4</title>
<g id="a_node4"><a xlink:title=" ">
<polygon fill="white" stroke="black" points="0,-695.5 0,-763.5 93,-763.5 93,-695.5 0,-695.5"/>
<text text-anchor="start" x="8" y="-751.5" font-family="Helvetica,sans-Serif" font-size="10.00">std::basic_string&lt;</text>
<text text-anchor="middle" x="46.5" y="-740.5" font-family="Helvetica,sans-Serif" font-size="10.00"> Char &gt;</text>
<polyline fill="none" stroke="black" points="0,-733.5 93,-733.5 "/>
<text text-anchor="middle" x="46.5" y="-721.5" font-family="Helvetica,sans-Serif" font-size="10.00"> </text>
<polyline fill="none" stroke="black" points="0,-714.5 93,-714.5 "/>
<text text-anchor="middle" x="46.5" y="-702.5" font-family="Helvetica,sans-Serif" font-size="10.00"> </text>
</a>
</g>
</g>
<!-- Node4&#45;&gt;Node3 -->
<g id="edge3" class="edge">
<title>Node4&#45;&gt;Node3</title>
<path fill="none" stroke="midnightblue" d="M46.5,-685.06C46.5,-672.51 46.5,-659.15 46.5,-647.83"/>
<polygon fill="none" stroke="midnightblue" points="43,-685.36 46.5,-695.36 50,-685.36 43,-685.36"/>
</g>
<!-- Node5 -->
<g id="node5" class="node">
<title>Node5</title>
<g id="a_node5"><a xlink:title=" ">
<polygon fill="white" stroke="black" points="198,-474.5 198,-542.5 301,-542.5 301,-474.5 198,-474.5"/>
<text text-anchor="start" x="206" y="-530.5" font-family="Helvetica,sans-Serif" font-size="10.00">std::shared_ptr&lt; HY</text>
<text text-anchor="middle" x="249.5" y="-519.5" font-family="Helvetica,sans-Serif" font-size="10.00">_HydroLocation &gt;</text>
<polyline fill="none" stroke="black" points="198,-512.5 301,-512.5 "/>
<text text-anchor="start" x="206" y="-500.5" font-family="Helvetica,sans-Serif" font-size="10.00">+ ptr</text>
<polyline fill="none" stroke="black" points="198,-493.5 301,-493.5 "/>
<text text-anchor="start" x="206" y="-481.5" font-family="Helvetica,sans-Serif" font-size="10.00">+ operator&#45;&gt;()</text>
</a>
</g>
</g>
<!-- Node5&#45;&gt;Node2 -->
<g id="edge4" class="edge">
<title>Node5&#45;&gt;Node2</title>
<path fill="none" stroke="#404040" d="M242.5,-474.29C239.27,-461.44 234.93,-446.78 229.5,-434 228.44,-431.51 227.34,-429.02 226.21,-426.51"/>
<polygon fill="none" stroke="#404040" points="226.14,-426.37 219.95,-422.66 220.99,-415.53 227.18,-419.23 226.14,-426.37"/>
<text text-anchor="middle" x="262" y="-442.5" font-family="Helvetica,sans-Serif" font-size="10.00"> &#45;realization</text>
</g>
<!-- Node6 -->
<g id="node6" class="node">
<title>Node6</title>
<g id="a_node6"><a xlink:title=" ">
<polygon fill="white" stroke="black" points="106,-590.5 106,-647.5 209,-647.5 209,-590.5 106,-590.5"/>
<text text-anchor="middle" x="157.5" y="-635.5" font-family="Helvetica,sans-Serif" font-size="10.00">std::shared_ptr&lt; T &gt;</text>
<polyline fill="none" stroke="black" points="106,-628.5 209,-628.5 "/>
<text text-anchor="middle" x="157.5" y="-616.5" font-family="Helvetica,sans-Serif" font-size="10.00"> </text>
<polyline fill="none" stroke="black" points="106,-609.5 209,-609.5 "/>
<text text-anchor="start" x="114" y="-597.5" font-family="Helvetica,sans-Serif" font-size="10.00">+ operator&#45;&gt;()</text>
</a>
</g>
</g>
<!-- Node6&#45;&gt;Node5 -->
<g id="edge5" class="edge">
<title>Node6&#45;&gt;Node5</title>
<path fill="none" stroke="orange" d="M134.46,-580.98C132.83,-574 133.25,-567 137.5,-561 151.38,-541.38 166.56,-552.82 188.5,-543 191.59,-541.62 194.73,-540.14 197.88,-538.6"/>
<polygon fill="orange" stroke="orange" points="131.16,-582.15 137.79,-590.42 137.76,-579.82 131.16,-582.15"/>
<text text-anchor="middle" x="188.5" y="-564" font-family="Helvetica,sans-Serif" font-size="10.00"> &lt; HY_HydroLocation &gt;</text>
</g>
<!-- Node7 -->
<g id="node7" class="node">
<title>Node7</title>
<g id="a_node7"><a xlink:title=" ">
<polygon fill="white" stroke="black" points="261,-701 261,-758 290,-758 290,-701 261,-701"/>
<text text-anchor="middle" x="275.5" y="-746" font-family="Helvetica,sans-Serif" font-size="10.00">T</text>
<polyline fill="none" stroke="black" points="261,-739 290,-739 "/>
<text text-anchor="middle" x="275.5" y="-727" font-family="Helvetica,sans-Serif" font-size="10.00"> </text>
<polyline fill="none" stroke="black" points="261,-720 290,-720 "/>
<text text-anchor="middle" x="275.5" y="-708" font-family="Helvetica,sans-Serif" font-size="10.00"> </text>
</a>
</g>
</g>
<!-- Node7&#45;&gt;Node6 -->
<g id="edge6" class="edge">
<title>Node7&#45;&gt;Node6</title>
<path fill="none" stroke="#404040" d="M260.56,-714.76C244.6,-700.09 218.66,-676.24 196.8,-656.14"/>
<polygon fill="none" stroke="#404040" points="196.56,-655.91 189.43,-654.8 187.72,-647.79 194.85,-648.91 196.56,-655.91"/>
<text text-anchor="middle" x="226.5" y="-669" font-family="Helvetica,sans-Serif" font-size="10.00"> +ptr</text>
</g>
<!-- Node9 -->
<g id="node9" class="node">
<title>Node9</title>
<g id="a_node9"><a xlink:title=" ">
<polygon fill="white" stroke="black" points="233.5,-590.5 233.5,-647.5 317.5,-647.5 317.5,-590.5 233.5,-590.5"/>
<text text-anchor="middle" x="275.5" y="-635.5" font-family="Helvetica,sans-Serif" font-size="10.00">std::vector&lt; T &gt;</text>
<polyline fill="none" stroke="black" points="233.5,-628.5 317.5,-628.5 "/>
<text text-anchor="middle" x="275.5" y="-616.5" font-family="Helvetica,sans-Serif" font-size="10.00"> </text>
<polyline fill="none" stroke="black" points="233.5,-609.5 317.5,-609.5 "/>
<text text-anchor="middle" x="275.5" y="-597.5" font-family="Helvetica,sans-Serif" font-size="10.00"> </text>
</a>
</g>
</g>
<!-- Node7&#45;&gt;Node9 -->
<g id="edge10" class="edge">
<title>Node7&#45;&gt;Node9</title>
<path fill="none" stroke="#404040" d="M275.5,-700.84C275.5,-688.34 275.5,-673.34 275.5,-659.68"/>
<polygon fill="none" stroke="#404040" points="275.5,-659.61 271.5,-653.61 275.5,-647.61 279.5,-653.61 275.5,-659.61"/>
<text text-anchor="middle" x="300" y="-669" font-family="Helvetica,sans-Serif" font-size="10.00"> +elements</text>
</g>
<!-- Node11 -->
<g id="node11" class="node">
<title>Node11</title>
<g id="a_node11"><a xlink:title=" ">
<polygon fill="white" stroke="black" points="416,-474.5 416,-542.5 517,-542.5 517,-474.5 416,-474.5"/>
<text text-anchor="start" x="424" y="-530.5" font-family="Helvetica,sans-Serif" font-size="10.00">std::unordered_map</text>
<text text-anchor="middle" x="466.5" y="-519.5" font-family="Helvetica,sans-Serif" font-size="10.00">&lt; K, T &gt;</text>
<polyline fill="none" stroke="black" points="416,-512.5 517,-512.5 "/>
<text text-anchor="middle" x="466.5" y="-500.5" font-family="Helvetica,sans-Serif" font-size="10.00"> </text>
<polyline fill="none" stroke="black" points="416,-493.5 517,-493.5 "/>
<text text-anchor="middle" x="466.5" y="-481.5" font-family="Helvetica,sans-Serif" font-size="10.00"> </text>
</a>
</g>
</g>
<!-- Node7&#45;&gt;Node11 -->
<g id="edge15" class="edge">
<title>Node7&#45;&gt;Node11</title>
<path fill="none" stroke="#404040" d="M290.33,-714.93C301.2,-704.78 316.16,-690.4 328.5,-677 366.14,-636.14 406.2,-586.78 433.41,-552.27"/>
<polygon fill="none" stroke="#404040" points="433.66,-551.95 434.22,-544.76 441.07,-542.51 440.51,-549.7 433.66,-551.95"/>
<text text-anchor="middle" x="425" y="-616.5" font-family="Helvetica,sans-Serif" font-size="10.00"> +elements</text>
</g>
<!-- Node8&#45;&gt;Node2 -->
<g id="edge7" class="edge">
<title>Node8&#45;&gt;Node2</title>
<path fill="none" stroke="#404040" d="M118.23,-479.98C117.93,-472.22 117.65,-463.78 117.5,-456 117.31,-446.22 115.83,-443.63 117.5,-434 117.88,-431.81 118.29,-429.61 118.74,-427.41"/>
<polygon fill="none" stroke="#404040" points="118.78,-427.24 116.21,-420.51 121.44,-415.54 124.01,-422.28 118.78,-427.24"/>
<text text-anchor="middle" x="173.5" y="-448" font-family="Helvetica,sans-Serif" font-size="10.00"> &#45;contributing_catchments</text>
<text text-anchor="middle" x="173.5" y="-437" font-family="Helvetica,sans-Serif" font-size="10.00">&#45;receiving_catchments</text>
</g>
<!-- Node9&#45;&gt;Node8 -->
<g id="edge9" class="edge">
<title>Node9&#45;&gt;Node8</title>
<path fill="none" stroke="orange" d="M257.63,-581.58C252.59,-574 246.54,-566.61 239.5,-561 220.71,-546.01 210.68,-552.26 188.5,-543 184.08,-541.15 179.53,-539.16 174.99,-537.11"/>
<polygon fill="orange" stroke="orange" points="254.86,-583.77 263.06,-590.49 260.84,-580.13 254.86,-583.77"/>
<text text-anchor="middle" x="281" y="-564" font-family="Helvetica,sans-Serif" font-size="10.00"> &lt; std::string &gt;</text>
</g>
<!-- Node10 -->
<g id="node10" class="node">
<title>Node10</title>
<g id="a_node10"><a xlink:title=" ">
<polygon fill="white" stroke="black" points="300,-276 300,-355 401,-355 401,-276 300,-276"/>
<text text-anchor="start" x="308" y="-343" font-family="Helvetica,sans-Serif" font-size="10.00">std::unordered_map</text>
<text text-anchor="start" x="308" y="-332" font-family="Helvetica,sans-Serif" font-size="10.00">&lt; time_step_t, flow</text>
<text text-anchor="middle" x="350.5" y="-321" font-family="Helvetica,sans-Serif" font-size="10.00">_vector &gt;</text>
<polyline fill="none" stroke="black" points="300,-314 401,-314 "/>
<text text-anchor="start" x="308" y="-302" font-family="Helvetica,sans-Serif" font-size="10.00">+ keys</text>
<polyline fill="none" stroke="black" points="300,-295 401,-295 "/>
<text text-anchor="middle" x="350.5" y="-283" font-family="Helvetica,sans-Serif" font-size="10.00"> </text>
</a>
</g>
</g>
<!-- Node9&#45;&gt;Node10 -->
<g id="edge12" class="edge">
<title>Node9&#45;&gt;Node10</title>
<path fill="none" stroke="#404040" d="M303.92,-590.36C308.43,-584.69 312.57,-578.46 315.5,-572 345.56,-505.76 351.56,-420.68 351.93,-367.36"/>
<polygon fill="none" stroke="#404040" points="351.93,-367.18 347.93,-361.18 351.92,-355.18 355.93,-361.17 351.93,-367.18"/>
<text text-anchor="middle" x="367" y="-506" font-family="Helvetica,sans-Serif" font-size="10.00"> +elements</text>
</g>
<!-- Node10&#45;&gt;Node1 -->
<g id="edge11" class="edge">
<title>Node10&#45;&gt;Node1</title>
<path fill="none" stroke="#404040" d="M345.04,-275.74C342.39,-247.26 341.62,-207.94 351.5,-175 352.22,-172.6 353.02,-170.2 353.9,-167.81"/>
<polygon fill="none" stroke="#404040" points="353.9,-167.8 352.48,-160.73 358.47,-156.7 359.88,-163.77 353.9,-167.8"/>
<text text-anchor="middle" x="403.5" y="-189" font-family="Helvetica,sans-Serif" font-size="10.00"> #downstream_requests</text>
<text text-anchor="middle" x="403.5" y="-178" font-family="Helvetica,sans-Serif" font-size="10.00">#upstream_flows</text>
</g>
<!-- Node11&#45;&gt;Node10 -->
<g id="edge13" class="edge">
<title>Node11&#45;&gt;Node10</title>
<path fill="none" stroke="orange" d="M407.3,-480.99C397.11,-474.13 387.55,-465.84 380.5,-456 359.37,-426.5 352.6,-385.08 350.67,-355.04"/>
<polygon fill="orange" stroke="orange" points="405.64,-484.08 415.97,-486.42 409.35,-478.15 405.64,-484.08"/>
<text text-anchor="start" x="380.5" y="-448" font-family="Helvetica,sans-Serif" font-size="10.00"> &lt; time_step_t, flow</text>
<text text-anchor="middle" x="423" y="-437" font-family="Helvetica,sans-Serif" font-size="10.00">_vector &gt;</text>
</g>
<!-- Node13 -->
<g id="node13" class="node">
<title>Node13</title>
<g id="a_node13"><a xlink:title=" ">
<polygon fill="white" stroke="black" points="419.5,-276 419.5,-355 537.5,-355 537.5,-276 419.5,-276"/>
<text text-anchor="start" x="427.5" y="-343" font-family="Helvetica,sans-Serif" font-size="10.00">std::unordered_map</text>
<text text-anchor="middle" x="478.5" y="-332" font-family="Helvetica,sans-Serif" font-size="10.00">&lt; time_step_t, double &gt;</text>
<polyline fill="none" stroke="black" points="419.5,-325 537.5,-325 "/>
<text text-anchor="start" x="427.5" y="-313" font-family="Helvetica,sans-Serif" font-size="10.00">+ keys</text>
<text text-anchor="start" x="427.5" y="-302" font-family="Helvetica,sans-Serif" font-size="10.00">+ elements</text>
<polyline fill="none" stroke="black" points="419.5,-295 537.5,-295 "/>
<text text-anchor="middle" x="478.5" y="-283" font-family="Helvetica,sans-Serif" font-size="10.00"> </text>
</a>
</g>
</g>
<!-- Node11&#45;&gt;Node13 -->
<g id="edge17" class="edge">
<title>Node11&#45;&gt;Node13</title>
<path fill="none" stroke="orange" d="M469.23,-464.05C471.29,-431.32 474.08,-386.85 476.06,-355.31"/>
<polygon fill="orange" stroke="orange" points="465.72,-464.03 468.59,-474.23 472.71,-464.47 465.72,-464.03"/>
<text text-anchor="middle" x="522.5" y="-442.5" font-family="Helvetica,sans-Serif" font-size="10.00"> &lt; time_step_t, double &gt;</text>
</g>
<!-- Node12 -->
<g id="node12" class="node">
<title>Node12</title>
<g id="a_node12"><a xlink:title=" ">
<polygon fill="white" stroke="black" points="534,-590.5 534,-647.5 563,-647.5 563,-590.5 534,-590.5"/>
<text text-anchor="middle" x="548.5" y="-635.5" font-family="Helvetica,sans-Serif" font-size="10.00">K</text>
<polyline fill="none" stroke="black" points="534,-628.5 563,-628.5 "/>
<text text-anchor="middle" x="548.5" y="-616.5" font-family="Helvetica,sans-Serif" font-size="10.00"> </text>
<polyline fill="none" stroke="black" points="534,-609.5 563,-609.5 "/>
<text text-anchor="middle" x="548.5" y="-597.5" font-family="Helvetica,sans-Serif" font-size="10.00"> </text>
</a>
</g>
</g>
<!-- Node12&#45;&gt;Node11 -->
<g id="edge14" class="edge">
<title>Node12&#45;&gt;Node11</title>
<path fill="none" stroke="#404040" d="M533.84,-598.6C524.15,-585.78 511.06,-568.46 498.99,-552.49"/>
<polygon fill="none" stroke="#404040" points="498.89,-552.35 492.08,-549.98 491.65,-542.78 498.46,-545.15 498.89,-552.35"/>
<text text-anchor="middle" x="526" y="-564" font-family="Helvetica,sans-Serif" font-size="10.00"> +keys</text>
</g>
<!-- Node15 -->
<g id="node15" class="node">
<title>Node15</title>
<g id="a_node15"><a xlink:title=" ">
<polygon fill="white" stroke="black" points="541,-480 541,-537 660,-537 660,-480 541,-480"/>
<text text-anchor="middle" x="600.5" y="-525" font-family="Helvetica,sans-Serif" font-size="10.00">std::unordered_set&lt; K &gt;</text>
<polyline fill="none" stroke="black" points="541,-518 660,-518 "/>
<text text-anchor="middle" x="600.5" y="-506" font-family="Helvetica,sans-Serif" font-size="10.00"> </text>
<polyline fill="none" stroke="black" points="541,-499 660,-499 "/>
<text text-anchor="middle" x="600.5" y="-487" font-family="Helvetica,sans-Serif" font-size="10.00"> </text>
</a>
</g>
</g>
<!-- Node12&#45;&gt;Node15 -->
<g id="edge20" class="edge">
<title>Node12&#45;&gt;Node15</title>
<path fill="none" stroke="#404040" d="M561.76,-590.34C567.87,-577.59 575.23,-562.23 581.89,-548.34"/>
<polygon fill="none" stroke="#404040" points="582.08,-547.93 581.07,-540.79 587.27,-537.11 588.28,-544.25 582.08,-547.93"/>
<text text-anchor="middle" x="589" y="-564" font-family="Helvetica,sans-Serif" font-size="10.00"> +keys</text>
</g>
<!-- Node13&#45;&gt;Node1 -->
<g id="edge16" class="edge">
<title>Node13&#45;&gt;Node1</title>
<path fill="none" stroke="#404040" d="M474.75,-275.72C471.38,-247.4 465.39,-208.29 455.5,-175 454.82,-172.72 454.1,-170.43 453.35,-168.12"/>
<polygon fill="none" stroke="#404040" points="453.27,-167.88 447.52,-163.53 449.32,-156.55 455.07,-160.9 453.27,-167.88"/>
<text text-anchor="middle" x="496" y="-189" font-family="Helvetica,sans-Serif" font-size="10.00"> #summed_flows</text>
<text text-anchor="middle" x="496" y="-178" font-family="Helvetica,sans-Serif" font-size="10.00">#total_requests</text>
</g>
<!-- Node14 -->
<g id="node14" class="node">
<title>Node14</title>
<g id="a_node14"><a xlink:title=" ">
<polygon fill="white" stroke="black" points="556.5,-281.5 556.5,-349.5 652.5,-349.5 652.5,-281.5 556.5,-281.5"/>
<text text-anchor="start" x="564.5" y="-337.5" font-family="Helvetica,sans-Serif" font-size="10.00">std::unordered_set</text>
<text text-anchor="middle" x="604.5" y="-326.5" font-family="Helvetica,sans-Serif" font-size="10.00">&lt; time_step_t &gt;</text>
<polyline fill="none" stroke="black" points="556.5,-319.5 652.5,-319.5 "/>
<text text-anchor="start" x="564.5" y="-307.5" font-family="Helvetica,sans-Serif" font-size="10.00">+ keys</text>
<polyline fill="none" stroke="black" points="556.5,-300.5 652.5,-300.5 "/>
<text text-anchor="middle" x="604.5" y="-288.5" font-family="Helvetica,sans-Serif" font-size="10.00"> </text>
</a>
</g>
</g>
<!-- Node14&#45;&gt;Node1 -->
<g id="edge18" class="edge">
<title>Node14&#45;&gt;Node1</title>
<path fill="none" stroke="#404040" d="M593.28,-281.34C582.08,-251.43 562.74,-207.31 536.5,-175 523.54,-159.04 507.41,-144.13 491.16,-131.05"/>
<polygon fill="none" stroke="#404040" points="491.05,-130.97 483.86,-130.42 481.59,-123.58 488.79,-124.12 491.05,-130.97"/>
<text text-anchor="middle" x="577" y="-183.5" font-family="Helvetica,sans-Serif" font-size="10.00"> #completed</text>
</g>
<!-- Node15&#45;&gt;Node14 -->
<g id="edge19" class="edge">
<title>Node15&#45;&gt;Node14</title>
<path fill="none" stroke="orange" d="M601.3,-469.44C602.03,-434.46 603.1,-383.14 603.8,-349.77"/>
<polygon fill="orange" stroke="orange" points="597.79,-469.66 601.08,-479.73 604.79,-469.8 597.79,-469.66"/>
<text text-anchor="middle" x="636.5" y="-442.5" font-family="Helvetica,sans-Serif" font-size="10.00"> &lt; time_step_t &gt;</text>
</g>
</g>
</svg>
