<?xml version="1.0" encoding="UTF-8" standalone="no"?>
<!DOCTYPE svg PUBLIC "-//W3C//DTD SVG 1.1//EN"
 "http://www.w3.org/Graphics/SVG/1.1/DTD/svg11.dtd">
<!-- Generated by graphviz version 3.0.0 (20220413.0106)
 -->
<!-- Title: HY_Catchment Pages: 1 -->
<!--zoomable 1070 -->
<svg id="main" version="1.1" xmlns="http://www.w3.org/2000/svg" xmlns:xlink="http://www.w3.org/1999/xlink" xml:space="preserve" onload="init(evt)">
<style type="text/css"><![CDATA[
.edge:hover path { stroke: red; }
.edge:hover polygon { stroke: red; fill: red; }
]]></style>
<script type="text/javascript"><![CDATA[
var edges = document.getElementsByTagName('g');
if (edges && edges.length) {
  for (var i=0;i<edges.length;i++) {
    if (edges[i].id.substr(0,4)=='edge') {
      edges[i].setAttribute('class','edge');
    }
  }
}
]]></script>
        <defs>
                <circle id="rim" cx="0" cy="0" r="7"/>
                <circle id="rim2" cx="0" cy="0" r="3.5"/>
                <g id="zoomPlus">
                        <use xlink:href="#rim" fill="#404040">
                                <set attributeName="fill" to="#808080" begin="zoomplus.mouseover" end="zoomplus.mouseout"/>
                        </use>
                        <path d="M-4,0h8M0,-4v8" fill="none" stroke="white" stroke-width="1.5" pointer-events="none"/>
                </g>
                <g id="zoomMin">
                        <use xlink:href="#rim" fill="#404040">
                                <set attributeName="fill" to="#808080" begin="zoomminus.mouseover" end="zoomminus.mouseout"/>
                        </use>
                        <path d="M-4,0h8" fill="none" stroke="white" stroke-width="1.5" pointer-events="none"/>
                </g>
                <g id="dirArrow">
                        <path fill="none" stroke="white" stroke-width="1.5" d="M0,-3.0v7 M-2.5,-0.5L0,-3.0L2.5,-0.5"/>
                </g>
               <g id="resetDef">
                       <use xlink:href="#rim2" fill="#404040">
                               <set attributeName="fill" to="#808080" begin="reset.mouseover" end="reset.mouseout"/>
                       </use>
               </g>
        </defs>

<script type="text/javascript">
var viewWidth = 894;
var viewHeight = 1070;
var sectionId = 'dynsection-1';
</script>
<script xlink:href="svgpan.js"/>
<svg id="graph" class="graph">
<g id="viewport">
<title>HY_Catchment</title>
<polygon fill="white" stroke="transparent" points="-4,4 -4,-1066 890,-1066 890,4 -4,4"/>
<!-- Node1 -->
<g id="node1" class="node">
<title>Node1</title>
<g id="a_node1"><a xlink:title=" ">
<polygon fill="#bfbfbf" stroke="black" points="259,-403.5 259,-493.5 381,-493.5 381,-403.5 259,-403.5"/>
<text text-anchor="middle" x="320" y="-481.5" font-family="Helvetica,sans-Serif" font-size="10.00">HY_Catchment</text>
<polyline fill="none" stroke="black" points="259,-474.5 381,-474.5 "/>
<text text-anchor="middle" x="320" y="-462.5" font-family="Helvetica,sans-Serif" font-size="10.00"> </text>
<polyline fill="none" stroke="black" points="259,-455.5 381,-455.5 "/>
<text text-anchor="start" x="267" y="-443.5" font-family="Helvetica,sans-Serif" font-size="10.00">+ HY_Catchment()</text>
<text text-anchor="start" x="267" y="-432.5" font-family="Helvetica,sans-Serif" font-size="10.00">+ HY_Catchment()</text>
<text text-anchor="start" x="267" y="-421.5" font-family="Helvetica,sans-Serif" font-size="10.00">+ ~HY_Catchment()</text>
<text text-anchor="start" x="267" y="-410.5" font-family="Helvetica,sans-Serif" font-size="10.00">+ get_outflow_nexuses()</text>
</a>
</g>
</g>
<!-- Node5 -->
<g id="node5" class="node">
<title>Node5</title>
<g id="a_node5"><a xlink:title=" ">
<polygon fill="white" stroke="black" points="444.5,-276.5 444.5,-344.5 547.5,-344.5 547.5,-276.5 444.5,-276.5"/>
<text text-anchor="start" x="452.5" y="-332.5" font-family="Helvetica,sans-Serif" font-size="10.00">std::shared_ptr&lt; HY</text>
<text text-anchor="middle" x="496" y="-321.5" font-family="Helvetica,sans-Serif" font-size="10.00">_Catchment &gt;</text>
<polyline fill="none" stroke="black" points="444.5,-314.5 547.5,-314.5 "/>
<text text-anchor="middle" x="496" y="-302.5" font-family="Helvetica,sans-Serif" font-size="10.00"> </text>
<polyline fill="none" stroke="black" points="444.5,-295.5 547.5,-295.5 "/>
<text text-anchor="start" x="452.5" y="-283.5" font-family="Helvetica,sans-Serif" font-size="10.00">+ operator&#45;&gt;()</text>
</a>
</g>
</g>
<!-- Node1&#45;&gt;Node5 -->
<g id="edge5" class="edge">
<title>Node1&#45;&gt;Node5</title>
<path fill="none" stroke="#404040" d="M377.14,-403.34C398.46,-386.87 422.54,-368.26 443.43,-352.13"/>
<polygon fill="none" stroke="#404040" points="443.59,-352 445.89,-345.17 453.08,-344.66 450.78,-351.5 443.59,-352"/>
<text text-anchor="middle" x="438" y="-371.5" font-family="Helvetica,sans-Serif" font-size="10.00"> +ptr</text>
</g>
<!-- Node2 -->
<g id="node2" class="node">
<title>Node2</title>
<g id="a_node2"><a xlink:href="class_h_y___hydro_feature.html" target="_top" xlink:title=" ">
<polygon fill="white" stroke="black" points="0,-602 0,-670 114,-670 114,-602 0,-602"/>
<text text-anchor="middle" x="57" y="-658" font-family="Helvetica,sans-Serif" font-size="10.00">HY_HydroFeature</text>
<polyline fill="none" stroke="black" points="0,-651 114,-651 "/>
<text text-anchor="middle" x="57" y="-639" font-family="Helvetica,sans-Serif" font-size="10.00"> </text>
<polyline fill="none" stroke="black" points="0,-632 114,-632 "/>
<text text-anchor="start" x="8" y="-620" font-family="Helvetica,sans-Serif" font-size="10.00">+ HY_HydroFeature()</text>
<text text-anchor="start" x="8" y="-609" font-family="Helvetica,sans-Serif" font-size="10.00">+ ~HY_HydroFeature()</text>
</a>
</g>
</g>
<!-- Node2&#45;&gt;Node1 -->
<g id="edge1" class="edge">
<title>Node2&#45;&gt;Node1</title>
<path fill="none" stroke="midnightblue" d="M75.15,-592.73C88.49,-566.19 109,-533.12 136,-512 171.61,-484.15 220.36,-468.33 258.73,-459.58"/>
<polygon fill="none" stroke="midnightblue" points="71.96,-591.29 70.73,-601.81 78.26,-594.35 71.96,-591.29"/>
</g>
<!-- Node3 -->
<g id="node3" class="node">
<title>Node3</title>
<g id="a_node3"><a xlink:title=" ">
<polygon fill="white" stroke="black" points="332.5,-0.5 332.5,-68.5 457.5,-68.5 457.5,-0.5 332.5,-0.5"/>
<text text-anchor="start" x="340.5" y="-56.5" font-family="Helvetica,sans-Serif" font-size="10.00">std::shared_ptr&lt; HY</text>
<text text-anchor="middle" x="395" y="-45.5" font-family="Helvetica,sans-Serif" font-size="10.00">_CatchmentRealization &gt;</text>
<polyline fill="none" stroke="black" points="332.5,-38.5 457.5,-38.5 "/>
<text text-anchor="middle" x="395" y="-26.5" font-family="Helvetica,sans-Serif" font-size="10.00"> </text>
<polyline fill="none" stroke="black" points="332.5,-19.5 457.5,-19.5 "/>
<text text-anchor="start" x="340.5" y="-7.5" font-family="Helvetica,sans-Serif" font-size="10.00">+ operator&#45;&gt;()</text>
</a>
</g>
</g>
<!-- Node3&#45;&gt;Node1 -->
<g id="edge2" class="edge">
<title>Node3&#45;&gt;Node1</title>
<path fill="none" stroke="#404040" d="M379.52,-68.64C361.35,-109.52 332.27,-181.64 321,-247 312.69,-295.19 313.2,-350.86 315.35,-391.29"/>
<polygon fill="none" stroke="#404040" points="315.35,-391.35 319.7,-397.1 316.06,-403.33 311.71,-397.57 315.35,-391.35"/>
<text text-anchor="middle" x="347" y="-250" font-family="Helvetica,sans-Serif" font-size="10.00"> +realization</text>
</g>
<!-- Node4 -->
<g id="node4" class="node">
<title>Node4</title>
<g id="a_node4"><a xlink:href="class_h_y___catchment_realization.html" target="_top" xlink:title=" ">
<polygon fill="white" stroke="black" points="476,-116.5 476,-228.5 626,-228.5 626,-116.5 476,-116.5"/>
<text text-anchor="middle" x="551" y="-216.5" font-family="Helvetica,sans-Serif" font-size="10.00">HY_CatchmentRealization</text>
<polyline fill="none" stroke="black" points="476,-209.5 626,-209.5 "/>
<text text-anchor="start" x="484" y="-197.5" font-family="Helvetica,sans-Serif" font-size="10.00"># id_number</text>
<polyline fill="none" stroke="black" points="476,-190.5 626,-190.5 "/>
<text text-anchor="start" x="484" y="-178.5" font-family="Helvetica,sans-Serif" font-size="10.00">+ HY_CatchmentRealization()</text>
<text text-anchor="start" x="484" y="-167.5" font-family="Helvetica,sans-Serif" font-size="10.00">+ HY_CatchmentRealization()</text>
<text text-anchor="start" x="484" y="-156.5" font-family="Helvetica,sans-Serif" font-size="10.00">+ ~HY_CatchmentRealization()</text>
<text text-anchor="start" x="484" y="-145.5" font-family="Helvetica,sans-Serif" font-size="10.00">+ get_response()</text>
<text text-anchor="start" x="484" y="-134.5" font-family="Helvetica,sans-Serif" font-size="10.00"># get_catchment_id()</text>
<text text-anchor="start" x="484" y="-123.5" font-family="Helvetica,sans-Serif" font-size="10.00"># set_catchment_id()</text>
</a>
</g>
</g>
<!-- Node4&#45;&gt;Node3 -->
<g id="edge3" class="edge">
<title>Node4&#45;&gt;Node3</title>
<path fill="none" stroke="#404040" d="M487.55,-116.18C472.33,-102.91 456.34,-88.97 442.01,-76.48"/>
<polygon fill="none" stroke="#404040" points="441.91,-76.39 434.76,-75.47 432.86,-68.51 440.01,-69.44 441.91,-76.39"/>
<text text-anchor="middle" x="473" y="-90" font-family="Helvetica,sans-Serif" font-size="10.00"> +ptr</text>
</g>
<!-- Node5&#45;&gt;Node4 -->
<g id="edge4" class="edge">
<title>Node5&#45;&gt;Node4</title>
<path fill="none" stroke="#404040" d="M519.42,-276.27C522.96,-270.36 526.32,-264.13 529,-258 531.44,-252.41 533.66,-246.5 535.67,-240.49"/>
<polygon fill="none" stroke="#404040" points="535.71,-240.36 533.66,-233.45 539.26,-228.9 541.3,-235.81 535.71,-240.36"/>
<text text-anchor="middle" x="578" y="-250" font-family="Helvetica,sans-Serif" font-size="10.00"> #realized_catchment</text>
</g>
<!-- Node6 -->
<g id="node6" class="node">
<title>Node6</title>
<g id="a_node6"><a xlink:title=" ">
<polygon fill="white" stroke="black" points="469.5,-420 469.5,-477 572.5,-477 572.5,-420 469.5,-420"/>
<text text-anchor="middle" x="521" y="-465" font-family="Helvetica,sans-Serif" font-size="10.00">std::shared_ptr&lt; T &gt;</text>
<polyline fill="none" stroke="black" points="469.5,-458 572.5,-458 "/>
<text text-anchor="middle" x="521" y="-446" font-family="Helvetica,sans-Serif" font-size="10.00"> </text>
<polyline fill="none" stroke="black" points="469.5,-439 572.5,-439 "/>
<text text-anchor="start" x="477.5" y="-427" font-family="Helvetica,sans-Serif" font-size="10.00">+ operator&#45;&gt;()</text>
</a>
</g>
</g>
<!-- Node6&#45;&gt;Node3 -->
<g id="edge13" class="edge">
<title>Node6&#45;&gt;Node3</title>
<path fill="none" stroke="orange" d="M485.2,-412.37C452.33,-377.05 406.59,-319.18 392,-258 376.36,-192.43 383.44,-112.87 389.53,-68.86"/>
<polygon fill="orange" stroke="orange" points="483,-415.14 492.42,-419.99 488.08,-410.33 483,-415.14"/>
<text text-anchor="middle" x="458.5" y="-250" font-family="Helvetica,sans-Serif" font-size="10.00"> &lt; HY_CatchmentRealization &gt;</text>
</g>
<!-- Node6&#45;&gt;Node5 -->
<g id="edge6" class="edge">
<title>Node6&#45;&gt;Node5</title>
<path fill="none" stroke="orange" d="M504.33,-410.47C501.32,-402.24 498.63,-393.45 497,-385 494.49,-371.97 493.86,-357.39 493.99,-344.68"/>
<polygon fill="orange" stroke="orange" points="501.07,-411.75 507.95,-419.81 507.6,-409.22 501.07,-411.75"/>
<text text-anchor="middle" x="540" y="-371.5" font-family="Helvetica,sans-Serif" font-size="10.00"> &lt; HY_Catchment &gt;</text>
</g>
<!-- Node8 -->
<g id="node8" class="node">
<title>Node8</title>
<g id="a_node8"><a xlink:title=" ">
<polygon fill="white" stroke="black" points="588,-276.5 588,-344.5 744,-344.5 744,-276.5 588,-276.5"/>
<text text-anchor="start" x="596" y="-332.5" font-family="Helvetica,sans-Serif" font-size="10.00">std::shared_ptr&lt; data</text>
<text text-anchor="middle" x="666" y="-321.5" font-family="Helvetica,sans-Serif" font-size="10.00">_access::GenericDataProvider &gt;</text>
<polyline fill="none" stroke="black" points="588,-314.5 744,-314.5 "/>
<text text-anchor="middle" x="666" y="-302.5" font-family="Helvetica,sans-Serif" font-size="10.00"> </text>
<polyline fill="none" stroke="black" points="588,-295.5 744,-295.5 "/>
<text text-anchor="start" x="596" y="-283.5" font-family="Helvetica,sans-Serif" font-size="10.00">+ operator&#45;&gt;()</text>
</a>
</g>
</g>
<!-- Node6&#45;&gt;Node8 -->
<g id="edge12" class="edge">
<title>Node6&#45;&gt;Node8</title>
<path fill="none" stroke="orange" d="M556.44,-412.63C565.24,-403.74 574.56,-394.11 583,-385 591.78,-375.52 592.71,-371.98 602,-363 608.46,-356.76 615.62,-350.47 622.74,-344.54"/>
<polygon fill="orange" stroke="orange" points="553.77,-410.34 549.2,-419.9 558.73,-415.28 553.77,-410.34"/>
<text text-anchor="start" x="602" y="-377" font-family="Helvetica,sans-Serif" font-size="10.00"> &lt; data_access::GenericData</text>
<text text-anchor="middle" x="664.5" y="-366" font-family="Helvetica,sans-Serif" font-size="10.00">Provider &gt;</text>
</g>
<!-- Node7 -->
<g id="node7" class="node">
<title>Node7</title>
<g id="a_node7"><a xlink:title=" ">
<polygon fill="white" stroke="black" points="498.5,-999 498.5,-1056 527.5,-1056 527.5,-999 498.5,-999"/>
<text text-anchor="middle" x="513" y="-1044" font-family="Helvetica,sans-Serif" font-size="10.00">T</text>
<polyline fill="none" stroke="black" points="498.5,-1037 527.5,-1037 "/>
<text text-anchor="middle" x="513" y="-1025" font-family="Helvetica,sans-Serif" font-size="10.00"> </text>
<polyline fill="none" stroke="black" points="498.5,-1018 527.5,-1018 "/>
<text text-anchor="middle" x="513" y="-1006" font-family="Helvetica,sans-Serif" font-size="10.00"> </text>
</a>
</g>
</g>
<!-- Node7&#45;&gt;Node6 -->
<g id="edge7" class="edge">
<title>Node7&#45;&gt;Node6</title>
<path fill="none" stroke="#404040" d="M524.56,-998.89C527.22,-991.28 529.65,-982.94 531,-975 531.82,-970.18 531.03,-968.89 531,-964 529.89,-780.88 531.57,-735.04 526,-552 525.37,-531.36 524.29,-508.39 523.29,-489.44"/>
<polygon fill="none" stroke="#404040" points="523.28,-489.31 518.96,-483.54 522.63,-477.33 526.95,-483.11 523.28,-489.31"/>
<text text-anchor="middle" x="540" y="-746.5" font-family="Helvetica,sans-Serif" font-size="10.00"> +ptr</text>
</g>
<!-- Node15 -->
<g id="node15" class="node">
<title>Node15</title>
<g id="a_node15"><a xlink:title=" ">
<polygon fill="white" stroke="black" points="413,-833.5 413,-890.5 497,-890.5 497,-833.5 413,-833.5"/>
<text text-anchor="middle" x="455" y="-878.5" font-family="Helvetica,sans-Serif" font-size="10.00">std::vector&lt; T &gt;</text>
<polyline fill="none" stroke="black" points="413,-871.5 497,-871.5 "/>
<text text-anchor="middle" x="455" y="-859.5" font-family="Helvetica,sans-Serif" font-size="10.00"> </text>
<polyline fill="none" stroke="black" points="413,-852.5 497,-852.5 "/>
<text text-anchor="middle" x="455" y="-840.5" font-family="Helvetica,sans-Serif" font-size="10.00"> </text>
</a>
</g>
</g>
<!-- Node7&#45;&gt;Node15 -->
<g id="edge19" class="edge">
<title>Node7&#45;&gt;Node15</title>
<path fill="none" stroke="#404040" d="M498.18,-1005.22C492.46,-996.22 486.28,-985.43 482,-975 472.5,-951.84 465.84,-924.56 461.51,-902.73"/>
<polygon fill="none" stroke="#404040" points="461.5,-902.68 456.46,-897.53 459.28,-890.89 464.32,-896.05 461.5,-902.68"/>
<text text-anchor="middle" x="506.5" y="-967" font-family="Helvetica,sans-Serif" font-size="10.00"> +elements</text>
</g>
<!-- Node8&#45;&gt;Node4 -->
<g id="edge8" class="edge">
<title>Node8&#45;&gt;Node4</title>
<path fill="none" stroke="#404040" d="M648.02,-276.3C642.14,-266.5 635.24,-256 628,-247 625.51,-243.9 622.89,-240.81 620.19,-237.74"/>
<polygon fill="none" stroke="#404040" points="619.96,-237.48 612.96,-235.74 611.87,-228.62 618.87,-230.35 619.96,-237.48"/>
<text text-anchor="middle" x="653.5" y="-250" font-family="Helvetica,sans-Serif" font-size="10.00"> #forcing</text>
</g>
<!-- Node9 -->
<g id="node9" class="node">
<title>Node9</title>
<g id="a_node9"><a xlink:href="classdata__access_1_1_generic_data_provider.html" target="_top" xlink:title=" ">
<polygon fill="white" stroke="black" points="687.5,-414.5 687.5,-482.5 818.5,-482.5 818.5,-414.5 687.5,-414.5"/>
<text text-anchor="start" x="695.5" y="-470.5" font-family="Helvetica,sans-Serif" font-size="10.00">data_access::GenericData</text>
<text text-anchor="middle" x="753" y="-459.5" font-family="Helvetica,sans-Serif" font-size="10.00">Provider</text>
<polyline fill="none" stroke="black" points="687.5,-452.5 818.5,-452.5 "/>
<text text-anchor="middle" x="753" y="-440.5" font-family="Helvetica,sans-Serif" font-size="10.00"> </text>
<polyline fill="none" stroke="black" points="687.5,-433.5 818.5,-433.5 "/>
<text text-anchor="middle" x="753" y="-421.5" font-family="Helvetica,sans-Serif" font-size="10.00"> </text>
</a>
</g>
</g>
<!-- Node9&#45;&gt;Node8 -->
<g id="edge9" class="edge">
<title>Node9&#45;&gt;Node8</title>
<path fill="none" stroke="#404040" d="M749.38,-414.2C746.39,-397.76 740.93,-378.24 731,-363 728.84,-359.68 726.39,-356.48 723.74,-353.42"/>
<polygon fill="none" stroke="#404040" points="723.61,-353.27 716.56,-351.72 715.29,-344.62 722.33,-346.18 723.61,-353.27"/>
<text text-anchor="middle" x="751" y="-371.5" font-family="Helvetica,sans-Serif" font-size="10.00"> +ptr</text>
</g>
<!-- Node10 -->
<g id="node10" class="node">
<title>Node10</title>
<g id="a_node10"><a xlink:href="classdata__access_1_1_data_provider.html" target="_top" xlink:title=" ">
<polygon fill="white" stroke="black" points="657.5,-552.5 657.5,-719.5 848.5,-719.5 848.5,-552.5 657.5,-552.5"/>
<text text-anchor="start" x="665.5" y="-707.5" font-family="Helvetica,sans-Serif" font-size="10.00">data_access::DataProvider</text>
<text text-anchor="middle" x="753" y="-696.5" font-family="Helvetica,sans-Serif" font-size="10.00">&lt; double, CatchmentAggrDataSelector &gt;</text>
<polyline fill="none" stroke="black" points="657.5,-689.5 848.5,-689.5 "/>
<text text-anchor="middle" x="753" y="-677.5" font-family="Helvetica,sans-Serif" font-size="10.00"> </text>
<polyline fill="none" stroke="black" points="657.5,-670.5 848.5,-670.5 "/>
<text text-anchor="start" x="665.5" y="-658.5" font-family="Helvetica,sans-Serif" font-size="10.00">+ ~DataProvider()</text>
<text text-anchor="start" x="665.5" y="-647.5" font-family="Helvetica,sans-Serif" font-size="10.00">+ get_avaliable_variable</text>
<text text-anchor="start" x="665.5" y="-636.5" font-family="Helvetica,sans-Serif" font-size="10.00">_names()</text>
<text text-anchor="start" x="665.5" y="-625.5" font-family="Helvetica,sans-Serif" font-size="10.00">+ get_data_start_time()</text>
<text text-anchor="start" x="665.5" y="-614.5" font-family="Helvetica,sans-Serif" font-size="10.00">+ get_data_stop_time()</text>
<text text-anchor="start" x="665.5" y="-603.5" font-family="Helvetica,sans-Serif" font-size="10.00">+ record_duration()</text>
<text text-anchor="start" x="665.5" y="-592.5" font-family="Helvetica,sans-Serif" font-size="10.00">+ get_ts_index_for_time()</text>
<text text-anchor="start" x="665.5" y="-581.5" font-family="Helvetica,sans-Serif" font-size="10.00">+ get_value()</text>
<text text-anchor="start" x="665.5" y="-570.5" font-family="Helvetica,sans-Serif" font-size="10.00">+ is_property_sum_over</text>
<text text-anchor="start" x="665.5" y="-559.5" font-family="Helvetica,sans-Serif" font-size="10.00">_time_step()</text>
</a>
</g>
</g>
<!-- Node10&#45;&gt;Node9 -->
<g id="edge10" class="edge">
<title>Node10&#45;&gt;Node9</title>
<path fill="none" stroke="midnightblue" d="M753,-542.19C753,-520.89 753,-499.6 753,-482.8"/>
<polygon fill="none" stroke="midnightblue" points="749.5,-542.29 753,-552.29 756.5,-542.29 749.5,-542.29"/>
</g>
<!-- Node11 -->
<g id="node11" class="node">
<title>Node11</title>
<g id="a_node11"><a xlink:href="classdata__access_1_1_data_provider.html" target="_top" xlink:title=" ">
<polygon fill="white" stroke="black" points="681.5,-778.5 681.5,-945.5 824.5,-945.5 824.5,-778.5 681.5,-778.5"/>
<text text-anchor="start" x="689.5" y="-933.5" font-family="Helvetica,sans-Serif" font-size="10.00">data_access::DataProvider</text>
<text text-anchor="middle" x="753" y="-922.5" font-family="Helvetica,sans-Serif" font-size="10.00">&lt; data_type, selection_type &gt;</text>
<polyline fill="none" stroke="black" points="681.5,-915.5 824.5,-915.5 "/>
<text text-anchor="middle" x="753" y="-903.5" font-family="Helvetica,sans-Serif" font-size="10.00"> </text>
<polyline fill="none" stroke="black" points="681.5,-896.5 824.5,-896.5 "/>
<text text-anchor="start" x="689.5" y="-884.5" font-family="Helvetica,sans-Serif" font-size="10.00">+ ~DataProvider()</text>
<text text-anchor="start" x="689.5" y="-873.5" font-family="Helvetica,sans-Serif" font-size="10.00">+ get_avaliable_variable</text>
<text text-anchor="start" x="689.5" y="-862.5" font-family="Helvetica,sans-Serif" font-size="10.00">_names()</text>
<text text-anchor="start" x="689.5" y="-851.5" font-family="Helvetica,sans-Serif" font-size="10.00">+ get_data_start_time()</text>
<text text-anchor="start" x="689.5" y="-840.5" font-family="Helvetica,sans-Serif" font-size="10.00">+ get_data_stop_time()</text>
<text text-anchor="start" x="689.5" y="-829.5" font-family="Helvetica,sans-Serif" font-size="10.00">+ record_duration()</text>
<text text-anchor="start" x="689.5" y="-818.5" font-family="Helvetica,sans-Serif" font-size="10.00">+ get_ts_index_for_time()</text>
<text text-anchor="start" x="689.5" y="-807.5" font-family="Helvetica,sans-Serif" font-size="10.00">+ get_value()</text>
<text text-anchor="start" x="689.5" y="-796.5" font-family="Helvetica,sans-Serif" font-size="10.00">+ is_property_sum_over</text>
<text text-anchor="start" x="689.5" y="-785.5" font-family="Helvetica,sans-Serif" font-size="10.00">_time_step()</text>
</a>
</g>
</g>
<!-- Node11&#45;&gt;Node10 -->
<g id="edge11" class="edge">
<title>Node11&#45;&gt;Node10</title>
<path fill="none" stroke="orange" d="M753,-767.84C753,-751.91 753,-735.45 753,-719.81"/>
<polygon fill="orange" stroke="orange" points="749.5,-768.23 753,-778.23 756.5,-768.23 749.5,-768.23"/>
<text text-anchor="start" x="753" y="-752" font-family="Helvetica,sans-Serif" font-size="10.00"> &lt; double, CatchmentAggrData</text>
<text text-anchor="middle" x="819.5" y="-741" font-family="Helvetica,sans-Serif" font-size="10.00">Selector &gt;</text>
</g>
<!-- Node12 -->
<g id="node12" class="node">
<title>Node12</title>
<g id="a_node12"><a xlink:title=" ">
<polygon fill="white" stroke="black" points="211.5,-833.5 211.5,-890.5 270.5,-890.5 270.5,-833.5 211.5,-833.5"/>
<text text-anchor="middle" x="241" y="-878.5" font-family="Helvetica,sans-Serif" font-size="10.00">std::string</text>
<polyline fill="none" stroke="black" points="211.5,-871.5 270.5,-871.5 "/>
<text text-anchor="middle" x="241" y="-859.5" font-family="Helvetica,sans-Serif" font-size="10.00"> </text>
<polyline fill="none" stroke="black" points="211.5,-852.5 270.5,-852.5 "/>
<text text-anchor="middle" x="241" y="-840.5" font-family="Helvetica,sans-Serif" font-size="10.00"> </text>
</a>
</g>
</g>
<!-- Node12&#45;&gt;Node1 -->
<g id="edge14" class="edge">
<title>Node12&#45;&gt;Node1</title>
<path fill="none" stroke="#404040" d="M218.89,-833.31C198.79,-806.23 170.57,-762.93 159,-720 139.56,-647.91 123.08,-617.46 159,-552 178.05,-517.29 214.39,-492.65 247.74,-476.24"/>
<polygon fill="none" stroke="#404040" points="248.04,-476.1 251.77,-469.93 258.9,-470.99 255.17,-477.17 248.04,-476.1"/>
<text text-anchor="middle" x="208.5" y="-655.5" font-family="Helvetica,sans-Serif" font-size="10.00"> &#45;conjoint_catchment</text>
<text text-anchor="middle" x="208.5" y="-644.5" font-family="Helvetica,sans-Serif" font-size="10.00">&#45;containing_catchment</text>
<text text-anchor="middle" x="208.5" y="-633.5" font-family="Helvetica,sans-Serif" font-size="10.00">&#45;id</text>
<text text-anchor="middle" x="208.5" y="-622.5" font-family="Helvetica,sans-Serif" font-size="10.00">&#45;lower_catchment</text>
<text text-anchor="middle" x="208.5" y="-611.5" font-family="Helvetica,sans-Serif" font-size="10.00">&#45;upper_catchment</text>
</g>
<!-- Node14 -->
<g id="node14" class="node">
<title>Node14</title>
<g id="a_node14"><a xlink:title=" ">
<polygon fill="white" stroke="black" points="267,-607.5 267,-664.5 373,-664.5 373,-607.5 267,-607.5"/>
<text text-anchor="middle" x="320" y="-652.5" font-family="Helvetica,sans-Serif" font-size="10.00">std::vector&lt; Nexus &gt;</text>
<polyline fill="none" stroke="black" points="267,-645.5 373,-645.5 "/>
<text text-anchor="middle" x="320" y="-633.5" font-family="Helvetica,sans-Serif" font-size="10.00"> </text>
<polyline fill="none" stroke="black" points="267,-626.5 373,-626.5 "/>
<text text-anchor="middle" x="320" y="-614.5" font-family="Helvetica,sans-Serif" font-size="10.00"> </text>
</a>
</g>
</g>
<!-- Node12&#45;&gt;Node14 -->
<g id="edge17" class="edge">
<title>Node12&#45;&gt;Node14</title>
<path fill="none" stroke="#404040" d="M236.29,-833.28C233.1,-807.78 231.18,-769.28 242,-738 244.58,-730.53 268.54,-699.98 289.23,-674.42"/>
<polygon fill="none" stroke="#404040" points="289.38,-674.23 290.06,-667.05 296.95,-664.92 296.27,-672.1 289.38,-674.23"/>
<text text-anchor="middle" x="266.5" y="-746.5" font-family="Helvetica,sans-Serif" font-size="10.00"> +elements</text>
</g>
<!-- Node16 -->
<g id="node16" class="node">
<title>Node16</title>
<g id="a_node16"><a xlink:title=" ">
<polygon fill="white" stroke="black" points="391.5,-607.5 391.5,-664.5 516.5,-664.5 516.5,-607.5 391.5,-607.5"/>
<text text-anchor="middle" x="454" y="-652.5" font-family="Helvetica,sans-Serif" font-size="10.00">std::vector&lt; Catchment &gt;</text>
<polyline fill="none" stroke="black" points="391.5,-645.5 516.5,-645.5 "/>
<text text-anchor="middle" x="454" y="-633.5" font-family="Helvetica,sans-Serif" font-size="10.00"> </text>
<polyline fill="none" stroke="black" points="391.5,-626.5 516.5,-626.5 "/>
<text text-anchor="middle" x="454" y="-614.5" font-family="Helvetica,sans-Serif" font-size="10.00"> </text>
</a>
</g>
</g>
<!-- Node12&#45;&gt;Node16 -->
<g id="edge21" class="edge">
<title>Node12&#45;&gt;Node16</title>
<path fill="none" stroke="#404040" d="M254.46,-833.47C269.35,-805.69 295.83,-763.38 330,-738 349.63,-723.42 361.74,-733.7 382,-720 399.93,-707.87 416.1,-690.19 428.56,-674.26"/>
<polygon fill="none" stroke="#404040" points="428.6,-674.22 429.02,-667.02 435.82,-664.64 435.4,-671.84 428.6,-674.22"/>
<text text-anchor="middle" x="354.5" y="-746.5" font-family="Helvetica,sans-Serif" font-size="10.00"> +elements</text>
</g>
<!-- Node13 -->
<g id="node13" class="node">
<title>Node13</title>
<g id="a_node13"><a xlink:title=" ">
<polygon fill="white" stroke="black" points="194.5,-993.5 194.5,-1061.5 287.5,-1061.5 287.5,-993.5 194.5,-993.5"/>
<text text-anchor="start" x="202.5" y="-1049.5" font-family="Helvetica,sans-Serif" font-size="10.00">std::basic_string&lt;</text>
<text text-anchor="middle" x="241" y="-1038.5" font-family="Helvetica,sans-Serif" font-size="10.00"> Char &gt;</text>
<polyline fill="none" stroke="black" points="194.5,-1031.5 287.5,-1031.5 "/>
<text text-anchor="middle" x="241" y="-1019.5" font-family="Helvetica,sans-Serif" font-size="10.00"> </text>
<polyline fill="none" stroke="black" points="194.5,-1012.5 287.5,-1012.5 "/>
<text text-anchor="middle" x="241" y="-1000.5" font-family="Helvetica,sans-Serif" font-size="10.00"> </text>
</a>
</g>
</g>
<!-- Node13&#45;&gt;Node12 -->
<g id="edge15" class="edge">
<title>Node13&#45;&gt;Node12</title>
<path fill="none" stroke="midnightblue" d="M241,-983.03C241,-953.7 241,-915.88 241,-890.61"/>
<polygon fill="none" stroke="midnightblue" points="237.5,-983.41 241,-993.41 244.5,-983.41 237.5,-983.41"/>
</g>
<!-- Node14&#45;&gt;Node1 -->
<g id="edge16" class="edge">
<title>Node14&#45;&gt;Node1</title>
<path fill="none" stroke="#404040" d="M320,-607.23C320,-580.61 320,-539.65 320,-506.13"/>
<polygon fill="none" stroke="#404040" points="320,-505.7 316,-499.7 320,-493.7 324,-499.7 320,-505.7"/>
<text text-anchor="middle" x="340" y="-526" font-family="Helvetica,sans-Serif" font-size="10.00"> &#45;inflows</text>
<text text-anchor="middle" x="340" y="-515" font-family="Helvetica,sans-Serif" font-size="10.00">&#45;outflows</text>
</g>
<!-- Node15&#45;&gt;Node14 -->
<g id="edge18" class="edge">
<title>Node15&#45;&gt;Node14</title>
<path fill="none" stroke="orange" d="M432.86,-824.27C405.86,-779.46 360.83,-704.74 336.61,-664.56"/>
<polygon fill="orange" stroke="orange" points="430.02,-826.33 438.18,-833.08 436.01,-822.71 430.02,-826.33"/>
<text text-anchor="middle" x="414.5" y="-746.5" font-family="Helvetica,sans-Serif" font-size="10.00"> &lt; Nexus &gt;</text>
</g>
<!-- Node15&#45;&gt;Node16 -->
<g id="edge22" class="edge">
<title>Node15&#45;&gt;Node16</title>
<path fill="none" stroke="orange" d="M454.83,-822.86C454.63,-777.91 454.3,-704.32 454.12,-664.56"/>
<polygon fill="orange" stroke="orange" points="451.33,-823.1 454.88,-833.08 458.33,-823.07 451.33,-823.1"/>
<text text-anchor="middle" x="487.5" y="-746.5" font-family="Helvetica,sans-Serif" font-size="10.00"> &lt; Catchment &gt;</text>
</g>
<!-- Node16&#45;&gt;Node1 -->
<g id="edge20" class="edge">
<title>Node16&#45;&gt;Node1</title>
<path fill="none" stroke="#404040" d="M433.94,-607.23C414.2,-579.91 383.55,-537.47 359,-503.49"/>
<polygon fill="none" stroke="#404040" points="358.96,-503.43 352.2,-500.91 351.93,-493.7 358.69,-496.22 358.96,-503.43"/>
<text text-anchor="middle" x="430" y="-520.5" font-family="Helvetica,sans-Serif" font-size="10.00"> &#45;contained_catchments</text>
</g>
</g>
</svg>
        <g id="navigator" transform="translate(0 0)" fill="#404254">
                <rect fill="#f2f5e9" fill-opacity="0.5" stroke="#606060" stroke-width=".5" x="0" y="0" width="60" height="60"/>
                <use id="zoomplus" xlink:href="#zoomPlus" x="17" y="9" onmousedown="handleZoom(evt,'in')"/>
                <use id="zoomminus" xlink:href="#zoomMin" x="42" y="9" onmousedown="handleZoom(evt,'out')"/>
                <use id="reset" xlink:href="#resetDef" x="30" y="36" onmousedown="handleReset()"/>
                <g id="arrowUp" xlink:href="#dirArrow" transform="translate(30 24)" onmousedown="handlePan(0,-1)">
                  <use xlink:href="#rim" fill="#404040">
                        <set attributeName="fill" to="#808080" begin="arrowUp.mouseover" end="arrowUp.mouseout"/>
                  </use>
                  <path fill="none" stroke="white" stroke-width="1.5" d="M0,-3.0v7 M-2.5,-0.5L0,-3.0L2.5,-0.5"/>
                </g>
                <g id="arrowRight" xlink:href="#dirArrow" transform="rotate(90) translate(36 -43)" onmousedown="handlePan(1,0)">
                  <use xlink:href="#rim" fill="#404040">
                        <set attributeName="fill" to="#808080" begin="arrowRight.mouseover" end="arrowRight.mouseout"/>
                  </use>
                  <path fill="none" stroke="white" stroke-width="1.5" d="M0,-3.0v7 M-2.5,-0.5L0,-3.0L2.5,-0.5"/>
                </g>
                <g id="arrowDown" xlink:href="#dirArrow" transform="rotate(180) translate(-30 -48)" onmousedown="handlePan(0,1)">
                  <use xlink:href="#rim" fill="#404040">
                        <set attributeName="fill" to="#808080" begin="arrowDown.mouseover" end="arrowDown.mouseout"/>
                  </use>
                  <path fill="none" stroke="white" stroke-width="1.5" d="M0,-3.0v7 M-2.5,-0.5L0,-3.0L2.5,-0.5"/>
                </g>
                <g id="arrowLeft" xlink:href="#dirArrow" transform="rotate(270) translate(-36 17)" onmousedown="handlePan(-1,0)">
                  <use xlink:href="#rim" fill="#404040">
                        <set attributeName="fill" to="#808080" begin="arrowLeft.mouseover" end="arrowLeft.mouseout"/>
                  </use>
                  <path fill="none" stroke="white" stroke-width="1.5" d="M0,-3.0v7 M-2.5,-0.5L0,-3.0L2.5,-0.5"/>
                </g>
        </g>
        <svg viewBox="0 0 15 15" width="100%" height="30px" preserveAspectRatio="xMaxYMin meet">
         <g id="arrow_out" transform="scale(0.3 0.3)">
          <a xlink:href="class_h_y___catchment__coll__graph_org.svg" target="_base">
           <rect id="button" ry="5" rx="5" y="6" x="6" height="38" width="38"
                fill="#f2f5e9" fill-opacity="0.5" stroke="#606060" stroke-width="1.0"/>
           <path id="arrow"
             d="M 11.500037,31.436501 C 11.940474,20.09759 22.043105,11.32322 32.158766,21.979434 L 37.068811,17.246167 C 37.068811,17.246167 37.088388,32 37.088388,32 L 22.160133,31.978069 C 22.160133,31.978069 26.997745,27.140456 26.997745,27.140456 C 18.528582,18.264221 13.291696,25.230495 11.500037,31.436501 z"
             style="fill:#404040;"/>
          </a>
         </g>
        </svg>
</svg>
