<?xml version="1.0" encoding="UTF-8" standalone="no"?>
<!DOCTYPE svg PUBLIC "-//W3C//DTD SVG 1.1//EN"
 "http://www.w3.org/Graphics/SVG/1.1/DTD/svg11.dtd">
<!-- Generated by graphviz version 12.2.0 (20241103.1931)
 -->
<!-- Title: geojson::SentinelFeature Pages: 1 -->
<svg width="136pt" height="601pt"
 viewBox="0.00 0.00 135.50 601.00" xmlns="http://www.w3.org/2000/svg" xmlns:xlink="http://www.w3.org/1999/xlink">
<g id="graph0" class="graph" transform="scale(1 1) rotate(0) translate(4 597)">
<title>geojson::SentinelFeature</title>
<!-- Node1 -->
<g id="Node000001" class="node">
<title>Node1</title>
<g id="a_Node000001"><a xlink:title=" ">
<polygon fill="#999999" stroke="none" points="121,-65 6.5,-65 6.5,0 121,0 121,-65"/>
<text text-anchor="start" x="10.5" y="-51.5" font-family="Helvetica,sans-Serif" font-size="10.00">geojson::SentinelFeature</text>
<text text-anchor="start" x="62.25" y="-36.25" font-family="Helvetica,sans-Serif" font-size="10.00"> </text>
<text text-anchor="start" x="16.06" y="-21" font-family="Helvetica,sans-Serif" font-size="10.00">+</text>
<text text-anchor="start" x="31.62" y="-21" font-family="Helvetica,sans-Serif" font-size="10.00">SentinelFeature()</text>
<text text-anchor="start" x="16.06" y="-5.75" font-family="Helvetica,sans-Serif" font-size="10.00">+</text>
<text text-anchor="start" x="31.62" y="-5.75" font-family="Helvetica,sans-Serif" font-size="10.00">visit()</text>
<polygon fill="#666666" stroke="#666666" points="6.5,-47.75 6.5,-47.75 121,-47.75 121,-47.75 6.5,-47.75"/>
<polygon fill="#666666" stroke="#666666" points="6.5,-32.5 6.5,-32.5 121,-32.5 121,-32.5 6.5,-32.5"/>
<polygon fill="none" stroke="#666666" points="6.5,0 6.5,-65 121,-65 121,0 6.5,0"/>
</a>
</g>
</g>
<!-- Node2 -->
<g id="Node000002" class="node">
<title>Node2</title>
<g id="a_Node000002"><a xlink:href="classgeojson_1_1_feature_base.html" target="_top" xlink:title="Represents an individual feature within a Geojson definition.">
<polygon fill="white" stroke="none" points="127.5,-593 0,-593 0,-101 127.5,-101 127.5,-593"/>
<text text-anchor="start" x="16.88" y="-579.5" font-family="Helvetica,sans-Serif" font-size="10.00">geojson::FeatureBase</text>
<text text-anchor="start" x="4.38" y="-564.25" font-family="Helvetica,sans-Serif" font-size="10.00">#</text>
<text text-anchor="start" x="14" y="-564.25" font-family="Helvetica,sans-Serif" font-size="10.00">type</text>
<text text-anchor="start" x="4.38" y="-549" font-family="Helvetica,sans-Serif" font-size="10.00">#</text>
<text text-anchor="start" x="14" y="-549" font-family="Helvetica,sans-Serif" font-size="10.00">geom</text>
<text text-anchor="start" x="4.38" y="-533.75" font-family="Helvetica,sans-Serif" font-size="10.00">#</text>
<text text-anchor="start" x="14" y="-533.75" font-family="Helvetica,sans-Serif" font-size="10.00">geometry_collection</text>
<text text-anchor="start" x="4.38" y="-518.5" font-family="Helvetica,sans-Serif" font-size="10.00">#</text>
<text text-anchor="start" x="14" y="-518.5" font-family="Helvetica,sans-Serif" font-size="10.00">properties</text>
<text text-anchor="start" x="4.38" y="-503.25" font-family="Helvetica,sans-Serif" font-size="10.00">#</text>
<text text-anchor="start" x="14" y="-503.25" font-family="Helvetica,sans-Serif" font-size="10.00">bounding_box</text>
<text text-anchor="start" x="4.38" y="-488" font-family="Helvetica,sans-Serif" font-size="10.00">#</text>
<text text-anchor="start" x="14" y="-488" font-family="Helvetica,sans-Serif" font-size="10.00">foreign_members</text>
<text text-anchor="start" x="4.38" y="-472.75" font-family="Helvetica,sans-Serif" font-size="10.00">#</text>
<text text-anchor="start" x="14" y="-472.75" font-family="Helvetica,sans-Serif" font-size="10.00">id</text>
<text text-anchor="start" x="4.38" y="-457.5" font-family="Helvetica,sans-Serif" font-size="10.00">#</text>
<text text-anchor="start" x="14" y="-457.5" font-family="Helvetica,sans-Serif" font-size="10.00">origination</text>
<text text-anchor="start" x="4.38" y="-442.25" font-family="Helvetica,sans-Serif" font-size="10.00">#</text>
<text text-anchor="start" x="14" y="-442.25" font-family="Helvetica,sans-Serif" font-size="10.00">destination</text>
<text text-anchor="start" x="4.38" y="-427" font-family="Helvetica,sans-Serif" font-size="10.00">#</text>
<text text-anchor="start" x="14" y="-427" font-family="Helvetica,sans-Serif" font-size="10.00">neighbors</text>
<text text-anchor="start" x="4" y="-411.75" font-family="Helvetica,sans-Serif" font-size="10.00">+</text>
<text text-anchor="start" x="14" y="-411.75" font-family="Helvetica,sans-Serif" font-size="10.00">FeatureBase()</text>
<text text-anchor="start" x="4" y="-396.5" font-family="Helvetica,sans-Serif" font-size="10.00">+</text>
<text text-anchor="start" x="14" y="-396.5" font-family="Helvetica,sans-Serif" font-size="10.00">~FeatureBase()</text>
<text text-anchor="start" x="4" y="-381.25" font-family="Helvetica,sans-Serif" font-size="10.00">+</text>
<text text-anchor="start" x="14" y="-381.25" font-family="Helvetica,sans-Serif" font-size="10.00">get_type()</text>
<text text-anchor="start" x="4" y="-366" font-family="Helvetica,sans-Serif" font-size="10.00">+</text>
<text text-anchor="start" x="14" y="-366" font-family="Helvetica,sans-Serif" font-size="10.00">add_origination_feature()</text>
<text text-anchor="start" x="4" y="-350.75" font-family="Helvetica,sans-Serif" font-size="10.00">+</text>
<text text-anchor="start" x="14" y="-350.75" font-family="Helvetica,sans-Serif" font-size="10.00">add_destination_feature()</text>
<text text-anchor="start" x="4" y="-335.5" font-family="Helvetica,sans-Serif" font-size="10.00">+</text>
<text text-anchor="start" x="14" y="-335.5" font-family="Helvetica,sans-Serif" font-size="10.00">assign_neighbors()</text>
<text text-anchor="start" x="4" y="-320.25" font-family="Helvetica,sans-Serif" font-size="10.00">+</text>
<text text-anchor="start" x="14" y="-320.25" font-family="Helvetica,sans-Serif" font-size="10.00">add_neighbor_feature()</text>
<text text-anchor="start" x="4" y="-305" font-family="Helvetica,sans-Serif" font-size="10.00">+</text>
<text text-anchor="start" x="14" y="-305" font-family="Helvetica,sans-Serif" font-size="10.00">get_property()</text>
<text text-anchor="start" x="4" y="-289.75" font-family="Helvetica,sans-Serif" font-size="10.00">+</text>
<text text-anchor="start" x="14" y="-289.75" font-family="Helvetica,sans-Serif" font-size="10.00">set_id()</text>
<text text-anchor="start" x="4" y="-274.5" font-family="Helvetica,sans-Serif" font-size="10.00">+</text>
<text text-anchor="start" x="14" y="-274.5" font-family="Helvetica,sans-Serif" font-size="10.00">get()</text>
<text text-anchor="start" x="4" y="-259.25" font-family="Helvetica,sans-Serif" font-size="10.00">+</text>
<text text-anchor="start" x="14" y="-259.25" font-family="Helvetica,sans-Serif" font-size="10.00">set()</text>
<text text-anchor="start" x="4" y="-244" font-family="Helvetica,sans-Serif" font-size="10.00">+</text>
<text text-anchor="start" x="14" y="-244" font-family="Helvetica,sans-Serif" font-size="10.00">set()</text>
<text text-anchor="start" x="4" y="-228.75" font-family="Helvetica,sans-Serif" font-size="10.00">+</text>
<text text-anchor="start" x="14" y="-228.75" font-family="Helvetica,sans-Serif" font-size="10.00">set()</text>
<text text-anchor="start" x="4" y="-213.5" font-family="Helvetica,sans-Serif" font-size="10.00">+</text>
<text text-anchor="start" x="14" y="-213.5" font-family="Helvetica,sans-Serif" font-size="10.00">set()</text>
<text text-anchor="start" x="4" y="-198.25" font-family="Helvetica,sans-Serif" font-size="10.00">+</text>
<text text-anchor="start" x="14" y="-198.25" font-family="Helvetica,sans-Serif" font-size="10.00">set()</text>
<text text-anchor="start" x="14" y="-183" font-family="Helvetica,sans-Serif" font-size="10.00">and 31 more...</text>
<text text-anchor="start" x="4.38" y="-167.75" font-family="Helvetica,sans-Serif" font-size="10.00">#</text>
<text text-anchor="start" x="14" y="-167.75" font-family="Helvetica,sans-Serif" font-size="10.00">FeatureBase()</text>
<text text-anchor="start" x="4.38" y="-152.5" font-family="Helvetica,sans-Serif" font-size="10.00">#</text>
<text text-anchor="start" x="14" y="-152.5" font-family="Helvetica,sans-Serif" font-size="10.00">break_links()</text>
<text text-anchor="start" x="4.38" y="-137.25" font-family="Helvetica,sans-Serif" font-size="10.00">#</text>
<text text-anchor="start" x="14" y="-137.25" font-family="Helvetica,sans-Serif" font-size="10.00">remove_destination()</text>
<text text-anchor="start" x="4.38" y="-122" font-family="Helvetica,sans-Serif" font-size="10.00">#</text>
<text text-anchor="start" x="14" y="-122" font-family="Helvetica,sans-Serif" font-size="10.00">remove_origination()</text>
<text text-anchor="start" x="4.38" y="-106.75" font-family="Helvetica,sans-Serif" font-size="10.00">#</text>
<text text-anchor="start" x="14" y="-106.75" font-family="Helvetica,sans-Serif" font-size="10.00">remove_neighbor()</text>
<polygon fill="#666666" stroke="#666666" points="0,-575.75 0,-575.75 127.5,-575.75 127.5,-575.75 0,-575.75"/>
<polygon fill="#666666" stroke="#666666" points="0,-423.25 0,-423.25 12,-423.25 12,-423.25 0,-423.25"/>
<polygon fill="#666666" stroke="#666666" points="12,-423.25 12,-423.25 127.5,-423.25 127.5,-423.25 12,-423.25"/>
<polygon fill="none" stroke="#666666" points="0,-101 0,-593 127.5,-593 127.5,-101 0,-101"/>
</a>
</g>
</g>
<!-- Node2&#45;&gt;Node1 -->
<g id="edge1_Node000001_Node000002" class="edge">
<title>Node2&#45;&gt;Node1</title>
<g id="a_edge1_Node000001_Node000002"><a xlink:title=" ">
<path fill="none" stroke="#63b8ff" d="M63.75,-90.05C63.75,-80.76 63.75,-72.28 63.75,-64.87"/>
<polygon fill="none" stroke="#63b8ff" points="60.25,-89.79 63.75,-99.79 67.25,-89.79 60.25,-89.79"/>
</a>
</g>
</g>
</g>
</svg>
