<?xml version="1.0" encoding="UTF-8" standalone="no"?>
<!DOCTYPE svg PUBLIC "-//W3C//DTD SVG 1.1//EN"
 "http://www.w3.org/Graphics/SVG/1.1/DTD/svg11.dtd">
<!-- Generated by graphviz version 2.44.0 ()
 -->
<!-- Title: Simple_Lumped_Model_Realization Pages: 1 -->
<svg width="487pt" height="975pt"
 viewBox="0.00 0.00 486.50 975.00" xmlns="http://www.w3.org/2000/svg" xmlns:xlink="http://www.w3.org/1999/xlink">
<g id="graph0" class="graph" transform="scale(1 1) rotate(0) translate(4 971)">
<title>Simple_Lumped_Model_Realization</title>
<polygon fill="white" stroke="transparent" points="-4,4 -4,-971 482.5,-971 482.5,4 -4,4"/>
<!-- Node1 -->
<g id="node1" class="node">
<title>Node1</title>
<g id="a_node1"><a xlink:title=" ">
<polygon fill="#bfbfbf" stroke="black" points="148.5,-0.5 148.5,-332.5 294.5,-332.5 294.5,-0.5 148.5,-0.5"/>
<text text-anchor="start" x="156.5" y="-320.5" font-family="Helvetica,sans-Serif" font-size="10.00">Simple_Lumped_Model</text>
<text text-anchor="middle" x="221.5" y="-309.5" font-family="Helvetica,sans-Serif" font-size="10.00">_Realization</text>
<polyline fill="none" stroke="black" points="148.5,-302.5 294.5,-302.5 "/>
<text text-anchor="start" x="156.5" y="-290.5" font-family="Helvetica,sans-Serif" font-size="10.00"># REQUIRED_PARAMETERS</text>
<text text-anchor="start" x="156.5" y="-279.5" font-family="Helvetica,sans-Serif" font-size="10.00">&#45; state</text>
<text text-anchor="start" x="156.5" y="-268.5" font-family="Helvetica,sans-Serif" font-size="10.00">&#45; fluxes</text>
<text text-anchor="start" x="156.5" y="-257.5" font-family="Helvetica,sans-Serif" font-size="10.00">&#45; cascade_backing_storage</text>
<text text-anchor="start" x="156.5" y="-246.5" font-family="Helvetica,sans-Serif" font-size="10.00">&#45; params</text>
<polyline fill="none" stroke="black" points="148.5,-239.5 294.5,-239.5 "/>
<text text-anchor="start" x="156.5" y="-227.5" font-family="Helvetica,sans-Serif" font-size="10.00">+ Simple_Lumped_Model</text>
<text text-anchor="start" x="156.5" y="-216.5" font-family="Helvetica,sans-Serif" font-size="10.00">_Realization()</text>
<text text-anchor="start" x="156.5" y="-205.5" font-family="Helvetica,sans-Serif" font-size="10.00">+ Simple_Lumped_Model</text>
<text text-anchor="start" x="156.5" y="-194.5" font-family="Helvetica,sans-Serif" font-size="10.00">_Realization()</text>
<text text-anchor="start" x="156.5" y="-183.5" font-family="Helvetica,sans-Serif" font-size="10.00">+ Simple_Lumped_Model</text>
<text text-anchor="start" x="156.5" y="-172.5" font-family="Helvetica,sans-Serif" font-size="10.00">_Realization()</text>
<text text-anchor="start" x="156.5" y="-161.5" font-family="Helvetica,sans-Serif" font-size="10.00">+ Simple_Lumped_Model</text>
<text text-anchor="start" x="156.5" y="-150.5" font-family="Helvetica,sans-Serif" font-size="10.00">_Realization()</text>
<text text-anchor="start" x="156.5" y="-139.5" font-family="Helvetica,sans-Serif" font-size="10.00">+ Simple_Lumped_Model</text>
<text text-anchor="start" x="156.5" y="-128.5" font-family="Helvetica,sans-Serif" font-size="10.00">_Realization()</text>
<text text-anchor="start" x="156.5" y="-117.5" font-family="Helvetica,sans-Serif" font-size="10.00">+ ~Simple_Lumped_Model</text>
<text text-anchor="start" x="156.5" y="-106.5" font-family="Helvetica,sans-Serif" font-size="10.00">_Realization()</text>
<text text-anchor="start" x="156.5" y="-95.5" font-family="Helvetica,sans-Serif" font-size="10.00">+ get_output_line_for</text>
<text text-anchor="start" x="156.5" y="-84.5" font-family="Helvetica,sans-Serif" font-size="10.00">_timestep()</text>
<text text-anchor="start" x="156.5" y="-73.5" font-family="Helvetica,sans-Serif" font-size="10.00">+ get_response()</text>
<text text-anchor="start" x="156.5" y="-62.5" font-family="Helvetica,sans-Serif" font-size="10.00">+ calc_et()</text>
<text text-anchor="start" x="156.5" y="-51.5" font-family="Helvetica,sans-Serif" font-size="10.00">+ create_formulation()</text>
<text text-anchor="start" x="156.5" y="-40.5" font-family="Helvetica,sans-Serif" font-size="10.00">+ create_formulation()</text>
<text text-anchor="start" x="156.5" y="-29.5" font-family="Helvetica,sans-Serif" font-size="10.00">+ get_formulation_type()</text>
<text text-anchor="start" x="156.5" y="-18.5" font-family="Helvetica,sans-Serif" font-size="10.00">+ add_time()</text>
<text text-anchor="start" x="156.5" y="-7.5" font-family="Helvetica,sans-Serif" font-size="10.00"># get_required_parameters()</text>
</a>
</g>
</g>
<!-- Node2 -->
<g id="node2" class="node">
<title>Node2</title>
<g id="a_node2"><a xlink:href="classrealization_1_1_catchment___formulation.html" target="_top" xlink:title=" ">
<polygon fill="white" stroke="black" points="151.5,-369.5 151.5,-547.5 291.5,-547.5 291.5,-369.5 151.5,-369.5"/>
<text text-anchor="start" x="159.5" y="-535.5" font-family="Helvetica,sans-Serif" font-size="10.00">realization::Catchment</text>
<text text-anchor="middle" x="221.5" y="-524.5" font-family="Helvetica,sans-Serif" font-size="10.00">_Formulation</text>
<polyline fill="none" stroke="black" points="151.5,-517.5 291.5,-517.5 "/>
<text text-anchor="middle" x="221.5" y="-505.5" font-family="Helvetica,sans-Serif" font-size="10.00"> </text>
<polyline fill="none" stroke="black" points="151.5,-498.5 291.5,-498.5 "/>
<text text-anchor="start" x="159.5" y="-486.5" font-family="Helvetica,sans-Serif" font-size="10.00">+ Catchment_Formulation()</text>
<text text-anchor="start" x="159.5" y="-475.5" font-family="Helvetica,sans-Serif" font-size="10.00">+ Catchment_Formulation()</text>
<text text-anchor="start" x="159.5" y="-464.5" font-family="Helvetica,sans-Serif" font-size="10.00">+ Catchment_Formulation()</text>
<text text-anchor="start" x="159.5" y="-453.5" font-family="Helvetica,sans-Serif" font-size="10.00">+ get_output_header_line()</text>
<text text-anchor="start" x="159.5" y="-442.5" font-family="Helvetica,sans-Serif" font-size="10.00">+ get_response()</text>
<text text-anchor="start" x="159.5" y="-431.5" font-family="Helvetica,sans-Serif" font-size="10.00">+ get_required_parameters()</text>
<text text-anchor="start" x="159.5" y="-420.5" font-family="Helvetica,sans-Serif" font-size="10.00">+ create_formulation()</text>
<text text-anchor="start" x="159.5" y="-409.5" font-family="Helvetica,sans-Serif" font-size="10.00">+ create_formulation()</text>
<text text-anchor="start" x="159.5" y="-398.5" font-family="Helvetica,sans-Serif" font-size="10.00">+ ~Catchment_Formulation()</text>
<text text-anchor="start" x="159.5" y="-387.5" font-family="Helvetica,sans-Serif" font-size="10.00"># get_catchment_id()</text>
<text text-anchor="start" x="159.5" y="-376.5" font-family="Helvetica,sans-Serif" font-size="10.00"># set_catchment_id()</text>
</a>
</g>
</g>
<!-- Node2&#45;&gt;Node1 -->
<g id="edge1" class="edge">
<title>Node2&#45;&gt;Node1</title>
<path fill="none" stroke="midnightblue" d="M221.5,-359.27C221.5,-350.6 221.5,-341.69 221.5,-332.68"/>
<polygon fill="none" stroke="midnightblue" points="218,-359.31 221.5,-369.31 225,-359.31 218,-359.31"/>
</g>
<!-- Node3 -->
<g id="node3" class="node">
<title>Node3</title>
<g id="a_node3"><a xlink:href="classrealization_1_1_formulation.html" target="_top" xlink:title=" ">
<polygon fill="white" stroke="black" points="0,-584.5 0,-784.5 137,-784.5 137,-584.5 0,-584.5"/>
<text text-anchor="middle" x="68.5" y="-772.5" font-family="Helvetica,sans-Serif" font-size="10.00">realization::Formulation</text>
<polyline fill="none" stroke="black" points="0,-765.5 137,-765.5 "/>
<text text-anchor="start" x="8" y="-753.5" font-family="Helvetica,sans-Serif" font-size="10.00"># id</text>
<polyline fill="none" stroke="black" points="0,-746.5 137,-746.5 "/>
<text text-anchor="start" x="8" y="-734.5" font-family="Helvetica,sans-Serif" font-size="10.00">+ Formulation()</text>
<text text-anchor="start" x="8" y="-723.5" font-family="Helvetica,sans-Serif" font-size="10.00">+ ~Formulation()</text>
<text text-anchor="start" x="8" y="-712.5" font-family="Helvetica,sans-Serif" font-size="10.00">+ get_formulation_type()</text>
<text text-anchor="start" x="8" y="-701.5" font-family="Helvetica,sans-Serif" font-size="10.00">+ get_response()</text>
<text text-anchor="start" x="8" y="-690.5" font-family="Helvetica,sans-Serif" font-size="10.00">+ add_time()</text>
<text text-anchor="start" x="8" y="-679.5" font-family="Helvetica,sans-Serif" font-size="10.00">+ get_id()</text>
<text text-anchor="start" x="8" y="-668.5" font-family="Helvetica,sans-Serif" font-size="10.00">+ get_output_header_line()</text>
<text text-anchor="start" x="8" y="-657.5" font-family="Helvetica,sans-Serif" font-size="10.00">+ get_output_line_for</text>
<text text-anchor="start" x="8" y="-646.5" font-family="Helvetica,sans-Serif" font-size="10.00">_timestep()</text>
<text text-anchor="start" x="8" y="-635.5" font-family="Helvetica,sans-Serif" font-size="10.00">+ create_formulation()</text>
<text text-anchor="start" x="8" y="-624.5" font-family="Helvetica,sans-Serif" font-size="10.00">+ create_formulation()</text>
<text text-anchor="start" x="8" y="-613.5" font-family="Helvetica,sans-Serif" font-size="10.00"># get_required_parameters()</text>
<text text-anchor="start" x="8" y="-602.5" font-family="Helvetica,sans-Serif" font-size="10.00"># interpret_parameters()</text>
<text text-anchor="start" x="8" y="-591.5" font-family="Helvetica,sans-Serif" font-size="10.00"># validate_parameters()</text>
</a>
</g>
</g>
<!-- Node3&#45;&gt;Node2 -->
<g id="edge2" class="edge">
<title>Node3&#45;&gt;Node2</title>
<path fill="none" stroke="midnightblue" d="M141.94,-575.98C148.41,-566.51 154.9,-557.01 161.23,-547.73"/>
<polygon fill="none" stroke="midnightblue" points="139.03,-574.04 136.28,-584.27 144.81,-577.99 139.03,-574.04"/>
</g>
<!-- Node4 -->
<g id="node4" class="node">
<title>Node4</title>
<g id="a_node4"><a xlink:href="classrealization_1_1_et___aware.html" target="_top" xlink:title="Interface for type that is aware of parameters for evapotranspiration in certain calculations,...">
<polygon fill="white" stroke="black" points="56.5,-849 56.5,-939 164.5,-939 164.5,-849 56.5,-849"/>
<text text-anchor="middle" x="110.5" y="-927" font-family="Helvetica,sans-Serif" font-size="10.00">realization::Et_Aware</text>
<polyline fill="none" stroke="black" points="56.5,-920 164.5,-920 "/>
<text text-anchor="middle" x="110.5" y="-908" font-family="Helvetica,sans-Serif" font-size="10.00"> </text>
<polyline fill="none" stroke="black" points="56.5,-901 164.5,-901 "/>
<text text-anchor="start" x="64.5" y="-889" font-family="Helvetica,sans-Serif" font-size="10.00">+ Et_Aware()</text>
<text text-anchor="start" x="64.5" y="-878" font-family="Helvetica,sans-Serif" font-size="10.00">+ ~Et_Aware()</text>
<text text-anchor="start" x="64.5" y="-867" font-family="Helvetica,sans-Serif" font-size="10.00">+ is_et_params_set()</text>
<text text-anchor="start" x="64.5" y="-856" font-family="Helvetica,sans-Serif" font-size="10.00">+ set_et_params()</text>
</a>
</g>
</g>
<!-- Node4&#45;&gt;Node3 -->
<g id="edge3" class="edge">
<title>Node4&#45;&gt;Node3</title>
<path fill="none" stroke="midnightblue" d="M99.55,-838.91C96.17,-822.2 92.33,-803.25 88.54,-784.51"/>
<polygon fill="none" stroke="midnightblue" points="96.18,-839.89 101.59,-848.99 103.04,-838.5 96.18,-839.89"/>
</g>
<!-- Node8 -->
<g id="node8" class="node">
<title>Node8</title>
<g id="a_node8"><a xlink:href="classrealization_1_1_et___accountable.html" target="_top" xlink:title="Interface for type that is able to account for evapotranspiration in certain calculations,...">
<polygon fill="white" stroke="black" points="155,-623 155,-746 288,-746 288,-623 155,-623"/>
<text text-anchor="middle" x="221.5" y="-734" font-family="Helvetica,sans-Serif" font-size="10.00">realization::Et_Accountable</text>
<polyline fill="none" stroke="black" points="155,-727 288,-727 "/>
<text text-anchor="start" x="163" y="-715" font-family="Helvetica,sans-Serif" font-size="10.00">&#45; et_params</text>
<polyline fill="none" stroke="black" points="155,-708 288,-708 "/>
<text text-anchor="start" x="163" y="-696" font-family="Helvetica,sans-Serif" font-size="10.00">+ Et_Accountable()</text>
<text text-anchor="start" x="163" y="-685" font-family="Helvetica,sans-Serif" font-size="10.00">+ ~Et_Accountable()</text>
<text text-anchor="start" x="163" y="-674" font-family="Helvetica,sans-Serif" font-size="10.00">+ calc_et()</text>
<text text-anchor="start" x="163" y="-663" font-family="Helvetica,sans-Serif" font-size="10.00">+ get_et_params()</text>
<text text-anchor="start" x="163" y="-652" font-family="Helvetica,sans-Serif" font-size="10.00">+ is_et_params_set()</text>
<text text-anchor="start" x="163" y="-641" font-family="Helvetica,sans-Serif" font-size="10.00">+ set_et_params()</text>
<text text-anchor="start" x="163" y="-630" font-family="Helvetica,sans-Serif" font-size="10.00"># get_et_params_ptr()</text>
</a>
</g>
</g>
<!-- Node4&#45;&gt;Node8 -->
<g id="edge8" class="edge">
<title>Node4&#45;&gt;Node8</title>
<path fill="none" stroke="midnightblue" d="M138.86,-839.98C154.14,-811.41 173.06,-776.05 188.94,-746.36"/>
<polygon fill="none" stroke="midnightblue" points="135.67,-838.53 134.04,-848.99 141.84,-841.83 135.67,-838.53"/>
</g>
<!-- Node5 -->
<g id="node5" class="node">
<title>Node5</title>
<g id="a_node5"><a xlink:href="class_h_y___catchment_area.html" target="_top" xlink:title=" ">
<polygon fill="white" stroke="black" points="306,-623 306,-746 429,-746 429,-623 306,-623"/>
<text text-anchor="middle" x="367.5" y="-734" font-family="Helvetica,sans-Serif" font-size="10.00">HY_CatchmentArea</text>
<polyline fill="none" stroke="black" points="306,-727 429,-727 "/>
<text text-anchor="start" x="314" y="-715" font-family="Helvetica,sans-Serif" font-size="10.00"># bounds</text>
<text text-anchor="start" x="314" y="-704" font-family="Helvetica,sans-Serif" font-size="10.00"># output</text>
<polyline fill="none" stroke="black" points="306,-697 429,-697 "/>
<text text-anchor="start" x="314" y="-685" font-family="Helvetica,sans-Serif" font-size="10.00">+ HY_CatchmentArea()</text>
<text text-anchor="start" x="314" y="-674" font-family="Helvetica,sans-Serif" font-size="10.00">+ HY_CatchmentArea()</text>
<text text-anchor="start" x="314" y="-663" font-family="Helvetica,sans-Serif" font-size="10.00">+ HY_CatchmentArea()</text>
<text text-anchor="start" x="314" y="-652" font-family="Helvetica,sans-Serif" font-size="10.00">+ set_output_stream()</text>
<text text-anchor="start" x="314" y="-641" font-family="Helvetica,sans-Serif" font-size="10.00">+ write_output()</text>
<text text-anchor="start" x="314" y="-630" font-family="Helvetica,sans-Serif" font-size="10.00">+ ~HY_CatchmentArea()</text>
</a>
</g>
</g>
<!-- Node5&#45;&gt;Node2 -->
<g id="edge4" class="edge">
<title>Node5&#45;&gt;Node2</title>
<path fill="none" stroke="midnightblue" d="M322.4,-614.3C308.64,-593.19 293.32,-569.69 278.86,-547.5"/>
<polygon fill="none" stroke="midnightblue" points="319.6,-616.42 327.99,-622.88 325.46,-612.59 319.6,-616.42"/>
</g>
<!-- Node6 -->
<g id="node6" class="node">
<title>Node6</title>
<g id="a_node6"><a xlink:href="class_h_y___catchment_realization.html" target="_top" xlink:title=" ">
<polygon fill="white" stroke="black" points="224.5,-821.5 224.5,-966.5 374.5,-966.5 374.5,-821.5 224.5,-821.5"/>
<text text-anchor="middle" x="299.5" y="-954.5" font-family="Helvetica,sans-Serif" font-size="10.00">HY_CatchmentRealization</text>
<polyline fill="none" stroke="black" points="224.5,-947.5 374.5,-947.5 "/>
<text text-anchor="start" x="232.5" y="-935.5" font-family="Helvetica,sans-Serif" font-size="10.00"># realized_catchment</text>
<text text-anchor="start" x="232.5" y="-924.5" font-family="Helvetica,sans-Serif" font-size="10.00"># id_number</text>
<text text-anchor="start" x="232.5" y="-913.5" font-family="Helvetica,sans-Serif" font-size="10.00"># forcing</text>
<polyline fill="none" stroke="black" points="224.5,-906.5 374.5,-906.5 "/>
<text text-anchor="start" x="232.5" y="-894.5" font-family="Helvetica,sans-Serif" font-size="10.00">+ HY_CatchmentRealization()</text>
<text text-anchor="start" x="232.5" y="-883.5" font-family="Helvetica,sans-Serif" font-size="10.00">+ HY_CatchmentRealization()</text>
<text text-anchor="start" x="232.5" y="-872.5" font-family="Helvetica,sans-Serif" font-size="10.00">+ HY_CatchmentRealization()</text>
<text text-anchor="start" x="232.5" y="-861.5" font-family="Helvetica,sans-Serif" font-size="10.00">+ ~HY_CatchmentRealization()</text>
<text text-anchor="start" x="232.5" y="-850.5" font-family="Helvetica,sans-Serif" font-size="10.00">+ get_response()</text>
<text text-anchor="start" x="232.5" y="-839.5" font-family="Helvetica,sans-Serif" font-size="10.00"># get_catchment_id()</text>
<text text-anchor="start" x="232.5" y="-828.5" font-family="Helvetica,sans-Serif" font-size="10.00"># set_catchment_id()</text>
</a>
</g>
</g>
<!-- Node6&#45;&gt;Node5 -->
<g id="edge5" class="edge">
<title>Node6&#45;&gt;Node5</title>
<path fill="none" stroke="midnightblue" d="M326.14,-811.71C333.29,-789.88 340.9,-766.66 347.62,-746.17"/>
<polygon fill="none" stroke="midnightblue" points="322.79,-810.71 323,-821.3 329.44,-812.89 322.79,-810.71"/>
</g>
<!-- Node7 -->
<g id="node7" class="node">
<title>Node7</title>
<g id="a_node7"><a xlink:href="class_g_m___object.html" target="_top" xlink:title=" ">
<polygon fill="white" stroke="black" points="392.5,-860 392.5,-928 478.5,-928 478.5,-860 392.5,-860"/>
<text text-anchor="middle" x="435.5" y="-916" font-family="Helvetica,sans-Serif" font-size="10.00">GM_Object</text>
<polyline fill="none" stroke="black" points="392.5,-909 478.5,-909 "/>
<text text-anchor="middle" x="435.5" y="-897" font-family="Helvetica,sans-Serif" font-size="10.00"> </text>
<polyline fill="none" stroke="black" points="392.5,-890 478.5,-890 "/>
<text text-anchor="start" x="400.5" y="-878" font-family="Helvetica,sans-Serif" font-size="10.00">+ GM_Object()</text>
<text text-anchor="start" x="400.5" y="-867" font-family="Helvetica,sans-Serif" font-size="10.00">+ ~GM_Object()</text>
</a>
</g>
</g>
<!-- Node7&#45;&gt;Node5 -->
<g id="edge6" class="edge">
<title>Node7&#45;&gt;Node5</title>
<path fill="none" stroke="midnightblue" d="M421.38,-849.93C411.57,-819.97 398.34,-779.61 387.45,-746.38"/>
<polygon fill="none" stroke="midnightblue" points="418.13,-851.25 424.57,-859.66 424.79,-849.07 418.13,-851.25"/>
</g>
<!-- Node8&#45;&gt;Node2 -->
<g id="edge7" class="edge">
<title>Node8&#45;&gt;Node2</title>
<path fill="none" stroke="midnightblue" d="M221.5,-612.61C221.5,-591.94 221.5,-569.1 221.5,-547.5"/>
<polygon fill="none" stroke="midnightblue" points="218,-612.88 221.5,-622.88 225,-612.88 218,-612.88"/>
</g>
</g>
</svg>
