<?xml version="1.0" encoding="UTF-8" standalone="no"?>
<!DOCTYPE svg PUBLIC "-//W3C//DTD SVG 1.1//EN"
 "http://www.w3.org/Graphics/SVG/1.1/DTD/svg11.dtd">
<!-- Generated by graphviz version 7.0.5 (20221223.1930)
 -->
<!-- Title: geojson::FeatureCollection Pages: 1 -->
<!--zoomable 754 -->
<svg id="main" version="1.1" xmlns="http://www.w3.org/2000/svg" xmlns:xlink="http://www.w3.org/1999/xlink" xml:space="preserve" onload="init(evt)">
<style type="text/css"><![CDATA[
.edge:hover path { stroke: red; }
.edge:hover polygon { stroke: red; fill: red; }
]]></style>
<script type="text/javascript"><![CDATA[
var edges = document.getElementsByTagName('g');
if (edges && edges.length) {
  for (var i=0;i<edges.length;i++) {
    if (edges[i].id.substr(0,4)=='edge') {
      edges[i].setAttribute('class','edge');
    }
  }
}
]]></script>
        <defs>
                <circle id="rim" cx="0" cy="0" r="7"/>
                <circle id="rim2" cx="0" cy="0" r="3.5"/>
                <g id="zoomPlus">
                        <use xlink:href="#rim" fill="#404040">
                                <set attributeName="fill" to="#808080" begin="zoomplus.mouseover" end="zoomplus.mouseout"/>
                        </use>
                        <path d="M-4,0h8M0,-4v8" fill="none" stroke="white" stroke-width="1.5" pointer-events="none"/>
                </g>
                <g id="zoomMin">
                        <use xlink:href="#rim" fill="#404040">
                                <set attributeName="fill" to="#808080" begin="zoomminus.mouseover" end="zoomminus.mouseout"/>
                        </use>
                        <path d="M-4,0h8" fill="none" stroke="white" stroke-width="1.5" pointer-events="none"/>
                </g>
                <g id="dirArrow">
                        <path fill="none" stroke="white" stroke-width="1.5" d="M0,-3.0v7 M-2.5,-0.5L0,-3.0L2.5,-0.5"/>
                </g>
               <g id="resetDef">
                       <use xlink:href="#rim2" fill="#404040">
                               <set attributeName="fill" to="#808080" begin="reset.mouseover" end="reset.mouseout"/>
                       </use>
               </g>
        </defs>

<script type="text/javascript">
var viewWidth = 1220;
var viewHeight = 754;
var sectionId = 'dynsection-0';
</script>
<script xlink:href="svgpan.js"/>
<svg id="graph" class="graph">
<g id="viewport">
<title>geojson::FeatureCollection</title>
<!-- Node1 -->
<g id="node1" class="node">
<title>Node1</title>
<g id="a_node1"><a xlink:title=" ">
<polygon fill="#999999" stroke="#666666" points="348.82,-206 214.82,-206 214.82,0 348.82,0 348.82,-206"/>
<text text-anchor="middle" x="281.82" y="-194" font-family="Helvetica,sans-Serif" font-size="10.00">{geojson::FeatureCollection</text>
<text text-anchor="start" x="222.82" y="-183" font-family="Helvetica,sans-Serif" font-size="10.00">||+ FeatureCollection()</text>
<text text-anchor="start" x="222.82" y="-172" font-family="Helvetica,sans-Serif" font-size="10.00">+ FeatureCollection()</text>
<text text-anchor="start" x="222.82" y="-161" font-family="Helvetica,sans-Serif" font-size="10.00">+ FeatureCollection()</text>
<text text-anchor="start" x="222.82" y="-150" font-family="Helvetica,sans-Serif" font-size="10.00">+ FeatureCollection()</text>
<text text-anchor="start" x="222.82" y="-139" font-family="Helvetica,sans-Serif" font-size="10.00">+ FeatureCollection()</text>
<text text-anchor="start" x="222.82" y="-128" font-family="Helvetica,sans-Serif" font-size="10.00">+ ~FeatureCollection()</text>
<text text-anchor="start" x="222.82" y="-117" font-family="Helvetica,sans-Serif" font-size="10.00">+ get_size()</text>
<text text-anchor="start" x="222.82" y="-106" font-family="Helvetica,sans-Serif" font-size="10.00">+ is_empty()</text>
<text text-anchor="start" x="222.82" y="-95" font-family="Helvetica,sans-Serif" font-size="10.00">+ get_bounding_box()</text>
<text text-anchor="start" x="222.82" y="-84" font-family="Helvetica,sans-Serif" font-size="10.00">+ get_feature()</text>
<text text-anchor="start" x="222.82" y="-73" font-family="Helvetica,sans-Serif" font-size="10.00">+ find()</text>
<text text-anchor="start" x="222.82" y="-62" font-family="Helvetica,sans-Serif" font-size="10.00">+ find()</text>
<text text-anchor="start" x="222.82" y="-51" font-family="Helvetica,sans-Serif" font-size="10.00">+ remove_feature()</text>
<text text-anchor="start" x="222.82" y="-40" font-family="Helvetica,sans-Serif" font-size="10.00">+ remove_feature_by_id()</text>
<text text-anchor="start" x="222.82" y="-29" font-family="Helvetica,sans-Serif" font-size="10.00">+ get_feature()</text>
<text text-anchor="start" x="222.82" y="-18" font-family="Helvetica,sans-Serif" font-size="10.00">and 19 more...</text>
<text text-anchor="middle" x="281.82" y="-7" font-family="Helvetica,sans-Serif" font-size="10.00">}</text>
</a>
</g>
</g>
<!-- Node2 -->
<g id="node2" class="node">
<title>Node2</title>
<g id="a_node2"><a xlink:title=" ">
<polygon fill="white" stroke="#666666" points="154.82,-288.5 40.82,-288.5 40.82,-258.5 154.82,-258.5 154.82,-288.5"/>
<text text-anchor="middle" x="97.82" y="-276.5" font-family="Helvetica,sans-Serif" font-size="10.00">{std::vector&lt; Feature &gt;</text>
<text text-anchor="middle" x="97.82" y="-265.5" font-family="Helvetica,sans-Serif" font-size="10.00">||}</text>
</a>
</g>
</g>
<!-- Node2&#45;&gt;Node1 -->
<g id="edge1" class="edge">
<title>Node2&#45;&gt;Node1</title>
<path fill="none" stroke="#404040" d="M113.5,-258.13C133.84,-239.51 170.74,-205.72 204.82,-174.51"/>
<polygon fill="none" stroke="#404040" points="204.83,-174.5 206.55,-167.5 213.68,-166.4 211.96,-173.4 204.83,-174.5"/>
<text text-anchor="middle" x="168.32" y="-227" font-family="Helvetica,sans-Serif" font-size="10.00"> &#45;features</text>
</g>
<!-- Node3 -->
<g id="node3" class="node">
<title>Node3</title>
<g id="a_node3"><a xlink:title=" ">
<polygon fill="white" stroke="#666666" points="133.82,-492 27.82,-492 27.82,-451 133.82,-451 133.82,-492"/>
<text text-anchor="middle" x="80.82" y="-480" font-family="Helvetica,sans-Serif" font-size="10.00">{std::shared_ptr&lt; T &gt;</text>
<text text-anchor="start" x="35.82" y="-469" font-family="Helvetica,sans-Serif" font-size="10.00">||+ operator&#45;&gt;()</text>
<text text-anchor="middle" x="80.82" y="-458" font-family="Helvetica,sans-Serif" font-size="10.00">}</text>
</a>
</g>
</g>
<!-- Node3&#45;&gt;Node2 -->
<g id="edge2" class="edge">
<title>Node3&#45;&gt;Node2</title>
<path fill="none" stroke="#404040" d="M59.62,-450.67C29.02,-419.58 -20.69,-358.16 9.82,-312 14.79,-304.47 21.63,-298.44 29.3,-293.62"/>
<polygon fill="none" stroke="#404040" points="29.23,-293.66 32.64,-287.31 39.82,-288.01 36.41,-294.37 29.23,-293.66"/>
<text text-anchor="middle" x="34.32" y="-320.5" font-family="Helvetica,sans-Serif" font-size="10.00"> +elements</text>
</g>
<!-- Node7 -->
<g id="node7" class="node">
<title>Node7</title>
<g id="a_node7"><a xlink:title=" ">
<polygon fill="white" stroke="#666666" points="410.82,-294 300.82,-294 300.82,-253 410.82,-253 410.82,-294"/>
<text text-anchor="start" x="308.82" y="-282" font-family="Helvetica,sans-Serif" font-size="10.00">{std::map&lt; std::string,</text>
<text text-anchor="middle" x="355.82" y="-271" font-family="Helvetica,sans-Serif" font-size="10.00"> Feature &gt;</text>
<text text-anchor="middle" x="355.82" y="-260" font-family="Helvetica,sans-Serif" font-size="10.00">||}</text>
</a>
</g>
</g>
<!-- Node3&#45;&gt;Node7 -->
<g id="edge11" class="edge">
<title>Node3&#45;&gt;Node7</title>
<path fill="none" stroke="#404040" d="M72.78,-450.69C60.73,-417.36 42.89,-349.99 77.82,-312 92.42,-296.12 236.45,-297.92 287.63,-293.71"/>
<polygon fill="none" stroke="#404040" points="287.69,-293.7 293.16,-289 299.6,-292.25 294.13,-296.95 287.69,-293.7"/>
<text text-anchor="middle" x="102.32" y="-320.5" font-family="Helvetica,sans-Serif" font-size="10.00"> +elements</text>
</g>
<!-- Node4 -->
<g id="node4" class="node">
<title>Node4</title>
<g id="a_node4"><a xlink:title=" ">
<polygon fill="white" stroke="#666666" points="214.32,-668 185.32,-668 185.32,-638 214.32,-638 214.32,-668"/>
<text text-anchor="middle" x="199.82" y="-656" font-family="Helvetica,sans-Serif" font-size="10.00">{T</text>
<text text-anchor="middle" x="199.82" y="-645" font-family="Helvetica,sans-Serif" font-size="10.00">||}</text>
</a>
</g>
</g>
<!-- Node4&#45;&gt;Node3 -->
<g id="edge3" class="edge">
<title>Node4&#45;&gt;Node3</title>
<path fill="none" stroke="#404040" d="M189.38,-637.76C185.39,-632.25 180.84,-625.87 176.82,-620 149.49,-580.19 119.32,-533.33 100.23,-503.29"/>
<polygon fill="none" stroke="#404040" points="100.15,-503.16 93.56,-500.24 93.73,-493.03 100.32,-495.96 100.15,-503.16"/>
<text text-anchor="middle" x="186.82" y="-612" font-family="Helvetica,sans-Serif" font-size="10.00"> +ptr</text>
</g>
<!-- Node5 -->
<g id="node5" class="node">
<title>Node5</title>
<g id="a_node5"><a xlink:title=" ">
<polygon fill="white" stroke="#666666" points="254.32,-486.5 167.32,-486.5 167.32,-456.5 254.32,-456.5 254.32,-486.5"/>
<text text-anchor="middle" x="210.82" y="-474.5" font-family="Helvetica,sans-Serif" font-size="10.00">{std::vector&lt; T &gt;</text>
<text text-anchor="middle" x="210.82" y="-463.5" font-family="Helvetica,sans-Serif" font-size="10.00">||}</text>
</a>
</g>
</g>
<!-- Node4&#45;&gt;Node5 -->
<g id="edge5" class="edge">
<title>Node4&#45;&gt;Node5</title>
<path fill="none" stroke="#404040" d="M199.97,-637.66C200.1,-629.3 200.35,-618.55 200.82,-609 202.65,-571 206.1,-527.15 208.43,-499.62"/>
<polygon fill="none" stroke="#404040" points="208.42,-499.69 204.95,-493.36 209.45,-487.73 212.92,-494.05 208.42,-499.69"/>
<text text-anchor="middle" x="225.32" y="-612" font-family="Helvetica,sans-Serif" font-size="10.00"> +elements</text>
</g>
<!-- Node10 -->
<g id="node10" class="node">
<title>Node10</title>
<g id="a_node10"><a xlink:title=" ">
<polygon fill="white" stroke="#666666" points="377.32,-486.5 286.32,-486.5 286.32,-456.5 377.32,-456.5 377.32,-486.5"/>
<text text-anchor="middle" x="331.82" y="-474.5" font-family="Helvetica,sans-Serif" font-size="10.00">{std::map&lt; K, T &gt;</text>
<text text-anchor="middle" x="331.82" y="-463.5" font-family="Helvetica,sans-Serif" font-size="10.00">||}</text>
</a>
</g>
</g>
<!-- Node4&#45;&gt;Node10 -->
<g id="edge14" class="edge">
<title>Node4&#45;&gt;Node10</title>
<path fill="none" stroke="#404040" d="M214.77,-644.96C225.5,-639.34 239.79,-630.66 249.82,-620 283.88,-583.76 308.82,-530.73 321.76,-499.11"/>
<polygon fill="none" stroke="#404040" points="321.82,-498.97 320.31,-491.92 326.23,-487.81 327.74,-494.87 321.82,-498.97"/>
<text text-anchor="middle" x="284.32" y="-612" font-family="Helvetica,sans-Serif" font-size="10.00"> +elements</text>
</g>
<!-- Node5&#45;&gt;Node2 -->
<g id="edge4" class="edge">
<title>Node5&#45;&gt;Node2</title>
<path fill="none" stroke="orange" d="M200.8,-446.05C187.15,-413.97 160.93,-356.54 130.82,-312 125.28,-303.81 118.13,-295.48 111.9,-288.75"/>
<polygon fill="orange" stroke="orange" points="197.41,-447.01 204.5,-454.88 203.86,-444.3 197.41,-447.01"/>
<text text-anchor="middle" x="169.82" y="-320.5" font-family="Helvetica,sans-Serif" font-size="10.00"> &lt; Feature &gt;</text>
</g>
<!-- Node6 -->
<g id="node6" class="node">
<title>Node6</title>
<g id="a_node6"><a xlink:title=" ">
<polygon fill="white" stroke="#666666" points="282.82,-294 172.82,-294 172.82,-253 282.82,-253 282.82,-294"/>
<text text-anchor="middle" x="227.82" y="-282" font-family="Helvetica,sans-Serif" font-size="10.00">{std::vector&lt; double &gt;</text>
<text text-anchor="start" x="180.82" y="-271" font-family="Helvetica,sans-Serif" font-size="10.00">|+ elements</text>
<text text-anchor="middle" x="227.82" y="-260" font-family="Helvetica,sans-Serif" font-size="10.00">|}</text>
</a>
</g>
</g>
<!-- Node5&#45;&gt;Node6 -->
<g id="edge7" class="edge">
<title>Node5&#45;&gt;Node6</title>
<path fill="none" stroke="orange" d="M213.05,-444.79C216.48,-405.18 223,-330.07 226.09,-294.34"/>
<polygon fill="orange" stroke="orange" points="209.57,-444.31 212.2,-454.58 216.55,-444.92 209.57,-444.31"/>
<text text-anchor="middle" x="248.82" y="-320.5" font-family="Helvetica,sans-Serif" font-size="10.00"> &lt; double &gt;</text>
</g>
<!-- Node15 -->
<g id="node15" class="node">
<title>Node15</title>
<g id="a_node15"><a xlink:title=" ">
<polygon fill="white" stroke="#666666" points="1009.32,-294 902.32,-294 902.32,-253 1009.32,-253 1009.32,-294"/>
<text text-anchor="start" x="910.32" y="-282" font-family="Helvetica,sans-Serif" font-size="10.00">{std::vector&lt; geojson</text>
<text text-anchor="middle" x="955.82" y="-271" font-family="Helvetica,sans-Serif" font-size="10.00">::JSONProperty &gt;</text>
<text text-anchor="middle" x="955.82" y="-260" font-family="Helvetica,sans-Serif" font-size="10.00">||}</text>
</a>
</g>
</g>
<!-- Node5&#45;&gt;Node15 -->
<g id="edge25" class="edge">
<title>Node5&#45;&gt;Node15</title>
<path fill="none" stroke="orange" d="M217.14,-445.19C225.61,-417.15 243.59,-373.09 276.82,-352 326.28,-320.61 483.29,-349.4 539.82,-334 560.91,-328.25 562.82,-318.09 583.82,-312 613.62,-303.36 806.51,-286.7 902.18,-278.83"/>
<polygon fill="orange" stroke="orange" points="213.82,-444.09 214.48,-454.66 220.56,-445.98 213.82,-444.09"/>
<text text-anchor="middle" x="644.32" y="-320.5" font-family="Helvetica,sans-Serif" font-size="10.00"> &lt; geojson::JSONProperty &gt;</text>
</g>
<!-- Node6&#45;&gt;Node1 -->
<g id="edge6" class="edge">
<title>Node6&#45;&gt;Node1</title>
<path fill="none" stroke="#404040" d="M234.22,-252.51C237.2,-243.23 240.99,-231.39 245.13,-218.46"/>
<polygon fill="none" stroke="#404040" points="245.09,-218.61 243.11,-211.67 248.75,-207.18 250.73,-214.11 245.09,-218.61"/>
<text text-anchor="middle" x="275.32" y="-227" font-family="Helvetica,sans-Serif" font-size="10.00"> &#45;bounding_box</text>
</g>
<!-- Node7&#45;&gt;Node1 -->
<g id="edge8" class="edge">
<title>Node7&#45;&gt;Node1</title>
<path fill="none" stroke="#404040" d="M347.04,-252.51C342.92,-243.14 337.66,-231.15 331.91,-218.07"/>
<polygon fill="none" stroke="#404040" points="331.94,-218.13 325.86,-214.25 327.11,-207.15 333.19,-211.03 331.94,-218.13"/>
<text text-anchor="middle" x="370.82" y="-227" font-family="Helvetica,sans-Serif" font-size="10.00"> &#45;feature_by_id</text>
</g>
<!-- Node8 -->
<g id="node8" class="node">
<title>Node8</title>
<g id="a_node8"><a xlink:title=" ">
<polygon fill="white" stroke="#666666" points="801.82,-668 739.82,-668 739.82,-638 801.82,-638 801.82,-668"/>
<text text-anchor="middle" x="770.82" y="-656" font-family="Helvetica,sans-Serif" font-size="10.00">{std::string</text>
<text text-anchor="middle" x="770.82" y="-645" font-family="Helvetica,sans-Serif" font-size="10.00">||}</text>
</a>
</g>
</g>
<!-- Node8&#45;&gt;Node7 -->
<g id="edge9" class="edge">
<title>Node8&#45;&gt;Node7</title>
<path fill="none" stroke="#404040" d="M744.89,-637.69C724.93,-626.17 697.09,-608.99 674.82,-591 539.36,-481.61 527.3,-430.58 399.82,-312 396.56,-308.97 393.11,-305.86 389.63,-302.8"/>
<polygon fill="none" stroke="#404040" points="389.65,-302.81 382.49,-301.91 380.58,-294.96 387.73,-295.86 389.65,-302.81"/>
<text text-anchor="middle" x="689.32" y="-469" font-family="Helvetica,sans-Serif" font-size="10.00"> +keys</text>
</g>
<!-- Node12 -->
<g id="node12" class="node">
<title>Node12</title>
<g id="a_node12"><a xlink:title=" ">
<polygon fill="white" stroke="#666666" points="692.82,-294 564.82,-294 564.82,-253 692.82,-253 692.82,-294"/>
<text text-anchor="start" x="572.82" y="-282" font-family="Helvetica,sans-Serif" font-size="10.00">{std::map&lt; std::string,</text>
<text text-anchor="middle" x="628.82" y="-271" font-family="Helvetica,sans-Serif" font-size="10.00"> geojson::JSONProperty &gt;</text>
<text text-anchor="middle" x="628.82" y="-260" font-family="Helvetica,sans-Serif" font-size="10.00">||}</text>
</a>
</g>
</g>
<!-- Node8&#45;&gt;Node12 -->
<g id="edge16" class="edge">
<title>Node8&#45;&gt;Node12</title>
<path fill="none" stroke="#404040" d="M770.64,-637.58C769.36,-587.73 759.36,-419.76 683.82,-312 681.53,-308.75 678.87,-305.69 675.98,-302.84"/>
<polygon fill="none" stroke="#404040" points="675.91,-302.78 668.75,-301.94 666.78,-295 673.94,-295.85 675.91,-302.78"/>
<text text-anchor="middle" x="782.32" y="-469" font-family="Helvetica,sans-Serif" font-size="10.00"> +keys</text>
</g>
<!-- Node13 -->
<g id="node13" class="node">
<title>Node13</title>
<g id="a_node13"><a xlink:href="classgeojson_1_1_j_s_o_n_property.html" target="_top" xlink:title="@TODO: Convert JSONProperty into a variant of the supported types">
<polygon fill="white" stroke="#666666" points="1052.32,-591 931.32,-591 931.32,-352 1052.32,-352 1052.32,-591"/>
<text text-anchor="middle" x="991.82" y="-579" font-family="Helvetica,sans-Serif" font-size="10.00">{geojson::JSONProperty</text>
<text text-anchor="start" x="939.32" y="-568" font-family="Helvetica,sans-Serif" font-size="10.00">|&#45; type</text>
<text text-anchor="start" x="939.32" y="-557" font-family="Helvetica,sans-Serif" font-size="10.00">&#45; data</text>
<text text-anchor="start" x="939.32" y="-546" font-family="Helvetica,sans-Serif" font-size="10.00">|+ JSONProperty()</text>
<text text-anchor="start" x="939.32" y="-535" font-family="Helvetica,sans-Serif" font-size="10.00">+ JSONProperty()</text>
<text text-anchor="start" x="939.32" y="-524" font-family="Helvetica,sans-Serif" font-size="10.00">+ JSONProperty()</text>
<text text-anchor="start" x="939.32" y="-513" font-family="Helvetica,sans-Serif" font-size="10.00">+ JSONProperty()</text>
<text text-anchor="start" x="939.32" y="-502" font-family="Helvetica,sans-Serif" font-size="10.00">+ JSONProperty()</text>
<text text-anchor="start" x="939.32" y="-491" font-family="Helvetica,sans-Serif" font-size="10.00">+ JSONProperty()</text>
<text text-anchor="start" x="939.32" y="-480" font-family="Helvetica,sans-Serif" font-size="10.00">+ JSONProperty()</text>
<text text-anchor="start" x="939.32" y="-469" font-family="Helvetica,sans-Serif" font-size="10.00">+ JSONProperty()</text>
<text text-anchor="start" x="939.32" y="-458" font-family="Helvetica,sans-Serif" font-size="10.00">+ JSONProperty()</text>
<text text-anchor="start" x="939.32" y="-447" font-family="Helvetica,sans-Serif" font-size="10.00">+ JSONProperty()</text>
<text text-anchor="start" x="939.32" y="-436" font-family="Helvetica,sans-Serif" font-size="10.00">+ JSONProperty()</text>
<text text-anchor="start" x="939.32" y="-425" font-family="Helvetica,sans-Serif" font-size="10.00">+ ~JSONProperty()</text>
<text text-anchor="start" x="939.32" y="-414" font-family="Helvetica,sans-Serif" font-size="10.00">+ JSONProperty()</text>
<text text-anchor="start" x="939.32" y="-403" font-family="Helvetica,sans-Serif" font-size="10.00">+ JSONProperty()</text>
<text text-anchor="start" x="939.32" y="-392" font-family="Helvetica,sans-Serif" font-size="10.00">+ get_type()</text>
<text text-anchor="start" x="939.32" y="-381" font-family="Helvetica,sans-Serif" font-size="10.00">and 17 more...</text>
<text text-anchor="start" x="939.32" y="-370" font-family="Helvetica,sans-Serif" font-size="10.00">+ print_property()</text>
<text text-anchor="middle" x="991.82" y="-359" font-family="Helvetica,sans-Serif" font-size="10.00">}</text>
</a>
</g>
</g>
<!-- Node8&#45;&gt;Node13 -->
<g id="edge18" class="edge">
<title>Node8&#45;&gt;Node13</title>
<path fill="none" stroke="#404040" d="M788.53,-637.61C816.96,-614.52 874.33,-567.92 920.9,-530.1"/>
<polygon fill="none" stroke="#404040" points="920.94,-530.06 923.08,-523.18 930.26,-522.5 928.12,-529.39 920.94,-530.06"/>
<text text-anchor="middle" x="828.32" y="-612" font-family="Helvetica,sans-Serif" font-size="10.00"> &#45;key</text>
</g>
<!-- Node14 -->
<g id="node14" class="node">
<title>Node14</title>
<g id="a_node14"><a xlink:title=" ">
<polygon fill="white" stroke="#666666" points="1188.82,-294 1078.82,-294 1078.82,-253 1188.82,-253 1188.82,-294"/>
<text text-anchor="start" x="1086.82" y="-282" font-family="Helvetica,sans-Serif" font-size="10.00">{std::map&lt; std::string,</text>
<text text-anchor="middle" x="1133.82" y="-271" font-family="Helvetica,sans-Serif" font-size="10.00"> JSONProperty &gt;</text>
<text text-anchor="middle" x="1133.82" y="-260" font-family="Helvetica,sans-Serif" font-size="10.00">||}</text>
</a>
</g>
</g>
<!-- Node8&#45;&gt;Node14 -->
<g id="edge20" class="edge">
<title>Node8&#45;&gt;Node14</title>
<path fill="none" stroke="#404040" d="M802.14,-648.91C868.69,-641.8 1021.37,-622.44 1061.82,-591 1162.25,-512.92 1159.07,-457.92 1187.82,-334 1190.02,-324.48 1192.35,-320.66 1187.82,-312 1186.19,-308.88 1184.17,-305.97 1181.87,-303.27"/>
<polygon fill="none" stroke="#404040" points="1181.89,-303.28 1174.79,-302.01 1173.24,-294.97 1180.34,-296.24 1181.89,-303.28"/>
<text text-anchor="middle" x="1197.32" y="-469" font-family="Helvetica,sans-Serif" font-size="10.00"> +keys</text>
</g>
<!-- Node9 -->
<g id="node9" class="node">
<title>Node9</title>
<g id="a_node9"><a xlink:title=" ">
<polygon fill="white" stroke="#666666" points="818.82,-746 722.82,-746 722.82,-705 818.82,-705 818.82,-746"/>
<text text-anchor="start" x="730.82" y="-734" font-family="Helvetica,sans-Serif" font-size="10.00">{std::basic_string&lt;</text>
<text text-anchor="middle" x="770.82" y="-723" font-family="Helvetica,sans-Serif" font-size="10.00"> Char &gt;</text>
<text text-anchor="middle" x="770.82" y="-712" font-family="Helvetica,sans-Serif" font-size="10.00">||}</text>
</a>
</g>
</g>
<!-- Node9&#45;&gt;Node8 -->
<g id="edge10" class="edge">
<title>Node9&#45;&gt;Node8</title>
<path fill="none" stroke="#63b8ff" d="M770.82,-693.39C770.82,-684.68 770.82,-675.62 770.82,-668.39"/>
<polygon fill="none" stroke="#63b8ff" points="767.32,-693.35 770.82,-703.35 774.32,-693.35 767.32,-693.35"/>
</g>
<!-- Node10&#45;&gt;Node7 -->
<g id="edge12" class="edge">
<title>Node10&#45;&gt;Node7</title>
<path fill="none" stroke="orange" d="M317.34,-446.06C300.18,-413.62 276.65,-355.39 299.82,-312 303.51,-305.08 309.1,-299.22 315.35,-294.33"/>
<polygon fill="orange" stroke="orange" points="314.21,-447.63 322.11,-454.69 320.34,-444.25 314.21,-447.63"/>
<text text-anchor="middle" x="349.82" y="-320.5" font-family="Helvetica,sans-Serif" font-size="10.00"> &lt; std::string, Feature &gt;</text>
</g>
<!-- Node10&#45;&gt;Node12 -->
<g id="edge26" class="edge">
<title>Node10&#45;&gt;Node12</title>
<path fill="none" stroke="orange" d="M340.42,-445.43C350.07,-419.92 367.58,-380.22 391.82,-352 411.74,-328.8 419.79,-324.26 447.82,-312 484.72,-295.86 528.94,-286.53 564.43,-281.22"/>
<polygon fill="orange" stroke="orange" points="337.2,-444.05 337.07,-454.64 343.78,-446.44 337.2,-444.05"/>
<text text-anchor="start" x="447.82" y="-326" font-family="Helvetica,sans-Serif" font-size="10.00"> &lt; std::string, geojson</text>
<text text-anchor="middle" x="493.82" y="-315" font-family="Helvetica,sans-Serif" font-size="10.00">::JSONProperty &gt;</text>
</g>
<!-- Node10&#45;&gt;Node14 -->
<g id="edge22" class="edge">
<title>Node10&#45;&gt;Node14</title>
<path fill="none" stroke="orange" d="M336.79,-445.14C343.78,-417.04 359.46,-372.93 391.82,-352 428.15,-328.5 739.45,-346.68 780.82,-334 798.74,-328.51 799.01,-317.88 816.82,-312 902.41,-283.76 929.42,-305.54 1018.82,-294 1038.3,-291.48 1059.53,-288.08 1078.38,-284.81"/>
<polygon fill="orange" stroke="orange" points="333.44,-444.08 334.64,-454.61 340.27,-445.63 333.44,-444.08"/>
<text text-anchor="middle" x="881.82" y="-320.5" font-family="Helvetica,sans-Serif" font-size="10.00"> &lt; std::string, JSONProperty &gt;</text>
</g>
<!-- Node11 -->
<g id="node11" class="node">
<title>Node11</title>
<g id="a_node11"><a xlink:title=" ">
<polygon fill="white" stroke="#666666" points="358.32,-668 329.32,-668 329.32,-638 358.32,-638 358.32,-668"/>
<text text-anchor="middle" x="343.82" y="-656" font-family="Helvetica,sans-Serif" font-size="10.00">{K</text>
<text text-anchor="middle" x="343.82" y="-645" font-family="Helvetica,sans-Serif" font-size="10.00">||}</text>
</a>
</g>
</g>
<!-- Node11&#45;&gt;Node10 -->
<g id="edge13" class="edge">
<title>Node11&#45;&gt;Node10</title>
<path fill="none" stroke="#404040" d="M342.85,-637.61C340.86,-607.75 336.23,-538.58 333.65,-499.91"/>
<polygon fill="none" stroke="#404040" points="333.64,-499.83 329.25,-494.11 332.84,-487.85 337.23,-493.57 333.64,-499.83"/>
<text text-anchor="middle" x="356.32" y="-612" font-family="Helvetica,sans-Serif" font-size="10.00"> +keys</text>
</g>
<!-- Node12&#45;&gt;Node1 -->
<g id="edge15" class="edge">
<title>Node12&#45;&gt;Node1</title>
<path fill="none" stroke="#404040" d="M587.65,-252.51C531.87,-225.42 431.16,-176.52 360.6,-142.26"/>
<polygon fill="none" stroke="#404040" points="360.71,-142.31 353.57,-143.29 349.92,-137.07 357.06,-136.09 360.71,-142.31"/>
<text text-anchor="middle" x="586.32" y="-227" font-family="Helvetica,sans-Serif" font-size="10.00"> &#45;foreign_members</text>
</g>
<!-- Node13&#45;&gt;Node12 -->
<g id="edge17" class="edge">
<title>Node13&#45;&gt;Node12</title>
<path fill="none" stroke="#404040" d="M930.97,-444.47C876.44,-419.79 795.46,-379.75 731.82,-334 720.33,-325.74 720.48,-320 708.82,-312 702.74,-307.83 696.12,-303.91 689.38,-300.29"/>
<polygon fill="none" stroke="#404040" points="689.5,-300.34 682.34,-301.18 678.81,-294.89 685.97,-294.05 689.5,-300.34"/>
<text text-anchor="middle" x="756.32" y="-320.5" font-family="Helvetica,sans-Serif" font-size="10.00"> +elements</text>
</g>
<!-- Node13&#45;&gt;Node14 -->
<g id="edge21" class="edge">
<title>Node13&#45;&gt;Node14</title>
<path fill="none" stroke="#404040" d="M1052.75,-369.11C1065.85,-349.58 1080.18,-329.71 1094.82,-312 1097.17,-309.15 1099.73,-306.29 1102.36,-303.49"/>
<polygon fill="none" stroke="#404040" points="1102.38,-303.46 1103.76,-296.39 1110.83,-294.94 1109.45,-302.02 1102.38,-303.46"/>
<text text-anchor="middle" x="1119.32" y="-320.5" font-family="Helvetica,sans-Serif" font-size="10.00"> +elements</text>
</g>
<!-- Node13&#45;&gt;Node15 -->
<g id="edge24" class="edge">
<title>Node13&#45;&gt;Node15</title>
<path fill="none" stroke="#404040" d="M955.8,-351.81C954.65,-345.82 953.64,-339.86 952.82,-334 951.61,-325.4 951.52,-316.03 951.94,-307.33"/>
<polygon fill="none" stroke="#404040" points="951.94,-307.28 948.42,-300.99 952.87,-295.32 956.39,-301.61 951.94,-307.28"/>
<text text-anchor="middle" x="977.32" y="-320.5" font-family="Helvetica,sans-Serif" font-size="10.00"> +elements</text>
</g>
<!-- Node14&#45;&gt;Node13 -->
<g id="edge19" class="edge">
<title>Node14&#45;&gt;Node13</title>
<path fill="none" stroke="#404040" d="M1144.79,-294.42C1149.82,-306.29 1153.52,-321.44 1147.82,-334 1130.17,-372.89 1095.37,-405.05 1063.1,-428.37"/>
<polygon fill="none" stroke="#404040" points="1063.31,-428.22 1060.69,-434.94 1053.48,-435.11 1056.1,-428.39 1063.31,-428.22"/>
<text text-anchor="middle" x="1166.82" y="-320.5" font-family="Helvetica,sans-Serif" font-size="10.00"> &#45;values</text>
</g>
<!-- Node15&#45;&gt;Node13 -->
<g id="edge23" class="edge">
<title>Node15&#45;&gt;Node13</title>
<path fill="none" stroke="#404040" d="M991.27,-294.36C997.14,-299.32 1002.42,-305.21 1005.82,-312 1010.06,-320.49 1012.92,-329.56 1014.67,-338.9"/>
<polygon fill="none" stroke="#404040" points="1014.69,-338.99 1019.46,-344.4 1016.3,-350.88 1011.53,-345.47 1014.69,-338.99"/>
<text text-anchor="middle" x="1036.32" y="-320.5" font-family="Helvetica,sans-Serif" font-size="10.00"> &#45;value_list</text>
</g>
</g>
</svg>
        <g id="navigator" transform="translate(0 0)" fill="#404254">
                <rect fill="#f2f5e9" fill-opacity="0.5" stroke="#606060" stroke-width=".5" x="0" y="0" width="60" height="60"/>
                <use id="zoomplus" xlink:href="#zoomPlus" x="17" y="9" onmousedown="handleZoom(evt,'in')"/>
                <use id="zoomminus" xlink:href="#zoomMin" x="42" y="9" onmousedown="handleZoom(evt,'out')"/>
                <use id="reset" xlink:href="#resetDef" x="30" y="36" onmousedown="handleReset()"/>
                <g id="arrowUp" xlink:href="#dirArrow" transform="translate(30 24)" onmousedown="handlePan(0,-1)">
                  <use xlink:href="#rim" fill="#404040">
                        <set attributeName="fill" to="#808080" begin="arrowUp.mouseover" end="arrowUp.mouseout"/>
                  </use>
                  <path fill="none" stroke="white" stroke-width="1.5" d="M0,-3.0v7 M-2.5,-0.5L0,-3.0L2.5,-0.5"/>
                </g>
                <g id="arrowRight" xlink:href="#dirArrow" transform="rotate(90) translate(36 -43)" onmousedown="handlePan(1,0)">
                  <use xlink:href="#rim" fill="#404040">
                        <set attributeName="fill" to="#808080" begin="arrowRight.mouseover" end="arrowRight.mouseout"/>
                  </use>
                  <path fill="none" stroke="white" stroke-width="1.5" d="M0,-3.0v7 M-2.5,-0.5L0,-3.0L2.5,-0.5"/>
                </g>
                <g id="arrowDown" xlink:href="#dirArrow" transform="rotate(180) translate(-30 -48)" onmousedown="handlePan(0,1)">
                  <use xlink:href="#rim" fill="#404040">
                        <set attributeName="fill" to="#808080" begin="arrowDown.mouseover" end="arrowDown.mouseout"/>
                  </use>
                  <path fill="none" stroke="white" stroke-width="1.5" d="M0,-3.0v7 M-2.5,-0.5L0,-3.0L2.5,-0.5"/>
                </g>
                <g id="arrowLeft" xlink:href="#dirArrow" transform="rotate(270) translate(-36 17)" onmousedown="handlePan(-1,0)">
                  <use xlink:href="#rim" fill="#404040">
                        <set attributeName="fill" to="#808080" begin="arrowLeft.mouseover" end="arrowLeft.mouseout"/>
                  </use>
                  <path fill="none" stroke="white" stroke-width="1.5" d="M0,-3.0v7 M-2.5,-0.5L0,-3.0L2.5,-0.5"/>
                </g>
        </g>
        <svg viewBox="0 0 15 15" width="100%" height="30px" preserveAspectRatio="xMaxYMin meet">
         <g id="arrow_out" transform="scale(0.3 0.3)">
          <a xlink:href="classgeojson_1_1_feature_collection__coll__graph_org.svg" target="_base">
           <rect id="button" ry="5" rx="5" y="6" x="6" height="38" width="38"
                fill="#f2f5e9" fill-opacity="0.5" stroke="#606060" stroke-width="1.0"/>
           <path id="arrow"
             d="M 11.500037,31.436501 C 11.940474,20.09759 22.043105,11.32322 32.158766,21.979434 L 37.068811,17.246167 C 37.068811,17.246167 37.088388,32 37.088388,32 L 22.160133,31.978069 C 22.160133,31.978069 26.997745,27.140456 26.997745,27.140456 C 18.528582,18.264221 13.291696,25.230495 11.500037,31.436501 z"
             style="fill:#404040;"/>
          </a>
         </g>
        </svg>
</svg>
