<?xml version="1.0" encoding="UTF-8" standalone="no"?>
<!DOCTYPE svg PUBLIC "-//W3C//DTD SVG 1.1//EN"
 "http://www.w3.org/Graphics/SVG/1.1/DTD/svg11.dtd">
<!-- Generated by graphviz version 2.42.3 ()
 -->
<!-- Title: HY_HydroNexus Pages: 1 -->
<svg width="232pt" height="458pt"
 viewBox="0.00 0.00 231.50 458.00" xmlns="http://www.w3.org/2000/svg" xmlns:xlink="http://www.w3.org/1999/xlink">
<g id="graph0" class="graph" transform="scale(1 1) rotate(0) translate(4 454)">
<title>HY_HydroNexus</title>
<polygon fill="white" stroke="transparent" points="-4,4 -4,-454 227.5,-454 227.5,4 -4,4"/>
<!-- Node1 -->
<g id="node1" class="node">
<title>Node1</title>
<g id="a_node1"><a xlink:title=" ">
<polygon fill="#bfbfbf" stroke="black" points="40.5,-0.5 40.5,-123.5 166.5,-123.5 166.5,-0.5 40.5,-0.5"/>
<text text-anchor="middle" x="103.5" y="-111.5" font-family="Helvetica,sans-Serif" font-size="10.00">HY_HydroNexus</text>
<polyline fill="none" stroke="black" points="40.5,-104.5 166.5,-104.5 "/>
<text text-anchor="start" x="48.5" y="-92.5" font-family="Helvetica,sans-Serif" font-size="10.00">&#45; id_number</text>
<text text-anchor="start" x="48.5" y="-81.5" font-family="Helvetica,sans-Serif" font-size="10.00">&#45; number_of_downstream</text>
<text text-anchor="start" x="48.5" y="-70.5" font-family="Helvetica,sans-Serif" font-size="10.00">_catchments</text>
<polyline fill="none" stroke="black" points="40.5,-63.5 166.5,-63.5 "/>
<text text-anchor="start" x="48.5" y="-51.5" font-family="Helvetica,sans-Serif" font-size="10.00">+ HY_HydroNexus()</text>
<text text-anchor="start" x="48.5" y="-40.5" font-family="Helvetica,sans-Serif" font-size="10.00">+ ~HY_HydroNexus()</text>
<text text-anchor="start" x="48.5" y="-29.5" font-family="Helvetica,sans-Serif" font-size="10.00"># add_upstream_flow()</text>
<text text-anchor="start" x="48.5" y="-18.5" font-family="Helvetica,sans-Serif" font-size="10.00"># get_downstream_flow()</text>
<text text-anchor="start" x="48.5" y="-7.5" font-family="Helvetica,sans-Serif" font-size="10.00"># get_flow_units()</text>
</a>
</g>
</g>
<!-- Node2 -->
<g id="node2" class="node">
<title>Node2</title>
<g id="a_node2"><a xlink:title="STL class.">
<polygon fill="white" stroke="#bfbfbf" points="19,-171.5 19,-228.5 78,-228.5 78,-171.5 19,-171.5"/>
<text text-anchor="middle" x="48.5" y="-216.5" font-family="Helvetica,sans-Serif" font-size="10.00">std::string</text>
<polyline fill="none" stroke="#bfbfbf" points="19,-209.5 78,-209.5 "/>
<text text-anchor="middle" x="48.5" y="-197.5" font-family="Helvetica,sans-Serif" font-size="10.00"> </text>
<polyline fill="none" stroke="#bfbfbf" points="19,-190.5 78,-190.5 "/>
<text text-anchor="middle" x="48.5" y="-178.5" font-family="Helvetica,sans-Serif" font-size="10.00"> </text>
</a>
</g>
</g>
<!-- Node2&#45;&gt;Node1 -->
<g id="edge1" class="edge">
<title>Node2&#45;&gt;Node1</title>
<path fill="none" stroke="#404040" d="M59.63,-171.48C63.95,-160.79 69.12,-148.01 74.37,-135.03"/>
<polygon fill="none" stroke="#404040" points="74.48,-134.75 73.03,-127.69 78.98,-123.62 80.44,-130.69 74.48,-134.75"/>
<text text-anchor="middle" x="78" y="-145" font-family="Helvetica,sans-Serif" font-size="10.00"> &#45;id</text>
</g>
<!-- Node3 -->
<g id="node3" class="node">
<title>Node3</title>
<g id="a_node3"><a xlink:title="STL class.">
<polygon fill="white" stroke="#bfbfbf" points="0,-276.5 0,-344.5 93,-344.5 93,-276.5 0,-276.5"/>
<text text-anchor="start" x="8" y="-332.5" font-family="Helvetica,sans-Serif" font-size="10.00">std::basic_string&lt;</text>
<text text-anchor="middle" x="46.5" y="-321.5" font-family="Helvetica,sans-Serif" font-size="10.00"> char &gt;</text>
<polyline fill="none" stroke="#bfbfbf" points="0,-314.5 93,-314.5 "/>
<text text-anchor="middle" x="46.5" y="-302.5" font-family="Helvetica,sans-Serif" font-size="10.00"> </text>
<polyline fill="none" stroke="#bfbfbf" points="0,-295.5 93,-295.5 "/>
<text text-anchor="middle" x="46.5" y="-283.5" font-family="Helvetica,sans-Serif" font-size="10.00"> </text>
</a>
</g>
</g>
<!-- Node3&#45;&gt;Node2 -->
<g id="edge2" class="edge">
<title>Node3&#45;&gt;Node2</title>
<path fill="none" stroke="midnightblue" d="M47.3,-266.06C47.53,-253.51 47.78,-240.15 47.99,-228.83"/>
<polygon fill="none" stroke="midnightblue" points="43.8,-266.29 47.11,-276.36 50.79,-266.42 43.8,-266.29"/>
</g>
<!-- Node4 -->
<g id="node4" class="node">
<title>Node4</title>
<g id="a_node4"><a xlink:title=" ">
<polygon fill="white" stroke="#bfbfbf" points="97.5,-171.5 97.5,-228.5 223.5,-228.5 223.5,-171.5 97.5,-171.5"/>
<text text-anchor="middle" x="160.5" y="-216.5" font-family="Helvetica,sans-Serif" font-size="10.00">std::shared_ptr&lt; point_t &gt;</text>
<polyline fill="none" stroke="#bfbfbf" points="97.5,-209.5 223.5,-209.5 "/>
<text text-anchor="start" x="105.5" y="-197.5" font-family="Helvetica,sans-Serif" font-size="10.00">+ ptr</text>
<polyline fill="none" stroke="#bfbfbf" points="97.5,-190.5 223.5,-190.5 "/>
<text text-anchor="start" x="105.5" y="-178.5" font-family="Helvetica,sans-Serif" font-size="10.00">+ operator&#45;&gt;()</text>
</a>
</g>
</g>
<!-- Node4&#45;&gt;Node1 -->
<g id="edge3" class="edge">
<title>Node4&#45;&gt;Node1</title>
<path fill="none" stroke="#404040" d="M148.97,-171.48C144.49,-160.79 139.13,-148.01 133.69,-135.03"/>
<polygon fill="none" stroke="#404040" points="133.55,-134.69 127.54,-130.7 128.91,-123.62 134.92,-127.61 133.55,-134.69"/>
<text text-anchor="middle" x="159.5" y="-145" font-family="Helvetica,sans-Serif" font-size="10.00"> &#45;location</text>
</g>
<!-- Node5 -->
<g id="node5" class="node">
<title>Node5</title>
<g id="a_node5"><a xlink:title="STL class.">
<polygon fill="white" stroke="#bfbfbf" points="111,-282 111,-339 214,-339 214,-282 111,-282"/>
<text text-anchor="middle" x="162.5" y="-327" font-family="Helvetica,sans-Serif" font-size="10.00">std::shared_ptr&lt; T &gt;</text>
<polyline fill="none" stroke="#bfbfbf" points="111,-320 214,-320 "/>
<text text-anchor="middle" x="162.5" y="-308" font-family="Helvetica,sans-Serif" font-size="10.00"> </text>
<polyline fill="none" stroke="#bfbfbf" points="111,-301 214,-301 "/>
<text text-anchor="start" x="119" y="-289" font-family="Helvetica,sans-Serif" font-size="10.00">+ operator&#45;&gt;()</text>
</a>
</g>
</g>
<!-- Node5&#45;&gt;Node4 -->
<g id="edge4" class="edge">
<title>Node5&#45;&gt;Node4</title>
<path fill="none" stroke="orange" d="M161.8,-271.44C161.54,-257.33 161.25,-241.61 161.01,-228.61"/>
<polygon fill="orange" stroke="orange" points="158.31,-271.91 161.99,-281.84 165.31,-271.78 158.31,-271.91"/>
<text text-anchor="middle" x="186" y="-250" font-family="Helvetica,sans-Serif" font-size="10.00"> &lt; point_t &gt;</text>
</g>
<!-- Node6 -->
<g id="node6" class="node">
<title>Node6</title>
<g id="a_node6"><a xlink:title=" ">
<polygon fill="white" stroke="#bfbfbf" points="148,-392.5 148,-449.5 177,-449.5 177,-392.5 148,-392.5"/>
<text text-anchor="middle" x="162.5" y="-437.5" font-family="Helvetica,sans-Serif" font-size="10.00">T</text>
<polyline fill="none" stroke="#bfbfbf" points="148,-430.5 177,-430.5 "/>
<text text-anchor="middle" x="162.5" y="-418.5" font-family="Helvetica,sans-Serif" font-size="10.00"> </text>
<polyline fill="none" stroke="#bfbfbf" points="148,-411.5 177,-411.5 "/>
<text text-anchor="middle" x="162.5" y="-399.5" font-family="Helvetica,sans-Serif" font-size="10.00"> </text>
</a>
</g>
</g>
<!-- Node6&#45;&gt;Node5 -->
<g id="edge5" class="edge">
<title>Node6&#45;&gt;Node5</title>
<path fill="none" stroke="#404040" d="M162.5,-392.34C162.5,-379.84 162.5,-364.84 162.5,-351.18"/>
<polygon fill="none" stroke="#404040" points="162.5,-351.11 158.5,-345.11 162.5,-339.11 166.5,-345.11 162.5,-351.11"/>
<text text-anchor="middle" x="172.5" y="-366" font-family="Helvetica,sans-Serif" font-size="10.00"> +ptr</text>
</g>
</g>
</svg>
