<?xml version="1.0" encoding="UTF-8" standalone="no"?>
<!DOCTYPE svg PUBLIC "-//W3C//DTD SVG 1.1//EN"
 "http://www.w3.org/Graphics/SVG/1.1/DTD/svg11.dtd">
<!-- Generated by graphviz version 12.2.0 (20241103.1931)
 -->
<!-- Title: Partitions_Parser Pages: 1 -->
<svg width="477pt" height="756pt"
 viewBox="0.00 0.00 477.33 755.50" xmlns="http://www.w3.org/2000/svg" xmlns:xlink="http://www.w3.org/1999/xlink">
<g id="graph0" class="graph" transform="scale(1 1) rotate(0) translate(4 751.5)">
<title>Partitions_Parser</title>
<!-- Node1 -->
<g id="Node000001" class="node">
<title>Node1</title>
<g id="a_Node000001"><a xlink:title=" ">
<polygon fill="#999999" stroke="none" points="245,-156.5 137.75,-156.5 137.75,0 245,0 245,-156.5"/>
<text text-anchor="start" x="153.88" y="-143" font-family="Helvetica,sans-Serif" font-size="10.00">Partitions_Parser</text>
<text text-anchor="start" x="143.25" y="-127.75" font-family="Helvetica,sans-Serif" font-size="10.00">&#45;</text>
<text text-anchor="start" x="151.75" y="-127.75" font-family="Helvetica,sans-Serif" font-size="10.00">mpi_world_rank</text>
<text text-anchor="start" x="143.25" y="-112.5" font-family="Helvetica,sans-Serif" font-size="10.00">&#45;</text>
<text text-anchor="start" x="151.75" y="-112.5" font-family="Helvetica,sans-Serif" font-size="10.00">remote_tuple</text>
<text text-anchor="start" x="143.25" y="-97.25" font-family="Helvetica,sans-Serif" font-size="10.00">&#45;</text>
<text text-anchor="start" x="151.75" y="-97.25" font-family="Helvetica,sans-Serif" font-size="10.00">tree</text>
<text text-anchor="start" x="141.75" y="-82" font-family="Helvetica,sans-Serif" font-size="10.00">+</text>
<text text-anchor="start" x="151.75" y="-82" font-family="Helvetica,sans-Serif" font-size="10.00">Partitions_Parser()</text>
<text text-anchor="start" x="141.75" y="-66.75" font-family="Helvetica,sans-Serif" font-size="10.00">+</text>
<text text-anchor="start" x="151.75" y="-66.75" font-family="Helvetica,sans-Serif" font-size="10.00">Partitions_Parser()</text>
<text text-anchor="start" x="141.75" y="-51.5" font-family="Helvetica,sans-Serif" font-size="10.00">+</text>
<text text-anchor="start" x="151.75" y="-51.5" font-family="Helvetica,sans-Serif" font-size="10.00">~Partitions_Parser()</text>
<text text-anchor="start" x="141.75" y="-36.25" font-family="Helvetica,sans-Serif" font-size="10.00">+</text>
<text text-anchor="start" x="151.75" y="-36.25" font-family="Helvetica,sans-Serif" font-size="10.00">parse_partition_file()</text>
<text text-anchor="start" x="141.75" y="-21" font-family="Helvetica,sans-Serif" font-size="10.00">+</text>
<text text-anchor="start" x="151.75" y="-21" font-family="Helvetica,sans-Serif" font-size="10.00">get_partition_struct()</text>
<text text-anchor="start" x="141.75" y="-5.75" font-family="Helvetica,sans-Serif" font-size="10.00">+</text>
<text text-anchor="start" x="151.75" y="-5.75" font-family="Helvetica,sans-Serif" font-size="10.00">get_mpi_rank()</text>
<polygon fill="#666666" stroke="#666666" points="137.75,-139.25 137.75,-139.25 245,-139.25 245,-139.25 137.75,-139.25"/>
<polygon fill="#666666" stroke="#666666" points="137.75,-93.5 137.75,-93.5 149.75,-93.5 149.75,-93.5 137.75,-93.5"/>
<polygon fill="#666666" stroke="#666666" points="149.75,-93.5 149.75,-93.5 245,-93.5 245,-93.5 149.75,-93.5"/>
<polygon fill="none" stroke="#666666" points="137.75,0 137.75,-156.5 245,-156.5 245,0 137.75,0"/>
</a>
</g>
</g>
<!-- Node2 -->
<g id="Node000002" class="node">
<title>Node2</title>
<g id="a_Node000002"><a xlink:title=" ">
<polygon fill="white" stroke="none" points="370.25,-253.5 244.5,-253.5 244.5,-203.75 370.25,-203.75 370.25,-253.5"/>
<text text-anchor="start" x="248.5" y="-240" font-family="Helvetica,sans-Serif" font-size="10.00">std::vector&lt; PartitionData &gt;</text>
<text text-anchor="start" x="305.88" y="-224.75" font-family="Helvetica,sans-Serif" font-size="10.00"> </text>
<text text-anchor="start" x="305.88" y="-209.5" font-family="Helvetica,sans-Serif" font-size="10.00"> </text>
<polygon fill="#666666" stroke="#666666" points="244.5,-236.25 244.5,-236.25 370.25,-236.25 370.25,-236.25 244.5,-236.25"/>
<polygon fill="#666666" stroke="#666666" points="244.5,-221 244.5,-221 370.25,-221 370.25,-221 244.5,-221"/>
<polygon fill="none" stroke="#666666" points="244.5,-203.75 244.5,-253.5 370.25,-253.5 370.25,-203.75 244.5,-203.75"/>
</a>
</g>
</g>
<!-- Node2&#45;&gt;Node1 -->
<g id="edge1_Node000001_Node000002" class="edge">
<title>Node2&#45;&gt;Node1</title>
<g id="a_edge1_Node000001_Node000002"><a xlink:title=" ">
<path fill="none" stroke="#63b8ff" d="M288.74,-203.79C278.73,-190.98 265.75,-174.39 252.56,-157.51"/>
<polygon fill="none" stroke="#63b8ff" points="252.73,-157.73 245.88,-155.47 245.34,-148.28 252.19,-150.54 252.73,-157.73"/>
</a>
</g>
<text text-anchor="middle" x="309.1" y="-176.25" font-family="Helvetica,sans-Serif" font-size="10.00" fill="grey"> +partition_ranks</text>
</g>
<!-- Node3 -->
<g id="Node000003" class="node">
<title>Node3</title>
<g id="a_Node000003"><a xlink:href="struct_partition_data.html" target="_top" xlink:title=" ">
<polygon fill="white" stroke="none" points="329.5,-361.75 243.25,-361.75 243.25,-312 329.5,-312 329.5,-361.75"/>
<text text-anchor="start" x="258.25" y="-348.25" font-family="Helvetica,sans-Serif" font-size="10.00">PartitionData</text>
<text text-anchor="start" x="247.25" y="-333" font-family="Helvetica,sans-Serif" font-size="10.00">+</text>
<text text-anchor="start" x="257.25" y="-333" font-family="Helvetica,sans-Serif" font-size="10.00">mpi_world_rank</text>
<text text-anchor="start" x="284.88" y="-317.75" font-family="Helvetica,sans-Serif" font-size="10.00"> </text>
<polygon fill="#666666" stroke="#666666" points="243.25,-344.5 243.25,-344.5 329.5,-344.5 329.5,-344.5 243.25,-344.5"/>
<polygon fill="#666666" stroke="#666666" points="243.25,-329.25 243.25,-329.25 255.25,-329.25 255.25,-329.25 243.25,-329.25"/>
<polygon fill="#666666" stroke="#666666" points="255.25,-329.25 255.25,-329.25 329.5,-329.25 329.5,-329.25 255.25,-329.25"/>
<polygon fill="none" stroke="#666666" points="243.25,-312 243.25,-361.75 329.5,-361.75 329.5,-312 243.25,-312"/>
</a>
</g>
</g>
<!-- Node3&#45;&gt;Node2 -->
<g id="edge2_Node000002_Node000003" class="edge">
<title>Node3&#45;&gt;Node2</title>
<g id="a_edge2_Node000002_Node000003"><a xlink:title=" ">
<path fill="none" stroke="#63b8ff" d="M291.09,-312.03C293.76,-298.5 297.17,-281.28 300.17,-266.08"/>
<polygon fill="none" stroke="#63b8ff" points="300.18,-266.05 297.42,-259.38 302.5,-254.27 305.26,-260.94 300.18,-266.05"/>
</a>
</g>
<text text-anchor="middle" x="322.76" y="-278.88" font-family="Helvetica,sans-Serif" font-size="10.00" fill="grey"> +elements</text>
</g>
<!-- Node4 -->
<g id="Node000004" class="node">
<title>Node4</title>
<g id="a_Node000004"><a xlink:title=" ">
<polygon fill="white" stroke="none" points="110.12,-531 22.62,-531 22.62,-470 110.12,-470 110.12,-531"/>
<text text-anchor="start" x="26.62" y="-517.5" font-family="Helvetica,sans-Serif" font-size="10.00">std::unordered_set</text>
<text text-anchor="start" x="37.12" y="-506.25" font-family="Helvetica,sans-Serif" font-size="10.00">&lt; std::string &gt;</text>
<text text-anchor="start" x="64.88" y="-491" font-family="Helvetica,sans-Serif" font-size="10.00"> </text>
<text text-anchor="start" x="64.88" y="-475.75" font-family="Helvetica,sans-Serif" font-size="10.00"> </text>
<polygon fill="#666666" stroke="#666666" points="22.62,-502.5 22.62,-502.5 110.12,-502.5 110.12,-502.5 22.62,-502.5"/>
<polygon fill="#666666" stroke="#666666" points="22.62,-487.25 22.62,-487.25 110.12,-487.25 110.12,-487.25 22.62,-487.25"/>
<polygon fill="none" stroke="#666666" points="22.62,-470 22.62,-531 110.12,-531 110.12,-470 22.62,-470"/>
</a>
</g>
</g>
<!-- Node4&#45;&gt;Node1 -->
<g id="edge12_Node000001_Node000004" class="edge">
<title>Node4&#45;&gt;Node1</title>
<g id="a_edge12_Node000001_Node000004"><a xlink:title=" ">
<path fill="none" stroke="#63b8ff" d="M63.53,-470.14C61.9,-445.7 61.23,-410.11 67.38,-379.75 82.45,-305.34 115.92,-226.15 144.3,-167.75"/>
<polygon fill="none" stroke="#63b8ff" points="144.21,-167.93 143.26,-160.78 149.5,-157.16 150.44,-164.31 144.21,-167.93"/>
</a>
</g>
<text text-anchor="middle" x="132.75" y="-284.5" font-family="Helvetica,sans-Serif" font-size="10.00" fill="grey"> &#45;catchment_ids</text>
<text text-anchor="middle" x="132.75" y="-273.25" font-family="Helvetica,sans-Serif" font-size="10.00" fill="grey">&#45;nexus_ids</text>
</g>
<!-- Node4&#45;&gt;Node3 -->
<g id="edge3_Node000003_Node000004" class="edge">
<title>Node4&#45;&gt;Node3</title>
<g id="a_edge3_Node000003_Node000004"><a xlink:title=" ">
<path fill="none" stroke="#63b8ff" d="M66.51,-470.23C67.3,-439.05 70.5,-392.48 82.38,-379.75 102.2,-358.5 177.56,-347.43 230.9,-342.13"/>
<polygon fill="none" stroke="#63b8ff" points="230.75,-342.14 236.35,-337.6 242.7,-341.02 237.1,-345.56 230.75,-342.14"/>
</a>
</g>
<text text-anchor="middle" x="118.38" y="-417.62" font-family="Helvetica,sans-Serif" font-size="10.00" fill="grey"> +catchment_ids</text>
<text text-anchor="middle" x="118.38" y="-406.38" font-family="Helvetica,sans-Serif" font-size="10.00" fill="grey">+nexus_ids</text>
</g>
<!-- Node5 -->
<g id="Node000005" class="node">
<title>Node5</title>
<g id="a_Node000005"><a xlink:title=" ">
<polygon fill="white" stroke="none" points="178.38,-639.25 128.38,-639.25 128.38,-589.5 178.38,-589.5 178.38,-639.25"/>
<text text-anchor="start" x="132.38" y="-625.75" font-family="Helvetica,sans-Serif" font-size="10.00">std::string</text>
<text text-anchor="start" x="151.88" y="-610.5" font-family="Helvetica,sans-Serif" font-size="10.00"> </text>
<text text-anchor="start" x="151.88" y="-595.25" font-family="Helvetica,sans-Serif" font-size="10.00"> </text>
<polygon fill="#666666" stroke="#666666" points="128.38,-622 128.38,-622 178.38,-622 178.38,-622 128.38,-622"/>
<polygon fill="#666666" stroke="#666666" points="128.38,-606.75 128.38,-606.75 178.38,-606.75 178.38,-606.75 128.38,-606.75"/>
<polygon fill="none" stroke="#666666" points="128.38,-589.5 128.38,-639.25 178.38,-639.25 178.38,-589.5 128.38,-589.5"/>
</a>
</g>
</g>
<!-- Node5&#45;&gt;Node4 -->
<g id="edge4_Node000004_Node000005" class="edge">
<title>Node5&#45;&gt;Node4</title>
<g id="a_edge4_Node000004_Node000005"><a xlink:title=" ">
<path fill="none" stroke="#63b8ff" d="M146.59,-589.54C142.18,-576.7 135.53,-561.07 126.38,-549 124,-545.87 121.38,-542.83 118.59,-539.91"/>
<polygon fill="none" stroke="#63b8ff" points="118.57,-539.88 111.47,-538.62 109.9,-531.58 117,-532.84 118.57,-539.88"/>
</a>
</g>
<text text-anchor="middle" x="153.16" y="-556.38" font-family="Helvetica,sans-Serif" font-size="10.00" fill="grey"> +keys</text>
</g>
<!-- Node6 -->
<g id="Node000006" class="node">
<title>Node6</title>
<g id="a_Node000006"><a xlink:title=" ">
<polygon fill="white" stroke="none" points="195.62,-747.5 111.12,-747.5 111.12,-686.5 195.62,-686.5 195.62,-747.5"/>
<text text-anchor="start" x="115.12" y="-734" font-family="Helvetica,sans-Serif" font-size="10.00">std::basic_string&lt;</text>
<text text-anchor="start" x="138" y="-722.75" font-family="Helvetica,sans-Serif" font-size="10.00"> Char &gt;</text>
<text text-anchor="start" x="151.88" y="-707.5" font-family="Helvetica,sans-Serif" font-size="10.00"> </text>
<text text-anchor="start" x="151.88" y="-692.25" font-family="Helvetica,sans-Serif" font-size="10.00"> </text>
<polygon fill="#666666" stroke="#666666" points="111.12,-719 111.12,-719 195.62,-719 195.62,-719 111.12,-719"/>
<polygon fill="#666666" stroke="#666666" points="111.12,-703.75 111.12,-703.75 195.62,-703.75 195.62,-703.75 111.12,-703.75"/>
<polygon fill="none" stroke="#666666" points="111.12,-686.5 111.12,-747.5 195.62,-747.5 195.62,-686.5 111.12,-686.5"/>
</a>
</g>
</g>
<!-- Node6&#45;&gt;Node5 -->
<g id="edge5_Node000005_Node000006" class="edge">
<title>Node6&#45;&gt;Node5</title>
<g id="a_edge5_Node000005_Node000006"><a xlink:title=" ">
<path fill="none" stroke="#63b8ff" d="M153.38,-675.23C153.38,-662.99 153.38,-649.97 153.38,-639.2"/>
<polygon fill="none" stroke="#63b8ff" points="149.88,-675.11 153.38,-685.11 156.88,-675.11 149.88,-675.11"/>
</a>
</g>
</g>
<!-- Node7 -->
<g id="Node000007" class="node">
<title>Node7</title>
<g id="a_Node000007"><a xlink:title=" ">
<polygon fill="white" stroke="none" points="110.75,-639.25 0,-639.25 0,-589.5 110.75,-589.5 110.75,-639.25"/>
<text text-anchor="start" x="4" y="-625.75" font-family="Helvetica,sans-Serif" font-size="10.00">std::unordered_set&lt; K &gt;</text>
<text text-anchor="start" x="53.88" y="-610.5" font-family="Helvetica,sans-Serif" font-size="10.00"> </text>
<text text-anchor="start" x="53.88" y="-595.25" font-family="Helvetica,sans-Serif" font-size="10.00"> </text>
<polygon fill="#666666" stroke="#666666" points="0,-622 0,-622 110.75,-622 110.75,-622 0,-622"/>
<polygon fill="#666666" stroke="#666666" points="0,-606.75 0,-606.75 110.75,-606.75 110.75,-606.75 0,-606.75"/>
<polygon fill="none" stroke="#666666" points="0,-589.5 0,-639.25 110.75,-639.25 110.75,-589.5 0,-589.5"/>
</a>
</g>
</g>
<!-- Node7&#45;&gt;Node4 -->
<g id="edge6_Node000004_Node000007" class="edge">
<title>Node7&#45;&gt;Node4</title>
<g id="a_edge6_Node000004_Node000007"><a xlink:title=" ">
<path fill="none" stroke="orange" d="M58.8,-578.51C60.31,-563.18 62.06,-545.39 63.5,-530.77"/>
<polygon fill="orange" stroke="orange" points="55.35,-577.85 57.86,-588.14 62.32,-578.53 55.35,-577.85"/>
</a>
</g>
<text text-anchor="middle" x="91.91" y="-556.38" font-family="Helvetica,sans-Serif" font-size="10.00" fill="grey"> &lt; std::string &gt;</text>
</g>
<!-- Node8 -->
<g id="Node000008" class="node">
<title>Node8</title>
<g id="a_Node000008"><a xlink:title=" ">
<polygon fill="white" stroke="none" points="62.75,-741.88 48,-741.88 48,-692.12 62.75,-692.12 62.75,-741.88"/>
<text text-anchor="start" x="52" y="-728.38" font-family="Helvetica,sans-Serif" font-size="10.00">K</text>
<text text-anchor="start" x="53.88" y="-713.12" font-family="Helvetica,sans-Serif" font-size="10.00"> </text>
<text text-anchor="start" x="53.88" y="-697.88" font-family="Helvetica,sans-Serif" font-size="10.00"> </text>
<polygon fill="#666666" stroke="#666666" points="48,-724.62 48,-724.62 62.75,-724.62 62.75,-724.62 48,-724.62"/>
<polygon fill="#666666" stroke="#666666" points="48,-709.38 48,-709.38 62.75,-709.38 62.75,-709.38 48,-709.38"/>
<polygon fill="none" stroke="#666666" points="48,-692.12 48,-741.88 62.75,-741.88 62.75,-692.12 48,-692.12"/>
</a>
</g>
</g>
<!-- Node8&#45;&gt;Node7 -->
<g id="edge7_Node000007_Node000008" class="edge">
<title>Node8&#45;&gt;Node7</title>
<g id="a_edge7_Node000007_Node000008"><a xlink:title=" ">
<path fill="none" stroke="#63b8ff" d="M55.38,-692.15C55.38,-680.12 55.38,-665.27 55.38,-651.84"/>
<polygon fill="none" stroke="#63b8ff" points="55.38,-651.95 51.38,-645.95 55.38,-639.95 59.38,-645.95 55.38,-651.95"/>
</a>
</g>
<text text-anchor="middle" x="69.62" y="-659" font-family="Helvetica,sans-Serif" font-size="10.00" fill="grey"> +keys</text>
</g>
<!-- Node9 -->
<g id="Node000009" class="node">
<title>Node9</title>
<g id="a_Node000009"><a xlink:title=" ">
<polygon fill="white" stroke="none" points="356.12,-525.38 262.62,-525.38 262.62,-475.62 356.12,-475.62 356.12,-525.38"/>
<text text-anchor="start" x="266.62" y="-511.88" font-family="Helvetica,sans-Serif" font-size="10.00">std::vector&lt; Tuple &gt;</text>
<text text-anchor="start" x="275.56" y="-496.62" font-family="Helvetica,sans-Serif" font-size="10.00">+</text>
<text text-anchor="start" x="294.5" y="-496.62" font-family="Helvetica,sans-Serif" font-size="10.00">elements</text>
<text text-anchor="start" x="307.88" y="-481.38" font-family="Helvetica,sans-Serif" font-size="10.00"> </text>
<polygon fill="#666666" stroke="#666666" points="262.62,-508.12 262.62,-508.12 356.12,-508.12 356.12,-508.12 262.62,-508.12"/>
<polygon fill="#666666" stroke="#666666" points="262.62,-492.88 262.62,-492.88 292.5,-492.88 292.5,-492.88 262.62,-492.88"/>
<polygon fill="#666666" stroke="#666666" points="292.5,-492.88 292.5,-492.88 356.12,-492.88 356.12,-492.88 292.5,-492.88"/>
<polygon fill="none" stroke="#666666" points="262.62,-475.62 262.62,-525.38 356.12,-525.38 356.12,-475.62 262.62,-475.62"/>
</a>
</g>
</g>
<!-- Node9&#45;&gt;Node3 -->
<g id="edge8_Node000003_Node000009" class="edge">
<title>Node9&#45;&gt;Node3</title>
<g id="a_edge8_Node000003_Node000009"><a xlink:title=" ">
<path fill="none" stroke="#63b8ff" d="M296.12,-476.04C292.57,-468.59 289.21,-460.16 287.38,-452 281.62,-426.43 281.55,-396.81 282.82,-374.15"/>
<polygon fill="none" stroke="#63b8ff" points="282.81,-374.24 279.24,-367.98 283.66,-362.27 287.22,-368.54 282.81,-374.24"/>
</a>
</g>
<text text-anchor="middle" x="335.38" y="-412" font-family="Helvetica,sans-Serif" font-size="10.00" fill="grey"> +remote_connections</text>
</g>
<!-- Node10 -->
<g id="Node000010" class="node">
<title>Node10</title>
<g id="a_Node000010"><a xlink:title=" ">
<polygon fill="white" stroke="none" points="382.12,-639.25 306.62,-639.25 306.62,-589.5 382.12,-589.5 382.12,-639.25"/>
<text text-anchor="start" x="310.62" y="-625.75" font-family="Helvetica,sans-Serif" font-size="10.00">std::vector&lt; T &gt;</text>
<text text-anchor="start" x="342.88" y="-610.5" font-family="Helvetica,sans-Serif" font-size="10.00"> </text>
<text text-anchor="start" x="342.88" y="-595.25" font-family="Helvetica,sans-Serif" font-size="10.00"> </text>
<polygon fill="#666666" stroke="#666666" points="306.62,-622 306.62,-622 382.12,-622 382.12,-622 306.62,-622"/>
<polygon fill="#666666" stroke="#666666" points="306.62,-606.75 306.62,-606.75 382.12,-606.75 382.12,-606.75 306.62,-606.75"/>
<polygon fill="none" stroke="#666666" points="306.62,-589.5 306.62,-639.25 382.12,-639.25 382.12,-589.5 306.62,-589.5"/>
</a>
</g>
</g>
<!-- Node10&#45;&gt;Node2 -->
<g id="edge11_Node000002_Node000010" class="edge">
<title>Node10&#45;&gt;Node2</title>
<g id="a_edge11_Node000002_Node000010"><a xlink:title=" ">
<path fill="none" stroke="orange" d="M373.19,-580.34C374.82,-577.47 376.25,-574.51 377.38,-571.5 407.31,-491.67 395.94,-464.08 383.38,-379.75 375.96,-330 376.55,-314.45 350.38,-271.5 346.47,-265.09 341.36,-258.98 336.03,-253.5"/>
<polygon fill="orange" stroke="orange" points="370.44,-578.15 367.88,-588.43 376.29,-581.99 370.44,-578.15"/>
</a>
</g>
<text text-anchor="middle" x="431.83" y="-412" font-family="Helvetica,sans-Serif" font-size="10.00" fill="grey"> &lt; PartitionData &gt;</text>
</g>
<!-- Node10&#45;&gt;Node9 -->
<g id="edge9_Node000009_Node000010" class="edge">
<title>Node10&#45;&gt;Node9</title>
<g id="a_edge9_Node000009_Node000010"><a xlink:title=" ">
<path fill="none" stroke="orange" d="M333.55,-578.77C328.11,-561.38 321.66,-540.76 316.79,-525.19"/>
<polygon fill="orange" stroke="orange" points="330.17,-579.71 336.5,-588.2 336.85,-577.62 330.17,-579.71"/>
</a>
</g>
<text text-anchor="middle" x="352.41" y="-556.38" font-family="Helvetica,sans-Serif" font-size="10.00" fill="grey"> &lt; Tuple &gt;</text>
</g>
<!-- Node12 -->
<g id="Node000012" class="node">
<title>Node12</title>
<g id="a_Node000012"><a xlink:title=" ">
<polygon fill="white" stroke="none" points="263.5,-452 163.25,-452 163.25,-379.75 263.5,-379.75 263.5,-452"/>
<text text-anchor="start" x="167.25" y="-438.5" font-family="Helvetica,sans-Serif" font-size="10.00">std::vector&lt; std::tuple</text>
<text text-anchor="start" x="167.25" y="-427.25" font-family="Helvetica,sans-Serif" font-size="10.00">&lt; int, std::string, std</text>
<text text-anchor="start" x="190.88" y="-416" font-family="Helvetica,sans-Serif" font-size="10.00">::string &gt; &gt;</text>
<text text-anchor="start" x="177.88" y="-400.75" font-family="Helvetica,sans-Serif" font-size="10.00">+</text>
<text text-anchor="start" x="198.5" y="-400.75" font-family="Helvetica,sans-Serif" font-size="10.00">elements</text>
<text text-anchor="start" x="211.88" y="-385.5" font-family="Helvetica,sans-Serif" font-size="10.00"> </text>
<polygon fill="#666666" stroke="#666666" points="163.25,-412.25 163.25,-412.25 263.5,-412.25 263.5,-412.25 163.25,-412.25"/>
<polygon fill="#666666" stroke="#666666" points="163.25,-397 163.25,-397 196.5,-397 196.5,-397 163.25,-397"/>
<polygon fill="#666666" stroke="#666666" points="196.5,-397 196.5,-397 263.5,-397 263.5,-397 196.5,-397"/>
<polygon fill="none" stroke="#666666" points="163.25,-379.75 163.25,-452 263.5,-452 263.5,-379.75 163.25,-379.75"/>
</a>
</g>
</g>
<!-- Node10&#45;&gt;Node12 -->
<g id="edge14_Node000012_Node000010" class="edge">
<title>Node10&#45;&gt;Node12</title>
<g id="a_edge14_Node000012_Node000010"><a xlink:title=" ">
<path fill="none" stroke="orange" d="M295.52,-611.56C266.31,-607.65 231.3,-597.36 212.38,-571.5 187.17,-537.06 193.66,-485.75 202.2,-451.81"/>
<polygon fill="orange" stroke="orange" points="294.97,-615.02 305.29,-612.64 295.73,-608.06 294.97,-615.02"/>
</a>
</g>
<text text-anchor="start" x="212.38" y="-562" font-family="Helvetica,sans-Serif" font-size="10.00" fill="grey"> &lt; std::tuple&lt; int,</text>
<text text-anchor="middle" x="266.38" y="-550.75" font-family="Helvetica,sans-Serif" font-size="10.00" fill="grey"> std::string, std::string &gt; &gt;</text>
</g>
<!-- Node11 -->
<g id="Node000011" class="node">
<title>Node11</title>
<g id="a_Node000011"><a xlink:title=" ">
<polygon fill="white" stroke="none" points="351.38,-741.88 337.38,-741.88 337.38,-692.12 351.38,-692.12 351.38,-741.88"/>
<text text-anchor="start" x="341.38" y="-728.38" font-family="Helvetica,sans-Serif" font-size="10.00">T</text>
<text text-anchor="start" x="342.88" y="-713.12" font-family="Helvetica,sans-Serif" font-size="10.00"> </text>
<text text-anchor="start" x="342.88" y="-697.88" font-family="Helvetica,sans-Serif" font-size="10.00"> </text>
<polygon fill="#666666" stroke="#666666" points="337.38,-724.62 337.38,-724.62 351.38,-724.62 351.38,-724.62 337.38,-724.62"/>
<polygon fill="#666666" stroke="#666666" points="337.38,-709.38 337.38,-709.38 351.38,-709.38 351.38,-709.38 337.38,-709.38"/>
<polygon fill="none" stroke="#666666" points="337.38,-692.12 337.38,-741.88 351.38,-741.88 351.38,-692.12 337.38,-692.12"/>
</a>
</g>
</g>
<!-- Node11&#45;&gt;Node10 -->
<g id="edge10_Node000010_Node000011" class="edge">
<title>Node11&#45;&gt;Node10</title>
<g id="a_edge10_Node000010_Node000011"><a xlink:title=" ">
<path fill="none" stroke="#63b8ff" d="M344.38,-692.15C344.38,-680.12 344.38,-665.27 344.38,-651.84"/>
<polygon fill="none" stroke="#63b8ff" points="344.38,-651.95 340.38,-645.95 344.38,-639.95 348.38,-645.95 344.38,-651.95"/>
</a>
</g>
<text text-anchor="middle" x="368.38" y="-659" font-family="Helvetica,sans-Serif" font-size="10.00" fill="grey"> +elements</text>
</g>
<!-- Node12&#45;&gt;Node1 -->
<g id="edge13_Node000001_Node000012" class="edge">
<title>Node12&#45;&gt;Node1</title>
<g id="a_edge13_Node000001_Node000012"><a xlink:title=" ">
<path fill="none" stroke="#63b8ff" d="M208.17,-379.79C204.8,-355.71 200.64,-322.99 198.38,-294 195.18,-253.16 193.44,-207.84 192.49,-169.4"/>
<polygon fill="none" stroke="#63b8ff" points="192.49,-169.27 188.35,-163.37 192.22,-157.28 196.35,-163.18 192.49,-169.27"/>
</a>
</g>
<text text-anchor="middle" x="244.88" y="-278.88" font-family="Helvetica,sans-Serif" font-size="10.00" fill="grey"> &#45;remote_connections</text>
</g>
</g>
</svg>
