<?xml version="1.0" encoding="UTF-8" standalone="no"?>
<!DOCTYPE svg PUBLIC "-//W3C//DTD SVG 1.1//EN"
 "http://www.w3.org/Graphics/SVG/1.1/DTD/svg11.dtd">
<!-- Generated by graphviz version 3.0.0 (20221109.1736)
 -->
<!-- Title: HY_Catchment Pages: 1 -->
<!--zoomable 1092 -->
<svg id="main" version="1.1" xmlns="http://www.w3.org/2000/svg" xmlns:xlink="http://www.w3.org/1999/xlink" xml:space="preserve" onload="init(evt)">
<style type="text/css"><![CDATA[
.edge:hover path { stroke: red; }
.edge:hover polygon { stroke: red; fill: red; }
]]></style>
<script type="text/javascript"><![CDATA[
var edges = document.getElementsByTagName('g');
if (edges && edges.length) {
  for (var i=0;i<edges.length;i++) {
    if (edges[i].id.substr(0,4)=='edge') {
      edges[i].setAttribute('class','edge');
    }
  }
}
]]></script>
        <defs>
                <circle id="rim" cx="0" cy="0" r="7"/>
                <circle id="rim2" cx="0" cy="0" r="3.5"/>
                <g id="zoomPlus">
                        <use xlink:href="#rim" fill="#404040">
                                <set attributeName="fill" to="#808080" begin="zoomplus.mouseover" end="zoomplus.mouseout"/>
                        </use>
                        <path d="M-4,0h8M0,-4v8" fill="none" stroke="white" stroke-width="1.5" pointer-events="none"/>
                </g>
                <g id="zoomMin">
                        <use xlink:href="#rim" fill="#404040">
                                <set attributeName="fill" to="#808080" begin="zoomminus.mouseover" end="zoomminus.mouseout"/>
                        </use>
                        <path d="M-4,0h8" fill="none" stroke="white" stroke-width="1.5" pointer-events="none"/>
                </g>
                <g id="dirArrow">
                        <path fill="none" stroke="white" stroke-width="1.5" d="M0,-3.0v7 M-2.5,-0.5L0,-3.0L2.5,-0.5"/>
                </g>
               <g id="resetDef">
                       <use xlink:href="#rim2" fill="#404040">
                               <set attributeName="fill" to="#808080" begin="reset.mouseover" end="reset.mouseout"/>
                       </use>
               </g>
        </defs>

<script type="text/javascript">
var viewWidth = 894;
var viewHeight = 1092;
var sectionId = 'dynsection-1';
</script>
<script xlink:href="svgpan.js"/>
<svg id="graph" class="graph">
<g id="viewport">
<title>HY_Catchment</title>
<polygon fill="white" stroke="transparent" points="-4,4 -4,-1088 890,-1088 890,4 -4,4"/>
<!-- Node1 -->
<g id="node1" class="node">
<title>Node1</title>
<g id="a_node1"><a xlink:title=" ">
<polygon fill="#bfbfbf" stroke="black" points="259,-403.5 259,-493.5 381,-493.5 381,-403.5 259,-403.5"/>
<text text-anchor="middle" x="320" y="-481.5" font-family="Helvetica,sans-Serif" font-size="10.00">HY_Catchment</text>
<polyline fill="none" stroke="black" points="259,-474.5 381,-474.5 "/>
<text text-anchor="middle" x="320" y="-462.5" font-family="Helvetica,sans-Serif" font-size="10.00"> </text>
<polyline fill="none" stroke="black" points="259,-455.5 381,-455.5 "/>
<text text-anchor="start" x="267" y="-443.5" font-family="Helvetica,sans-Serif" font-size="10.00">+ HY_Catchment()</text>
<text text-anchor="start" x="267" y="-432.5" font-family="Helvetica,sans-Serif" font-size="10.00">+ HY_Catchment()</text>
<text text-anchor="start" x="267" y="-421.5" font-family="Helvetica,sans-Serif" font-size="10.00">+ ~HY_Catchment()</text>
<text text-anchor="start" x="267" y="-410.5" font-family="Helvetica,sans-Serif" font-size="10.00">+ get_outflow_nexuses()</text>
</a>
</g>
</g>
<!-- Node5 -->
<g id="node5" class="node">
<title>Node5</title>
<g id="a_node5"><a xlink:title=" ">
<polygon fill="white" stroke="black" points="444.5,-276.5 444.5,-344.5 547.5,-344.5 547.5,-276.5 444.5,-276.5"/>
<text text-anchor="start" x="452.5" y="-332.5" font-family="Helvetica,sans-Serif" font-size="10.00">std::shared_ptr&lt; HY</text>
<text text-anchor="middle" x="496" y="-321.5" font-family="Helvetica,sans-Serif" font-size="10.00">_Catchment &gt;</text>
<polyline fill="none" stroke="black" points="444.5,-314.5 547.5,-314.5 "/>
<text text-anchor="middle" x="496" y="-302.5" font-family="Helvetica,sans-Serif" font-size="10.00"> </text>
<polyline fill="none" stroke="black" points="444.5,-295.5 547.5,-295.5 "/>
<text text-anchor="start" x="452.5" y="-283.5" font-family="Helvetica,sans-Serif" font-size="10.00">+ operator&#45;&gt;()</text>
</a>
</g>
</g>
<!-- Node1&#45;&gt;Node5 -->
<g id="edge5" class="edge">
<title>Node1&#45;&gt;Node5</title>
<path fill="none" stroke="#404040" d="M377.14,-403.34C398.46,-386.87 422.54,-368.26 443.43,-352.13"/>
<polygon fill="none" stroke="#404040" points="443.59,-352 445.89,-345.17 453.08,-344.66 450.78,-351.5 443.59,-352"/>
<text text-anchor="middle" x="438" y="-371.5" font-family="Helvetica,sans-Serif" font-size="10.00"> +ptr</text>
</g>
<!-- Node2 -->
<g id="node2" class="node">
<title>Node2</title>
<g id="a_node2"><a xlink:href="class_h_y___hydro_feature.html" target="_top" xlink:title=" ">
<polygon fill="white" stroke="black" points="0,-607.5 0,-675.5 114,-675.5 114,-607.5 0,-607.5"/>
<text text-anchor="middle" x="57" y="-663.5" font-family="Helvetica,sans-Serif" font-size="10.00">HY_HydroFeature</text>
<polyline fill="none" stroke="black" points="0,-656.5 114,-656.5 "/>
<text text-anchor="middle" x="57" y="-644.5" font-family="Helvetica,sans-Serif" font-size="10.00"> </text>
<polyline fill="none" stroke="black" points="0,-637.5 114,-637.5 "/>
<text text-anchor="start" x="8" y="-625.5" font-family="Helvetica,sans-Serif" font-size="10.00">+ HY_HydroFeature()</text>
<text text-anchor="start" x="8" y="-614.5" font-family="Helvetica,sans-Serif" font-size="10.00">+ ~HY_HydroFeature()</text>
</a>
</g>
</g>
<!-- Node2&#45;&gt;Node1 -->
<g id="edge1" class="edge">
<title>Node2&#45;&gt;Node1</title>
<path fill="none" stroke="midnightblue" d="M73.9,-598.08C87.03,-570.07 107.77,-534.53 136,-512 171.47,-483.7 220.46,-467.88 258.97,-459.25"/>
<polygon fill="none" stroke="midnightblue" points="70.68,-596.7 69.74,-607.25 77.06,-599.59 70.68,-596.7"/>
</g>
<!-- Node3 -->
<g id="node3" class="node">
<title>Node3</title>
<g id="a_node3"><a xlink:title=" ">
<polygon fill="white" stroke="black" points="332.5,-0.5 332.5,-68.5 457.5,-68.5 457.5,-0.5 332.5,-0.5"/>
<text text-anchor="start" x="340.5" y="-56.5" font-family="Helvetica,sans-Serif" font-size="10.00">std::shared_ptr&lt; HY</text>
<text text-anchor="middle" x="395" y="-45.5" font-family="Helvetica,sans-Serif" font-size="10.00">_CatchmentRealization &gt;</text>
<polyline fill="none" stroke="black" points="332.5,-38.5 457.5,-38.5 "/>
<text text-anchor="middle" x="395" y="-26.5" font-family="Helvetica,sans-Serif" font-size="10.00"> </text>
<polyline fill="none" stroke="black" points="332.5,-19.5 457.5,-19.5 "/>
<text text-anchor="start" x="340.5" y="-7.5" font-family="Helvetica,sans-Serif" font-size="10.00">+ operator&#45;&gt;()</text>
</a>
</g>
</g>
<!-- Node3&#45;&gt;Node1 -->
<g id="edge2" class="edge">
<title>Node3&#45;&gt;Node1</title>
<path fill="none" stroke="#404040" d="M379.52,-68.64C361.35,-109.52 332.27,-181.64 321,-247 312.69,-295.19 313.2,-350.86 315.35,-391.29"/>
<polygon fill="none" stroke="#404040" points="315.35,-391.35 319.7,-397.1 316.06,-403.33 311.71,-397.57 315.35,-391.35"/>
<text text-anchor="middle" x="347" y="-250" font-family="Helvetica,sans-Serif" font-size="10.00"> +realization</text>
</g>
<!-- Node4 -->
<g id="node4" class="node">
<title>Node4</title>
<g id="a_node4"><a xlink:href="class_h_y___catchment_realization.html" target="_top" xlink:title=" ">
<polygon fill="white" stroke="black" points="476,-116.5 476,-228.5 626,-228.5 626,-116.5 476,-116.5"/>
<text text-anchor="middle" x="551" y="-216.5" font-family="Helvetica,sans-Serif" font-size="10.00">HY_CatchmentRealization</text>
<polyline fill="none" stroke="black" points="476,-209.5 626,-209.5 "/>
<text text-anchor="start" x="484" y="-197.5" font-family="Helvetica,sans-Serif" font-size="10.00"># id_number</text>
<polyline fill="none" stroke="black" points="476,-190.5 626,-190.5 "/>
<text text-anchor="start" x="484" y="-178.5" font-family="Helvetica,sans-Serif" font-size="10.00">+ HY_CatchmentRealization()</text>
<text text-anchor="start" x="484" y="-167.5" font-family="Helvetica,sans-Serif" font-size="10.00">+ HY_CatchmentRealization()</text>
<text text-anchor="start" x="484" y="-156.5" font-family="Helvetica,sans-Serif" font-size="10.00">+ ~HY_CatchmentRealization()</text>
<text text-anchor="start" x="484" y="-145.5" font-family="Helvetica,sans-Serif" font-size="10.00">+ get_response()</text>
<text text-anchor="start" x="484" y="-134.5" font-family="Helvetica,sans-Serif" font-size="10.00"># get_catchment_id()</text>
<text text-anchor="start" x="484" y="-123.5" font-family="Helvetica,sans-Serif" font-size="10.00"># set_catchment_id()</text>
</a>
</g>
</g>
<!-- Node4&#45;&gt;Node3 -->
<g id="edge3" class="edge">
<title>Node4&#45;&gt;Node3</title>
<path fill="none" stroke="#404040" d="M487.55,-116.18C472.33,-102.91 456.34,-88.97 442.01,-76.48"/>
<polygon fill="none" stroke="#404040" points="441.91,-76.39 434.76,-75.47 432.86,-68.51 440.01,-69.44 441.91,-76.39"/>
<text text-anchor="middle" x="473" y="-90" font-family="Helvetica,sans-Serif" font-size="10.00"> +ptr</text>
</g>
<!-- Node5&#45;&gt;Node4 -->
<g id="edge4" class="edge">
<title>Node5&#45;&gt;Node4</title>
<path fill="none" stroke="#404040" d="M519.42,-276.27C522.96,-270.36 526.32,-264.13 529,-258 531.44,-252.41 533.66,-246.5 535.67,-240.49"/>
<polygon fill="none" stroke="#404040" points="535.71,-240.36 533.66,-233.45 539.26,-228.9 541.3,-235.81 535.71,-240.36"/>
<text text-anchor="middle" x="578" y="-250" font-family="Helvetica,sans-Serif" font-size="10.00"> #realized_catchment</text>
</g>
<!-- Node6 -->
<g id="node6" class="node">
<title>Node6</title>
<g id="a_node6"><a xlink:title=" ">
<polygon fill="white" stroke="black" points="469.5,-420 469.5,-477 572.5,-477 572.5,-420 469.5,-420"/>
<text text-anchor="middle" x="521" y="-465" font-family="Helvetica,sans-Serif" font-size="10.00">std::shared_ptr&lt; T &gt;</text>
<polyline fill="none" stroke="black" points="469.5,-458 572.5,-458 "/>
<text text-anchor="middle" x="521" y="-446" font-family="Helvetica,sans-Serif" font-size="10.00"> </text>
<polyline fill="none" stroke="black" points="469.5,-439 572.5,-439 "/>
<text text-anchor="start" x="477.5" y="-427" font-family="Helvetica,sans-Serif" font-size="10.00">+ operator&#45;&gt;()</text>
</a>
</g>
</g>
<!-- Node6&#45;&gt;Node3 -->
<g id="edge13" class="edge">
<title>Node6&#45;&gt;Node3</title>
<path fill="none" stroke="orange" d="M485.2,-412.37C452.33,-377.05 406.59,-319.18 392,-258 376.36,-192.43 383.44,-112.87 389.53,-68.86"/>
<polygon fill="orange" stroke="orange" points="483,-415.14 492.42,-419.99 488.08,-410.33 483,-415.14"/>
<text text-anchor="middle" x="458.5" y="-250" font-family="Helvetica,sans-Serif" font-size="10.00"> &lt; HY_CatchmentRealization &gt;</text>
</g>
<!-- Node6&#45;&gt;Node5 -->
<g id="edge6" class="edge">
<title>Node6&#45;&gt;Node5</title>
<path fill="none" stroke="orange" d="M504.33,-410.47C501.32,-402.24 498.63,-393.45 497,-385 494.49,-371.97 493.86,-357.39 493.99,-344.68"/>
<polygon fill="orange" stroke="orange" points="501.07,-411.75 507.95,-419.81 507.6,-409.22 501.07,-411.75"/>
<text text-anchor="middle" x="540" y="-371.5" font-family="Helvetica,sans-Serif" font-size="10.00"> &lt; HY_Catchment &gt;</text>
</g>
<!-- Node8 -->
<g id="node8" class="node">
<title>Node8</title>
<g id="a_node8"><a xlink:title=" ">
<polygon fill="white" stroke="black" points="588,-276.5 588,-344.5 744,-344.5 744,-276.5 588,-276.5"/>
<text text-anchor="start" x="596" y="-332.5" font-family="Helvetica,sans-Serif" font-size="10.00">std::shared_ptr&lt; data</text>
<text text-anchor="middle" x="666" y="-321.5" font-family="Helvetica,sans-Serif" font-size="10.00">_access::GenericDataProvider &gt;</text>
<polyline fill="none" stroke="black" points="588,-314.5 744,-314.5 "/>
<text text-anchor="middle" x="666" y="-302.5" font-family="Helvetica,sans-Serif" font-size="10.00"> </text>
<polyline fill="none" stroke="black" points="588,-295.5 744,-295.5 "/>
<text text-anchor="start" x="596" y="-283.5" font-family="Helvetica,sans-Serif" font-size="10.00">+ operator&#45;&gt;()</text>
</a>
</g>
</g>
<!-- Node6&#45;&gt;Node8 -->
<g id="edge12" class="edge">
<title>Node6&#45;&gt;Node8</title>
<path fill="none" stroke="orange" d="M556.44,-412.63C565.24,-403.74 574.56,-394.11 583,-385 591.78,-375.52 592.71,-371.98 602,-363 608.46,-356.76 615.62,-350.47 622.74,-344.54"/>
<polygon fill="orange" stroke="orange" points="553.77,-410.34 549.2,-419.9 558.73,-415.28 553.77,-410.34"/>
<text text-anchor="start" x="602" y="-377" font-family="Helvetica,sans-Serif" font-size="10.00"> &lt; data_access::GenericData</text>
<text text-anchor="middle" x="664.5" y="-366" font-family="Helvetica,sans-Serif" font-size="10.00">Provider &gt;</text>
</g>
<!-- Node7 -->
<g id="node7" class="node">
<title>Node7</title>
<g id="a_node7"><a xlink:title=" ">
<polygon fill="white" stroke="black" points="498.5,-1021 498.5,-1078 527.5,-1078 527.5,-1021 498.5,-1021"/>
<text text-anchor="middle" x="513" y="-1066" font-family="Helvetica,sans-Serif" font-size="10.00">T</text>
<polyline fill="none" stroke="black" points="498.5,-1059 527.5,-1059 "/>
<text text-anchor="middle" x="513" y="-1047" font-family="Helvetica,sans-Serif" font-size="10.00"> </text>
<polyline fill="none" stroke="black" points="498.5,-1040 527.5,-1040 "/>
<text text-anchor="middle" x="513" y="-1028" font-family="Helvetica,sans-Serif" font-size="10.00"> </text>
</a>
</g>
</g>
<!-- Node7&#45;&gt;Node6 -->
<g id="edge7" class="edge">
<title>Node7&#45;&gt;Node6</title>
<path fill="none" stroke="#404040" d="M524.56,-1020.89C527.22,-1013.28 529.65,-1004.94 531,-997 531.82,-992.18 531.03,-990.89 531,-986 529.89,-793.1 531.81,-744.81 526,-552 525.38,-531.35 524.29,-508.39 523.29,-489.44"/>
<polygon fill="none" stroke="#404040" points="523.29,-489.31 518.97,-483.54 522.64,-477.33 526.96,-483.11 523.29,-489.31"/>
<text text-anchor="middle" x="540" y="-757.5" font-family="Helvetica,sans-Serif" font-size="10.00"> +ptr</text>
</g>
<!-- Node15 -->
<g id="node15" class="node">
<title>Node15</title>
<g id="a_node15"><a xlink:title=" ">
<polygon fill="white" stroke="black" points="413,-850 413,-907 497,-907 497,-850 413,-850"/>
<text text-anchor="middle" x="455" y="-895" font-family="Helvetica,sans-Serif" font-size="10.00">std::vector&lt; T &gt;</text>
<polyline fill="none" stroke="black" points="413,-888 497,-888 "/>
<text text-anchor="middle" x="455" y="-876" font-family="Helvetica,sans-Serif" font-size="10.00"> </text>
<polyline fill="none" stroke="black" points="413,-869 497,-869 "/>
<text text-anchor="middle" x="455" y="-857" font-family="Helvetica,sans-Serif" font-size="10.00"> </text>
</a>
</g>
</g>
<!-- Node7&#45;&gt;Node15 -->
<g id="edge19" class="edge">
<title>Node7&#45;&gt;Node15</title>
<path fill="none" stroke="#404040" d="M498.45,-1027.74C492.63,-1018.65 486.3,-1007.64 482,-997 471.9,-971.99 465.13,-942.4 460.89,-919.16"/>
<polygon fill="none" stroke="#404040" points="460.89,-919.14 455.93,-913.91 458.85,-907.31 463.81,-912.55 460.89,-919.14"/>
<text text-anchor="middle" x="506.5" y="-989" font-family="Helvetica,sans-Serif" font-size="10.00"> +elements</text>
</g>
<!-- Node8&#45;&gt;Node4 -->
<g id="edge8" class="edge">
<title>Node8&#45;&gt;Node4</title>
<path fill="none" stroke="#404040" d="M648.02,-276.3C642.14,-266.5 635.24,-256 628,-247 625.51,-243.9 622.89,-240.81 620.19,-237.74"/>
<polygon fill="none" stroke="#404040" points="619.96,-237.48 612.96,-235.74 611.87,-228.62 618.87,-230.35 619.96,-237.48"/>
<text text-anchor="middle" x="653.5" y="-250" font-family="Helvetica,sans-Serif" font-size="10.00"> #forcing</text>
</g>
<!-- Node9 -->
<g id="node9" class="node">
<title>Node9</title>
<g id="a_node9"><a xlink:href="classdata__access_1_1_generic_data_provider.html" target="_top" xlink:title=" ">
<polygon fill="white" stroke="black" points="687.5,-414.5 687.5,-482.5 818.5,-482.5 818.5,-414.5 687.5,-414.5"/>
<text text-anchor="start" x="695.5" y="-470.5" font-family="Helvetica,sans-Serif" font-size="10.00">data_access::GenericData</text>
<text text-anchor="middle" x="753" y="-459.5" font-family="Helvetica,sans-Serif" font-size="10.00">Provider</text>
<polyline fill="none" stroke="black" points="687.5,-452.5 818.5,-452.5 "/>
<text text-anchor="middle" x="753" y="-440.5" font-family="Helvetica,sans-Serif" font-size="10.00"> </text>
<polyline fill="none" stroke="black" points="687.5,-433.5 818.5,-433.5 "/>
<text text-anchor="middle" x="753" y="-421.5" font-family="Helvetica,sans-Serif" font-size="10.00"> </text>
</a>
</g>
</g>
<!-- Node9&#45;&gt;Node8 -->
<g id="edge9" class="edge">
<title>Node9&#45;&gt;Node8</title>
<path fill="none" stroke="#404040" d="M749.38,-414.2C746.39,-397.76 740.93,-378.24 731,-363 728.84,-359.68 726.39,-356.48 723.74,-353.42"/>
<polygon fill="none" stroke="#404040" points="723.61,-353.27 716.56,-351.72 715.29,-344.62 722.33,-346.18 723.61,-353.27"/>
<text text-anchor="middle" x="751" y="-371.5" font-family="Helvetica,sans-Serif" font-size="10.00"> +ptr</text>
</g>
<!-- Node10 -->
<g id="node10" class="node">
<title>Node10</title>
<g id="a_node10"><a xlink:href="classdata__access_1_1_data_provider.html" target="_top" xlink:title=" ">
<polygon fill="white" stroke="black" points="657.5,-552.5 657.5,-730.5 848.5,-730.5 848.5,-552.5 657.5,-552.5"/>
<text text-anchor="start" x="665.5" y="-718.5" font-family="Helvetica,sans-Serif" font-size="10.00">data_access::DataProvider</text>
<text text-anchor="middle" x="753" y="-707.5" font-family="Helvetica,sans-Serif" font-size="10.00">&lt; double, CatchmentAggrDataSelector &gt;</text>
<polyline fill="none" stroke="black" points="657.5,-700.5 848.5,-700.5 "/>
<text text-anchor="middle" x="753" y="-688.5" font-family="Helvetica,sans-Serif" font-size="10.00"> </text>
<polyline fill="none" stroke="black" points="657.5,-681.5 848.5,-681.5 "/>
<text text-anchor="start" x="665.5" y="-669.5" font-family="Helvetica,sans-Serif" font-size="10.00">+ ~DataProvider()</text>
<text text-anchor="start" x="665.5" y="-658.5" font-family="Helvetica,sans-Serif" font-size="10.00">+ get_avaliable_variable</text>
<text text-anchor="start" x="665.5" y="-647.5" font-family="Helvetica,sans-Serif" font-size="10.00">_names()</text>
<text text-anchor="start" x="665.5" y="-636.5" font-family="Helvetica,sans-Serif" font-size="10.00">+ get_data_start_time()</text>
<text text-anchor="start" x="665.5" y="-625.5" font-family="Helvetica,sans-Serif" font-size="10.00">+ get_data_stop_time()</text>
<text text-anchor="start" x="665.5" y="-614.5" font-family="Helvetica,sans-Serif" font-size="10.00">+ record_duration()</text>
<text text-anchor="start" x="665.5" y="-603.5" font-family="Helvetica,sans-Serif" font-size="10.00">+ get_ts_index_for_time()</text>
<text text-anchor="start" x="665.5" y="-592.5" font-family="Helvetica,sans-Serif" font-size="10.00">+ get_value()</text>
<text text-anchor="start" x="665.5" y="-581.5" font-family="Helvetica,sans-Serif" font-size="10.00">+ get_values()</text>
<text text-anchor="start" x="665.5" y="-570.5" font-family="Helvetica,sans-Serif" font-size="10.00">+ is_property_sum_over</text>
<text text-anchor="start" x="665.5" y="-559.5" font-family="Helvetica,sans-Serif" font-size="10.00">_time_step()</text>
</a>
</g>
</g>
<!-- Node10&#45;&gt;Node9 -->
<g id="edge10" class="edge">
<title>Node10&#45;&gt;Node9</title>
<path fill="none" stroke="midnightblue" d="M753,-542.07C753,-520.59 753,-499.31 753,-482.57"/>
<polygon fill="none" stroke="midnightblue" points="749.5,-542.27 753,-552.27 756.5,-542.27 749.5,-542.27"/>
</g>
<!-- Node11 -->
<g id="node11" class="node">
<title>Node11</title>
<g id="a_node11"><a xlink:href="classdata__access_1_1_data_provider.html" target="_top" xlink:title=" ">
<polygon fill="white" stroke="black" points="681.5,-789.5 681.5,-967.5 824.5,-967.5 824.5,-789.5 681.5,-789.5"/>
<text text-anchor="start" x="689.5" y="-955.5" font-family="Helvetica,sans-Serif" font-size="10.00">data_access::DataProvider</text>
<text text-anchor="middle" x="753" y="-944.5" font-family="Helvetica,sans-Serif" font-size="10.00">&lt; data_type, selection_type &gt;</text>
<polyline fill="none" stroke="black" points="681.5,-937.5 824.5,-937.5 "/>
<text text-anchor="middle" x="753" y="-925.5" font-family="Helvetica,sans-Serif" font-size="10.00"> </text>
<polyline fill="none" stroke="black" points="681.5,-918.5 824.5,-918.5 "/>
<text text-anchor="start" x="689.5" y="-906.5" font-family="Helvetica,sans-Serif" font-size="10.00">+ ~DataProvider()</text>
<text text-anchor="start" x="689.5" y="-895.5" font-family="Helvetica,sans-Serif" font-size="10.00">+ get_avaliable_variable</text>
<text text-anchor="start" x="689.5" y="-884.5" font-family="Helvetica,sans-Serif" font-size="10.00">_names()</text>
<text text-anchor="start" x="689.5" y="-873.5" font-family="Helvetica,sans-Serif" font-size="10.00">+ get_data_start_time()</text>
<text text-anchor="start" x="689.5" y="-862.5" font-family="Helvetica,sans-Serif" font-size="10.00">+ get_data_stop_time()</text>
<text text-anchor="start" x="689.5" y="-851.5" font-family="Helvetica,sans-Serif" font-size="10.00">+ record_duration()</text>
<text text-anchor="start" x="689.5" y="-840.5" font-family="Helvetica,sans-Serif" font-size="10.00">+ get_ts_index_for_time()</text>
<text text-anchor="start" x="689.5" y="-829.5" font-family="Helvetica,sans-Serif" font-size="10.00">+ get_value()</text>
<text text-anchor="start" x="689.5" y="-818.5" font-family="Helvetica,sans-Serif" font-size="10.00">+ get_values()</text>
<text text-anchor="start" x="689.5" y="-807.5" font-family="Helvetica,sans-Serif" font-size="10.00">+ is_property_sum_over</text>
<text text-anchor="start" x="689.5" y="-796.5" font-family="Helvetica,sans-Serif" font-size="10.00">_time_step()</text>
</a>
</g>
</g>
<!-- Node11&#45;&gt;Node10 -->
<g id="edge11" class="edge">
<title>Node11&#45;&gt;Node10</title>
<path fill="none" stroke="orange" d="M753,-778.91C753,-762.94 753,-746.49 753,-730.78"/>
<polygon fill="orange" stroke="orange" points="749.5,-779.33 753,-789.33 756.5,-779.33 749.5,-779.33"/>
<text text-anchor="start" x="753" y="-763" font-family="Helvetica,sans-Serif" font-size="10.00"> &lt; double, CatchmentAggrData</text>
<text text-anchor="middle" x="819.5" y="-752" font-family="Helvetica,sans-Serif" font-size="10.00">Selector &gt;</text>
</g>
<!-- Node12 -->
<g id="node12" class="node">
<title>Node12</title>
<g id="a_node12"><a xlink:title=" ">
<polygon fill="white" stroke="black" points="211.5,-850 211.5,-907 270.5,-907 270.5,-850 211.5,-850"/>
<text text-anchor="middle" x="241" y="-895" font-family="Helvetica,sans-Serif" font-size="10.00">std::string</text>
<polyline fill="none" stroke="black" points="211.5,-888 270.5,-888 "/>
<text text-anchor="middle" x="241" y="-876" font-family="Helvetica,sans-Serif" font-size="10.00"> </text>
<polyline fill="none" stroke="black" points="211.5,-869 270.5,-869 "/>
<text text-anchor="middle" x="241" y="-857" font-family="Helvetica,sans-Serif" font-size="10.00"> </text>
</a>
</g>
</g>
<!-- Node12&#45;&gt;Node1 -->
<g id="edge14" class="edge">
<title>Node12&#45;&gt;Node1</title>
<path fill="none" stroke="#404040" d="M219.83,-849.92C199.68,-821.78 170.73,-775.98 159,-731 138.92,-654.02 120.72,-621.74 159,-552 178.05,-517.29 214.39,-492.65 247.74,-476.24"/>
<polygon fill="none" stroke="#404040" points="248.04,-476.1 251.77,-469.93 258.9,-470.99 255.17,-477.17 248.04,-476.1"/>
<text text-anchor="middle" x="208.5" y="-661" font-family="Helvetica,sans-Serif" font-size="10.00"> &#45;conjoint_catchment</text>
<text text-anchor="middle" x="208.5" y="-650" font-family="Helvetica,sans-Serif" font-size="10.00">&#45;containing_catchment</text>
<text text-anchor="middle" x="208.5" y="-639" font-family="Helvetica,sans-Serif" font-size="10.00">&#45;id</text>
<text text-anchor="middle" x="208.5" y="-628" font-family="Helvetica,sans-Serif" font-size="10.00">&#45;lower_catchment</text>
<text text-anchor="middle" x="208.5" y="-617" font-family="Helvetica,sans-Serif" font-size="10.00">&#45;upper_catchment</text>
</g>
<!-- Node14 -->
<g id="node14" class="node">
<title>Node14</title>
<g id="a_node14"><a xlink:title=" ">
<polygon fill="white" stroke="black" points="267,-613 267,-670 373,-670 373,-613 267,-613"/>
<text text-anchor="middle" x="320" y="-658" font-family="Helvetica,sans-Serif" font-size="10.00">std::vector&lt; Nexus &gt;</text>
<polyline fill="none" stroke="black" points="267,-651 373,-651 "/>
<text text-anchor="middle" x="320" y="-639" font-family="Helvetica,sans-Serif" font-size="10.00"> </text>
<polyline fill="none" stroke="black" points="267,-632 373,-632 "/>
<text text-anchor="middle" x="320" y="-620" font-family="Helvetica,sans-Serif" font-size="10.00"> </text>
</a>
</g>
</g>
<!-- Node12&#45;&gt;Node14 -->
<g id="edge17" class="edge">
<title>Node12&#45;&gt;Node14</title>
<path fill="none" stroke="#404040" d="M236.42,-849.88C233.12,-823.31 230.95,-782.35 242,-749 243.35,-744.93 269.84,-709.14 291.58,-680.15"/>
<polygon fill="none" stroke="#404040" points="291.81,-679.84 292.22,-672.64 299.02,-670.25 298.61,-677.45 291.81,-679.84"/>
<text text-anchor="middle" x="266.5" y="-757.5" font-family="Helvetica,sans-Serif" font-size="10.00"> +elements</text>
</g>
<!-- Node16 -->
<g id="node16" class="node">
<title>Node16</title>
<g id="a_node16"><a xlink:title=" ">
<polygon fill="white" stroke="black" points="391.5,-613 391.5,-670 516.5,-670 516.5,-613 391.5,-613"/>
<text text-anchor="middle" x="454" y="-658" font-family="Helvetica,sans-Serif" font-size="10.00">std::vector&lt; Catchment &gt;</text>
<polyline fill="none" stroke="black" points="391.5,-651 516.5,-651 "/>
<text text-anchor="middle" x="454" y="-639" font-family="Helvetica,sans-Serif" font-size="10.00"> </text>
<polyline fill="none" stroke="black" points="391.5,-632 516.5,-632 "/>
<text text-anchor="middle" x="454" y="-620" font-family="Helvetica,sans-Serif" font-size="10.00"> </text>
</a>
</g>
</g>
<!-- Node12&#45;&gt;Node16 -->
<g id="edge21" class="edge">
<title>Node12&#45;&gt;Node16</title>
<path fill="none" stroke="#404040" d="M253.62,-849.8C268.15,-820.8 294.66,-775.82 330,-749 349.48,-734.22 361.96,-745.02 382,-731 401.13,-717.62 417.91,-697.8 430.44,-680.3"/>
<polygon fill="none" stroke="#404040" points="430.5,-680.21 430.62,-673 437.32,-670.34 437.2,-677.55 430.5,-680.21"/>
<text text-anchor="middle" x="354.5" y="-757.5" font-family="Helvetica,sans-Serif" font-size="10.00"> +elements</text>
</g>
<!-- Node13 -->
<g id="node13" class="node">
<title>Node13</title>
<g id="a_node13"><a xlink:title=" ">
<polygon fill="white" stroke="black" points="194.5,-1015.5 194.5,-1083.5 287.5,-1083.5 287.5,-1015.5 194.5,-1015.5"/>
<text text-anchor="start" x="202.5" y="-1071.5" font-family="Helvetica,sans-Serif" font-size="10.00">std::basic_string&lt;</text>
<text text-anchor="middle" x="241" y="-1060.5" font-family="Helvetica,sans-Serif" font-size="10.00"> Char &gt;</text>
<polyline fill="none" stroke="black" points="194.5,-1053.5 287.5,-1053.5 "/>
<text text-anchor="middle" x="241" y="-1041.5" font-family="Helvetica,sans-Serif" font-size="10.00"> </text>
<polyline fill="none" stroke="black" points="194.5,-1034.5 287.5,-1034.5 "/>
<text text-anchor="middle" x="241" y="-1022.5" font-family="Helvetica,sans-Serif" font-size="10.00"> </text>
</a>
</g>
</g>
<!-- Node13&#45;&gt;Node12 -->
<g id="edge15" class="edge">
<title>Node13&#45;&gt;Node12</title>
<path fill="none" stroke="midnightblue" d="M241,-1005.06C241,-974.23 241,-933.78 241,-907.23"/>
<polygon fill="none" stroke="midnightblue" points="237.5,-1005.11 241,-1015.11 244.5,-1005.11 237.5,-1005.11"/>
</g>
<!-- Node14&#45;&gt;Node1 -->
<g id="edge16" class="edge">
<title>Node14&#45;&gt;Node1</title>
<path fill="none" stroke="#404040" d="M320,-612.73C320,-584.78 320,-540.88 320,-505.64"/>
<polygon fill="none" stroke="#404040" points="320,-505.58 316,-499.58 320,-493.58 324,-499.58 320,-505.58"/>
<text text-anchor="middle" x="340" y="-526" font-family="Helvetica,sans-Serif" font-size="10.00"> &#45;inflows</text>
<text text-anchor="middle" x="340" y="-515" font-family="Helvetica,sans-Serif" font-size="10.00">&#45;outflows</text>
</g>
<!-- Node15&#45;&gt;Node14 -->
<g id="edge18" class="edge">
<title>Node15&#45;&gt;Node14</title>
<path fill="none" stroke="orange" d="M434,-840.94C406.91,-793.79 360.39,-712.81 336,-670.34"/>
<polygon fill="orange" stroke="orange" points="430.97,-842.69 438.98,-849.62 437.04,-839.21 430.97,-842.69"/>
<text text-anchor="middle" x="414.5" y="-757.5" font-family="Helvetica,sans-Serif" font-size="10.00"> &lt; Nexus &gt;</text>
</g>
<!-- Node15&#45;&gt;Node16 -->
<g id="edge22" class="edge">
<title>Node15&#45;&gt;Node16</title>
<path fill="none" stroke="orange" d="M454.84,-839.46C454.64,-792.11 454.3,-712.37 454.12,-670.34"/>
<polygon fill="orange" stroke="orange" points="451.34,-839.63 454.88,-849.62 458.34,-839.6 451.34,-839.63"/>
<text text-anchor="middle" x="487.5" y="-757.5" font-family="Helvetica,sans-Serif" font-size="10.00"> &lt; Catchment &gt;</text>
</g>
<!-- Node16&#45;&gt;Node1 -->
<g id="edge20" class="edge">
<title>Node16&#45;&gt;Node1</title>
<path fill="none" stroke="#404040" d="M434.71,-612.91C416.5,-586.88 388.42,-546.77 364,-512 362.03,-509.2 360.02,-506.33 357.98,-503.43"/>
<polygon fill="none" stroke="#404040" points="357.93,-503.35 351.2,-500.75 351.02,-493.54 357.75,-496.15 357.93,-503.35"/>
<text text-anchor="middle" x="430" y="-520.5" font-family="Helvetica,sans-Serif" font-size="10.00"> &#45;contained_catchments</text>
</g>
</g>
</svg>
        <g id="navigator" transform="translate(0 0)" fill="#404254">
                <rect fill="#f2f5e9" fill-opacity="0.5" stroke="#606060" stroke-width=".5" x="0" y="0" width="60" height="60"/>
                <use id="zoomplus" xlink:href="#zoomPlus" x="17" y="9" onmousedown="handleZoom(evt,'in')"/>
                <use id="zoomminus" xlink:href="#zoomMin" x="42" y="9" onmousedown="handleZoom(evt,'out')"/>
                <use id="reset" xlink:href="#resetDef" x="30" y="36" onmousedown="handleReset()"/>
                <g id="arrowUp" xlink:href="#dirArrow" transform="translate(30 24)" onmousedown="handlePan(0,-1)">
                  <use xlink:href="#rim" fill="#404040">
                        <set attributeName="fill" to="#808080" begin="arrowUp.mouseover" end="arrowUp.mouseout"/>
                  </use>
                  <path fill="none" stroke="white" stroke-width="1.5" d="M0,-3.0v7 M-2.5,-0.5L0,-3.0L2.5,-0.5"/>
                </g>
                <g id="arrowRight" xlink:href="#dirArrow" transform="rotate(90) translate(36 -43)" onmousedown="handlePan(1,0)">
                  <use xlink:href="#rim" fill="#404040">
                        <set attributeName="fill" to="#808080" begin="arrowRight.mouseover" end="arrowRight.mouseout"/>
                  </use>
                  <path fill="none" stroke="white" stroke-width="1.5" d="M0,-3.0v7 M-2.5,-0.5L0,-3.0L2.5,-0.5"/>
                </g>
                <g id="arrowDown" xlink:href="#dirArrow" transform="rotate(180) translate(-30 -48)" onmousedown="handlePan(0,1)">
                  <use xlink:href="#rim" fill="#404040">
                        <set attributeName="fill" to="#808080" begin="arrowDown.mouseover" end="arrowDown.mouseout"/>
                  </use>
                  <path fill="none" stroke="white" stroke-width="1.5" d="M0,-3.0v7 M-2.5,-0.5L0,-3.0L2.5,-0.5"/>
                </g>
                <g id="arrowLeft" xlink:href="#dirArrow" transform="rotate(270) translate(-36 17)" onmousedown="handlePan(-1,0)">
                  <use xlink:href="#rim" fill="#404040">
                        <set attributeName="fill" to="#808080" begin="arrowLeft.mouseover" end="arrowLeft.mouseout"/>
                  </use>
                  <path fill="none" stroke="white" stroke-width="1.5" d="M0,-3.0v7 M-2.5,-0.5L0,-3.0L2.5,-0.5"/>
                </g>
        </g>
        <svg viewBox="0 0 15 15" width="100%" height="30px" preserveAspectRatio="xMaxYMin meet">
         <g id="arrow_out" transform="scale(0.3 0.3)">
          <a xlink:href="class_h_y___catchment__coll__graph_org.svg" target="_base">
           <rect id="button" ry="5" rx="5" y="6" x="6" height="38" width="38"
                fill="#f2f5e9" fill-opacity="0.5" stroke="#606060" stroke-width="1.0"/>
           <path id="arrow"
             d="M 11.500037,31.436501 C 11.940474,20.09759 22.043105,11.32322 32.158766,21.979434 L 37.068811,17.246167 C 37.068811,17.246167 37.088388,32 37.088388,32 L 22.160133,31.978069 C 22.160133,31.978069 26.997745,27.140456 26.997745,27.140456 C 18.528582,18.264221 13.291696,25.230495 11.500037,31.436501 z"
             style="fill:#404040;"/>
          </a>
         </g>
        </svg>
</svg>
