<?xml version="1.0" encoding="UTF-8" standalone="no"?>
<!DOCTYPE svg PUBLIC "-//W3C//DTD SVG 1.1//EN"
 "http://www.w3.org/Graphics/SVG/1.1/DTD/svg11.dtd">
<!-- Generated by graphviz version 2.44.0 ()
 -->
<!-- Title: hy_features::hydrolocation::HY_HydroLocation Pages: 1 -->
<svg width="408pt" height="673pt"
 viewBox="0.00 0.00 407.50 673.00" xmlns="http://www.w3.org/2000/svg" xmlns:xlink="http://www.w3.org/1999/xlink">
<g id="graph0" class="graph" transform="scale(1 1) rotate(0) translate(4 669)">
<title>hy_features::hydrolocation::HY_HydroLocation</title>
<polygon fill="white" stroke="transparent" points="-4,4 -4,-669 403.5,-669 403.5,4 -4,4"/>
<!-- Node1 -->
<g id="node1" class="node">
<title>Node1</title>
<g id="a_node1"><a xlink:title=" ">
<polygon fill="#bfbfbf" stroke="black" points="110.5,-0.5 110.5,-178.5 238.5,-178.5 238.5,-0.5 110.5,-0.5"/>
<text text-anchor="start" x="118.5" y="-166.5" font-family="Helvetica,sans-Serif" font-size="10.00">hy_features::hydrolocation</text>
<text text-anchor="middle" x="174.5" y="-155.5" font-family="Helvetica,sans-Serif" font-size="10.00">::HY_HydroLocation</text>
<polyline fill="none" stroke="black" points="110.5,-148.5 238.5,-148.5 "/>
<text text-anchor="start" x="118.5" y="-136.5" font-family="Helvetica,sans-Serif" font-size="10.00">&#45; _shape</text>
<text text-anchor="start" x="118.5" y="-125.5" font-family="Helvetica,sans-Serif" font-size="10.00">&#45; _type</text>
<polyline fill="none" stroke="black" points="110.5,-118.5 238.5,-118.5 "/>
<text text-anchor="start" x="118.5" y="-106.5" font-family="Helvetica,sans-Serif" font-size="10.00">+ HY_HydroLocation()</text>
<text text-anchor="start" x="118.5" y="-95.5" font-family="Helvetica,sans-Serif" font-size="10.00">+ HY_HydroLocation()</text>
<text text-anchor="start" x="118.5" y="-84.5" font-family="Helvetica,sans-Serif" font-size="10.00">+ geometry()</text>
<text text-anchor="start" x="118.5" y="-73.5" font-family="Helvetica,sans-Serif" font-size="10.00">+ geometry()</text>
<text text-anchor="start" x="118.5" y="-62.5" font-family="Helvetica,sans-Serif" font-size="10.00">+ itype()</text>
<text text-anchor="start" x="118.5" y="-51.5" font-family="Helvetica,sans-Serif" font-size="10.00">+ itype()</text>
<text text-anchor="start" x="118.5" y="-40.5" font-family="Helvetica,sans-Serif" font-size="10.00">+ referenced_position()</text>
<text text-anchor="start" x="118.5" y="-29.5" font-family="Helvetica,sans-Serif" font-size="10.00">+ referenced_position()</text>
<text text-anchor="start" x="118.5" y="-18.5" font-family="Helvetica,sans-Serif" font-size="10.00">+ realized_nexus()</text>
<text text-anchor="start" x="118.5" y="-7.5" font-family="Helvetica,sans-Serif" font-size="10.00">+ realized_nexus()</text>
</a>
</g>
</g>
<!-- Node2 -->
<g id="node2" class="node">
<title>Node2</title>
<g id="a_node2"><a xlink:href="class_g_m___object.html" target="_top" xlink:title=" ">
<polygon fill="white" stroke="black" points="6.5,-232 6.5,-300 92.5,-300 92.5,-232 6.5,-232"/>
<text text-anchor="middle" x="49.5" y="-288" font-family="Helvetica,sans-Serif" font-size="10.00">GM_Object</text>
<polyline fill="none" stroke="black" points="6.5,-281 92.5,-281 "/>
<text text-anchor="middle" x="49.5" y="-269" font-family="Helvetica,sans-Serif" font-size="10.00"> </text>
<polyline fill="none" stroke="black" points="6.5,-262 92.5,-262 "/>
<text text-anchor="start" x="14.5" y="-250" font-family="Helvetica,sans-Serif" font-size="10.00">+ GM_Object()</text>
<text text-anchor="start" x="14.5" y="-239" font-family="Helvetica,sans-Serif" font-size="10.00">+ ~GM_Object()</text>
</a>
</g>
</g>
<!-- Node2&#45;&gt;Node1 -->
<g id="edge1" class="edge">
<title>Node2&#45;&gt;Node1</title>
<path fill="none" stroke="midnightblue" d="M79.15,-223.61C88.86,-210.06 100.04,-194.44 111.26,-178.78"/>
<polygon fill="none" stroke="midnightblue" points="76.28,-221.6 73.31,-231.77 81.97,-225.68 76.28,-221.6"/>
</g>
<!-- Node3 -->
<g id="node3" class="node">
<title>Node3</title>
<g id="a_node3"><a xlink:href="classhy__features_1_1hydrolocation_1_1_h_y___indirect_position.html" target="_top" xlink:title=" ">
<polygon fill="white" stroke="black" points="110.5,-226.5 110.5,-305.5 238.5,-305.5 238.5,-226.5 110.5,-226.5"/>
<text text-anchor="start" x="118.5" y="-293.5" font-family="Helvetica,sans-Serif" font-size="10.00">hy_features::hydrolocation</text>
<text text-anchor="middle" x="174.5" y="-282.5" font-family="Helvetica,sans-Serif" font-size="10.00">::HY_IndirectPosition</text>
<polyline fill="none" stroke="black" points="110.5,-275.5 238.5,-275.5 "/>
<text text-anchor="start" x="118.5" y="-263.5" font-family="Helvetica,sans-Serif" font-size="10.00">&#45; distance_description</text>
<polyline fill="none" stroke="black" points="110.5,-256.5 238.5,-256.5 "/>
<text text-anchor="start" x="118.5" y="-244.5" font-family="Helvetica,sans-Serif" font-size="10.00">+ HY_IndirectPosition()</text>
<text text-anchor="start" x="118.5" y="-233.5" font-family="Helvetica,sans-Serif" font-size="10.00">+ ~HY_IndirectPosition()</text>
</a>
</g>
</g>
<!-- Node3&#45;&gt;Node1 -->
<g id="edge2" class="edge">
<title>Node3&#45;&gt;Node1</title>
<path fill="none" stroke="#404040" d="M174.5,-226.27C174.5,-215.54 174.5,-203.38 174.5,-190.85"/>
<polygon fill="none" stroke="#404040" points="174.5,-190.75 170.5,-184.75 174.5,-178.75 178.5,-184.75 174.5,-190.75"/>
<text text-anchor="middle" x="222.5" y="-200" font-family="Helvetica,sans-Serif" font-size="10.00"> &#45;_referenced_position</text>
</g>
<!-- Node4 -->
<g id="node4" class="node">
<title>Node4</title>
<g id="a_node4"><a xlink:title=" ">
<polygon fill="white" stroke="#bfbfbf" points="0,-359 0,-427 103,-427 103,-359 0,-359"/>
<text text-anchor="start" x="8" y="-415" font-family="Helvetica,sans-Serif" font-size="10.00">std::shared_ptr&lt; HY</text>
<text text-anchor="middle" x="51.5" y="-404" font-family="Helvetica,sans-Serif" font-size="10.00">_FlowPath &gt;</text>
<polyline fill="none" stroke="#bfbfbf" points="0,-397 103,-397 "/>
<text text-anchor="start" x="8" y="-385" font-family="Helvetica,sans-Serif" font-size="10.00">+ ptr</text>
<polyline fill="none" stroke="#bfbfbf" points="0,-378 103,-378 "/>
<text text-anchor="start" x="8" y="-366" font-family="Helvetica,sans-Serif" font-size="10.00">+ operator&#45;&gt;()</text>
</a>
</g>
</g>
<!-- Node4&#45;&gt;Node3 -->
<g id="edge3" class="edge">
<title>Node4&#45;&gt;Node3</title>
<path fill="none" stroke="#404040" d="M84.14,-358.83C97.58,-345.17 113.41,-329.08 128.03,-314.23"/>
<polygon fill="none" stroke="#404040" points="128.05,-314.2 129.41,-307.12 136.47,-305.65 135.11,-312.73 128.05,-314.2"/>
<text text-anchor="middle" x="138.5" y="-327" font-family="Helvetica,sans-Serif" font-size="10.00"> &#45;flowpath</text>
</g>
<!-- Node5 -->
<g id="node5" class="node">
<title>Node5</title>
<g id="a_node5"><a xlink:title=" ">
<polygon fill="white" stroke="#bfbfbf" points="0,-491.5 0,-548.5 103,-548.5 103,-491.5 0,-491.5"/>
<text text-anchor="middle" x="51.5" y="-536.5" font-family="Helvetica,sans-Serif" font-size="10.00">std::shared_ptr&lt; T &gt;</text>
<polyline fill="none" stroke="#bfbfbf" points="0,-529.5 103,-529.5 "/>
<text text-anchor="middle" x="51.5" y="-517.5" font-family="Helvetica,sans-Serif" font-size="10.00"> </text>
<polyline fill="none" stroke="#bfbfbf" points="0,-510.5 103,-510.5 "/>
<text text-anchor="start" x="8" y="-498.5" font-family="Helvetica,sans-Serif" font-size="10.00">+ operator&#45;&gt;()</text>
</a>
</g>
</g>
<!-- Node5&#45;&gt;Node4 -->
<g id="edge4" class="edge">
<title>Node5&#45;&gt;Node4</title>
<path fill="none" stroke="orange" d="M51.5,-481.05C51.5,-463.96 51.5,-443.96 51.5,-427.44"/>
<polygon fill="orange" stroke="orange" points="48,-481.26 51.5,-491.26 55,-481.26 48,-481.26"/>
<text text-anchor="middle" x="91.5" y="-459.5" font-family="Helvetica,sans-Serif" font-size="10.00"> &lt; HY_FlowPath &gt;</text>
</g>
<!-- Node6 -->
<g id="node6" class="node">
<title>Node6</title>
<g id="a_node6"><a xlink:title=" ">
<polygon fill="white" stroke="#bfbfbf" points="37,-602 37,-659 66,-659 66,-602 37,-602"/>
<text text-anchor="middle" x="51.5" y="-647" font-family="Helvetica,sans-Serif" font-size="10.00">T</text>
<polyline fill="none" stroke="#bfbfbf" points="37,-640 66,-640 "/>
<text text-anchor="middle" x="51.5" y="-628" font-family="Helvetica,sans-Serif" font-size="10.00"> </text>
<polyline fill="none" stroke="#bfbfbf" points="37,-621 66,-621 "/>
<text text-anchor="middle" x="51.5" y="-609" font-family="Helvetica,sans-Serif" font-size="10.00"> </text>
</a>
</g>
</g>
<!-- Node6&#45;&gt;Node5 -->
<g id="edge5" class="edge">
<title>Node6&#45;&gt;Node5</title>
<path fill="none" stroke="#404040" d="M51.5,-601.84C51.5,-589.34 51.5,-574.34 51.5,-560.68"/>
<polygon fill="none" stroke="#404040" points="51.5,-560.61 47.5,-554.61 51.5,-548.61 55.5,-554.61 51.5,-560.61"/>
<text text-anchor="middle" x="61.5" y="-570" font-family="Helvetica,sans-Serif" font-size="10.00"> +ptr</text>
</g>
<!-- Node7 -->
<g id="node7" class="node">
<title>Node7</title>
<g id="a_node7"><a xlink:href="structhy__features_1_1hydrolocation_1_1_h_y___distance_from_referent.html" target="_top" xlink:title=" ">
<polygon fill="white" stroke="black" points="121.5,-353.5 121.5,-432.5 269.5,-432.5 269.5,-353.5 121.5,-353.5"/>
<text text-anchor="start" x="129.5" y="-420.5" font-family="Helvetica,sans-Serif" font-size="10.00">hy_features::hydrolocation</text>
<text text-anchor="middle" x="195.5" y="-409.5" font-family="Helvetica,sans-Serif" font-size="10.00">::HY_DistanceFromReferent</text>
<polyline fill="none" stroke="black" points="121.5,-402.5 269.5,-402.5 "/>
<text text-anchor="start" x="129.5" y="-390.5" font-family="Helvetica,sans-Serif" font-size="10.00">+ absolute</text>
<text text-anchor="start" x="129.5" y="-379.5" font-family="Helvetica,sans-Serif" font-size="10.00">+ interpolative</text>
<polyline fill="none" stroke="black" points="121.5,-372.5 269.5,-372.5 "/>
<text text-anchor="start" x="129.5" y="-360.5" font-family="Helvetica,sans-Serif" font-size="10.00">+ HY_DistanceFromReferent()</text>
</a>
</g>
</g>
<!-- Node7&#45;&gt;Node3 -->
<g id="edge6" class="edge">
<title>Node7&#45;&gt;Node3</title>
<path fill="none" stroke="#404040" d="M180.03,-353.2C178.17,-347.19 176.57,-340.99 175.5,-335 174.53,-329.56 173.88,-323.83 173.47,-318.1"/>
<polygon fill="none" stroke="#404040" points="173.45,-317.67 169.19,-311.86 172.91,-305.69 177.18,-311.5 173.45,-317.67"/>
<text text-anchor="middle" x="228.5" y="-327" font-family="Helvetica,sans-Serif" font-size="10.00"> &#45;distance_from_referent</text>
</g>
<!-- Node8 -->
<g id="node8" class="node">
<title>Node8</title>
<g id="a_node8"><a xlink:title=" ">
<polygon fill="white" stroke="#bfbfbf" points="220,-491.5 220,-548.5 279,-548.5 279,-491.5 220,-491.5"/>
<text text-anchor="middle" x="249.5" y="-536.5" font-family="Helvetica,sans-Serif" font-size="10.00">std::string</text>
<polyline fill="none" stroke="#bfbfbf" points="220,-529.5 279,-529.5 "/>
<text text-anchor="middle" x="249.5" y="-517.5" font-family="Helvetica,sans-Serif" font-size="10.00"> </text>
<polyline fill="none" stroke="#bfbfbf" points="220,-510.5 279,-510.5 "/>
<text text-anchor="middle" x="249.5" y="-498.5" font-family="Helvetica,sans-Serif" font-size="10.00"> </text>
</a>
</g>
</g>
<!-- Node8&#45;&gt;Node1 -->
<g id="edge9" class="edge">
<title>Node8&#45;&gt;Node1</title>
<path fill="none" stroke="#404040" d="M278.85,-491.41C283.21,-485.77 287.05,-479.54 289.5,-473 301.15,-441.85 398.94,-486.11 274.5,-197 267.84,-181.53 257.91,-166.93 246.86,-153.78"/>
<polygon fill="none" stroke="#404040" points="246.58,-153.46 239.61,-151.61 238.64,-144.46 245.61,-146.31 246.58,-153.46"/>
<text text-anchor="middle" x="362" y="-327" font-family="Helvetica,sans-Serif" font-size="10.00"> &#45;_realized_nexus</text>
</g>
<!-- Node8&#45;&gt;Node7 -->
<g id="edge7" class="edge">
<title>Node8&#45;&gt;Node7</title>
<path fill="none" stroke="#404040" d="M219.88,-500.66C210.65,-493.3 201.58,-483.94 196.5,-473 192.48,-464.34 190.58,-454.55 189.93,-444.88"/>
<polygon fill="none" stroke="#404040" points="189.93,-444.79 185.82,-438.86 189.72,-432.79 193.82,-438.72 189.93,-444.79"/>
<text text-anchor="middle" x="243" y="-465" font-family="Helvetica,sans-Serif" font-size="10.00"> +accuracyStatement</text>
<text text-anchor="middle" x="243" y="-454" font-family="Helvetica,sans-Serif" font-size="10.00">+precisionStatement</text>
</g>
<!-- Node9 -->
<g id="node9" class="node">
<title>Node9</title>
<g id="a_node9"><a xlink:title=" ">
<polygon fill="white" stroke="#bfbfbf" points="203,-596.5 203,-664.5 296,-664.5 296,-596.5 203,-596.5"/>
<text text-anchor="start" x="211" y="-652.5" font-family="Helvetica,sans-Serif" font-size="10.00">std::basic_string&lt;</text>
<text text-anchor="middle" x="249.5" y="-641.5" font-family="Helvetica,sans-Serif" font-size="10.00"> Char &gt;</text>
<polyline fill="none" stroke="#bfbfbf" points="203,-634.5 296,-634.5 "/>
<text text-anchor="middle" x="249.5" y="-622.5" font-family="Helvetica,sans-Serif" font-size="10.00"> </text>
<polyline fill="none" stroke="#bfbfbf" points="203,-615.5 296,-615.5 "/>
<text text-anchor="middle" x="249.5" y="-603.5" font-family="Helvetica,sans-Serif" font-size="10.00"> </text>
</a>
</g>
</g>
<!-- Node9&#45;&gt;Node8 -->
<g id="edge8" class="edge">
<title>Node9&#45;&gt;Node8</title>
<path fill="none" stroke="midnightblue" d="M249.5,-586.06C249.5,-573.51 249.5,-560.15 249.5,-548.83"/>
<polygon fill="none" stroke="midnightblue" points="246,-586.36 249.5,-596.36 253,-586.36 246,-586.36"/>
</g>
</g>
</svg>
