<?xml version="1.0" encoding="UTF-8" standalone="no"?>
<!DOCTYPE svg PUBLIC "-//W3C//DTD SVG 1.1//EN"
 "http://www.w3.org/Graphics/SVG/1.1/DTD/svg11.dtd">
<!-- Generated by graphviz version 9.0.0 (20230911.1827)
 -->
<!-- Title: data_access::DeferredWrappedProvider Pages: 1 -->
<svg width="420pt" height="1080pt"
 viewBox="0.00 0.00 419.75 1080.25" xmlns="http://www.w3.org/2000/svg" xmlns:xlink="http://www.w3.org/1999/xlink">
<g id="graph0" class="graph" transform="scale(1 1) rotate(0) translate(4 1076.25)">
<title>data_access::DeferredWrappedProvider</title>
<!-- Node1 -->
<g id="Node000001" class="node">
<title>Node1</title>
<g id="a_Node000001"><a xlink:title="A specialized @WrappedDataProvider that is created without first knowing the backing source it wraps.">
<polygon fill="#999999" stroke="none" points="288.5,-176 143.5,-176 143.5,0 288.5,0 288.5,-176"/>
<text text-anchor="start" x="148.5" y="-162.5" font-family="Helvetica,sans-Serif" font-size="10.00">data_access::DeferredWrapped</text>
<text text-anchor="start" x="198" y="-151.25" font-family="Helvetica,sans-Serif" font-size="10.00">Provider</text>
<text text-anchor="start" x="214.5" y="-136.5" font-family="Helvetica,sans-Serif" font-size="10.00"> </text>
<text text-anchor="start" x="150" y="-121.5" font-family="Helvetica,sans-Serif" font-size="10.00">+</text>
<text text-anchor="start" x="162.5" y="-121.5" font-family="Helvetica,sans-Serif" font-size="10.00">DeferredWrappedProvider()</text>
<text text-anchor="start" x="150" y="-106.5" font-family="Helvetica,sans-Serif" font-size="10.00">+</text>
<text text-anchor="start" x="162.5" y="-106.5" font-family="Helvetica,sans-Serif" font-size="10.00">DeferredWrappedProvider()</text>
<text text-anchor="start" x="150" y="-91.5" font-family="Helvetica,sans-Serif" font-size="10.00">+</text>
<text text-anchor="start" x="162.5" y="-91.5" font-family="Helvetica,sans-Serif" font-size="10.00">DeferredWrappedProvider()</text>
<text text-anchor="start" x="150" y="-76.5" font-family="Helvetica,sans-Serif" font-size="10.00">+</text>
<text text-anchor="start" x="162.5" y="-76.5" font-family="Helvetica,sans-Serif" font-size="10.00">get_available_variable</text>
<text text-anchor="start" x="162.5" y="-65.25" font-family="Helvetica,sans-Serif" font-size="10.00">_names()</text>
<text text-anchor="start" x="150" y="-50.5" font-family="Helvetica,sans-Serif" font-size="10.00">+</text>
<text text-anchor="start" x="162.5" y="-50.5" font-family="Helvetica,sans-Serif" font-size="10.00">getSetMessage()</text>
<text text-anchor="start" x="150" y="-35.5" font-family="Helvetica,sans-Serif" font-size="10.00">+</text>
<text text-anchor="start" x="162.5" y="-35.5" font-family="Helvetica,sans-Serif" font-size="10.00">isReadyToProvideData()</text>
<text text-anchor="start" x="150" y="-20.5" font-family="Helvetica,sans-Serif" font-size="10.00">+</text>
<text text-anchor="start" x="162.5" y="-20.5" font-family="Helvetica,sans-Serif" font-size="10.00">isWrappedProviderSet()</text>
<text text-anchor="start" x="150" y="-5.5" font-family="Helvetica,sans-Serif" font-size="10.00">+</text>
<text text-anchor="start" x="162.5" y="-5.5" font-family="Helvetica,sans-Serif" font-size="10.00">setWrappedProvider()</text>
<polygon fill="#666666" stroke="#666666" points="143.5,-148 143.5,-148 288.5,-148 288.5,-148 143.5,-148"/>
<polygon fill="#666666" stroke="#666666" points="143.5,-133 143.5,-133 288.5,-133 288.5,-133 143.5,-133"/>
<polygon fill="none" stroke="#666666" points="143.5,0 143.5,-176 288.5,-176 288.5,0 143.5,0"/>
</a>
</g>
</g>
<!-- Node2 -->
<g id="Node000002" class="node">
<title>Node2</title>
<g id="a_Node000002"><a xlink:href="classdata__access_1_1_wrapped_data_provider.html" target="_top" xlink:title="Simple implementation that basically wraps another instance.">
<polygon fill="white" stroke="none" points="180,-455.25 52,-455.25 52,-223.25 180,-223.25 180,-455.25"/>
<text text-anchor="start" x="56.75" y="-441.75" font-family="Helvetica,sans-Serif" font-size="10.00">data_access::WrappedData</text>
<text text-anchor="start" x="98" y="-430.5" font-family="Helvetica,sans-Serif" font-size="10.00">Provider</text>
<text text-anchor="start" x="114.5" y="-415.75" font-family="Helvetica,sans-Serif" font-size="10.00"> </text>
<text text-anchor="start" x="58" y="-400.75" font-family="Helvetica,sans-Serif" font-size="10.00">+</text>
<text text-anchor="start" x="70" y="-400.75" font-family="Helvetica,sans-Serif" font-size="10.00">WrappedDataProvider()</text>
<text text-anchor="start" x="58" y="-385.75" font-family="Helvetica,sans-Serif" font-size="10.00">+</text>
<text text-anchor="start" x="70" y="-385.75" font-family="Helvetica,sans-Serif" font-size="10.00">WrappedDataProvider()</text>
<text text-anchor="start" x="58" y="-370.75" font-family="Helvetica,sans-Serif" font-size="10.00">+</text>
<text text-anchor="start" x="70" y="-370.75" font-family="Helvetica,sans-Serif" font-size="10.00">WrappedDataProvider()</text>
<text text-anchor="start" x="58" y="-355.75" font-family="Helvetica,sans-Serif" font-size="10.00">+</text>
<text text-anchor="start" x="70" y="-355.75" font-family="Helvetica,sans-Serif" font-size="10.00">get_available_variable</text>
<text text-anchor="start" x="70" y="-344.5" font-family="Helvetica,sans-Serif" font-size="10.00">_names()</text>
<text text-anchor="start" x="58" y="-329.75" font-family="Helvetica,sans-Serif" font-size="10.00">+</text>
<text text-anchor="start" x="70" y="-329.75" font-family="Helvetica,sans-Serif" font-size="10.00">get_data_start_time()</text>
<text text-anchor="start" x="58" y="-314.75" font-family="Helvetica,sans-Serif" font-size="10.00">+</text>
<text text-anchor="start" x="70" y="-314.75" font-family="Helvetica,sans-Serif" font-size="10.00">get_data_stop_time()</text>
<text text-anchor="start" x="58" y="-299.75" font-family="Helvetica,sans-Serif" font-size="10.00">+</text>
<text text-anchor="start" x="70" y="-299.75" font-family="Helvetica,sans-Serif" font-size="10.00">record_duration()</text>
<text text-anchor="start" x="58" y="-284.75" font-family="Helvetica,sans-Serif" font-size="10.00">+</text>
<text text-anchor="start" x="70" y="-284.75" font-family="Helvetica,sans-Serif" font-size="10.00">get_ts_index_for_time()</text>
<text text-anchor="start" x="58" y="-269.75" font-family="Helvetica,sans-Serif" font-size="10.00">+</text>
<text text-anchor="start" x="70" y="-269.75" font-family="Helvetica,sans-Serif" font-size="10.00">get_value()</text>
<text text-anchor="start" x="58" y="-254.75" font-family="Helvetica,sans-Serif" font-size="10.00">+</text>
<text text-anchor="start" x="70" y="-254.75" font-family="Helvetica,sans-Serif" font-size="10.00">get_values()</text>
<text text-anchor="start" x="58" y="-239.75" font-family="Helvetica,sans-Serif" font-size="10.00">+</text>
<text text-anchor="start" x="70" y="-239.75" font-family="Helvetica,sans-Serif" font-size="10.00">is_property_sum_over</text>
<text text-anchor="start" x="70" y="-228.5" font-family="Helvetica,sans-Serif" font-size="10.00">_time_step()</text>
<polygon fill="#666666" stroke="#666666" points="52,-427.25 52,-427.25 180,-427.25 180,-427.25 52,-427.25"/>
<polygon fill="#666666" stroke="#666666" points="52,-412.25 52,-412.25 180,-412.25 180,-412.25 52,-412.25"/>
<polygon fill="none" stroke="#666666" points="52,-223.25 52,-455.25 180,-455.25 180,-223.25 52,-223.25"/>
</a>
</g>
</g>
<!-- Node2&#45;&gt;Node1 -->
<g id="edge1_Node000001_Node000002" class="edge">
<title>Node2&#45;&gt;Node1</title>
<g id="a_edge1_Node000001_Node000002"><a xlink:title=" ">
<path fill="none" stroke="#63b8ff" d="M166.26,-212.97C171.28,-200.46 176.3,-187.96 181.11,-175.97"/>
<polygon fill="none" stroke="#63b8ff" points="163.09,-211.49 162.61,-222.07 169.58,-214.09 163.09,-211.49"/>
</a>
</g>
</g>
<!-- Node3 -->
<g id="Node000003" class="node">
<title>Node3</title>
<g id="a_Node000003"><a xlink:href="classdata__access_1_1_generic_data_provider.html" target="_top" xlink:title=" ">
<polygon fill="white" stroke="none" points="154,-562.5 30,-562.5 30,-502.5 154,-502.5 154,-562.5"/>
<text text-anchor="start" x="35" y="-549" font-family="Helvetica,sans-Serif" font-size="10.00">data_access::GenericData</text>
<text text-anchor="start" x="74" y="-537.75" font-family="Helvetica,sans-Serif" font-size="10.00">Provider</text>
<text text-anchor="start" x="90.5" y="-523" font-family="Helvetica,sans-Serif" font-size="10.00"> </text>
<text text-anchor="start" x="90.5" y="-508" font-family="Helvetica,sans-Serif" font-size="10.00"> </text>
<polygon fill="#666666" stroke="#666666" points="30,-534.5 30,-534.5 154,-534.5 154,-534.5 30,-534.5"/>
<polygon fill="#666666" stroke="#666666" points="30,-519.5 30,-519.5 154,-519.5 154,-519.5 30,-519.5"/>
<polygon fill="none" stroke="#666666" points="30,-502.5 30,-562.5 154,-562.5 154,-502.5 30,-502.5"/>
</a>
</g>
</g>
<!-- Node3&#45;&gt;Node2 -->
<g id="edge2_Node000002_Node000003" class="edge">
<title>Node3&#45;&gt;Node2</title>
<g id="a_edge2_Node000002_Node000003"><a xlink:title=" ">
<path fill="none" stroke="#63b8ff" d="M95.97,-491.34C96.62,-485.27 97.3,-479.09 98,-473.25 98.7,-467.35 99.44,-461.31 100.21,-455.2"/>
<polygon fill="none" stroke="#63b8ff" points="92.49,-490.93 94.94,-501.24 99.45,-491.65 92.49,-490.93"/>
</a>
</g>
</g>
<!-- Node3&#45;&gt;Node2 -->
<g id="edge5_Node000002_Node000003" class="edge">
<title>Node3&#45;&gt;Node2</title>
<g id="a_edge5_Node000002_Node000003"><a xlink:title=" ">
<path fill="none" stroke="#63b8ff" d="M95.59,-502.87C96.86,-492.76 98.38,-480.65 100.01,-467.65"/>
<polygon fill="none" stroke="#63b8ff" points="100,-467.75 96.78,-461.3 101.49,-455.85 104.72,-462.3 100,-467.75"/>
</a>
</g>
<text text-anchor="middle" x="142" y="-475" font-family="Helvetica,sans-Serif" font-size="10.00" fill="grey"> #wrapped_provider</text>
</g>
<!-- Node4 -->
<g id="Node000004" class="node">
<title>Node4</title>
<g id="a_Node000004"><a xlink:href="classdata__access_1_1_data_provider.html" target="_top" xlink:title=" ">
<polygon fill="white" stroke="none" points="184,-811.75 0,-811.75 0,-609.75 184,-609.75 184,-811.75"/>
<text text-anchor="start" x="5" y="-798.25" font-family="Helvetica,sans-Serif" font-size="10.00">data_access::DataProvider</text>
<text text-anchor="start" x="5" y="-787" font-family="Helvetica,sans-Serif" font-size="10.00">&lt; double, CatchmentAggrDataSelector &gt;</text>
<text text-anchor="start" x="90.5" y="-772.25" font-family="Helvetica,sans-Serif" font-size="10.00"> </text>
<text text-anchor="start" x="20" y="-757.25" font-family="Helvetica,sans-Serif" font-size="10.00">+</text>
<text text-anchor="start" x="46" y="-757.25" font-family="Helvetica,sans-Serif" font-size="10.00">~DataProvider()</text>
<text text-anchor="start" x="20" y="-742.25" font-family="Helvetica,sans-Serif" font-size="10.00">+</text>
<text text-anchor="start" x="46" y="-742.25" font-family="Helvetica,sans-Serif" font-size="10.00">get_available_variable</text>
<text text-anchor="start" x="46" y="-731" font-family="Helvetica,sans-Serif" font-size="10.00">_names()</text>
<text text-anchor="start" x="20" y="-716.25" font-family="Helvetica,sans-Serif" font-size="10.00">+</text>
<text text-anchor="start" x="46" y="-716.25" font-family="Helvetica,sans-Serif" font-size="10.00">get_data_start_time()</text>
<text text-anchor="start" x="20" y="-701.25" font-family="Helvetica,sans-Serif" font-size="10.00">+</text>
<text text-anchor="start" x="46" y="-701.25" font-family="Helvetica,sans-Serif" font-size="10.00">get_data_stop_time()</text>
<text text-anchor="start" x="20" y="-686.25" font-family="Helvetica,sans-Serif" font-size="10.00">+</text>
<text text-anchor="start" x="46" y="-686.25" font-family="Helvetica,sans-Serif" font-size="10.00">record_duration()</text>
<text text-anchor="start" x="20" y="-671.25" font-family="Helvetica,sans-Serif" font-size="10.00">+</text>
<text text-anchor="start" x="46" y="-671.25" font-family="Helvetica,sans-Serif" font-size="10.00">get_ts_index_for_time()</text>
<text text-anchor="start" x="20" y="-656.25" font-family="Helvetica,sans-Serif" font-size="10.00">+</text>
<text text-anchor="start" x="46" y="-656.25" font-family="Helvetica,sans-Serif" font-size="10.00">get_value()</text>
<text text-anchor="start" x="20" y="-641.25" font-family="Helvetica,sans-Serif" font-size="10.00">+</text>
<text text-anchor="start" x="46" y="-641.25" font-family="Helvetica,sans-Serif" font-size="10.00">get_values()</text>
<text text-anchor="start" x="20" y="-626.25" font-family="Helvetica,sans-Serif" font-size="10.00">+</text>
<text text-anchor="start" x="46" y="-626.25" font-family="Helvetica,sans-Serif" font-size="10.00">is_property_sum_over</text>
<text text-anchor="start" x="46" y="-615" font-family="Helvetica,sans-Serif" font-size="10.00">_time_step()</text>
<polygon fill="#666666" stroke="#666666" points="0,-783.75 0,-783.75 184,-783.75 184,-783.75 0,-783.75"/>
<polygon fill="#666666" stroke="#666666" points="0,-768.75 0,-768.75 184,-768.75 184,-768.75 0,-768.75"/>
<polygon fill="none" stroke="#666666" points="0,-609.75 0,-811.75 184,-811.75 184,-609.75 0,-609.75"/>
</a>
</g>
</g>
<!-- Node4&#45;&gt;Node3 -->
<g id="edge3_Node000003_Node000004" class="edge">
<title>Node4&#45;&gt;Node3</title>
<g id="a_edge3_Node000003_Node000004"><a xlink:title=" ">
<path fill="none" stroke="#63b8ff" d="M92,-598.48C92,-585.2 92,-572.68 92,-562.23"/>
<polygon fill="none" stroke="#63b8ff" points="88.5,-598.27 92,-608.27 95.5,-598.27 88.5,-598.27"/>
</a>
</g>
</g>
<!-- Node5 -->
<g id="Node000005" class="node">
<title>Node5</title>
<g id="a_Node000005"><a xlink:href="classdata__access_1_1_data_provider.html" target="_top" xlink:title=" ">
<polygon fill="white" stroke="none" points="160,-1072.25 24,-1072.25 24,-870.25 160,-870.25 160,-1072.25"/>
<text text-anchor="start" x="29" y="-1058.75" font-family="Helvetica,sans-Serif" font-size="10.00">data_access::DataProvider</text>
<text text-anchor="start" x="29" y="-1047.5" font-family="Helvetica,sans-Serif" font-size="10.00">&lt; data_type, selection_type &gt;</text>
<text text-anchor="start" x="90.5" y="-1032.75" font-family="Helvetica,sans-Serif" font-size="10.00"> </text>
<text text-anchor="start" x="32" y="-1017.75" font-family="Helvetica,sans-Serif" font-size="10.00">+</text>
<text text-anchor="start" x="46" y="-1017.75" font-family="Helvetica,sans-Serif" font-size="10.00">~DataProvider()</text>
<text text-anchor="start" x="32" y="-1002.75" font-family="Helvetica,sans-Serif" font-size="10.00">+</text>
<text text-anchor="start" x="46" y="-1002.75" font-family="Helvetica,sans-Serif" font-size="10.00">get_available_variable</text>
<text text-anchor="start" x="46" y="-991.5" font-family="Helvetica,sans-Serif" font-size="10.00">_names()</text>
<text text-anchor="start" x="32" y="-976.75" font-family="Helvetica,sans-Serif" font-size="10.00">+</text>
<text text-anchor="start" x="46" y="-976.75" font-family="Helvetica,sans-Serif" font-size="10.00">get_data_start_time()</text>
<text text-anchor="start" x="32" y="-961.75" font-family="Helvetica,sans-Serif" font-size="10.00">+</text>
<text text-anchor="start" x="46" y="-961.75" font-family="Helvetica,sans-Serif" font-size="10.00">get_data_stop_time()</text>
<text text-anchor="start" x="32" y="-946.75" font-family="Helvetica,sans-Serif" font-size="10.00">+</text>
<text text-anchor="start" x="46" y="-946.75" font-family="Helvetica,sans-Serif" font-size="10.00">record_duration()</text>
<text text-anchor="start" x="32" y="-931.75" font-family="Helvetica,sans-Serif" font-size="10.00">+</text>
<text text-anchor="start" x="46" y="-931.75" font-family="Helvetica,sans-Serif" font-size="10.00">get_ts_index_for_time()</text>
<text text-anchor="start" x="32" y="-916.75" font-family="Helvetica,sans-Serif" font-size="10.00">+</text>
<text text-anchor="start" x="46" y="-916.75" font-family="Helvetica,sans-Serif" font-size="10.00">get_value()</text>
<text text-anchor="start" x="32" y="-901.75" font-family="Helvetica,sans-Serif" font-size="10.00">+</text>
<text text-anchor="start" x="46" y="-901.75" font-family="Helvetica,sans-Serif" font-size="10.00">get_values()</text>
<text text-anchor="start" x="32" y="-886.75" font-family="Helvetica,sans-Serif" font-size="10.00">+</text>
<text text-anchor="start" x="46" y="-886.75" font-family="Helvetica,sans-Serif" font-size="10.00">is_property_sum_over</text>
<text text-anchor="start" x="46" y="-875.5" font-family="Helvetica,sans-Serif" font-size="10.00">_time_step()</text>
<polygon fill="#666666" stroke="#666666" points="24,-1044.25 24,-1044.25 160,-1044.25 160,-1044.25 24,-1044.25"/>
<polygon fill="#666666" stroke="#666666" points="24,-1029.25 24,-1029.25 160,-1029.25 160,-1029.25 24,-1029.25"/>
<polygon fill="none" stroke="#666666" points="24,-870.25 24,-1072.25 160,-1072.25 160,-870.25 24,-870.25"/>
</a>
</g>
</g>
<!-- Node5&#45;&gt;Node4 -->
<g id="edge4_Node000004_Node000005" class="edge">
<title>Node5&#45;&gt;Node4</title>
<g id="a_edge4_Node000004_Node000005"><a xlink:title=" ">
<path fill="none" stroke="orange" d="M92,-858.89C92,-843.11 92,-826.97 92,-811.43"/>
<polygon fill="orange" stroke="orange" points="88.5,-858.79 92,-868.79 95.5,-858.79 88.5,-858.79"/>
</a>
</g>
<text text-anchor="start" x="92" y="-842.75" font-family="Helvetica,sans-Serif" font-size="10.00" fill="grey"> &lt; double, CatchmentAggrData</text>
<text text-anchor="middle" x="158" y="-831.5" font-family="Helvetica,sans-Serif" font-size="10.00" fill="grey">Selector &gt;</text>
</g>
<!-- Node6 -->
<g id="Node000006" class="node">
<title>Node6</title>
<g id="a_Node000006"><a xlink:title=" ">
<polygon fill="white" stroke="none" points="407.5,-363.75 294.5,-363.75 294.5,-314.75 407.5,-314.75 407.5,-363.75"/>
<text text-anchor="start" x="299.25" y="-350.25" font-family="Helvetica,sans-Serif" font-size="10.00">std::vector&lt; std::string &gt;</text>
<text text-anchor="start" x="349.5" y="-335.25" font-family="Helvetica,sans-Serif" font-size="10.00"> </text>
<text text-anchor="start" x="349.5" y="-320.25" font-family="Helvetica,sans-Serif" font-size="10.00"> </text>
<polygon fill="#666666" stroke="#666666" points="294.5,-346.75 294.5,-346.75 407.5,-346.75 407.5,-346.75 294.5,-346.75"/>
<polygon fill="#666666" stroke="#666666" points="294.5,-331.75 294.5,-331.75 407.5,-331.75 407.5,-331.75 294.5,-331.75"/>
<polygon fill="none" stroke="#666666" points="294.5,-314.75 294.5,-363.75 407.5,-363.75 407.5,-314.75 294.5,-314.75"/>
</a>
</g>
</g>
<!-- Node6&#45;&gt;Node1 -->
<g id="edge6_Node000001_Node000006" class="edge">
<title>Node6&#45;&gt;Node1</title>
<g id="a_edge6_Node000001_Node000006"><a xlink:title=" ">
<path fill="none" stroke="#63b8ff" d="M338.3,-314.8C322.47,-285.58 294.43,-233.8 269.19,-187.2"/>
<polygon fill="none" stroke="#63b8ff" points="269.15,-187.13 262.78,-183.76 263.44,-176.58 269.81,-179.95 269.15,-187.13"/>
</a>
</g>
<text text-anchor="middle" x="315.38" y="-195.75" font-family="Helvetica,sans-Serif" font-size="10.00" fill="grey"> #providedOutputs</text>
</g>
<!-- Node7 -->
<g id="Node000007" class="node">
<title>Node7</title>
<g id="a_Node000007"><a xlink:title=" ">
<polygon fill="white" stroke="none" points="286,-557 234,-557 234,-508 286,-508 286,-557"/>
<text text-anchor="start" x="239" y="-543.5" font-family="Helvetica,sans-Serif" font-size="10.00">std::string</text>
<text text-anchor="start" x="258.5" y="-528.5" font-family="Helvetica,sans-Serif" font-size="10.00"> </text>
<text text-anchor="start" x="258.5" y="-513.5" font-family="Helvetica,sans-Serif" font-size="10.00"> </text>
<polygon fill="#666666" stroke="#666666" points="234,-540 234,-540 286,-540 286,-540 234,-540"/>
<polygon fill="#666666" stroke="#666666" points="234,-525 234,-525 286,-525 286,-525 234,-525"/>
<polygon fill="none" stroke="#666666" points="234,-508 234,-557 286,-557 286,-508 234,-508"/>
</a>
</g>
</g>
<!-- Node7&#45;&gt;Node1 -->
<g id="edge11_Node000001_Node000007" class="edge">
<title>Node7&#45;&gt;Node1</title>
<g id="a_edge11_Node000001_Node000007"><a xlink:title=" ">
<path fill="none" stroke="#63b8ff" d="M245.88,-508.05C237.88,-493.43 228.63,-473.9 224.25,-455.25 203.48,-366.72 203.33,-262.83 207.26,-188.36"/>
<polygon fill="none" stroke="#63b8ff" points="207.24,-188.62 203.59,-182.4 207.92,-176.64 211.58,-182.86 207.24,-188.62"/>
</a>
</g>
<text text-anchor="middle" x="255.38" y="-335.38" font-family="Helvetica,sans-Serif" font-size="10.00" fill="grey"> #setMessage</text>
</g>
<!-- Node7&#45;&gt;Node6 -->
<g id="edge7_Node000006_Node000007" class="edge">
<title>Node7&#45;&gt;Node6</title>
<g id="a_edge7_Node000006_Node000007"><a xlink:title=" ">
<path fill="none" stroke="#63b8ff" d="M271.16,-508.05C286.96,-474.84 315.98,-413.86 334.34,-375.27"/>
<polygon fill="none" stroke="#63b8ff" points="334.35,-375.24 333.32,-368.11 339.51,-364.41 340.54,-371.54 334.35,-375.24"/>
</a>
</g>
<text text-anchor="middle" x="311" y="-475" font-family="Helvetica,sans-Serif" font-size="10.00" fill="grey"> +elements</text>
</g>
<!-- Node8 -->
<g id="Node000008" class="node">
<title>Node8</title>
<g id="a_Node000008"><a xlink:title=" ">
<polygon fill="white" stroke="none" points="303,-740.75 217,-740.75 217,-680.75 303,-680.75 303,-740.75"/>
<text text-anchor="start" x="221.75" y="-727.25" font-family="Helvetica,sans-Serif" font-size="10.00">std::basic_string&lt;</text>
<text text-anchor="start" x="244.62" y="-716" font-family="Helvetica,sans-Serif" font-size="10.00"> Char &gt;</text>
<text text-anchor="start" x="258.5" y="-701.25" font-family="Helvetica,sans-Serif" font-size="10.00"> </text>
<text text-anchor="start" x="258.5" y="-686.25" font-family="Helvetica,sans-Serif" font-size="10.00"> </text>
<polygon fill="#666666" stroke="#666666" points="217,-712.75 217,-712.75 303,-712.75 303,-712.75 217,-712.75"/>
<polygon fill="#666666" stroke="#666666" points="217,-697.75 217,-697.75 303,-697.75 303,-697.75 217,-697.75"/>
<polygon fill="none" stroke="#666666" points="217,-680.75 217,-740.75 303,-740.75 303,-680.75 217,-680.75"/>
</a>
</g>
</g>
<!-- Node8&#45;&gt;Node7 -->
<g id="edge8_Node000007_Node000008" class="edge">
<title>Node8&#45;&gt;Node7</title>
<g id="a_edge8_Node000007_Node000008"><a xlink:title=" ">
<path fill="none" stroke="#63b8ff" d="M260,-669.83C260,-634.99 260,-585.62 260,-556.84"/>
<polygon fill="none" stroke="#63b8ff" points="256.5,-669.53 260,-679.53 263.5,-669.53 256.5,-669.53"/>
</a>
</g>
</g>
<!-- Node9 -->
<g id="Node000009" class="node">
<title>Node9</title>
<g id="a_Node000009"><a xlink:title=" ">
<polygon fill="white" stroke="none" points="389.5,-557 312.5,-557 312.5,-508 389.5,-508 389.5,-557"/>
<text text-anchor="start" x="317.25" y="-543.5" font-family="Helvetica,sans-Serif" font-size="10.00">std::vector&lt; T &gt;</text>
<text text-anchor="start" x="349.5" y="-528.5" font-family="Helvetica,sans-Serif" font-size="10.00"> </text>
<text text-anchor="start" x="349.5" y="-513.5" font-family="Helvetica,sans-Serif" font-size="10.00"> </text>
<polygon fill="#666666" stroke="#666666" points="312.5,-540 312.5,-540 389.5,-540 389.5,-540 312.5,-540"/>
<polygon fill="#666666" stroke="#666666" points="312.5,-525 312.5,-525 389.5,-525 389.5,-525 312.5,-525"/>
<polygon fill="none" stroke="#666666" points="312.5,-508 312.5,-557 389.5,-557 389.5,-508 312.5,-508"/>
</a>
</g>
</g>
<!-- Node9&#45;&gt;Node6 -->
<g id="edge9_Node000006_Node000009" class="edge">
<title>Node9&#45;&gt;Node6</title>
<g id="a_edge9_Node000006_Node000009"><a xlink:title=" ">
<path fill="none" stroke="orange" d="M351,-496.6C351,-457.98 351,-396.82 351,-363.59"/>
<polygon fill="orange" stroke="orange" points="347.5,-496.54 351,-506.54 354.5,-496.54 347.5,-496.54"/>
</a>
</g>
<text text-anchor="middle" x="381.38" y="-475" font-family="Helvetica,sans-Serif" font-size="10.00" fill="grey"> &lt; std::string &gt;</text>
</g>
<!-- Node10 -->
<g id="Node000010" class="node">
<title>Node10</title>
<g id="a_Node000010"><a xlink:title=" ">
<polygon fill="white" stroke="none" points="359,-735.25 343,-735.25 343,-686.25 359,-686.25 359,-735.25"/>
<text text-anchor="start" x="348" y="-721.75" font-family="Helvetica,sans-Serif" font-size="10.00">T</text>
<text text-anchor="start" x="349.5" y="-706.75" font-family="Helvetica,sans-Serif" font-size="10.00"> </text>
<text text-anchor="start" x="349.5" y="-691.75" font-family="Helvetica,sans-Serif" font-size="10.00"> </text>
<polygon fill="#666666" stroke="#666666" points="343,-718.25 343,-718.25 359,-718.25 359,-718.25 343,-718.25"/>
<polygon fill="#666666" stroke="#666666" points="343,-703.25 343,-703.25 359,-703.25 359,-703.25 343,-703.25"/>
<polygon fill="none" stroke="#666666" points="343,-686.25 343,-735.25 359,-735.25 359,-686.25 343,-686.25"/>
</a>
</g>
</g>
<!-- Node10&#45;&gt;Node9 -->
<g id="edge10_Node000009_Node000010" class="edge">
<title>Node10&#45;&gt;Node9</title>
<g id="a_edge10_Node000009_Node000010"><a xlink:title=" ">
<path fill="none" stroke="#63b8ff" d="M351,-686.35C351,-656.5 351,-604.59 351,-569.65"/>
<polygon fill="none" stroke="#63b8ff" points="351,-569.62 347,-563.62 351,-557.62 355,-563.62 351,-569.62"/>
</a>
</g>
<text text-anchor="middle" x="375" y="-582.25" font-family="Helvetica,sans-Serif" font-size="10.00" fill="grey"> +elements</text>
</g>
</g>
</svg>
