<?xml version="1.0" encoding="UTF-8" standalone="no"?>
<!DOCTYPE svg PUBLIC "-//W3C//DTD SVG 1.1//EN"
 "http://www.w3.org/Graphics/SVG/1.1/DTD/svg11.dtd">
<!-- Generated by graphviz version 3.0.0 (20220413.0106)
 -->
<!-- Title: CsvPerFeatureForcingProvider Pages: 1 -->
<!--zoomable 1094 -->
<svg id="main" version="1.1" xmlns="http://www.w3.org/2000/svg" xmlns:xlink="http://www.w3.org/1999/xlink" xml:space="preserve" onload="init(evt)">
<style type="text/css"><![CDATA[
.edge:hover path { stroke: red; }
.edge:hover polygon { stroke: red; fill: red; }
]]></style>
<script type="text/javascript"><![CDATA[
var edges = document.getElementsByTagName('g');
if (edges && edges.length) {
  for (var i=0;i<edges.length;i++) {
    if (edges[i].id.substr(0,4)=='edge') {
      edges[i].setAttribute('class','edge');
    }
  }
}
]]></script>
        <defs>
                <circle id="rim" cx="0" cy="0" r="7"/>
                <circle id="rim2" cx="0" cy="0" r="3.5"/>
                <g id="zoomPlus">
                        <use xlink:href="#rim" fill="#404040">
                                <set attributeName="fill" to="#808080" begin="zoomplus.mouseover" end="zoomplus.mouseout"/>
                        </use>
                        <path d="M-4,0h8M0,-4v8" fill="none" stroke="white" stroke-width="1.5" pointer-events="none"/>
                </g>
                <g id="zoomMin">
                        <use xlink:href="#rim" fill="#404040">
                                <set attributeName="fill" to="#808080" begin="zoomminus.mouseover" end="zoomminus.mouseout"/>
                        </use>
                        <path d="M-4,0h8" fill="none" stroke="white" stroke-width="1.5" pointer-events="none"/>
                </g>
                <g id="dirArrow">
                        <path fill="none" stroke="white" stroke-width="1.5" d="M0,-3.0v7 M-2.5,-0.5L0,-3.0L2.5,-0.5"/>
                </g>
               <g id="resetDef">
                       <use xlink:href="#rim2" fill="#404040">
                               <set attributeName="fill" to="#808080" begin="reset.mouseover" end="reset.mouseout"/>
                       </use>
               </g>
        </defs>

<script type="text/javascript">
var viewWidth = 1079;
var viewHeight = 1094;
var sectionId = 'dynsection-1';
</script>
<script xlink:href="svgpan.js"/>
<svg id="graph" class="graph">
<g id="viewport">
<title>CsvPerFeatureForcingProvider</title>
<polygon fill="white" stroke="transparent" points="-4,4 -4,-1090 1074.5,-1090 1074.5,4 -4,4"/>
<!-- Node1 -->
<g id="node1" class="node">
<title>Node1</title>
<g id="a_node1"><a xlink:title="Forcing class providing time&#45;series precipiation forcing data to the model.">
<polygon fill="#bfbfbf" stroke="black" points="463.5,-0.5 463.5,-343.5 627.5,-343.5 627.5,-0.5 463.5,-0.5"/>
<text text-anchor="middle" x="545.5" y="-331.5" font-family="Helvetica,sans-Serif" font-size="10.00">CsvPerFeatureForcingProvider</text>
<polyline fill="none" stroke="black" points="463.5,-324.5 627.5,-324.5 "/>
<text text-anchor="start" x="471.5" y="-312.5" font-family="Helvetica,sans-Serif" font-size="10.00">&#45; forcing_vector_index</text>
<text text-anchor="start" x="471.5" y="-301.5" font-family="Helvetica,sans-Serif" font-size="10.00">&#45; precipitation_rate</text>
<text text-anchor="start" x="471.5" y="-290.5" font-family="Helvetica,sans-Serif" font-size="10.00">_meters_per_second</text>
<text text-anchor="start" x="471.5" y="-279.5" font-family="Helvetica,sans-Serif" font-size="10.00">&#45; air_temperature_fahrenheit</text>
<text text-anchor="start" x="471.5" y="-268.5" font-family="Helvetica,sans-Serif" font-size="10.00">&#45; latitude</text>
<text text-anchor="start" x="471.5" y="-257.5" font-family="Helvetica,sans-Serif" font-size="10.00">&#45; longitude</text>
<text text-anchor="start" x="471.5" y="-246.5" font-family="Helvetica,sans-Serif" font-size="10.00">&#45; catchment_id</text>
<text text-anchor="start" x="471.5" y="-235.5" font-family="Helvetica,sans-Serif" font-size="10.00">&#45; day_of_year</text>
<text text-anchor="start" x="471.5" y="-224.5" font-family="Helvetica,sans-Serif" font-size="10.00">&#45; start_date_time_epoch</text>
<text text-anchor="start" x="471.5" y="-213.5" font-family="Helvetica,sans-Serif" font-size="10.00">&#45; end_date_time_epoch</text>
<text text-anchor="start" x="471.5" y="-202.5" font-family="Helvetica,sans-Serif" font-size="10.00">&#45; current_date_time_epoch</text>
<polyline fill="none" stroke="black" points="463.5,-195.5 627.5,-195.5 "/>
<text text-anchor="start" x="471.5" y="-183.5" font-family="Helvetica,sans-Serif" font-size="10.00">+ CsvPerFeatureForcingProvider()</text>
<text text-anchor="start" x="471.5" y="-172.5" font-family="Helvetica,sans-Serif" font-size="10.00">+ get_data_start_time()</text>
<text text-anchor="start" x="471.5" y="-161.5" font-family="Helvetica,sans-Serif" font-size="10.00">+ get_data_stop_time()</text>
<text text-anchor="start" x="471.5" y="-150.5" font-family="Helvetica,sans-Serif" font-size="10.00">+ record_duration()</text>
<text text-anchor="start" x="471.5" y="-139.5" font-family="Helvetica,sans-Serif" font-size="10.00">+ get_ts_index_for_time()</text>
<text text-anchor="start" x="471.5" y="-128.5" font-family="Helvetica,sans-Serif" font-size="10.00">+ get_value()</text>
<text text-anchor="start" x="471.5" y="-117.5" font-family="Helvetica,sans-Serif" font-size="10.00">+ is_param_sum_over_time</text>
<text text-anchor="start" x="471.5" y="-106.5" font-family="Helvetica,sans-Serif" font-size="10.00">_step()</text>
<text text-anchor="start" x="471.5" y="-95.5" font-family="Helvetica,sans-Serif" font-size="10.00">+ is_property_sum_over</text>
<text text-anchor="start" x="471.5" y="-84.5" font-family="Helvetica,sans-Serif" font-size="10.00">_time_step()</text>
<text text-anchor="start" x="471.5" y="-73.5" font-family="Helvetica,sans-Serif" font-size="10.00">+ get_avaliable_variable</text>
<text text-anchor="start" x="471.5" y="-62.5" font-family="Helvetica,sans-Serif" font-size="10.00">_names()</text>
<text text-anchor="start" x="471.5" y="-51.5" font-family="Helvetica,sans-Serif" font-size="10.00">&#45; check_forcing_vector</text>
<text text-anchor="start" x="471.5" y="-40.5" font-family="Helvetica,sans-Serif" font-size="10.00">_index_bounds()</text>
<text text-anchor="start" x="471.5" y="-29.5" font-family="Helvetica,sans-Serif" font-size="10.00">&#45; get_value_for_param</text>
<text text-anchor="start" x="471.5" y="-18.5" font-family="Helvetica,sans-Serif" font-size="10.00">_name()</text>
<text text-anchor="start" x="471.5" y="-7.5" font-family="Helvetica,sans-Serif" font-size="10.00">&#45; read_csv()</text>
</a>
</g>
</g>
<!-- Node2 -->
<g id="node2" class="node">
<title>Node2</title>
<g id="a_node2"><a xlink:href="classdata__access_1_1_generic_data_provider.html" target="_top" xlink:title=" ">
<polygon fill="white" stroke="black" points="30,-408 30,-476 161,-476 161,-408 30,-408"/>
<text text-anchor="start" x="38" y="-464" font-family="Helvetica,sans-Serif" font-size="10.00">data_access::GenericData</text>
<text text-anchor="middle" x="95.5" y="-453" font-family="Helvetica,sans-Serif" font-size="10.00">Provider</text>
<polyline fill="none" stroke="black" points="30,-446 161,-446 "/>
<text text-anchor="middle" x="95.5" y="-434" font-family="Helvetica,sans-Serif" font-size="10.00"> </text>
<polyline fill="none" stroke="black" points="30,-427 161,-427 "/>
<text text-anchor="middle" x="95.5" y="-415" font-family="Helvetica,sans-Serif" font-size="10.00"> </text>
</a>
</g>
</g>
<!-- Node2&#45;&gt;Node1 -->
<g id="edge1" class="edge">
<title>Node2&#45;&gt;Node1</title>
<path fill="none" stroke="midnightblue" d="M156.06,-402.48C176.73,-389.48 200.04,-374.98 221.5,-362 303.13,-312.62 397.44,-257.86 463.18,-220.05"/>
<polygon fill="none" stroke="midnightblue" points="153.97,-399.66 147.38,-407.95 157.7,-405.59 153.97,-399.66"/>
</g>
<!-- Node3 -->
<g id="node3" class="node">
<title>Node3</title>
<g id="a_node3"><a xlink:href="classdata__access_1_1_data_provider.html" target="_top" xlink:title=" ">
<polygon fill="white" stroke="black" points="0,-587.5 0,-754.5 191,-754.5 191,-587.5 0,-587.5"/>
<text text-anchor="start" x="8" y="-742.5" font-family="Helvetica,sans-Serif" font-size="10.00">data_access::DataProvider</text>
<text text-anchor="middle" x="95.5" y="-731.5" font-family="Helvetica,sans-Serif" font-size="10.00">&lt; double, CatchmentAggrDataSelector &gt;</text>
<polyline fill="none" stroke="black" points="0,-724.5 191,-724.5 "/>
<text text-anchor="middle" x="95.5" y="-712.5" font-family="Helvetica,sans-Serif" font-size="10.00"> </text>
<polyline fill="none" stroke="black" points="0,-705.5 191,-705.5 "/>
<text text-anchor="start" x="8" y="-693.5" font-family="Helvetica,sans-Serif" font-size="10.00">+ ~DataProvider()</text>
<text text-anchor="start" x="8" y="-682.5" font-family="Helvetica,sans-Serif" font-size="10.00">+ get_avaliable_variable</text>
<text text-anchor="start" x="8" y="-671.5" font-family="Helvetica,sans-Serif" font-size="10.00">_names()</text>
<text text-anchor="start" x="8" y="-660.5" font-family="Helvetica,sans-Serif" font-size="10.00">+ get_data_start_time()</text>
<text text-anchor="start" x="8" y="-649.5" font-family="Helvetica,sans-Serif" font-size="10.00">+ get_data_stop_time()</text>
<text text-anchor="start" x="8" y="-638.5" font-family="Helvetica,sans-Serif" font-size="10.00">+ record_duration()</text>
<text text-anchor="start" x="8" y="-627.5" font-family="Helvetica,sans-Serif" font-size="10.00">+ get_ts_index_for_time()</text>
<text text-anchor="start" x="8" y="-616.5" font-family="Helvetica,sans-Serif" font-size="10.00">+ get_value()</text>
<text text-anchor="start" x="8" y="-605.5" font-family="Helvetica,sans-Serif" font-size="10.00">+ is_property_sum_over</text>
<text text-anchor="start" x="8" y="-594.5" font-family="Helvetica,sans-Serif" font-size="10.00">_time_step()</text>
</a>
</g>
</g>
<!-- Node3&#45;&gt;Node2 -->
<g id="edge2" class="edge">
<title>Node3&#45;&gt;Node2</title>
<path fill="none" stroke="midnightblue" d="M95.5,-577.37C95.5,-541.47 95.5,-502.68 95.5,-476.05"/>
<polygon fill="none" stroke="midnightblue" points="92,-577.41 95.5,-587.41 99,-577.41 92,-577.41"/>
</g>
<!-- Node4 -->
<g id="node4" class="node">
<title>Node4</title>
<g id="a_node4"><a xlink:href="classdata__access_1_1_data_provider.html" target="_top" xlink:title=" ">
<polygon fill="white" stroke="black" points="24,-813.5 24,-980.5 167,-980.5 167,-813.5 24,-813.5"/>
<text text-anchor="start" x="32" y="-968.5" font-family="Helvetica,sans-Serif" font-size="10.00">data_access::DataProvider</text>
<text text-anchor="middle" x="95.5" y="-957.5" font-family="Helvetica,sans-Serif" font-size="10.00">&lt; data_type, selection_type &gt;</text>
<polyline fill="none" stroke="black" points="24,-950.5 167,-950.5 "/>
<text text-anchor="middle" x="95.5" y="-938.5" font-family="Helvetica,sans-Serif" font-size="10.00"> </text>
<polyline fill="none" stroke="black" points="24,-931.5 167,-931.5 "/>
<text text-anchor="start" x="32" y="-919.5" font-family="Helvetica,sans-Serif" font-size="10.00">+ ~DataProvider()</text>
<text text-anchor="start" x="32" y="-908.5" font-family="Helvetica,sans-Serif" font-size="10.00">+ get_avaliable_variable</text>
<text text-anchor="start" x="32" y="-897.5" font-family="Helvetica,sans-Serif" font-size="10.00">_names()</text>
<text text-anchor="start" x="32" y="-886.5" font-family="Helvetica,sans-Serif" font-size="10.00">+ get_data_start_time()</text>
<text text-anchor="start" x="32" y="-875.5" font-family="Helvetica,sans-Serif" font-size="10.00">+ get_data_stop_time()</text>
<text text-anchor="start" x="32" y="-864.5" font-family="Helvetica,sans-Serif" font-size="10.00">+ record_duration()</text>
<text text-anchor="start" x="32" y="-853.5" font-family="Helvetica,sans-Serif" font-size="10.00">+ get_ts_index_for_time()</text>
<text text-anchor="start" x="32" y="-842.5" font-family="Helvetica,sans-Serif" font-size="10.00">+ get_value()</text>
<text text-anchor="start" x="32" y="-831.5" font-family="Helvetica,sans-Serif" font-size="10.00">+ is_property_sum_over</text>
<text text-anchor="start" x="32" y="-820.5" font-family="Helvetica,sans-Serif" font-size="10.00">_time_step()</text>
</a>
</g>
</g>
<!-- Node4&#45;&gt;Node3 -->
<g id="edge3" class="edge">
<title>Node4&#45;&gt;Node3</title>
<path fill="none" stroke="orange" d="M95.5,-802.84C95.5,-786.91 95.5,-770.45 95.5,-754.81"/>
<polygon fill="orange" stroke="orange" points="92,-803.23 95.5,-813.23 99,-803.23 92,-803.23"/>
<text text-anchor="start" x="95.5" y="-787" font-family="Helvetica,sans-Serif" font-size="10.00"> &lt; double, CatchmentAggrData</text>
<text text-anchor="middle" x="162" y="-776" font-family="Helvetica,sans-Serif" font-size="10.00">Selector &gt;</text>
</g>
<!-- Node5 -->
<g id="node5" class="node">
<title>Node5</title>
<g id="a_node5"><a xlink:title=" ">
<polygon fill="white" stroke="black" points="179,-402.5 179,-481.5 290,-481.5 290,-402.5 179,-402.5"/>
<text text-anchor="start" x="187" y="-469.5" font-family="Helvetica,sans-Serif" font-size="10.00">std::map&lt; std::string,</text>
<text text-anchor="start" x="187" y="-458.5" font-family="Helvetica,sans-Serif" font-size="10.00"> std::tuple&lt; std::string,</text>
<text text-anchor="middle" x="234.5" y="-447.5" font-family="Helvetica,sans-Serif" font-size="10.00"> std::string &gt; &gt;</text>
<polyline fill="none" stroke="black" points="179,-440.5 290,-440.5 "/>
<text text-anchor="start" x="187" y="-428.5" font-family="Helvetica,sans-Serif" font-size="10.00">+ elements</text>
<polyline fill="none" stroke="black" points="179,-421.5 290,-421.5 "/>
<text text-anchor="middle" x="234.5" y="-409.5" font-family="Helvetica,sans-Serif" font-size="10.00"> </text>
</a>
</g>
</g>
<!-- Node5&#45;&gt;Node1 -->
<g id="edge4" class="edge">
<title>Node5&#45;&gt;Node1</title>
<path fill="none" stroke="#404040" d="M225.03,-402.46C223.71,-388.91 224.68,-374.07 231.5,-362 278.24,-279.32 377.22,-228.8 451.64,-201.05"/>
<polygon fill="none" stroke="#404040" points="452.08,-200.89 456.35,-195.08 463.36,-196.79 459.08,-202.6 452.08,-200.89"/>
<text text-anchor="middle" x="274" y="-370.5" font-family="Helvetica,sans-Serif" font-size="10.00"> &#45;well_known_fields</text>
</g>
<!-- Node6 -->
<g id="node6" class="node">
<title>Node6</title>
<g id="a_node6"><a xlink:title=" ">
<polygon fill="white" stroke="black" points="354,-642.5 354,-699.5 413,-699.5 413,-642.5 354,-642.5"/>
<text text-anchor="middle" x="383.5" y="-687.5" font-family="Helvetica,sans-Serif" font-size="10.00">std::string</text>
<polyline fill="none" stroke="black" points="354,-680.5 413,-680.5 "/>
<text text-anchor="middle" x="383.5" y="-668.5" font-family="Helvetica,sans-Serif" font-size="10.00"> </text>
<polyline fill="none" stroke="black" points="354,-661.5 413,-661.5 "/>
<text text-anchor="middle" x="383.5" y="-649.5" font-family="Helvetica,sans-Serif" font-size="10.00"> </text>
</a>
</g>
</g>
<!-- Node6&#45;&gt;Node1 -->
<g id="edge26" class="edge">
<title>Node6&#45;&gt;Node1</title>
<path fill="none" stroke="#404040" d="M370.03,-642.42C347.7,-592.75 308.53,-485.63 340.5,-402 363.67,-341.38 411.09,-286.67 454.5,-245.94"/>
<polygon fill="none" stroke="#404040" points="454.58,-245.86 456.28,-238.86 463.4,-237.73 461.7,-244.73 454.58,-245.86"/>
<text text-anchor="middle" x="381.5" y="-439.5" font-family="Helvetica,sans-Serif" font-size="10.00"> &#45;forcing_file_name</text>
</g>
<!-- Node6&#45;&gt;Node5 -->
<g id="edge5" class="edge">
<title>Node6&#45;&gt;Node5</title>
<path fill="none" stroke="#404040" d="M370.43,-642.36C360.88,-624.62 346.49,-602.14 328.5,-587 313.27,-574.18 300.91,-583.7 287.5,-569 265.72,-545.12 277.18,-529.73 264.5,-500 263.45,-497.53 262.33,-495.03 261.17,-492.52"/>
<polygon fill="none" stroke="#404040" points="261.08,-492.33 254.87,-488.67 255.86,-481.53 262.07,-485.19 261.08,-492.33"/>
<text text-anchor="middle" x="302" y="-532" font-family="Helvetica,sans-Serif" font-size="10.00"> +keys</text>
</g>
<!-- Node11 -->
<g id="node11" class="node">
<title>Node11</title>
<g id="a_node11"><a xlink:title=" ">
<polygon fill="white" stroke="black" points="550.5,-413.5 550.5,-470.5 670.5,-470.5 670.5,-413.5 550.5,-413.5"/>
<text text-anchor="middle" x="610.5" y="-458.5" font-family="Helvetica,sans-Serif" font-size="10.00">std::vector&lt; std::string &gt;</text>
<polyline fill="none" stroke="black" points="550.5,-451.5 670.5,-451.5 "/>
<text text-anchor="middle" x="610.5" y="-439.5" font-family="Helvetica,sans-Serif" font-size="10.00"> </text>
<polyline fill="none" stroke="black" points="550.5,-432.5 670.5,-432.5 "/>
<text text-anchor="middle" x="610.5" y="-420.5" font-family="Helvetica,sans-Serif" font-size="10.00"> </text>
</a>
</g>
</g>
<!-- Node6&#45;&gt;Node11 -->
<g id="edge11" class="edge">
<title>Node6&#45;&gt;Node11</title>
<path fill="none" stroke="#404040" d="M397.72,-642.14C408.45,-623.83 424.86,-600.78 445.5,-587 472.57,-568.92 492.65,-591.16 516.5,-569 540.18,-547 521.03,-526.53 539.5,-500 544.9,-492.25 551.64,-485.01 558.82,-478.46"/>
<polygon fill="none" stroke="#404040" points="558.94,-478.36 560.9,-471.42 568.06,-470.56 566.1,-477.5 558.94,-478.36"/>
<text text-anchor="middle" x="564" y="-532" font-family="Helvetica,sans-Serif" font-size="10.00"> +elements</text>
</g>
<!-- Node13 -->
<g id="node13" class="node">
<title>Node13</title>
<g id="a_node13"><a xlink:title=" ">
<polygon fill="white" stroke="black" points="431,-402.5 431,-481.5 532,-481.5 532,-402.5 431,-402.5"/>
<text text-anchor="start" x="439" y="-469.5" font-family="Helvetica,sans-Serif" font-size="10.00">std::unordered_map</text>
<text text-anchor="start" x="439" y="-458.5" font-family="Helvetica,sans-Serif" font-size="10.00">&lt; std::string, std::</text>
<text text-anchor="middle" x="481.5" y="-447.5" font-family="Helvetica,sans-Serif" font-size="10.00">string &gt;</text>
<polyline fill="none" stroke="black" points="431,-440.5 532,-440.5 "/>
<text text-anchor="middle" x="481.5" y="-428.5" font-family="Helvetica,sans-Serif" font-size="10.00"> </text>
<polyline fill="none" stroke="black" points="431,-421.5 532,-421.5 "/>
<text text-anchor="middle" x="481.5" y="-409.5" font-family="Helvetica,sans-Serif" font-size="10.00"> </text>
</a>
</g>
</g>
<!-- Node6&#45;&gt;Node13 -->
<g id="edge15" class="edge">
<title>Node6&#45;&gt;Node13</title>
<path fill="none" stroke="#404040" d="M375.72,-642.47C367.35,-606.89 358.44,-544.25 384.5,-500 392.78,-485.94 402.39,-490.2 416.5,-482 417.81,-481.24 419.14,-480.46 420.47,-479.68"/>
<polygon fill="none" stroke="#404040" points="420.5,-479.67 423.64,-473.18 430.84,-473.58 427.7,-480.07 420.5,-479.67"/>
<text text-anchor="middle" x="409" y="-537.5" font-family="Helvetica,sans-Serif" font-size="10.00"> +elements</text>
<text text-anchor="middle" x="409" y="-526.5" font-family="Helvetica,sans-Serif" font-size="10.00">+keys</text>
</g>
<!-- Node15 -->
<g id="node15" class="node">
<title>Node15</title>
<g id="a_node15"><a xlink:title=" ">
<polygon fill="white" stroke="black" points="689,-402.5 689,-481.5 790,-481.5 790,-402.5 689,-402.5"/>
<text text-anchor="start" x="697" y="-469.5" font-family="Helvetica,sans-Serif" font-size="10.00">std::unordered_map</text>
<text text-anchor="start" x="697" y="-458.5" font-family="Helvetica,sans-Serif" font-size="10.00">&lt; std::string, std::</text>
<text text-anchor="middle" x="739.5" y="-447.5" font-family="Helvetica,sans-Serif" font-size="10.00">vector&lt; double &gt; &gt;</text>
<polyline fill="none" stroke="black" points="689,-440.5 790,-440.5 "/>
<text text-anchor="middle" x="739.5" y="-428.5" font-family="Helvetica,sans-Serif" font-size="10.00"> </text>
<polyline fill="none" stroke="black" points="689,-421.5 790,-421.5 "/>
<text text-anchor="middle" x="739.5" y="-409.5" font-family="Helvetica,sans-Serif" font-size="10.00"> </text>
</a>
</g>
</g>
<!-- Node6&#45;&gt;Node15 -->
<g id="edge20" class="edge">
<title>Node6&#45;&gt;Node15</title>
<path fill="none" stroke="#404040" d="M396.74,-642.1C407.22,-623.27 423.72,-599.63 445.5,-587 502.44,-553.98 537.57,-605.27 592.5,-569 622.08,-549.47 605.52,-522.99 632.5,-500 647.2,-487.48 656.69,-490.73 677.87,-482.07"/>
<polygon fill="none" stroke="#404040" points="677.99,-482.01 681.75,-475.85 688.87,-476.95 685.12,-483.1 677.99,-482.01"/>
<text text-anchor="middle" x="647" y="-532" font-family="Helvetica,sans-Serif" font-size="10.00"> +keys</text>
</g>
<!-- Node7 -->
<g id="node7" class="node">
<title>Node7</title>
<g id="a_node7"><a xlink:title=" ">
<polygon fill="white" stroke="black" points="343,-863 343,-931 436,-931 436,-863 343,-863"/>
<text text-anchor="start" x="351" y="-919" font-family="Helvetica,sans-Serif" font-size="10.00">std::basic_string&lt;</text>
<text text-anchor="middle" x="389.5" y="-908" font-family="Helvetica,sans-Serif" font-size="10.00"> Char &gt;</text>
<polyline fill="none" stroke="black" points="343,-901 436,-901 "/>
<text text-anchor="middle" x="389.5" y="-889" font-family="Helvetica,sans-Serif" font-size="10.00"> </text>
<polyline fill="none" stroke="black" points="343,-882 436,-882 "/>
<text text-anchor="middle" x="389.5" y="-870" font-family="Helvetica,sans-Serif" font-size="10.00"> </text>
</a>
</g>
</g>
<!-- Node7&#45;&gt;Node6 -->
<g id="edge6" class="edge">
<title>Node7&#45;&gt;Node6</title>
<path fill="none" stroke="midnightblue" d="M388.34,-852.85C387.13,-807.59 385.26,-737.84 384.24,-699.54"/>
<polygon fill="none" stroke="midnightblue" points="384.85,-853.05 388.61,-862.95 391.85,-852.86 384.85,-853.05"/>
</g>
<!-- Node8 -->
<g id="node8" class="node">
<title>Node8</title>
<g id="a_node8"><a xlink:title=" ">
<polygon fill="white" stroke="black" points="231.5,-642.5 231.5,-699.5 319.5,-699.5 319.5,-642.5 231.5,-642.5"/>
<text text-anchor="middle" x="275.5" y="-687.5" font-family="Helvetica,sans-Serif" font-size="10.00">std::map&lt; K, T &gt;</text>
<polyline fill="none" stroke="black" points="231.5,-680.5 319.5,-680.5 "/>
<text text-anchor="middle" x="275.5" y="-668.5" font-family="Helvetica,sans-Serif" font-size="10.00"> </text>
<polyline fill="none" stroke="black" points="231.5,-661.5 319.5,-661.5 "/>
<text text-anchor="middle" x="275.5" y="-649.5" font-family="Helvetica,sans-Serif" font-size="10.00"> </text>
</a>
</g>
</g>
<!-- Node8&#45;&gt;Node5 -->
<g id="edge7" class="edge">
<title>Node8&#45;&gt;Node5</title>
<path fill="none" stroke="orange" d="M242.98,-634.71C217.85,-607.25 187.07,-573.13 185.5,-569 174.58,-540.34 174.84,-528.75 185.5,-500 187.86,-493.64 191.28,-487.51 195.24,-481.78"/>
<polygon fill="orange" stroke="orange" points="240.55,-637.24 249.89,-642.24 245.71,-632.51 240.55,-637.24"/>
<text text-anchor="start" x="185.5" y="-543" font-family="Helvetica,sans-Serif" font-size="10.00"> &lt; std::string, std</text>
<text text-anchor="start" x="185.5" y="-532" font-family="Helvetica,sans-Serif" font-size="10.00">::tuple&lt; std::string,</text>
<text text-anchor="middle" x="225" y="-521" font-family="Helvetica,sans-Serif" font-size="10.00"> std::string &gt; &gt;</text>
</g>
<!-- Node9 -->
<g id="node9" class="node">
<title>Node9</title>
<g id="a_node9"><a xlink:title=" ">
<polygon fill="white" stroke="black" points="457,-868.5 457,-925.5 486,-925.5 486,-868.5 457,-868.5"/>
<text text-anchor="middle" x="471.5" y="-913.5" font-family="Helvetica,sans-Serif" font-size="10.00">K</text>
<polyline fill="none" stroke="black" points="457,-906.5 486,-906.5 "/>
<text text-anchor="middle" x="471.5" y="-894.5" font-family="Helvetica,sans-Serif" font-size="10.00"> </text>
<polyline fill="none" stroke="black" points="457,-887.5 486,-887.5 "/>
<text text-anchor="middle" x="471.5" y="-875.5" font-family="Helvetica,sans-Serif" font-size="10.00"> </text>
</a>
</g>
</g>
<!-- Node9&#45;&gt;Node8 -->
<g id="edge8" class="edge">
<title>Node9&#45;&gt;Node8</title>
<path fill="none" stroke="#404040" d="M467.65,-868.17C464.06,-850.79 457.27,-828.79 444.5,-813 412.2,-773.04 383.75,-788.15 344.5,-755 328.76,-741.71 313.82,-724.53 301.89,-709.25"/>
<polygon fill="none" stroke="#404040" points="301.77,-709.09 294.96,-706.74 294.51,-699.54 301.32,-701.9 301.77,-709.09"/>
<text text-anchor="middle" x="439" y="-781.5" font-family="Helvetica,sans-Serif" font-size="10.00"> +keys</text>
</g>
<!-- Node14 -->
<g id="node14" class="node">
<title>Node14</title>
<g id="a_node14"><a xlink:title=" ">
<polygon fill="white" stroke="black" points="454,-637 454,-705 555,-705 555,-637 454,-637"/>
<text text-anchor="start" x="462" y="-693" font-family="Helvetica,sans-Serif" font-size="10.00">std::unordered_map</text>
<text text-anchor="middle" x="504.5" y="-682" font-family="Helvetica,sans-Serif" font-size="10.00">&lt; K, T &gt;</text>
<polyline fill="none" stroke="black" points="454,-675 555,-675 "/>
<text text-anchor="middle" x="504.5" y="-663" font-family="Helvetica,sans-Serif" font-size="10.00"> </text>
<polyline fill="none" stroke="black" points="454,-656 555,-656 "/>
<text text-anchor="middle" x="504.5" y="-644" font-family="Helvetica,sans-Serif" font-size="10.00"> </text>
</a>
</g>
</g>
<!-- Node9&#45;&gt;Node14 -->
<g id="edge17" class="edge">
<title>Node9&#45;&gt;Node14</title>
<path fill="none" stroke="#404040" d="M475.61,-868.08C481.19,-830.24 491.21,-762.22 497.86,-717.09"/>
<polygon fill="none" stroke="#404040" points="497.89,-716.88 494.81,-710.36 499.64,-705.01 502.72,-711.53 497.89,-716.88"/>
<text text-anchor="middle" x="503" y="-781.5" font-family="Helvetica,sans-Serif" font-size="10.00"> +keys</text>
</g>
<!-- Node10 -->
<g id="node10" class="node">
<title>Node10</title>
<g id="a_node10"><a xlink:title=" ">
<polygon fill="white" stroke="black" points="571,-1028.5 571,-1085.5 600,-1085.5 600,-1028.5 571,-1028.5"/>
<text text-anchor="middle" x="585.5" y="-1073.5" font-family="Helvetica,sans-Serif" font-size="10.00">T</text>
<polyline fill="none" stroke="black" points="571,-1066.5 600,-1066.5 "/>
<text text-anchor="middle" x="585.5" y="-1054.5" font-family="Helvetica,sans-Serif" font-size="10.00"> </text>
<polyline fill="none" stroke="black" points="571,-1047.5 600,-1047.5 "/>
<text text-anchor="middle" x="585.5" y="-1035.5" font-family="Helvetica,sans-Serif" font-size="10.00"> </text>
</a>
</g>
</g>
<!-- Node10&#45;&gt;Node8 -->
<g id="edge9" class="edge">
<title>Node10&#45;&gt;Node8</title>
<path fill="none" stroke="#404040" d="M570.83,-1054.62C515.72,-1049.11 322.42,-1026.74 285.5,-981 222.79,-903.31 245.93,-775.38 263.27,-711.24"/>
<polygon fill="none" stroke="#404040" points="263.28,-711.21 261.05,-704.35 266.53,-699.66 268.75,-706.52 263.28,-711.21"/>
<text text-anchor="middle" x="310" y="-894.5" font-family="Helvetica,sans-Serif" font-size="10.00"> +elements</text>
</g>
<!-- Node12 -->
<g id="node12" class="node">
<title>Node12</title>
<g id="a_node12"><a xlink:title=" ">
<polygon fill="white" stroke="black" points="633.5,-868.5 633.5,-925.5 717.5,-925.5 717.5,-868.5 633.5,-868.5"/>
<text text-anchor="middle" x="675.5" y="-913.5" font-family="Helvetica,sans-Serif" font-size="10.00">std::vector&lt; T &gt;</text>
<polyline fill="none" stroke="black" points="633.5,-906.5 717.5,-906.5 "/>
<text text-anchor="middle" x="675.5" y="-894.5" font-family="Helvetica,sans-Serif" font-size="10.00"> </text>
<polyline fill="none" stroke="black" points="633.5,-887.5 717.5,-887.5 "/>
<text text-anchor="middle" x="675.5" y="-875.5" font-family="Helvetica,sans-Serif" font-size="10.00"> </text>
</a>
</g>
</g>
<!-- Node10&#45;&gt;Node12 -->
<g id="edge13" class="edge">
<title>Node10&#45;&gt;Node12</title>
<path fill="none" stroke="#404040" d="M600.16,-1030.26C614.69,-1004.75 637.12,-965.37 653.73,-936.21"/>
<polygon fill="none" stroke="#404040" points="653.85,-936.01 653.34,-928.82 659.79,-925.59 660.29,-932.78 653.85,-936.01"/>
<text text-anchor="middle" x="641" y="-1002" font-family="Helvetica,sans-Serif" font-size="10.00"> +elements</text>
</g>
<!-- Node10&#45;&gt;Node14 -->
<g id="edge18" class="edge">
<title>Node10&#45;&gt;Node14</title>
<path fill="none" stroke="#404040" d="M579.67,-1028.38C565.87,-962.93 531.04,-797.83 514.08,-717.41"/>
<polygon fill="none" stroke="#404040" points="513.99,-717.01 508.84,-711.96 511.52,-705.26 516.67,-710.31 513.99,-717.01"/>
<text text-anchor="middle" x="593" y="-894.5" font-family="Helvetica,sans-Serif" font-size="10.00"> +elements</text>
</g>
<!-- Node19 -->
<g id="node19" class="node">
<title>Node19</title>
<g id="a_node19"><a xlink:title=" ">
<polygon fill="white" stroke="black" points="873,-868.5 873,-925.5 976,-925.5 976,-868.5 873,-868.5"/>
<text text-anchor="middle" x="924.5" y="-913.5" font-family="Helvetica,sans-Serif" font-size="10.00">std::shared_ptr&lt; T &gt;</text>
<polyline fill="none" stroke="black" points="873,-906.5 976,-906.5 "/>
<text text-anchor="middle" x="924.5" y="-894.5" font-family="Helvetica,sans-Serif" font-size="10.00"> </text>
<polyline fill="none" stroke="black" points="873,-887.5 976,-887.5 "/>
<text text-anchor="start" x="881" y="-875.5" font-family="Helvetica,sans-Serif" font-size="10.00">+ operator&#45;&gt;()</text>
</a>
</g>
</g>
<!-- Node10&#45;&gt;Node19 -->
<g id="edge29" class="edge">
<title>Node10&#45;&gt;Node19</title>
<path fill="none" stroke="#404040" d="M600.07,-1049.21C644.55,-1028.48 780.51,-965.11 861.62,-927.3"/>
<polygon fill="none" stroke="#404040" points="861.81,-927.22 865.56,-921.06 872.69,-922.15 868.94,-928.31 861.81,-927.22"/>
<text text-anchor="middle" x="714.5" y="-1002" font-family="Helvetica,sans-Serif" font-size="10.00"> +ptr</text>
</g>
<!-- Node11&#45;&gt;Node1 -->
<g id="edge10" class="edge">
<title>Node11&#45;&gt;Node1</title>
<path fill="none" stroke="#404040" d="M603.79,-413.33C600.1,-398.12 595.18,-377.82 589.75,-355.44"/>
<polygon fill="none" stroke="#404040" points="589.7,-355.22 584.39,-350.33 586.87,-343.56 592.17,-348.45 589.7,-355.22"/>
<text text-anchor="middle" x="637.5" y="-370.5" font-family="Helvetica,sans-Serif" font-size="10.00"> &#45;available_forcings</text>
</g>
<!-- Node12&#45;&gt;Node11 -->
<g id="edge12" class="edge">
<title>Node12&#45;&gt;Node11</title>
<path fill="none" stroke="orange" d="M665.73,-858.46C658.61,-830.17 649.09,-790.33 642.5,-755 627.2,-672.94 624.27,-652.11 616.5,-569 613.34,-535.2 611.81,-496.14 611.09,-470.58"/>
<polygon fill="orange" stroke="orange" points="662.39,-859.5 668.24,-868.33 669.17,-857.78 662.39,-859.5"/>
<text text-anchor="middle" x="673" y="-668.5" font-family="Helvetica,sans-Serif" font-size="10.00"> &lt; std::string &gt;</text>
</g>
<!-- Node16 -->
<g id="node16" class="node">
<title>Node16</title>
<g id="a_node16"><a xlink:title=" ">
<polygon fill="white" stroke="black" points="712,-642.5 712,-699.5 819,-699.5 819,-642.5 712,-642.5"/>
<text text-anchor="middle" x="765.5" y="-687.5" font-family="Helvetica,sans-Serif" font-size="10.00">std::vector&lt; double &gt;</text>
<polyline fill="none" stroke="black" points="712,-680.5 819,-680.5 "/>
<text text-anchor="start" x="720" y="-668.5" font-family="Helvetica,sans-Serif" font-size="10.00">+ elements</text>
<polyline fill="none" stroke="black" points="712,-661.5 819,-661.5 "/>
<text text-anchor="middle" x="765.5" y="-649.5" font-family="Helvetica,sans-Serif" font-size="10.00"> </text>
</a>
</g>
</g>
<!-- Node12&#45;&gt;Node16 -->
<g id="edge22" class="edge">
<title>Node12&#45;&gt;Node16</title>
<path fill="none" stroke="orange" d="M690.48,-858.71C708.51,-813.84 738.35,-739.57 754.42,-699.56"/>
<polygon fill="orange" stroke="orange" points="687.2,-857.5 686.72,-868.08 693.69,-860.11 687.2,-857.5"/>
<text text-anchor="middle" x="746.5" y="-781.5" font-family="Helvetica,sans-Serif" font-size="10.00"> &lt; double &gt;</text>
</g>
<!-- Node17 -->
<g id="node17" class="node">
<title>Node17</title>
<g id="a_node17"><a xlink:title=" ">
<polygon fill="white" stroke="black" points="850,-506 850,-563 955,-563 955,-506 850,-506"/>
<text text-anchor="middle" x="902.5" y="-551" font-family="Helvetica,sans-Serif" font-size="10.00">std::vector&lt; time_t &gt;</text>
<polyline fill="none" stroke="black" points="850,-544 955,-544 "/>
<text text-anchor="start" x="858" y="-532" font-family="Helvetica,sans-Serif" font-size="10.00">+ elements</text>
<polyline fill="none" stroke="black" points="850,-525 955,-525 "/>
<text text-anchor="middle" x="902.5" y="-513" font-family="Helvetica,sans-Serif" font-size="10.00"> </text>
</a>
</g>
</g>
<!-- Node12&#45;&gt;Node17 -->
<g id="edge25" class="edge">
<title>Node12&#45;&gt;Node17</title>
<path fill="none" stroke="orange" d="M723.57,-862.09C757.15,-836.18 800.76,-797.74 828.5,-755 868.78,-692.93 889.39,-606.69 897.79,-563.09"/>
<polygon fill="orange" stroke="orange" points="721.1,-859.57 715.26,-868.41 725.34,-865.14 721.1,-859.57"/>
<text text-anchor="middle" x="836.5" y="-781.5" font-family="Helvetica,sans-Serif" font-size="10.00"> &lt; time_t &gt;</text>
</g>
<!-- Node13&#45;&gt;Node1 -->
<g id="edge14" class="edge">
<title>Node13&#45;&gt;Node1</title>
<path fill="none" stroke="#404040" d="M486.46,-402.26C488.35,-389.39 490.73,-375.03 493.5,-362 493.96,-359.82 494.44,-357.62 494.92,-355.42"/>
<polygon fill="none" stroke="#404040" points="494.96,-355.24 492.38,-348.51 497.6,-343.54 500.18,-350.27 494.96,-355.24"/>
<text text-anchor="start" x="493.5" y="-376" font-family="Helvetica,sans-Serif" font-size="10.00"> &#45;available_forcings</text>
<text text-anchor="middle" x="535.5" y="-365" font-family="Helvetica,sans-Serif" font-size="10.00">_units</text>
</g>
<!-- Node14&#45;&gt;Node13 -->
<g id="edge16" class="edge">
<title>Node14&#45;&gt;Node13</title>
<path fill="none" stroke="orange" d="M472.61,-627.88C461.41,-610.59 450.2,-589.77 444.5,-569 436.38,-539.43 435.79,-529.4 444.5,-500 446.34,-493.78 449.1,-487.6 452.3,-481.73"/>
<polygon fill="orange" stroke="orange" points="469.96,-630.22 478.44,-636.59 475.78,-626.33 469.96,-630.22"/>
<text text-anchor="start" x="444.5" y="-537.5" font-family="Helvetica,sans-Serif" font-size="10.00"> &lt; std::string, std</text>
<text text-anchor="middle" x="480.5" y="-526.5" font-family="Helvetica,sans-Serif" font-size="10.00">::string &gt;</text>
</g>
<!-- Node14&#45;&gt;Node15 -->
<g id="edge23" class="edge">
<title>Node14&#45;&gt;Node15</title>
<path fill="none" stroke="orange" d="M533.21,-629.05C546,-613.66 562.3,-597.4 580.5,-587 614.03,-567.84 637.39,-595.47 665.5,-569 688.66,-547.19 668.75,-527.63 684.5,-500 688.11,-493.67 692.58,-487.52 697.41,-481.74"/>
<polygon fill="orange" stroke="orange" points="530.38,-626.98 526.85,-636.97 535.84,-631.36 530.38,-626.98"/>
<text text-anchor="start" x="684.5" y="-537.5" font-family="Helvetica,sans-Serif" font-size="10.00"> &lt; std::string, std</text>
<text text-anchor="middle" x="727" y="-526.5" font-family="Helvetica,sans-Serif" font-size="10.00">::vector&lt; double &gt; &gt;</text>
</g>
<!-- Node15&#45;&gt;Node1 -->
<g id="edge19" class="edge">
<title>Node15&#45;&gt;Node1</title>
<path fill="none" stroke="#404040" d="M712.26,-402.35C703.16,-389.49 692.93,-375.1 683.5,-362 667.84,-340.24 651.09,-317.14 634.84,-294.84"/>
<polygon fill="none" stroke="#404040" points="634.74,-294.69 627.97,-292.2 627.67,-284.99 634.44,-287.49 634.74,-294.69"/>
<text text-anchor="middle" x="735" y="-370.5" font-family="Helvetica,sans-Serif" font-size="10.00"> &#45;forcing_vectors</text>
</g>
<!-- Node16&#45;&gt;Node15 -->
<g id="edge21" class="edge">
<title>Node16&#45;&gt;Node15</title>
<path fill="none" stroke="#404040" d="M772,-642.33C778.84,-608.2 786.92,-548.71 773.5,-500 772.83,-497.57 772.03,-495.14 771.12,-492.73"/>
<polygon fill="none" stroke="#404040" points="771.06,-492.59 764.97,-488.73 766.19,-481.62 772.28,-485.48 771.06,-492.59"/>
<text text-anchor="middle" x="805" y="-532" font-family="Helvetica,sans-Serif" font-size="10.00"> +elements</text>
</g>
<!-- Node17&#45;&gt;Node1 -->
<g id="edge24" class="edge">
<title>Node17&#45;&gt;Node1</title>
<path fill="none" stroke="#404040" d="M885.03,-505.76C862.14,-470.44 819.66,-408.45 775.5,-362 733.45,-317.77 681.25,-274.13 637.22,-239.95"/>
<polygon fill="none" stroke="#404040" points="637.17,-239.91 629.97,-239.41 627.67,-232.58 634.86,-233.08 637.17,-239.91"/>
<text text-anchor="middle" x="910.5" y="-439.5" font-family="Helvetica,sans-Serif" font-size="10.00"> &#45;time_epoch_vector</text>
</g>
<!-- Node18 -->
<g id="node18" class="node">
<title>Node18</title>
<g id="a_node18"><a xlink:title=" ">
<polygon fill="white" stroke="black" points="960,-500.5 960,-568.5 1067,-568.5 1067,-500.5 960,-500.5"/>
<text text-anchor="start" x="968" y="-556.5" font-family="Helvetica,sans-Serif" font-size="10.00">std::shared_ptr&lt; time</text>
<text text-anchor="middle" x="1013.5" y="-545.5" font-family="Helvetica,sans-Serif" font-size="10.00">_type &gt;</text>
<polyline fill="none" stroke="black" points="960,-538.5 1067,-538.5 "/>
<text text-anchor="start" x="968" y="-526.5" font-family="Helvetica,sans-Serif" font-size="10.00">+ ptr</text>
<polyline fill="none" stroke="black" points="960,-519.5 1067,-519.5 "/>
<text text-anchor="start" x="968" y="-507.5" font-family="Helvetica,sans-Serif" font-size="10.00">+ operator&#45;&gt;()</text>
</a>
</g>
</g>
<!-- Node18&#45;&gt;Node1 -->
<g id="edge27" class="edge">
<title>Node18&#45;&gt;Node1</title>
<path fill="none" stroke="#404040" d="M1006.22,-500.47C998.47,-471.67 983.76,-430.21 958.5,-402 870.95,-304.23 731.41,-239.2 639.13,-204.18"/>
<polygon fill="none" stroke="#404040" points="639.08,-204.16 632.06,-205.81 627.84,-199.96 634.86,-198.31 639.08,-204.16"/>
<text text-anchor="middle" x="1035" y="-445" font-family="Helvetica,sans-Serif" font-size="10.00"> &#45;end_date_time</text>
<text text-anchor="middle" x="1035" y="-434" font-family="Helvetica,sans-Serif" font-size="10.00">&#45;start_date_time</text>
</g>
<!-- Node19&#45;&gt;Node18 -->
<g id="edge28" class="edge">
<title>Node19&#45;&gt;Node18</title>
<path fill="none" stroke="orange" d="M933.76,-858.49C951.21,-787.79 988.71,-635.92 1005.31,-568.69"/>
<polygon fill="orange" stroke="orange" points="930.33,-857.76 931.34,-868.31 937.13,-859.44 930.33,-857.76"/>
<text text-anchor="middle" x="984" y="-781.5" font-family="Helvetica,sans-Serif" font-size="10.00"> &lt; time_type &gt;</text>
</g>
</g>
</svg>
        <g id="navigator" transform="translate(0 0)" fill="#404254">
                <rect fill="#f2f5e9" fill-opacity="0.5" stroke="#606060" stroke-width=".5" x="0" y="0" width="60" height="60"/>
                <use id="zoomplus" xlink:href="#zoomPlus" x="17" y="9" onmousedown="handleZoom(evt,'in')"/>
                <use id="zoomminus" xlink:href="#zoomMin" x="42" y="9" onmousedown="handleZoom(evt,'out')"/>
                <use id="reset" xlink:href="#resetDef" x="30" y="36" onmousedown="handleReset()"/>
                <g id="arrowUp" xlink:href="#dirArrow" transform="translate(30 24)" onmousedown="handlePan(0,-1)">
                  <use xlink:href="#rim" fill="#404040">
                        <set attributeName="fill" to="#808080" begin="arrowUp.mouseover" end="arrowUp.mouseout"/>
                  </use>
                  <path fill="none" stroke="white" stroke-width="1.5" d="M0,-3.0v7 M-2.5,-0.5L0,-3.0L2.5,-0.5"/>
                </g>
                <g id="arrowRight" xlink:href="#dirArrow" transform="rotate(90) translate(36 -43)" onmousedown="handlePan(1,0)">
                  <use xlink:href="#rim" fill="#404040">
                        <set attributeName="fill" to="#808080" begin="arrowRight.mouseover" end="arrowRight.mouseout"/>
                  </use>
                  <path fill="none" stroke="white" stroke-width="1.5" d="M0,-3.0v7 M-2.5,-0.5L0,-3.0L2.5,-0.5"/>
                </g>
                <g id="arrowDown" xlink:href="#dirArrow" transform="rotate(180) translate(-30 -48)" onmousedown="handlePan(0,1)">
                  <use xlink:href="#rim" fill="#404040">
                        <set attributeName="fill" to="#808080" begin="arrowDown.mouseover" end="arrowDown.mouseout"/>
                  </use>
                  <path fill="none" stroke="white" stroke-width="1.5" d="M0,-3.0v7 M-2.5,-0.5L0,-3.0L2.5,-0.5"/>
                </g>
                <g id="arrowLeft" xlink:href="#dirArrow" transform="rotate(270) translate(-36 17)" onmousedown="handlePan(-1,0)">
                  <use xlink:href="#rim" fill="#404040">
                        <set attributeName="fill" to="#808080" begin="arrowLeft.mouseover" end="arrowLeft.mouseout"/>
                  </use>
                  <path fill="none" stroke="white" stroke-width="1.5" d="M0,-3.0v7 M-2.5,-0.5L0,-3.0L2.5,-0.5"/>
                </g>
        </g>
        <svg viewBox="0 0 15 15" width="100%" height="30px" preserveAspectRatio="xMaxYMin meet">
         <g id="arrow_out" transform="scale(0.3 0.3)">
          <a xlink:href="class_csv_per_feature_forcing_provider__coll__graph_org.svg" target="_base">
           <rect id="button" ry="5" rx="5" y="6" x="6" height="38" width="38"
                fill="#f2f5e9" fill-opacity="0.5" stroke="#606060" stroke-width="1.0"/>
           <path id="arrow"
             d="M 11.500037,31.436501 C 11.940474,20.09759 22.043105,11.32322 32.158766,21.979434 L 37.068811,17.246167 C 37.068811,17.246167 37.088388,32 37.088388,32 L 22.160133,31.978069 C 22.160133,31.978069 26.997745,27.140456 26.997745,27.140456 C 18.528582,18.264221 13.291696,25.230495 11.500037,31.436501 z"
             style="fill:#404040;"/>
          </a>
         </g>
        </svg>
</svg>
