<?xml version="1.0" encoding="UTF-8" standalone="no"?>
<!DOCTYPE svg PUBLIC "-//W3C//DTD SVG 1.1//EN"
 "http://www.w3.org/Graphics/SVG/1.1/DTD/svg11.dtd">
<!-- Generated by graphviz version 3.0.0 (20220413.0106)
 -->
<!-- Title: HY_CatchmentDivide Pages: 1 -->
<!--zoomable 938 -->
<svg id="main" version="1.1" xmlns="http://www.w3.org/2000/svg" xmlns:xlink="http://www.w3.org/1999/xlink" xml:space="preserve" onload="init(evt)">
<style type="text/css"><![CDATA[
.edge:hover path { stroke: red; }
.edge:hover polygon { stroke: red; fill: red; }
]]></style>
<script type="text/javascript"><![CDATA[
var edges = document.getElementsByTagName('g');
if (edges && edges.length) {
  for (var i=0;i<edges.length;i++) {
    if (edges[i].id.substr(0,4)=='edge') {
      edges[i].setAttribute('class','edge');
    }
  }
}
]]></script>
        <defs>
                <circle id="rim" cx="0" cy="0" r="7"/>
                <circle id="rim2" cx="0" cy="0" r="3.5"/>
                <g id="zoomPlus">
                        <use xlink:href="#rim" fill="#404040">
                                <set attributeName="fill" to="#808080" begin="zoomplus.mouseover" end="zoomplus.mouseout"/>
                        </use>
                        <path d="M-4,0h8M0,-4v8" fill="none" stroke="white" stroke-width="1.5" pointer-events="none"/>
                </g>
                <g id="zoomMin">
                        <use xlink:href="#rim" fill="#404040">
                                <set attributeName="fill" to="#808080" begin="zoomminus.mouseover" end="zoomminus.mouseout"/>
                        </use>
                        <path d="M-4,0h8" fill="none" stroke="white" stroke-width="1.5" pointer-events="none"/>
                </g>
                <g id="dirArrow">
                        <path fill="none" stroke="white" stroke-width="1.5" d="M0,-3.0v7 M-2.5,-0.5L0,-3.0L2.5,-0.5"/>
                </g>
               <g id="resetDef">
                       <use xlink:href="#rim2" fill="#404040">
                               <set attributeName="fill" to="#808080" begin="reset.mouseover" end="reset.mouseout"/>
                       </use>
               </g>
        </defs>

<script type="text/javascript">
var viewWidth = 1141;
var viewHeight = 938;
var sectionId = 'dynsection-1';
</script>
<script xlink:href="svgpan.js"/>
<svg id="graph" class="graph">
<g id="viewport">
<title>HY_CatchmentDivide</title>
<polygon fill="white" stroke="transparent" points="-4,4 -4,-934 1136.5,-934 1136.5,4 -4,4"/>
<!-- Node1 -->
<g id="node1" class="node">
<title>Node1</title>
<g id="a_node1"><a xlink:title=" ">
<polygon fill="#bfbfbf" stroke="black" points="187,-265.5 187,-333.5 317,-333.5 317,-265.5 187,-265.5"/>
<text text-anchor="middle" x="252" y="-321.5" font-family="Helvetica,sans-Serif" font-size="10.00">HY_CatchmentDivide</text>
<polyline fill="none" stroke="black" points="187,-314.5 317,-314.5 "/>
<text text-anchor="start" x="195" y="-302.5" font-family="Helvetica,sans-Serif" font-size="10.00">&#45; id_number</text>
<polyline fill="none" stroke="black" points="187,-295.5 317,-295.5 "/>
<text text-anchor="start" x="195" y="-283.5" font-family="Helvetica,sans-Serif" font-size="10.00">+ HY_CatchmentDivide()</text>
<text text-anchor="start" x="195" y="-272.5" font-family="Helvetica,sans-Serif" font-size="10.00">+ ~HY_CatchmentDivide()</text>
</a>
</g>
</g>
<!-- Node2 -->
<g id="node2" class="node">
<title>Node2</title>
<g id="a_node2"><a xlink:href="class_h_y___catchment_realization.html" target="_top" xlink:title=" ">
<polygon fill="white" stroke="black" points="0,-381.5 0,-493.5 150,-493.5 150,-381.5 0,-381.5"/>
<text text-anchor="middle" x="75" y="-481.5" font-family="Helvetica,sans-Serif" font-size="10.00">HY_CatchmentRealization</text>
<polyline fill="none" stroke="black" points="0,-474.5 150,-474.5 "/>
<text text-anchor="start" x="8" y="-462.5" font-family="Helvetica,sans-Serif" font-size="10.00"># id_number</text>
<polyline fill="none" stroke="black" points="0,-455.5 150,-455.5 "/>
<text text-anchor="start" x="8" y="-443.5" font-family="Helvetica,sans-Serif" font-size="10.00">+ HY_CatchmentRealization()</text>
<text text-anchor="start" x="8" y="-432.5" font-family="Helvetica,sans-Serif" font-size="10.00">+ HY_CatchmentRealization()</text>
<text text-anchor="start" x="8" y="-421.5" font-family="Helvetica,sans-Serif" font-size="10.00">+ ~HY_CatchmentRealization()</text>
<text text-anchor="start" x="8" y="-410.5" font-family="Helvetica,sans-Serif" font-size="10.00">+ get_response()</text>
<text text-anchor="start" x="8" y="-399.5" font-family="Helvetica,sans-Serif" font-size="10.00"># get_catchment_id()</text>
<text text-anchor="start" x="8" y="-388.5" font-family="Helvetica,sans-Serif" font-size="10.00"># set_catchment_id()</text>
</a>
</g>
</g>
<!-- Node2&#45;&gt;Node1 -->
<g id="edge1" class="edge">
<title>Node2&#45;&gt;Node1</title>
<path fill="none" stroke="midnightblue" d="M154.7,-375.27C173.36,-360.92 192.56,-346.17 208.91,-333.61"/>
<polygon fill="none" stroke="midnightblue" points="152.53,-372.51 146.74,-381.38 156.8,-378.06 152.53,-372.51"/>
</g>
<!-- Node6 -->
<g id="node6" class="node">
<title>Node6</title>
<g id="a_node6"><a xlink:title=" ">
<polygon fill="white" stroke="black" points="472.5,-265.5 472.5,-333.5 597.5,-333.5 597.5,-265.5 472.5,-265.5"/>
<text text-anchor="start" x="480.5" y="-321.5" font-family="Helvetica,sans-Serif" font-size="10.00">std::shared_ptr&lt; HY</text>
<text text-anchor="middle" x="535" y="-310.5" font-family="Helvetica,sans-Serif" font-size="10.00">_CatchmentRealization &gt;</text>
<polyline fill="none" stroke="black" points="472.5,-303.5 597.5,-303.5 "/>
<text text-anchor="middle" x="535" y="-291.5" font-family="Helvetica,sans-Serif" font-size="10.00"> </text>
<polyline fill="none" stroke="black" points="472.5,-284.5 597.5,-284.5 "/>
<text text-anchor="start" x="480.5" y="-272.5" font-family="Helvetica,sans-Serif" font-size="10.00">+ operator&#45;&gt;()</text>
</a>
</g>
</g>
<!-- Node2&#45;&gt;Node6 -->
<g id="edge6" class="edge">
<title>Node2&#45;&gt;Node6</title>
<path fill="none" stroke="#404040" d="M150.16,-384.6C153.09,-383.29 156.05,-382.09 159,-381 221.19,-358.13 241.54,-373.25 307,-363 374.51,-352.42 392.72,-354.2 458,-334 458.89,-333.73 459.78,-333.44 460.67,-333.16"/>
<polygon fill="none" stroke="#404040" points="461.06,-333.02 465.42,-327.27 472.4,-329.08 468.04,-334.83 461.06,-333.02"/>
<text text-anchor="middle" x="393" y="-355" font-family="Helvetica,sans-Serif" font-size="10.00"> +ptr</text>
</g>
<!-- Node3 -->
<g id="node3" class="node">
<title>Node3</title>
<g id="a_node3"><a xlink:title=" ">
<polygon fill="white" stroke="black" points="316.5,-0.5 316.5,-68.5 419.5,-68.5 419.5,-0.5 316.5,-0.5"/>
<text text-anchor="start" x="324.5" y="-56.5" font-family="Helvetica,sans-Serif" font-size="10.00">std::shared_ptr&lt; HY</text>
<text text-anchor="middle" x="368" y="-45.5" font-family="Helvetica,sans-Serif" font-size="10.00">_Catchment &gt;</text>
<polyline fill="none" stroke="black" points="316.5,-38.5 419.5,-38.5 "/>
<text text-anchor="middle" x="368" y="-26.5" font-family="Helvetica,sans-Serif" font-size="10.00"> </text>
<polyline fill="none" stroke="black" points="316.5,-19.5 419.5,-19.5 "/>
<text text-anchor="start" x="324.5" y="-7.5" font-family="Helvetica,sans-Serif" font-size="10.00">+ operator&#45;&gt;()</text>
</a>
</g>
</g>
<!-- Node3&#45;&gt;Node2 -->
<g id="edge2" class="edge">
<title>Node3&#45;&gt;Node2</title>
<path fill="none" stroke="#404040" d="M337.68,-68.82C298.7,-112.38 229.87,-191.76 178,-265 154.11,-298.74 130.16,-338.19 111.38,-370.74"/>
<polygon fill="none" stroke="#404040" points="111.18,-371.08 111.67,-378.27 105.22,-381.49 104.73,-374.3 111.18,-371.08"/>
<text text-anchor="middle" x="252" y="-233.5" font-family="Helvetica,sans-Serif" font-size="10.00"> #realized_catchment</text>
</g>
<!-- Node4 -->
<g id="node4" class="node">
<title>Node4</title>
<g id="a_node4"><a xlink:href="class_h_y___catchment.html" target="_top" xlink:title=" ">
<polygon fill="white" stroke="black" points="624,-116.5 624,-206.5 746,-206.5 746,-116.5 624,-116.5"/>
<text text-anchor="middle" x="685" y="-194.5" font-family="Helvetica,sans-Serif" font-size="10.00">HY_Catchment</text>
<polyline fill="none" stroke="black" points="624,-187.5 746,-187.5 "/>
<text text-anchor="middle" x="685" y="-175.5" font-family="Helvetica,sans-Serif" font-size="10.00"> </text>
<polyline fill="none" stroke="black" points="624,-168.5 746,-168.5 "/>
<text text-anchor="start" x="632" y="-156.5" font-family="Helvetica,sans-Serif" font-size="10.00">+ HY_Catchment()</text>
<text text-anchor="start" x="632" y="-145.5" font-family="Helvetica,sans-Serif" font-size="10.00">+ HY_Catchment()</text>
<text text-anchor="start" x="632" y="-134.5" font-family="Helvetica,sans-Serif" font-size="10.00">+ ~HY_Catchment()</text>
<text text-anchor="start" x="632" y="-123.5" font-family="Helvetica,sans-Serif" font-size="10.00">+ get_outflow_nexuses()</text>
</a>
</g>
</g>
<!-- Node4&#45;&gt;Node3 -->
<g id="edge3" class="edge">
<title>Node4&#45;&gt;Node3</title>
<path fill="none" stroke="#404040" d="M623.88,-136.4C568.33,-114.5 486.74,-82.32 430.7,-60.23"/>
<polygon fill="none" stroke="#404040" points="430.67,-60.21 423.62,-61.73 419.5,-55.81 426.55,-54.29 430.67,-60.21"/>
<text text-anchor="middle" x="536" y="-90" font-family="Helvetica,sans-Serif" font-size="10.00"> +ptr</text>
</g>
<!-- Node5 -->
<g id="node5" class="node">
<title>Node5</title>
<g id="a_node5"><a xlink:href="class_h_y___hydro_feature.html" target="_top" xlink:title=" ">
<polygon fill="white" stroke="black" points="875,-265.5 875,-333.5 989,-333.5 989,-265.5 875,-265.5"/>
<text text-anchor="middle" x="932" y="-321.5" font-family="Helvetica,sans-Serif" font-size="10.00">HY_HydroFeature</text>
<polyline fill="none" stroke="black" points="875,-314.5 989,-314.5 "/>
<text text-anchor="middle" x="932" y="-302.5" font-family="Helvetica,sans-Serif" font-size="10.00"> </text>
<polyline fill="none" stroke="black" points="875,-295.5 989,-295.5 "/>
<text text-anchor="start" x="883" y="-283.5" font-family="Helvetica,sans-Serif" font-size="10.00">+ HY_HydroFeature()</text>
<text text-anchor="start" x="883" y="-272.5" font-family="Helvetica,sans-Serif" font-size="10.00">+ ~HY_HydroFeature()</text>
</a>
</g>
</g>
<!-- Node5&#45;&gt;Node4 -->
<g id="edge4" class="edge">
<title>Node5&#45;&gt;Node4</title>
<path fill="none" stroke="midnightblue" d="M865.97,-260.76C845.52,-249.19 822.88,-236.48 802,-225 783.94,-215.07 764.2,-204.45 746.18,-194.82"/>
<polygon fill="none" stroke="midnightblue" points="864.47,-263.93 874.89,-265.82 867.92,-257.84 864.47,-263.93"/>
</g>
<!-- Node6&#45;&gt;Node4 -->
<g id="edge5" class="edge">
<title>Node6&#45;&gt;Node4</title>
<path fill="none" stroke="#404040" d="M544.57,-265.39C549.79,-251.67 557.4,-236.35 568,-225 580.63,-211.47 596.87,-200.27 613.2,-191.28"/>
<polygon fill="none" stroke="#404040" points="613.27,-191.24 616.74,-184.92 623.91,-185.68 620.44,-192.01 613.27,-191.24"/>
<text text-anchor="middle" x="594" y="-233.5" font-family="Helvetica,sans-Serif" font-size="10.00"> +realization</text>
</g>
<!-- Node7 -->
<g id="node7" class="node">
<title>Node7</title>
<g id="a_node7"><a xlink:title=" ">
<polygon fill="white" stroke="black" points="392.5,-547 392.5,-604 495.5,-604 495.5,-547 392.5,-547"/>
<text text-anchor="middle" x="444" y="-592" font-family="Helvetica,sans-Serif" font-size="10.00">std::shared_ptr&lt; T &gt;</text>
<polyline fill="none" stroke="black" points="392.5,-585 495.5,-585 "/>
<text text-anchor="middle" x="444" y="-573" font-family="Helvetica,sans-Serif" font-size="10.00"> </text>
<polyline fill="none" stroke="black" points="392.5,-566 495.5,-566 "/>
<text text-anchor="start" x="400.5" y="-554" font-family="Helvetica,sans-Serif" font-size="10.00">+ operator&#45;&gt;()</text>
</a>
</g>
</g>
<!-- Node7&#45;&gt;Node3 -->
<g id="edge18" class="edge">
<title>Node7&#45;&gt;Node3</title>
<path fill="none" stroke="orange" d="M447.58,-536.69C449.8,-496.18 448.62,-430.97 425,-381 412.37,-354.29 389.76,-361.1 378,-334 339.19,-244.58 351.99,-125.51 361.53,-68.57"/>
<polygon fill="orange" stroke="orange" points="444.09,-536.48 446.94,-546.68 451.07,-536.93 444.09,-536.48"/>
<text text-anchor="middle" x="421" y="-297" font-family="Helvetica,sans-Serif" font-size="10.00"> &lt; HY_Catchment &gt;</text>
</g>
<!-- Node7&#45;&gt;Node6 -->
<g id="edge7" class="edge">
<title>Node7&#45;&gt;Node6</title>
<path fill="none" stroke="orange" d="M454.14,-537.33C467.25,-489.68 489.62,-409.8 500,-381 505.68,-365.23 512.95,-348.15 519.38,-333.8"/>
<polygon fill="orange" stroke="orange" points="450.77,-536.41 451.49,-546.98 457.52,-538.26 450.77,-536.41"/>
<text text-anchor="middle" x="566.5" y="-435" font-family="Helvetica,sans-Serif" font-size="10.00"> &lt; HY_CatchmentRealization &gt;</text>
</g>
<!-- Node18 -->
<g id="node18" class="node">
<title>Node18</title>
<g id="a_node18"><a xlink:title=" ">
<polygon fill="white" stroke="black" points="168,-409 168,-466 312,-466 312,-409 168,-409"/>
<text text-anchor="middle" x="240" y="-454" font-family="Helvetica,sans-Serif" font-size="10.00">std::shared_ptr&lt; linestring_t &gt;</text>
<polyline fill="none" stroke="black" points="168,-447 312,-447 "/>
<text text-anchor="start" x="176" y="-435" font-family="Helvetica,sans-Serif" font-size="10.00">+ ptr</text>
<polyline fill="none" stroke="black" points="168,-428 312,-428 "/>
<text text-anchor="start" x="176" y="-416" font-family="Helvetica,sans-Serif" font-size="10.00">+ operator&#45;&gt;()</text>
</a>
</g>
</g>
<!-- Node7&#45;&gt;Node18 -->
<g id="edge25" class="edge">
<title>Node7&#45;&gt;Node18</title>
<path fill="none" stroke="orange" d="M391.47,-541.48C381.96,-535.4 372.15,-529.05 363,-523 334.8,-504.35 303.38,-482.76 279.36,-466.07"/>
<polygon fill="orange" stroke="orange" points="389.78,-544.56 400.1,-546.99 393.55,-538.66 389.78,-544.56"/>
<text text-anchor="middle" x="396.5" y="-515" font-family="Helvetica,sans-Serif" font-size="10.00"> &lt; linestring_t &gt;</text>
</g>
<!-- Node8 -->
<g id="node8" class="node">
<title>Node8</title>
<g id="a_node8"><a xlink:title=" ">
<polygon fill="white" stroke="black" points="429.5,-872.5 429.5,-929.5 458.5,-929.5 458.5,-872.5 429.5,-872.5"/>
<text text-anchor="middle" x="444" y="-917.5" font-family="Helvetica,sans-Serif" font-size="10.00">T</text>
<polyline fill="none" stroke="black" points="429.5,-910.5 458.5,-910.5 "/>
<text text-anchor="middle" x="444" y="-898.5" font-family="Helvetica,sans-Serif" font-size="10.00"> </text>
<polyline fill="none" stroke="black" points="429.5,-891.5 458.5,-891.5 "/>
<text text-anchor="middle" x="444" y="-879.5" font-family="Helvetica,sans-Serif" font-size="10.00"> </text>
</a>
</g>
</g>
<!-- Node8&#45;&gt;Node7 -->
<g id="edge8" class="edge">
<title>Node8&#45;&gt;Node7</title>
<path fill="none" stroke="#404040" d="M444,-872.42C444,-815.12 444,-683.01 444,-616.42"/>
<polygon fill="none" stroke="#404040" points="444,-616.01 440,-610.01 444,-604.01 448,-610.01 444,-616.01"/>
<text text-anchor="middle" x="454" y="-738.5" font-family="Helvetica,sans-Serif" font-size="10.00"> +ptr</text>
</g>
<!-- Node12 -->
<g id="node12" class="node">
<title>Node12</title>
<g id="a_node12"><a xlink:title=" ">
<polygon fill="white" stroke="black" points="773,-409 773,-466 857,-466 857,-409 773,-409"/>
<text text-anchor="middle" x="815" y="-454" font-family="Helvetica,sans-Serif" font-size="10.00">std::vector&lt; T &gt;</text>
<polyline fill="none" stroke="black" points="773,-447 857,-447 "/>
<text text-anchor="middle" x="815" y="-435" font-family="Helvetica,sans-Serif" font-size="10.00"> </text>
<polyline fill="none" stroke="black" points="773,-428 857,-428 "/>
<text text-anchor="middle" x="815" y="-416" font-family="Helvetica,sans-Serif" font-size="10.00"> </text>
</a>
</g>
</g>
<!-- Node8&#45;&gt;Node12 -->
<g id="edge14" class="edge">
<title>Node8&#45;&gt;Node12</title>
<path fill="none" stroke="#404040" d="M458.8,-887.71C503.63,-849.93 640.11,-730.78 727,-610 757.38,-567.78 783.31,-513.61 798.99,-477.56"/>
<polygon fill="none" stroke="#404040" points="799.19,-477.1 797.87,-470.01 803.91,-466.07 805.22,-473.16 799.19,-477.1"/>
<text text-anchor="middle" x="735.5" y="-631" font-family="Helvetica,sans-Serif" font-size="10.00"> +elements</text>
</g>
<!-- Node16 -->
<g id="node16" class="node">
<title>Node16</title>
<g id="a_node16"><a xlink:title=" ">
<polygon fill="white" stroke="black" points="282,-712.5 282,-769.5 384,-769.5 384,-712.5 282,-712.5"/>
<text text-anchor="middle" x="333" y="-757.5" font-family="Helvetica,sans-Serif" font-size="10.00">std::unique_ptr&lt; T &gt;</text>
<polyline fill="none" stroke="black" points="282,-750.5 384,-750.5 "/>
<text text-anchor="middle" x="333" y="-738.5" font-family="Helvetica,sans-Serif" font-size="10.00"> </text>
<polyline fill="none" stroke="black" points="282,-731.5 384,-731.5 "/>
<text text-anchor="start" x="290" y="-719.5" font-family="Helvetica,sans-Serif" font-size="10.00">+ operator&#45;&gt;()</text>
</a>
</g>
</g>
<!-- Node8&#45;&gt;Node16 -->
<g id="edge22" class="edge">
<title>Node8&#45;&gt;Node16</title>
<path fill="none" stroke="#404040" d="M429.29,-880.41C423.25,-872.28 416.23,-862.73 410,-854 392.58,-829.56 373.46,-801.76 358.63,-779.97"/>
<polygon fill="none" stroke="#404040" points="358.47,-779.73 351.79,-777.01 351.72,-769.8 358.4,-772.52 358.47,-779.73"/>
<text text-anchor="middle" x="420" y="-846" font-family="Helvetica,sans-Serif" font-size="10.00"> +ptr</text>
</g>
<!-- Node9 -->
<g id="node9" class="node">
<title>Node9</title>
<g id="a_node9"><a xlink:title=" ">
<polygon fill="white" stroke="black" points="641.5,-409 641.5,-466 700.5,-466 700.5,-409 641.5,-409"/>
<text text-anchor="middle" x="671" y="-454" font-family="Helvetica,sans-Serif" font-size="10.00">std::string</text>
<polyline fill="none" stroke="black" points="641.5,-447 700.5,-447 "/>
<text text-anchor="middle" x="671" y="-435" font-family="Helvetica,sans-Serif" font-size="10.00"> </text>
<polyline fill="none" stroke="black" points="641.5,-428 700.5,-428 "/>
<text text-anchor="middle" x="671" y="-416" font-family="Helvetica,sans-Serif" font-size="10.00"> </text>
</a>
</g>
</g>
<!-- Node9&#45;&gt;Node1 -->
<g id="edge26" class="edge">
<title>Node9&#45;&gt;Node1</title>
<path fill="none" stroke="#404040" d="M655.08,-408.89C647.8,-398.61 638.26,-387.8 627,-381 518.61,-315.54 468.95,-364.29 346,-334 340.41,-332.62 334.68,-331.04 328.95,-329.32"/>
<polygon fill="none" stroke="#404040" points="328.67,-329.23 321.75,-331.26 317.22,-325.64 324.15,-323.62 328.67,-329.23"/>
<text text-anchor="middle" x="596.5" y="-355" font-family="Helvetica,sans-Serif" font-size="10.00"> &#45;id</text>
</g>
<!-- Node9&#45;&gt;Node4 -->
<g id="edge9" class="edge">
<title>Node9&#45;&gt;Node4</title>
<path fill="none" stroke="#404040" d="M660.39,-408.78C648.78,-374.78 633.06,-315.47 643,-265 646.11,-249.21 651.67,-232.79 657.75,-217.85"/>
<polygon fill="none" stroke="#404040" points="657.78,-217.78 656.45,-210.69 662.47,-206.74 663.81,-213.82 657.78,-217.78"/>
<text text-anchor="middle" x="692.5" y="-319" font-family="Helvetica,sans-Serif" font-size="10.00"> &#45;conjoint_catchment</text>
<text text-anchor="middle" x="692.5" y="-308" font-family="Helvetica,sans-Serif" font-size="10.00">&#45;containing_catchment</text>
<text text-anchor="middle" x="692.5" y="-297" font-family="Helvetica,sans-Serif" font-size="10.00">&#45;id</text>
<text text-anchor="middle" x="692.5" y="-286" font-family="Helvetica,sans-Serif" font-size="10.00">&#45;lower_catchment</text>
<text text-anchor="middle" x="692.5" y="-275" font-family="Helvetica,sans-Serif" font-size="10.00">&#45;upper_catchment</text>
</g>
<!-- Node11 -->
<g id="node11" class="node">
<title>Node11</title>
<g id="a_node11"><a xlink:title=" ">
<polygon fill="white" stroke="black" points="751,-271 751,-328 857,-328 857,-271 751,-271"/>
<text text-anchor="middle" x="804" y="-316" font-family="Helvetica,sans-Serif" font-size="10.00">std::vector&lt; Nexus &gt;</text>
<polyline fill="none" stroke="black" points="751,-309 857,-309 "/>
<text text-anchor="middle" x="804" y="-297" font-family="Helvetica,sans-Serif" font-size="10.00"> </text>
<polyline fill="none" stroke="black" points="751,-290 857,-290 "/>
<text text-anchor="middle" x="804" y="-278" font-family="Helvetica,sans-Serif" font-size="10.00"> </text>
</a>
</g>
</g>
<!-- Node9&#45;&gt;Node11 -->
<g id="edge12" class="edge">
<title>Node9&#45;&gt;Node11</title>
<path fill="none" stroke="#404040" d="M663.43,-408.63C660.3,-390.67 659.83,-367.81 672,-352 690.29,-328.25 709.02,-344.75 737,-334 737.86,-333.67 738.73,-333.33 739.61,-332.98"/>
<polygon fill="none" stroke="#404040" points="739.97,-332.82 743.94,-326.8 751.03,-328.15 747.06,-334.17 739.97,-332.82"/>
<text text-anchor="middle" x="696.5" y="-355" font-family="Helvetica,sans-Serif" font-size="10.00"> +elements</text>
</g>
<!-- Node13 -->
<g id="node13" class="node">
<title>Node13</title>
<g id="a_node13"><a xlink:title=" ">
<polygon fill="white" stroke="black" points="1007.5,-271 1007.5,-328 1132.5,-328 1132.5,-271 1007.5,-271"/>
<text text-anchor="middle" x="1070" y="-316" font-family="Helvetica,sans-Serif" font-size="10.00">std::vector&lt; Catchment &gt;</text>
<polyline fill="none" stroke="black" points="1007.5,-309 1132.5,-309 "/>
<text text-anchor="middle" x="1070" y="-297" font-family="Helvetica,sans-Serif" font-size="10.00"> </text>
<polyline fill="none" stroke="black" points="1007.5,-290 1132.5,-290 "/>
<text text-anchor="middle" x="1070" y="-278" font-family="Helvetica,sans-Serif" font-size="10.00"> </text>
</a>
</g>
</g>
<!-- Node9&#45;&gt;Node13 -->
<g id="edge16" class="edge">
<title>Node9&#45;&gt;Node13</title>
<path fill="none" stroke="#404040" d="M689.94,-408.87C705.07,-389.28 728.13,-364.36 755,-352 804.19,-329.37 945.6,-347.64 998,-334 1000.25,-333.41 1002.52,-332.76 1004.79,-332.05"/>
<polygon fill="none" stroke="#404040" points="1004.8,-332.04 1009.14,-326.28 1016.13,-328.07 1011.79,-333.83 1004.8,-332.04"/>
<text text-anchor="middle" x="779.5" y="-355" font-family="Helvetica,sans-Serif" font-size="10.00"> +elements</text>
</g>
<!-- Node10 -->
<g id="node10" class="node">
<title>Node10</title>
<g id="a_node10"><a xlink:title=" ">
<polygon fill="white" stroke="black" points="624.5,-541.5 624.5,-609.5 717.5,-609.5 717.5,-541.5 624.5,-541.5"/>
<text text-anchor="start" x="632.5" y="-597.5" font-family="Helvetica,sans-Serif" font-size="10.00">std::basic_string&lt;</text>
<text text-anchor="middle" x="671" y="-586.5" font-family="Helvetica,sans-Serif" font-size="10.00"> Char &gt;</text>
<polyline fill="none" stroke="black" points="624.5,-579.5 717.5,-579.5 "/>
<text text-anchor="middle" x="671" y="-567.5" font-family="Helvetica,sans-Serif" font-size="10.00"> </text>
<polyline fill="none" stroke="black" points="624.5,-560.5 717.5,-560.5 "/>
<text text-anchor="middle" x="671" y="-548.5" font-family="Helvetica,sans-Serif" font-size="10.00"> </text>
</a>
</g>
</g>
<!-- Node10&#45;&gt;Node9 -->
<g id="edge10" class="edge">
<title>Node10&#45;&gt;Node9</title>
<path fill="none" stroke="midnightblue" d="M671,-531.16C671,-509.95 671,-485.03 671,-466.38"/>
<polygon fill="none" stroke="midnightblue" points="667.5,-531.23 671,-541.23 674.5,-531.23 667.5,-531.23"/>
</g>
<!-- Node11&#45;&gt;Node4 -->
<g id="edge11" class="edge">
<title>Node11&#45;&gt;Node4</title>
<path fill="none" stroke="#404040" d="M779.92,-270.98C766.03,-255.1 748.09,-234.6 731.55,-215.7"/>
<polygon fill="none" stroke="#404040" points="731.47,-215.61 724.51,-213.73 723.57,-206.58 730.53,-208.46 731.47,-215.61"/>
<text text-anchor="middle" x="778" y="-239" font-family="Helvetica,sans-Serif" font-size="10.00"> &#45;inflows</text>
<text text-anchor="middle" x="778" y="-228" font-family="Helvetica,sans-Serif" font-size="10.00">&#45;outflows</text>
</g>
<!-- Node12&#45;&gt;Node11 -->
<g id="edge13" class="edge">
<title>Node12&#45;&gt;Node11</title>
<path fill="none" stroke="orange" d="M811.95,-398.85C810.15,-376.56 807.91,-348.79 806.26,-328.45"/>
<polygon fill="orange" stroke="orange" points="808.48,-399.29 812.77,-408.98 815.46,-398.73 808.48,-399.29"/>
<text text-anchor="middle" x="831.5" y="-355" font-family="Helvetica,sans-Serif" font-size="10.00"> &lt; Nexus &gt;</text>
</g>
<!-- Node12&#45;&gt;Node13 -->
<g id="edge17" class="edge">
<title>Node12&#45;&gt;Node13</title>
<path fill="none" stroke="orange" d="M865.94,-409.33C910.1,-385.78 973.7,-351.86 1018.13,-328.17"/>
<polygon fill="orange" stroke="orange" points="864.28,-406.25 857.11,-414.04 867.58,-412.42 864.28,-406.25"/>
<text text-anchor="middle" x="1005.5" y="-355" font-family="Helvetica,sans-Serif" font-size="10.00"> &lt; Catchment &gt;</text>
</g>
<!-- Node13&#45;&gt;Node4 -->
<g id="edge15" class="edge">
<title>Node13&#45;&gt;Node4</title>
<path fill="none" stroke="#404040" d="M1012.1,-270.84C1007.36,-268.79 1002.62,-266.82 998,-265 917.01,-233.03 821.63,-202.83 757.63,-183.6"/>
<polygon fill="none" stroke="#404040" points="757.55,-183.58 750.66,-185.69 746.06,-180.14 752.95,-178.03 757.55,-183.58"/>
<text text-anchor="middle" x="999" y="-233.5" font-family="Helvetica,sans-Serif" font-size="10.00"> &#45;contained_catchments</text>
</g>
<!-- Node14 -->
<g id="node14" class="node">
<title>Node14</title>
<g id="a_node14"><a xlink:title=" ">
<polygon fill="white" stroke="black" points="67.5,-541.5 67.5,-609.5 184.5,-609.5 184.5,-541.5 67.5,-541.5"/>
<text text-anchor="start" x="75.5" y="-597.5" font-family="Helvetica,sans-Serif" font-size="10.00">std::unique_ptr&lt; forcing</text>
<text text-anchor="middle" x="126" y="-586.5" font-family="Helvetica,sans-Serif" font-size="10.00">::ForcingProvider &gt;</text>
<polyline fill="none" stroke="black" points="67.5,-579.5 184.5,-579.5 "/>
<text text-anchor="middle" x="126" y="-567.5" font-family="Helvetica,sans-Serif" font-size="10.00"> </text>
<polyline fill="none" stroke="black" points="67.5,-560.5 184.5,-560.5 "/>
<text text-anchor="start" x="75.5" y="-548.5" font-family="Helvetica,sans-Serif" font-size="10.00">+ operator&#45;&gt;()</text>
</a>
</g>
</g>
<!-- Node14&#45;&gt;Node2 -->
<g id="edge19" class="edge">
<title>Node14&#45;&gt;Node2</title>
<path fill="none" stroke="#404040" d="M113.52,-541.23C109.41,-530.27 104.69,-517.67 99.99,-505.13"/>
<polygon fill="none" stroke="#404040" points="99.91,-504.92 94.05,-500.7 95.69,-493.68 101.54,-497.89 99.91,-504.92"/>
<text text-anchor="middle" x="125.5" y="-515" font-family="Helvetica,sans-Serif" font-size="10.00"> #forcing</text>
</g>
<!-- Node15 -->
<g id="node15" class="node">
<title>Node15</title>
<g id="a_node15"><a xlink:href="classforcing_1_1_forcing_provider.html" target="_top" xlink:title="An abstraction interface for types that provides forcing data.">
<polygon fill="white" stroke="black" points="63,-657.5 63,-824.5 189,-824.5 189,-657.5 63,-657.5"/>
<text text-anchor="middle" x="126" y="-812.5" font-family="Helvetica,sans-Serif" font-size="10.00">forcing::ForcingProvider</text>
<polyline fill="none" stroke="black" points="63,-805.5 189,-805.5 "/>
<text text-anchor="middle" x="126" y="-793.5" font-family="Helvetica,sans-Serif" font-size="10.00"> </text>
<polyline fill="none" stroke="black" points="63,-786.5 189,-786.5 "/>
<text text-anchor="start" x="71" y="-774.5" font-family="Helvetica,sans-Serif" font-size="10.00">+ ~ForcingProvider()</text>
<text text-anchor="start" x="71" y="-763.5" font-family="Helvetica,sans-Serif" font-size="10.00">+ get_available_forcing</text>
<text text-anchor="start" x="71" y="-752.5" font-family="Helvetica,sans-Serif" font-size="10.00">_outputs()</text>
<text text-anchor="start" x="71" y="-741.5" font-family="Helvetica,sans-Serif" font-size="10.00">+ get_forcing_output</text>
<text text-anchor="start" x="71" y="-730.5" font-family="Helvetica,sans-Serif" font-size="10.00">_time_begin()</text>
<text text-anchor="start" x="71" y="-719.5" font-family="Helvetica,sans-Serif" font-size="10.00">+ get_forcing_output</text>
<text text-anchor="start" x="71" y="-708.5" font-family="Helvetica,sans-Serif" font-size="10.00">_time_end()</text>
<text text-anchor="start" x="71" y="-697.5" font-family="Helvetica,sans-Serif" font-size="10.00">+ get_ts_index_for_time()</text>
<text text-anchor="start" x="71" y="-686.5" font-family="Helvetica,sans-Serif" font-size="10.00">+ get_value()</text>
<text text-anchor="start" x="71" y="-675.5" font-family="Helvetica,sans-Serif" font-size="10.00">+ is_property_sum_over</text>
<text text-anchor="start" x="71" y="-664.5" font-family="Helvetica,sans-Serif" font-size="10.00">_time_step()</text>
</a>
</g>
</g>
<!-- Node15&#45;&gt;Node14 -->
<g id="edge20" class="edge">
<title>Node15&#45;&gt;Node14</title>
<path fill="none" stroke="#404040" d="M126,-657.29C126,-644.98 126,-632.69 126,-621.55"/>
<polygon fill="none" stroke="#404040" points="126,-621.52 122,-615.52 126,-609.52 130,-615.52 126,-621.52"/>
<text text-anchor="middle" x="136" y="-631" font-family="Helvetica,sans-Serif" font-size="10.00"> +ptr</text>
</g>
<!-- Node16&#45;&gt;Node14 -->
<g id="edge21" class="edge">
<title>Node16&#45;&gt;Node14</title>
<path fill="none" stroke="orange" d="M290.04,-706.07C254.26,-677.81 203.61,-637.8 168.09,-609.74"/>
<polygon fill="orange" stroke="orange" points="287.87,-708.81 297.89,-712.26 292.21,-703.32 287.87,-708.81"/>
<text text-anchor="middle" x="265.5" y="-631" font-family="Helvetica,sans-Serif" font-size="10.00"> &lt; forcing::ForcingProvider &gt;</text>
</g>
<!-- Node17 -->
<g id="node17" class="node">
<title>Node17</title>
<g id="a_node17"><a xlink:href="class_g_m___object.html" target="_top" xlink:title=" ">
<polygon fill="white" stroke="black" points="330,-403.5 330,-471.5 416,-471.5 416,-403.5 330,-403.5"/>
<text text-anchor="middle" x="373" y="-459.5" font-family="Helvetica,sans-Serif" font-size="10.00">GM_Object</text>
<polyline fill="none" stroke="black" points="330,-452.5 416,-452.5 "/>
<text text-anchor="middle" x="373" y="-440.5" font-family="Helvetica,sans-Serif" font-size="10.00"> </text>
<polyline fill="none" stroke="black" points="330,-433.5 416,-433.5 "/>
<text text-anchor="start" x="338" y="-421.5" font-family="Helvetica,sans-Serif" font-size="10.00">+ GM_Object()</text>
<text text-anchor="start" x="338" y="-410.5" font-family="Helvetica,sans-Serif" font-size="10.00">+ ~GM_Object()</text>
</a>
</g>
</g>
<!-- Node17&#45;&gt;Node1 -->
<g id="edge23" class="edge">
<title>Node17&#45;&gt;Node1</title>
<path fill="none" stroke="midnightblue" d="M342.89,-395.33C332.03,-381.2 319.39,-365.55 307,-352 301.35,-345.82 295.09,-339.51 288.87,-333.53"/>
<polygon fill="none" stroke="midnightblue" points="340.22,-397.6 349.06,-403.44 345.79,-393.36 340.22,-397.6"/>
</g>
<!-- Node18&#45;&gt;Node1 -->
<g id="edge24" class="edge">
<title>Node18&#45;&gt;Node1</title>
<path fill="none" stroke="#404040" d="M242.43,-408.98C244.02,-390.9 246.15,-366.81 247.99,-345.93"/>
<polygon fill="none" stroke="#404040" points="248.01,-345.7 244.55,-339.37 249.07,-333.75 252.52,-340.08 248.01,-345.7"/>
<text text-anchor="middle" x="275.5" y="-355" font-family="Helvetica,sans-Serif" font-size="10.00"> &#45;divide_path</text>
</g>
</g>
</svg>
        <g id="navigator" transform="translate(0 0)" fill="#404254">
                <rect fill="#f2f5e9" fill-opacity="0.5" stroke="#606060" stroke-width=".5" x="0" y="0" width="60" height="60"/>
                <use id="zoomplus" xlink:href="#zoomPlus" x="17" y="9" onmousedown="handleZoom(evt,'in')"/>
                <use id="zoomminus" xlink:href="#zoomMin" x="42" y="9" onmousedown="handleZoom(evt,'out')"/>
                <use id="reset" xlink:href="#resetDef" x="30" y="36" onmousedown="handleReset()"/>
                <g id="arrowUp" xlink:href="#dirArrow" transform="translate(30 24)" onmousedown="handlePan(0,-1)">
                  <use xlink:href="#rim" fill="#404040">
                        <set attributeName="fill" to="#808080" begin="arrowUp.mouseover" end="arrowUp.mouseout"/>
                  </use>
                  <path fill="none" stroke="white" stroke-width="1.5" d="M0,-3.0v7 M-2.5,-0.5L0,-3.0L2.5,-0.5"/>
                </g>
                <g id="arrowRight" xlink:href="#dirArrow" transform="rotate(90) translate(36 -43)" onmousedown="handlePan(1,0)">
                  <use xlink:href="#rim" fill="#404040">
                        <set attributeName="fill" to="#808080" begin="arrowRight.mouseover" end="arrowRight.mouseout"/>
                  </use>
                  <path fill="none" stroke="white" stroke-width="1.5" d="M0,-3.0v7 M-2.5,-0.5L0,-3.0L2.5,-0.5"/>
                </g>
                <g id="arrowDown" xlink:href="#dirArrow" transform="rotate(180) translate(-30 -48)" onmousedown="handlePan(0,1)">
                  <use xlink:href="#rim" fill="#404040">
                        <set attributeName="fill" to="#808080" begin="arrowDown.mouseover" end="arrowDown.mouseout"/>
                  </use>
                  <path fill="none" stroke="white" stroke-width="1.5" d="M0,-3.0v7 M-2.5,-0.5L0,-3.0L2.5,-0.5"/>
                </g>
                <g id="arrowLeft" xlink:href="#dirArrow" transform="rotate(270) translate(-36 17)" onmousedown="handlePan(-1,0)">
                  <use xlink:href="#rim" fill="#404040">
                        <set attributeName="fill" to="#808080" begin="arrowLeft.mouseover" end="arrowLeft.mouseout"/>
                  </use>
                  <path fill="none" stroke="white" stroke-width="1.5" d="M0,-3.0v7 M-2.5,-0.5L0,-3.0L2.5,-0.5"/>
                </g>
        </g>
        <svg viewBox="0 0 15 15" width="100%" height="30px" preserveAspectRatio="xMaxYMin meet">
         <g id="arrow_out" transform="scale(0.3 0.3)">
          <a xlink:href="class_h_y___catchment_divide__coll__graph_org.svg" target="_base">
           <rect id="button" ry="5" rx="5" y="6" x="6" height="38" width="38"
                fill="#f2f5e9" fill-opacity="0.5" stroke="#606060" stroke-width="1.0"/>
           <path id="arrow"
             d="M 11.500037,31.436501 C 11.940474,20.09759 22.043105,11.32322 32.158766,21.979434 L 37.068811,17.246167 C 37.068811,17.246167 37.088388,32 37.088388,32 L 22.160133,31.978069 C 22.160133,31.978069 26.997745,27.140456 26.997745,27.140456 C 18.528582,18.264221 13.291696,25.230495 11.500037,31.436501 z"
             style="fill:#404040;"/>
          </a>
         </g>
        </svg>
</svg>
