<?xml version="1.0" encoding="UTF-8" standalone="no"?>
<!DOCTYPE svg PUBLIC "-//W3C//DTD SVG 1.1//EN"
 "http://www.w3.org/Graphics/SVG/1.1/DTD/svg11.dtd">
<!-- Generated by graphviz version 9.0.0 (20230911.1827)
 -->
<!-- Title: data_access::DeferredWrappedProvider Pages: 1 -->
<svg width="420pt" height="1125pt"
 viewBox="0.00 0.00 419.75 1125.25" xmlns="http://www.w3.org/2000/svg" xmlns:xlink="http://www.w3.org/1999/xlink">
<g id="graph0" class="graph" transform="scale(1 1) rotate(0) translate(4 1121.25)">
<title>data_access::DeferredWrappedProvider</title>
<!-- Node1 -->
<g id="Node000001" class="node">
<title>Node1</title>
<g id="a_Node000001"><a xlink:title="A specialized @WrappedDataProvider that is created without first knowing the backing source it wraps.">
<polygon fill="#999999" stroke="none" points="288.5,-176 143.5,-176 143.5,0 288.5,0 288.5,-176"/>
<text text-anchor="start" x="148.5" y="-162.5" font-family="Helvetica,sans-Serif" font-size="10.00">data_access::DeferredWrapped</text>
<text text-anchor="start" x="198" y="-151.25" font-family="Helvetica,sans-Serif" font-size="10.00">Provider</text>
<text text-anchor="start" x="214.5" y="-136.5" font-family="Helvetica,sans-Serif" font-size="10.00"> </text>
<text text-anchor="start" x="150" y="-121.5" font-family="Helvetica,sans-Serif" font-size="10.00">+</text>
<text text-anchor="start" x="162.5" y="-121.5" font-family="Helvetica,sans-Serif" font-size="10.00">DeferredWrappedProvider()</text>
<text text-anchor="start" x="150" y="-106.5" font-family="Helvetica,sans-Serif" font-size="10.00">+</text>
<text text-anchor="start" x="162.5" y="-106.5" font-family="Helvetica,sans-Serif" font-size="10.00">DeferredWrappedProvider()</text>
<text text-anchor="start" x="150" y="-91.5" font-family="Helvetica,sans-Serif" font-size="10.00">+</text>
<text text-anchor="start" x="162.5" y="-91.5" font-family="Helvetica,sans-Serif" font-size="10.00">DeferredWrappedProvider()</text>
<text text-anchor="start" x="150" y="-76.5" font-family="Helvetica,sans-Serif" font-size="10.00">+</text>
<text text-anchor="start" x="162.5" y="-76.5" font-family="Helvetica,sans-Serif" font-size="10.00">get_available_variable</text>
<text text-anchor="start" x="162.5" y="-65.25" font-family="Helvetica,sans-Serif" font-size="10.00">_names()</text>
<text text-anchor="start" x="150" y="-50.5" font-family="Helvetica,sans-Serif" font-size="10.00">+</text>
<text text-anchor="start" x="162.5" y="-50.5" font-family="Helvetica,sans-Serif" font-size="10.00">getSetMessage()</text>
<text text-anchor="start" x="150" y="-35.5" font-family="Helvetica,sans-Serif" font-size="10.00">+</text>
<text text-anchor="start" x="162.5" y="-35.5" font-family="Helvetica,sans-Serif" font-size="10.00">isReadyToProvideData()</text>
<text text-anchor="start" x="150" y="-20.5" font-family="Helvetica,sans-Serif" font-size="10.00">+</text>
<text text-anchor="start" x="162.5" y="-20.5" font-family="Helvetica,sans-Serif" font-size="10.00">isWrappedProviderSet()</text>
<text text-anchor="start" x="150" y="-5.5" font-family="Helvetica,sans-Serif" font-size="10.00">+</text>
<text text-anchor="start" x="162.5" y="-5.5" font-family="Helvetica,sans-Serif" font-size="10.00">setWrappedProvider()</text>
<polygon fill="#666666" stroke="#666666" points="143.5,-148 143.5,-148 288.5,-148 288.5,-148 143.5,-148"/>
<polygon fill="#666666" stroke="#666666" points="143.5,-133 143.5,-133 288.5,-133 288.5,-133 143.5,-133"/>
<polygon fill="none" stroke="#666666" points="143.5,0 143.5,-176 288.5,-176 288.5,0 143.5,0"/>
</a>
</g>
</g>
<!-- Node2 -->
<g id="Node000002" class="node">
<title>Node2</title>
<g id="a_Node000002"><a xlink:href="classdata__access_1_1_wrapped_data_provider.html" target="_top" xlink:title="Simple implementation that basically wraps another instance.">
<polygon fill="white" stroke="none" points="180,-470.25 52,-470.25 52,-223.25 180,-223.25 180,-470.25"/>
<text text-anchor="start" x="56.75" y="-456.75" font-family="Helvetica,sans-Serif" font-size="10.00">data_access::WrappedData</text>
<text text-anchor="start" x="98" y="-445.5" font-family="Helvetica,sans-Serif" font-size="10.00">Provider</text>
<text text-anchor="start" x="114.5" y="-430.75" font-family="Helvetica,sans-Serif" font-size="10.00"> </text>
<text text-anchor="start" x="58" y="-415.75" font-family="Helvetica,sans-Serif" font-size="10.00">+</text>
<text text-anchor="start" x="70" y="-415.75" font-family="Helvetica,sans-Serif" font-size="10.00">WrappedDataProvider()</text>
<text text-anchor="start" x="58" y="-400.75" font-family="Helvetica,sans-Serif" font-size="10.00">+</text>
<text text-anchor="start" x="70" y="-400.75" font-family="Helvetica,sans-Serif" font-size="10.00">WrappedDataProvider()</text>
<text text-anchor="start" x="58" y="-385.75" font-family="Helvetica,sans-Serif" font-size="10.00">+</text>
<text text-anchor="start" x="70" y="-385.75" font-family="Helvetica,sans-Serif" font-size="10.00">WrappedDataProvider()</text>
<text text-anchor="start" x="58" y="-370.75" font-family="Helvetica,sans-Serif" font-size="10.00">+</text>
<text text-anchor="start" x="70" y="-370.75" font-family="Helvetica,sans-Serif" font-size="10.00">finalize()</text>
<text text-anchor="start" x="58" y="-355.75" font-family="Helvetica,sans-Serif" font-size="10.00">+</text>
<text text-anchor="start" x="70" y="-355.75" font-family="Helvetica,sans-Serif" font-size="10.00">get_available_variable</text>
<text text-anchor="start" x="70" y="-344.5" font-family="Helvetica,sans-Serif" font-size="10.00">_names()</text>
<text text-anchor="start" x="58" y="-329.75" font-family="Helvetica,sans-Serif" font-size="10.00">+</text>
<text text-anchor="start" x="70" y="-329.75" font-family="Helvetica,sans-Serif" font-size="10.00">get_data_start_time()</text>
<text text-anchor="start" x="58" y="-314.75" font-family="Helvetica,sans-Serif" font-size="10.00">+</text>
<text text-anchor="start" x="70" y="-314.75" font-family="Helvetica,sans-Serif" font-size="10.00">get_data_stop_time()</text>
<text text-anchor="start" x="58" y="-299.75" font-family="Helvetica,sans-Serif" font-size="10.00">+</text>
<text text-anchor="start" x="70" y="-299.75" font-family="Helvetica,sans-Serif" font-size="10.00">record_duration()</text>
<text text-anchor="start" x="58" y="-284.75" font-family="Helvetica,sans-Serif" font-size="10.00">+</text>
<text text-anchor="start" x="70" y="-284.75" font-family="Helvetica,sans-Serif" font-size="10.00">get_ts_index_for_time()</text>
<text text-anchor="start" x="58" y="-269.75" font-family="Helvetica,sans-Serif" font-size="10.00">+</text>
<text text-anchor="start" x="70" y="-269.75" font-family="Helvetica,sans-Serif" font-size="10.00">get_value()</text>
<text text-anchor="start" x="58" y="-254.75" font-family="Helvetica,sans-Serif" font-size="10.00">+</text>
<text text-anchor="start" x="70" y="-254.75" font-family="Helvetica,sans-Serif" font-size="10.00">get_values()</text>
<text text-anchor="start" x="58" y="-239.75" font-family="Helvetica,sans-Serif" font-size="10.00">+</text>
<text text-anchor="start" x="70" y="-239.75" font-family="Helvetica,sans-Serif" font-size="10.00">is_property_sum_over</text>
<text text-anchor="start" x="70" y="-228.5" font-family="Helvetica,sans-Serif" font-size="10.00">_time_step()</text>
<polygon fill="#666666" stroke="#666666" points="52,-442.25 52,-442.25 180,-442.25 180,-442.25 52,-442.25"/>
<polygon fill="#666666" stroke="#666666" points="52,-427.25 52,-427.25 180,-427.25 180,-427.25 52,-427.25"/>
<polygon fill="none" stroke="#666666" points="52,-223.25 52,-470.25 180,-470.25 180,-223.25 52,-223.25"/>
</a>
</g>
</g>
<!-- Node2&#45;&gt;Node1 -->
<g id="edge1_Node000001_Node000002" class="edge">
<title>Node2&#45;&gt;Node1</title>
<g id="a_edge1_Node000001_Node000002"><a xlink:title=" ">
<path fill="none" stroke="#63b8ff" d="M167.75,-212.87C172.63,-200.36 177.48,-187.9 182.13,-175.97"/>
<polygon fill="none" stroke="#63b8ff" points="164.57,-211.39 164.21,-221.98 171.1,-213.93 164.57,-211.39"/>
</a>
</g>
</g>
<!-- Node3 -->
<g id="Node000003" class="node">
<title>Node3</title>
<g id="a_Node000003"><a xlink:href="classdata__access_1_1_generic_data_provider.html" target="_top" xlink:title=" ">
<polygon fill="white" stroke="none" points="154,-577.5 30,-577.5 30,-517.5 154,-517.5 154,-577.5"/>
<text text-anchor="start" x="35" y="-564" font-family="Helvetica,sans-Serif" font-size="10.00">data_access::GenericData</text>
<text text-anchor="start" x="74" y="-552.75" font-family="Helvetica,sans-Serif" font-size="10.00">Provider</text>
<text text-anchor="start" x="90.5" y="-538" font-family="Helvetica,sans-Serif" font-size="10.00"> </text>
<text text-anchor="start" x="90.5" y="-523" font-family="Helvetica,sans-Serif" font-size="10.00"> </text>
<polygon fill="#666666" stroke="#666666" points="30,-549.5 30,-549.5 154,-549.5 154,-549.5 30,-549.5"/>
<polygon fill="#666666" stroke="#666666" points="30,-534.5 30,-534.5 154,-534.5 154,-534.5 30,-534.5"/>
<polygon fill="none" stroke="#666666" points="30,-517.5 30,-577.5 154,-577.5 154,-517.5 30,-517.5"/>
</a>
</g>
</g>
<!-- Node3&#45;&gt;Node2 -->
<g id="edge2_Node000002_Node000003" class="edge">
<title>Node3&#45;&gt;Node2</title>
<g id="a_edge2_Node000002_Node000003"><a xlink:title=" ">
<path fill="none" stroke="#63b8ff" d="M96,-506.34C96.65,-500.28 97.32,-494.1 98,-488.25 98.69,-482.26 99.42,-476.14 100.16,-469.95"/>
<polygon fill="none" stroke="#63b8ff" points="92.53,-505.93 94.98,-516.24 99.49,-506.66 92.53,-505.93"/>
</a>
</g>
</g>
<!-- Node3&#45;&gt;Node2 -->
<g id="edge5_Node000002_Node000003" class="edge">
<title>Node3&#45;&gt;Node2</title>
<g id="a_edge5_Node000002_Node000003"><a xlink:title=" ">
<path fill="none" stroke="#63b8ff" d="M95.49,-517.6C96.7,-507.56 98.15,-495.55 99.71,-482.62"/>
<polygon fill="none" stroke="#63b8ff" points="99.69,-482.78 96.44,-476.34 101.13,-470.86 104.39,-477.3 99.69,-482.78"/>
</a>
</g>
<text text-anchor="middle" x="141" y="-490" font-family="Helvetica,sans-Serif" font-size="10.00" fill="grey"> #wrapped_provider</text>
</g>
<!-- Node4 -->
<g id="Node000004" class="node">
<title>Node4</title>
<g id="a_Node000004"><a xlink:href="classdata__access_1_1_data_provider.html" target="_top" xlink:title=" ">
<polygon fill="white" stroke="none" points="184,-841.75 0,-841.75 0,-624.75 184,-624.75 184,-841.75"/>
<text text-anchor="start" x="5" y="-828.25" font-family="Helvetica,sans-Serif" font-size="10.00">data_access::DataProvider</text>
<text text-anchor="start" x="5" y="-817" font-family="Helvetica,sans-Serif" font-size="10.00">&lt; double, CatchmentAggrDataSelector &gt;</text>
<text text-anchor="start" x="90.5" y="-802.25" font-family="Helvetica,sans-Serif" font-size="10.00"> </text>
<text text-anchor="start" x="20" y="-787.25" font-family="Helvetica,sans-Serif" font-size="10.00">+</text>
<text text-anchor="start" x="46" y="-787.25" font-family="Helvetica,sans-Serif" font-size="10.00">~DataProvider()</text>
<text text-anchor="start" x="20" y="-772.25" font-family="Helvetica,sans-Serif" font-size="10.00">+</text>
<text text-anchor="start" x="46" y="-772.25" font-family="Helvetica,sans-Serif" font-size="10.00">finalize()</text>
<text text-anchor="start" x="20" y="-757.25" font-family="Helvetica,sans-Serif" font-size="10.00">+</text>
<text text-anchor="start" x="46" y="-757.25" font-family="Helvetica,sans-Serif" font-size="10.00">get_available_variable</text>
<text text-anchor="start" x="46" y="-746" font-family="Helvetica,sans-Serif" font-size="10.00">_names()</text>
<text text-anchor="start" x="20" y="-731.25" font-family="Helvetica,sans-Serif" font-size="10.00">+</text>
<text text-anchor="start" x="46" y="-731.25" font-family="Helvetica,sans-Serif" font-size="10.00">get_data_start_time()</text>
<text text-anchor="start" x="20" y="-716.25" font-family="Helvetica,sans-Serif" font-size="10.00">+</text>
<text text-anchor="start" x="46" y="-716.25" font-family="Helvetica,sans-Serif" font-size="10.00">get_data_stop_time()</text>
<text text-anchor="start" x="20" y="-701.25" font-family="Helvetica,sans-Serif" font-size="10.00">+</text>
<text text-anchor="start" x="46" y="-701.25" font-family="Helvetica,sans-Serif" font-size="10.00">record_duration()</text>
<text text-anchor="start" x="20" y="-686.25" font-family="Helvetica,sans-Serif" font-size="10.00">+</text>
<text text-anchor="start" x="46" y="-686.25" font-family="Helvetica,sans-Serif" font-size="10.00">get_ts_index_for_time()</text>
<text text-anchor="start" x="20" y="-671.25" font-family="Helvetica,sans-Serif" font-size="10.00">+</text>
<text text-anchor="start" x="46" y="-671.25" font-family="Helvetica,sans-Serif" font-size="10.00">get_value()</text>
<text text-anchor="start" x="20" y="-656.25" font-family="Helvetica,sans-Serif" font-size="10.00">+</text>
<text text-anchor="start" x="46" y="-656.25" font-family="Helvetica,sans-Serif" font-size="10.00">get_values()</text>
<text text-anchor="start" x="20" y="-641.25" font-family="Helvetica,sans-Serif" font-size="10.00">+</text>
<text text-anchor="start" x="46" y="-641.25" font-family="Helvetica,sans-Serif" font-size="10.00">is_property_sum_over</text>
<text text-anchor="start" x="46" y="-630" font-family="Helvetica,sans-Serif" font-size="10.00">_time_step()</text>
<polygon fill="#666666" stroke="#666666" points="0,-813.75 0,-813.75 184,-813.75 184,-813.75 0,-813.75"/>
<polygon fill="#666666" stroke="#666666" points="0,-798.75 0,-798.75 184,-798.75 184,-798.75 0,-798.75"/>
<polygon fill="none" stroke="#666666" points="0,-624.75 0,-841.75 184,-841.75 184,-624.75 0,-624.75"/>
</a>
</g>
</g>
<!-- Node4&#45;&gt;Node3 -->
<g id="edge3_Node000003_Node000004" class="edge">
<title>Node4&#45;&gt;Node3</title>
<g id="a_edge3_Node000003_Node000004"><a xlink:title=" ">
<path fill="none" stroke="#63b8ff" d="M92,-613.53C92,-600.27 92,-587.82 92,-577.44"/>
<polygon fill="none" stroke="#63b8ff" points="88.5,-613.32 92,-623.32 95.5,-613.32 88.5,-613.32"/>
</a>
</g>
</g>
<!-- Node5 -->
<g id="Node000005" class="node">
<title>Node5</title>
<g id="a_Node000005"><a xlink:href="classdata__access_1_1_data_provider.html" target="_top" xlink:title=" ">
<polygon fill="white" stroke="none" points="160,-1117.25 24,-1117.25 24,-900.25 160,-900.25 160,-1117.25"/>
<text text-anchor="start" x="29" y="-1103.75" font-family="Helvetica,sans-Serif" font-size="10.00">data_access::DataProvider</text>
<text text-anchor="start" x="29" y="-1092.5" font-family="Helvetica,sans-Serif" font-size="10.00">&lt; data_type, selection_type &gt;</text>
<text text-anchor="start" x="90.5" y="-1077.75" font-family="Helvetica,sans-Serif" font-size="10.00"> </text>
<text text-anchor="start" x="32" y="-1062.75" font-family="Helvetica,sans-Serif" font-size="10.00">+</text>
<text text-anchor="start" x="46" y="-1062.75" font-family="Helvetica,sans-Serif" font-size="10.00">~DataProvider()</text>
<text text-anchor="start" x="32" y="-1047.75" font-family="Helvetica,sans-Serif" font-size="10.00">+</text>
<text text-anchor="start" x="46" y="-1047.75" font-family="Helvetica,sans-Serif" font-size="10.00">finalize()</text>
<text text-anchor="start" x="32" y="-1032.75" font-family="Helvetica,sans-Serif" font-size="10.00">+</text>
<text text-anchor="start" x="46" y="-1032.75" font-family="Helvetica,sans-Serif" font-size="10.00">get_available_variable</text>
<text text-anchor="start" x="46" y="-1021.5" font-family="Helvetica,sans-Serif" font-size="10.00">_names()</text>
<text text-anchor="start" x="32" y="-1006.75" font-family="Helvetica,sans-Serif" font-size="10.00">+</text>
<text text-anchor="start" x="46" y="-1006.75" font-family="Helvetica,sans-Serif" font-size="10.00">get_data_start_time()</text>
<text text-anchor="start" x="32" y="-991.75" font-family="Helvetica,sans-Serif" font-size="10.00">+</text>
<text text-anchor="start" x="46" y="-991.75" font-family="Helvetica,sans-Serif" font-size="10.00">get_data_stop_time()</text>
<text text-anchor="start" x="32" y="-976.75" font-family="Helvetica,sans-Serif" font-size="10.00">+</text>
<text text-anchor="start" x="46" y="-976.75" font-family="Helvetica,sans-Serif" font-size="10.00">record_duration()</text>
<text text-anchor="start" x="32" y="-961.75" font-family="Helvetica,sans-Serif" font-size="10.00">+</text>
<text text-anchor="start" x="46" y="-961.75" font-family="Helvetica,sans-Serif" font-size="10.00">get_ts_index_for_time()</text>
<text text-anchor="start" x="32" y="-946.75" font-family="Helvetica,sans-Serif" font-size="10.00">+</text>
<text text-anchor="start" x="46" y="-946.75" font-family="Helvetica,sans-Serif" font-size="10.00">get_value()</text>
<text text-anchor="start" x="32" y="-931.75" font-family="Helvetica,sans-Serif" font-size="10.00">+</text>
<text text-anchor="start" x="46" y="-931.75" font-family="Helvetica,sans-Serif" font-size="10.00">get_values()</text>
<text text-anchor="start" x="32" y="-916.75" font-family="Helvetica,sans-Serif" font-size="10.00">+</text>
<text text-anchor="start" x="46" y="-916.75" font-family="Helvetica,sans-Serif" font-size="10.00">is_property_sum_over</text>
<text text-anchor="start" x="46" y="-905.5" font-family="Helvetica,sans-Serif" font-size="10.00">_time_step()</text>
<polygon fill="#666666" stroke="#666666" points="24,-1089.25 24,-1089.25 160,-1089.25 160,-1089.25 24,-1089.25"/>
<polygon fill="#666666" stroke="#666666" points="24,-1074.25 24,-1074.25 160,-1074.25 160,-1074.25 24,-1074.25"/>
<polygon fill="none" stroke="#666666" points="24,-900.25 24,-1117.25 160,-1117.25 160,-900.25 24,-900.25"/>
</a>
</g>
</g>
<!-- Node5&#45;&gt;Node4 -->
<g id="edge4_Node000004_Node000005" class="edge">
<title>Node5&#45;&gt;Node4</title>
<g id="a_edge4_Node000004_Node000005"><a xlink:title=" ">
<path fill="none" stroke="orange" d="M92,-889.05C92,-873.3 92,-857.24 92,-841.7"/>
<polygon fill="orange" stroke="orange" points="88.5,-888.93 92,-898.93 95.5,-888.93 88.5,-888.93"/>
</a>
</g>
<text text-anchor="start" x="92" y="-872.75" font-family="Helvetica,sans-Serif" font-size="10.00" fill="grey"> &lt; double, CatchmentAggrData</text>
<text text-anchor="middle" x="158" y="-861.5" font-family="Helvetica,sans-Serif" font-size="10.00" fill="grey">Selector &gt;</text>
</g>
<!-- Node6 -->
<g id="Node000006" class="node">
<title>Node6</title>
<g id="a_Node000006"><a xlink:title=" ">
<polygon fill="white" stroke="none" points="407.5,-371.25 294.5,-371.25 294.5,-322.25 407.5,-322.25 407.5,-371.25"/>
<text text-anchor="start" x="299.25" y="-357.75" font-family="Helvetica,sans-Serif" font-size="10.00">std::vector&lt; std::string &gt;</text>
<text text-anchor="start" x="349.5" y="-342.75" font-family="Helvetica,sans-Serif" font-size="10.00"> </text>
<text text-anchor="start" x="349.5" y="-327.75" font-family="Helvetica,sans-Serif" font-size="10.00"> </text>
<polygon fill="#666666" stroke="#666666" points="294.5,-354.25 294.5,-354.25 407.5,-354.25 407.5,-354.25 294.5,-354.25"/>
<polygon fill="#666666" stroke="#666666" points="294.5,-339.25 294.5,-339.25 407.5,-339.25 407.5,-339.25 294.5,-339.25"/>
<polygon fill="none" stroke="#666666" points="294.5,-322.25 294.5,-371.25 407.5,-371.25 407.5,-322.25 294.5,-322.25"/>
</a>
</g>
</g>
<!-- Node6&#45;&gt;Node1 -->
<g id="edge6_Node000001_Node000006" class="edge">
<title>Node6&#45;&gt;Node1</title>
<g id="a_edge6_Node000001_Node000006"><a xlink:title=" ">
<path fill="none" stroke="#63b8ff" d="M338.78,-322.51C322.73,-291.99 293.55,-236.5 267.67,-187.26"/>
<polygon fill="none" stroke="#63b8ff" points="267.69,-187.31 261.36,-183.86 262.1,-176.68 268.44,-180.13 267.69,-187.31"/>
</a>
</g>
<text text-anchor="middle" x="315.38" y="-195.75" font-family="Helvetica,sans-Serif" font-size="10.00" fill="grey"> #providedOutputs</text>
</g>
<!-- Node7 -->
<g id="Node000007" class="node">
<title>Node7</title>
<g id="a_Node000007"><a xlink:title=" ">
<polygon fill="white" stroke="none" points="286,-572 234,-572 234,-523 286,-523 286,-572"/>
<text text-anchor="start" x="239" y="-558.5" font-family="Helvetica,sans-Serif" font-size="10.00">std::string</text>
<text text-anchor="start" x="258.5" y="-543.5" font-family="Helvetica,sans-Serif" font-size="10.00"> </text>
<text text-anchor="start" x="258.5" y="-528.5" font-family="Helvetica,sans-Serif" font-size="10.00"> </text>
<polygon fill="#666666" stroke="#666666" points="234,-555 234,-555 286,-555 286,-555 234,-555"/>
<polygon fill="#666666" stroke="#666666" points="234,-540 234,-540 286,-540 286,-540 234,-540"/>
<polygon fill="none" stroke="#666666" points="234,-523 234,-572 286,-572 286,-523 234,-523"/>
</a>
</g>
</g>
<!-- Node7&#45;&gt;Node1 -->
<g id="edge11_Node000001_Node000007" class="edge">
<title>Node7&#45;&gt;Node1</title>
<g id="a_edge11_Node000001_Node000007"><a xlink:title=" ">
<path fill="none" stroke="#63b8ff" d="M245.88,-523.05C237.88,-508.43 228.62,-488.9 224.25,-470.25 202.3,-376.52 202.62,-266.27 207,-188.5"/>
<polygon fill="none" stroke="#63b8ff" points="206.99,-188.7 203.36,-182.47 207.71,-176.73 211.34,-182.96 206.99,-188.7"/>
</a>
</g>
<text text-anchor="middle" x="255.38" y="-342.88" font-family="Helvetica,sans-Serif" font-size="10.00" fill="grey"> #setMessage</text>
</g>
<!-- Node7&#45;&gt;Node6 -->
<g id="edge7_Node000006_Node000007" class="edge">
<title>Node7&#45;&gt;Node6</title>
<g id="a_edge7_Node000006_Node000007"><a xlink:title=" ">
<path fill="none" stroke="#63b8ff" d="M270.62,-523.31C286.47,-488.7 316.42,-423.26 334.95,-382.79"/>
<polygon fill="none" stroke="#63b8ff" points="334.94,-382.83 333.8,-375.71 339.93,-371.92 341.07,-379.04 334.94,-382.83"/>
</a>
</g>
<text text-anchor="middle" x="309" y="-490" font-family="Helvetica,sans-Serif" font-size="10.00" fill="grey"> +elements</text>
</g>
<!-- Node8 -->
<g id="Node000008" class="node">
<title>Node8</title>
<g id="a_Node000008"><a xlink:title=" ">
<polygon fill="white" stroke="none" points="303,-763.25 217,-763.25 217,-703.25 303,-703.25 303,-763.25"/>
<text text-anchor="start" x="221.75" y="-749.75" font-family="Helvetica,sans-Serif" font-size="10.00">std::basic_string&lt;</text>
<text text-anchor="start" x="244.62" y="-738.5" font-family="Helvetica,sans-Serif" font-size="10.00"> Char &gt;</text>
<text text-anchor="start" x="258.5" y="-723.75" font-family="Helvetica,sans-Serif" font-size="10.00"> </text>
<text text-anchor="start" x="258.5" y="-708.75" font-family="Helvetica,sans-Serif" font-size="10.00"> </text>
<polygon fill="#666666" stroke="#666666" points="217,-735.25 217,-735.25 303,-735.25 303,-735.25 217,-735.25"/>
<polygon fill="#666666" stroke="#666666" points="217,-720.25 217,-720.25 303,-720.25 303,-720.25 217,-720.25"/>
<polygon fill="none" stroke="#666666" points="217,-703.25 217,-763.25 303,-763.25 303,-703.25 217,-703.25"/>
</a>
</g>
</g>
<!-- Node8&#45;&gt;Node7 -->
<g id="edge8_Node000007_Node000008" class="edge">
<title>Node8&#45;&gt;Node7</title>
<g id="a_edge8_Node000007_Node000008"><a xlink:title=" ">
<path fill="none" stroke="#63b8ff" d="M260,-692.21C260,-655.38 260,-602.04 260,-571.77"/>
<polygon fill="none" stroke="#63b8ff" points="256.5,-692.03 260,-702.03 263.5,-692.03 256.5,-692.03"/>
</a>
</g>
</g>
<!-- Node9 -->
<g id="Node000009" class="node">
<title>Node9</title>
<g id="a_Node000009"><a xlink:title=" ">
<polygon fill="white" stroke="none" points="389.5,-572 312.5,-572 312.5,-523 389.5,-523 389.5,-572"/>
<text text-anchor="start" x="317.25" y="-558.5" font-family="Helvetica,sans-Serif" font-size="10.00">std::vector&lt; T &gt;</text>
<text text-anchor="start" x="349.5" y="-543.5" font-family="Helvetica,sans-Serif" font-size="10.00"> </text>
<text text-anchor="start" x="349.5" y="-528.5" font-family="Helvetica,sans-Serif" font-size="10.00"> </text>
<polygon fill="#666666" stroke="#666666" points="312.5,-555 312.5,-555 389.5,-555 389.5,-555 312.5,-555"/>
<polygon fill="#666666" stroke="#666666" points="312.5,-540 312.5,-540 389.5,-540 389.5,-540 312.5,-540"/>
<polygon fill="none" stroke="#666666" points="312.5,-523 312.5,-572 389.5,-572 389.5,-523 312.5,-523"/>
</a>
</g>
</g>
<!-- Node9&#45;&gt;Node6 -->
<g id="edge9_Node000006_Node000009" class="edge">
<title>Node9&#45;&gt;Node6</title>
<g id="a_edge9_Node000006_Node000009"><a xlink:title=" ">
<path fill="none" stroke="orange" d="M351,-511.9C351,-471.53 351,-405.88 351,-371.1"/>
<polygon fill="orange" stroke="orange" points="347.5,-511.8 351,-521.8 354.5,-511.8 347.5,-511.8"/>
</a>
</g>
<text text-anchor="middle" x="381.38" y="-490" font-family="Helvetica,sans-Serif" font-size="10.00" fill="grey"> &lt; std::string &gt;</text>
</g>
<!-- Node10 -->
<g id="Node000010" class="node">
<title>Node10</title>
<g id="a_Node000010"><a xlink:title=" ">
<polygon fill="white" stroke="none" points="359,-757.75 343,-757.75 343,-708.75 359,-708.75 359,-757.75"/>
<text text-anchor="start" x="348" y="-744.25" font-family="Helvetica,sans-Serif" font-size="10.00">T</text>
<text text-anchor="start" x="349.5" y="-729.25" font-family="Helvetica,sans-Serif" font-size="10.00"> </text>
<text text-anchor="start" x="349.5" y="-714.25" font-family="Helvetica,sans-Serif" font-size="10.00"> </text>
<polygon fill="#666666" stroke="#666666" points="343,-740.75 343,-740.75 359,-740.75 359,-740.75 343,-740.75"/>
<polygon fill="#666666" stroke="#666666" points="343,-725.75 343,-725.75 359,-725.75 359,-725.75 343,-725.75"/>
<polygon fill="none" stroke="#666666" points="343,-708.75 343,-757.75 359,-757.75 359,-708.75 343,-708.75"/>
</a>
</g>
</g>
<!-- Node10&#45;&gt;Node9 -->
<g id="edge10_Node000009_Node000010" class="edge">
<title>Node10&#45;&gt;Node9</title>
<g id="a_edge10_Node000009_Node000010"><a xlink:title=" ">
<path fill="none" stroke="#63b8ff" d="M351,-708.98C351,-677.58 351,-621.36 351,-584.5"/>
<polygon fill="none" stroke="#63b8ff" points="351,-584.77 347,-578.77 351,-572.77 355,-578.77 351,-584.77"/>
</a>
</g>
<text text-anchor="middle" x="375" y="-597.25" font-family="Helvetica,sans-Serif" font-size="10.00" fill="grey"> +elements</text>
</g>
</g>
</svg>
