<?xml version="1.0" encoding="UTF-8" standalone="no"?>
<!DOCTYPE svg PUBLIC "-//W3C//DTD SVG 1.1//EN"
 "http://www.w3.org/Graphics/SVG/1.1/DTD/svg11.dtd">
<!-- Generated by graphviz version 3.0.0 (20220413.0106)
 -->
<!-- Title: HY_CatchmentAggregate Pages: 1 -->
<svg width="781pt" height="949pt"
 viewBox="0.00 0.00 780.50 949.00" xmlns="http://www.w3.org/2000/svg" xmlns:xlink="http://www.w3.org/1999/xlink">
<g id="graph0" class="graph" transform="scale(1 1) rotate(0) translate(4 945)">
<title>HY_CatchmentAggregate</title>
<polygon fill="white" stroke="transparent" points="-4,4 -4,-945 776.5,-945 776.5,4 -4,4"/>
<!-- Node1 -->
<g id="node1" class="node">
<title>Node1</title>
<g id="a_node1"><a xlink:title=" ">
<polygon fill="#bfbfbf" stroke="black" points="342,-276.5 342,-344.5 489,-344.5 489,-276.5 342,-276.5"/>
<text text-anchor="middle" x="415.5" y="-332.5" font-family="Helvetica,sans-Serif" font-size="10.00">HY_CatchmentAggregate</text>
<polyline fill="none" stroke="black" points="342,-325.5 489,-325.5 "/>
<text text-anchor="middle" x="415.5" y="-313.5" font-family="Helvetica,sans-Serif" font-size="10.00"> </text>
<polyline fill="none" stroke="black" points="342,-306.5 489,-306.5 "/>
<text text-anchor="start" x="350" y="-294.5" font-family="Helvetica,sans-Serif" font-size="10.00">+ HY_CatchmentAggregate()</text>
<text text-anchor="start" x="350" y="-283.5" font-family="Helvetica,sans-Serif" font-size="10.00">+ ~HY_CatchmentAggregate()</text>
</a>
</g>
</g>
<!-- Node2 -->
<g id="node2" class="node">
<title>Node2</title>
<g id="a_node2"><a xlink:href="class_h_y___catchment.html" target="_top" xlink:title=" ">
<polygon fill="white" stroke="black" points="398.5,-392.5 398.5,-482.5 520.5,-482.5 520.5,-392.5 398.5,-392.5"/>
<text text-anchor="middle" x="459.5" y="-470.5" font-family="Helvetica,sans-Serif" font-size="10.00">HY_Catchment</text>
<polyline fill="none" stroke="black" points="398.5,-463.5 520.5,-463.5 "/>
<text text-anchor="middle" x="459.5" y="-451.5" font-family="Helvetica,sans-Serif" font-size="10.00"> </text>
<polyline fill="none" stroke="black" points="398.5,-444.5 520.5,-444.5 "/>
<text text-anchor="start" x="406.5" y="-432.5" font-family="Helvetica,sans-Serif" font-size="10.00">+ HY_Catchment()</text>
<text text-anchor="start" x="406.5" y="-421.5" font-family="Helvetica,sans-Serif" font-size="10.00">+ HY_Catchment()</text>
<text text-anchor="start" x="406.5" y="-410.5" font-family="Helvetica,sans-Serif" font-size="10.00">+ ~HY_Catchment()</text>
<text text-anchor="start" x="406.5" y="-399.5" font-family="Helvetica,sans-Serif" font-size="10.00">+ get_outflow_nexuses()</text>
</a>
</g>
</g>
<!-- Node2&#45;&gt;Node1 -->
<g id="edge1" class="edge">
<title>Node2&#45;&gt;Node1</title>
<path fill="none" stroke="midnightblue" d="M440.55,-382.66C435.99,-369.71 431.25,-356.25 427.14,-344.57"/>
<polygon fill="none" stroke="midnightblue" points="437.37,-384.16 443.99,-392.43 443.97,-381.83 437.37,-384.16"/>
</g>
<!-- Node6 -->
<g id="node6" class="node">
<title>Node6</title>
<g id="a_node6"><a xlink:title=" ">
<polygon fill="white" stroke="black" points="221,-276.5 221,-344.5 324,-344.5 324,-276.5 221,-276.5"/>
<text text-anchor="start" x="229" y="-332.5" font-family="Helvetica,sans-Serif" font-size="10.00">std::shared_ptr&lt; HY</text>
<text text-anchor="middle" x="272.5" y="-321.5" font-family="Helvetica,sans-Serif" font-size="10.00">_Catchment &gt;</text>
<polyline fill="none" stroke="black" points="221,-314.5 324,-314.5 "/>
<text text-anchor="middle" x="272.5" y="-302.5" font-family="Helvetica,sans-Serif" font-size="10.00"> </text>
<polyline fill="none" stroke="black" points="221,-295.5 324,-295.5 "/>
<text text-anchor="start" x="229" y="-283.5" font-family="Helvetica,sans-Serif" font-size="10.00">+ operator&#45;&gt;()</text>
</a>
</g>
</g>
<!-- Node2&#45;&gt;Node6 -->
<g id="edge6" class="edge">
<title>Node2&#45;&gt;Node6</title>
<path fill="none" stroke="#404040" d="M398.27,-395.57C377.03,-381.37 353.26,-365.49 332.16,-351.38"/>
<polygon fill="none" stroke="#404040" points="332.01,-351.28 324.79,-351.27 322.03,-344.61 329.24,-344.62 332.01,-351.28"/>
<text text-anchor="middle" x="376.5" y="-366" font-family="Helvetica,sans-Serif" font-size="10.00"> +ptr</text>
</g>
<!-- Node3 -->
<g id="node3" class="node">
<title>Node3</title>
<g id="a_node3"><a xlink:href="class_h_y___hydro_feature.html" target="_top" xlink:title=" ">
<polygon fill="white" stroke="black" points="540.5,-541.5 540.5,-609.5 654.5,-609.5 654.5,-541.5 540.5,-541.5"/>
<text text-anchor="middle" x="597.5" y="-597.5" font-family="Helvetica,sans-Serif" font-size="10.00">HY_HydroFeature</text>
<polyline fill="none" stroke="black" points="540.5,-590.5 654.5,-590.5 "/>
<text text-anchor="middle" x="597.5" y="-578.5" font-family="Helvetica,sans-Serif" font-size="10.00"> </text>
<polyline fill="none" stroke="black" points="540.5,-571.5 654.5,-571.5 "/>
<text text-anchor="start" x="548.5" y="-559.5" font-family="Helvetica,sans-Serif" font-size="10.00">+ HY_HydroFeature()</text>
<text text-anchor="start" x="548.5" y="-548.5" font-family="Helvetica,sans-Serif" font-size="10.00">+ ~HY_HydroFeature()</text>
</a>
</g>
</g>
<!-- Node3&#45;&gt;Node2 -->
<g id="edge2" class="edge">
<title>Node3&#45;&gt;Node2</title>
<path fill="none" stroke="midnightblue" d="M585.54,-531.78C581.1,-520.92 575.2,-509.84 567.5,-501 554.69,-486.3 537.54,-474.21 520.68,-464.72"/>
<polygon fill="none" stroke="midnightblue" points="582.29,-533.07 589.08,-541.2 588.84,-530.61 582.29,-533.07"/>
</g>
<!-- Node4 -->
<g id="node4" class="node">
<title>Node4</title>
<g id="a_node4"><a xlink:title=" ">
<polygon fill="white" stroke="black" points="158,-0.5 158,-68.5 283,-68.5 283,-0.5 158,-0.5"/>
<text text-anchor="start" x="166" y="-56.5" font-family="Helvetica,sans-Serif" font-size="10.00">std::shared_ptr&lt; HY</text>
<text text-anchor="middle" x="220.5" y="-45.5" font-family="Helvetica,sans-Serif" font-size="10.00">_CatchmentRealization &gt;</text>
<polyline fill="none" stroke="black" points="158,-38.5 283,-38.5 "/>
<text text-anchor="middle" x="220.5" y="-26.5" font-family="Helvetica,sans-Serif" font-size="10.00"> </text>
<polyline fill="none" stroke="black" points="158,-19.5 283,-19.5 "/>
<text text-anchor="start" x="166" y="-7.5" font-family="Helvetica,sans-Serif" font-size="10.00">+ operator&#45;&gt;()</text>
</a>
</g>
</g>
<!-- Node4&#45;&gt;Node2 -->
<g id="edge3" class="edge">
<title>Node4&#45;&gt;Node2</title>
<path fill="none" stroke="#404040" d="M283.17,-68.29C350.49,-107.46 453.7,-179.96 497.5,-276 512.69,-309.3 503.24,-349.35 489.97,-381.12"/>
<polygon fill="none" stroke="#404040" points="489.82,-381.45 491.04,-388.56 484.94,-392.42 483.73,-385.31 489.82,-381.45"/>
<text text-anchor="middle" x="513.5" y="-250" font-family="Helvetica,sans-Serif" font-size="10.00"> +realization</text>
</g>
<!-- Node5 -->
<g id="node5" class="node">
<title>Node5</title>
<g id="a_node5"><a xlink:href="class_h_y___catchment_realization.html" target="_top" xlink:title=" ">
<polygon fill="white" stroke="black" points="145.5,-116.5 145.5,-228.5 295.5,-228.5 295.5,-116.5 145.5,-116.5"/>
<text text-anchor="middle" x="220.5" y="-216.5" font-family="Helvetica,sans-Serif" font-size="10.00">HY_CatchmentRealization</text>
<polyline fill="none" stroke="black" points="145.5,-209.5 295.5,-209.5 "/>
<text text-anchor="start" x="153.5" y="-197.5" font-family="Helvetica,sans-Serif" font-size="10.00"># id_number</text>
<polyline fill="none" stroke="black" points="145.5,-190.5 295.5,-190.5 "/>
<text text-anchor="start" x="153.5" y="-178.5" font-family="Helvetica,sans-Serif" font-size="10.00">+ HY_CatchmentRealization()</text>
<text text-anchor="start" x="153.5" y="-167.5" font-family="Helvetica,sans-Serif" font-size="10.00">+ HY_CatchmentRealization()</text>
<text text-anchor="start" x="153.5" y="-156.5" font-family="Helvetica,sans-Serif" font-size="10.00">+ ~HY_CatchmentRealization()</text>
<text text-anchor="start" x="153.5" y="-145.5" font-family="Helvetica,sans-Serif" font-size="10.00">+ get_response()</text>
<text text-anchor="start" x="153.5" y="-134.5" font-family="Helvetica,sans-Serif" font-size="10.00"># get_catchment_id()</text>
<text text-anchor="start" x="153.5" y="-123.5" font-family="Helvetica,sans-Serif" font-size="10.00"># set_catchment_id()</text>
</a>
</g>
</g>
<!-- Node5&#45;&gt;Node4 -->
<g id="edge4" class="edge">
<title>Node5&#45;&gt;Node4</title>
<path fill="none" stroke="#404040" d="M220.5,-116.18C220.5,-104.43 220.5,-92.15 220.5,-80.82"/>
<polygon fill="none" stroke="#404040" points="220.5,-80.51 216.5,-74.51 220.5,-68.51 224.5,-74.51 220.5,-80.51"/>
<text text-anchor="middle" x="230.5" y="-90" font-family="Helvetica,sans-Serif" font-size="10.00"> +ptr</text>
</g>
<!-- Node6&#45;&gt;Node5 -->
<g id="edge5" class="edge">
<title>Node6&#45;&gt;Node5</title>
<path fill="none" stroke="#404040" d="M259.78,-276.23C255.59,-265.27 250.77,-252.67 245.98,-240.13"/>
<polygon fill="none" stroke="#404040" points="245.88,-239.89 240,-235.71 241.6,-228.68 247.48,-232.86 245.88,-239.89"/>
<text text-anchor="middle" x="299.5" y="-250" font-family="Helvetica,sans-Serif" font-size="10.00"> #realized_catchment</text>
</g>
<!-- Node7 -->
<g id="node7" class="node">
<title>Node7</title>
<g id="a_node7"><a xlink:title=" ">
<polygon fill="white" stroke="black" points="0,-409 0,-466 103,-466 103,-409 0,-409"/>
<text text-anchor="middle" x="51.5" y="-454" font-family="Helvetica,sans-Serif" font-size="10.00">std::shared_ptr&lt; T &gt;</text>
<polyline fill="none" stroke="black" points="0,-447 103,-447 "/>
<text text-anchor="middle" x="51.5" y="-435" font-family="Helvetica,sans-Serif" font-size="10.00"> </text>
<polyline fill="none" stroke="black" points="0,-428 103,-428 "/>
<text text-anchor="start" x="8" y="-416" font-family="Helvetica,sans-Serif" font-size="10.00">+ operator&#45;&gt;()</text>
</a>
</g>
</g>
<!-- Node7&#45;&gt;Node4 -->
<g id="edge13" class="edge">
<title>Node7&#45;&gt;Node4</title>
<path fill="none" stroke="orange" d="M53.17,-398.7C55.65,-359.96 61.73,-298.3 76.5,-247 94.22,-185.46 99.39,-168.19 136.5,-116 148.67,-98.88 164.82,-82.38 179.7,-68.83"/>
<polygon fill="orange" stroke="orange" points="49.66,-398.8 52.56,-408.99 56.65,-399.22 49.66,-398.8"/>
<text text-anchor="middle" x="143" y="-250" font-family="Helvetica,sans-Serif" font-size="10.00"> &lt; HY_CatchmentRealization &gt;</text>
</g>
<!-- Node7&#45;&gt;Node6 -->
<g id="edge7" class="edge">
<title>Node7&#45;&gt;Node6</title>
<path fill="none" stroke="orange" d="M61.08,-399.08C66.11,-386.04 73.58,-372.35 84.5,-363 122.55,-330.43 179.44,-318.3 220.67,-313.87"/>
<polygon fill="orange" stroke="orange" points="57.66,-398.25 57.69,-408.85 64.27,-400.55 57.66,-398.25"/>
<text text-anchor="middle" x="127.5" y="-366" font-family="Helvetica,sans-Serif" font-size="10.00"> &lt; HY_Catchment &gt;</text>
</g>
<!-- Node8 -->
<g id="node8" class="node">
<title>Node8</title>
<g id="a_node8"><a xlink:title=" ">
<polygon fill="white" stroke="black" points="260,-878 260,-935 289,-935 289,-878 260,-878"/>
<text text-anchor="middle" x="274.5" y="-923" font-family="Helvetica,sans-Serif" font-size="10.00">T</text>
<polyline fill="none" stroke="black" points="260,-916 289,-916 "/>
<text text-anchor="middle" x="274.5" y="-904" font-family="Helvetica,sans-Serif" font-size="10.00"> </text>
<polyline fill="none" stroke="black" points="260,-897 289,-897 "/>
<text text-anchor="middle" x="274.5" y="-885" font-family="Helvetica,sans-Serif" font-size="10.00"> </text>
</a>
</g>
</g>
<!-- Node8&#45;&gt;Node7 -->
<g id="edge8" class="edge">
<title>Node8&#45;&gt;Node7</title>
<path fill="none" stroke="#404040" d="M259.99,-904.82C221.46,-902.15 116.42,-889.05 70.5,-825 -5.15,-719.49 22.58,-553.04 40.73,-477.77"/>
<polygon fill="none" stroke="#404040" points="40.74,-477.72 38.31,-470.93 43.65,-466.08 46.08,-472.87 40.74,-477.72"/>
<text text-anchor="middle" x="31.5" y="-631" font-family="Helvetica,sans-Serif" font-size="10.00"> +ptr</text>
</g>
<!-- Node11 -->
<g id="node11" class="node">
<title>Node11</title>
<g id="a_node11"><a xlink:title=" ">
<polygon fill="white" stroke="black" points="223.5,-712.5 223.5,-769.5 325.5,-769.5 325.5,-712.5 223.5,-712.5"/>
<text text-anchor="middle" x="274.5" y="-757.5" font-family="Helvetica,sans-Serif" font-size="10.00">std::unique_ptr&lt; T &gt;</text>
<polyline fill="none" stroke="black" points="223.5,-750.5 325.5,-750.5 "/>
<text text-anchor="middle" x="274.5" y="-738.5" font-family="Helvetica,sans-Serif" font-size="10.00"> </text>
<polyline fill="none" stroke="black" points="223.5,-731.5 325.5,-731.5 "/>
<text text-anchor="start" x="231.5" y="-719.5" font-family="Helvetica,sans-Serif" font-size="10.00">+ operator&#45;&gt;()</text>
</a>
</g>
</g>
<!-- Node8&#45;&gt;Node11 -->
<g id="edge12" class="edge">
<title>Node8&#45;&gt;Node11</title>
<path fill="none" stroke="#404040" d="M274.5,-877.76C274.5,-851.38 274.5,-811.4 274.5,-781.65"/>
<polygon fill="none" stroke="#404040" points="274.5,-781.6 270.5,-775.6 274.5,-769.6 278.5,-775.6 274.5,-781.6"/>
<text text-anchor="middle" x="284.5" y="-846" font-family="Helvetica,sans-Serif" font-size="10.00"> +ptr</text>
</g>
<!-- Node15 -->
<g id="node15" class="node">
<title>Node15</title>
<g id="a_node15"><a xlink:title=" ">
<polygon fill="white" stroke="black" points="343.5,-712.5 343.5,-769.5 427.5,-769.5 427.5,-712.5 343.5,-712.5"/>
<text text-anchor="middle" x="385.5" y="-757.5" font-family="Helvetica,sans-Serif" font-size="10.00">std::vector&lt; T &gt;</text>
<polyline fill="none" stroke="black" points="343.5,-750.5 427.5,-750.5 "/>
<text text-anchor="middle" x="385.5" y="-738.5" font-family="Helvetica,sans-Serif" font-size="10.00"> </text>
<polyline fill="none" stroke="black" points="343.5,-731.5 427.5,-731.5 "/>
<text text-anchor="middle" x="385.5" y="-719.5" font-family="Helvetica,sans-Serif" font-size="10.00"> </text>
</a>
</g>
</g>
<!-- Node8&#45;&gt;Node15 -->
<g id="edge19" class="edge">
<title>Node8&#45;&gt;Node15</title>
<path fill="none" stroke="#404040" d="M289.05,-886.98C301.51,-870.88 319.73,-846.79 334.5,-825 344.26,-810.61 354.4,-794.39 363.05,-780.14"/>
<polygon fill="none" stroke="#404040" points="363.15,-779.96 362.82,-772.76 369.34,-769.68 369.67,-776.88 363.15,-779.96"/>
<text text-anchor="middle" x="347" y="-846" font-family="Helvetica,sans-Serif" font-size="10.00"> +elements</text>
</g>
<!-- Node9 -->
<g id="node9" class="node">
<title>Node9</title>
<g id="a_node9"><a xlink:title=" ">
<polygon fill="white" stroke="black" points="130,-541.5 130,-609.5 247,-609.5 247,-541.5 130,-541.5"/>
<text text-anchor="start" x="138" y="-597.5" font-family="Helvetica,sans-Serif" font-size="10.00">std::unique_ptr&lt; forcing</text>
<text text-anchor="middle" x="188.5" y="-586.5" font-family="Helvetica,sans-Serif" font-size="10.00">::ForcingProvider &gt;</text>
<polyline fill="none" stroke="black" points="130,-579.5 247,-579.5 "/>
<text text-anchor="middle" x="188.5" y="-567.5" font-family="Helvetica,sans-Serif" font-size="10.00"> </text>
<polyline fill="none" stroke="black" points="130,-560.5 247,-560.5 "/>
<text text-anchor="start" x="138" y="-548.5" font-family="Helvetica,sans-Serif" font-size="10.00">+ operator&#45;&gt;()</text>
</a>
</g>
</g>
<!-- Node9&#45;&gt;Node5 -->
<g id="edge9" class="edge">
<title>Node9&#45;&gt;Node5</title>
<path fill="none" stroke="#404040" d="M190.94,-541.36C195.02,-486.27 203.56,-372.35 211.5,-276 212.44,-264.57 213.48,-252.43 214.5,-240.65"/>
<polygon fill="none" stroke="#404040" points="214.51,-240.5 211.05,-234.18 215.56,-228.55 219.02,-234.87 214.51,-240.5"/>
<text text-anchor="middle" x="223" y="-366" font-family="Helvetica,sans-Serif" font-size="10.00"> #forcing</text>
</g>
<!-- Node10 -->
<g id="node10" class="node">
<title>Node10</title>
<g id="a_node10"><a xlink:href="classforcing_1_1_forcing_provider.html" target="_top" xlink:title="An abstraction interface for types that provides forcing data.">
<polygon fill="white" stroke="black" points="79.5,-657.5 79.5,-824.5 205.5,-824.5 205.5,-657.5 79.5,-657.5"/>
<text text-anchor="middle" x="142.5" y="-812.5" font-family="Helvetica,sans-Serif" font-size="10.00">forcing::ForcingProvider</text>
<polyline fill="none" stroke="black" points="79.5,-805.5 205.5,-805.5 "/>
<text text-anchor="middle" x="142.5" y="-793.5" font-family="Helvetica,sans-Serif" font-size="10.00"> </text>
<polyline fill="none" stroke="black" points="79.5,-786.5 205.5,-786.5 "/>
<text text-anchor="start" x="87.5" y="-774.5" font-family="Helvetica,sans-Serif" font-size="10.00">+ ~ForcingProvider()</text>
<text text-anchor="start" x="87.5" y="-763.5" font-family="Helvetica,sans-Serif" font-size="10.00">+ get_available_forcing</text>
<text text-anchor="start" x="87.5" y="-752.5" font-family="Helvetica,sans-Serif" font-size="10.00">_outputs()</text>
<text text-anchor="start" x="87.5" y="-741.5" font-family="Helvetica,sans-Serif" font-size="10.00">+ get_forcing_output</text>
<text text-anchor="start" x="87.5" y="-730.5" font-family="Helvetica,sans-Serif" font-size="10.00">_time_begin()</text>
<text text-anchor="start" x="87.5" y="-719.5" font-family="Helvetica,sans-Serif" font-size="10.00">+ get_forcing_output</text>
<text text-anchor="start" x="87.5" y="-708.5" font-family="Helvetica,sans-Serif" font-size="10.00">_time_end()</text>
<text text-anchor="start" x="87.5" y="-697.5" font-family="Helvetica,sans-Serif" font-size="10.00">+ get_ts_index_for_time()</text>
<text text-anchor="start" x="87.5" y="-686.5" font-family="Helvetica,sans-Serif" font-size="10.00">+ get_value()</text>
<text text-anchor="start" x="87.5" y="-675.5" font-family="Helvetica,sans-Serif" font-size="10.00">+ is_property_sum_over</text>
<text text-anchor="start" x="87.5" y="-664.5" font-family="Helvetica,sans-Serif" font-size="10.00">_time_step()</text>
</a>
</g>
</g>
<!-- Node10&#45;&gt;Node9 -->
<g id="edge10" class="edge">
<title>Node10&#45;&gt;Node9</title>
<path fill="none" stroke="#404040" d="M139.36,-657.43C140.74,-647.32 143.01,-637.29 146.5,-628 147.51,-625.31 148.72,-622.66 150.09,-620.06"/>
<polygon fill="none" stroke="#404040" points="150.15,-619.96 149.88,-612.76 156.42,-609.74 156.69,-616.94 150.15,-619.96"/>
<text text-anchor="middle" x="156.5" y="-631" font-family="Helvetica,sans-Serif" font-size="10.00"> +ptr</text>
</g>
<!-- Node11&#45;&gt;Node9 -->
<g id="edge11" class="edge">
<title>Node11&#45;&gt;Node9</title>
<path fill="none" stroke="orange" d="M246.28,-704.08C232.75,-685.49 217.19,-661.93 206.5,-639 202.2,-629.79 198.7,-619.33 195.97,-609.64"/>
<polygon fill="orange" stroke="orange" points="243.57,-706.3 252.34,-712.26 249.2,-702.14 243.57,-706.3"/>
<text text-anchor="middle" x="267" y="-631" font-family="Helvetica,sans-Serif" font-size="10.00"> &lt; forcing::ForcingProvider &gt;</text>
</g>
<!-- Node12 -->
<g id="node12" class="node">
<title>Node12</title>
<g id="a_node12"><a xlink:title=" ">
<polygon fill="white" stroke="black" points="535,-712.5 535,-769.5 594,-769.5 594,-712.5 535,-712.5"/>
<text text-anchor="middle" x="564.5" y="-757.5" font-family="Helvetica,sans-Serif" font-size="10.00">std::string</text>
<polyline fill="none" stroke="black" points="535,-750.5 594,-750.5 "/>
<text text-anchor="middle" x="564.5" y="-738.5" font-family="Helvetica,sans-Serif" font-size="10.00"> </text>
<polyline fill="none" stroke="black" points="535,-731.5 594,-731.5 "/>
<text text-anchor="middle" x="564.5" y="-719.5" font-family="Helvetica,sans-Serif" font-size="10.00"> </text>
</a>
</g>
</g>
<!-- Node12&#45;&gt;Node2 -->
<g id="edge14" class="edge">
<title>Node12&#45;&gt;Node2</title>
<path fill="none" stroke="#404040" d="M594.31,-714.16C635.16,-675.51 699.6,-600.79 663.5,-541 635.36,-494.39 578.69,-468.29 532.2,-454.11"/>
<polygon fill="none" stroke="#404040" points="532.15,-454.09 525.28,-456.27 520.63,-450.75 527.5,-448.58 532.15,-454.09"/>
<text text-anchor="middle" x="723" y="-595" font-family="Helvetica,sans-Serif" font-size="10.00"> &#45;conjoint_catchment</text>
<text text-anchor="middle" x="723" y="-584" font-family="Helvetica,sans-Serif" font-size="10.00">&#45;containing_catchment</text>
<text text-anchor="middle" x="723" y="-573" font-family="Helvetica,sans-Serif" font-size="10.00">&#45;id</text>
<text text-anchor="middle" x="723" y="-562" font-family="Helvetica,sans-Serif" font-size="10.00">&#45;lower_catchment</text>
<text text-anchor="middle" x="723" y="-551" font-family="Helvetica,sans-Serif" font-size="10.00">&#45;upper_catchment</text>
</g>
<!-- Node14 -->
<g id="node14" class="node">
<title>Node14</title>
<g id="a_node14"><a xlink:title=" ">
<polygon fill="white" stroke="black" points="272.5,-547 272.5,-604 378.5,-604 378.5,-547 272.5,-547"/>
<text text-anchor="middle" x="325.5" y="-592" font-family="Helvetica,sans-Serif" font-size="10.00">std::vector&lt; Nexus &gt;</text>
<polyline fill="none" stroke="black" points="272.5,-585 378.5,-585 "/>
<text text-anchor="middle" x="325.5" y="-573" font-family="Helvetica,sans-Serif" font-size="10.00"> </text>
<polyline fill="none" stroke="black" points="272.5,-566 378.5,-566 "/>
<text text-anchor="middle" x="325.5" y="-554" font-family="Helvetica,sans-Serif" font-size="10.00"> </text>
</a>
</g>
</g>
<!-- Node12&#45;&gt;Node14 -->
<g id="edge17" class="edge">
<title>Node12&#45;&gt;Node14</title>
<path fill="none" stroke="#404040" d="M548.82,-712.44C532.6,-686.53 504.84,-648.73 470.5,-628 438.18,-608.49 422.9,-623.1 387.5,-610 386.47,-609.62 385.44,-609.22 384.4,-608.82"/>
<polygon fill="none" stroke="#404040" points="384.3,-608.77 377.21,-610.06 373.28,-604.01 380.38,-602.72 384.3,-608.77"/>
<text text-anchor="middle" x="509" y="-631" font-family="Helvetica,sans-Serif" font-size="10.00"> +elements</text>
</g>
<!-- Node16 -->
<g id="node16" class="node">
<title>Node16</title>
<g id="a_node16"><a xlink:title=" ">
<polygon fill="white" stroke="black" points="397,-547 397,-604 522,-604 522,-547 397,-547"/>
<text text-anchor="middle" x="459.5" y="-592" font-family="Helvetica,sans-Serif" font-size="10.00">std::vector&lt; Catchment &gt;</text>
<polyline fill="none" stroke="black" points="397,-585 522,-585 "/>
<text text-anchor="middle" x="459.5" y="-573" font-family="Helvetica,sans-Serif" font-size="10.00"> </text>
<polyline fill="none" stroke="black" points="397,-566 522,-566 "/>
<text text-anchor="middle" x="459.5" y="-554" font-family="Helvetica,sans-Serif" font-size="10.00"> </text>
</a>
</g>
</g>
<!-- Node12&#45;&gt;Node16 -->
<g id="edge21" class="edge">
<title>Node12&#45;&gt;Node16</title>
<path fill="none" stroke="#404040" d="M565.05,-712.31C564.23,-688.08 559.74,-652.94 542.5,-628 538.42,-622.1 533.43,-616.75 527.93,-611.92"/>
<polygon fill="none" stroke="#404040" points="527.69,-611.72 520.5,-611.14 518.28,-604.28 525.47,-604.87 527.69,-611.72"/>
<text text-anchor="middle" x="573" y="-631" font-family="Helvetica,sans-Serif" font-size="10.00"> +elements</text>
</g>
<!-- Node13 -->
<g id="node13" class="node">
<title>Node13</title>
<g id="a_node13"><a xlink:title=" ">
<polygon fill="white" stroke="black" points="518,-872.5 518,-940.5 611,-940.5 611,-872.5 518,-872.5"/>
<text text-anchor="start" x="526" y="-928.5" font-family="Helvetica,sans-Serif" font-size="10.00">std::basic_string&lt;</text>
<text text-anchor="middle" x="564.5" y="-917.5" font-family="Helvetica,sans-Serif" font-size="10.00"> Char &gt;</text>
<polyline fill="none" stroke="black" points="518,-910.5 611,-910.5 "/>
<text text-anchor="middle" x="564.5" y="-898.5" font-family="Helvetica,sans-Serif" font-size="10.00"> </text>
<polyline fill="none" stroke="black" points="518,-891.5 611,-891.5 "/>
<text text-anchor="middle" x="564.5" y="-879.5" font-family="Helvetica,sans-Serif" font-size="10.00"> </text>
</a>
</g>
</g>
<!-- Node13&#45;&gt;Node12 -->
<g id="edge15" class="edge">
<title>Node13&#45;&gt;Node12</title>
<path fill="none" stroke="midnightblue" d="M564.5,-862.03C564.5,-832.7 564.5,-794.88 564.5,-769.61"/>
<polygon fill="none" stroke="midnightblue" points="561,-862.41 564.5,-872.41 568,-862.41 561,-862.41"/>
</g>
<!-- Node14&#45;&gt;Node2 -->
<g id="edge16" class="edge">
<title>Node14&#45;&gt;Node2</title>
<path fill="none" stroke="#404040" d="M352.62,-546.98C368.4,-530.96 388.83,-510.23 407.59,-491.19"/>
<polygon fill="none" stroke="#404040" points="407.65,-491.13 409.01,-484.05 416.07,-482.58 414.71,-489.66 407.65,-491.13"/>
<text text-anchor="middle" x="417.5" y="-515" font-family="Helvetica,sans-Serif" font-size="10.00"> &#45;inflows</text>
<text text-anchor="middle" x="417.5" y="-504" font-family="Helvetica,sans-Serif" font-size="10.00">&#45;outflows</text>
</g>
<!-- Node15&#45;&gt;Node14 -->
<g id="edge18" class="edge">
<title>Node15&#45;&gt;Node14</title>
<path fill="none" stroke="orange" d="M362.87,-703.65C352.28,-684.99 340.49,-661.5 333.5,-639 330.03,-627.82 328.06,-615.07 326.94,-604.01"/>
<polygon fill="orange" stroke="orange" points="359.9,-705.5 367.94,-712.4 365.95,-701.99 359.9,-705.5"/>
<text text-anchor="middle" x="357" y="-631" font-family="Helvetica,sans-Serif" font-size="10.00"> &lt; Nexus &gt;</text>
</g>
<!-- Node15&#45;&gt;Node16 -->
<g id="edge22" class="edge">
<title>Node15&#45;&gt;Node16</title>
<path fill="none" stroke="orange" d="M385.47,-701.89C386.9,-679.24 391.34,-650.61 403.5,-628 408.19,-619.27 414.94,-611.24 422.14,-604.24"/>
<polygon fill="orange" stroke="orange" points="381.96,-702 384.99,-712.15 388.95,-702.32 381.96,-702"/>
<text text-anchor="middle" x="437" y="-631" font-family="Helvetica,sans-Serif" font-size="10.00"> &lt; Catchment &gt;</text>
</g>
<!-- Node16&#45;&gt;Node2 -->
<g id="edge20" class="edge">
<title>Node16&#45;&gt;Node2</title>
<path fill="none" stroke="#404040" d="M459.5,-546.98C459.5,-531.97 459.5,-512.82 459.5,-494.81"/>
<polygon fill="none" stroke="#404040" points="459.5,-494.58 455.5,-488.58 459.5,-482.58 463.5,-488.58 459.5,-494.58"/>
<text text-anchor="middle" x="511.5" y="-509.5" font-family="Helvetica,sans-Serif" font-size="10.00"> &#45;contained_catchments</text>
</g>
</g>
</svg>
