<?xml version="1.0" encoding="UTF-8" standalone="no"?>
<!DOCTYPE svg PUBLIC "-//W3C//DTD SVG 1.1//EN"
 "http://www.w3.org/Graphics/SVG/1.1/DTD/svg11.dtd">
<!-- Generated by graphviz version 3.0.0 (20220413.0242)
 -->
<!-- Title: geojson::FeatureCollection Pages: 1 -->
<svg width="1220pt" height="894pt"
 viewBox="0.00 0.00 1220.46 894.00" xmlns="http://www.w3.org/2000/svg" xmlns:xlink="http://www.w3.org/1999/xlink">
<g id="graph0" class="graph" transform="scale(1 1) rotate(0) translate(4 890)">
<title>geojson::FeatureCollection</title>
<polygon fill="white" stroke="transparent" points="-4,4 -4,-890 1216.46,-890 1216.46,4 -4,4"/>
<!-- Node1 -->
<g id="node1" class="node">
<title>Node1</title>
<g id="a_node1"><a xlink:title=" ">
<polygon fill="#bfbfbf" stroke="black" points="214.96,-0.5 214.96,-222.5 345.96,-222.5 345.96,-0.5 214.96,-0.5"/>
<text text-anchor="middle" x="280.46" y="-210.5" font-family="Helvetica,sans-Serif" font-size="10.00">geojson::FeatureCollection</text>
<polyline fill="none" stroke="black" points="214.96,-203.5 345.96,-203.5 "/>
<text text-anchor="middle" x="280.46" y="-191.5" font-family="Helvetica,sans-Serif" font-size="10.00"> </text>
<polyline fill="none" stroke="black" points="214.96,-184.5 345.96,-184.5 "/>
<text text-anchor="start" x="222.96" y="-172.5" font-family="Helvetica,sans-Serif" font-size="10.00">+ FeatureCollection()</text>
<text text-anchor="start" x="222.96" y="-161.5" font-family="Helvetica,sans-Serif" font-size="10.00">+ FeatureCollection()</text>
<text text-anchor="start" x="222.96" y="-150.5" font-family="Helvetica,sans-Serif" font-size="10.00">+ FeatureCollection()</text>
<text text-anchor="start" x="222.96" y="-139.5" font-family="Helvetica,sans-Serif" font-size="10.00">+ FeatureCollection()</text>
<text text-anchor="start" x="222.96" y="-128.5" font-family="Helvetica,sans-Serif" font-size="10.00">+ ~FeatureCollection()</text>
<text text-anchor="start" x="222.96" y="-117.5" font-family="Helvetica,sans-Serif" font-size="10.00">+ get_size()</text>
<text text-anchor="start" x="222.96" y="-106.5" font-family="Helvetica,sans-Serif" font-size="10.00">+ is_empty()</text>
<text text-anchor="start" x="222.96" y="-95.5" font-family="Helvetica,sans-Serif" font-size="10.00">+ get_bounding_box()</text>
<text text-anchor="start" x="222.96" y="-84.5" font-family="Helvetica,sans-Serif" font-size="10.00">+ get_feature()</text>
<text text-anchor="start" x="222.96" y="-73.5" font-family="Helvetica,sans-Serif" font-size="10.00">+ find()</text>
<text text-anchor="start" x="222.96" y="-62.5" font-family="Helvetica,sans-Serif" font-size="10.00">+ find()</text>
<text text-anchor="start" x="222.96" y="-51.5" font-family="Helvetica,sans-Serif" font-size="10.00">+ remove_feature()</text>
<text text-anchor="start" x="222.96" y="-40.5" font-family="Helvetica,sans-Serif" font-size="10.00">+ remove_feature_by_id()</text>
<text text-anchor="start" x="222.96" y="-29.5" font-family="Helvetica,sans-Serif" font-size="10.00">+ get_feature()</text>
<text text-anchor="start" x="222.96" y="-18.5" font-family="Helvetica,sans-Serif" font-size="10.00">+ begin()</text>
<text text-anchor="start" x="222.96" y="-7.5" font-family="Helvetica,sans-Serif" font-size="10.00">and 18 more...</text>
</a>
</g>
</g>
<!-- Node2 -->
<g id="node2" class="node">
<title>Node2</title>
<g id="a_node2"><a xlink:title=" ">
<polygon fill="white" stroke="black" points="44.96,-276 44.96,-333 155.96,-333 155.96,-276 44.96,-276"/>
<text text-anchor="middle" x="100.46" y="-321" font-family="Helvetica,sans-Serif" font-size="10.00">std::vector&lt; Feature &gt;</text>
<polyline fill="none" stroke="black" points="44.96,-314 155.96,-314 "/>
<text text-anchor="middle" x="100.46" y="-302" font-family="Helvetica,sans-Serif" font-size="10.00"> </text>
<polyline fill="none" stroke="black" points="44.96,-295 155.96,-295 "/>
<text text-anchor="middle" x="100.46" y="-283" font-family="Helvetica,sans-Serif" font-size="10.00"> </text>
</a>
</g>
</g>
<!-- Node2&#45;&gt;Node1 -->
<g id="edge1" class="edge">
<title>Node2&#45;&gt;Node1</title>
<path fill="none" stroke="#404040" d="M126.63,-275.73C147.57,-253.5 178.02,-221.2 206.31,-191.18"/>
<polygon fill="none" stroke="#404040" points="206.38,-191.1 207.58,-184 214.61,-182.37 213.4,-189.48 206.38,-191.1"/>
<text text-anchor="middle" x="179.96" y="-244" font-family="Helvetica,sans-Serif" font-size="10.00"> &#45;features</text>
</g>
<!-- Node3 -->
<g id="node3" class="node">
<title>Node3</title>
<g id="a_node3"><a xlink:title=" ">
<polygon fill="white" stroke="black" points="28.96,-502 28.96,-559 131.96,-559 131.96,-502 28.96,-502"/>
<text text-anchor="middle" x="80.46" y="-547" font-family="Helvetica,sans-Serif" font-size="10.00">std::shared_ptr&lt; T &gt;</text>
<polyline fill="none" stroke="black" points="28.96,-540 131.96,-540 "/>
<text text-anchor="middle" x="80.46" y="-528" font-family="Helvetica,sans-Serif" font-size="10.00"> </text>
<polyline fill="none" stroke="black" points="28.96,-521 131.96,-521 "/>
<text text-anchor="start" x="36.96" y="-509" font-family="Helvetica,sans-Serif" font-size="10.00">+ operator&#45;&gt;()</text>
</a>
</g>
</g>
<!-- Node3&#45;&gt;Node2 -->
<g id="edge2" class="edge">
<title>Node3&#45;&gt;Node2</title>
<path fill="none" stroke="#404040" d="M53.74,-501.82C23.34,-466.8 -18.68,-405.26 9.46,-357 15.49,-346.65 24.46,-338.21 34.46,-331.39"/>
<polygon fill="none" stroke="#404040" points="34.49,-331.37 37.51,-324.82 44.72,-325.1 41.7,-331.64 34.49,-331.37"/>
<text text-anchor="middle" x="33.96" y="-365.5" font-family="Helvetica,sans-Serif" font-size="10.00"> +elements</text>
</g>
<!-- Node7 -->
<g id="node7" class="node">
<title>Node7</title>
<g id="a_node7"><a xlink:title=" ">
<polygon fill="white" stroke="black" points="298.96,-270.5 298.96,-338.5 405.96,-338.5 405.96,-270.5 298.96,-270.5"/>
<text text-anchor="start" x="306.96" y="-326.5" font-family="Helvetica,sans-Serif" font-size="10.00">std::map&lt; std::string,</text>
<text text-anchor="middle" x="352.46" y="-315.5" font-family="Helvetica,sans-Serif" font-size="10.00"> Feature &gt;</text>
<polyline fill="none" stroke="black" points="298.96,-308.5 405.96,-308.5 "/>
<text text-anchor="middle" x="352.46" y="-296.5" font-family="Helvetica,sans-Serif" font-size="10.00"> </text>
<polyline fill="none" stroke="black" points="298.96,-289.5 405.96,-289.5 "/>
<text text-anchor="middle" x="352.46" y="-277.5" font-family="Helvetica,sans-Serif" font-size="10.00"> </text>
</a>
</g>
</g>
<!-- Node3&#45;&gt;Node7 -->
<g id="edge11" class="edge">
<title>Node3&#45;&gt;Node7</title>
<path fill="none" stroke="#404040" d="M69.64,-501.83C56.84,-463.94 41.49,-396.15 77.46,-357 107.32,-324.49 226.67,-348.65 286.86,-338.54"/>
<polygon fill="none" stroke="#404040" points="287.06,-338.49 292.02,-333.26 298.76,-335.83 293.79,-341.06 287.06,-338.49"/>
<text text-anchor="middle" x="101.96" y="-365.5" font-family="Helvetica,sans-Serif" font-size="10.00"> +elements</text>
</g>
<!-- Node4 -->
<g id="node4" class="node">
<title>Node4</title>
<g id="a_node4"><a xlink:title=" ">
<polygon fill="white" stroke="black" points="193.96,-722.5 193.96,-779.5 222.96,-779.5 222.96,-722.5 193.96,-722.5"/>
<text text-anchor="middle" x="208.46" y="-767.5" font-family="Helvetica,sans-Serif" font-size="10.00">T</text>
<polyline fill="none" stroke="black" points="193.96,-760.5 222.96,-760.5 "/>
<text text-anchor="middle" x="208.46" y="-748.5" font-family="Helvetica,sans-Serif" font-size="10.00"> </text>
<polyline fill="none" stroke="black" points="193.96,-741.5 222.96,-741.5 "/>
<text text-anchor="middle" x="208.46" y="-729.5" font-family="Helvetica,sans-Serif" font-size="10.00"> </text>
</a>
</g>
</g>
<!-- Node4&#45;&gt;Node3 -->
<g id="edge3" class="edge">
<title>Node4&#45;&gt;Node3</title>
<path fill="none" stroke="#404040" d="M193.77,-724.94C171.45,-686.83 128.81,-614.04 102.68,-569.43"/>
<polygon fill="none" stroke="#404040" points="102.64,-569.36 96.15,-566.21 96.57,-559.01 103.05,-562.16 102.64,-569.36"/>
<text text-anchor="middle" x="191.46" y="-690.5" font-family="Helvetica,sans-Serif" font-size="10.00"> +ptr</text>
</g>
<!-- Node5 -->
<g id="node5" class="node">
<title>Node5</title>
<g id="a_node5"><a xlink:title=" ">
<polygon fill="white" stroke="black" points="167.46,-502 167.46,-559 251.46,-559 251.46,-502 167.46,-502"/>
<text text-anchor="middle" x="209.46" y="-547" font-family="Helvetica,sans-Serif" font-size="10.00">std::vector&lt; T &gt;</text>
<polyline fill="none" stroke="black" points="167.46,-540 251.46,-540 "/>
<text text-anchor="middle" x="209.46" y="-528" font-family="Helvetica,sans-Serif" font-size="10.00"> </text>
<polyline fill="none" stroke="black" points="167.46,-521 251.46,-521 "/>
<text text-anchor="middle" x="209.46" y="-509" font-family="Helvetica,sans-Serif" font-size="10.00"> </text>
</a>
</g>
</g>
<!-- Node4&#45;&gt;Node5 -->
<g id="edge5" class="edge">
<title>Node4&#45;&gt;Node5</title>
<path fill="none" stroke="#404040" d="M208.58,-722.33C208.76,-684.18 209.07,-615.2 209.27,-571.45"/>
<polygon fill="none" stroke="#404040" points="209.27,-571.29 205.3,-565.27 209.33,-559.29 213.3,-565.31 209.27,-571.29"/>
<text text-anchor="middle" x="233.96" y="-690.5" font-family="Helvetica,sans-Serif" font-size="10.00"> +elements</text>
</g>
<!-- Node10 -->
<g id="node10" class="node">
<title>Node10</title>
<g id="a_node10"><a xlink:title=" ">
<polygon fill="white" stroke="black" points="289.46,-502 289.46,-559 377.46,-559 377.46,-502 289.46,-502"/>
<text text-anchor="middle" x="333.46" y="-547" font-family="Helvetica,sans-Serif" font-size="10.00">std::map&lt; K, T &gt;</text>
<polyline fill="none" stroke="black" points="289.46,-540 377.46,-540 "/>
<text text-anchor="middle" x="333.46" y="-528" font-family="Helvetica,sans-Serif" font-size="10.00"> </text>
<polyline fill="none" stroke="black" points="289.46,-521 377.46,-521 "/>
<text text-anchor="middle" x="333.46" y="-509" font-family="Helvetica,sans-Serif" font-size="10.00"> </text>
</a>
</g>
</g>
<!-- Node4&#45;&gt;Node10 -->
<g id="edge14" class="edge">
<title>Node4&#45;&gt;Node10</title>
<path fill="none" stroke="#404040" d="M223.14,-739.24C234.02,-730.66 248.61,-717.84 258.46,-704 288.06,-662.41 309.48,-607.29 321.66,-570.67"/>
<polygon fill="none" stroke="#404040" points="321.74,-570.42 319.79,-563.48 325.44,-559.01 327.4,-565.95 321.74,-570.42"/>
<text text-anchor="middle" x="296.96" y="-690.5" font-family="Helvetica,sans-Serif" font-size="10.00"> +elements</text>
</g>
<!-- Node5&#45;&gt;Node2 -->
<g id="edge4" class="edge">
<title>Node5&#45;&gt;Node2</title>
<path fill="none" stroke="orange" d="M193.76,-492.5C178.51,-457.22 154.23,-402.84 130.46,-357 126.36,-349.1 121.63,-340.7 117.15,-333.02"/>
<polygon fill="orange" stroke="orange" points="190.65,-494.11 197.82,-501.92 197.08,-491.35 190.65,-494.11"/>
<text text-anchor="middle" x="166.46" y="-365.5" font-family="Helvetica,sans-Serif" font-size="10.00"> &lt; Feature &gt;</text>
</g>
<!-- Node6 -->
<g id="node6" class="node">
<title>Node6</title>
<g id="a_node6"><a xlink:title=" ">
<polygon fill="white" stroke="black" points="173.96,-276 173.96,-333 280.96,-333 280.96,-276 173.96,-276"/>
<text text-anchor="middle" x="227.46" y="-321" font-family="Helvetica,sans-Serif" font-size="10.00">std::vector&lt; double &gt;</text>
<polyline fill="none" stroke="black" points="173.96,-314 280.96,-314 "/>
<text text-anchor="start" x="181.96" y="-302" font-family="Helvetica,sans-Serif" font-size="10.00">+ elements</text>
<polyline fill="none" stroke="black" points="173.96,-295 280.96,-295 "/>
<text text-anchor="middle" x="227.46" y="-283" font-family="Helvetica,sans-Serif" font-size="10.00"> </text>
</a>
</g>
</g>
<!-- Node5&#45;&gt;Node6 -->
<g id="edge7" class="edge">
<title>Node5&#45;&gt;Node6</title>
<path fill="none" stroke="orange" d="M212.52,-491.36C216.13,-446.41 222.05,-372.82 225.24,-333.06"/>
<polygon fill="orange" stroke="orange" points="209.01,-491.33 211.7,-501.58 215.99,-491.9 209.01,-491.33"/>
<text text-anchor="middle" x="247.46" y="-365.5" font-family="Helvetica,sans-Serif" font-size="10.00"> &lt; double &gt;</text>
</g>
<!-- Node15 -->
<g id="node15" class="node">
<title>Node15</title>
<g id="a_node15"><a xlink:title=" ">
<polygon fill="white" stroke="black" points="903.46,-270.5 903.46,-338.5 1007.46,-338.5 1007.46,-270.5 903.46,-270.5"/>
<text text-anchor="start" x="911.46" y="-326.5" font-family="Helvetica,sans-Serif" font-size="10.00">std::vector&lt; geojson</text>
<text text-anchor="middle" x="955.46" y="-315.5" font-family="Helvetica,sans-Serif" font-size="10.00">::JSONProperty &gt;</text>
<polyline fill="none" stroke="black" points="903.46,-308.5 1007.46,-308.5 "/>
<text text-anchor="middle" x="955.46" y="-296.5" font-family="Helvetica,sans-Serif" font-size="10.00"> </text>
<polyline fill="none" stroke="black" points="903.46,-289.5 1007.46,-289.5 "/>
<text text-anchor="middle" x="955.46" y="-277.5" font-family="Helvetica,sans-Serif" font-size="10.00"> </text>
</a>
</g>
</g>
<!-- Node5&#45;&gt;Node15 -->
<g id="edge25" class="edge">
<title>Node5&#45;&gt;Node15</title>
<path fill="none" stroke="orange" d="M218.68,-492.09C228.48,-461.01 247.25,-418.51 280.46,-397 327.95,-366.24 479.58,-392.8 534.46,-379 557.61,-373.18 560.51,-363.59 583.46,-357 598.65,-352.63 804.45,-325.31 903.24,-312.33"/>
<polygon fill="orange" stroke="orange" points="215.31,-491.16 215.81,-501.74 222.02,-493.16 215.31,-491.16"/>
<text text-anchor="middle" x="643.96" y="-365.5" font-family="Helvetica,sans-Serif" font-size="10.00"> &lt; geojson::JSONProperty &gt;</text>
</g>
<!-- Node6&#45;&gt;Node1 -->
<g id="edge6" class="edge">
<title>Node6&#45;&gt;Node1</title>
<path fill="none" stroke="#404040" d="M235.16,-275.73C238.37,-264.18 242.32,-249.92 246.55,-234.67"/>
<polygon fill="none" stroke="#404040" points="246.63,-234.41 244.38,-227.56 249.84,-222.85 252.09,-229.7 246.63,-234.41"/>
<text text-anchor="middle" x="277.96" y="-244" font-family="Helvetica,sans-Serif" font-size="10.00"> &#45;bounding_box</text>
</g>
<!-- Node7&#45;&gt;Node1 -->
<g id="edge8" class="edge">
<title>Node7&#45;&gt;Node1</title>
<path fill="none" stroke="#404040" d="M339.92,-270.23C335.96,-259.73 331.33,-247.46 326.44,-234.47"/>
<polygon fill="none" stroke="#404040" points="326.31,-234.13 320.45,-229.93 322.08,-222.91 327.93,-227.11 326.31,-234.13"/>
<text text-anchor="middle" x="363.46" y="-244" font-family="Helvetica,sans-Serif" font-size="10.00"> &#45;feature_by_id</text>
</g>
<!-- Node8 -->
<g id="node8" class="node">
<title>Node8</title>
<g id="a_node8"><a xlink:title=" ">
<polygon fill="white" stroke="black" points="740.96,-722.5 740.96,-779.5 799.96,-779.5 799.96,-722.5 740.96,-722.5"/>
<text text-anchor="middle" x="770.46" y="-767.5" font-family="Helvetica,sans-Serif" font-size="10.00">std::string</text>
<polyline fill="none" stroke="black" points="740.96,-760.5 799.96,-760.5 "/>
<text text-anchor="middle" x="770.46" y="-748.5" font-family="Helvetica,sans-Serif" font-size="10.00"> </text>
<polyline fill="none" stroke="black" points="740.96,-741.5 799.96,-741.5 "/>
<text text-anchor="middle" x="770.46" y="-729.5" font-family="Helvetica,sans-Serif" font-size="10.00"> </text>
</a>
</g>
</g>
<!-- Node8&#45;&gt;Node7 -->
<g id="edge9" class="edge">
<title>Node8&#45;&gt;Node7</title>
<path fill="none" stroke="#404040" d="M740.88,-725.7C720.98,-708.95 694.46,-685.86 672.46,-664 542.92,-535.31 521.67,-492.66 399.46,-357 396.7,-353.94 393.84,-350.78 390.97,-347.61"/>
<polygon fill="none" stroke="#404040" points="390.93,-347.57 383.93,-345.82 382.86,-338.69 389.85,-340.44 390.93,-347.57"/>
<text text-anchor="middle" x="686.96" y="-528" font-family="Helvetica,sans-Serif" font-size="10.00"> +keys</text>
</g>
<!-- Node12 -->
<g id="node12" class="node">
<title>Node12</title>
<g id="a_node12"><a xlink:title=" ">
<polygon fill="white" stroke="black" points="564.46,-270.5 564.46,-338.5 692.46,-338.5 692.46,-270.5 564.46,-270.5"/>
<text text-anchor="start" x="572.46" y="-326.5" font-family="Helvetica,sans-Serif" font-size="10.00">std::map&lt; std::string,</text>
<text text-anchor="middle" x="628.46" y="-315.5" font-family="Helvetica,sans-Serif" font-size="10.00"> geojson::JSONProperty &gt;</text>
<polyline fill="none" stroke="black" points="564.46,-308.5 692.46,-308.5 "/>
<text text-anchor="middle" x="628.46" y="-296.5" font-family="Helvetica,sans-Serif" font-size="10.00"> </text>
<polyline fill="none" stroke="black" points="564.46,-289.5 692.46,-289.5 "/>
<text text-anchor="middle" x="628.46" y="-277.5" font-family="Helvetica,sans-Serif" font-size="10.00"> </text>
</a>
</g>
</g>
<!-- Node8&#45;&gt;Node12 -->
<g id="edge16" class="edge">
<title>Node8&#45;&gt;Node12</title>
<path fill="none" stroke="#404040" d="M769.85,-722.29C767.25,-655.15 753.7,-480.24 683.46,-357 681.73,-353.96 679.76,-351 677.62,-348.13"/>
<polygon fill="none" stroke="#404040" points="677.48,-347.96 670.56,-345.9 669.8,-338.73 676.71,-340.79 677.48,-347.96"/>
<text text-anchor="middle" x="779.96" y="-528" font-family="Helvetica,sans-Serif" font-size="10.00"> +keys</text>
</g>
<!-- Node13 -->
<g id="node13" class="node">
<title>Node13</title>
<g id="a_node13"><a xlink:href="classgeojson_1_1_j_s_o_n_property.html" target="_top" xlink:title="@TODO: Convert JSONProperty into a variant of the supported types">
<polygon fill="white" stroke="black" points="932.46,-397.5 932.46,-663.5 1050.46,-663.5 1050.46,-397.5 932.46,-397.5"/>
<text text-anchor="middle" x="991.46" y="-651.5" font-family="Helvetica,sans-Serif" font-size="10.00">geojson::JSONProperty</text>
<polyline fill="none" stroke="black" points="932.46,-644.5 1050.46,-644.5 "/>
<text text-anchor="start" x="940.46" y="-632.5" font-family="Helvetica,sans-Serif" font-size="10.00">&#45; type</text>
<text text-anchor="start" x="940.46" y="-621.5" font-family="Helvetica,sans-Serif" font-size="10.00">&#45; natural_number</text>
<text text-anchor="start" x="940.46" y="-610.5" font-family="Helvetica,sans-Serif" font-size="10.00">&#45; real_number</text>
<text text-anchor="start" x="940.46" y="-599.5" font-family="Helvetica,sans-Serif" font-size="10.00">&#45; boolean</text>
<text text-anchor="start" x="940.46" y="-588.5" font-family="Helvetica,sans-Serif" font-size="10.00">&#45; data</text>
<polyline fill="none" stroke="black" points="932.46,-581.5 1050.46,-581.5 "/>
<text text-anchor="start" x="940.46" y="-569.5" font-family="Helvetica,sans-Serif" font-size="10.00">+ JSONProperty()</text>
<text text-anchor="start" x="940.46" y="-558.5" font-family="Helvetica,sans-Serif" font-size="10.00">+ JSONProperty()</text>
<text text-anchor="start" x="940.46" y="-547.5" font-family="Helvetica,sans-Serif" font-size="10.00">+ JSONProperty()</text>
<text text-anchor="start" x="940.46" y="-536.5" font-family="Helvetica,sans-Serif" font-size="10.00">+ JSONProperty()</text>
<text text-anchor="start" x="940.46" y="-525.5" font-family="Helvetica,sans-Serif" font-size="10.00">+ JSONProperty()</text>
<text text-anchor="start" x="940.46" y="-514.5" font-family="Helvetica,sans-Serif" font-size="10.00">+ JSONProperty()</text>
<text text-anchor="start" x="940.46" y="-503.5" font-family="Helvetica,sans-Serif" font-size="10.00">+ JSONProperty()</text>
<text text-anchor="start" x="940.46" y="-492.5" font-family="Helvetica,sans-Serif" font-size="10.00">+ JSONProperty()</text>
<text text-anchor="start" x="940.46" y="-481.5" font-family="Helvetica,sans-Serif" font-size="10.00">+ JSONProperty()</text>
<text text-anchor="start" x="940.46" y="-470.5" font-family="Helvetica,sans-Serif" font-size="10.00">+ JSONProperty()</text>
<text text-anchor="start" x="940.46" y="-459.5" font-family="Helvetica,sans-Serif" font-size="10.00">+ ~JSONProperty()</text>
<text text-anchor="start" x="940.46" y="-448.5" font-family="Helvetica,sans-Serif" font-size="10.00">+ JSONProperty()</text>
<text text-anchor="start" x="940.46" y="-437.5" font-family="Helvetica,sans-Serif" font-size="10.00">+ JSONProperty()</text>
<text text-anchor="start" x="940.46" y="-426.5" font-family="Helvetica,sans-Serif" font-size="10.00">+ get_type()</text>
<text text-anchor="start" x="940.46" y="-415.5" font-family="Helvetica,sans-Serif" font-size="10.00">+ as_natural_number()</text>
<text text-anchor="start" x="940.46" y="-404.5" font-family="Helvetica,sans-Serif" font-size="10.00">and 16 more...</text>
</a>
</g>
</g>
<!-- Node8&#45;&gt;Node13 -->
<g id="edge18" class="edge">
<title>Node8&#45;&gt;Node13</title>
<path fill="none" stroke="#404040" d="M798.45,-722.33C829.74,-691.39 881.55,-640.16 923.61,-598.57"/>
<polygon fill="none" stroke="#404040" points="923.63,-598.56 925.08,-591.5 932.16,-590.13 930.71,-597.19 923.63,-598.56"/>
<text text-anchor="middle" x="849.46" y="-696" font-family="Helvetica,sans-Serif" font-size="10.00"> &#45;key</text>
<text text-anchor="middle" x="849.46" y="-685" font-family="Helvetica,sans-Serif" font-size="10.00">&#45;string</text>
</g>
<!-- Node14 -->
<g id="node14" class="node">
<title>Node14</title>
<g id="a_node14"><a xlink:title=" ">
<polygon fill="white" stroke="black" points="1079.96,-270.5 1079.96,-338.5 1186.96,-338.5 1186.96,-270.5 1079.96,-270.5"/>
<text text-anchor="start" x="1087.96" y="-326.5" font-family="Helvetica,sans-Serif" font-size="10.00">std::map&lt; std::string,</text>
<text text-anchor="middle" x="1133.46" y="-315.5" font-family="Helvetica,sans-Serif" font-size="10.00"> JSONProperty &gt;</text>
<polyline fill="none" stroke="black" points="1079.96,-308.5 1186.96,-308.5 "/>
<text text-anchor="middle" x="1133.46" y="-296.5" font-family="Helvetica,sans-Serif" font-size="10.00"> </text>
<polyline fill="none" stroke="black" points="1079.96,-289.5 1186.96,-289.5 "/>
<text text-anchor="middle" x="1133.46" y="-277.5" font-family="Helvetica,sans-Serif" font-size="10.00"> </text>
</a>
</g>
</g>
<!-- Node8&#45;&gt;Node14 -->
<g id="edge20" class="edge">
<title>Node8&#45;&gt;Node14</title>
<path fill="none" stroke="#404040" d="M800.08,-749.03C857.08,-745.65 983.14,-730.6 1059.46,-664 1164.22,-572.58 1159.13,-514.91 1188.46,-379 1190.52,-369.44 1192.35,-365.97 1188.46,-357 1187.16,-354.01 1185.59,-351.11 1183.82,-348.32"/>
<polygon fill="none" stroke="#404040" points="1183.81,-348.3 1177.02,-345.88 1176.64,-338.68 1183.43,-341.1 1183.81,-348.3"/>
<text text-anchor="middle" x="1197.96" y="-528" font-family="Helvetica,sans-Serif" font-size="10.00"> +keys</text>
</g>
<!-- Node9 -->
<g id="node9" class="node">
<title>Node9</title>
<g id="a_node9"><a xlink:title=" ">
<polygon fill="white" stroke="black" points="723.96,-817.5 723.96,-885.5 816.96,-885.5 816.96,-817.5 723.96,-817.5"/>
<text text-anchor="start" x="731.96" y="-873.5" font-family="Helvetica,sans-Serif" font-size="10.00">std::basic_string&lt;</text>
<text text-anchor="middle" x="770.46" y="-862.5" font-family="Helvetica,sans-Serif" font-size="10.00"> Char &gt;</text>
<polyline fill="none" stroke="black" points="723.96,-855.5 816.96,-855.5 "/>
<text text-anchor="middle" x="770.46" y="-843.5" font-family="Helvetica,sans-Serif" font-size="10.00"> </text>
<polyline fill="none" stroke="black" points="723.96,-836.5 816.96,-836.5 "/>
<text text-anchor="middle" x="770.46" y="-824.5" font-family="Helvetica,sans-Serif" font-size="10.00"> </text>
</a>
</g>
</g>
<!-- Node9&#45;&gt;Node8 -->
<g id="edge10" class="edge">
<title>Node9&#45;&gt;Node8</title>
<path fill="none" stroke="midnightblue" d="M770.46,-807.38C770.46,-797.94 770.46,-788.2 770.46,-779.57"/>
<polygon fill="none" stroke="midnightblue" points="766.96,-807.43 770.46,-817.43 773.96,-807.43 766.96,-807.43"/>
</g>
<!-- Node10&#45;&gt;Node7 -->
<g id="edge12" class="edge">
<title>Node10&#45;&gt;Node7</title>
<path fill="none" stroke="orange" d="M314.18,-492.78C298.11,-456.97 280.64,-401.52 299.46,-357 302.25,-350.38 306.36,-344.2 311.08,-338.57"/>
<polygon fill="orange" stroke="orange" points="311.03,-494.31 318.42,-501.9 317.37,-491.35 311.03,-494.31"/>
<text text-anchor="middle" x="349.46" y="-365.5" font-family="Helvetica,sans-Serif" font-size="10.00"> &lt; std::string, Feature &gt;</text>
</g>
<!-- Node10&#45;&gt;Node12 -->
<g id="edge26" class="edge">
<title>Node10&#45;&gt;Node12</title>
<path fill="none" stroke="orange" d="M343.91,-491.9C353.11,-463.64 368.63,-425.14 391.46,-397 433.83,-344.77 509.82,-322.29 564.34,-312.66"/>
<polygon fill="orange" stroke="orange" points="340.46,-491.21 340.81,-501.8 347.14,-493.31 340.46,-491.21"/>
<text text-anchor="start" x="438.46" y="-371" font-family="Helvetica,sans-Serif" font-size="10.00"> &lt; std::string, geojson</text>
<text text-anchor="middle" x="484.46" y="-360" font-family="Helvetica,sans-Serif" font-size="10.00">::JSONProperty &gt;</text>
</g>
<!-- Node10&#45;&gt;Node14 -->
<g id="edge22" class="edge">
<title>Node10&#45;&gt;Node14</title>
<path fill="none" stroke="orange" d="M338.96,-491.72C345.66,-460.68 360.22,-418.47 391.46,-397 427.11,-372.49 739.01,-391.43 780.46,-379 798.78,-373.5 799.26,-362.9 817.46,-357 901.94,-329.63 929.16,-355.29 1016.46,-339 1037.43,-335.08 1060.07,-329.04 1079.79,-323.16"/>
<polygon fill="orange" stroke="orange" points="335.48,-491.28 336.98,-501.77 342.35,-492.63 335.48,-491.28"/>
<text text-anchor="middle" x="882.46" y="-365.5" font-family="Helvetica,sans-Serif" font-size="10.00"> &lt; std::string, JSONProperty &gt;</text>
</g>
<!-- Node11 -->
<g id="node11" class="node">
<title>Node11</title>
<g id="a_node11"><a xlink:title=" ">
<polygon fill="white" stroke="black" points="337.96,-722.5 337.96,-779.5 366.96,-779.5 366.96,-722.5 337.96,-722.5"/>
<text text-anchor="middle" x="352.46" y="-767.5" font-family="Helvetica,sans-Serif" font-size="10.00">K</text>
<polyline fill="none" stroke="black" points="337.96,-760.5 366.96,-760.5 "/>
<text text-anchor="middle" x="352.46" y="-748.5" font-family="Helvetica,sans-Serif" font-size="10.00"> </text>
<polyline fill="none" stroke="black" points="337.96,-741.5 366.96,-741.5 "/>
<text text-anchor="middle" x="352.46" y="-729.5" font-family="Helvetica,sans-Serif" font-size="10.00"> </text>
</a>
</g>
</g>
<!-- Node11&#45;&gt;Node10 -->
<g id="edge13" class="edge">
<title>Node11&#45;&gt;Node10</title>
<path fill="none" stroke="#404040" d="M350.05,-722.33C346.73,-684.18 340.73,-615.2 336.93,-571.45"/>
<polygon fill="none" stroke="#404040" points="336.91,-571.25 332.41,-565.62 335.87,-559.29 340.38,-564.92 336.91,-571.25"/>
<text text-anchor="middle" x="362.96" y="-690.5" font-family="Helvetica,sans-Serif" font-size="10.00"> +keys</text>
</g>
<!-- Node12&#45;&gt;Node1 -->
<g id="edge15" class="edge">
<title>Node12&#45;&gt;Node1</title>
<path fill="none" stroke="#404040" d="M568.24,-270.45C509.67,-238.3 420.46,-189.34 356.91,-154.46"/>
<polygon fill="none" stroke="#404040" points="356.67,-154.33 349.49,-154.95 346.15,-148.56 353.33,-147.94 356.67,-154.33"/>
<text text-anchor="middle" x="566.96" y="-244" font-family="Helvetica,sans-Serif" font-size="10.00"> &#45;foreign_members</text>
</g>
<!-- Node13&#45;&gt;Node12 -->
<g id="edge17" class="edge">
<title>Node13&#45;&gt;Node12</title>
<path fill="none" stroke="#404040" d="M932.43,-500.5C878.05,-472.61 796.21,-427.61 731.46,-379 720.14,-370.51 719.57,-365.76 708.46,-357 703.63,-353.2 698.53,-349.42 693.32,-345.73"/>
<polygon fill="none" stroke="#404040" points="693.1,-345.58 685.89,-345.46 683.22,-338.76 690.43,-338.88 693.1,-345.58"/>
<text text-anchor="middle" x="755.96" y="-365.5" font-family="Helvetica,sans-Serif" font-size="10.00"> +elements</text>
</g>
<!-- Node13&#45;&gt;Node14 -->
<g id="edge21" class="edge">
<title>Node13&#45;&gt;Node14</title>
<path fill="none" stroke="#404040" d="M1050.63,-426.18C1064.54,-403.11 1079.64,-378.98 1094.46,-357 1096.37,-354.17 1098.37,-351.28 1100.43,-348.39"/>
<polygon fill="none" stroke="#404040" points="1100.47,-348.34 1100.76,-341.13 1107.53,-338.63 1107.23,-345.84 1100.47,-348.34"/>
<text text-anchor="middle" x="1118.96" y="-365.5" font-family="Helvetica,sans-Serif" font-size="10.00"> +elements</text>
</g>
<!-- Node13&#45;&gt;Node15 -->
<g id="edge24" class="edge">
<title>Node13&#45;&gt;Node15</title>
<path fill="none" stroke="#404040" d="M955.22,-397.32C954.16,-391.15 953.22,-385.02 952.46,-379 951.22,-369.3 952.17,-366.77 952.46,-357 952.52,-354.97 952.59,-352.89 952.67,-350.8"/>
<polygon fill="none" stroke="#404040" points="952.67,-350.72 948.96,-344.54 953.24,-338.73 956.95,-344.91 952.67,-350.72"/>
<text text-anchor="middle" x="976.96" y="-365.5" font-family="Helvetica,sans-Serif" font-size="10.00"> +elements</text>
</g>
<!-- Node14&#45;&gt;Node13 -->
<g id="edge19" class="edge">
<title>Node14&#45;&gt;Node13</title>
<path fill="none" stroke="#404040" d="M1147.79,-338.58C1151.36,-351.55 1152.84,-366.33 1147.46,-379 1129.51,-421.24 1093.26,-457.4 1060.21,-483.67"/>
<polygon fill="none" stroke="#404040" points="1060.03,-483.81 1057.74,-490.65 1050.54,-491.16 1052.84,-484.32 1060.03,-483.81"/>
<text text-anchor="middle" x="1167.46" y="-365.5" font-family="Helvetica,sans-Serif" font-size="10.00"> &#45;values</text>
</g>
<!-- Node15&#45;&gt;Node13 -->
<g id="edge23" class="edge">
<title>Node15&#45;&gt;Node13</title>
<path fill="none" stroke="#404040" d="M994.28,-338.55C998.83,-344.21 1002.79,-350.42 1005.46,-357 1009.11,-366.01 1011.62,-375.49 1013.21,-385.19"/>
<polygon fill="none" stroke="#404040" points="1013.21,-385.2 1017.93,-390.65 1014.71,-397.11 1009.99,-391.65 1013.21,-385.2"/>
<text text-anchor="middle" x="1033.96" y="-365.5" font-family="Helvetica,sans-Serif" font-size="10.00"> &#45;value_list</text>
</g>
</g>
</svg>
