<?xml version="1.0" encoding="UTF-8" standalone="no"?>
<!DOCTYPE svg PUBLIC "-//W3C//DTD SVG 1.1//EN"
 "http://www.w3.org/Graphics/SVG/1.1/DTD/svg11.dtd">
<!-- Generated by graphviz version 7.0.5 (20221223.1930)
 -->
<!-- Title: realization::Et_Accountable Pages: 1 -->
<!--zoomable 533 -->
<svg id="main" version="1.1" xmlns="http://www.w3.org/2000/svg" xmlns:xlink="http://www.w3.org/1999/xlink" xml:space="preserve" onload="init(evt)">
<style type="text/css"><![CDATA[
.edge:hover path { stroke: red; }
.edge:hover polygon { stroke: red; fill: red; }
]]></style>
<script type="text/javascript"><![CDATA[
var edges = document.getElementsByTagName('g');
if (edges && edges.length) {
  for (var i=0;i<edges.length;i++) {
    if (edges[i].id.substr(0,4)=='edge') {
      edges[i].setAttribute('class','edge');
    }
  }
}
]]></script>
        <defs>
                <circle id="rim" cx="0" cy="0" r="7"/>
                <circle id="rim2" cx="0" cy="0" r="3.5"/>
                <g id="zoomPlus">
                        <use xlink:href="#rim" fill="#404040">
                                <set attributeName="fill" to="#808080" begin="zoomplus.mouseover" end="zoomplus.mouseout"/>
                        </use>
                        <path d="M-4,0h8M0,-4v8" fill="none" stroke="white" stroke-width="1.5" pointer-events="none"/>
                </g>
                <g id="zoomMin">
                        <use xlink:href="#rim" fill="#404040">
                                <set attributeName="fill" to="#808080" begin="zoomminus.mouseover" end="zoomminus.mouseout"/>
                        </use>
                        <path d="M-4,0h8" fill="none" stroke="white" stroke-width="1.5" pointer-events="none"/>
                </g>
                <g id="dirArrow">
                        <path fill="none" stroke="white" stroke-width="1.5" d="M0,-3.0v7 M-2.5,-0.5L0,-3.0L2.5,-0.5"/>
                </g>
               <g id="resetDef">
                       <use xlink:href="#rim2" fill="#404040">
                               <set attributeName="fill" to="#808080" begin="reset.mouseover" end="reset.mouseout"/>
                       </use>
               </g>
        </defs>

<script type="text/javascript">
var viewWidth = 352;
var viewHeight = 533;
var sectionId = 'dynsection-1';
</script>
<script xlink:href="svgpan.js"/>
<svg id="graph" class="graph">
<g id="viewport">
<title>realization::Et_Accountable</title>
<!-- Node1 -->
<g id="node1" class="node">
<title>Node1</title>
<g id="a_node1"><a xlink:title="Interface for type that is able to account for evapotranspiration in certain calculations,...">
<polygon fill="#999999" stroke="#666666" points="139,-107 3,-107 3,0 139,0 139,-107"/>
<text text-anchor="middle" x="71" y="-95" font-family="Helvetica,sans-Serif" font-size="10.00">{realization::Et_Accountable</text>
<text text-anchor="start" x="11" y="-84" font-family="Helvetica,sans-Serif" font-size="10.00">||+ Et_Accountable()</text>
<text text-anchor="start" x="11" y="-73" font-family="Helvetica,sans-Serif" font-size="10.00">+ ~Et_Accountable()</text>
<text text-anchor="start" x="11" y="-62" font-family="Helvetica,sans-Serif" font-size="10.00">+ calc_et()</text>
<text text-anchor="start" x="11" y="-51" font-family="Helvetica,sans-Serif" font-size="10.00">+ get_et_params()</text>
<text text-anchor="start" x="11" y="-40" font-family="Helvetica,sans-Serif" font-size="10.00">+ is_et_params_set()</text>
<text text-anchor="start" x="11" y="-29" font-family="Helvetica,sans-Serif" font-size="10.00">+ set_et_params()</text>
<text text-anchor="start" x="11" y="-18" font-family="Helvetica,sans-Serif" font-size="10.00"># get_et_params_ptr()</text>
<text text-anchor="middle" x="71" y="-7" font-family="Helvetica,sans-Serif" font-size="10.00">}</text>
</a>
</g>
</g>
<!-- Node2 -->
<g id="node2" class="node">
<title>Node2</title>
<g id="a_node2"><a xlink:href="classrealization_1_1_et___aware.html" target="_top" xlink:title="Interface for type that is aware of parameters for evapotranspiration in certain calculations,...">
<polygon fill="white" stroke="#666666" points="110,-228 0,-228 0,-154 110,-154 110,-228"/>
<text text-anchor="middle" x="55" y="-216" font-family="Helvetica,sans-Serif" font-size="10.00">{realization::Et_Aware</text>
<text text-anchor="start" x="8" y="-205" font-family="Helvetica,sans-Serif" font-size="10.00">||+ Et_Aware()</text>
<text text-anchor="start" x="8" y="-194" font-family="Helvetica,sans-Serif" font-size="10.00">+ ~Et_Aware()</text>
<text text-anchor="start" x="8" y="-183" font-family="Helvetica,sans-Serif" font-size="10.00">+ is_et_params_set()</text>
<text text-anchor="start" x="8" y="-172" font-family="Helvetica,sans-Serif" font-size="10.00">+ set_et_params()</text>
<text text-anchor="middle" x="55" y="-161" font-family="Helvetica,sans-Serif" font-size="10.00">}</text>
</a>
</g>
</g>
<!-- Node2&#45;&gt;Node1 -->
<g id="edge1" class="edge">
<title>Node2&#45;&gt;Node1</title>
<path fill="none" stroke="#63b8ff" d="M60.63,-142.3C61.96,-131.04 63.39,-118.96 64.74,-107.47"/>
<polygon fill="none" stroke="#63b8ff" points="57.16,-141.84 59.47,-152.19 64.11,-142.66 57.16,-141.84"/>
</g>
<!-- Node3 -->
<g id="node3" class="node">
<title>Node3</title>
<g id="a_node3"><a xlink:title=" ">
<polygon fill="white" stroke="#666666" points="249.5,-217 128.5,-217 128.5,-165 249.5,-165 249.5,-217"/>
<text text-anchor="start" x="136.5" y="-205" font-family="Helvetica,sans-Serif" font-size="10.00">{std::shared_ptr&lt; pdm03</text>
<text text-anchor="middle" x="189" y="-194" font-family="Helvetica,sans-Serif" font-size="10.00">_struct &gt;</text>
<text text-anchor="start" x="136.5" y="-183" font-family="Helvetica,sans-Serif" font-size="10.00">||+ operator&#45;&gt;()</text>
<text text-anchor="middle" x="189" y="-172" font-family="Helvetica,sans-Serif" font-size="10.00">}</text>
</a>
</g>
</g>
<!-- Node3&#45;&gt;Node1 -->
<g id="edge2" class="edge">
<title>Node3&#45;&gt;Node1</title>
<path fill="none" stroke="#404040" d="M166.81,-164.51C155.09,-151.06 140.14,-133.89 125.56,-117.15"/>
<polygon fill="none" stroke="#404040" points="125.51,-117.1 118.56,-115.2 117.63,-108.05 124.59,-109.95 125.51,-117.1"/>
<text text-anchor="middle" x="167" y="-128" font-family="Helvetica,sans-Serif" font-size="10.00"> &#45;et_params</text>
</g>
<!-- Node4 -->
<g id="node4" class="node">
<title>Node4</title>
<g id="a_node4"><a xlink:href="structpdm03__struct.html" target="_top" xlink:title=" ">
<polygon fill="white" stroke="#666666" points="219.5,-448 62.5,-448 62.5,-275 219.5,-275 219.5,-448"/>
<text text-anchor="middle" x="141" y="-436" font-family="Helvetica,sans-Serif" font-size="10.00">{pdm03_struct</text>
<text text-anchor="start" x="70.5" y="-425" font-family="Helvetica,sans-Serif" font-size="10.00">|+ model_time_step</text>
<text text-anchor="start" x="70.5" y="-414" font-family="Helvetica,sans-Serif" font-size="10.00">+ maximum_combined_contents</text>
<text text-anchor="start" x="70.5" y="-403" font-family="Helvetica,sans-Serif" font-size="10.00">+ scaled_distribution</text>
<text text-anchor="start" x="70.5" y="-392" font-family="Helvetica,sans-Serif" font-size="10.00">_fn_shape_parameter</text>
<text text-anchor="start" x="70.5" y="-381" font-family="Helvetica,sans-Serif" font-size="10.00">+ final_height_reservoir</text>
<text text-anchor="start" x="70.5" y="-370" font-family="Helvetica,sans-Serif" font-size="10.00">+ max_height_soil_moisture</text>
<text text-anchor="start" x="70.5" y="-359" font-family="Helvetica,sans-Serif" font-size="10.00">_storerage_tank</text>
<text text-anchor="start" x="70.5" y="-348" font-family="Helvetica,sans-Serif" font-size="10.00">+ total_effective_rainfall</text>
<text text-anchor="start" x="70.5" y="-337" font-family="Helvetica,sans-Serif" font-size="10.00">+ actual_et</text>
<text text-anchor="start" x="70.5" y="-326" font-family="Helvetica,sans-Serif" font-size="10.00">+ final_storage_upper_zone</text>
<text text-anchor="start" x="70.5" y="-315" font-family="Helvetica,sans-Serif" font-size="10.00">+ precipitation</text>
<text text-anchor="start" x="70.5" y="-304" font-family="Helvetica,sans-Serif" font-size="10.00">+ potential_et</text>
<text text-anchor="start" x="70.5" y="-293" font-family="Helvetica,sans-Serif" font-size="10.00">+ vegetation_adjustment</text>
<text text-anchor="middle" x="141" y="-282" font-family="Helvetica,sans-Serif" font-size="10.00">|}</text>
</a>
</g>
</g>
<!-- Node4&#45;&gt;Node3 -->
<g id="edge3" class="edge">
<title>Node4&#45;&gt;Node3</title>
<path fill="none" stroke="#404040" d="M165.42,-274.77C169.95,-258.87 174.46,-243.05 178.3,-229.56"/>
<polygon fill="none" stroke="#404040" points="178.23,-229.82 176.02,-222.95 181.51,-218.28 183.72,-225.15 178.23,-229.82"/>
<text text-anchor="middle" x="184" y="-249" font-family="Helvetica,sans-Serif" font-size="10.00"> +ptr</text>
</g>
<!-- Node5 -->
<g id="node5" class="node">
<title>Node5</title>
<g id="a_node5"><a xlink:title=" ">
<polygon fill="white" stroke="#666666" points="344,-382 238,-382 238,-341 344,-341 344,-382"/>
<text text-anchor="middle" x="291" y="-370" font-family="Helvetica,sans-Serif" font-size="10.00">{std::shared_ptr&lt; T &gt;</text>
<text text-anchor="start" x="246" y="-359" font-family="Helvetica,sans-Serif" font-size="10.00">||+ operator&#45;&gt;()</text>
<text text-anchor="middle" x="291" y="-348" font-family="Helvetica,sans-Serif" font-size="10.00">}</text>
</a>
</g>
</g>
<!-- Node5&#45;&gt;Node3 -->
<g id="edge4" class="edge">
<title>Node5&#45;&gt;Node3</title>
<path fill="none" stroke="orange" d="M273,-330.77C253.53,-298.6 222.81,-247.85 204.41,-217.45"/>
<polygon fill="orange" stroke="orange" points="269.94,-332.47 278.11,-339.21 275.93,-328.85 269.94,-332.47"/>
<text text-anchor="middle" x="266.5" y="-249" font-family="Helvetica,sans-Serif" font-size="10.00"> &lt; pdm03_struct &gt;</text>
</g>
<!-- Node6 -->
<g id="node6" class="node">
<title>Node6</title>
<g id="a_node6"><a xlink:title=" ">
<polygon fill="white" stroke="#666666" points="305.5,-525 276.5,-525 276.5,-495 305.5,-495 305.5,-525"/>
<text text-anchor="middle" x="291" y="-513" font-family="Helvetica,sans-Serif" font-size="10.00">{T</text>
<text text-anchor="middle" x="291" y="-502" font-family="Helvetica,sans-Serif" font-size="10.00">||}</text>
</a>
</g>
</g>
<!-- Node6&#45;&gt;Node5 -->
<g id="edge5" class="edge">
<title>Node6&#45;&gt;Node5</title>
<path fill="none" stroke="#404040" d="M291,-494.69C291,-471.73 291,-426.11 291,-394.95"/>
<polygon fill="none" stroke="#404040" points="291,-395.09 287,-389.09 291,-383.09 295,-389.09 291,-395.09"/>
<text text-anchor="middle" x="301" y="-469" font-family="Helvetica,sans-Serif" font-size="10.00"> +ptr</text>
</g>
</g>
</svg>
        <g id="navigator" transform="translate(0 0)" fill="#404254">
                <rect fill="#f2f5e9" fill-opacity="0.5" stroke="#606060" stroke-width=".5" x="0" y="0" width="60" height="60"/>
                <use id="zoomplus" xlink:href="#zoomPlus" x="17" y="9" onmousedown="handleZoom(evt,'in')"/>
                <use id="zoomminus" xlink:href="#zoomMin" x="42" y="9" onmousedown="handleZoom(evt,'out')"/>
                <use id="reset" xlink:href="#resetDef" x="30" y="36" onmousedown="handleReset()"/>
                <g id="arrowUp" xlink:href="#dirArrow" transform="translate(30 24)" onmousedown="handlePan(0,-1)">
                  <use xlink:href="#rim" fill="#404040">
                        <set attributeName="fill" to="#808080" begin="arrowUp.mouseover" end="arrowUp.mouseout"/>
                  </use>
                  <path fill="none" stroke="white" stroke-width="1.5" d="M0,-3.0v7 M-2.5,-0.5L0,-3.0L2.5,-0.5"/>
                </g>
                <g id="arrowRight" xlink:href="#dirArrow" transform="rotate(90) translate(36 -43)" onmousedown="handlePan(1,0)">
                  <use xlink:href="#rim" fill="#404040">
                        <set attributeName="fill" to="#808080" begin="arrowRight.mouseover" end="arrowRight.mouseout"/>
                  </use>
                  <path fill="none" stroke="white" stroke-width="1.5" d="M0,-3.0v7 M-2.5,-0.5L0,-3.0L2.5,-0.5"/>
                </g>
                <g id="arrowDown" xlink:href="#dirArrow" transform="rotate(180) translate(-30 -48)" onmousedown="handlePan(0,1)">
                  <use xlink:href="#rim" fill="#404040">
                        <set attributeName="fill" to="#808080" begin="arrowDown.mouseover" end="arrowDown.mouseout"/>
                  </use>
                  <path fill="none" stroke="white" stroke-width="1.5" d="M0,-3.0v7 M-2.5,-0.5L0,-3.0L2.5,-0.5"/>
                </g>
                <g id="arrowLeft" xlink:href="#dirArrow" transform="rotate(270) translate(-36 17)" onmousedown="handlePan(-1,0)">
                  <use xlink:href="#rim" fill="#404040">
                        <set attributeName="fill" to="#808080" begin="arrowLeft.mouseover" end="arrowLeft.mouseout"/>
                  </use>
                  <path fill="none" stroke="white" stroke-width="1.5" d="M0,-3.0v7 M-2.5,-0.5L0,-3.0L2.5,-0.5"/>
                </g>
        </g>
        <svg viewBox="0 0 15 15" width="100%" height="30px" preserveAspectRatio="xMaxYMin meet">
         <g id="arrow_out" transform="scale(0.3 0.3)">
          <a xlink:href="classrealization_1_1_et___accountable__coll__graph_org.svg" target="_base">
           <rect id="button" ry="5" rx="5" y="6" x="6" height="38" width="38"
                fill="#f2f5e9" fill-opacity="0.5" stroke="#606060" stroke-width="1.0"/>
           <path id="arrow"
             d="M 11.500037,31.436501 C 11.940474,20.09759 22.043105,11.32322 32.158766,21.979434 L 37.068811,17.246167 C 37.068811,17.246167 37.088388,32 37.088388,32 L 22.160133,31.978069 C 22.160133,31.978069 26.997745,27.140456 26.997745,27.140456 C 18.528582,18.264221 13.291696,25.230495 11.500037,31.436501 z"
             style="fill:#404040;"/>
          </a>
         </g>
        </svg>
</svg>
