<?xml version="1.0" encoding="UTF-8" standalone="no"?>
<!DOCTYPE svg PUBLIC "-//W3C//DTD SVG 1.1//EN"
 "http://www.w3.org/Graphics/SVG/1.1/DTD/svg11.dtd">
<!-- Generated by graphviz version 12.2.0 (20241103.1931)
 -->
<!-- Title: models::bmi::Bmi_Adapter Pages: 1 -->
<!--zoomable 1005 -->

<svg id="main" version="1.1" xmlns="http://www.w3.org/2000/svg" xmlns:xlink="http://www.w3.org/1999/xlink" xml:space="preserve" onload="init(evt)">

<style type="text/css"><![CDATA[
.node, .edge {opacity: 0.7;}
.node.selected, .edge.selected {opacity: 1;}
.edge:hover path { stroke: red; }
.edge:hover polygon { stroke: red; fill: red; }
]]></style>

<defs>
  <circle id="rim" cx="0" cy="0" r="7"/>
  <circle id="rim2" cx="0" cy="0" r="3.5"/>
  <g id="zoomPlus">
    <use xlink:href="#rim" fill="#404040"><set attributeName="fill" to="#808080" begin="zoomplus.mouseover" end="zoomplus.mouseout"/></use>
    <path d="M-4,0h8M0,-4v8" fill="none" stroke="white" stroke-width="1.5" pointer-events="none"/>
  </g>
  <g id="zoomMin">
    <use xlink:href="#rim" fill="#404040"><set attributeName="fill" to="#808080" begin="zoomminus.mouseover" end="zoomminus.mouseout"/></use>
    <path d="M-4,0h8" fill="none" stroke="white" stroke-width="1.5" pointer-events="none"/>
  </g>
  <g id="arrowUp" transform="translate(30 24)">
    <use xlink:href="#rim"/>
    <path pointer-events="none" fill="none" stroke="white" stroke-width="1.5" d="M0,-3.0v7 M-2.5,-0.5L0,-3.0L2.5,-0.5"/>
  </g>
  <g id="arrowRight" transform="rotate(90) translate(36 -43)">
    <use xlink:href="#rim"/>
    <path pointer-events="none" fill="none" stroke="white" stroke-width="1.5" d="M0,-3.0v7 M-2.5,-0.5L0,-3.0L2.5,-0.5"/>
  </g>
  <g id="arrowDown" transform="rotate(180) translate(-30 -48)">
    <use xlink:href="#rim"/>
    <path pointer-events="none" fill="none" stroke="white" stroke-width="1.5" d="M0,-3.0v7 M-2.5,-0.5L0,-3.0L2.5,-0.5"/>
  </g>
  <g id="arrowLeft" transform="rotate(270) translate(-36 17)">
    <use xlink:href="#rim"/>
    <path pointer-events="none" fill="none" stroke="white" stroke-width="1.5" d="M0,-3.0v7 M-2.5,-0.5L0,-3.0L2.5,-0.5"/>
  </g>
  <g id="resetDef">
    <use xlink:href="#rim2" fill="#404040"><set attributeName="fill" to="#808080" begin="reset.mouseover" end="reset.mouseout"/></use>
  </g>
</defs>
<script type="application/ecmascript">
var viewWidth = 529;
var viewHeight = 1005;
var sectionId = 'dynsection-1';
</script>
<script type="application/ecmascript" xlink:href="svg.min.js"/>
<svg id="graph" class="graph">
<g id="viewport">
<title>models::bmi::Bmi_Adapter</title>
<!-- Node1 -->
<g id="Node000001" class="node">
<title>Node1</title>
<g id="a_Node000001"><a xlink:title="Abstract adapter interface for C++ classes to interact with the essential aspects of external models ...">
<polygon fill="#999999" stroke="none" points="330.62,-334.75 200.88,-334.75 200.88,0 330.62,0 330.62,-334.75"/>
<text text-anchor="start" x="209.5" y="-321.25" font-family="Helvetica,sans-Serif" font-size="10.00">models::bmi::Bmi_Adapter</text>
<text text-anchor="start" x="205.25" y="-306" font-family="Helvetica,sans-Serif" font-size="10.00">#</text>
<text text-anchor="start" x="214.88" y="-306" font-family="Helvetica,sans-Serif" font-size="10.00">bmi_model_has_fixed</text>
<text text-anchor="start" x="214.88" y="-294.75" font-family="Helvetica,sans-Serif" font-size="10.00">_time_step</text>
<text text-anchor="start" x="205.25" y="-279.5" font-family="Helvetica,sans-Serif" font-size="10.00">#</text>
<text text-anchor="start" x="214.88" y="-279.5" font-family="Helvetica,sans-Serif" font-size="10.00">bmi_model_time_convert</text>
<text text-anchor="start" x="214.88" y="-268.25" font-family="Helvetica,sans-Serif" font-size="10.00">_factor</text>
<text text-anchor="start" x="205.25" y="-253" font-family="Helvetica,sans-Serif" font-size="10.00">#</text>
<text text-anchor="start" x="214.88" y="-253" font-family="Helvetica,sans-Serif" font-size="10.00">model_initialized</text>
<text text-anchor="start" x="204.88" y="-237.75" font-family="Helvetica,sans-Serif" font-size="10.00">+</text>
<text text-anchor="start" x="214.88" y="-237.75" font-family="Helvetica,sans-Serif" font-size="10.00">Bmi_Adapter()</text>
<text text-anchor="start" x="204.88" y="-222.5" font-family="Helvetica,sans-Serif" font-size="10.00">+</text>
<text text-anchor="start" x="214.88" y="-222.5" font-family="Helvetica,sans-Serif" font-size="10.00">Bmi_Adapter()</text>
<text text-anchor="start" x="204.88" y="-207.25" font-family="Helvetica,sans-Serif" font-size="10.00">+</text>
<text text-anchor="start" x="214.88" y="-207.25" font-family="Helvetica,sans-Serif" font-size="10.00">Bmi_Adapter()</text>
<text text-anchor="start" x="204.88" y="-192" font-family="Helvetica,sans-Serif" font-size="10.00">+</text>
<text text-anchor="start" x="214.88" y="-192" font-family="Helvetica,sans-Serif" font-size="10.00">~Bmi_Adapter()</text>
<text text-anchor="start" x="204.88" y="-176.75" font-family="Helvetica,sans-Serif" font-size="10.00">+</text>
<text text-anchor="start" x="214.88" y="-176.75" font-family="Helvetica,sans-Serif" font-size="10.00">is_model_initialized()</text>
<text text-anchor="start" x="204.88" y="-161.5" font-family="Helvetica,sans-Serif" font-size="10.00">+</text>
<text text-anchor="start" x="214.88" y="-161.5" font-family="Helvetica,sans-Serif" font-size="10.00">get_time_convert_factor()</text>
<text text-anchor="start" x="204.88" y="-146.25" font-family="Helvetica,sans-Serif" font-size="10.00">+</text>
<text text-anchor="start" x="214.88" y="-146.25" font-family="Helvetica,sans-Serif" font-size="10.00">convert_model_time</text>
<text text-anchor="start" x="214.88" y="-135" font-family="Helvetica,sans-Serif" font-size="10.00">_to_seconds()</text>
<text text-anchor="start" x="204.88" y="-119.75" font-family="Helvetica,sans-Serif" font-size="10.00">+</text>
<text text-anchor="start" x="214.88" y="-119.75" font-family="Helvetica,sans-Serif" font-size="10.00">convert_seconds_to</text>
<text text-anchor="start" x="214.88" y="-108.5" font-family="Helvetica,sans-Serif" font-size="10.00">_model_time()</text>
<text text-anchor="start" x="204.88" y="-93.25" font-family="Helvetica,sans-Serif" font-size="10.00">+</text>
<text text-anchor="start" x="214.88" y="-93.25" font-family="Helvetica,sans-Serif" font-size="10.00">get_analogous_cxx_type()</text>
<text text-anchor="start" x="204.88" y="-78" font-family="Helvetica,sans-Serif" font-size="10.00">+</text>
<text text-anchor="start" x="214.88" y="-78" font-family="Helvetica,sans-Serif" font-size="10.00">Initialize()</text>
<text text-anchor="start" x="204.88" y="-62.75" font-family="Helvetica,sans-Serif" font-size="10.00">+</text>
<text text-anchor="start" x="214.88" y="-62.75" font-family="Helvetica,sans-Serif" font-size="10.00">Initialize()</text>
<text text-anchor="start" x="204.88" y="-47.5" font-family="Helvetica,sans-Serif" font-size="10.00">+</text>
<text text-anchor="start" x="214.88" y="-47.5" font-family="Helvetica,sans-Serif" font-size="10.00">isInitialized()</text>
<text text-anchor="start" x="204.88" y="-32.25" font-family="Helvetica,sans-Serif" font-size="10.00">+</text>
<text text-anchor="start" x="214.88" y="-32.25" font-family="Helvetica,sans-Serif" font-size="10.00">get_model_name()</text>
<text text-anchor="start" x="205.25" y="-17" font-family="Helvetica,sans-Serif" font-size="10.00">#</text>
<text text-anchor="start" x="214.88" y="-17" font-family="Helvetica,sans-Serif" font-size="10.00">construct_and_init</text>
<text text-anchor="start" x="214.88" y="-5.75" font-family="Helvetica,sans-Serif" font-size="10.00">_backing_model()</text>
<polygon fill="#666666" stroke="#666666" points="200.88,-317.5 200.88,-317.5 330.62,-317.5 330.62,-317.5 200.88,-317.5"/>
<polygon fill="#666666" stroke="#666666" points="200.88,-249.25 200.88,-249.25 212.88,-249.25 212.88,-249.25 200.88,-249.25"/>
<polygon fill="#666666" stroke="#666666" points="212.88,-249.25 212.88,-249.25 330.62,-249.25 330.62,-249.25 212.88,-249.25"/>
<polygon fill="none" stroke="#666666" points="200.88,0 200.88,-334.75 330.62,-334.75 330.62,0 200.88,0"/>
</a>
</g>
</g>
<!-- Node2 -->
<g id="Node000002" class="node">
<title>Node2</title>
<g id="a_Node000002"><a xlink:href="classbmi_1_1_bmi.html" target="_top" xlink:title=" ">
<polygon fill="white" stroke="none" points="115.5,-671.75 0,-671.75 0,-393.25 115.5,-393.25 115.5,-671.75"/>
<text text-anchor="start" x="39" y="-658.25" font-family="Helvetica,sans-Serif" font-size="10.00">bmi::Bmi</text>
<text text-anchor="start" x="56.25" y="-643" font-family="Helvetica,sans-Serif" font-size="10.00"> </text>
<text text-anchor="start" x="4" y="-627.75" font-family="Helvetica,sans-Serif" font-size="10.00">+</text>
<text text-anchor="start" x="14" y="-627.75" font-family="Helvetica,sans-Serif" font-size="10.00">~Bmi()</text>
<text text-anchor="start" x="4" y="-612.5" font-family="Helvetica,sans-Serif" font-size="10.00">+</text>
<text text-anchor="start" x="14" y="-612.5" font-family="Helvetica,sans-Serif" font-size="10.00">Initialize()</text>
<text text-anchor="start" x="4" y="-597.25" font-family="Helvetica,sans-Serif" font-size="10.00">+</text>
<text text-anchor="start" x="14" y="-597.25" font-family="Helvetica,sans-Serif" font-size="10.00">Update()</text>
<text text-anchor="start" x="4" y="-582" font-family="Helvetica,sans-Serif" font-size="10.00">+</text>
<text text-anchor="start" x="14" y="-582" font-family="Helvetica,sans-Serif" font-size="10.00">UpdateUntil()</text>
<text text-anchor="start" x="4" y="-566.75" font-family="Helvetica,sans-Serif" font-size="10.00">+</text>
<text text-anchor="start" x="14" y="-566.75" font-family="Helvetica,sans-Serif" font-size="10.00">Finalize()</text>
<text text-anchor="start" x="4" y="-551.5" font-family="Helvetica,sans-Serif" font-size="10.00">+</text>
<text text-anchor="start" x="14" y="-551.5" font-family="Helvetica,sans-Serif" font-size="10.00">GetComponentName()</text>
<text text-anchor="start" x="4" y="-536.25" font-family="Helvetica,sans-Serif" font-size="10.00">+</text>
<text text-anchor="start" x="14" y="-536.25" font-family="Helvetica,sans-Serif" font-size="10.00">GetInputItemCount()</text>
<text text-anchor="start" x="4" y="-521" font-family="Helvetica,sans-Serif" font-size="10.00">+</text>
<text text-anchor="start" x="14" y="-521" font-family="Helvetica,sans-Serif" font-size="10.00">GetOutputItemCount()</text>
<text text-anchor="start" x="4" y="-505.75" font-family="Helvetica,sans-Serif" font-size="10.00">+</text>
<text text-anchor="start" x="14" y="-505.75" font-family="Helvetica,sans-Serif" font-size="10.00">GetInputVarNames()</text>
<text text-anchor="start" x="4" y="-490.5" font-family="Helvetica,sans-Serif" font-size="10.00">+</text>
<text text-anchor="start" x="14" y="-490.5" font-family="Helvetica,sans-Serif" font-size="10.00">GetOutputVarNames()</text>
<text text-anchor="start" x="4" y="-475.25" font-family="Helvetica,sans-Serif" font-size="10.00">+</text>
<text text-anchor="start" x="14" y="-475.25" font-family="Helvetica,sans-Serif" font-size="10.00">GetVarGrid()</text>
<text text-anchor="start" x="4" y="-460" font-family="Helvetica,sans-Serif" font-size="10.00">+</text>
<text text-anchor="start" x="14" y="-460" font-family="Helvetica,sans-Serif" font-size="10.00">GetVarType()</text>
<text text-anchor="start" x="4" y="-444.75" font-family="Helvetica,sans-Serif" font-size="10.00">+</text>
<text text-anchor="start" x="14" y="-444.75" font-family="Helvetica,sans-Serif" font-size="10.00">GetVarUnits()</text>
<text text-anchor="start" x="4" y="-429.5" font-family="Helvetica,sans-Serif" font-size="10.00">+</text>
<text text-anchor="start" x="14" y="-429.5" font-family="Helvetica,sans-Serif" font-size="10.00">GetVarItemsize()</text>
<text text-anchor="start" x="4" y="-414.25" font-family="Helvetica,sans-Serif" font-size="10.00">+</text>
<text text-anchor="start" x="14" y="-414.25" font-family="Helvetica,sans-Serif" font-size="10.00">GetVarNbytes()</text>
<text text-anchor="start" x="14" y="-399" font-family="Helvetica,sans-Serif" font-size="10.00">and 27 more...</text>
<polygon fill="#666666" stroke="#666666" points="0,-654.5 0,-654.5 115.5,-654.5 115.5,-654.5 0,-654.5"/>
<polygon fill="#666666" stroke="#666666" points="0,-639.25 0,-639.25 115.5,-639.25 115.5,-639.25 0,-639.25"/>
<polygon fill="none" stroke="#666666" points="0,-393.25 0,-671.75 115.5,-671.75 115.5,-393.25 0,-393.25"/>
</a>
</g>
</g>
<!-- Node2&#45;&gt;Node1 -->
<g id="edge1_Node000001_Node000002" class="edge">
<title>Node2&#45;&gt;Node1</title>
<g id="a_edge1_Node000001_Node000002"><a xlink:title=" ">
<path fill="none" stroke="#63b8ff" d="M120.82,-400.42C122.13,-398 123.44,-395.61 124.75,-393.25 148.19,-350.92 176.12,-305.48 200.91,-266.61"/>
<polygon fill="none" stroke="#63b8ff" points="117.8,-398.66 116.17,-409.13 123.97,-401.96 117.8,-398.66"/>
</a>
</g>
</g>
<!-- Node3 -->
<g id="Node000003" class="node">
<title>Node3</title>
<g id="a_Node000003"><a xlink:title=" ">
<polygon fill="white" stroke="none" points="434.75,-888.25 384.75,-888.25 384.75,-838.5 434.75,-838.5 434.75,-888.25"/>
<text text-anchor="start" x="388.75" y="-874.75" font-family="Helvetica,sans-Serif" font-size="10.00">std::string</text>
<text text-anchor="start" x="408.25" y="-859.5" font-family="Helvetica,sans-Serif" font-size="10.00"> </text>
<text text-anchor="start" x="408.25" y="-844.25" font-family="Helvetica,sans-Serif" font-size="10.00"> </text>
<polygon fill="#666666" stroke="#666666" points="384.75,-871 384.75,-871 434.75,-871 434.75,-871 384.75,-871"/>
<polygon fill="#666666" stroke="#666666" points="384.75,-855.75 384.75,-855.75 434.75,-855.75 434.75,-855.75 384.75,-855.75"/>
<polygon fill="none" stroke="#666666" points="384.75,-838.5 384.75,-888.25 434.75,-888.25 434.75,-838.5 384.75,-838.5"/>
</a>
</g>
</g>
<!-- Node3&#45;&gt;Node1 -->
<g id="edge2_Node000001_Node000003" class="edge">
<title>Node3&#45;&gt;Node1</title>
<g id="a_edge2_Node000001_Node000003"><a xlink:title=" ">
<path fill="none" stroke="#63b8ff" d="M421.95,-838.56C424.35,-832.79 426.51,-826.55 427.75,-820.5 428.76,-815.6 427.84,-814.25 427.75,-809.25 423.97,-606.26 480.72,-543.34 410.75,-352.75 395.43,-311 366.79,-271.32 338.99,-239.54"/>
<polygon fill="none" stroke="#63b8ff" points="339,-239.56 332.02,-237.75 331,-230.61 337.98,-232.42 339,-239.56"/>
</a>
</g>
<text text-anchor="middle" x="476.43" y="-714" font-family="Helvetica,sans-Serif" font-size="10.00" fill="grey"> #bmi_init_config</text>
<text text-anchor="middle" x="476.43" y="-702.75" font-family="Helvetica,sans-Serif" font-size="10.00" fill="grey">#init_exception_msg</text>
<text text-anchor="middle" x="476.43" y="-691.5" font-family="Helvetica,sans-Serif" font-size="10.00" fill="grey">#model_name</text>
</g>
<!-- Node9 -->
<g id="Node000009" class="node">
<title>Node9</title>
<g id="a_Node000009"><a xlink:title=" ">
<polygon fill="white" stroke="none" points="413.5,-791.25 302,-791.25 302,-741.5 413.5,-741.5 413.5,-791.25"/>
<text text-anchor="start" x="306" y="-777.75" font-family="Helvetica,sans-Serif" font-size="10.00">std::vector&lt; std::string &gt;</text>
<text text-anchor="start" x="356.25" y="-762.5" font-family="Helvetica,sans-Serif" font-size="10.00"> </text>
<text text-anchor="start" x="356.25" y="-747.25" font-family="Helvetica,sans-Serif" font-size="10.00"> </text>
<polygon fill="#666666" stroke="#666666" points="302,-774 302,-774 413.5,-774 413.5,-774 302,-774"/>
<polygon fill="#666666" stroke="#666666" points="302,-758.75 302,-758.75 413.5,-758.75 413.5,-758.75 302,-758.75"/>
<polygon fill="none" stroke="#666666" points="302,-741.5 302,-791.25 413.5,-791.25 413.5,-741.5 302,-741.5"/>
</a>
</g>
</g>
<!-- Node3&#45;&gt;Node9 -->
<g id="edge9_Node000009_Node000003" class="edge">
<title>Node3&#45;&gt;Node9</title>
<g id="a_edge9_Node000009_Node000003"><a xlink:title=" ">
<path fill="none" stroke="#63b8ff" d="M391.32,-838.64C387.25,-832.87 383.14,-826.6 379.75,-820.5 376.7,-815.01 373.82,-809.01 371.21,-803.08"/>
<polygon fill="none" stroke="#63b8ff" points="371.22,-803.1 365.22,-799.1 366.61,-792.02 372.61,-796.03 371.22,-803.1"/>
</a>
</g>
<text text-anchor="middle" x="403.75" y="-811" font-family="Helvetica,sans-Serif" font-size="10.00" fill="grey"> +elements</text>
</g>
<!-- Node4 -->
<g id="Node000004" class="node">
<title>Node4</title>
<g id="a_Node000004"><a xlink:title=" ">
<polygon fill="white" stroke="none" points="452,-996.5 367.5,-996.5 367.5,-935.5 452,-935.5 452,-996.5"/>
<text text-anchor="start" x="371.5" y="-983" font-family="Helvetica,sans-Serif" font-size="10.00">std::basic_string&lt;</text>
<text text-anchor="start" x="394.38" y="-971.75" font-family="Helvetica,sans-Serif" font-size="10.00"> Char &gt;</text>
<text text-anchor="start" x="408.25" y="-956.5" font-family="Helvetica,sans-Serif" font-size="10.00"> </text>
<text text-anchor="start" x="408.25" y="-941.25" font-family="Helvetica,sans-Serif" font-size="10.00"> </text>
<polygon fill="#666666" stroke="#666666" points="367.5,-968 367.5,-968 452,-968 452,-968 367.5,-968"/>
<polygon fill="#666666" stroke="#666666" points="367.5,-952.75 367.5,-952.75 452,-952.75 452,-952.75 367.5,-952.75"/>
<polygon fill="none" stroke="#666666" points="367.5,-935.5 367.5,-996.5 452,-996.5 452,-935.5 367.5,-935.5"/>
</a>
</g>
</g>
<!-- Node4&#45;&gt;Node3 -->
<g id="edge3_Node000003_Node000004" class="edge">
<title>Node4&#45;&gt;Node3</title>
<g id="a_edge3_Node000003_Node000004"><a xlink:title=" ">
<path fill="none" stroke="#63b8ff" d="M409.75,-924.23C409.75,-911.99 409.75,-898.97 409.75,-888.2"/>
<polygon fill="none" stroke="#63b8ff" points="406.25,-924.11 409.75,-934.11 413.25,-924.11 406.25,-924.11"/>
</a>
</g>
</g>
<!-- Node5 -->
<g id="Node000005" class="node">
<title>Node5</title>
<g id="a_Node000005"><a xlink:title=" ">
<polygon fill="white" stroke="none" points="250.12,-557.38 133.38,-557.38 133.38,-507.62 250.12,-507.62 250.12,-557.38"/>
<text text-anchor="start" x="137.38" y="-543.88" font-family="Helvetica,sans-Serif" font-size="10.00">std::shared_ptr&lt; double &gt;</text>
<text text-anchor="start" x="149.5" y="-528.62" font-family="Helvetica,sans-Serif" font-size="10.00">+</text>
<text text-anchor="start" x="171.62" y="-528.62" font-family="Helvetica,sans-Serif" font-size="10.00">ptr</text>
<text text-anchor="start" x="149.5" y="-513.38" font-family="Helvetica,sans-Serif" font-size="10.00">+</text>
<text text-anchor="start" x="171.62" y="-513.38" font-family="Helvetica,sans-Serif" font-size="10.00">operator&#45;&gt;()</text>
<polygon fill="#666666" stroke="#666666" points="133.38,-540.12 133.38,-540.12 250.12,-540.12 250.12,-540.12 133.38,-540.12"/>
<polygon fill="#666666" stroke="#666666" points="133.38,-524.88 133.38,-524.88 169.62,-524.88 169.62,-524.88 133.38,-524.88"/>
<polygon fill="#666666" stroke="#666666" points="169.62,-524.88 169.62,-524.88 250.12,-524.88 250.12,-524.88 169.62,-524.88"/>
<polygon fill="none" stroke="#666666" points="133.38,-507.62 133.38,-557.38 250.12,-557.38 250.12,-507.62 133.38,-507.62"/>
</a>
</g>
</g>
<!-- Node5&#45;&gt;Node1 -->
<g id="edge4_Node000001_Node000005" class="edge">
<title>Node5&#45;&gt;Node1</title>
<g id="a_edge4_Node000001_Node000005"><a xlink:title=" ">
<path fill="none" stroke="#63b8ff" d="M189.08,-507.8C185.81,-473.32 181.92,-407.44 192.5,-352.75 193.9,-345.49 195.59,-338.16 197.49,-330.81"/>
<polygon fill="none" stroke="#63b8ff" points="197.48,-330.87 195.21,-324.02 200.66,-319.3 202.93,-326.15 197.48,-330.87"/>
</a>
</g>
<text text-anchor="middle" x="255.12" y="-360.12" font-family="Helvetica,sans-Serif" font-size="10.00" fill="grey"> #bmi_model_time_step_size</text>
</g>
<!-- Node6 -->
<g id="Node000006" class="node">
<title>Node6</title>
<g id="a_Node000006"><a xlink:title=" ">
<polygon fill="white" stroke="none" points="266.88,-791.25 172.62,-791.25 172.62,-741.5 266.88,-741.5 266.88,-791.25"/>
<text text-anchor="start" x="176.62" y="-777.75" font-family="Helvetica,sans-Serif" font-size="10.00">std::shared_ptr&lt; T &gt;</text>
<text text-anchor="start" x="218.25" y="-762.5" font-family="Helvetica,sans-Serif" font-size="10.00"> </text>
<text text-anchor="start" x="183.12" y="-747.25" font-family="Helvetica,sans-Serif" font-size="10.00">+</text>
<text text-anchor="start" x="199.62" y="-747.25" font-family="Helvetica,sans-Serif" font-size="10.00">operator&#45;&gt;()</text>
<polygon fill="#666666" stroke="#666666" points="172.62,-774 172.62,-774 266.88,-774 266.88,-774 172.62,-774"/>
<polygon fill="#666666" stroke="#666666" points="172.62,-758.75 172.62,-758.75 266.88,-758.75 266.88,-758.75 172.62,-758.75"/>
<polygon fill="none" stroke="#666666" points="172.62,-741.5 172.62,-791.25 266.88,-791.25 266.88,-741.5 172.62,-741.5"/>
</a>
</g>
</g>
<!-- Node6&#45;&gt;Node5 -->
<g id="edge5_Node000005_Node000006" class="edge">
<title>Node6&#45;&gt;Node5</title>
<g id="a_edge5_Node000005_Node000006"><a xlink:title=" ">
<path fill="none" stroke="orange" d="M194.01,-732.12C192.62,-729.3 191.42,-726.41 190.5,-723.5 172.43,-666.08 180.76,-593.97 187.03,-557.29"/>
<polygon fill="orange" stroke="orange" points="190.89,-733.72 198.94,-740.61 196.94,-730.2 190.89,-733.72"/>
</a>
</g>
<text text-anchor="middle" x="214.12" y="-702.75" font-family="Helvetica,sans-Serif" font-size="10.00" fill="grey"> &lt; double &gt;</text>
</g>
<!-- Node8 -->
<g id="Node000008" class="node">
<title>Node8</title>
<g id="a_Node000008"><a xlink:title=" ">
<polygon fill="white" stroke="none" points="392.88,-563 286.62,-563 286.62,-502 392.88,-502 392.88,-563"/>
<text text-anchor="start" x="290.62" y="-549.5" font-family="Helvetica,sans-Serif" font-size="10.00">std::shared_ptr&lt; std</text>
<text text-anchor="start" x="290.62" y="-538.25" font-family="Helvetica,sans-Serif" font-size="10.00">::vector&lt; std::string &gt; &gt;</text>
<text text-anchor="start" x="338.25" y="-523" font-family="Helvetica,sans-Serif" font-size="10.00"> </text>
<text text-anchor="start" x="300.12" y="-507.75" font-family="Helvetica,sans-Serif" font-size="10.00">+</text>
<text text-anchor="start" x="319.62" y="-507.75" font-family="Helvetica,sans-Serif" font-size="10.00">operator&#45;&gt;()</text>
<polygon fill="#666666" stroke="#666666" points="286.62,-534.5 286.62,-534.5 392.88,-534.5 392.88,-534.5 286.62,-534.5"/>
<polygon fill="#666666" stroke="#666666" points="286.62,-519.25 286.62,-519.25 392.88,-519.25 392.88,-519.25 286.62,-519.25"/>
<polygon fill="none" stroke="#666666" points="286.62,-502 286.62,-563 392.88,-563 392.88,-502 286.62,-502"/>
</a>
</g>
</g>
<!-- Node6&#45;&gt;Node8 -->
<g id="edge12_Node000008_Node000006" class="edge">
<title>Node6&#45;&gt;Node8</title>
<g id="a_edge12_Node000008_Node000006"><a xlink:title=" ">
<path fill="none" stroke="orange" d="M237.06,-731.92C260.57,-686.51 302.2,-606.06 324.55,-562.86"/>
<polygon fill="orange" stroke="orange" points="234.1,-730.03 232.61,-740.52 240.32,-733.25 234.1,-730.03"/>
</a>
</g>
<text text-anchor="start" x="258.56" y="-708.38" font-family="Helvetica,sans-Serif" font-size="10.00" fill="grey"> &lt; std::vector&lt; std</text>
<text text-anchor="middle" x="297.19" y="-697.12" font-family="Helvetica,sans-Serif" font-size="10.00" fill="grey">::string &gt; &gt;</text>
</g>
<!-- Node7 -->
<g id="Node000007" class="node">
<title>Node7</title>
<g id="a_Node000007"><a xlink:title=" ">
<polygon fill="white" stroke="none" points="253.75,-990.88 239.75,-990.88 239.75,-941.12 253.75,-941.12 253.75,-990.88"/>
<text text-anchor="start" x="243.75" y="-977.38" font-family="Helvetica,sans-Serif" font-size="10.00">T</text>
<text text-anchor="start" x="245.25" y="-962.12" font-family="Helvetica,sans-Serif" font-size="10.00"> </text>
<text text-anchor="start" x="245.25" y="-946.88" font-family="Helvetica,sans-Serif" font-size="10.00"> </text>
<polygon fill="#666666" stroke="#666666" points="239.75,-973.62 239.75,-973.62 253.75,-973.62 253.75,-973.62 239.75,-973.62"/>
<polygon fill="#666666" stroke="#666666" points="239.75,-958.38 239.75,-958.38 253.75,-958.38 253.75,-958.38 239.75,-958.38"/>
<polygon fill="none" stroke="#666666" points="239.75,-941.12 239.75,-990.88 253.75,-990.88 253.75,-941.12 239.75,-941.12"/>
</a>
</g>
</g>
<!-- Node7&#45;&gt;Node6 -->
<g id="edge6_Node000006_Node000007" class="edge">
<title>Node7&#45;&gt;Node6</title>
<g id="a_edge6_Node000006_Node000007"><a xlink:title=" ">
<path fill="none" stroke="#63b8ff" d="M239.97,-941.35C235.92,-926.28 231.03,-906.27 228.25,-888.25 223.9,-860.14 221.78,-828 220.74,-803.93"/>
<polygon fill="none" stroke="#63b8ff" points="220.74,-804.02 216.52,-798.18 220.29,-792.03 224.51,-797.88 220.74,-804.02"/>
</a>
</g>
<text text-anchor="middle" x="238" y="-859.5" font-family="Helvetica,sans-Serif" font-size="10.00" fill="grey"> +ptr</text>
</g>
<!-- Node10 -->
<g id="Node000010" class="node">
<title>Node10</title>
<g id="a_Node000010"><a xlink:title=" ">
<polygon fill="white" stroke="none" points="332.5,-888.25 257,-888.25 257,-838.5 332.5,-838.5 332.5,-888.25"/>
<text text-anchor="start" x="261" y="-874.75" font-family="Helvetica,sans-Serif" font-size="10.00">std::vector&lt; T &gt;</text>
<text text-anchor="start" x="293.25" y="-859.5" font-family="Helvetica,sans-Serif" font-size="10.00"> </text>
<text text-anchor="start" x="293.25" y="-844.25" font-family="Helvetica,sans-Serif" font-size="10.00"> </text>
<polygon fill="#666666" stroke="#666666" points="257,-871 257,-871 332.5,-871 332.5,-871 257,-871"/>
<polygon fill="#666666" stroke="#666666" points="257,-855.75 257,-855.75 332.5,-855.75 332.5,-855.75 257,-855.75"/>
<polygon fill="none" stroke="#666666" points="257,-838.5 257,-888.25 332.5,-888.25 332.5,-838.5 257,-838.5"/>
</a>
</g>
</g>
<!-- Node7&#45;&gt;Node10 -->
<g id="edge11_Node000010_Node000007" class="edge">
<title>Node7&#45;&gt;Node10</title>
<g id="a_edge11_Node000010_Node000007"><a xlink:title=" ">
<path fill="none" stroke="#63b8ff" d="M253.63,-950.58C259.95,-937.34 269.57,-917.16 277.92,-899.66"/>
<polygon fill="none" stroke="#63b8ff" points="277.88,-899.73 276.86,-892.6 283.05,-888.9 284.08,-896.04 277.88,-899.73"/>
</a>
</g>
<text text-anchor="middle" x="297.62" y="-908" font-family="Helvetica,sans-Serif" font-size="10.00" fill="grey"> +elements</text>
</g>
<!-- Node8&#45;&gt;Node1 -->
<g id="edge7_Node000001_Node000008" class="edge">
<title>Node8&#45;&gt;Node1</title>
<g id="a_edge7_Node000001_Node000008"><a xlink:title=" ">
<path fill="none" stroke="#63b8ff" d="M337.52,-502.18C334.5,-466.59 328.24,-404.86 317.75,-352.75 317.39,-350.98 317.03,-349.21 316.66,-347.43"/>
<polygon fill="none" stroke="#63b8ff" points="316.63,-347.28 311.45,-342.27 314.09,-335.56 319.27,-340.57 316.63,-347.28"/>
</a>
</g>
<text text-anchor="middle" x="364.11" y="-365.75" font-family="Helvetica,sans-Serif" font-size="10.00" fill="grey"> #input_var_names</text>
<text text-anchor="middle" x="364.11" y="-354.5" font-family="Helvetica,sans-Serif" font-size="10.00" fill="grey">#output_var_names</text>
</g>
<!-- Node9&#45;&gt;Node8 -->
<g id="edge8_Node000008_Node000009" class="edge">
<title>Node9&#45;&gt;Node8</title>
<g id="a_edge8_Node000008_Node000009"><a xlink:title=" ">
<path fill="none" stroke="#63b8ff" d="M355.93,-741.87C352.9,-702.93 346.82,-624.51 343.03,-575.77"/>
<polygon fill="none" stroke="#63b8ff" points="343.03,-575.72 338.58,-570.05 342.1,-563.76 346.55,-569.43 343.03,-575.72"/>
</a>
</g>
<text text-anchor="middle" x="364.06" y="-702.75" font-family="Helvetica,sans-Serif" font-size="10.00" fill="grey"> +ptr</text>
</g>
<!-- Node10&#45;&gt;Node9 -->
<g id="edge10_Node000009_Node000010" class="edge">
<title>Node10&#45;&gt;Node9</title>
<g id="a_edge10_Node000009_Node000010"><a xlink:title=" ">
<path fill="none" stroke="orange" d="M300.76,-827.91C302.78,-821.41 305.45,-814.89 309,-809.25 313.16,-802.64 318.69,-796.51 324.53,-791.1"/>
<polygon fill="orange" stroke="orange" points="297.48,-826.63 298.35,-837.19 304.25,-828.39 297.48,-826.63"/>
</a>
</g>
<text text-anchor="middle" x="339.38" y="-811" font-family="Helvetica,sans-Serif" font-size="10.00" fill="grey"> &lt; std::string &gt;</text>
</g>
</g>
</svg>

<g id="navigator" transform="translate(0 0)" fill="#404254">
  <rect fill="#f2f5e9" fill-opacity="0.5" stroke="#606060" stroke-width=".5" x="0" y="0" width="60" height="60"/>
  <use id="zoomplus" xlink:href="#zoomPlus" x="17" y="9" onmousedown="handleZoom(evt,'in')"/>
  <use id="zoomminus" xlink:href="#zoomMin" x="42" y="9" onmousedown="handleZoom(evt,'out')"/>
  <use id="reset" xlink:href="#resetDef" x="30" y="36" onmousedown="handleReset()"/>
   <use id="arrowup" xlink:href="#arrowUp" x="0" y="0" onmousedown="handlePan(0,-1)"/>
  <use id="arrowright" xlink:href="#arrowRight" x="0" y="0" onmousedown="handlePan(1,0)"/>
  <use id="arrowdown" xlink:href="#arrowDown" x="0" y="0" onmousedown="handlePan(0,1)"/>
  <use id="arrowleft" xlink:href="#arrowLeft" x="0" y="0" onmousedown="handlePan(-1,0)"/>
</g>
<svg viewBox="0 0 15 15" width="100%" height="30px" preserveAspectRatio="xMaxYMin meet">
 <g id="arrow_out" transform="scale(0.3 0.3)">
  <a xlink:href="classmodels_1_1bmi_1_1_bmi___adapter__coll__graph_org.svg" target="_base">
   <rect id="button" ry="5" rx="5" y="6" x="6" height="38" width="38"
        fill="#f2f5e9" fill-opacity="0.5" stroke="#606060" stroke-width="1.0"/>
   <path id="arrow"
     d="M 11.500037,31.436501 C 11.940474,20.09759 22.043105,11.32322 32.158766,21.979434 L 37.068811,17.246167 C 37.068811,17.246167 37.088388,32 37.088388,32 L 22.160133,31.978069 C 22.160133,31.978069 26.997745,27.140456 26.997745,27.140456 C 18.528582,18.264221 13.291696,25.230495 11.500037,31.436501 z"
     style="fill:#404040;"/>
  </a>
 </g>
</svg>

<style type='text/css'>
<![CDATA[
[data-mouse-over-selected='false'] { opacity: 0.7; }
[data-mouse-over-selected='true']  { opacity: 1.0; }
]]>
</style>
<script type="application/ecmascript"><![CDATA[
document.addEventListener('DOMContentLoaded', (event) => {
  highlightEdges();
  highlightAdjacentNodes();
});
]]></script>
</svg>
