<?xml version="1.0" encoding="UTF-8" standalone="no"?>
<!DOCTYPE svg PUBLIC "-//W3C//DTD SVG 1.1//EN"
 "http://www.w3.org/Graphics/SVG/1.1/DTD/svg11.dtd">
<!-- Generated by graphviz version 12.2.0 (20241103.1931)
 -->
<!-- Title: ngen::sqlite::database Pages: 1 -->
<svg width="145pt" height="513pt"
 viewBox="0.00 0.00 145.12 512.50" xmlns="http://www.w3.org/2000/svg" xmlns:xlink="http://www.w3.org/1999/xlink">
<g id="graph0" class="graph" transform="scale(1 1) rotate(0) translate(4 508.5)">
<title>ngen::sqlite::database</title>
<!-- Node1 -->
<g id="Node000001" class="node">
<title>Node1</title>
<g id="a_Node000001"><a xlink:title=" ">
<polygon fill="#999999" stroke="none" points="105.88,-202.25 4.88,-202.25 4.88,0 105.88,0 105.88,-202.25"/>
<text text-anchor="start" x="8.88" y="-188.75" font-family="Helvetica,sans-Serif" font-size="10.00">ngen::sqlite::database</text>
<text text-anchor="start" x="53.88" y="-173.5" font-family="Helvetica,sans-Serif" font-size="10.00"> </text>
<text text-anchor="start" x="16.31" y="-158.25" font-family="Helvetica,sans-Serif" font-size="10.00">+</text>
<text text-anchor="start" x="33.75" y="-158.25" font-family="Helvetica,sans-Serif" font-size="10.00">database()</text>
<text text-anchor="start" x="16.31" y="-143" font-family="Helvetica,sans-Serif" font-size="10.00">+</text>
<text text-anchor="start" x="33.75" y="-143" font-family="Helvetica,sans-Serif" font-size="10.00">database()</text>
<text text-anchor="start" x="16.31" y="-127.75" font-family="Helvetica,sans-Serif" font-size="10.00">+</text>
<text text-anchor="start" x="33.75" y="-127.75" font-family="Helvetica,sans-Serif" font-size="10.00">operator=()</text>
<text text-anchor="start" x="16.31" y="-112.5" font-family="Helvetica,sans-Serif" font-size="10.00">+</text>
<text text-anchor="start" x="33.75" y="-112.5" font-family="Helvetica,sans-Serif" font-size="10.00">database()</text>
<text text-anchor="start" x="16.31" y="-97.25" font-family="Helvetica,sans-Serif" font-size="10.00">+</text>
<text text-anchor="start" x="33.75" y="-97.25" font-family="Helvetica,sans-Serif" font-size="10.00">operator=()</text>
<text text-anchor="start" x="16.31" y="-82" font-family="Helvetica,sans-Serif" font-size="10.00">+</text>
<text text-anchor="start" x="33.75" y="-82" font-family="Helvetica,sans-Serif" font-size="10.00">~database()</text>
<text text-anchor="start" x="16.31" y="-66.75" font-family="Helvetica,sans-Serif" font-size="10.00">+</text>
<text text-anchor="start" x="33.75" y="-66.75" font-family="Helvetica,sans-Serif" font-size="10.00">database()</text>
<text text-anchor="start" x="16.31" y="-51.5" font-family="Helvetica,sans-Serif" font-size="10.00">+</text>
<text text-anchor="start" x="33.75" y="-51.5" font-family="Helvetica,sans-Serif" font-size="10.00">connection()</text>
<text text-anchor="start" x="16.31" y="-36.25" font-family="Helvetica,sans-Serif" font-size="10.00">+</text>
<text text-anchor="start" x="33.75" y="-36.25" font-family="Helvetica,sans-Serif" font-size="10.00">contains()</text>
<text text-anchor="start" x="16.31" y="-21" font-family="Helvetica,sans-Serif" font-size="10.00">+</text>
<text text-anchor="start" x="33.75" y="-21" font-family="Helvetica,sans-Serif" font-size="10.00">query()</text>
<text text-anchor="start" x="16.31" y="-5.75" font-family="Helvetica,sans-Serif" font-size="10.00">+</text>
<text text-anchor="start" x="33.75" y="-5.75" font-family="Helvetica,sans-Serif" font-size="10.00">query()</text>
<polygon fill="#666666" stroke="#666666" points="4.88,-185 4.88,-185 105.88,-185 105.88,-185 4.88,-185"/>
<polygon fill="#666666" stroke="#666666" points="4.88,-169.75 4.88,-169.75 105.88,-169.75 105.88,-169.75 4.88,-169.75"/>
<polygon fill="none" stroke="#666666" points="4.88,0 4.88,-202.25 105.88,-202.25 105.88,0 4.88,0"/>
</a>
</g>
</g>
<!-- Node2 -->
<g id="Node000002" class="node">
<title>Node2</title>
<g id="a_Node000002"><a xlink:title=" ">
<polygon fill="white" stroke="none" points="110.75,-310.5 0,-310.5 0,-249.5 110.75,-249.5 110.75,-310.5"/>
<text text-anchor="start" x="4" y="-297" font-family="Helvetica,sans-Serif" font-size="10.00">std::unique_ptr&lt; sqlite3,</text>
<text text-anchor="start" x="35.5" y="-285.75" font-family="Helvetica,sans-Serif" font-size="10.00"> deleter &gt;</text>
<text text-anchor="start" x="14.62" y="-270.5" font-family="Helvetica,sans-Serif" font-size="10.00">+</text>
<text text-anchor="start" x="35.25" y="-270.5" font-family="Helvetica,sans-Serif" font-size="10.00">ptr</text>
<text text-anchor="start" x="14.62" y="-255.25" font-family="Helvetica,sans-Serif" font-size="10.00">+</text>
<text text-anchor="start" x="35.25" y="-255.25" font-family="Helvetica,sans-Serif" font-size="10.00">operator&#45;&gt;()</text>
<polygon fill="#666666" stroke="#666666" points="0,-282 0,-282 110.75,-282 110.75,-282 0,-282"/>
<polygon fill="#666666" stroke="#666666" points="0,-266.75 0,-266.75 33.25,-266.75 33.25,-266.75 0,-266.75"/>
<polygon fill="#666666" stroke="#666666" points="33.25,-266.75 33.25,-266.75 110.75,-266.75 110.75,-266.75 33.25,-266.75"/>
<polygon fill="none" stroke="#666666" points="0,-249.5 0,-310.5 110.75,-310.5 110.75,-249.5 0,-249.5"/>
</a>
</g>
</g>
<!-- Node2&#45;&gt;Node1 -->
<g id="edge1_Node000001_Node000002" class="edge">
<title>Node2&#45;&gt;Node1</title>
<g id="a_edge1_Node000001_Node000002"><a xlink:title=" ">
<path fill="none" stroke="#63b8ff" d="M55.38,-249.79C55.38,-239.71 55.38,-227.73 55.38,-215.01"/>
<polygon fill="none" stroke="#63b8ff" points="55.38,-215 51.38,-209 55.38,-203 59.38,-209 55.38,-215"/>
</a>
</g>
<text text-anchor="middle" x="71.12" y="-222" font-family="Helvetica,sans-Serif" font-size="10.00" fill="grey"> &#45;conn_</text>
</g>
<!-- Node3 -->
<g id="Node000003" class="node">
<title>Node3</title>
<g id="a_Node000003"><a xlink:title=" ">
<polygon fill="white" stroke="none" points="102.12,-407.5 8.62,-407.5 8.62,-357.75 102.12,-357.75 102.12,-407.5"/>
<text text-anchor="start" x="12.62" y="-394" font-family="Helvetica,sans-Serif" font-size="10.00">std::unique_ptr&lt; T &gt;</text>
<text text-anchor="start" x="53.88" y="-378.75" font-family="Helvetica,sans-Serif" font-size="10.00"> </text>
<text text-anchor="start" x="18.94" y="-363.5" font-family="Helvetica,sans-Serif" font-size="10.00">+</text>
<text text-anchor="start" x="35.25" y="-363.5" font-family="Helvetica,sans-Serif" font-size="10.00">operator&#45;&gt;()</text>
<polygon fill="#666666" stroke="#666666" points="8.62,-390.25 8.62,-390.25 102.12,-390.25 102.12,-390.25 8.62,-390.25"/>
<polygon fill="#666666" stroke="#666666" points="8.62,-375 8.62,-375 102.12,-375 102.12,-375 8.62,-375"/>
<polygon fill="none" stroke="#666666" points="8.62,-357.75 8.62,-407.5 102.12,-407.5 102.12,-357.75 8.62,-357.75"/>
</a>
</g>
</g>
<!-- Node3&#45;&gt;Node2 -->
<g id="edge2_Node000002_Node000003" class="edge">
<title>Node3&#45;&gt;Node2</title>
<g id="a_edge2_Node000002_Node000003"><a xlink:title=" ">
<path fill="none" stroke="orange" d="M55.38,-346.52C55.38,-334.74 55.38,-321.73 55.38,-310.43"/>
<polygon fill="orange" stroke="orange" points="51.88,-346.26 55.38,-356.26 58.88,-346.26 51.88,-346.26"/>
</a>
</g>
<text text-anchor="middle" x="96.25" y="-330.25" font-family="Helvetica,sans-Serif" font-size="10.00" fill="grey"> &lt; sqlite3, deleter &gt;</text>
</g>
<!-- Node4 -->
<g id="Node000004" class="node">
<title>Node4</title>
<g id="a_Node000004"><a xlink:title=" ">
<polygon fill="white" stroke="none" points="62.38,-504.5 48.38,-504.5 48.38,-454.75 62.38,-454.75 62.38,-504.5"/>
<text text-anchor="start" x="52.38" y="-491" font-family="Helvetica,sans-Serif" font-size="10.00">T</text>
<text text-anchor="start" x="53.88" y="-475.75" font-family="Helvetica,sans-Serif" font-size="10.00"> </text>
<text text-anchor="start" x="53.88" y="-460.5" font-family="Helvetica,sans-Serif" font-size="10.00"> </text>
<polygon fill="#666666" stroke="#666666" points="48.38,-487.25 48.38,-487.25 62.38,-487.25 62.38,-487.25 48.38,-487.25"/>
<polygon fill="#666666" stroke="#666666" points="48.38,-472 48.38,-472 62.38,-472 62.38,-472 48.38,-472"/>
<polygon fill="none" stroke="#666666" points="48.38,-454.75 48.38,-504.5 62.38,-504.5 62.38,-454.75 48.38,-454.75"/>
</a>
</g>
</g>
<!-- Node4&#45;&gt;Node3 -->
<g id="edge3_Node000003_Node000004" class="edge">
<title>Node4&#45;&gt;Node3</title>
<g id="a_edge3_Node000003_Node000004"><a xlink:title=" ">
<path fill="none" stroke="#63b8ff" d="M55.38,-455.14C55.38,-444.6 55.38,-431.92 55.38,-420.19"/>
<polygon fill="none" stroke="#63b8ff" points="55.38,-420.4 51.38,-414.4 55.38,-408.4 59.38,-414.4 55.38,-420.4"/>
</a>
</g>
<text text-anchor="middle" x="65.12" y="-427.25" font-family="Helvetica,sans-Serif" font-size="10.00" fill="grey"> +ptr</text>
</g>
</g>
</svg>
