<?xml version="1.0" encoding="UTF-8" standalone="no"?>
<!DOCTYPE svg PUBLIC "-//W3C//DTD SVG 1.1//EN"
 "http://www.w3.org/Graphics/SVG/1.1/DTD/svg11.dtd">
<!-- Generated by graphviz version 2.44.0 ()
 -->
<!-- Title: HY_CartographicRealization Pages: 1 -->
<!--zoomable 1398 -->
<svg id="main" version="1.1" xmlns="http://www.w3.org/2000/svg" xmlns:xlink="http://www.w3.org/1999/xlink" xml:space="preserve" onload="init(evt)">
<style type="text/css"><![CDATA[
.edge:hover path { stroke: red; }
.edge:hover polygon { stroke: red; fill: red; }
]]></style>
<script type="text/javascript"><![CDATA[
var edges = document.getElementsByTagName('g');
if (edges && edges.length) {
  for (var i=0;i<edges.length;i++) {
    if (edges[i].id.substr(0,4)=='edge') {
      edges[i].setAttribute('class','edge');
    }
  }
}
]]></script>
        <defs>
                <circle id="rim" cx="0" cy="0" r="7"/>
                <circle id="rim2" cx="0" cy="0" r="3.5"/>
                <g id="zoomPlus">
                        <use xlink:href="#rim" fill="#404040">
                                <set attributeName="fill" to="#808080" begin="zoomplus.mouseover" end="zoomplus.mouseout"/>
                        </use>
                        <path d="M-4,0h8M0,-4v8" fill="none" stroke="white" stroke-width="1.5" pointer-events="none"/>
                </g>
                <g id="zoomMin">
                        <use xlink:href="#rim" fill="#404040">
                                <set attributeName="fill" to="#808080" begin="zoomminus.mouseover" end="zoomminus.mouseout"/>
                        </use>
                        <path d="M-4,0h8" fill="none" stroke="white" stroke-width="1.5" pointer-events="none"/>
                </g>
                <g id="dirArrow">
                        <path fill="none" stroke="white" stroke-width="1.5" d="M0,-3.0v7 M-2.5,-0.5L0,-3.0L2.5,-0.5"/>
                </g>
               <g id="resetDef">
                       <use xlink:href="#rim2" fill="#404040">
                               <set attributeName="fill" to="#808080" begin="reset.mouseover" end="reset.mouseout"/>
                       </use>
               </g>
        </defs>

<script type="text/javascript">
var viewWidth = 997;
var viewHeight = 1398;
var sectionId = 'dynsection-1';
</script>
<script xlink:href="svgpan.js"/>
<svg id="graph" class="graph">
<g id="viewport">
<title>HY_CartographicRealization</title>
<polygon fill="white" stroke="transparent" points="-4,4 -4,-1394 992.58,-1394 992.58,4 -4,4"/>
<!-- Node1 -->
<g id="node1" class="node">
<title>Node1</title>
<g id="a_node1"><a xlink:title=" ">
<polygon fill="#bfbfbf" stroke="black" points="632.58,-0.5 632.58,-68.5 790.58,-68.5 790.58,-0.5 632.58,-0.5"/>
<text text-anchor="middle" x="711.58" y="-56.5" font-family="Helvetica,sans-Serif" font-size="10.00">HY_CartographicRealization</text>
<polyline fill="none" stroke="black" points="632.58,-49.5 790.58,-49.5 "/>
<text text-anchor="middle" x="711.58" y="-37.5" font-family="Helvetica,sans-Serif" font-size="10.00"> </text>
<polyline fill="none" stroke="black" points="632.58,-30.5 790.58,-30.5 "/>
<text text-anchor="start" x="640.58" y="-18.5" font-family="Helvetica,sans-Serif" font-size="10.00">+ HY_CartographicRealization()</text>
<text text-anchor="start" x="640.58" y="-7.5" font-family="Helvetica,sans-Serif" font-size="10.00">+ ~HY_CartographicRealization()</text>
</a>
</g>
</g>
<!-- Node2 -->
<g id="node2" class="node">
<title>Node2</title>
<g id="a_node2"><a xlink:href="class_h_y___catchment_realization.html" target="_top" xlink:title=" ">
<polygon fill="white" stroke="black" points="636.58,-106.5 636.58,-229.5 786.58,-229.5 786.58,-106.5 636.58,-106.5"/>
<text text-anchor="middle" x="711.58" y="-217.5" font-family="Helvetica,sans-Serif" font-size="10.00">HY_CatchmentRealization</text>
<polyline fill="none" stroke="black" points="636.58,-210.5 786.58,-210.5 "/>
<text text-anchor="start" x="644.58" y="-198.5" font-family="Helvetica,sans-Serif" font-size="10.00"># id_number</text>
<polyline fill="none" stroke="black" points="636.58,-191.5 786.58,-191.5 "/>
<text text-anchor="start" x="644.58" y="-179.5" font-family="Helvetica,sans-Serif" font-size="10.00">+ HY_CatchmentRealization()</text>
<text text-anchor="start" x="644.58" y="-168.5" font-family="Helvetica,sans-Serif" font-size="10.00">+ HY_CatchmentRealization()</text>
<text text-anchor="start" x="644.58" y="-157.5" font-family="Helvetica,sans-Serif" font-size="10.00">+ HY_CatchmentRealization()</text>
<text text-anchor="start" x="644.58" y="-146.5" font-family="Helvetica,sans-Serif" font-size="10.00">+ ~HY_CatchmentRealization()</text>
<text text-anchor="start" x="644.58" y="-135.5" font-family="Helvetica,sans-Serif" font-size="10.00">+ get_response()</text>
<text text-anchor="start" x="644.58" y="-124.5" font-family="Helvetica,sans-Serif" font-size="10.00"># get_catchment_id()</text>
<text text-anchor="start" x="644.58" y="-113.5" font-family="Helvetica,sans-Serif" font-size="10.00"># set_catchment_id()</text>
</a>
</g>
</g>
<!-- Node2&#45;&gt;Node1 -->
<g id="edge1" class="edge">
<title>Node2&#45;&gt;Node1</title>
<path fill="none" stroke="midnightblue" d="M711.58,-96.24C711.58,-86.65 711.58,-77.21 711.58,-68.73"/>
<polygon fill="none" stroke="midnightblue" points="708.08,-96.25 711.58,-106.25 715.08,-96.25 708.08,-96.25"/>
</g>
<!-- Node3 -->
<g id="node3" class="node">
<title>Node3</title>
<g id="a_node3"><a xlink:title=" ">
<polygon fill="white" stroke="#bfbfbf" points="864.08,-782.5 864.08,-850.5 967.08,-850.5 967.08,-782.5 864.08,-782.5"/>
<text text-anchor="start" x="872.08" y="-838.5" font-family="Helvetica,sans-Serif" font-size="10.00">std::shared_ptr&lt; HY</text>
<text text-anchor="middle" x="915.58" y="-827.5" font-family="Helvetica,sans-Serif" font-size="10.00">_Catchment &gt;</text>
<polyline fill="none" stroke="#bfbfbf" points="864.08,-820.5 967.08,-820.5 "/>
<text text-anchor="start" x="872.08" y="-808.5" font-family="Helvetica,sans-Serif" font-size="10.00">+ ptr</text>
<polyline fill="none" stroke="#bfbfbf" points="864.08,-801.5 967.08,-801.5 "/>
<text text-anchor="start" x="872.08" y="-789.5" font-family="Helvetica,sans-Serif" font-size="10.00">+ operator&#45;&gt;()</text>
</a>
</g>
</g>
<!-- Node3&#45;&gt;Node2 -->
<g id="edge2" class="edge">
<title>Node3&#45;&gt;Node2</title>
<path fill="none" stroke="#404040" d="M905.04,-782.1C873.35,-681.67 778.39,-380.75 734.41,-241.35"/>
<polygon fill="none" stroke="#404040" points="734.3,-241.03 728.68,-236.51 730.69,-229.58 736.31,-234.1 734.3,-241.03"/>
<text text-anchor="middle" x="942.58" y="-518" font-family="Helvetica,sans-Serif" font-size="10.00"> #realized_catchment</text>
</g>
<!-- Node4 -->
<g id="node4" class="node">
<title>Node4</title>
<g id="a_node4"><a xlink:title=" ">
<polygon fill="white" stroke="#bfbfbf" points="650.08,-1145 650.08,-1202 753.08,-1202 753.08,-1145 650.08,-1145"/>
<text text-anchor="middle" x="701.58" y="-1190" font-family="Helvetica,sans-Serif" font-size="10.00">std::shared_ptr&lt; T &gt;</text>
<polyline fill="none" stroke="#bfbfbf" points="650.08,-1183 753.08,-1183 "/>
<text text-anchor="middle" x="701.58" y="-1171" font-family="Helvetica,sans-Serif" font-size="10.00"> </text>
<polyline fill="none" stroke="#bfbfbf" points="650.08,-1164 753.08,-1164 "/>
<text text-anchor="start" x="658.08" y="-1152" font-family="Helvetica,sans-Serif" font-size="10.00">+ operator&#45;&gt;()</text>
</a>
</g>
</g>
<!-- Node4&#45;&gt;Node3 -->
<g id="edge3" class="edge">
<title>Node4&#45;&gt;Node3</title>
<path fill="none" stroke="orange" d="M762.7,-1147.78C811.7,-1124.36 877.28,-1084.08 908.58,-1026 938.56,-970.36 930.92,-893.7 923.02,-850.52"/>
<polygon fill="orange" stroke="orange" points="761.02,-1144.7 753.44,-1152.1 763.98,-1151.04 761.02,-1144.7"/>
<text text-anchor="middle" x="938.58" y="-1047" font-family="Helvetica,sans-Serif" font-size="10.00"> &lt; HY_Catchment &gt;</text>
</g>
<!-- Node14 -->
<g id="node14" class="node">
<title>Node14</title>
<g id="a_node14"><a xlink:title=" ">
<polygon fill="white" stroke="#bfbfbf" points="648.08,-913.5 648.08,-981.5 755.08,-981.5 755.08,-913.5 648.08,-913.5"/>
<text text-anchor="start" x="656.08" y="-969.5" font-family="Helvetica,sans-Serif" font-size="10.00">std::shared_ptr&lt; time</text>
<text text-anchor="middle" x="701.58" y="-958.5" font-family="Helvetica,sans-Serif" font-size="10.00">_type &gt;</text>
<polyline fill="none" stroke="#bfbfbf" points="648.08,-951.5 755.08,-951.5 "/>
<text text-anchor="start" x="656.08" y="-939.5" font-family="Helvetica,sans-Serif" font-size="10.00">+ ptr</text>
<polyline fill="none" stroke="#bfbfbf" points="648.08,-932.5 755.08,-932.5 "/>
<text text-anchor="start" x="656.08" y="-920.5" font-family="Helvetica,sans-Serif" font-size="10.00">+ operator&#45;&gt;()</text>
</a>
</g>
</g>
<!-- Node4&#45;&gt;Node14 -->
<g id="edge16" class="edge">
<title>Node4&#45;&gt;Node14</title>
<path fill="none" stroke="orange" d="M701.58,-1134.52C701.58,-1091.57 701.58,-1022.3 701.58,-981.51"/>
<polygon fill="orange" stroke="orange" points="698.08,-1134.58 701.58,-1144.58 705.08,-1134.58 698.08,-1134.58"/>
<text text-anchor="middle" x="732.08" y="-1047" font-family="Helvetica,sans-Serif" font-size="10.00"> &lt; time_type &gt;</text>
</g>
<!-- Node5 -->
<g id="node5" class="node">
<title>Node5</title>
<g id="a_node5"><a xlink:title=" ">
<polygon fill="white" stroke="#bfbfbf" points="480.08,-1327 480.08,-1384 509.08,-1384 509.08,-1327 480.08,-1327"/>
<text text-anchor="middle" x="494.58" y="-1372" font-family="Helvetica,sans-Serif" font-size="10.00">T</text>
<polyline fill="none" stroke="#bfbfbf" points="480.08,-1365 509.08,-1365 "/>
<text text-anchor="middle" x="494.58" y="-1353" font-family="Helvetica,sans-Serif" font-size="10.00"> </text>
<polyline fill="none" stroke="#bfbfbf" points="480.08,-1346 509.08,-1346 "/>
<text text-anchor="middle" x="494.58" y="-1334" font-family="Helvetica,sans-Serif" font-size="10.00"> </text>
</a>
</g>
</g>
<!-- Node5&#45;&gt;Node4 -->
<g id="edge4" class="edge">
<title>Node5&#45;&gt;Node4</title>
<path fill="none" stroke="#404040" d="M509.41,-1349.28C537.71,-1338.74 600.18,-1312.58 640.58,-1274 658.67,-1256.72 673.5,-1232.97 684,-1213"/>
<polygon fill="none" stroke="#404040" points="684.12,-1212.78 683.26,-1205.62 689.53,-1202.07 690.4,-1209.23 684.12,-1212.78"/>
<text text-anchor="middle" x="625.58" y="-1295" font-family="Helvetica,sans-Serif" font-size="10.00"> +ptr</text>
</g>
<!-- Node10 -->
<g id="node10" class="node">
<title>Node10</title>
<g id="a_node10"><a xlink:title=" ">
<polygon fill="white" stroke="#bfbfbf" points="359.58,-1145 359.58,-1202 443.58,-1202 443.58,-1145 359.58,-1145"/>
<text text-anchor="middle" x="401.58" y="-1190" font-family="Helvetica,sans-Serif" font-size="10.00">std::vector&lt; T &gt;</text>
<polyline fill="none" stroke="#bfbfbf" points="359.58,-1183 443.58,-1183 "/>
<text text-anchor="middle" x="401.58" y="-1171" font-family="Helvetica,sans-Serif" font-size="10.00"> </text>
<polyline fill="none" stroke="#bfbfbf" points="359.58,-1164 443.58,-1164 "/>
<text text-anchor="middle" x="401.58" y="-1152" font-family="Helvetica,sans-Serif" font-size="10.00"> </text>
</a>
</g>
</g>
<!-- Node5&#45;&gt;Node10 -->
<g id="edge10" class="edge">
<title>Node5&#45;&gt;Node10</title>
<path fill="none" stroke="#404040" d="M480.25,-1326.77C464.55,-1296.38 439.25,-1247.41 421.59,-1213.24"/>
<polygon fill="none" stroke="#404040" points="421.43,-1212.92 415.12,-1209.43 415.92,-1202.26 422.23,-1205.76 421.43,-1212.92"/>
<text text-anchor="middle" x="492.08" y="-1295" font-family="Helvetica,sans-Serif" font-size="10.00"> +elements</text>
</g>
<!-- Node6 -->
<g id="node6" class="node">
<title>Node6</title>
<g id="a_node6"><a xlink:href="class_forcing.html" target="_top" xlink:title="Forcing class providing time&#45;series precipiation forcing data to the model.">
<polygon fill="white" stroke="black" points="439.08,-277.5 439.08,-763.5 576.08,-763.5 576.08,-277.5 439.08,-277.5"/>
<text text-anchor="middle" x="507.58" y="-751.5" font-family="Helvetica,sans-Serif" font-size="10.00">Forcing</text>
<polyline fill="none" stroke="black" points="439.08,-744.5 576.08,-744.5 "/>
<text text-anchor="start" x="447.08" y="-732.5" font-family="Helvetica,sans-Serif" font-size="10.00">&#45; is_aorc_data</text>
<text text-anchor="start" x="447.08" y="-721.5" font-family="Helvetica,sans-Serif" font-size="10.00">&#45; forcing_vector_index</text>
<text text-anchor="start" x="447.08" y="-710.5" font-family="Helvetica,sans-Serif" font-size="10.00">&#45; precipitation_rate</text>
<text text-anchor="start" x="447.08" y="-699.5" font-family="Helvetica,sans-Serif" font-size="10.00">_meters_per_second</text>
<text text-anchor="start" x="447.08" y="-688.5" font-family="Helvetica,sans-Serif" font-size="10.00">&#45; air_temperature_fahrenheit</text>
<text text-anchor="start" x="447.08" y="-677.5" font-family="Helvetica,sans-Serif" font-size="10.00">&#45; latitude</text>
<text text-anchor="start" x="447.08" y="-666.5" font-family="Helvetica,sans-Serif" font-size="10.00">&#45; longitude</text>
<text text-anchor="start" x="447.08" y="-655.5" font-family="Helvetica,sans-Serif" font-size="10.00">&#45; catchment_id</text>
<text text-anchor="start" x="447.08" y="-644.5" font-family="Helvetica,sans-Serif" font-size="10.00">&#45; day_of_year</text>
<text text-anchor="start" x="447.08" y="-633.5" font-family="Helvetica,sans-Serif" font-size="10.00">&#45; start_date_time_epoch</text>
<text text-anchor="start" x="447.08" y="-622.5" font-family="Helvetica,sans-Serif" font-size="10.00">&#45; end_date_time_epoch</text>
<text text-anchor="start" x="447.08" y="-611.5" font-family="Helvetica,sans-Serif" font-size="10.00">&#45; current_date_time_epoch</text>
<polyline fill="none" stroke="black" points="439.08,-604.5 576.08,-604.5 "/>
<text text-anchor="start" x="447.08" y="-592.5" font-family="Helvetica,sans-Serif" font-size="10.00">+ Forcing()</text>
<text text-anchor="start" x="447.08" y="-581.5" font-family="Helvetica,sans-Serif" font-size="10.00">+ Forcing()</text>
<text text-anchor="start" x="447.08" y="-570.5" font-family="Helvetica,sans-Serif" font-size="10.00">+ Forcing()</text>
<text text-anchor="start" x="447.08" y="-559.5" font-family="Helvetica,sans-Serif" font-size="10.00">+ get_aorc_for_index()</text>
<text text-anchor="start" x="447.08" y="-548.5" font-family="Helvetica,sans-Serif" font-size="10.00">+ get_available_forcing</text>
<text text-anchor="start" x="447.08" y="-537.5" font-family="Helvetica,sans-Serif" font-size="10.00">_outputs()</text>
<text text-anchor="start" x="447.08" y="-526.5" font-family="Helvetica,sans-Serif" font-size="10.00">+ get_converted_value</text>
<text text-anchor="start" x="447.08" y="-515.5" font-family="Helvetica,sans-Serif" font-size="10.00">_for_param_in_units()</text>
<text text-anchor="start" x="447.08" y="-504.5" font-family="Helvetica,sans-Serif" font-size="10.00">+ get_converted_value</text>
<text text-anchor="start" x="447.08" y="-493.5" font-family="Helvetica,sans-Serif" font-size="10.00">_for_param_in_units()</text>
<text text-anchor="start" x="447.08" y="-482.5" font-family="Helvetica,sans-Serif" font-size="10.00">+ get_forcing_output</text>
<text text-anchor="start" x="447.08" y="-471.5" font-family="Helvetica,sans-Serif" font-size="10.00">_time_begin()</text>
<text text-anchor="start" x="447.08" y="-460.5" font-family="Helvetica,sans-Serif" font-size="10.00">+ get_forcing_output</text>
<text text-anchor="start" x="447.08" y="-449.5" font-family="Helvetica,sans-Serif" font-size="10.00">_time_end()</text>
<text text-anchor="start" x="447.08" y="-438.5" font-family="Helvetica,sans-Serif" font-size="10.00">+ get_ts_index_for_time()</text>
<text text-anchor="start" x="447.08" y="-427.5" font-family="Helvetica,sans-Serif" font-size="10.00">+ get_value()</text>
<text text-anchor="start" x="447.08" y="-416.5" font-family="Helvetica,sans-Serif" font-size="10.00">+ get_value_for_param</text>
<text text-anchor="start" x="447.08" y="-405.5" font-family="Helvetica,sans-Serif" font-size="10.00">_name()</text>
<text text-anchor="start" x="447.08" y="-394.5" font-family="Helvetica,sans-Serif" font-size="10.00">+ get_value_for_param</text>
<text text-anchor="start" x="447.08" y="-383.5" font-family="Helvetica,sans-Serif" font-size="10.00">_name()</text>
<text text-anchor="start" x="447.08" y="-372.5" font-family="Helvetica,sans-Serif" font-size="10.00">+ check_forcing_vector</text>
<text text-anchor="start" x="447.08" y="-361.5" font-family="Helvetica,sans-Serif" font-size="10.00">_index_bounds()</text>
<text text-anchor="start" x="447.08" y="-350.5" font-family="Helvetica,sans-Serif" font-size="10.00">+ get_current_hourly</text>
<text text-anchor="start" x="447.08" y="-339.5" font-family="Helvetica,sans-Serif" font-size="10.00">_precipitation_meters</text>
<text text-anchor="start" x="447.08" y="-328.5" font-family="Helvetica,sans-Serif" font-size="10.00">_per_second()</text>
<text text-anchor="start" x="447.08" y="-317.5" font-family="Helvetica,sans-Serif" font-size="10.00">and 16 more...</text>
<text text-anchor="start" x="447.08" y="-306.5" font-family="Helvetica,sans-Serif" font-size="10.00">+ get_forcing_field_names()</text>
<text text-anchor="start" x="447.08" y="-295.5" font-family="Helvetica,sans-Serif" font-size="10.00">&#45; read_forcing()</text>
<text text-anchor="start" x="447.08" y="-284.5" font-family="Helvetica,sans-Serif" font-size="10.00">&#45; read_forcing_aorc()</text>
</a>
</g>
</g>
<!-- Node6&#45;&gt;Node2 -->
<g id="edge5" class="edge">
<title>Node6&#45;&gt;Node2</title>
<path fill="none" stroke="#404040" d="M576.36,-401.33C607.48,-347.86 643.23,-286.43 670.15,-240.17"/>
<polygon fill="none" stroke="#404040" points="670.24,-240.02 669.8,-232.82 676.28,-229.65 676.72,-236.85 670.24,-240.02"/>
<text text-anchor="middle" x="680.08" y="-251" font-family="Helvetica,sans-Serif" font-size="10.00"> #forcing</text>
</g>
<!-- Node7 -->
<g id="node7" class="node">
<title>Node7</title>
<g id="a_node7"><a xlink:href="classforcing_1_1_forcing_provider.html" target="_top" xlink:title="An abstraction interface for types that provides forcing data.">
<polygon fill="white" stroke="black" points="773.58,-869.5 773.58,-1025.5 899.58,-1025.5 899.58,-869.5 773.58,-869.5"/>
<text text-anchor="middle" x="836.58" y="-1013.5" font-family="Helvetica,sans-Serif" font-size="10.00">forcing::ForcingProvider</text>
<polyline fill="none" stroke="black" points="773.58,-1006.5 899.58,-1006.5 "/>
<text text-anchor="middle" x="836.58" y="-994.5" font-family="Helvetica,sans-Serif" font-size="10.00"> </text>
<polyline fill="none" stroke="black" points="773.58,-987.5 899.58,-987.5 "/>
<text text-anchor="start" x="781.58" y="-975.5" font-family="Helvetica,sans-Serif" font-size="10.00">+ get_available_forcing</text>
<text text-anchor="start" x="781.58" y="-964.5" font-family="Helvetica,sans-Serif" font-size="10.00">_outputs()</text>
<text text-anchor="start" x="781.58" y="-953.5" font-family="Helvetica,sans-Serif" font-size="10.00">+ get_forcing_output</text>
<text text-anchor="start" x="781.58" y="-942.5" font-family="Helvetica,sans-Serif" font-size="10.00">_time_begin()</text>
<text text-anchor="start" x="781.58" y="-931.5" font-family="Helvetica,sans-Serif" font-size="10.00">+ get_forcing_output</text>
<text text-anchor="start" x="781.58" y="-920.5" font-family="Helvetica,sans-Serif" font-size="10.00">_time_end()</text>
<text text-anchor="start" x="781.58" y="-909.5" font-family="Helvetica,sans-Serif" font-size="10.00">+ get_ts_index_for_time()</text>
<text text-anchor="start" x="781.58" y="-898.5" font-family="Helvetica,sans-Serif" font-size="10.00">+ get_value()</text>
<text text-anchor="start" x="781.58" y="-887.5" font-family="Helvetica,sans-Serif" font-size="10.00">+ is_property_sum_over</text>
<text text-anchor="start" x="781.58" y="-876.5" font-family="Helvetica,sans-Serif" font-size="10.00">_time_step()</text>
</a>
</g>
</g>
<!-- Node7&#45;&gt;Node6 -->
<g id="edge6" class="edge">
<title>Node7&#45;&gt;Node6</title>
<path fill="none" stroke="midnightblue" d="M783.74,-860.71C767.08,-834.93 748.16,-806.9 729.58,-782 681.24,-717.24 621.6,-647.77 576.32,-596.87"/>
<polygon fill="none" stroke="midnightblue" points="780.95,-862.83 789.3,-869.35 786.84,-859.05 780.95,-862.83"/>
</g>
<!-- Node8 -->
<g id="node8" class="node">
<title>Node8</title>
<g id="a_node8"><a xlink:title=" ">
<polygon fill="white" stroke="#bfbfbf" points="499.58,-919 499.58,-976 629.58,-976 629.58,-919 499.58,-919"/>
<text text-anchor="middle" x="564.58" y="-964" font-family="Helvetica,sans-Serif" font-size="10.00">std::vector&lt; AORC_data &gt;</text>
<polyline fill="none" stroke="#bfbfbf" points="499.58,-957 629.58,-957 "/>
<text text-anchor="middle" x="564.58" y="-945" font-family="Helvetica,sans-Serif" font-size="10.00"> </text>
<polyline fill="none" stroke="#bfbfbf" points="499.58,-938 629.58,-938 "/>
<text text-anchor="middle" x="564.58" y="-926" font-family="Helvetica,sans-Serif" font-size="10.00"> </text>
</a>
</g>
</g>
<!-- Node8&#45;&gt;Node6 -->
<g id="edge7" class="edge">
<title>Node8&#45;&gt;Node6</title>
<path fill="none" stroke="#404040" d="M560.88,-918.94C556.71,-887.84 549.48,-833.93 541.66,-775.67"/>
<polygon fill="none" stroke="#404040" points="541.64,-775.46 536.88,-770.05 540.04,-763.57 544.8,-768.98 541.64,-775.46"/>
<text text-anchor="middle" x="584.58" y="-814" font-family="Helvetica,sans-Serif" font-size="10.00"> &#45;AORC_vector</text>
</g>
<!-- Node9 -->
<g id="node9" class="node">
<title>Node9</title>
<g id="a_node9"><a xlink:href="struct_a_o_r_c__data.html" target="_top" xlink:title=" ">
<polygon fill="white" stroke="black" points="498.08,-1073.5 498.08,-1273.5 631.08,-1273.5 631.08,-1073.5 498.08,-1073.5"/>
<text text-anchor="middle" x="564.58" y="-1261.5" font-family="Helvetica,sans-Serif" font-size="10.00">AORC_data</text>
<polyline fill="none" stroke="black" points="498.08,-1254.5 631.08,-1254.5 "/>
<text text-anchor="start" x="506.08" y="-1242.5" font-family="Helvetica,sans-Serif" font-size="10.00">+ APCP_surface_kg_per</text>
<text text-anchor="start" x="506.08" y="-1231.5" font-family="Helvetica,sans-Serif" font-size="10.00">_meters_squared</text>
<text text-anchor="start" x="506.08" y="-1220.5" font-family="Helvetica,sans-Serif" font-size="10.00">+ DLWRF_surface_W_per</text>
<text text-anchor="start" x="506.08" y="-1209.5" font-family="Helvetica,sans-Serif" font-size="10.00">_meters_squared</text>
<text text-anchor="start" x="506.08" y="-1198.5" font-family="Helvetica,sans-Serif" font-size="10.00">+ DSWRF_surface_W_per</text>
<text text-anchor="start" x="506.08" y="-1187.5" font-family="Helvetica,sans-Serif" font-size="10.00">_meters_squared</text>
<text text-anchor="start" x="506.08" y="-1176.5" font-family="Helvetica,sans-Serif" font-size="10.00">+ PRES_surface_Pa</text>
<text text-anchor="start" x="506.08" y="-1165.5" font-family="Helvetica,sans-Serif" font-size="10.00">+ SPFH_2maboveground</text>
<text text-anchor="start" x="506.08" y="-1154.5" font-family="Helvetica,sans-Serif" font-size="10.00">_kg_per_kg</text>
<text text-anchor="start" x="506.08" y="-1143.5" font-family="Helvetica,sans-Serif" font-size="10.00">+ TMP_2maboveground_K</text>
<text text-anchor="start" x="506.08" y="-1132.5" font-family="Helvetica,sans-Serif" font-size="10.00">+ UGRD_10maboveground</text>
<text text-anchor="start" x="506.08" y="-1121.5" font-family="Helvetica,sans-Serif" font-size="10.00">_meters_per_second</text>
<text text-anchor="start" x="506.08" y="-1110.5" font-family="Helvetica,sans-Serif" font-size="10.00">+ VGRD_10maboveground</text>
<text text-anchor="start" x="506.08" y="-1099.5" font-family="Helvetica,sans-Serif" font-size="10.00">_meters_per_second</text>
<polyline fill="none" stroke="black" points="498.08,-1092.5 631.08,-1092.5 "/>
<text text-anchor="middle" x="564.58" y="-1080.5" font-family="Helvetica,sans-Serif" font-size="10.00"> </text>
</a>
</g>
</g>
<!-- Node9&#45;&gt;Node8 -->
<g id="edge8" class="edge">
<title>Node9&#45;&gt;Node8</title>
<path fill="none" stroke="#404040" d="M564.58,-1073.27C564.58,-1043.32 564.58,-1012.12 564.58,-988.42"/>
<polygon fill="none" stroke="#404040" points="564.58,-988.42 560.58,-982.42 564.58,-976.42 568.58,-982.42 564.58,-988.42"/>
<text text-anchor="middle" x="589.08" y="-1047" font-family="Helvetica,sans-Serif" font-size="10.00"> +elements</text>
</g>
<!-- Node10&#45;&gt;Node8 -->
<g id="edge9" class="edge">
<title>Node10&#45;&gt;Node8</title>
<path fill="none" stroke="orange" d="M425.39,-1136.39C442.75,-1110.4 467.08,-1074.65 489.58,-1044 506.66,-1020.72 526.94,-995 542.1,-976.13"/>
<polygon fill="orange" stroke="orange" points="422.41,-1134.55 419.78,-1144.81 428.23,-1138.43 422.41,-1134.55"/>
<text text-anchor="middle" x="525.08" y="-1047" font-family="Helvetica,sans-Serif" font-size="10.00"> &lt; AORC_data &gt;</text>
</g>
<!-- Node11 -->
<g id="node11" class="node">
<title>Node11</title>
<g id="a_node11"><a xlink:title=" ">
<polygon fill="white" stroke="#bfbfbf" points="376.08,-919 376.08,-976 481.08,-976 481.08,-919 376.08,-919"/>
<text text-anchor="middle" x="428.58" y="-964" font-family="Helvetica,sans-Serif" font-size="10.00">std::vector&lt; time_t &gt;</text>
<polyline fill="none" stroke="#bfbfbf" points="376.08,-957 481.08,-957 "/>
<text text-anchor="start" x="384.08" y="-945" font-family="Helvetica,sans-Serif" font-size="10.00">+ elements</text>
<polyline fill="none" stroke="#bfbfbf" points="376.08,-938 481.08,-938 "/>
<text text-anchor="middle" x="428.58" y="-926" font-family="Helvetica,sans-Serif" font-size="10.00"> </text>
</a>
</g>
</g>
<!-- Node10&#45;&gt;Node11 -->
<g id="edge12" class="edge">
<title>Node10&#45;&gt;Node11</title>
<path fill="none" stroke="orange" d="M399.32,-1134.7C398.42,-1109.01 398.41,-1074.3 402.58,-1044 405.79,-1020.68 413.01,-994.97 419.03,-976.1"/>
<polygon fill="orange" stroke="orange" points="395.83,-1134.93 399.74,-1144.78 402.82,-1134.64 395.83,-1134.93"/>
<text text-anchor="middle" x="425.58" y="-1047" font-family="Helvetica,sans-Serif" font-size="10.00"> &lt; time_t &gt;</text>
</g>
<!-- Node15 -->
<g id="node15" class="node">
<title>Node15</title>
<g id="a_node15"><a xlink:title=" ">
<polygon fill="white" stroke="#bfbfbf" points="112.58,-919 112.58,-976 232.58,-976 232.58,-919 112.58,-919"/>
<text text-anchor="middle" x="172.58" y="-964" font-family="Helvetica,sans-Serif" font-size="10.00">std::vector&lt; std::string &gt;</text>
<polyline fill="none" stroke="#bfbfbf" points="112.58,-957 232.58,-957 "/>
<text text-anchor="middle" x="172.58" y="-945" font-family="Helvetica,sans-Serif" font-size="10.00"> </text>
<polyline fill="none" stroke="#bfbfbf" points="112.58,-938 232.58,-938 "/>
<text text-anchor="middle" x="172.58" y="-926" font-family="Helvetica,sans-Serif" font-size="10.00"> </text>
</a>
</g>
</g>
<!-- Node10&#45;&gt;Node15 -->
<g id="edge19" class="edge">
<title>Node10&#45;&gt;Node15</title>
<path fill="none" stroke="orange" d="M361.77,-1138.09C328.75,-1109.06 280.99,-1065.97 241.58,-1026 225.77,-1009.97 208.94,-991.11 195.87,-976.02"/>
<polygon fill="orange" stroke="orange" points="359.59,-1140.83 369.42,-1144.79 364.2,-1135.56 359.59,-1140.83"/>
<text text-anchor="middle" x="298.08" y="-1047" font-family="Helvetica,sans-Serif" font-size="10.00"> &lt; std::string &gt;</text>
</g>
<!-- Node16 -->
<g id="node16" class="node">
<title>Node16</title>
<g id="a_node16"><a xlink:title=" ">
<polygon fill="white" stroke="#bfbfbf" points="251.08,-919 251.08,-976 358.08,-976 358.08,-919 251.08,-919"/>
<text text-anchor="middle" x="304.58" y="-964" font-family="Helvetica,sans-Serif" font-size="10.00">std::vector&lt; double &gt;</text>
<polyline fill="none" stroke="#bfbfbf" points="251.08,-957 358.08,-957 "/>
<text text-anchor="start" x="259.08" y="-945" font-family="Helvetica,sans-Serif" font-size="10.00">+ elements</text>
<polyline fill="none" stroke="#bfbfbf" points="251.08,-938 358.08,-938 "/>
<text text-anchor="middle" x="304.58" y="-926" font-family="Helvetica,sans-Serif" font-size="10.00"> </text>
</a>
</g>
</g>
<!-- Node10&#45;&gt;Node16 -->
<g id="edge21" class="edge">
<title>Node10&#45;&gt;Node16</title>
<path fill="none" stroke="orange" d="M384.85,-1135.13C374.57,-1112.08 361.2,-1081.87 349.58,-1055 338.02,-1028.29 325.12,-997.67 316.1,-976.14"/>
<polygon fill="orange" stroke="orange" points="381.78,-1136.84 389.05,-1144.54 388.17,-1133.99 381.78,-1136.84"/>
<text text-anchor="middle" x="373.58" y="-1047" font-family="Helvetica,sans-Serif" font-size="10.00"> &lt; double &gt;</text>
</g>
<!-- Node11&#45;&gt;Node6 -->
<g id="edge11" class="edge">
<title>Node11&#45;&gt;Node6</title>
<path fill="none" stroke="#404040" d="M431.83,-918.75C435.82,-885.97 443.1,-829.85 451.58,-782 451.94,-779.93 452.32,-777.84 452.69,-775.75"/>
<polygon fill="none" stroke="#404040" points="452.74,-775.5 449.88,-768.88 454.9,-763.7 457.75,-770.32 452.74,-775.5"/>
<text text-anchor="middle" x="495.58" y="-814" font-family="Helvetica,sans-Serif" font-size="10.00"> &#45;time_epoch_vector</text>
</g>
<!-- Node12 -->
<g id="node12" class="node">
<title>Node12</title>
<g id="a_node12"><a xlink:title=" ">
<polygon fill="white" stroke="#bfbfbf" points="23.08,-1145 23.08,-1202 82.08,-1202 82.08,-1145 23.08,-1145"/>
<text text-anchor="middle" x="52.58" y="-1190" font-family="Helvetica,sans-Serif" font-size="10.00">std::string</text>
<polyline fill="none" stroke="#bfbfbf" points="23.08,-1183 82.08,-1183 "/>
<text text-anchor="middle" x="52.58" y="-1171" font-family="Helvetica,sans-Serif" font-size="10.00"> </text>
<polyline fill="none" stroke="#bfbfbf" points="23.08,-1164 82.08,-1164 "/>
<text text-anchor="middle" x="52.58" y="-1152" font-family="Helvetica,sans-Serif" font-size="10.00"> </text>
</a>
</g>
</g>
<!-- Node12&#45;&gt;Node6 -->
<g id="edge13" class="edge">
<title>Node12&#45;&gt;Node6</title>
<path fill="none" stroke="#404040" d="M40.09,-1144.66C17.05,-1088.87 -25.66,-960.85 21.58,-869 107.09,-702.74 313.12,-598.33 427.56,-551.1"/>
<polygon fill="none" stroke="#404040" points="427.57,-551.1 431.61,-545.13 438.68,-546.57 434.63,-552.54 427.57,-551.1"/>
<text text-anchor="middle" x="62.58" y="-945" font-family="Helvetica,sans-Serif" font-size="10.00"> &#45;forcing_file_name</text>
</g>
<!-- Node12&#45;&gt;Node15 -->
<g id="edge18" class="edge">
<title>Node12&#45;&gt;Node15</title>
<path fill="none" stroke="#404040" d="M67.53,-1144.58C88.85,-1104.8 128.03,-1031.65 152.05,-986.82"/>
<polygon fill="none" stroke="#404040" points="152.14,-986.64 151.45,-979.46 157.81,-976.06 158.5,-983.24 152.14,-986.64"/>
<text text-anchor="middle" x="145.08" y="-1047" font-family="Helvetica,sans-Serif" font-size="10.00"> +elements</text>
</g>
<!-- Node13 -->
<g id="node13" class="node">
<title>Node13</title>
<g id="a_node13"><a xlink:title=" ">
<polygon fill="white" stroke="#bfbfbf" points="6.08,-1321.5 6.08,-1389.5 99.08,-1389.5 99.08,-1321.5 6.08,-1321.5"/>
<text text-anchor="start" x="14.08" y="-1377.5" font-family="Helvetica,sans-Serif" font-size="10.00">std::basic_string&lt;</text>
<text text-anchor="middle" x="52.58" y="-1366.5" font-family="Helvetica,sans-Serif" font-size="10.00"> Char &gt;</text>
<polyline fill="none" stroke="#bfbfbf" points="6.08,-1359.5 99.08,-1359.5 "/>
<text text-anchor="middle" x="52.58" y="-1347.5" font-family="Helvetica,sans-Serif" font-size="10.00"> </text>
<polyline fill="none" stroke="#bfbfbf" points="6.08,-1340.5 99.08,-1340.5 "/>
<text text-anchor="middle" x="52.58" y="-1328.5" font-family="Helvetica,sans-Serif" font-size="10.00"> </text>
</a>
</g>
</g>
<!-- Node13&#45;&gt;Node12 -->
<g id="edge14" class="edge">
<title>Node13&#45;&gt;Node12</title>
<path fill="none" stroke="midnightblue" d="M52.58,-1311.38C52.58,-1277.41 52.58,-1231.1 52.58,-1202"/>
<polygon fill="none" stroke="midnightblue" points="49.08,-1311.49 52.58,-1321.49 56.08,-1311.49 49.08,-1311.49"/>
</g>
<!-- Node14&#45;&gt;Node6 -->
<g id="edge15" class="edge">
<title>Node14&#45;&gt;Node6</title>
<path fill="none" stroke="#404040" d="M686.35,-913.15C663.76,-863.66 619.87,-767.5 581.23,-682.85"/>
<polygon fill="none" stroke="#404040" points="581.16,-682.7 575.03,-678.91 576.18,-671.79 582.31,-675.58 581.16,-682.7"/>
<text text-anchor="middle" x="690.08" y="-819.5" font-family="Helvetica,sans-Serif" font-size="10.00"> &#45;end_date_time</text>
<text text-anchor="middle" x="690.08" y="-808.5" font-family="Helvetica,sans-Serif" font-size="10.00">&#45;start_date_time</text>
</g>
<!-- Node15&#45;&gt;Node6 -->
<g id="edge17" class="edge">
<title>Node15&#45;&gt;Node6</title>
<path fill="none" stroke="#404040" d="M174.45,-918.97C177.85,-884.67 187.33,-825.29 213.58,-782 267.55,-692.97 361.7,-617.49 428.92,-571.05"/>
<polygon fill="none" stroke="#404040" points="429.14,-570.9 431.84,-564.21 439.05,-564.13 436.35,-570.82 429.14,-570.9"/>
<text text-anchor="middle" x="255.58" y="-814" font-family="Helvetica,sans-Serif" font-size="10.00"> &#45;available_forcings</text>
</g>
<!-- Node16&#45;&gt;Node6 -->
<g id="edge20" class="edge">
<title>Node16&#45;&gt;Node6</title>
<path fill="none" stroke="#404040" d="M301.34,-918.76C298.49,-885.26 297.02,-827.72 313.58,-782 338.51,-713.14 388.08,-647.1 430.87,-598.74"/>
<polygon fill="none" stroke="#404040" points="431.04,-598.55 432.06,-591.41 439.05,-589.61 438.02,-596.75 431.04,-598.55"/>
<text text-anchor="start" x="313.58" y="-819.5" font-family="Helvetica,sans-Serif" font-size="10.00"> &#45;precipitation_rate</text>
<text text-anchor="middle" x="375.58" y="-808.5" font-family="Helvetica,sans-Serif" font-size="10.00">_meters_per_second_vector</text>
</g>
</g>
</svg>
        <g id="navigator" transform="translate(0 0)" fill="#404254">
                <rect fill="#f2f5e9" fill-opacity="0.5" stroke="#606060" stroke-width=".5" x="0" y="0" width="60" height="60"/>
                <use id="zoomplus" xlink:href="#zoomPlus" x="17" y="9" onmousedown="handleZoom(evt,'in')"/>
                <use id="zoomminus" xlink:href="#zoomMin" x="42" y="9" onmousedown="handleZoom(evt,'out')"/>
                <use id="reset" xlink:href="#resetDef" x="30" y="36" onmousedown="handleReset()"/>
                <g id="arrowUp" xlink:href="#dirArrow" transform="translate(30 24)" onmousedown="handlePan(0,-1)">
                  <use xlink:href="#rim" fill="#404040">
                        <set attributeName="fill" to="#808080" begin="arrowUp.mouseover" end="arrowUp.mouseout"/>
                  </use>
                  <path fill="none" stroke="white" stroke-width="1.5" d="M0,-3.0v7 M-2.5,-0.5L0,-3.0L2.5,-0.5"/>
                </g>
                <g id="arrowRight" xlink:href="#dirArrow" transform="rotate(90) translate(36 -43)" onmousedown="handlePan(1,0)">
                  <use xlink:href="#rim" fill="#404040">
                        <set attributeName="fill" to="#808080" begin="arrowRight.mouseover" end="arrowRight.mouseout"/>
                  </use>
                  <path fill="none" stroke="white" stroke-width="1.5" d="M0,-3.0v7 M-2.5,-0.5L0,-3.0L2.5,-0.5"/>
                </g>
                <g id="arrowDown" xlink:href="#dirArrow" transform="rotate(180) translate(-30 -48)" onmousedown="handlePan(0,1)">
                  <use xlink:href="#rim" fill="#404040">
                        <set attributeName="fill" to="#808080" begin="arrowDown.mouseover" end="arrowDown.mouseout"/>
                  </use>
                  <path fill="none" stroke="white" stroke-width="1.5" d="M0,-3.0v7 M-2.5,-0.5L0,-3.0L2.5,-0.5"/>
                </g>
                <g id="arrowLeft" xlink:href="#dirArrow" transform="rotate(270) translate(-36 17)" onmousedown="handlePan(-1,0)">
                  <use xlink:href="#rim" fill="#404040">
                        <set attributeName="fill" to="#808080" begin="arrowLeft.mouseover" end="arrowLeft.mouseout"/>
                  </use>
                  <path fill="none" stroke="white" stroke-width="1.5" d="M0,-3.0v7 M-2.5,-0.5L0,-3.0L2.5,-0.5"/>
                </g>
        </g>
        <svg viewBox="0 0 15 15" width="100%" height="30px" preserveAspectRatio="xMaxYMin meet">
         <g id="arrow_out" transform="scale(0.3 0.3)">
          <a xlink:href="class_h_y___cartographic_realization__coll__graph_org.svg" target="_base">
           <rect id="button" ry="5" rx="5" y="6" x="6" height="38" width="38"
                fill="#f2f5e9" fill-opacity="0.5" stroke="#606060" stroke-width="1.0"/>
           <path id="arrow"
             d="M 11.500037,31.436501 C 11.940474,20.09759 22.043105,11.32322 32.158766,21.979434 L 37.068811,17.246167 C 37.068811,17.246167 37.088388,32 37.088388,32 L 22.160133,31.978069 C 22.160133,31.978069 26.997745,27.140456 26.997745,27.140456 C 18.528582,18.264221 13.291696,25.230495 11.500037,31.436501 z"
             style="fill:#404040;"/>
          </a>
         </g>
        </svg>
</svg>
