<?xml version="1.0" encoding="UTF-8" standalone="no"?>
<!DOCTYPE svg PUBLIC "-//W3C//DTD SVG 1.1//EN"
 "http://www.w3.org/Graphics/SVG/1.1/DTD/svg11.dtd">
<!-- Generated by graphviz version 12.2.0 (20241103.1931)
 -->
<!-- Title: HY_HydroNetwork Pages: 1 -->
<svg width="248pt" height="281pt"
 viewBox="0.00 0.00 248.00 280.75" xmlns="http://www.w3.org/2000/svg" xmlns:xlink="http://www.w3.org/1999/xlink">
<g id="graph0" class="graph" transform="scale(1 1) rotate(0) translate(4 276.75)">
<title>HY_HydroNetwork</title>
<!-- Node1 -->
<g id="Node000001" class="node">
<title>Node1</title>
<g id="a_Node000001"><a xlink:title=" ">
<polygon fill="#999999" stroke="none" points="158.88,-110.75 47.88,-110.75 47.88,0 158.88,0 158.88,-110.75"/>
<text text-anchor="start" x="62.5" y="-97.25" font-family="Helvetica,sans-Serif" font-size="10.00">HY_HydroNetwork</text>
<text text-anchor="start" x="53.38" y="-82" font-family="Helvetica,sans-Serif" font-size="10.00">&#45;</text>
<text text-anchor="start" x="61.88" y="-82" font-family="Helvetica,sans-Serif" font-size="10.00">flow_paths</text>
<text text-anchor="start" x="53.38" y="-66.75" font-family="Helvetica,sans-Serif" font-size="10.00">&#45;</text>
<text text-anchor="start" x="61.88" y="-66.75" font-family="Helvetica,sans-Serif" font-size="10.00">sub_network</text>
<text text-anchor="start" x="53.38" y="-51.5" font-family="Helvetica,sans-Serif" font-size="10.00">&#45;</text>
<text text-anchor="start" x="61.88" y="-51.5" font-family="Helvetica,sans-Serif" font-size="10.00">network_divides</text>
<text text-anchor="start" x="53.38" y="-36.25" font-family="Helvetica,sans-Serif" font-size="10.00">&#45;</text>
<text text-anchor="start" x="61.88" y="-36.25" font-family="Helvetica,sans-Serif" font-size="10.00">internal_nexuses</text>
<text text-anchor="start" x="51.88" y="-21" font-family="Helvetica,sans-Serif" font-size="10.00">+</text>
<text text-anchor="start" x="61.88" y="-21" font-family="Helvetica,sans-Serif" font-size="10.00">HY_HydroNetwork()</text>
<text text-anchor="start" x="51.88" y="-5.75" font-family="Helvetica,sans-Serif" font-size="10.00">+</text>
<text text-anchor="start" x="61.88" y="-5.75" font-family="Helvetica,sans-Serif" font-size="10.00">~HY_HydroNetwork()</text>
<polygon fill="#666666" stroke="#666666" points="47.88,-93.5 47.88,-93.5 158.88,-93.5 158.88,-93.5 47.88,-93.5"/>
<polygon fill="#666666" stroke="#666666" points="47.88,-32.5 47.88,-32.5 59.88,-32.5 59.88,-32.5 47.88,-32.5"/>
<polygon fill="#666666" stroke="#666666" points="59.88,-32.5 59.88,-32.5 158.88,-32.5 158.88,-32.5 59.88,-32.5"/>
<polygon fill="none" stroke="#666666" points="47.88,0 47.88,-110.75 158.88,-110.75 158.88,0 47.88,0"/>
</a>
</g>
</g>
<!-- Node2 -->
<g id="Node000002" class="node">
<title>Node2</title>
<g id="a_Node000002"><a xlink:href="class_g_m___object.html" target="_top" xlink:title=" ">
<polygon fill="white" stroke="none" points="78.75,-242.25 0,-242.25 0,-177.25 78.75,-177.25 78.75,-242.25"/>
<text text-anchor="start" x="14.62" y="-228.75" font-family="Helvetica,sans-Serif" font-size="10.00">GM_Object</text>
<text text-anchor="start" x="37.88" y="-213.5" font-family="Helvetica,sans-Serif" font-size="10.00"> </text>
<text text-anchor="start" x="4" y="-198.25" font-family="Helvetica,sans-Serif" font-size="10.00">+</text>
<text text-anchor="start" x="14" y="-198.25" font-family="Helvetica,sans-Serif" font-size="10.00">GM_Object()</text>
<text text-anchor="start" x="4" y="-183" font-family="Helvetica,sans-Serif" font-size="10.00">+</text>
<text text-anchor="start" x="14" y="-183" font-family="Helvetica,sans-Serif" font-size="10.00">~GM_Object()</text>
<polygon fill="#666666" stroke="#666666" points="0,-225 0,-225 78.75,-225 78.75,-225 0,-225"/>
<polygon fill="#666666" stroke="#666666" points="0,-209.75 0,-209.75 78.75,-209.75 78.75,-209.75 0,-209.75"/>
<polygon fill="none" stroke="#666666" points="0,-177.25 0,-242.25 78.75,-242.25 78.75,-177.25 0,-177.25"/>
</a>
</g>
</g>
<!-- Node2&#45;&gt;Node1 -->
<g id="edge1_Node000001_Node000002" class="edge">
<title>Node2&#45;&gt;Node1</title>
<g id="a_edge1_Node000001_Node000002"><a xlink:title=" ">
<path fill="none" stroke="#63b8ff" d="M56.85,-167.14C64.17,-149.72 72.77,-129.24 80.57,-110.66"/>
<polygon fill="none" stroke="#63b8ff" points="53.71,-165.58 53.07,-176.15 60.17,-168.29 53.71,-165.58"/>
</a>
</g>
</g>
<!-- Node3 -->
<g id="Node000003" class="node">
<title>Node3</title>
<g id="a_Node000003"><a xlink:href="class_h_y___catchment_realization.html" target="_top" xlink:title=" ">
<polygon fill="white" stroke="none" points="240,-272.75 96.75,-272.75 96.75,-146.75 240,-146.75 240,-272.75"/>
<text text-anchor="start" x="111.38" y="-259.25" font-family="Helvetica,sans-Serif" font-size="10.00">HY_CatchmentRealization</text>
<text text-anchor="start" x="101.12" y="-244" font-family="Helvetica,sans-Serif" font-size="10.00">#</text>
<text text-anchor="start" x="110.75" y="-244" font-family="Helvetica,sans-Serif" font-size="10.00">realized_catchment</text>
<text text-anchor="start" x="101.12" y="-228.75" font-family="Helvetica,sans-Serif" font-size="10.00">#</text>
<text text-anchor="start" x="110.75" y="-228.75" font-family="Helvetica,sans-Serif" font-size="10.00">id_number</text>
<text text-anchor="start" x="100.75" y="-213.5" font-family="Helvetica,sans-Serif" font-size="10.00">+</text>
<text text-anchor="start" x="110.75" y="-213.5" font-family="Helvetica,sans-Serif" font-size="10.00">HY_CatchmentRealization()</text>
<text text-anchor="start" x="100.75" y="-198.25" font-family="Helvetica,sans-Serif" font-size="10.00">+</text>
<text text-anchor="start" x="110.75" y="-198.25" font-family="Helvetica,sans-Serif" font-size="10.00">~HY_CatchmentRealization()</text>
<text text-anchor="start" x="100.75" y="-183" font-family="Helvetica,sans-Serif" font-size="10.00">+</text>
<text text-anchor="start" x="110.75" y="-183" font-family="Helvetica,sans-Serif" font-size="10.00">get_response()</text>
<text text-anchor="start" x="101.12" y="-167.75" font-family="Helvetica,sans-Serif" font-size="10.00">#</text>
<text text-anchor="start" x="110.75" y="-167.75" font-family="Helvetica,sans-Serif" font-size="10.00">get_catchment_id()</text>
<text text-anchor="start" x="101.12" y="-152.5" font-family="Helvetica,sans-Serif" font-size="10.00">#</text>
<text text-anchor="start" x="110.75" y="-152.5" font-family="Helvetica,sans-Serif" font-size="10.00">set_catchment_id()</text>
<polygon fill="#666666" stroke="#666666" points="96.75,-255.5 96.75,-255.5 240,-255.5 240,-255.5 96.75,-255.5"/>
<polygon fill="#666666" stroke="#666666" points="96.75,-225 96.75,-225 108.75,-225 108.75,-225 96.75,-225"/>
<polygon fill="#666666" stroke="#666666" points="108.75,-225 108.75,-225 240,-225 240,-225 108.75,-225"/>
<polygon fill="none" stroke="#666666" points="96.75,-146.75 96.75,-272.75 240,-272.75 240,-146.75 96.75,-146.75"/>
</a>
</g>
</g>
<!-- Node3&#45;&gt;Node1 -->
<g id="edge2_Node000001_Node000003" class="edge">
<title>Node3&#45;&gt;Node1</title>
<g id="a_edge2_Node000001_Node000003"><a xlink:title=" ">
<path fill="none" stroke="#63b8ff" d="M137.45,-136.25C133.75,-127.57 130.02,-118.83 126.45,-110.47"/>
<polygon fill="none" stroke="#63b8ff" points="134.2,-137.56 141.34,-145.38 140.64,-134.81 134.2,-137.56"/>
</a>
</g>
</g>
</g>
</svg>
