<?xml version="1.0" encoding="UTF-8" standalone="no"?>
<!DOCTYPE svg PUBLIC "-//W3C//DTD SVG 1.1//EN"
 "http://www.w3.org/Graphics/SVG/1.1/DTD/svg11.dtd">
<!-- Generated by graphviz version 3.0.0 (20221109.1736)
 -->
<!-- Title: Reservoir::Implicit_Time::Reservoir Pages: 1 -->
<!--zoomable 907 -->
<svg id="main" version="1.1" xmlns="http://www.w3.org/2000/svg" xmlns:xlink="http://www.w3.org/1999/xlink" xml:space="preserve" onload="init(evt)">
<style type="text/css"><![CDATA[
.edge:hover path { stroke: red; }
.edge:hover polygon { stroke: red; fill: red; }
]]></style>
<script type="text/javascript"><![CDATA[
var edges = document.getElementsByTagName('g');
if (edges && edges.length) {
  for (var i=0;i<edges.length;i++) {
    if (edges[i].id.substr(0,4)=='edge') {
      edges[i].setAttribute('class','edge');
    }
  }
}
]]></script>
        <defs>
                <circle id="rim" cx="0" cy="0" r="7"/>
                <circle id="rim2" cx="0" cy="0" r="3.5"/>
                <g id="zoomPlus">
                        <use xlink:href="#rim" fill="#404040">
                                <set attributeName="fill" to="#808080" begin="zoomplus.mouseover" end="zoomplus.mouseout"/>
                        </use>
                        <path d="M-4,0h8M0,-4v8" fill="none" stroke="white" stroke-width="1.5" pointer-events="none"/>
                </g>
                <g id="zoomMin">
                        <use xlink:href="#rim" fill="#404040">
                                <set attributeName="fill" to="#808080" begin="zoomminus.mouseover" end="zoomminus.mouseout"/>
                        </use>
                        <path d="M-4,0h8" fill="none" stroke="white" stroke-width="1.5" pointer-events="none"/>
                </g>
                <g id="dirArrow">
                        <path fill="none" stroke="white" stroke-width="1.5" d="M0,-3.0v7 M-2.5,-0.5L0,-3.0L2.5,-0.5"/>
                </g>
               <g id="resetDef">
                       <use xlink:href="#rim2" fill="#404040">
                               <set attributeName="fill" to="#808080" begin="reset.mouseover" end="reset.mouseout"/>
                       </use>
               </g>
        </defs>

<script type="text/javascript">
var viewWidth = 511;
var viewHeight = 907;
var sectionId = 'dynsection-0';
</script>
<script xlink:href="svgpan.js"/>
<svg id="graph" class="graph">
<g id="viewport">
<title>Reservoir::Implicit_Time::Reservoir</title>
<polygon fill="white" stroke="transparent" points="-4,4 -4,-903 507,-903 507,4 -4,4"/>
<!-- Node1 -->
<g id="node1" class="node">
<title>Node1</title>
<g id="a_node1"><a xlink:title="Reservoir that has zero, one, or multiple outlets and no time dimension.">
<polygon fill="#bfbfbf" stroke="black" points="157,-0.5 157,-211.5 283,-211.5 283,-0.5 157,-0.5"/>
<text text-anchor="start" x="165" y="-199.5" font-family="Helvetica,sans-Serif" font-size="10.00">Reservoir::Implicit</text>
<text text-anchor="middle" x="220" y="-188.5" font-family="Helvetica,sans-Serif" font-size="10.00">_Time::Reservoir</text>
<polyline fill="none" stroke="black" points="157,-181.5 283,-181.5 "/>
<text text-anchor="middle" x="220" y="-169.5" font-family="Helvetica,sans-Serif" font-size="10.00"> </text>
<polyline fill="none" stroke="black" points="157,-162.5 283,-162.5 "/>
<text text-anchor="start" x="165" y="-150.5" font-family="Helvetica,sans-Serif" font-size="10.00">+ Reservoir()</text>
<text text-anchor="start" x="165" y="-139.5" font-family="Helvetica,sans-Serif" font-size="10.00">+ Reservoir()</text>
<text text-anchor="start" x="165" y="-128.5" font-family="Helvetica,sans-Serif" font-size="10.00">+ Reservoir()</text>
<text text-anchor="start" x="165" y="-117.5" font-family="Helvetica,sans-Serif" font-size="10.00">+ Reservoir()</text>
<text text-anchor="start" x="165" y="-106.5" font-family="Helvetica,sans-Serif" font-size="10.00">+ response_meters()</text>
<text text-anchor="start" x="165" y="-95.5" font-family="Helvetica,sans-Serif" font-size="10.00">+ add_outlet()</text>
<text text-anchor="start" x="165" y="-84.5" font-family="Helvetica,sans-Serif" font-size="10.00">+ add_outlet()</text>
<text text-anchor="start" x="165" y="-73.5" font-family="Helvetica,sans-Serif" font-size="10.00">+ add_outlet()</text>
<text text-anchor="start" x="165" y="-62.5" font-family="Helvetica,sans-Serif" font-size="10.00">+ sort_outlets()</text>
<text text-anchor="start" x="165" y="-51.5" font-family="Helvetica,sans-Serif" font-size="10.00">+ check_highest_outlet</text>
<text text-anchor="start" x="165" y="-40.5" font-family="Helvetica,sans-Serif" font-size="10.00">_against_max_storage()</text>
<text text-anchor="start" x="165" y="-29.5" font-family="Helvetica,sans-Serif" font-size="10.00">+ get_storage_height</text>
<text text-anchor="start" x="165" y="-18.5" font-family="Helvetica,sans-Serif" font-size="10.00">_meters()</text>
<text text-anchor="start" x="165" y="-7.5" font-family="Helvetica,sans-Serif" font-size="10.00">+ flux_meters_for_outlet()</text>
</a>
</g>
</g>
<!-- Node2 -->
<g id="node2" class="node">
<title>Node2</title>
<g id="a_node2"><a xlink:href="structreservoir__parameters.html" target="_top" xlink:title=" ">
<polygon fill="white" stroke="black" points="0,-259.5 0,-327.5 140,-327.5 140,-259.5 0,-259.5"/>
<text text-anchor="middle" x="70" y="-315.5" font-family="Helvetica,sans-Serif" font-size="10.00">reservoir_parameters</text>
<polyline fill="none" stroke="black" points="0,-308.5 140,-308.5 "/>
<text text-anchor="start" x="8" y="-296.5" font-family="Helvetica,sans-Serif" font-size="10.00">+ minimum_storage_meters</text>
<text text-anchor="start" x="8" y="-285.5" font-family="Helvetica,sans-Serif" font-size="10.00">+ maximum_storage_meters</text>
<polyline fill="none" stroke="black" points="0,-278.5 140,-278.5 "/>
<text text-anchor="middle" x="70" y="-266.5" font-family="Helvetica,sans-Serif" font-size="10.00"> </text>
</a>
</g>
</g>
<!-- Node2&#45;&gt;Node1 -->
<g id="edge1" class="edge">
<title>Node2&#45;&gt;Node1</title>
<path fill="none" stroke="#404040" d="M96.82,-259.34C111.56,-241.11 130.6,-217.56 149.29,-194.45"/>
<polygon fill="none" stroke="#404040" points="149.43,-194.27 150.1,-187.09 156.98,-184.94 156.32,-192.12 149.43,-194.27"/>
<text text-anchor="middle" x="146.5" y="-233" font-family="Helvetica,sans-Serif" font-size="10.00"> &#45;parameters</text>
</g>
<!-- Node3 -->
<g id="node3" class="node">
<title>Node3</title>
<g id="a_node3"><a xlink:href="structreservoir__state.html" target="_top" xlink:title=" ">
<polygon fill="white" stroke="black" points="158,-259.5 158,-327.5 282,-327.5 282,-259.5 158,-259.5"/>
<text text-anchor="middle" x="220" y="-315.5" font-family="Helvetica,sans-Serif" font-size="10.00">reservoir_state</text>
<polyline fill="none" stroke="black" points="158,-308.5 282,-308.5 "/>
<text text-anchor="start" x="166" y="-296.5" font-family="Helvetica,sans-Serif" font-size="10.00">+ current_storage_height</text>
<text text-anchor="start" x="166" y="-285.5" font-family="Helvetica,sans-Serif" font-size="10.00">_meters</text>
<polyline fill="none" stroke="black" points="158,-278.5 282,-278.5 "/>
<text text-anchor="middle" x="220" y="-266.5" font-family="Helvetica,sans-Serif" font-size="10.00"> </text>
</a>
</g>
</g>
<!-- Node3&#45;&gt;Node1 -->
<g id="edge2" class="edge">
<title>Node3&#45;&gt;Node1</title>
<path fill="none" stroke="#404040" d="M220,-259.34C220,-248.99 220,-236.93 220,-224.21"/>
<polygon fill="none" stroke="#404040" points="220,-223.84 216,-217.84 220,-211.84 224,-217.84 220,-223.84"/>
<text text-anchor="middle" x="234" y="-233" font-family="Helvetica,sans-Serif" font-size="10.00"> &#45;state</text>
</g>
<!-- Node4 -->
<g id="node4" class="node">
<title>Node4</title>
<g id="a_node4"><a xlink:title=" ">
<polygon fill="white" stroke="black" points="300.5,-259.5 300.5,-327.5 431.5,-327.5 431.5,-259.5 300.5,-259.5"/>
<text text-anchor="start" x="308.5" y="-315.5" font-family="Helvetica,sans-Serif" font-size="10.00">std::vector&lt; std::shared</text>
<text text-anchor="middle" x="366" y="-304.5" font-family="Helvetica,sans-Serif" font-size="10.00">_ptr&lt; Reservoir_Outlet &gt; &gt;</text>
<polyline fill="none" stroke="black" points="300.5,-297.5 431.5,-297.5 "/>
<text text-anchor="middle" x="366" y="-285.5" font-family="Helvetica,sans-Serif" font-size="10.00"> </text>
<polyline fill="none" stroke="black" points="300.5,-278.5 431.5,-278.5 "/>
<text text-anchor="middle" x="366" y="-266.5" font-family="Helvetica,sans-Serif" font-size="10.00"> </text>
</a>
</g>
</g>
<!-- Node4&#45;&gt;Node1 -->
<g id="edge3" class="edge">
<title>Node4&#45;&gt;Node1</title>
<path fill="none" stroke="#404040" d="M339.9,-259.34C326.05,-241.74 308.29,-219.18 290.71,-196.84"/>
<polygon fill="none" stroke="#404040" points="290.62,-196.72 283.76,-194.48 283.2,-187.29 290.05,-189.54 290.62,-196.72"/>
<text text-anchor="middle" x="340.5" y="-233" font-family="Helvetica,sans-Serif" font-size="10.00"> &#45;outlets</text>
</g>
<!-- Node5 -->
<g id="node5" class="node">
<title>Node5</title>
<g id="a_node5"><a xlink:title=" ">
<polygon fill="white" stroke="black" points="222,-375.5 222,-443.5 352,-443.5 352,-375.5 222,-375.5"/>
<text text-anchor="start" x="230" y="-431.5" font-family="Helvetica,sans-Serif" font-size="10.00">std::shared_ptr&lt; Reservoir</text>
<text text-anchor="middle" x="287" y="-420.5" font-family="Helvetica,sans-Serif" font-size="10.00">_Outlet &gt;</text>
<polyline fill="none" stroke="black" points="222,-413.5 352,-413.5 "/>
<text text-anchor="middle" x="287" y="-401.5" font-family="Helvetica,sans-Serif" font-size="10.00"> </text>
<polyline fill="none" stroke="black" points="222,-394.5 352,-394.5 "/>
<text text-anchor="start" x="230" y="-382.5" font-family="Helvetica,sans-Serif" font-size="10.00">+ operator&#45;&gt;()</text>
</a>
</g>
</g>
<!-- Node5&#45;&gt;Node4 -->
<g id="edge4" class="edge">
<title>Node5&#45;&gt;Node4</title>
<path fill="none" stroke="#404040" d="M310.06,-375.22C318.17,-363.51 327.41,-350.18 336.01,-337.77"/>
<polygon fill="none" stroke="#404040" points="336.21,-337.49 336.34,-330.28 343.05,-327.62 342.92,-334.83 336.21,-337.49"/>
<text text-anchor="middle" x="353.5" y="-349" font-family="Helvetica,sans-Serif" font-size="10.00"> +elements</text>
</g>
<!-- Node6 -->
<g id="node6" class="node">
<title>Node6</title>
<g id="a_node6"><a xlink:href="class_reservoir_1_1_explicit___time_1_1_reservoir___outlet.html" target="_top" xlink:title="Base Single Reservior Outlet Class.">
<polygon fill="white" stroke="black" points="124,-538.5 124,-793.5 276,-793.5 276,-538.5 124,-538.5"/>
<text text-anchor="start" x="132" y="-781.5" font-family="Helvetica,sans-Serif" font-size="10.00">Reservoir::Explicit</text>
<text text-anchor="middle" x="200" y="-770.5" font-family="Helvetica,sans-Serif" font-size="10.00">_Time::Reservoir_Outlet</text>
<polyline fill="none" stroke="black" points="124,-763.5 276,-763.5 "/>
<text text-anchor="start" x="132" y="-751.5" font-family="Helvetica,sans-Serif" font-size="10.00"># a</text>
<text text-anchor="start" x="132" y="-740.5" font-family="Helvetica,sans-Serif" font-size="10.00"># b</text>
<text text-anchor="start" x="132" y="-729.5" font-family="Helvetica,sans-Serif" font-size="10.00"># activation_threshold</text>
<text text-anchor="start" x="132" y="-718.5" font-family="Helvetica,sans-Serif" font-size="10.00">_meters</text>
<text text-anchor="start" x="132" y="-707.5" font-family="Helvetica,sans-Serif" font-size="10.00"># max_velocity_meters</text>
<text text-anchor="start" x="132" y="-696.5" font-family="Helvetica,sans-Serif" font-size="10.00">_per_second</text>
<text text-anchor="start" x="132" y="-685.5" font-family="Helvetica,sans-Serif" font-size="10.00"># velocity_meters_per</text>
<text text-anchor="start" x="132" y="-674.5" font-family="Helvetica,sans-Serif" font-size="10.00">_second_local</text>
<polyline fill="none" stroke="black" points="124,-667.5 276,-667.5 "/>
<text text-anchor="start" x="132" y="-655.5" font-family="Helvetica,sans-Serif" font-size="10.00">+ Reservoir_Outlet()</text>
<text text-anchor="start" x="132" y="-644.5" font-family="Helvetica,sans-Serif" font-size="10.00">+ Reservoir_Outlet()</text>
<text text-anchor="start" x="132" y="-633.5" font-family="Helvetica,sans-Serif" font-size="10.00">+ adjust_velocity()</text>
<text text-anchor="start" x="132" y="-622.5" font-family="Helvetica,sans-Serif" font-size="10.00">+ get_activation_threshold</text>
<text text-anchor="start" x="132" y="-611.5" font-family="Helvetica,sans-Serif" font-size="10.00">_meters()</text>
<text text-anchor="start" x="132" y="-600.5" font-family="Helvetica,sans-Serif" font-size="10.00">+ get_previously_calculated</text>
<text text-anchor="start" x="132" y="-589.5" font-family="Helvetica,sans-Serif" font-size="10.00">_velocity_meters_per_second()</text>
<text text-anchor="start" x="132" y="-578.5" font-family="Helvetica,sans-Serif" font-size="10.00">+ velocity_meters_per</text>
<text text-anchor="start" x="132" y="-567.5" font-family="Helvetica,sans-Serif" font-size="10.00">_second()</text>
<text text-anchor="start" x="132" y="-556.5" font-family="Helvetica,sans-Serif" font-size="10.00"># calc_velocity_meters</text>
<text text-anchor="start" x="132" y="-545.5" font-family="Helvetica,sans-Serif" font-size="10.00">_per_second_local()</text>
</a>
</g>
</g>
<!-- Node6&#45;&gt;Node5 -->
<g id="edge5" class="edge">
<title>Node6&#45;&gt;Node5</title>
<path fill="none" stroke="#404040" d="M229.19,-538.36C236.71,-512.64 245.65,-486.1 256,-462 257.11,-459.41 258.33,-456.79 259.63,-454.19"/>
<polygon fill="none" stroke="#404040" points="259.63,-454.18 258.93,-447 265.29,-443.6 265.99,-450.77 259.63,-454.18"/>
<text text-anchor="middle" x="266" y="-488.5" font-family="Helvetica,sans-Serif" font-size="10.00"> +ptr</text>
</g>
<!-- Node7 -->
<g id="node7" class="node">
<title>Node7</title>
<g id="a_node7"><a xlink:title=" ">
<polygon fill="white" stroke="black" points="294.5,-637.5 294.5,-694.5 397.5,-694.5 397.5,-637.5 294.5,-637.5"/>
<text text-anchor="middle" x="346" y="-682.5" font-family="Helvetica,sans-Serif" font-size="10.00">std::shared_ptr&lt; T &gt;</text>
<polyline fill="none" stroke="black" points="294.5,-675.5 397.5,-675.5 "/>
<text text-anchor="middle" x="346" y="-663.5" font-family="Helvetica,sans-Serif" font-size="10.00"> </text>
<polyline fill="none" stroke="black" points="294.5,-656.5 397.5,-656.5 "/>
<text text-anchor="start" x="302.5" y="-644.5" font-family="Helvetica,sans-Serif" font-size="10.00">+ operator&#45;&gt;()</text>
</a>
</g>
</g>
<!-- Node7&#45;&gt;Node5 -->
<g id="edge6" class="edge">
<title>Node7&#45;&gt;Node5</title>
<path fill="none" stroke="orange" d="M324.92,-628.09C309.91,-599.6 291.03,-558.63 283,-520 277.77,-494.86 279.17,-465.78 281.66,-443.91"/>
<polygon fill="orange" stroke="orange" points="322.02,-630.11 329.84,-637.26 328.19,-626.79 322.02,-630.11"/>
<text text-anchor="middle" x="329" y="-488.5" font-family="Helvetica,sans-Serif" font-size="10.00"> &lt; Reservoir_Outlet &gt;</text>
</g>
<!-- Node8 -->
<g id="node8" class="node">
<title>Node8</title>
<g id="a_node8"><a xlink:title=" ">
<polygon fill="white" stroke="black" points="371.5,-841.5 371.5,-898.5 400.5,-898.5 400.5,-841.5 371.5,-841.5"/>
<text text-anchor="middle" x="386" y="-886.5" font-family="Helvetica,sans-Serif" font-size="10.00">T</text>
<polyline fill="none" stroke="black" points="371.5,-879.5 400.5,-879.5 "/>
<text text-anchor="middle" x="386" y="-867.5" font-family="Helvetica,sans-Serif" font-size="10.00"> </text>
<polyline fill="none" stroke="black" points="371.5,-860.5 400.5,-860.5 "/>
<text text-anchor="middle" x="386" y="-848.5" font-family="Helvetica,sans-Serif" font-size="10.00"> </text>
</a>
</g>
</g>
<!-- Node8&#45;&gt;Node7 -->
<g id="edge7" class="edge">
<title>Node8&#45;&gt;Node7</title>
<path fill="none" stroke="#404040" d="M380.52,-841.34C373.61,-806.45 361.69,-746.25 353.83,-706.52"/>
<polygon fill="none" stroke="#404040" points="353.81,-706.42 348.72,-701.32 351.48,-694.65 356.57,-699.76 353.81,-706.42"/>
<text text-anchor="middle" x="386" y="-815" font-family="Helvetica,sans-Serif" font-size="10.00"> +ptr</text>
</g>
<!-- Node9 -->
<g id="node9" class="node">
<title>Node9</title>
<g id="a_node9"><a xlink:title=" ">
<polygon fill="white" stroke="black" points="384,-462.5 384,-519.5 468,-519.5 468,-462.5 384,-462.5"/>
<text text-anchor="middle" x="426" y="-507.5" font-family="Helvetica,sans-Serif" font-size="10.00">std::vector&lt; T &gt;</text>
<polyline fill="none" stroke="black" points="384,-500.5 468,-500.5 "/>
<text text-anchor="middle" x="426" y="-488.5" font-family="Helvetica,sans-Serif" font-size="10.00"> </text>
<polyline fill="none" stroke="black" points="384,-481.5 468,-481.5 "/>
<text text-anchor="middle" x="426" y="-469.5" font-family="Helvetica,sans-Serif" font-size="10.00"> </text>
</a>
</g>
</g>
<!-- Node8&#45;&gt;Node9 -->
<g id="edge9" class="edge">
<title>Node8&#45;&gt;Node9</title>
<path fill="none" stroke="#404040" d="M395.54,-841.22C399.89,-827.24 404.6,-809.91 407,-794 421.07,-700.79 424.75,-589.88 425.69,-531.88"/>
<polygon fill="none" stroke="#404040" points="425.7,-531.65 421.78,-525.6 425.86,-519.65 429.78,-525.71 425.7,-531.65"/>
<text text-anchor="middle" x="427.5" y="-815" font-family="Helvetica,sans-Serif" font-size="10.00"> +elements</text>
</g>
<!-- Node9&#45;&gt;Node4 -->
<g id="edge8" class="edge">
<title>Node9&#45;&gt;Node4</title>
<path fill="none" stroke="orange" d="M414.64,-452.64C405.78,-423.56 393.15,-382.2 382,-346 380.18,-340.09 378.24,-333.81 376.35,-327.74"/>
<polygon fill="orange" stroke="orange" points="411.34,-453.84 417.6,-462.38 418.04,-451.8 411.34,-453.84"/>
<text text-anchor="start" x="411" y="-412.5" font-family="Helvetica,sans-Serif" font-size="10.00"> &lt; std::shared_ptr&lt;</text>
<text text-anchor="middle" x="457" y="-401.5" font-family="Helvetica,sans-Serif" font-size="10.00"> Reservoir_Outlet &gt; &gt;</text>
</g>
</g>
</svg>
        <g id="navigator" transform="translate(0 0)" fill="#404254">
                <rect fill="#f2f5e9" fill-opacity="0.5" stroke="#606060" stroke-width=".5" x="0" y="0" width="60" height="60"/>
                <use id="zoomplus" xlink:href="#zoomPlus" x="17" y="9" onmousedown="handleZoom(evt,'in')"/>
                <use id="zoomminus" xlink:href="#zoomMin" x="42" y="9" onmousedown="handleZoom(evt,'out')"/>
                <use id="reset" xlink:href="#resetDef" x="30" y="36" onmousedown="handleReset()"/>
                <g id="arrowUp" xlink:href="#dirArrow" transform="translate(30 24)" onmousedown="handlePan(0,-1)">
                  <use xlink:href="#rim" fill="#404040">
                        <set attributeName="fill" to="#808080" begin="arrowUp.mouseover" end="arrowUp.mouseout"/>
                  </use>
                  <path fill="none" stroke="white" stroke-width="1.5" d="M0,-3.0v7 M-2.5,-0.5L0,-3.0L2.5,-0.5"/>
                </g>
                <g id="arrowRight" xlink:href="#dirArrow" transform="rotate(90) translate(36 -43)" onmousedown="handlePan(1,0)">
                  <use xlink:href="#rim" fill="#404040">
                        <set attributeName="fill" to="#808080" begin="arrowRight.mouseover" end="arrowRight.mouseout"/>
                  </use>
                  <path fill="none" stroke="white" stroke-width="1.5" d="M0,-3.0v7 M-2.5,-0.5L0,-3.0L2.5,-0.5"/>
                </g>
                <g id="arrowDown" xlink:href="#dirArrow" transform="rotate(180) translate(-30 -48)" onmousedown="handlePan(0,1)">
                  <use xlink:href="#rim" fill="#404040">
                        <set attributeName="fill" to="#808080" begin="arrowDown.mouseover" end="arrowDown.mouseout"/>
                  </use>
                  <path fill="none" stroke="white" stroke-width="1.5" d="M0,-3.0v7 M-2.5,-0.5L0,-3.0L2.5,-0.5"/>
                </g>
                <g id="arrowLeft" xlink:href="#dirArrow" transform="rotate(270) translate(-36 17)" onmousedown="handlePan(-1,0)">
                  <use xlink:href="#rim" fill="#404040">
                        <set attributeName="fill" to="#808080" begin="arrowLeft.mouseover" end="arrowLeft.mouseout"/>
                  </use>
                  <path fill="none" stroke="white" stroke-width="1.5" d="M0,-3.0v7 M-2.5,-0.5L0,-3.0L2.5,-0.5"/>
                </g>
        </g>
        <svg viewBox="0 0 15 15" width="100%" height="30px" preserveAspectRatio="xMaxYMin meet">
         <g id="arrow_out" transform="scale(0.3 0.3)">
          <a xlink:href="class_reservoir_1_1_implicit___time_1_1_reservoir__coll__graph_org.svg" target="_base">
           <rect id="button" ry="5" rx="5" y="6" x="6" height="38" width="38"
                fill="#f2f5e9" fill-opacity="0.5" stroke="#606060" stroke-width="1.0"/>
           <path id="arrow"
             d="M 11.500037,31.436501 C 11.940474,20.09759 22.043105,11.32322 32.158766,21.979434 L 37.068811,17.246167 C 37.068811,17.246167 37.088388,32 37.088388,32 L 22.160133,31.978069 C 22.160133,31.978069 26.997745,27.140456 26.997745,27.140456 C 18.528582,18.264221 13.291696,25.230495 11.500037,31.436501 z"
             style="fill:#404040;"/>
          </a>
         </g>
        </svg>
</svg>
