<?xml version="1.0" encoding="UTF-8" standalone="no"?>
<!DOCTYPE svg PUBLIC "-//W3C//DTD SVG 1.1//EN"
 "http://www.w3.org/Graphics/SVG/1.1/DTD/svg11.dtd">
<!-- Generated by graphviz version 2.42.3 ()
 -->
<!-- Title: HY_CartographicRealization Pages: 1 -->
<!--zoomable 1060 -->
<svg id="main" version="1.1" xmlns="http://www.w3.org/2000/svg" xmlns:xlink="http://www.w3.org/1999/xlink" xml:space="preserve" onload="init(evt)">
<style type="text/css"><![CDATA[
.edge:hover path { stroke: red; }
.edge:hover polygon { stroke: red; fill: red; }
]]></style>
<script type="text/javascript"><![CDATA[
var edges = document.getElementsByTagName('g');
if (edges && edges.length) {
  for (var i=0;i<edges.length;i++) {
    if (edges[i].id.substr(0,4)=='edge') {
      edges[i].setAttribute('class','edge');
    }
  }
}
]]></script>
        <defs>
                <circle id="rim" cx="0" cy="0" r="7"/>
                <circle id="rim2" cx="0" cy="0" r="3.5"/>
                <g id="zoomPlus">
                        <use xlink:href="#rim" fill="#404040">
                                <set attributeName="fill" to="#808080" begin="zoomplus.mouseover" end="zoomplus.mouseout"/>
                        </use>
                        <path d="M-4,0h8M0,-4v8" fill="none" stroke="white" stroke-width="1.5" pointer-events="none"/>
                </g>
                <g id="zoomMin">
                        <use xlink:href="#rim" fill="#404040">
                                <set attributeName="fill" to="#808080" begin="zoomminus.mouseover" end="zoomminus.mouseout"/>
                        </use>
                        <path d="M-4,0h8" fill="none" stroke="white" stroke-width="1.5" pointer-events="none"/>
                </g>
                <g id="dirArrow">
                        <path fill="none" stroke="white" stroke-width="1.5" d="M0,-3.0v7 M-2.5,-0.5L0,-3.0L2.5,-0.5"/>
                </g>
               <g id="resetDef">
                       <use xlink:href="#rim2" fill="#404040">
                               <set attributeName="fill" to="#808080" begin="reset.mouseover" end="reset.mouseout"/>
                       </use>
               </g>
        </defs>

<script type="text/javascript">
var viewWidth = 865;
var viewHeight = 1060;
var sectionId = 'dynsection-1';
</script>
<script xlink:href="svgpan.js"/>
<svg id="graph" class="graph">
<g id="viewport">
<title>HY_CartographicRealization</title>
<polygon fill="white" stroke="transparent" points="-4,4 -4,-1056 861,-1056 861,4 -4,4"/>
<!-- Node1 -->
<g id="node1" class="node">
<title>Node1</title>
<g id="a_node1"><a xlink:title=" ">
<polygon fill="#bfbfbf" stroke="black" points="285,-486.5 285,-554.5 443,-554.5 443,-486.5 285,-486.5"/>
<text text-anchor="middle" x="364" y="-542.5" font-family="Helvetica,sans-Serif" font-size="10.00">HY_CartographicRealization</text>
<polyline fill="none" stroke="black" points="285,-535.5 443,-535.5 "/>
<text text-anchor="middle" x="364" y="-523.5" font-family="Helvetica,sans-Serif" font-size="10.00"> </text>
<polyline fill="none" stroke="black" points="285,-516.5 443,-516.5 "/>
<text text-anchor="start" x="293" y="-504.5" font-family="Helvetica,sans-Serif" font-size="10.00">+ HY_CartographicRealization()</text>
<text text-anchor="start" x="293" y="-493.5" font-family="Helvetica,sans-Serif" font-size="10.00">+ ~HY_CartographicRealization()</text>
</a>
</g>
</g>
<!-- Node2 -->
<g id="node2" class="node">
<title>Node2</title>
<g id="a_node2"><a xlink:href="class_h_y___catchment_realization.html" target="_top" xlink:title=" ">
<polygon fill="white" stroke="black" points="166,-630 166,-698 316,-698 316,-630 166,-630"/>
<text text-anchor="middle" x="241" y="-686" font-family="Helvetica,sans-Serif" font-size="10.00">HY_CatchmentRealization</text>
<polyline fill="none" stroke="black" points="166,-679 316,-679 "/>
<text text-anchor="start" x="174" y="-667" font-family="Helvetica,sans-Serif" font-size="10.00"># id_number</text>
<polyline fill="none" stroke="black" points="166,-660 316,-660 "/>
<text text-anchor="start" x="174" y="-648" font-family="Helvetica,sans-Serif" font-size="10.00">+ HY_CatchmentRealization()</text>
<text text-anchor="start" x="174" y="-637" font-family="Helvetica,sans-Serif" font-size="10.00">+ ~HY_CatchmentRealization()</text>
</a>
</g>
</g>
<!-- Node2&#45;&gt;Node1 -->
<g id="edge1" class="edge">
<title>Node2&#45;&gt;Node1</title>
<path fill="none" stroke="midnightblue" d="M276.48,-622.19C295.01,-600.86 317.42,-575.09 334.92,-554.96"/>
<polygon fill="none" stroke="midnightblue" points="273.76,-619.98 269.84,-629.82 279.04,-624.57 273.76,-619.98"/>
</g>
<!-- Node15 -->
<g id="node15" class="node">
<title>Node15</title>
<g id="a_node15"><a xlink:title=" ">
<polygon fill="white" stroke="#bfbfbf" points="142.5,-486.5 142.5,-554.5 267.5,-554.5 267.5,-486.5 142.5,-486.5"/>
<text text-anchor="start" x="150.5" y="-542.5" font-family="Helvetica,sans-Serif" font-size="10.00">std::shared_ptr&lt; HY</text>
<text text-anchor="middle" x="205" y="-531.5" font-family="Helvetica,sans-Serif" font-size="10.00">_CatchmentRealization &gt;</text>
<polyline fill="none" stroke="#bfbfbf" points="142.5,-524.5 267.5,-524.5 "/>
<text text-anchor="middle" x="205" y="-512.5" font-family="Helvetica,sans-Serif" font-size="10.00"> </text>
<polyline fill="none" stroke="#bfbfbf" points="142.5,-505.5 267.5,-505.5 "/>
<text text-anchor="start" x="150.5" y="-493.5" font-family="Helvetica,sans-Serif" font-size="10.00">+ operator&#45;&gt;()</text>
</a>
</g>
</g>
<!-- Node2&#45;&gt;Node15 -->
<g id="edge17" class="edge">
<title>Node2&#45;&gt;Node15</title>
<path fill="none" stroke="#404040" d="M232.56,-629.82C227.76,-610.98 221.69,-587.12 216.47,-566.59"/>
<polygon fill="none" stroke="#404040" points="216.47,-566.59 211.12,-561.76 213.51,-554.96 218.87,-559.79 216.47,-566.59"/>
<text text-anchor="middle" x="231" y="-576" font-family="Helvetica,sans-Serif" font-size="10.00"> +ptr</text>
</g>
<!-- Node3 -->
<g id="node3" class="node">
<title>Node3</title>
<g id="a_node3"><a xlink:title=" ">
<polygon fill="white" stroke="#bfbfbf" points="354.5,-116.5 354.5,-184.5 457.5,-184.5 457.5,-116.5 354.5,-116.5"/>
<text text-anchor="start" x="362.5" y="-172.5" font-family="Helvetica,sans-Serif" font-size="10.00">std::shared_ptr&lt; HY</text>
<text text-anchor="middle" x="406" y="-161.5" font-family="Helvetica,sans-Serif" font-size="10.00">_Catchment &gt;</text>
<polyline fill="none" stroke="#bfbfbf" points="354.5,-154.5 457.5,-154.5 "/>
<text text-anchor="middle" x="406" y="-142.5" font-family="Helvetica,sans-Serif" font-size="10.00"> </text>
<polyline fill="none" stroke="#bfbfbf" points="354.5,-135.5 457.5,-135.5 "/>
<text text-anchor="start" x="362.5" y="-123.5" font-family="Helvetica,sans-Serif" font-size="10.00">+ operator&#45;&gt;()</text>
</a>
</g>
</g>
<!-- Node3&#45;&gt;Node2 -->
<g id="edge2" class="edge">
<title>Node3&#45;&gt;Node2</title>
<path fill="none" stroke="#404040" d="M354.47,-160.66C270.64,-177.04 114,-214.48 114,-265.5 114,-521.5 114,-521.5 114,-521.5 114,-562.93 144.53,-597.75 175.65,-622.48"/>
<polygon fill="none" stroke="#404040" points="175.75,-622.56 182.95,-623.01 185.3,-629.83 178.1,-629.38 175.75,-622.56"/>
<text text-anchor="middle" x="160" y="-391" font-family="Helvetica,sans-Serif" font-size="10.00"> #realized_catchment</text>
</g>
<!-- Node4 -->
<g id="node4" class="node">
<title>Node4</title>
<g id="a_node4"><a xlink:href="class_h_y___catchment.html" target="_top" xlink:title=" ">
<polygon fill="white" stroke="black" points="455.5,-232.5 455.5,-300.5 558.5,-300.5 558.5,-232.5 455.5,-232.5"/>
<text text-anchor="middle" x="507" y="-288.5" font-family="Helvetica,sans-Serif" font-size="10.00">HY_Catchment</text>
<polyline fill="none" stroke="black" points="455.5,-281.5 558.5,-281.5 "/>
<text text-anchor="start" x="463.5" y="-269.5" font-family="Helvetica,sans-Serif" font-size="10.00">&#45; id_number</text>
<polyline fill="none" stroke="black" points="455.5,-262.5 558.5,-262.5 "/>
<text text-anchor="start" x="463.5" y="-250.5" font-family="Helvetica,sans-Serif" font-size="10.00">+ HY_Catchment()</text>
<text text-anchor="start" x="463.5" y="-239.5" font-family="Helvetica,sans-Serif" font-size="10.00">+ ~HY_Catchment()</text>
</a>
</g>
</g>
<!-- Node3&#45;&gt;Node4 -->
<g id="edge22" class="edge">
<title>Node3&#45;&gt;Node4</title>
<path fill="none" stroke="#404040" d="M427.3,-184.66C434.12,-194.45 441.99,-204.96 450,-214 452.91,-217.29 456.02,-220.58 459.22,-223.83"/>
<polygon fill="none" stroke="#404040" points="459.27,-223.88 466.36,-225.21 467.85,-232.26 460.77,-230.93 459.27,-223.88"/>
<text text-anchor="middle" x="500.5" y="-206" font-family="Helvetica,sans-Serif" font-size="10.00"> &#45;containing_catchment</text>
</g>
<!-- Node16 -->
<g id="node16" class="node">
<title>Node16</title>
<g id="a_node16"><a xlink:title=" ">
<polygon fill="white" stroke="#bfbfbf" points="502.5,-0.5 502.5,-68.5 627.5,-68.5 627.5,-0.5 502.5,-0.5"/>
<text text-anchor="start" x="510.5" y="-56.5" font-family="Helvetica,sans-Serif" font-size="10.00">std::vector&lt; std::shared</text>
<text text-anchor="middle" x="565" y="-45.5" font-family="Helvetica,sans-Serif" font-size="10.00">_ptr&lt; HY_Catchment &gt; &gt;</text>
<polyline fill="none" stroke="#bfbfbf" points="502.5,-38.5 627.5,-38.5 "/>
<text text-anchor="middle" x="565" y="-26.5" font-family="Helvetica,sans-Serif" font-size="10.00"> </text>
<polyline fill="none" stroke="#bfbfbf" points="502.5,-19.5 627.5,-19.5 "/>
<text text-anchor="middle" x="565" y="-7.5" font-family="Helvetica,sans-Serif" font-size="10.00"> </text>
</a>
</g>
</g>
<!-- Node3&#45;&gt;Node16 -->
<g id="edge20" class="edge">
<title>Node3&#45;&gt;Node16</title>
<path fill="none" stroke="#404040" d="M452.42,-116.22C470.13,-103.52 490.51,-88.9 509.03,-75.63"/>
<polygon fill="none" stroke="#404040" points="509.05,-75.62 511.59,-68.87 518.8,-68.62 516.25,-75.37 509.05,-75.62"/>
<text text-anchor="middle" x="515.5" y="-90" font-family="Helvetica,sans-Serif" font-size="10.00"> +elements</text>
</g>
<!-- Node4&#45;&gt;Node3 -->
<g id="edge3" class="edge">
<title>Node4&#45;&gt;Node3</title>
<path fill="none" stroke="#404040" d="M455.48,-251.29C436.94,-243.44 417.92,-231.59 407,-214 403.84,-208.91 402,-203.11 401.05,-197.14"/>
<polygon fill="none" stroke="#404040" points="401.02,-196.79 396.63,-191.07 400.23,-184.82 404.62,-190.54 401.02,-196.79"/>
<text text-anchor="middle" x="417" y="-206" font-family="Helvetica,sans-Serif" font-size="10.00"> +ptr</text>
</g>
<!-- Node5 -->
<g id="node5" class="node">
<title>Node5</title>
<g id="a_node5"><a xlink:href="class_h_y___hydro_feature.html" target="_top" xlink:title=" ">
<polygon fill="white" stroke="black" points="629,-359.5 629,-427.5 743,-427.5 743,-359.5 629,-359.5"/>
<text text-anchor="middle" x="686" y="-415.5" font-family="Helvetica,sans-Serif" font-size="10.00">HY_HydroFeature</text>
<polyline fill="none" stroke="black" points="629,-408.5 743,-408.5 "/>
<text text-anchor="middle" x="686" y="-396.5" font-family="Helvetica,sans-Serif" font-size="10.00"> </text>
<polyline fill="none" stroke="black" points="629,-389.5 743,-389.5 "/>
<text text-anchor="start" x="637" y="-377.5" font-family="Helvetica,sans-Serif" font-size="10.00">+ HY_HydroFeature()</text>
<text text-anchor="start" x="637" y="-366.5" font-family="Helvetica,sans-Serif" font-size="10.00">+ ~HY_HydroFeature()</text>
</a>
</g>
</g>
<!-- Node5&#45;&gt;Node4 -->
<g id="edge4" class="edge">
<title>Node5&#45;&gt;Node4</title>
<path fill="none" stroke="midnightblue" d="M651.59,-351.72C640.65,-340.24 627.99,-328.35 615,-319 597.8,-306.62 577.16,-295.93 558.56,-287.55"/>
<polygon fill="none" stroke="midnightblue" points="649.15,-354.23 658.52,-359.17 654.27,-349.47 649.15,-354.23"/>
</g>
<!-- Node6 -->
<g id="node6" class="node">
<title>Node6</title>
<g id="a_node6"><a xlink:title=" ">
<polygon fill="white" stroke="#bfbfbf" points="441.5,-359.5 441.5,-427.5 572.5,-427.5 572.5,-359.5 441.5,-359.5"/>
<text text-anchor="start" x="449.5" y="-415.5" font-family="Helvetica,sans-Serif" font-size="10.00">std::vector&lt; std::shared</text>
<text text-anchor="middle" x="507" y="-404.5" font-family="Helvetica,sans-Serif" font-size="10.00">_ptr&lt; HY_HydroNexus &gt; &gt;</text>
<polyline fill="none" stroke="#bfbfbf" points="441.5,-397.5 572.5,-397.5 "/>
<text text-anchor="middle" x="507" y="-385.5" font-family="Helvetica,sans-Serif" font-size="10.00"> </text>
<polyline fill="none" stroke="#bfbfbf" points="441.5,-378.5 572.5,-378.5 "/>
<text text-anchor="middle" x="507" y="-366.5" font-family="Helvetica,sans-Serif" font-size="10.00"> </text>
</a>
</g>
</g>
<!-- Node6&#45;&gt;Node4 -->
<g id="edge5" class="edge">
<title>Node6&#45;&gt;Node4</title>
<path fill="none" stroke="#404040" d="M507,-359.33C507,-345.2 507,-328.49 507,-313.22"/>
<polygon fill="none" stroke="#404040" points="507,-312.82 503,-306.82 507,-300.82 511,-306.82 507,-312.82"/>
<text text-anchor="middle" x="527" y="-333" font-family="Helvetica,sans-Serif" font-size="10.00"> &#45;inflows</text>
<text text-anchor="middle" x="527" y="-322" font-family="Helvetica,sans-Serif" font-size="10.00">&#45;outflows</text>
</g>
<!-- Node7 -->
<g id="node7" class="node">
<title>Node7</title>
<g id="a_node7"><a xlink:title=" ">
<polygon fill="white" stroke="#bfbfbf" points="461.5,-486.5 461.5,-554.5 564.5,-554.5 564.5,-486.5 461.5,-486.5"/>
<text text-anchor="start" x="469.5" y="-542.5" font-family="Helvetica,sans-Serif" font-size="10.00">std::shared_ptr&lt; HY</text>
<text text-anchor="middle" x="513" y="-531.5" font-family="Helvetica,sans-Serif" font-size="10.00">_HydroNexus &gt;</text>
<polyline fill="none" stroke="#bfbfbf" points="461.5,-524.5 564.5,-524.5 "/>
<text text-anchor="middle" x="513" y="-512.5" font-family="Helvetica,sans-Serif" font-size="10.00"> </text>
<polyline fill="none" stroke="#bfbfbf" points="461.5,-505.5 564.5,-505.5 "/>
<text text-anchor="start" x="469.5" y="-493.5" font-family="Helvetica,sans-Serif" font-size="10.00">+ operator&#45;&gt;()</text>
</a>
</g>
</g>
<!-- Node7&#45;&gt;Node6 -->
<g id="edge6" class="edge">
<title>Node7&#45;&gt;Node6</title>
<path fill="none" stroke="#404040" d="M511.41,-486.33C510.73,-472.2 509.93,-455.49 509.19,-440.22"/>
<polygon fill="none" stroke="#404040" points="509.18,-439.81 504.89,-434.01 508.6,-427.82 512.88,-433.63 509.18,-439.81"/>
<text text-anchor="middle" x="535.5" y="-454.5" font-family="Helvetica,sans-Serif" font-size="10.00"> +elements</text>
</g>
<!-- Node8 -->
<g id="node8" class="node">
<title>Node8</title>
<g id="a_node8"><a xlink:href="class_h_y___hydro_nexus.html" target="_top" xlink:title=" ">
<polygon fill="white" stroke="black" points="447,-602.5 447,-725.5 573,-725.5 573,-602.5 447,-602.5"/>
<text text-anchor="middle" x="510" y="-713.5" font-family="Helvetica,sans-Serif" font-size="10.00">HY_HydroNexus</text>
<polyline fill="none" stroke="black" points="447,-706.5 573,-706.5 "/>
<text text-anchor="start" x="455" y="-694.5" font-family="Helvetica,sans-Serif" font-size="10.00">&#45; id_number</text>
<text text-anchor="start" x="455" y="-683.5" font-family="Helvetica,sans-Serif" font-size="10.00">&#45; number_of_downstream</text>
<text text-anchor="start" x="455" y="-672.5" font-family="Helvetica,sans-Serif" font-size="10.00">_catchments</text>
<polyline fill="none" stroke="black" points="447,-665.5 573,-665.5 "/>
<text text-anchor="start" x="455" y="-653.5" font-family="Helvetica,sans-Serif" font-size="10.00">+ HY_HydroNexus()</text>
<text text-anchor="start" x="455" y="-642.5" font-family="Helvetica,sans-Serif" font-size="10.00">+ ~HY_HydroNexus()</text>
<text text-anchor="start" x="455" y="-631.5" font-family="Helvetica,sans-Serif" font-size="10.00"># add_upstream_flow()</text>
<text text-anchor="start" x="455" y="-620.5" font-family="Helvetica,sans-Serif" font-size="10.00"># get_downstream_flow()</text>
<text text-anchor="start" x="455" y="-609.5" font-family="Helvetica,sans-Serif" font-size="10.00"># get_flow_units()</text>
</a>
</g>
</g>
<!-- Node8&#45;&gt;Node7 -->
<g id="edge7" class="edge">
<title>Node8&#45;&gt;Node7</title>
<path fill="none" stroke="#404040" d="M511.29,-602.17C511.54,-590.31 511.8,-578.06 512.04,-566.81"/>
<polygon fill="none" stroke="#404040" points="512.04,-566.59 508.17,-560.51 512.3,-554.6 516.17,-560.68 512.04,-566.59"/>
<text text-anchor="middle" x="522" y="-576" font-family="Helvetica,sans-Serif" font-size="10.00"> +ptr</text>
</g>
<!-- Node9 -->
<g id="node9" class="node">
<title>Node9</title>
<g id="a_node9"><a xlink:title="STL class.">
<polygon fill="white" stroke="#bfbfbf" points="543.5,-773.5 543.5,-830.5 602.5,-830.5 602.5,-773.5 543.5,-773.5"/>
<text text-anchor="middle" x="573" y="-818.5" font-family="Helvetica,sans-Serif" font-size="10.00">std::string</text>
<polyline fill="none" stroke="#bfbfbf" points="543.5,-811.5 602.5,-811.5 "/>
<text text-anchor="middle" x="573" y="-799.5" font-family="Helvetica,sans-Serif" font-size="10.00"> </text>
<polyline fill="none" stroke="#bfbfbf" points="543.5,-792.5 602.5,-792.5 "/>
<text text-anchor="middle" x="573" y="-780.5" font-family="Helvetica,sans-Serif" font-size="10.00"> </text>
</a>
</g>
</g>
<!-- Node9&#45;&gt;Node2 -->
<g id="edge25" class="edge">
<title>Node9&#45;&gt;Node2</title>
<path fill="none" stroke="#404040" d="M549.22,-773.33C538.78,-762.74 525.77,-751.44 512,-744 482.22,-727.92 470.63,-735.01 438,-726 401.88,-716.03 362.37,-704.01 328.27,-693.29"/>
<polygon fill="none" stroke="#404040" points="327.9,-693.17 320.97,-695.18 316.45,-689.56 323.38,-687.55 327.9,-693.17"/>
<text text-anchor="middle" x="536" y="-747" font-family="Helvetica,sans-Serif" font-size="10.00"> #id</text>
</g>
<!-- Node9&#45;&gt;Node4 -->
<g id="edge23" class="edge">
<title>Node9&#45;&gt;Node4</title>
<path fill="none" stroke="#404040" d="M582.09,-773.47C590.27,-746.24 601,-703.21 601,-665 601,-665 601,-665 601,-392.5 601,-360.26 580.78,-331.04 559.09,-308.97"/>
<polygon fill="none" stroke="#404040" points="559.04,-308.92 551.95,-307.61 550.42,-300.56 557.52,-301.87 559.04,-308.92"/>
<text text-anchor="middle" x="607.5" y="-518" font-family="Helvetica,sans-Serif" font-size="10.00"> &#45;id</text>
</g>
<!-- Node9&#45;&gt;Node8 -->
<g id="edge8" class="edge">
<title>Node9&#45;&gt;Node8</title>
<path fill="none" stroke="#404040" d="M563.09,-773.49C559.5,-764.05 555.27,-753.48 551,-744 549.96,-741.69 548.88,-739.35 547.78,-736.99"/>
<polygon fill="none" stroke="#404040" points="547.65,-736.73 541.45,-733.06 542.46,-725.92 548.66,-729.59 547.65,-736.73"/>
<text text-anchor="middle" x="562.5" y="-747" font-family="Helvetica,sans-Serif" font-size="10.00"> &#45;id</text>
</g>
<!-- Node10 -->
<g id="node10" class="node">
<title>Node10</title>
<g id="a_node10"><a xlink:title="STL class.">
<polygon fill="white" stroke="#bfbfbf" points="526.5,-878.5 526.5,-946.5 619.5,-946.5 619.5,-878.5 526.5,-878.5"/>
<text text-anchor="start" x="534.5" y="-934.5" font-family="Helvetica,sans-Serif" font-size="10.00">std::basic_string&lt;</text>
<text text-anchor="middle" x="573" y="-923.5" font-family="Helvetica,sans-Serif" font-size="10.00"> char &gt;</text>
<polyline fill="none" stroke="#bfbfbf" points="526.5,-916.5 619.5,-916.5 "/>
<text text-anchor="middle" x="573" y="-904.5" font-family="Helvetica,sans-Serif" font-size="10.00"> </text>
<polyline fill="none" stroke="#bfbfbf" points="526.5,-897.5 619.5,-897.5 "/>
<text text-anchor="middle" x="573" y="-885.5" font-family="Helvetica,sans-Serif" font-size="10.00"> </text>
</a>
</g>
</g>
<!-- Node10&#45;&gt;Node9 -->
<g id="edge9" class="edge">
<title>Node10&#45;&gt;Node9</title>
<path fill="none" stroke="midnightblue" d="M573,-868.06C573,-855.51 573,-842.15 573,-830.83"/>
<polygon fill="none" stroke="midnightblue" points="569.5,-868.36 573,-878.36 576.5,-868.36 569.5,-868.36"/>
</g>
<!-- Node11 -->
<g id="node11" class="node">
<title>Node11</title>
<g id="a_node11"><a xlink:title=" ">
<polygon fill="white" stroke="#bfbfbf" points="392,-773.5 392,-830.5 518,-830.5 518,-773.5 392,-773.5"/>
<text text-anchor="middle" x="455" y="-818.5" font-family="Helvetica,sans-Serif" font-size="10.00">std::shared_ptr&lt; point_t &gt;</text>
<polyline fill="none" stroke="#bfbfbf" points="392,-811.5 518,-811.5 "/>
<text text-anchor="start" x="400" y="-799.5" font-family="Helvetica,sans-Serif" font-size="10.00">+ ptr</text>
<polyline fill="none" stroke="#bfbfbf" points="392,-792.5 518,-792.5 "/>
<text text-anchor="start" x="400" y="-780.5" font-family="Helvetica,sans-Serif" font-size="10.00">+ operator&#45;&gt;()</text>
</a>
</g>
</g>
<!-- Node11&#45;&gt;Node8 -->
<g id="edge10" class="edge">
<title>Node11&#45;&gt;Node8</title>
<path fill="none" stroke="#404040" d="M462.26,-773.45C465,-764 468.35,-753.44 472,-744 472.9,-741.67 473.84,-739.32 474.82,-736.95"/>
<polygon fill="none" stroke="#404040" points="474.85,-736.86 473.53,-729.77 479.57,-725.82 480.89,-732.91 474.85,-736.86"/>
<text text-anchor="middle" x="492" y="-747" font-family="Helvetica,sans-Serif" font-size="10.00"> &#45;location</text>
</g>
<!-- Node12 -->
<g id="node12" class="node">
<title>Node12</title>
<g id="a_node12"><a xlink:title="STL class.">
<polygon fill="white" stroke="#bfbfbf" points="304.5,-884 304.5,-941 407.5,-941 407.5,-884 304.5,-884"/>
<text text-anchor="middle" x="356" y="-929" font-family="Helvetica,sans-Serif" font-size="10.00">std::shared_ptr&lt; T &gt;</text>
<polyline fill="none" stroke="#bfbfbf" points="304.5,-922 407.5,-922 "/>
<text text-anchor="middle" x="356" y="-910" font-family="Helvetica,sans-Serif" font-size="10.00"> </text>
<polyline fill="none" stroke="#bfbfbf" points="304.5,-903 407.5,-903 "/>
<text text-anchor="start" x="312.5" y="-891" font-family="Helvetica,sans-Serif" font-size="10.00">+ operator&#45;&gt;()</text>
</a>
</g>
</g>
<!-- Node12&#45;&gt;Node3 -->
<g id="edge24" class="edge">
<title>Node12&#45;&gt;Node3</title>
<path fill="none" stroke="orange" d="M294.06,-905.46C192.08,-893.79 0,-863.75 0,-803 0,-803 0,-803 0,-265.5 0,-192.75 244.71,-164.25 354.17,-155.14"/>
<polygon fill="orange" stroke="orange" points="293.91,-908.97 304.23,-906.6 294.69,-902.01 293.91,-908.97"/>
<text text-anchor="middle" x="43" y="-518" font-family="Helvetica,sans-Serif" font-size="10.00"> &lt; HY_Catchment &gt;</text>
</g>
<!-- Node12&#45;&gt;Node7 -->
<g id="edge13" class="edge">
<title>Node12&#45;&gt;Node7</title>
<path fill="none" stroke="orange" d="M356.33,-873.65C357.44,-839.27 361.2,-787.46 373,-744 391.19,-677.02 399.4,-659.69 438,-602 449.26,-585.17 464.05,-568.48 477.52,-554.69"/>
<polygon fill="orange" stroke="orange" points="352.82,-873.64 356.06,-883.73 359.82,-873.82 352.82,-873.64"/>
<text text-anchor="middle" x="419" y="-747" font-family="Helvetica,sans-Serif" font-size="10.00"> &lt; HY_HydroNexus &gt;</text>
</g>
<!-- Node12&#45;&gt;Node11 -->
<g id="edge11" class="edge">
<title>Node12&#45;&gt;Node11</title>
<path fill="none" stroke="orange" d="M388.1,-876.32C401.62,-861.5 417.13,-844.5 429.81,-830.61"/>
<polygon fill="orange" stroke="orange" points="385.39,-874.09 381.24,-883.84 390.56,-878.81 385.39,-874.09"/>
<text text-anchor="middle" x="436.5" y="-852" font-family="Helvetica,sans-Serif" font-size="10.00"> &lt; point_t &gt;</text>
</g>
<!-- Node12&#45;&gt;Node15 -->
<g id="edge18" class="edge">
<title>Node12&#45;&gt;Node15</title>
<path fill="none" stroke="orange" d="M300,-878.24C251.93,-846.12 185.97,-792.6 157,-726 135.02,-675.46 142.36,-655.13 157,-602 161.62,-585.21 170.77,-568.4 179.85,-554.51"/>
<polygon fill="orange" stroke="orange" points="298.17,-881.23 308.45,-883.8 302.01,-875.38 298.17,-881.23"/>
<text text-anchor="middle" x="238.5" y="-747" font-family="Helvetica,sans-Serif" font-size="10.00"> &lt; HY_CatchmentRealization &gt;</text>
</g>
<!-- Node13 -->
<g id="node13" class="node">
<title>Node13</title>
<g id="a_node13"><a xlink:title=" ">
<polygon fill="white" stroke="#bfbfbf" points="500.5,-994.5 500.5,-1051.5 529.5,-1051.5 529.5,-994.5 500.5,-994.5"/>
<text text-anchor="middle" x="515" y="-1039.5" font-family="Helvetica,sans-Serif" font-size="10.00">T</text>
<polyline fill="none" stroke="#bfbfbf" points="500.5,-1032.5 529.5,-1032.5 "/>
<text text-anchor="middle" x="515" y="-1020.5" font-family="Helvetica,sans-Serif" font-size="10.00"> </text>
<polyline fill="none" stroke="#bfbfbf" points="500.5,-1013.5 529.5,-1013.5 "/>
<text text-anchor="middle" x="515" y="-1001.5" font-family="Helvetica,sans-Serif" font-size="10.00"> </text>
</a>
</g>
</g>
<!-- Node13&#45;&gt;Node12 -->
<g id="edge12" class="edge">
<title>Node13&#45;&gt;Node12</title>
<path fill="none" stroke="#404040" d="M500.33,-1011.99C479.24,-997.6 439.32,-970.36 406.8,-948.16"/>
<polygon fill="none" stroke="#404040" points="406.45,-947.92 399.24,-947.85 396.53,-941.16 403.74,-941.24 406.45,-947.92"/>
<text text-anchor="middle" x="456" y="-968" font-family="Helvetica,sans-Serif" font-size="10.00"> +ptr</text>
</g>
<!-- Node14 -->
<g id="node14" class="node">
<title>Node14</title>
<g id="a_node14"><a xlink:title="STL class.">
<polygon fill="white" stroke="#bfbfbf" points="632,-492 632,-549 716,-549 716,-492 632,-492"/>
<text text-anchor="middle" x="674" y="-537" font-family="Helvetica,sans-Serif" font-size="10.00">std::vector&lt; T &gt;</text>
<polyline fill="none" stroke="#bfbfbf" points="632,-530 716,-530 "/>
<text text-anchor="middle" x="674" y="-518" font-family="Helvetica,sans-Serif" font-size="10.00"> </text>
<polyline fill="none" stroke="#bfbfbf" points="632,-511 716,-511 "/>
<text text-anchor="middle" x="674" y="-499" font-family="Helvetica,sans-Serif" font-size="10.00"> </text>
</a>
</g>
</g>
<!-- Node13&#45;&gt;Node14 -->
<g id="edge15" class="edge">
<title>Node13&#45;&gt;Node14</title>
<path fill="none" stroke="#404040" d="M529.53,-1018.64C566.46,-1009.17 661,-978.56 661,-913.5 661,-913.5 661,-913.5 661,-663 661,-628.56 664.87,-589.6 668.38,-561.29"/>
<polygon fill="none" stroke="#404040" points="668.42,-560.99 665.22,-554.53 669.96,-549.09 673.16,-555.55 668.42,-560.99"/>
<text text-anchor="middle" x="685.5" y="-799.5" font-family="Helvetica,sans-Serif" font-size="10.00"> +elements</text>
</g>
<!-- Node14&#45;&gt;Node6 -->
<g id="edge14" class="edge">
<title>Node14&#45;&gt;Node6</title>
<path fill="none" stroke="orange" d="M628.68,-485.58C604.66,-467.6 575.25,-445.59 551.37,-427.71"/>
<polygon fill="orange" stroke="orange" points="626.83,-488.57 636.94,-491.76 631.03,-482.96 626.83,-488.57"/>
<text text-anchor="start" x="601" y="-460" font-family="Helvetica,sans-Serif" font-size="10.00"> &lt; std::shared_ptr&lt;</text>
<text text-anchor="middle" x="647" y="-449" font-family="Helvetica,sans-Serif" font-size="10.00"> HY_HydroNexus &gt; &gt;</text>
</g>
<!-- Node14&#45;&gt;Node16 -->
<g id="edge21" class="edge">
<title>Node14&#45;&gt;Node16</title>
<path fill="none" stroke="orange" d="M720.56,-485.14C745.44,-462.57 771,-430.6 771,-394.5 771,-394.5 771,-394.5 771,-149.5 771,-83.18 688.25,-55.13 627.65,-43.49"/>
<polygon fill="orange" stroke="orange" points="718.12,-482.63 712.89,-491.84 722.73,-487.9 718.12,-482.63"/>
<text text-anchor="start" x="771" y="-269.5" font-family="Helvetica,sans-Serif" font-size="10.00"> &lt; std::shared_ptr&lt;</text>
<text text-anchor="middle" x="814" y="-258.5" font-family="Helvetica,sans-Serif" font-size="10.00"> HY_Catchment &gt; &gt;</text>
</g>
<!-- Node15&#45;&gt;Node4 -->
<g id="edge16" class="edge">
<title>Node15&#45;&gt;Node4</title>
<path fill="none" stroke="#404040" d="M239.56,-486.48C274.79,-453.28 331.43,-401.11 383,-359 404.38,-341.54 428.66,-323.3 450.04,-307.73"/>
<polygon fill="none" stroke="#404040" points="450.24,-307.59 452.75,-300.83 459.96,-300.55 457.44,-307.31 450.24,-307.59"/>
<text text-anchor="middle" x="407.5" y="-391" font-family="Helvetica,sans-Serif" font-size="10.00"> &#45;realization</text>
</g>
<!-- Node16&#45;&gt;Node4 -->
<g id="edge19" class="edge">
<title>Node16&#45;&gt;Node4</title>
<path fill="none" stroke="#404040" d="M568.37,-68.83C570.77,-105.79 570.68,-166.47 551,-214 549.84,-216.8 548.46,-219.57 546.93,-222.27"/>
<polygon fill="none" stroke="#404040" points="546.92,-222.29 546.98,-229.5 540.35,-232.33 540.29,-225.12 546.92,-222.29"/>
<text text-anchor="middle" x="621" y="-153.5" font-family="Helvetica,sans-Serif" font-size="10.00"> &#45;recieving_catchments</text>
<text text-anchor="middle" x="621" y="-142.5" font-family="Helvetica,sans-Serif" font-size="10.00">&#45;contained_catchments</text>
</g>
</g>
</svg>
        <g id="navigator" transform="translate(0 0)" fill="#404254">
                <rect fill="#f2f5e9" fill-opacity="0.5" stroke="#606060" stroke-width=".5" x="0" y="0" width="60" height="60"/>
                <use id="zoomplus" xlink:href="#zoomPlus" x="17" y="9" onmousedown="handleZoom(evt,'in')"/>
                <use id="zoomminus" xlink:href="#zoomMin" x="42" y="9" onmousedown="handleZoom(evt,'out')"/>
                <use id="reset" xlink:href="#resetDef" x="30" y="36" onmousedown="handleReset()"/>
                <g id="arrowUp" xlink:href="#dirArrow" transform="translate(30 24)" onmousedown="handlePan(0,-1)">
                  <use xlink:href="#rim" fill="#404040">
                        <set attributeName="fill" to="#808080" begin="arrowUp.mouseover" end="arrowUp.mouseout"/>
                  </use>
                  <path fill="none" stroke="white" stroke-width="1.5" d="M0,-3.0v7 M-2.5,-0.5L0,-3.0L2.5,-0.5"/>
                </g>
                <g id="arrowRight" xlink:href="#dirArrow" transform="rotate(90) translate(36 -43)" onmousedown="handlePan(1,0)">
                  <use xlink:href="#rim" fill="#404040">
                        <set attributeName="fill" to="#808080" begin="arrowRight.mouseover" end="arrowRight.mouseout"/>
                  </use>
                  <path fill="none" stroke="white" stroke-width="1.5" d="M0,-3.0v7 M-2.5,-0.5L0,-3.0L2.5,-0.5"/>
                </g>
                <g id="arrowDown" xlink:href="#dirArrow" transform="rotate(180) translate(-30 -48)" onmousedown="handlePan(0,1)">
                  <use xlink:href="#rim" fill="#404040">
                        <set attributeName="fill" to="#808080" begin="arrowDown.mouseover" end="arrowDown.mouseout"/>
                  </use>
                  <path fill="none" stroke="white" stroke-width="1.5" d="M0,-3.0v7 M-2.5,-0.5L0,-3.0L2.5,-0.5"/>
                </g>
                <g id="arrowLeft" xlink:href="#dirArrow" transform="rotate(270) translate(-36 17)" onmousedown="handlePan(-1,0)">
                  <use xlink:href="#rim" fill="#404040">
                        <set attributeName="fill" to="#808080" begin="arrowLeft.mouseover" end="arrowLeft.mouseout"/>
                  </use>
                  <path fill="none" stroke="white" stroke-width="1.5" d="M0,-3.0v7 M-2.5,-0.5L0,-3.0L2.5,-0.5"/>
                </g>
        </g>
        <svg viewBox="0 0 15 15" width="100%" height="30px" preserveAspectRatio="xMaxYMin meet">
         <g id="arrow_out" transform="scale(0.3 0.3)">
          <a xlink:href="class_h_y___cartographic_realization__coll__graph_org.svg" target="_base">
           <rect id="button" ry="5" rx="5" y="6" x="6" height="38" width="38"
                fill="#f2f5e9" fill-opacity="0.5" stroke="#606060" stroke-width="1.0"/>
           <path id="arrow"
             d="M 11.500037,31.436501 C 11.940474,20.09759 22.043105,11.32322 32.158766,21.979434 L 37.068811,17.246167 C 37.068811,17.246167 37.088388,32 37.088388,32 L 22.160133,31.978069 C 22.160133,31.978069 26.997745,27.140456 26.997745,27.140456 C 18.528582,18.264221 13.291696,25.230495 11.500037,31.436501 z"
             style="fill:#404040;"/>
          </a>
         </g>
        </svg>
</svg>
