<?xml version="1.0" encoding="UTF-8" standalone="no"?>
<!DOCTYPE svg PUBLIC "-//W3C//DTD SVG 1.1//EN"
 "http://www.w3.org/Graphics/SVG/1.1/DTD/svg11.dtd">
<!-- Generated by graphviz version 2.50.0 (20220203.2022)
 -->
<!-- Title: geojson::MultiPointFeature Pages: 1 -->
<svg width="736pt" height="1340pt"
 viewBox="0.00 0.00 735.50 1340.00" xmlns="http://www.w3.org/2000/svg" xmlns:xlink="http://www.w3.org/1999/xlink">
<g id="graph0" class="graph" transform="scale(1 1) rotate(0) translate(4 1336)">
<title>geojson::MultiPointFeature</title>
<polygon fill="white" stroke="transparent" points="-4,4 -4,-1336 731.5,-1336 731.5,4 -4,4"/>
<!-- Node1 -->
<g id="node1" class="node">
<title>Node1</title>
<g id="a_node1"><a xlink:title=" ">
<polygon fill="#bfbfbf" stroke="black" points="491,-0.5 491,-101.5 622,-101.5 622,-0.5 491,-0.5"/>
<text text-anchor="middle" x="556.5" y="-89.5" font-family="Helvetica,sans-Serif" font-size="10.00">geojson::MultiPointFeature</text>
<polyline fill="none" stroke="black" points="491,-82.5 622,-82.5 "/>
<text text-anchor="middle" x="556.5" y="-70.5" font-family="Helvetica,sans-Serif" font-size="10.00"> </text>
<polyline fill="none" stroke="black" points="491,-63.5 622,-63.5 "/>
<text text-anchor="start" x="499" y="-51.5" font-family="Helvetica,sans-Serif" font-size="10.00">+ MultiPointFeature()</text>
<text text-anchor="start" x="499" y="-40.5" font-family="Helvetica,sans-Serif" font-size="10.00">+ MultiPointFeature()</text>
<text text-anchor="start" x="499" y="-29.5" font-family="Helvetica,sans-Serif" font-size="10.00">+ MultiPointFeature()</text>
<text text-anchor="start" x="499" y="-18.5" font-family="Helvetica,sans-Serif" font-size="10.00">+ geometry()</text>
<text text-anchor="start" x="499" y="-7.5" font-family="Helvetica,sans-Serif" font-size="10.00">+ visit()</text>
</a>
</g>
</g>
<!-- Node2 -->
<g id="node2" class="node">
<title>Node2</title>
<g id="a_node2"><a xlink:href="classgeojson_1_1_feature_base.html" target="_top" xlink:title="Represents an individual feature within a Geojson definition.">
<polygon fill="white" stroke="black" points="329.5,-171.5 329.5,-459.5 463.5,-459.5 463.5,-171.5 329.5,-171.5"/>
<text text-anchor="middle" x="396.5" y="-447.5" font-family="Helvetica,sans-Serif" font-size="10.00">geojson::FeatureBase</text>
<polyline fill="none" stroke="black" points="329.5,-440.5 463.5,-440.5 "/>
<text text-anchor="start" x="337.5" y="-428.5" font-family="Helvetica,sans-Serif" font-size="10.00"># type</text>
<text text-anchor="start" x="337.5" y="-417.5" font-family="Helvetica,sans-Serif" font-size="10.00"># geom</text>
<polyline fill="none" stroke="black" points="329.5,-410.5 463.5,-410.5 "/>
<text text-anchor="start" x="337.5" y="-398.5" font-family="Helvetica,sans-Serif" font-size="10.00">+ FeatureBase()</text>
<text text-anchor="start" x="337.5" y="-387.5" font-family="Helvetica,sans-Serif" font-size="10.00">+ ~FeatureBase()</text>
<text text-anchor="start" x="337.5" y="-376.5" font-family="Helvetica,sans-Serif" font-size="10.00">+ get_type()</text>
<text text-anchor="start" x="337.5" y="-365.5" font-family="Helvetica,sans-Serif" font-size="10.00">+ add_origination_feature()</text>
<text text-anchor="start" x="337.5" y="-354.5" font-family="Helvetica,sans-Serif" font-size="10.00">+ add_destination_feature()</text>
<text text-anchor="start" x="337.5" y="-343.5" font-family="Helvetica,sans-Serif" font-size="10.00">+ assign_neighbors()</text>
<text text-anchor="start" x="337.5" y="-332.5" font-family="Helvetica,sans-Serif" font-size="10.00">+ add_neighbor_feature()</text>
<text text-anchor="start" x="337.5" y="-321.5" font-family="Helvetica,sans-Serif" font-size="10.00">+ get_property()</text>
<text text-anchor="start" x="337.5" y="-310.5" font-family="Helvetica,sans-Serif" font-size="10.00">+ set_id()</text>
<text text-anchor="start" x="337.5" y="-299.5" font-family="Helvetica,sans-Serif" font-size="10.00">+ get()</text>
<text text-anchor="start" x="337.5" y="-288.5" font-family="Helvetica,sans-Serif" font-size="10.00">+ set()</text>
<text text-anchor="start" x="337.5" y="-277.5" font-family="Helvetica,sans-Serif" font-size="10.00">+ set()</text>
<text text-anchor="start" x="337.5" y="-266.5" font-family="Helvetica,sans-Serif" font-size="10.00">+ set()</text>
<text text-anchor="start" x="337.5" y="-255.5" font-family="Helvetica,sans-Serif" font-size="10.00">+ set()</text>
<text text-anchor="start" x="337.5" y="-244.5" font-family="Helvetica,sans-Serif" font-size="10.00">+ set()</text>
<text text-anchor="start" x="337.5" y="-233.5" font-family="Helvetica,sans-Serif" font-size="10.00">and 29 more...</text>
<text text-anchor="start" x="337.5" y="-222.5" font-family="Helvetica,sans-Serif" font-size="10.00"># FeatureBase()</text>
<text text-anchor="start" x="337.5" y="-211.5" font-family="Helvetica,sans-Serif" font-size="10.00"># break_links()</text>
<text text-anchor="start" x="337.5" y="-200.5" font-family="Helvetica,sans-Serif" font-size="10.00"># remove_destination()</text>
<text text-anchor="start" x="337.5" y="-189.5" font-family="Helvetica,sans-Serif" font-size="10.00"># remove_origination()</text>
<text text-anchor="start" x="337.5" y="-178.5" font-family="Helvetica,sans-Serif" font-size="10.00"># remove_neighbor()</text>
</a>
</g>
</g>
<!-- Node2&#45;&gt;Node1 -->
<g id="edge1" class="edge">
<title>Node2&#45;&gt;Node1</title>
<path fill="none" stroke="midnightblue" d="M468.89,-199.7C478.58,-184.05 488.33,-168.16 497.5,-153 507.53,-136.4 518.29,-118.13 527.84,-101.75"/>
<polygon fill="none" stroke="midnightblue" points="465.81,-198.02 463.51,-208.36 471.76,-201.71 465.81,-198.02"/>
</g>
<!-- Node14 -->
<g id="node14" class="node">
<title>Node14</title>
<g id="a_node14"><a xlink:title=" ">
<polygon fill="white" stroke="black" points="368.5,-17 368.5,-85 472.5,-85 472.5,-17 368.5,-17"/>
<text text-anchor="start" x="376.5" y="-73" font-family="Helvetica,sans-Serif" font-size="10.00">std::vector&lt; geojson</text>
<text text-anchor="middle" x="420.5" y="-62" font-family="Helvetica,sans-Serif" font-size="10.00">::FeatureBase * &gt;</text>
<polyline fill="none" stroke="black" points="368.5,-55 472.5,-55 "/>
<text text-anchor="middle" x="420.5" y="-43" font-family="Helvetica,sans-Serif" font-size="10.00"> </text>
<polyline fill="none" stroke="black" points="368.5,-36 472.5,-36 "/>
<text text-anchor="middle" x="420.5" y="-24" font-family="Helvetica,sans-Serif" font-size="10.00"> </text>
</a>
</g>
</g>
<!-- Node2&#45;&gt;Node14 -->
<g id="edge21" class="edge">
<title>Node2&#45;&gt;Node14</title>
<path fill="none" stroke="#404040" d="M376.68,-171.48C377.26,-153.99 379.31,-136.48 383.5,-120 385.57,-111.86 388.84,-103.63 392.6,-95.86"/>
<polygon fill="none" stroke="#404040" points="392.6,-95.85 391.83,-88.68 398.16,-85.21 398.92,-92.38 392.6,-95.85"/>
<text text-anchor="middle" x="408" y="-134" font-family="Helvetica,sans-Serif" font-size="10.00"> +elements</text>
</g>
<!-- Node3 -->
<g id="node3" class="node">
<title>Node3</title>
<g id="a_node3"><a xlink:title=" ">
<polygon fill="white" stroke="black" points="439.5,-955.5 439.5,-1023.5 545.5,-1023.5 545.5,-955.5 439.5,-955.5"/>
<text text-anchor="start" x="447.5" y="-1011.5" font-family="Helvetica,sans-Serif" font-size="10.00">std::vector&lt;::geojson</text>
<text text-anchor="middle" x="492.5" y="-1000.5" font-family="Helvetica,sans-Serif" font-size="10.00">::geometry &gt;</text>
<polyline fill="none" stroke="black" points="439.5,-993.5 545.5,-993.5 "/>
<text text-anchor="start" x="447.5" y="-981.5" font-family="Helvetica,sans-Serif" font-size="10.00">+ elements</text>
<polyline fill="none" stroke="black" points="439.5,-974.5 545.5,-974.5 "/>
<text text-anchor="middle" x="492.5" y="-962.5" font-family="Helvetica,sans-Serif" font-size="10.00"> </text>
</a>
</g>
</g>
<!-- Node3&#45;&gt;Node2 -->
<g id="edge2" class="edge">
<title>Node3&#45;&gt;Node2</title>
<path fill="none" stroke="#404040" d="M492.75,-955.2C493.21,-862.3 492.88,-601.63 475.5,-518 472.32,-502.68 468.08,-487.02 463.22,-471.52"/>
<polygon fill="none" stroke="#404040" points="463.09,-471.13 457.43,-466.66 459.38,-459.71 465.04,-464.19 463.09,-471.13"/>
<text text-anchor="middle" x="535.5" y="-631.5" font-family="Helvetica,sans-Serif" font-size="10.00"> #geometry_collection</text>
</g>
<!-- Node4 -->
<g id="node4" class="node">
<title>Node4</title>
<g id="a_node4"><a xlink:title=" ">
<polygon fill="white" stroke="black" points="375.5,-1164 375.5,-1221 459.5,-1221 459.5,-1164 375.5,-1164"/>
<text text-anchor="middle" x="417.5" y="-1209" font-family="Helvetica,sans-Serif" font-size="10.00">std::vector&lt; T &gt;</text>
<polyline fill="none" stroke="black" points="375.5,-1202 459.5,-1202 "/>
<text text-anchor="middle" x="417.5" y="-1190" font-family="Helvetica,sans-Serif" font-size="10.00"> </text>
<polyline fill="none" stroke="black" points="375.5,-1183 459.5,-1183 "/>
<text text-anchor="middle" x="417.5" y="-1171" font-family="Helvetica,sans-Serif" font-size="10.00"> </text>
</a>
</g>
</g>
<!-- Node4&#45;&gt;Node3 -->
<g id="edge3" class="edge">
<title>Node4&#45;&gt;Node3</title>
<path fill="none" stroke="orange" d="M444.98,-1155.49C454.01,-1142.13 463.31,-1126.46 469.5,-1111 480.83,-1082.73 486.68,-1048.44 489.63,-1023.68"/>
<polygon fill="orange" stroke="orange" points="441.96,-1153.7 439.12,-1163.91 447.71,-1157.7 441.96,-1153.7"/>
<text text-anchor="middle" x="511.5" y="-1132" font-family="Helvetica,sans-Serif" font-size="10.00"> &lt;::geojson::geometry &gt;</text>
</g>
<!-- Node10 -->
<g id="node10" class="node">
<title>Node10</title>
<g id="a_node10"><a xlink:title=" ">
<polygon fill="white" stroke="black" points="231.5,-1042.5 231.5,-1110.5 335.5,-1110.5 335.5,-1042.5 231.5,-1042.5"/>
<text text-anchor="start" x="239.5" y="-1098.5" font-family="Helvetica,sans-Serif" font-size="10.00">std::vector&lt; geojson</text>
<text text-anchor="middle" x="283.5" y="-1087.5" font-family="Helvetica,sans-Serif" font-size="10.00">::JSONProperty &gt;</text>
<polyline fill="none" stroke="black" points="231.5,-1080.5 335.5,-1080.5 "/>
<text text-anchor="middle" x="283.5" y="-1068.5" font-family="Helvetica,sans-Serif" font-size="10.00"> </text>
<polyline fill="none" stroke="black" points="231.5,-1061.5 335.5,-1061.5 "/>
<text text-anchor="middle" x="283.5" y="-1049.5" font-family="Helvetica,sans-Serif" font-size="10.00"> </text>
</a>
</g>
</g>
<!-- Node4&#45;&gt;Node10 -->
<g id="edge13" class="edge">
<title>Node4&#45;&gt;Node10</title>
<path fill="none" stroke="orange" d="M365.13,-1185.89C335.6,-1179.75 301.02,-1166.89 282.5,-1140 276.71,-1131.6 275.31,-1120.94 275.85,-1110.82"/>
<polygon fill="orange" stroke="orange" points="364.86,-1189.4 375.33,-1187.8 366.14,-1182.52 364.86,-1189.4"/>
<text text-anchor="middle" x="343" y="-1132" font-family="Helvetica,sans-Serif" font-size="10.00"> &lt; geojson::JSONProperty &gt;</text>
</g>
<!-- Node13 -->
<g id="node13" class="node">
<title>Node13</title>
<g id="a_node13"><a xlink:title=" ">
<polygon fill="white" stroke="black" points="352,-605.5 352,-662.5 459,-662.5 459,-605.5 352,-605.5"/>
<text text-anchor="middle" x="405.5" y="-650.5" font-family="Helvetica,sans-Serif" font-size="10.00">std::vector&lt; double &gt;</text>
<polyline fill="none" stroke="black" points="352,-643.5 459,-643.5 "/>
<text text-anchor="start" x="360" y="-631.5" font-family="Helvetica,sans-Serif" font-size="10.00">+ elements</text>
<polyline fill="none" stroke="black" points="352,-624.5 459,-624.5 "/>
<text text-anchor="middle" x="405.5" y="-612.5" font-family="Helvetica,sans-Serif" font-size="10.00"> </text>
</a>
</g>
</g>
<!-- Node4&#45;&gt;Node13 -->
<g id="edge18" class="edge">
<title>Node4&#45;&gt;Node13</title>
<path fill="none" stroke="orange" d="M416.69,-1153.76C414.42,-1048.72 408.08,-754.61 406.1,-662.76"/>
<polygon fill="orange" stroke="orange" points="413.19,-1153.98 416.9,-1163.9 420.19,-1153.83 413.19,-1153.98"/>
<text text-anchor="middle" x="440.5" y="-1074" font-family="Helvetica,sans-Serif" font-size="10.00"> &lt; double &gt;</text>
</g>
<!-- Node4&#45;&gt;Node14 -->
<g id="edge22" class="edge">
<title>Node4&#45;&gt;Node14</title>
<path fill="none" stroke="orange" d="M469.77,-1183.33C526.32,-1171.17 608.5,-1142.34 608.5,-1077.5 608.5,-1077.5 608.5,-1077.5 608.5,-314.5 608.5,-214.97 560.32,-197.21 497.5,-120 487.48,-107.69 475.12,-95.72 463.26,-85.34"/>
<polygon fill="orange" stroke="orange" points="468.99,-1179.92 459.89,-1185.34 470.39,-1186.78 468.99,-1179.92"/>
<text text-anchor="middle" x="668" y="-631.5" font-family="Helvetica,sans-Serif" font-size="10.00"> &lt; geojson::FeatureBase * &gt;</text>
</g>
<!-- Node5 -->
<g id="node5" class="node">
<title>Node5</title>
<g id="a_node5"><a xlink:title=" ">
<polygon fill="white" stroke="black" points="349,-1274.5 349,-1331.5 378,-1331.5 378,-1274.5 349,-1274.5"/>
<text text-anchor="middle" x="363.5" y="-1319.5" font-family="Helvetica,sans-Serif" font-size="10.00">T</text>
<polyline fill="none" stroke="black" points="349,-1312.5 378,-1312.5 "/>
<text text-anchor="middle" x="363.5" y="-1300.5" font-family="Helvetica,sans-Serif" font-size="10.00"> </text>
<polyline fill="none" stroke="black" points="349,-1293.5 378,-1293.5 "/>
<text text-anchor="middle" x="363.5" y="-1281.5" font-family="Helvetica,sans-Serif" font-size="10.00"> </text>
</a>
</g>
</g>
<!-- Node5&#45;&gt;Node4 -->
<g id="edge4" class="edge">
<title>Node5&#45;&gt;Node4</title>
<path fill="none" stroke="#404040" d="M377.27,-1274.34C383.68,-1261.46 391.41,-1245.92 398.38,-1231.92"/>
<polygon fill="none" stroke="#404040" points="398.41,-1231.85 397.5,-1224.7 403.76,-1221.11 404.67,-1228.26 398.41,-1231.85"/>
<text text-anchor="middle" x="415" y="-1248" font-family="Helvetica,sans-Serif" font-size="10.00"> +elements</text>
</g>
<!-- Node11 -->
<g id="node11" class="node">
<title>Node11</title>
<g id="a_node11"><a xlink:title=" ">
<polygon fill="white" stroke="black" points="179.5,-1164 179.5,-1221 267.5,-1221 267.5,-1164 179.5,-1164"/>
<text text-anchor="middle" x="223.5" y="-1209" font-family="Helvetica,sans-Serif" font-size="10.00">std::map&lt; K, T &gt;</text>
<polyline fill="none" stroke="black" points="179.5,-1202 267.5,-1202 "/>
<text text-anchor="middle" x="223.5" y="-1190" font-family="Helvetica,sans-Serif" font-size="10.00"> </text>
<polyline fill="none" stroke="black" points="179.5,-1183 267.5,-1183 "/>
<text text-anchor="middle" x="223.5" y="-1171" font-family="Helvetica,sans-Serif" font-size="10.00"> </text>
</a>
</g>
</g>
<!-- Node5&#45;&gt;Node11 -->
<g id="edge16" class="edge">
<title>Node5&#45;&gt;Node11</title>
<path fill="none" stroke="#404040" d="M348.78,-1290.59C329.88,-1275.94 296.21,-1249.85 268.53,-1228.4"/>
<polygon fill="none" stroke="#404040" points="268.51,-1228.39 261.32,-1227.87 259.03,-1221.03 266.22,-1221.55 268.51,-1228.39"/>
<text text-anchor="middle" x="327" y="-1248" font-family="Helvetica,sans-Serif" font-size="10.00"> +elements</text>
</g>
<!-- Node6 -->
<g id="node6" class="node">
<title>Node6</title>
<g id="a_node6"><a xlink:title=" ">
<polygon fill="white" stroke="black" points="134,-518.5 134,-586.5 241,-586.5 241,-518.5 134,-518.5"/>
<text text-anchor="start" x="142" y="-574.5" font-family="Helvetica,sans-Serif" font-size="10.00">std::map&lt; std::string,</text>
<text text-anchor="middle" x="187.5" y="-563.5" font-family="Helvetica,sans-Serif" font-size="10.00"> JSONProperty &gt;</text>
<polyline fill="none" stroke="black" points="134,-556.5 241,-556.5 "/>
<text text-anchor="middle" x="187.5" y="-544.5" font-family="Helvetica,sans-Serif" font-size="10.00"> </text>
<polyline fill="none" stroke="black" points="134,-537.5 241,-537.5 "/>
<text text-anchor="middle" x="187.5" y="-525.5" font-family="Helvetica,sans-Serif" font-size="10.00"> </text>
</a>
</g>
</g>
<!-- Node6&#45;&gt;Node2 -->
<g id="edge5" class="edge">
<title>Node6&#45;&gt;Node2</title>
<path fill="none" stroke="#404040" d="M217,-518.33C243.99,-487.98 285.09,-441.77 321.15,-401.22"/>
<polygon fill="none" stroke="#404040" points="321.26,-401.1 322.26,-393.96 329.24,-392.13 328.24,-399.27 321.26,-401.1"/>
<text text-anchor="middle" x="291" y="-492" font-family="Helvetica,sans-Serif" font-size="10.00"> #foreign_members</text>
<text text-anchor="middle" x="291" y="-481" font-family="Helvetica,sans-Serif" font-size="10.00">#properties</text>
</g>
<!-- Node9 -->
<g id="node9" class="node">
<title>Node9</title>
<g id="a_node9"><a xlink:href="classgeojson_1_1_j_s_o_n_property.html" target="_top" xlink:title="@TODO: Convert JSONProperty into a variant of the supported types">
<polygon fill="white" stroke="black" points="200.5,-681.5 200.5,-936.5 318.5,-936.5 318.5,-681.5 200.5,-681.5"/>
<text text-anchor="middle" x="259.5" y="-924.5" font-family="Helvetica,sans-Serif" font-size="10.00">geojson::JSONProperty</text>
<polyline fill="none" stroke="black" points="200.5,-917.5 318.5,-917.5 "/>
<text text-anchor="start" x="208.5" y="-905.5" font-family="Helvetica,sans-Serif" font-size="10.00">&#45; type</text>
<text text-anchor="start" x="208.5" y="-894.5" font-family="Helvetica,sans-Serif" font-size="10.00">&#45; natural_number</text>
<text text-anchor="start" x="208.5" y="-883.5" font-family="Helvetica,sans-Serif" font-size="10.00">&#45; real_number</text>
<text text-anchor="start" x="208.5" y="-872.5" font-family="Helvetica,sans-Serif" font-size="10.00">&#45; boolean</text>
<polyline fill="none" stroke="black" points="200.5,-865.5 318.5,-865.5 "/>
<text text-anchor="start" x="208.5" y="-853.5" font-family="Helvetica,sans-Serif" font-size="10.00">+ JSONProperty()</text>
<text text-anchor="start" x="208.5" y="-842.5" font-family="Helvetica,sans-Serif" font-size="10.00">+ JSONProperty()</text>
<text text-anchor="start" x="208.5" y="-831.5" font-family="Helvetica,sans-Serif" font-size="10.00">+ JSONProperty()</text>
<text text-anchor="start" x="208.5" y="-820.5" font-family="Helvetica,sans-Serif" font-size="10.00">+ JSONProperty()</text>
<text text-anchor="start" x="208.5" y="-809.5" font-family="Helvetica,sans-Serif" font-size="10.00">+ JSONProperty()</text>
<text text-anchor="start" x="208.5" y="-798.5" font-family="Helvetica,sans-Serif" font-size="10.00">+ JSONProperty()</text>
<text text-anchor="start" x="208.5" y="-787.5" font-family="Helvetica,sans-Serif" font-size="10.00">+ JSONProperty()</text>
<text text-anchor="start" x="208.5" y="-776.5" font-family="Helvetica,sans-Serif" font-size="10.00">+ JSONProperty()</text>
<text text-anchor="start" x="208.5" y="-765.5" font-family="Helvetica,sans-Serif" font-size="10.00">+ JSONProperty()</text>
<text text-anchor="start" x="208.5" y="-754.5" font-family="Helvetica,sans-Serif" font-size="10.00">+ JSONProperty()</text>
<text text-anchor="start" x="208.5" y="-743.5" font-family="Helvetica,sans-Serif" font-size="10.00">+ ~JSONProperty()</text>
<text text-anchor="start" x="208.5" y="-732.5" font-family="Helvetica,sans-Serif" font-size="10.00">+ JSONProperty()</text>
<text text-anchor="start" x="208.5" y="-721.5" font-family="Helvetica,sans-Serif" font-size="10.00">+ JSONProperty()</text>
<text text-anchor="start" x="208.5" y="-710.5" font-family="Helvetica,sans-Serif" font-size="10.00">+ get_type()</text>
<text text-anchor="start" x="208.5" y="-699.5" font-family="Helvetica,sans-Serif" font-size="10.00">+ as_natural_number()</text>
<text text-anchor="start" x="208.5" y="-688.5" font-family="Helvetica,sans-Serif" font-size="10.00">and 15 more...</text>
</a>
</g>
</g>
<!-- Node6&#45;&gt;Node9 -->
<g id="edge10" class="edge">
<title>Node6&#45;&gt;Node9</title>
<path fill="none" stroke="#404040" d="M225.45,-586.53C230.18,-592.24 234.43,-598.46 237.5,-605 246.86,-624.92 252.98,-647.12 256.87,-669.32"/>
<polygon fill="none" stroke="#404040" points="256.88,-669.43 261.77,-674.73 258.76,-681.28 253.87,-675.98 256.88,-669.43"/>
<text text-anchor="middle" x="272.5" y="-631.5" font-family="Helvetica,sans-Serif" font-size="10.00"> &#45;values</text>
</g>
<!-- Node7 -->
<g id="node7" class="node">
<title>Node7</title>
<g id="a_node7"><a xlink:title=" ">
<polygon fill="white" stroke="black" points="17,-1048 17,-1105 76,-1105 76,-1048 17,-1048"/>
<text text-anchor="middle" x="46.5" y="-1093" font-family="Helvetica,sans-Serif" font-size="10.00">std::string</text>
<polyline fill="none" stroke="black" points="17,-1086 76,-1086 "/>
<text text-anchor="middle" x="46.5" y="-1074" font-family="Helvetica,sans-Serif" font-size="10.00"> </text>
<polyline fill="none" stroke="black" points="17,-1067 76,-1067 "/>
<text text-anchor="middle" x="46.5" y="-1055" font-family="Helvetica,sans-Serif" font-size="10.00"> </text>
</a>
</g>
</g>
<!-- Node7&#45;&gt;Node2 -->
<g id="edge19" class="edge">
<title>Node7&#45;&gt;Node2</title>
<path fill="none" stroke="#404040" d="M41.45,-1047.91C29.06,-972.78 2.92,-759.84 72.5,-605 90.96,-563.91 94.26,-551.39 124.5,-518 181.53,-455.03 260.9,-398.92 319.18,-362"/>
<polygon fill="none" stroke="#404040" points="319.28,-361.94 322.23,-355.37 329.44,-355.56 326.48,-362.14 319.28,-361.94"/>
<text text-anchor="middle" x="80.5" y="-631.5" font-family="Helvetica,sans-Serif" font-size="10.00"> #id</text>
</g>
<!-- Node7&#45;&gt;Node6 -->
<g id="edge6" class="edge">
<title>Node7&#45;&gt;Node6</title>
<path fill="none" stroke="#404040" d="M46.91,-1047.82C48.4,-982.88 55.32,-815.97 87.5,-681 95.88,-645.83 94.51,-633.7 116.5,-605 119.21,-601.47 122.22,-598.07 125.44,-594.83"/>
<polygon fill="none" stroke="#404040" points="125.53,-594.74 127.22,-587.73 134.35,-586.6 132.65,-593.61 125.53,-594.74"/>
<text text-anchor="middle" x="102" y="-806.5" font-family="Helvetica,sans-Serif" font-size="10.00"> +keys</text>
</g>
<!-- Node7&#45;&gt;Node9 -->
<g id="edge9" class="edge">
<title>Node7&#45;&gt;Node9</title>
<path fill="none" stroke="#404040" d="M52.23,-1047.98C58.95,-1017.38 70.46,-970.25 80.5,-955 108.35,-912.72 152.43,-876.8 189.88,-851.28"/>
<polygon fill="none" stroke="#404040" points="190.26,-851.02 193.03,-844.37 200.25,-844.36 197.47,-851.02 190.26,-851.02"/>
<text text-anchor="middle" x="94.5" y="-992.5" font-family="Helvetica,sans-Serif" font-size="10.00"> &#45;key</text>
<text text-anchor="middle" x="94.5" y="-981.5" font-family="Helvetica,sans-Serif" font-size="10.00">&#45;string</text>
</g>
<!-- Node8 -->
<g id="node8" class="node">
<title>Node8</title>
<g id="a_node8"><a xlink:title=" ">
<polygon fill="white" stroke="black" points="0,-1158.5 0,-1226.5 93,-1226.5 93,-1158.5 0,-1158.5"/>
<text text-anchor="start" x="8" y="-1214.5" font-family="Helvetica,sans-Serif" font-size="10.00">std::basic_string&lt;</text>
<text text-anchor="middle" x="46.5" y="-1203.5" font-family="Helvetica,sans-Serif" font-size="10.00"> Char &gt;</text>
<polyline fill="none" stroke="black" points="0,-1196.5 93,-1196.5 "/>
<text text-anchor="middle" x="46.5" y="-1184.5" font-family="Helvetica,sans-Serif" font-size="10.00"> </text>
<polyline fill="none" stroke="black" points="0,-1177.5 93,-1177.5 "/>
<text text-anchor="middle" x="46.5" y="-1165.5" font-family="Helvetica,sans-Serif" font-size="10.00"> </text>
</a>
</g>
</g>
<!-- Node8&#45;&gt;Node7 -->
<g id="edge7" class="edge">
<title>Node8&#45;&gt;Node7</title>
<path fill="none" stroke="midnightblue" d="M46.5,-1148.03C46.5,-1133.67 46.5,-1118.1 46.5,-1105.24"/>
<polygon fill="none" stroke="midnightblue" points="43,-1148.22 46.5,-1158.22 50,-1148.22 43,-1148.22"/>
</g>
<!-- Node9&#45;&gt;Node6 -->
<g id="edge8" class="edge">
<title>Node9&#45;&gt;Node6</title>
<path fill="none" stroke="#404040" d="M200.39,-700.29C195.57,-687.99 191.44,-675.41 188.5,-663 183.6,-642.26 182.79,-618.69 183.44,-598.74"/>
<polygon fill="none" stroke="#404040" points="183.45,-598.52 179.75,-592.34 184.03,-586.54 187.74,-592.72 183.45,-598.52"/>
<text text-anchor="middle" x="213" y="-631.5" font-family="Helvetica,sans-Serif" font-size="10.00"> +elements</text>
</g>
<!-- Node9&#45;&gt;Node10 -->
<g id="edge12" class="edge">
<title>Node9&#45;&gt;Node10</title>
<path fill="none" stroke="#404040" d="M270.95,-936.69C273.99,-970.26 277.07,-1004.34 279.42,-1030.34"/>
<polygon fill="none" stroke="#404040" points="279.43,-1030.46 283.95,-1036.08 280.51,-1042.41 275.98,-1036.8 279.43,-1030.46"/>
<text text-anchor="middle" x="303" y="-987" font-family="Helvetica,sans-Serif" font-size="10.00"> +elements</text>
</g>
<!-- Node10&#45;&gt;Node9 -->
<g id="edge11" class="edge">
<title>Node10&#45;&gt;Node9</title>
<path fill="none" stroke="#404040" d="M322.33,-1042.45C326.87,-1036.79 330.83,-1030.58 333.5,-1024 345.03,-995.58 340.67,-984.82 333.5,-955 330.88,-944.09 327.29,-933.07 323.09,-922.25"/>
<polygon fill="none" stroke="#404040" points="323.06,-922.16 317.09,-918.12 318.52,-911.05 324.49,-915.09 323.06,-922.16"/>
<text text-anchor="middle" x="365" y="-987" font-family="Helvetica,sans-Serif" font-size="10.00"> &#45;value_list</text>
</g>
<!-- Node11&#45;&gt;Node6 -->
<g id="edge14" class="edge">
<title>Node11&#45;&gt;Node6</title>
<path fill="none" stroke="orange" d="M198.89,-1154.98C178.44,-1122.27 150.9,-1072.18 139.5,-1024 101.39,-863 153.01,-663.96 176.72,-586.5"/>
<polygon fill="orange" stroke="orange" points="196.13,-1157.16 204.45,-1163.72 202.04,-1153.41 196.13,-1157.16"/>
<text text-anchor="middle" x="204.5" y="-987" font-family="Helvetica,sans-Serif" font-size="10.00"> &lt; std::string, JSONProperty &gt;</text>
</g>
<!-- Node12 -->
<g id="node12" class="node">
<title>Node12</title>
<g id="a_node12"><a xlink:title=" ">
<polygon fill="white" stroke="black" points="209,-1274.5 209,-1331.5 238,-1331.5 238,-1274.5 209,-1274.5"/>
<text text-anchor="middle" x="223.5" y="-1319.5" font-family="Helvetica,sans-Serif" font-size="10.00">K</text>
<polyline fill="none" stroke="black" points="209,-1312.5 238,-1312.5 "/>
<text text-anchor="middle" x="223.5" y="-1300.5" font-family="Helvetica,sans-Serif" font-size="10.00"> </text>
<polyline fill="none" stroke="black" points="209,-1293.5 238,-1293.5 "/>
<text text-anchor="middle" x="223.5" y="-1281.5" font-family="Helvetica,sans-Serif" font-size="10.00"> </text>
</a>
</g>
</g>
<!-- Node12&#45;&gt;Node11 -->
<g id="edge15" class="edge">
<title>Node12&#45;&gt;Node11</title>
<path fill="none" stroke="#404040" d="M223.5,-1274.34C223.5,-1261.84 223.5,-1246.84 223.5,-1233.18"/>
<polygon fill="none" stroke="#404040" points="223.5,-1233.11 219.5,-1227.11 223.5,-1221.11 227.5,-1227.11 223.5,-1233.11"/>
<text text-anchor="middle" x="238" y="-1248" font-family="Helvetica,sans-Serif" font-size="10.00"> +keys</text>
</g>
<!-- Node13&#45;&gt;Node2 -->
<g id="edge17" class="edge">
<title>Node13&#45;&gt;Node2</title>
<path fill="none" stroke="#404040" d="M404.72,-605.47C403.85,-574.97 402.38,-523.32 400.92,-472.04"/>
<polygon fill="none" stroke="#404040" points="400.91,-471.72 396.75,-465.84 400.57,-459.73 404.74,-465.61 400.91,-471.72"/>
<text text-anchor="middle" x="438" y="-550" font-family="Helvetica,sans-Serif" font-size="10.00"> #bounding_box</text>
</g>
<!-- Node14&#45;&gt;Node2 -->
<g id="edge20" class="edge">
<title>Node14&#45;&gt;Node2</title>
<path fill="none" stroke="#404040" d="M429.95,-85.28C432.63,-96.24 435.17,-108.56 436.5,-120 437.98,-132.78 438.18,-145.97 437.44,-159.18"/>
<polygon fill="none" stroke="#404040" points="437.43,-159.33 440.96,-165.62 436.51,-171.3 432.98,-165.01 437.43,-159.33"/>
<text text-anchor="middle" x="466" y="-145" font-family="Helvetica,sans-Serif" font-size="10.00"> #destination</text>
<text text-anchor="middle" x="466" y="-134" font-family="Helvetica,sans-Serif" font-size="10.00">#neighbors</text>
<text text-anchor="middle" x="466" y="-123" font-family="Helvetica,sans-Serif" font-size="10.00">#origination</text>
</g>
</g>
</svg>
