<?xml version="1.0" encoding="UTF-8" standalone="no"?>
<!DOCTYPE svg PUBLIC "-//W3C//DTD SVG 1.1//EN"
 "http://www.w3.org/Graphics/SVG/1.1/DTD/svg11.dtd">
<!-- Generated by graphviz version 2.49.3 (20211027.1534)
 -->
<!-- Title: geojson::MultiLineStringFeature Pages: 1 -->
<!--zoomable 850 -->
<svg id="main" version="1.1" xmlns="http://www.w3.org/2000/svg" xmlns:xlink="http://www.w3.org/1999/xlink" xml:space="preserve" onload="init(evt)">
<style type="text/css"><![CDATA[
.edge:hover path { stroke: red; }
.edge:hover polygon { stroke: red; fill: red; }
]]></style>
<script type="text/javascript"><![CDATA[
var edges = document.getElementsByTagName('g');
if (edges && edges.length) {
  for (var i=0;i<edges.length;i++) {
    if (edges[i].id.substr(0,4)=='edge') {
      edges[i].setAttribute('class','edge');
    }
  }
}
]]></script>
        <defs>
                <circle id="rim" cx="0" cy="0" r="7"/>
                <circle id="rim2" cx="0" cy="0" r="3.5"/>
                <g id="zoomPlus">
                        <use xlink:href="#rim" fill="#404040">
                                <set attributeName="fill" to="#808080" begin="zoomplus.mouseover" end="zoomplus.mouseout"/>
                        </use>
                        <path d="M-4,0h8M0,-4v8" fill="none" stroke="white" stroke-width="1.5" pointer-events="none"/>
                </g>
                <g id="zoomMin">
                        <use xlink:href="#rim" fill="#404040">
                                <set attributeName="fill" to="#808080" begin="zoomminus.mouseover" end="zoomminus.mouseout"/>
                        </use>
                        <path d="M-4,0h8" fill="none" stroke="white" stroke-width="1.5" pointer-events="none"/>
                </g>
                <g id="dirArrow">
                        <path fill="none" stroke="white" stroke-width="1.5" d="M0,-3.0v7 M-2.5,-0.5L0,-3.0L2.5,-0.5"/>
                </g>
               <g id="resetDef">
                       <use xlink:href="#rim2" fill="#404040">
                               <set attributeName="fill" to="#808080" begin="reset.mouseover" end="reset.mouseout"/>
                       </use>
               </g>
        </defs>

<script type="text/javascript">
var viewWidth = 342;
var viewHeight = 850;
var sectionId = 'dynsection-1';
</script>
<script xlink:href="svgpan.js"/>
<svg id="graph" class="graph">
<g id="viewport">
<title>geojson::MultiLineStringFeature</title>
<polygon fill="white" stroke="transparent" points="-4,4 -4,-846 338,-846 338,4 -4,4"/>
<!-- Node1 -->
<g id="node1" class="node">
<title>Node1</title>
<g id="a_node1"><a xlink:title=" ">
<polygon fill="#bfbfbf" stroke="black" points="202.5,-0.5 202.5,-112.5 331.5,-112.5 331.5,-0.5 202.5,-0.5"/>
<text text-anchor="start" x="210.5" y="-100.5" font-family="Helvetica,sans-Serif" font-size="10.00">geojson::MultiLineString</text>
<text text-anchor="middle" x="267" y="-89.5" font-family="Helvetica,sans-Serif" font-size="10.00">Feature</text>
<polyline fill="none" stroke="black" points="202.5,-82.5 331.5,-82.5 "/>
<text text-anchor="middle" x="267" y="-70.5" font-family="Helvetica,sans-Serif" font-size="10.00"> </text>
<polyline fill="none" stroke="black" points="202.5,-63.5 331.5,-63.5 "/>
<text text-anchor="start" x="210.5" y="-51.5" font-family="Helvetica,sans-Serif" font-size="10.00">+ MultiLineStringFeature()</text>
<text text-anchor="start" x="210.5" y="-40.5" font-family="Helvetica,sans-Serif" font-size="10.00">+ MultiLineStringFeature()</text>
<text text-anchor="start" x="210.5" y="-29.5" font-family="Helvetica,sans-Serif" font-size="10.00">+ MultiLineStringFeature()</text>
<text text-anchor="start" x="210.5" y="-18.5" font-family="Helvetica,sans-Serif" font-size="10.00">+ geometry()</text>
<text text-anchor="start" x="210.5" y="-7.5" font-family="Helvetica,sans-Serif" font-size="10.00">+ visit()</text>
</a>
</g>
</g>
<!-- Node2 -->
<g id="node2" class="node">
<title>Node2</title>
<g id="a_node2"><a xlink:href="classgeojson_1_1_feature_base.html" target="_top" xlink:title="Represents an individual feature within a Geojson definition.">
<polygon fill="white" stroke="black" points="200,-150.5 200,-493.5 334,-493.5 334,-150.5 200,-150.5"/>
<text text-anchor="middle" x="267" y="-481.5" font-family="Helvetica,sans-Serif" font-size="10.00">geojson::FeatureBase</text>
<polyline fill="none" stroke="black" points="200,-474.5 334,-474.5 "/>
<text text-anchor="start" x="208" y="-462.5" font-family="Helvetica,sans-Serif" font-size="10.00"># type</text>
<text text-anchor="start" x="208" y="-451.5" font-family="Helvetica,sans-Serif" font-size="10.00"># geom</text>
<text text-anchor="start" x="208" y="-440.5" font-family="Helvetica,sans-Serif" font-size="10.00"># geometry_collection</text>
<text text-anchor="start" x="208" y="-429.5" font-family="Helvetica,sans-Serif" font-size="10.00"># bounding_box</text>
<text text-anchor="start" x="208" y="-418.5" font-family="Helvetica,sans-Serif" font-size="10.00"># origination</text>
<text text-anchor="start" x="208" y="-407.5" font-family="Helvetica,sans-Serif" font-size="10.00"># destination</text>
<text text-anchor="start" x="208" y="-396.5" font-family="Helvetica,sans-Serif" font-size="10.00"># neighbors</text>
<polyline fill="none" stroke="black" points="200,-389.5 334,-389.5 "/>
<text text-anchor="start" x="208" y="-377.5" font-family="Helvetica,sans-Serif" font-size="10.00">+ FeatureBase()</text>
<text text-anchor="start" x="208" y="-366.5" font-family="Helvetica,sans-Serif" font-size="10.00">+ ~FeatureBase()</text>
<text text-anchor="start" x="208" y="-355.5" font-family="Helvetica,sans-Serif" font-size="10.00">+ get_type()</text>
<text text-anchor="start" x="208" y="-344.5" font-family="Helvetica,sans-Serif" font-size="10.00">+ add_origination_feature()</text>
<text text-anchor="start" x="208" y="-333.5" font-family="Helvetica,sans-Serif" font-size="10.00">+ add_destination_feature()</text>
<text text-anchor="start" x="208" y="-322.5" font-family="Helvetica,sans-Serif" font-size="10.00">+ assign_neighbors()</text>
<text text-anchor="start" x="208" y="-311.5" font-family="Helvetica,sans-Serif" font-size="10.00">+ add_neighbor_feature()</text>
<text text-anchor="start" x="208" y="-300.5" font-family="Helvetica,sans-Serif" font-size="10.00">+ get_property()</text>
<text text-anchor="start" x="208" y="-289.5" font-family="Helvetica,sans-Serif" font-size="10.00">+ set_id()</text>
<text text-anchor="start" x="208" y="-278.5" font-family="Helvetica,sans-Serif" font-size="10.00">+ get()</text>
<text text-anchor="start" x="208" y="-267.5" font-family="Helvetica,sans-Serif" font-size="10.00">+ set()</text>
<text text-anchor="start" x="208" y="-256.5" font-family="Helvetica,sans-Serif" font-size="10.00">+ set()</text>
<text text-anchor="start" x="208" y="-245.5" font-family="Helvetica,sans-Serif" font-size="10.00">+ set()</text>
<text text-anchor="start" x="208" y="-234.5" font-family="Helvetica,sans-Serif" font-size="10.00">+ set()</text>
<text text-anchor="start" x="208" y="-223.5" font-family="Helvetica,sans-Serif" font-size="10.00">+ set()</text>
<text text-anchor="start" x="208" y="-212.5" font-family="Helvetica,sans-Serif" font-size="10.00">and 29 more...</text>
<text text-anchor="start" x="208" y="-201.5" font-family="Helvetica,sans-Serif" font-size="10.00"># FeatureBase()</text>
<text text-anchor="start" x="208" y="-190.5" font-family="Helvetica,sans-Serif" font-size="10.00"># break_links()</text>
<text text-anchor="start" x="208" y="-179.5" font-family="Helvetica,sans-Serif" font-size="10.00"># remove_destination()</text>
<text text-anchor="start" x="208" y="-168.5" font-family="Helvetica,sans-Serif" font-size="10.00"># remove_origination()</text>
<text text-anchor="start" x="208" y="-157.5" font-family="Helvetica,sans-Serif" font-size="10.00"># remove_neighbor()</text>
</a>
</g>
</g>
<!-- Node2&#45;&gt;Node1 -->
<g id="edge1" class="edge">
<title>Node2&#45;&gt;Node1</title>
<path fill="none" stroke="midnightblue" d="M267,-140.2C267,-130.54 267,-121.29 267,-112.7"/>
<polygon fill="none" stroke="midnightblue" points="263.5,-140.4 267,-150.4 270.5,-140.4 263.5,-140.4"/>
</g>
<!-- Node3 -->
<g id="node3" class="node">
<title>Node3</title>
<g id="a_node3"><a xlink:title=" ">
<polygon fill="white" stroke="#bfbfbf" points="32.5,-552.5 32.5,-620.5 139.5,-620.5 139.5,-552.5 32.5,-552.5"/>
<text text-anchor="start" x="40.5" y="-608.5" font-family="Helvetica,sans-Serif" font-size="10.00">std::map&lt; std::string,</text>
<text text-anchor="middle" x="86" y="-597.5" font-family="Helvetica,sans-Serif" font-size="10.00"> JSONProperty &gt;</text>
<polyline fill="none" stroke="#bfbfbf" points="32.5,-590.5 139.5,-590.5 "/>
<text text-anchor="middle" x="86" y="-578.5" font-family="Helvetica,sans-Serif" font-size="10.00"> </text>
<polyline fill="none" stroke="#bfbfbf" points="32.5,-571.5 139.5,-571.5 "/>
<text text-anchor="middle" x="86" y="-559.5" font-family="Helvetica,sans-Serif" font-size="10.00"> </text>
</a>
</g>
</g>
<!-- Node3&#45;&gt;Node2 -->
<g id="edge2" class="edge">
<title>Node3&#45;&gt;Node2</title>
<path fill="none" stroke="#404040" d="M111.32,-552.36C124.31,-535.12 140.25,-513.61 154,-494 166.87,-475.64 180.26,-455.96 193.12,-436.72"/>
<polygon fill="none" stroke="#404040" points="193.14,-436.69 193.13,-429.48 199.79,-426.7 199.79,-433.92 193.14,-436.69"/>
<text text-anchor="middle" x="180.5" y="-526" font-family="Helvetica,sans-Serif" font-size="10.00"> #foreign_members</text>
<text text-anchor="middle" x="180.5" y="-515" font-family="Helvetica,sans-Serif" font-size="10.00">#properties</text>
</g>
<!-- Node6 -->
<g id="node6" class="node">
<title>Node6</title>
<g id="a_node6"><a xlink:href="classgeojson_1_1_j_s_o_n_property.html" target="_top" xlink:title="@TODO: Convert JSONProperty into a variant of the supported types">
<polygon fill="white" stroke="black" points="27,-183.5 27,-460.5 145,-460.5 145,-183.5 27,-183.5"/>
<text text-anchor="middle" x="86" y="-448.5" font-family="Helvetica,sans-Serif" font-size="10.00">geojson::JSONProperty</text>
<polyline fill="none" stroke="black" points="27,-441.5 145,-441.5 "/>
<text text-anchor="start" x="35" y="-429.5" font-family="Helvetica,sans-Serif" font-size="10.00">&#45; type</text>
<text text-anchor="start" x="35" y="-418.5" font-family="Helvetica,sans-Serif" font-size="10.00">&#45; natural_number</text>
<text text-anchor="start" x="35" y="-407.5" font-family="Helvetica,sans-Serif" font-size="10.00">&#45; real_number</text>
<text text-anchor="start" x="35" y="-396.5" font-family="Helvetica,sans-Serif" font-size="10.00">&#45; boolean</text>
<text text-anchor="start" x="35" y="-385.5" font-family="Helvetica,sans-Serif" font-size="10.00">&#45; value_list</text>
<text text-anchor="start" x="35" y="-374.5" font-family="Helvetica,sans-Serif" font-size="10.00">&#45; data</text>
<polyline fill="none" stroke="black" points="27,-367.5 145,-367.5 "/>
<text text-anchor="start" x="35" y="-355.5" font-family="Helvetica,sans-Serif" font-size="10.00">+ JSONProperty()</text>
<text text-anchor="start" x="35" y="-344.5" font-family="Helvetica,sans-Serif" font-size="10.00">+ JSONProperty()</text>
<text text-anchor="start" x="35" y="-333.5" font-family="Helvetica,sans-Serif" font-size="10.00">+ JSONProperty()</text>
<text text-anchor="start" x="35" y="-322.5" font-family="Helvetica,sans-Serif" font-size="10.00">+ JSONProperty()</text>
<text text-anchor="start" x="35" y="-311.5" font-family="Helvetica,sans-Serif" font-size="10.00">+ JSONProperty()</text>
<text text-anchor="start" x="35" y="-300.5" font-family="Helvetica,sans-Serif" font-size="10.00">+ JSONProperty()</text>
<text text-anchor="start" x="35" y="-289.5" font-family="Helvetica,sans-Serif" font-size="10.00">+ JSONProperty()</text>
<text text-anchor="start" x="35" y="-278.5" font-family="Helvetica,sans-Serif" font-size="10.00">+ JSONProperty()</text>
<text text-anchor="start" x="35" y="-267.5" font-family="Helvetica,sans-Serif" font-size="10.00">+ JSONProperty()</text>
<text text-anchor="start" x="35" y="-256.5" font-family="Helvetica,sans-Serif" font-size="10.00">+ JSONProperty()</text>
<text text-anchor="start" x="35" y="-245.5" font-family="Helvetica,sans-Serif" font-size="10.00">+ ~JSONProperty()</text>
<text text-anchor="start" x="35" y="-234.5" font-family="Helvetica,sans-Serif" font-size="10.00">+ JSONProperty()</text>
<text text-anchor="start" x="35" y="-223.5" font-family="Helvetica,sans-Serif" font-size="10.00">+ JSONProperty()</text>
<text text-anchor="start" x="35" y="-212.5" font-family="Helvetica,sans-Serif" font-size="10.00">+ get_type()</text>
<text text-anchor="start" x="35" y="-201.5" font-family="Helvetica,sans-Serif" font-size="10.00">+ as_natural_number()</text>
<text text-anchor="start" x="35" y="-190.5" font-family="Helvetica,sans-Serif" font-size="10.00">and 16 more...</text>
</a>
</g>
</g>
<!-- Node3&#45;&gt;Node6 -->
<g id="edge7" class="edge">
<title>Node3&#45;&gt;Node6</title>
<path fill="none" stroke="#404040" d="M86,-552.25C86,-531.4 86,-502.87 86,-473.02"/>
<polygon fill="none" stroke="#404040" points="86,-472.63 82,-466.63 86,-460.63 90,-466.63 86,-472.63"/>
<text text-anchor="middle" x="103" y="-520.5" font-family="Helvetica,sans-Serif" font-size="10.00"> &#45;values</text>
</g>
<!-- Node4 -->
<g id="node4" class="node">
<title>Node4</title>
<g id="a_node4"><a xlink:title=" ">
<polygon fill="white" stroke="#bfbfbf" points="211.5,-668.5 211.5,-725.5 270.5,-725.5 270.5,-668.5 211.5,-668.5"/>
<text text-anchor="middle" x="241" y="-713.5" font-family="Helvetica,sans-Serif" font-size="10.00">std::string</text>
<polyline fill="none" stroke="#bfbfbf" points="211.5,-706.5 270.5,-706.5 "/>
<text text-anchor="middle" x="241" y="-694.5" font-family="Helvetica,sans-Serif" font-size="10.00"> </text>
<polyline fill="none" stroke="#bfbfbf" points="211.5,-687.5 270.5,-687.5 "/>
<text text-anchor="middle" x="241" y="-675.5" font-family="Helvetica,sans-Serif" font-size="10.00"> </text>
</a>
</g>
</g>
<!-- Node4&#45;&gt;Node2 -->
<g id="edge11" class="edge">
<title>Node4&#45;&gt;Node2</title>
<path fill="none" stroke="#404040" d="M255.95,-668.38C262.59,-654.58 269.65,-637.37 273,-621 280.53,-584.17 283.3,-544.25 283.41,-505.96"/>
<polygon fill="none" stroke="#404040" points="283.41,-505.59 279.38,-499.61 283.36,-493.59 287.38,-499.57 283.41,-505.59"/>
<text text-anchor="middle" x="289" y="-584" font-family="Helvetica,sans-Serif" font-size="10.00"> #id</text>
</g>
<!-- Node4&#45;&gt;Node3 -->
<g id="edge3" class="edge">
<title>Node4&#45;&gt;Node3</title>
<path fill="none" stroke="#404040" d="M211.42,-668.37C200.36,-658.61 187.46,-647.87 175,-639 167.14,-633.41 158.64,-627.88 150.1,-622.64"/>
<polygon fill="none" stroke="#404040" points="150.02,-622.59 142.81,-622.93 139.73,-616.41 146.93,-616.07 150.02,-622.59"/>
<text text-anchor="middle" x="202.5" y="-642" font-family="Helvetica,sans-Serif" font-size="10.00"> +keys</text>
</g>
<!-- Node4&#45;&gt;Node6 -->
<g id="edge6" class="edge">
<title>Node4&#45;&gt;Node6</title>
<path fill="none" stroke="#404040" d="M240.21,-668.14C238.62,-619.88 234.45,-524.66 226,-512 216.29,-497.45 203.83,-505.89 191,-494 176.82,-480.86 163.86,-465.38 152.25,-449.2"/>
<polygon fill="none" stroke="#404040" points="152.04,-448.9 145.34,-446.25 145.2,-439.04 151.91,-441.69 152.04,-448.9"/>
<text text-anchor="middle" x="252" y="-589.5" font-family="Helvetica,sans-Serif" font-size="10.00"> &#45;key</text>
<text text-anchor="middle" x="252" y="-578.5" font-family="Helvetica,sans-Serif" font-size="10.00">&#45;string</text>
</g>
<!-- Node5 -->
<g id="node5" class="node">
<title>Node5</title>
<g id="a_node5"><a xlink:title=" ">
<polygon fill="white" stroke="#bfbfbf" points="194.5,-773.5 194.5,-841.5 287.5,-841.5 287.5,-773.5 194.5,-773.5"/>
<text text-anchor="start" x="202.5" y="-829.5" font-family="Helvetica,sans-Serif" font-size="10.00">std::basic_string&lt;</text>
<text text-anchor="middle" x="241" y="-818.5" font-family="Helvetica,sans-Serif" font-size="10.00"> Char &gt;</text>
<polyline fill="none" stroke="#bfbfbf" points="194.5,-811.5 287.5,-811.5 "/>
<text text-anchor="middle" x="241" y="-799.5" font-family="Helvetica,sans-Serif" font-size="10.00"> </text>
<polyline fill="none" stroke="#bfbfbf" points="194.5,-792.5 287.5,-792.5 "/>
<text text-anchor="middle" x="241" y="-780.5" font-family="Helvetica,sans-Serif" font-size="10.00"> </text>
</a>
</g>
</g>
<!-- Node5&#45;&gt;Node4 -->
<g id="edge4" class="edge">
<title>Node5&#45;&gt;Node4</title>
<path fill="none" stroke="midnightblue" d="M241,-763.06C241,-750.51 241,-737.15 241,-725.83"/>
<polygon fill="none" stroke="midnightblue" points="237.5,-763.36 241,-773.36 244.5,-763.36 237.5,-763.36"/>
</g>
<!-- Node6&#45;&gt;Node3 -->
<g id="edge5" class="edge">
<title>Node6&#45;&gt;Node3</title>
<path fill="none" stroke="#404040" d="M27.83,-460.73C22.56,-477.75 18.07,-495.1 15,-512 13.25,-521.62 10.56,-525.29 15,-534 17.33,-538.58 20.29,-542.84 23.66,-546.8"/>
<polygon fill="none" stroke="#404040" points="23.76,-546.91 30.82,-548.39 32.17,-555.47 25.11,-554 23.76,-546.91"/>
<text text-anchor="middle" x="39.5" y="-520.5" font-family="Helvetica,sans-Serif" font-size="10.00"> +elements</text>
</g>
<!-- Node7 -->
<g id="node7" class="node">
<title>Node7</title>
<g id="a_node7"><a xlink:title=" ">
<polygon fill="white" stroke="#bfbfbf" points="0,-668.5 0,-725.5 88,-725.5 88,-668.5 0,-668.5"/>
<text text-anchor="middle" x="44" y="-713.5" font-family="Helvetica,sans-Serif" font-size="10.00">std::map&lt; K, T &gt;</text>
<polyline fill="none" stroke="#bfbfbf" points="0,-706.5 88,-706.5 "/>
<text text-anchor="middle" x="44" y="-694.5" font-family="Helvetica,sans-Serif" font-size="10.00"> </text>
<polyline fill="none" stroke="#bfbfbf" points="0,-687.5 88,-687.5 "/>
<text text-anchor="middle" x="44" y="-675.5" font-family="Helvetica,sans-Serif" font-size="10.00"> </text>
</a>
</g>
</g>
<!-- Node7&#45;&gt;Node3 -->
<g id="edge8" class="edge">
<title>Node7&#45;&gt;Node3</title>
<path fill="none" stroke="orange" d="M41.21,-658.26C41.69,-651.7 42.83,-645.05 45,-639 47.28,-632.65 50.69,-626.5 54.58,-620.78"/>
<polygon fill="orange" stroke="orange" points="37.7,-658.29 40.93,-668.38 44.7,-658.48 37.7,-658.29"/>
<text text-anchor="middle" x="110" y="-642" font-family="Helvetica,sans-Serif" font-size="10.00"> &lt; std::string, JSONProperty &gt;</text>
</g>
<!-- Node8 -->
<g id="node8" class="node">
<title>Node8</title>
<g id="a_node8"><a xlink:title=" ">
<polygon fill="white" stroke="#bfbfbf" points="3.5,-779 3.5,-836 32.5,-836 32.5,-779 3.5,-779"/>
<text text-anchor="middle" x="18" y="-824" font-family="Helvetica,sans-Serif" font-size="10.00">K</text>
<polyline fill="none" stroke="#bfbfbf" points="3.5,-817 32.5,-817 "/>
<text text-anchor="middle" x="18" y="-805" font-family="Helvetica,sans-Serif" font-size="10.00"> </text>
<polyline fill="none" stroke="#bfbfbf" points="3.5,-798 32.5,-798 "/>
<text text-anchor="middle" x="18" y="-786" font-family="Helvetica,sans-Serif" font-size="10.00"> </text>
</a>
</g>
</g>
<!-- Node8&#45;&gt;Node7 -->
<g id="edge9" class="edge">
<title>Node8&#45;&gt;Node7</title>
<path fill="none" stroke="#404040" d="M15.62,-778.73C15.4,-767.75 16.08,-755.13 19,-744 19.61,-741.69 20.35,-739.37 21.2,-737.07"/>
<polygon fill="none" stroke="#404040" points="21.32,-736.8 20.07,-729.7 26.15,-725.82 27.39,-732.92 21.32,-736.8"/>
<text text-anchor="middle" x="33.5" y="-747" font-family="Helvetica,sans-Serif" font-size="10.00"> +keys</text>
</g>
<!-- Node9 -->
<g id="node9" class="node">
<title>Node9</title>
<g id="a_node9"><a xlink:title=" ">
<polygon fill="white" stroke="#bfbfbf" points="55.5,-779 55.5,-836 84.5,-836 84.5,-779 55.5,-779"/>
<text text-anchor="middle" x="70" y="-824" font-family="Helvetica,sans-Serif" font-size="10.00">T</text>
<polyline fill="none" stroke="#bfbfbf" points="55.5,-817 84.5,-817 "/>
<text text-anchor="middle" x="70" y="-805" font-family="Helvetica,sans-Serif" font-size="10.00"> </text>
<polyline fill="none" stroke="#bfbfbf" points="55.5,-798 84.5,-798 "/>
<text text-anchor="middle" x="70" y="-786" font-family="Helvetica,sans-Serif" font-size="10.00"> </text>
</a>
</g>
</g>
<!-- Node9&#45;&gt;Node7 -->
<g id="edge10" class="edge">
<title>Node9&#45;&gt;Node7</title>
<path fill="none" stroke="#404040" d="M63.37,-778.84C60.38,-766.34 56.78,-751.34 53.51,-737.68"/>
<polygon fill="none" stroke="#404040" points="53.41,-737.28 48.12,-732.38 50.62,-725.61 55.9,-730.51 53.41,-737.28"/>
<text text-anchor="middle" x="81.5" y="-747" font-family="Helvetica,sans-Serif" font-size="10.00"> +elements</text>
</g>
</g>
</svg>
        <g id="navigator" transform="translate(0 0)" fill="#404254">
                <rect fill="#f2f5e9" fill-opacity="0.5" stroke="#606060" stroke-width=".5" x="0" y="0" width="60" height="60"/>
                <use id="zoomplus" xlink:href="#zoomPlus" x="17" y="9" onmousedown="handleZoom(evt,'in')"/>
                <use id="zoomminus" xlink:href="#zoomMin" x="42" y="9" onmousedown="handleZoom(evt,'out')"/>
                <use id="reset" xlink:href="#resetDef" x="30" y="36" onmousedown="handleReset()"/>
                <g id="arrowUp" xlink:href="#dirArrow" transform="translate(30 24)" onmousedown="handlePan(0,-1)">
                  <use xlink:href="#rim" fill="#404040">
                        <set attributeName="fill" to="#808080" begin="arrowUp.mouseover" end="arrowUp.mouseout"/>
                  </use>
                  <path fill="none" stroke="white" stroke-width="1.5" d="M0,-3.0v7 M-2.5,-0.5L0,-3.0L2.5,-0.5"/>
                </g>
                <g id="arrowRight" xlink:href="#dirArrow" transform="rotate(90) translate(36 -43)" onmousedown="handlePan(1,0)">
                  <use xlink:href="#rim" fill="#404040">
                        <set attributeName="fill" to="#808080" begin="arrowRight.mouseover" end="arrowRight.mouseout"/>
                  </use>
                  <path fill="none" stroke="white" stroke-width="1.5" d="M0,-3.0v7 M-2.5,-0.5L0,-3.0L2.5,-0.5"/>
                </g>
                <g id="arrowDown" xlink:href="#dirArrow" transform="rotate(180) translate(-30 -48)" onmousedown="handlePan(0,1)">
                  <use xlink:href="#rim" fill="#404040">
                        <set attributeName="fill" to="#808080" begin="arrowDown.mouseover" end="arrowDown.mouseout"/>
                  </use>
                  <path fill="none" stroke="white" stroke-width="1.5" d="M0,-3.0v7 M-2.5,-0.5L0,-3.0L2.5,-0.5"/>
                </g>
                <g id="arrowLeft" xlink:href="#dirArrow" transform="rotate(270) translate(-36 17)" onmousedown="handlePan(-1,0)">
                  <use xlink:href="#rim" fill="#404040">
                        <set attributeName="fill" to="#808080" begin="arrowLeft.mouseover" end="arrowLeft.mouseout"/>
                  </use>
                  <path fill="none" stroke="white" stroke-width="1.5" d="M0,-3.0v7 M-2.5,-0.5L0,-3.0L2.5,-0.5"/>
                </g>
        </g>
        <svg viewBox="0 0 15 15" width="100%" height="30px" preserveAspectRatio="xMaxYMin meet">
         <g id="arrow_out" transform="scale(0.3 0.3)">
          <a xlink:href="classgeojson_1_1_multi_line_string_feature__coll__graph_org.svg" target="_base">
           <rect id="button" ry="5" rx="5" y="6" x="6" height="38" width="38"
                fill="#f2f5e9" fill-opacity="0.5" stroke="#606060" stroke-width="1.0"/>
           <path id="arrow"
             d="M 11.500037,31.436501 C 11.940474,20.09759 22.043105,11.32322 32.158766,21.979434 L 37.068811,17.246167 C 37.068811,17.246167 37.088388,32 37.088388,32 L 22.160133,31.978069 C 22.160133,31.978069 26.997745,27.140456 26.997745,27.140456 C 18.528582,18.264221 13.291696,25.230495 11.500037,31.436501 z"
             style="fill:#404040;"/>
          </a>
         </g>
        </svg>
</svg>
