<?xml version="1.0" encoding="UTF-8" standalone="no"?>
<!DOCTYPE svg PUBLIC "-//W3C//DTD SVG 1.1//EN"
 "http://www.w3.org/Graphics/SVG/1.1/DTD/svg11.dtd">
<!-- Generated by graphviz version 9.0.0 (20230911.1827)
 -->
<!-- Title: data_access::OptionalWrappedDataProvider Pages: 1 -->
<svg width="719pt" height="1432pt"
 viewBox="0.00 0.00 718.50 1432.25" xmlns="http://www.w3.org/2000/svg" xmlns:xlink="http://www.w3.org/1999/xlink">
<g id="graph0" class="graph" transform="scale(1 1) rotate(0) translate(4 1428.25)">
<title>data_access::OptionalWrappedDataProvider</title>
<!-- Node1 -->
<g id="Node000001" class="node">
<title>Node1</title>
<g id="a_Node000001"><a xlink:title="Extension of DeferredWrappedProvider, where default values can be used instead of a backing provider.">
<polygon fill="#999999" stroke="none" points="568,-270 414,-270 414,0 568,0 568,-270"/>
<text text-anchor="start" x="423.88" y="-256.5" font-family="Helvetica,sans-Serif" font-size="10.00">data_access::OptionalWrapped</text>
<text text-anchor="start" x="462.88" y="-245.25" font-family="Helvetica,sans-Serif" font-size="10.00">DataProvider</text>
<text text-anchor="start" x="489.5" y="-230.5" font-family="Helvetica,sans-Serif" font-size="10.00"> </text>
<text text-anchor="start" x="418" y="-215.5" font-family="Helvetica,sans-Serif" font-size="10.00">+</text>
<text text-anchor="start" x="428" y="-215.5" font-family="Helvetica,sans-Serif" font-size="10.00">OptionalWrappedDataProvider()</text>
<text text-anchor="start" x="418" y="-200.5" font-family="Helvetica,sans-Serif" font-size="10.00">+</text>
<text text-anchor="start" x="428" y="-200.5" font-family="Helvetica,sans-Serif" font-size="10.00">OptionalWrappedDataProvider()</text>
<text text-anchor="start" x="418" y="-185.5" font-family="Helvetica,sans-Serif" font-size="10.00">+</text>
<text text-anchor="start" x="428" y="-185.5" font-family="Helvetica,sans-Serif" font-size="10.00">OptionalWrappedDataProvider()</text>
<text text-anchor="start" x="418" y="-170.5" font-family="Helvetica,sans-Serif" font-size="10.00">+</text>
<text text-anchor="start" x="428" y="-170.5" font-family="Helvetica,sans-Serif" font-size="10.00">OptionalWrappedDataProvider()</text>
<text text-anchor="start" x="418" y="-155.5" font-family="Helvetica,sans-Serif" font-size="10.00">+</text>
<text text-anchor="start" x="428" y="-155.5" font-family="Helvetica,sans-Serif" font-size="10.00">OptionalWrappedDataProvider()</text>
<text text-anchor="start" x="418" y="-140.5" font-family="Helvetica,sans-Serif" font-size="10.00">+</text>
<text text-anchor="start" x="428" y="-140.5" font-family="Helvetica,sans-Serif" font-size="10.00">OptionalWrappedDataProvider()</text>
<text text-anchor="start" x="418" y="-125.5" font-family="Helvetica,sans-Serif" font-size="10.00">+</text>
<text text-anchor="start" x="428" y="-125.5" font-family="Helvetica,sans-Serif" font-size="10.00">OptionalWrappedDataProvider()</text>
<text text-anchor="start" x="418" y="-110.5" font-family="Helvetica,sans-Serif" font-size="10.00">+</text>
<text text-anchor="start" x="428" y="-110.5" font-family="Helvetica,sans-Serif" font-size="10.00">get_value()</text>
<text text-anchor="start" x="418" y="-95.5" font-family="Helvetica,sans-Serif" font-size="10.00">+</text>
<text text-anchor="start" x="428" y="-95.5" font-family="Helvetica,sans-Serif" font-size="10.00">isDefaultOverride()</text>
<text text-anchor="start" x="418" y="-80.5" font-family="Helvetica,sans-Serif" font-size="10.00">+</text>
<text text-anchor="start" x="428" y="-80.5" font-family="Helvetica,sans-Serif" font-size="10.00">isReadyToProvideData()</text>
<text text-anchor="start" x="418" y="-65.5" font-family="Helvetica,sans-Serif" font-size="10.00">+</text>
<text text-anchor="start" x="428" y="-65.5" font-family="Helvetica,sans-Serif" font-size="10.00">isSuppliedWithDefault()</text>
<text text-anchor="start" x="418" y="-50.5" font-family="Helvetica,sans-Serif" font-size="10.00">+</text>
<text text-anchor="start" x="428" y="-50.5" font-family="Helvetica,sans-Serif" font-size="10.00">setWrappedProvider()</text>
<text text-anchor="start" x="418.38" y="-35.5" font-family="Helvetica,sans-Serif" font-size="10.00">#</text>
<text text-anchor="start" x="428" y="-35.5" font-family="Helvetica,sans-Serif" font-size="10.00">recordUsingDefault()</text>
<text text-anchor="start" x="419.5" y="-20.5" font-family="Helvetica,sans-Serif" font-size="10.00">&#45;</text>
<text text-anchor="start" x="428" y="-20.5" font-family="Helvetica,sans-Serif" font-size="10.00">isSuppliedByWrappedProvider()</text>
<text text-anchor="start" x="419.5" y="-5.5" font-family="Helvetica,sans-Serif" font-size="10.00">&#45;</text>
<text text-anchor="start" x="428" y="-5.5" font-family="Helvetica,sans-Serif" font-size="10.00">isSuppliedByProvider()</text>
<polygon fill="#666666" stroke="#666666" points="414,-242 414,-242 568,-242 568,-242 414,-242"/>
<polygon fill="#666666" stroke="#666666" points="414,-227 414,-227 568,-227 568,-227 414,-227"/>
<polygon fill="none" stroke="#666666" points="414,0 414,-270 568,-270 568,0 414,0"/>
</a>
</g>
</g>
<!-- Node2 -->
<g id="Node000002" class="node">
<title>Node2</title>
<g id="a_Node000002"><a xlink:href="classdata__access_1_1_deferred_wrapped_provider.html" target="_top" xlink:title="A specialized @WrappedDataProvider that is created without first knowing the backing source it wraps.">
<polygon fill="white" stroke="none" points="387.5,-483 242.5,-483 242.5,-307 387.5,-307 387.5,-483"/>
<text text-anchor="start" x="247.5" y="-469.5" font-family="Helvetica,sans-Serif" font-size="10.00">data_access::DeferredWrapped</text>
<text text-anchor="start" x="297" y="-458.25" font-family="Helvetica,sans-Serif" font-size="10.00">Provider</text>
<text text-anchor="start" x="313.5" y="-443.5" font-family="Helvetica,sans-Serif" font-size="10.00"> </text>
<text text-anchor="start" x="249" y="-428.5" font-family="Helvetica,sans-Serif" font-size="10.00">+</text>
<text text-anchor="start" x="261.5" y="-428.5" font-family="Helvetica,sans-Serif" font-size="10.00">DeferredWrappedProvider()</text>
<text text-anchor="start" x="249" y="-413.5" font-family="Helvetica,sans-Serif" font-size="10.00">+</text>
<text text-anchor="start" x="261.5" y="-413.5" font-family="Helvetica,sans-Serif" font-size="10.00">DeferredWrappedProvider()</text>
<text text-anchor="start" x="249" y="-398.5" font-family="Helvetica,sans-Serif" font-size="10.00">+</text>
<text text-anchor="start" x="261.5" y="-398.5" font-family="Helvetica,sans-Serif" font-size="10.00">DeferredWrappedProvider()</text>
<text text-anchor="start" x="249" y="-383.5" font-family="Helvetica,sans-Serif" font-size="10.00">+</text>
<text text-anchor="start" x="261.5" y="-383.5" font-family="Helvetica,sans-Serif" font-size="10.00">get_available_variable</text>
<text text-anchor="start" x="261.5" y="-372.25" font-family="Helvetica,sans-Serif" font-size="10.00">_names()</text>
<text text-anchor="start" x="249" y="-357.5" font-family="Helvetica,sans-Serif" font-size="10.00">+</text>
<text text-anchor="start" x="261.5" y="-357.5" font-family="Helvetica,sans-Serif" font-size="10.00">getSetMessage()</text>
<text text-anchor="start" x="249" y="-342.5" font-family="Helvetica,sans-Serif" font-size="10.00">+</text>
<text text-anchor="start" x="261.5" y="-342.5" font-family="Helvetica,sans-Serif" font-size="10.00">isReadyToProvideData()</text>
<text text-anchor="start" x="249" y="-327.5" font-family="Helvetica,sans-Serif" font-size="10.00">+</text>
<text text-anchor="start" x="261.5" y="-327.5" font-family="Helvetica,sans-Serif" font-size="10.00">isWrappedProviderSet()</text>
<text text-anchor="start" x="249" y="-312.5" font-family="Helvetica,sans-Serif" font-size="10.00">+</text>
<text text-anchor="start" x="261.5" y="-312.5" font-family="Helvetica,sans-Serif" font-size="10.00">setWrappedProvider()</text>
<polygon fill="#666666" stroke="#666666" points="242.5,-455 242.5,-455 387.5,-455 387.5,-455 242.5,-455"/>
<polygon fill="#666666" stroke="#666666" points="242.5,-440 242.5,-440 387.5,-440 387.5,-440 242.5,-440"/>
<polygon fill="none" stroke="#666666" points="242.5,-307 242.5,-483 387.5,-483 387.5,-307 242.5,-307"/>
</a>
</g>
</g>
<!-- Node2&#45;&gt;Node1 -->
<g id="edge1_Node000001_Node000002" class="edge">
<title>Node2&#45;&gt;Node1</title>
<g id="a_edge1_Node000001_Node000002"><a xlink:title=" ">
<path fill="none" stroke="#63b8ff" d="M380.69,-297.7C391.59,-281.72 402.98,-265.03 414.12,-248.69"/>
<polygon fill="none" stroke="#63b8ff" points="377.94,-295.53 375.19,-305.76 383.72,-299.47 377.94,-295.53"/>
</a>
</g>
</g>
<!-- Node3 -->
<g id="Node000003" class="node">
<title>Node3</title>
<g id="a_Node000003"><a xlink:href="classdata__access_1_1_wrapped_data_provider.html" target="_top" xlink:title="Simple implementation that basically wraps another instance.">
<polygon fill="white" stroke="none" points="172,-777.25 44,-777.25 44,-530.25 172,-530.25 172,-777.25"/>
<text text-anchor="start" x="48.75" y="-763.75" font-family="Helvetica,sans-Serif" font-size="10.00">data_access::WrappedData</text>
<text text-anchor="start" x="90" y="-752.5" font-family="Helvetica,sans-Serif" font-size="10.00">Provider</text>
<text text-anchor="start" x="106.5" y="-737.75" font-family="Helvetica,sans-Serif" font-size="10.00"> </text>
<text text-anchor="start" x="50" y="-722.75" font-family="Helvetica,sans-Serif" font-size="10.00">+</text>
<text text-anchor="start" x="62" y="-722.75" font-family="Helvetica,sans-Serif" font-size="10.00">WrappedDataProvider()</text>
<text text-anchor="start" x="50" y="-707.75" font-family="Helvetica,sans-Serif" font-size="10.00">+</text>
<text text-anchor="start" x="62" y="-707.75" font-family="Helvetica,sans-Serif" font-size="10.00">WrappedDataProvider()</text>
<text text-anchor="start" x="50" y="-692.75" font-family="Helvetica,sans-Serif" font-size="10.00">+</text>
<text text-anchor="start" x="62" y="-692.75" font-family="Helvetica,sans-Serif" font-size="10.00">WrappedDataProvider()</text>
<text text-anchor="start" x="50" y="-677.75" font-family="Helvetica,sans-Serif" font-size="10.00">+</text>
<text text-anchor="start" x="62" y="-677.75" font-family="Helvetica,sans-Serif" font-size="10.00">finalize()</text>
<text text-anchor="start" x="50" y="-662.75" font-family="Helvetica,sans-Serif" font-size="10.00">+</text>
<text text-anchor="start" x="62" y="-662.75" font-family="Helvetica,sans-Serif" font-size="10.00">get_available_variable</text>
<text text-anchor="start" x="62" y="-651.5" font-family="Helvetica,sans-Serif" font-size="10.00">_names()</text>
<text text-anchor="start" x="50" y="-636.75" font-family="Helvetica,sans-Serif" font-size="10.00">+</text>
<text text-anchor="start" x="62" y="-636.75" font-family="Helvetica,sans-Serif" font-size="10.00">get_data_start_time()</text>
<text text-anchor="start" x="50" y="-621.75" font-family="Helvetica,sans-Serif" font-size="10.00">+</text>
<text text-anchor="start" x="62" y="-621.75" font-family="Helvetica,sans-Serif" font-size="10.00">get_data_stop_time()</text>
<text text-anchor="start" x="50" y="-606.75" font-family="Helvetica,sans-Serif" font-size="10.00">+</text>
<text text-anchor="start" x="62" y="-606.75" font-family="Helvetica,sans-Serif" font-size="10.00">record_duration()</text>
<text text-anchor="start" x="50" y="-591.75" font-family="Helvetica,sans-Serif" font-size="10.00">+</text>
<text text-anchor="start" x="62" y="-591.75" font-family="Helvetica,sans-Serif" font-size="10.00">get_ts_index_for_time()</text>
<text text-anchor="start" x="50" y="-576.75" font-family="Helvetica,sans-Serif" font-size="10.00">+</text>
<text text-anchor="start" x="62" y="-576.75" font-family="Helvetica,sans-Serif" font-size="10.00">get_value()</text>
<text text-anchor="start" x="50" y="-561.75" font-family="Helvetica,sans-Serif" font-size="10.00">+</text>
<text text-anchor="start" x="62" y="-561.75" font-family="Helvetica,sans-Serif" font-size="10.00">get_values()</text>
<text text-anchor="start" x="50" y="-546.75" font-family="Helvetica,sans-Serif" font-size="10.00">+</text>
<text text-anchor="start" x="62" y="-546.75" font-family="Helvetica,sans-Serif" font-size="10.00">is_property_sum_over</text>
<text text-anchor="start" x="62" y="-535.5" font-family="Helvetica,sans-Serif" font-size="10.00">_time_step()</text>
<polygon fill="#666666" stroke="#666666" points="44,-749.25 44,-749.25 172,-749.25 172,-749.25 44,-749.25"/>
<polygon fill="#666666" stroke="#666666" points="44,-734.25 44,-734.25 172,-734.25 172,-734.25 44,-734.25"/>
<polygon fill="none" stroke="#666666" points="44,-530.25 44,-777.25 172,-777.25 172,-530.25 44,-530.25"/>
</a>
</g>
</g>
<!-- Node3&#45;&gt;Node2 -->
<g id="edge2_Node000002_Node000003" class="edge">
<title>Node3&#45;&gt;Node2</title>
<g id="a_edge2_Node000002_Node000003"><a xlink:title=" ">
<path fill="none" stroke="#63b8ff" d="M179.01,-559.3C186.71,-549.44 194.48,-539.61 202,-530.25 214.98,-514.1 229.04,-497.06 242.68,-480.74"/>
<polygon fill="none" stroke="#63b8ff" points="176.28,-557.11 172.9,-567.15 181.81,-561.41 176.28,-557.11"/>
</a>
</g>
</g>
<!-- Node4 -->
<g id="Node000004" class="node">
<title>Node4</title>
<g id="a_Node000004"><a xlink:href="classdata__access_1_1_generic_data_provider.html" target="_top" xlink:title=" ">
<polygon fill="white" stroke="none" points="154,-884.5 30,-884.5 30,-824.5 154,-824.5 154,-884.5"/>
<text text-anchor="start" x="35" y="-871" font-family="Helvetica,sans-Serif" font-size="10.00">data_access::GenericData</text>
<text text-anchor="start" x="74" y="-859.75" font-family="Helvetica,sans-Serif" font-size="10.00">Provider</text>
<text text-anchor="start" x="90.5" y="-845" font-family="Helvetica,sans-Serif" font-size="10.00"> </text>
<text text-anchor="start" x="90.5" y="-830" font-family="Helvetica,sans-Serif" font-size="10.00"> </text>
<polygon fill="#666666" stroke="#666666" points="30,-856.5 30,-856.5 154,-856.5 154,-856.5 30,-856.5"/>
<polygon fill="#666666" stroke="#666666" points="30,-841.5 30,-841.5 154,-841.5 154,-841.5 30,-841.5"/>
<polygon fill="none" stroke="#666666" points="30,-824.5 30,-884.5 154,-884.5 154,-824.5 30,-824.5"/>
</a>
</g>
</g>
<!-- Node4&#45;&gt;Node3 -->
<g id="edge3_Node000003_Node000004" class="edge">
<title>Node4&#45;&gt;Node3</title>
<g id="a_edge3_Node000003_Node000004"><a xlink:title=" ">
<path fill="none" stroke="#63b8ff" d="M89.26,-813.25C89.16,-810.97 89.07,-808.71 89,-806.5 88.7,-796.95 88.85,-787.08 89.35,-777.17"/>
<polygon fill="none" stroke="#63b8ff" points="85.76,-813.37 89.79,-823.17 92.75,-813 85.76,-813.37"/>
</a>
</g>
</g>
<!-- Node4&#45;&gt;Node3 -->
<g id="edge6_Node000003_Node000004" class="edge">
<title>Node4&#45;&gt;Node3</title>
<g id="a_edge6_Node000003_Node000004"><a xlink:title=" ">
<path fill="none" stroke="#63b8ff" d="M94.33,-824.6C95.13,-814.56 96.1,-802.55 97.14,-789.62"/>
<polygon fill="none" stroke="#63b8ff" points="97.13,-789.83 93.62,-783.53 98.09,-777.87 101.59,-784.17 97.13,-789.83"/>
</a>
</g>
<text text-anchor="middle" x="139" y="-797" font-family="Helvetica,sans-Serif" font-size="10.00" fill="grey"> #wrapped_provider</text>
</g>
<!-- Node5 -->
<g id="Node000005" class="node">
<title>Node5</title>
<g id="a_Node000005"><a xlink:href="classdata__access_1_1_data_provider.html" target="_top" xlink:title=" ">
<polygon fill="white" stroke="none" points="184,-1148.75 0,-1148.75 0,-931.75 184,-931.75 184,-1148.75"/>
<text text-anchor="start" x="5" y="-1135.25" font-family="Helvetica,sans-Serif" font-size="10.00">data_access::DataProvider</text>
<text text-anchor="start" x="5" y="-1124" font-family="Helvetica,sans-Serif" font-size="10.00">&lt; double, CatchmentAggrDataSelector &gt;</text>
<text text-anchor="start" x="90.5" y="-1109.25" font-family="Helvetica,sans-Serif" font-size="10.00"> </text>
<text text-anchor="start" x="20" y="-1094.25" font-family="Helvetica,sans-Serif" font-size="10.00">+</text>
<text text-anchor="start" x="46" y="-1094.25" font-family="Helvetica,sans-Serif" font-size="10.00">~DataProvider()</text>
<text text-anchor="start" x="20" y="-1079.25" font-family="Helvetica,sans-Serif" font-size="10.00">+</text>
<text text-anchor="start" x="46" y="-1079.25" font-family="Helvetica,sans-Serif" font-size="10.00">finalize()</text>
<text text-anchor="start" x="20" y="-1064.25" font-family="Helvetica,sans-Serif" font-size="10.00">+</text>
<text text-anchor="start" x="46" y="-1064.25" font-family="Helvetica,sans-Serif" font-size="10.00">get_available_variable</text>
<text text-anchor="start" x="46" y="-1053" font-family="Helvetica,sans-Serif" font-size="10.00">_names()</text>
<text text-anchor="start" x="20" y="-1038.25" font-family="Helvetica,sans-Serif" font-size="10.00">+</text>
<text text-anchor="start" x="46" y="-1038.25" font-family="Helvetica,sans-Serif" font-size="10.00">get_data_start_time()</text>
<text text-anchor="start" x="20" y="-1023.25" font-family="Helvetica,sans-Serif" font-size="10.00">+</text>
<text text-anchor="start" x="46" y="-1023.25" font-family="Helvetica,sans-Serif" font-size="10.00">get_data_stop_time()</text>
<text text-anchor="start" x="20" y="-1008.25" font-family="Helvetica,sans-Serif" font-size="10.00">+</text>
<text text-anchor="start" x="46" y="-1008.25" font-family="Helvetica,sans-Serif" font-size="10.00">record_duration()</text>
<text text-anchor="start" x="20" y="-993.25" font-family="Helvetica,sans-Serif" font-size="10.00">+</text>
<text text-anchor="start" x="46" y="-993.25" font-family="Helvetica,sans-Serif" font-size="10.00">get_ts_index_for_time()</text>
<text text-anchor="start" x="20" y="-978.25" font-family="Helvetica,sans-Serif" font-size="10.00">+</text>
<text text-anchor="start" x="46" y="-978.25" font-family="Helvetica,sans-Serif" font-size="10.00">get_value()</text>
<text text-anchor="start" x="20" y="-963.25" font-family="Helvetica,sans-Serif" font-size="10.00">+</text>
<text text-anchor="start" x="46" y="-963.25" font-family="Helvetica,sans-Serif" font-size="10.00">get_values()</text>
<text text-anchor="start" x="20" y="-948.25" font-family="Helvetica,sans-Serif" font-size="10.00">+</text>
<text text-anchor="start" x="46" y="-948.25" font-family="Helvetica,sans-Serif" font-size="10.00">is_property_sum_over</text>
<text text-anchor="start" x="46" y="-937" font-family="Helvetica,sans-Serif" font-size="10.00">_time_step()</text>
<polygon fill="#666666" stroke="#666666" points="0,-1120.75 0,-1120.75 184,-1120.75 184,-1120.75 0,-1120.75"/>
<polygon fill="#666666" stroke="#666666" points="0,-1105.75 0,-1105.75 184,-1105.75 184,-1105.75 0,-1105.75"/>
<polygon fill="none" stroke="#666666" points="0,-931.75 0,-1148.75 184,-1148.75 184,-931.75 0,-931.75"/>
</a>
</g>
</g>
<!-- Node5&#45;&gt;Node4 -->
<g id="edge4_Node000004_Node000005" class="edge">
<title>Node5&#45;&gt;Node4</title>
<g id="a_edge4_Node000004_Node000005"><a xlink:title=" ">
<path fill="none" stroke="#63b8ff" d="M92,-920.53C92,-907.27 92,-894.82 92,-884.44"/>
<polygon fill="none" stroke="#63b8ff" points="88.5,-920.32 92,-930.32 95.5,-920.32 88.5,-920.32"/>
</a>
</g>
</g>
<!-- Node6 -->
<g id="Node000006" class="node">
<title>Node6</title>
<g id="a_Node000006"><a xlink:href="classdata__access_1_1_data_provider.html" target="_top" xlink:title=" ">
<polygon fill="white" stroke="none" points="160,-1424.25 24,-1424.25 24,-1207.25 160,-1207.25 160,-1424.25"/>
<text text-anchor="start" x="29" y="-1410.75" font-family="Helvetica,sans-Serif" font-size="10.00">data_access::DataProvider</text>
<text text-anchor="start" x="29" y="-1399.5" font-family="Helvetica,sans-Serif" font-size="10.00">&lt; data_type, selection_type &gt;</text>
<text text-anchor="start" x="90.5" y="-1384.75" font-family="Helvetica,sans-Serif" font-size="10.00"> </text>
<text text-anchor="start" x="32" y="-1369.75" font-family="Helvetica,sans-Serif" font-size="10.00">+</text>
<text text-anchor="start" x="46" y="-1369.75" font-family="Helvetica,sans-Serif" font-size="10.00">~DataProvider()</text>
<text text-anchor="start" x="32" y="-1354.75" font-family="Helvetica,sans-Serif" font-size="10.00">+</text>
<text text-anchor="start" x="46" y="-1354.75" font-family="Helvetica,sans-Serif" font-size="10.00">finalize()</text>
<text text-anchor="start" x="32" y="-1339.75" font-family="Helvetica,sans-Serif" font-size="10.00">+</text>
<text text-anchor="start" x="46" y="-1339.75" font-family="Helvetica,sans-Serif" font-size="10.00">get_available_variable</text>
<text text-anchor="start" x="46" y="-1328.5" font-family="Helvetica,sans-Serif" font-size="10.00">_names()</text>
<text text-anchor="start" x="32" y="-1313.75" font-family="Helvetica,sans-Serif" font-size="10.00">+</text>
<text text-anchor="start" x="46" y="-1313.75" font-family="Helvetica,sans-Serif" font-size="10.00">get_data_start_time()</text>
<text text-anchor="start" x="32" y="-1298.75" font-family="Helvetica,sans-Serif" font-size="10.00">+</text>
<text text-anchor="start" x="46" y="-1298.75" font-family="Helvetica,sans-Serif" font-size="10.00">get_data_stop_time()</text>
<text text-anchor="start" x="32" y="-1283.75" font-family="Helvetica,sans-Serif" font-size="10.00">+</text>
<text text-anchor="start" x="46" y="-1283.75" font-family="Helvetica,sans-Serif" font-size="10.00">record_duration()</text>
<text text-anchor="start" x="32" y="-1268.75" font-family="Helvetica,sans-Serif" font-size="10.00">+</text>
<text text-anchor="start" x="46" y="-1268.75" font-family="Helvetica,sans-Serif" font-size="10.00">get_ts_index_for_time()</text>
<text text-anchor="start" x="32" y="-1253.75" font-family="Helvetica,sans-Serif" font-size="10.00">+</text>
<text text-anchor="start" x="46" y="-1253.75" font-family="Helvetica,sans-Serif" font-size="10.00">get_value()</text>
<text text-anchor="start" x="32" y="-1238.75" font-family="Helvetica,sans-Serif" font-size="10.00">+</text>
<text text-anchor="start" x="46" y="-1238.75" font-family="Helvetica,sans-Serif" font-size="10.00">get_values()</text>
<text text-anchor="start" x="32" y="-1223.75" font-family="Helvetica,sans-Serif" font-size="10.00">+</text>
<text text-anchor="start" x="46" y="-1223.75" font-family="Helvetica,sans-Serif" font-size="10.00">is_property_sum_over</text>
<text text-anchor="start" x="46" y="-1212.5" font-family="Helvetica,sans-Serif" font-size="10.00">_time_step()</text>
<polygon fill="#666666" stroke="#666666" points="24,-1396.25 24,-1396.25 160,-1396.25 160,-1396.25 24,-1396.25"/>
<polygon fill="#666666" stroke="#666666" points="24,-1381.25 24,-1381.25 160,-1381.25 160,-1381.25 24,-1381.25"/>
<polygon fill="none" stroke="#666666" points="24,-1207.25 24,-1424.25 160,-1424.25 160,-1207.25 24,-1207.25"/>
</a>
</g>
</g>
<!-- Node6&#45;&gt;Node5 -->
<g id="edge5_Node000005_Node000006" class="edge">
<title>Node6&#45;&gt;Node5</title>
<g id="a_edge5_Node000005_Node000006"><a xlink:title=" ">
<path fill="none" stroke="orange" d="M92,-1196.05C92,-1180.3 92,-1164.24 92,-1148.7"/>
<polygon fill="orange" stroke="orange" points="88.5,-1195.93 92,-1205.93 95.5,-1195.93 88.5,-1195.93"/>
</a>
</g>
<text text-anchor="start" x="92" y="-1179.75" font-family="Helvetica,sans-Serif" font-size="10.00" fill="grey"> &lt; double, CatchmentAggrData</text>
<text text-anchor="middle" x="158" y="-1168.5" font-family="Helvetica,sans-Serif" font-size="10.00" fill="grey">Selector &gt;</text>
</g>
<!-- Node7 -->
<g id="Node000007" class="node">
<title>Node7</title>
<g id="a_Node000007"><a xlink:title=" ">
<polygon fill="white" stroke="none" points="324.5,-678.25 211.5,-678.25 211.5,-629.25 324.5,-629.25 324.5,-678.25"/>
<text text-anchor="start" x="216.25" y="-664.75" font-family="Helvetica,sans-Serif" font-size="10.00">std::vector&lt; std::string &gt;</text>
<text text-anchor="start" x="266.5" y="-649.75" font-family="Helvetica,sans-Serif" font-size="10.00"> </text>
<text text-anchor="start" x="266.5" y="-634.75" font-family="Helvetica,sans-Serif" font-size="10.00"> </text>
<polygon fill="#666666" stroke="#666666" points="211.5,-661.25 211.5,-661.25 324.5,-661.25 324.5,-661.25 211.5,-661.25"/>
<polygon fill="#666666" stroke="#666666" points="211.5,-646.25 211.5,-646.25 324.5,-646.25 324.5,-646.25 211.5,-646.25"/>
<polygon fill="none" stroke="#666666" points="211.5,-629.25 211.5,-678.25 324.5,-678.25 324.5,-629.25 211.5,-629.25"/>
</a>
</g>
</g>
<!-- Node7&#45;&gt;Node2 -->
<g id="edge7_Node000002_Node000007" class="edge">
<title>Node7&#45;&gt;Node2</title>
<g id="a_edge7_Node000002_Node000007"><a xlink:title=" ">
<path fill="none" stroke="#63b8ff" d="M265.32,-629.3C262.53,-599.21 259.77,-545.58 269.25,-501 269.65,-499.12 270.09,-497.22 270.55,-495.33"/>
<polygon fill="none" stroke="#63b8ff" points="270.59,-495.2 268.36,-488.35 273.83,-483.65 276.06,-490.51 270.59,-495.2"/>
</a>
</g>
<text text-anchor="middle" x="309.38" y="-502.75" font-family="Helvetica,sans-Serif" font-size="10.00" fill="grey"> #providedOutputs</text>
</g>
<!-- Node8 -->
<g id="Node000008" class="node">
<title>Node8</title>
<g id="a_Node000008"><a xlink:title=" ">
<polygon fill="white" stroke="none" points="388,-879 336,-879 336,-830 388,-830 388,-879"/>
<text text-anchor="start" x="341" y="-865.5" font-family="Helvetica,sans-Serif" font-size="10.00">std::string</text>
<text text-anchor="start" x="360.5" y="-850.5" font-family="Helvetica,sans-Serif" font-size="10.00"> </text>
<text text-anchor="start" x="360.5" y="-835.5" font-family="Helvetica,sans-Serif" font-size="10.00"> </text>
<polygon fill="#666666" stroke="#666666" points="336,-862 336,-862 388,-862 388,-862 336,-862"/>
<polygon fill="#666666" stroke="#666666" points="336,-847 336,-847 388,-847 388,-847 336,-847"/>
<polygon fill="none" stroke="#666666" points="336,-830 336,-879 388,-879 388,-830 336,-830"/>
</a>
</g>
</g>
<!-- Node8&#45;&gt;Node2 -->
<g id="edge12_Node000002_Node000008" class="edge">
<title>Node8&#45;&gt;Node2</title>
<g id="a_edge12_Node000002_Node000008"><a xlink:title=" ">
<path fill="none" stroke="#63b8ff" d="M363.19,-830.18C365.62,-773.37 369.29,-623.49 348,-501 347.69,-499.24 347.37,-497.47 347.02,-495.69"/>
<polygon fill="none" stroke="#63b8ff" points="346.99,-495.55 341.8,-490.53 344.44,-483.82 349.62,-488.83 346.99,-495.55"/>
</a>
</g>
<text text-anchor="middle" x="395.38" y="-649.88" font-family="Helvetica,sans-Serif" font-size="10.00" fill="grey"> #setMessage</text>
</g>
<!-- Node8&#45;&gt;Node7 -->
<g id="edge8_Node000007_Node000008" class="edge">
<title>Node8&#45;&gt;Node7</title>
<g id="a_edge8_Node000007_Node000008"><a xlink:title=" ">
<path fill="none" stroke="#63b8ff" d="M336.07,-839.79C323.32,-831.74 308.82,-820.42 300,-806.5 277.8,-771.48 270.73,-723.68 268.62,-691.15"/>
<polygon fill="none" stroke="#63b8ff" points="268.62,-691.11 264.33,-685.31 268.03,-679.12 272.32,-684.92 268.62,-691.11"/>
</a>
</g>
<text text-anchor="middle" x="324" y="-797" font-family="Helvetica,sans-Serif" font-size="10.00" fill="grey"> +elements</text>
</g>
<!-- Node12 -->
<g id="Node000012" class="node">
<title>Node12</title>
<g id="a_Node000012"><a xlink:title=" ">
<polygon fill="white" stroke="none" points="541,-683.75 441,-683.75 441,-623.75 541,-623.75 541,-683.75"/>
<text text-anchor="start" x="446" y="-670.25" font-family="Helvetica,sans-Serif" font-size="10.00">std::map&lt; std::string,</text>
<text text-anchor="start" x="471.5" y="-659" font-family="Helvetica,sans-Serif" font-size="10.00"> double &gt;</text>
<text text-anchor="start" x="455.5" y="-644.25" font-family="Helvetica,sans-Serif" font-size="10.00">+</text>
<text text-anchor="start" x="476" y="-644.25" font-family="Helvetica,sans-Serif" font-size="10.00">elements</text>
<text text-anchor="start" x="489.5" y="-629.25" font-family="Helvetica,sans-Serif" font-size="10.00"> </text>
<polygon fill="#666666" stroke="#666666" points="441,-655.75 441,-655.75 541,-655.75 541,-655.75 441,-655.75"/>
<polygon fill="#666666" stroke="#666666" points="441,-640.75 441,-640.75 474,-640.75 474,-640.75 441,-640.75"/>
<polygon fill="#666666" stroke="#666666" points="474,-640.75 474,-640.75 541,-640.75 541,-640.75 474,-640.75"/>
<polygon fill="none" stroke="#666666" points="441,-623.75 441,-683.75 541,-683.75 541,-623.75 441,-623.75"/>
</a>
</g>
</g>
<!-- Node8&#45;&gt;Node12 -->
<g id="edge14_Node000012_Node000008" class="edge">
<title>Node8&#45;&gt;Node12</title>
<g id="a_edge14_Node000012_Node000008"><a xlink:title=" ">
<path fill="none" stroke="#63b8ff" d="M384.24,-830.22C397.53,-815.66 414.25,-796.14 427,-777.25 444.57,-751.22 460.9,-719.78 472.67,-695.27"/>
<polygon fill="none" stroke="#63b8ff" points="472.72,-695.17 471.67,-688.04 477.84,-684.32 478.9,-691.45 472.72,-695.17"/>
</a>
</g>
<text text-anchor="middle" x="426.25" y="-797" font-family="Helvetica,sans-Serif" font-size="10.00" fill="grey"> +keys</text>
</g>
<!-- Node15 -->
<g id="Node000015" class="node">
<title>Node15</title>
<g id="a_Node000015"><a xlink:title=" ">
<polygon fill="white" stroke="none" points="659,-683.75 559,-683.75 559,-623.75 659,-623.75 659,-683.75"/>
<text text-anchor="start" x="564" y="-670.25" font-family="Helvetica,sans-Serif" font-size="10.00">std::map&lt; std::string,</text>
<text text-anchor="start" x="598.5" y="-659" font-family="Helvetica,sans-Serif" font-size="10.00"> int &gt;</text>
<text text-anchor="start" x="573.5" y="-644.25" font-family="Helvetica,sans-Serif" font-size="10.00">+</text>
<text text-anchor="start" x="594" y="-644.25" font-family="Helvetica,sans-Serif" font-size="10.00">elements</text>
<text text-anchor="start" x="607.5" y="-629.25" font-family="Helvetica,sans-Serif" font-size="10.00"> </text>
<polygon fill="#666666" stroke="#666666" points="559,-655.75 559,-655.75 659,-655.75 659,-655.75 559,-655.75"/>
<polygon fill="#666666" stroke="#666666" points="559,-640.75 559,-640.75 592,-640.75 592,-640.75 559,-640.75"/>
<polygon fill="#666666" stroke="#666666" points="592,-640.75 592,-640.75 659,-640.75 659,-640.75 592,-640.75"/>
<polygon fill="none" stroke="#666666" points="559,-623.75 559,-683.75 659,-683.75 659,-623.75 559,-623.75"/>
</a>
</g>
</g>
<!-- Node8&#45;&gt;Node15 -->
<g id="edge19_Node000015_Node000008" class="edge">
<title>Node8&#45;&gt;Node15</title>
<g id="a_edge19_Node000015_Node000008"><a xlink:title=" ">
<path fill="none" stroke="#63b8ff" d="M387.87,-842.52C403.32,-836.37 423.49,-829.04 442,-824.5 471.18,-817.34 553.92,-826.87 576,-806.5 605.92,-778.9 612.02,-731.08 612,-696.49"/>
<polygon fill="none" stroke="#63b8ff" points="612,-696.39 607.87,-690.48 611.73,-684.39 615.86,-690.3 612,-696.39"/>
</a>
</g>
<text text-anchor="middle" x="598.25" y="-797" font-family="Helvetica,sans-Serif" font-size="10.00" fill="grey"> +keys</text>
</g>
<!-- Node9 -->
<g id="Node000009" class="node">
<title>Node9</title>
<g id="a_Node000009"><a xlink:title=" ">
<polygon fill="white" stroke="none" points="399,-1070.25 313,-1070.25 313,-1010.25 399,-1010.25 399,-1070.25"/>
<text text-anchor="start" x="317.75" y="-1056.75" font-family="Helvetica,sans-Serif" font-size="10.00">std::basic_string&lt;</text>
<text text-anchor="start" x="340.62" y="-1045.5" font-family="Helvetica,sans-Serif" font-size="10.00"> Char &gt;</text>
<text text-anchor="start" x="354.5" y="-1030.75" font-family="Helvetica,sans-Serif" font-size="10.00"> </text>
<text text-anchor="start" x="354.5" y="-1015.75" font-family="Helvetica,sans-Serif" font-size="10.00"> </text>
<polygon fill="#666666" stroke="#666666" points="313,-1042.25 313,-1042.25 399,-1042.25 399,-1042.25 313,-1042.25"/>
<polygon fill="#666666" stroke="#666666" points="313,-1027.25 313,-1027.25 399,-1027.25 399,-1027.25 313,-1027.25"/>
<polygon fill="none" stroke="#666666" points="313,-1010.25 313,-1070.25 399,-1070.25 399,-1010.25 313,-1010.25"/>
</a>
</g>
</g>
<!-- Node9&#45;&gt;Node8 -->
<g id="edge9_Node000008_Node000009" class="edge">
<title>Node9&#45;&gt;Node8</title>
<g id="a_edge9_Node000008_Node000009"><a xlink:title=" ">
<path fill="none" stroke="#63b8ff" d="M357.31,-999.21C358.51,-962.38 360.25,-909.04 361.24,-878.77"/>
<polygon fill="none" stroke="#63b8ff" points="353.82,-998.92 356.99,-1009.03 360.81,-999.15 353.82,-998.92"/>
</a>
</g>
</g>
<!-- Node10 -->
<g id="Node000010" class="node">
<title>Node10</title>
<g id="a_Node000010"><a xlink:title=" ">
<polygon fill="white" stroke="none" points="291.5,-879 214.5,-879 214.5,-830 291.5,-830 291.5,-879"/>
<text text-anchor="start" x="219.25" y="-865.5" font-family="Helvetica,sans-Serif" font-size="10.00">std::vector&lt; T &gt;</text>
<text text-anchor="start" x="251.5" y="-850.5" font-family="Helvetica,sans-Serif" font-size="10.00"> </text>
<text text-anchor="start" x="251.5" y="-835.5" font-family="Helvetica,sans-Serif" font-size="10.00"> </text>
<polygon fill="#666666" stroke="#666666" points="214.5,-862 214.5,-862 291.5,-862 291.5,-862 214.5,-862"/>
<polygon fill="#666666" stroke="#666666" points="214.5,-847 214.5,-847 291.5,-847 291.5,-847 214.5,-847"/>
<polygon fill="none" stroke="#666666" points="214.5,-830 214.5,-879 291.5,-879 291.5,-830 214.5,-830"/>
</a>
</g>
</g>
<!-- Node10&#45;&gt;Node7 -->
<g id="edge10_Node000007_Node000010" class="edge">
<title>Node10&#45;&gt;Node7</title>
<g id="a_edge10_Node000007_Node000010"><a xlink:title=" ">
<path fill="none" stroke="orange" d="M223.57,-821.3C220.59,-816.6 218.01,-811.62 216.25,-806.5 214.62,-801.77 215.37,-800.17 216.25,-795.25 223.92,-752.26 243.81,-705.18 256.58,-677.9"/>
<polygon fill="orange" stroke="orange" points="220.59,-823.15 229.25,-829.25 226.28,-819.07 220.59,-823.15"/>
</a>
</g>
<text text-anchor="middle" x="247.38" y="-797" font-family="Helvetica,sans-Serif" font-size="10.00" fill="grey"> &lt; std::string &gt;</text>
</g>
<!-- Node11 -->
<g id="Node000011" class="node">
<title>Node11</title>
<g id="a_Node000011"><a xlink:title=" ">
<polygon fill="white" stroke="none" points="433,-1064.75 417,-1064.75 417,-1015.75 433,-1015.75 433,-1064.75"/>
<text text-anchor="start" x="422" y="-1051.25" font-family="Helvetica,sans-Serif" font-size="10.00">T</text>
<text text-anchor="start" x="423.5" y="-1036.25" font-family="Helvetica,sans-Serif" font-size="10.00"> </text>
<text text-anchor="start" x="423.5" y="-1021.25" font-family="Helvetica,sans-Serif" font-size="10.00"> </text>
<polygon fill="#666666" stroke="#666666" points="417,-1047.75 417,-1047.75 433,-1047.75 433,-1047.75 417,-1047.75"/>
<polygon fill="#666666" stroke="#666666" points="417,-1032.75 417,-1032.75 433,-1032.75 433,-1032.75 417,-1032.75"/>
<polygon fill="none" stroke="#666666" points="417,-1015.75 417,-1064.75 433,-1064.75 433,-1015.75 417,-1015.75"/>
</a>
</g>
</g>
<!-- Node11&#45;&gt;Node10 -->
<g id="edge11_Node000010_Node000011" class="edge">
<title>Node11&#45;&gt;Node10</title>
<g id="a_edge11_Node000010_Node000011"><a xlink:title=" ">
<path fill="none" stroke="#63b8ff" d="M427.17,-1015.94C428.12,-992.44 426.05,-956.24 408,-931.75 401.1,-922.39 345.7,-896.4 303.07,-877.35"/>
<polygon fill="none" stroke="#63b8ff" points="302.95,-877.3 295.85,-878.52 291.99,-872.43 299.09,-871.21 302.95,-877.3"/>
</a>
</g>
<text text-anchor="middle" x="401" y="-904.25" font-family="Helvetica,sans-Serif" font-size="10.00" fill="grey"> +elements</text>
</g>
<!-- Node13 -->
<g id="Node000013" class="node">
<title>Node13</title>
<g id="a_Node000013"><a xlink:title=" ">
<polygon fill="white" stroke="none" points="531.5,-879 450.5,-879 450.5,-830 531.5,-830 531.5,-879"/>
<text text-anchor="start" x="455.38" y="-865.5" font-family="Helvetica,sans-Serif" font-size="10.00">std::map&lt; K, T &gt;</text>
<text text-anchor="start" x="489.5" y="-850.5" font-family="Helvetica,sans-Serif" font-size="10.00"> </text>
<text text-anchor="start" x="489.5" y="-835.5" font-family="Helvetica,sans-Serif" font-size="10.00"> </text>
<polygon fill="#666666" stroke="#666666" points="450.5,-862 450.5,-862 531.5,-862 531.5,-862 450.5,-862"/>
<polygon fill="#666666" stroke="#666666" points="450.5,-847 450.5,-847 531.5,-847 531.5,-847 450.5,-847"/>
<polygon fill="none" stroke="#666666" points="450.5,-830 450.5,-879 531.5,-879 531.5,-830 450.5,-830"/>
</a>
</g>
</g>
<!-- Node11&#45;&gt;Node13 -->
<g id="edge17_Node000013_Node000011" class="edge">
<title>Node11&#45;&gt;Node13</title>
<g id="a_edge17_Node000013_Node000011"><a xlink:title=" ">
<path fill="none" stroke="#63b8ff" d="M422.77,-1016.09C421.08,-987.72 421.59,-938.95 440,-902.5 442.57,-897.41 445.94,-892.59 449.72,-888.11"/>
<polygon fill="none" stroke="#63b8ff" points="449.61,-888.24 450.86,-881.14 457.89,-879.56 456.64,-886.66 449.61,-888.24"/>
</a>
</g>
<text text-anchor="middle" x="464" y="-904.25" font-family="Helvetica,sans-Serif" font-size="10.00" fill="grey"> +elements</text>
</g>
<!-- Node12&#45;&gt;Node1 -->
<g id="edge13_Node000001_Node000012" class="edge">
<title>Node12&#45;&gt;Node1</title>
<g id="a_edge13_Node000001_Node000012"><a xlink:title=" ">
<path fill="none" stroke="#63b8ff" d="M491,-623.86C491,-559.72 491,-401.73 491,-282.79"/>
<polygon fill="none" stroke="#63b8ff" points="491,-282.85 487,-276.85 491,-270.85 495,-276.85 491,-282.85"/>
</a>
</g>
<text text-anchor="middle" x="523.25" y="-391.12" font-family="Helvetica,sans-Serif" font-size="10.00" fill="grey"> &#45;defaultValues</text>
</g>
<!-- Node13&#45;&gt;Node12 -->
<g id="edge15_Node000012_Node000013" class="edge">
<title>Node13&#45;&gt;Node12</title>
<g id="a_edge15_Node000012_Node000013"><a xlink:title=" ">
<path fill="none" stroke="orange" d="M483.25,-819.21C482.53,-814.95 481.91,-810.64 481.5,-806.5 477.23,-763.82 482.21,-714.18 486.41,-683.61"/>
<polygon fill="orange" stroke="orange" points="479.75,-819.55 485.06,-828.72 486.63,-818.25 479.75,-819.55"/>
</a>
</g>
<text text-anchor="middle" x="528.25" y="-797" font-family="Helvetica,sans-Serif" font-size="10.00" fill="grey"> &lt; std::string, double &gt;</text>
</g>
<!-- Node13&#45;&gt;Node15 -->
<g id="edge20_Node000015_Node000013" class="edge">
<title>Node13&#45;&gt;Node15</title>
<g id="a_edge20_Node000015_Node000013"><a xlink:title=" ">
<path fill="none" stroke="orange" d="M542.63,-850.13C572.82,-845.18 608.69,-833.54 628,-806.5 653.85,-770.31 637.74,-716.51 623.51,-683.64"/>
<polygon fill="orange" stroke="orange" points="542.29,-846.64 532.88,-851.5 543.27,-853.57 542.29,-846.64"/>
</a>
</g>
<text text-anchor="middle" x="672.25" y="-797" font-family="Helvetica,sans-Serif" font-size="10.00" fill="grey"> &lt; std::string, int &gt;</text>
</g>
<!-- Node14 -->
<g id="Node000014" class="node">
<title>Node14</title>
<g id="a_Node000014"><a xlink:title=" ">
<polygon fill="white" stroke="none" points="504,-1064.75 488,-1064.75 488,-1015.75 504,-1015.75 504,-1064.75"/>
<text text-anchor="start" x="492.62" y="-1051.25" font-family="Helvetica,sans-Serif" font-size="10.00">K</text>
<text text-anchor="start" x="494.5" y="-1036.25" font-family="Helvetica,sans-Serif" font-size="10.00"> </text>
<text text-anchor="start" x="494.5" y="-1021.25" font-family="Helvetica,sans-Serif" font-size="10.00"> </text>
<polygon fill="#666666" stroke="#666666" points="488,-1047.75 488,-1047.75 504,-1047.75 504,-1047.75 488,-1047.75"/>
<polygon fill="#666666" stroke="#666666" points="488,-1032.75 488,-1032.75 504,-1032.75 504,-1032.75 488,-1032.75"/>
<polygon fill="none" stroke="#666666" points="488,-1015.75 488,-1064.75 504,-1064.75 504,-1015.75 488,-1015.75"/>
</a>
</g>
</g>
<!-- Node14&#45;&gt;Node13 -->
<g id="edge16_Node000013_Node000014" class="edge">
<title>Node14&#45;&gt;Node13</title>
<g id="a_edge16_Node000013_Node000014"><a xlink:title=" ">
<path fill="none" stroke="#63b8ff" d="M495.37,-1015.98C494.51,-984.58 492.98,-928.36 491.98,-891.5"/>
<polygon fill="none" stroke="#63b8ff" points="491.99,-891.77 487.83,-885.88 491.66,-879.77 495.82,-885.66 491.99,-891.77"/>
</a>
</g>
<text text-anchor="middle" x="506.25" y="-904.25" font-family="Helvetica,sans-Serif" font-size="10.00" fill="grey"> +keys</text>
</g>
<!-- Node15&#45;&gt;Node1 -->
<g id="edge18_Node000001_Node000015" class="edge">
<title>Node15&#45;&gt;Node1</title>
<g id="a_edge18_Node000001_Node000015"><a xlink:title=" ">
<path fill="none" stroke="#63b8ff" d="M607.29,-624.05C603.22,-564.19 590.87,-422.06 560,-307 557.8,-298.79 555.31,-290.45 552.62,-282.09"/>
<polygon fill="none" stroke="#63b8ff" points="552.62,-282.08 546.93,-277.65 548.83,-270.69 554.52,-275.12 552.62,-282.08"/>
</a>
</g>
<text text-anchor="middle" x="635.88" y="-391.12" font-family="Helvetica,sans-Serif" font-size="10.00" fill="grey"> &#45;defaultUsageWaits</text>
</g>
</g>
</svg>
