<?xml version="1.0" encoding="UTF-8" standalone="no"?>
<!DOCTYPE svg PUBLIC "-//W3C//DTD SVG 1.1//EN"
 "http://www.w3.org/Graphics/SVG/1.1/DTD/svg11.dtd">
<!-- Generated by graphviz version 9.0.0 (20230911.1827)
 -->
<!-- Title: HY_Catchment Pages: 1 -->
<!--zoomable 1273 -->

<svg id="main" version="1.1" xmlns="http://www.w3.org/2000/svg" xmlns:xlink="http://www.w3.org/1999/xlink" xml:space="preserve" onload="init(evt)">
<style type="text/css"><![CDATA[
.node, .edge {opacity: 0.7;}
.node.selected, .edge.selected {opacity: 1;}
.edge:hover path { stroke: red; }
.edge:hover polygon { stroke: red; fill: red; }
]]></style>

<defs>
  <circle id="rim" cx="0" cy="0" r="7"/>
  <circle id="rim2" cx="0" cy="0" r="3.5"/>
  <g id="zoomPlus">
    <use xlink:href="#rim" fill="#404040"><set attributeName="fill" to="#808080" begin="zoomplus.mouseover" end="zoomplus.mouseout"/></use>
    <path d="M-4,0h8M0,-4v8" fill="none" stroke="white" stroke-width="1.5" pointer-events="none"/>
  </g>
  <g id="zoomMin">
    <use xlink:href="#rim" fill="#404040"><set attributeName="fill" to="#808080" begin="zoomminus.mouseover" end="zoomminus.mouseout"/></use>
    <path d="M-4,0h8" fill="none" stroke="white" stroke-width="1.5" pointer-events="none"/>
  </g>
  <g id="arrowUp" transform="translate(30 24)">
    <use xlink:href="#rim"/>
    <path pointer-events="none" fill="none" stroke="white" stroke-width="1.5" d="M0,-3.0v7 M-2.5,-0.5L0,-3.0L2.5,-0.5"/>
  </g>
  <g id="arrowRight" transform="rotate(90) translate(36 -43)">
    <use xlink:href="#rim"/>
    <path pointer-events="none" fill="none" stroke="white" stroke-width="1.5" d="M0,-3.0v7 M-2.5,-0.5L0,-3.0L2.5,-0.5"/>
  </g>
  <g id="arrowDown" transform="rotate(180) translate(-30 -48)">
    <use xlink:href="#rim"/>
    <path pointer-events="none" fill="none" stroke="white" stroke-width="1.5" d="M0,-3.0v7 M-2.5,-0.5L0,-3.0L2.5,-0.5"/>
  </g>
  <g id="arrowLeft" transform="rotate(270) translate(-36 17)">
    <use xlink:href="#rim"/>
    <path pointer-events="none" fill="none" stroke="white" stroke-width="1.5" d="M0,-3.0v7 M-2.5,-0.5L0,-3.0L2.5,-0.5"/>
  </g>
  <g id="resetDef">
    <use xlink:href="#rim2" fill="#404040"><set attributeName="fill" to="#808080" begin="reset.mouseover" end="reset.mouseout"/></use>
  </g>
</defs>
<script type="application/ecmascript">
var viewWidth = 874;
var viewHeight = 1273;
var sectionId = 'dynsection-1';
</script>
<script type="application/ecmascript" xlink:href="svg.min.js"/>
<svg id="graph" class="graph">
<g id="viewport">
<title>HY_Catchment</title>
<!-- Node1 -->
<g id="Node000001" class="node">
<title>Node1</title>
<g id="a_Node000001"><a xlink:title=" ">
<polygon fill="#999999" stroke="none" points="394,-637 225,-637 225,-397 394,-397 394,-637"/>
<text text-anchor="start" x="276.12" y="-623.5" font-family="Helvetica,sans-Serif" font-size="10.00">HY_Catchment</text>
<text text-anchor="start" x="229" y="-608.5" font-family="Helvetica,sans-Serif" font-size="10.00">+</text>
<text text-anchor="start" x="239" y="-608.5" font-family="Helvetica,sans-Serif" font-size="10.00">ATMOSPHERIC_LAYER_HIGH</text>
<text text-anchor="start" x="229" y="-593.5" font-family="Helvetica,sans-Serif" font-size="10.00">+</text>
<text text-anchor="start" x="239" y="-593.5" font-family="Helvetica,sans-Serif" font-size="10.00">ATMOSPHERIC_Layer_LOW</text>
<text text-anchor="start" x="229" y="-578.5" font-family="Helvetica,sans-Serif" font-size="10.00">+</text>
<text text-anchor="start" x="239" y="-578.5" font-family="Helvetica,sans-Serif" font-size="10.00">CANOPY_LAYER</text>
<text text-anchor="start" x="229" y="-563.5" font-family="Helvetica,sans-Serif" font-size="10.00">+</text>
<text text-anchor="start" x="239" y="-563.5" font-family="Helvetica,sans-Serif" font-size="10.00">SNOW_LAYER</text>
<text text-anchor="start" x="229" y="-548.5" font-family="Helvetica,sans-Serif" font-size="10.00">+</text>
<text text-anchor="start" x="239" y="-548.5" font-family="Helvetica,sans-Serif" font-size="10.00">SURFACE_LAYER</text>
<text text-anchor="start" x="229" y="-533.5" font-family="Helvetica,sans-Serif" font-size="10.00">+</text>
<text text-anchor="start" x="239" y="-533.5" font-family="Helvetica,sans-Serif" font-size="10.00">GROUND_WATER_SHALLOW</text>
<text text-anchor="start" x="239" y="-522.25" font-family="Helvetica,sans-Serif" font-size="10.00">_LAYER</text>
<text text-anchor="start" x="229" y="-507.5" font-family="Helvetica,sans-Serif" font-size="10.00">+</text>
<text text-anchor="start" x="239" y="-507.5" font-family="Helvetica,sans-Serif" font-size="10.00">GROUND_WATER_DEEP_LAYER</text>
<text text-anchor="start" x="230.5" y="-492.5" font-family="Helvetica,sans-Serif" font-size="10.00">&#45;</text>
<text text-anchor="start" x="239" y="-492.5" font-family="Helvetica,sans-Serif" font-size="10.00">layer</text>
<text text-anchor="start" x="229" y="-477.5" font-family="Helvetica,sans-Serif" font-size="10.00">+</text>
<text text-anchor="start" x="239" y="-477.5" font-family="Helvetica,sans-Serif" font-size="10.00">HY_Catchment()</text>
<text text-anchor="start" x="229" y="-462.5" font-family="Helvetica,sans-Serif" font-size="10.00">+</text>
<text text-anchor="start" x="239" y="-462.5" font-family="Helvetica,sans-Serif" font-size="10.00">HY_Catchment()</text>
<text text-anchor="start" x="229" y="-447.5" font-family="Helvetica,sans-Serif" font-size="10.00">+</text>
<text text-anchor="start" x="239" y="-447.5" font-family="Helvetica,sans-Serif" font-size="10.00">~HY_Catchment()</text>
<text text-anchor="start" x="229" y="-432.5" font-family="Helvetica,sans-Serif" font-size="10.00">+</text>
<text text-anchor="start" x="239" y="-432.5" font-family="Helvetica,sans-Serif" font-size="10.00">get_outflow_nexuses()</text>
<text text-anchor="start" x="229" y="-417.5" font-family="Helvetica,sans-Serif" font-size="10.00">+</text>
<text text-anchor="start" x="239" y="-417.5" font-family="Helvetica,sans-Serif" font-size="10.00">get_layer()</text>
<text text-anchor="start" x="229" y="-402.5" font-family="Helvetica,sans-Serif" font-size="10.00">+</text>
<text text-anchor="start" x="239" y="-402.5" font-family="Helvetica,sans-Serif" font-size="10.00">set_layer()</text>
<polygon fill="#666666" stroke="#666666" points="225,-620 225,-620 394,-620 394,-620 225,-620"/>
<polygon fill="#666666" stroke="#666666" points="225,-489 225,-489 237,-489 237,-489 225,-489"/>
<polygon fill="#666666" stroke="#666666" points="237,-489 237,-489 394,-489 394,-489 237,-489"/>
<polygon fill="none" stroke="#666666" points="225,-397 225,-637 394,-637 394,-397 225,-397"/>
</a>
</g>
</g>
<!-- Node5 -->
<g id="Node000005" class="node">
<title>Node5</title>
<g id="a_Node000005"><a xlink:title=" ">
<polygon fill="white" stroke="none" points="524.5,-338.5 428.5,-338.5 428.5,-278.5 524.5,-278.5 524.5,-338.5"/>
<text text-anchor="start" x="433.38" y="-325" font-family="Helvetica,sans-Serif" font-size="10.00">std::shared_ptr&lt; HY</text>
<text text-anchor="start" x="446.12" y="-313.75" font-family="Helvetica,sans-Serif" font-size="10.00">_Catchment &gt;</text>
<text text-anchor="start" x="475" y="-299" font-family="Helvetica,sans-Serif" font-size="10.00"> </text>
<text text-anchor="start" x="439.5" y="-284" font-family="Helvetica,sans-Serif" font-size="10.00">+</text>
<text text-anchor="start" x="456.5" y="-284" font-family="Helvetica,sans-Serif" font-size="10.00">operator&#45;&gt;()</text>
<polygon fill="#666666" stroke="#666666" points="428.5,-310.5 428.5,-310.5 524.5,-310.5 524.5,-310.5 428.5,-310.5"/>
<polygon fill="#666666" stroke="#666666" points="428.5,-295.5 428.5,-295.5 524.5,-295.5 524.5,-295.5 428.5,-295.5"/>
<polygon fill="none" stroke="#666666" points="428.5,-278.5 428.5,-338.5 524.5,-338.5 524.5,-278.5 428.5,-278.5"/>
</a>
</g>
</g>
<!-- Node1&#45;&gt;Node5 -->
<g id="edge5_Node000005_Node000001" class="edge">
<title>Node1&#45;&gt;Node5</title>
<g id="a_edge5_Node000005_Node000001"><a xlink:title=" ">
<path fill="none" stroke="#63b8ff" d="M393.98,-411.54C412.24,-388.96 430.44,-366.46 445.08,-348.36"/>
<polygon fill="none" stroke="#63b8ff" points="445.15,-348.27 445.81,-341.09 452.69,-338.94 452.03,-346.12 445.15,-348.27"/>
</a>
</g>
<text text-anchor="middle" x="445.25" y="-363.88" font-family="Helvetica,sans-Serif" font-size="10.00" fill="grey"> +ptr</text>
</g>
<!-- Node2 -->
<g id="Node000002" class="node">
<title>Node2</title>
<g id="a_Node000002"><a xlink:href="class_h_y___hydro_feature.html" target="_top" xlink:title=" ">
<polygon fill="white" stroke="none" points="107,-828.5 0,-828.5 0,-764.5 107,-764.5 107,-828.5"/>
<text text-anchor="start" x="14.5" y="-815" font-family="Helvetica,sans-Serif" font-size="10.00">HY_HydroFeature</text>
<text text-anchor="start" x="52" y="-800" font-family="Helvetica,sans-Serif" font-size="10.00"> </text>
<text text-anchor="start" x="4" y="-785" font-family="Helvetica,sans-Serif" font-size="10.00">+</text>
<text text-anchor="start" x="14" y="-785" font-family="Helvetica,sans-Serif" font-size="10.00">HY_HydroFeature()</text>
<text text-anchor="start" x="4" y="-770" font-family="Helvetica,sans-Serif" font-size="10.00">+</text>
<text text-anchor="start" x="14" y="-770" font-family="Helvetica,sans-Serif" font-size="10.00">~HY_HydroFeature()</text>
<polygon fill="#666666" stroke="#666666" points="0,-811.5 0,-811.5 107,-811.5 107,-811.5 0,-811.5"/>
<polygon fill="#666666" stroke="#666666" points="0,-796.5 0,-796.5 107,-796.5 107,-796.5 0,-796.5"/>
<polygon fill="none" stroke="#666666" points="0,-764.5 0,-828.5 107,-828.5 107,-764.5 0,-764.5"/>
</a>
</g>
</g>
<!-- Node2&#45;&gt;Node1 -->
<g id="edge1_Node000001_Node000002" class="edge">
<title>Node2&#45;&gt;Node1</title>
<g id="a_edge1_Node000001_Node000002"><a xlink:title=" ">
<path fill="none" stroke="#63b8ff" d="M70.16,-754.28C83.42,-724.65 103.96,-684.83 129.5,-655 156.83,-623.08 192.76,-593.91 225.32,-570.77"/>
<polygon fill="none" stroke="#63b8ff" points="67.02,-752.75 66.22,-763.31 73.43,-755.55 67.02,-752.75"/>
</a>
</g>
</g>
<!-- Node3 -->
<g id="Node000003" class="node">
<title>Node3</title>
<g id="a_Node000003"><a xlink:title=" ">
<polygon fill="white" stroke="none" points="443.5,-60 325.5,-60 325.5,0 443.5,0 443.5,-60"/>
<text text-anchor="start" x="330.5" y="-46.5" font-family="Helvetica,sans-Serif" font-size="10.00">std::shared_ptr&lt; HY</text>
<text text-anchor="start" x="330.5" y="-35.25" font-family="Helvetica,sans-Serif" font-size="10.00">_CatchmentRealization &gt;</text>
<text text-anchor="start" x="383" y="-20.5" font-family="Helvetica,sans-Serif" font-size="10.00"> </text>
<text text-anchor="start" x="342" y="-5.5" font-family="Helvetica,sans-Serif" font-size="10.00">+</text>
<text text-anchor="start" x="364.5" y="-5.5" font-family="Helvetica,sans-Serif" font-size="10.00">operator&#45;&gt;()</text>
<polygon fill="#666666" stroke="#666666" points="325.5,-32 325.5,-32 443.5,-32 443.5,-32 325.5,-32"/>
<polygon fill="#666666" stroke="#666666" points="325.5,-17 325.5,-17 443.5,-17 443.5,-17 325.5,-17"/>
<polygon fill="none" stroke="#666666" points="325.5,0 325.5,-60 443.5,-60 443.5,0 325.5,0"/>
</a>
</g>
</g>
<!-- Node3&#45;&gt;Node1 -->
<g id="edge2_Node000001_Node000003" class="edge">
<title>Node3&#45;&gt;Node1</title>
<g id="a_edge2_Node000001_Node000003"><a xlink:title=" ">
<path fill="none" stroke="#63b8ff" d="M371.39,-59.88C353.54,-100.94 322.46,-179.03 310.75,-249.25 303.48,-292.81 301.46,-340.93 301.78,-384.17"/>
<polygon fill="none" stroke="#63b8ff" points="301.78,-384.23 305.85,-390.17 301.93,-396.22 297.85,-390.28 301.78,-384.23"/>
</a>
</g>
<text text-anchor="middle" x="336.38" y="-251" font-family="Helvetica,sans-Serif" font-size="10.00" fill="grey"> +realization</text>
</g>
<!-- Node4 -->
<g id="Node000004" class="node">
<title>Node4</title>
<g id="a_Node000004"><a xlink:href="class_h_y___catchment_realization.html" target="_top" xlink:title=" ">
<polygon fill="white" stroke="none" points="612,-231.25 469,-231.25 469,-107.25 612,-107.25 612,-231.25"/>
<text text-anchor="start" x="483.5" y="-217.75" font-family="Helvetica,sans-Serif" font-size="10.00">HY_CatchmentRealization</text>
<text text-anchor="start" x="473.38" y="-202.75" font-family="Helvetica,sans-Serif" font-size="10.00">#</text>
<text text-anchor="start" x="483" y="-202.75" font-family="Helvetica,sans-Serif" font-size="10.00">id_number</text>
<text text-anchor="start" x="473" y="-187.75" font-family="Helvetica,sans-Serif" font-size="10.00">+</text>
<text text-anchor="start" x="483" y="-187.75" font-family="Helvetica,sans-Serif" font-size="10.00">HY_CatchmentRealization()</text>
<text text-anchor="start" x="473" y="-172.75" font-family="Helvetica,sans-Serif" font-size="10.00">+</text>
<text text-anchor="start" x="483" y="-172.75" font-family="Helvetica,sans-Serif" font-size="10.00">HY_CatchmentRealization()</text>
<text text-anchor="start" x="473" y="-157.75" font-family="Helvetica,sans-Serif" font-size="10.00">+</text>
<text text-anchor="start" x="483" y="-157.75" font-family="Helvetica,sans-Serif" font-size="10.00">~HY_CatchmentRealization()</text>
<text text-anchor="start" x="473" y="-142.75" font-family="Helvetica,sans-Serif" font-size="10.00">+</text>
<text text-anchor="start" x="483" y="-142.75" font-family="Helvetica,sans-Serif" font-size="10.00">get_response()</text>
<text text-anchor="start" x="473.38" y="-127.75" font-family="Helvetica,sans-Serif" font-size="10.00">#</text>
<text text-anchor="start" x="483" y="-127.75" font-family="Helvetica,sans-Serif" font-size="10.00">get_catchment_id()</text>
<text text-anchor="start" x="473.38" y="-112.75" font-family="Helvetica,sans-Serif" font-size="10.00">#</text>
<text text-anchor="start" x="483" y="-112.75" font-family="Helvetica,sans-Serif" font-size="10.00">set_catchment_id()</text>
<polygon fill="#666666" stroke="#666666" points="469,-214.25 469,-214.25 612,-214.25 612,-214.25 469,-214.25"/>
<polygon fill="#666666" stroke="#666666" points="469,-199.25 469,-199.25 481,-199.25 481,-199.25 469,-199.25"/>
<polygon fill="#666666" stroke="#666666" points="481,-199.25 481,-199.25 612,-199.25 612,-199.25 481,-199.25"/>
<polygon fill="none" stroke="#666666" points="469,-107.25 469,-231.25 612,-231.25 612,-107.25 469,-107.25"/>
</a>
</g>
</g>
<!-- Node4&#45;&gt;Node3 -->
<g id="edge3_Node000003_Node000004" class="edge">
<title>Node4&#45;&gt;Node3</title>
<g id="a_edge3_Node000003_Node000004"><a xlink:title=" ">
<path fill="none" stroke="#63b8ff" d="M471.17,-107.25C456.11,-94 440.61,-80.37 426.96,-68.36"/>
<polygon fill="none" stroke="#63b8ff" points="427.07,-68.45 419.92,-67.49 418.06,-60.52 425.2,-61.48 427.07,-68.45"/>
</a>
</g>
<text text-anchor="middle" x="458.25" y="-79.75" font-family="Helvetica,sans-Serif" font-size="10.00" fill="grey"> +ptr</text>
</g>
<!-- Node5&#45;&gt;Node4 -->
<g id="edge4_Node000004_Node000005" class="edge">
<title>Node5&#45;&gt;Node4</title>
<g id="a_edge4_Node000004_Node000005"><a xlink:title=" ">
<path fill="none" stroke="#63b8ff" d="M506.22,-278.56C510.85,-272.92 515.19,-266.8 518.5,-260.5 521.35,-255.08 523.84,-249.27 526.02,-243.33"/>
<polygon fill="none" stroke="#63b8ff" points="526.04,-243.25 524.1,-236.3 529.77,-231.84 531.71,-238.79 526.04,-243.25"/>
</a>
</g>
<text text-anchor="middle" x="568.25" y="-251" font-family="Helvetica,sans-Serif" font-size="10.00" fill="grey"> #realized_catchment</text>
</g>
<!-- Node6 -->
<g id="Node000006" class="node">
<title>Node6</title>
<g id="a_Node000006"><a xlink:title=" ">
<polygon fill="white" stroke="none" points="540.5,-541.5 444.5,-541.5 444.5,-492.5 540.5,-492.5 540.5,-541.5"/>
<text text-anchor="start" x="449.38" y="-528" font-family="Helvetica,sans-Serif" font-size="10.00">std::shared_ptr&lt; T &gt;</text>
<text text-anchor="start" x="491" y="-513" font-family="Helvetica,sans-Serif" font-size="10.00"> </text>
<text text-anchor="start" x="455.5" y="-498" font-family="Helvetica,sans-Serif" font-size="10.00">+</text>
<text text-anchor="start" x="472.5" y="-498" font-family="Helvetica,sans-Serif" font-size="10.00">operator&#45;&gt;()</text>
<polygon fill="#666666" stroke="#666666" points="444.5,-524.5 444.5,-524.5 540.5,-524.5 540.5,-524.5 444.5,-524.5"/>
<polygon fill="#666666" stroke="#666666" points="444.5,-509.5 444.5,-509.5 540.5,-509.5 540.5,-509.5 444.5,-509.5"/>
<polygon fill="none" stroke="#666666" points="444.5,-492.5 444.5,-541.5 540.5,-541.5 540.5,-492.5 444.5,-492.5"/>
</a>
</g>
</g>
<!-- Node6&#45;&gt;Node3 -->
<g id="edge13_Node000003_Node000006" class="edge">
<title>Node6&#45;&gt;Node3</title>
<g id="a_edge13_Node000003_Node000006"><a xlink:title=" ">
<path fill="none" stroke="orange" d="M472.97,-483.09C446.16,-435.79 399.27,-344.96 381.75,-260.5 367.02,-189.49 374.63,-103.45 380.25,-59.64"/>
<polygon fill="orange" stroke="orange" points="469.77,-484.53 477.78,-491.47 475.84,-481.05 469.77,-484.53"/>
</a>
</g>
<text text-anchor="middle" x="447.88" y="-251" font-family="Helvetica,sans-Serif" font-size="10.00" fill="grey"> &lt; HY_CatchmentRealization &gt;</text>
</g>
<!-- Node6&#45;&gt;Node5 -->
<g id="edge6_Node000005_Node000006" class="edge">
<title>Node6&#45;&gt;Node5</title>
<g id="a_edge6_Node000005_Node000006"><a xlink:title=" ">
<path fill="none" stroke="orange" d="M488.07,-481.72C484.68,-454.05 480.23,-414.09 478,-379 477.15,-365.63 476.75,-350.79 476.58,-338.26"/>
<polygon fill="orange" stroke="orange" points="484.55,-481.79 489.25,-491.28 491.49,-480.92 484.55,-481.79"/>
</a>
</g>
<text text-anchor="middle" x="520.25" y="-363.88" font-family="Helvetica,sans-Serif" font-size="10.00" fill="grey"> &lt; HY_Catchment &gt;</text>
</g>
<!-- Node8 -->
<g id="Node000008" class="node">
<title>Node8</title>
<g id="a_Node000008"><a xlink:title=" ">
<polygon fill="white" stroke="none" points="730,-338.5 581,-338.5 581,-278.5 730,-278.5 730,-338.5"/>
<text text-anchor="start" x="585.75" y="-325" font-family="Helvetica,sans-Serif" font-size="10.00">std::shared_ptr&lt; data</text>
<text text-anchor="start" x="585.75" y="-313.75" font-family="Helvetica,sans-Serif" font-size="10.00">_access::GenericDataProvider &gt;</text>
<text text-anchor="start" x="654" y="-299" font-family="Helvetica,sans-Serif" font-size="10.00"> </text>
<text text-anchor="start" x="605" y="-284" font-family="Helvetica,sans-Serif" font-size="10.00">+</text>
<text text-anchor="start" x="635" y="-284" font-family="Helvetica,sans-Serif" font-size="10.00">operator&#45;&gt;()</text>
<polygon fill="#666666" stroke="#666666" points="581,-310.5 581,-310.5 730,-310.5 730,-310.5 581,-310.5"/>
<polygon fill="#666666" stroke="#666666" points="581,-295.5 581,-295.5 730,-295.5 730,-295.5 581,-295.5"/>
<polygon fill="none" stroke="#666666" points="581,-278.5 581,-338.5 730,-338.5 730,-278.5 581,-278.5"/>
</a>
</g>
</g>
<!-- Node6&#45;&gt;Node8 -->
<g id="edge12_Node000008_Node000006" class="edge">
<title>Node6&#45;&gt;Node8</title>
<g id="a_edge12_Node000008_Node000006"><a xlink:title=" ">
<path fill="none" stroke="orange" d="M505.97,-482.15C520.94,-447.61 547.73,-393.92 583,-356.5 589.17,-349.95 596.44,-343.89 603.94,-338.45"/>
<polygon fill="orange" stroke="orange" points="502.79,-480.68 502.12,-491.25 509.24,-483.41 502.79,-480.68"/>
</a>
</g>
<text text-anchor="start" x="582.5" y="-369.5" font-family="Helvetica,sans-Serif" font-size="10.00" fill="grey"> &lt; data_access::GenericData</text>
<text text-anchor="middle" x="644.75" y="-358.25" font-family="Helvetica,sans-Serif" font-size="10.00" fill="grey">Provider &gt;</text>
</g>
<!-- Node7 -->
<g id="Node000007" class="node">
<title>Node7</title>
<g id="a_Node000007"><a xlink:title=" ">
<polygon fill="white" stroke="none" points="500.5,-1259.75 484.5,-1259.75 484.5,-1210.75 500.5,-1210.75 500.5,-1259.75"/>
<text text-anchor="start" x="489.5" y="-1246.25" font-family="Helvetica,sans-Serif" font-size="10.00">T</text>
<text text-anchor="start" x="491" y="-1231.25" font-family="Helvetica,sans-Serif" font-size="10.00"> </text>
<text text-anchor="start" x="491" y="-1216.25" font-family="Helvetica,sans-Serif" font-size="10.00"> </text>
<polygon fill="#666666" stroke="#666666" points="484.5,-1242.75 484.5,-1242.75 500.5,-1242.75 500.5,-1242.75 484.5,-1242.75"/>
<polygon fill="#666666" stroke="#666666" points="484.5,-1227.75 484.5,-1227.75 500.5,-1227.75 500.5,-1227.75 484.5,-1227.75"/>
<polygon fill="none" stroke="#666666" points="484.5,-1210.75 484.5,-1259.75 500.5,-1259.75 500.5,-1210.75 484.5,-1210.75"/>
</a>
</g>
</g>
<!-- Node7&#45;&gt;Node6 -->
<g id="edge7_Node000006_Node000007" class="edge">
<title>Node7&#45;&gt;Node6</title>
<g id="a_edge7_Node000006_Node000007"><a xlink:title=" ">
<path fill="none" stroke="#63b8ff" d="M500.35,-1218.15C504.24,-1209.26 508.53,-1197.9 510.5,-1187.25 511.41,-1182.33 510.53,-1181 510.5,-1176 509.17,-962.43 513.04,-908.9 504.5,-695.5 502.53,-646.38 498.37,-589.72 495.51,-553.89"/>
<polygon fill="none" stroke="#63b8ff" points="495.52,-554.1 491.05,-548.44 494.55,-542.14 499.03,-547.79 495.52,-554.1"/>
</a>
</g>
<text text-anchor="middle" x="519.25" y="-922.88" font-family="Helvetica,sans-Serif" font-size="10.00" fill="grey"> +ptr</text>
</g>
<!-- Node15 -->
<g id="Node000015" class="node">
<title>Node15</title>
<g id="a_Node000015"><a xlink:title=" ">
<polygon fill="white" stroke="none" points="474,-1081.5 397,-1081.5 397,-1032.5 474,-1032.5 474,-1081.5"/>
<text text-anchor="start" x="401.75" y="-1068" font-family="Helvetica,sans-Serif" font-size="10.00">std::vector&lt; T &gt;</text>
<text text-anchor="start" x="434" y="-1053" font-family="Helvetica,sans-Serif" font-size="10.00"> </text>
<text text-anchor="start" x="434" y="-1038" font-family="Helvetica,sans-Serif" font-size="10.00"> </text>
<polygon fill="#666666" stroke="#666666" points="397,-1064.5 397,-1064.5 474,-1064.5 474,-1064.5 397,-1064.5"/>
<polygon fill="#666666" stroke="#666666" points="397,-1049.5 397,-1049.5 474,-1049.5 474,-1049.5 397,-1049.5"/>
<polygon fill="none" stroke="#666666" points="397,-1032.5 397,-1081.5 474,-1081.5 474,-1032.5 397,-1032.5"/>
</a>
</g>
</g>
<!-- Node7&#45;&gt;Node15 -->
<g id="edge19_Node000015_Node000007" class="edge">
<title>Node7&#45;&gt;Node15</title>
<g id="a_edge19_Node000015_Node000007"><a xlink:title=" ">
<path fill="none" stroke="#63b8ff" d="M484.69,-1224.39C477.84,-1215.26 468.13,-1201.06 462.5,-1187.25 450.2,-1157.06 443.23,-1120.53 439.47,-1094.01"/>
<polygon fill="none" stroke="#63b8ff" points="439.46,-1093.94 434.71,-1088.51 437.9,-1082.04 442.64,-1087.47 439.46,-1093.94"/>
</a>
</g>
<text text-anchor="middle" x="486.5" y="-1177.75" font-family="Helvetica,sans-Serif" font-size="10.00" fill="grey"> +elements</text>
</g>
<!-- Node8&#45;&gt;Node4 -->
<g id="edge8_Node000004_Node000008" class="edge">
<title>Node8&#45;&gt;Node4</title>
<g id="a_edge8_Node000004_Node000008"><a xlink:title=" ">
<path fill="none" stroke="#63b8ff" d="M638.79,-278.52C632.8,-268.91 625.74,-258.34 618.5,-249.25 616.25,-246.42 613.91,-243.59 611.51,-240.76"/>
<polygon fill="none" stroke="#63b8ff" points="611.62,-240.89 604.66,-239.01 603.72,-231.86 610.68,-233.74 611.62,-240.89"/>
</a>
</g>
<text text-anchor="middle" x="643.88" y="-251" font-family="Helvetica,sans-Serif" font-size="10.00" fill="grey"> #forcing</text>
</g>
<!-- Node9 -->
<g id="Node000009" class="node">
<title>Node9</title>
<g id="a_Node000009"><a xlink:href="classdata__access_1_1_generic_data_provider.html" target="_top" xlink:title=" ">
<polygon fill="white" stroke="none" points="795.5,-547 671.5,-547 671.5,-487 795.5,-487 795.5,-547"/>
<text text-anchor="start" x="676.5" y="-533.5" font-family="Helvetica,sans-Serif" font-size="10.00">data_access::GenericData</text>
<text text-anchor="start" x="715.5" y="-522.25" font-family="Helvetica,sans-Serif" font-size="10.00">Provider</text>
<text text-anchor="start" x="732" y="-507.5" font-family="Helvetica,sans-Serif" font-size="10.00"> </text>
<text text-anchor="start" x="732" y="-492.5" font-family="Helvetica,sans-Serif" font-size="10.00"> </text>
<polygon fill="#666666" stroke="#666666" points="671.5,-519 671.5,-519 795.5,-519 795.5,-519 671.5,-519"/>
<polygon fill="#666666" stroke="#666666" points="671.5,-504 671.5,-504 795.5,-504 795.5,-504 671.5,-504"/>
<polygon fill="none" stroke="#666666" points="671.5,-487 671.5,-547 795.5,-547 795.5,-487 671.5,-487"/>
</a>
</g>
</g>
<!-- Node9&#45;&gt;Node8 -->
<g id="edge9_Node000008_Node000009" class="edge">
<title>Node9&#45;&gt;Node8</title>
<g id="a_edge9_Node000008_Node000009"><a xlink:title=" ">
<path fill="none" stroke="#63b8ff" d="M735.53,-487.29C736.6,-453.78 734.28,-397.73 711.5,-356.5 709.83,-353.48 707.88,-350.57 705.74,-347.78"/>
<polygon fill="none" stroke="#63b8ff" points="705.82,-347.87 698.84,-346.06 697.84,-338.92 704.81,-340.73 705.82,-347.87"/>
</a>
</g>
<text text-anchor="middle" x="730.25" y="-363.88" font-family="Helvetica,sans-Serif" font-size="10.00" fill="grey"> +ptr</text>
</g>
<!-- Node10 -->
<g id="Node000010" class="node">
<title>Node10</title>
<g id="a_Node000010"><a xlink:href="classdata__access_1_1_data_provider.html" target="_top" xlink:title=" ">
<polygon fill="white" stroke="none" points="825.5,-897.5 641.5,-897.5 641.5,-695.5 825.5,-695.5 825.5,-897.5"/>
<text text-anchor="start" x="646.5" y="-884" font-family="Helvetica,sans-Serif" font-size="10.00">data_access::DataProvider</text>
<text text-anchor="start" x="646.5" y="-872.75" font-family="Helvetica,sans-Serif" font-size="10.00">&lt; double, CatchmentAggrDataSelector &gt;</text>
<text text-anchor="start" x="732" y="-858" font-family="Helvetica,sans-Serif" font-size="10.00"> </text>
<text text-anchor="start" x="661.5" y="-843" font-family="Helvetica,sans-Serif" font-size="10.00">+</text>
<text text-anchor="start" x="687.5" y="-843" font-family="Helvetica,sans-Serif" font-size="10.00">~DataProvider()</text>
<text text-anchor="start" x="661.5" y="-828" font-family="Helvetica,sans-Serif" font-size="10.00">+</text>
<text text-anchor="start" x="687.5" y="-828" font-family="Helvetica,sans-Serif" font-size="10.00">get_available_variable</text>
<text text-anchor="start" x="687.5" y="-816.75" font-family="Helvetica,sans-Serif" font-size="10.00">_names()</text>
<text text-anchor="start" x="661.5" y="-802" font-family="Helvetica,sans-Serif" font-size="10.00">+</text>
<text text-anchor="start" x="687.5" y="-802" font-family="Helvetica,sans-Serif" font-size="10.00">get_data_start_time()</text>
<text text-anchor="start" x="661.5" y="-787" font-family="Helvetica,sans-Serif" font-size="10.00">+</text>
<text text-anchor="start" x="687.5" y="-787" font-family="Helvetica,sans-Serif" font-size="10.00">get_data_stop_time()</text>
<text text-anchor="start" x="661.5" y="-772" font-family="Helvetica,sans-Serif" font-size="10.00">+</text>
<text text-anchor="start" x="687.5" y="-772" font-family="Helvetica,sans-Serif" font-size="10.00">record_duration()</text>
<text text-anchor="start" x="661.5" y="-757" font-family="Helvetica,sans-Serif" font-size="10.00">+</text>
<text text-anchor="start" x="687.5" y="-757" font-family="Helvetica,sans-Serif" font-size="10.00">get_ts_index_for_time()</text>
<text text-anchor="start" x="661.5" y="-742" font-family="Helvetica,sans-Serif" font-size="10.00">+</text>
<text text-anchor="start" x="687.5" y="-742" font-family="Helvetica,sans-Serif" font-size="10.00">get_value()</text>
<text text-anchor="start" x="661.5" y="-727" font-family="Helvetica,sans-Serif" font-size="10.00">+</text>
<text text-anchor="start" x="687.5" y="-727" font-family="Helvetica,sans-Serif" font-size="10.00">get_values()</text>
<text text-anchor="start" x="661.5" y="-712" font-family="Helvetica,sans-Serif" font-size="10.00">+</text>
<text text-anchor="start" x="687.5" y="-712" font-family="Helvetica,sans-Serif" font-size="10.00">is_property_sum_over</text>
<text text-anchor="start" x="687.5" y="-700.75" font-family="Helvetica,sans-Serif" font-size="10.00">_time_step()</text>
<polygon fill="#666666" stroke="#666666" points="641.5,-869.5 641.5,-869.5 825.5,-869.5 825.5,-869.5 641.5,-869.5"/>
<polygon fill="#666666" stroke="#666666" points="641.5,-854.5 641.5,-854.5 825.5,-854.5 825.5,-854.5 641.5,-854.5"/>
<polygon fill="none" stroke="#666666" points="641.5,-695.5 641.5,-897.5 825.5,-897.5 825.5,-695.5 641.5,-695.5"/>
</a>
</g>
</g>
<!-- Node10&#45;&gt;Node9 -->
<g id="edge10_Node000009_Node000010" class="edge">
<title>Node10&#45;&gt;Node9</title>
<g id="a_edge10_Node000009_Node000010"><a xlink:title=" ">
<path fill="none" stroke="#63b8ff" d="M733.5,-684.45C733.5,-634.42 733.5,-579.38 733.5,-546.8"/>
<polygon fill="none" stroke="#63b8ff" points="730,-684.19 733.5,-694.19 737,-684.19 730,-684.19"/>
</a>
</g>
</g>
<!-- Node11 -->
<g id="Node000011" class="node">
<title>Node11</title>
<g id="a_Node000011"><a xlink:href="classdata__access_1_1_data_provider.html" target="_top" xlink:title=" ">
<polygon fill="white" stroke="none" points="801.5,-1158 665.5,-1158 665.5,-956 801.5,-956 801.5,-1158"/>
<text text-anchor="start" x="670.5" y="-1144.5" font-family="Helvetica,sans-Serif" font-size="10.00">data_access::DataProvider</text>
<text text-anchor="start" x="670.5" y="-1133.25" font-family="Helvetica,sans-Serif" font-size="10.00">&lt; data_type, selection_type &gt;</text>
<text text-anchor="start" x="732" y="-1118.5" font-family="Helvetica,sans-Serif" font-size="10.00"> </text>
<text text-anchor="start" x="673.5" y="-1103.5" font-family="Helvetica,sans-Serif" font-size="10.00">+</text>
<text text-anchor="start" x="687.5" y="-1103.5" font-family="Helvetica,sans-Serif" font-size="10.00">~DataProvider()</text>
<text text-anchor="start" x="673.5" y="-1088.5" font-family="Helvetica,sans-Serif" font-size="10.00">+</text>
<text text-anchor="start" x="687.5" y="-1088.5" font-family="Helvetica,sans-Serif" font-size="10.00">get_available_variable</text>
<text text-anchor="start" x="687.5" y="-1077.25" font-family="Helvetica,sans-Serif" font-size="10.00">_names()</text>
<text text-anchor="start" x="673.5" y="-1062.5" font-family="Helvetica,sans-Serif" font-size="10.00">+</text>
<text text-anchor="start" x="687.5" y="-1062.5" font-family="Helvetica,sans-Serif" font-size="10.00">get_data_start_time()</text>
<text text-anchor="start" x="673.5" y="-1047.5" font-family="Helvetica,sans-Serif" font-size="10.00">+</text>
<text text-anchor="start" x="687.5" y="-1047.5" font-family="Helvetica,sans-Serif" font-size="10.00">get_data_stop_time()</text>
<text text-anchor="start" x="673.5" y="-1032.5" font-family="Helvetica,sans-Serif" font-size="10.00">+</text>
<text text-anchor="start" x="687.5" y="-1032.5" font-family="Helvetica,sans-Serif" font-size="10.00">record_duration()</text>
<text text-anchor="start" x="673.5" y="-1017.5" font-family="Helvetica,sans-Serif" font-size="10.00">+</text>
<text text-anchor="start" x="687.5" y="-1017.5" font-family="Helvetica,sans-Serif" font-size="10.00">get_ts_index_for_time()</text>
<text text-anchor="start" x="673.5" y="-1002.5" font-family="Helvetica,sans-Serif" font-size="10.00">+</text>
<text text-anchor="start" x="687.5" y="-1002.5" font-family="Helvetica,sans-Serif" font-size="10.00">get_value()</text>
<text text-anchor="start" x="673.5" y="-987.5" font-family="Helvetica,sans-Serif" font-size="10.00">+</text>
<text text-anchor="start" x="687.5" y="-987.5" font-family="Helvetica,sans-Serif" font-size="10.00">get_values()</text>
<text text-anchor="start" x="673.5" y="-972.5" font-family="Helvetica,sans-Serif" font-size="10.00">+</text>
<text text-anchor="start" x="687.5" y="-972.5" font-family="Helvetica,sans-Serif" font-size="10.00">is_property_sum_over</text>
<text text-anchor="start" x="687.5" y="-961.25" font-family="Helvetica,sans-Serif" font-size="10.00">_time_step()</text>
<polygon fill="#666666" stroke="#666666" points="665.5,-1130 665.5,-1130 801.5,-1130 801.5,-1130 665.5,-1130"/>
<polygon fill="#666666" stroke="#666666" points="665.5,-1115 665.5,-1115 801.5,-1115 801.5,-1115 665.5,-1115"/>
<polygon fill="none" stroke="#666666" points="665.5,-956 665.5,-1158 801.5,-1158 801.5,-956 665.5,-956"/>
</a>
</g>
</g>
<!-- Node11&#45;&gt;Node10 -->
<g id="edge11_Node000010_Node000011" class="edge">
<title>Node11&#45;&gt;Node10</title>
<g id="a_edge11_Node000010_Node000011"><a xlink:title=" ">
<path fill="none" stroke="orange" d="M733.5,-944.64C733.5,-928.86 733.5,-912.72 733.5,-897.18"/>
<polygon fill="orange" stroke="orange" points="730,-944.54 733.5,-954.54 737,-944.54 730,-944.54"/>
</a>
</g>
<text text-anchor="start" x="733.5" y="-928.5" font-family="Helvetica,sans-Serif" font-size="10.00" fill="grey"> &lt; double, CatchmentAggrData</text>
<text text-anchor="middle" x="799.5" y="-917.25" font-family="Helvetica,sans-Serif" font-size="10.00" fill="grey">Selector &gt;</text>
</g>
<!-- Node12 -->
<g id="Node000012" class="node">
<title>Node12</title>
<g id="a_Node000012"><a xlink:title=" ">
<polygon fill="white" stroke="none" points="249.5,-1081.5 197.5,-1081.5 197.5,-1032.5 249.5,-1032.5 249.5,-1081.5"/>
<text text-anchor="start" x="202.5" y="-1068" font-family="Helvetica,sans-Serif" font-size="10.00">std::string</text>
<text text-anchor="start" x="222" y="-1053" font-family="Helvetica,sans-Serif" font-size="10.00"> </text>
<text text-anchor="start" x="222" y="-1038" font-family="Helvetica,sans-Serif" font-size="10.00"> </text>
<polygon fill="#666666" stroke="#666666" points="197.5,-1064.5 197.5,-1064.5 249.5,-1064.5 249.5,-1064.5 197.5,-1064.5"/>
<polygon fill="#666666" stroke="#666666" points="197.5,-1049.5 197.5,-1049.5 249.5,-1049.5 249.5,-1049.5 197.5,-1049.5"/>
<polygon fill="none" stroke="#666666" points="197.5,-1032.5 197.5,-1081.5 249.5,-1081.5 249.5,-1032.5 197.5,-1032.5"/>
</a>
</g>
</g>
<!-- Node12&#45;&gt;Node1 -->
<g id="edge14_Node000001_Node000012" class="edge">
<title>Node12&#45;&gt;Node1</title>
<g id="a_edge14_Node000001_Node000012"><a xlink:title=" ">
<path fill="none" stroke="#63b8ff" d="M209.39,-1032.62C192.16,-1002.6 164,-948.3 153.25,-897.5 134.66,-809.67 121.55,-779.49 153.25,-695.5 166.73,-659.78 191.03,-626.59 216.52,-598.81"/>
<polygon fill="none" stroke="#63b8ff" points="216.35,-598.99 217.55,-591.88 224.57,-590.25 223.37,-597.36 216.35,-598.99"/>
</a>
</g>
<text text-anchor="middle" x="201.62" y="-815.12" font-family="Helvetica,sans-Serif" font-size="10.00" fill="grey"> &#45;conjoint_catchment</text>
<text text-anchor="middle" x="201.62" y="-803.88" font-family="Helvetica,sans-Serif" font-size="10.00" fill="grey">&#45;containing_catchment</text>
<text text-anchor="middle" x="201.62" y="-792.62" font-family="Helvetica,sans-Serif" font-size="10.00" fill="grey">&#45;id</text>
<text text-anchor="middle" x="201.62" y="-781.38" font-family="Helvetica,sans-Serif" font-size="10.00" fill="grey">&#45;lower_catchment</text>
<text text-anchor="middle" x="201.62" y="-770.12" font-family="Helvetica,sans-Serif" font-size="10.00" fill="grey">&#45;upper_catchment</text>
</g>
<!-- Node14 -->
<g id="Node000014" class="node">
<title>Node14</title>
<g id="a_Node000014"><a xlink:title=" ">
<polygon fill="white" stroke="none" points="359,-821 260,-821 260,-772 359,-772 359,-821"/>
<text text-anchor="start" x="264.88" y="-807.5" font-family="Helvetica,sans-Serif" font-size="10.00">std::vector&lt; Nexus &gt;</text>
<text text-anchor="start" x="308" y="-792.5" font-family="Helvetica,sans-Serif" font-size="10.00"> </text>
<text text-anchor="start" x="308" y="-777.5" font-family="Helvetica,sans-Serif" font-size="10.00"> </text>
<polygon fill="#666666" stroke="#666666" points="260,-804 260,-804 359,-804 359,-804 260,-804"/>
<polygon fill="#666666" stroke="#666666" points="260,-789 260,-789 359,-789 359,-789 260,-789"/>
<polygon fill="none" stroke="#666666" points="260,-772 260,-821 359,-821 359,-772 260,-772"/>
</a>
</g>
</g>
<!-- Node12&#45;&gt;Node14 -->
<g id="edge17_Node000014_Node000012" class="edge">
<title>Node12&#45;&gt;Node14</title>
<g id="a_edge17_Node000014_Node000012"><a xlink:title=" ">
<path fill="none" stroke="#63b8ff" d="M218,-1032.58C212.42,-1003.6 206.88,-953.44 224.5,-915.5 229.68,-904.35 237.43,-906.78 245.5,-897.5 263.02,-877.35 279.2,-851.98 290.91,-831.83"/>
<polygon fill="none" stroke="#63b8ff" points="290.89,-831.87 290.38,-824.68 296.82,-821.44 297.33,-828.63 290.89,-831.87"/>
</a>
</g>
<text text-anchor="middle" x="248.5" y="-922.88" font-family="Helvetica,sans-Serif" font-size="10.00" fill="grey"> +elements</text>
</g>
<!-- Node16 -->
<g id="Node000016" class="node">
<title>Node16</title>
<g id="a_Node000016"><a xlink:title=" ">
<polygon fill="white" stroke="none" points="495.5,-821 377.5,-821 377.5,-772 495.5,-772 495.5,-821"/>
<text text-anchor="start" x="382.12" y="-807.5" font-family="Helvetica,sans-Serif" font-size="10.00">std::vector&lt; Catchment &gt;</text>
<text text-anchor="start" x="435" y="-792.5" font-family="Helvetica,sans-Serif" font-size="10.00"> </text>
<text text-anchor="start" x="435" y="-777.5" font-family="Helvetica,sans-Serif" font-size="10.00"> </text>
<polygon fill="#666666" stroke="#666666" points="377.5,-804 377.5,-804 495.5,-804 495.5,-804 377.5,-804"/>
<polygon fill="#666666" stroke="#666666" points="377.5,-789 377.5,-789 495.5,-789 495.5,-789 377.5,-789"/>
<polygon fill="none" stroke="#666666" points="377.5,-772 377.5,-821 495.5,-821 495.5,-772 377.5,-772"/>
</a>
</g>
</g>
<!-- Node12&#45;&gt;Node16 -->
<g id="edge21_Node000016_Node000012" class="edge">
<title>Node12&#45;&gt;Node16</title>
<g id="a_edge21_Node000016_Node000012"><a xlink:title=" ">
<path fill="none" stroke="#63b8ff" d="M233.15,-1032.66C247.12,-1001.63 275.82,-947.05 316.5,-915.5 335.83,-900.51 349.08,-912.37 368.5,-897.5 390.86,-880.38 408.46,-853.74 420.15,-832.26"/>
<polygon fill="none" stroke="#63b8ff" points="420.08,-832.4 419.29,-825.23 425.61,-821.75 426.39,-828.92 420.08,-832.4"/>
</a>
</g>
<text text-anchor="middle" x="340.5" y="-922.88" font-family="Helvetica,sans-Serif" font-size="10.00" fill="grey"> +elements</text>
</g>
<!-- Node13 -->
<g id="Node000013" class="node">
<title>Node13</title>
<g id="a_Node000013"><a xlink:title=" ">
<polygon fill="white" stroke="none" points="266.5,-1265.25 180.5,-1265.25 180.5,-1205.25 266.5,-1205.25 266.5,-1265.25"/>
<text text-anchor="start" x="185.25" y="-1251.75" font-family="Helvetica,sans-Serif" font-size="10.00">std::basic_string&lt;</text>
<text text-anchor="start" x="208.12" y="-1240.5" font-family="Helvetica,sans-Serif" font-size="10.00"> Char &gt;</text>
<text text-anchor="start" x="222" y="-1225.75" font-family="Helvetica,sans-Serif" font-size="10.00"> </text>
<text text-anchor="start" x="222" y="-1210.75" font-family="Helvetica,sans-Serif" font-size="10.00"> </text>
<polygon fill="#666666" stroke="#666666" points="180.5,-1237.25 180.5,-1237.25 266.5,-1237.25 266.5,-1237.25 180.5,-1237.25"/>
<polygon fill="#666666" stroke="#666666" points="180.5,-1222.25 180.5,-1222.25 266.5,-1222.25 266.5,-1222.25 180.5,-1222.25"/>
<polygon fill="none" stroke="#666666" points="180.5,-1205.25 180.5,-1265.25 266.5,-1265.25 266.5,-1205.25 180.5,-1205.25"/>
</a>
</g>
</g>
<!-- Node13&#45;&gt;Node12 -->
<g id="edge15_Node000012_Node000013" class="edge">
<title>Node13&#45;&gt;Node12</title>
<g id="a_edge15_Node000012_Node000013"><a xlink:title=" ">
<path fill="none" stroke="#63b8ff" d="M223.5,-1194.33C223.5,-1159.49 223.5,-1110.12 223.5,-1081.34"/>
<polygon fill="none" stroke="#63b8ff" points="220,-1194.03 223.5,-1204.03 227,-1194.03 220,-1194.03"/>
</a>
</g>
</g>
<!-- Node14&#45;&gt;Node1 -->
<g id="edge16_Node000001_Node000014" class="edge">
<title>Node14&#45;&gt;Node1</title>
<g id="a_edge16_Node000001_Node000014"><a xlink:title=" ">
<path fill="none" stroke="#63b8ff" d="M309.5,-772.32C309.5,-744.81 309.5,-696.74 309.5,-649.75"/>
<polygon fill="none" stroke="#63b8ff" points="309.5,-649.77 305.5,-643.77 309.5,-637.77 313.5,-643.77 309.5,-649.77"/>
</a>
</g>
<text text-anchor="middle" x="329" y="-668" font-family="Helvetica,sans-Serif" font-size="10.00" fill="grey"> &#45;inflows</text>
<text text-anchor="middle" x="329" y="-656.75" font-family="Helvetica,sans-Serif" font-size="10.00" fill="grey">&#45;outflows</text>
</g>
<!-- Node15&#45;&gt;Node14 -->
<g id="edge18_Node000014_Node000015" class="edge">
<title>Node15&#45;&gt;Node14</title>
<g id="a_edge18_Node000014_Node000015"><a xlink:title=" ">
<path fill="none" stroke="orange" d="M419.08,-1022.32C393.09,-969 343.13,-866.5 320.79,-820.66"/>
<polygon fill="orange" stroke="orange" points="415.91,-1023.79 423.43,-1031.24 422.2,-1020.72 415.91,-1023.79"/>
</a>
</g>
<text text-anchor="middle" x="398.75" y="-922.88" font-family="Helvetica,sans-Serif" font-size="10.00" fill="grey"> &lt; Nexus &gt;</text>
</g>
<!-- Node15&#45;&gt;Node16 -->
<g id="edge22_Node000016_Node000015" class="edge">
<title>Node15&#45;&gt;Node16</title>
<g id="a_edge22_Node000016_Node000015"><a xlink:title=" ">
<path fill="none" stroke="orange" d="M435.63,-1021.31C435.84,-967.72 436.23,-866.22 436.41,-820.66"/>
<polygon fill="orange" stroke="orange" points="432.14,-1021.08 435.6,-1031.09 439.14,-1021.1 432.14,-1021.08"/>
</a>
</g>
<text text-anchor="middle" x="468.5" y="-922.88" font-family="Helvetica,sans-Serif" font-size="10.00" fill="grey"> &lt; Catchment &gt;</text>
</g>
<!-- Node16&#45;&gt;Node1 -->
<g id="edge20_Node000001_Node000016" class="edge">
<title>Node16&#45;&gt;Node1</title>
<g id="a_edge20_Node000001_Node000016"><a xlink:title=" ">
<path fill="none" stroke="#63b8ff" d="M425.89,-772.32C413.2,-744.58 390.93,-695.92 369.25,-648.55"/>
<polygon fill="none" stroke="#63b8ff" points="369.27,-648.6 363.14,-644.81 364.28,-637.69 370.41,-641.48 369.27,-648.6"/>
</a>
</g>
<text text-anchor="middle" x="432.25" y="-662.38" font-family="Helvetica,sans-Serif" font-size="10.00" fill="grey"> &#45;contained_catchments</text>
</g>
</g>
</svg>

<g id="navigator" transform="translate(0 0)" fill="#404254">
  <rect fill="#f2f5e9" fill-opacity="0.5" stroke="#606060" stroke-width=".5" x="0" y="0" width="60" height="60"/>
  <use id="zoomplus" xlink:href="#zoomPlus" x="17" y="9" onmousedown="handleZoom(evt,'in')"/>
  <use id="zoomminus" xlink:href="#zoomMin" x="42" y="9" onmousedown="handleZoom(evt,'out')"/>
  <use id="reset" xlink:href="#resetDef" x="30" y="36" onmousedown="handleReset()"/>
   <use id="arrowup" xlink:href="#arrowUp" x="0" y="0" onmousedown="handlePan(0,-1)"/>
  <use id="arrowright" xlink:href="#arrowRight" x="0" y="0" onmousedown="handlePan(1,0)"/>
  <use id="arrowdown" xlink:href="#arrowDown" x="0" y="0" onmousedown="handlePan(0,1)"/>
  <use id="arrowleft" xlink:href="#arrowLeft" x="0" y="0" onmousedown="handlePan(-1,0)"/>
</g>
<svg viewBox="0 0 15 15" width="100%" height="30px" preserveAspectRatio="xMaxYMin meet">
 <g id="arrow_out" transform="scale(0.3 0.3)">
  <a xlink:href="class_h_y___catchment__coll__graph_org.svg" target="_base">
   <rect id="button" ry="5" rx="5" y="6" x="6" height="38" width="38"
        fill="#f2f5e9" fill-opacity="0.5" stroke="#606060" stroke-width="1.0"/>
   <path id="arrow"
     d="M 11.500037,31.436501 C 11.940474,20.09759 22.043105,11.32322 32.158766,21.979434 L 37.068811,17.246167 C 37.068811,17.246167 37.088388,32 37.088388,32 L 22.160133,31.978069 C 22.160133,31.978069 26.997745,27.140456 26.997745,27.140456 C 18.528582,18.264221 13.291696,25.230495 11.500037,31.436501 z"
     style="fill:#404040;"/>
  </a>
 </g>
</svg>

<style type='text/css'>
<![CDATA[
[data-mouse-over-selected='false'] { opacity: 0.7; }
[data-mouse-over-selected='true']  { opacity: 1.0; }
]]>
</style>
<script type="application/ecmascript"><![CDATA[
document.addEventListener('DOMContentLoaded', (event) => {
  highlightEdges();
  highlightAdjacentNodes();
});
]]></script>
</svg>
