<?xml version="1.0" encoding="UTF-8" standalone="no"?>
<!DOCTYPE svg PUBLIC "-//W3C//DTD SVG 1.1//EN"
 "http://www.w3.org/Graphics/SVG/1.1/DTD/svg11.dtd">
<!-- Generated by graphviz version 12.2.0 (20241103.1931)
 -->
<!-- Title: HY_CatchmentDivide Pages: 1 -->
<svg width="248pt" height="266pt"
 viewBox="0.00 0.00 248.00 265.50" xmlns="http://www.w3.org/2000/svg" xmlns:xlink="http://www.w3.org/1999/xlink">
<g id="graph0" class="graph" transform="scale(1 1) rotate(0) translate(4 261.5)">
<title>HY_CatchmentDivide</title>
<!-- Node1 -->
<g id="Node000001" class="node">
<title>Node1</title>
<g id="a_Node000001"><a xlink:title=" ">
<polygon fill="#999999" stroke="none" points="197.12,-95.5 74.12,-95.5 74.12,0 197.12,0 197.12,-95.5"/>
<text text-anchor="start" x="88.75" y="-82" font-family="Helvetica,sans-Serif" font-size="10.00">HY_CatchmentDivide</text>
<text text-anchor="start" x="79.62" y="-66.75" font-family="Helvetica,sans-Serif" font-size="10.00">&#45;</text>
<text text-anchor="start" x="88.12" y="-66.75" font-family="Helvetica,sans-Serif" font-size="10.00">divide_path</text>
<text text-anchor="start" x="79.62" y="-51.5" font-family="Helvetica,sans-Serif" font-size="10.00">&#45;</text>
<text text-anchor="start" x="88.12" y="-51.5" font-family="Helvetica,sans-Serif" font-size="10.00">id_number</text>
<text text-anchor="start" x="79.62" y="-36.25" font-family="Helvetica,sans-Serif" font-size="10.00">&#45;</text>
<text text-anchor="start" x="88.12" y="-36.25" font-family="Helvetica,sans-Serif" font-size="10.00">id</text>
<text text-anchor="start" x="78.12" y="-21" font-family="Helvetica,sans-Serif" font-size="10.00">+</text>
<text text-anchor="start" x="88.12" y="-21" font-family="Helvetica,sans-Serif" font-size="10.00">HY_CatchmentDivide()</text>
<text text-anchor="start" x="78.12" y="-5.75" font-family="Helvetica,sans-Serif" font-size="10.00">+</text>
<text text-anchor="start" x="88.12" y="-5.75" font-family="Helvetica,sans-Serif" font-size="10.00">~HY_CatchmentDivide()</text>
<polygon fill="#666666" stroke="#666666" points="74.12,-78.25 74.12,-78.25 197.12,-78.25 197.12,-78.25 74.12,-78.25"/>
<polygon fill="#666666" stroke="#666666" points="74.12,-32.5 74.12,-32.5 86.12,-32.5 86.12,-32.5 74.12,-32.5"/>
<polygon fill="#666666" stroke="#666666" points="86.12,-32.5 86.12,-32.5 197.12,-32.5 197.12,-32.5 86.12,-32.5"/>
<polygon fill="none" stroke="#666666" points="74.12,0 74.12,-95.5 197.12,-95.5 197.12,0 74.12,0"/>
</a>
</g>
</g>
<!-- Node2 -->
<g id="Node000002" class="node">
<title>Node2</title>
<g id="a_Node000002"><a xlink:href="class_h_y___catchment_realization.html" target="_top" xlink:title=" ">
<polygon fill="white" stroke="none" points="143.25,-257.5 0,-257.5 0,-131.5 143.25,-131.5 143.25,-257.5"/>
<text text-anchor="start" x="14.62" y="-244" font-family="Helvetica,sans-Serif" font-size="10.00">HY_CatchmentRealization</text>
<text text-anchor="start" x="4.38" y="-228.75" font-family="Helvetica,sans-Serif" font-size="10.00">#</text>
<text text-anchor="start" x="14" y="-228.75" font-family="Helvetica,sans-Serif" font-size="10.00">realized_catchment</text>
<text text-anchor="start" x="4.38" y="-213.5" font-family="Helvetica,sans-Serif" font-size="10.00">#</text>
<text text-anchor="start" x="14" y="-213.5" font-family="Helvetica,sans-Serif" font-size="10.00">id_number</text>
<text text-anchor="start" x="4" y="-198.25" font-family="Helvetica,sans-Serif" font-size="10.00">+</text>
<text text-anchor="start" x="14" y="-198.25" font-family="Helvetica,sans-Serif" font-size="10.00">HY_CatchmentRealization()</text>
<text text-anchor="start" x="4" y="-183" font-family="Helvetica,sans-Serif" font-size="10.00">+</text>
<text text-anchor="start" x="14" y="-183" font-family="Helvetica,sans-Serif" font-size="10.00">~HY_CatchmentRealization()</text>
<text text-anchor="start" x="4" y="-167.75" font-family="Helvetica,sans-Serif" font-size="10.00">+</text>
<text text-anchor="start" x="14" y="-167.75" font-family="Helvetica,sans-Serif" font-size="10.00">get_response()</text>
<text text-anchor="start" x="4.38" y="-152.5" font-family="Helvetica,sans-Serif" font-size="10.00">#</text>
<text text-anchor="start" x="14" y="-152.5" font-family="Helvetica,sans-Serif" font-size="10.00">get_catchment_id()</text>
<text text-anchor="start" x="4.38" y="-137.25" font-family="Helvetica,sans-Serif" font-size="10.00">#</text>
<text text-anchor="start" x="14" y="-137.25" font-family="Helvetica,sans-Serif" font-size="10.00">set_catchment_id()</text>
<polygon fill="#666666" stroke="#666666" points="0,-240.25 0,-240.25 143.25,-240.25 143.25,-240.25 0,-240.25"/>
<polygon fill="#666666" stroke="#666666" points="0,-209.75 0,-209.75 12,-209.75 12,-209.75 0,-209.75"/>
<polygon fill="#666666" stroke="#666666" points="12,-209.75 12,-209.75 143.25,-209.75 143.25,-209.75 12,-209.75"/>
<polygon fill="none" stroke="#666666" points="0,-131.5 0,-257.5 143.25,-257.5 143.25,-131.5 0,-131.5"/>
</a>
</g>
</g>
<!-- Node2&#45;&gt;Node1 -->
<g id="edge1_Node000001_Node000002" class="edge">
<title>Node2&#45;&gt;Node1</title>
<g id="a_edge1_Node000001_Node000002"><a xlink:title=" ">
<path fill="none" stroke="#63b8ff" d="M103.51,-121.38C107.41,-112.57 111.3,-103.76 114.97,-95.46"/>
<polygon fill="none" stroke="#63b8ff" points="100.41,-119.75 99.56,-130.31 106.81,-122.58 100.41,-119.75"/>
</a>
</g>
</g>
<!-- Node3 -->
<g id="Node000003" class="node">
<title>Node3</title>
<g id="a_Node000003"><a xlink:href="class_g_m___object.html" target="_top" xlink:title=" ">
<polygon fill="white" stroke="none" points="240,-227 161.25,-227 161.25,-162 240,-162 240,-227"/>
<text text-anchor="start" x="175.88" y="-213.5" font-family="Helvetica,sans-Serif" font-size="10.00">GM_Object</text>
<text text-anchor="start" x="199.12" y="-198.25" font-family="Helvetica,sans-Serif" font-size="10.00"> </text>
<text text-anchor="start" x="165.25" y="-183" font-family="Helvetica,sans-Serif" font-size="10.00">+</text>
<text text-anchor="start" x="175.25" y="-183" font-family="Helvetica,sans-Serif" font-size="10.00">GM_Object()</text>
<text text-anchor="start" x="165.25" y="-167.75" font-family="Helvetica,sans-Serif" font-size="10.00">+</text>
<text text-anchor="start" x="175.25" y="-167.75" font-family="Helvetica,sans-Serif" font-size="10.00">~GM_Object()</text>
<polygon fill="#666666" stroke="#666666" points="161.25,-209.75 161.25,-209.75 240,-209.75 240,-209.75 161.25,-209.75"/>
<polygon fill="#666666" stroke="#666666" points="161.25,-194.5 161.25,-194.5 240,-194.5 240,-194.5 161.25,-194.5"/>
<polygon fill="none" stroke="#666666" points="161.25,-162 161.25,-227 240,-227 240,-162 161.25,-162"/>
</a>
</g>
</g>
<!-- Node3&#45;&gt;Node1 -->
<g id="edge2_Node000001_Node000003" class="edge">
<title>Node3&#45;&gt;Node1</title>
<g id="a_edge2_Node000001_Node000003"><a xlink:title=" ">
<path fill="none" stroke="#63b8ff" d="M182.03,-152.08C174.09,-134.41 164.8,-113.71 156.62,-95.5"/>
<polygon fill="none" stroke="#63b8ff" points="178.61,-153.02 185.9,-160.71 185,-150.15 178.61,-153.02"/>
</a>
</g>
</g>
</g>
</svg>
