<?xml version="1.0" encoding="UTF-8" standalone="no"?>
<!DOCTYPE svg PUBLIC "-//W3C//DTD SVG 1.1//EN"
 "http://www.w3.org/Graphics/SVG/1.1/DTD/svg11.dtd">
<!-- Generated by graphviz version 2.44.0 ()
 -->
<!-- Title: Reservoir::Implicit_Time::Reservoir Pages: 1 -->
<svg width="440pt" height="709pt"
 viewBox="0.00 0.00 440.00 709.00" xmlns="http://www.w3.org/2000/svg" xmlns:xlink="http://www.w3.org/1999/xlink">
<g id="graph0" class="graph" transform="scale(1 1) rotate(0) translate(4 705)">
<title>Reservoir::Implicit_Time::Reservoir</title>
<polygon fill="white" stroke="transparent" points="-4,4 -4,-705 436,-705 436,4 -4,4"/>
<!-- Node1 -->
<g id="node1" class="node">
<title>Node1</title>
<g id="a_node1"><a xlink:title="Reservoir that has zero, one, or multiple outlets and no time dimension.">
<polygon fill="#bfbfbf" stroke="black" points="145,-0.5 145,-211.5 271,-211.5 271,-0.5 145,-0.5"/>
<text text-anchor="start" x="153" y="-199.5" font-family="Helvetica,sans-Serif" font-size="10.00">Reservoir::Implicit</text>
<text text-anchor="middle" x="208" y="-188.5" font-family="Helvetica,sans-Serif" font-size="10.00">_Time::Reservoir</text>
<polyline fill="none" stroke="black" points="145,-181.5 271,-181.5 "/>
<text text-anchor="middle" x="208" y="-169.5" font-family="Helvetica,sans-Serif" font-size="10.00"> </text>
<polyline fill="none" stroke="black" points="145,-162.5 271,-162.5 "/>
<text text-anchor="start" x="153" y="-150.5" font-family="Helvetica,sans-Serif" font-size="10.00">+ Reservoir()</text>
<text text-anchor="start" x="153" y="-139.5" font-family="Helvetica,sans-Serif" font-size="10.00">+ Reservoir()</text>
<text text-anchor="start" x="153" y="-128.5" font-family="Helvetica,sans-Serif" font-size="10.00">+ Reservoir()</text>
<text text-anchor="start" x="153" y="-117.5" font-family="Helvetica,sans-Serif" font-size="10.00">+ Reservoir()</text>
<text text-anchor="start" x="153" y="-106.5" font-family="Helvetica,sans-Serif" font-size="10.00">+ response_meters()</text>
<text text-anchor="start" x="153" y="-95.5" font-family="Helvetica,sans-Serif" font-size="10.00">+ add_outlet()</text>
<text text-anchor="start" x="153" y="-84.5" font-family="Helvetica,sans-Serif" font-size="10.00">+ add_outlet()</text>
<text text-anchor="start" x="153" y="-73.5" font-family="Helvetica,sans-Serif" font-size="10.00">+ add_outlet()</text>
<text text-anchor="start" x="153" y="-62.5" font-family="Helvetica,sans-Serif" font-size="10.00">+ sort_outlets()</text>
<text text-anchor="start" x="153" y="-51.5" font-family="Helvetica,sans-Serif" font-size="10.00">+ check_highest_outlet</text>
<text text-anchor="start" x="153" y="-40.5" font-family="Helvetica,sans-Serif" font-size="10.00">_against_max_storage()</text>
<text text-anchor="start" x="153" y="-29.5" font-family="Helvetica,sans-Serif" font-size="10.00">+ get_storage_height</text>
<text text-anchor="start" x="153" y="-18.5" font-family="Helvetica,sans-Serif" font-size="10.00">_meters()</text>
<text text-anchor="start" x="153" y="-7.5" font-family="Helvetica,sans-Serif" font-size="10.00">+ flux_meters_for_outlet()</text>
</a>
</g>
</g>
<!-- Node2 -->
<g id="node2" class="node">
<title>Node2</title>
<g id="a_node2"><a xlink:href="structreservoir__state.html" target="_top" xlink:title=" ">
<polygon fill="white" stroke="black" points="0,-259.5 0,-327.5 124,-327.5 124,-259.5 0,-259.5"/>
<text text-anchor="middle" x="62" y="-315.5" font-family="Helvetica,sans-Serif" font-size="10.00">reservoir_state</text>
<polyline fill="none" stroke="black" points="0,-308.5 124,-308.5 "/>
<text text-anchor="start" x="8" y="-296.5" font-family="Helvetica,sans-Serif" font-size="10.00">+ current_storage_height</text>
<text text-anchor="start" x="8" y="-285.5" font-family="Helvetica,sans-Serif" font-size="10.00">_meters</text>
<polyline fill="none" stroke="black" points="0,-278.5 124,-278.5 "/>
<text text-anchor="middle" x="62" y="-266.5" font-family="Helvetica,sans-Serif" font-size="10.00"> </text>
</a>
</g>
</g>
<!-- Node2&#45;&gt;Node1 -->
<g id="edge1" class="edge">
<title>Node2&#45;&gt;Node1</title>
<path fill="none" stroke="#404040" d="M88.1,-259.34C101.95,-241.74 119.71,-219.18 137.29,-196.84"/>
<polygon fill="none" stroke="#404040" points="137.38,-196.72 137.95,-189.54 144.8,-187.29 144.24,-194.48 137.38,-196.72"/>
<text text-anchor="middle" x="124" y="-233" font-family="Helvetica,sans-Serif" font-size="10.00"> &#45;state</text>
</g>
<!-- Node3 -->
<g id="node3" class="node">
<title>Node3</title>
<g id="a_node3"><a xlink:title=" ">
<polygon fill="white" stroke="#bfbfbf" points="142.5,-259.5 142.5,-327.5 273.5,-327.5 273.5,-259.5 142.5,-259.5"/>
<text text-anchor="start" x="150.5" y="-315.5" font-family="Helvetica,sans-Serif" font-size="10.00">std::vector&lt; std::shared</text>
<text text-anchor="middle" x="208" y="-304.5" font-family="Helvetica,sans-Serif" font-size="10.00">_ptr&lt; Reservoir_Outlet &gt; &gt;</text>
<polyline fill="none" stroke="#bfbfbf" points="142.5,-297.5 273.5,-297.5 "/>
<text text-anchor="middle" x="208" y="-285.5" font-family="Helvetica,sans-Serif" font-size="10.00"> </text>
<polyline fill="none" stroke="#bfbfbf" points="142.5,-278.5 273.5,-278.5 "/>
<text text-anchor="middle" x="208" y="-266.5" font-family="Helvetica,sans-Serif" font-size="10.00"> </text>
</a>
</g>
</g>
<!-- Node3&#45;&gt;Node1 -->
<g id="edge2" class="edge">
<title>Node3&#45;&gt;Node1</title>
<path fill="none" stroke="#404040" d="M208,-259.34C208,-248.99 208,-236.93 208,-224.21"/>
<polygon fill="none" stroke="#404040" points="208,-223.84 204,-217.84 208,-211.84 212,-217.84 208,-223.84"/>
<text text-anchor="middle" x="225.5" y="-233" font-family="Helvetica,sans-Serif" font-size="10.00"> &#45;outlets</text>
</g>
<!-- Node4 -->
<g id="node4" class="node">
<title>Node4</title>
<g id="a_node4"><a xlink:title=" ">
<polygon fill="white" stroke="#bfbfbf" points="74,-375.5 74,-443.5 204,-443.5 204,-375.5 74,-375.5"/>
<text text-anchor="start" x="82" y="-431.5" font-family="Helvetica,sans-Serif" font-size="10.00">std::shared_ptr&lt; Reservoir</text>
<text text-anchor="middle" x="139" y="-420.5" font-family="Helvetica,sans-Serif" font-size="10.00">_Outlet &gt;</text>
<polyline fill="none" stroke="#bfbfbf" points="74,-413.5 204,-413.5 "/>
<text text-anchor="start" x="82" y="-401.5" font-family="Helvetica,sans-Serif" font-size="10.00">+ ptr</text>
<polyline fill="none" stroke="#bfbfbf" points="74,-394.5 204,-394.5 "/>
<text text-anchor="start" x="82" y="-382.5" font-family="Helvetica,sans-Serif" font-size="10.00">+ operator&#45;&gt;()</text>
</a>
</g>
</g>
<!-- Node4&#45;&gt;Node3 -->
<g id="edge3" class="edge">
<title>Node4&#45;&gt;Node3</title>
<path fill="none" stroke="#404040" d="M159.14,-375.22C166.16,-363.63 174.14,-350.45 181.58,-338.15"/>
<polygon fill="none" stroke="#404040" points="181.74,-337.89 181.42,-330.69 187.95,-327.62 188.27,-334.83 181.74,-337.89"/>
<text text-anchor="middle" x="200.5" y="-349" font-family="Helvetica,sans-Serif" font-size="10.00"> +elements</text>
</g>
<!-- Node5 -->
<g id="node5" class="node">
<title>Node5</title>
<g id="a_node5"><a xlink:title=" ">
<polygon fill="white" stroke="#bfbfbf" points="97.5,-538.5 97.5,-595.5 200.5,-595.5 200.5,-538.5 97.5,-538.5"/>
<text text-anchor="middle" x="149" y="-583.5" font-family="Helvetica,sans-Serif" font-size="10.00">std::shared_ptr&lt; T &gt;</text>
<polyline fill="none" stroke="#bfbfbf" points="97.5,-576.5 200.5,-576.5 "/>
<text text-anchor="middle" x="149" y="-564.5" font-family="Helvetica,sans-Serif" font-size="10.00"> </text>
<polyline fill="none" stroke="#bfbfbf" points="97.5,-557.5 200.5,-557.5 "/>
<text text-anchor="start" x="105.5" y="-545.5" font-family="Helvetica,sans-Serif" font-size="10.00">+ operator&#45;&gt;()</text>
</a>
</g>
</g>
<!-- Node5&#45;&gt;Node4 -->
<g id="edge4" class="edge">
<title>Node5&#45;&gt;Node4</title>
<path fill="none" stroke="orange" d="M119.9,-529.4C118.36,-526.33 117.02,-523.18 116,-520 108.11,-495.46 110.63,-487.21 116,-462 117.31,-455.87 119.4,-449.59 121.8,-443.61"/>
<polygon fill="orange" stroke="orange" points="117.02,-531.41 125.06,-538.31 123.08,-527.9 117.02,-531.41"/>
<text text-anchor="middle" x="162" y="-488.5" font-family="Helvetica,sans-Serif" font-size="10.00"> &lt; Reservoir_Outlet &gt;</text>
</g>
<!-- Node6 -->
<g id="node6" class="node">
<title>Node6</title>
<g id="a_node6"><a xlink:title=" ">
<polygon fill="white" stroke="#bfbfbf" points="181.5,-643.5 181.5,-700.5 210.5,-700.5 210.5,-643.5 181.5,-643.5"/>
<text text-anchor="middle" x="196" y="-688.5" font-family="Helvetica,sans-Serif" font-size="10.00">T</text>
<polyline fill="none" stroke="#bfbfbf" points="181.5,-681.5 210.5,-681.5 "/>
<text text-anchor="middle" x="196" y="-669.5" font-family="Helvetica,sans-Serif" font-size="10.00"> </text>
<polyline fill="none" stroke="#bfbfbf" points="181.5,-662.5 210.5,-662.5 "/>
<text text-anchor="middle" x="196" y="-650.5" font-family="Helvetica,sans-Serif" font-size="10.00"> </text>
</a>
</g>
</g>
<!-- Node6&#45;&gt;Node5 -->
<g id="edge5" class="edge">
<title>Node6&#45;&gt;Node5</title>
<path fill="none" stroke="#404040" d="M183.4,-643.4C178.29,-632.2 172.3,-619.06 166.76,-606.92"/>
<polygon fill="none" stroke="#404040" points="166.61,-606.6 160.48,-602.8 161.63,-595.68 167.76,-599.48 166.61,-606.6"/>
<text text-anchor="middle" x="184" y="-617" font-family="Helvetica,sans-Serif" font-size="10.00"> +ptr</text>
</g>
<!-- Node7 -->
<g id="node7" class="node">
<title>Node7</title>
<g id="a_node7"><a xlink:title=" ">
<polygon fill="white" stroke="#bfbfbf" points="217,-462.5 217,-519.5 301,-519.5 301,-462.5 217,-462.5"/>
<text text-anchor="middle" x="259" y="-507.5" font-family="Helvetica,sans-Serif" font-size="10.00">std::vector&lt; T &gt;</text>
<polyline fill="none" stroke="#bfbfbf" points="217,-500.5 301,-500.5 "/>
<text text-anchor="middle" x="259" y="-488.5" font-family="Helvetica,sans-Serif" font-size="10.00"> </text>
<polyline fill="none" stroke="#bfbfbf" points="217,-481.5 301,-481.5 "/>
<text text-anchor="middle" x="259" y="-469.5" font-family="Helvetica,sans-Serif" font-size="10.00"> </text>
</a>
</g>
</g>
<!-- Node6&#45;&gt;Node7 -->
<g id="edge7" class="edge">
<title>Node6&#45;&gt;Node7</title>
<path fill="none" stroke="#404040" d="M205.71,-643.42C216.3,-613.33 233.33,-564.93 245.29,-530.97"/>
<polygon fill="none" stroke="#404040" points="245.3,-530.93 243.52,-523.94 249.28,-519.61 251.06,-526.6 245.3,-530.93"/>
<text text-anchor="middle" x="240.5" y="-617" font-family="Helvetica,sans-Serif" font-size="10.00"> +elements</text>
</g>
<!-- Node7&#45;&gt;Node3 -->
<g id="edge6" class="edge">
<title>Node7&#45;&gt;Node3</title>
<path fill="none" stroke="orange" d="M253.04,-452.07C247.97,-422.75 239.79,-381.35 229,-346 227.17,-340 224.91,-333.72 222.57,-327.7"/>
<polygon fill="orange" stroke="orange" points="249.65,-453.01 254.77,-462.29 256.55,-451.84 249.65,-453.01"/>
<text text-anchor="start" x="252" y="-412.5" font-family="Helvetica,sans-Serif" font-size="10.00"> &lt; std::shared_ptr&lt;</text>
<text text-anchor="middle" x="298" y="-401.5" font-family="Helvetica,sans-Serif" font-size="10.00"> Reservoir_Outlet &gt; &gt;</text>
</g>
<!-- Node8 -->
<g id="node8" class="node">
<title>Node8</title>
<g id="a_node8"><a xlink:href="structreservoir__parameters.html" target="_top" xlink:title=" ">
<polygon fill="white" stroke="black" points="292,-259.5 292,-327.5 432,-327.5 432,-259.5 292,-259.5"/>
<text text-anchor="middle" x="362" y="-315.5" font-family="Helvetica,sans-Serif" font-size="10.00">reservoir_parameters</text>
<polyline fill="none" stroke="black" points="292,-308.5 432,-308.5 "/>
<text text-anchor="start" x="300" y="-296.5" font-family="Helvetica,sans-Serif" font-size="10.00">+ minimum_storage_meters</text>
<text text-anchor="start" x="300" y="-285.5" font-family="Helvetica,sans-Serif" font-size="10.00">+ maximum_storage_meters</text>
<polyline fill="none" stroke="black" points="292,-278.5 432,-278.5 "/>
<text text-anchor="middle" x="362" y="-266.5" font-family="Helvetica,sans-Serif" font-size="10.00"> </text>
</a>
</g>
</g>
<!-- Node8&#45;&gt;Node1 -->
<g id="edge8" class="edge">
<title>Node8&#45;&gt;Node1</title>
<path fill="none" stroke="#404040" d="M334.47,-259.34C318.89,-240.57 298.62,-216.16 278.89,-192.39"/>
<polygon fill="none" stroke="#404040" points="278.74,-192.21 271.83,-190.15 271.08,-182.98 277.99,-185.04 278.74,-192.21"/>
<text text-anchor="middle" x="343.5" y="-233" font-family="Helvetica,sans-Serif" font-size="10.00"> &#45;parameters</text>
</g>
</g>
</svg>
