<?xml version="1.0" encoding="UTF-8" standalone="no"?>
<!DOCTYPE svg PUBLIC "-//W3C//DTD SVG 1.1//EN"
 "http://www.w3.org/Graphics/SVG/1.1/DTD/svg11.dtd">
<!-- Generated by graphviz version 2.44.0 ()
 -->
<!-- Title: models::bmi::AbstractCLibBmiAdapter&lt; C &gt; Pages: 1 -->
<svg width="788pt" height="1602pt"
 viewBox="0.00 0.00 787.50 1602.00" xmlns="http://www.w3.org/2000/svg" xmlns:xlink="http://www.w3.org/1999/xlink">
<g id="graph0" class="graph" transform="scale(1 1) rotate(0) translate(4 1598)">
<title>models::bmi::AbstractCLibBmiAdapter&lt; C &gt;</title>
<polygon fill="white" stroke="transparent" points="-4,4 -4,-1598 783.5,-1598 783.5,4 -4,4"/>
<!-- Node1 -->
<g id="node1" class="node">
<title>Node1</title>
<g id="a_node1"><a xlink:title=" ">
<polygon fill="#bfbfbf" stroke="black" points="582.5,-0.5 582.5,-178.5 726.5,-178.5 726.5,-0.5 582.5,-0.5"/>
<text text-anchor="start" x="590.5" y="-166.5" font-family="Helvetica,sans-Serif" font-size="10.00">models::bmi::AbstractCLib</text>
<text text-anchor="middle" x="654.5" y="-155.5" font-family="Helvetica,sans-Serif" font-size="10.00">BmiAdapter&lt; C &gt;</text>
<polyline fill="none" stroke="black" points="582.5,-148.5 726.5,-148.5 "/>
<text text-anchor="start" x="590.5" y="-136.5" font-family="Helvetica,sans-Serif" font-size="10.00">&#45; dyn_lib_handle</text>
<polyline fill="none" stroke="black" points="582.5,-129.5 726.5,-129.5 "/>
<text text-anchor="start" x="590.5" y="-117.5" font-family="Helvetica,sans-Serif" font-size="10.00">+ AbstractCLibBmiAdapter()</text>
<text text-anchor="start" x="590.5" y="-106.5" font-family="Helvetica,sans-Serif" font-size="10.00">+ AbstractCLibBmiAdapter()</text>
<text text-anchor="start" x="590.5" y="-95.5" font-family="Helvetica,sans-Serif" font-size="10.00">+ ~AbstractCLibBmiAdapter()</text>
<text text-anchor="start" x="590.5" y="-84.5" font-family="Helvetica,sans-Serif" font-size="10.00">+ Finalize()</text>
<text text-anchor="start" x="590.5" y="-73.5" font-family="Helvetica,sans-Serif" font-size="10.00"># dynamic_library_load()</text>
<text text-anchor="start" x="590.5" y="-62.5" font-family="Helvetica,sans-Serif" font-size="10.00"># dynamic_load_symbol()</text>
<text text-anchor="start" x="590.5" y="-51.5" font-family="Helvetica,sans-Serif" font-size="10.00"># dynamic_load_symbol()</text>
<text text-anchor="start" x="590.5" y="-40.5" font-family="Helvetica,sans-Serif" font-size="10.00"># get_bmi_registration</text>
<text text-anchor="start" x="590.5" y="-29.5" font-family="Helvetica,sans-Serif" font-size="10.00">_function()</text>
<text text-anchor="start" x="590.5" y="-18.5" font-family="Helvetica,sans-Serif" font-size="10.00"># get_dyn_lib_handle()</text>
<text text-anchor="start" x="590.5" y="-7.5" font-family="Helvetica,sans-Serif" font-size="10.00">&#45; finalizeForLibAbstraction()</text>
</a>
</g>
</g>
<!-- Node2 -->
<g id="node2" class="node">
<title>Node2</title>
<g id="a_node2"><a xlink:href="classmodels_1_1bmi_1_1_bmi___adapter.html" target="_top" xlink:title=" ">
<polygon fill="white" stroke="black" points="526.5,-216.5 526.5,-592.5 678.5,-592.5 678.5,-216.5 526.5,-216.5"/>
<text text-anchor="middle" x="602.5" y="-580.5" font-family="Helvetica,sans-Serif" font-size="10.00">models::bmi::Bmi_Adapter&lt; C &gt;</text>
<polyline fill="none" stroke="black" points="526.5,-573.5 678.5,-573.5 "/>
<text text-anchor="start" x="534.5" y="-561.5" font-family="Helvetica,sans-Serif" font-size="10.00"># allow_model_exceed</text>
<text text-anchor="start" x="534.5" y="-550.5" font-family="Helvetica,sans-Serif" font-size="10.00">_end_time</text>
<text text-anchor="start" x="534.5" y="-539.5" font-family="Helvetica,sans-Serif" font-size="10.00"># bmi_init_config</text>
<text text-anchor="start" x="534.5" y="-528.5" font-family="Helvetica,sans-Serif" font-size="10.00"># bmi_model</text>
<text text-anchor="start" x="534.5" y="-517.5" font-family="Helvetica,sans-Serif" font-size="10.00"># bmi_model_has_fixed</text>
<text text-anchor="start" x="534.5" y="-506.5" font-family="Helvetica,sans-Serif" font-size="10.00">_time_step</text>
<text text-anchor="start" x="534.5" y="-495.5" font-family="Helvetica,sans-Serif" font-size="10.00"># bmi_model_time_convert</text>
<text text-anchor="start" x="534.5" y="-484.5" font-family="Helvetica,sans-Serif" font-size="10.00">_factor</text>
<text text-anchor="start" x="534.5" y="-473.5" font-family="Helvetica,sans-Serif" font-size="10.00"># bmi_model_time_step_size</text>
<text text-anchor="start" x="534.5" y="-462.5" font-family="Helvetica,sans-Serif" font-size="10.00"># bmi_model_uses_forcing_file</text>
<text text-anchor="start" x="534.5" y="-451.5" font-family="Helvetica,sans-Serif" font-size="10.00"># forcing_file_path</text>
<text text-anchor="start" x="534.5" y="-440.5" font-family="Helvetica,sans-Serif" font-size="10.00"># init_exception_msg</text>
<text text-anchor="start" x="534.5" y="-429.5" font-family="Helvetica,sans-Serif" font-size="10.00"># input_var_names</text>
<text text-anchor="start" x="534.5" y="-418.5" font-family="Helvetica,sans-Serif" font-size="10.00"># model_initialized</text>
<text text-anchor="start" x="534.5" y="-407.5" font-family="Helvetica,sans-Serif" font-size="10.00"># model_name</text>
<text text-anchor="start" x="534.5" y="-396.5" font-family="Helvetica,sans-Serif" font-size="10.00"># output</text>
<text text-anchor="start" x="534.5" y="-385.5" font-family="Helvetica,sans-Serif" font-size="10.00"># output_var_names</text>
<polyline fill="none" stroke="black" points="526.5,-378.5 678.5,-378.5 "/>
<text text-anchor="start" x="534.5" y="-366.5" font-family="Helvetica,sans-Serif" font-size="10.00">+ Bmi_Adapter()</text>
<text text-anchor="start" x="534.5" y="-355.5" font-family="Helvetica,sans-Serif" font-size="10.00">+ Bmi_Adapter()</text>
<text text-anchor="start" x="534.5" y="-344.5" font-family="Helvetica,sans-Serif" font-size="10.00">+ Bmi_Adapter()</text>
<text text-anchor="start" x="534.5" y="-333.5" font-family="Helvetica,sans-Serif" font-size="10.00">+ acquire_time_conversion</text>
<text text-anchor="start" x="534.5" y="-322.5" font-family="Helvetica,sans-Serif" font-size="10.00">_factor()</text>
<text text-anchor="start" x="534.5" y="-311.5" font-family="Helvetica,sans-Serif" font-size="10.00">+ convert_model_time</text>
<text text-anchor="start" x="534.5" y="-300.5" font-family="Helvetica,sans-Serif" font-size="10.00">_to_seconds()</text>
<text text-anchor="start" x="534.5" y="-289.5" font-family="Helvetica,sans-Serif" font-size="10.00">+ convert_seconds_to</text>
<text text-anchor="start" x="534.5" y="-278.5" font-family="Helvetica,sans-Serif" font-size="10.00">_model_time()</text>
<text text-anchor="start" x="534.5" y="-267.5" font-family="Helvetica,sans-Serif" font-size="10.00">+ Initialize()</text>
<text text-anchor="start" x="534.5" y="-256.5" font-family="Helvetica,sans-Serif" font-size="10.00">+ Initialize()</text>
<text text-anchor="start" x="534.5" y="-245.5" font-family="Helvetica,sans-Serif" font-size="10.00">+ isInitialized()</text>
<text text-anchor="start" x="534.5" y="-234.5" font-family="Helvetica,sans-Serif" font-size="10.00"># construct_and_init</text>
<text text-anchor="start" x="534.5" y="-223.5" font-family="Helvetica,sans-Serif" font-size="10.00">_backing_model()</text>
</a>
</g>
</g>
<!-- Node2&#45;&gt;Node1 -->
<g id="edge1" class="edge">
<title>Node2&#45;&gt;Node1</title>
<path fill="none" stroke="midnightblue" d="M635.24,-206.42C636.83,-196.87 638.38,-187.52 639.87,-178.56"/>
<polygon fill="none" stroke="midnightblue" points="631.76,-206.02 633.57,-216.46 638.67,-207.16 631.76,-206.02"/>
</g>
<!-- Node3 -->
<g id="node3" class="node">
<title>Node3</title>
<g id="a_node3"><a xlink:href="classbmi_1_1_bmi.html" target="_top" xlink:title=" ">
<polygon fill="white" stroke="black" points="556.5,-976.5 556.5,-1198.5 678.5,-1198.5 678.5,-976.5 556.5,-976.5"/>
<text text-anchor="middle" x="617.5" y="-1186.5" font-family="Helvetica,sans-Serif" font-size="10.00">bmi::Bmi</text>
<polyline fill="none" stroke="black" points="556.5,-1179.5 678.5,-1179.5 "/>
<text text-anchor="middle" x="617.5" y="-1167.5" font-family="Helvetica,sans-Serif" font-size="10.00"> </text>
<polyline fill="none" stroke="black" points="556.5,-1160.5 678.5,-1160.5 "/>
<text text-anchor="start" x="564.5" y="-1148.5" font-family="Helvetica,sans-Serif" font-size="10.00">+ Initialize()</text>
<text text-anchor="start" x="564.5" y="-1137.5" font-family="Helvetica,sans-Serif" font-size="10.00">+ Update()</text>
<text text-anchor="start" x="564.5" y="-1126.5" font-family="Helvetica,sans-Serif" font-size="10.00">+ UpdateUntil()</text>
<text text-anchor="start" x="564.5" y="-1115.5" font-family="Helvetica,sans-Serif" font-size="10.00">+ Finalize()</text>
<text text-anchor="start" x="564.5" y="-1104.5" font-family="Helvetica,sans-Serif" font-size="10.00">+ GetComponentName()</text>
<text text-anchor="start" x="564.5" y="-1093.5" font-family="Helvetica,sans-Serif" font-size="10.00">+ GetInputItemCount()</text>
<text text-anchor="start" x="564.5" y="-1082.5" font-family="Helvetica,sans-Serif" font-size="10.00">+ GetOutputItemCount()</text>
<text text-anchor="start" x="564.5" y="-1071.5" font-family="Helvetica,sans-Serif" font-size="10.00">+ GetInputVarNames()</text>
<text text-anchor="start" x="564.5" y="-1060.5" font-family="Helvetica,sans-Serif" font-size="10.00">+ GetOutputVarNames()</text>
<text text-anchor="start" x="564.5" y="-1049.5" font-family="Helvetica,sans-Serif" font-size="10.00">+ GetVarGrid()</text>
<text text-anchor="start" x="564.5" y="-1038.5" font-family="Helvetica,sans-Serif" font-size="10.00">+ GetVarType()</text>
<text text-anchor="start" x="564.5" y="-1027.5" font-family="Helvetica,sans-Serif" font-size="10.00">+ GetVarUnits()</text>
<text text-anchor="start" x="564.5" y="-1016.5" font-family="Helvetica,sans-Serif" font-size="10.00">+ GetVarItemsize()</text>
<text text-anchor="start" x="564.5" y="-1005.5" font-family="Helvetica,sans-Serif" font-size="10.00">+ GetVarNbytes()</text>
<text text-anchor="start" x="564.5" y="-994.5" font-family="Helvetica,sans-Serif" font-size="10.00">+ GetVarLocation()</text>
<text text-anchor="start" x="564.5" y="-983.5" font-family="Helvetica,sans-Serif" font-size="10.00">and 26 more...</text>
</a>
</g>
</g>
<!-- Node3&#45;&gt;Node2 -->
<g id="edge2" class="edge">
<title>Node3&#45;&gt;Node2</title>
<path fill="none" stroke="midnightblue" d="M614.85,-966.16C612.57,-862.72 609.25,-711.85 606.62,-592.65"/>
<polygon fill="none" stroke="midnightblue" points="611.35,-966.41 615.07,-976.33 618.35,-966.25 611.35,-966.41"/>
</g>
<!-- Node4 -->
<g id="node4" class="node">
<title>Node4</title>
<g id="a_node4"><a xlink:href="classmodels_1_1bmi_1_1_bmi___adapter.html" target="_top" xlink:title="Abstract adapter interface for C++ classes to interact with the essential aspects of external models ...">
<polygon fill="white" stroke="black" points="329.5,-640.5 329.5,-928.5 481.5,-928.5 481.5,-640.5 329.5,-640.5"/>
<text text-anchor="middle" x="405.5" y="-916.5" font-family="Helvetica,sans-Serif" font-size="10.00">models::bmi::Bmi_Adapter&lt; T &gt;</text>
<polyline fill="none" stroke="black" points="329.5,-909.5 481.5,-909.5 "/>
<text text-anchor="start" x="337.5" y="-897.5" font-family="Helvetica,sans-Serif" font-size="10.00"># allow_model_exceed</text>
<text text-anchor="start" x="337.5" y="-886.5" font-family="Helvetica,sans-Serif" font-size="10.00">_end_time</text>
<text text-anchor="start" x="337.5" y="-875.5" font-family="Helvetica,sans-Serif" font-size="10.00"># bmi_model</text>
<text text-anchor="start" x="337.5" y="-864.5" font-family="Helvetica,sans-Serif" font-size="10.00"># bmi_model_has_fixed</text>
<text text-anchor="start" x="337.5" y="-853.5" font-family="Helvetica,sans-Serif" font-size="10.00">_time_step</text>
<text text-anchor="start" x="337.5" y="-842.5" font-family="Helvetica,sans-Serif" font-size="10.00"># bmi_model_time_convert</text>
<text text-anchor="start" x="337.5" y="-831.5" font-family="Helvetica,sans-Serif" font-size="10.00">_factor</text>
<text text-anchor="start" x="337.5" y="-820.5" font-family="Helvetica,sans-Serif" font-size="10.00"># bmi_model_uses_forcing_file</text>
<text text-anchor="start" x="337.5" y="-809.5" font-family="Helvetica,sans-Serif" font-size="10.00"># model_initialized</text>
<polyline fill="none" stroke="black" points="329.5,-802.5 481.5,-802.5 "/>
<text text-anchor="start" x="337.5" y="-790.5" font-family="Helvetica,sans-Serif" font-size="10.00">+ Bmi_Adapter()</text>
<text text-anchor="start" x="337.5" y="-779.5" font-family="Helvetica,sans-Serif" font-size="10.00">+ Bmi_Adapter()</text>
<text text-anchor="start" x="337.5" y="-768.5" font-family="Helvetica,sans-Serif" font-size="10.00">+ Bmi_Adapter()</text>
<text text-anchor="start" x="337.5" y="-757.5" font-family="Helvetica,sans-Serif" font-size="10.00">+ acquire_time_conversion</text>
<text text-anchor="start" x="337.5" y="-746.5" font-family="Helvetica,sans-Serif" font-size="10.00">_factor()</text>
<text text-anchor="start" x="337.5" y="-735.5" font-family="Helvetica,sans-Serif" font-size="10.00">+ convert_model_time</text>
<text text-anchor="start" x="337.5" y="-724.5" font-family="Helvetica,sans-Serif" font-size="10.00">_to_seconds()</text>
<text text-anchor="start" x="337.5" y="-713.5" font-family="Helvetica,sans-Serif" font-size="10.00">+ convert_seconds_to</text>
<text text-anchor="start" x="337.5" y="-702.5" font-family="Helvetica,sans-Serif" font-size="10.00">_model_time()</text>
<text text-anchor="start" x="337.5" y="-691.5" font-family="Helvetica,sans-Serif" font-size="10.00">+ Initialize()</text>
<text text-anchor="start" x="337.5" y="-680.5" font-family="Helvetica,sans-Serif" font-size="10.00">+ Initialize()</text>
<text text-anchor="start" x="337.5" y="-669.5" font-family="Helvetica,sans-Serif" font-size="10.00">+ isInitialized()</text>
<text text-anchor="start" x="337.5" y="-658.5" font-family="Helvetica,sans-Serif" font-size="10.00"># construct_and_init</text>
<text text-anchor="start" x="337.5" y="-647.5" font-family="Helvetica,sans-Serif" font-size="10.00">_backing_model()</text>
</a>
</g>
</g>
<!-- Node3&#45;&gt;Node4 -->
<g id="edge4" class="edge">
<title>Node3&#45;&gt;Node4</title>
<path fill="none" stroke="midnightblue" d="M550.43,-987.41C547.76,-983.55 545.11,-979.74 542.5,-976 523.02,-948.12 501.67,-918.16 481.74,-890.44"/>
<polygon fill="none" stroke="midnightblue" points="547.74,-989.67 556.3,-995.91 553.5,-985.69 547.74,-989.67"/>
</g>
<!-- Node4&#45;&gt;Node2 -->
<g id="edge3" class="edge">
<title>Node4&#45;&gt;Node2</title>
<path fill="none" stroke="orange" d="M484.75,-631.43C498.48,-605.08 512.74,-577.74 526.38,-551.55"/>
<polygon fill="orange" stroke="orange" points="481.64,-629.84 480.12,-640.32 487.84,-633.07 481.64,-629.84"/>
<text text-anchor="middle" x="505.5" y="-614" font-family="Helvetica,sans-Serif" font-size="10.00"> &lt; C &gt;</text>
</g>
<!-- Node5 -->
<g id="node5" class="node">
<title>Node5</title>
<g id="a_node5"><a xlink:href="classutils_1_1_stream_handler.html" target="_top" xlink:title="This class provides a copyable interface to a std::ostream or std::ostream like object that may not s...">
<polygon fill="white" stroke="black" points="309.5,-1009.5 309.5,-1165.5 413.5,-1165.5 413.5,-1009.5 309.5,-1009.5"/>
<text text-anchor="middle" x="361.5" y="-1153.5" font-family="Helvetica,sans-Serif" font-size="10.00">utils::StreamHandler</text>
<polyline fill="none" stroke="black" points="309.5,-1146.5 413.5,-1146.5 "/>
<text text-anchor="middle" x="361.5" y="-1134.5" font-family="Helvetica,sans-Serif" font-size="10.00"> </text>
<polyline fill="none" stroke="black" points="309.5,-1127.5 413.5,-1127.5 "/>
<text text-anchor="start" x="317.5" y="-1115.5" font-family="Helvetica,sans-Serif" font-size="10.00">+ StreamHandler()</text>
<text text-anchor="start" x="317.5" y="-1104.5" font-family="Helvetica,sans-Serif" font-size="10.00">+ StreamHandler()</text>
<text text-anchor="start" x="317.5" y="-1093.5" font-family="Helvetica,sans-Serif" font-size="10.00">+ StreamHandler()</text>
<text text-anchor="start" x="317.5" y="-1082.5" font-family="Helvetica,sans-Serif" font-size="10.00">+ StreamHandler()</text>
<text text-anchor="start" x="317.5" y="-1071.5" font-family="Helvetica,sans-Serif" font-size="10.00">+ ~StreamHandler()</text>
<text text-anchor="start" x="317.5" y="-1060.5" font-family="Helvetica,sans-Serif" font-size="10.00">+ operator=()</text>
<text text-anchor="start" x="317.5" y="-1049.5" font-family="Helvetica,sans-Serif" font-size="10.00">+ put()</text>
<text text-anchor="start" x="317.5" y="-1038.5" font-family="Helvetica,sans-Serif" font-size="10.00">+ put_indexed()</text>
<text text-anchor="start" x="317.5" y="-1027.5" font-family="Helvetica,sans-Serif" font-size="10.00">+ put_var()</text>
<text text-anchor="start" x="317.5" y="-1016.5" font-family="Helvetica,sans-Serif" font-size="10.00">+ operator&lt;&lt;()</text>
</a>
</g>
</g>
<!-- Node5&#45;&gt;Node4 -->
<g id="edge5" class="edge">
<title>Node5&#45;&gt;Node4</title>
<path fill="none" stroke="#404040" d="M372.77,-1009.38C375.87,-988.22 379.33,-964.5 382.82,-940.62"/>
<polygon fill="none" stroke="#404040" points="382.86,-940.39 379.77,-933.87 384.59,-928.52 387.68,-935.03 382.86,-940.39"/>
<text text-anchor="middle" x="399" y="-950" font-family="Helvetica,sans-Serif" font-size="10.00"> #output</text>
</g>
<!-- Node6 -->
<g id="node6" class="node">
<title>Node6</title>
<g id="a_node6"><a xlink:title=" ">
<polygon fill="white" stroke="#bfbfbf" points="265.5,-1304.5 265.5,-1372.5 367.5,-1372.5 367.5,-1304.5 265.5,-1304.5"/>
<text text-anchor="start" x="273.5" y="-1360.5" font-family="Helvetica,sans-Serif" font-size="10.00">std::shared_ptr&lt; std</text>
<text text-anchor="middle" x="316.5" y="-1349.5" font-family="Helvetica,sans-Serif" font-size="10.00">::ostream &gt;</text>
<polyline fill="none" stroke="#bfbfbf" points="265.5,-1342.5 367.5,-1342.5 "/>
<text text-anchor="start" x="273.5" y="-1330.5" font-family="Helvetica,sans-Serif" font-size="10.00">+ ptr</text>
<polyline fill="none" stroke="#bfbfbf" points="265.5,-1323.5 367.5,-1323.5 "/>
<text text-anchor="start" x="273.5" y="-1311.5" font-family="Helvetica,sans-Serif" font-size="10.00">+ operator&#45;&gt;()</text>
</a>
</g>
</g>
<!-- Node6&#45;&gt;Node5 -->
<g id="edge6" class="edge">
<title>Node6&#45;&gt;Node5</title>
<path fill="none" stroke="#404040" d="M314.34,-1304.26C313.41,-1279.92 313.5,-1246.18 318.5,-1217 320.74,-1203.91 324.09,-1190.34 327.94,-1177.14"/>
<polygon fill="none" stroke="#404040" points="327.94,-1177.14 325.87,-1170.24 331.44,-1165.66 333.52,-1172.57 327.94,-1177.14"/>
<text text-anchor="middle" x="353.5" y="-1249" font-family="Helvetica,sans-Serif" font-size="10.00"> #output_stream</text>
</g>
<!-- Node7 -->
<g id="node7" class="node">
<title>Node7</title>
<g id="a_node7"><a xlink:title=" ">
<polygon fill="white" stroke="#bfbfbf" points="154,-1426 154,-1483 257,-1483 257,-1426 154,-1426"/>
<text text-anchor="middle" x="205.5" y="-1471" font-family="Helvetica,sans-Serif" font-size="10.00">std::shared_ptr&lt; T &gt;</text>
<polyline fill="none" stroke="#bfbfbf" points="154,-1464 257,-1464 "/>
<text text-anchor="middle" x="205.5" y="-1452" font-family="Helvetica,sans-Serif" font-size="10.00"> </text>
<polyline fill="none" stroke="#bfbfbf" points="154,-1445 257,-1445 "/>
<text text-anchor="start" x="162" y="-1433" font-family="Helvetica,sans-Serif" font-size="10.00">+ operator&#45;&gt;()</text>
</a>
</g>
</g>
<!-- Node7&#45;&gt;Node6 -->
<g id="edge7" class="edge">
<title>Node7&#45;&gt;Node6</title>
<path fill="none" stroke="orange" d="M265.8,-1426.51C276.42,-1419.7 286.59,-1411.54 294.5,-1402 301.48,-1393.59 306.3,-1382.81 309.62,-1372.59"/>
<polygon fill="orange" stroke="orange" points="263.97,-1423.53 257.22,-1431.7 267.59,-1429.52 263.97,-1423.53"/>
<text text-anchor="middle" x="339" y="-1394" font-family="Helvetica,sans-Serif" font-size="10.00"> &lt; std::ostream &gt;</text>
</g>
<!-- Node11 -->
<g id="node11" class="node">
<title>Node11</title>
<g id="a_node11"><a xlink:title=" ">
<polygon fill="white" stroke="#bfbfbf" points="0,-1223 0,-1280 125,-1280 125,-1223 0,-1223"/>
<text text-anchor="middle" x="62.5" y="-1268" font-family="Helvetica,sans-Serif" font-size="10.00">std::shared_ptr&lt; double &gt;</text>
<polyline fill="none" stroke="#bfbfbf" points="0,-1261 125,-1261 "/>
<text text-anchor="start" x="8" y="-1249" font-family="Helvetica,sans-Serif" font-size="10.00">+ ptr</text>
<polyline fill="none" stroke="#bfbfbf" points="0,-1242 125,-1242 "/>
<text text-anchor="start" x="8" y="-1230" font-family="Helvetica,sans-Serif" font-size="10.00">+ operator&#45;&gt;()</text>
</a>
</g>
</g>
<!-- Node7&#45;&gt;Node11 -->
<g id="edge13" class="edge">
<title>Node7&#45;&gt;Node11</title>
<path fill="none" stroke="orange" d="M166.51,-1418.81C161.22,-1413.4 156.05,-1407.71 151.5,-1402 120.15,-1362.67 91.93,-1311.26 76.03,-1280.12"/>
<polygon fill="orange" stroke="orange" points="164.18,-1421.43 173.75,-1425.98 169.11,-1416.46 164.18,-1421.43"/>
<text text-anchor="middle" x="175.5" y="-1394" font-family="Helvetica,sans-Serif" font-size="10.00"> &lt; double &gt;</text>
</g>
<!-- Node12 -->
<g id="node12" class="node">
<title>Node12</title>
<g id="a_node12"><a xlink:title=" ">
<polygon fill="white" stroke="#bfbfbf" points="147.5,-1217.5 147.5,-1285.5 263.5,-1285.5 263.5,-1217.5 147.5,-1217.5"/>
<text text-anchor="start" x="155.5" y="-1273.5" font-family="Helvetica,sans-Serif" font-size="10.00">std::shared_ptr&lt; vector</text>
<text text-anchor="middle" x="205.5" y="-1262.5" font-family="Helvetica,sans-Serif" font-size="10.00">&lt; string &gt; &gt;</text>
<polyline fill="none" stroke="#bfbfbf" points="147.5,-1255.5 263.5,-1255.5 "/>
<text text-anchor="start" x="155.5" y="-1243.5" font-family="Helvetica,sans-Serif" font-size="10.00">+ ptr</text>
<polyline fill="none" stroke="#bfbfbf" points="147.5,-1236.5 263.5,-1236.5 "/>
<text text-anchor="start" x="155.5" y="-1224.5" font-family="Helvetica,sans-Serif" font-size="10.00">+ operator&#45;&gt;()</text>
</a>
</g>
</g>
<!-- Node7&#45;&gt;Node12 -->
<g id="edge15" class="edge">
<title>Node7&#45;&gt;Node12</title>
<path fill="none" stroke="orange" d="M203.87,-1415.9C203.72,-1411.22 203.59,-1406.5 203.5,-1402 202.72,-1362.03 203.61,-1316.05 204.43,-1285.75"/>
<polygon fill="orange" stroke="orange" points="200.38,-1416.11 204.23,-1425.98 207.37,-1415.86 200.38,-1416.11"/>
<text text-anchor="middle" x="247" y="-1394" font-family="Helvetica,sans-Serif" font-size="10.00"> &lt; vector&lt; string &gt; &gt;</text>
</g>
<!-- Node8 -->
<g id="node8" class="node">
<title>Node8</title>
<g id="a_node8"><a xlink:title=" ">
<polygon fill="white" stroke="#bfbfbf" points="191,-1536.5 191,-1593.5 220,-1593.5 220,-1536.5 191,-1536.5"/>
<text text-anchor="middle" x="205.5" y="-1581.5" font-family="Helvetica,sans-Serif" font-size="10.00">T</text>
<polyline fill="none" stroke="#bfbfbf" points="191,-1574.5 220,-1574.5 "/>
<text text-anchor="middle" x="205.5" y="-1562.5" font-family="Helvetica,sans-Serif" font-size="10.00"> </text>
<polyline fill="none" stroke="#bfbfbf" points="191,-1555.5 220,-1555.5 "/>
<text text-anchor="middle" x="205.5" y="-1543.5" font-family="Helvetica,sans-Serif" font-size="10.00"> </text>
</a>
</g>
</g>
<!-- Node8&#45;&gt;Node7 -->
<g id="edge8" class="edge">
<title>Node8&#45;&gt;Node7</title>
<path fill="none" stroke="#404040" d="M205.5,-1536.34C205.5,-1523.84 205.5,-1508.84 205.5,-1495.18"/>
<polygon fill="none" stroke="#404040" points="205.5,-1495.11 201.5,-1489.11 205.5,-1483.11 209.5,-1489.11 205.5,-1495.11"/>
<text text-anchor="middle" x="215.5" y="-1510" font-family="Helvetica,sans-Serif" font-size="10.00"> +ptr</text>
</g>
<!-- Node9 -->
<g id="node9" class="node">
<title>Node9</title>
<g id="a_node9"><a xlink:title=" ">
<polygon fill="white" stroke="#bfbfbf" points="420,-1310 420,-1367 479,-1367 479,-1310 420,-1310"/>
<text text-anchor="middle" x="449.5" y="-1355" font-family="Helvetica,sans-Serif" font-size="10.00">std::string</text>
<polyline fill="none" stroke="#bfbfbf" points="420,-1348 479,-1348 "/>
<text text-anchor="middle" x="449.5" y="-1336" font-family="Helvetica,sans-Serif" font-size="10.00"> </text>
<polyline fill="none" stroke="#bfbfbf" points="420,-1329 479,-1329 "/>
<text text-anchor="middle" x="449.5" y="-1317" font-family="Helvetica,sans-Serif" font-size="10.00"> </text>
</a>
</g>
</g>
<!-- Node9&#45;&gt;Node1 -->
<g id="edge16" class="edge">
<title>Node9&#45;&gt;Node1</title>
<path fill="none" stroke="#404040" d="M479.28,-1329.26C530.8,-1313.34 635.96,-1273.21 687.5,-1199 715.93,-1158.07 706.5,-1138.33 706.5,-1088.5 706.5,-1088.5 706.5,-1088.5 706.5,-403.5 706.5,-319.74 702.42,-298.42 687.5,-216 685.98,-207.62 684.19,-198.97 682.25,-190.33"/>
<polygon fill="none" stroke="#404040" points="682.23,-190.25 676.97,-185.31 679.5,-178.56 684.76,-183.5 682.23,-190.25"/>
<text text-anchor="middle" x="743" y="-793" font-family="Helvetica,sans-Serif" font-size="10.00"> &#45;bmi_lib_file</text>
<text text-anchor="start" x="706.5" y="-782" font-family="Helvetica,sans-Serif" font-size="10.00">&#45;bmi_registration</text>
<text text-anchor="middle" x="743" y="-771" font-family="Helvetica,sans-Serif" font-size="10.00">_function</text>
</g>
<!-- Node9&#45;&gt;Node4 -->
<g id="edge11" class="edge">
<title>Node9&#45;&gt;Node4</title>
<path fill="none" stroke="#404040" d="M447.6,-1309.55C443.21,-1245.43 431.85,-1082.83 420.5,-947 420.33,-944.93 420.15,-942.84 419.97,-940.74"/>
<polygon fill="none" stroke="#404040" points="419.96,-940.54 415.46,-934.91 418.93,-928.59 423.43,-934.22 419.96,-940.54"/>
<text text-anchor="middle" x="485" y="-1101.5" font-family="Helvetica,sans-Serif" font-size="10.00"> #bmi_init_config</text>
<text text-anchor="middle" x="485" y="-1090.5" font-family="Helvetica,sans-Serif" font-size="10.00">#forcing_file_path</text>
<text text-anchor="middle" x="485" y="-1079.5" font-family="Helvetica,sans-Serif" font-size="10.00">#init_exception_msg</text>
<text text-anchor="middle" x="485" y="-1068.5" font-family="Helvetica,sans-Serif" font-size="10.00">#model_name</text>
</g>
<!-- Node9&#45;&gt;Node5 -->
<g id="edge9" class="edge">
<title>Node9&#45;&gt;Node5</title>
<path fill="none" stroke="#404040" d="M426.1,-1309.88C420.69,-1302.48 415.4,-1294.24 411.5,-1286 402.24,-1266.42 390.39,-1220.36 380.56,-1177.65"/>
<polygon fill="none" stroke="#404040" points="380.5,-1177.42 375.27,-1172.45 377.84,-1165.72 383.07,-1170.68 380.5,-1177.42"/>
<text text-anchor="middle" x="423.5" y="-1249" font-family="Helvetica,sans-Serif" font-size="10.00"> #sep</text>
</g>
<!-- Node10 -->
<g id="node10" class="node">
<title>Node10</title>
<g id="a_node10"><a xlink:title=" ">
<polygon fill="white" stroke="#bfbfbf" points="403,-1420.5 403,-1488.5 496,-1488.5 496,-1420.5 403,-1420.5"/>
<text text-anchor="start" x="411" y="-1476.5" font-family="Helvetica,sans-Serif" font-size="10.00">std::basic_string&lt;</text>
<text text-anchor="middle" x="449.5" y="-1465.5" font-family="Helvetica,sans-Serif" font-size="10.00"> Char &gt;</text>
<polyline fill="none" stroke="#bfbfbf" points="403,-1458.5 496,-1458.5 "/>
<text text-anchor="middle" x="449.5" y="-1446.5" font-family="Helvetica,sans-Serif" font-size="10.00"> </text>
<polyline fill="none" stroke="#bfbfbf" points="403,-1439.5 496,-1439.5 "/>
<text text-anchor="middle" x="449.5" y="-1427.5" font-family="Helvetica,sans-Serif" font-size="10.00"> </text>
</a>
</g>
</g>
<!-- Node10&#45;&gt;Node9 -->
<g id="edge10" class="edge">
<title>Node10&#45;&gt;Node9</title>
<path fill="none" stroke="midnightblue" d="M449.5,-1410.03C449.5,-1395.67 449.5,-1380.1 449.5,-1367.24"/>
<polygon fill="none" stroke="midnightblue" points="446,-1410.22 449.5,-1420.22 453,-1410.22 446,-1410.22"/>
</g>
<!-- Node11&#45;&gt;Node4 -->
<g id="edge12" class="edge">
<title>Node11&#45;&gt;Node4</title>
<path fill="none" stroke="#404040" d="M53.59,-1222.79C38.5,-1170.41 13.87,-1055.01 60.5,-976 115.66,-882.53 234.91,-831.76 317.66,-806.65"/>
<polygon fill="none" stroke="#404040" points="317.83,-806.6 322.45,-801.07 329.34,-803.2 324.72,-808.74 317.83,-806.6"/>
<text text-anchor="middle" x="123.5" y="-1085" font-family="Helvetica,sans-Serif" font-size="10.00"> #bmi_model_time_step_size</text>
</g>
<!-- Node12&#45;&gt;Node4 -->
<g id="edge14" class="edge">
<title>Node12&#45;&gt;Node4</title>
<path fill="none" stroke="#404040" d="M199.01,-1217.11C190.25,-1163.65 179.45,-1056.69 214.5,-976 236.87,-924.5 280.18,-879.46 319.9,-846.12"/>
<polygon fill="none" stroke="#404040" points="320.11,-845.95 322.2,-839.05 329.38,-838.33 327.28,-845.23 320.11,-845.95"/>
<text text-anchor="middle" x="257.5" y="-1090.5" font-family="Helvetica,sans-Serif" font-size="10.00"> #input_var_names</text>
<text text-anchor="middle" x="257.5" y="-1079.5" font-family="Helvetica,sans-Serif" font-size="10.00">#output_var_names</text>
</g>
</g>
</svg>
