<?xml version="1.0" encoding="UTF-8" standalone="no"?>
<!DOCTYPE svg PUBLIC "-//W3C//DTD SVG 1.1//EN"
 "http://www.w3.org/Graphics/SVG/1.1/DTD/svg11.dtd">
<!-- Generated by graphviz version 2.44.0 ()
 -->
<!-- Title: HY_CartographicRealization Pages: 1 -->
<svg width="284pt" height="553pt"
 viewBox="0.00 0.00 283.50 553.00" xmlns="http://www.w3.org/2000/svg" xmlns:xlink="http://www.w3.org/1999/xlink">
<g id="graph0" class="graph" transform="scale(1 1) rotate(0) translate(4 549)">
<title>HY_CartographicRealization</title>
<polygon fill="white" stroke="transparent" points="-4,4 -4,-549 279.5,-549 279.5,4 -4,4"/>
<!-- Node1 -->
<g id="node1" class="node">
<title>Node1</title>
<g id="a_node1"><a xlink:title=" ">
<polygon fill="#bfbfbf" stroke="black" points="43.5,-0.5 43.5,-68.5 201.5,-68.5 201.5,-0.5 43.5,-0.5"/>
<text text-anchor="middle" x="122.5" y="-56.5" font-family="Helvetica,sans-Serif" font-size="10.00">HY_CartographicRealization</text>
<polyline fill="none" stroke="black" points="43.5,-49.5 201.5,-49.5 "/>
<text text-anchor="middle" x="122.5" y="-37.5" font-family="Helvetica,sans-Serif" font-size="10.00"> </text>
<polyline fill="none" stroke="black" points="43.5,-30.5 201.5,-30.5 "/>
<text text-anchor="start" x="51.5" y="-18.5" font-family="Helvetica,sans-Serif" font-size="10.00">+ HY_CartographicRealization()</text>
<text text-anchor="start" x="51.5" y="-7.5" font-family="Helvetica,sans-Serif" font-size="10.00">+ ~HY_CartographicRealization()</text>
</a>
</g>
</g>
<!-- Node2 -->
<g id="node2" class="node">
<title>Node2</title>
<g id="a_node2"><a xlink:href="class_h_y___catchment_realization.html" target="_top" xlink:title=" ">
<polygon fill="white" stroke="black" points="47.5,-106.5 47.5,-218.5 197.5,-218.5 197.5,-106.5 47.5,-106.5"/>
<text text-anchor="middle" x="122.5" y="-206.5" font-family="Helvetica,sans-Serif" font-size="10.00">HY_CatchmentRealization</text>
<polyline fill="none" stroke="black" points="47.5,-199.5 197.5,-199.5 "/>
<text text-anchor="start" x="55.5" y="-187.5" font-family="Helvetica,sans-Serif" font-size="10.00"># id_number</text>
<polyline fill="none" stroke="black" points="47.5,-180.5 197.5,-180.5 "/>
<text text-anchor="start" x="55.5" y="-168.5" font-family="Helvetica,sans-Serif" font-size="10.00">+ HY_CatchmentRealization()</text>
<text text-anchor="start" x="55.5" y="-157.5" font-family="Helvetica,sans-Serif" font-size="10.00">+ HY_CatchmentRealization()</text>
<text text-anchor="start" x="55.5" y="-146.5" font-family="Helvetica,sans-Serif" font-size="10.00">+ ~HY_CatchmentRealization()</text>
<text text-anchor="start" x="55.5" y="-135.5" font-family="Helvetica,sans-Serif" font-size="10.00">+ get_response()</text>
<text text-anchor="start" x="55.5" y="-124.5" font-family="Helvetica,sans-Serif" font-size="10.00"># get_catchment_id()</text>
<text text-anchor="start" x="55.5" y="-113.5" font-family="Helvetica,sans-Serif" font-size="10.00"># set_catchment_id()</text>
</a>
</g>
</g>
<!-- Node2&#45;&gt;Node1 -->
<g id="edge1" class="edge">
<title>Node2&#45;&gt;Node1</title>
<path fill="none" stroke="midnightblue" d="M122.5,-95.96C122.5,-86.48 122.5,-77.08 122.5,-68.62"/>
<polygon fill="none" stroke="midnightblue" points="119,-96.23 122.5,-106.23 126,-96.23 119,-96.23"/>
</g>
<!-- Node3 -->
<g id="node3" class="node">
<title>Node3</title>
<g id="a_node3"><a xlink:title=" ">
<polygon fill="white" stroke="#bfbfbf" points="0,-266.5 0,-334.5 117,-334.5 117,-266.5 0,-266.5"/>
<text text-anchor="start" x="8" y="-322.5" font-family="Helvetica,sans-Serif" font-size="10.00">std::unique_ptr&lt; forcing</text>
<text text-anchor="middle" x="58.5" y="-311.5" font-family="Helvetica,sans-Serif" font-size="10.00">::ForcingProvider &gt;</text>
<polyline fill="none" stroke="#bfbfbf" points="0,-304.5 117,-304.5 "/>
<text text-anchor="start" x="8" y="-292.5" font-family="Helvetica,sans-Serif" font-size="10.00">+ ptr</text>
<polyline fill="none" stroke="#bfbfbf" points="0,-285.5 117,-285.5 "/>
<text text-anchor="start" x="8" y="-273.5" font-family="Helvetica,sans-Serif" font-size="10.00">+ operator&#45;&gt;()</text>
</a>
</g>
</g>
<!-- Node3&#45;&gt;Node2 -->
<g id="edge2" class="edge">
<title>Node3&#45;&gt;Node2</title>
<path fill="none" stroke="#404040" d="M74.16,-266.23C79.37,-255.16 85.36,-242.41 91.33,-229.75"/>
<polygon fill="none" stroke="#404040" points="91.42,-229.54 90.36,-222.41 96.53,-218.68 97.6,-225.81 91.42,-229.54"/>
<text text-anchor="middle" x="106" y="-240" font-family="Helvetica,sans-Serif" font-size="10.00"> #forcing</text>
</g>
<!-- Node4 -->
<g id="node4" class="node">
<title>Node4</title>
<g id="a_node4"><a xlink:title=" ">
<polygon fill="white" stroke="#bfbfbf" points="10.5,-382.5 10.5,-439.5 112.5,-439.5 112.5,-382.5 10.5,-382.5"/>
<text text-anchor="middle" x="61.5" y="-427.5" font-family="Helvetica,sans-Serif" font-size="10.00">std::unique_ptr&lt; T &gt;</text>
<polyline fill="none" stroke="#bfbfbf" points="10.5,-420.5 112.5,-420.5 "/>
<text text-anchor="middle" x="61.5" y="-408.5" font-family="Helvetica,sans-Serif" font-size="10.00"> </text>
<polyline fill="none" stroke="#bfbfbf" points="10.5,-401.5 112.5,-401.5 "/>
<text text-anchor="start" x="18.5" y="-389.5" font-family="Helvetica,sans-Serif" font-size="10.00">+ operator&#45;&gt;()</text>
</a>
</g>
</g>
<!-- Node4&#45;&gt;Node3 -->
<g id="edge3" class="edge">
<title>Node4&#45;&gt;Node3</title>
<path fill="none" stroke="orange" d="M60.45,-371.99C60.11,-359.77 59.74,-346.35 59.41,-334.52"/>
<polygon fill="orange" stroke="orange" points="56.96,-372.44 60.74,-382.34 63.96,-372.25 56.96,-372.44"/>
<text text-anchor="middle" x="121" y="-356" font-family="Helvetica,sans-Serif" font-size="10.00"> &lt; forcing::ForcingProvider &gt;</text>
</g>
<!-- Node5 -->
<g id="node5" class="node">
<title>Node5</title>
<g id="a_node5"><a xlink:title=" ">
<polygon fill="white" stroke="#bfbfbf" points="107,-487.5 107,-544.5 136,-544.5 136,-487.5 107,-487.5"/>
<text text-anchor="middle" x="121.5" y="-532.5" font-family="Helvetica,sans-Serif" font-size="10.00">T</text>
<polyline fill="none" stroke="#bfbfbf" points="107,-525.5 136,-525.5 "/>
<text text-anchor="middle" x="121.5" y="-513.5" font-family="Helvetica,sans-Serif" font-size="10.00"> </text>
<polyline fill="none" stroke="#bfbfbf" points="107,-506.5 136,-506.5 "/>
<text text-anchor="middle" x="121.5" y="-494.5" font-family="Helvetica,sans-Serif" font-size="10.00"> </text>
</a>
</g>
</g>
<!-- Node5&#45;&gt;Node4 -->
<g id="edge4" class="edge">
<title>Node5&#45;&gt;Node4</title>
<path fill="none" stroke="#404040" d="M106.98,-490.07C99.97,-478.04 91.41,-463.35 83.62,-449.97"/>
<polygon fill="none" stroke="#404040" points="83.62,-449.97 77.14,-446.8 77.58,-439.6 84.06,-442.77 83.62,-449.97"/>
<text text-anchor="middle" x="103.5" y="-461" font-family="Helvetica,sans-Serif" font-size="10.00"> +ptr</text>
</g>
<!-- Node7 -->
<g id="node7" class="node">
<title>Node7</title>
<g id="a_node7"><a xlink:title=" ">
<polygon fill="white" stroke="#bfbfbf" points="137,-382.5 137,-439.5 240,-439.5 240,-382.5 137,-382.5"/>
<text text-anchor="middle" x="188.5" y="-427.5" font-family="Helvetica,sans-Serif" font-size="10.00">std::shared_ptr&lt; T &gt;</text>
<polyline fill="none" stroke="#bfbfbf" points="137,-420.5 240,-420.5 "/>
<text text-anchor="middle" x="188.5" y="-408.5" font-family="Helvetica,sans-Serif" font-size="10.00"> </text>
<polyline fill="none" stroke="#bfbfbf" points="137,-401.5 240,-401.5 "/>
<text text-anchor="start" x="145" y="-389.5" font-family="Helvetica,sans-Serif" font-size="10.00">+ operator&#45;&gt;()</text>
</a>
</g>
</g>
<!-- Node5&#45;&gt;Node7 -->
<g id="edge7" class="edge">
<title>Node5&#45;&gt;Node7</title>
<path fill="none" stroke="#404040" d="M136.04,-492.65C144.15,-480.18 154.48,-464.3 163.82,-449.94"/>
<polygon fill="none" stroke="#404040" points="163.86,-449.88 163.78,-442.67 170.4,-439.82 170.48,-447.03 163.86,-449.88"/>
<text text-anchor="middle" x="167.5" y="-461" font-family="Helvetica,sans-Serif" font-size="10.00"> +ptr</text>
</g>
<!-- Node6 -->
<g id="node6" class="node">
<title>Node6</title>
<g id="a_node6"><a xlink:title=" ">
<polygon fill="white" stroke="#bfbfbf" points="139,-266.5 139,-334.5 242,-334.5 242,-266.5 139,-266.5"/>
<text text-anchor="start" x="147" y="-322.5" font-family="Helvetica,sans-Serif" font-size="10.00">std::shared_ptr&lt; HY</text>
<text text-anchor="middle" x="190.5" y="-311.5" font-family="Helvetica,sans-Serif" font-size="10.00">_Catchment &gt;</text>
<polyline fill="none" stroke="#bfbfbf" points="139,-304.5 242,-304.5 "/>
<text text-anchor="start" x="147" y="-292.5" font-family="Helvetica,sans-Serif" font-size="10.00">+ ptr</text>
<polyline fill="none" stroke="#bfbfbf" points="139,-285.5 242,-285.5 "/>
<text text-anchor="start" x="147" y="-273.5" font-family="Helvetica,sans-Serif" font-size="10.00">+ operator&#45;&gt;()</text>
</a>
</g>
</g>
<!-- Node6&#45;&gt;Node2 -->
<g id="edge5" class="edge">
<title>Node6&#45;&gt;Node2</title>
<path fill="none" stroke="#404040" d="M173.87,-266.23C168.33,-255.16 161.96,-242.41 155.62,-229.75"/>
<polygon fill="none" stroke="#404040" points="155.46,-229.41 149.2,-225.84 150.09,-218.68 156.35,-222.26 155.46,-229.41"/>
<text text-anchor="middle" x="211.5" y="-240" font-family="Helvetica,sans-Serif" font-size="10.00"> #realized_catchment</text>
</g>
<!-- Node7&#45;&gt;Node6 -->
<g id="edge6" class="edge">
<title>Node7&#45;&gt;Node6</title>
<path fill="none" stroke="orange" d="M189.2,-371.99C189.43,-359.77 189.67,-346.35 189.89,-334.52"/>
<polygon fill="orange" stroke="orange" points="185.69,-372.28 189.01,-382.34 192.69,-372.41 185.69,-372.28"/>
<text text-anchor="middle" x="232.5" y="-356" font-family="Helvetica,sans-Serif" font-size="10.00"> &lt; HY_Catchment &gt;</text>
</g>
</g>
</svg>
