<?xml version="1.0" encoding="UTF-8" standalone="no"?>
<!DOCTYPE svg PUBLIC "-//W3C//DTD SVG 1.1//EN"
 "http://www.w3.org/Graphics/SVG/1.1/DTD/svg11.dtd">
<!-- Generated by graphviz version 9.0.0 (20230911.1827)
 -->
<!-- Title: geojson::FeatureVisitor Pages: 1 -->
<svg width="117pt" height="352pt"
 viewBox="0.00 0.00 117.00 352.00" xmlns="http://www.w3.org/2000/svg" xmlns:xlink="http://www.w3.org/1999/xlink">

<svg id="main" version="1.1" xmlns="http://www.w3.org/2000/svg" xmlns:xlink="http://www.w3.org/1999/xlink" xml:space="preserve" onload="init(evt)">
<style type="text/css"><![CDATA[
.node, .edge {opacity: 0.7;}
.node.selected, .edge.selected {opacity: 1;}
.edge:hover path { stroke: red; }
.edge:hover polygon { stroke: red; fill: red; }
]]></style>
<script type="application/ecmascript" xlink:href="svg.min.js"/>
<svg id="graph" class="graph">
<g id="graph0" class="graph" transform="scale(1 1) rotate(0) translate(4 348)">
<title>geojson::FeatureVisitor</title>
<!-- Node1 -->
<g id="Node000001" class="node">
<title>Node1</title>
<g id="a_Node000001"><a xlink:title="An abstract class used to operate on the children of FeatureBase.">
<polygon fill="#999999" stroke="none" points="109,-344 0,-344 0,-190 109,-190 109,-344"/>
<text text-anchor="start" x="5" y="-330.5" font-family="Helvetica,sans-Serif" font-size="10.00">geojson::FeatureVisitor</text>
<text text-anchor="start" x="53" y="-315.5" font-family="Helvetica,sans-Serif" font-size="10.00"> </text>
<text text-anchor="start" x="8.5" y="-300.5" font-family="Helvetica,sans-Serif" font-size="10.00">+</text>
<text text-anchor="start" x="23" y="-300.5" font-family="Helvetica,sans-Serif" font-size="10.00">visit()</text>
<text text-anchor="start" x="8.5" y="-285.5" font-family="Helvetica,sans-Serif" font-size="10.00">+</text>
<text text-anchor="start" x="23" y="-285.5" font-family="Helvetica,sans-Serif" font-size="10.00">visit()</text>
<text text-anchor="start" x="8.5" y="-270.5" font-family="Helvetica,sans-Serif" font-size="10.00">+</text>
<text text-anchor="start" x="23" y="-270.5" font-family="Helvetica,sans-Serif" font-size="10.00">visit()</text>
<text text-anchor="start" x="8.5" y="-255.5" font-family="Helvetica,sans-Serif" font-size="10.00">+</text>
<text text-anchor="start" x="23" y="-255.5" font-family="Helvetica,sans-Serif" font-size="10.00">visit()</text>
<text text-anchor="start" x="8.5" y="-240.5" font-family="Helvetica,sans-Serif" font-size="10.00">+</text>
<text text-anchor="start" x="23" y="-240.5" font-family="Helvetica,sans-Serif" font-size="10.00">visit()</text>
<text text-anchor="start" x="8.5" y="-225.5" font-family="Helvetica,sans-Serif" font-size="10.00">+</text>
<text text-anchor="start" x="23" y="-225.5" font-family="Helvetica,sans-Serif" font-size="10.00">visit()</text>
<text text-anchor="start" x="8.5" y="-210.5" font-family="Helvetica,sans-Serif" font-size="10.00">+</text>
<text text-anchor="start" x="23" y="-210.5" font-family="Helvetica,sans-Serif" font-size="10.00">visit()</text>
<text text-anchor="start" x="8.5" y="-195.5" font-family="Helvetica,sans-Serif" font-size="10.00">+</text>
<text text-anchor="start" x="23" y="-195.5" font-family="Helvetica,sans-Serif" font-size="10.00">~FeatureVisitor()</text>
<polygon fill="#666666" stroke="#666666" points="0,-327 0,-327 109,-327 109,-327 0,-327"/>
<polygon fill="#666666" stroke="#666666" points="0,-312 0,-312 109,-312 109,-312 0,-312"/>
<polygon fill="none" stroke="#666666" points="0,-190 0,-344 109,-344 109,-190 0,-190"/>
</a>
</g>
</g>
<!-- Node2 -->
<g id="Node000002" class="node">
<title>Node2</title>
<g id="a_Node000002"><a xlink:href="class_visitor.html" target="_top" xlink:title=" ">
<polygon fill="white" stroke="none" points="75.5,-154 33.5,-154 33.5,0 75.5,0 75.5,-154"/>
<text text-anchor="start" x="40.62" y="-140.5" font-family="Helvetica,sans-Serif" font-size="10.00">Visitor</text>
<text text-anchor="start" x="39" y="-125.5" font-family="Helvetica,sans-Serif" font-size="10.00">&#45;</text>
<text text-anchor="start" x="47.5" y="-125.5" font-family="Helvetica,sans-Serif" font-size="10.00">types</text>
<text text-anchor="start" x="37.5" y="-110.5" font-family="Helvetica,sans-Serif" font-size="10.00">+</text>
<text text-anchor="start" x="47.5" y="-110.5" font-family="Helvetica,sans-Serif" font-size="10.00">visit()</text>
<text text-anchor="start" x="37.5" y="-95.5" font-family="Helvetica,sans-Serif" font-size="10.00">+</text>
<text text-anchor="start" x="47.5" y="-95.5" font-family="Helvetica,sans-Serif" font-size="10.00">visit()</text>
<text text-anchor="start" x="37.5" y="-80.5" font-family="Helvetica,sans-Serif" font-size="10.00">+</text>
<text text-anchor="start" x="47.5" y="-80.5" font-family="Helvetica,sans-Serif" font-size="10.00">visit()</text>
<text text-anchor="start" x="37.5" y="-65.5" font-family="Helvetica,sans-Serif" font-size="10.00">+</text>
<text text-anchor="start" x="47.5" y="-65.5" font-family="Helvetica,sans-Serif" font-size="10.00">visit()</text>
<text text-anchor="start" x="37.5" y="-50.5" font-family="Helvetica,sans-Serif" font-size="10.00">+</text>
<text text-anchor="start" x="47.5" y="-50.5" font-family="Helvetica,sans-Serif" font-size="10.00">visit()</text>
<text text-anchor="start" x="37.5" y="-35.5" font-family="Helvetica,sans-Serif" font-size="10.00">+</text>
<text text-anchor="start" x="47.5" y="-35.5" font-family="Helvetica,sans-Serif" font-size="10.00">visit()</text>
<text text-anchor="start" x="37.5" y="-20.5" font-family="Helvetica,sans-Serif" font-size="10.00">+</text>
<text text-anchor="start" x="47.5" y="-20.5" font-family="Helvetica,sans-Serif" font-size="10.00">visit()</text>
<text text-anchor="start" x="37.5" y="-5.5" font-family="Helvetica,sans-Serif" font-size="10.00">+</text>
<text text-anchor="start" x="47.5" y="-5.5" font-family="Helvetica,sans-Serif" font-size="10.00">get()</text>
<polygon fill="#666666" stroke="#666666" points="33.5,-137 33.5,-137 75.5,-137 75.5,-137 33.5,-137"/>
<polygon fill="#666666" stroke="#666666" points="33.5,-122 33.5,-122 45.5,-122 45.5,-122 33.5,-122"/>
<polygon fill="#666666" stroke="#666666" points="45.5,-122 45.5,-122 75.5,-122 75.5,-122 45.5,-122"/>
<polygon fill="none" stroke="#666666" points="33.5,0 33.5,-154 75.5,-154 75.5,0 33.5,0"/>
</a>
</g>
</g>
<!-- Node1&#45;&gt;Node2 -->
<g id="edge1_Node000001_Node000002" class="edge">
<title>Node1&#45;&gt;Node2</title>
<g id="a_edge1_Node000001_Node000002"><a xlink:title=" ">
<path fill="none" stroke="#63b8ff" d="M54.5,-178.8C54.5,-170.49 54.5,-162.1 54.5,-153.9"/>
<polygon fill="none" stroke="#63b8ff" points="51,-178.56 54.5,-188.56 58,-178.56 51,-178.56"/>
</a>
</g>
</g>
</g>
</svg>
</svg>

<style type='text/css'>
<![CDATA[
[data-mouse-over-selected='false'] { opacity: 0.7; }
[data-mouse-over-selected='true']  { opacity: 1.0; }
]]>
</style>
<script type="application/ecmascript"><![CDATA[
document.addEventListener('DOMContentLoaded', (event) => {
  highlightEdges();
  highlightAdjacentNodes();
});
]]></script>
</svg>
