<?xml version="1.0" encoding="UTF-8" standalone="no"?>
<!DOCTYPE svg PUBLIC "-//W3C//DTD SVG 1.1//EN"
 "http://www.w3.org/Graphics/SVG/1.1/DTD/svg11.dtd">
<!-- Generated by graphviz version 9.0.0 (20230911.1827)
 -->
<!-- Title: models::bmi::Bmi_C_Adapter Pages: 1 -->
<svg width="765pt" height="2009pt"
 viewBox="0.00 0.00 764.50 2008.75" xmlns="http://www.w3.org/2000/svg" xmlns:xlink="http://www.w3.org/1999/xlink">
<g id="graph0" class="graph" transform="scale(1 1) rotate(0) translate(4 2004.75)">
<title>models::bmi::Bmi_C_Adapter</title>
<!-- Node1 -->
<g id="Node000001" class="node">
<title>Node1</title>
<g id="a_Node000001"><a xlink:title="An adapter class to serve as a C++ interface to the essential aspects of external models written in t...">
<polygon fill="#999999" stroke="none" points="602.5,-527 468.5,-527 468.5,0 602.5,0 602.5,-527"/>
<text text-anchor="start" x="492.75" y="-513.5" font-family="Helvetica,sans-Serif" font-size="10.00">models::bmi::Bmi_C</text>
<text text-anchor="start" x="516" y="-502.25" font-family="Helvetica,sans-Serif" font-size="10.00">_Adapter</text>
<text text-anchor="start" x="534" y="-487.5" font-family="Helvetica,sans-Serif" font-size="10.00"> </text>
<text text-anchor="start" x="472.5" y="-472.5" font-family="Helvetica,sans-Serif" font-size="10.00">+</text>
<text text-anchor="start" x="482.5" y="-472.5" font-family="Helvetica,sans-Serif" font-size="10.00">Bmi_C_Adapter()</text>
<text text-anchor="start" x="472.5" y="-457.5" font-family="Helvetica,sans-Serif" font-size="10.00">+</text>
<text text-anchor="start" x="482.5" y="-457.5" font-family="Helvetica,sans-Serif" font-size="10.00">Bmi_C_Adapter()</text>
<text text-anchor="start" x="472.5" y="-442.5" font-family="Helvetica,sans-Serif" font-size="10.00">+</text>
<text text-anchor="start" x="482.5" y="-442.5" font-family="Helvetica,sans-Serif" font-size="10.00">Bmi_C_Adapter()</text>
<text text-anchor="start" x="472.5" y="-427.5" font-family="Helvetica,sans-Serif" font-size="10.00">+</text>
<text text-anchor="start" x="482.5" y="-427.5" font-family="Helvetica,sans-Serif" font-size="10.00">Bmi_C_Adapter()</text>
<text text-anchor="start" x="472.5" y="-412.5" font-family="Helvetica,sans-Serif" font-size="10.00">+</text>
<text text-anchor="start" x="482.5" y="-412.5" font-family="Helvetica,sans-Serif" font-size="10.00">~Bmi_C_Adapter()</text>
<text text-anchor="start" x="472.5" y="-397.5" font-family="Helvetica,sans-Serif" font-size="10.00">+</text>
<text text-anchor="start" x="482.5" y="-397.5" font-family="Helvetica,sans-Serif" font-size="10.00">Finalize()</text>
<text text-anchor="start" x="472.5" y="-382.5" font-family="Helvetica,sans-Serif" font-size="10.00">+</text>
<text text-anchor="start" x="482.5" y="-382.5" font-family="Helvetica,sans-Serif" font-size="10.00">GetComponentName()</text>
<text text-anchor="start" x="472.5" y="-367.5" font-family="Helvetica,sans-Serif" font-size="10.00">+</text>
<text text-anchor="start" x="482.5" y="-367.5" font-family="Helvetica,sans-Serif" font-size="10.00">GetCurrentTime()</text>
<text text-anchor="start" x="472.5" y="-352.5" font-family="Helvetica,sans-Serif" font-size="10.00">+</text>
<text text-anchor="start" x="482.5" y="-352.5" font-family="Helvetica,sans-Serif" font-size="10.00">GetEndTime()</text>
<text text-anchor="start" x="472.5" y="-337.5" font-family="Helvetica,sans-Serif" font-size="10.00">+</text>
<text text-anchor="start" x="482.5" y="-337.5" font-family="Helvetica,sans-Serif" font-size="10.00">GetInputItemCount()</text>
<text text-anchor="start" x="472.5" y="-322.5" font-family="Helvetica,sans-Serif" font-size="10.00">+</text>
<text text-anchor="start" x="482.5" y="-322.5" font-family="Helvetica,sans-Serif" font-size="10.00">GetInputVarNames()</text>
<text text-anchor="start" x="472.5" y="-307.5" font-family="Helvetica,sans-Serif" font-size="10.00">+</text>
<text text-anchor="start" x="482.5" y="-307.5" font-family="Helvetica,sans-Serif" font-size="10.00">GetOutputItemCount()</text>
<text text-anchor="start" x="472.5" y="-292.5" font-family="Helvetica,sans-Serif" font-size="10.00">+</text>
<text text-anchor="start" x="482.5" y="-292.5" font-family="Helvetica,sans-Serif" font-size="10.00">GetOutputVarNames()</text>
<text text-anchor="start" x="472.5" y="-277.5" font-family="Helvetica,sans-Serif" font-size="10.00">+</text>
<text text-anchor="start" x="482.5" y="-277.5" font-family="Helvetica,sans-Serif" font-size="10.00">GetStartTime()</text>
<text text-anchor="start" x="472.5" y="-262.5" font-family="Helvetica,sans-Serif" font-size="10.00">+</text>
<text text-anchor="start" x="482.5" y="-262.5" font-family="Helvetica,sans-Serif" font-size="10.00">GetTimeStep()</text>
<text text-anchor="start" x="482.5" y="-247.5" font-family="Helvetica,sans-Serif" font-size="10.00">and 35 more...</text>
<text text-anchor="start" x="472.88" y="-232.5" font-family="Helvetica,sans-Serif" font-size="10.00">#</text>
<text text-anchor="start" x="482.5" y="-232.5" font-family="Helvetica,sans-Serif" font-size="10.00">Bmi_C_Adapter()</text>
<text text-anchor="start" x="472.88" y="-217.5" font-family="Helvetica,sans-Serif" font-size="10.00">#</text>
<text text-anchor="start" x="482.5" y="-217.5" font-family="Helvetica,sans-Serif" font-size="10.00">construct_and_init</text>
<text text-anchor="start" x="482.5" y="-206.25" font-family="Helvetica,sans-Serif" font-size="10.00">_backing_model()</text>
<text text-anchor="start" x="472.88" y="-191.5" font-family="Helvetica,sans-Serif" font-size="10.00">#</text>
<text text-anchor="start" x="482.5" y="-191.5" font-family="Helvetica,sans-Serif" font-size="10.00">execModuleRegistration()</text>
<text text-anchor="start" x="472.88" y="-176.5" font-family="Helvetica,sans-Serif" font-size="10.00">#</text>
<text text-anchor="start" x="482.5" y="-176.5" font-family="Helvetica,sans-Serif" font-size="10.00">get_bmi_model_time</text>
<text text-anchor="start" x="482.5" y="-165.25" font-family="Helvetica,sans-Serif" font-size="10.00">_step_size_ptr()</text>
<text text-anchor="start" x="472.88" y="-150.5" font-family="Helvetica,sans-Serif" font-size="10.00">#</text>
<text text-anchor="start" x="482.5" y="-150.5" font-family="Helvetica,sans-Serif" font-size="10.00">get_value()</text>
<text text-anchor="start" x="472.88" y="-135.5" font-family="Helvetica,sans-Serif" font-size="10.00">#</text>
<text text-anchor="start" x="482.5" y="-135.5" font-family="Helvetica,sans-Serif" font-size="10.00">retrieve_bmi_model</text>
<text text-anchor="start" x="482.5" y="-124.25" font-family="Helvetica,sans-Serif" font-size="10.00">_time_step_size()</text>
<text text-anchor="start" x="474" y="-109.5" font-family="Helvetica,sans-Serif" font-size="10.00">&#45;</text>
<text text-anchor="start" x="482.5" y="-109.5" font-family="Helvetica,sans-Serif" font-size="10.00">construct_and_init</text>
<text text-anchor="start" x="482.5" y="-98.25" font-family="Helvetica,sans-Serif" font-size="10.00">_backing_model_for_type()</text>
<text text-anchor="start" x="474" y="-83.5" font-family="Helvetica,sans-Serif" font-size="10.00">&#45;</text>
<text text-anchor="start" x="482.5" y="-83.5" font-family="Helvetica,sans-Serif" font-size="10.00">finalizeForCAdapter()</text>
<text text-anchor="start" x="474" y="-68.5" font-family="Helvetica,sans-Serif" font-size="10.00">&#45;</text>
<text text-anchor="start" x="482.5" y="-68.5" font-family="Helvetica,sans-Serif" font-size="10.00">inner_get_input_item</text>
<text text-anchor="start" x="482.5" y="-57.25" font-family="Helvetica,sans-Serif" font-size="10.00">_count()</text>
<text text-anchor="start" x="474" y="-42.5" font-family="Helvetica,sans-Serif" font-size="10.00">&#45;</text>
<text text-anchor="start" x="482.5" y="-42.5" font-family="Helvetica,sans-Serif" font-size="10.00">inner_get_output_item</text>
<text text-anchor="start" x="482.5" y="-31.25" font-family="Helvetica,sans-Serif" font-size="10.00">_count()</text>
<text text-anchor="start" x="474" y="-16.5" font-family="Helvetica,sans-Serif" font-size="10.00">&#45;</text>
<text text-anchor="start" x="482.5" y="-16.5" font-family="Helvetica,sans-Serif" font-size="10.00">inner_get_variable</text>
<text text-anchor="start" x="482.5" y="-5.25" font-family="Helvetica,sans-Serif" font-size="10.00">_names()</text>
<polygon fill="#666666" stroke="#666666" points="468.5,-499 468.5,-499 602.5,-499 602.5,-499 468.5,-499"/>
<polygon fill="#666666" stroke="#666666" points="468.5,-484 468.5,-484 602.5,-484 602.5,-484 468.5,-484"/>
<polygon fill="none" stroke="#666666" points="468.5,0 468.5,-527 602.5,-527 602.5,0 468.5,0"/>
</a>
</g>
</g>
<!-- Node2 -->
<g id="Node000002" class="node">
<title>Node2</title>
<g id="a_Node000002"><a xlink:href="classmodels_1_1bmi_1_1_abstract_c_lib_bmi_adapter.html" target="_top" xlink:title=" ">
<polygon fill="white" stroke="none" points="604,-755 467,-755 467,-564 604,-564 604,-755"/>
<text text-anchor="start" x="478.88" y="-741.5" font-family="Helvetica,sans-Serif" font-size="10.00">models::bmi::AbstractCLib</text>
<text text-anchor="start" x="510" y="-730.25" font-family="Helvetica,sans-Serif" font-size="10.00">BmiAdapter</text>
<text text-anchor="start" x="472.5" y="-715.5" font-family="Helvetica,sans-Serif" font-size="10.00">&#45;</text>
<text text-anchor="start" x="481" y="-715.5" font-family="Helvetica,sans-Serif" font-size="10.00">dyn_lib_handle</text>
<text text-anchor="start" x="471" y="-700.5" font-family="Helvetica,sans-Serif" font-size="10.00">+</text>
<text text-anchor="start" x="481" y="-700.5" font-family="Helvetica,sans-Serif" font-size="10.00">AbstractCLibBmiAdapter()</text>
<text text-anchor="start" x="471" y="-685.5" font-family="Helvetica,sans-Serif" font-size="10.00">+</text>
<text text-anchor="start" x="481" y="-685.5" font-family="Helvetica,sans-Serif" font-size="10.00">~AbstractCLibBmiAdapter()</text>
<text text-anchor="start" x="471" y="-670.5" font-family="Helvetica,sans-Serif" font-size="10.00">+</text>
<text text-anchor="start" x="481" y="-670.5" font-family="Helvetica,sans-Serif" font-size="10.00">Finalize()</text>
<text text-anchor="start" x="471.38" y="-655.5" font-family="Helvetica,sans-Serif" font-size="10.00">#</text>
<text text-anchor="start" x="481" y="-655.5" font-family="Helvetica,sans-Serif" font-size="10.00">dynamic_library_load()</text>
<text text-anchor="start" x="471.38" y="-640.5" font-family="Helvetica,sans-Serif" font-size="10.00">#</text>
<text text-anchor="start" x="481" y="-640.5" font-family="Helvetica,sans-Serif" font-size="10.00">dynamic_load_symbol()</text>
<text text-anchor="start" x="471.38" y="-625.5" font-family="Helvetica,sans-Serif" font-size="10.00">#</text>
<text text-anchor="start" x="481" y="-625.5" font-family="Helvetica,sans-Serif" font-size="10.00">dynamic_load_symbol()</text>
<text text-anchor="start" x="471.38" y="-610.5" font-family="Helvetica,sans-Serif" font-size="10.00">#</text>
<text text-anchor="start" x="481" y="-610.5" font-family="Helvetica,sans-Serif" font-size="10.00">get_bmi_registration</text>
<text text-anchor="start" x="481" y="-599.25" font-family="Helvetica,sans-Serif" font-size="10.00">_function()</text>
<text text-anchor="start" x="471.38" y="-584.5" font-family="Helvetica,sans-Serif" font-size="10.00">#</text>
<text text-anchor="start" x="481" y="-584.5" font-family="Helvetica,sans-Serif" font-size="10.00">get_dyn_lib_handle()</text>
<text text-anchor="start" x="472.5" y="-569.5" font-family="Helvetica,sans-Serif" font-size="10.00">&#45;</text>
<text text-anchor="start" x="481" y="-569.5" font-family="Helvetica,sans-Serif" font-size="10.00">finalizeForLibAbstraction()</text>
<polygon fill="#666666" stroke="#666666" points="467,-727 467,-727 604,-727 604,-727 467,-727"/>
<polygon fill="#666666" stroke="#666666" points="467,-712 467,-712 479,-712 479,-712 467,-712"/>
<polygon fill="#666666" stroke="#666666" points="479,-712 479,-712 604,-712 604,-712 479,-712"/>
<polygon fill="none" stroke="#666666" points="467,-564 467,-755 604,-755 604,-564 467,-564"/>
</a>
</g>
</g>
<!-- Node2&#45;&gt;Node1 -->
<g id="edge1_Node000001_Node000002" class="edge">
<title>Node2&#45;&gt;Node1</title>
<g id="a_edge1_Node000001_Node000002"><a xlink:title=" ">
<path fill="none" stroke="#63b8ff" d="M535.5,-552.84C535.5,-544.42 535.5,-535.72 535.5,-526.82"/>
<polygon fill="none" stroke="#63b8ff" points="532,-552.61 535.5,-562.61 539,-552.61 532,-552.61"/>
</a>
</g>
</g>
<!-- Node3 -->
<g id="Node000003" class="node">
<title>Node3</title>
<g id="a_Node000003"><a xlink:href="classmodels_1_1bmi_1_1_bmi___adapter.html" target="_top" xlink:title="Abstract adapter interface for C++ classes to interact with the essential aspects of external models ...">
<polygon fill="white" stroke="none" points="453,-1121 324,-1121 324,-792 453,-792 453,-1121"/>
<text text-anchor="start" x="332.25" y="-1107.5" font-family="Helvetica,sans-Serif" font-size="10.00">models::bmi::Bmi_Adapter</text>
<text text-anchor="start" x="328.38" y="-1092.5" font-family="Helvetica,sans-Serif" font-size="10.00">#</text>
<text text-anchor="start" x="338" y="-1092.5" font-family="Helvetica,sans-Serif" font-size="10.00">bmi_model_has_fixed</text>
<text text-anchor="start" x="338" y="-1081.25" font-family="Helvetica,sans-Serif" font-size="10.00">_time_step</text>
<text text-anchor="start" x="328.38" y="-1066.5" font-family="Helvetica,sans-Serif" font-size="10.00">#</text>
<text text-anchor="start" x="338" y="-1066.5" font-family="Helvetica,sans-Serif" font-size="10.00">bmi_model_time_convert</text>
<text text-anchor="start" x="338" y="-1055.25" font-family="Helvetica,sans-Serif" font-size="10.00">_factor</text>
<text text-anchor="start" x="328.38" y="-1040.5" font-family="Helvetica,sans-Serif" font-size="10.00">#</text>
<text text-anchor="start" x="338" y="-1040.5" font-family="Helvetica,sans-Serif" font-size="10.00">model_initialized</text>
<text text-anchor="start" x="328" y="-1025.5" font-family="Helvetica,sans-Serif" font-size="10.00">+</text>
<text text-anchor="start" x="338" y="-1025.5" font-family="Helvetica,sans-Serif" font-size="10.00">Bmi_Adapter()</text>
<text text-anchor="start" x="328" y="-1010.5" font-family="Helvetica,sans-Serif" font-size="10.00">+</text>
<text text-anchor="start" x="338" y="-1010.5" font-family="Helvetica,sans-Serif" font-size="10.00">Bmi_Adapter()</text>
<text text-anchor="start" x="328" y="-995.5" font-family="Helvetica,sans-Serif" font-size="10.00">+</text>
<text text-anchor="start" x="338" y="-995.5" font-family="Helvetica,sans-Serif" font-size="10.00">Bmi_Adapter()</text>
<text text-anchor="start" x="328" y="-980.5" font-family="Helvetica,sans-Serif" font-size="10.00">+</text>
<text text-anchor="start" x="338" y="-980.5" font-family="Helvetica,sans-Serif" font-size="10.00">~Bmi_Adapter()</text>
<text text-anchor="start" x="328" y="-965.5" font-family="Helvetica,sans-Serif" font-size="10.00">+</text>
<text text-anchor="start" x="338" y="-965.5" font-family="Helvetica,sans-Serif" font-size="10.00">is_model_initialized()</text>
<text text-anchor="start" x="328" y="-950.5" font-family="Helvetica,sans-Serif" font-size="10.00">+</text>
<text text-anchor="start" x="338" y="-950.5" font-family="Helvetica,sans-Serif" font-size="10.00">get_time_convert_factor()</text>
<text text-anchor="start" x="328" y="-935.5" font-family="Helvetica,sans-Serif" font-size="10.00">+</text>
<text text-anchor="start" x="338" y="-935.5" font-family="Helvetica,sans-Serif" font-size="10.00">convert_model_time</text>
<text text-anchor="start" x="338" y="-924.25" font-family="Helvetica,sans-Serif" font-size="10.00">_to_seconds()</text>
<text text-anchor="start" x="328" y="-909.5" font-family="Helvetica,sans-Serif" font-size="10.00">+</text>
<text text-anchor="start" x="338" y="-909.5" font-family="Helvetica,sans-Serif" font-size="10.00">convert_seconds_to</text>
<text text-anchor="start" x="338" y="-898.25" font-family="Helvetica,sans-Serif" font-size="10.00">_model_time()</text>
<text text-anchor="start" x="328" y="-883.5" font-family="Helvetica,sans-Serif" font-size="10.00">+</text>
<text text-anchor="start" x="338" y="-883.5" font-family="Helvetica,sans-Serif" font-size="10.00">get_analogous_cxx_type()</text>
<text text-anchor="start" x="328" y="-868.5" font-family="Helvetica,sans-Serif" font-size="10.00">+</text>
<text text-anchor="start" x="338" y="-868.5" font-family="Helvetica,sans-Serif" font-size="10.00">Initialize()</text>
<text text-anchor="start" x="328" y="-853.5" font-family="Helvetica,sans-Serif" font-size="10.00">+</text>
<text text-anchor="start" x="338" y="-853.5" font-family="Helvetica,sans-Serif" font-size="10.00">Initialize()</text>
<text text-anchor="start" x="328" y="-838.5" font-family="Helvetica,sans-Serif" font-size="10.00">+</text>
<text text-anchor="start" x="338" y="-838.5" font-family="Helvetica,sans-Serif" font-size="10.00">isInitialized()</text>
<text text-anchor="start" x="328" y="-823.5" font-family="Helvetica,sans-Serif" font-size="10.00">+</text>
<text text-anchor="start" x="338" y="-823.5" font-family="Helvetica,sans-Serif" font-size="10.00">get_model_name()</text>
<text text-anchor="start" x="328.38" y="-808.5" font-family="Helvetica,sans-Serif" font-size="10.00">#</text>
<text text-anchor="start" x="338" y="-808.5" font-family="Helvetica,sans-Serif" font-size="10.00">construct_and_init</text>
<text text-anchor="start" x="338" y="-797.25" font-family="Helvetica,sans-Serif" font-size="10.00">_backing_model()</text>
<polygon fill="#666666" stroke="#666666" points="324,-1104 324,-1104 453,-1104 453,-1104 324,-1104"/>
<polygon fill="#666666" stroke="#666666" points="324,-1037 324,-1037 336,-1037 336,-1037 324,-1037"/>
<polygon fill="#666666" stroke="#666666" points="336,-1037 336,-1037 453,-1037 453,-1037 336,-1037"/>
<polygon fill="none" stroke="#666666" points="324,-792 324,-1121 453,-1121 453,-792 324,-792"/>
</a>
</g>
</g>
<!-- Node3&#45;&gt;Node2 -->
<g id="edge2_Node000002_Node000003" class="edge">
<title>Node3&#45;&gt;Node2</title>
<g id="a_edge2_Node000002_Node000003"><a xlink:title=" ">
<path fill="none" stroke="#63b8ff" d="M458.04,-815.95C468.37,-795.22 478.8,-774.28 488.53,-754.77"/>
<polygon fill="none" stroke="#63b8ff" points="454.98,-814.24 453.65,-824.75 461.24,-817.36 454.98,-814.24"/>
</a>
</g>
</g>
<!-- Node4 -->
<g id="Node000004" class="node">
<title>Node4</title>
<g id="a_Node000004"><a xlink:href="classbmi_1_1_bmi.html" target="_top" xlink:title=" ">
<polygon fill="white" stroke="none" points="335,-1453.5 220,-1453.5 220,-1179.5 335,-1179.5 335,-1453.5"/>
<text text-anchor="start" x="258.75" y="-1440" font-family="Helvetica,sans-Serif" font-size="10.00">bmi::Bmi</text>
<text text-anchor="start" x="276" y="-1425" font-family="Helvetica,sans-Serif" font-size="10.00"> </text>
<text text-anchor="start" x="224" y="-1410" font-family="Helvetica,sans-Serif" font-size="10.00">+</text>
<text text-anchor="start" x="234" y="-1410" font-family="Helvetica,sans-Serif" font-size="10.00">~Bmi()</text>
<text text-anchor="start" x="224" y="-1395" font-family="Helvetica,sans-Serif" font-size="10.00">+</text>
<text text-anchor="start" x="234" y="-1395" font-family="Helvetica,sans-Serif" font-size="10.00">Initialize()</text>
<text text-anchor="start" x="224" y="-1380" font-family="Helvetica,sans-Serif" font-size="10.00">+</text>
<text text-anchor="start" x="234" y="-1380" font-family="Helvetica,sans-Serif" font-size="10.00">Update()</text>
<text text-anchor="start" x="224" y="-1365" font-family="Helvetica,sans-Serif" font-size="10.00">+</text>
<text text-anchor="start" x="234" y="-1365" font-family="Helvetica,sans-Serif" font-size="10.00">UpdateUntil()</text>
<text text-anchor="start" x="224" y="-1350" font-family="Helvetica,sans-Serif" font-size="10.00">+</text>
<text text-anchor="start" x="234" y="-1350" font-family="Helvetica,sans-Serif" font-size="10.00">Finalize()</text>
<text text-anchor="start" x="224" y="-1335" font-family="Helvetica,sans-Serif" font-size="10.00">+</text>
<text text-anchor="start" x="234" y="-1335" font-family="Helvetica,sans-Serif" font-size="10.00">GetComponentName()</text>
<text text-anchor="start" x="224" y="-1320" font-family="Helvetica,sans-Serif" font-size="10.00">+</text>
<text text-anchor="start" x="234" y="-1320" font-family="Helvetica,sans-Serif" font-size="10.00">GetInputItemCount()</text>
<text text-anchor="start" x="224" y="-1305" font-family="Helvetica,sans-Serif" font-size="10.00">+</text>
<text text-anchor="start" x="234" y="-1305" font-family="Helvetica,sans-Serif" font-size="10.00">GetOutputItemCount()</text>
<text text-anchor="start" x="224" y="-1290" font-family="Helvetica,sans-Serif" font-size="10.00">+</text>
<text text-anchor="start" x="234" y="-1290" font-family="Helvetica,sans-Serif" font-size="10.00">GetInputVarNames()</text>
<text text-anchor="start" x="224" y="-1275" font-family="Helvetica,sans-Serif" font-size="10.00">+</text>
<text text-anchor="start" x="234" y="-1275" font-family="Helvetica,sans-Serif" font-size="10.00">GetOutputVarNames()</text>
<text text-anchor="start" x="224" y="-1260" font-family="Helvetica,sans-Serif" font-size="10.00">+</text>
<text text-anchor="start" x="234" y="-1260" font-family="Helvetica,sans-Serif" font-size="10.00">GetVarGrid()</text>
<text text-anchor="start" x="224" y="-1245" font-family="Helvetica,sans-Serif" font-size="10.00">+</text>
<text text-anchor="start" x="234" y="-1245" font-family="Helvetica,sans-Serif" font-size="10.00">GetVarType()</text>
<text text-anchor="start" x="224" y="-1230" font-family="Helvetica,sans-Serif" font-size="10.00">+</text>
<text text-anchor="start" x="234" y="-1230" font-family="Helvetica,sans-Serif" font-size="10.00">GetVarUnits()</text>
<text text-anchor="start" x="224" y="-1215" font-family="Helvetica,sans-Serif" font-size="10.00">+</text>
<text text-anchor="start" x="234" y="-1215" font-family="Helvetica,sans-Serif" font-size="10.00">GetVarItemsize()</text>
<text text-anchor="start" x="224" y="-1200" font-family="Helvetica,sans-Serif" font-size="10.00">+</text>
<text text-anchor="start" x="234" y="-1200" font-family="Helvetica,sans-Serif" font-size="10.00">GetVarNbytes()</text>
<text text-anchor="start" x="234" y="-1185" font-family="Helvetica,sans-Serif" font-size="10.00">and 27 more...</text>
<polygon fill="#666666" stroke="#666666" points="220,-1436.5 220,-1436.5 335,-1436.5 335,-1436.5 220,-1436.5"/>
<polygon fill="#666666" stroke="#666666" points="220,-1421.5 220,-1421.5 335,-1421.5 335,-1421.5 220,-1421.5"/>
<polygon fill="none" stroke="#666666" points="220,-1179.5 220,-1453.5 335,-1453.5 335,-1179.5 220,-1179.5"/>
</a>
</g>
</g>
<!-- Node4&#45;&gt;Node3 -->
<g id="edge3_Node000003_Node000004" class="edge">
<title>Node4&#45;&gt;Node3</title>
<g id="a_edge3_Node000003_Node000004"><a xlink:title=" ">
<path fill="none" stroke="#63b8ff" d="M322.99,-1168.78C327.88,-1153.01 332.88,-1136.89 337.83,-1120.93"/>
<polygon fill="none" stroke="#63b8ff" points="319.69,-1167.61 320.07,-1178.2 326.38,-1169.68 319.69,-1167.61"/>
</a>
</g>
</g>
<!-- Node5 -->
<g id="Node000005" class="node">
<title>Node5</title>
<g id="a_Node000005"><a xlink:title=" ">
<polygon fill="white" stroke="none" points="567.5,-1781 515.5,-1781 515.5,-1732 567.5,-1732 567.5,-1781"/>
<text text-anchor="start" x="520.5" y="-1767.5" font-family="Helvetica,sans-Serif" font-size="10.00">std::string</text>
<text text-anchor="start" x="540" y="-1752.5" font-family="Helvetica,sans-Serif" font-size="10.00"> </text>
<text text-anchor="start" x="540" y="-1737.5" font-family="Helvetica,sans-Serif" font-size="10.00"> </text>
<polygon fill="#666666" stroke="#666666" points="515.5,-1764 515.5,-1764 567.5,-1764 567.5,-1764 515.5,-1764"/>
<polygon fill="#666666" stroke="#666666" points="515.5,-1749 515.5,-1749 567.5,-1749 567.5,-1749 515.5,-1749"/>
<polygon fill="none" stroke="#666666" points="515.5,-1732 515.5,-1781 567.5,-1781 567.5,-1732 515.5,-1732"/>
</a>
</g>
</g>
<!-- Node5&#45;&gt;Node1 -->
<g id="edge16_Node000001_Node000005" class="edge">
<title>Node5&#45;&gt;Node1</title>
<g id="a_edge16_Node000001_Node000005"><a xlink:title=" ">
<path fill="none" stroke="#63b8ff" d="M567.28,-1737.73C610.65,-1705.51 693.5,-1632.95 693.5,-1548.75 693.5,-1548.75 693.5,-1548.75 693.5,-658.5 693.5,-559.28 649.8,-455.45 608.37,-379.3"/>
<polygon fill="none" stroke="#63b8ff" points="608.51,-379.57 602.11,-376.25 602.71,-369.06 609.12,-372.38 608.51,-379.57"/>
</a>
</g>
<text text-anchor="middle" x="725" y="-1146.38" font-family="Helvetica,sans-Serif" font-size="10.00" fill="grey"> #model_name</text>
</g>
<!-- Node5&#45;&gt;Node2 -->
<g id="edge15_Node000002_Node000005" class="edge">
<title>Node5&#45;&gt;Node2</title>
<g id="a_edge15_Node000002_Node000005"><a xlink:title=" ">
<path fill="none" stroke="#63b8ff" d="M551.4,-1732.11C566.49,-1694.28 593.5,-1617.04 593.5,-1548.75 593.5,-1548.75 593.5,-1548.75 593.5,-955.5 593.5,-892.3 580.52,-822.88 566.85,-767.27"/>
<polygon fill="none" stroke="#63b8ff" points="566.88,-767.41 561.54,-762.57 563.96,-755.77 569.3,-760.62 566.88,-767.41"/>
</a>
</g>
<text text-anchor="middle" x="629.5" y="-1323.88" font-family="Helvetica,sans-Serif" font-size="10.00" fill="grey"> &#45;bmi_lib_file</text>
<text text-anchor="start" x="593.5" y="-1312.62" font-family="Helvetica,sans-Serif" font-size="10.00" fill="grey">&#45;bmi_registration</text>
<text text-anchor="middle" x="629.5" y="-1301.38" font-family="Helvetica,sans-Serif" font-size="10.00" fill="grey">_function</text>
</g>
<!-- Node5&#45;&gt;Node3 -->
<g id="edge4_Node000003_Node000005" class="edge">
<title>Node5&#45;&gt;Node3</title>
<g id="a_edge4_Node000003_Node000005"><a xlink:title=" ">
<path fill="none" stroke="#63b8ff" d="M535.53,-1732.24C524.53,-1688.26 501.25,-1589.73 491,-1505.25 471.38,-1343.51 514.96,-1297.07 475.5,-1139 471.13,-1121.51 464.99,-1103.69 457.97,-1086.4"/>
<polygon fill="none" stroke="#63b8ff" points="457.98,-1086.41 451.97,-1082.43 453.33,-1075.35 459.34,-1079.33 457.98,-1086.41"/>
</a>
</g>
<text text-anchor="middle" x="535.75" y="-1495.75" font-family="Helvetica,sans-Serif" font-size="10.00" fill="grey"> #bmi_init_config</text>
<text text-anchor="middle" x="535.75" y="-1484.5" font-family="Helvetica,sans-Serif" font-size="10.00" fill="grey">#init_exception_msg</text>
<text text-anchor="middle" x="535.75" y="-1473.25" font-family="Helvetica,sans-Serif" font-size="10.00" fill="grey">#model_name</text>
</g>
<!-- Node11 -->
<g id="Node000011" class="node">
<title>Node11</title>
<g id="a_Node000011"><a xlink:title=" ">
<polygon fill="white" stroke="none" points="461,-1572.25 348,-1572.25 348,-1523.25 461,-1523.25 461,-1572.25"/>
<text text-anchor="start" x="352.75" y="-1558.75" font-family="Helvetica,sans-Serif" font-size="10.00">std::vector&lt; std::string &gt;</text>
<text text-anchor="start" x="403" y="-1543.75" font-family="Helvetica,sans-Serif" font-size="10.00"> </text>
<text text-anchor="start" x="403" y="-1528.75" font-family="Helvetica,sans-Serif" font-size="10.00"> </text>
<polygon fill="#666666" stroke="#666666" points="348,-1555.25 348,-1555.25 461,-1555.25 461,-1555.25 348,-1555.25"/>
<polygon fill="#666666" stroke="#666666" points="348,-1540.25 348,-1540.25 461,-1540.25 461,-1540.25 348,-1540.25"/>
<polygon fill="none" stroke="#666666" points="348,-1523.25 348,-1572.25 461,-1572.25 461,-1523.25 348,-1523.25"/>
</a>
</g>
</g>
<!-- Node5&#45;&gt;Node11 -->
<g id="edge11_Node000011_Node000005" class="edge">
<title>Node5&#45;&gt;Node11</title>
<g id="a_edge11_Node000011_Node000005"><a xlink:title=" ">
<path fill="none" stroke="#63b8ff" d="M521.56,-1732.13C497.27,-1702.91 455.97,-1650.74 427.5,-1601.5 424.32,-1596.01 421.31,-1589.99 418.57,-1584.05"/>
<polygon fill="none" stroke="#63b8ff" points="418.53,-1583.97 412.47,-1580.08 413.73,-1572.98 419.8,-1576.87 418.53,-1583.97"/>
</a>
</g>
<text text-anchor="middle" x="451.5" y="-1592" font-family="Helvetica,sans-Serif" font-size="10.00" fill="grey"> +elements</text>
</g>
<!-- Node6 -->
<g id="Node000006" class="node">
<title>Node6</title>
<g id="a_Node000006"><a xlink:title=" ">
<polygon fill="white" stroke="none" points="584.5,-2000.75 498.5,-2000.75 498.5,-1940.75 584.5,-1940.75 584.5,-2000.75"/>
<text text-anchor="start" x="503.25" y="-1987.25" font-family="Helvetica,sans-Serif" font-size="10.00">std::basic_string&lt;</text>
<text text-anchor="start" x="526.12" y="-1976" font-family="Helvetica,sans-Serif" font-size="10.00"> Char &gt;</text>
<text text-anchor="start" x="540" y="-1961.25" font-family="Helvetica,sans-Serif" font-size="10.00"> </text>
<text text-anchor="start" x="540" y="-1946.25" font-family="Helvetica,sans-Serif" font-size="10.00"> </text>
<polygon fill="#666666" stroke="#666666" points="498.5,-1972.75 498.5,-1972.75 584.5,-1972.75 584.5,-1972.75 498.5,-1972.75"/>
<polygon fill="#666666" stroke="#666666" points="498.5,-1957.75 498.5,-1957.75 584.5,-1957.75 584.5,-1957.75 498.5,-1957.75"/>
<polygon fill="none" stroke="#666666" points="498.5,-1940.75 498.5,-2000.75 584.5,-2000.75 584.5,-1940.75 498.5,-1940.75"/>
</a>
</g>
</g>
<!-- Node6&#45;&gt;Node5 -->
<g id="edge5_Node000005_Node000006" class="edge">
<title>Node6&#45;&gt;Node5</title>
<g id="a_edge5_Node000005_Node000006"><a xlink:title=" ">
<path fill="none" stroke="#63b8ff" d="M541.5,-1929.71C541.5,-1885.74 541.5,-1816.63 541.5,-1780.79"/>
<polygon fill="none" stroke="#63b8ff" points="538,-1929.61 541.5,-1939.61 545,-1929.61 538,-1929.61"/>
</a>
</g>
</g>
<!-- Node7 -->
<g id="Node000007" class="node">
<title>Node7</title>
<g id="a_Node000007"><a xlink:title=" ">
<polygon fill="white" stroke="none" points="201.5,-1341 83.5,-1341 83.5,-1292 201.5,-1292 201.5,-1341"/>
<text text-anchor="start" x="88.12" y="-1327.5" font-family="Helvetica,sans-Serif" font-size="10.00">std::shared_ptr&lt; double &gt;</text>
<text text-anchor="start" x="100" y="-1312.5" font-family="Helvetica,sans-Serif" font-size="10.00">+</text>
<text text-anchor="start" x="122.5" y="-1312.5" font-family="Helvetica,sans-Serif" font-size="10.00">ptr</text>
<text text-anchor="start" x="100" y="-1297.5" font-family="Helvetica,sans-Serif" font-size="10.00">+</text>
<text text-anchor="start" x="122.5" y="-1297.5" font-family="Helvetica,sans-Serif" font-size="10.00">operator&#45;&gt;()</text>
<polygon fill="#666666" stroke="#666666" points="83.5,-1324 83.5,-1324 201.5,-1324 201.5,-1324 83.5,-1324"/>
<polygon fill="#666666" stroke="#666666" points="83.5,-1309 83.5,-1309 120.5,-1309 120.5,-1309 83.5,-1309"/>
<polygon fill="#666666" stroke="#666666" points="120.5,-1309 120.5,-1309 201.5,-1309 201.5,-1309 120.5,-1309"/>
<polygon fill="none" stroke="#666666" points="83.5,-1292 83.5,-1341 201.5,-1341 201.5,-1292 83.5,-1292"/>
</a>
</g>
</g>
<!-- Node7&#45;&gt;Node3 -->
<g id="edge6_Node000003_Node000007" class="edge">
<title>Node7&#45;&gt;Node3</title>
<g id="a_edge6_Node000003_Node000007"><a xlink:title=" ">
<path fill="none" stroke="#63b8ff" d="M145.85,-1292.21C151.76,-1256.88 166.42,-1188.59 197.25,-1139 227.77,-1089.9 274.73,-1045.07 314.47,-1012.25"/>
<polygon fill="none" stroke="#63b8ff" points="314.4,-1012.31 316.53,-1005.42 323.71,-1004.74 321.58,-1011.63 314.4,-1012.31"/>
</a>
</g>
<text text-anchor="middle" x="260.12" y="-1146.38" font-family="Helvetica,sans-Serif" font-size="10.00" fill="grey"> #bmi_model_time_step_size</text>
</g>
<!-- Node8 -->
<g id="Node000008" class="node">
<title>Node8</title>
<g id="a_Node000008"><a xlink:title=" ">
<polygon fill="white" stroke="none" points="314.5,-1572.25 218.5,-1572.25 218.5,-1523.25 314.5,-1523.25 314.5,-1572.25"/>
<text text-anchor="start" x="223.38" y="-1558.75" font-family="Helvetica,sans-Serif" font-size="10.00">std::shared_ptr&lt; T &gt;</text>
<text text-anchor="start" x="265" y="-1543.75" font-family="Helvetica,sans-Serif" font-size="10.00"> </text>
<text text-anchor="start" x="229.5" y="-1528.75" font-family="Helvetica,sans-Serif" font-size="10.00">+</text>
<text text-anchor="start" x="246.5" y="-1528.75" font-family="Helvetica,sans-Serif" font-size="10.00">operator&#45;&gt;()</text>
<polygon fill="#666666" stroke="#666666" points="218.5,-1555.25 218.5,-1555.25 314.5,-1555.25 314.5,-1555.25 218.5,-1555.25"/>
<polygon fill="#666666" stroke="#666666" points="218.5,-1540.25 218.5,-1540.25 314.5,-1540.25 314.5,-1540.25 218.5,-1540.25"/>
<polygon fill="none" stroke="#666666" points="218.5,-1523.25 218.5,-1572.25 314.5,-1572.25 314.5,-1523.25 218.5,-1523.25"/>
</a>
</g>
</g>
<!-- Node8&#45;&gt;Node7 -->
<g id="edge7_Node000007_Node000008" class="edge">
<title>Node8&#45;&gt;Node7</title>
<g id="a_edge7_Node000007_Node000008"><a xlink:title=" ">
<path fill="none" stroke="orange" d="M225.07,-1515.64C221.86,-1512.34 218.87,-1508.86 216.25,-1505.25 178.22,-1452.8 156.64,-1378.11 147.6,-1340.71"/>
<polygon fill="orange" stroke="orange" points="222.58,-1518.1 232.25,-1522.43 227.39,-1513.02 222.58,-1518.1"/>
</a>
</g>
<text text-anchor="middle" x="240.12" y="-1484.5" font-family="Helvetica,sans-Serif" font-size="10.00" fill="grey"> &lt; double &gt;</text>
</g>
<!-- Node10 -->
<g id="Node000010" class="node">
<title>Node10</title>
<g id="a_Node000010"><a xlink:title=" ">
<polygon fill="white" stroke="none" points="461.5,-1346.5 353.5,-1346.5 353.5,-1286.5 461.5,-1286.5 461.5,-1346.5"/>
<text text-anchor="start" x="358.38" y="-1333" font-family="Helvetica,sans-Serif" font-size="10.00">std::shared_ptr&lt; std</text>
<text text-anchor="start" x="358.38" y="-1321.75" font-family="Helvetica,sans-Serif" font-size="10.00">::vector&lt; std::string &gt; &gt;</text>
<text text-anchor="start" x="406" y="-1307" font-family="Helvetica,sans-Serif" font-size="10.00"> </text>
<text text-anchor="start" x="367.5" y="-1292" font-family="Helvetica,sans-Serif" font-size="10.00">+</text>
<text text-anchor="start" x="387.5" y="-1292" font-family="Helvetica,sans-Serif" font-size="10.00">operator&#45;&gt;()</text>
<polygon fill="#666666" stroke="#666666" points="353.5,-1318.5 353.5,-1318.5 461.5,-1318.5 461.5,-1318.5 353.5,-1318.5"/>
<polygon fill="#666666" stroke="#666666" points="353.5,-1303.5 353.5,-1303.5 461.5,-1303.5 461.5,-1303.5 353.5,-1303.5"/>
<polygon fill="none" stroke="#666666" points="353.5,-1286.5 353.5,-1346.5 461.5,-1346.5 461.5,-1286.5 353.5,-1286.5"/>
</a>
</g>
</g>
<!-- Node8&#45;&gt;Node10 -->
<g id="edge14_Node000010_Node000008" class="edge">
<title>Node8&#45;&gt;Node10</title>
<g id="a_edge14_Node000010_Node000008"><a xlink:title=" ">
<path fill="none" stroke="orange" d="M289.41,-1514.52C299.59,-1500.84 312.02,-1484.98 324.25,-1471.5 332.12,-1462.82 336.61,-1462.97 343.5,-1453.5 368.08,-1419.75 386.93,-1375.06 397.62,-1346.29"/>
<polygon fill="orange" stroke="orange" points="286.75,-1512.23 283.65,-1522.36 292.39,-1516.38 286.75,-1512.23"/>
</a>
</g>
<text text-anchor="start" x="324.5" y="-1490.12" font-family="Helvetica,sans-Serif" font-size="10.00" fill="grey"> &lt; std::vector&lt; std</text>
<text text-anchor="middle" x="363.12" y="-1478.88" font-family="Helvetica,sans-Serif" font-size="10.00" fill="grey">::string &gt; &gt;</text>
</g>
<!-- Node9 -->
<g id="Node000009" class="node">
<title>Node9</title>
<g id="a_Node000009"><a xlink:title=" ">
<polygon fill="white" stroke="none" points="274.5,-1995.25 258.5,-1995.25 258.5,-1946.25 274.5,-1946.25 274.5,-1995.25"/>
<text text-anchor="start" x="263.5" y="-1981.75" font-family="Helvetica,sans-Serif" font-size="10.00">T</text>
<text text-anchor="start" x="265" y="-1966.75" font-family="Helvetica,sans-Serif" font-size="10.00"> </text>
<text text-anchor="start" x="265" y="-1951.75" font-family="Helvetica,sans-Serif" font-size="10.00"> </text>
<polygon fill="#666666" stroke="#666666" points="258.5,-1978.25 258.5,-1978.25 274.5,-1978.25 274.5,-1978.25 258.5,-1978.25"/>
<polygon fill="#666666" stroke="#666666" points="258.5,-1963.25 258.5,-1963.25 274.5,-1963.25 274.5,-1963.25 258.5,-1963.25"/>
<polygon fill="none" stroke="#666666" points="258.5,-1946.25 258.5,-1995.25 274.5,-1995.25 274.5,-1946.25 258.5,-1946.25"/>
</a>
</g>
</g>
<!-- Node9&#45;&gt;Node8 -->
<g id="edge8_Node000008_Node000009" class="edge">
<title>Node9&#45;&gt;Node8</title>
<g id="a_edge8_Node000008_Node000009"><a xlink:title=" ">
<path fill="none" stroke="#63b8ff" d="M266.5,-1946.52C266.5,-1876.87 266.5,-1669.47 266.5,-1585.08"/>
<polygon fill="none" stroke="#63b8ff" points="266.5,-1585.07 262.5,-1579.07 266.5,-1573.07 270.5,-1579.07 266.5,-1585.07"/>
</a>
</g>
<text text-anchor="middle" x="276.25" y="-1752.62" font-family="Helvetica,sans-Serif" font-size="10.00" fill="grey"> +ptr</text>
</g>
<!-- Node12 -->
<g id="Node000012" class="node">
<title>Node12</title>
<g id="a_Node000012"><a xlink:title=" ">
<polygon fill="white" stroke="none" points="381,-1781 304,-1781 304,-1732 381,-1732 381,-1781"/>
<text text-anchor="start" x="308.75" y="-1767.5" font-family="Helvetica,sans-Serif" font-size="10.00">std::vector&lt; T &gt;</text>
<text text-anchor="start" x="341" y="-1752.5" font-family="Helvetica,sans-Serif" font-size="10.00"> </text>
<text text-anchor="start" x="341" y="-1737.5" font-family="Helvetica,sans-Serif" font-size="10.00"> </text>
<polygon fill="#666666" stroke="#666666" points="304,-1764 304,-1764 381,-1764 381,-1764 304,-1764"/>
<polygon fill="#666666" stroke="#666666" points="304,-1749 304,-1749 381,-1749 381,-1749 304,-1749"/>
<polygon fill="none" stroke="#666666" points="304,-1732 304,-1781 381,-1781 381,-1732 304,-1732"/>
</a>
</g>
</g>
<!-- Node9&#45;&gt;Node12 -->
<g id="edge13_Node000012_Node000009" class="edge">
<title>Node9&#45;&gt;Node12</title>
<g id="a_edge13_Node000012_Node000009"><a xlink:title=" ">
<path fill="none" stroke="#63b8ff" d="M274.49,-1947.44C287.67,-1910.63 314.08,-1836.88 329.83,-1792.89"/>
<polygon fill="none" stroke="#63b8ff" points="329.81,-1792.95 328.06,-1785.95 333.85,-1781.65 335.6,-1788.65 329.81,-1792.95"/>
</a>
</g>
<text text-anchor="middle" x="311.5" y="-1913.25" font-family="Helvetica,sans-Serif" font-size="10.00" fill="grey"> +elements</text>
</g>
<!-- Node15 -->
<g id="Node000015" class="node">
<title>Node15</title>
<g id="a_Node000015"><a xlink:title=" ">
<polygon fill="white" stroke="none" points="95,-1781 0,-1781 0,-1732 95,-1732 95,-1781"/>
<text text-anchor="start" x="4.75" y="-1767.5" font-family="Helvetica,sans-Serif" font-size="10.00">std::unique_ptr&lt; T &gt;</text>
<text text-anchor="start" x="46" y="-1752.5" font-family="Helvetica,sans-Serif" font-size="10.00"> </text>
<text text-anchor="start" x="10.5" y="-1737.5" font-family="Helvetica,sans-Serif" font-size="10.00">+</text>
<text text-anchor="start" x="27" y="-1737.5" font-family="Helvetica,sans-Serif" font-size="10.00">operator&#45;&gt;()</text>
<polygon fill="#666666" stroke="#666666" points="0,-1764 0,-1764 95,-1764 95,-1764 0,-1764"/>
<polygon fill="#666666" stroke="#666666" points="0,-1749 0,-1749 95,-1749 95,-1749 0,-1749"/>
<polygon fill="none" stroke="#666666" points="0,-1732 0,-1781 95,-1781 95,-1732 0,-1732"/>
</a>
</g>
</g>
<!-- Node9&#45;&gt;Node15 -->
<g id="edge20_Node000015_Node000009" class="edge">
<title>Node9&#45;&gt;Node15</title>
<g id="a_edge20_Node000015_Node000009"><a xlink:title=" ">
<path fill="none" stroke="#63b8ff" d="M258.5,-1968.17C232.55,-1962.65 149.65,-1941.87 103.5,-1893.5 76.86,-1865.58 62.16,-1823.22 54.58,-1793.21"/>
<polygon fill="none" stroke="#63b8ff" points="54.61,-1793.34 49.35,-1788.41 51.88,-1781.66 57.14,-1786.59 54.61,-1793.34"/>
</a>
</g>
<text text-anchor="middle" x="147.25" y="-1913.25" font-family="Helvetica,sans-Serif" font-size="10.00" fill="grey"> +ptr</text>
</g>
<!-- Node10&#45;&gt;Node3 -->
<g id="edge9_Node000003_Node000010" class="edge">
<title>Node10&#45;&gt;Node3</title>
<g id="a_edge9_Node000003_Node000010"><a xlink:title=" ">
<path fill="none" stroke="#63b8ff" d="M403.3,-1286.63C399.01,-1255.74 392.64,-1205.28 390,-1161.5 389.45,-1152.45 389,-1143.16 388.63,-1133.79"/>
<polygon fill="none" stroke="#63b8ff" points="388.63,-1133.85 384.42,-1127.99 388.21,-1121.85 392.42,-1127.71 388.63,-1133.85"/>
</a>
</g>
<text text-anchor="middle" x="433.25" y="-1152" font-family="Helvetica,sans-Serif" font-size="10.00" fill="grey"> #input_var_names</text>
<text text-anchor="middle" x="433.25" y="-1140.75" font-family="Helvetica,sans-Serif" font-size="10.00" fill="grey">#output_var_names</text>
</g>
<!-- Node11&#45;&gt;Node10 -->
<g id="edge10_Node000010_Node000011" class="edge">
<title>Node11&#45;&gt;Node10</title>
<g id="a_edge10_Node000010_Node000011"><a xlink:title=" ">
<path fill="none" stroke="#63b8ff" d="M404.8,-1523.51C405.31,-1484.99 406.32,-1407.4 406.95,-1359.21"/>
<polygon fill="none" stroke="#63b8ff" points="406.96,-1359.06 403.03,-1353.01 407.11,-1347.06 411.03,-1353.11 406.96,-1359.06"/>
</a>
</g>
<text text-anchor="middle" x="415.25" y="-1484.5" font-family="Helvetica,sans-Serif" font-size="10.00" fill="grey"> +ptr</text>
</g>
<!-- Node12&#45;&gt;Node11 -->
<g id="edge12_Node000011_Node000012" class="edge">
<title>Node12&#45;&gt;Node11</title>
<g id="a_edge12_Node000011_Node000012"><a xlink:title=" ">
<path fill="none" stroke="orange" d="M333.95,-1721.14C327.15,-1686.05 321.99,-1631.08 343.75,-1590.25 347.47,-1583.26 352.96,-1577.22 359.13,-1572.09"/>
<polygon fill="orange" stroke="orange" points="330.49,-1721.68 335.97,-1730.74 337.34,-1720.24 330.49,-1721.68"/>
</a>
</g>
<text text-anchor="middle" x="374.88" y="-1592" font-family="Helvetica,sans-Serif" font-size="10.00" fill="grey"> &lt; std::string &gt;</text>
</g>
<!-- Node13 -->
<g id="Node000013" class="node">
<title>Node13</title>
<g id="a_Node000013"><a xlink:title=" ">
<polygon fill="white" stroke="none" points="108.5,-1572.25 2.5,-1572.25 2.5,-1523.25 108.5,-1523.25 108.5,-1572.25"/>
<text text-anchor="start" x="7.12" y="-1558.75" font-family="Helvetica,sans-Serif" font-size="10.00">std::unique_ptr&lt; Bmi &gt;</text>
<text text-anchor="start" x="54" y="-1543.75" font-family="Helvetica,sans-Serif" font-size="10.00"> </text>
<text text-anchor="start" x="16" y="-1528.75" font-family="Helvetica,sans-Serif" font-size="10.00">+</text>
<text text-anchor="start" x="35.5" y="-1528.75" font-family="Helvetica,sans-Serif" font-size="10.00">operator&#45;&gt;()</text>
<polygon fill="#666666" stroke="#666666" points="2.5,-1555.25 2.5,-1555.25 108.5,-1555.25 108.5,-1555.25 2.5,-1555.25"/>
<polygon fill="#666666" stroke="#666666" points="2.5,-1540.25 2.5,-1540.25 108.5,-1540.25 108.5,-1540.25 2.5,-1540.25"/>
<polygon fill="none" stroke="#666666" points="2.5,-1523.25 2.5,-1572.25 108.5,-1572.25 108.5,-1523.25 2.5,-1523.25"/>
</a>
</g>
</g>
<!-- Node13&#45;&gt;Node1 -->
<g id="edge17_Node000001_Node000013" class="edge">
<title>Node13&#45;&gt;Node1</title>
<g id="a_edge17_Node000001_Node000013"><a xlink:title=" ">
<path fill="none" stroke="#63b8ff" d="M55.5,-1523.32C55.5,-1481.83 55.5,-1392.72 55.5,-1317.5 55.5,-1317.5 55.5,-1317.5 55.5,-658.5 55.5,-453.51 320.28,-335.68 456.53,-288.61"/>
<polygon fill="none" stroke="#63b8ff" points="456.29,-288.7 460.68,-282.98 467.65,-284.84 463.26,-290.55 456.29,-288.7"/>
</a>
</g>
<text text-anchor="middle" x="81.75" y="-952.62" font-family="Helvetica,sans-Serif" font-size="10.00" fill="grey"> &#45;bmi_model</text>
</g>
<!-- Node14 -->
<g id="Node000014" class="node">
<title>Node14</title>
<g id="a_Node000014"><a xlink:href="struct_bmi.html" target="_top" xlink:title=" ">
<polygon fill="white" stroke="none" points="230,-1893.5 113,-1893.5 113,-1619.5 230,-1619.5 230,-1893.5"/>
<text text-anchor="start" x="162.88" y="-1880" font-family="Helvetica,sans-Serif" font-size="10.00">Bmi</text>
<text text-anchor="start" x="117" y="-1865" font-family="Helvetica,sans-Serif" font-size="10.00">+</text>
<text text-anchor="start" x="127" y="-1865" font-family="Helvetica,sans-Serif" font-size="10.00">data</text>
<text text-anchor="start" x="117" y="-1850" font-family="Helvetica,sans-Serif" font-size="10.00">+</text>
<text text-anchor="start" x="127" y="-1850" font-family="Helvetica,sans-Serif" font-size="10.00">initialize</text>
<text text-anchor="start" x="117" y="-1835" font-family="Helvetica,sans-Serif" font-size="10.00">+</text>
<text text-anchor="start" x="127" y="-1835" font-family="Helvetica,sans-Serif" font-size="10.00">update</text>
<text text-anchor="start" x="117" y="-1820" font-family="Helvetica,sans-Serif" font-size="10.00">+</text>
<text text-anchor="start" x="127" y="-1820" font-family="Helvetica,sans-Serif" font-size="10.00">update_until</text>
<text text-anchor="start" x="117" y="-1805" font-family="Helvetica,sans-Serif" font-size="10.00">+</text>
<text text-anchor="start" x="127" y="-1805" font-family="Helvetica,sans-Serif" font-size="10.00">finalize</text>
<text text-anchor="start" x="117" y="-1790" font-family="Helvetica,sans-Serif" font-size="10.00">+</text>
<text text-anchor="start" x="127" y="-1790" font-family="Helvetica,sans-Serif" font-size="10.00">get_component_name</text>
<text text-anchor="start" x="117" y="-1775" font-family="Helvetica,sans-Serif" font-size="10.00">+</text>
<text text-anchor="start" x="127" y="-1775" font-family="Helvetica,sans-Serif" font-size="10.00">get_input_item_count</text>
<text text-anchor="start" x="117" y="-1760" font-family="Helvetica,sans-Serif" font-size="10.00">+</text>
<text text-anchor="start" x="127" y="-1760" font-family="Helvetica,sans-Serif" font-size="10.00">get_output_item_count</text>
<text text-anchor="start" x="117" y="-1745" font-family="Helvetica,sans-Serif" font-size="10.00">+</text>
<text text-anchor="start" x="127" y="-1745" font-family="Helvetica,sans-Serif" font-size="10.00">get_input_var_names</text>
<text text-anchor="start" x="117" y="-1730" font-family="Helvetica,sans-Serif" font-size="10.00">+</text>
<text text-anchor="start" x="127" y="-1730" font-family="Helvetica,sans-Serif" font-size="10.00">get_output_var_names</text>
<text text-anchor="start" x="117" y="-1715" font-family="Helvetica,sans-Serif" font-size="10.00">+</text>
<text text-anchor="start" x="127" y="-1715" font-family="Helvetica,sans-Serif" font-size="10.00">get_var_grid</text>
<text text-anchor="start" x="117" y="-1700" font-family="Helvetica,sans-Serif" font-size="10.00">+</text>
<text text-anchor="start" x="127" y="-1700" font-family="Helvetica,sans-Serif" font-size="10.00">get_var_type</text>
<text text-anchor="start" x="117" y="-1685" font-family="Helvetica,sans-Serif" font-size="10.00">+</text>
<text text-anchor="start" x="127" y="-1685" font-family="Helvetica,sans-Serif" font-size="10.00">get_var_units</text>
<text text-anchor="start" x="117" y="-1670" font-family="Helvetica,sans-Serif" font-size="10.00">+</text>
<text text-anchor="start" x="127" y="-1670" font-family="Helvetica,sans-Serif" font-size="10.00">get_var_itemsize</text>
<text text-anchor="start" x="117" y="-1655" font-family="Helvetica,sans-Serif" font-size="10.00">+</text>
<text text-anchor="start" x="127" y="-1655" font-family="Helvetica,sans-Serif" font-size="10.00">get_var_nbytes</text>
<text text-anchor="start" x="127" y="-1640" font-family="Helvetica,sans-Serif" font-size="10.00">and 27 more...</text>
<text text-anchor="start" x="170" y="-1625" font-family="Helvetica,sans-Serif" font-size="10.00"> </text>
<polygon fill="#666666" stroke="#666666" points="113,-1876.5 113,-1876.5 230,-1876.5 230,-1876.5 113,-1876.5"/>
<polygon fill="#666666" stroke="#666666" points="113,-1636.5 113,-1636.5 125,-1636.5 125,-1636.5 113,-1636.5"/>
<polygon fill="#666666" stroke="#666666" points="125,-1636.5 125,-1636.5 230,-1636.5 230,-1636.5 125,-1636.5"/>
<polygon fill="none" stroke="#666666" points="113,-1619.5 113,-1893.5 230,-1893.5 230,-1619.5 113,-1619.5"/>
</a>
</g>
</g>
<!-- Node14&#45;&gt;Node13 -->
<g id="edge18_Node000013_Node000014" class="edge">
<title>Node14&#45;&gt;Node13</title>
<g id="a_edge18_Node000013_Node000014"><a xlink:title=" ">
<path fill="none" stroke="#63b8ff" d="M113.04,-1620.47C107.17,-1610.01 100.98,-1599.82 94.5,-1590.25 92.59,-1587.43 90.49,-1584.62 88.28,-1581.86"/>
<polygon fill="none" stroke="#63b8ff" points="88.4,-1582 81.45,-1580.06 80.57,-1572.9 87.51,-1574.84 88.4,-1582"/>
</a>
</g>
<text text-anchor="middle" x="110.25" y="-1592" font-family="Helvetica,sans-Serif" font-size="10.00" fill="grey"> +ptr</text>
</g>
<!-- Node15&#45;&gt;Node13 -->
<g id="edge19_Node000013_Node000015" class="edge">
<title>Node15&#45;&gt;Node13</title>
<g id="a_edge19_Node000013_Node000015"><a xlink:title=" ">
<path fill="none" stroke="orange" d="M48.84,-1720.8C50.48,-1678.51 53.2,-1608.24 54.6,-1571.98"/>
<polygon fill="orange" stroke="orange" points="45.35,-1720.54 48.46,-1730.67 52.34,-1720.82 45.35,-1720.54"/>
</a>
</g>
<text text-anchor="middle" x="72.5" y="-1592" font-family="Helvetica,sans-Serif" font-size="10.00" fill="grey"> &lt; Bmi &gt;</text>
</g>
</g>
</svg>
