<?xml version="1.0" encoding="UTF-8" standalone="no"?>
<!DOCTYPE svg PUBLIC "-//W3C//DTD SVG 1.1//EN"
 "http://www.w3.org/Graphics/SVG/1.1/DTD/svg11.dtd">
<!-- Generated by graphviz version 9.0.0 (20230911.1827)
 -->
<!-- Title: HY_CartographicRealization Pages: 1 -->
<svg width="158pt" height="232pt"
 viewBox="0.00 0.00 158.00 232.00" xmlns="http://www.w3.org/2000/svg" xmlns:xlink="http://www.w3.org/1999/xlink">
<g id="graph0" class="graph" transform="scale(1 1) rotate(0) translate(4 228)">
<title>HY_CartographicRealization</title>
<!-- Node1 -->
<g id="Node000001" class="node">
<title>Node1</title>
<g id="a_Node000001"><a xlink:title=" ">
<polygon fill="#999999" stroke="none" points="150,-64 0,-64 0,0 150,0 150,-64"/>
<text text-anchor="start" x="14.25" y="-50.5" font-family="Helvetica,sans-Serif" font-size="10.00">HY_CartographicRealization</text>
<text text-anchor="start" x="73.5" y="-35.5" font-family="Helvetica,sans-Serif" font-size="10.00"> </text>
<text text-anchor="start" x="4" y="-20.5" font-family="Helvetica,sans-Serif" font-size="10.00">+</text>
<text text-anchor="start" x="14" y="-20.5" font-family="Helvetica,sans-Serif" font-size="10.00">HY_CartographicRealization()</text>
<text text-anchor="start" x="4" y="-5.5" font-family="Helvetica,sans-Serif" font-size="10.00">+</text>
<text text-anchor="start" x="14" y="-5.5" font-family="Helvetica,sans-Serif" font-size="10.00">~HY_CartographicRealization()</text>
<polygon fill="#666666" stroke="#666666" points="0,-47 0,-47 150,-47 150,-47 0,-47"/>
<polygon fill="#666666" stroke="#666666" points="0,-32 0,-32 150,-32 150,-32 0,-32"/>
<polygon fill="none" stroke="#666666" points="0,0 0,-64 150,-64 150,0 0,0"/>
</a>
</g>
</g>
<!-- Node2 -->
<g id="Node000002" class="node">
<title>Node2</title>
<g id="a_Node000002"><a xlink:href="class_h_y___catchment_realization.html" target="_top" xlink:title=" ">
<polygon fill="white" stroke="none" points="146.5,-224 3.5,-224 3.5,-100 146.5,-100 146.5,-224"/>
<text text-anchor="start" x="18" y="-210.5" font-family="Helvetica,sans-Serif" font-size="10.00">HY_CatchmentRealization</text>
<text text-anchor="start" x="7.88" y="-195.5" font-family="Helvetica,sans-Serif" font-size="10.00">#</text>
<text text-anchor="start" x="17.5" y="-195.5" font-family="Helvetica,sans-Serif" font-size="10.00">realized_catchment</text>
<text text-anchor="start" x="7.88" y="-180.5" font-family="Helvetica,sans-Serif" font-size="10.00">#</text>
<text text-anchor="start" x="17.5" y="-180.5" font-family="Helvetica,sans-Serif" font-size="10.00">id_number</text>
<text text-anchor="start" x="7.5" y="-165.5" font-family="Helvetica,sans-Serif" font-size="10.00">+</text>
<text text-anchor="start" x="17.5" y="-165.5" font-family="Helvetica,sans-Serif" font-size="10.00">HY_CatchmentRealization()</text>
<text text-anchor="start" x="7.5" y="-150.5" font-family="Helvetica,sans-Serif" font-size="10.00">+</text>
<text text-anchor="start" x="17.5" y="-150.5" font-family="Helvetica,sans-Serif" font-size="10.00">~HY_CatchmentRealization()</text>
<text text-anchor="start" x="7.5" y="-135.5" font-family="Helvetica,sans-Serif" font-size="10.00">+</text>
<text text-anchor="start" x="17.5" y="-135.5" font-family="Helvetica,sans-Serif" font-size="10.00">get_response()</text>
<text text-anchor="start" x="7.88" y="-120.5" font-family="Helvetica,sans-Serif" font-size="10.00">#</text>
<text text-anchor="start" x="17.5" y="-120.5" font-family="Helvetica,sans-Serif" font-size="10.00">get_catchment_id()</text>
<text text-anchor="start" x="7.88" y="-105.5" font-family="Helvetica,sans-Serif" font-size="10.00">#</text>
<text text-anchor="start" x="17.5" y="-105.5" font-family="Helvetica,sans-Serif" font-size="10.00">set_catchment_id()</text>
<polygon fill="#666666" stroke="#666666" points="3.5,-207 3.5,-207 146.5,-207 146.5,-207 3.5,-207"/>
<polygon fill="#666666" stroke="#666666" points="3.5,-177 3.5,-177 15.5,-177 15.5,-177 3.5,-177"/>
<polygon fill="#666666" stroke="#666666" points="15.5,-177 15.5,-177 146.5,-177 146.5,-177 15.5,-177"/>
<polygon fill="none" stroke="#666666" points="3.5,-100 3.5,-224 146.5,-224 146.5,-100 3.5,-100"/>
</a>
</g>
</g>
<!-- Node2&#45;&gt;Node1 -->
<g id="edge1_Node000001_Node000002" class="edge">
<title>Node2&#45;&gt;Node1</title>
<g id="a_edge1_Node000001_Node000002"><a xlink:title=" ">
<path fill="none" stroke="#63b8ff" d="M75,-89.1C75,-80.24 75,-71.59 75,-63.84"/>
<polygon fill="none" stroke="#63b8ff" points="71.5,-88.86 75,-98.86 78.5,-88.86 71.5,-88.86"/>
</a>
</g>
</g>
</g>
</svg>
