<?xml version="1.0" encoding="UTF-8" standalone="no"?>
<!DOCTYPE svg PUBLIC "-//W3C//DTD SVG 1.1//EN"
 "http://www.w3.org/Graphics/SVG/1.1/DTD/svg11.dtd">
<!-- Generated by graphviz version 2.42.3 ()
 -->
<!-- Title: HY_Catchment Pages: 1 -->
<svg width="465pt" height="364pt"
 viewBox="0.00 0.00 465.00 364.00" xmlns="http://www.w3.org/2000/svg" xmlns:xlink="http://www.w3.org/1999/xlink">
<g id="graph0" class="graph" transform="scale(1 1) rotate(0) translate(4 360)">
<title>HY_Catchment</title>
<polygon fill="white" stroke="transparent" points="-4,4 -4,-360 461,-360 461,4 -4,4"/>
<!-- Node1 -->
<g id="node1" class="node">
<title>Node1</title>
<g id="a_node1"><a xlink:title=" ">
<polygon fill="#bfbfbf" stroke="black" points="175.5,-105.5 175.5,-250.5 295.5,-250.5 295.5,-105.5 175.5,-105.5"/>
<text text-anchor="middle" x="235.5" y="-238.5" font-family="Helvetica,sans-Serif" font-size="10.00">HY_Catchment</text>
<polyline fill="none" stroke="black" points="175.5,-231.5 295.5,-231.5 "/>
<text text-anchor="start" x="183.5" y="-219.5" font-family="Helvetica,sans-Serif" font-size="10.00">&#45; realization</text>
<text text-anchor="start" x="183.5" y="-208.5" font-family="Helvetica,sans-Serif" font-size="10.00">&#45; inflows</text>
<text text-anchor="start" x="183.5" y="-197.5" font-family="Helvetica,sans-Serif" font-size="10.00">&#45; outflows</text>
<text text-anchor="start" x="183.5" y="-186.5" font-family="Helvetica,sans-Serif" font-size="10.00">&#45; recieving_catchments</text>
<text text-anchor="start" x="183.5" y="-175.5" font-family="Helvetica,sans-Serif" font-size="10.00">&#45; contained_catchments</text>
<text text-anchor="start" x="183.5" y="-164.5" font-family="Helvetica,sans-Serif" font-size="10.00">&#45; containing_catchment</text>
<text text-anchor="start" x="183.5" y="-153.5" font-family="Helvetica,sans-Serif" font-size="10.00">&#45; id_number</text>
<text text-anchor="start" x="183.5" y="-142.5" font-family="Helvetica,sans-Serif" font-size="10.00">&#45; id</text>
<polyline fill="none" stroke="black" points="175.5,-135.5 295.5,-135.5 "/>
<text text-anchor="start" x="183.5" y="-123.5" font-family="Helvetica,sans-Serif" font-size="10.00">+ HY_Catchment()</text>
<text text-anchor="start" x="183.5" y="-112.5" font-family="Helvetica,sans-Serif" font-size="10.00">+ ~HY_Catchment()</text>
</a>
</g>
</g>
<!-- Node3 -->
<g id="node3" class="node">
<title>Node3</title>
<g id="a_node3"><a xlink:href="class_h_y___catchment_aggregate.html" target="_top" xlink:title=" ">
<polygon fill="white" stroke="black" points="0,-0.5 0,-68.5 147,-68.5 147,-0.5 0,-0.5"/>
<text text-anchor="middle" x="73.5" y="-56.5" font-family="Helvetica,sans-Serif" font-size="10.00">HY_CatchmentAggregate</text>
<polyline fill="none" stroke="black" points="0,-49.5 147,-49.5 "/>
<text text-anchor="middle" x="73.5" y="-37.5" font-family="Helvetica,sans-Serif" font-size="10.00"> </text>
<polyline fill="none" stroke="black" points="0,-30.5 147,-30.5 "/>
<text text-anchor="start" x="8" y="-18.5" font-family="Helvetica,sans-Serif" font-size="10.00">+ HY_CatchmentAggregate()</text>
<text text-anchor="start" x="8" y="-7.5" font-family="Helvetica,sans-Serif" font-size="10.00">+ ~HY_CatchmentAggregate()</text>
</a>
</g>
</g>
<!-- Node1&#45;&gt;Node3 -->
<g id="edge2" class="edge">
<title>Node1&#45;&gt;Node3</title>
<path fill="none" stroke="midnightblue" d="M167.58,-117.67C148.33,-100.86 128.07,-83.16 111.3,-68.51"/>
<polygon fill="none" stroke="midnightblue" points="165.34,-120.37 175.18,-124.31 169.95,-115.1 165.34,-120.37"/>
</g>
<!-- Node4 -->
<g id="node4" class="node">
<title>Node4</title>
<g id="a_node4"><a xlink:href="class_h_y___dendritic_catchment.html" target="_top" xlink:title=" ">
<polygon fill="white" stroke="black" points="165,-0.5 165,-68.5 306,-68.5 306,-0.5 165,-0.5"/>
<text text-anchor="middle" x="235.5" y="-56.5" font-family="Helvetica,sans-Serif" font-size="10.00">HY_DendriticCatchment</text>
<polyline fill="none" stroke="black" points="165,-49.5 306,-49.5 "/>
<text text-anchor="middle" x="235.5" y="-37.5" font-family="Helvetica,sans-Serif" font-size="10.00"> </text>
<polyline fill="none" stroke="black" points="165,-30.5 306,-30.5 "/>
<text text-anchor="start" x="173" y="-18.5" font-family="Helvetica,sans-Serif" font-size="10.00">+ HY_DendriticCatchment()</text>
<text text-anchor="start" x="173" y="-7.5" font-family="Helvetica,sans-Serif" font-size="10.00">+ ~HY_DendriticCatchment()</text>
</a>
</g>
</g>
<!-- Node1&#45;&gt;Node4 -->
<g id="edge3" class="edge">
<title>Node1&#45;&gt;Node4</title>
<path fill="none" stroke="midnightblue" d="M235.5,-95.19C235.5,-85.83 235.5,-76.73 235.5,-68.58"/>
<polygon fill="none" stroke="midnightblue" points="232,-95.42 235.5,-105.42 239,-95.42 232,-95.42"/>
</g>
<!-- Node5 -->
<g id="node5" class="node">
<title>Node5</title>
<g id="a_node5"><a xlink:href="class_h_y___interior_catchment.html" target="_top" xlink:title=" ">
<polygon fill="white" stroke="black" points="324,-0.5 324,-68.5 457,-68.5 457,-0.5 324,-0.5"/>
<text text-anchor="middle" x="390.5" y="-56.5" font-family="Helvetica,sans-Serif" font-size="10.00">HY_InteriorCatchment</text>
<polyline fill="none" stroke="black" points="324,-49.5 457,-49.5 "/>
<text text-anchor="middle" x="390.5" y="-37.5" font-family="Helvetica,sans-Serif" font-size="10.00"> </text>
<polyline fill="none" stroke="black" points="324,-30.5 457,-30.5 "/>
<text text-anchor="start" x="332" y="-18.5" font-family="Helvetica,sans-Serif" font-size="10.00">+ HY_InteriorCatchment()</text>
<text text-anchor="start" x="332" y="-7.5" font-family="Helvetica,sans-Serif" font-size="10.00">+ ~HY_InteriorCatchment()</text>
</a>
</g>
</g>
<!-- Node1&#45;&gt;Node5 -->
<g id="edge4" class="edge">
<title>Node1&#45;&gt;Node5</title>
<path fill="none" stroke="midnightblue" d="M303.33,-115.08C320.85,-99.08 339.04,-82.48 354.25,-68.6"/>
<polygon fill="none" stroke="midnightblue" points="300.9,-112.56 295.87,-121.89 305.62,-117.73 300.9,-112.56"/>
</g>
<!-- Node2 -->
<g id="node2" class="node">
<title>Node2</title>
<g id="a_node2"><a xlink:href="class_h_y___hydro_feature.html" target="_top" xlink:title=" ">
<polygon fill="white" stroke="black" points="178.5,-287.5 178.5,-355.5 292.5,-355.5 292.5,-287.5 178.5,-287.5"/>
<text text-anchor="middle" x="235.5" y="-343.5" font-family="Helvetica,sans-Serif" font-size="10.00">HY_HydroFeature</text>
<polyline fill="none" stroke="black" points="178.5,-336.5 292.5,-336.5 "/>
<text text-anchor="middle" x="235.5" y="-324.5" font-family="Helvetica,sans-Serif" font-size="10.00"> </text>
<polyline fill="none" stroke="black" points="178.5,-317.5 292.5,-317.5 "/>
<text text-anchor="start" x="186.5" y="-305.5" font-family="Helvetica,sans-Serif" font-size="10.00">+ HY_HydroFeature()</text>
<text text-anchor="start" x="186.5" y="-294.5" font-family="Helvetica,sans-Serif" font-size="10.00">+ ~HY_HydroFeature()</text>
</a>
</g>
</g>
<!-- Node2&#45;&gt;Node1 -->
<g id="edge1" class="edge">
<title>Node2&#45;&gt;Node1</title>
<path fill="none" stroke="midnightblue" d="M235.5,-277.09C235.5,-268.73 235.5,-259.76 235.5,-250.77"/>
<polygon fill="none" stroke="midnightblue" points="232,-277.32 235.5,-287.32 239,-277.32 232,-277.32"/>
</g>
</g>
</svg>
