<?xml version="1.0" encoding="UTF-8" standalone="no"?>
<!DOCTYPE svg PUBLIC "-//W3C//DTD SVG 1.1//EN"
 "http://www.w3.org/Graphics/SVG/1.1/DTD/svg11.dtd">
<!-- Generated by graphviz version 12.2.0 (20241103.1931)
 -->
<!-- Title: HY_Catchment Pages: 1 -->
<svg width="444pt" height="591pt"
 viewBox="0.00 0.00 444.12 591.25" xmlns="http://www.w3.org/2000/svg" xmlns:xlink="http://www.w3.org/1999/xlink">
<g id="graph0" class="graph" transform="scale(1 1) rotate(0) translate(4 587.25)">
<title>HY_Catchment</title>
<!-- Node1 -->
<g id="Node000001" class="node">
<title>Node1</title>
<g id="a_Node000001"><a xlink:title=" ">
<polygon fill="#999999" stroke="none" points="309.88,-482.25 140.38,-482.25 140.38,-101 309.88,-101 309.88,-482.25"/>
<text text-anchor="start" x="191.75" y="-468.75" font-family="Helvetica,sans-Serif" font-size="10.00">HY_Catchment</text>
<text text-anchor="start" x="144.38" y="-453.5" font-family="Helvetica,sans-Serif" font-size="10.00">+</text>
<text text-anchor="start" x="154.38" y="-453.5" font-family="Helvetica,sans-Serif" font-size="10.00">realization</text>
<text text-anchor="start" x="144.38" y="-438.25" font-family="Helvetica,sans-Serif" font-size="10.00">+</text>
<text text-anchor="start" x="154.38" y="-438.25" font-family="Helvetica,sans-Serif" font-size="10.00">ATMOSPHERIC_LAYER_HIGH</text>
<text text-anchor="start" x="144.38" y="-423" font-family="Helvetica,sans-Serif" font-size="10.00">+</text>
<text text-anchor="start" x="154.38" y="-423" font-family="Helvetica,sans-Serif" font-size="10.00">ATMOSPHERIC_Layer_LOW</text>
<text text-anchor="start" x="144.38" y="-407.75" font-family="Helvetica,sans-Serif" font-size="10.00">+</text>
<text text-anchor="start" x="154.38" y="-407.75" font-family="Helvetica,sans-Serif" font-size="10.00">CANOPY_LAYER</text>
<text text-anchor="start" x="144.38" y="-392.5" font-family="Helvetica,sans-Serif" font-size="10.00">+</text>
<text text-anchor="start" x="154.38" y="-392.5" font-family="Helvetica,sans-Serif" font-size="10.00">SNOW_LAYER</text>
<text text-anchor="start" x="144.38" y="-377.25" font-family="Helvetica,sans-Serif" font-size="10.00">+</text>
<text text-anchor="start" x="154.38" y="-377.25" font-family="Helvetica,sans-Serif" font-size="10.00">SURFACE_LAYER</text>
<text text-anchor="start" x="144.38" y="-362" font-family="Helvetica,sans-Serif" font-size="10.00">+</text>
<text text-anchor="start" x="154.38" y="-362" font-family="Helvetica,sans-Serif" font-size="10.00">GROUND_WATER_SHALLOW</text>
<text text-anchor="start" x="154.38" y="-350.75" font-family="Helvetica,sans-Serif" font-size="10.00">_LAYER</text>
<text text-anchor="start" x="144.38" y="-335.5" font-family="Helvetica,sans-Serif" font-size="10.00">+</text>
<text text-anchor="start" x="154.38" y="-335.5" font-family="Helvetica,sans-Serif" font-size="10.00">GROUND_WATER_DEEP_LAYER</text>
<text text-anchor="start" x="145.88" y="-320.25" font-family="Helvetica,sans-Serif" font-size="10.00">&#45;</text>
<text text-anchor="start" x="154.38" y="-320.25" font-family="Helvetica,sans-Serif" font-size="10.00">id</text>
<text text-anchor="start" x="145.88" y="-305" font-family="Helvetica,sans-Serif" font-size="10.00">&#45;</text>
<text text-anchor="start" x="154.38" y="-305" font-family="Helvetica,sans-Serif" font-size="10.00">inflows</text>
<text text-anchor="start" x="145.88" y="-289.75" font-family="Helvetica,sans-Serif" font-size="10.00">&#45;</text>
<text text-anchor="start" x="154.38" y="-289.75" font-family="Helvetica,sans-Serif" font-size="10.00">outflows</text>
<text text-anchor="start" x="145.88" y="-274.5" font-family="Helvetica,sans-Serif" font-size="10.00">&#45;</text>
<text text-anchor="start" x="154.38" y="-274.5" font-family="Helvetica,sans-Serif" font-size="10.00">contained_catchments</text>
<text text-anchor="start" x="145.88" y="-259.25" font-family="Helvetica,sans-Serif" font-size="10.00">&#45;</text>
<text text-anchor="start" x="154.38" y="-259.25" font-family="Helvetica,sans-Serif" font-size="10.00">containing_catchment</text>
<text text-anchor="start" x="145.88" y="-244" font-family="Helvetica,sans-Serif" font-size="10.00">&#45;</text>
<text text-anchor="start" x="154.38" y="-244" font-family="Helvetica,sans-Serif" font-size="10.00">conjoint_catchment</text>
<text text-anchor="start" x="145.88" y="-228.75" font-family="Helvetica,sans-Serif" font-size="10.00">&#45;</text>
<text text-anchor="start" x="154.38" y="-228.75" font-family="Helvetica,sans-Serif" font-size="10.00">upper_catchment</text>
<text text-anchor="start" x="145.88" y="-213.5" font-family="Helvetica,sans-Serif" font-size="10.00">&#45;</text>
<text text-anchor="start" x="154.38" y="-213.5" font-family="Helvetica,sans-Serif" font-size="10.00">lower_catchment</text>
<text text-anchor="start" x="145.88" y="-198.25" font-family="Helvetica,sans-Serif" font-size="10.00">&#45;</text>
<text text-anchor="start" x="154.38" y="-198.25" font-family="Helvetica,sans-Serif" font-size="10.00">layer</text>
<text text-anchor="start" x="144.38" y="-183" font-family="Helvetica,sans-Serif" font-size="10.00">+</text>
<text text-anchor="start" x="154.38" y="-183" font-family="Helvetica,sans-Serif" font-size="10.00">HY_Catchment()</text>
<text text-anchor="start" x="144.38" y="-167.75" font-family="Helvetica,sans-Serif" font-size="10.00">+</text>
<text text-anchor="start" x="154.38" y="-167.75" font-family="Helvetica,sans-Serif" font-size="10.00">HY_Catchment()</text>
<text text-anchor="start" x="144.38" y="-152.5" font-family="Helvetica,sans-Serif" font-size="10.00">+</text>
<text text-anchor="start" x="154.38" y="-152.5" font-family="Helvetica,sans-Serif" font-size="10.00">~HY_Catchment()</text>
<text text-anchor="start" x="144.38" y="-137.25" font-family="Helvetica,sans-Serif" font-size="10.00">+</text>
<text text-anchor="start" x="154.38" y="-137.25" font-family="Helvetica,sans-Serif" font-size="10.00">get_outflow_nexuses()</text>
<text text-anchor="start" x="144.38" y="-122" font-family="Helvetica,sans-Serif" font-size="10.00">+</text>
<text text-anchor="start" x="154.38" y="-122" font-family="Helvetica,sans-Serif" font-size="10.00">get_layer()</text>
<text text-anchor="start" x="144.38" y="-106.75" font-family="Helvetica,sans-Serif" font-size="10.00">+</text>
<text text-anchor="start" x="154.38" y="-106.75" font-family="Helvetica,sans-Serif" font-size="10.00">set_layer()</text>
<polygon fill="#666666" stroke="#666666" points="140.38,-465 140.38,-465 309.88,-465 309.88,-465 140.38,-465"/>
<polygon fill="#666666" stroke="#666666" points="140.38,-194.5 140.38,-194.5 152.38,-194.5 152.38,-194.5 140.38,-194.5"/>
<polygon fill="#666666" stroke="#666666" points="152.38,-194.5 152.38,-194.5 309.88,-194.5 309.88,-194.5 152.38,-194.5"/>
<polygon fill="none" stroke="#666666" points="140.38,-101 140.38,-482.25 309.88,-482.25 309.88,-101 140.38,-101"/>
</a>
</g>
</g>
<!-- Node3 -->
<g id="Node000003" class="node">
<title>Node3</title>
<g id="a_Node000003"><a xlink:href="class_h_y___catchment_aggregate.html" target="_top" xlink:title=" ">
<polygon fill="white" stroke="none" points="140.25,-65 0,-65 0,0 140.25,0 140.25,-65"/>
<text text-anchor="start" x="14.62" y="-51.5" font-family="Helvetica,sans-Serif" font-size="10.00">HY_CatchmentAggregate</text>
<text text-anchor="start" x="68.62" y="-36.25" font-family="Helvetica,sans-Serif" font-size="10.00"> </text>
<text text-anchor="start" x="4" y="-21" font-family="Helvetica,sans-Serif" font-size="10.00">+</text>
<text text-anchor="start" x="14" y="-21" font-family="Helvetica,sans-Serif" font-size="10.00">HY_CatchmentAggregate()</text>
<text text-anchor="start" x="4" y="-5.75" font-family="Helvetica,sans-Serif" font-size="10.00">+</text>
<text text-anchor="start" x="14" y="-5.75" font-family="Helvetica,sans-Serif" font-size="10.00">~HY_CatchmentAggregate()</text>
<polygon fill="#666666" stroke="#666666" points="0,-47.75 0,-47.75 140.25,-47.75 140.25,-47.75 0,-47.75"/>
<polygon fill="#666666" stroke="#666666" points="0,-32.5 0,-32.5 140.25,-32.5 140.25,-32.5 0,-32.5"/>
<polygon fill="none" stroke="#666666" points="0,0 0,-65 140.25,-65 140.25,0 0,0"/>
</a>
</g>
</g>
<!-- Node1&#45;&gt;Node3 -->
<g id="edge2_Node000001_Node000003" class="edge">
<title>Node1&#45;&gt;Node3</title>
<g id="a_edge2_Node000001_Node000003"><a xlink:title=" ">
<path fill="none" stroke="#63b8ff" d="M134.7,-140.63C117.42,-111.96 101.02,-84.75 89.07,-64.92"/>
<polygon fill="none" stroke="#63b8ff" points="131.65,-142.35 139.81,-149.1 137.65,-138.73 131.65,-142.35"/>
</a>
</g>
</g>
<!-- Node4 -->
<g id="Node000004" class="node">
<title>Node4</title>
<g id="a_Node000004"><a xlink:href="class_h_y___dendritic_catchment.html" target="_top" xlink:title=" ">
<polygon fill="white" stroke="none" points="292.25,-65 158,-65 158,0 292.25,0 292.25,-65"/>
<text text-anchor="start" x="172.62" y="-51.5" font-family="Helvetica,sans-Serif" font-size="10.00">HY_DendriticCatchment</text>
<text text-anchor="start" x="223.62" y="-36.25" font-family="Helvetica,sans-Serif" font-size="10.00"> </text>
<text text-anchor="start" x="162" y="-21" font-family="Helvetica,sans-Serif" font-size="10.00">+</text>
<text text-anchor="start" x="172" y="-21" font-family="Helvetica,sans-Serif" font-size="10.00">HY_DendriticCatchment()</text>
<text text-anchor="start" x="162" y="-5.75" font-family="Helvetica,sans-Serif" font-size="10.00">+</text>
<text text-anchor="start" x="172" y="-5.75" font-family="Helvetica,sans-Serif" font-size="10.00">~HY_DendriticCatchment()</text>
<polygon fill="#666666" stroke="#666666" points="158,-47.75 158,-47.75 292.25,-47.75 292.25,-47.75 158,-47.75"/>
<polygon fill="#666666" stroke="#666666" points="158,-32.5 158,-32.5 292.25,-32.5 292.25,-32.5 158,-32.5"/>
<polygon fill="none" stroke="#666666" points="158,0 158,-65 292.25,-65 292.25,0 158,0"/>
</a>
</g>
</g>
<!-- Node1&#45;&gt;Node4 -->
<g id="edge3_Node000001_Node000004" class="edge">
<title>Node1&#45;&gt;Node4</title>
<g id="a_edge3_Node000001_Node000004"><a xlink:title=" ">
<path fill="none" stroke="#63b8ff" d="M225.12,-89.62C225.12,-80.52 225.12,-72.14 225.12,-64.79"/>
<polygon fill="none" stroke="#63b8ff" points="221.63,-89.54 225.13,-99.54 228.63,-89.54 221.63,-89.54"/>
</a>
</g>
</g>
<!-- Node5 -->
<g id="Node000005" class="node">
<title>Node5</title>
<g id="a_Node000005"><a xlink:href="class_h_y___interior_catchment.html" target="_top" xlink:title=" ">
<polygon fill="white" stroke="none" points="436.12,-65 310.12,-65 310.12,0 436.12,0 436.12,-65"/>
<text text-anchor="start" x="324.75" y="-51.5" font-family="Helvetica,sans-Serif" font-size="10.00">HY_InteriorCatchment</text>
<text text-anchor="start" x="371.62" y="-36.25" font-family="Helvetica,sans-Serif" font-size="10.00"> </text>
<text text-anchor="start" x="314.12" y="-21" font-family="Helvetica,sans-Serif" font-size="10.00">+</text>
<text text-anchor="start" x="324.12" y="-21" font-family="Helvetica,sans-Serif" font-size="10.00">HY_InteriorCatchment()</text>
<text text-anchor="start" x="314.12" y="-5.75" font-family="Helvetica,sans-Serif" font-size="10.00">+</text>
<text text-anchor="start" x="324.12" y="-5.75" font-family="Helvetica,sans-Serif" font-size="10.00">~HY_InteriorCatchment()</text>
<polygon fill="#666666" stroke="#666666" points="310.12,-47.75 310.12,-47.75 436.12,-47.75 436.12,-47.75 310.12,-47.75"/>
<polygon fill="#666666" stroke="#666666" points="310.12,-32.5 310.12,-32.5 436.12,-32.5 436.12,-32.5 310.12,-32.5"/>
<polygon fill="none" stroke="#666666" points="310.12,0 310.12,-65 436.12,-65 436.12,0 310.12,0"/>
</a>
</g>
</g>
<!-- Node1&#45;&gt;Node5 -->
<g id="edge4_Node000001_Node000005" class="edge">
<title>Node1&#45;&gt;Node5</title>
<g id="a_edge4_Node000001_Node000005"><a xlink:title=" ">
<path fill="none" stroke="#63b8ff" d="M315.33,-133.9C330.48,-107.59 344.67,-82.93 355.21,-64.63"/>
<polygon fill="none" stroke="#63b8ff" points="312.43,-131.94 310.47,-142.35 318.49,-135.43 312.43,-131.94"/>
</a>
</g>
</g>
<!-- Node2 -->
<g id="Node000002" class="node">
<title>Node2</title>
<g id="a_Node000002"><a xlink:href="class_h_y___hydro_feature.html" target="_top" xlink:title=" ">
<polygon fill="white" stroke="none" points="278.75,-583.25 171.5,-583.25 171.5,-518.25 278.75,-518.25 278.75,-583.25"/>
<text text-anchor="start" x="186.12" y="-569.75" font-family="Helvetica,sans-Serif" font-size="10.00">HY_HydroFeature</text>
<text text-anchor="start" x="223.62" y="-554.5" font-family="Helvetica,sans-Serif" font-size="10.00"> </text>
<text text-anchor="start" x="175.5" y="-539.25" font-family="Helvetica,sans-Serif" font-size="10.00">+</text>
<text text-anchor="start" x="185.5" y="-539.25" font-family="Helvetica,sans-Serif" font-size="10.00">HY_HydroFeature()</text>
<text text-anchor="start" x="175.5" y="-524" font-family="Helvetica,sans-Serif" font-size="10.00">+</text>
<text text-anchor="start" x="185.5" y="-524" font-family="Helvetica,sans-Serif" font-size="10.00">~HY_HydroFeature()</text>
<polygon fill="#666666" stroke="#666666" points="171.5,-566 171.5,-566 278.75,-566 278.75,-566 171.5,-566"/>
<polygon fill="#666666" stroke="#666666" points="171.5,-550.75 171.5,-550.75 278.75,-550.75 278.75,-550.75 171.5,-550.75"/>
<polygon fill="none" stroke="#666666" points="171.5,-518.25 171.5,-583.25 278.75,-583.25 278.75,-518.25 171.5,-518.25"/>
</a>
</g>
</g>
<!-- Node2&#45;&gt;Node1 -->
<g id="edge1_Node000001_Node000002" class="edge">
<title>Node2&#45;&gt;Node1</title>
<g id="a_edge1_Node000001_Node000002"><a xlink:title=" ">
<path fill="none" stroke="#63b8ff" d="M225.12,-507.1C225.12,-499.44 225.12,-491.03 225.12,-482.11"/>
<polygon fill="none" stroke="#63b8ff" points="221.63,-506.96 225.13,-516.96 228.63,-506.96 221.63,-506.96"/>
</a>
</g>
</g>
</g>
</svg>
