<?xml version="1.0" encoding="UTF-8" standalone="no"?>
<!DOCTYPE svg PUBLIC "-//W3C//DTD SVG 1.1//EN"
 "http://www.w3.org/Graphics/SVG/1.1/DTD/svg11.dtd">
<!-- Generated by graphviz version 3.0.0 (20221109.1736)
 -->
<!-- Title: Simple_Lumped_Model_Realization Pages: 1 -->
<!--zoomable 964 -->
<svg id="main" version="1.1" xmlns="http://www.w3.org/2000/svg" xmlns:xlink="http://www.w3.org/1999/xlink" xml:space="preserve" onload="init(evt)">
<style type="text/css"><![CDATA[
.edge:hover path { stroke: red; }
.edge:hover polygon { stroke: red; fill: red; }
]]></style>
<script type="text/javascript"><![CDATA[
var edges = document.getElementsByTagName('g');
if (edges && edges.length) {
  for (var i=0;i<edges.length;i++) {
    if (edges[i].id.substr(0,4)=='edge') {
      edges[i].setAttribute('class','edge');
    }
  }
}
]]></script>
        <defs>
                <circle id="rim" cx="0" cy="0" r="7"/>
                <circle id="rim2" cx="0" cy="0" r="3.5"/>
                <g id="zoomPlus">
                        <use xlink:href="#rim" fill="#404040">
                                <set attributeName="fill" to="#808080" begin="zoomplus.mouseover" end="zoomplus.mouseout"/>
                        </use>
                        <path d="M-4,0h8M0,-4v8" fill="none" stroke="white" stroke-width="1.5" pointer-events="none"/>
                </g>
                <g id="zoomMin">
                        <use xlink:href="#rim" fill="#404040">
                                <set attributeName="fill" to="#808080" begin="zoomminus.mouseover" end="zoomminus.mouseout"/>
                        </use>
                        <path d="M-4,0h8" fill="none" stroke="white" stroke-width="1.5" pointer-events="none"/>
                </g>
                <g id="dirArrow">
                        <path fill="none" stroke="white" stroke-width="1.5" d="M0,-3.0v7 M-2.5,-0.5L0,-3.0L2.5,-0.5"/>
                </g>
               <g id="resetDef">
                       <use xlink:href="#rim2" fill="#404040">
                               <set attributeName="fill" to="#808080" begin="reset.mouseover" end="reset.mouseout"/>
                       </use>
               </g>
        </defs>

<script type="text/javascript">
var viewWidth = 487;
var viewHeight = 964;
var sectionId = 'dynsection-0';
</script>
<script xlink:href="svgpan.js"/>
<svg id="graph" class="graph">
<g id="viewport">
<title>Simple_Lumped_Model_Realization</title>
<polygon fill="white" stroke="transparent" points="-4,4 -4,-960 482.5,-960 482.5,4 -4,4"/>
<!-- Node1 -->
<g id="node1" class="node">
<title>Node1</title>
<g id="a_node1"><a xlink:title=" ">
<polygon fill="#bfbfbf" stroke="black" points="148.5,-0.5 148.5,-332.5 294.5,-332.5 294.5,-0.5 148.5,-0.5"/>
<text text-anchor="start" x="156.5" y="-320.5" font-family="Helvetica,sans-Serif" font-size="10.00">Simple_Lumped_Model</text>
<text text-anchor="middle" x="221.5" y="-309.5" font-family="Helvetica,sans-Serif" font-size="10.00">_Realization</text>
<polyline fill="none" stroke="black" points="148.5,-302.5 294.5,-302.5 "/>
<text text-anchor="start" x="156.5" y="-290.5" font-family="Helvetica,sans-Serif" font-size="10.00"># REQUIRED_PARAMETERS</text>
<text text-anchor="start" x="156.5" y="-279.5" font-family="Helvetica,sans-Serif" font-size="10.00">&#45; state</text>
<text text-anchor="start" x="156.5" y="-268.5" font-family="Helvetica,sans-Serif" font-size="10.00">&#45; fluxes</text>
<text text-anchor="start" x="156.5" y="-257.5" font-family="Helvetica,sans-Serif" font-size="10.00">&#45; cascade_backing_storage</text>
<text text-anchor="start" x="156.5" y="-246.5" font-family="Helvetica,sans-Serif" font-size="10.00">&#45; params</text>
<polyline fill="none" stroke="black" points="148.5,-239.5 294.5,-239.5 "/>
<text text-anchor="start" x="156.5" y="-227.5" font-family="Helvetica,sans-Serif" font-size="10.00">+ Simple_Lumped_Model</text>
<text text-anchor="start" x="156.5" y="-216.5" font-family="Helvetica,sans-Serif" font-size="10.00">_Realization()</text>
<text text-anchor="start" x="156.5" y="-205.5" font-family="Helvetica,sans-Serif" font-size="10.00">+ Simple_Lumped_Model</text>
<text text-anchor="start" x="156.5" y="-194.5" font-family="Helvetica,sans-Serif" font-size="10.00">_Realization()</text>
<text text-anchor="start" x="156.5" y="-183.5" font-family="Helvetica,sans-Serif" font-size="10.00">+ Simple_Lumped_Model</text>
<text text-anchor="start" x="156.5" y="-172.5" font-family="Helvetica,sans-Serif" font-size="10.00">_Realization()</text>
<text text-anchor="start" x="156.5" y="-161.5" font-family="Helvetica,sans-Serif" font-size="10.00">+ Simple_Lumped_Model</text>
<text text-anchor="start" x="156.5" y="-150.5" font-family="Helvetica,sans-Serif" font-size="10.00">_Realization()</text>
<text text-anchor="start" x="156.5" y="-139.5" font-family="Helvetica,sans-Serif" font-size="10.00">+ Simple_Lumped_Model</text>
<text text-anchor="start" x="156.5" y="-128.5" font-family="Helvetica,sans-Serif" font-size="10.00">_Realization()</text>
<text text-anchor="start" x="156.5" y="-117.5" font-family="Helvetica,sans-Serif" font-size="10.00">+ ~Simple_Lumped_Model</text>
<text text-anchor="start" x="156.5" y="-106.5" font-family="Helvetica,sans-Serif" font-size="10.00">_Realization()</text>
<text text-anchor="start" x="156.5" y="-95.5" font-family="Helvetica,sans-Serif" font-size="10.00">+ get_output_line_for</text>
<text text-anchor="start" x="156.5" y="-84.5" font-family="Helvetica,sans-Serif" font-size="10.00">_timestep()</text>
<text text-anchor="start" x="156.5" y="-73.5" font-family="Helvetica,sans-Serif" font-size="10.00">+ get_response()</text>
<text text-anchor="start" x="156.5" y="-62.5" font-family="Helvetica,sans-Serif" font-size="10.00">+ calc_et()</text>
<text text-anchor="start" x="156.5" y="-51.5" font-family="Helvetica,sans-Serif" font-size="10.00">+ create_formulation()</text>
<text text-anchor="start" x="156.5" y="-40.5" font-family="Helvetica,sans-Serif" font-size="10.00">+ create_formulation()</text>
<text text-anchor="start" x="156.5" y="-29.5" font-family="Helvetica,sans-Serif" font-size="10.00">+ get_formulation_type()</text>
<text text-anchor="start" x="156.5" y="-18.5" font-family="Helvetica,sans-Serif" font-size="10.00">+ add_time()</text>
<text text-anchor="start" x="156.5" y="-7.5" font-family="Helvetica,sans-Serif" font-size="10.00"># get_required_parameters()</text>
</a>
</g>
</g>
<!-- Node2 -->
<g id="node2" class="node">
<title>Node2</title>
<g id="a_node2"><a xlink:href="classrealization_1_1_catchment___formulation.html" target="_top" xlink:title=" ">
<polygon fill="white" stroke="black" points="148,-369.5 148,-547.5 295,-547.5 295,-369.5 148,-369.5"/>
<text text-anchor="start" x="156" y="-535.5" font-family="Helvetica,sans-Serif" font-size="10.00">realization::Catchment</text>
<text text-anchor="middle" x="221.5" y="-524.5" font-family="Helvetica,sans-Serif" font-size="10.00">_Formulation</text>
<polyline fill="none" stroke="black" points="148,-517.5 295,-517.5 "/>
<text text-anchor="start" x="156" y="-505.5" font-family="Helvetica,sans-Serif" font-size="10.00">&#45; cat_id</text>
<polyline fill="none" stroke="black" points="148,-498.5 295,-498.5 "/>
<text text-anchor="start" x="156" y="-486.5" font-family="Helvetica,sans-Serif" font-size="10.00">+ Catchment_Formulation()</text>
<text text-anchor="start" x="156" y="-475.5" font-family="Helvetica,sans-Serif" font-size="10.00">+ Catchment_Formulation()</text>
<text text-anchor="start" x="156" y="-464.5" font-family="Helvetica,sans-Serif" font-size="10.00">+ get_output_header_line()</text>
<text text-anchor="start" x="156" y="-453.5" font-family="Helvetica,sans-Serif" font-size="10.00">+ get_response()</text>
<text text-anchor="start" x="156" y="-442.5" font-family="Helvetica,sans-Serif" font-size="10.00">+ get_required_parameters()</text>
<text text-anchor="start" x="156" y="-431.5" font-family="Helvetica,sans-Serif" font-size="10.00">+ create_formulation()</text>
<text text-anchor="start" x="156" y="-420.5" font-family="Helvetica,sans-Serif" font-size="10.00">+ create_formulation()</text>
<text text-anchor="start" x="156" y="-409.5" font-family="Helvetica,sans-Serif" font-size="10.00">+ ~Catchment_Formulation()</text>
<text text-anchor="start" x="156" y="-398.5" font-family="Helvetica,sans-Serif" font-size="10.00">+ config_pattern_substitution()</text>
<text text-anchor="start" x="156" y="-387.5" font-family="Helvetica,sans-Serif" font-size="10.00"># get_catchment_id()</text>
<text text-anchor="start" x="156" y="-376.5" font-family="Helvetica,sans-Serif" font-size="10.00"># set_catchment_id()</text>
</a>
</g>
</g>
<!-- Node2&#45;&gt;Node1 -->
<g id="edge1" class="edge">
<title>Node2&#45;&gt;Node1</title>
<path fill="none" stroke="midnightblue" d="M221.5,-359.27C221.5,-350.6 221.5,-341.69 221.5,-332.68"/>
<polygon fill="none" stroke="midnightblue" points="218,-359.31 221.5,-369.31 225,-359.31 218,-359.31"/>
</g>
<!-- Node3 -->
<g id="node3" class="node">
<title>Node3</title>
<g id="a_node3"><a xlink:href="classrealization_1_1_formulation.html" target="_top" xlink:title=" ">
<polygon fill="white" stroke="black" points="0,-584.5 0,-784.5 137,-784.5 137,-584.5 0,-584.5"/>
<text text-anchor="middle" x="68.5" y="-772.5" font-family="Helvetica,sans-Serif" font-size="10.00">realization::Formulation</text>
<polyline fill="none" stroke="black" points="0,-765.5 137,-765.5 "/>
<text text-anchor="start" x="8" y="-753.5" font-family="Helvetica,sans-Serif" font-size="10.00"># id</text>
<polyline fill="none" stroke="black" points="0,-746.5 137,-746.5 "/>
<text text-anchor="start" x="8" y="-734.5" font-family="Helvetica,sans-Serif" font-size="10.00">+ Formulation()</text>
<text text-anchor="start" x="8" y="-723.5" font-family="Helvetica,sans-Serif" font-size="10.00">+ ~Formulation()</text>
<text text-anchor="start" x="8" y="-712.5" font-family="Helvetica,sans-Serif" font-size="10.00">+ get_formulation_type()</text>
<text text-anchor="start" x="8" y="-701.5" font-family="Helvetica,sans-Serif" font-size="10.00">+ get_response()</text>
<text text-anchor="start" x="8" y="-690.5" font-family="Helvetica,sans-Serif" font-size="10.00">+ add_time()</text>
<text text-anchor="start" x="8" y="-679.5" font-family="Helvetica,sans-Serif" font-size="10.00">+ get_id()</text>
<text text-anchor="start" x="8" y="-668.5" font-family="Helvetica,sans-Serif" font-size="10.00">+ get_output_header_line()</text>
<text text-anchor="start" x="8" y="-657.5" font-family="Helvetica,sans-Serif" font-size="10.00">+ get_output_line_for</text>
<text text-anchor="start" x="8" y="-646.5" font-family="Helvetica,sans-Serif" font-size="10.00">_timestep()</text>
<text text-anchor="start" x="8" y="-635.5" font-family="Helvetica,sans-Serif" font-size="10.00">+ create_formulation()</text>
<text text-anchor="start" x="8" y="-624.5" font-family="Helvetica,sans-Serif" font-size="10.00">+ create_formulation()</text>
<text text-anchor="start" x="8" y="-613.5" font-family="Helvetica,sans-Serif" font-size="10.00"># get_required_parameters()</text>
<text text-anchor="start" x="8" y="-602.5" font-family="Helvetica,sans-Serif" font-size="10.00"># interpret_parameters()</text>
<text text-anchor="start" x="8" y="-591.5" font-family="Helvetica,sans-Serif" font-size="10.00"># validate_parameters()</text>
</a>
</g>
</g>
<!-- Node3&#45;&gt;Node2 -->
<g id="edge2" class="edge">
<title>Node3&#45;&gt;Node2</title>
<path fill="none" stroke="midnightblue" d="M141.94,-575.98C148.41,-566.51 154.9,-557.01 161.23,-547.73"/>
<polygon fill="none" stroke="midnightblue" points="139.03,-574.04 136.28,-584.27 144.81,-577.99 139.03,-574.04"/>
</g>
<!-- Node4 -->
<g id="node4" class="node">
<title>Node4</title>
<g id="a_node4"><a xlink:href="classrealization_1_1_et___aware.html" target="_top" xlink:title="Interface for type that is aware of parameters for evapotranspiration in certain calculations,...">
<polygon fill="white" stroke="black" points="56.5,-843.5 56.5,-933.5 164.5,-933.5 164.5,-843.5 56.5,-843.5"/>
<text text-anchor="middle" x="110.5" y="-921.5" font-family="Helvetica,sans-Serif" font-size="10.00">realization::Et_Aware</text>
<polyline fill="none" stroke="black" points="56.5,-914.5 164.5,-914.5 "/>
<text text-anchor="middle" x="110.5" y="-902.5" font-family="Helvetica,sans-Serif" font-size="10.00"> </text>
<polyline fill="none" stroke="black" points="56.5,-895.5 164.5,-895.5 "/>
<text text-anchor="start" x="64.5" y="-883.5" font-family="Helvetica,sans-Serif" font-size="10.00">+ Et_Aware()</text>
<text text-anchor="start" x="64.5" y="-872.5" font-family="Helvetica,sans-Serif" font-size="10.00">+ ~Et_Aware()</text>
<text text-anchor="start" x="64.5" y="-861.5" font-family="Helvetica,sans-Serif" font-size="10.00">+ is_et_params_set()</text>
<text text-anchor="start" x="64.5" y="-850.5" font-family="Helvetica,sans-Serif" font-size="10.00">+ set_et_params()</text>
</a>
</g>
</g>
<!-- Node4&#45;&gt;Node3 -->
<g id="edge3" class="edge">
<title>Node4&#45;&gt;Node3</title>
<path fill="none" stroke="midnightblue" d="M99.19,-833.11C96.08,-818.15 92.61,-801.44 89.14,-784.79"/>
<polygon fill="none" stroke="midnightblue" points="95.82,-834.09 101.28,-843.17 102.67,-832.67 95.82,-834.09"/>
</g>
<!-- Node8 -->
<g id="node8" class="node">
<title>Node8</title>
<g id="a_node8"><a xlink:href="classrealization_1_1_et___accountable.html" target="_top" xlink:title="Interface for type that is able to account for evapotranspiration in certain calculations,...">
<polygon fill="white" stroke="black" points="155,-623 155,-746 288,-746 288,-623 155,-623"/>
<text text-anchor="middle" x="221.5" y="-734" font-family="Helvetica,sans-Serif" font-size="10.00">realization::Et_Accountable</text>
<polyline fill="none" stroke="black" points="155,-727 288,-727 "/>
<text text-anchor="start" x="163" y="-715" font-family="Helvetica,sans-Serif" font-size="10.00">&#45; et_params</text>
<polyline fill="none" stroke="black" points="155,-708 288,-708 "/>
<text text-anchor="start" x="163" y="-696" font-family="Helvetica,sans-Serif" font-size="10.00">+ Et_Accountable()</text>
<text text-anchor="start" x="163" y="-685" font-family="Helvetica,sans-Serif" font-size="10.00">+ ~Et_Accountable()</text>
<text text-anchor="start" x="163" y="-674" font-family="Helvetica,sans-Serif" font-size="10.00">+ calc_et()</text>
<text text-anchor="start" x="163" y="-663" font-family="Helvetica,sans-Serif" font-size="10.00">+ get_et_params()</text>
<text text-anchor="start" x="163" y="-652" font-family="Helvetica,sans-Serif" font-size="10.00">+ is_et_params_set()</text>
<text text-anchor="start" x="163" y="-641" font-family="Helvetica,sans-Serif" font-size="10.00">+ set_et_params()</text>
<text text-anchor="start" x="163" y="-630" font-family="Helvetica,sans-Serif" font-size="10.00"># get_et_params_ptr()</text>
</a>
</g>
</g>
<!-- Node4&#45;&gt;Node8 -->
<g id="edge8" class="edge">
<title>Node4&#45;&gt;Node8</title>
<path fill="none" stroke="midnightblue" d="M139.77,-834.24C154.63,-807.2 172.75,-774.22 188.15,-746.2"/>
<polygon fill="none" stroke="midnightblue" points="136.61,-832.72 134.86,-843.17 142.74,-836.09 136.61,-832.72"/>
</g>
<!-- Node5 -->
<g id="node5" class="node">
<title>Node5</title>
<g id="a_node5"><a xlink:href="class_h_y___catchment_area.html" target="_top" xlink:title=" ">
<polygon fill="white" stroke="black" points="306,-628.5 306,-740.5 429,-740.5 429,-628.5 306,-628.5"/>
<text text-anchor="middle" x="367.5" y="-728.5" font-family="Helvetica,sans-Serif" font-size="10.00">HY_CatchmentArea</text>
<polyline fill="none" stroke="black" points="306,-721.5 429,-721.5 "/>
<text text-anchor="start" x="314" y="-709.5" font-family="Helvetica,sans-Serif" font-size="10.00"># bounds</text>
<text text-anchor="start" x="314" y="-698.5" font-family="Helvetica,sans-Serif" font-size="10.00"># output</text>
<polyline fill="none" stroke="black" points="306,-691.5 429,-691.5 "/>
<text text-anchor="start" x="314" y="-679.5" font-family="Helvetica,sans-Serif" font-size="10.00">+ HY_CatchmentArea()</text>
<text text-anchor="start" x="314" y="-668.5" font-family="Helvetica,sans-Serif" font-size="10.00">+ HY_CatchmentArea()</text>
<text text-anchor="start" x="314" y="-657.5" font-family="Helvetica,sans-Serif" font-size="10.00">+ set_output_stream()</text>
<text text-anchor="start" x="314" y="-646.5" font-family="Helvetica,sans-Serif" font-size="10.00">+ write_output()</text>
<text text-anchor="start" x="314" y="-635.5" font-family="Helvetica,sans-Serif" font-size="10.00">+ ~HY_CatchmentArea()</text>
</a>
</g>
</g>
<!-- Node5&#45;&gt;Node2 -->
<g id="edge4" class="edge">
<title>Node5&#45;&gt;Node2</title>
<path fill="none" stroke="midnightblue" d="M326.09,-619.96C311.42,-597.46 294.65,-571.73 278.9,-547.56"/>
<polygon fill="none" stroke="midnightblue" points="323.2,-621.95 331.6,-628.42 329.07,-618.13 323.2,-621.95"/>
</g>
<!-- Node6 -->
<g id="node6" class="node">
<title>Node6</title>
<g id="a_node6"><a xlink:href="class_h_y___catchment_realization.html" target="_top" xlink:title=" ">
<polygon fill="white" stroke="black" points="224.5,-821.5 224.5,-955.5 374.5,-955.5 374.5,-821.5 224.5,-821.5"/>
<text text-anchor="middle" x="299.5" y="-943.5" font-family="Helvetica,sans-Serif" font-size="10.00">HY_CatchmentRealization</text>
<polyline fill="none" stroke="black" points="224.5,-936.5 374.5,-936.5 "/>
<text text-anchor="start" x="232.5" y="-924.5" font-family="Helvetica,sans-Serif" font-size="10.00"># realized_catchment</text>
<text text-anchor="start" x="232.5" y="-913.5" font-family="Helvetica,sans-Serif" font-size="10.00"># id_number</text>
<text text-anchor="start" x="232.5" y="-902.5" font-family="Helvetica,sans-Serif" font-size="10.00"># forcing</text>
<polyline fill="none" stroke="black" points="224.5,-895.5 374.5,-895.5 "/>
<text text-anchor="start" x="232.5" y="-883.5" font-family="Helvetica,sans-Serif" font-size="10.00">+ HY_CatchmentRealization()</text>
<text text-anchor="start" x="232.5" y="-872.5" font-family="Helvetica,sans-Serif" font-size="10.00">+ HY_CatchmentRealization()</text>
<text text-anchor="start" x="232.5" y="-861.5" font-family="Helvetica,sans-Serif" font-size="10.00">+ ~HY_CatchmentRealization()</text>
<text text-anchor="start" x="232.5" y="-850.5" font-family="Helvetica,sans-Serif" font-size="10.00">+ get_response()</text>
<text text-anchor="start" x="232.5" y="-839.5" font-family="Helvetica,sans-Serif" font-size="10.00"># get_catchment_id()</text>
<text text-anchor="start" x="232.5" y="-828.5" font-family="Helvetica,sans-Serif" font-size="10.00"># set_catchment_id()</text>
</a>
</g>
</g>
<!-- Node6&#45;&gt;Node5 -->
<g id="edge5" class="edge">
<title>Node6&#45;&gt;Node5</title>
<path fill="none" stroke="midnightblue" d="M325.01,-811.73C332.95,-788.12 341.56,-762.56 348.94,-740.64"/>
<polygon fill="none" stroke="midnightblue" points="321.64,-810.76 321.77,-821.36 328.27,-813 321.64,-810.76"/>
</g>
<!-- Node7 -->
<g id="node7" class="node">
<title>Node7</title>
<g id="a_node7"><a xlink:href="class_g_m___object.html" target="_top" xlink:title=" ">
<polygon fill="white" stroke="black" points="392.5,-854.5 392.5,-922.5 478.5,-922.5 478.5,-854.5 392.5,-854.5"/>
<text text-anchor="middle" x="435.5" y="-910.5" font-family="Helvetica,sans-Serif" font-size="10.00">GM_Object</text>
<polyline fill="none" stroke="black" points="392.5,-903.5 478.5,-903.5 "/>
<text text-anchor="middle" x="435.5" y="-891.5" font-family="Helvetica,sans-Serif" font-size="10.00"> </text>
<polyline fill="none" stroke="black" points="392.5,-884.5 478.5,-884.5 "/>
<text text-anchor="start" x="400.5" y="-872.5" font-family="Helvetica,sans-Serif" font-size="10.00">+ GM_Object()</text>
<text text-anchor="start" x="400.5" y="-861.5" font-family="Helvetica,sans-Serif" font-size="10.00">+ ~GM_Object()</text>
</a>
</g>
</g>
<!-- Node7&#45;&gt;Node5 -->
<g id="edge6" class="edge">
<title>Node7&#45;&gt;Node5</title>
<path fill="none" stroke="midnightblue" d="M420.96,-844.3C410.76,-814.01 397.05,-773.27 386.06,-740.64"/>
<polygon fill="none" stroke="midnightblue" points="417.76,-845.78 424.27,-854.14 424.4,-843.55 417.76,-845.78"/>
</g>
<!-- Node8&#45;&gt;Node2 -->
<g id="edge7" class="edge">
<title>Node8&#45;&gt;Node2</title>
<path fill="none" stroke="midnightblue" d="M221.5,-612.61C221.5,-591.94 221.5,-569.1 221.5,-547.5"/>
<polygon fill="none" stroke="midnightblue" points="218,-612.88 221.5,-622.88 225,-612.88 218,-612.88"/>
</g>
</g>
</svg>
        <g id="navigator" transform="translate(0 0)" fill="#404254">
                <rect fill="#f2f5e9" fill-opacity="0.5" stroke="#606060" stroke-width=".5" x="0" y="0" width="60" height="60"/>
                <use id="zoomplus" xlink:href="#zoomPlus" x="17" y="9" onmousedown="handleZoom(evt,'in')"/>
                <use id="zoomminus" xlink:href="#zoomMin" x="42" y="9" onmousedown="handleZoom(evt,'out')"/>
                <use id="reset" xlink:href="#resetDef" x="30" y="36" onmousedown="handleReset()"/>
                <g id="arrowUp" xlink:href="#dirArrow" transform="translate(30 24)" onmousedown="handlePan(0,-1)">
                  <use xlink:href="#rim" fill="#404040">
                        <set attributeName="fill" to="#808080" begin="arrowUp.mouseover" end="arrowUp.mouseout"/>
                  </use>
                  <path fill="none" stroke="white" stroke-width="1.5" d="M0,-3.0v7 M-2.5,-0.5L0,-3.0L2.5,-0.5"/>
                </g>
                <g id="arrowRight" xlink:href="#dirArrow" transform="rotate(90) translate(36 -43)" onmousedown="handlePan(1,0)">
                  <use xlink:href="#rim" fill="#404040">
                        <set attributeName="fill" to="#808080" begin="arrowRight.mouseover" end="arrowRight.mouseout"/>
                  </use>
                  <path fill="none" stroke="white" stroke-width="1.5" d="M0,-3.0v7 M-2.5,-0.5L0,-3.0L2.5,-0.5"/>
                </g>
                <g id="arrowDown" xlink:href="#dirArrow" transform="rotate(180) translate(-30 -48)" onmousedown="handlePan(0,1)">
                  <use xlink:href="#rim" fill="#404040">
                        <set attributeName="fill" to="#808080" begin="arrowDown.mouseover" end="arrowDown.mouseout"/>
                  </use>
                  <path fill="none" stroke="white" stroke-width="1.5" d="M0,-3.0v7 M-2.5,-0.5L0,-3.0L2.5,-0.5"/>
                </g>
                <g id="arrowLeft" xlink:href="#dirArrow" transform="rotate(270) translate(-36 17)" onmousedown="handlePan(-1,0)">
                  <use xlink:href="#rim" fill="#404040">
                        <set attributeName="fill" to="#808080" begin="arrowLeft.mouseover" end="arrowLeft.mouseout"/>
                  </use>
                  <path fill="none" stroke="white" stroke-width="1.5" d="M0,-3.0v7 M-2.5,-0.5L0,-3.0L2.5,-0.5"/>
                </g>
        </g>
        <svg viewBox="0 0 15 15" width="100%" height="30px" preserveAspectRatio="xMaxYMin meet">
         <g id="arrow_out" transform="scale(0.3 0.3)">
          <a xlink:href="class_simple___lumped___model___realization__inherit__graph_org.svg" target="_base">
           <rect id="button" ry="5" rx="5" y="6" x="6" height="38" width="38"
                fill="#f2f5e9" fill-opacity="0.5" stroke="#606060" stroke-width="1.0"/>
           <path id="arrow"
             d="M 11.500037,31.436501 C 11.940474,20.09759 22.043105,11.32322 32.158766,21.979434 L 37.068811,17.246167 C 37.068811,17.246167 37.088388,32 37.088388,32 L 22.160133,31.978069 C 22.160133,31.978069 26.997745,27.140456 26.997745,27.140456 C 18.528582,18.264221 13.291696,25.230495 11.500037,31.436501 z"
             style="fill:#404040;"/>
          </a>
         </g>
        </svg>
</svg>
