<?xml version="1.0" encoding="UTF-8" standalone="no"?>
<!DOCTYPE svg PUBLIC "-//W3C//DTD SVG 1.1//EN"
 "http://www.w3.org/Graphics/SVG/1.1/DTD/svg11.dtd">
<!-- Generated by graphviz version 3.0.0 (20221109.1736)
 -->
<!-- Title: HY_HydroNexus Pages: 1 -->
<svg width="342pt" height="557pt"
 viewBox="0.00 0.00 341.50 557.00" xmlns="http://www.w3.org/2000/svg" xmlns:xlink="http://www.w3.org/1999/xlink">
<g id="graph0" class="graph" transform="scale(1 1) rotate(0) translate(4 553)">
<title>HY_HydroNexus</title>
<polygon fill="white" stroke="transparent" points="-4,4 -4,-553 337.5,-553 337.5,4 -4,4"/>
<!-- Node1 -->
<g id="node1" class="node">
<title>Node1</title>
<g id="a_node1"><a xlink:title=" ">
<polygon fill="#bfbfbf" stroke="black" points="111.5,-0.5 111.5,-200.5 267.5,-200.5 267.5,-0.5 111.5,-0.5"/>
<text text-anchor="middle" x="189.5" y="-188.5" font-family="Helvetica,sans-Serif" font-size="10.00">HY_HydroNexus</text>
<polyline fill="none" stroke="black" points="111.5,-181.5 267.5,-181.5 "/>
<text text-anchor="start" x="119.5" y="-169.5" font-family="Helvetica,sans-Serif" font-size="10.00">&#45; number_of_downstream</text>
<text text-anchor="start" x="119.5" y="-158.5" font-family="Helvetica,sans-Serif" font-size="10.00">_catchments</text>
<polyline fill="none" stroke="black" points="111.5,-151.5 267.5,-151.5 "/>
<text text-anchor="start" x="119.5" y="-139.5" font-family="Helvetica,sans-Serif" font-size="10.00">+ HY_HydroNexus()</text>
<text text-anchor="start" x="119.5" y="-128.5" font-family="Helvetica,sans-Serif" font-size="10.00">+ HY_HydroNexus()</text>
<text text-anchor="start" x="119.5" y="-117.5" font-family="Helvetica,sans-Serif" font-size="10.00">+ HY_HydroNexus()</text>
<text text-anchor="start" x="119.5" y="-106.5" font-family="Helvetica,sans-Serif" font-size="10.00">+ ~HY_HydroNexus()</text>
<text text-anchor="start" x="119.5" y="-95.5" font-family="Helvetica,sans-Serif" font-size="10.00">+ add_upstream_flow()</text>
<text text-anchor="start" x="119.5" y="-84.5" font-family="Helvetica,sans-Serif" font-size="10.00">+ get_downstream_flow()</text>
<text text-anchor="start" x="119.5" y="-73.5" font-family="Helvetica,sans-Serif" font-size="10.00">+ inspect_upstream_flows()</text>
<text text-anchor="start" x="119.5" y="-62.5" font-family="Helvetica,sans-Serif" font-size="10.00">+ inspect_downstream</text>
<text text-anchor="start" x="119.5" y="-51.5" font-family="Helvetica,sans-Serif" font-size="10.00">_requests()</text>
<text text-anchor="start" x="119.5" y="-40.5" font-family="Helvetica,sans-Serif" font-size="10.00">+ get_flow_units()</text>
<text text-anchor="start" x="119.5" y="-29.5" font-family="Helvetica,sans-Serif" font-size="10.00">+ get_receiving_catchments()</text>
<text text-anchor="start" x="119.5" y="-18.5" font-family="Helvetica,sans-Serif" font-size="10.00">+ get_contributing_catchments()</text>
<text text-anchor="start" x="119.5" y="-7.5" font-family="Helvetica,sans-Serif" font-size="10.00">+ get_id()</text>
</a>
</g>
</g>
<!-- Node2 -->
<g id="node2" class="node">
<title>Node2</title>
<g id="a_node2"><a xlink:title=" ">
<polygon fill="white" stroke="black" points="231,-375.5 231,-432.5 290,-432.5 290,-375.5 231,-375.5"/>
<text text-anchor="middle" x="260.5" y="-420.5" font-family="Helvetica,sans-Serif" font-size="10.00">std::string</text>
<polyline fill="none" stroke="black" points="231,-413.5 290,-413.5 "/>
<text text-anchor="middle" x="260.5" y="-401.5" font-family="Helvetica,sans-Serif" font-size="10.00"> </text>
<polyline fill="none" stroke="black" points="231,-394.5 290,-394.5 "/>
<text text-anchor="middle" x="260.5" y="-382.5" font-family="Helvetica,sans-Serif" font-size="10.00"> </text>
</a>
</g>
</g>
<!-- Node2&#45;&gt;Node1 -->
<g id="edge1" class="edge">
<title>Node2&#45;&gt;Node1</title>
<path fill="none" stroke="#404040" d="M284.5,-375.47C288.45,-369.69 292.05,-363.4 294.5,-357 316.49,-299.54 328.86,-275.92 305.5,-219 298.58,-202.14 287.94,-186.41 275.86,-172.28"/>
<polygon fill="none" stroke="#404040" points="275.76,-172.17 268.77,-170.38 267.74,-163.24 274.72,-165.03 275.76,-172.17"/>
<text text-anchor="middle" x="325.5" y="-291" font-family="Helvetica,sans-Serif" font-size="10.00"> #id</text>
</g>
<!-- Node7 -->
<g id="node7" class="node">
<title>Node7</title>
<g id="a_node7"><a xlink:title=" ">
<polygon fill="white" stroke="black" points="129.5,-265 129.5,-322 249.5,-322 249.5,-265 129.5,-265"/>
<text text-anchor="middle" x="189.5" y="-310" font-family="Helvetica,sans-Serif" font-size="10.00">std::vector&lt; std::string &gt;</text>
<polyline fill="none" stroke="black" points="129.5,-303 249.5,-303 "/>
<text text-anchor="middle" x="189.5" y="-291" font-family="Helvetica,sans-Serif" font-size="10.00"> </text>
<polyline fill="none" stroke="black" points="129.5,-284 249.5,-284 "/>
<text text-anchor="middle" x="189.5" y="-272" font-family="Helvetica,sans-Serif" font-size="10.00"> </text>
</a>
</g>
</g>
<!-- Node2&#45;&gt;Node7 -->
<g id="edge7" class="edge">
<title>Node2&#45;&gt;Node7</title>
<path fill="none" stroke="#404040" d="M249.87,-375.48C245.65,-365.84 240.4,-355.14 234.5,-346 231.37,-341.14 227.8,-336.27 224.07,-331.56"/>
<polygon fill="none" stroke="#404040" points="223.96,-331.43 217.05,-329.37 216.29,-322.2 223.2,-324.26 223.96,-331.43"/>
<text text-anchor="middle" x="266" y="-349" font-family="Helvetica,sans-Serif" font-size="10.00"> +elements</text>
</g>
<!-- Node3 -->
<g id="node3" class="node">
<title>Node3</title>
<g id="a_node3"><a xlink:title=" ">
<polygon fill="white" stroke="black" points="214,-480.5 214,-548.5 307,-548.5 307,-480.5 214,-480.5"/>
<text text-anchor="start" x="222" y="-536.5" font-family="Helvetica,sans-Serif" font-size="10.00">std::basic_string&lt;</text>
<text text-anchor="middle" x="260.5" y="-525.5" font-family="Helvetica,sans-Serif" font-size="10.00"> Char &gt;</text>
<polyline fill="none" stroke="black" points="214,-518.5 307,-518.5 "/>
<text text-anchor="middle" x="260.5" y="-506.5" font-family="Helvetica,sans-Serif" font-size="10.00"> </text>
<polyline fill="none" stroke="black" points="214,-499.5 307,-499.5 "/>
<text text-anchor="middle" x="260.5" y="-487.5" font-family="Helvetica,sans-Serif" font-size="10.00"> </text>
</a>
</g>
</g>
<!-- Node3&#45;&gt;Node2 -->
<g id="edge2" class="edge">
<title>Node3&#45;&gt;Node2</title>
<path fill="none" stroke="midnightblue" d="M260.5,-470.06C260.5,-457.51 260.5,-444.15 260.5,-432.83"/>
<polygon fill="none" stroke="midnightblue" points="257,-470.36 260.5,-480.36 264,-470.36 257,-470.36"/>
</g>
<!-- Node4 -->
<g id="node4" class="node">
<title>Node4</title>
<g id="a_node4"><a xlink:title=" ">
<polygon fill="white" stroke="black" points="0,-259.5 0,-327.5 103,-327.5 103,-259.5 0,-259.5"/>
<text text-anchor="start" x="8" y="-315.5" font-family="Helvetica,sans-Serif" font-size="10.00">std::shared_ptr&lt; HY</text>
<text text-anchor="middle" x="51.5" y="-304.5" font-family="Helvetica,sans-Serif" font-size="10.00">_HydroLocation &gt;</text>
<polyline fill="none" stroke="black" points="0,-297.5 103,-297.5 "/>
<text text-anchor="start" x="8" y="-285.5" font-family="Helvetica,sans-Serif" font-size="10.00">+ ptr</text>
<polyline fill="none" stroke="black" points="0,-278.5 103,-278.5 "/>
<text text-anchor="start" x="8" y="-266.5" font-family="Helvetica,sans-Serif" font-size="10.00">+ operator&#45;&gt;()</text>
</a>
</g>
</g>
<!-- Node4&#45;&gt;Node1 -->
<g id="edge3" class="edge">
<title>Node4&#45;&gt;Node1</title>
<path fill="none" stroke="#404040" d="M75.54,-259.23C85.57,-245.34 97.85,-228.34 110.59,-210.71"/>
<polygon fill="none" stroke="#404040" points="110.68,-210.59 110.95,-203.38 117.71,-200.86 117.44,-208.07 110.68,-210.59"/>
<text text-anchor="middle" x="129" y="-227.5" font-family="Helvetica,sans-Serif" font-size="10.00"> &#45;realization</text>
</g>
<!-- Node5 -->
<g id="node5" class="node">
<title>Node5</title>
<g id="a_node5"><a xlink:title=" ">
<polygon fill="white" stroke="black" points="2,-375.5 2,-432.5 105,-432.5 105,-375.5 2,-375.5"/>
<text text-anchor="middle" x="53.5" y="-420.5" font-family="Helvetica,sans-Serif" font-size="10.00">std::shared_ptr&lt; T &gt;</text>
<polyline fill="none" stroke="black" points="2,-413.5 105,-413.5 "/>
<text text-anchor="middle" x="53.5" y="-401.5" font-family="Helvetica,sans-Serif" font-size="10.00"> </text>
<polyline fill="none" stroke="black" points="2,-394.5 105,-394.5 "/>
<text text-anchor="start" x="10" y="-382.5" font-family="Helvetica,sans-Serif" font-size="10.00">+ operator&#45;&gt;()</text>
</a>
</g>
</g>
<!-- Node5&#45;&gt;Node4 -->
<g id="edge4" class="edge">
<title>Node5&#45;&gt;Node4</title>
<path fill="none" stroke="orange" d="M49.07,-365.25C48.84,-362.46 48.65,-359.69 48.5,-357 47.98,-347.45 48.18,-337.09 48.65,-327.59"/>
<polygon fill="orange" stroke="orange" points="45.59,-365.68 50,-375.31 52.56,-365.03 45.59,-365.68"/>
<text text-anchor="middle" x="99.5" y="-349" font-family="Helvetica,sans-Serif" font-size="10.00"> &lt; HY_HydroLocation &gt;</text>
</g>
<!-- Node6 -->
<g id="node6" class="node">
<title>Node6</title>
<g id="a_node6"><a xlink:title=" ">
<polygon fill="white" stroke="black" points="90,-486 90,-543 119,-543 119,-486 90,-486"/>
<text text-anchor="middle" x="104.5" y="-531" font-family="Helvetica,sans-Serif" font-size="10.00">T</text>
<polyline fill="none" stroke="black" points="90,-524 119,-524 "/>
<text text-anchor="middle" x="104.5" y="-512" font-family="Helvetica,sans-Serif" font-size="10.00"> </text>
<polyline fill="none" stroke="black" points="90,-505 119,-505 "/>
<text text-anchor="middle" x="104.5" y="-493" font-family="Helvetica,sans-Serif" font-size="10.00"> </text>
</a>
</g>
</g>
<!-- Node6&#45;&gt;Node5 -->
<g id="edge5" class="edge">
<title>Node6&#45;&gt;Node5</title>
<path fill="none" stroke="#404040" d="M91.5,-485.84C85.5,-473.09 78.29,-457.73 71.76,-443.84"/>
<polygon fill="none" stroke="#404040" points="71.58,-443.47 65.41,-439.74 66.48,-432.61 72.65,-436.34 71.58,-443.47"/>
<text text-anchor="middle" x="89.5" y="-454" font-family="Helvetica,sans-Serif" font-size="10.00"> +ptr</text>
</g>
<!-- Node8 -->
<g id="node8" class="node">
<title>Node8</title>
<g id="a_node8"><a xlink:title=" ">
<polygon fill="white" stroke="black" points="126.5,-375.5 126.5,-432.5 210.5,-432.5 210.5,-375.5 126.5,-375.5"/>
<text text-anchor="middle" x="168.5" y="-420.5" font-family="Helvetica,sans-Serif" font-size="10.00">std::vector&lt; T &gt;</text>
<polyline fill="none" stroke="black" points="126.5,-413.5 210.5,-413.5 "/>
<text text-anchor="middle" x="168.5" y="-401.5" font-family="Helvetica,sans-Serif" font-size="10.00"> </text>
<polyline fill="none" stroke="black" points="126.5,-394.5 210.5,-394.5 "/>
<text text-anchor="middle" x="168.5" y="-382.5" font-family="Helvetica,sans-Serif" font-size="10.00"> </text>
</a>
</g>
</g>
<!-- Node6&#45;&gt;Node8 -->
<g id="edge9" class="edge">
<title>Node6&#45;&gt;Node8</title>
<path fill="none" stroke="#404040" d="M119.02,-488.88C126.98,-475.4 137.01,-458.39 145.96,-443.22"/>
<polygon fill="none" stroke="#404040" points="146.14,-442.91 145.74,-435.71 152.23,-432.58 152.63,-439.78 146.14,-442.91"/>
<text text-anchor="middle" x="165" y="-454" font-family="Helvetica,sans-Serif" font-size="10.00"> +elements</text>
</g>
<!-- Node7&#45;&gt;Node1 -->
<g id="edge6" class="edge">
<title>Node7&#45;&gt;Node1</title>
<path fill="none" stroke="#404040" d="M189.5,-264.73C189.5,-250.5 189.5,-232.15 189.5,-212.91"/>
<polygon fill="none" stroke="#404040" points="189.5,-212.85 185.5,-206.85 189.5,-200.85 193.5,-206.85 189.5,-212.85"/>
<text text-anchor="middle" x="245.5" y="-233" font-family="Helvetica,sans-Serif" font-size="10.00"> &#45;contributing_catchments</text>
<text text-anchor="middle" x="245.5" y="-222" font-family="Helvetica,sans-Serif" font-size="10.00">&#45;receiving_catchments</text>
</g>
<!-- Node8&#45;&gt;Node7 -->
<g id="edge8" class="edge">
<title>Node8&#45;&gt;Node7</title>
<path fill="none" stroke="orange" d="M170.66,-365.33C171.36,-358.85 172.28,-352.2 173.5,-346 175.06,-338.1 177.37,-329.7 179.76,-322.02"/>
<polygon fill="orange" stroke="orange" points="167.17,-365.01 169.74,-375.29 174.14,-365.66 167.17,-365.01"/>
<text text-anchor="middle" x="204" y="-349" font-family="Helvetica,sans-Serif" font-size="10.00"> &lt; std::string &gt;</text>
</g>
</g>
</svg>
