<?xml version="1.0" encoding="UTF-8" standalone="no"?>
<!DOCTYPE svg PUBLIC "-//W3C//DTD SVG 1.1//EN"
 "http://www.w3.org/Graphics/SVG/1.1/DTD/svg11.dtd">
<!-- Generated by graphviz version 7.0.5 (20221223.1930)
 -->
<!-- Title: HY_CatchmentRealization Pages: 1 -->
<!--zoomable 1196 -->
<svg id="main" version="1.1" xmlns="http://www.w3.org/2000/svg" xmlns:xlink="http://www.w3.org/1999/xlink" xml:space="preserve" onload="init(evt)">
<style type="text/css"><![CDATA[
.edge:hover path { stroke: red; }
.edge:hover polygon { stroke: red; fill: red; }
]]></style>
<script type="text/javascript"><![CDATA[
var edges = document.getElementsByTagName('g');
if (edges && edges.length) {
  for (var i=0;i<edges.length;i++) {
    if (edges[i].id.substr(0,4)=='edge') {
      edges[i].setAttribute('class','edge');
    }
  }
}
]]></script>
        <defs>
                <circle id="rim" cx="0" cy="0" r="7"/>
                <circle id="rim2" cx="0" cy="0" r="3.5"/>
                <g id="zoomPlus">
                        <use xlink:href="#rim" fill="#404040">
                                <set attributeName="fill" to="#808080" begin="zoomplus.mouseover" end="zoomplus.mouseout"/>
                        </use>
                        <path d="M-4,0h8M0,-4v8" fill="none" stroke="white" stroke-width="1.5" pointer-events="none"/>
                </g>
                <g id="zoomMin">
                        <use xlink:href="#rim" fill="#404040">
                                <set attributeName="fill" to="#808080" begin="zoomminus.mouseover" end="zoomminus.mouseout"/>
                        </use>
                        <path d="M-4,0h8" fill="none" stroke="white" stroke-width="1.5" pointer-events="none"/>
                </g>
                <g id="dirArrow">
                        <path fill="none" stroke="white" stroke-width="1.5" d="M0,-3.0v7 M-2.5,-0.5L0,-3.0L2.5,-0.5"/>
                </g>
               <g id="resetDef">
                       <use xlink:href="#rim2" fill="#404040">
                               <set attributeName="fill" to="#808080" begin="reset.mouseover" end="reset.mouseout"/>
                       </use>
               </g>
        </defs>

<script type="text/javascript">
var viewWidth = 981;
var viewHeight = 1196;
var sectionId = 'dynsection-1';
</script>
<script xlink:href="svgpan.js"/>
<svg id="graph" class="graph">
<g id="viewport">
<title>HY_CatchmentRealization</title>
<!-- Node1 -->
<g id="node1" class="node">
<title>Node1</title>
<g id="a_node1"><a xlink:title=" ">
<polygon fill="#999999" stroke="#666666" points="246.5,-561 96.5,-561 96.5,-454 246.5,-454 246.5,-561"/>
<text text-anchor="middle" x="171.5" y="-549" font-family="Helvetica,sans-Serif" font-size="10.00">{HY_CatchmentRealization</text>
<text text-anchor="start" x="104.5" y="-538" font-family="Helvetica,sans-Serif" font-size="10.00">|# id_number</text>
<text text-anchor="start" x="104.5" y="-527" font-family="Helvetica,sans-Serif" font-size="10.00">|+ HY_CatchmentRealization()</text>
<text text-anchor="start" x="104.5" y="-516" font-family="Helvetica,sans-Serif" font-size="10.00">+ HY_CatchmentRealization()</text>
<text text-anchor="start" x="104.5" y="-505" font-family="Helvetica,sans-Serif" font-size="10.00">+ ~HY_CatchmentRealization()</text>
<text text-anchor="start" x="104.5" y="-494" font-family="Helvetica,sans-Serif" font-size="10.00">+ get_response()</text>
<text text-anchor="start" x="104.5" y="-483" font-family="Helvetica,sans-Serif" font-size="10.00"># get_catchment_id()</text>
<text text-anchor="start" x="104.5" y="-472" font-family="Helvetica,sans-Serif" font-size="10.00"># set_catchment_id()</text>
<text text-anchor="middle" x="171.5" y="-461" font-family="Helvetica,sans-Serif" font-size="10.00">}</text>
</a>
</g>
</g>
<!-- Node5 -->
<g id="node5" class="node">
<title>Node5</title>
<g id="a_node5"><a xlink:title=" ">
<polygon fill="white" stroke="#666666" points="432,-405.5 307,-405.5 307,-353.5 432,-353.5 432,-405.5"/>
<text text-anchor="start" x="315" y="-393.5" font-family="Helvetica,sans-Serif" font-size="10.00">{std::shared_ptr&lt; HY</text>
<text text-anchor="middle" x="369.5" y="-382.5" font-family="Helvetica,sans-Serif" font-size="10.00">_CatchmentRealization &gt;</text>
<text text-anchor="start" x="315" y="-371.5" font-family="Helvetica,sans-Serif" font-size="10.00">||+ operator&#45;&gt;()</text>
<text text-anchor="middle" x="369.5" y="-360.5" font-family="Helvetica,sans-Serif" font-size="10.00">}</text>
</a>
</g>
</g>
<!-- Node1&#45;&gt;Node5 -->
<g id="edge5" class="edge">
<title>Node1&#45;&gt;Node5</title>
<path fill="none" stroke="#404040" d="M206.35,-453.55C215.19,-442.99 225.38,-432.78 236.5,-425 253.77,-412.93 274.56,-403.93 294.52,-397.31"/>
<polygon fill="none" stroke="#404040" points="294.48,-397.32 299.02,-391.72 305.94,-393.76 301.4,-399.36 294.48,-397.32"/>
<text text-anchor="middle" x="246.5" y="-428" font-family="Helvetica,sans-Serif" font-size="10.00"> +ptr</text>
</g>
<!-- Node2 -->
<g id="node2" class="node">
<title>Node2</title>
<g id="a_node2"><a xlink:title=" ">
<polygon fill="white" stroke="#666666" points="331.5,-52 225.5,-52 225.5,0 331.5,0 331.5,-52"/>
<text text-anchor="start" x="233.5" y="-40" font-family="Helvetica,sans-Serif" font-size="10.00">{std::shared_ptr&lt; HY</text>
<text text-anchor="middle" x="278.5" y="-29" font-family="Helvetica,sans-Serif" font-size="10.00">_Catchment &gt;</text>
<text text-anchor="start" x="233.5" y="-18" font-family="Helvetica,sans-Serif" font-size="10.00">||+ operator&#45;&gt;()</text>
<text text-anchor="middle" x="278.5" y="-7" font-family="Helvetica,sans-Serif" font-size="10.00">}</text>
</a>
</g>
</g>
<!-- Node2&#45;&gt;Node1 -->
<g id="edge1" class="edge">
<title>Node2&#45;&gt;Node1</title>
<path fill="none" stroke="#404040" d="M265.54,-52.45C241.49,-101.26 190.75,-212.03 172.5,-312 164.77,-354.34 164.49,-402.74 166.16,-440.67"/>
<polygon fill="none" stroke="#404040" points="166.16,-440.73 170.46,-446.52 166.77,-452.72 162.47,-446.93 166.16,-440.73"/>
<text text-anchor="middle" x="218.5" y="-320.5" font-family="Helvetica,sans-Serif" font-size="10.00"> #realized_catchment</text>
</g>
<!-- Node3 -->
<g id="node3" class="node">
<title>Node3</title>
<g id="a_node3"><a xlink:href="class_h_y___catchment.html" target="_top" xlink:title=" ">
<polygon fill="white" stroke="#666666" points="609.5,-294 433.5,-294 433.5,-99 609.5,-99 609.5,-294"/>
<text text-anchor="middle" x="521.5" y="-282" font-family="Helvetica,sans-Serif" font-size="10.00">{HY_Catchment</text>
<text text-anchor="start" x="441.5" y="-271" font-family="Helvetica,sans-Serif" font-size="10.00">|+ ATMOSPHERIC_LAYER_HIGH</text>
<text text-anchor="start" x="441.5" y="-260" font-family="Helvetica,sans-Serif" font-size="10.00">+ ATMOSPHERIC_Layer_LOW</text>
<text text-anchor="start" x="441.5" y="-249" font-family="Helvetica,sans-Serif" font-size="10.00">+ CANOPY_LAYER</text>
<text text-anchor="start" x="441.5" y="-238" font-family="Helvetica,sans-Serif" font-size="10.00">+ SNOW_LAYER</text>
<text text-anchor="start" x="441.5" y="-227" font-family="Helvetica,sans-Serif" font-size="10.00">+ SURFACE_LAYER</text>
<text text-anchor="start" x="441.5" y="-216" font-family="Helvetica,sans-Serif" font-size="10.00">+ GROUND_WATER_SHALLOW</text>
<text text-anchor="start" x="441.5" y="-205" font-family="Helvetica,sans-Serif" font-size="10.00">_LAYER</text>
<text text-anchor="start" x="441.5" y="-194" font-family="Helvetica,sans-Serif" font-size="10.00">+ GROUND_WATER_DEEP_LAYER</text>
<text text-anchor="start" x="441.5" y="-183" font-family="Helvetica,sans-Serif" font-size="10.00">&#45; layer</text>
<text text-anchor="start" x="441.5" y="-172" font-family="Helvetica,sans-Serif" font-size="10.00">|+ HY_Catchment()</text>
<text text-anchor="start" x="441.5" y="-161" font-family="Helvetica,sans-Serif" font-size="10.00">+ HY_Catchment()</text>
<text text-anchor="start" x="441.5" y="-150" font-family="Helvetica,sans-Serif" font-size="10.00">+ ~HY_Catchment()</text>
<text text-anchor="start" x="441.5" y="-139" font-family="Helvetica,sans-Serif" font-size="10.00">+ get_outflow_nexuses()</text>
<text text-anchor="start" x="441.5" y="-128" font-family="Helvetica,sans-Serif" font-size="10.00">+ get_layer()</text>
<text text-anchor="start" x="441.5" y="-117" font-family="Helvetica,sans-Serif" font-size="10.00">+ set_layer()</text>
<text text-anchor="middle" x="521.5" y="-106" font-family="Helvetica,sans-Serif" font-size="10.00">}</text>
</a>
</g>
</g>
<!-- Node3&#45;&gt;Node2 -->
<g id="edge2" class="edge">
<title>Node3&#45;&gt;Node2</title>
<path fill="none" stroke="#404040" d="M433.08,-134.19C396.67,-108.94 355.96,-80.71 325.46,-59.56"/>
<polygon fill="none" stroke="#404040" points="325.72,-59.75 318.51,-59.61 315.86,-52.91 323.07,-53.04 325.72,-59.75"/>
<text text-anchor="middle" x="360.5" y="-73" font-family="Helvetica,sans-Serif" font-size="10.00"> +ptr</text>
</g>
<!-- Node4 -->
<g id="node4" class="node">
<title>Node4</title>
<g id="a_node4"><a xlink:href="class_h_y___hydro_feature.html" target="_top" xlink:title=" ">
<polygon fill="white" stroke="#666666" points="845.5,-405.5 731.5,-405.5 731.5,-353.5 845.5,-353.5 845.5,-405.5"/>
<text text-anchor="middle" x="788.5" y="-393.5" font-family="Helvetica,sans-Serif" font-size="10.00">{HY_HydroFeature</text>
<text text-anchor="start" x="739.5" y="-382.5" font-family="Helvetica,sans-Serif" font-size="10.00">||+ HY_HydroFeature()</text>
<text text-anchor="start" x="739.5" y="-371.5" font-family="Helvetica,sans-Serif" font-size="10.00">+ ~HY_HydroFeature()</text>
<text text-anchor="middle" x="788.5" y="-360.5" font-family="Helvetica,sans-Serif" font-size="10.00">}</text>
</a>
</g>
</g>
<!-- Node4&#45;&gt;Node3 -->
<g id="edge3" class="edge">
<title>Node4&#45;&gt;Node3</title>
<path fill="none" stroke="#63b8ff" d="M758.58,-344.85C747.8,-333.71 735.16,-321.69 722.5,-312 687.74,-285.39 646.15,-260.68 609.83,-241.08"/>
<polygon fill="none" stroke="#63b8ff" points="755.97,-347.19 765.39,-352.05 761.06,-342.38 755.97,-347.19"/>
</g>
<!-- Node5&#45;&gt;Node3 -->
<g id="edge4" class="edge">
<title>Node5&#45;&gt;Node3</title>
<path fill="none" stroke="#404040" d="M379.66,-353.02C385.4,-340.12 393.28,-324.58 402.5,-312 409.22,-302.83 416.72,-293.75 424.59,-284.96"/>
<polygon fill="none" stroke="#404040" points="424.52,-285.04 425.63,-277.92 432.64,-276.21 431.52,-283.33 424.52,-285.04"/>
<text text-anchor="middle" x="428.5" y="-320.5" font-family="Helvetica,sans-Serif" font-size="10.00"> +realization</text>
</g>
<!-- Node6 -->
<g id="node6" class="node">
<title>Node6</title>
<g id="a_node6"><a xlink:title=" ">
<polygon fill="white" stroke="#666666" points="381.5,-759 275.5,-759 275.5,-718 381.5,-718 381.5,-759"/>
<text text-anchor="middle" x="328.5" y="-747" font-family="Helvetica,sans-Serif" font-size="10.00">{std::shared_ptr&lt; T &gt;</text>
<text text-anchor="start" x="283.5" y="-736" font-family="Helvetica,sans-Serif" font-size="10.00">||+ operator&#45;&gt;()</text>
<text text-anchor="middle" x="328.5" y="-725" font-family="Helvetica,sans-Serif" font-size="10.00">}</text>
</a>
</g>
</g>
<!-- Node6&#45;&gt;Node2 -->
<g id="edge17" class="edge">
<title>Node6&#45;&gt;Node2</title>
<path fill="none" stroke="orange" d="M305.6,-708.44C292.44,-688.84 278.5,-661.76 278.5,-635 278.5,-635 278.5,-635 278.5,-195.5 278.5,-144.75 278.5,-85.39 278.5,-52.41"/>
<polygon fill="orange" stroke="orange" points="302.63,-710.3 311.26,-716.45 308.35,-706.27 302.63,-710.3"/>
<text text-anchor="middle" x="321.5" y="-428" font-family="Helvetica,sans-Serif" font-size="10.00"> &lt; HY_Catchment &gt;</text>
</g>
<!-- Node6&#45;&gt;Node5 -->
<g id="edge6" class="edge">
<title>Node6&#45;&gt;Node5</title>
<path fill="none" stroke="orange" d="M332.82,-706.5C340.32,-651.92 355.86,-535.06 365.5,-436 366.45,-426.19 367.28,-415.39 367.94,-405.94"/>
<polygon fill="orange" stroke="orange" points="329.38,-705.9 331.47,-716.28 336.31,-706.86 329.38,-705.9"/>
<text text-anchor="middle" x="416" y="-582" font-family="Helvetica,sans-Serif" font-size="10.00"> &lt; HY_CatchmentRealization &gt;</text>
</g>
<!-- Node13 -->
<g id="node13" class="node">
<title>Node13</title>
<g id="a_node13"><a xlink:title=" ">
<polygon fill="white" stroke="#666666" points="216.5,-660 60.5,-660 60.5,-608 216.5,-608 216.5,-660"/>
<text text-anchor="start" x="68.5" y="-648" font-family="Helvetica,sans-Serif" font-size="10.00">{std::shared_ptr&lt; data</text>
<text text-anchor="middle" x="138.5" y="-637" font-family="Helvetica,sans-Serif" font-size="10.00">_access::GenericDataProvider &gt;</text>
<text text-anchor="start" x="68.5" y="-626" font-family="Helvetica,sans-Serif" font-size="10.00">||+ operator&#45;&gt;()</text>
<text text-anchor="middle" x="138.5" y="-615" font-family="Helvetica,sans-Serif" font-size="10.00">}</text>
</a>
</g>
</g>
<!-- Node6&#45;&gt;Node13 -->
<g id="edge22" class="edge">
<title>Node6&#45;&gt;Node13</title>
<path fill="none" stroke="orange" d="M264.1,-733.23C215.77,-728.53 155.32,-718.97 139.5,-700 130.54,-689.25 130.02,-673.67 131.87,-660.45"/>
<polygon fill="orange" stroke="orange" points="263.68,-736.7 273.96,-734.13 264.32,-729.73 263.68,-736.7"/>
<text text-anchor="start" x="139.5" y="-692" font-family="Helvetica,sans-Serif" font-size="10.00"> &lt; data_access::GenericData</text>
<text text-anchor="middle" x="202" y="-681" font-family="Helvetica,sans-Serif" font-size="10.00">Provider &gt;</text>
</g>
<!-- Node7 -->
<g id="node7" class="node">
<title>Node7</title>
<g id="a_node7"><a xlink:title=" ">
<polygon fill="white" stroke="#666666" points="595,-902 566,-902 566,-872 595,-872 595,-902"/>
<text text-anchor="middle" x="580.5" y="-890" font-family="Helvetica,sans-Serif" font-size="10.00">{T</text>
<text text-anchor="middle" x="580.5" y="-879" font-family="Helvetica,sans-Serif" font-size="10.00">||}</text>
</a>
</g>
</g>
<!-- Node7&#45;&gt;Node6 -->
<g id="edge7" class="edge">
<title>Node7&#45;&gt;Node6</title>
<path fill="none" stroke="#404040" d="M565.86,-877.49C529.13,-856.14 431.85,-799.58 373.86,-765.87"/>
<polygon fill="none" stroke="#404040" points="373.97,-765.94 366.78,-766.38 363.6,-759.91 370.8,-759.46 373.97,-765.94"/>
<text text-anchor="middle" x="420.5" y="-780" font-family="Helvetica,sans-Serif" font-size="10.00"> +ptr</text>
</g>
<!-- Node11 -->
<g id="node11" class="node">
<title>Node11</title>
<g id="a_node11"><a xlink:title=" ">
<polygon fill="white" stroke="#666666" points="754,-522.5 667,-522.5 667,-492.5 754,-492.5 754,-522.5"/>
<text text-anchor="middle" x="710.5" y="-510.5" font-family="Helvetica,sans-Serif" font-size="10.00">{std::vector&lt; T &gt;</text>
<text text-anchor="middle" x="710.5" y="-499.5" font-family="Helvetica,sans-Serif" font-size="10.00">||}</text>
</a>
</g>
</g>
<!-- Node7&#45;&gt;Node11 -->
<g id="edge13" class="edge">
<title>Node7&#45;&gt;Node11</title>
<path fill="none" stroke="#404040" d="M585.44,-871.66C604.82,-815.37 675.91,-608.95 701.36,-535.04"/>
<polygon fill="none" stroke="#404040" points="701.36,-535.05 699.53,-528.07 705.26,-523.7 707.09,-530.68 701.36,-535.05"/>
<text text-anchor="middle" x="675" y="-686.5" font-family="Helvetica,sans-Serif" font-size="10.00"> +elements</text>
</g>
<!-- Node8 -->
<g id="node8" class="node">
<title>Node8</title>
<g id="a_node8"><a xlink:title=" ">
<polygon fill="white" stroke="#666666" points="597.5,-522.5 535.5,-522.5 535.5,-492.5 597.5,-492.5 597.5,-522.5"/>
<text text-anchor="middle" x="566.5" y="-510.5" font-family="Helvetica,sans-Serif" font-size="10.00">{std::string</text>
<text text-anchor="middle" x="566.5" y="-499.5" font-family="Helvetica,sans-Serif" font-size="10.00">||}</text>
</a>
</g>
</g>
<!-- Node8&#45;&gt;Node3 -->
<g id="edge8" class="edge">
<title>Node8&#45;&gt;Node3</title>
<path fill="none" stroke="#404040" d="M547.11,-492.21C525.38,-474.86 491.39,-443.37 477.5,-407 465.42,-375.37 467.51,-339.72 475.21,-306.91"/>
<polygon fill="none" stroke="#404040" points="475.2,-306.98 472.82,-300.17 478.2,-295.36 480.57,-302.17 475.2,-306.98"/>
<text text-anchor="middle" x="527" y="-399" font-family="Helvetica,sans-Serif" font-size="10.00"> &#45;conjoint_catchment</text>
<text text-anchor="middle" x="527" y="-388" font-family="Helvetica,sans-Serif" font-size="10.00">&#45;containing_catchment</text>
<text text-anchor="middle" x="527" y="-377" font-family="Helvetica,sans-Serif" font-size="10.00">&#45;id</text>
<text text-anchor="middle" x="527" y="-366" font-family="Helvetica,sans-Serif" font-size="10.00">&#45;lower_catchment</text>
<text text-anchor="middle" x="527" y="-355" font-family="Helvetica,sans-Serif" font-size="10.00">&#45;upper_catchment</text>
</g>
<!-- Node10 -->
<g id="node10" class="node">
<title>Node10</title>
<g id="a_node10"><a xlink:title=" ">
<polygon fill="white" stroke="#666666" points="973,-394.5 864,-394.5 864,-364.5 973,-364.5 973,-394.5"/>
<text text-anchor="middle" x="918.5" y="-382.5" font-family="Helvetica,sans-Serif" font-size="10.00">{std::vector&lt; Nexus &gt;</text>
<text text-anchor="middle" x="918.5" y="-371.5" font-family="Helvetica,sans-Serif" font-size="10.00">||}</text>
</a>
</g>
</g>
<!-- Node8&#45;&gt;Node10 -->
<g id="edge11" class="edge">
<title>Node8&#45;&gt;Node10</title>
<path fill="none" stroke="#404040" d="M573.82,-492.29C584.51,-473.23 606.32,-440.01 635.5,-425 678.92,-402.66 807.04,-418.48 854.5,-407 861.99,-405.19 869.74,-402.62 877.15,-399.8"/>
<polygon fill="none" stroke="#404040" points="877.25,-399.76 881.29,-393.79 888.35,-395.22 884.31,-401.19 877.25,-399.76"/>
<text text-anchor="middle" x="660" y="-428" font-family="Helvetica,sans-Serif" font-size="10.00"> +elements</text>
</g>
<!-- Node12 -->
<g id="node12" class="node">
<title>Node12</title>
<g id="a_node12"><a xlink:title=" ">
<polygon fill="white" stroke="#666666" points="713.5,-394.5 585.5,-394.5 585.5,-364.5 713.5,-364.5 713.5,-394.5"/>
<text text-anchor="middle" x="649.5" y="-382.5" font-family="Helvetica,sans-Serif" font-size="10.00">{std::vector&lt; Catchment &gt;</text>
<text text-anchor="middle" x="649.5" y="-371.5" font-family="Helvetica,sans-Serif" font-size="10.00">||}</text>
</a>
</g>
</g>
<!-- Node8&#45;&gt;Node12 -->
<g id="edge15" class="edge">
<title>Node8&#45;&gt;Node12</title>
<path fill="none" stroke="#404040" d="M562.56,-492.06C558.71,-474.78 555.07,-445.6 567.5,-425 573.46,-415.13 582.45,-407.3 592.32,-401.15"/>
<polygon fill="none" stroke="#404040" points="592.41,-401.1 595.75,-394.71 602.93,-395.33 599.59,-401.72 592.41,-401.1"/>
<text text-anchor="middle" x="592" y="-428" font-family="Helvetica,sans-Serif" font-size="10.00"> +elements</text>
</g>
<!-- Node9 -->
<g id="node9" class="node">
<title>Node9</title>
<g id="a_node9"><a xlink:title=" ">
<polygon fill="white" stroke="#666666" points="614.5,-654.5 518.5,-654.5 518.5,-613.5 614.5,-613.5 614.5,-654.5"/>
<text text-anchor="start" x="526.5" y="-642.5" font-family="Helvetica,sans-Serif" font-size="10.00">{std::basic_string&lt;</text>
<text text-anchor="middle" x="566.5" y="-631.5" font-family="Helvetica,sans-Serif" font-size="10.00"> Char &gt;</text>
<text text-anchor="middle" x="566.5" y="-620.5" font-family="Helvetica,sans-Serif" font-size="10.00">||}</text>
</a>
</g>
</g>
<!-- Node9&#45;&gt;Node8 -->
<g id="edge9" class="edge">
<title>Node9&#45;&gt;Node8</title>
<path fill="none" stroke="#63b8ff" d="M566.5,-602.02C566.5,-576.65 566.5,-541.91 566.5,-522.71"/>
<polygon fill="none" stroke="#63b8ff" points="563,-601.76 566.5,-611.76 570,-601.76 563,-601.76"/>
</g>
<!-- Node10&#45;&gt;Node3 -->
<g id="edge10" class="edge">
<title>Node10&#45;&gt;Node3</title>
<path fill="none" stroke="#404040" d="M887.02,-364.15C830.38,-338.33 709.1,-283.03 621.75,-243.21"/>
<polygon fill="none" stroke="#404040" points="621.67,-243.17 614.55,-244.32 610.75,-238.19 617.87,-237.04 621.67,-243.17"/>
<text text-anchor="middle" x="831.5" y="-326" font-family="Helvetica,sans-Serif" font-size="10.00"> &#45;inflows</text>
<text text-anchor="middle" x="831.5" y="-315" font-family="Helvetica,sans-Serif" font-size="10.00">&#45;outflows</text>
</g>
<!-- Node11&#45;&gt;Node10 -->
<g id="edge12" class="edge">
<title>Node11&#45;&gt;Node10</title>
<path fill="none" stroke="orange" d="M744.17,-486.1C786.36,-460.55 857.61,-417.39 894.6,-394.98"/>
<polygon fill="orange" stroke="orange" points="742.39,-483.09 735.65,-491.26 746.02,-489.07 742.39,-483.09"/>
<text text-anchor="middle" x="862" y="-428" font-family="Helvetica,sans-Serif" font-size="10.00"> &lt; Nexus &gt;</text>
</g>
<!-- Node11&#45;&gt;Node12 -->
<g id="edge16" class="edge">
<title>Node11&#45;&gt;Node12</title>
<path fill="none" stroke="orange" d="M706.73,-481.14C703.53,-464.47 697.91,-442.57 688.5,-425 682.49,-413.77 673.15,-402.98 665.12,-394.84"/>
<polygon fill="orange" stroke="orange" points="703.24,-481.48 708.4,-490.73 710.13,-480.28 703.24,-481.48"/>
<text text-anchor="middle" x="726" y="-428" font-family="Helvetica,sans-Serif" font-size="10.00"> &lt; Catchment &gt;</text>
</g>
<!-- Node12&#45;&gt;Node3 -->
<g id="edge14" class="edge">
<title>Node12&#45;&gt;Node3</title>
<path fill="none" stroke="#404040" d="M639.46,-364.3C629.75,-350.58 614.09,-328.43 597.31,-304.7"/>
<polygon fill="none" stroke="#404040" points="597.25,-304.62 590.52,-302.03 590.32,-294.82 597.05,-297.41 597.25,-304.62"/>
<text text-anchor="middle" x="666.5" y="-320.5" font-family="Helvetica,sans-Serif" font-size="10.00"> &#45;contained_catchments</text>
</g>
<!-- Node13&#45;&gt;Node1 -->
<g id="edge18" class="edge">
<title>Node13&#45;&gt;Node1</title>
<path fill="none" stroke="#404040" d="M145.26,-607.51C147.87,-597.63 151,-585.84 154.17,-573.89"/>
<polygon fill="none" stroke="#404040" points="154.16,-573.92 151.83,-567.1 157.23,-562.32 159.56,-569.15 154.16,-573.92"/>
<text text-anchor="middle" x="171" y="-582" font-family="Helvetica,sans-Serif" font-size="10.00"> #forcing</text>
</g>
<!-- Node14 -->
<g id="node14" class="node">
<title>Node14</title>
<g id="a_node14"><a xlink:href="classdata__access_1_1_generic_data_provider.html" target="_top" xlink:title=" ">
<polygon fill="white" stroke="#666666" points="162.5,-759 28.5,-759 28.5,-718 162.5,-718 162.5,-759"/>
<text text-anchor="start" x="36.5" y="-747" font-family="Helvetica,sans-Serif" font-size="10.00">{data_access::GenericData</text>
<text text-anchor="middle" x="95.5" y="-736" font-family="Helvetica,sans-Serif" font-size="10.00">Provider</text>
<text text-anchor="middle" x="95.5" y="-725" font-family="Helvetica,sans-Serif" font-size="10.00">||}</text>
</a>
</g>
</g>
<!-- Node14&#45;&gt;Node13 -->
<g id="edge19" class="edge">
<title>Node14&#45;&gt;Node13</title>
<path fill="none" stroke="#404040" d="M92.26,-717.73C91.15,-705.78 91.29,-690.49 96.5,-678 97.54,-675.52 98.79,-673.1 100.21,-670.76"/>
<polygon fill="none" stroke="#404040" points="100.18,-670.79 100.51,-663.59 107.28,-661.12 106.95,-668.33 100.18,-670.79"/>
<text text-anchor="middle" x="106.5" y="-686.5" font-family="Helvetica,sans-Serif" font-size="10.00"> +ptr</text>
</g>
<!-- Node15 -->
<g id="node15" class="node">
<title>Node15</title>
<g id="a_node15"><a xlink:href="classdata__access_1_1_data_provider.html" target="_top" xlink:title=" ">
<polygon fill="white" stroke="#666666" points="191,-968 0,-968 0,-806 191,-806 191,-968"/>
<text text-anchor="start" x="8" y="-956" font-family="Helvetica,sans-Serif" font-size="10.00">{data_access::DataProvider</text>
<text text-anchor="middle" x="95.5" y="-945" font-family="Helvetica,sans-Serif" font-size="10.00">&lt; double, CatchmentAggrDataSelector &gt;</text>
<text text-anchor="start" x="8" y="-934" font-family="Helvetica,sans-Serif" font-size="10.00">||+ ~DataProvider()</text>
<text text-anchor="start" x="8" y="-923" font-family="Helvetica,sans-Serif" font-size="10.00">+ get_available_variable</text>
<text text-anchor="start" x="8" y="-912" font-family="Helvetica,sans-Serif" font-size="10.00">_names()</text>
<text text-anchor="start" x="8" y="-901" font-family="Helvetica,sans-Serif" font-size="10.00">+ get_data_start_time()</text>
<text text-anchor="start" x="8" y="-890" font-family="Helvetica,sans-Serif" font-size="10.00">+ get_data_stop_time()</text>
<text text-anchor="start" x="8" y="-879" font-family="Helvetica,sans-Serif" font-size="10.00">+ record_duration()</text>
<text text-anchor="start" x="8" y="-868" font-family="Helvetica,sans-Serif" font-size="10.00">+ get_ts_index_for_time()</text>
<text text-anchor="start" x="8" y="-857" font-family="Helvetica,sans-Serif" font-size="10.00">+ get_value()</text>
<text text-anchor="start" x="8" y="-846" font-family="Helvetica,sans-Serif" font-size="10.00">+ get_values()</text>
<text text-anchor="start" x="8" y="-835" font-family="Helvetica,sans-Serif" font-size="10.00">+ is_property_sum_over</text>
<text text-anchor="start" x="8" y="-824" font-family="Helvetica,sans-Serif" font-size="10.00">_time_step()</text>
<text text-anchor="middle" x="95.5" y="-813" font-family="Helvetica,sans-Serif" font-size="10.00">}</text>
</a>
</g>
</g>
<!-- Node15&#45;&gt;Node14 -->
<g id="edge20" class="edge">
<title>Node15&#45;&gt;Node14</title>
<path fill="none" stroke="#63b8ff" d="M95.5,-794.61C95.5,-781.37 95.5,-768.97 95.5,-759.3"/>
<polygon fill="none" stroke="#63b8ff" points="92,-794.38 95.5,-804.38 99,-794.38 92,-794.38"/>
</g>
<!-- Node16 -->
<g id="node16" class="node">
<title>Node16</title>
<g id="a_node16"><a xlink:href="classdata__access_1_1_data_provider.html" target="_top" xlink:title=" ">
<polygon fill="white" stroke="#666666" points="167,-1188 24,-1188 24,-1026 167,-1026 167,-1188"/>
<text text-anchor="start" x="32" y="-1176" font-family="Helvetica,sans-Serif" font-size="10.00">{data_access::DataProvider</text>
<text text-anchor="middle" x="95.5" y="-1165" font-family="Helvetica,sans-Serif" font-size="10.00">&lt; data_type, selection_type &gt;</text>
<text text-anchor="start" x="32" y="-1154" font-family="Helvetica,sans-Serif" font-size="10.00">||+ ~DataProvider()</text>
<text text-anchor="start" x="32" y="-1143" font-family="Helvetica,sans-Serif" font-size="10.00">+ get_available_variable</text>
<text text-anchor="start" x="32" y="-1132" font-family="Helvetica,sans-Serif" font-size="10.00">_names()</text>
<text text-anchor="start" x="32" y="-1121" font-family="Helvetica,sans-Serif" font-size="10.00">+ get_data_start_time()</text>
<text text-anchor="start" x="32" y="-1110" font-family="Helvetica,sans-Serif" font-size="10.00">+ get_data_stop_time()</text>
<text text-anchor="start" x="32" y="-1099" font-family="Helvetica,sans-Serif" font-size="10.00">+ record_duration()</text>
<text text-anchor="start" x="32" y="-1088" font-family="Helvetica,sans-Serif" font-size="10.00">+ get_ts_index_for_time()</text>
<text text-anchor="start" x="32" y="-1077" font-family="Helvetica,sans-Serif" font-size="10.00">+ get_value()</text>
<text text-anchor="start" x="32" y="-1066" font-family="Helvetica,sans-Serif" font-size="10.00">+ get_values()</text>
<text text-anchor="start" x="32" y="-1055" font-family="Helvetica,sans-Serif" font-size="10.00">+ is_property_sum_over</text>
<text text-anchor="start" x="32" y="-1044" font-family="Helvetica,sans-Serif" font-size="10.00">_time_step()</text>
<text text-anchor="middle" x="95.5" y="-1033" font-family="Helvetica,sans-Serif" font-size="10.00">}</text>
</a>
</g>
</g>
<!-- Node16&#45;&gt;Node15 -->
<g id="edge21" class="edge">
<title>Node16&#45;&gt;Node15</title>
<path fill="none" stroke="orange" d="M95.5,-1014.68C95.5,-999.33 95.5,-983.49 95.5,-968.44"/>
<polygon fill="orange" stroke="orange" points="92,-1014.24 95.5,-1024.24 99,-1014.24 92,-1014.24"/>
<text text-anchor="start" x="95.5" y="-1000" font-family="Helvetica,sans-Serif" font-size="10.00"> &lt; double, CatchmentAggrData</text>
<text text-anchor="middle" x="162" y="-989" font-family="Helvetica,sans-Serif" font-size="10.00">Selector &gt;</text>
</g>
</g>
</svg>
        <g id="navigator" transform="translate(0 0)" fill="#404254">
                <rect fill="#f2f5e9" fill-opacity="0.5" stroke="#606060" stroke-width=".5" x="0" y="0" width="60" height="60"/>
                <use id="zoomplus" xlink:href="#zoomPlus" x="17" y="9" onmousedown="handleZoom(evt,'in')"/>
                <use id="zoomminus" xlink:href="#zoomMin" x="42" y="9" onmousedown="handleZoom(evt,'out')"/>
                <use id="reset" xlink:href="#resetDef" x="30" y="36" onmousedown="handleReset()"/>
                <g id="arrowUp" xlink:href="#dirArrow" transform="translate(30 24)" onmousedown="handlePan(0,-1)">
                  <use xlink:href="#rim" fill="#404040">
                        <set attributeName="fill" to="#808080" begin="arrowUp.mouseover" end="arrowUp.mouseout"/>
                  </use>
                  <path fill="none" stroke="white" stroke-width="1.5" d="M0,-3.0v7 M-2.5,-0.5L0,-3.0L2.5,-0.5"/>
                </g>
                <g id="arrowRight" xlink:href="#dirArrow" transform="rotate(90) translate(36 -43)" onmousedown="handlePan(1,0)">
                  <use xlink:href="#rim" fill="#404040">
                        <set attributeName="fill" to="#808080" begin="arrowRight.mouseover" end="arrowRight.mouseout"/>
                  </use>
                  <path fill="none" stroke="white" stroke-width="1.5" d="M0,-3.0v7 M-2.5,-0.5L0,-3.0L2.5,-0.5"/>
                </g>
                <g id="arrowDown" xlink:href="#dirArrow" transform="rotate(180) translate(-30 -48)" onmousedown="handlePan(0,1)">
                  <use xlink:href="#rim" fill="#404040">
                        <set attributeName="fill" to="#808080" begin="arrowDown.mouseover" end="arrowDown.mouseout"/>
                  </use>
                  <path fill="none" stroke="white" stroke-width="1.5" d="M0,-3.0v7 M-2.5,-0.5L0,-3.0L2.5,-0.5"/>
                </g>
                <g id="arrowLeft" xlink:href="#dirArrow" transform="rotate(270) translate(-36 17)" onmousedown="handlePan(-1,0)">
                  <use xlink:href="#rim" fill="#404040">
                        <set attributeName="fill" to="#808080" begin="arrowLeft.mouseover" end="arrowLeft.mouseout"/>
                  </use>
                  <path fill="none" stroke="white" stroke-width="1.5" d="M0,-3.0v7 M-2.5,-0.5L0,-3.0L2.5,-0.5"/>
                </g>
        </g>
        <svg viewBox="0 0 15 15" width="100%" height="30px" preserveAspectRatio="xMaxYMin meet">
         <g id="arrow_out" transform="scale(0.3 0.3)">
          <a xlink:href="class_h_y___catchment_realization__coll__graph_org.svg" target="_base">
           <rect id="button" ry="5" rx="5" y="6" x="6" height="38" width="38"
                fill="#f2f5e9" fill-opacity="0.5" stroke="#606060" stroke-width="1.0"/>
           <path id="arrow"
             d="M 11.500037,31.436501 C 11.940474,20.09759 22.043105,11.32322 32.158766,21.979434 L 37.068811,17.246167 C 37.068811,17.246167 37.088388,32 37.088388,32 L 22.160133,31.978069 C 22.160133,31.978069 26.997745,27.140456 26.997745,27.140456 C 18.528582,18.264221 13.291696,25.230495 11.500037,31.436501 z"
             style="fill:#404040;"/>
          </a>
         </g>
        </svg>
</svg>
