<?xml version="1.0" encoding="UTF-8" standalone="no"?>
<!DOCTYPE svg PUBLIC "-//W3C//DTD SVG 1.1//EN"
 "http://www.w3.org/Graphics/SVG/1.1/DTD/svg11.dtd">
<!-- Generated by graphviz version 9.0.0 (20230911.1827)
 -->
<!-- Title: realization::Bmi_Multi_Formulation Pages: 1 -->
<svg width="516pt" height="2112pt"
 viewBox="0.00 0.00 515.50 2111.50" xmlns="http://www.w3.org/2000/svg" xmlns:xlink="http://www.w3.org/1999/xlink">
<g id="graph0" class="graph" transform="scale(1 1) rotate(0) translate(4 2107.5)">
<title>realization::Bmi_Multi_Formulation</title>
<!-- Node1 -->
<g id="Node000001" class="node">
<title>Node1</title>
<g id="a_Node000001"><a xlink:title="Abstraction of a formulation with multiple backing model object that implements the BMI.">
<polygon fill="#999999" stroke="none" points="357.5,-602 205.5,-602 205.5,0 357.5,0 357.5,-602"/>
<text text-anchor="start" x="235.75" y="-588.5" font-family="Helvetica,sans-Serif" font-size="10.00">realization::Bmi_Multi</text>
<text text-anchor="start" x="253.38" y="-577.25" font-family="Helvetica,sans-Serif" font-size="10.00">_Formulation</text>
<text text-anchor="start" x="209.88" y="-562.5" font-family="Helvetica,sans-Serif" font-size="10.00">#</text>
<text text-anchor="start" x="219.5" y="-562.5" font-family="Helvetica,sans-Serif" font-size="10.00">availableData</text>
<text text-anchor="start" x="211" y="-547.5" font-family="Helvetica,sans-Serif" font-size="10.00">&#45;</text>
<text text-anchor="start" x="219.5" y="-547.5" font-family="Helvetica,sans-Serif" font-size="10.00">available_forcings</text>
<text text-anchor="start" x="211" y="-532.5" font-family="Helvetica,sans-Serif" font-size="10.00">&#45;</text>
<text text-anchor="start" x="219.5" y="-532.5" font-family="Helvetica,sans-Serif" font-size="10.00">default_output_values</text>
<text text-anchor="start" x="211" y="-517.5" font-family="Helvetica,sans-Serif" font-size="10.00">&#45;</text>
<text text-anchor="start" x="219.5" y="-517.5" font-family="Helvetica,sans-Serif" font-size="10.00">deferredProviders</text>
<text text-anchor="start" x="211" y="-502.5" font-family="Helvetica,sans-Serif" font-size="10.00">&#45;</text>
<text text-anchor="start" x="219.5" y="-502.5" font-family="Helvetica,sans-Serif" font-size="10.00">deferredProviderModuleIndices</text>
<text text-anchor="start" x="211" y="-487.5" font-family="Helvetica,sans-Serif" font-size="10.00">&#45;</text>
<text text-anchor="start" x="219.5" y="-487.5" font-family="Helvetica,sans-Serif" font-size="10.00">is_out_vars_from_last_mod</text>
<text text-anchor="start" x="211" y="-472.5" font-family="Helvetica,sans-Serif" font-size="10.00">&#45;</text>
<text text-anchor="start" x="219.5" y="-472.5" font-family="Helvetica,sans-Serif" font-size="10.00">modules</text>
<text text-anchor="start" x="211" y="-457.5" font-family="Helvetica,sans-Serif" font-size="10.00">&#45;</text>
<text text-anchor="start" x="219.5" y="-457.5" font-family="Helvetica,sans-Serif" font-size="10.00">module_types</text>
<text text-anchor="start" x="211" y="-442.5" font-family="Helvetica,sans-Serif" font-size="10.00">&#45;</text>
<text text-anchor="start" x="219.5" y="-442.5" font-family="Helvetica,sans-Serif" font-size="10.00">module_variable_maps</text>
<text text-anchor="start" x="211" y="-427.5" font-family="Helvetica,sans-Serif" font-size="10.00">&#45;</text>
<text text-anchor="start" x="219.5" y="-427.5" font-family="Helvetica,sans-Serif" font-size="10.00">next_time_step_index</text>
<text text-anchor="start" x="211" y="-412.5" font-family="Helvetica,sans-Serif" font-size="10.00">&#45;</text>
<text text-anchor="start" x="219.5" y="-412.5" font-family="Helvetica,sans-Serif" font-size="10.00">primary_module_index</text>
<text text-anchor="start" x="211" y="-397.5" font-family="Helvetica,sans-Serif" font-size="10.00">&#45;</text>
<text text-anchor="start" x="219.5" y="-397.5" font-family="Helvetica,sans-Serif" font-size="10.00">Bmi_Multi_Formulation_Test</text>
<text text-anchor="start" x="209.5" y="-382.5" font-family="Helvetica,sans-Serif" font-size="10.00">+</text>
<text text-anchor="start" x="219.5" y="-382.5" font-family="Helvetica,sans-Serif" font-size="10.00">Bmi_Multi_Formulation()</text>
<text text-anchor="start" x="209.5" y="-367.5" font-family="Helvetica,sans-Serif" font-size="10.00">+</text>
<text text-anchor="start" x="219.5" y="-367.5" font-family="Helvetica,sans-Serif" font-size="10.00">~Bmi_Multi_Formulation()</text>
<text text-anchor="start" x="209.5" y="-352.5" font-family="Helvetica,sans-Serif" font-size="10.00">+</text>
<text text-anchor="start" x="219.5" y="-352.5" font-family="Helvetica,sans-Serif" font-size="10.00">convert_model_time()</text>
<text text-anchor="start" x="209.5" y="-337.5" font-family="Helvetica,sans-Serif" font-size="10.00">+</text>
<text text-anchor="start" x="219.5" y="-337.5" font-family="Helvetica,sans-Serif" font-size="10.00">convert_model_time()</text>
<text text-anchor="start" x="209.5" y="-322.5" font-family="Helvetica,sans-Serif" font-size="10.00">+</text>
<text text-anchor="start" x="219.5" y="-322.5" font-family="Helvetica,sans-Serif" font-size="10.00">create_formulation()</text>
<text text-anchor="start" x="209.5" y="-307.5" font-family="Helvetica,sans-Serif" font-size="10.00">+</text>
<text text-anchor="start" x="219.5" y="-307.5" font-family="Helvetica,sans-Serif" font-size="10.00">create_formulation()</text>
<text text-anchor="start" x="209.5" y="-292.5" font-family="Helvetica,sans-Serif" font-size="10.00">+</text>
<text text-anchor="start" x="219.5" y="-292.5" font-family="Helvetica,sans-Serif" font-size="10.00">get_allow_model_exceed</text>
<text text-anchor="start" x="219.5" y="-281.25" font-family="Helvetica,sans-Serif" font-size="10.00">_end_time()</text>
<text text-anchor="start" x="209.5" y="-266.5" font-family="Helvetica,sans-Serif" font-size="10.00">+</text>
<text text-anchor="start" x="219.5" y="-266.5" font-family="Helvetica,sans-Serif" font-size="10.00">get_available_variable</text>
<text text-anchor="start" x="219.5" y="-255.25" font-family="Helvetica,sans-Serif" font-size="10.00">_names()</text>
<text text-anchor="start" x="209.5" y="-240.5" font-family="Helvetica,sans-Serif" font-size="10.00">+</text>
<text text-anchor="start" x="219.5" y="-240.5" font-family="Helvetica,sans-Serif" font-size="10.00">get_bmi_input_variables()</text>
<text text-anchor="start" x="209.5" y="-225.5" font-family="Helvetica,sans-Serif" font-size="10.00">+</text>
<text text-anchor="start" x="219.5" y="-225.5" font-family="Helvetica,sans-Serif" font-size="10.00">get_bmi_model_start</text>
<text text-anchor="start" x="219.5" y="-214.25" font-family="Helvetica,sans-Serif" font-size="10.00">_time_forcing_offset_s()</text>
<text text-anchor="start" x="209.5" y="-199.5" font-family="Helvetica,sans-Serif" font-size="10.00">+</text>
<text text-anchor="start" x="219.5" y="-199.5" font-family="Helvetica,sans-Serif" font-size="10.00">get_bmi_output_variables()</text>
<text text-anchor="start" x="209.5" y="-184.5" font-family="Helvetica,sans-Serif" font-size="10.00">+</text>
<text text-anchor="start" x="219.5" y="-184.5" font-family="Helvetica,sans-Serif" font-size="10.00">get_config_mapped_variable</text>
<text text-anchor="start" x="219.5" y="-173.25" font-family="Helvetica,sans-Serif" font-size="10.00">_name()</text>
<text text-anchor="start" x="209.5" y="-158.5" font-family="Helvetica,sans-Serif" font-size="10.00">+</text>
<text text-anchor="start" x="219.5" y="-158.5" font-family="Helvetica,sans-Serif" font-size="10.00">get_config_mapped_variable</text>
<text text-anchor="start" x="219.5" y="-147.25" font-family="Helvetica,sans-Serif" font-size="10.00">_name()</text>
<text text-anchor="start" x="209.5" y="-132.5" font-family="Helvetica,sans-Serif" font-size="10.00">+</text>
<text text-anchor="start" x="219.5" y="-132.5" font-family="Helvetica,sans-Serif" font-size="10.00">get_config_mapped_variable</text>
<text text-anchor="start" x="219.5" y="-121.25" font-family="Helvetica,sans-Serif" font-size="10.00">_name()</text>
<text text-anchor="start" x="209.5" y="-106.5" font-family="Helvetica,sans-Serif" font-size="10.00">+</text>
<text text-anchor="start" x="219.5" y="-106.5" font-family="Helvetica,sans-Serif" font-size="10.00">get_data_start_time()</text>
<text text-anchor="start" x="219.5" y="-91.5" font-family="Helvetica,sans-Serif" font-size="10.00">and 22 more...</text>
<text text-anchor="start" x="209.88" y="-76.5" font-family="Helvetica,sans-Serif" font-size="10.00">#</text>
<text text-anchor="start" x="219.5" y="-76.5" font-family="Helvetica,sans-Serif" font-size="10.00">create_multi_formulation()</text>
<text text-anchor="start" x="209.88" y="-61.5" font-family="Helvetica,sans-Serif" font-size="10.00">#</text>
<text text-anchor="start" x="219.5" y="-61.5" font-family="Helvetica,sans-Serif" font-size="10.00">get_var_value_as_double()</text>
<text text-anchor="start" x="209.88" y="-46.5" font-family="Helvetica,sans-Serif" font-size="10.00">#</text>
<text text-anchor="start" x="219.5" y="-46.5" font-family="Helvetica,sans-Serif" font-size="10.00">init_deferred_associations()</text>
<text text-anchor="start" x="209.88" y="-31.5" font-family="Helvetica,sans-Serif" font-size="10.00">#</text>
<text text-anchor="start" x="219.5" y="-31.5" font-family="Helvetica,sans-Serif" font-size="10.00">init_nested_module()</text>
<text text-anchor="start" x="211" y="-16.5" font-family="Helvetica,sans-Serif" font-size="10.00">&#45;</text>
<text text-anchor="start" x="219.5" y="-16.5" font-family="Helvetica,sans-Serif" font-size="10.00">setup_nested_deferred</text>
<text text-anchor="start" x="219.5" y="-5.25" font-family="Helvetica,sans-Serif" font-size="10.00">_provider()</text>
<polygon fill="#666666" stroke="#666666" points="205.5,-574 205.5,-574 357.5,-574 357.5,-574 205.5,-574"/>
<polygon fill="#666666" stroke="#666666" points="205.5,-394 205.5,-394 217.5,-394 217.5,-394 205.5,-394"/>
<polygon fill="#666666" stroke="#666666" points="217.5,-394 217.5,-394 357.5,-394 357.5,-394 217.5,-394"/>
<polygon fill="none" stroke="#666666" points="205.5,0 205.5,-602 357.5,-602 357.5,0 205.5,0"/>
</a>
</g>
</g>
<!-- Node2 -->
<g id="Node000002" class="node">
<title>Node2</title>
<g id="a_Node000002"><a xlink:href="classrealization_1_1_bmi___formulation.html" target="_top" xlink:title="Abstraction of formulation with backing model object(s) that implements the BMI.">
<polygon fill="white" stroke="none" points="352,-1271 211,-1271 211,-639 352,-639 352,-1271"/>
<text text-anchor="start" x="220.75" y="-1257.5" font-family="Helvetica,sans-Serif" font-size="10.00">realization::Bmi_Formulation</text>
<text text-anchor="start" x="215.38" y="-1242.5" font-family="Helvetica,sans-Serif" font-size="10.00">#</text>
<text text-anchor="start" x="225" y="-1242.5" font-family="Helvetica,sans-Serif" font-size="10.00">output_text_stream</text>
<text text-anchor="start" x="216.5" y="-1227.5" font-family="Helvetica,sans-Serif" font-size="10.00">&#45;</text>
<text text-anchor="start" x="225" y="-1227.5" font-family="Helvetica,sans-Serif" font-size="10.00">bmi_main_output_var</text>
<text text-anchor="start" x="216.5" y="-1212.5" font-family="Helvetica,sans-Serif" font-size="10.00">&#45;</text>
<text text-anchor="start" x="225" y="-1212.5" font-family="Helvetica,sans-Serif" font-size="10.00">model_type_name</text>
<text text-anchor="start" x="216.5" y="-1197.5" font-family="Helvetica,sans-Serif" font-size="10.00">&#45;</text>
<text text-anchor="start" x="225" y="-1197.5" font-family="Helvetica,sans-Serif" font-size="10.00">output_header_fields</text>
<text text-anchor="start" x="216.5" y="-1182.5" font-family="Helvetica,sans-Serif" font-size="10.00">&#45;</text>
<text text-anchor="start" x="225" y="-1182.5" font-family="Helvetica,sans-Serif" font-size="10.00">output_variable_names</text>
<text text-anchor="start" x="216.5" y="-1167.5" font-family="Helvetica,sans-Serif" font-size="10.00">&#45;</text>
<text text-anchor="start" x="225" y="-1167.5" font-family="Helvetica,sans-Serif" font-size="10.00">output_precision</text>
<text text-anchor="start" x="216.5" y="-1152.5" font-family="Helvetica,sans-Serif" font-size="10.00">&#45;</text>
<text text-anchor="start" x="225" y="-1152.5" font-family="Helvetica,sans-Serif" font-size="10.00">OPTIONAL_PARAMETERS</text>
<text text-anchor="start" x="216.5" y="-1137.5" font-family="Helvetica,sans-Serif" font-size="10.00">&#45;</text>
<text text-anchor="start" x="225" y="-1137.5" font-family="Helvetica,sans-Serif" font-size="10.00">REQUIRED_PARAMETERS</text>
<text text-anchor="start" x="215" y="-1122.5" font-family="Helvetica,sans-Serif" font-size="10.00">+</text>
<text text-anchor="start" x="225" y="-1122.5" font-family="Helvetica,sans-Serif" font-size="10.00">Bmi_Formulation()</text>
<text text-anchor="start" x="215" y="-1107.5" font-family="Helvetica,sans-Serif" font-size="10.00">+</text>
<text text-anchor="start" x="225" y="-1107.5" font-family="Helvetica,sans-Serif" font-size="10.00">~Bmi_Formulation()</text>
<text text-anchor="start" x="215" y="-1092.5" font-family="Helvetica,sans-Serif" font-size="10.00">+</text>
<text text-anchor="start" x="225" y="-1092.5" font-family="Helvetica,sans-Serif" font-size="10.00">convert_model_time()</text>
<text text-anchor="start" x="215" y="-1077.5" font-family="Helvetica,sans-Serif" font-size="10.00">+</text>
<text text-anchor="start" x="225" y="-1077.5" font-family="Helvetica,sans-Serif" font-size="10.00">get_allow_model_exceed</text>
<text text-anchor="start" x="225" y="-1066.25" font-family="Helvetica,sans-Serif" font-size="10.00">_end_time()</text>
<text text-anchor="start" x="215" y="-1051.5" font-family="Helvetica,sans-Serif" font-size="10.00">+</text>
<text text-anchor="start" x="225" y="-1051.5" font-family="Helvetica,sans-Serif" font-size="10.00">get_bmi_input_variables()</text>
<text text-anchor="start" x="215" y="-1036.5" font-family="Helvetica,sans-Serif" font-size="10.00">+</text>
<text text-anchor="start" x="225" y="-1036.5" font-family="Helvetica,sans-Serif" font-size="10.00">get_bmi_main_output</text>
<text text-anchor="start" x="225" y="-1025.25" font-family="Helvetica,sans-Serif" font-size="10.00">_var()</text>
<text text-anchor="start" x="215" y="-1010.5" font-family="Helvetica,sans-Serif" font-size="10.00">+</text>
<text text-anchor="start" x="225" y="-1010.5" font-family="Helvetica,sans-Serif" font-size="10.00">get_bmi_model_start</text>
<text text-anchor="start" x="225" y="-999.25" font-family="Helvetica,sans-Serif" font-size="10.00">_time_forcing_offset_s()</text>
<text text-anchor="start" x="215" y="-984.5" font-family="Helvetica,sans-Serif" font-size="10.00">+</text>
<text text-anchor="start" x="225" y="-984.5" font-family="Helvetica,sans-Serif" font-size="10.00">get_bmi_output_variables()</text>
<text text-anchor="start" x="215" y="-969.5" font-family="Helvetica,sans-Serif" font-size="10.00">+</text>
<text text-anchor="start" x="225" y="-969.5" font-family="Helvetica,sans-Serif" font-size="10.00">get_config_mapped_variable</text>
<text text-anchor="start" x="225" y="-958.25" font-family="Helvetica,sans-Serif" font-size="10.00">_name()</text>
<text text-anchor="start" x="215" y="-943.5" font-family="Helvetica,sans-Serif" font-size="10.00">+</text>
<text text-anchor="start" x="225" y="-943.5" font-family="Helvetica,sans-Serif" font-size="10.00">get_model_current_time()</text>
<text text-anchor="start" x="215" y="-928.5" font-family="Helvetica,sans-Serif" font-size="10.00">+</text>
<text text-anchor="start" x="225" y="-928.5" font-family="Helvetica,sans-Serif" font-size="10.00">get_model_end_time()</text>
<text text-anchor="start" x="215" y="-913.5" font-family="Helvetica,sans-Serif" font-size="10.00">+</text>
<text text-anchor="start" x="225" y="-913.5" font-family="Helvetica,sans-Serif" font-size="10.00">get_model_type_name()</text>
<text text-anchor="start" x="215" y="-898.5" font-family="Helvetica,sans-Serif" font-size="10.00">+</text>
<text text-anchor="start" x="225" y="-898.5" font-family="Helvetica,sans-Serif" font-size="10.00">get_output_header_fields()</text>
<text text-anchor="start" x="215" y="-883.5" font-family="Helvetica,sans-Serif" font-size="10.00">+</text>
<text text-anchor="start" x="225" y="-883.5" font-family="Helvetica,sans-Serif" font-size="10.00">get_output_header_line()</text>
<text text-anchor="start" x="215" y="-868.5" font-family="Helvetica,sans-Serif" font-size="10.00">+</text>
<text text-anchor="start" x="225" y="-868.5" font-family="Helvetica,sans-Serif" font-size="10.00">get_output_variable</text>
<text text-anchor="start" x="225" y="-857.25" font-family="Helvetica,sans-Serif" font-size="10.00">_names()</text>
<text text-anchor="start" x="215" y="-842.5" font-family="Helvetica,sans-Serif" font-size="10.00">+</text>
<text text-anchor="start" x="225" y="-842.5" font-family="Helvetica,sans-Serif" font-size="10.00">get_required_parameters()</text>
<text text-anchor="start" x="215" y="-827.5" font-family="Helvetica,sans-Serif" font-size="10.00">+</text>
<text text-anchor="start" x="225" y="-827.5" font-family="Helvetica,sans-Serif" font-size="10.00">is_bmi_input_variable()</text>
<text text-anchor="start" x="215" y="-812.5" font-family="Helvetica,sans-Serif" font-size="10.00">+</text>
<text text-anchor="start" x="225" y="-812.5" font-family="Helvetica,sans-Serif" font-size="10.00">is_bmi_model_time_step</text>
<text text-anchor="start" x="225" y="-801.25" font-family="Helvetica,sans-Serif" font-size="10.00">_fixed()</text>
<text text-anchor="start" x="215" y="-786.5" font-family="Helvetica,sans-Serif" font-size="10.00">+</text>
<text text-anchor="start" x="225" y="-786.5" font-family="Helvetica,sans-Serif" font-size="10.00">is_bmi_output_variable()</text>
<text text-anchor="start" x="215" y="-771.5" font-family="Helvetica,sans-Serif" font-size="10.00">+</text>
<text text-anchor="start" x="225" y="-771.5" font-family="Helvetica,sans-Serif" font-size="10.00">is_model_initialized()</text>
<text text-anchor="start" x="215" y="-756.5" font-family="Helvetica,sans-Serif" font-size="10.00">+</text>
<text text-anchor="start" x="225" y="-756.5" font-family="Helvetica,sans-Serif" font-size="10.00">set_output_precision()</text>
<text text-anchor="start" x="215" y="-741.5" font-family="Helvetica,sans-Serif" font-size="10.00">+</text>
<text text-anchor="start" x="225" y="-741.5" font-family="Helvetica,sans-Serif" font-size="10.00">get_var_value_as_double()</text>
<text text-anchor="start" x="215.38" y="-726.5" font-family="Helvetica,sans-Serif" font-size="10.00">#</text>
<text text-anchor="start" x="225" y="-726.5" font-family="Helvetica,sans-Serif" font-size="10.00">get_output_precision()</text>
<text text-anchor="start" x="215.38" y="-711.5" font-family="Helvetica,sans-Serif" font-size="10.00">#</text>
<text text-anchor="start" x="225" y="-711.5" font-family="Helvetica,sans-Serif" font-size="10.00">set_bmi_main_output</text>
<text text-anchor="start" x="225" y="-700.25" font-family="Helvetica,sans-Serif" font-size="10.00">_var()</text>
<text text-anchor="start" x="215.38" y="-685.5" font-family="Helvetica,sans-Serif" font-size="10.00">#</text>
<text text-anchor="start" x="225" y="-685.5" font-family="Helvetica,sans-Serif" font-size="10.00">set_model_type_name()</text>
<text text-anchor="start" x="215.38" y="-670.5" font-family="Helvetica,sans-Serif" font-size="10.00">#</text>
<text text-anchor="start" x="225" y="-670.5" font-family="Helvetica,sans-Serif" font-size="10.00">set_output_header_fields()</text>
<text text-anchor="start" x="215.38" y="-655.5" font-family="Helvetica,sans-Serif" font-size="10.00">#</text>
<text text-anchor="start" x="225" y="-655.5" font-family="Helvetica,sans-Serif" font-size="10.00">set_output_variable</text>
<text text-anchor="start" x="225" y="-644.25" font-family="Helvetica,sans-Serif" font-size="10.00">_names()</text>
<polygon fill="#666666" stroke="#666666" points="211,-1254 211,-1254 352,-1254 352,-1254 211,-1254"/>
<polygon fill="#666666" stroke="#666666" points="211,-1134 211,-1134 223,-1134 223,-1134 211,-1134"/>
<polygon fill="#666666" stroke="#666666" points="223,-1134 223,-1134 352,-1134 352,-1134 223,-1134"/>
<polygon fill="none" stroke="#666666" points="211,-639 211,-1271 352,-1271 352,-639 211,-639"/>
</a>
</g>
</g>
<!-- Node2&#45;&gt;Node1 -->
<g id="edge1_Node000001_Node000002" class="edge">
<title>Node2&#45;&gt;Node1</title>
<g id="a_edge1_Node000001_Node000002"><a xlink:title=" ">
<path fill="none" stroke="#63b8ff" d="M281.5,-627.99C281.5,-619.27 281.5,-610.55 281.5,-601.85"/>
<polygon fill="none" stroke="#63b8ff" points="278,-627.95 281.5,-637.95 285,-627.95 278,-627.95"/>
</a>
</g>
</g>
<!-- Node3 -->
<g id="Node000003" class="node">
<title>Node3</title>
<g id="a_Node000003"><a xlink:href="classrealization_1_1_catchment___formulation.html" target="_top" xlink:title=" ">
<polygon fill="white" stroke="none" points="277.5,-1574 137.5,-1574 137.5,-1308 277.5,-1308 277.5,-1574"/>
<text text-anchor="start" x="159.88" y="-1560.5" font-family="Helvetica,sans-Serif" font-size="10.00">realization::Catchment</text>
<text text-anchor="start" x="179.38" y="-1549.25" font-family="Helvetica,sans-Serif" font-size="10.00">_Formulation</text>
<text text-anchor="start" x="141.88" y="-1534.5" font-family="Helvetica,sans-Serif" font-size="10.00">#</text>
<text text-anchor="start" x="151.5" y="-1534.5" font-family="Helvetica,sans-Serif" font-size="10.00">forcing</text>
<text text-anchor="start" x="143" y="-1519.5" font-family="Helvetica,sans-Serif" font-size="10.00">&#45;</text>
<text text-anchor="start" x="151.5" y="-1519.5" font-family="Helvetica,sans-Serif" font-size="10.00">cat_id</text>
<text text-anchor="start" x="141.5" y="-1504.5" font-family="Helvetica,sans-Serif" font-size="10.00">+</text>
<text text-anchor="start" x="151.5" y="-1504.5" font-family="Helvetica,sans-Serif" font-size="10.00">Catchment_Formulation()</text>
<text text-anchor="start" x="141.5" y="-1489.5" font-family="Helvetica,sans-Serif" font-size="10.00">+</text>
<text text-anchor="start" x="151.5" y="-1489.5" font-family="Helvetica,sans-Serif" font-size="10.00">Catchment_Formulation()</text>
<text text-anchor="start" x="141.5" y="-1474.5" font-family="Helvetica,sans-Serif" font-size="10.00">+</text>
<text text-anchor="start" x="151.5" y="-1474.5" font-family="Helvetica,sans-Serif" font-size="10.00">get_output_header_line()</text>
<text text-anchor="start" x="141.5" y="-1459.5" font-family="Helvetica,sans-Serif" font-size="10.00">+</text>
<text text-anchor="start" x="151.5" y="-1459.5" font-family="Helvetica,sans-Serif" font-size="10.00">get_output_line_for</text>
<text text-anchor="start" x="151.5" y="-1448.25" font-family="Helvetica,sans-Serif" font-size="10.00">_timestep()</text>
<text text-anchor="start" x="141.5" y="-1433.5" font-family="Helvetica,sans-Serif" font-size="10.00">+</text>
<text text-anchor="start" x="151.5" y="-1433.5" font-family="Helvetica,sans-Serif" font-size="10.00">get_response()</text>
<text text-anchor="start" x="141.5" y="-1418.5" font-family="Helvetica,sans-Serif" font-size="10.00">+</text>
<text text-anchor="start" x="151.5" y="-1418.5" font-family="Helvetica,sans-Serif" font-size="10.00">get_required_parameters()</text>
<text text-anchor="start" x="141.5" y="-1403.5" font-family="Helvetica,sans-Serif" font-size="10.00">+</text>
<text text-anchor="start" x="151.5" y="-1403.5" font-family="Helvetica,sans-Serif" font-size="10.00">create_formulation()</text>
<text text-anchor="start" x="141.5" y="-1388.5" font-family="Helvetica,sans-Serif" font-size="10.00">+</text>
<text text-anchor="start" x="151.5" y="-1388.5" font-family="Helvetica,sans-Serif" font-size="10.00">create_formulation()</text>
<text text-anchor="start" x="141.5" y="-1373.5" font-family="Helvetica,sans-Serif" font-size="10.00">+</text>
<text text-anchor="start" x="151.5" y="-1373.5" font-family="Helvetica,sans-Serif" font-size="10.00">~Catchment_Formulation()</text>
<text text-anchor="start" x="141.5" y="-1358.5" font-family="Helvetica,sans-Serif" font-size="10.00">+</text>
<text text-anchor="start" x="151.5" y="-1358.5" font-family="Helvetica,sans-Serif" font-size="10.00">finalize()</text>
<text text-anchor="start" x="141.5" y="-1343.5" font-family="Helvetica,sans-Serif" font-size="10.00">+</text>
<text text-anchor="start" x="151.5" y="-1343.5" font-family="Helvetica,sans-Serif" font-size="10.00">config_pattern_substitution()</text>
<text text-anchor="start" x="141.88" y="-1328.5" font-family="Helvetica,sans-Serif" font-size="10.00">#</text>
<text text-anchor="start" x="151.5" y="-1328.5" font-family="Helvetica,sans-Serif" font-size="10.00">get_catchment_id()</text>
<text text-anchor="start" x="141.88" y="-1313.5" font-family="Helvetica,sans-Serif" font-size="10.00">#</text>
<text text-anchor="start" x="151.5" y="-1313.5" font-family="Helvetica,sans-Serif" font-size="10.00">set_catchment_id()</text>
<polygon fill="#666666" stroke="#666666" points="137.5,-1546 137.5,-1546 277.5,-1546 277.5,-1546 137.5,-1546"/>
<polygon fill="#666666" stroke="#666666" points="137.5,-1516 137.5,-1516 149.5,-1516 149.5,-1516 137.5,-1516"/>
<polygon fill="#666666" stroke="#666666" points="149.5,-1516 149.5,-1516 277.5,-1516 277.5,-1516 149.5,-1516"/>
<polygon fill="none" stroke="#666666" points="137.5,-1308 137.5,-1574 277.5,-1574 277.5,-1308 137.5,-1308"/>
</a>
</g>
</g>
<!-- Node3&#45;&gt;Node2 -->
<g id="edge2_Node000002_Node000003" class="edge">
<title>Node3&#45;&gt;Node2</title>
<g id="a_edge2_Node000002_Node000003"><a xlink:title=" ">
<path fill="none" stroke="#63b8ff" d="M229.37,-1296.94C230.68,-1288.39 232.02,-1279.63 233.38,-1270.73"/>
<polygon fill="none" stroke="#63b8ff" points="225.95,-1296.15 227.9,-1306.57 232.87,-1297.21 225.95,-1296.15"/>
</a>
</g>
</g>
<!-- Node4 -->
<g id="Node000004" class="node">
<title>Node4</title>
<g id="a_Node000004"><a xlink:href="classrealization_1_1_formulation.html" target="_top" xlink:title=" ">
<polygon fill="white" stroke="none" points="131,-1804 0,-1804 0,-1635 131,-1635 131,-1804"/>
<text text-anchor="start" x="16" y="-1790.5" font-family="Helvetica,sans-Serif" font-size="10.00">realization::Formulation</text>
<text text-anchor="start" x="4.38" y="-1775.5" font-family="Helvetica,sans-Serif" font-size="10.00">#</text>
<text text-anchor="start" x="14" y="-1775.5" font-family="Helvetica,sans-Serif" font-size="10.00">id</text>
<text text-anchor="start" x="4" y="-1760.5" font-family="Helvetica,sans-Serif" font-size="10.00">+</text>
<text text-anchor="start" x="14" y="-1760.5" font-family="Helvetica,sans-Serif" font-size="10.00">Formulation()</text>
<text text-anchor="start" x="4" y="-1745.5" font-family="Helvetica,sans-Serif" font-size="10.00">+</text>
<text text-anchor="start" x="14" y="-1745.5" font-family="Helvetica,sans-Serif" font-size="10.00">~Formulation()</text>
<text text-anchor="start" x="4" y="-1730.5" font-family="Helvetica,sans-Serif" font-size="10.00">+</text>
<text text-anchor="start" x="14" y="-1730.5" font-family="Helvetica,sans-Serif" font-size="10.00">get_formulation_type()</text>
<text text-anchor="start" x="4" y="-1715.5" font-family="Helvetica,sans-Serif" font-size="10.00">+</text>
<text text-anchor="start" x="14" y="-1715.5" font-family="Helvetica,sans-Serif" font-size="10.00">get_id()</text>
<text text-anchor="start" x="4" y="-1700.5" font-family="Helvetica,sans-Serif" font-size="10.00">+</text>
<text text-anchor="start" x="14" y="-1700.5" font-family="Helvetica,sans-Serif" font-size="10.00">create_formulation()</text>
<text text-anchor="start" x="4" y="-1685.5" font-family="Helvetica,sans-Serif" font-size="10.00">+</text>
<text text-anchor="start" x="14" y="-1685.5" font-family="Helvetica,sans-Serif" font-size="10.00">create_formulation()</text>
<text text-anchor="start" x="4.38" y="-1670.5" font-family="Helvetica,sans-Serif" font-size="10.00">#</text>
<text text-anchor="start" x="14" y="-1670.5" font-family="Helvetica,sans-Serif" font-size="10.00">get_required_parameters()</text>
<text text-anchor="start" x="4.38" y="-1655.5" font-family="Helvetica,sans-Serif" font-size="10.00">#</text>
<text text-anchor="start" x="14" y="-1655.5" font-family="Helvetica,sans-Serif" font-size="10.00">interpret_parameters()</text>
<text text-anchor="start" x="4.38" y="-1640.5" font-family="Helvetica,sans-Serif" font-size="10.00">#</text>
<text text-anchor="start" x="14" y="-1640.5" font-family="Helvetica,sans-Serif" font-size="10.00">validate_parameters()</text>
<polygon fill="#666666" stroke="#666666" points="0,-1787 0,-1787 131,-1787 131,-1787 0,-1787"/>
<polygon fill="#666666" stroke="#666666" points="0,-1772 0,-1772 12,-1772 12,-1772 0,-1772"/>
<polygon fill="#666666" stroke="#666666" points="12,-1772 12,-1772 131,-1772 131,-1772 12,-1772"/>
<polygon fill="none" stroke="#666666" points="0,-1635 0,-1804 131,-1804 131,-1635 0,-1635"/>
</a>
</g>
</g>
<!-- Node4&#45;&gt;Node3 -->
<g id="edge3_Node000003_Node000004" class="edge">
<title>Node4&#45;&gt;Node3</title>
<g id="a_edge3_Node000003_Node000004"><a xlink:title=" ">
<path fill="none" stroke="#63b8ff" d="M113.49,-1625.06C121.93,-1608.62 130.86,-1591.24 139.72,-1573.98"/>
<polygon fill="none" stroke="#63b8ff" points="110.44,-1623.33 108.99,-1633.82 116.67,-1626.52 110.44,-1623.33"/>
</a>
</g>
</g>
<!-- Node5 -->
<g id="Node000005" class="node">
<title>Node5</title>
<g id="a_Node000005"><a xlink:href="class_h_y___catchment_area.html" target="_top" xlink:title=" ">
<polygon fill="white" stroke="none" points="265.5,-1781.5 149.5,-1781.5 149.5,-1657.5 265.5,-1657.5 265.5,-1781.5"/>
<text text-anchor="start" x="164" y="-1768" font-family="Helvetica,sans-Serif" font-size="10.00">HY_CatchmentArea</text>
<text text-anchor="start" x="153.88" y="-1753" font-family="Helvetica,sans-Serif" font-size="10.00">#</text>
<text text-anchor="start" x="163.5" y="-1753" font-family="Helvetica,sans-Serif" font-size="10.00">bounds</text>
<text text-anchor="start" x="153.88" y="-1738" font-family="Helvetica,sans-Serif" font-size="10.00">#</text>
<text text-anchor="start" x="163.5" y="-1738" font-family="Helvetica,sans-Serif" font-size="10.00">output</text>
<text text-anchor="start" x="153.5" y="-1723" font-family="Helvetica,sans-Serif" font-size="10.00">+</text>
<text text-anchor="start" x="163.5" y="-1723" font-family="Helvetica,sans-Serif" font-size="10.00">HY_CatchmentArea()</text>
<text text-anchor="start" x="153.5" y="-1708" font-family="Helvetica,sans-Serif" font-size="10.00">+</text>
<text text-anchor="start" x="163.5" y="-1708" font-family="Helvetica,sans-Serif" font-size="10.00">HY_CatchmentArea()</text>
<text text-anchor="start" x="153.5" y="-1693" font-family="Helvetica,sans-Serif" font-size="10.00">+</text>
<text text-anchor="start" x="163.5" y="-1693" font-family="Helvetica,sans-Serif" font-size="10.00">set_output_stream()</text>
<text text-anchor="start" x="153.5" y="-1678" font-family="Helvetica,sans-Serif" font-size="10.00">+</text>
<text text-anchor="start" x="163.5" y="-1678" font-family="Helvetica,sans-Serif" font-size="10.00">write_output()</text>
<text text-anchor="start" x="153.5" y="-1663" font-family="Helvetica,sans-Serif" font-size="10.00">+</text>
<text text-anchor="start" x="163.5" y="-1663" font-family="Helvetica,sans-Serif" font-size="10.00">~HY_CatchmentArea()</text>
<polygon fill="#666666" stroke="#666666" points="149.5,-1764.5 149.5,-1764.5 265.5,-1764.5 265.5,-1764.5 149.5,-1764.5"/>
<polygon fill="#666666" stroke="#666666" points="149.5,-1734.5 149.5,-1734.5 161.5,-1734.5 161.5,-1734.5 149.5,-1734.5"/>
<polygon fill="#666666" stroke="#666666" points="161.5,-1734.5 161.5,-1734.5 265.5,-1734.5 265.5,-1734.5 161.5,-1734.5"/>
<polygon fill="none" stroke="#666666" points="149.5,-1657.5 149.5,-1781.5 265.5,-1781.5 265.5,-1657.5 149.5,-1657.5"/>
</a>
</g>
</g>
<!-- Node5&#45;&gt;Node3 -->
<g id="edge4_Node000003_Node000005" class="edge">
<title>Node5&#45;&gt;Node3</title>
<g id="a_edge4_Node000003_Node000005"><a xlink:title=" ">
<path fill="none" stroke="#63b8ff" d="M207.5,-1646.47C207.5,-1624.21 207.5,-1598.94 207.5,-1573.95"/>
<polygon fill="none" stroke="#63b8ff" points="204,-1646.31 207.5,-1656.31 211,-1646.31 204,-1646.31"/>
</a>
</g>
</g>
<!-- Node6 -->
<g id="Node000006" class="node">
<title>Node6</title>
<g id="a_Node000006"><a xlink:href="class_h_y___catchment_realization.html" target="_top" xlink:title=" ">
<polygon fill="white" stroke="none" points="171,-2057 28,-2057 28,-1933 171,-1933 171,-2057"/>
<text text-anchor="start" x="42.5" y="-2043.5" font-family="Helvetica,sans-Serif" font-size="10.00">HY_CatchmentRealization</text>
<text text-anchor="start" x="32.38" y="-2028.5" font-family="Helvetica,sans-Serif" font-size="10.00">#</text>
<text text-anchor="start" x="42" y="-2028.5" font-family="Helvetica,sans-Serif" font-size="10.00">realized_catchment</text>
<text text-anchor="start" x="32.38" y="-2013.5" font-family="Helvetica,sans-Serif" font-size="10.00">#</text>
<text text-anchor="start" x="42" y="-2013.5" font-family="Helvetica,sans-Serif" font-size="10.00">id_number</text>
<text text-anchor="start" x="32" y="-1998.5" font-family="Helvetica,sans-Serif" font-size="10.00">+</text>
<text text-anchor="start" x="42" y="-1998.5" font-family="Helvetica,sans-Serif" font-size="10.00">HY_CatchmentRealization()</text>
<text text-anchor="start" x="32" y="-1983.5" font-family="Helvetica,sans-Serif" font-size="10.00">+</text>
<text text-anchor="start" x="42" y="-1983.5" font-family="Helvetica,sans-Serif" font-size="10.00">~HY_CatchmentRealization()</text>
<text text-anchor="start" x="32" y="-1968.5" font-family="Helvetica,sans-Serif" font-size="10.00">+</text>
<text text-anchor="start" x="42" y="-1968.5" font-family="Helvetica,sans-Serif" font-size="10.00">get_response()</text>
<text text-anchor="start" x="32.38" y="-1953.5" font-family="Helvetica,sans-Serif" font-size="10.00">#</text>
<text text-anchor="start" x="42" y="-1953.5" font-family="Helvetica,sans-Serif" font-size="10.00">get_catchment_id()</text>
<text text-anchor="start" x="32.38" y="-1938.5" font-family="Helvetica,sans-Serif" font-size="10.00">#</text>
<text text-anchor="start" x="42" y="-1938.5" font-family="Helvetica,sans-Serif" font-size="10.00">set_catchment_id()</text>
<polygon fill="#666666" stroke="#666666" points="28,-2040 28,-2040 171,-2040 171,-2040 28,-2040"/>
<polygon fill="#666666" stroke="#666666" points="28,-2010 28,-2010 40,-2010 40,-2010 28,-2010"/>
<polygon fill="#666666" stroke="#666666" points="40,-2010 40,-2010 171,-2010 171,-2010 40,-2010"/>
<polygon fill="none" stroke="#666666" points="28,-1933 28,-2057 171,-2057 171,-1933 28,-1933"/>
</a>
</g>
</g>
<!-- Node6&#45;&gt;Node5 -->
<g id="edge5_Node000005_Node000006" class="edge">
<title>Node6&#45;&gt;Node5</title>
<g id="a_edge5_Node000005_Node000006"><a xlink:title=" ">
<path fill="none" stroke="#63b8ff" d="M127.67,-1922.67C145.04,-1878.68 167.08,-1822.86 183.6,-1781.03"/>
<polygon fill="none" stroke="#63b8ff" points="124.44,-1921.31 124.02,-1931.89 130.95,-1923.88 124.44,-1921.31"/>
</a>
</g>
</g>
<!-- Node7 -->
<g id="Node000007" class="node">
<title>Node7</title>
<g id="a_Node000007"><a xlink:href="class_g_m___object.html" target="_top" xlink:title=" ">
<polygon fill="white" stroke="none" points="267.5,-2027 189.5,-2027 189.5,-1963 267.5,-1963 267.5,-2027"/>
<text text-anchor="start" x="203.75" y="-2013.5" font-family="Helvetica,sans-Serif" font-size="10.00">GM_Object</text>
<text text-anchor="start" x="227" y="-1998.5" font-family="Helvetica,sans-Serif" font-size="10.00"> </text>
<text text-anchor="start" x="193.5" y="-1983.5" font-family="Helvetica,sans-Serif" font-size="10.00">+</text>
<text text-anchor="start" x="203.5" y="-1983.5" font-family="Helvetica,sans-Serif" font-size="10.00">GM_Object()</text>
<text text-anchor="start" x="193.5" y="-1968.5" font-family="Helvetica,sans-Serif" font-size="10.00">+</text>
<text text-anchor="start" x="203.5" y="-1968.5" font-family="Helvetica,sans-Serif" font-size="10.00">~GM_Object()</text>
<polygon fill="#666666" stroke="#666666" points="189.5,-2010 189.5,-2010 267.5,-2010 267.5,-2010 189.5,-2010"/>
<polygon fill="#666666" stroke="#666666" points="189.5,-1995 189.5,-1995 267.5,-1995 267.5,-1995 189.5,-1995"/>
<polygon fill="none" stroke="#666666" points="189.5,-1963 189.5,-2027 267.5,-2027 267.5,-1963 189.5,-1963"/>
</a>
</g>
</g>
<!-- Node7&#45;&gt;Node5 -->
<g id="edge6_Node000005_Node000007" class="edge">
<title>Node7&#45;&gt;Node5</title>
<g id="a_edge6_Node000005_Node000007"><a xlink:title=" ">
<path fill="none" stroke="#63b8ff" d="M225.27,-1951.91C221.77,-1906.33 216.15,-1833.19 212.17,-1781.35"/>
<polygon fill="none" stroke="#63b8ff" points="221.76,-1951.95 226.02,-1961.65 228.74,-1951.41 221.76,-1951.95"/>
</a>
</g>
</g>
<!-- Node8 -->
<g id="Node000008" class="node">
<title>Node8</title>
<g id="a_Node000008"><a xlink:href="classdata__access_1_1_generic_data_provider.html" target="_top" xlink:title=" ">
<polygon fill="white" stroke="none" points="428.5,-1471 304.5,-1471 304.5,-1411 428.5,-1411 428.5,-1471"/>
<text text-anchor="start" x="309.5" y="-1457.5" font-family="Helvetica,sans-Serif" font-size="10.00">data_access::GenericData</text>
<text text-anchor="start" x="348.5" y="-1446.25" font-family="Helvetica,sans-Serif" font-size="10.00">Provider</text>
<text text-anchor="start" x="365" y="-1431.5" font-family="Helvetica,sans-Serif" font-size="10.00"> </text>
<text text-anchor="start" x="365" y="-1416.5" font-family="Helvetica,sans-Serif" font-size="10.00"> </text>
<polygon fill="#666666" stroke="#666666" points="304.5,-1443 304.5,-1443 428.5,-1443 428.5,-1443 304.5,-1443"/>
<polygon fill="#666666" stroke="#666666" points="304.5,-1428 304.5,-1428 428.5,-1428 428.5,-1428 304.5,-1428"/>
<polygon fill="none" stroke="#666666" points="304.5,-1411 304.5,-1471 428.5,-1471 428.5,-1411 304.5,-1411"/>
</a>
</g>
</g>
<!-- Node8&#45;&gt;Node2 -->
<g id="edge7_Node000002_Node000008" class="edge">
<title>Node8&#45;&gt;Node2</title>
<g id="a_edge7_Node000002_Node000008"><a xlink:title=" ">
<path fill="none" stroke="#63b8ff" d="M359.47,-1399.99C353.99,-1368.77 345.81,-1322.2 336.78,-1270.79"/>
<polygon fill="none" stroke="#63b8ff" points="356,-1400.44 361.18,-1409.68 362.89,-1399.23 356,-1400.44"/>
</a>
</g>
</g>
<!-- Node9 -->
<g id="Node000009" class="node">
<title>Node9</title>
<g id="a_Node000009"><a xlink:href="classdata__access_1_1_data_provider.html" target="_top" xlink:title=" ">
<polygon fill="white" stroke="none" points="467.5,-1828 283.5,-1828 283.5,-1611 467.5,-1611 467.5,-1828"/>
<text text-anchor="start" x="288.5" y="-1814.5" font-family="Helvetica,sans-Serif" font-size="10.00">data_access::DataProvider</text>
<text text-anchor="start" x="288.5" y="-1803.25" font-family="Helvetica,sans-Serif" font-size="10.00">&lt; double, CatchmentAggrDataSelector &gt;</text>
<text text-anchor="start" x="374" y="-1788.5" font-family="Helvetica,sans-Serif" font-size="10.00"> </text>
<text text-anchor="start" x="303.5" y="-1773.5" font-family="Helvetica,sans-Serif" font-size="10.00">+</text>
<text text-anchor="start" x="329.5" y="-1773.5" font-family="Helvetica,sans-Serif" font-size="10.00">~DataProvider()</text>
<text text-anchor="start" x="303.5" y="-1758.5" font-family="Helvetica,sans-Serif" font-size="10.00">+</text>
<text text-anchor="start" x="329.5" y="-1758.5" font-family="Helvetica,sans-Serif" font-size="10.00">finalize()</text>
<text text-anchor="start" x="303.5" y="-1743.5" font-family="Helvetica,sans-Serif" font-size="10.00">+</text>
<text text-anchor="start" x="329.5" y="-1743.5" font-family="Helvetica,sans-Serif" font-size="10.00">get_available_variable</text>
<text text-anchor="start" x="329.5" y="-1732.25" font-family="Helvetica,sans-Serif" font-size="10.00">_names()</text>
<text text-anchor="start" x="303.5" y="-1717.5" font-family="Helvetica,sans-Serif" font-size="10.00">+</text>
<text text-anchor="start" x="329.5" y="-1717.5" font-family="Helvetica,sans-Serif" font-size="10.00">get_data_start_time()</text>
<text text-anchor="start" x="303.5" y="-1702.5" font-family="Helvetica,sans-Serif" font-size="10.00">+</text>
<text text-anchor="start" x="329.5" y="-1702.5" font-family="Helvetica,sans-Serif" font-size="10.00">get_data_stop_time()</text>
<text text-anchor="start" x="303.5" y="-1687.5" font-family="Helvetica,sans-Serif" font-size="10.00">+</text>
<text text-anchor="start" x="329.5" y="-1687.5" font-family="Helvetica,sans-Serif" font-size="10.00">record_duration()</text>
<text text-anchor="start" x="303.5" y="-1672.5" font-family="Helvetica,sans-Serif" font-size="10.00">+</text>
<text text-anchor="start" x="329.5" y="-1672.5" font-family="Helvetica,sans-Serif" font-size="10.00">get_ts_index_for_time()</text>
<text text-anchor="start" x="303.5" y="-1657.5" font-family="Helvetica,sans-Serif" font-size="10.00">+</text>
<text text-anchor="start" x="329.5" y="-1657.5" font-family="Helvetica,sans-Serif" font-size="10.00">get_value()</text>
<text text-anchor="start" x="303.5" y="-1642.5" font-family="Helvetica,sans-Serif" font-size="10.00">+</text>
<text text-anchor="start" x="329.5" y="-1642.5" font-family="Helvetica,sans-Serif" font-size="10.00">get_values()</text>
<text text-anchor="start" x="303.5" y="-1627.5" font-family="Helvetica,sans-Serif" font-size="10.00">+</text>
<text text-anchor="start" x="329.5" y="-1627.5" font-family="Helvetica,sans-Serif" font-size="10.00">is_property_sum_over</text>
<text text-anchor="start" x="329.5" y="-1616.25" font-family="Helvetica,sans-Serif" font-size="10.00">_time_step()</text>
<polygon fill="#666666" stroke="#666666" points="283.5,-1800 283.5,-1800 467.5,-1800 467.5,-1800 283.5,-1800"/>
<polygon fill="#666666" stroke="#666666" points="283.5,-1785 283.5,-1785 467.5,-1785 467.5,-1785 283.5,-1785"/>
<polygon fill="none" stroke="#666666" points="283.5,-1611 283.5,-1828 467.5,-1828 467.5,-1611 283.5,-1611"/>
</a>
</g>
</g>
<!-- Node9&#45;&gt;Node8 -->
<g id="edge8_Node000008_Node000009" class="edge">
<title>Node9&#45;&gt;Node8</title>
<g id="a_edge8_Node000008_Node000009"><a xlink:title=" ">
<path fill="none" stroke="#63b8ff" d="M371.64,-1599.83C370.09,-1552.23 368.44,-1501.48 367.44,-1470.75"/>
<polygon fill="none" stroke="#63b8ff" points="368.13,-1599.81 371.96,-1609.69 375.13,-1599.58 368.13,-1599.81"/>
</a>
</g>
</g>
<!-- Node10 -->
<g id="Node000010" class="node">
<title>Node10</title>
<g id="a_Node000010"><a xlink:href="classdata__access_1_1_data_provider.html" target="_top" xlink:title=" ">
<polygon fill="white" stroke="none" points="443.5,-2103.5 307.5,-2103.5 307.5,-1886.5 443.5,-1886.5 443.5,-2103.5"/>
<text text-anchor="start" x="312.5" y="-2090" font-family="Helvetica,sans-Serif" font-size="10.00">data_access::DataProvider</text>
<text text-anchor="start" x="312.5" y="-2078.75" font-family="Helvetica,sans-Serif" font-size="10.00">&lt; data_type, selection_type &gt;</text>
<text text-anchor="start" x="374" y="-2064" font-family="Helvetica,sans-Serif" font-size="10.00"> </text>
<text text-anchor="start" x="315.5" y="-2049" font-family="Helvetica,sans-Serif" font-size="10.00">+</text>
<text text-anchor="start" x="329.5" y="-2049" font-family="Helvetica,sans-Serif" font-size="10.00">~DataProvider()</text>
<text text-anchor="start" x="315.5" y="-2034" font-family="Helvetica,sans-Serif" font-size="10.00">+</text>
<text text-anchor="start" x="329.5" y="-2034" font-family="Helvetica,sans-Serif" font-size="10.00">finalize()</text>
<text text-anchor="start" x="315.5" y="-2019" font-family="Helvetica,sans-Serif" font-size="10.00">+</text>
<text text-anchor="start" x="329.5" y="-2019" font-family="Helvetica,sans-Serif" font-size="10.00">get_available_variable</text>
<text text-anchor="start" x="329.5" y="-2007.75" font-family="Helvetica,sans-Serif" font-size="10.00">_names()</text>
<text text-anchor="start" x="315.5" y="-1993" font-family="Helvetica,sans-Serif" font-size="10.00">+</text>
<text text-anchor="start" x="329.5" y="-1993" font-family="Helvetica,sans-Serif" font-size="10.00">get_data_start_time()</text>
<text text-anchor="start" x="315.5" y="-1978" font-family="Helvetica,sans-Serif" font-size="10.00">+</text>
<text text-anchor="start" x="329.5" y="-1978" font-family="Helvetica,sans-Serif" font-size="10.00">get_data_stop_time()</text>
<text text-anchor="start" x="315.5" y="-1963" font-family="Helvetica,sans-Serif" font-size="10.00">+</text>
<text text-anchor="start" x="329.5" y="-1963" font-family="Helvetica,sans-Serif" font-size="10.00">record_duration()</text>
<text text-anchor="start" x="315.5" y="-1948" font-family="Helvetica,sans-Serif" font-size="10.00">+</text>
<text text-anchor="start" x="329.5" y="-1948" font-family="Helvetica,sans-Serif" font-size="10.00">get_ts_index_for_time()</text>
<text text-anchor="start" x="315.5" y="-1933" font-family="Helvetica,sans-Serif" font-size="10.00">+</text>
<text text-anchor="start" x="329.5" y="-1933" font-family="Helvetica,sans-Serif" font-size="10.00">get_value()</text>
<text text-anchor="start" x="315.5" y="-1918" font-family="Helvetica,sans-Serif" font-size="10.00">+</text>
<text text-anchor="start" x="329.5" y="-1918" font-family="Helvetica,sans-Serif" font-size="10.00">get_values()</text>
<text text-anchor="start" x="315.5" y="-1903" font-family="Helvetica,sans-Serif" font-size="10.00">+</text>
<text text-anchor="start" x="329.5" y="-1903" font-family="Helvetica,sans-Serif" font-size="10.00">is_property_sum_over</text>
<text text-anchor="start" x="329.5" y="-1891.75" font-family="Helvetica,sans-Serif" font-size="10.00">_time_step()</text>
<polygon fill="#666666" stroke="#666666" points="307.5,-2075.5 307.5,-2075.5 443.5,-2075.5 443.5,-2075.5 307.5,-2075.5"/>
<polygon fill="#666666" stroke="#666666" points="307.5,-2060.5 307.5,-2060.5 443.5,-2060.5 443.5,-2060.5 307.5,-2060.5"/>
<polygon fill="none" stroke="#666666" points="307.5,-1886.5 307.5,-2103.5 443.5,-2103.5 443.5,-1886.5 307.5,-1886.5"/>
</a>
</g>
</g>
<!-- Node10&#45;&gt;Node9 -->
<g id="edge9_Node000009_Node000010" class="edge">
<title>Node10&#45;&gt;Node9</title>
<g id="a_edge9_Node000009_Node000010"><a xlink:title=" ">
<path fill="none" stroke="orange" d="M375.5,-1875.3C375.5,-1859.55 375.5,-1843.49 375.5,-1827.95"/>
<polygon fill="orange" stroke="orange" points="372,-1875.18 375.5,-1885.18 379,-1875.18 372,-1875.18"/>
</a>
</g>
<text text-anchor="start" x="375.5" y="-1859" font-family="Helvetica,sans-Serif" font-size="10.00" fill="grey"> &lt; double, CatchmentAggrData</text>
<text text-anchor="middle" x="441.5" y="-1847.75" font-family="Helvetica,sans-Serif" font-size="10.00" fill="grey">Selector &gt;</text>
</g>
</g>
</svg>
