<?xml version="1.0" encoding="UTF-8" standalone="no"?>
<!DOCTYPE svg PUBLIC "-//W3C//DTD SVG 1.1//EN"
 "http://www.w3.org/Graphics/SVG/1.1/DTD/svg11.dtd">
<!-- Generated by graphviz version 12.2.0 (20241103.1931)
 -->
<!-- Title: HY_DendriticCatchment Pages: 1 -->
<!--zoomable 591 -->

<svg id="main" version="1.1" xmlns="http://www.w3.org/2000/svg" xmlns:xlink="http://www.w3.org/1999/xlink" xml:space="preserve" onload="init(evt)">

<style type="text/css"><![CDATA[
.node, .edge {opacity: 0.7;}
.node.selected, .edge.selected {opacity: 1;}
.edge:hover path { stroke: red; }
.edge:hover polygon { stroke: red; fill: red; }
]]></style>

<defs>
  <circle id="rim" cx="0" cy="0" r="7"/>
  <circle id="rim2" cx="0" cy="0" r="3.5"/>
  <g id="zoomPlus">
    <use xlink:href="#rim" fill="#404040"><set attributeName="fill" to="#808080" begin="zoomplus.mouseover" end="zoomplus.mouseout"/></use>
    <path d="M-4,0h8M0,-4v8" fill="none" stroke="white" stroke-width="1.5" pointer-events="none"/>
  </g>
  <g id="zoomMin">
    <use xlink:href="#rim" fill="#404040"><set attributeName="fill" to="#808080" begin="zoomminus.mouseover" end="zoomminus.mouseout"/></use>
    <path d="M-4,0h8" fill="none" stroke="white" stroke-width="1.5" pointer-events="none"/>
  </g>
  <g id="arrowUp" transform="translate(30 24)">
    <use xlink:href="#rim"/>
    <path pointer-events="none" fill="none" stroke="white" stroke-width="1.5" d="M0,-3.0v7 M-2.5,-0.5L0,-3.0L2.5,-0.5"/>
  </g>
  <g id="arrowRight" transform="rotate(90) translate(36 -43)">
    <use xlink:href="#rim"/>
    <path pointer-events="none" fill="none" stroke="white" stroke-width="1.5" d="M0,-3.0v7 M-2.5,-0.5L0,-3.0L2.5,-0.5"/>
  </g>
  <g id="arrowDown" transform="rotate(180) translate(-30 -48)">
    <use xlink:href="#rim"/>
    <path pointer-events="none" fill="none" stroke="white" stroke-width="1.5" d="M0,-3.0v7 M-2.5,-0.5L0,-3.0L2.5,-0.5"/>
  </g>
  <g id="arrowLeft" transform="rotate(270) translate(-36 17)">
    <use xlink:href="#rim"/>
    <path pointer-events="none" fill="none" stroke="white" stroke-width="1.5" d="M0,-3.0v7 M-2.5,-0.5L0,-3.0L2.5,-0.5"/>
  </g>
  <g id="resetDef">
    <use xlink:href="#rim2" fill="#404040"><set attributeName="fill" to="#808080" begin="reset.mouseover" end="reset.mouseout"/></use>
  </g>
</defs>
<script type="application/ecmascript">
var viewWidth = 178;
var viewHeight = 591;
var sectionId = 'dynsection-0';
</script>
<script type="application/ecmascript" xlink:href="svg.min.js"/>
<svg id="graph" class="graph">
<g id="viewport">
<title>HY_DendriticCatchment</title>
<!-- Node1 -->
<g id="Node000001" class="node">
<title>Node1</title>
<g id="a_Node000001"><a xlink:title=" ">
<polygon fill="#999999" stroke="none" points="151.88,-65 17.62,-65 17.62,0 151.88,0 151.88,-65"/>
<text text-anchor="start" x="32.25" y="-51.5" font-family="Helvetica,sans-Serif" font-size="10.00">HY_DendriticCatchment</text>
<text text-anchor="start" x="83.25" y="-36.25" font-family="Helvetica,sans-Serif" font-size="10.00"> </text>
<text text-anchor="start" x="21.62" y="-21" font-family="Helvetica,sans-Serif" font-size="10.00">+</text>
<text text-anchor="start" x="31.62" y="-21" font-family="Helvetica,sans-Serif" font-size="10.00">HY_DendriticCatchment()</text>
<text text-anchor="start" x="21.62" y="-5.75" font-family="Helvetica,sans-Serif" font-size="10.00">+</text>
<text text-anchor="start" x="31.62" y="-5.75" font-family="Helvetica,sans-Serif" font-size="10.00">~HY_DendriticCatchment()</text>
<polygon fill="#666666" stroke="#666666" points="17.62,-47.75 17.62,-47.75 151.88,-47.75 151.88,-47.75 17.62,-47.75"/>
<polygon fill="#666666" stroke="#666666" points="17.62,-32.5 17.62,-32.5 151.88,-32.5 151.88,-32.5 17.62,-32.5"/>
<polygon fill="none" stroke="#666666" points="17.62,0 17.62,-65 151.88,-65 151.88,0 17.62,0"/>
</a>
</g>
</g>
<!-- Node2 -->
<g id="Node000002" class="node">
<title>Node2</title>
<g id="a_Node000002"><a xlink:href="class_h_y___catchment.html" target="_top" xlink:title=" ">
<polygon fill="white" stroke="none" points="169.5,-482.25 0,-482.25 0,-101 169.5,-101 169.5,-482.25"/>
<text text-anchor="start" x="51.38" y="-468.75" font-family="Helvetica,sans-Serif" font-size="10.00">HY_Catchment</text>
<text text-anchor="start" x="4" y="-453.5" font-family="Helvetica,sans-Serif" font-size="10.00">+</text>
<text text-anchor="start" x="14" y="-453.5" font-family="Helvetica,sans-Serif" font-size="10.00">realization</text>
<text text-anchor="start" x="4" y="-438.25" font-family="Helvetica,sans-Serif" font-size="10.00">+</text>
<text text-anchor="start" x="14" y="-438.25" font-family="Helvetica,sans-Serif" font-size="10.00">ATMOSPHERIC_LAYER_HIGH</text>
<text text-anchor="start" x="4" y="-423" font-family="Helvetica,sans-Serif" font-size="10.00">+</text>
<text text-anchor="start" x="14" y="-423" font-family="Helvetica,sans-Serif" font-size="10.00">ATMOSPHERIC_Layer_LOW</text>
<text text-anchor="start" x="4" y="-407.75" font-family="Helvetica,sans-Serif" font-size="10.00">+</text>
<text text-anchor="start" x="14" y="-407.75" font-family="Helvetica,sans-Serif" font-size="10.00">CANOPY_LAYER</text>
<text text-anchor="start" x="4" y="-392.5" font-family="Helvetica,sans-Serif" font-size="10.00">+</text>
<text text-anchor="start" x="14" y="-392.5" font-family="Helvetica,sans-Serif" font-size="10.00">SNOW_LAYER</text>
<text text-anchor="start" x="4" y="-377.25" font-family="Helvetica,sans-Serif" font-size="10.00">+</text>
<text text-anchor="start" x="14" y="-377.25" font-family="Helvetica,sans-Serif" font-size="10.00">SURFACE_LAYER</text>
<text text-anchor="start" x="4" y="-362" font-family="Helvetica,sans-Serif" font-size="10.00">+</text>
<text text-anchor="start" x="14" y="-362" font-family="Helvetica,sans-Serif" font-size="10.00">GROUND_WATER_SHALLOW</text>
<text text-anchor="start" x="14" y="-350.75" font-family="Helvetica,sans-Serif" font-size="10.00">_LAYER</text>
<text text-anchor="start" x="4" y="-335.5" font-family="Helvetica,sans-Serif" font-size="10.00">+</text>
<text text-anchor="start" x="14" y="-335.5" font-family="Helvetica,sans-Serif" font-size="10.00">GROUND_WATER_DEEP_LAYER</text>
<text text-anchor="start" x="5.5" y="-320.25" font-family="Helvetica,sans-Serif" font-size="10.00">&#45;</text>
<text text-anchor="start" x="14" y="-320.25" font-family="Helvetica,sans-Serif" font-size="10.00">id</text>
<text text-anchor="start" x="5.5" y="-305" font-family="Helvetica,sans-Serif" font-size="10.00">&#45;</text>
<text text-anchor="start" x="14" y="-305" font-family="Helvetica,sans-Serif" font-size="10.00">inflows</text>
<text text-anchor="start" x="5.5" y="-289.75" font-family="Helvetica,sans-Serif" font-size="10.00">&#45;</text>
<text text-anchor="start" x="14" y="-289.75" font-family="Helvetica,sans-Serif" font-size="10.00">outflows</text>
<text text-anchor="start" x="5.5" y="-274.5" font-family="Helvetica,sans-Serif" font-size="10.00">&#45;</text>
<text text-anchor="start" x="14" y="-274.5" font-family="Helvetica,sans-Serif" font-size="10.00">contained_catchments</text>
<text text-anchor="start" x="5.5" y="-259.25" font-family="Helvetica,sans-Serif" font-size="10.00">&#45;</text>
<text text-anchor="start" x="14" y="-259.25" font-family="Helvetica,sans-Serif" font-size="10.00">containing_catchment</text>
<text text-anchor="start" x="5.5" y="-244" font-family="Helvetica,sans-Serif" font-size="10.00">&#45;</text>
<text text-anchor="start" x="14" y="-244" font-family="Helvetica,sans-Serif" font-size="10.00">conjoint_catchment</text>
<text text-anchor="start" x="5.5" y="-228.75" font-family="Helvetica,sans-Serif" font-size="10.00">&#45;</text>
<text text-anchor="start" x="14" y="-228.75" font-family="Helvetica,sans-Serif" font-size="10.00">upper_catchment</text>
<text text-anchor="start" x="5.5" y="-213.5" font-family="Helvetica,sans-Serif" font-size="10.00">&#45;</text>
<text text-anchor="start" x="14" y="-213.5" font-family="Helvetica,sans-Serif" font-size="10.00">lower_catchment</text>
<text text-anchor="start" x="5.5" y="-198.25" font-family="Helvetica,sans-Serif" font-size="10.00">&#45;</text>
<text text-anchor="start" x="14" y="-198.25" font-family="Helvetica,sans-Serif" font-size="10.00">layer</text>
<text text-anchor="start" x="4" y="-183" font-family="Helvetica,sans-Serif" font-size="10.00">+</text>
<text text-anchor="start" x="14" y="-183" font-family="Helvetica,sans-Serif" font-size="10.00">HY_Catchment()</text>
<text text-anchor="start" x="4" y="-167.75" font-family="Helvetica,sans-Serif" font-size="10.00">+</text>
<text text-anchor="start" x="14" y="-167.75" font-family="Helvetica,sans-Serif" font-size="10.00">HY_Catchment()</text>
<text text-anchor="start" x="4" y="-152.5" font-family="Helvetica,sans-Serif" font-size="10.00">+</text>
<text text-anchor="start" x="14" y="-152.5" font-family="Helvetica,sans-Serif" font-size="10.00">~HY_Catchment()</text>
<text text-anchor="start" x="4" y="-137.25" font-family="Helvetica,sans-Serif" font-size="10.00">+</text>
<text text-anchor="start" x="14" y="-137.25" font-family="Helvetica,sans-Serif" font-size="10.00">get_outflow_nexuses()</text>
<text text-anchor="start" x="4" y="-122" font-family="Helvetica,sans-Serif" font-size="10.00">+</text>
<text text-anchor="start" x="14" y="-122" font-family="Helvetica,sans-Serif" font-size="10.00">get_layer()</text>
<text text-anchor="start" x="4" y="-106.75" font-family="Helvetica,sans-Serif" font-size="10.00">+</text>
<text text-anchor="start" x="14" y="-106.75" font-family="Helvetica,sans-Serif" font-size="10.00">set_layer()</text>
<polygon fill="#666666" stroke="#666666" points="0,-465 0,-465 169.5,-465 169.5,-465 0,-465"/>
<polygon fill="#666666" stroke="#666666" points="0,-194.5 0,-194.5 12,-194.5 12,-194.5 0,-194.5"/>
<polygon fill="#666666" stroke="#666666" points="12,-194.5 12,-194.5 169.5,-194.5 169.5,-194.5 12,-194.5"/>
<polygon fill="none" stroke="#666666" points="0,-101 0,-482.25 169.5,-482.25 169.5,-101 0,-101"/>
</a>
</g>
</g>
<!-- Node2&#45;&gt;Node1 -->
<g id="edge1_Node000001_Node000002" class="edge">
<title>Node2&#45;&gt;Node1</title>
<g id="a_edge1_Node000001_Node000002"><a xlink:title=" ">
<path fill="none" stroke="#63b8ff" d="M84.75,-89.62C84.75,-80.52 84.75,-72.14 84.75,-64.79"/>
<polygon fill="none" stroke="#63b8ff" points="81.25,-89.54 84.75,-99.54 88.25,-89.54 81.25,-89.54"/>
</a>
</g>
</g>
<!-- Node3 -->
<g id="Node000003" class="node">
<title>Node3</title>
<g id="a_Node000003"><a xlink:href="class_h_y___hydro_feature.html" target="_top" xlink:title=" ">
<polygon fill="white" stroke="none" points="138.38,-583.25 31.12,-583.25 31.12,-518.25 138.38,-518.25 138.38,-583.25"/>
<text text-anchor="start" x="45.75" y="-569.75" font-family="Helvetica,sans-Serif" font-size="10.00">HY_HydroFeature</text>
<text text-anchor="start" x="83.25" y="-554.5" font-family="Helvetica,sans-Serif" font-size="10.00"> </text>
<text text-anchor="start" x="35.12" y="-539.25" font-family="Helvetica,sans-Serif" font-size="10.00">+</text>
<text text-anchor="start" x="45.12" y="-539.25" font-family="Helvetica,sans-Serif" font-size="10.00">HY_HydroFeature()</text>
<text text-anchor="start" x="35.12" y="-524" font-family="Helvetica,sans-Serif" font-size="10.00">+</text>
<text text-anchor="start" x="45.12" y="-524" font-family="Helvetica,sans-Serif" font-size="10.00">~HY_HydroFeature()</text>
<polygon fill="#666666" stroke="#666666" points="31.12,-566 31.12,-566 138.38,-566 138.38,-566 31.12,-566"/>
<polygon fill="#666666" stroke="#666666" points="31.12,-550.75 31.12,-550.75 138.38,-550.75 138.38,-550.75 31.12,-550.75"/>
<polygon fill="none" stroke="#666666" points="31.12,-518.25 31.12,-583.25 138.38,-583.25 138.38,-518.25 31.12,-518.25"/>
</a>
</g>
</g>
<!-- Node3&#45;&gt;Node2 -->
<g id="edge2_Node000002_Node000003" class="edge">
<title>Node3&#45;&gt;Node2</title>
<g id="a_edge2_Node000002_Node000003"><a xlink:title=" ">
<path fill="none" stroke="#63b8ff" d="M84.75,-507.1C84.75,-499.44 84.75,-491.03 84.75,-482.11"/>
<polygon fill="none" stroke="#63b8ff" points="81.25,-506.96 84.75,-516.96 88.25,-506.96 81.25,-506.96"/>
</a>
</g>
</g>
</g>
</svg>

<g id="navigator" transform="translate(0 0)" fill="#404254">
  <rect fill="#f2f5e9" fill-opacity="0.5" stroke="#606060" stroke-width=".5" x="0" y="0" width="60" height="60"/>
  <use id="zoomplus" xlink:href="#zoomPlus" x="17" y="9" onmousedown="handleZoom(evt,'in')"/>
  <use id="zoomminus" xlink:href="#zoomMin" x="42" y="9" onmousedown="handleZoom(evt,'out')"/>
  <use id="reset" xlink:href="#resetDef" x="30" y="36" onmousedown="handleReset()"/>
   <use id="arrowup" xlink:href="#arrowUp" x="0" y="0" onmousedown="handlePan(0,-1)"/>
  <use id="arrowright" xlink:href="#arrowRight" x="0" y="0" onmousedown="handlePan(1,0)"/>
  <use id="arrowdown" xlink:href="#arrowDown" x="0" y="0" onmousedown="handlePan(0,1)"/>
  <use id="arrowleft" xlink:href="#arrowLeft" x="0" y="0" onmousedown="handlePan(-1,0)"/>
</g>
<svg viewBox="0 0 15 15" width="100%" height="30px" preserveAspectRatio="xMaxYMin meet">
 <g id="arrow_out" transform="scale(0.3 0.3)">
  <a xlink:href="class_h_y___dendritic_catchment__inherit__graph_org.svg" target="_base">
   <rect id="button" ry="5" rx="5" y="6" x="6" height="38" width="38"
        fill="#f2f5e9" fill-opacity="0.5" stroke="#606060" stroke-width="1.0"/>
   <path id="arrow"
     d="M 11.500037,31.436501 C 11.940474,20.09759 22.043105,11.32322 32.158766,21.979434 L 37.068811,17.246167 C 37.068811,17.246167 37.088388,32 37.088388,32 L 22.160133,31.978069 C 22.160133,31.978069 26.997745,27.140456 26.997745,27.140456 C 18.528582,18.264221 13.291696,25.230495 11.500037,31.436501 z"
     style="fill:#404040;"/>
  </a>
 </g>
</svg>

<style type='text/css'>
<![CDATA[
[data-mouse-over-selected='false'] { opacity: 0.7; }
[data-mouse-over-selected='true']  { opacity: 1.0; }
]]>
</style>
<script type="application/ecmascript"><![CDATA[
document.addEventListener('DOMContentLoaded', (event) => {
  highlightEdges();
  highlightAdjacentNodes();
});
]]></script>
</svg>
