<?xml version="1.0" encoding="UTF-8" standalone="no"?>
<!DOCTYPE svg PUBLIC "-//W3C//DTD SVG 1.1//EN"
 "http://www.w3.org/Graphics/SVG/1.1/DTD/svg11.dtd">
<!-- Generated by graphviz version 9.0.0 (20230911.1827)
 -->
<!-- Title: models::bmi::Bmi_Adapter Pages: 1 -->
<!--zoomable 1018 -->

<svg id="main" version="1.1" xmlns="http://www.w3.org/2000/svg" xmlns:xlink="http://www.w3.org/1999/xlink" xml:space="preserve" onload="init(evt)">
<style type="text/css"><![CDATA[
.node, .edge {opacity: 0.7;}
.node.selected, .edge.selected {opacity: 1;}
.edge:hover path { stroke: red; }
.edge:hover polygon { stroke: red; fill: red; }
]]></style>

<defs>
  <circle id="rim" cx="0" cy="0" r="7"/>
  <circle id="rim2" cx="0" cy="0" r="3.5"/>
  <g id="zoomPlus">
    <use xlink:href="#rim" fill="#404040"><set attributeName="fill" to="#808080" begin="zoomplus.mouseover" end="zoomplus.mouseout"/></use>
    <path d="M-4,0h8M0,-4v8" fill="none" stroke="white" stroke-width="1.5" pointer-events="none"/>
  </g>
  <g id="zoomMin">
    <use xlink:href="#rim" fill="#404040"><set attributeName="fill" to="#808080" begin="zoomminus.mouseover" end="zoomminus.mouseout"/></use>
    <path d="M-4,0h8" fill="none" stroke="white" stroke-width="1.5" pointer-events="none"/>
  </g>
  <g id="arrowUp" transform="translate(30 24)">
    <use xlink:href="#rim"/>
    <path pointer-events="none" fill="none" stroke="white" stroke-width="1.5" d="M0,-3.0v7 M-2.5,-0.5L0,-3.0L2.5,-0.5"/>
  </g>
  <g id="arrowRight" transform="rotate(90) translate(36 -43)">
    <use xlink:href="#rim"/>
    <path pointer-events="none" fill="none" stroke="white" stroke-width="1.5" d="M0,-3.0v7 M-2.5,-0.5L0,-3.0L2.5,-0.5"/>
  </g>
  <g id="arrowDown" transform="rotate(180) translate(-30 -48)">
    <use xlink:href="#rim"/>
    <path pointer-events="none" fill="none" stroke="white" stroke-width="1.5" d="M0,-3.0v7 M-2.5,-0.5L0,-3.0L2.5,-0.5"/>
  </g>
  <g id="arrowLeft" transform="rotate(270) translate(-36 17)">
    <use xlink:href="#rim"/>
    <path pointer-events="none" fill="none" stroke="white" stroke-width="1.5" d="M0,-3.0v7 M-2.5,-0.5L0,-3.0L2.5,-0.5"/>
  </g>
  <g id="resetDef">
    <use xlink:href="#rim2" fill="#404040"><set attributeName="fill" to="#808080" begin="reset.mouseover" end="reset.mouseout"/></use>
  </g>
</defs>
<script type="application/ecmascript">
var viewWidth = 530;
var viewHeight = 1018;
var sectionId = 'dynsection-1';
</script>
<script type="application/ecmascript" xlink:href="svg.min.js"/>
<svg id="graph" class="graph">
<g id="viewport">
<title>models::bmi::Bmi_Adapter</title>
<!-- Node1 -->
<g id="Node000001" class="node">
<title>Node1</title>
<g id="a_Node000001"><a xlink:title="Abstract adapter interface for C++ classes to interact with the essential aspects of external models ...">
<polygon fill="#999999" stroke="none" points="331,-355 202,-355 202,0 331,0 331,-355"/>
<text text-anchor="start" x="210.25" y="-341.5" font-family="Helvetica,sans-Serif" font-size="10.00">models::bmi::Bmi_Adapter</text>
<text text-anchor="start" x="206.38" y="-326.5" font-family="Helvetica,sans-Serif" font-size="10.00">#</text>
<text text-anchor="start" x="216" y="-326.5" font-family="Helvetica,sans-Serif" font-size="10.00">allow_model_exceed</text>
<text text-anchor="start" x="216" y="-315.25" font-family="Helvetica,sans-Serif" font-size="10.00">_end_time</text>
<text text-anchor="start" x="206.38" y="-300.5" font-family="Helvetica,sans-Serif" font-size="10.00">#</text>
<text text-anchor="start" x="216" y="-300.5" font-family="Helvetica,sans-Serif" font-size="10.00">bmi_model_has_fixed</text>
<text text-anchor="start" x="216" y="-289.25" font-family="Helvetica,sans-Serif" font-size="10.00">_time_step</text>
<text text-anchor="start" x="206.38" y="-274.5" font-family="Helvetica,sans-Serif" font-size="10.00">#</text>
<text text-anchor="start" x="216" y="-274.5" font-family="Helvetica,sans-Serif" font-size="10.00">bmi_model_time_convert</text>
<text text-anchor="start" x="216" y="-263.25" font-family="Helvetica,sans-Serif" font-size="10.00">_factor</text>
<text text-anchor="start" x="206.38" y="-248.5" font-family="Helvetica,sans-Serif" font-size="10.00">#</text>
<text text-anchor="start" x="216" y="-248.5" font-family="Helvetica,sans-Serif" font-size="10.00">model_initialized</text>
<text text-anchor="start" x="206" y="-233.5" font-family="Helvetica,sans-Serif" font-size="10.00">+</text>
<text text-anchor="start" x="216" y="-233.5" font-family="Helvetica,sans-Serif" font-size="10.00">Bmi_Adapter()</text>
<text text-anchor="start" x="206" y="-218.5" font-family="Helvetica,sans-Serif" font-size="10.00">+</text>
<text text-anchor="start" x="216" y="-218.5" font-family="Helvetica,sans-Serif" font-size="10.00">Bmi_Adapter()</text>
<text text-anchor="start" x="206" y="-203.5" font-family="Helvetica,sans-Serif" font-size="10.00">+</text>
<text text-anchor="start" x="216" y="-203.5" font-family="Helvetica,sans-Serif" font-size="10.00">Bmi_Adapter()</text>
<text text-anchor="start" x="206" y="-188.5" font-family="Helvetica,sans-Serif" font-size="10.00">+</text>
<text text-anchor="start" x="216" y="-188.5" font-family="Helvetica,sans-Serif" font-size="10.00">~Bmi_Adapter()</text>
<text text-anchor="start" x="206" y="-173.5" font-family="Helvetica,sans-Serif" font-size="10.00">+</text>
<text text-anchor="start" x="216" y="-173.5" font-family="Helvetica,sans-Serif" font-size="10.00">is_model_initialized()</text>
<text text-anchor="start" x="206" y="-158.5" font-family="Helvetica,sans-Serif" font-size="10.00">+</text>
<text text-anchor="start" x="216" y="-158.5" font-family="Helvetica,sans-Serif" font-size="10.00">get_time_convert_factor()</text>
<text text-anchor="start" x="206" y="-143.5" font-family="Helvetica,sans-Serif" font-size="10.00">+</text>
<text text-anchor="start" x="216" y="-143.5" font-family="Helvetica,sans-Serif" font-size="10.00">convert_model_time</text>
<text text-anchor="start" x="216" y="-132.25" font-family="Helvetica,sans-Serif" font-size="10.00">_to_seconds()</text>
<text text-anchor="start" x="206" y="-117.5" font-family="Helvetica,sans-Serif" font-size="10.00">+</text>
<text text-anchor="start" x="216" y="-117.5" font-family="Helvetica,sans-Serif" font-size="10.00">convert_seconds_to</text>
<text text-anchor="start" x="216" y="-106.25" font-family="Helvetica,sans-Serif" font-size="10.00">_model_time()</text>
<text text-anchor="start" x="206" y="-91.5" font-family="Helvetica,sans-Serif" font-size="10.00">+</text>
<text text-anchor="start" x="216" y="-91.5" font-family="Helvetica,sans-Serif" font-size="10.00">get_analogous_cxx_type()</text>
<text text-anchor="start" x="206" y="-76.5" font-family="Helvetica,sans-Serif" font-size="10.00">+</text>
<text text-anchor="start" x="216" y="-76.5" font-family="Helvetica,sans-Serif" font-size="10.00">Initialize()</text>
<text text-anchor="start" x="206" y="-61.5" font-family="Helvetica,sans-Serif" font-size="10.00">+</text>
<text text-anchor="start" x="216" y="-61.5" font-family="Helvetica,sans-Serif" font-size="10.00">Initialize()</text>
<text text-anchor="start" x="206" y="-46.5" font-family="Helvetica,sans-Serif" font-size="10.00">+</text>
<text text-anchor="start" x="216" y="-46.5" font-family="Helvetica,sans-Serif" font-size="10.00">isInitialized()</text>
<text text-anchor="start" x="206" y="-31.5" font-family="Helvetica,sans-Serif" font-size="10.00">+</text>
<text text-anchor="start" x="216" y="-31.5" font-family="Helvetica,sans-Serif" font-size="10.00">get_model_name()</text>
<text text-anchor="start" x="206.38" y="-16.5" font-family="Helvetica,sans-Serif" font-size="10.00">#</text>
<text text-anchor="start" x="216" y="-16.5" font-family="Helvetica,sans-Serif" font-size="10.00">construct_and_init</text>
<text text-anchor="start" x="216" y="-5.25" font-family="Helvetica,sans-Serif" font-size="10.00">_backing_model()</text>
<polygon fill="#666666" stroke="#666666" points="202,-338 202,-338 331,-338 331,-338 202,-338"/>
<polygon fill="#666666" stroke="#666666" points="202,-245 202,-245 214,-245 214,-245 202,-245"/>
<polygon fill="#666666" stroke="#666666" points="214,-245 214,-245 331,-245 331,-245 214,-245"/>
<polygon fill="none" stroke="#666666" points="202,0 202,-355 331,-355 331,0 202,0"/>
</a>
</g>
</g>
<!-- Node2 -->
<g id="Node000002" class="node">
<title>Node2</title>
<g id="a_Node000002"><a xlink:href="classbmi_1_1_bmi.html" target="_top" xlink:title=" ">
<polygon fill="white" stroke="none" points="115,-687.5 0,-687.5 0,-413.5 115,-413.5 115,-687.5"/>
<text text-anchor="start" x="38.75" y="-674" font-family="Helvetica,sans-Serif" font-size="10.00">bmi::Bmi</text>
<text text-anchor="start" x="56" y="-659" font-family="Helvetica,sans-Serif" font-size="10.00"> </text>
<text text-anchor="start" x="4" y="-644" font-family="Helvetica,sans-Serif" font-size="10.00">+</text>
<text text-anchor="start" x="14" y="-644" font-family="Helvetica,sans-Serif" font-size="10.00">~Bmi()</text>
<text text-anchor="start" x="4" y="-629" font-family="Helvetica,sans-Serif" font-size="10.00">+</text>
<text text-anchor="start" x="14" y="-629" font-family="Helvetica,sans-Serif" font-size="10.00">Initialize()</text>
<text text-anchor="start" x="4" y="-614" font-family="Helvetica,sans-Serif" font-size="10.00">+</text>
<text text-anchor="start" x="14" y="-614" font-family="Helvetica,sans-Serif" font-size="10.00">Update()</text>
<text text-anchor="start" x="4" y="-599" font-family="Helvetica,sans-Serif" font-size="10.00">+</text>
<text text-anchor="start" x="14" y="-599" font-family="Helvetica,sans-Serif" font-size="10.00">UpdateUntil()</text>
<text text-anchor="start" x="4" y="-584" font-family="Helvetica,sans-Serif" font-size="10.00">+</text>
<text text-anchor="start" x="14" y="-584" font-family="Helvetica,sans-Serif" font-size="10.00">Finalize()</text>
<text text-anchor="start" x="4" y="-569" font-family="Helvetica,sans-Serif" font-size="10.00">+</text>
<text text-anchor="start" x="14" y="-569" font-family="Helvetica,sans-Serif" font-size="10.00">GetComponentName()</text>
<text text-anchor="start" x="4" y="-554" font-family="Helvetica,sans-Serif" font-size="10.00">+</text>
<text text-anchor="start" x="14" y="-554" font-family="Helvetica,sans-Serif" font-size="10.00">GetInputItemCount()</text>
<text text-anchor="start" x="4" y="-539" font-family="Helvetica,sans-Serif" font-size="10.00">+</text>
<text text-anchor="start" x="14" y="-539" font-family="Helvetica,sans-Serif" font-size="10.00">GetOutputItemCount()</text>
<text text-anchor="start" x="4" y="-524" font-family="Helvetica,sans-Serif" font-size="10.00">+</text>
<text text-anchor="start" x="14" y="-524" font-family="Helvetica,sans-Serif" font-size="10.00">GetInputVarNames()</text>
<text text-anchor="start" x="4" y="-509" font-family="Helvetica,sans-Serif" font-size="10.00">+</text>
<text text-anchor="start" x="14" y="-509" font-family="Helvetica,sans-Serif" font-size="10.00">GetOutputVarNames()</text>
<text text-anchor="start" x="4" y="-494" font-family="Helvetica,sans-Serif" font-size="10.00">+</text>
<text text-anchor="start" x="14" y="-494" font-family="Helvetica,sans-Serif" font-size="10.00">GetVarGrid()</text>
<text text-anchor="start" x="4" y="-479" font-family="Helvetica,sans-Serif" font-size="10.00">+</text>
<text text-anchor="start" x="14" y="-479" font-family="Helvetica,sans-Serif" font-size="10.00">GetVarType()</text>
<text text-anchor="start" x="4" y="-464" font-family="Helvetica,sans-Serif" font-size="10.00">+</text>
<text text-anchor="start" x="14" y="-464" font-family="Helvetica,sans-Serif" font-size="10.00">GetVarUnits()</text>
<text text-anchor="start" x="4" y="-449" font-family="Helvetica,sans-Serif" font-size="10.00">+</text>
<text text-anchor="start" x="14" y="-449" font-family="Helvetica,sans-Serif" font-size="10.00">GetVarItemsize()</text>
<text text-anchor="start" x="4" y="-434" font-family="Helvetica,sans-Serif" font-size="10.00">+</text>
<text text-anchor="start" x="14" y="-434" font-family="Helvetica,sans-Serif" font-size="10.00">GetVarNbytes()</text>
<text text-anchor="start" x="14" y="-419" font-family="Helvetica,sans-Serif" font-size="10.00">and 27 more...</text>
<polygon fill="#666666" stroke="#666666" points="0,-670.5 0,-670.5 115,-670.5 115,-670.5 0,-670.5"/>
<polygon fill="#666666" stroke="#666666" points="0,-655.5 0,-655.5 115,-655.5 115,-655.5 0,-655.5"/>
<polygon fill="none" stroke="#666666" points="0,-413.5 0,-687.5 115,-687.5 115,-413.5 0,-413.5"/>
</a>
</g>
</g>
<!-- Node2&#45;&gt;Node1 -->
<g id="edge1_Node000001_Node000002" class="edge">
<title>Node2&#45;&gt;Node1</title>
<g id="a_edge1_Node000001_Node000002"><a xlink:title=" ">
<path fill="none" stroke="#63b8ff" d="M120.34,-421.17C121.73,-418.58 123.12,-416.03 124.5,-413.5 148.64,-369.38 177,-321.72 202,-280.92"/>
<polygon fill="none" stroke="#63b8ff" points="117.3,-419.43 115.7,-429.9 123.49,-422.71 117.3,-419.43"/>
</a>
</g>
</g>
<!-- Node3 -->
<g id="Node000003" class="node">
<title>Node3</title>
<g id="a_Node000003"><a xlink:title=" ">
<polygon fill="white" stroke="none" points="436.5,-902.5 384.5,-902.5 384.5,-853.5 436.5,-853.5 436.5,-902.5"/>
<text text-anchor="start" x="389.5" y="-889" font-family="Helvetica,sans-Serif" font-size="10.00">std::string</text>
<text text-anchor="start" x="409" y="-874" font-family="Helvetica,sans-Serif" font-size="10.00"> </text>
<text text-anchor="start" x="409" y="-859" font-family="Helvetica,sans-Serif" font-size="10.00"> </text>
<polygon fill="#666666" stroke="#666666" points="384.5,-885.5 384.5,-885.5 436.5,-885.5 436.5,-885.5 384.5,-885.5"/>
<polygon fill="#666666" stroke="#666666" points="384.5,-870.5 384.5,-870.5 436.5,-870.5 436.5,-870.5 384.5,-870.5"/>
<polygon fill="none" stroke="#666666" points="384.5,-853.5 384.5,-902.5 436.5,-902.5 436.5,-853.5 384.5,-853.5"/>
</a>
</g>
</g>
<!-- Node3&#45;&gt;Node1 -->
<g id="edge2_Node000001_Node000003" class="edge">
<title>Node3&#45;&gt;Node1</title>
<g id="a_edge2_Node000001_Node000003"><a xlink:title=" ">
<path fill="none" stroke="#63b8ff" d="M422.51,-853.85C424.99,-848.01 427.22,-841.65 428.5,-835.5 429.52,-830.6 428.59,-829.25 428.5,-824.25 424.72,-623.59 478.27,-562.27 411.5,-373 396.07,-329.26 367.08,-287.16 339.05,-253.38"/>
<polygon fill="none" stroke="#63b8ff" points="339.13,-253.47 332.2,-251.48 331.38,-244.31 338.31,-246.31 339.13,-253.47"/>
</a>
</g>
<text text-anchor="middle" x="477.75" y="-729.75" font-family="Helvetica,sans-Serif" font-size="10.00" fill="grey"> #bmi_init_config</text>
<text text-anchor="middle" x="477.75" y="-718.5" font-family="Helvetica,sans-Serif" font-size="10.00" fill="grey">#init_exception_msg</text>
<text text-anchor="middle" x="477.75" y="-707.25" font-family="Helvetica,sans-Serif" font-size="10.00" fill="grey">#model_name</text>
</g>
<!-- Node9 -->
<g id="Node000009" class="node">
<title>Node9</title>
<g id="a_Node000009"><a xlink:title=" ">
<polygon fill="white" stroke="none" points="414,-806.25 301,-806.25 301,-757.25 414,-757.25 414,-806.25"/>
<text text-anchor="start" x="305.75" y="-792.75" font-family="Helvetica,sans-Serif" font-size="10.00">std::vector&lt; std::string &gt;</text>
<text text-anchor="start" x="356" y="-777.75" font-family="Helvetica,sans-Serif" font-size="10.00"> </text>
<text text-anchor="start" x="356" y="-762.75" font-family="Helvetica,sans-Serif" font-size="10.00"> </text>
<polygon fill="#666666" stroke="#666666" points="301,-789.25 301,-789.25 414,-789.25 414,-789.25 301,-789.25"/>
<polygon fill="#666666" stroke="#666666" points="301,-774.25 301,-774.25 414,-774.25 414,-774.25 301,-774.25"/>
<polygon fill="none" stroke="#666666" points="301,-757.25 301,-806.25 414,-806.25 414,-757.25 301,-757.25"/>
</a>
</g>
</g>
<!-- Node3&#45;&gt;Node9 -->
<g id="edge9_Node000009_Node000003" class="edge">
<title>Node3&#45;&gt;Node9</title>
<g id="a_edge9_Node000009_Node000003"><a xlink:title=" ">
<path fill="none" stroke="#63b8ff" d="M392.46,-853.88C388.28,-848.05 384.02,-841.68 380.5,-835.5 377.35,-829.99 374.35,-823.96 371.62,-818.02"/>
<polygon fill="none" stroke="#63b8ff" points="371.59,-817.94 365.52,-814.05 366.78,-806.95 372.85,-810.84 371.59,-817.94"/>
</a>
</g>
<text text-anchor="middle" x="404.5" y="-826" font-family="Helvetica,sans-Serif" font-size="10.00" fill="grey"> +elements</text>
</g>
<!-- Node4 -->
<g id="Node000004" class="node">
<title>Node4</title>
<g id="a_Node000004"><a xlink:title=" ">
<polygon fill="white" stroke="none" points="453.5,-1009.75 367.5,-1009.75 367.5,-949.75 453.5,-949.75 453.5,-1009.75"/>
<text text-anchor="start" x="372.25" y="-996.25" font-family="Helvetica,sans-Serif" font-size="10.00">std::basic_string&lt;</text>
<text text-anchor="start" x="395.12" y="-985" font-family="Helvetica,sans-Serif" font-size="10.00"> Char &gt;</text>
<text text-anchor="start" x="409" y="-970.25" font-family="Helvetica,sans-Serif" font-size="10.00"> </text>
<text text-anchor="start" x="409" y="-955.25" font-family="Helvetica,sans-Serif" font-size="10.00"> </text>
<polygon fill="#666666" stroke="#666666" points="367.5,-981.75 367.5,-981.75 453.5,-981.75 453.5,-981.75 367.5,-981.75"/>
<polygon fill="#666666" stroke="#666666" points="367.5,-966.75 367.5,-966.75 453.5,-966.75 453.5,-966.75 367.5,-966.75"/>
<polygon fill="none" stroke="#666666" points="367.5,-949.75 367.5,-1009.75 453.5,-1009.75 453.5,-949.75 367.5,-949.75"/>
</a>
</g>
</g>
<!-- Node4&#45;&gt;Node3 -->
<g id="edge3_Node000003_Node000004" class="edge">
<title>Node4&#45;&gt;Node3</title>
<g id="a_edge3_Node000003_Node000004"><a xlink:title=" ">
<path fill="none" stroke="#63b8ff" d="M410.5,-938.49C410.5,-926.24 410.5,-913.17 410.5,-902.42"/>
<polygon fill="none" stroke="#63b8ff" points="407,-938.38 410.5,-948.38 414,-938.38 407,-938.38"/>
</a>
</g>
</g>
<!-- Node5 -->
<g id="Node000005" class="node">
<title>Node5</title>
<g id="a_Node000005"><a xlink:title=" ">
<polygon fill="white" stroke="none" points="251.5,-575 133.5,-575 133.5,-526 251.5,-526 251.5,-575"/>
<text text-anchor="start" x="138.12" y="-561.5" font-family="Helvetica,sans-Serif" font-size="10.00">std::shared_ptr&lt; double &gt;</text>
<text text-anchor="start" x="150" y="-546.5" font-family="Helvetica,sans-Serif" font-size="10.00">+</text>
<text text-anchor="start" x="172.5" y="-546.5" font-family="Helvetica,sans-Serif" font-size="10.00">ptr</text>
<text text-anchor="start" x="150" y="-531.5" font-family="Helvetica,sans-Serif" font-size="10.00">+</text>
<text text-anchor="start" x="172.5" y="-531.5" font-family="Helvetica,sans-Serif" font-size="10.00">operator&#45;&gt;()</text>
<polygon fill="#666666" stroke="#666666" points="133.5,-558 133.5,-558 251.5,-558 251.5,-558 133.5,-558"/>
<polygon fill="#666666" stroke="#666666" points="133.5,-543 133.5,-543 170.5,-543 170.5,-543 133.5,-543"/>
<polygon fill="#666666" stroke="#666666" points="170.5,-543 170.5,-543 251.5,-543 251.5,-543 170.5,-543"/>
<polygon fill="none" stroke="#666666" points="133.5,-526 133.5,-575 251.5,-575 251.5,-526 133.5,-526"/>
</a>
</g>
</g>
<!-- Node5&#45;&gt;Node1 -->
<g id="edge4_Node000001_Node000005" class="edge">
<title>Node5&#45;&gt;Node1</title>
<g id="a_edge4_Node000001_Node000005"><a xlink:title=" ">
<path fill="none" stroke="#63b8ff" d="M189.99,-526.13C186.92,-492.1 183.28,-427.09 193.25,-373 194.78,-364.72 196.63,-356.32 198.75,-347.91"/>
<polygon fill="none" stroke="#63b8ff" points="198.71,-348.06 196.39,-341.23 201.79,-336.46 204.12,-343.29 198.71,-348.06"/>
</a>
</g>
<text text-anchor="middle" x="256.12" y="-380.38" font-family="Helvetica,sans-Serif" font-size="10.00" fill="grey"> #bmi_model_time_step_size</text>
</g>
<!-- Node6 -->
<g id="Node000006" class="node">
<title>Node6</title>
<g id="a_Node000006"><a xlink:title=" ">
<polygon fill="white" stroke="none" points="267.5,-806.25 171.5,-806.25 171.5,-757.25 267.5,-757.25 267.5,-806.25"/>
<text text-anchor="start" x="176.38" y="-792.75" font-family="Helvetica,sans-Serif" font-size="10.00">std::shared_ptr&lt; T &gt;</text>
<text text-anchor="start" x="218" y="-777.75" font-family="Helvetica,sans-Serif" font-size="10.00"> </text>
<text text-anchor="start" x="182.5" y="-762.75" font-family="Helvetica,sans-Serif" font-size="10.00">+</text>
<text text-anchor="start" x="199.5" y="-762.75" font-family="Helvetica,sans-Serif" font-size="10.00">operator&#45;&gt;()</text>
<polygon fill="#666666" stroke="#666666" points="171.5,-789.25 171.5,-789.25 267.5,-789.25 267.5,-789.25 171.5,-789.25"/>
<polygon fill="#666666" stroke="#666666" points="171.5,-774.25 171.5,-774.25 267.5,-774.25 267.5,-774.25 171.5,-774.25"/>
<polygon fill="none" stroke="#666666" points="171.5,-757.25 171.5,-806.25 267.5,-806.25 267.5,-757.25 171.5,-757.25"/>
</a>
</g>
</g>
<!-- Node6&#45;&gt;Node5 -->
<g id="edge5_Node000005_Node000006" class="edge">
<title>Node6&#45;&gt;Node5</title>
<g id="a_edge5_Node000005_Node000006"><a xlink:title=" ">
<path fill="none" stroke="orange" d="M194.49,-747.46C193.21,-744.77 192.1,-742.02 191.25,-739.25 173.74,-682.4 181.83,-611.19 187.92,-574.98"/>
<polygon fill="orange" stroke="orange" points="191.42,-749.14 199.39,-756.12 197.52,-745.69 191.42,-749.14"/>
</a>
</g>
<text text-anchor="middle" x="215.12" y="-718.5" font-family="Helvetica,sans-Serif" font-size="10.00" fill="grey"> &lt; double &gt;</text>
</g>
<!-- Node8 -->
<g id="Node000008" class="node">
<title>Node8</title>
<g id="a_Node000008"><a xlink:title=" ">
<polygon fill="white" stroke="none" points="394.5,-580.5 286.5,-580.5 286.5,-520.5 394.5,-520.5 394.5,-580.5"/>
<text text-anchor="start" x="291.38" y="-567" font-family="Helvetica,sans-Serif" font-size="10.00">std::shared_ptr&lt; std</text>
<text text-anchor="start" x="291.38" y="-555.75" font-family="Helvetica,sans-Serif" font-size="10.00">::vector&lt; std::string &gt; &gt;</text>
<text text-anchor="start" x="339" y="-541" font-family="Helvetica,sans-Serif" font-size="10.00"> </text>
<text text-anchor="start" x="300.5" y="-526" font-family="Helvetica,sans-Serif" font-size="10.00">+</text>
<text text-anchor="start" x="320.5" y="-526" font-family="Helvetica,sans-Serif" font-size="10.00">operator&#45;&gt;()</text>
<polygon fill="#666666" stroke="#666666" points="286.5,-552.5 286.5,-552.5 394.5,-552.5 394.5,-552.5 286.5,-552.5"/>
<polygon fill="#666666" stroke="#666666" points="286.5,-537.5 286.5,-537.5 394.5,-537.5 394.5,-537.5 286.5,-537.5"/>
<polygon fill="none" stroke="#666666" points="286.5,-520.5 286.5,-580.5 394.5,-580.5 394.5,-520.5 286.5,-520.5"/>
</a>
</g>
</g>
<!-- Node6&#45;&gt;Node8 -->
<g id="edge12_Node000008_Node000006" class="edge">
<title>Node6&#45;&gt;Node8</title>
<g id="a_edge12_Node000008_Node000006"><a xlink:title=" ">
<path fill="none" stroke="orange" d="M237.12,-747.36C260.92,-702.27 302.93,-622.67 325.37,-580.16"/>
<polygon fill="orange" stroke="orange" points="234.05,-745.69 232.47,-756.17 240.24,-748.96 234.05,-745.69"/>
</a>
</g>
<text text-anchor="start" x="259.5" y="-724.12" font-family="Helvetica,sans-Serif" font-size="10.00" fill="grey"> &lt; std::vector&lt; std</text>
<text text-anchor="middle" x="298.12" y="-712.88" font-family="Helvetica,sans-Serif" font-size="10.00" fill="grey">::string &gt; &gt;</text>
</g>
<!-- Node7 -->
<g id="Node000007" class="node">
<title>Node7</title>
<g id="a_Node000007"><a xlink:title=" ">
<polygon fill="white" stroke="none" points="255.5,-1004.25 239.5,-1004.25 239.5,-955.25 255.5,-955.25 255.5,-1004.25"/>
<text text-anchor="start" x="244.5" y="-990.75" font-family="Helvetica,sans-Serif" font-size="10.00">T</text>
<text text-anchor="start" x="246" y="-975.75" font-family="Helvetica,sans-Serif" font-size="10.00"> </text>
<text text-anchor="start" x="246" y="-960.75" font-family="Helvetica,sans-Serif" font-size="10.00"> </text>
<polygon fill="#666666" stroke="#666666" points="239.5,-987.25 239.5,-987.25 255.5,-987.25 255.5,-987.25 239.5,-987.25"/>
<polygon fill="#666666" stroke="#666666" points="239.5,-972.25 239.5,-972.25 255.5,-972.25 255.5,-972.25 239.5,-972.25"/>
<polygon fill="none" stroke="#666666" points="239.5,-955.25 239.5,-1004.25 255.5,-1004.25 255.5,-955.25 239.5,-955.25"/>
</a>
</g>
</g>
<!-- Node7&#45;&gt;Node6 -->
<g id="edge6_Node000006_Node000007" class="edge">
<title>Node7&#45;&gt;Node6</title>
<g id="a_edge6_Node000006_Node000007"><a xlink:title=" ">
<path fill="none" stroke="#63b8ff" d="M240.33,-955.28C236.06,-940.32 230.91,-920.44 228,-902.5 223.49,-874.64 221.37,-842.74 220.38,-818.88"/>
<polygon fill="none" stroke="#63b8ff" points="220.37,-818.74 216.16,-812.89 219.94,-806.75 224.16,-812.6 220.37,-818.74"/>
</a>
</g>
<text text-anchor="middle" x="238.25" y="-874.12" font-family="Helvetica,sans-Serif" font-size="10.00" fill="grey"> +ptr</text>
</g>
<!-- Node10 -->
<g id="Node000010" class="node">
<title>Node10</title>
<g id="a_Node000010"><a xlink:title=" ">
<polygon fill="white" stroke="none" points="334,-902.5 257,-902.5 257,-853.5 334,-853.5 334,-902.5"/>
<text text-anchor="start" x="261.75" y="-889" font-family="Helvetica,sans-Serif" font-size="10.00">std::vector&lt; T &gt;</text>
<text text-anchor="start" x="294" y="-874" font-family="Helvetica,sans-Serif" font-size="10.00"> </text>
<text text-anchor="start" x="294" y="-859" font-family="Helvetica,sans-Serif" font-size="10.00"> </text>
<polygon fill="#666666" stroke="#666666" points="257,-885.5 257,-885.5 334,-885.5 334,-885.5 257,-885.5"/>
<polygon fill="#666666" stroke="#666666" points="257,-870.5 257,-870.5 334,-870.5 334,-870.5 257,-870.5"/>
<polygon fill="none" stroke="#666666" points="257,-853.5 257,-902.5 334,-902.5 334,-853.5 257,-853.5"/>
</a>
</g>
</g>
<!-- Node7&#45;&gt;Node10 -->
<g id="edge11_Node000010_Node000007" class="edge">
<title>Node7&#45;&gt;Node10</title>
<g id="a_edge11_Node000010_Node000007"><a xlink:title=" ">
<path fill="none" stroke="#63b8ff" d="M255.43,-962.28C261.77,-949.1 270.88,-930.16 278.82,-913.67"/>
<polygon fill="none" stroke="#63b8ff" points="278.74,-913.84 277.73,-906.7 283.94,-903.03 284.94,-910.17 278.74,-913.84"/>
</a>
</g>
<text text-anchor="middle" x="298.5" y="-922.25" font-family="Helvetica,sans-Serif" font-size="10.00" fill="grey"> +elements</text>
</g>
<!-- Node8&#45;&gt;Node1 -->
<g id="edge7_Node000001_Node000008" class="edge">
<title>Node8&#45;&gt;Node1</title>
<g id="a_edge7_Node000001_Node000008"><a xlink:title=" ">
<path fill="none" stroke="#63b8ff" d="M338.12,-520.57C334.95,-485.45 328.55,-424.52 318.5,-373 318.13,-371.12 317.76,-369.24 317.38,-367.35"/>
<polygon fill="none" stroke="#63b8ff" points="317.39,-367.39 312.25,-362.34 314.94,-355.65 320.08,-360.7 317.39,-367.39"/>
</a>
</g>
<text text-anchor="middle" x="365.25" y="-386" font-family="Helvetica,sans-Serif" font-size="10.00" fill="grey"> #input_var_names</text>
<text text-anchor="middle" x="365.25" y="-374.75" font-family="Helvetica,sans-Serif" font-size="10.00" fill="grey">#output_var_names</text>
</g>
<!-- Node9&#45;&gt;Node8 -->
<g id="edge8_Node000008_Node000009" class="edge">
<title>Node9&#45;&gt;Node8</title>
<g id="a_edge8_Node000008_Node000009"><a xlink:title=" ">
<path fill="none" stroke="#63b8ff" d="M355.78,-757.51C352.91,-718.9 347.14,-641.06 343.57,-592.9"/>
<polygon fill="none" stroke="#63b8ff" points="343.58,-593.02 339.15,-587.34 342.69,-581.06 347.12,-586.74 343.58,-593.02"/>
</a>
</g>
<text text-anchor="middle" x="364.25" y="-718.5" font-family="Helvetica,sans-Serif" font-size="10.00" fill="grey"> +ptr</text>
</g>
<!-- Node10&#45;&gt;Node9 -->
<g id="edge10_Node000009_Node000010" class="edge">
<title>Node10&#45;&gt;Node9</title>
<g id="a_edge10_Node000009_Node000010"><a xlink:title=" ">
<path fill="none" stroke="orange" d="M302.27,-842.99C304.4,-836.48 307.16,-829.93 310.75,-824.25 314.92,-817.64 320.44,-811.47 326.23,-806.01"/>
<polygon fill="orange" stroke="orange" points="298.99,-841.72 299.67,-852.29 305.73,-843.6 298.99,-841.72"/>
</a>
</g>
<text text-anchor="middle" x="341.88" y="-826" font-family="Helvetica,sans-Serif" font-size="10.00" fill="grey"> &lt; std::string &gt;</text>
</g>
</g>
</svg>

<g id="navigator" transform="translate(0 0)" fill="#404254">
  <rect fill="#f2f5e9" fill-opacity="0.5" stroke="#606060" stroke-width=".5" x="0" y="0" width="60" height="60"/>
  <use id="zoomplus" xlink:href="#zoomPlus" x="17" y="9" onmousedown="handleZoom(evt,'in')"/>
  <use id="zoomminus" xlink:href="#zoomMin" x="42" y="9" onmousedown="handleZoom(evt,'out')"/>
  <use id="reset" xlink:href="#resetDef" x="30" y="36" onmousedown="handleReset()"/>
   <use id="arrowup" xlink:href="#arrowUp" x="0" y="0" onmousedown="handlePan(0,-1)"/>
  <use id="arrowright" xlink:href="#arrowRight" x="0" y="0" onmousedown="handlePan(1,0)"/>
  <use id="arrowdown" xlink:href="#arrowDown" x="0" y="0" onmousedown="handlePan(0,1)"/>
  <use id="arrowleft" xlink:href="#arrowLeft" x="0" y="0" onmousedown="handlePan(-1,0)"/>
</g>
<svg viewBox="0 0 15 15" width="100%" height="30px" preserveAspectRatio="xMaxYMin meet">
 <g id="arrow_out" transform="scale(0.3 0.3)">
  <a xlink:href="classmodels_1_1bmi_1_1_bmi___adapter__coll__graph_org.svg" target="_base">
   <rect id="button" ry="5" rx="5" y="6" x="6" height="38" width="38"
        fill="#f2f5e9" fill-opacity="0.5" stroke="#606060" stroke-width="1.0"/>
   <path id="arrow"
     d="M 11.500037,31.436501 C 11.940474,20.09759 22.043105,11.32322 32.158766,21.979434 L 37.068811,17.246167 C 37.068811,17.246167 37.088388,32 37.088388,32 L 22.160133,31.978069 C 22.160133,31.978069 26.997745,27.140456 26.997745,27.140456 C 18.528582,18.264221 13.291696,25.230495 11.500037,31.436501 z"
     style="fill:#404040;"/>
  </a>
 </g>
</svg>

<style type='text/css'>
<![CDATA[
[data-mouse-over-selected='false'] { opacity: 0.7; }
[data-mouse-over-selected='true']  { opacity: 1.0; }
]]>
</style>
<script type="application/ecmascript"><![CDATA[
document.addEventListener('DOMContentLoaded', (event) => {
  highlightEdges();
  highlightAdjacentNodes();
});
]]></script>
</svg>
