<?xml version="1.0" encoding="UTF-8" standalone="no"?>
<!DOCTYPE svg PUBLIC "-//W3C//DTD SVG 1.1//EN"
 "http://www.w3.org/Graphics/SVG/1.1/DTD/svg11.dtd">
<!-- Generated by graphviz version 3.0.0 (20220413.0242)
 -->
<!-- Title: BMIDataSelector Pages: 1 -->
<svg width="163pt" height="548pt"
 viewBox="0.00 0.00 163.00 548.00" xmlns="http://www.w3.org/2000/svg" xmlns:xlink="http://www.w3.org/1999/xlink">
<g id="graph0" class="graph" transform="scale(1 1) rotate(0) translate(4 544)">
<title>BMIDataSelector</title>
<polygon fill="white" stroke="transparent" points="-4,4 -4,-544 159,-544 159,4 -4,4"/>
<!-- Node1 -->
<g id="node1" class="node">
<title>Node1</title>
<g id="a_node1"><a xlink:title=" ">
<polygon fill="#bfbfbf" stroke="black" points="9.5,-0.5 9.5,-79.5 145.5,-79.5 145.5,-0.5 9.5,-0.5"/>
<text text-anchor="middle" x="77.5" y="-67.5" font-family="Helvetica,sans-Serif" font-size="10.00">BMIDataSelector</text>
<polyline fill="none" stroke="black" points="9.5,-60.5 145.5,-60.5 "/>
<text text-anchor="middle" x="77.5" y="-48.5" font-family="Helvetica,sans-Serif" font-size="10.00"> </text>
<polyline fill="none" stroke="black" points="9.5,-41.5 145.5,-41.5 "/>
<text text-anchor="start" x="17.5" y="-29.5" font-family="Helvetica,sans-Serif" font-size="10.00">+ BMIDataSelector()</text>
<text text-anchor="start" x="17.5" y="-18.5" font-family="Helvetica,sans-Serif" font-size="10.00">+ operator const Catchment</text>
<text text-anchor="start" x="17.5" y="-7.5" font-family="Helvetica,sans-Serif" font-size="10.00">AggrDataSelector &amp;()</text>
</a>
</g>
</g>
<!-- Node2 -->
<g id="node2" class="node">
<title>Node2</title>
<g id="a_node2"><a xlink:href="class_catchment_aggr_data_selector.html" target="_top" xlink:title="This class is intended to be the virtual base for all data selectors used with the DataProvider API.">
<polygon fill="white" stroke="black" points="0,-117.5 0,-306.5 155,-306.5 155,-117.5 0,-117.5"/>
<text text-anchor="middle" x="77.5" y="-294.5" font-family="Helvetica,sans-Serif" font-size="10.00">CatchmentAggrDataSelector</text>
<polyline fill="none" stroke="black" points="0,-287.5 155,-287.5 "/>
<text text-anchor="start" x="8" y="-275.5" font-family="Helvetica,sans-Serif" font-size="10.00">&#45; init_time</text>
<text text-anchor="start" x="8" y="-264.5" font-family="Helvetica,sans-Serif" font-size="10.00">&#45; duration_s</text>
<polyline fill="none" stroke="black" points="0,-257.5 155,-257.5 "/>
<text text-anchor="start" x="8" y="-245.5" font-family="Helvetica,sans-Serif" font-size="10.00">+ CatchmentAggrDataSelector()</text>
<text text-anchor="start" x="8" y="-234.5" font-family="Helvetica,sans-Serif" font-size="10.00">+ CatchmentAggrDataSelector()</text>
<text text-anchor="start" x="8" y="-223.5" font-family="Helvetica,sans-Serif" font-size="10.00">+ get_variable_name()</text>
<text text-anchor="start" x="8" y="-212.5" font-family="Helvetica,sans-Serif" font-size="10.00">+ get_init_time()</text>
<text text-anchor="start" x="8" y="-201.5" font-family="Helvetica,sans-Serif" font-size="10.00">+ get_duration_secs()</text>
<text text-anchor="start" x="8" y="-190.5" font-family="Helvetica,sans-Serif" font-size="10.00">+ get_output_units()</text>
<text text-anchor="start" x="8" y="-179.5" font-family="Helvetica,sans-Serif" font-size="10.00">+ set_variable_name()</text>
<text text-anchor="start" x="8" y="-168.5" font-family="Helvetica,sans-Serif" font-size="10.00">+ set_init_time()</text>
<text text-anchor="start" x="8" y="-157.5" font-family="Helvetica,sans-Serif" font-size="10.00">+ set_duration_secs()</text>
<text text-anchor="start" x="8" y="-146.5" font-family="Helvetica,sans-Serif" font-size="10.00">+ set_output_units()</text>
<text text-anchor="start" x="8" y="-135.5" font-family="Helvetica,sans-Serif" font-size="10.00">+ get_id()</text>
<text text-anchor="start" x="8" y="-124.5" font-family="Helvetica,sans-Serif" font-size="10.00">+ set_id()</text>
</a>
</g>
</g>
<!-- Node2&#45;&gt;Node1 -->
<g id="edge1" class="edge">
<title>Node2&#45;&gt;Node1</title>
<path fill="none" stroke="midnightblue" d="M77.5,-106.91C77.5,-97.29 77.5,-88 77.5,-79.6"/>
<polygon fill="none" stroke="midnightblue" points="74,-107.05 77.5,-117.05 81,-107.05 74,-107.05"/>
</g>
<!-- Node3 -->
<g id="node3" class="node">
<title>Node3</title>
<g id="a_node3"><a xlink:title=" ">
<polygon fill="white" stroke="black" points="48,-376.5 48,-433.5 107,-433.5 107,-376.5 48,-376.5"/>
<text text-anchor="middle" x="77.5" y="-421.5" font-family="Helvetica,sans-Serif" font-size="10.00">std::string</text>
<polyline fill="none" stroke="black" points="48,-414.5 107,-414.5 "/>
<text text-anchor="middle" x="77.5" y="-402.5" font-family="Helvetica,sans-Serif" font-size="10.00"> </text>
<polyline fill="none" stroke="black" points="48,-395.5 107,-395.5 "/>
<text text-anchor="middle" x="77.5" y="-383.5" font-family="Helvetica,sans-Serif" font-size="10.00"> </text>
</a>
</g>
</g>
<!-- Node3&#45;&gt;Node2 -->
<g id="edge2" class="edge">
<title>Node3&#45;&gt;Node2</title>
<path fill="none" stroke="#404040" d="M77.5,-376.23C77.5,-360.67 77.5,-340.18 77.5,-318.99"/>
<polygon fill="none" stroke="#404040" points="77.5,-318.82 73.5,-312.82 77.5,-306.82 81.5,-312.82 77.5,-318.82"/>
<text text-anchor="middle" x="111" y="-350" font-family="Helvetica,sans-Serif" font-size="10.00"> &#45;id_str</text>
<text text-anchor="middle" x="111" y="-339" font-family="Helvetica,sans-Serif" font-size="10.00">&#45;output_units</text>
<text text-anchor="middle" x="111" y="-328" font-family="Helvetica,sans-Serif" font-size="10.00">&#45;variable_name</text>
</g>
<!-- Node4 -->
<g id="node4" class="node">
<title>Node4</title>
<g id="a_node4"><a xlink:title=" ">
<polygon fill="white" stroke="black" points="31,-471.5 31,-539.5 124,-539.5 124,-471.5 31,-471.5"/>
<text text-anchor="start" x="39" y="-527.5" font-family="Helvetica,sans-Serif" font-size="10.00">std::basic_string&lt;</text>
<text text-anchor="middle" x="77.5" y="-516.5" font-family="Helvetica,sans-Serif" font-size="10.00"> Char &gt;</text>
<polyline fill="none" stroke="black" points="31,-509.5 124,-509.5 "/>
<text text-anchor="middle" x="77.5" y="-497.5" font-family="Helvetica,sans-Serif" font-size="10.00"> </text>
<polyline fill="none" stroke="black" points="31,-490.5 124,-490.5 "/>
<text text-anchor="middle" x="77.5" y="-478.5" font-family="Helvetica,sans-Serif" font-size="10.00"> </text>
</a>
</g>
</g>
<!-- Node4&#45;&gt;Node3 -->
<g id="edge3" class="edge">
<title>Node4&#45;&gt;Node3</title>
<path fill="none" stroke="midnightblue" d="M77.5,-461.38C77.5,-451.94 77.5,-442.2 77.5,-433.57"/>
<polygon fill="none" stroke="midnightblue" points="74,-461.43 77.5,-471.43 81,-461.43 74,-461.43"/>
</g>
</g>
</svg>
