<?xml version="1.0" encoding="UTF-8" standalone="no"?>
<!DOCTYPE svg PUBLIC "-//W3C//DTD SVG 1.1//EN"
 "http://www.w3.org/Graphics/SVG/1.1/DTD/svg11.dtd">
<!-- Generated by graphviz version 2.49.3 (20211027.1534)
 -->
<!-- Title: hy_features::HY_Features Pages: 1 -->
<!--zoomable 838 -->
<svg id="main" version="1.1" xmlns="http://www.w3.org/2000/svg" xmlns:xlink="http://www.w3.org/1999/xlink" xml:space="preserve" onload="init(evt)">
<style type="text/css"><![CDATA[
.edge:hover path { stroke: red; }
.edge:hover polygon { stroke: red; fill: red; }
]]></style>
<script type="text/javascript"><![CDATA[
var edges = document.getElementsByTagName('g');
if (edges && edges.length) {
  for (var i=0;i<edges.length;i++) {
    if (edges[i].id.substr(0,4)=='edge') {
      edges[i].setAttribute('class','edge');
    }
  }
}
]]></script>
        <defs>
                <circle id="rim" cx="0" cy="0" r="7"/>
                <circle id="rim2" cx="0" cy="0" r="3.5"/>
                <g id="zoomPlus">
                        <use xlink:href="#rim" fill="#404040">
                                <set attributeName="fill" to="#808080" begin="zoomplus.mouseover" end="zoomplus.mouseout"/>
                        </use>
                        <path d="M-4,0h8M0,-4v8" fill="none" stroke="white" stroke-width="1.5" pointer-events="none"/>
                </g>
                <g id="zoomMin">
                        <use xlink:href="#rim" fill="#404040">
                                <set attributeName="fill" to="#808080" begin="zoomminus.mouseover" end="zoomminus.mouseout"/>
                        </use>
                        <path d="M-4,0h8" fill="none" stroke="white" stroke-width="1.5" pointer-events="none"/>
                </g>
                <g id="dirArrow">
                        <path fill="none" stroke="white" stroke-width="1.5" d="M0,-3.0v7 M-2.5,-0.5L0,-3.0L2.5,-0.5"/>
                </g>
               <g id="resetDef">
                       <use xlink:href="#rim2" fill="#404040">
                               <set attributeName="fill" to="#808080" begin="reset.mouseover" end="reset.mouseout"/>
                       </use>
               </g>
        </defs>

<script type="text/javascript">
var viewWidth = 197;
var viewHeight = 838;
var sectionId = 'dynsection-0';
</script>
<script xlink:href="svgpan.js"/>
<svg id="graph" class="graph">
<g id="viewport">
<title>hy_features::HY_Features</title>
<polygon fill="white" stroke="transparent" points="-4,4 -4,-834 192.5,-834 192.5,4 -4,4"/>
<!-- Node1 -->
<g id="node1" class="node">
<title>Node1</title>
<g id="a_node1"><a xlink:title="Collection interface to HY_Features objects and their associated model formulations.">
<polygon fill="#bfbfbf" stroke="black" points="0,-0.5 0,-189.5 129,-189.5 129,-0.5 0,-0.5"/>
<text text-anchor="middle" x="64.5" y="-177.5" font-family="Helvetica,sans-Serif" font-size="10.00">hy_features::HY_Features</text>
<polyline fill="none" stroke="black" points="0,-170.5 129,-170.5 "/>
<text text-anchor="start" x="8" y="-158.5" font-family="Helvetica,sans-Serif" font-size="10.00">&#45; _catchments</text>
<text text-anchor="start" x="8" y="-147.5" font-family="Helvetica,sans-Serif" font-size="10.00">&#45; _nexuses</text>
<text text-anchor="start" x="8" y="-136.5" font-family="Helvetica,sans-Serif" font-size="10.00">&#45; formulations</text>
<polyline fill="none" stroke="black" points="0,-129.5 129,-129.5 "/>
<text text-anchor="start" x="8" y="-117.5" font-family="Helvetica,sans-Serif" font-size="10.00">+ HY_Features()</text>
<text text-anchor="start" x="8" y="-106.5" font-family="Helvetica,sans-Serif" font-size="10.00">+ HY_Features()</text>
<text text-anchor="start" x="8" y="-95.5" font-family="Helvetica,sans-Serif" font-size="10.00">+ HY_Features()</text>
<text text-anchor="start" x="8" y="-84.5" font-family="Helvetica,sans-Serif" font-size="10.00">+ HY_Features()</text>
<text text-anchor="start" x="8" y="-73.5" font-family="Helvetica,sans-Serif" font-size="10.00">+ catchment_at()</text>
<text text-anchor="start" x="8" y="-62.5" font-family="Helvetica,sans-Serif" font-size="10.00">+ nexus_at()</text>
<text text-anchor="start" x="8" y="-51.5" font-family="Helvetica,sans-Serif" font-size="10.00">+ catchments()</text>
<text text-anchor="start" x="8" y="-40.5" font-family="Helvetica,sans-Serif" font-size="10.00">+ nexuses()</text>
<text text-anchor="start" x="8" y="-29.5" font-family="Helvetica,sans-Serif" font-size="10.00">+ destination_nexuses()</text>
<text text-anchor="start" x="8" y="-18.5" font-family="Helvetica,sans-Serif" font-size="10.00">+ validate_dendridic()</text>
<text text-anchor="start" x="8" y="-7.5" font-family="Helvetica,sans-Serif" font-size="10.00">+ ~HY_Features()</text>
</a>
</g>
</g>
<!-- Node2 -->
<g id="node2" class="node">
<title>Node2</title>
<g id="a_node2"><a xlink:href="classnetwork_1_1_network.html" target="_top" xlink:title="A lightweight, graph based index of hydrologic features.">
<polygon fill="white" stroke="black" points="7,-237.5 7,-470.5 122,-470.5 122,-237.5 7,-237.5"/>
<text text-anchor="middle" x="64.5" y="-458.5" font-family="Helvetica,sans-Serif" font-size="10.00">network::Network</text>
<polyline fill="none" stroke="black" points="7,-451.5 122,-451.5 "/>
<text text-anchor="start" x="15" y="-439.5" font-family="Helvetica,sans-Serif" font-size="10.00">&#45; graph</text>
<text text-anchor="start" x="15" y="-428.5" font-family="Helvetica,sans-Serif" font-size="10.00">&#45; descriptor_map</text>
<polyline fill="none" stroke="black" points="7,-421.5 122,-421.5 "/>
<text text-anchor="start" x="15" y="-409.5" font-family="Helvetica,sans-Serif" font-size="10.00">+ Network()</text>
<text text-anchor="start" x="15" y="-398.5" font-family="Helvetica,sans-Serif" font-size="10.00">+ Network()</text>
<text text-anchor="start" x="15" y="-387.5" font-family="Helvetica,sans-Serif" font-size="10.00">+ Network()</text>
<text text-anchor="start" x="15" y="-376.5" font-family="Helvetica,sans-Serif" font-size="10.00">+ ~Network()</text>
<text text-anchor="start" x="15" y="-365.5" font-family="Helvetica,sans-Serif" font-size="10.00">+ begin()</text>
<text text-anchor="start" x="15" y="-354.5" font-family="Helvetica,sans-Serif" font-size="10.00">+ end()</text>
<text text-anchor="start" x="15" y="-343.5" font-family="Helvetica,sans-Serif" font-size="10.00">+ filter()</text>
<text text-anchor="start" x="15" y="-332.5" font-family="Helvetica,sans-Serif" font-size="10.00">+ get_id()</text>
<text text-anchor="start" x="15" y="-321.5" font-family="Helvetica,sans-Serif" font-size="10.00">+ get_origination_ids()</text>
<text text-anchor="start" x="15" y="-310.5" font-family="Helvetica,sans-Serif" font-size="10.00">+ get_destination_ids()</text>
<text text-anchor="start" x="15" y="-299.5" font-family="Helvetica,sans-Serif" font-size="10.00">+ size()</text>
<text text-anchor="start" x="15" y="-288.5" font-family="Helvetica,sans-Serif" font-size="10.00">+ headwaters()</text>
<text text-anchor="start" x="15" y="-277.5" font-family="Helvetica,sans-Serif" font-size="10.00">+ tailwaters()</text>
<text text-anchor="start" x="15" y="-266.5" font-family="Helvetica,sans-Serif" font-size="10.00">+ print_network()</text>
<text text-anchor="start" x="15" y="-255.5" font-family="Helvetica,sans-Serif" font-size="10.00">&#45; init_indicies()</text>
<text text-anchor="start" x="15" y="-244.5" font-family="Helvetica,sans-Serif" font-size="10.00">&#45; get_sorted_index()</text>
</a>
</g>
</g>
<!-- Node2&#45;&gt;Node1 -->
<g id="edge1" class="edge">
<title>Node2&#45;&gt;Node1</title>
<path fill="none" stroke="#404040" d="M64.5,-237.28C64.5,-225.42 64.5,-213.4 64.5,-201.65"/>
<polygon fill="none" stroke="#404040" points="64.5,-201.52 60.5,-195.52 64.5,-189.52 68.5,-195.52 64.5,-201.52"/>
<text text-anchor="middle" x="84.5" y="-211" font-family="Helvetica,sans-Serif" font-size="10.00"> &#45;network</text>
</g>
<!-- Node3 -->
<g id="node3" class="node">
<title>Node3</title>
<g id="a_node3"><a xlink:title=" ">
<polygon fill="white" stroke="#bfbfbf" points="12.5,-551.5 12.5,-619.5 116.5,-619.5 116.5,-551.5 12.5,-551.5"/>
<text text-anchor="start" x="20.5" y="-607.5" font-family="Helvetica,sans-Serif" font-size="10.00">std::vector&lt; Graph</text>
<text text-anchor="middle" x="64.5" y="-596.5" font-family="Helvetica,sans-Serif" font-size="10.00">::vertex_descriptor &gt;</text>
<polyline fill="none" stroke="#bfbfbf" points="12.5,-589.5 116.5,-589.5 "/>
<text text-anchor="start" x="20.5" y="-577.5" font-family="Helvetica,sans-Serif" font-size="10.00">+ elements</text>
<polyline fill="none" stroke="#bfbfbf" points="12.5,-570.5 116.5,-570.5 "/>
<text text-anchor="middle" x="64.5" y="-558.5" font-family="Helvetica,sans-Serif" font-size="10.00"> </text>
</a>
</g>
</g>
<!-- Node3&#45;&gt;Node2 -->
<g id="edge2" class="edge">
<title>Node3&#45;&gt;Node2</title>
<path fill="none" stroke="#404040" d="M64.5,-551.13C64.5,-532.51 64.5,-508 64.5,-482.64"/>
<polygon fill="none" stroke="#404040" points="64.5,-482.54 60.5,-476.54 64.5,-470.54 68.5,-476.54 64.5,-482.54"/>
<text text-anchor="middle" x="101" y="-525" font-family="Helvetica,sans-Serif" font-size="10.00"> &#45;headwaters_idx</text>
<text text-anchor="middle" x="101" y="-514" font-family="Helvetica,sans-Serif" font-size="10.00">&#45;tailwaters_idx</text>
<text text-anchor="middle" x="101" y="-503" font-family="Helvetica,sans-Serif" font-size="10.00">&#45;tdfp_order</text>
<text text-anchor="middle" x="101" y="-492" font-family="Helvetica,sans-Serif" font-size="10.00">&#45;topo_order</text>
</g>
<!-- Node4 -->
<g id="node4" class="node">
<title>Node4</title>
<g id="a_node4"><a xlink:title=" ">
<polygon fill="white" stroke="#bfbfbf" points="22.5,-667.5 22.5,-724.5 106.5,-724.5 106.5,-667.5 22.5,-667.5"/>
<text text-anchor="middle" x="64.5" y="-712.5" font-family="Helvetica,sans-Serif" font-size="10.00">std::vector&lt; T &gt;</text>
<polyline fill="none" stroke="#bfbfbf" points="22.5,-705.5 106.5,-705.5 "/>
<text text-anchor="middle" x="64.5" y="-693.5" font-family="Helvetica,sans-Serif" font-size="10.00"> </text>
<polyline fill="none" stroke="#bfbfbf" points="22.5,-686.5 106.5,-686.5 "/>
<text text-anchor="middle" x="64.5" y="-674.5" font-family="Helvetica,sans-Serif" font-size="10.00"> </text>
</a>
</g>
</g>
<!-- Node4&#45;&gt;Node3 -->
<g id="edge3" class="edge">
<title>Node4&#45;&gt;Node3</title>
<path fill="none" stroke="orange" d="M64.5,-656.99C64.5,-644.77 64.5,-631.35 64.5,-619.52"/>
<polygon fill="orange" stroke="orange" points="61,-657.34 64.5,-667.34 68,-657.34 61,-657.34"/>
<text text-anchor="middle" x="126.5" y="-641" font-family="Helvetica,sans-Serif" font-size="10.00"> &lt; Graph::vertex_descriptor &gt;</text>
</g>
<!-- Node5 -->
<g id="node5" class="node">
<title>Node5</title>
<g id="a_node5"><a xlink:title=" ">
<polygon fill="white" stroke="#bfbfbf" points="50,-772.5 50,-829.5 79,-829.5 79,-772.5 50,-772.5"/>
<text text-anchor="middle" x="64.5" y="-817.5" font-family="Helvetica,sans-Serif" font-size="10.00">T</text>
<polyline fill="none" stroke="#bfbfbf" points="50,-810.5 79,-810.5 "/>
<text text-anchor="middle" x="64.5" y="-798.5" font-family="Helvetica,sans-Serif" font-size="10.00"> </text>
<polyline fill="none" stroke="#bfbfbf" points="50,-791.5 79,-791.5 "/>
<text text-anchor="middle" x="64.5" y="-779.5" font-family="Helvetica,sans-Serif" font-size="10.00"> </text>
</a>
</g>
</g>
<!-- Node5&#45;&gt;Node4 -->
<g id="edge4" class="edge">
<title>Node5&#45;&gt;Node4</title>
<path fill="none" stroke="#404040" d="M64.5,-772.4C64.5,-761.55 64.5,-748.87 64.5,-737.05"/>
<polygon fill="none" stroke="#404040" points="64.5,-736.68 60.5,-730.68 64.5,-724.68 68.5,-730.68 64.5,-736.68"/>
<text text-anchor="middle" x="89" y="-746" font-family="Helvetica,sans-Serif" font-size="10.00"> +elements</text>
</g>
</g>
</svg>
        <g id="navigator" transform="translate(0 0)" fill="#404254">
                <rect fill="#f2f5e9" fill-opacity="0.5" stroke="#606060" stroke-width=".5" x="0" y="0" width="60" height="60"/>
                <use id="zoomplus" xlink:href="#zoomPlus" x="17" y="9" onmousedown="handleZoom(evt,'in')"/>
                <use id="zoomminus" xlink:href="#zoomMin" x="42" y="9" onmousedown="handleZoom(evt,'out')"/>
                <use id="reset" xlink:href="#resetDef" x="30" y="36" onmousedown="handleReset()"/>
                <g id="arrowUp" xlink:href="#dirArrow" transform="translate(30 24)" onmousedown="handlePan(0,-1)">
                  <use xlink:href="#rim" fill="#404040">
                        <set attributeName="fill" to="#808080" begin="arrowUp.mouseover" end="arrowUp.mouseout"/>
                  </use>
                  <path fill="none" stroke="white" stroke-width="1.5" d="M0,-3.0v7 M-2.5,-0.5L0,-3.0L2.5,-0.5"/>
                </g>
                <g id="arrowRight" xlink:href="#dirArrow" transform="rotate(90) translate(36 -43)" onmousedown="handlePan(1,0)">
                  <use xlink:href="#rim" fill="#404040">
                        <set attributeName="fill" to="#808080" begin="arrowRight.mouseover" end="arrowRight.mouseout"/>
                  </use>
                  <path fill="none" stroke="white" stroke-width="1.5" d="M0,-3.0v7 M-2.5,-0.5L0,-3.0L2.5,-0.5"/>
                </g>
                <g id="arrowDown" xlink:href="#dirArrow" transform="rotate(180) translate(-30 -48)" onmousedown="handlePan(0,1)">
                  <use xlink:href="#rim" fill="#404040">
                        <set attributeName="fill" to="#808080" begin="arrowDown.mouseover" end="arrowDown.mouseout"/>
                  </use>
                  <path fill="none" stroke="white" stroke-width="1.5" d="M0,-3.0v7 M-2.5,-0.5L0,-3.0L2.5,-0.5"/>
                </g>
                <g id="arrowLeft" xlink:href="#dirArrow" transform="rotate(270) translate(-36 17)" onmousedown="handlePan(-1,0)">
                  <use xlink:href="#rim" fill="#404040">
                        <set attributeName="fill" to="#808080" begin="arrowLeft.mouseover" end="arrowLeft.mouseout"/>
                  </use>
                  <path fill="none" stroke="white" stroke-width="1.5" d="M0,-3.0v7 M-2.5,-0.5L0,-3.0L2.5,-0.5"/>
                </g>
        </g>
        <svg viewBox="0 0 15 15" width="100%" height="30px" preserveAspectRatio="xMaxYMin meet">
         <g id="arrow_out" transform="scale(0.3 0.3)">
          <a xlink:href="classhy__features_1_1_h_y___features__coll__graph_org.svg" target="_base">
           <rect id="button" ry="5" rx="5" y="6" x="6" height="38" width="38"
                fill="#f2f5e9" fill-opacity="0.5" stroke="#606060" stroke-width="1.0"/>
           <path id="arrow"
             d="M 11.500037,31.436501 C 11.940474,20.09759 22.043105,11.32322 32.158766,21.979434 L 37.068811,17.246167 C 37.068811,17.246167 37.088388,32 37.088388,32 L 22.160133,31.978069 C 22.160133,31.978069 26.997745,27.140456 26.997745,27.140456 C 18.528582,18.264221 13.291696,25.230495 11.500037,31.436501 z"
             style="fill:#404040;"/>
          </a>
         </g>
        </svg>
</svg>
