<?xml version="1.0" encoding="UTF-8" standalone="no"?>
<!DOCTYPE svg PUBLIC "-//W3C//DTD SVG 1.1//EN"
 "http://www.w3.org/Graphics/SVG/1.1/DTD/svg11.dtd">
<!-- Generated by graphviz version 12.2.0 (20241103.1931)
 -->
<!-- Title: UnitsHelper Pages: 1 -->
<svg width="377pt" height="552pt"
 viewBox="0.00 0.00 377.16 551.75" xmlns="http://www.w3.org/2000/svg" xmlns:xlink="http://www.w3.org/1999/xlink">
<g id="graph0" class="graph" transform="scale(1 1) rotate(0) translate(4 547.75)">
<title>UnitsHelper</title>
<!-- Node1 -->
<g id="Node000001" class="node">
<title>Node1</title>
<g id="a_Node000001"><a xlink:title=" ">
<polygon fill="#999999" stroke="none" points="253.25,-110.75 139.25,-110.75 139.25,0 253.25,0 253.25,-110.75"/>
<text text-anchor="start" x="170.38" y="-97.25" font-family="Helvetica,sans-Serif" font-size="10.00">UnitsHelper</text>
<text text-anchor="start" x="144.75" y="-82" font-family="Helvetica,sans-Serif" font-size="10.00">&#45;</text>
<text text-anchor="start" x="153.25" y="-82" font-family="Helvetica,sans-Serif" font-size="10.00">unit_system</text>
<text text-anchor="start" x="144.75" y="-66.75" font-family="Helvetica,sans-Serif" font-size="10.00">&#45;</text>
<text text-anchor="start" x="153.25" y="-66.75" font-family="Helvetica,sans-Serif" font-size="10.00">unit_system_inited</text>
<text text-anchor="start" x="143.25" y="-51.5" font-family="Helvetica,sans-Serif" font-size="10.00">+</text>
<text text-anchor="start" x="153.25" y="-51.5" font-family="Helvetica,sans-Serif" font-size="10.00">get_converted_value()</text>
<text text-anchor="start" x="143.25" y="-36.25" font-family="Helvetica,sans-Serif" font-size="10.00">+</text>
<text text-anchor="start" x="153.25" y="-36.25" font-family="Helvetica,sans-Serif" font-size="10.00">convert_values()</text>
<text text-anchor="start" x="144.75" y="-21" font-family="Helvetica,sans-Serif" font-size="10.00">&#45;</text>
<text text-anchor="start" x="153.25" y="-21" font-family="Helvetica,sans-Serif" font-size="10.00">init_unit_system()</text>
<text text-anchor="start" x="144.75" y="-5.75" font-family="Helvetica,sans-Serif" font-size="10.00">&#45;</text>
<text text-anchor="start" x="153.25" y="-5.75" font-family="Helvetica,sans-Serif" font-size="10.00">get_converter()</text>
<polygon fill="#666666" stroke="#666666" points="139.25,-93.5 139.25,-93.5 253.25,-93.5 253.25,-93.5 139.25,-93.5"/>
<polygon fill="#666666" stroke="#666666" points="139.25,-63 139.25,-63 151.25,-63 151.25,-63 139.25,-63"/>
<polygon fill="#666666" stroke="#666666" points="151.25,-63 151.25,-63 253.25,-63 253.25,-63 151.25,-63"/>
<polygon fill="none" stroke="#666666" points="139.25,0 139.25,-110.75 253.25,-110.75 253.25,0 139.25,0"/>
</a>
</g>
</g>
<!-- Node2 -->
<g id="Node000002" class="node">
<title>Node2</title>
<g id="a_Node000002"><a xlink:title=" ">
<polygon fill="white" stroke="none" points="198.25,-230.25 100.25,-230.25 100.25,-158 198.25,-158 198.25,-230.25"/>
<text text-anchor="start" x="104.25" y="-216.75" font-family="Helvetica,sans-Serif" font-size="10.00">std::map&lt; std::string,</text>
<text text-anchor="start" x="104.25" y="-205.5" font-family="Helvetica,sans-Serif" font-size="10.00"> std::shared_ptr&lt; cv</text>
<text text-anchor="start" x="118.12" y="-194.25" font-family="Helvetica,sans-Serif" font-size="10.00">_converter &gt; &gt;</text>
<text text-anchor="start" x="147.75" y="-179" font-family="Helvetica,sans-Serif" font-size="10.00"> </text>
<text text-anchor="start" x="147.75" y="-163.75" font-family="Helvetica,sans-Serif" font-size="10.00"> </text>
<polygon fill="#666666" stroke="#666666" points="100.25,-190.5 100.25,-190.5 198.25,-190.5 198.25,-190.5 100.25,-190.5"/>
<polygon fill="#666666" stroke="#666666" points="100.25,-175.25 100.25,-175.25 198.25,-175.25 198.25,-175.25 100.25,-175.25"/>
<polygon fill="none" stroke="#666666" points="100.25,-158 100.25,-230.25 198.25,-230.25 198.25,-158 100.25,-158"/>
</a>
</g>
</g>
<!-- Node2&#45;&gt;Node1 -->
<g id="edge1_Node000001_Node000002" class="edge">
<title>Node2&#45;&gt;Node1</title>
<g id="a_edge1_Node000001_Node000002"><a xlink:title=" ">
<path fill="none" stroke="#63b8ff" d="M156.87,-158.08C159.25,-148.48 162.1,-138.14 165.25,-128.75 165.94,-126.7 166.66,-124.63 167.41,-122.54"/>
<polygon fill="none" stroke="#63b8ff" points="167.38,-122.62 165.76,-115.59 171.62,-111.39 173.24,-118.42 167.38,-122.62"/>
</a>
</g>
<text text-anchor="middle" x="190.75" y="-130.5" font-family="Helvetica,sans-Serif" font-size="10.00" fill="grey"> &#45;converters</text>
</g>
<!-- Node3 -->
<g id="Node000003" class="node">
<title>Node3</title>
<g id="a_Node000003"><a xlink:title=" ">
<polygon fill="white" stroke="none" points="77.25,-332.88 27.25,-332.88 27.25,-283.12 77.25,-283.12 77.25,-332.88"/>
<text text-anchor="start" x="31.25" y="-319.38" font-family="Helvetica,sans-Serif" font-size="10.00">std::string</text>
<text text-anchor="start" x="50.75" y="-304.12" font-family="Helvetica,sans-Serif" font-size="10.00"> </text>
<text text-anchor="start" x="50.75" y="-288.88" font-family="Helvetica,sans-Serif" font-size="10.00"> </text>
<polygon fill="#666666" stroke="#666666" points="27.25,-315.62 27.25,-315.62 77.25,-315.62 77.25,-315.62 27.25,-315.62"/>
<polygon fill="#666666" stroke="#666666" points="27.25,-300.38 27.25,-300.38 77.25,-300.38 77.25,-300.38 27.25,-300.38"/>
<polygon fill="none" stroke="#666666" points="27.25,-283.12 27.25,-332.88 77.25,-332.88 77.25,-283.12 27.25,-283.12"/>
</a>
</g>
</g>
<!-- Node3&#45;&gt;Node2 -->
<g id="edge2_Node000002_Node000003" class="edge">
<title>Node3&#45;&gt;Node2</title>
<g id="a_edge2_Node000002_Node000003"><a xlink:title=" ">
<path fill="none" stroke="#63b8ff" d="M72.82,-283.27C83.86,-270.54 97.83,-254.43 110.8,-239.48"/>
<polygon fill="none" stroke="#63b8ff" points="110.68,-239.61 111.59,-232.46 118.54,-230.54 117.63,-237.7 110.68,-239.61"/>
</a>
</g>
<text text-anchor="middle" x="115" y="-250" font-family="Helvetica,sans-Serif" font-size="10.00" fill="grey"> +keys</text>
</g>
<!-- Node4 -->
<g id="Node000004" class="node">
<title>Node4</title>
<g id="a_Node000004"><a xlink:title=" ">
<polygon fill="white" stroke="none" points="84.5,-446.75 0,-446.75 0,-385.75 84.5,-385.75 84.5,-446.75"/>
<text text-anchor="start" x="4" y="-433.25" font-family="Helvetica,sans-Serif" font-size="10.00">std::basic_string&lt;</text>
<text text-anchor="start" x="26.88" y="-422" font-family="Helvetica,sans-Serif" font-size="10.00"> Char &gt;</text>
<text text-anchor="start" x="40.75" y="-406.75" font-family="Helvetica,sans-Serif" font-size="10.00"> </text>
<text text-anchor="start" x="40.75" y="-391.5" font-family="Helvetica,sans-Serif" font-size="10.00"> </text>
<polygon fill="#666666" stroke="#666666" points="0,-418.25 0,-418.25 84.5,-418.25 84.5,-418.25 0,-418.25"/>
<polygon fill="#666666" stroke="#666666" points="0,-403 0,-403 84.5,-403 84.5,-403 0,-403"/>
<polygon fill="none" stroke="#666666" points="0,-385.75 0,-446.75 84.5,-446.75 84.5,-385.75 0,-385.75"/>
</a>
</g>
</g>
<!-- Node4&#45;&gt;Node3 -->
<g id="edge3_Node000003_Node000004" class="edge">
<title>Node4&#45;&gt;Node3</title>
<g id="a_edge3_Node000003_Node000004"><a xlink:title=" ">
<path fill="none" stroke="#63b8ff" d="M46.09,-374.5C47.41,-360.42 48.85,-345.12 50.01,-332.85"/>
<polygon fill="none" stroke="#63b8ff" points="42.6,-374.14 45.15,-384.43 49.57,-374.8 42.6,-374.14"/>
</a>
</g>
</g>
<!-- Node5 -->
<g id="Node000005" class="node">
<title>Node5</title>
<g id="a_Node000005"><a xlink:title=" ">
<polygon fill="white" stroke="none" points="194.5,-338.5 104,-338.5 104,-277.5 194.5,-277.5 194.5,-338.5"/>
<text text-anchor="start" x="108" y="-325" font-family="Helvetica,sans-Serif" font-size="10.00">std::shared_ptr&lt; cv</text>
<text text-anchor="start" x="122.25" y="-313.75" font-family="Helvetica,sans-Serif" font-size="10.00">_converter &gt;</text>
<text text-anchor="start" x="113.56" y="-298.5" font-family="Helvetica,sans-Serif" font-size="10.00">+</text>
<text text-anchor="start" x="129.12" y="-298.5" font-family="Helvetica,sans-Serif" font-size="10.00">ptr</text>
<text text-anchor="start" x="113.56" y="-283.25" font-family="Helvetica,sans-Serif" font-size="10.00">+</text>
<text text-anchor="start" x="129.12" y="-283.25" font-family="Helvetica,sans-Serif" font-size="10.00">operator&#45;&gt;()</text>
<polygon fill="#666666" stroke="#666666" points="104,-310 104,-310 194.5,-310 194.5,-310 104,-310"/>
<polygon fill="#666666" stroke="#666666" points="104,-294.75 104,-294.75 127.12,-294.75 127.12,-294.75 104,-294.75"/>
<polygon fill="#666666" stroke="#666666" points="127.12,-294.75 127.12,-294.75 194.5,-294.75 194.5,-294.75 127.12,-294.75"/>
<polygon fill="none" stroke="#666666" points="104,-277.5 104,-338.5 194.5,-338.5 194.5,-277.5 104,-277.5"/>
</a>
</g>
</g>
<!-- Node5&#45;&gt;Node2 -->
<g id="edge4_Node000002_Node000005" class="edge">
<title>Node5&#45;&gt;Node2</title>
<g id="a_edge4_Node000002_Node000005"><a xlink:title=" ">
<path fill="none" stroke="#63b8ff" d="M149.25,-277.61C149.25,-266.98 149.25,-254.68 149.25,-242.88"/>
<polygon fill="none" stroke="#63b8ff" points="149.25,-242.79 145.25,-236.79 149.25,-230.79 153.25,-236.79 149.25,-242.79"/>
</a>
</g>
<text text-anchor="middle" x="173.25" y="-250" font-family="Helvetica,sans-Serif" font-size="10.00" fill="grey"> +elements</text>
</g>
<!-- Node6 -->
<g id="Node000006" class="node">
<title>Node6</title>
<g id="a_Node000006"><a xlink:title=" ">
<polygon fill="white" stroke="none" points="196.38,-441.12 102.12,-441.12 102.12,-391.38 196.38,-391.38 196.38,-441.12"/>
<text text-anchor="start" x="106.12" y="-427.62" font-family="Helvetica,sans-Serif" font-size="10.00">std::shared_ptr&lt; T &gt;</text>
<text text-anchor="start" x="147.75" y="-412.38" font-family="Helvetica,sans-Serif" font-size="10.00"> </text>
<text text-anchor="start" x="112.62" y="-397.12" font-family="Helvetica,sans-Serif" font-size="10.00">+</text>
<text text-anchor="start" x="129.12" y="-397.12" font-family="Helvetica,sans-Serif" font-size="10.00">operator&#45;&gt;()</text>
<polygon fill="#666666" stroke="#666666" points="102.12,-423.88 102.12,-423.88 196.38,-423.88 196.38,-423.88 102.12,-423.88"/>
<polygon fill="#666666" stroke="#666666" points="102.12,-408.62 102.12,-408.62 196.38,-408.62 196.38,-408.62 102.12,-408.62"/>
<polygon fill="none" stroke="#666666" points="102.12,-391.38 102.12,-441.12 196.38,-441.12 196.38,-391.38 102.12,-391.38"/>
</a>
</g>
</g>
<!-- Node6&#45;&gt;Node5 -->
<g id="edge5_Node000005_Node000006" class="edge">
<title>Node6&#45;&gt;Node5</title>
<g id="a_edge5_Node000005_Node000006"><a xlink:title=" ">
<path fill="none" stroke="orange" d="M149.25,-380.1C149.25,-366.61 149.25,-351.36 149.25,-338.46"/>
<polygon fill="orange" stroke="orange" points="145.75,-379.89 149.25,-389.89 152.75,-379.89 145.75,-379.89"/>
</a>
</g>
<text text-anchor="middle" x="186.75" y="-358.25" font-family="Helvetica,sans-Serif" font-size="10.00" fill="grey"> &lt; cv_converter &gt;</text>
</g>
<!-- Node7 -->
<g id="Node000007" class="node">
<title>Node7</title>
<g id="a_Node000007"><a xlink:title=" ">
<polygon fill="white" stroke="none" points="178.25,-543.75 164.25,-543.75 164.25,-494 178.25,-494 178.25,-543.75"/>
<text text-anchor="start" x="168.25" y="-530.25" font-family="Helvetica,sans-Serif" font-size="10.00">T</text>
<text text-anchor="start" x="169.75" y="-515" font-family="Helvetica,sans-Serif" font-size="10.00"> </text>
<text text-anchor="start" x="169.75" y="-499.75" font-family="Helvetica,sans-Serif" font-size="10.00"> </text>
<polygon fill="#666666" stroke="#666666" points="164.25,-526.5 164.25,-526.5 178.25,-526.5 178.25,-526.5 164.25,-526.5"/>
<polygon fill="#666666" stroke="#666666" points="164.25,-511.25 164.25,-511.25 178.25,-511.25 178.25,-511.25 164.25,-511.25"/>
<polygon fill="none" stroke="#666666" points="164.25,-494 164.25,-543.75 178.25,-543.75 178.25,-494 164.25,-494"/>
</a>
</g>
</g>
<!-- Node7&#45;&gt;Node6 -->
<g id="edge6_Node000006_Node000007" class="edge">
<title>Node7&#45;&gt;Node6</title>
<g id="a_edge6_Node000006_Node000007"><a xlink:title=" ">
<path fill="none" stroke="#63b8ff" d="M164.3,-507C159.49,-498.83 153.49,-487.16 150.75,-476 149.02,-468.94 148.14,-461.26 147.76,-453.85"/>
<polygon fill="none" stroke="#63b8ff" points="147.76,-453.9 143.67,-447.96 147.58,-441.9 151.67,-447.84 147.76,-453.9"/>
</a>
</g>
<text text-anchor="middle" x="160.5" y="-466.5" font-family="Helvetica,sans-Serif" font-size="10.00" fill="grey"> +ptr</text>
</g>
<!-- Node8 -->
<g id="Node000008" class="node">
<title>Node8</title>
<g id="a_Node000008"><a xlink:title=" ">
<polygon fill="white" stroke="none" points="293.88,-441.12 214.62,-441.12 214.62,-391.38 293.88,-391.38 293.88,-441.12"/>
<text text-anchor="start" x="218.62" y="-427.62" font-family="Helvetica,sans-Serif" font-size="10.00">std::map&lt; K, T &gt;</text>
<text text-anchor="start" x="252.75" y="-412.38" font-family="Helvetica,sans-Serif" font-size="10.00"> </text>
<text text-anchor="start" x="252.75" y="-397.12" font-family="Helvetica,sans-Serif" font-size="10.00"> </text>
<polygon fill="#666666" stroke="#666666" points="214.62,-423.88 214.62,-423.88 293.88,-423.88 293.88,-423.88 214.62,-423.88"/>
<polygon fill="#666666" stroke="#666666" points="214.62,-408.62 214.62,-408.62 293.88,-408.62 293.88,-408.62 214.62,-408.62"/>
<polygon fill="none" stroke="#666666" points="214.62,-391.38 214.62,-441.12 293.88,-441.12 293.88,-391.38 214.62,-391.38"/>
</a>
</g>
</g>
<!-- Node7&#45;&gt;Node8 -->
<g id="edge9_Node000008_Node000007" class="edge">
<title>Node7&#45;&gt;Node8</title>
<g id="a_edge9_Node000008_Node000007"><a xlink:title=" ">
<path fill="none" stroke="#63b8ff" d="M178.12,-506.46C184.98,-495.4 196.07,-478.35 207.25,-464.75 211.19,-459.96 215.53,-455.1 219.93,-450.41"/>
<polygon fill="none" stroke="#63b8ff" points="219.98,-450.36 221.28,-443.27 228.33,-441.74 227.03,-448.83 219.98,-450.36"/>
</a>
</g>
<text text-anchor="middle" x="231.25" y="-466.5" font-family="Helvetica,sans-Serif" font-size="10.00" fill="grey"> +elements</text>
</g>
<!-- Node8&#45;&gt;Node2 -->
<g id="edge7_Node000002_Node000008" class="edge">
<title>Node8&#45;&gt;Node2</title>
<g id="a_edge7_Node000002_Node000008"><a xlink:title=" ">
<path fill="none" stroke="orange" d="M248.11,-380.26C240.82,-345.03 226.37,-290.07 201.25,-248.25 197.46,-241.94 192.78,-235.81 187.8,-230.09"/>
<polygon fill="orange" stroke="orange" points="244.64,-380.78 250.01,-389.91 251.51,-379.42 244.64,-380.78"/>
</a>
</g>
<text text-anchor="start" x="237.91" y="-309.75" font-family="Helvetica,sans-Serif" font-size="10.00" fill="grey"> &lt; std::string, std</text>
<text text-anchor="middle" x="303.54" y="-298.5" font-family="Helvetica,sans-Serif" font-size="10.00" fill="grey">::shared_ptr&lt; cv_converter &gt; &gt;</text>
</g>
<!-- Node9 -->
<g id="Node000009" class="node">
<title>Node9</title>
<g id="a_Node000009"><a xlink:title=" ">
<polygon fill="white" stroke="none" points="270.62,-543.75 255.88,-543.75 255.88,-494 270.62,-494 270.62,-543.75"/>
<text text-anchor="start" x="259.88" y="-530.25" font-family="Helvetica,sans-Serif" font-size="10.00">K</text>
<text text-anchor="start" x="261.75" y="-515" font-family="Helvetica,sans-Serif" font-size="10.00"> </text>
<text text-anchor="start" x="261.75" y="-499.75" font-family="Helvetica,sans-Serif" font-size="10.00"> </text>
<polygon fill="#666666" stroke="#666666" points="255.88,-526.5 255.88,-526.5 270.62,-526.5 270.62,-526.5 255.88,-526.5"/>
<polygon fill="#666666" stroke="#666666" points="255.88,-511.25 255.88,-511.25 270.62,-511.25 270.62,-511.25 255.88,-511.25"/>
<polygon fill="none" stroke="#666666" points="255.88,-494 255.88,-543.75 270.62,-543.75 270.62,-494 255.88,-494"/>
</a>
</g>
</g>
<!-- Node9&#45;&gt;Node8 -->
<g id="edge8_Node000008_Node000009" class="edge">
<title>Node9&#45;&gt;Node8</title>
<g id="a_edge8_Node000008_Node000009"><a xlink:title=" ">
<path fill="none" stroke="#63b8ff" d="M261.12,-494.03C260.04,-482 258.71,-467.15 257.51,-453.72"/>
<polygon fill="none" stroke="#63b8ff" points="257.52,-453.78 253,-448.16 256.45,-441.82 260.97,-447.44 257.52,-453.78"/>
</a>
</g>
<text text-anchor="middle" x="273.54" y="-466.5" font-family="Helvetica,sans-Serif" font-size="10.00" fill="grey"> +keys</text>
</g>
<!-- Node10 -->
<g id="Node000010" class="node">
<title>Node10</title>
<g id="a_Node000010"><a xlink:title=" ">
<polygon fill="white" stroke="none" points="268.38,-219 216.12,-219 216.12,-169.25 268.38,-169.25 268.38,-219"/>
<text text-anchor="start" x="220.12" y="-205.5" font-family="Helvetica,sans-Serif" font-size="10.00">std::mutex</text>
<text text-anchor="start" x="240.75" y="-190.25" font-family="Helvetica,sans-Serif" font-size="10.00"> </text>
<text text-anchor="start" x="240.75" y="-175" font-family="Helvetica,sans-Serif" font-size="10.00"> </text>
<polygon fill="#666666" stroke="#666666" points="216.12,-201.75 216.12,-201.75 268.38,-201.75 268.38,-201.75 216.12,-201.75"/>
<polygon fill="#666666" stroke="#666666" points="216.12,-186.5 216.12,-186.5 268.38,-186.5 268.38,-186.5 216.12,-186.5"/>
<polygon fill="none" stroke="#666666" points="216.12,-169.25 216.12,-219 268.38,-219 268.38,-169.25 216.12,-169.25"/>
</a>
</g>
</g>
<!-- Node10&#45;&gt;Node1 -->
<g id="edge10_Node000001_Node000010" class="edge">
<title>Node10&#45;&gt;Node1</title>
<g id="a_edge10_Node000001_Node000010"><a xlink:title=" ">
<path fill="none" stroke="#63b8ff" d="M234.24,-169.3C229.85,-156.25 224.16,-139.36 218.54,-122.64"/>
<polygon fill="none" stroke="#63b8ff" points="218.59,-122.77 212.88,-118.36 214.76,-111.4 220.46,-115.81 218.59,-122.77"/>
</a>
</g>
<text text-anchor="middle" x="264.62" y="-130.5" font-family="Helvetica,sans-Serif" font-size="10.00" fill="grey"> &#45;converters_mutex</text>
</g>
</g>
</svg>
