<?xml version="1.0" encoding="UTF-8" standalone="no"?>
<!DOCTYPE svg PUBLIC "-//W3C//DTD SVG 1.1//EN"
 "http://www.w3.org/Graphics/SVG/1.1/DTD/svg11.dtd">
<!-- Generated by graphviz version 9.0.0 (20230911.1827)
 -->
<!-- Title: HY_CatchmentAggregate Pages: 1 -->
<svg width="661pt" height="949pt"
 viewBox="0.00 0.00 661.48 948.75" xmlns="http://www.w3.org/2000/svg" xmlns:xlink="http://www.w3.org/1999/xlink">
<g id="graph0" class="graph" transform="scale(1 1) rotate(0) translate(4 944.75)">
<title>HY_CatchmentAggregate</title>
<!-- Node1 -->
<g id="Node000001" class="node">
<title>Node1</title>
<g id="a_Node000001"><a xlink:title=" ">
<polygon fill="#999999" stroke="none" points="277.73,-327.5 137.73,-327.5 137.73,-263.5 277.73,-263.5 277.73,-327.5"/>
<text text-anchor="start" x="152.23" y="-314" font-family="Helvetica,sans-Serif" font-size="10.00">HY_CatchmentAggregate</text>
<text text-anchor="start" x="206.23" y="-299" font-family="Helvetica,sans-Serif" font-size="10.00"> </text>
<text text-anchor="start" x="141.73" y="-284" font-family="Helvetica,sans-Serif" font-size="10.00">+</text>
<text text-anchor="start" x="151.73" y="-284" font-family="Helvetica,sans-Serif" font-size="10.00">HY_CatchmentAggregate()</text>
<text text-anchor="start" x="141.73" y="-269" font-family="Helvetica,sans-Serif" font-size="10.00">+</text>
<text text-anchor="start" x="151.73" y="-269" font-family="Helvetica,sans-Serif" font-size="10.00">~HY_CatchmentAggregate()</text>
<polygon fill="#666666" stroke="#666666" points="137.73,-310.5 137.73,-310.5 277.73,-310.5 277.73,-310.5 137.73,-310.5"/>
<polygon fill="#666666" stroke="#666666" points="137.73,-295.5 137.73,-295.5 277.73,-295.5 277.73,-295.5 137.73,-295.5"/>
<polygon fill="none" stroke="#666666" points="137.73,-263.5 137.73,-327.5 277.73,-327.5 277.73,-263.5 137.73,-263.5"/>
</a>
</g>
</g>
<!-- Node2 -->
<g id="Node000002" class="node">
<title>Node2</title>
<g id="a_Node000002"><a xlink:href="class_h_y___catchment.html" target="_top" xlink:title=" ">
<polygon fill="white" stroke="none" points="388.23,-614.75 219.23,-614.75 219.23,-374.75 388.23,-374.75 388.23,-614.75"/>
<text text-anchor="start" x="270.35" y="-601.25" font-family="Helvetica,sans-Serif" font-size="10.00">HY_Catchment</text>
<text text-anchor="start" x="223.23" y="-586.25" font-family="Helvetica,sans-Serif" font-size="10.00">+</text>
<text text-anchor="start" x="233.23" y="-586.25" font-family="Helvetica,sans-Serif" font-size="10.00">ATMOSPHERIC_LAYER_HIGH</text>
<text text-anchor="start" x="223.23" y="-571.25" font-family="Helvetica,sans-Serif" font-size="10.00">+</text>
<text text-anchor="start" x="233.23" y="-571.25" font-family="Helvetica,sans-Serif" font-size="10.00">ATMOSPHERIC_Layer_LOW</text>
<text text-anchor="start" x="223.23" y="-556.25" font-family="Helvetica,sans-Serif" font-size="10.00">+</text>
<text text-anchor="start" x="233.23" y="-556.25" font-family="Helvetica,sans-Serif" font-size="10.00">CANOPY_LAYER</text>
<text text-anchor="start" x="223.23" y="-541.25" font-family="Helvetica,sans-Serif" font-size="10.00">+</text>
<text text-anchor="start" x="233.23" y="-541.25" font-family="Helvetica,sans-Serif" font-size="10.00">SNOW_LAYER</text>
<text text-anchor="start" x="223.23" y="-526.25" font-family="Helvetica,sans-Serif" font-size="10.00">+</text>
<text text-anchor="start" x="233.23" y="-526.25" font-family="Helvetica,sans-Serif" font-size="10.00">SURFACE_LAYER</text>
<text text-anchor="start" x="223.23" y="-511.25" font-family="Helvetica,sans-Serif" font-size="10.00">+</text>
<text text-anchor="start" x="233.23" y="-511.25" font-family="Helvetica,sans-Serif" font-size="10.00">GROUND_WATER_SHALLOW</text>
<text text-anchor="start" x="233.23" y="-500" font-family="Helvetica,sans-Serif" font-size="10.00">_LAYER</text>
<text text-anchor="start" x="223.23" y="-485.25" font-family="Helvetica,sans-Serif" font-size="10.00">+</text>
<text text-anchor="start" x="233.23" y="-485.25" font-family="Helvetica,sans-Serif" font-size="10.00">GROUND_WATER_DEEP_LAYER</text>
<text text-anchor="start" x="224.73" y="-470.25" font-family="Helvetica,sans-Serif" font-size="10.00">&#45;</text>
<text text-anchor="start" x="233.23" y="-470.25" font-family="Helvetica,sans-Serif" font-size="10.00">layer</text>
<text text-anchor="start" x="223.23" y="-455.25" font-family="Helvetica,sans-Serif" font-size="10.00">+</text>
<text text-anchor="start" x="233.23" y="-455.25" font-family="Helvetica,sans-Serif" font-size="10.00">HY_Catchment()</text>
<text text-anchor="start" x="223.23" y="-440.25" font-family="Helvetica,sans-Serif" font-size="10.00">+</text>
<text text-anchor="start" x="233.23" y="-440.25" font-family="Helvetica,sans-Serif" font-size="10.00">HY_Catchment()</text>
<text text-anchor="start" x="223.23" y="-425.25" font-family="Helvetica,sans-Serif" font-size="10.00">+</text>
<text text-anchor="start" x="233.23" y="-425.25" font-family="Helvetica,sans-Serif" font-size="10.00">~HY_Catchment()</text>
<text text-anchor="start" x="223.23" y="-410.25" font-family="Helvetica,sans-Serif" font-size="10.00">+</text>
<text text-anchor="start" x="233.23" y="-410.25" font-family="Helvetica,sans-Serif" font-size="10.00">get_outflow_nexuses()</text>
<text text-anchor="start" x="223.23" y="-395.25" font-family="Helvetica,sans-Serif" font-size="10.00">+</text>
<text text-anchor="start" x="233.23" y="-395.25" font-family="Helvetica,sans-Serif" font-size="10.00">get_layer()</text>
<text text-anchor="start" x="223.23" y="-380.25" font-family="Helvetica,sans-Serif" font-size="10.00">+</text>
<text text-anchor="start" x="233.23" y="-380.25" font-family="Helvetica,sans-Serif" font-size="10.00">set_layer()</text>
<polygon fill="#666666" stroke="#666666" points="219.23,-597.75 219.23,-597.75 388.23,-597.75 388.23,-597.75 219.23,-597.75"/>
<polygon fill="#666666" stroke="#666666" points="219.23,-466.75 219.23,-466.75 231.23,-466.75 231.23,-466.75 219.23,-466.75"/>
<polygon fill="#666666" stroke="#666666" points="231.23,-466.75 231.23,-466.75 388.23,-466.75 388.23,-466.75 231.23,-466.75"/>
<polygon fill="none" stroke="#666666" points="219.23,-374.75 219.23,-614.75 388.23,-614.75 388.23,-374.75 219.23,-374.75"/>
</a>
</g>
</g>
<!-- Node2&#45;&gt;Node1 -->
<g id="edge1_Node000001_Node000002" class="edge">
<title>Node2&#45;&gt;Node1</title>
<g id="a_edge1_Node000001_Node000002"><a xlink:title=" ">
<path fill="none" stroke="#63b8ff" d="M240.98,-364.82C234.25,-350.99 227.95,-338.04 222.68,-327.22"/>
<polygon fill="none" stroke="#63b8ff" points="237.76,-366.2 245.28,-373.66 244.05,-363.14 237.76,-366.2"/>
</a>
</g>
</g>
<!-- Node6 -->
<g id="Node000006" class="node">
<title>Node6</title>
<g id="a_Node000006"><a xlink:title=" ">
<polygon fill="white" stroke="none" points="439.73,-325.5 343.73,-325.5 343.73,-265.5 439.73,-265.5 439.73,-325.5"/>
<text text-anchor="start" x="348.6" y="-312" font-family="Helvetica,sans-Serif" font-size="10.00">std::shared_ptr&lt; HY</text>
<text text-anchor="start" x="361.35" y="-300.75" font-family="Helvetica,sans-Serif" font-size="10.00">_Catchment &gt;</text>
<text text-anchor="start" x="390.23" y="-286" font-family="Helvetica,sans-Serif" font-size="10.00"> </text>
<text text-anchor="start" x="354.73" y="-271" font-family="Helvetica,sans-Serif" font-size="10.00">+</text>
<text text-anchor="start" x="371.73" y="-271" font-family="Helvetica,sans-Serif" font-size="10.00">operator&#45;&gt;()</text>
<polygon fill="#666666" stroke="#666666" points="343.73,-297.5 343.73,-297.5 439.73,-297.5 439.73,-297.5 343.73,-297.5"/>
<polygon fill="#666666" stroke="#666666" points="343.73,-282.5 343.73,-282.5 439.73,-282.5 439.73,-282.5 343.73,-282.5"/>
<polygon fill="none" stroke="#666666" points="343.73,-265.5 343.73,-325.5 439.73,-325.5 439.73,-265.5 343.73,-265.5"/>
</a>
</g>
</g>
<!-- Node2&#45;&gt;Node6 -->
<g id="edge6_Node000006_Node000002" class="edge">
<title>Node2&#45;&gt;Node6</title>
<g id="a_edge6_Node000006_Node000002"><a xlink:title=" ">
<path fill="none" stroke="#63b8ff" d="M343.43,-374.79C347.75,-364.73 352.36,-354.84 357.23,-345.5 358.82,-342.45 360.57,-339.37 362.42,-336.31"/>
<polygon fill="none" stroke="#63b8ff" points="362.41,-336.32 362.31,-329.11 368.93,-326.25 369.03,-333.46 362.41,-336.32"/>
</a>
</g>
<text text-anchor="middle" x="366.48" y="-347.25" font-family="Helvetica,sans-Serif" font-size="10.00" fill="grey"> +ptr</text>
</g>
<!-- Node3 -->
<g id="Node000003" class="node">
<title>Node3</title>
<g id="a_Node000003"><a xlink:href="class_h_y___hydro_feature.html" target="_top" xlink:title=" ">
<polygon fill="white" stroke="none" points="226.23,-737.25 119.23,-737.25 119.23,-673.25 226.23,-673.25 226.23,-737.25"/>
<text text-anchor="start" x="133.73" y="-723.75" font-family="Helvetica,sans-Serif" font-size="10.00">HY_HydroFeature</text>
<text text-anchor="start" x="171.23" y="-708.75" font-family="Helvetica,sans-Serif" font-size="10.00"> </text>
<text text-anchor="start" x="123.23" y="-693.75" font-family="Helvetica,sans-Serif" font-size="10.00">+</text>
<text text-anchor="start" x="133.23" y="-693.75" font-family="Helvetica,sans-Serif" font-size="10.00">HY_HydroFeature()</text>
<text text-anchor="start" x="123.23" y="-678.75" font-family="Helvetica,sans-Serif" font-size="10.00">+</text>
<text text-anchor="start" x="133.23" y="-678.75" font-family="Helvetica,sans-Serif" font-size="10.00">~HY_HydroFeature()</text>
<polygon fill="#666666" stroke="#666666" points="119.23,-720.25 119.23,-720.25 226.23,-720.25 226.23,-720.25 119.23,-720.25"/>
<polygon fill="#666666" stroke="#666666" points="119.23,-705.25 119.23,-705.25 226.23,-705.25 226.23,-705.25 119.23,-705.25"/>
<polygon fill="none" stroke="#666666" points="119.23,-673.25 119.23,-737.25 226.23,-737.25 226.23,-673.25 119.23,-673.25"/>
</a>
</g>
</g>
<!-- Node3&#45;&gt;Node2 -->
<g id="edge2_Node000002_Node000003" class="edge">
<title>Node3&#45;&gt;Node2</title>
<g id="a_edge2_Node000002_Node000003"><a xlink:title=" ">
<path fill="none" stroke="#63b8ff" d="M198.09,-663.89C207.21,-649.38 218.02,-632.17 229.18,-614.39"/>
<polygon fill="none" stroke="#63b8ff" points="195.22,-661.87 192.86,-672.2 201.15,-665.6 195.22,-661.87"/>
</a>
</g>
</g>
<!-- Node4 -->
<g id="Node000004" class="node">
<title>Node4</title>
<g id="a_Node000004"><a xlink:title=" ">
<polygon fill="white" stroke="none" points="464.73,-60 346.73,-60 346.73,0 464.73,0 464.73,-60"/>
<text text-anchor="start" x="351.73" y="-46.5" font-family="Helvetica,sans-Serif" font-size="10.00">std::shared_ptr&lt; HY</text>
<text text-anchor="start" x="351.73" y="-35.25" font-family="Helvetica,sans-Serif" font-size="10.00">_CatchmentRealization &gt;</text>
<text text-anchor="start" x="404.23" y="-20.5" font-family="Helvetica,sans-Serif" font-size="10.00"> </text>
<text text-anchor="start" x="363.23" y="-5.5" font-family="Helvetica,sans-Serif" font-size="10.00">+</text>
<text text-anchor="start" x="385.73" y="-5.5" font-family="Helvetica,sans-Serif" font-size="10.00">operator&#45;&gt;()</text>
<polygon fill="#666666" stroke="#666666" points="346.73,-32 346.73,-32 464.73,-32 464.73,-32 346.73,-32"/>
<polygon fill="#666666" stroke="#666666" points="346.73,-17 346.73,-17 464.73,-17 464.73,-17 346.73,-17"/>
<polygon fill="none" stroke="#666666" points="346.73,0 346.73,-60 464.73,-60 464.73,0 346.73,0"/>
</a>
</g>
</g>
<!-- Node4&#45;&gt;Node2 -->
<g id="edge3_Node000002_Node000004" class="edge">
<title>Node4&#45;&gt;Node2</title>
<g id="a_edge3_Node000002_Node000004"><a xlink:title=" ">
<path fill="none" stroke="#63b8ff" d="M364.31,-59.84C349.45,-72.54 334.26,-88.79 325.73,-107.25 289.12,-186.42 283.97,-284.64 287.8,-362.26"/>
<polygon fill="none" stroke="#63b8ff" points="287.79,-362.14 292.12,-367.91 288.47,-374.12 284.14,-368.36 287.79,-362.14"/>
</a>
</g>
<text text-anchor="middle" x="316.6" y="-236" font-family="Helvetica,sans-Serif" font-size="10.00" fill="grey"> +realization</text>
</g>
<!-- Node5 -->
<g id="Node000005" class="node">
<title>Node5</title>
<g id="a_Node000005"><a xlink:href="class_h_y___catchment_realization.html" target="_top" xlink:title=" ">
<polygon fill="white" stroke="none" points="477.23,-216.25 334.23,-216.25 334.23,-107.25 477.23,-107.25 477.23,-216.25"/>
<text text-anchor="start" x="348.73" y="-202.75" font-family="Helvetica,sans-Serif" font-size="10.00">HY_CatchmentRealization</text>
<text text-anchor="start" x="338.6" y="-187.75" font-family="Helvetica,sans-Serif" font-size="10.00">#</text>
<text text-anchor="start" x="348.23" y="-187.75" font-family="Helvetica,sans-Serif" font-size="10.00">id_number</text>
<text text-anchor="start" x="338.23" y="-172.75" font-family="Helvetica,sans-Serif" font-size="10.00">+</text>
<text text-anchor="start" x="348.23" y="-172.75" font-family="Helvetica,sans-Serif" font-size="10.00">HY_CatchmentRealization()</text>
<text text-anchor="start" x="338.23" y="-157.75" font-family="Helvetica,sans-Serif" font-size="10.00">+</text>
<text text-anchor="start" x="348.23" y="-157.75" font-family="Helvetica,sans-Serif" font-size="10.00">~HY_CatchmentRealization()</text>
<text text-anchor="start" x="338.23" y="-142.75" font-family="Helvetica,sans-Serif" font-size="10.00">+</text>
<text text-anchor="start" x="348.23" y="-142.75" font-family="Helvetica,sans-Serif" font-size="10.00">get_response()</text>
<text text-anchor="start" x="338.6" y="-127.75" font-family="Helvetica,sans-Serif" font-size="10.00">#</text>
<text text-anchor="start" x="348.23" y="-127.75" font-family="Helvetica,sans-Serif" font-size="10.00">get_catchment_id()</text>
<text text-anchor="start" x="338.6" y="-112.75" font-family="Helvetica,sans-Serif" font-size="10.00">#</text>
<text text-anchor="start" x="348.23" y="-112.75" font-family="Helvetica,sans-Serif" font-size="10.00">set_catchment_id()</text>
<polygon fill="#666666" stroke="#666666" points="334.23,-199.25 334.23,-199.25 477.23,-199.25 477.23,-199.25 334.23,-199.25"/>
<polygon fill="#666666" stroke="#666666" points="334.23,-184.25 334.23,-184.25 346.23,-184.25 346.23,-184.25 334.23,-184.25"/>
<polygon fill="#666666" stroke="#666666" points="346.23,-184.25 346.23,-184.25 477.23,-184.25 477.23,-184.25 346.23,-184.25"/>
<polygon fill="none" stroke="#666666" points="334.23,-107.25 334.23,-216.25 477.23,-216.25 477.23,-107.25 334.23,-107.25"/>
</a>
</g>
</g>
<!-- Node5&#45;&gt;Node4 -->
<g id="edge4_Node000004_Node000005" class="edge">
<title>Node5&#45;&gt;Node4</title>
<g id="a_edge4_Node000004_Node000005"><a xlink:title=" ">
<path fill="none" stroke="#63b8ff" d="M405.73,-107.6C405.73,-95.96 405.73,-83.79 405.73,-72.68"/>
<polygon fill="none" stroke="#63b8ff" points="405.73,-72.64 401.73,-66.64 405.73,-60.64 409.73,-66.64 405.73,-72.64"/>
</a>
</g>
<text text-anchor="middle" x="415.48" y="-79.75" font-family="Helvetica,sans-Serif" font-size="10.00" fill="grey"> +ptr</text>
</g>
<!-- Node6&#45;&gt;Node5 -->
<g id="edge5_Node000005_Node000006" class="edge">
<title>Node6&#45;&gt;Node5</title>
<g id="a_edge5_Node000005_Node000006"><a xlink:title=" ">
<path fill="none" stroke="#63b8ff" d="M391.58,-265.64C391.76,-255.67 392.22,-244.45 393.23,-234.25 393.4,-232.5 393.59,-230.73 393.8,-228.94"/>
<polygon fill="none" stroke="#63b8ff" points="393.81,-228.91 390.63,-222.43 395.39,-217.01 398.56,-223.49 393.81,-228.91"/>
</a>
</g>
<text text-anchor="middle" x="438.48" y="-236" font-family="Helvetica,sans-Serif" font-size="10.00" fill="grey"> #realized_catchment</text>
</g>
<!-- Node7 -->
<g id="Node000007" class="node">
<title>Node7</title>
<g id="a_Node000007"><a xlink:title=" ">
<polygon fill="white" stroke="none" points="554.73,-519.25 458.73,-519.25 458.73,-470.25 554.73,-470.25 554.73,-519.25"/>
<text text-anchor="start" x="463.6" y="-505.75" font-family="Helvetica,sans-Serif" font-size="10.00">std::shared_ptr&lt; T &gt;</text>
<text text-anchor="start" x="505.23" y="-490.75" font-family="Helvetica,sans-Serif" font-size="10.00"> </text>
<text text-anchor="start" x="469.73" y="-475.75" font-family="Helvetica,sans-Serif" font-size="10.00">+</text>
<text text-anchor="start" x="486.73" y="-475.75" font-family="Helvetica,sans-Serif" font-size="10.00">operator&#45;&gt;()</text>
<polygon fill="#666666" stroke="#666666" points="458.73,-502.25 458.73,-502.25 554.73,-502.25 554.73,-502.25 458.73,-502.25"/>
<polygon fill="#666666" stroke="#666666" points="458.73,-487.25 458.73,-487.25 554.73,-487.25 554.73,-487.25 458.73,-487.25"/>
<polygon fill="none" stroke="#666666" points="458.73,-470.25 458.73,-519.25 554.73,-519.25 554.73,-470.25 458.73,-470.25"/>
</a>
</g>
</g>
<!-- Node7&#45;&gt;Node4 -->
<g id="edge9_Node000004_Node000007" class="edge">
<title>Node7&#45;&gt;Node4</title>
<g id="a_edge9_Node000004_Node000007"><a xlink:title=" ">
<path fill="none" stroke="orange" d="M513.12,-459.36C524.45,-389.29 541.97,-226.56 486.73,-107.25 478.13,-88.67 462.76,-72.41 447.71,-59.72"/>
<polygon fill="orange" stroke="orange" points="509.7,-458.63 511.49,-469.07 516.6,-459.79 509.7,-458.63"/>
</a>
</g>
<text text-anchor="middle" x="587.1" y="-236" font-family="Helvetica,sans-Serif" font-size="10.00" fill="grey"> &lt; HY_CatchmentRealization &gt;</text>
</g>
<!-- Node7&#45;&gt;Node6 -->
<g id="edge7_Node000006_Node000007" class="edge">
<title>Node7&#45;&gt;Node6</title>
<g id="a_edge7_Node000006_Node000007"><a xlink:title=" ">
<path fill="none" stroke="orange" d="M478.14,-461.84C455.85,-435.4 425.68,-395.94 407.23,-356.75 402.63,-346.98 399.26,-335.65 396.86,-325.47"/>
<polygon fill="orange" stroke="orange" points="475.22,-463.81 484.38,-469.14 480.54,-459.26 475.22,-463.81"/>
</a>
</g>
<text text-anchor="middle" x="449.48" y="-347.25" font-family="Helvetica,sans-Serif" font-size="10.00" fill="grey"> &lt; HY_Catchment &gt;</text>
</g>
<!-- Node8 -->
<g id="Node000008" class="node">
<title>Node8</title>
<g id="a_Node000008"><a xlink:title=" ">
<polygon fill="white" stroke="none" points="488.73,-935.25 472.73,-935.25 472.73,-886.25 488.73,-886.25 488.73,-935.25"/>
<text text-anchor="start" x="477.73" y="-921.75" font-family="Helvetica,sans-Serif" font-size="10.00">T</text>
<text text-anchor="start" x="479.23" y="-906.75" font-family="Helvetica,sans-Serif" font-size="10.00"> </text>
<text text-anchor="start" x="479.23" y="-891.75" font-family="Helvetica,sans-Serif" font-size="10.00"> </text>
<polygon fill="#666666" stroke="#666666" points="472.73,-918.25 472.73,-918.25 488.73,-918.25 488.73,-918.25 472.73,-918.25"/>
<polygon fill="#666666" stroke="#666666" points="472.73,-903.25 472.73,-903.25 488.73,-903.25 488.73,-903.25 472.73,-903.25"/>
<polygon fill="none" stroke="#666666" points="472.73,-886.25 472.73,-935.25 488.73,-935.25 488.73,-886.25 472.73,-886.25"/>
</a>
</g>
</g>
<!-- Node8&#45;&gt;Node7 -->
<g id="edge8_Node000007_Node000008" class="edge">
<title>Node8&#45;&gt;Node7</title>
<g id="a_edge8_Node000007_Node000008"><a xlink:title=" ">
<path fill="none" stroke="#63b8ff" d="M488.61,-887.55C491.02,-879.8 493.39,-870.99 494.73,-862.75 514.2,-742.91 511.34,-598.26 508.6,-532.04"/>
<polygon fill="none" stroke="#63b8ff" points="508.6,-532.03 504.34,-526.21 508.07,-520.04 512.33,-525.85 508.6,-532.03"/>
</a>
</g>
<text text-anchor="middle" x="515.48" y="-757" font-family="Helvetica,sans-Serif" font-size="10.00" fill="grey"> +ptr</text>
</g>
<!-- Node12 -->
<g id="Node000012" class="node">
<title>Node12</title>
<g id="a_Node000012"><a xlink:title=" ">
<polygon fill="white" stroke="none" points="473.23,-833.5 396.23,-833.5 396.23,-784.5 473.23,-784.5 473.23,-833.5"/>
<text text-anchor="start" x="400.98" y="-820" font-family="Helvetica,sans-Serif" font-size="10.00">std::vector&lt; T &gt;</text>
<text text-anchor="start" x="433.23" y="-805" font-family="Helvetica,sans-Serif" font-size="10.00"> </text>
<text text-anchor="start" x="433.23" y="-790" font-family="Helvetica,sans-Serif" font-size="10.00"> </text>
<polygon fill="#666666" stroke="#666666" points="396.23,-816.5 396.23,-816.5 473.23,-816.5 473.23,-816.5 396.23,-816.5"/>
<polygon fill="#666666" stroke="#666666" points="396.23,-801.5 396.23,-801.5 473.23,-801.5 473.23,-801.5 396.23,-801.5"/>
<polygon fill="none" stroke="#666666" points="396.23,-784.5 396.23,-833.5 473.23,-833.5 473.23,-784.5 396.23,-784.5"/>
</a>
</g>
</g>
<!-- Node8&#45;&gt;Node12 -->
<g id="edge15_Node000012_Node000008" class="edge">
<title>Node8&#45;&gt;Node12</title>
<g id="a_edge15_Node000012_Node000008"><a xlink:title=" ">
<path fill="none" stroke="#63b8ff" d="M472.77,-901.07C464.99,-892.12 453.37,-877.43 446.73,-862.75 444.31,-857.41 442.36,-851.53 440.79,-845.7"/>
<polygon fill="none" stroke="#63b8ff" points="440.81,-845.82 435.57,-840.86 438.13,-834.12 443.37,-839.07 440.81,-845.82"/>
</a>
</g>
<text text-anchor="middle" x="470.73" y="-853.25" font-family="Helvetica,sans-Serif" font-size="10.00" fill="grey"> +elements</text>
</g>
<!-- Node9 -->
<g id="Node000009" class="node">
<title>Node9</title>
<g id="a_Node000009"><a xlink:title=" ">
<polygon fill="white" stroke="none" points="229.73,-833.5 177.73,-833.5 177.73,-784.5 229.73,-784.5 229.73,-833.5"/>
<text text-anchor="start" x="182.73" y="-820" font-family="Helvetica,sans-Serif" font-size="10.00">std::string</text>
<text text-anchor="start" x="202.23" y="-805" font-family="Helvetica,sans-Serif" font-size="10.00"> </text>
<text text-anchor="start" x="202.23" y="-790" font-family="Helvetica,sans-Serif" font-size="10.00"> </text>
<polygon fill="#666666" stroke="#666666" points="177.73,-816.5 177.73,-816.5 229.73,-816.5 229.73,-816.5 177.73,-816.5"/>
<polygon fill="#666666" stroke="#666666" points="177.73,-801.5 177.73,-801.5 229.73,-801.5 229.73,-801.5 177.73,-801.5"/>
<polygon fill="none" stroke="#666666" points="177.73,-784.5 177.73,-833.5 229.73,-833.5 229.73,-784.5 177.73,-784.5"/>
</a>
</g>
</g>
<!-- Node9&#45;&gt;Node2 -->
<g id="edge10_Node000002_Node000009" class="edge">
<title>Node9&#45;&gt;Node2</title>
<g id="a_edge10_Node000002_Node000009"><a xlink:title=" ">
<path fill="none" stroke="#63b8ff" d="M178,-807.26C135.03,-804.47 49.63,-791.94 11.48,-737.25 -4.8,-713.92 -2.47,-698.04 11.48,-673.25 53.08,-599.31 139.32,-552.61 207.39,-525.77"/>
<polygon fill="none" stroke="#63b8ff" points="207.39,-525.77 211.56,-519.89 218.6,-521.47 214.43,-527.36 207.39,-525.77"/>
</a>
</g>
<text text-anchor="middle" x="60.85" y="-723.88" font-family="Helvetica,sans-Serif" font-size="10.00" fill="grey"> &#45;conjoint_catchment</text>
<text text-anchor="middle" x="60.85" y="-712.62" font-family="Helvetica,sans-Serif" font-size="10.00" fill="grey">&#45;containing_catchment</text>
<text text-anchor="middle" x="60.85" y="-701.38" font-family="Helvetica,sans-Serif" font-size="10.00" fill="grey">&#45;id</text>
<text text-anchor="middle" x="60.85" y="-690.12" font-family="Helvetica,sans-Serif" font-size="10.00" fill="grey">&#45;lower_catchment</text>
<text text-anchor="middle" x="60.85" y="-678.88" font-family="Helvetica,sans-Serif" font-size="10.00" fill="grey">&#45;upper_catchment</text>
</g>
<!-- Node11 -->
<g id="Node000011" class="node">
<title>Node11</title>
<g id="a_Node000011"><a xlink:title=" ">
<polygon fill="white" stroke="none" points="480.23,-729.75 381.23,-729.75 381.23,-680.75 480.23,-680.75 480.23,-729.75"/>
<text text-anchor="start" x="386.1" y="-716.25" font-family="Helvetica,sans-Serif" font-size="10.00">std::vector&lt; Nexus &gt;</text>
<text text-anchor="start" x="429.23" y="-701.25" font-family="Helvetica,sans-Serif" font-size="10.00"> </text>
<text text-anchor="start" x="429.23" y="-686.25" font-family="Helvetica,sans-Serif" font-size="10.00"> </text>
<polygon fill="#666666" stroke="#666666" points="381.23,-712.75 381.23,-712.75 480.23,-712.75 480.23,-712.75 381.23,-712.75"/>
<polygon fill="#666666" stroke="#666666" points="381.23,-697.75 381.23,-697.75 480.23,-697.75 480.23,-697.75 381.23,-697.75"/>
<polygon fill="none" stroke="#666666" points="381.23,-680.75 381.23,-729.75 480.23,-729.75 480.23,-680.75 381.23,-680.75"/>
</a>
</g>
</g>
<!-- Node9&#45;&gt;Node11 -->
<g id="edge13_Node000011_Node000009" class="edge">
<title>Node9&#45;&gt;Node11</title>
<g id="a_edge13_Node000011_Node000009"><a xlink:title=" ">
<path fill="none" stroke="#63b8ff" d="M229.52,-790.99C247.89,-779.51 273.52,-764.78 297.73,-755.25 329.22,-742.85 340.06,-749.21 371.73,-737.25 373.61,-736.54 375.51,-735.78 377.41,-734.99"/>
<polygon fill="none" stroke="#63b8ff" points="377.33,-735.03 381.15,-728.91 388.27,-730.1 384.44,-736.21 377.33,-735.03"/>
</a>
</g>
<text text-anchor="middle" x="321.73" y="-757" font-family="Helvetica,sans-Serif" font-size="10.00" fill="grey"> +elements</text>
</g>
<!-- Node13 -->
<g id="Node000013" class="node">
<title>Node13</title>
<g id="a_Node000013"><a xlink:title=" ">
<polygon fill="white" stroke="none" points="362.73,-729.75 244.73,-729.75 244.73,-680.75 362.73,-680.75 362.73,-729.75"/>
<text text-anchor="start" x="249.35" y="-716.25" font-family="Helvetica,sans-Serif" font-size="10.00">std::vector&lt; Catchment &gt;</text>
<text text-anchor="start" x="302.23" y="-701.25" font-family="Helvetica,sans-Serif" font-size="10.00"> </text>
<text text-anchor="start" x="302.23" y="-686.25" font-family="Helvetica,sans-Serif" font-size="10.00"> </text>
<polygon fill="#666666" stroke="#666666" points="244.73,-712.75 244.73,-712.75 362.73,-712.75 362.73,-712.75 244.73,-712.75"/>
<polygon fill="#666666" stroke="#666666" points="244.73,-697.75 244.73,-697.75 362.73,-697.75 362.73,-697.75 244.73,-697.75"/>
<polygon fill="none" stroke="#666666" points="244.73,-680.75 244.73,-729.75 362.73,-729.75 362.73,-680.75 244.73,-680.75"/>
</a>
</g>
</g>
<!-- Node9&#45;&gt;Node13 -->
<g id="edge17_Node000013_Node000009" class="edge">
<title>Node9&#45;&gt;Node13</title>
<g id="a_edge17_Node000013_Node000009"><a xlink:title=" ">
<path fill="none" stroke="#63b8ff" d="M199.09,-784.67C198.37,-774.89 199.28,-763.84 204.73,-755.25 206.07,-753.13 222.81,-744.58 242.15,-735.2"/>
<polygon fill="none" stroke="#63b8ff" points="242.12,-735.22 245.8,-729.01 252.94,-730.01 249.26,-736.22 242.12,-735.22"/>
</a>
</g>
<text text-anchor="middle" x="228.73" y="-757" font-family="Helvetica,sans-Serif" font-size="10.00" fill="grey"> +elements</text>
</g>
<!-- Node10 -->
<g id="Node000010" class="node">
<title>Node10</title>
<g id="a_Node000010"><a xlink:title=" ">
<polygon fill="white" stroke="none" points="246.73,-940.75 160.73,-940.75 160.73,-880.75 246.73,-880.75 246.73,-940.75"/>
<text text-anchor="start" x="165.48" y="-927.25" font-family="Helvetica,sans-Serif" font-size="10.00">std::basic_string&lt;</text>
<text text-anchor="start" x="188.35" y="-916" font-family="Helvetica,sans-Serif" font-size="10.00"> Char &gt;</text>
<text text-anchor="start" x="202.23" y="-901.25" font-family="Helvetica,sans-Serif" font-size="10.00"> </text>
<text text-anchor="start" x="202.23" y="-886.25" font-family="Helvetica,sans-Serif" font-size="10.00"> </text>
<polygon fill="#666666" stroke="#666666" points="160.73,-912.75 160.73,-912.75 246.73,-912.75 246.73,-912.75 160.73,-912.75"/>
<polygon fill="#666666" stroke="#666666" points="160.73,-897.75 160.73,-897.75 246.73,-897.75 246.73,-897.75 160.73,-897.75"/>
<polygon fill="none" stroke="#666666" points="160.73,-880.75 160.73,-940.75 246.73,-940.75 246.73,-880.75 160.73,-880.75"/>
</a>
</g>
</g>
<!-- Node10&#45;&gt;Node9 -->
<g id="edge11_Node000009_Node000010" class="edge">
<title>Node10&#45;&gt;Node9</title>
<g id="a_edge11_Node000009_Node000010"><a xlink:title=" ">
<path fill="none" stroke="#63b8ff" d="M203.73,-869.49C203.73,-857.24 203.73,-844.17 203.73,-833.42"/>
<polygon fill="none" stroke="#63b8ff" points="200.23,-869.38 203.73,-879.38 207.23,-869.38 200.23,-869.38"/>
</a>
</g>
</g>
<!-- Node11&#45;&gt;Node2 -->
<g id="edge12_Node000002_Node000011" class="edge">
<title>Node11&#45;&gt;Node2</title>
<g id="a_edge12_Node000002_Node000011"><a xlink:title=" ">
<path fill="none" stroke="#63b8ff" d="M425.78,-680.9C422.19,-666.52 416.59,-647.99 408.73,-632.75 404.57,-624.69 399.93,-616.63 394.98,-608.67"/>
<polygon fill="none" stroke="#63b8ff" points="395.03,-608.74 388.42,-605.86 388.54,-598.65 395.15,-601.53 395.03,-608.74"/>
</a>
</g>
<text text-anchor="middle" x="436.23" y="-645.75" font-family="Helvetica,sans-Serif" font-size="10.00" fill="grey"> &#45;inflows</text>
<text text-anchor="middle" x="436.23" y="-634.5" font-family="Helvetica,sans-Serif" font-size="10.00" fill="grey">&#45;outflows</text>
</g>
<!-- Node12&#45;&gt;Node11 -->
<g id="edge14_Node000011_Node000012" class="edge">
<title>Node12&#45;&gt;Node11</title>
<g id="a_edge14_Node000011_Node000012"><a xlink:title=" ">
<path fill="none" stroke="orange" d="M433.37,-773.55C432.8,-759.03 432.15,-742.52 431.64,-729.48"/>
<polygon fill="orange" stroke="orange" points="429.86,-773.29 433.75,-783.14 436.86,-773.01 429.86,-773.29"/>
</a>
</g>
<text text-anchor="middle" x="455.98" y="-757" font-family="Helvetica,sans-Serif" font-size="10.00" fill="grey"> &lt; Nexus &gt;</text>
</g>
<!-- Node12&#45;&gt;Node13 -->
<g id="edge18_Node000013_Node000012" class="edge">
<title>Node12&#45;&gt;Node13</title>
<g id="a_edge18_Node000013_Node000012"><a xlink:title=" ">
<path fill="none" stroke="orange" d="M386.83,-782.86C378.53,-777.82 370.19,-772.28 362.73,-766.5 348.61,-755.56 334.55,-741.36 323.7,-729.5"/>
<polygon fill="orange" stroke="orange" points="384.79,-785.71 395.18,-787.76 388.33,-779.68 384.79,-785.71"/>
</a>
</g>
<text text-anchor="middle" x="395.73" y="-757" font-family="Helvetica,sans-Serif" font-size="10.00" fill="grey"> &lt; Catchment &gt;</text>
</g>
<!-- Node13&#45;&gt;Node2 -->
<g id="edge16_Node000002_Node000013" class="edge">
<title>Node13&#45;&gt;Node2</title>
<g id="a_edge16_Node000002_Node000013"><a xlink:title=" ">
<path fill="none" stroke="#63b8ff" d="M303.73,-681.14C303.73,-667.18 303.73,-648.14 303.73,-627.55"/>
<polygon fill="none" stroke="#63b8ff" points="303.73,-627.47 299.73,-621.47 303.73,-615.47 307.73,-621.47 303.73,-627.47"/>
</a>
</g>
<text text-anchor="middle" x="355.48" y="-640.12" font-family="Helvetica,sans-Serif" font-size="10.00" fill="grey"> &#45;contained_catchments</text>
</g>
</g>
</svg>
