<?xml version="1.0" encoding="UTF-8" standalone="no"?>
<!DOCTYPE svg PUBLIC "-//W3C//DTD SVG 1.1//EN"
 "http://www.w3.org/Graphics/SVG/1.1/DTD/svg11.dtd">
<!-- Generated by graphviz version 3.0.0 (20221109.1736)
 -->
<!-- Title: HY_HydroNetwork Pages: 1 -->
<svg width="262pt" height="281pt"
 viewBox="0.00 0.00 262.00 281.00" xmlns="http://www.w3.org/2000/svg" xmlns:xlink="http://www.w3.org/1999/xlink">
<g id="graph0" class="graph" transform="scale(1 1) rotate(0) translate(4 277)">
<title>HY_HydroNetwork</title>
<polygon fill="white" stroke="transparent" points="-4,4 -4,-277 258,-277 258,4 -4,4"/>
<!-- Node1 -->
<g id="node1" class="node">
<title>Node1</title>
<g id="a_node1"><a xlink:title=" ">
<polygon fill="#bfbfbf" stroke="black" points="52,-0.5 52,-101.5 170,-101.5 170,-0.5 52,-0.5"/>
<text text-anchor="middle" x="111" y="-89.5" font-family="Helvetica,sans-Serif" font-size="10.00">HY_HydroNetwork</text>
<polyline fill="none" stroke="black" points="52,-82.5 170,-82.5 "/>
<text text-anchor="start" x="60" y="-70.5" font-family="Helvetica,sans-Serif" font-size="10.00">&#45; flow_paths</text>
<text text-anchor="start" x="60" y="-59.5" font-family="Helvetica,sans-Serif" font-size="10.00">&#45; sub_network</text>
<text text-anchor="start" x="60" y="-48.5" font-family="Helvetica,sans-Serif" font-size="10.00">&#45; network_divides</text>
<text text-anchor="start" x="60" y="-37.5" font-family="Helvetica,sans-Serif" font-size="10.00">&#45; internal_nexuses</text>
<polyline fill="none" stroke="black" points="52,-30.5 170,-30.5 "/>
<text text-anchor="start" x="60" y="-18.5" font-family="Helvetica,sans-Serif" font-size="10.00">+ HY_HydroNetwork()</text>
<text text-anchor="start" x="60" y="-7.5" font-family="Helvetica,sans-Serif" font-size="10.00">+ ~HY_HydroNetwork()</text>
</a>
</g>
</g>
<!-- Node2 -->
<g id="node2" class="node">
<title>Node2</title>
<g id="a_node2"><a xlink:href="class_g_m___object.html" target="_top" xlink:title=" ">
<polygon fill="white" stroke="black" points="0,-171.5 0,-239.5 86,-239.5 86,-171.5 0,-171.5"/>
<text text-anchor="middle" x="43" y="-227.5" font-family="Helvetica,sans-Serif" font-size="10.00">GM_Object</text>
<polyline fill="none" stroke="black" points="0,-220.5 86,-220.5 "/>
<text text-anchor="middle" x="43" y="-208.5" font-family="Helvetica,sans-Serif" font-size="10.00"> </text>
<polyline fill="none" stroke="black" points="0,-201.5 86,-201.5 "/>
<text text-anchor="start" x="8" y="-189.5" font-family="Helvetica,sans-Serif" font-size="10.00">+ GM_Object()</text>
<text text-anchor="start" x="8" y="-178.5" font-family="Helvetica,sans-Serif" font-size="10.00">+ ~GM_Object()</text>
</a>
</g>
</g>
<!-- Node2&#45;&gt;Node1 -->
<g id="edge1" class="edge">
<title>Node2&#45;&gt;Node1</title>
<path fill="none" stroke="midnightblue" d="M61.86,-162.2C70.25,-143.4 80.18,-121.13 88.91,-101.55"/>
<polygon fill="none" stroke="midnightblue" points="58.63,-160.85 57.75,-171.41 65.02,-163.7 58.63,-160.85"/>
</g>
<!-- Node3 -->
<g id="node3" class="node">
<title>Node3</title>
<g id="a_node3"><a xlink:href="class_h_y___catchment_realization.html" target="_top" xlink:title=" ">
<polygon fill="white" stroke="black" points="104,-138.5 104,-272.5 254,-272.5 254,-138.5 104,-138.5"/>
<text text-anchor="middle" x="179" y="-260.5" font-family="Helvetica,sans-Serif" font-size="10.00">HY_CatchmentRealization</text>
<polyline fill="none" stroke="black" points="104,-253.5 254,-253.5 "/>
<text text-anchor="start" x="112" y="-241.5" font-family="Helvetica,sans-Serif" font-size="10.00"># realized_catchment</text>
<text text-anchor="start" x="112" y="-230.5" font-family="Helvetica,sans-Serif" font-size="10.00"># id_number</text>
<text text-anchor="start" x="112" y="-219.5" font-family="Helvetica,sans-Serif" font-size="10.00"># forcing</text>
<polyline fill="none" stroke="black" points="104,-212.5 254,-212.5 "/>
<text text-anchor="start" x="112" y="-200.5" font-family="Helvetica,sans-Serif" font-size="10.00">+ HY_CatchmentRealization()</text>
<text text-anchor="start" x="112" y="-189.5" font-family="Helvetica,sans-Serif" font-size="10.00">+ HY_CatchmentRealization()</text>
<text text-anchor="start" x="112" y="-178.5" font-family="Helvetica,sans-Serif" font-size="10.00">+ ~HY_CatchmentRealization()</text>
<text text-anchor="start" x="112" y="-167.5" font-family="Helvetica,sans-Serif" font-size="10.00">+ get_response()</text>
<text text-anchor="start" x="112" y="-156.5" font-family="Helvetica,sans-Serif" font-size="10.00"># get_catchment_id()</text>
<text text-anchor="start" x="112" y="-145.5" font-family="Helvetica,sans-Serif" font-size="10.00"># set_catchment_id()</text>
</a>
</g>
</g>
<!-- Node3&#45;&gt;Node1 -->
<g id="edge2" class="edge">
<title>Node3&#45;&gt;Node1</title>
<path fill="none" stroke="midnightblue" d="M145.4,-129.15C141.22,-119.78 137.04,-110.39 133.09,-101.55"/>
<polygon fill="none" stroke="midnightblue" points="142.3,-130.79 149.57,-138.5 148.69,-127.94 142.3,-130.79"/>
</g>
</g>
</svg>
