<?xml version="1.0" encoding="UTF-8" standalone="no"?>
<!DOCTYPE svg PUBLIC "-//W3C//DTD SVG 1.1//EN"
 "http://www.w3.org/Graphics/SVG/1.1/DTD/svg11.dtd">
<!-- Generated by graphviz version 3.0.0 (20220413.0106)
 -->
<!-- Title: data_access::WrappedForcingProvider Pages: 1 -->
<!--zoomable 811 -->
<svg id="main" version="1.1" xmlns="http://www.w3.org/2000/svg" xmlns:xlink="http://www.w3.org/1999/xlink" xml:space="preserve" onload="init(evt)">
<style type="text/css"><![CDATA[
.edge:hover path { stroke: red; }
.edge:hover polygon { stroke: red; fill: red; }
]]></style>
<script type="text/javascript"><![CDATA[
var edges = document.getElementsByTagName('g');
if (edges && edges.length) {
  for (var i=0;i<edges.length;i++) {
    if (edges[i].id.substr(0,4)=='edge') {
      edges[i].setAttribute('class','edge');
    }
  }
}
]]></script>
        <defs>
                <circle id="rim" cx="0" cy="0" r="7"/>
                <circle id="rim2" cx="0" cy="0" r="3.5"/>
                <g id="zoomPlus">
                        <use xlink:href="#rim" fill="#404040">
                                <set attributeName="fill" to="#808080" begin="zoomplus.mouseover" end="zoomplus.mouseout"/>
                        </use>
                        <path d="M-4,0h8M0,-4v8" fill="none" stroke="white" stroke-width="1.5" pointer-events="none"/>
                </g>
                <g id="zoomMin">
                        <use xlink:href="#rim" fill="#404040">
                                <set attributeName="fill" to="#808080" begin="zoomminus.mouseover" end="zoomminus.mouseout"/>
                        </use>
                        <path d="M-4,0h8" fill="none" stroke="white" stroke-width="1.5" pointer-events="none"/>
                </g>
                <g id="dirArrow">
                        <path fill="none" stroke="white" stroke-width="1.5" d="M0,-3.0v7 M-2.5,-0.5L0,-3.0L2.5,-0.5"/>
                </g>
               <g id="resetDef">
                       <use xlink:href="#rim2" fill="#404040">
                               <set attributeName="fill" to="#808080" begin="reset.mouseover" end="reset.mouseout"/>
                       </use>
               </g>
        </defs>

<script type="text/javascript">
var viewWidth = 237;
var viewHeight = 811;
var sectionId = 'dynsection-1';
</script>
<script xlink:href="svgpan.js"/>
<svg id="graph" class="graph">
<g id="viewport">
<title>data_access::WrappedForcingProvider</title>
<polygon fill="white" stroke="transparent" points="-4,4 -4,-807 232.5,-807 232.5,4 -4,4"/>
<!-- Node1 -->
<g id="node1" class="node">
<title>Node1</title>
<g id="a_node1"><a xlink:title="Simple implementation that basically wraps another instance.">
<polygon fill="#bfbfbf" stroke="black" points="22,-0.5 22,-255.5 169,-255.5 169,-0.5 22,-0.5"/>
<text text-anchor="start" x="30" y="-243.5" font-family="Helvetica,sans-Serif" font-size="10.00">data_access::WrappedForcing</text>
<text text-anchor="middle" x="95.5" y="-232.5" font-family="Helvetica,sans-Serif" font-size="10.00">Provider</text>
<polyline fill="none" stroke="black" points="22,-225.5 169,-225.5 "/>
<text text-anchor="middle" x="95.5" y="-213.5" font-family="Helvetica,sans-Serif" font-size="10.00"> </text>
<polyline fill="none" stroke="black" points="22,-206.5 169,-206.5 "/>
<text text-anchor="start" x="30" y="-194.5" font-family="Helvetica,sans-Serif" font-size="10.00">+ WrappedForcingProvider()</text>
<text text-anchor="start" x="30" y="-183.5" font-family="Helvetica,sans-Serif" font-size="10.00">+ WrappedForcingProvider()</text>
<text text-anchor="start" x="30" y="-172.5" font-family="Helvetica,sans-Serif" font-size="10.00">+ WrappedForcingProvider()</text>
<text text-anchor="start" x="30" y="-161.5" font-family="Helvetica,sans-Serif" font-size="10.00">+ get_available_forcing</text>
<text text-anchor="start" x="30" y="-150.5" font-family="Helvetica,sans-Serif" font-size="10.00">_outputs()</text>
<text text-anchor="start" x="30" y="-139.5" font-family="Helvetica,sans-Serif" font-size="10.00">+ get_avaliable_variable</text>
<text text-anchor="start" x="30" y="-128.5" font-family="Helvetica,sans-Serif" font-size="10.00">_names()</text>
<text text-anchor="start" x="30" y="-117.5" font-family="Helvetica,sans-Serif" font-size="10.00">+ get_forcing_output</text>
<text text-anchor="start" x="30" y="-106.5" font-family="Helvetica,sans-Serif" font-size="10.00">_time_begin()</text>
<text text-anchor="start" x="30" y="-95.5" font-family="Helvetica,sans-Serif" font-size="10.00">+ get_data_start_time()</text>
<text text-anchor="start" x="30" y="-84.5" font-family="Helvetica,sans-Serif" font-size="10.00">+ get_forcing_output</text>
<text text-anchor="start" x="30" y="-73.5" font-family="Helvetica,sans-Serif" font-size="10.00">_time_end()</text>
<text text-anchor="start" x="30" y="-62.5" font-family="Helvetica,sans-Serif" font-size="10.00">+ get_data_stop_time()</text>
<text text-anchor="start" x="30" y="-51.5" font-family="Helvetica,sans-Serif" font-size="10.00">+ record_duration()</text>
<text text-anchor="start" x="30" y="-40.5" font-family="Helvetica,sans-Serif" font-size="10.00">+ get_ts_index_for_time()</text>
<text text-anchor="start" x="30" y="-29.5" font-family="Helvetica,sans-Serif" font-size="10.00">+ get_value()</text>
<text text-anchor="start" x="30" y="-18.5" font-family="Helvetica,sans-Serif" font-size="10.00">+ is_property_sum_over</text>
<text text-anchor="start" x="30" y="-7.5" font-family="Helvetica,sans-Serif" font-size="10.00">_time_step()</text>
</a>
</g>
</g>
<!-- Node2 -->
<g id="node2" class="node">
<title>Node2</title>
<g id="a_node2"><a xlink:href="classdata__access_1_1_generic_data_provider.html" target="_top" xlink:title=" ">
<polygon fill="white" stroke="black" points="30,-303.5 30,-371.5 161,-371.5 161,-303.5 30,-303.5"/>
<text text-anchor="start" x="38" y="-359.5" font-family="Helvetica,sans-Serif" font-size="10.00">data_access::GenericData</text>
<text text-anchor="middle" x="95.5" y="-348.5" font-family="Helvetica,sans-Serif" font-size="10.00">Provider</text>
<polyline fill="none" stroke="black" points="30,-341.5 161,-341.5 "/>
<text text-anchor="middle" x="95.5" y="-329.5" font-family="Helvetica,sans-Serif" font-size="10.00"> </text>
<polyline fill="none" stroke="black" points="30,-322.5 161,-322.5 "/>
<text text-anchor="middle" x="95.5" y="-310.5" font-family="Helvetica,sans-Serif" font-size="10.00"> </text>
</a>
</g>
</g>
<!-- Node2&#45;&gt;Node1 -->
<g id="edge1" class="edge">
<title>Node2&#45;&gt;Node1</title>
<path fill="none" stroke="midnightblue" d="M93.7,-293.2C93.62,-290.43 93.55,-287.68 93.5,-285 93.32,-275.52 93.22,-265.72 93.19,-255.86"/>
<polygon fill="none" stroke="midnightblue" points="90.2,-293.38 94.02,-303.26 97.2,-293.15 90.2,-293.38"/>
</g>
<!-- Node2&#45;&gt;Node1 -->
<g id="edge4" class="edge">
<title>Node2&#45;&gt;Node1</title>
<path fill="none" stroke="#404040" d="M95.5,-303.16C95.5,-292.81 95.5,-280.69 95.5,-267.75"/>
<polygon fill="none" stroke="#404040" points="95.5,-267.66 91.5,-261.66 95.5,-255.66 99.5,-261.66 95.5,-267.66"/>
<text text-anchor="middle" x="138" y="-277" font-family="Helvetica,sans-Serif" font-size="10.00"> #wrapped_provider</text>
</g>
<!-- Node3 -->
<g id="node3" class="node">
<title>Node3</title>
<g id="a_node3"><a xlink:href="classdata__access_1_1_data_provider.html" target="_top" xlink:title=" ">
<polygon fill="white" stroke="black" points="0,-409.5 0,-576.5 191,-576.5 191,-409.5 0,-409.5"/>
<text text-anchor="start" x="8" y="-564.5" font-family="Helvetica,sans-Serif" font-size="10.00">data_access::DataProvider</text>
<text text-anchor="middle" x="95.5" y="-553.5" font-family="Helvetica,sans-Serif" font-size="10.00">&lt; double, CatchmentAggrDataSelector &gt;</text>
<polyline fill="none" stroke="black" points="0,-546.5 191,-546.5 "/>
<text text-anchor="middle" x="95.5" y="-534.5" font-family="Helvetica,sans-Serif" font-size="10.00"> </text>
<polyline fill="none" stroke="black" points="0,-527.5 191,-527.5 "/>
<text text-anchor="start" x="8" y="-515.5" font-family="Helvetica,sans-Serif" font-size="10.00">+ ~DataProvider()</text>
<text text-anchor="start" x="8" y="-504.5" font-family="Helvetica,sans-Serif" font-size="10.00">+ get_avaliable_variable</text>
<text text-anchor="start" x="8" y="-493.5" font-family="Helvetica,sans-Serif" font-size="10.00">_names()</text>
<text text-anchor="start" x="8" y="-482.5" font-family="Helvetica,sans-Serif" font-size="10.00">+ get_data_start_time()</text>
<text text-anchor="start" x="8" y="-471.5" font-family="Helvetica,sans-Serif" font-size="10.00">+ get_data_stop_time()</text>
<text text-anchor="start" x="8" y="-460.5" font-family="Helvetica,sans-Serif" font-size="10.00">+ record_duration()</text>
<text text-anchor="start" x="8" y="-449.5" font-family="Helvetica,sans-Serif" font-size="10.00">+ get_ts_index_for_time()</text>
<text text-anchor="start" x="8" y="-438.5" font-family="Helvetica,sans-Serif" font-size="10.00">+ get_value()</text>
<text text-anchor="start" x="8" y="-427.5" font-family="Helvetica,sans-Serif" font-size="10.00">+ is_property_sum_over</text>
<text text-anchor="start" x="8" y="-416.5" font-family="Helvetica,sans-Serif" font-size="10.00">_time_step()</text>
</a>
</g>
</g>
<!-- Node3&#45;&gt;Node2 -->
<g id="edge2" class="edge">
<title>Node3&#45;&gt;Node2</title>
<path fill="none" stroke="midnightblue" d="M95.5,-399.17C95.5,-389.44 95.5,-380.07 95.5,-371.72"/>
<polygon fill="none" stroke="midnightblue" points="92,-399.41 95.5,-409.41 99,-399.41 92,-399.41"/>
</g>
<!-- Node4 -->
<g id="node4" class="node">
<title>Node4</title>
<g id="a_node4"><a xlink:href="classdata__access_1_1_data_provider.html" target="_top" xlink:title=" ">
<polygon fill="white" stroke="black" points="24,-635.5 24,-802.5 167,-802.5 167,-635.5 24,-635.5"/>
<text text-anchor="start" x="32" y="-790.5" font-family="Helvetica,sans-Serif" font-size="10.00">data_access::DataProvider</text>
<text text-anchor="middle" x="95.5" y="-779.5" font-family="Helvetica,sans-Serif" font-size="10.00">&lt; data_type, selection_type &gt;</text>
<polyline fill="none" stroke="black" points="24,-772.5 167,-772.5 "/>
<text text-anchor="middle" x="95.5" y="-760.5" font-family="Helvetica,sans-Serif" font-size="10.00"> </text>
<polyline fill="none" stroke="black" points="24,-753.5 167,-753.5 "/>
<text text-anchor="start" x="32" y="-741.5" font-family="Helvetica,sans-Serif" font-size="10.00">+ ~DataProvider()</text>
<text text-anchor="start" x="32" y="-730.5" font-family="Helvetica,sans-Serif" font-size="10.00">+ get_avaliable_variable</text>
<text text-anchor="start" x="32" y="-719.5" font-family="Helvetica,sans-Serif" font-size="10.00">_names()</text>
<text text-anchor="start" x="32" y="-708.5" font-family="Helvetica,sans-Serif" font-size="10.00">+ get_data_start_time()</text>
<text text-anchor="start" x="32" y="-697.5" font-family="Helvetica,sans-Serif" font-size="10.00">+ get_data_stop_time()</text>
<text text-anchor="start" x="32" y="-686.5" font-family="Helvetica,sans-Serif" font-size="10.00">+ record_duration()</text>
<text text-anchor="start" x="32" y="-675.5" font-family="Helvetica,sans-Serif" font-size="10.00">+ get_ts_index_for_time()</text>
<text text-anchor="start" x="32" y="-664.5" font-family="Helvetica,sans-Serif" font-size="10.00">+ get_value()</text>
<text text-anchor="start" x="32" y="-653.5" font-family="Helvetica,sans-Serif" font-size="10.00">+ is_property_sum_over</text>
<text text-anchor="start" x="32" y="-642.5" font-family="Helvetica,sans-Serif" font-size="10.00">_time_step()</text>
</a>
</g>
</g>
<!-- Node4&#45;&gt;Node3 -->
<g id="edge3" class="edge">
<title>Node4&#45;&gt;Node3</title>
<path fill="none" stroke="orange" d="M95.5,-624.84C95.5,-608.91 95.5,-592.45 95.5,-576.81"/>
<polygon fill="orange" stroke="orange" points="92,-625.23 95.5,-635.23 99,-625.23 92,-625.23"/>
<text text-anchor="start" x="95.5" y="-609" font-family="Helvetica,sans-Serif" font-size="10.00"> &lt; double, CatchmentAggrData</text>
<text text-anchor="middle" x="162" y="-598" font-family="Helvetica,sans-Serif" font-size="10.00">Selector &gt;</text>
</g>
</g>
</svg>
        <g id="navigator" transform="translate(0 0)" fill="#404254">
                <rect fill="#f2f5e9" fill-opacity="0.5" stroke="#606060" stroke-width=".5" x="0" y="0" width="60" height="60"/>
                <use id="zoomplus" xlink:href="#zoomPlus" x="17" y="9" onmousedown="handleZoom(evt,'in')"/>
                <use id="zoomminus" xlink:href="#zoomMin" x="42" y="9" onmousedown="handleZoom(evt,'out')"/>
                <use id="reset" xlink:href="#resetDef" x="30" y="36" onmousedown="handleReset()"/>
                <g id="arrowUp" xlink:href="#dirArrow" transform="translate(30 24)" onmousedown="handlePan(0,-1)">
                  <use xlink:href="#rim" fill="#404040">
                        <set attributeName="fill" to="#808080" begin="arrowUp.mouseover" end="arrowUp.mouseout"/>
                  </use>
                  <path fill="none" stroke="white" stroke-width="1.5" d="M0,-3.0v7 M-2.5,-0.5L0,-3.0L2.5,-0.5"/>
                </g>
                <g id="arrowRight" xlink:href="#dirArrow" transform="rotate(90) translate(36 -43)" onmousedown="handlePan(1,0)">
                  <use xlink:href="#rim" fill="#404040">
                        <set attributeName="fill" to="#808080" begin="arrowRight.mouseover" end="arrowRight.mouseout"/>
                  </use>
                  <path fill="none" stroke="white" stroke-width="1.5" d="M0,-3.0v7 M-2.5,-0.5L0,-3.0L2.5,-0.5"/>
                </g>
                <g id="arrowDown" xlink:href="#dirArrow" transform="rotate(180) translate(-30 -48)" onmousedown="handlePan(0,1)">
                  <use xlink:href="#rim" fill="#404040">
                        <set attributeName="fill" to="#808080" begin="arrowDown.mouseover" end="arrowDown.mouseout"/>
                  </use>
                  <path fill="none" stroke="white" stroke-width="1.5" d="M0,-3.0v7 M-2.5,-0.5L0,-3.0L2.5,-0.5"/>
                </g>
                <g id="arrowLeft" xlink:href="#dirArrow" transform="rotate(270) translate(-36 17)" onmousedown="handlePan(-1,0)">
                  <use xlink:href="#rim" fill="#404040">
                        <set attributeName="fill" to="#808080" begin="arrowLeft.mouseover" end="arrowLeft.mouseout"/>
                  </use>
                  <path fill="none" stroke="white" stroke-width="1.5" d="M0,-3.0v7 M-2.5,-0.5L0,-3.0L2.5,-0.5"/>
                </g>
        </g>
        <svg viewBox="0 0 15 15" width="100%" height="30px" preserveAspectRatio="xMaxYMin meet">
         <g id="arrow_out" transform="scale(0.3 0.3)">
          <a xlink:href="classdata__access_1_1_wrapped_forcing_provider__coll__graph_org.svg" target="_base">
           <rect id="button" ry="5" rx="5" y="6" x="6" height="38" width="38"
                fill="#f2f5e9" fill-opacity="0.5" stroke="#606060" stroke-width="1.0"/>
           <path id="arrow"
             d="M 11.500037,31.436501 C 11.940474,20.09759 22.043105,11.32322 32.158766,21.979434 L 37.068811,17.246167 C 37.068811,17.246167 37.088388,32 37.088388,32 L 22.160133,31.978069 C 22.160133,31.978069 26.997745,27.140456 26.997745,27.140456 C 18.528582,18.264221 13.291696,25.230495 11.500037,31.436501 z"
             style="fill:#404040;"/>
          </a>
         </g>
        </svg>
</svg>
