<?xml version="1.0" encoding="UTF-8" standalone="no"?>
<!DOCTYPE svg PUBLIC "-//W3C//DTD SVG 1.1//EN"
 "http://www.w3.org/Graphics/SVG/1.1/DTD/svg11.dtd">
<!-- Generated by graphviz version 3.0.0 (20221109.1736)
 -->
<!-- Title: giuh::giuh_kernel_impl Pages: 1 -->
<!--zoomable 755 -->
<svg id="main" version="1.1" xmlns="http://www.w3.org/2000/svg" xmlns:xlink="http://www.w3.org/1999/xlink" xml:space="preserve" onload="init(evt)">
<style type="text/css"><![CDATA[
.edge:hover path { stroke: red; }
.edge:hover polygon { stroke: red; fill: red; }
]]></style>
<script type="text/javascript"><![CDATA[
var edges = document.getElementsByTagName('g');
if (edges && edges.length) {
  for (var i=0;i<edges.length;i++) {
    if (edges[i].id.substr(0,4)=='edge') {
      edges[i].setAttribute('class','edge');
    }
  }
}
]]></script>
        <defs>
                <circle id="rim" cx="0" cy="0" r="7"/>
                <circle id="rim2" cx="0" cy="0" r="3.5"/>
                <g id="zoomPlus">
                        <use xlink:href="#rim" fill="#404040">
                                <set attributeName="fill" to="#808080" begin="zoomplus.mouseover" end="zoomplus.mouseout"/>
                        </use>
                        <path d="M-4,0h8M0,-4v8" fill="none" stroke="white" stroke-width="1.5" pointer-events="none"/>
                </g>
                <g id="zoomMin">
                        <use xlink:href="#rim" fill="#404040">
                                <set attributeName="fill" to="#808080" begin="zoomminus.mouseover" end="zoomminus.mouseout"/>
                        </use>
                        <path d="M-4,0h8" fill="none" stroke="white" stroke-width="1.5" pointer-events="none"/>
                </g>
                <g id="dirArrow">
                        <path fill="none" stroke="white" stroke-width="1.5" d="M0,-3.0v7 M-2.5,-0.5L0,-3.0L2.5,-0.5"/>
                </g>
               <g id="resetDef">
                       <use xlink:href="#rim2" fill="#404040">
                               <set attributeName="fill" to="#808080" begin="reset.mouseover" end="reset.mouseout"/>
                       </use>
               </g>
        </defs>

<script type="text/javascript">
var viewWidth = 646;
var viewHeight = 755;
var sectionId = 'dynsection-1';
</script>
<script xlink:href="svgpan.js"/>
<svg id="graph" class="graph">
<g id="viewport">
<title>giuh::giuh_kernel_impl</title>
<polygon fill="white" stroke="transparent" points="-4,4 -4,-751 642,-751 642,4 -4,4"/>
<!-- Node1 -->
<g id="node1" class="node">
<title>Node1</title>
<g id="a_node1"><a xlink:title="A concrete implementation of a GIUH calculation kernel.">
<polygon fill="#bfbfbf" stroke="black" points="168,-0.5 168,-211.5 317,-211.5 317,-0.5 168,-0.5"/>
<text text-anchor="middle" x="242.5" y="-199.5" font-family="Helvetica,sans-Serif" font-size="10.00">giuh::giuh_kernel_impl</text>
<polyline fill="none" stroke="black" points="168,-192.5 317,-192.5 "/>
<text text-anchor="middle" x="242.5" y="-180.5" font-family="Helvetica,sans-Serif" font-size="10.00"> </text>
<polyline fill="none" stroke="black" points="168,-173.5 317,-173.5 "/>
<text text-anchor="start" x="176" y="-161.5" font-family="Helvetica,sans-Serif" font-size="10.00">+ giuh_kernel_impl()</text>
<text text-anchor="start" x="176" y="-150.5" font-family="Helvetica,sans-Serif" font-size="10.00">+ giuh_kernel_impl()</text>
<text text-anchor="start" x="176" y="-139.5" font-family="Helvetica,sans-Serif" font-size="10.00">+ ~giuh_kernel_impl()</text>
<text text-anchor="start" x="176" y="-128.5" font-family="Helvetica,sans-Serif" font-size="10.00">+ calc_giuh_output()</text>
<text text-anchor="start" x="176" y="-117.5" font-family="Helvetica,sans-Serif" font-size="10.00">+ get_interpolated_incremental</text>
<text text-anchor="start" x="176" y="-106.5" font-family="Helvetica,sans-Serif" font-size="10.00">_runoff()</text>
<text text-anchor="start" x="176" y="-95.5" font-family="Helvetica,sans-Serif" font-size="10.00">+ get_regularized_times_s()</text>
<text text-anchor="start" x="176" y="-84.5" font-family="Helvetica,sans-Serif" font-size="10.00">+ get_interpolated_regularized</text>
<text text-anchor="start" x="176" y="-73.5" font-family="Helvetica,sans-Serif" font-size="10.00">_cdf()</text>
<text text-anchor="start" x="176" y="-62.5" font-family="Helvetica,sans-Serif" font-size="10.00">+ set_interpolation_regularity</text>
<text text-anchor="start" x="176" y="-51.5" font-family="Helvetica,sans-Serif" font-size="10.00">_seconds()</text>
<text text-anchor="start" x="176" y="-40.5" font-family="Helvetica,sans-Serif" font-size="10.00">+ make_from_incremental</text>
<text text-anchor="start" x="176" y="-29.5" font-family="Helvetica,sans-Serif" font-size="10.00">_runoffs()</text>
<text text-anchor="start" x="176" y="-18.5" font-family="Helvetica,sans-Serif" font-size="10.00">&#45; interpolate_regularized</text>
<text text-anchor="start" x="176" y="-7.5" font-family="Helvetica,sans-Serif" font-size="10.00">_cdf()</text>
</a>
</g>
</g>
<!-- Node2 -->
<g id="node2" class="node">
<title>Node2</title>
<g id="a_node2"><a xlink:href="classgiuh_1_1giuh__kernel.html" target="_top" xlink:title="Pseudo&#45;abstract class declaring the interface for a GIUH calculation kernel for a catchment.">
<polygon fill="white" stroke="black" points="0,-303.5 0,-514.5 149,-514.5 149,-303.5 0,-303.5"/>
<text text-anchor="middle" x="74.5" y="-502.5" font-family="Helvetica,sans-Serif" font-size="10.00">giuh::giuh_kernel</text>
<polyline fill="none" stroke="black" points="0,-495.5 149,-495.5 "/>
<text text-anchor="start" x="8" y="-483.5" font-family="Helvetica,sans-Serif" font-size="10.00">&#45; interpolation_regularity</text>
<text text-anchor="start" x="8" y="-472.5" font-family="Helvetica,sans-Serif" font-size="10.00">_seconds</text>
<polyline fill="none" stroke="black" points="0,-465.5 149,-465.5 "/>
<text text-anchor="start" x="8" y="-453.5" font-family="Helvetica,sans-Serif" font-size="10.00">+ giuh_kernel()</text>
<text text-anchor="start" x="8" y="-442.5" font-family="Helvetica,sans-Serif" font-size="10.00">+ giuh_kernel()</text>
<text text-anchor="start" x="8" y="-431.5" font-family="Helvetica,sans-Serif" font-size="10.00">+ calc_giuh_output()</text>
<text text-anchor="start" x="8" y="-420.5" font-family="Helvetica,sans-Serif" font-size="10.00">+ get_catchment_id()</text>
<text text-anchor="start" x="8" y="-409.5" font-family="Helvetica,sans-Serif" font-size="10.00">+ get_comid()</text>
<text text-anchor="start" x="8" y="-398.5" font-family="Helvetica,sans-Serif" font-size="10.00">+ get_regularized_times_s()</text>
<text text-anchor="start" x="8" y="-387.5" font-family="Helvetica,sans-Serif" font-size="10.00">+ get_interpolation_regularity</text>
<text text-anchor="start" x="8" y="-376.5" font-family="Helvetica,sans-Serif" font-size="10.00">_seconds()</text>
<text text-anchor="start" x="8" y="-365.5" font-family="Helvetica,sans-Serif" font-size="10.00">+ get_interpolated_incremental</text>
<text text-anchor="start" x="8" y="-354.5" font-family="Helvetica,sans-Serif" font-size="10.00">_runoff()</text>
<text text-anchor="start" x="8" y="-343.5" font-family="Helvetica,sans-Serif" font-size="10.00">+ get_interpolated_regularized</text>
<text text-anchor="start" x="8" y="-332.5" font-family="Helvetica,sans-Serif" font-size="10.00">_cdf()</text>
<text text-anchor="start" x="8" y="-321.5" font-family="Helvetica,sans-Serif" font-size="10.00">+ set_interpolation_regularity</text>
<text text-anchor="start" x="8" y="-310.5" font-family="Helvetica,sans-Serif" font-size="10.00">_seconds()</text>
</a>
</g>
</g>
<!-- Node2&#45;&gt;Node1 -->
<g id="edge1" class="edge">
<title>Node2&#45;&gt;Node1</title>
<path fill="none" stroke="midnightblue" d="M127.47,-294.11C138.25,-272.56 149.87,-250.39 161.5,-230 164.92,-224 168.52,-217.9 172.23,-211.79"/>
<polygon fill="none" stroke="midnightblue" points="124.22,-292.79 122.91,-303.3 130.49,-295.9 124.22,-292.79"/>
</g>
<!-- Node3 -->
<g id="node3" class="node">
<title>Node3</title>
<g id="a_node3"><a xlink:title=" ">
<polygon fill="white" stroke="black" points="45,-573.5 45,-630.5 104,-630.5 104,-573.5 45,-573.5"/>
<text text-anchor="middle" x="74.5" y="-618.5" font-family="Helvetica,sans-Serif" font-size="10.00">std::string</text>
<polyline fill="none" stroke="black" points="45,-611.5 104,-611.5 "/>
<text text-anchor="middle" x="74.5" y="-599.5" font-family="Helvetica,sans-Serif" font-size="10.00"> </text>
<polyline fill="none" stroke="black" points="45,-592.5 104,-592.5 "/>
<text text-anchor="middle" x="74.5" y="-580.5" font-family="Helvetica,sans-Serif" font-size="10.00"> </text>
</a>
</g>
</g>
<!-- Node3&#45;&gt;Node2 -->
<g id="edge2" class="edge">
<title>Node3&#45;&gt;Node2</title>
<path fill="none" stroke="#404040" d="M74.5,-573.23C74.5,-560.37 74.5,-544.13 74.5,-526.91"/>
<polygon fill="none" stroke="#404040" points="74.5,-526.86 70.5,-520.86 74.5,-514.86 78.5,-520.86 74.5,-526.86"/>
<text text-anchor="middle" x="108" y="-547" font-family="Helvetica,sans-Serif" font-size="10.00"> #catchment_id</text>
<text text-anchor="middle" x="108" y="-536" font-family="Helvetica,sans-Serif" font-size="10.00">#comid</text>
</g>
<!-- Node4 -->
<g id="node4" class="node">
<title>Node4</title>
<g id="a_node4"><a xlink:title=" ">
<polygon fill="white" stroke="black" points="28,-678.5 28,-746.5 121,-746.5 121,-678.5 28,-678.5"/>
<text text-anchor="start" x="36" y="-734.5" font-family="Helvetica,sans-Serif" font-size="10.00">std::basic_string&lt;</text>
<text text-anchor="middle" x="74.5" y="-723.5" font-family="Helvetica,sans-Serif" font-size="10.00"> Char &gt;</text>
<polyline fill="none" stroke="black" points="28,-716.5 121,-716.5 "/>
<text text-anchor="middle" x="74.5" y="-704.5" font-family="Helvetica,sans-Serif" font-size="10.00"> </text>
<polyline fill="none" stroke="black" points="28,-697.5 121,-697.5 "/>
<text text-anchor="middle" x="74.5" y="-685.5" font-family="Helvetica,sans-Serif" font-size="10.00"> </text>
</a>
</g>
</g>
<!-- Node4&#45;&gt;Node3 -->
<g id="edge3" class="edge">
<title>Node4&#45;&gt;Node3</title>
<path fill="none" stroke="midnightblue" d="M74.5,-668.06C74.5,-655.51 74.5,-642.15 74.5,-630.83"/>
<polygon fill="none" stroke="midnightblue" points="71,-668.36 74.5,-678.36 78,-668.36 71,-668.36"/>
</g>
<!-- Node5 -->
<g id="node5" class="node">
<title>Node5</title>
<g id="a_node5"><a xlink:title=" ">
<polygon fill="white" stroke="black" points="167,-380.5 167,-437.5 274,-437.5 274,-380.5 167,-380.5"/>
<text text-anchor="middle" x="220.5" y="-425.5" font-family="Helvetica,sans-Serif" font-size="10.00">std::vector&lt; double &gt;</text>
<polyline fill="none" stroke="black" points="167,-418.5 274,-418.5 "/>
<text text-anchor="start" x="175" y="-406.5" font-family="Helvetica,sans-Serif" font-size="10.00">+ elements</text>
<polyline fill="none" stroke="black" points="167,-399.5 274,-399.5 "/>
<text text-anchor="middle" x="220.5" y="-387.5" font-family="Helvetica,sans-Serif" font-size="10.00"> </text>
</a>
</g>
</g>
<!-- Node5&#45;&gt;Node1 -->
<g id="edge4" class="edge">
<title>Node5&#45;&gt;Node1</title>
<path fill="none" stroke="#404040" d="M202.9,-380.31C182.92,-345.34 154.87,-283.32 169.5,-230 170.13,-227.71 170.81,-225.42 171.54,-223.13"/>
<polygon fill="none" stroke="#404040" points="171.58,-223.04 169.82,-216.04 175.6,-211.73 177.36,-218.72 171.58,-223.04"/>
<text text-anchor="middle" x="231.5" y="-277" font-family="Helvetica,sans-Serif" font-size="10.00"> &#45;cdf_cumulative_freqs</text>
<text text-anchor="middle" x="231.5" y="-266" font-family="Helvetica,sans-Serif" font-size="10.00">&#45;cdf_times</text>
<text text-anchor="start" x="169.5" y="-255" font-family="Helvetica,sans-Serif" font-size="10.00">&#45;interpolated_incremental</text>
<text text-anchor="middle" x="231.5" y="-244" font-family="Helvetica,sans-Serif" font-size="10.00">_runoff</text>
<text text-anchor="middle" x="231.5" y="-233" font-family="Helvetica,sans-Serif" font-size="10.00">&#45;interpolated_regularized_cdf</text>
</g>
<!-- Node6 -->
<g id="node6" class="node">
<title>Node6</title>
<g id="a_node6"><a xlink:title=" ">
<polygon fill="white" stroke="black" points="294.5,-573.5 294.5,-630.5 378.5,-630.5 378.5,-573.5 294.5,-573.5"/>
<text text-anchor="middle" x="336.5" y="-618.5" font-family="Helvetica,sans-Serif" font-size="10.00">std::vector&lt; T &gt;</text>
<polyline fill="none" stroke="black" points="294.5,-611.5 378.5,-611.5 "/>
<text text-anchor="middle" x="336.5" y="-599.5" font-family="Helvetica,sans-Serif" font-size="10.00"> </text>
<polyline fill="none" stroke="black" points="294.5,-592.5 378.5,-592.5 "/>
<text text-anchor="middle" x="336.5" y="-580.5" font-family="Helvetica,sans-Serif" font-size="10.00"> </text>
</a>
</g>
</g>
<!-- Node6&#45;&gt;Node5 -->
<g id="edge5" class="edge">
<title>Node6&#45;&gt;Node5</title>
<path fill="none" stroke="orange" d="M293.93,-566.27C290.53,-562.65 287.33,-558.87 284.5,-555 257.63,-518.23 238.75,-468.4 228.77,-437.77"/>
<polygon fill="orange" stroke="orange" points="291.57,-568.86 301.11,-573.46 296.52,-563.92 291.57,-568.86"/>
<text text-anchor="middle" x="308.5" y="-541.5" font-family="Helvetica,sans-Serif" font-size="10.00"> &lt; double &gt;</text>
</g>
<!-- Node8 -->
<g id="node8" class="node">
<title>Node8</title>
<g id="a_node8"><a xlink:title=" ">
<polygon fill="white" stroke="black" points="292,-380.5 292,-437.5 381,-437.5 381,-380.5 292,-380.5"/>
<text text-anchor="middle" x="336.5" y="-425.5" font-family="Helvetica,sans-Serif" font-size="10.00">std::vector&lt; int &gt;</text>
<polyline fill="none" stroke="black" points="292,-418.5 381,-418.5 "/>
<text text-anchor="start" x="300" y="-406.5" font-family="Helvetica,sans-Serif" font-size="10.00">+ elements</text>
<polyline fill="none" stroke="black" points="292,-399.5 381,-399.5 "/>
<text text-anchor="middle" x="336.5" y="-387.5" font-family="Helvetica,sans-Serif" font-size="10.00"> </text>
</a>
</g>
</g>
<!-- Node6&#45;&gt;Node8 -->
<g id="edge8" class="edge">
<title>Node6&#45;&gt;Node8</title>
<path fill="none" stroke="orange" d="M336.5,-562.86C336.5,-525.91 336.5,-470.78 336.5,-437.81"/>
<polygon fill="orange" stroke="orange" points="333,-563.23 336.5,-573.23 340,-563.23 333,-563.23"/>
<text text-anchor="middle" x="351.5" y="-541.5" font-family="Helvetica,sans-Serif" font-size="10.00"> &lt; int &gt;</text>
</g>
<!-- Node7 -->
<g id="node7" class="node">
<title>Node7</title>
<g id="a_node7"><a xlink:title=" ">
<polygon fill="white" stroke="black" points="369,-684 369,-741 398,-741 398,-684 369,-684"/>
<text text-anchor="middle" x="383.5" y="-729" font-family="Helvetica,sans-Serif" font-size="10.00">T</text>
<polyline fill="none" stroke="black" points="369,-722 398,-722 "/>
<text text-anchor="middle" x="383.5" y="-710" font-family="Helvetica,sans-Serif" font-size="10.00"> </text>
<polyline fill="none" stroke="black" points="369,-703 398,-703 "/>
<text text-anchor="middle" x="383.5" y="-691" font-family="Helvetica,sans-Serif" font-size="10.00"> </text>
</a>
</g>
</g>
<!-- Node7&#45;&gt;Node6 -->
<g id="edge6" class="edge">
<title>Node7&#45;&gt;Node6</title>
<path fill="none" stroke="#404040" d="M371.52,-683.84C365.99,-671.09 359.34,-655.73 353.32,-641.84"/>
<polygon fill="none" stroke="#404040" points="353.23,-641.62 347.17,-637.7 348.46,-630.61 354.52,-634.53 353.23,-641.62"/>
<text text-anchor="middle" x="385" y="-652" font-family="Helvetica,sans-Serif" font-size="10.00"> +elements</text>
</g>
<!-- Node11 -->
<g id="node11" class="node">
<title>Node11</title>
<g id="a_node11"><a xlink:title=" ">
<polygon fill="white" stroke="black" points="399,-573.5 399,-630.5 502,-630.5 502,-573.5 399,-573.5"/>
<text text-anchor="middle" x="450.5" y="-618.5" font-family="Helvetica,sans-Serif" font-size="10.00">std::shared_ptr&lt; T &gt;</text>
<polyline fill="none" stroke="black" points="399,-611.5 502,-611.5 "/>
<text text-anchor="middle" x="450.5" y="-599.5" font-family="Helvetica,sans-Serif" font-size="10.00"> </text>
<polyline fill="none" stroke="black" points="399,-592.5 502,-592.5 "/>
<text text-anchor="start" x="407" y="-580.5" font-family="Helvetica,sans-Serif" font-size="10.00">+ operator&#45;&gt;()</text>
</a>
</g>
</g>
<!-- Node7&#45;&gt;Node11 -->
<g id="edge13" class="edge">
<title>Node7&#45;&gt;Node11</title>
<path fill="none" stroke="#404040" d="M398.04,-687.96C406.48,-674.28 417.32,-656.73 426.95,-641.13"/>
<polygon fill="none" stroke="#404040" points="427.08,-640.93 426.83,-633.72 433.38,-630.72 433.63,-637.93 427.08,-640.93"/>
<text text-anchor="middle" x="431.5" y="-652" font-family="Helvetica,sans-Serif" font-size="10.00"> +ptr</text>
</g>
<!-- Node8&#45;&gt;Node1 -->
<g id="edge7" class="edge">
<title>Node8&#45;&gt;Node1</title>
<path fill="none" stroke="#404040" d="M331.25,-380.49C324.19,-345.2 310.54,-282.29 293.5,-230 292.76,-227.73 292,-225.45 291.22,-223.15"/>
<polygon fill="none" stroke="#404040" points="291.14,-222.92 285.37,-218.59 287.15,-211.6 292.92,-215.93 291.14,-222.92"/>
<text text-anchor="middle" x="355.5" y="-255" font-family="Helvetica,sans-Serif" font-size="10.00"> &#45;regularized_times_s</text>
</g>
<!-- Node9 -->
<g id="node9" class="node">
<title>Node9</title>
<g id="a_node9"><a xlink:title=" ">
<polygon fill="white" stroke="black" points="439,-375 439,-443 546,-443 546,-375 439,-375"/>
<text text-anchor="start" x="447" y="-431" font-family="Helvetica,sans-Serif" font-size="10.00">std::shared_ptr&lt; giuh</text>
<text text-anchor="middle" x="492.5" y="-420" font-family="Helvetica,sans-Serif" font-size="10.00">::giuh_carry_over &gt;</text>
<polyline fill="none" stroke="black" points="439,-413 546,-413 "/>
<text text-anchor="middle" x="492.5" y="-401" font-family="Helvetica,sans-Serif" font-size="10.00"> </text>
<polyline fill="none" stroke="black" points="439,-394 546,-394 "/>
<text text-anchor="start" x="447" y="-382" font-family="Helvetica,sans-Serif" font-size="10.00">+ operator&#45;&gt;()</text>
</a>
</g>
</g>
<!-- Node9&#45;&gt;Node1 -->
<g id="edge9" class="edge">
<title>Node9&#45;&gt;Node1</title>
<path fill="none" stroke="#404040" d="M473.73,-374.81C460.2,-350.32 441.85,-316.02 427.5,-285 416.45,-261.11 421.48,-250.92 405.5,-230 384.22,-202.15 355.07,-177.47 327.3,-157.66"/>
<polygon fill="none" stroke="#404040" points="326.99,-157.45 319.78,-157.3 317.15,-150.59 324.36,-150.73 326.99,-157.45"/>
<text text-anchor="middle" x="477.5" y="-255" font-family="Helvetica,sans-Serif" font-size="10.00"> &#45;carry_overs_list_head</text>
</g>
<!-- Node10 -->
<g id="node10" class="node">
<title>Node10</title>
<g id="a_node10"><a xlink:href="structgiuh_1_1giuh__carry__over.html" target="_top" xlink:title=" ">
<polygon fill="white" stroke="black" points="519,-66.5 519,-145.5 638,-145.5 638,-66.5 519,-66.5"/>
<text text-anchor="middle" x="578.5" y="-133.5" font-family="Helvetica,sans-Serif" font-size="10.00">giuh::giuh_carry_over</text>
<polyline fill="none" stroke="black" points="519,-126.5 638,-126.5 "/>
<text text-anchor="start" x="527" y="-114.5" font-family="Helvetica,sans-Serif" font-size="10.00">+ original_input_amount</text>
<text text-anchor="start" x="527" y="-103.5" font-family="Helvetica,sans-Serif" font-size="10.00">+ last_outputted_cdf</text>
<text text-anchor="start" x="527" y="-92.5" font-family="Helvetica,sans-Serif" font-size="10.00">_index</text>
<polyline fill="none" stroke="black" points="519,-85.5 638,-85.5 "/>
<text text-anchor="start" x="527" y="-73.5" font-family="Helvetica,sans-Serif" font-size="10.00">+ giuh_carry_over()</text>
</a>
</g>
</g>
<!-- Node9&#45;&gt;Node10 -->
<g id="edge11" class="edge">
<title>Node9&#45;&gt;Node10</title>
<path fill="none" stroke="#404040" d="M503.45,-374.98C511.52,-350.3 522.6,-315.66 531.5,-285 543.9,-242.3 556.7,-193.45 565.8,-157.74"/>
<polygon fill="none" stroke="#404040" points="565.91,-157.32 563.51,-150.52 568.86,-145.69 571.26,-152.49 565.91,-157.32"/>
<text text-anchor="middle" x="560" y="-255" font-family="Helvetica,sans-Serif" font-size="10.00"> +next</text>
</g>
<!-- Node10&#45;&gt;Node9 -->
<g id="edge10" class="edge">
<title>Node10&#45;&gt;Node9</title>
<path fill="none" stroke="#404040" d="M586.21,-145.56C591.93,-182.35 596.45,-238.84 581.5,-285 571.8,-314.95 551.78,-343.73 533.18,-365.91"/>
<polygon fill="none" stroke="#404040" points="533.17,-365.91 532.28,-373.07 525.33,-374.99 526.22,-367.84 533.17,-365.91"/>
<text text-anchor="middle" x="600.5" y="-255" font-family="Helvetica,sans-Serif" font-size="10.00"> +ptr</text>
</g>
<!-- Node11&#45;&gt;Node9 -->
<g id="edge12" class="edge">
<title>Node11&#45;&gt;Node9</title>
<path fill="none" stroke="orange" d="M458.77,-563.39C466.46,-528.41 477.81,-476.78 485.18,-443.27"/>
<polygon fill="orange" stroke="orange" points="455.34,-562.71 456.61,-573.23 462.17,-564.21 455.34,-562.71"/>
<text text-anchor="start" x="465.5" y="-547" font-family="Helvetica,sans-Serif" font-size="10.00"> &lt; giuh::giuh_carry</text>
<text text-anchor="middle" x="504.5" y="-536" font-family="Helvetica,sans-Serif" font-size="10.00">_over &gt;</text>
</g>
</g>
</svg>
        <g id="navigator" transform="translate(0 0)" fill="#404254">
                <rect fill="#f2f5e9" fill-opacity="0.5" stroke="#606060" stroke-width=".5" x="0" y="0" width="60" height="60"/>
                <use id="zoomplus" xlink:href="#zoomPlus" x="17" y="9" onmousedown="handleZoom(evt,'in')"/>
                <use id="zoomminus" xlink:href="#zoomMin" x="42" y="9" onmousedown="handleZoom(evt,'out')"/>
                <use id="reset" xlink:href="#resetDef" x="30" y="36" onmousedown="handleReset()"/>
                <g id="arrowUp" xlink:href="#dirArrow" transform="translate(30 24)" onmousedown="handlePan(0,-1)">
                  <use xlink:href="#rim" fill="#404040">
                        <set attributeName="fill" to="#808080" begin="arrowUp.mouseover" end="arrowUp.mouseout"/>
                  </use>
                  <path fill="none" stroke="white" stroke-width="1.5" d="M0,-3.0v7 M-2.5,-0.5L0,-3.0L2.5,-0.5"/>
                </g>
                <g id="arrowRight" xlink:href="#dirArrow" transform="rotate(90) translate(36 -43)" onmousedown="handlePan(1,0)">
                  <use xlink:href="#rim" fill="#404040">
                        <set attributeName="fill" to="#808080" begin="arrowRight.mouseover" end="arrowRight.mouseout"/>
                  </use>
                  <path fill="none" stroke="white" stroke-width="1.5" d="M0,-3.0v7 M-2.5,-0.5L0,-3.0L2.5,-0.5"/>
                </g>
                <g id="arrowDown" xlink:href="#dirArrow" transform="rotate(180) translate(-30 -48)" onmousedown="handlePan(0,1)">
                  <use xlink:href="#rim" fill="#404040">
                        <set attributeName="fill" to="#808080" begin="arrowDown.mouseover" end="arrowDown.mouseout"/>
                  </use>
                  <path fill="none" stroke="white" stroke-width="1.5" d="M0,-3.0v7 M-2.5,-0.5L0,-3.0L2.5,-0.5"/>
                </g>
                <g id="arrowLeft" xlink:href="#dirArrow" transform="rotate(270) translate(-36 17)" onmousedown="handlePan(-1,0)">
                  <use xlink:href="#rim" fill="#404040">
                        <set attributeName="fill" to="#808080" begin="arrowLeft.mouseover" end="arrowLeft.mouseout"/>
                  </use>
                  <path fill="none" stroke="white" stroke-width="1.5" d="M0,-3.0v7 M-2.5,-0.5L0,-3.0L2.5,-0.5"/>
                </g>
        </g>
        <svg viewBox="0 0 15 15" width="100%" height="30px" preserveAspectRatio="xMaxYMin meet">
         <g id="arrow_out" transform="scale(0.3 0.3)">
          <a xlink:href="classgiuh_1_1giuh__kernel__impl__coll__graph_org.svg" target="_base">
           <rect id="button" ry="5" rx="5" y="6" x="6" height="38" width="38"
                fill="#f2f5e9" fill-opacity="0.5" stroke="#606060" stroke-width="1.0"/>
           <path id="arrow"
             d="M 11.500037,31.436501 C 11.940474,20.09759 22.043105,11.32322 32.158766,21.979434 L 37.068811,17.246167 C 37.068811,17.246167 37.088388,32 37.088388,32 L 22.160133,31.978069 C 22.160133,31.978069 26.997745,27.140456 26.997745,27.140456 C 18.528582,18.264221 13.291696,25.230495 11.500037,31.436501 z"
             style="fill:#404040;"/>
          </a>
         </g>
        </svg>
</svg>
