<?xml version="1.0" encoding="UTF-8" standalone="no"?>
<!DOCTYPE svg PUBLIC "-//W3C//DTD SVG 1.1//EN"
 "http://www.w3.org/Graphics/SVG/1.1/DTD/svg11.dtd">
<!-- Generated by graphviz version 9.0.0 (20230911.1827)
 -->
<!-- Title: data_access::DeferredWrappedProvider Pages: 1 -->
<!--zoomable 850 -->

<svg id="main" version="1.1" xmlns="http://www.w3.org/2000/svg" xmlns:xlink="http://www.w3.org/1999/xlink" xml:space="preserve" onload="init(evt)">
<style type="text/css"><![CDATA[
.node, .edge {opacity: 0.7;}
.node.selected, .edge.selected {opacity: 1;}
.edge:hover path { stroke: red; }
.edge:hover polygon { stroke: red; fill: red; }
]]></style>

<defs>
  <circle id="rim" cx="0" cy="0" r="7"/>
  <circle id="rim2" cx="0" cy="0" r="3.5"/>
  <g id="zoomPlus">
    <use xlink:href="#rim" fill="#404040"><set attributeName="fill" to="#808080" begin="zoomplus.mouseover" end="zoomplus.mouseout"/></use>
    <path d="M-4,0h8M0,-4v8" fill="none" stroke="white" stroke-width="1.5" pointer-events="none"/>
  </g>
  <g id="zoomMin">
    <use xlink:href="#rim" fill="#404040"><set attributeName="fill" to="#808080" begin="zoomminus.mouseover" end="zoomminus.mouseout"/></use>
    <path d="M-4,0h8" fill="none" stroke="white" stroke-width="1.5" pointer-events="none"/>
  </g>
  <g id="arrowUp" transform="translate(30 24)">
    <use xlink:href="#rim"/>
    <path pointer-events="none" fill="none" stroke="white" stroke-width="1.5" d="M0,-3.0v7 M-2.5,-0.5L0,-3.0L2.5,-0.5"/>
  </g>
  <g id="arrowRight" transform="rotate(90) translate(36 -43)">
    <use xlink:href="#rim"/>
    <path pointer-events="none" fill="none" stroke="white" stroke-width="1.5" d="M0,-3.0v7 M-2.5,-0.5L0,-3.0L2.5,-0.5"/>
  </g>
  <g id="arrowDown" transform="rotate(180) translate(-30 -48)">
    <use xlink:href="#rim"/>
    <path pointer-events="none" fill="none" stroke="white" stroke-width="1.5" d="M0,-3.0v7 M-2.5,-0.5L0,-3.0L2.5,-0.5"/>
  </g>
  <g id="arrowLeft" transform="rotate(270) translate(-36 17)">
    <use xlink:href="#rim"/>
    <path pointer-events="none" fill="none" stroke="white" stroke-width="1.5" d="M0,-3.0v7 M-2.5,-0.5L0,-3.0L2.5,-0.5"/>
  </g>
  <g id="resetDef">
    <use xlink:href="#rim2" fill="#404040"><set attributeName="fill" to="#808080" begin="reset.mouseover" end="reset.mouseout"/></use>
  </g>
</defs>
<script type="application/ecmascript">
var viewWidth = 508;
var viewHeight = 850;
var sectionId = 'dynsection-1';
</script>
<script type="application/ecmascript" xlink:href="svg.min.js"/>
<svg id="graph" class="graph">
<g id="viewport">
<title>data_access::DeferredWrappedProvider</title>
<!-- Node1 -->
<g id="Node000001" class="node">
<title>Node1</title>
<g id="a_Node000001"><a xlink:title="A specialized @WrappedDataProvider that is created without first knowing the backing source it wraps.">
<polygon fill="#999999" stroke="none" points="377,-176 232,-176 232,0 377,0 377,-176"/>
<text text-anchor="start" x="237" y="-162.5" font-family="Helvetica,sans-Serif" font-size="10.00">data_access::DeferredWrapped</text>
<text text-anchor="start" x="286.5" y="-151.25" font-family="Helvetica,sans-Serif" font-size="10.00">Provider</text>
<text text-anchor="start" x="303" y="-136.5" font-family="Helvetica,sans-Serif" font-size="10.00"> </text>
<text text-anchor="start" x="238.5" y="-121.5" font-family="Helvetica,sans-Serif" font-size="10.00">+</text>
<text text-anchor="start" x="251" y="-121.5" font-family="Helvetica,sans-Serif" font-size="10.00">DeferredWrappedProvider()</text>
<text text-anchor="start" x="238.5" y="-106.5" font-family="Helvetica,sans-Serif" font-size="10.00">+</text>
<text text-anchor="start" x="251" y="-106.5" font-family="Helvetica,sans-Serif" font-size="10.00">DeferredWrappedProvider()</text>
<text text-anchor="start" x="238.5" y="-91.5" font-family="Helvetica,sans-Serif" font-size="10.00">+</text>
<text text-anchor="start" x="251" y="-91.5" font-family="Helvetica,sans-Serif" font-size="10.00">DeferredWrappedProvider()</text>
<text text-anchor="start" x="238.5" y="-76.5" font-family="Helvetica,sans-Serif" font-size="10.00">+</text>
<text text-anchor="start" x="251" y="-76.5" font-family="Helvetica,sans-Serif" font-size="10.00">get_available_variable</text>
<text text-anchor="start" x="251" y="-65.25" font-family="Helvetica,sans-Serif" font-size="10.00">_names()</text>
<text text-anchor="start" x="238.5" y="-50.5" font-family="Helvetica,sans-Serif" font-size="10.00">+</text>
<text text-anchor="start" x="251" y="-50.5" font-family="Helvetica,sans-Serif" font-size="10.00">getSetMessage()</text>
<text text-anchor="start" x="238.5" y="-35.5" font-family="Helvetica,sans-Serif" font-size="10.00">+</text>
<text text-anchor="start" x="251" y="-35.5" font-family="Helvetica,sans-Serif" font-size="10.00">isReadyToProvideData()</text>
<text text-anchor="start" x="238.5" y="-20.5" font-family="Helvetica,sans-Serif" font-size="10.00">+</text>
<text text-anchor="start" x="251" y="-20.5" font-family="Helvetica,sans-Serif" font-size="10.00">isWrappedProviderSet()</text>
<text text-anchor="start" x="238.5" y="-5.5" font-family="Helvetica,sans-Serif" font-size="10.00">+</text>
<text text-anchor="start" x="251" y="-5.5" font-family="Helvetica,sans-Serif" font-size="10.00">setWrappedProvider()</text>
<polygon fill="#666666" stroke="#666666" points="232,-148 232,-148 377,-148 377,-148 232,-148"/>
<polygon fill="#666666" stroke="#666666" points="232,-133 232,-133 377,-133 377,-133 232,-133"/>
<polygon fill="none" stroke="#666666" points="232,0 232,-176 377,-176 377,0 232,0"/>
</a>
</g>
</g>
<!-- Node2 -->
<g id="Node000002" class="node">
<title>Node2</title>
<g id="a_Node000002"><a xlink:href="classdata__access_1_1_wrapped_data_provider.html" target="_top" xlink:title="Simple implementation that basically wraps another instance.">
<polygon fill="white" stroke="none" points="268.5,-470.25 140.5,-470.25 140.5,-223.25 268.5,-223.25 268.5,-470.25"/>
<text text-anchor="start" x="145.25" y="-456.75" font-family="Helvetica,sans-Serif" font-size="10.00">data_access::WrappedData</text>
<text text-anchor="start" x="186.5" y="-445.5" font-family="Helvetica,sans-Serif" font-size="10.00">Provider</text>
<text text-anchor="start" x="203" y="-430.75" font-family="Helvetica,sans-Serif" font-size="10.00"> </text>
<text text-anchor="start" x="146.5" y="-415.75" font-family="Helvetica,sans-Serif" font-size="10.00">+</text>
<text text-anchor="start" x="158.5" y="-415.75" font-family="Helvetica,sans-Serif" font-size="10.00">WrappedDataProvider()</text>
<text text-anchor="start" x="146.5" y="-400.75" font-family="Helvetica,sans-Serif" font-size="10.00">+</text>
<text text-anchor="start" x="158.5" y="-400.75" font-family="Helvetica,sans-Serif" font-size="10.00">WrappedDataProvider()</text>
<text text-anchor="start" x="146.5" y="-385.75" font-family="Helvetica,sans-Serif" font-size="10.00">+</text>
<text text-anchor="start" x="158.5" y="-385.75" font-family="Helvetica,sans-Serif" font-size="10.00">WrappedDataProvider()</text>
<text text-anchor="start" x="146.5" y="-370.75" font-family="Helvetica,sans-Serif" font-size="10.00">+</text>
<text text-anchor="start" x="158.5" y="-370.75" font-family="Helvetica,sans-Serif" font-size="10.00">finalize()</text>
<text text-anchor="start" x="146.5" y="-355.75" font-family="Helvetica,sans-Serif" font-size="10.00">+</text>
<text text-anchor="start" x="158.5" y="-355.75" font-family="Helvetica,sans-Serif" font-size="10.00">get_available_variable</text>
<text text-anchor="start" x="158.5" y="-344.5" font-family="Helvetica,sans-Serif" font-size="10.00">_names()</text>
<text text-anchor="start" x="146.5" y="-329.75" font-family="Helvetica,sans-Serif" font-size="10.00">+</text>
<text text-anchor="start" x="158.5" y="-329.75" font-family="Helvetica,sans-Serif" font-size="10.00">get_data_start_time()</text>
<text text-anchor="start" x="146.5" y="-314.75" font-family="Helvetica,sans-Serif" font-size="10.00">+</text>
<text text-anchor="start" x="158.5" y="-314.75" font-family="Helvetica,sans-Serif" font-size="10.00">get_data_stop_time()</text>
<text text-anchor="start" x="146.5" y="-299.75" font-family="Helvetica,sans-Serif" font-size="10.00">+</text>
<text text-anchor="start" x="158.5" y="-299.75" font-family="Helvetica,sans-Serif" font-size="10.00">record_duration()</text>
<text text-anchor="start" x="146.5" y="-284.75" font-family="Helvetica,sans-Serif" font-size="10.00">+</text>
<text text-anchor="start" x="158.5" y="-284.75" font-family="Helvetica,sans-Serif" font-size="10.00">get_ts_index_for_time()</text>
<text text-anchor="start" x="146.5" y="-269.75" font-family="Helvetica,sans-Serif" font-size="10.00">+</text>
<text text-anchor="start" x="158.5" y="-269.75" font-family="Helvetica,sans-Serif" font-size="10.00">get_value()</text>
<text text-anchor="start" x="146.5" y="-254.75" font-family="Helvetica,sans-Serif" font-size="10.00">+</text>
<text text-anchor="start" x="158.5" y="-254.75" font-family="Helvetica,sans-Serif" font-size="10.00">get_values()</text>
<text text-anchor="start" x="146.5" y="-239.75" font-family="Helvetica,sans-Serif" font-size="10.00">+</text>
<text text-anchor="start" x="158.5" y="-239.75" font-family="Helvetica,sans-Serif" font-size="10.00">is_property_sum_over</text>
<text text-anchor="start" x="158.5" y="-228.5" font-family="Helvetica,sans-Serif" font-size="10.00">_time_step()</text>
<polygon fill="#666666" stroke="#666666" points="140.5,-442.25 140.5,-442.25 268.5,-442.25 268.5,-442.25 140.5,-442.25"/>
<polygon fill="#666666" stroke="#666666" points="140.5,-427.25 140.5,-427.25 268.5,-427.25 268.5,-427.25 140.5,-427.25"/>
<polygon fill="none" stroke="#666666" points="140.5,-223.25 140.5,-470.25 268.5,-470.25 268.5,-223.25 140.5,-223.25"/>
</a>
</g>
</g>
<!-- Node2&#45;&gt;Node1 -->
<g id="edge1_Node000001_Node000002" class="edge">
<title>Node2&#45;&gt;Node1</title>
<g id="a_edge1_Node000001_Node000002"><a xlink:title=" ">
<path fill="none" stroke="#63b8ff" d="M256.25,-212.87C261.13,-200.36 265.98,-187.9 270.63,-175.97"/>
<polygon fill="none" stroke="#63b8ff" points="253.07,-211.39 252.71,-221.98 259.6,-213.93 253.07,-211.39"/>
</a>
</g>
</g>
<!-- Node3 -->
<g id="Node000003" class="node">
<title>Node3</title>
<g id="a_Node000003"><a xlink:href="classdata__access_1_1_data_provider.html" target="_top" xlink:title=" ">
<polygon fill="white" stroke="none" points="119,-729 0,-729 0,-523 119,-523 119,-729"/>
<text text-anchor="start" x="14.5" y="-715.5" font-family="Helvetica,sans-Serif" font-size="10.00">GenericDataProvider</text>
<text text-anchor="start" x="58" y="-700.5" font-family="Helvetica,sans-Serif" font-size="10.00"> </text>
<text text-anchor="start" x="4" y="-685.5" font-family="Helvetica,sans-Serif" font-size="10.00">+</text>
<text text-anchor="start" x="14" y="-685.5" font-family="Helvetica,sans-Serif" font-size="10.00">~DataProvider()</text>
<text text-anchor="start" x="4" y="-670.5" font-family="Helvetica,sans-Serif" font-size="10.00">+</text>
<text text-anchor="start" x="14" y="-670.5" font-family="Helvetica,sans-Serif" font-size="10.00">finalize()</text>
<text text-anchor="start" x="4" y="-655.5" font-family="Helvetica,sans-Serif" font-size="10.00">+</text>
<text text-anchor="start" x="14" y="-655.5" font-family="Helvetica,sans-Serif" font-size="10.00">get_available_variable</text>
<text text-anchor="start" x="14" y="-644.25" font-family="Helvetica,sans-Serif" font-size="10.00">_names()</text>
<text text-anchor="start" x="4" y="-629.5" font-family="Helvetica,sans-Serif" font-size="10.00">+</text>
<text text-anchor="start" x="14" y="-629.5" font-family="Helvetica,sans-Serif" font-size="10.00">get_data_start_time()</text>
<text text-anchor="start" x="4" y="-614.5" font-family="Helvetica,sans-Serif" font-size="10.00">+</text>
<text text-anchor="start" x="14" y="-614.5" font-family="Helvetica,sans-Serif" font-size="10.00">get_data_stop_time()</text>
<text text-anchor="start" x="4" y="-599.5" font-family="Helvetica,sans-Serif" font-size="10.00">+</text>
<text text-anchor="start" x="14" y="-599.5" font-family="Helvetica,sans-Serif" font-size="10.00">record_duration()</text>
<text text-anchor="start" x="4" y="-584.5" font-family="Helvetica,sans-Serif" font-size="10.00">+</text>
<text text-anchor="start" x="14" y="-584.5" font-family="Helvetica,sans-Serif" font-size="10.00">get_ts_index_for_time()</text>
<text text-anchor="start" x="4" y="-569.5" font-family="Helvetica,sans-Serif" font-size="10.00">+</text>
<text text-anchor="start" x="14" y="-569.5" font-family="Helvetica,sans-Serif" font-size="10.00">get_value()</text>
<text text-anchor="start" x="4" y="-554.5" font-family="Helvetica,sans-Serif" font-size="10.00">+</text>
<text text-anchor="start" x="14" y="-554.5" font-family="Helvetica,sans-Serif" font-size="10.00">get_values()</text>
<text text-anchor="start" x="4" y="-539.5" font-family="Helvetica,sans-Serif" font-size="10.00">+</text>
<text text-anchor="start" x="14" y="-539.5" font-family="Helvetica,sans-Serif" font-size="10.00">is_property_sum_over</text>
<text text-anchor="start" x="14" y="-528.25" font-family="Helvetica,sans-Serif" font-size="10.00">_time_step()</text>
<polygon fill="#666666" stroke="#666666" points="0,-712 0,-712 119,-712 119,-712 0,-712"/>
<polygon fill="#666666" stroke="#666666" points="0,-697 0,-697 119,-697 119,-697 0,-697"/>
<polygon fill="none" stroke="#666666" points="0,-523 0,-729 119,-729 119,-523 0,-523"/>
</a>
</g>
</g>
<!-- Node3&#45;&gt;Node2 -->
<g id="edge2_Node000002_Node000003" class="edge">
<title>Node3&#45;&gt;Node2</title>
<g id="a_edge2_Node000002_Node000003"><a xlink:title=" ">
<path fill="none" stroke="#63b8ff" d="M117.8,-513.52C125.27,-499.24 132.95,-484.56 140.51,-470.11"/>
<polygon fill="none" stroke="#63b8ff" points="114.9,-511.51 113.37,-522 121.11,-514.76 114.9,-511.51"/>
</a>
</g>
</g>
<!-- Node4 -->
<g id="Node000004" class="node">
<title>Node4</title>
<g id="a_Node000004"><a xlink:href="classdata__access_1_1_data_provider.html" target="_top" xlink:title=" ">
<polygon fill="white" stroke="none" points="273.5,-734.5 137.5,-734.5 137.5,-517.5 273.5,-517.5 273.5,-734.5"/>
<text text-anchor="start" x="142.5" y="-721" font-family="Helvetica,sans-Serif" font-size="10.00">data_access::DataProvider</text>
<text text-anchor="start" x="142.5" y="-709.75" font-family="Helvetica,sans-Serif" font-size="10.00">&lt; data_type, selection_type &gt;</text>
<text text-anchor="start" x="204" y="-695" font-family="Helvetica,sans-Serif" font-size="10.00"> </text>
<text text-anchor="start" x="145.5" y="-680" font-family="Helvetica,sans-Serif" font-size="10.00">+</text>
<text text-anchor="start" x="159.5" y="-680" font-family="Helvetica,sans-Serif" font-size="10.00">~DataProvider()</text>
<text text-anchor="start" x="145.5" y="-665" font-family="Helvetica,sans-Serif" font-size="10.00">+</text>
<text text-anchor="start" x="159.5" y="-665" font-family="Helvetica,sans-Serif" font-size="10.00">finalize()</text>
<text text-anchor="start" x="145.5" y="-650" font-family="Helvetica,sans-Serif" font-size="10.00">+</text>
<text text-anchor="start" x="159.5" y="-650" font-family="Helvetica,sans-Serif" font-size="10.00">get_available_variable</text>
<text text-anchor="start" x="159.5" y="-638.75" font-family="Helvetica,sans-Serif" font-size="10.00">_names()</text>
<text text-anchor="start" x="145.5" y="-624" font-family="Helvetica,sans-Serif" font-size="10.00">+</text>
<text text-anchor="start" x="159.5" y="-624" font-family="Helvetica,sans-Serif" font-size="10.00">get_data_start_time()</text>
<text text-anchor="start" x="145.5" y="-609" font-family="Helvetica,sans-Serif" font-size="10.00">+</text>
<text text-anchor="start" x="159.5" y="-609" font-family="Helvetica,sans-Serif" font-size="10.00">get_data_stop_time()</text>
<text text-anchor="start" x="145.5" y="-594" font-family="Helvetica,sans-Serif" font-size="10.00">+</text>
<text text-anchor="start" x="159.5" y="-594" font-family="Helvetica,sans-Serif" font-size="10.00">record_duration()</text>
<text text-anchor="start" x="145.5" y="-579" font-family="Helvetica,sans-Serif" font-size="10.00">+</text>
<text text-anchor="start" x="159.5" y="-579" font-family="Helvetica,sans-Serif" font-size="10.00">get_ts_index_for_time()</text>
<text text-anchor="start" x="145.5" y="-564" font-family="Helvetica,sans-Serif" font-size="10.00">+</text>
<text text-anchor="start" x="159.5" y="-564" font-family="Helvetica,sans-Serif" font-size="10.00">get_value()</text>
<text text-anchor="start" x="145.5" y="-549" font-family="Helvetica,sans-Serif" font-size="10.00">+</text>
<text text-anchor="start" x="159.5" y="-549" font-family="Helvetica,sans-Serif" font-size="10.00">get_values()</text>
<text text-anchor="start" x="145.5" y="-534" font-family="Helvetica,sans-Serif" font-size="10.00">+</text>
<text text-anchor="start" x="159.5" y="-534" font-family="Helvetica,sans-Serif" font-size="10.00">is_property_sum_over</text>
<text text-anchor="start" x="159.5" y="-522.75" font-family="Helvetica,sans-Serif" font-size="10.00">_time_step()</text>
<polygon fill="#666666" stroke="#666666" points="137.5,-706.5 137.5,-706.5 273.5,-706.5 273.5,-706.5 137.5,-706.5"/>
<polygon fill="#666666" stroke="#666666" points="137.5,-691.5 137.5,-691.5 273.5,-691.5 273.5,-691.5 137.5,-691.5"/>
<polygon fill="none" stroke="#666666" points="137.5,-517.5 137.5,-734.5 273.5,-734.5 273.5,-517.5 137.5,-517.5"/>
</a>
</g>
</g>
<!-- Node4&#45;&gt;Node2 -->
<g id="edge3_Node000002_Node000004" class="edge">
<title>Node4&#45;&gt;Node2</title>
<g id="a_edge3_Node000002_Node000004"><a xlink:title=" ">
<path fill="none" stroke="#63b8ff" d="M205.11,-517.81C205.07,-506.28 205.03,-494.45 204.99,-482.65"/>
<polygon fill="none" stroke="#63b8ff" points="204.99,-482.79 200.97,-476.8 204.94,-470.79 208.97,-476.77 204.99,-482.79"/>
</a>
</g>
<text text-anchor="middle" x="247.5" y="-490" font-family="Helvetica,sans-Serif" font-size="10.00" fill="grey"> #wrapped_provider</text>
</g>
<!-- Node5 -->
<g id="Node000005" class="node">
<title>Node5</title>
<g id="a_Node000005"><a xlink:title=" ">
<polygon fill="white" stroke="none" points="496,-371.25 383,-371.25 383,-322.25 496,-322.25 496,-371.25"/>
<text text-anchor="start" x="387.75" y="-357.75" font-family="Helvetica,sans-Serif" font-size="10.00">std::vector&lt; std::string &gt;</text>
<text text-anchor="start" x="438" y="-342.75" font-family="Helvetica,sans-Serif" font-size="10.00"> </text>
<text text-anchor="start" x="438" y="-327.75" font-family="Helvetica,sans-Serif" font-size="10.00"> </text>
<polygon fill="#666666" stroke="#666666" points="383,-354.25 383,-354.25 496,-354.25 496,-354.25 383,-354.25"/>
<polygon fill="#666666" stroke="#666666" points="383,-339.25 383,-339.25 496,-339.25 496,-339.25 383,-339.25"/>
<polygon fill="none" stroke="#666666" points="383,-322.25 383,-371.25 496,-371.25 496,-322.25 383,-322.25"/>
</a>
</g>
</g>
<!-- Node5&#45;&gt;Node1 -->
<g id="edge4_Node000001_Node000005" class="edge">
<title>Node5&#45;&gt;Node1</title>
<g id="a_edge4_Node000001_Node000005"><a xlink:title=" ">
<path fill="none" stroke="#63b8ff" d="M427.28,-322.51C411.23,-291.99 382.05,-236.5 356.17,-187.26"/>
<polygon fill="none" stroke="#63b8ff" points="356.19,-187.31 349.86,-183.86 350.6,-176.68 356.94,-180.13 356.19,-187.31"/>
</a>
</g>
<text text-anchor="middle" x="403.88" y="-195.75" font-family="Helvetica,sans-Serif" font-size="10.00" fill="grey"> #providedOutputs</text>
</g>
<!-- Node6 -->
<g id="Node000006" class="node">
<title>Node6</title>
<g id="a_Node000006"><a xlink:title=" ">
<polygon fill="white" stroke="none" points="373.5,-650.5 321.5,-650.5 321.5,-601.5 373.5,-601.5 373.5,-650.5"/>
<text text-anchor="start" x="326.5" y="-637" font-family="Helvetica,sans-Serif" font-size="10.00">std::string</text>
<text text-anchor="start" x="346" y="-622" font-family="Helvetica,sans-Serif" font-size="10.00"> </text>
<text text-anchor="start" x="346" y="-607" font-family="Helvetica,sans-Serif" font-size="10.00"> </text>
<polygon fill="#666666" stroke="#666666" points="321.5,-633.5 321.5,-633.5 373.5,-633.5 373.5,-633.5 321.5,-633.5"/>
<polygon fill="#666666" stroke="#666666" points="321.5,-618.5 321.5,-618.5 373.5,-618.5 373.5,-618.5 321.5,-618.5"/>
<polygon fill="none" stroke="#666666" points="321.5,-601.5 321.5,-650.5 373.5,-650.5 373.5,-601.5 321.5,-601.5"/>
</a>
</g>
</g>
<!-- Node6&#45;&gt;Node1 -->
<g id="edge9_Node000001_Node000006" class="edge">
<title>Node6&#45;&gt;Node1</title>
<g id="a_edge9_Node000001_Node000006"><a xlink:title=" ">
<path fill="none" stroke="#63b8ff" d="M340.73,-601.66C332.36,-571.58 318.51,-517.54 312.75,-470.25 301.14,-375 300.03,-265.41 301.26,-188.24"/>
<polygon fill="none" stroke="#63b8ff" points="301.25,-188.56 297.36,-182.49 301.47,-176.56 305.36,-182.63 301.25,-188.56"/>
</a>
</g>
<text text-anchor="middle" x="343.88" y="-342.88" font-family="Helvetica,sans-Serif" font-size="10.00" fill="grey"> #setMessage</text>
</g>
<!-- Node6&#45;&gt;Node5 -->
<g id="edge5_Node000005_Node000006" class="edge">
<title>Node6&#45;&gt;Node5</title>
<g id="a_edge5_Node000005_Node000006"><a xlink:title=" ">
<path fill="none" stroke="#63b8ff" d="M353.8,-601.62C361.3,-574.27 374.45,-527.7 387.5,-488.25 399.47,-452.06 414.78,-411.26 425.68,-382.99"/>
<polygon fill="none" stroke="#63b8ff" points="425.69,-382.97 424.12,-375.93 430.02,-371.78 431.58,-378.82 425.69,-382.97"/>
</a>
</g>
<text text-anchor="middle" x="411.5" y="-490" font-family="Helvetica,sans-Serif" font-size="10.00" fill="grey"> +elements</text>
</g>
<!-- Node7 -->
<g id="Node000007" class="node">
<title>Node7</title>
<g id="a_Node000007"><a xlink:title=" ">
<polygon fill="white" stroke="none" points="390.5,-841.75 304.5,-841.75 304.5,-781.75 390.5,-781.75 390.5,-841.75"/>
<text text-anchor="start" x="309.25" y="-828.25" font-family="Helvetica,sans-Serif" font-size="10.00">std::basic_string&lt;</text>
<text text-anchor="start" x="332.12" y="-817" font-family="Helvetica,sans-Serif" font-size="10.00"> Char &gt;</text>
<text text-anchor="start" x="346" y="-802.25" font-family="Helvetica,sans-Serif" font-size="10.00"> </text>
<text text-anchor="start" x="346" y="-787.25" font-family="Helvetica,sans-Serif" font-size="10.00"> </text>
<polygon fill="#666666" stroke="#666666" points="304.5,-813.75 304.5,-813.75 390.5,-813.75 390.5,-813.75 304.5,-813.75"/>
<polygon fill="#666666" stroke="#666666" points="304.5,-798.75 304.5,-798.75 390.5,-798.75 390.5,-798.75 304.5,-798.75"/>
<polygon fill="none" stroke="#666666" points="304.5,-781.75 304.5,-841.75 390.5,-841.75 390.5,-781.75 304.5,-781.75"/>
</a>
</g>
</g>
<!-- Node7&#45;&gt;Node6 -->
<g id="edge6_Node000006_Node000007" class="edge">
<title>Node7&#45;&gt;Node6</title>
<g id="a_edge6_Node000006_Node000007"><a xlink:title=" ">
<path fill="none" stroke="#63b8ff" d="M347.5,-770.71C347.5,-733.88 347.5,-680.54 347.5,-650.27"/>
<polygon fill="none" stroke="#63b8ff" points="344,-770.53 347.5,-780.53 351,-770.53 344,-770.53"/>
</a>
</g>
</g>
<!-- Node8 -->
<g id="Node000008" class="node">
<title>Node8</title>
<g id="a_Node000008"><a xlink:title=" ">
<polygon fill="white" stroke="none" points="478,-650.5 401,-650.5 401,-601.5 478,-601.5 478,-650.5"/>
<text text-anchor="start" x="405.75" y="-637" font-family="Helvetica,sans-Serif" font-size="10.00">std::vector&lt; T &gt;</text>
<text text-anchor="start" x="438" y="-622" font-family="Helvetica,sans-Serif" font-size="10.00"> </text>
<text text-anchor="start" x="438" y="-607" font-family="Helvetica,sans-Serif" font-size="10.00"> </text>
<polygon fill="#666666" stroke="#666666" points="401,-633.5 401,-633.5 478,-633.5 478,-633.5 401,-633.5"/>
<polygon fill="#666666" stroke="#666666" points="401,-618.5 401,-618.5 478,-618.5 478,-618.5 401,-618.5"/>
<polygon fill="none" stroke="#666666" points="401,-601.5 401,-650.5 478,-650.5 478,-601.5 401,-601.5"/>
</a>
</g>
</g>
<!-- Node8&#45;&gt;Node5 -->
<g id="edge7_Node000005_Node000008" class="edge">
<title>Node8&#45;&gt;Node5</title>
<g id="a_edge7_Node000005_Node000008"><a xlink:title=" ">
<path fill="none" stroke="orange" d="M439.5,-590.5C439.5,-533.2 439.5,-419.88 439.5,-371.04"/>
<polygon fill="orange" stroke="orange" points="436,-590.33 439.5,-600.33 443,-590.33 436,-590.33"/>
</a>
</g>
<text text-anchor="middle" x="469.88" y="-490" font-family="Helvetica,sans-Serif" font-size="10.00" fill="grey"> &lt; std::string &gt;</text>
</g>
<!-- Node9 -->
<g id="Node000009" class="node">
<title>Node9</title>
<g id="a_Node000009"><a xlink:title=" ">
<polygon fill="white" stroke="none" points="447.5,-836.25 431.5,-836.25 431.5,-787.25 447.5,-787.25 447.5,-836.25"/>
<text text-anchor="start" x="436.5" y="-822.75" font-family="Helvetica,sans-Serif" font-size="10.00">T</text>
<text text-anchor="start" x="438" y="-807.75" font-family="Helvetica,sans-Serif" font-size="10.00"> </text>
<text text-anchor="start" x="438" y="-792.75" font-family="Helvetica,sans-Serif" font-size="10.00"> </text>
<polygon fill="#666666" stroke="#666666" points="431.5,-819.25 431.5,-819.25 447.5,-819.25 447.5,-819.25 431.5,-819.25"/>
<polygon fill="#666666" stroke="#666666" points="431.5,-804.25 431.5,-804.25 447.5,-804.25 447.5,-804.25 431.5,-804.25"/>
<polygon fill="none" stroke="#666666" points="431.5,-787.25 431.5,-836.25 447.5,-836.25 447.5,-787.25 431.5,-787.25"/>
</a>
</g>
</g>
<!-- Node9&#45;&gt;Node8 -->
<g id="edge8_Node000008_Node000009" class="edge">
<title>Node9&#45;&gt;Node8</title>
<g id="a_edge8_Node000008_Node000009"><a xlink:title=" ">
<path fill="none" stroke="#63b8ff" d="M439.5,-787.48C439.5,-756.08 439.5,-699.86 439.5,-663"/>
<polygon fill="none" stroke="#63b8ff" points="439.5,-663.27 435.5,-657.27 439.5,-651.27 443.5,-657.27 439.5,-663.27"/>
</a>
</g>
<text text-anchor="middle" x="463.5" y="-754.25" font-family="Helvetica,sans-Serif" font-size="10.00" fill="grey"> +elements</text>
</g>
</g>
</svg>

<g id="navigator" transform="translate(0 0)" fill="#404254">
  <rect fill="#f2f5e9" fill-opacity="0.5" stroke="#606060" stroke-width=".5" x="0" y="0" width="60" height="60"/>
  <use id="zoomplus" xlink:href="#zoomPlus" x="17" y="9" onmousedown="handleZoom(evt,'in')"/>
  <use id="zoomminus" xlink:href="#zoomMin" x="42" y="9" onmousedown="handleZoom(evt,'out')"/>
  <use id="reset" xlink:href="#resetDef" x="30" y="36" onmousedown="handleReset()"/>
   <use id="arrowup" xlink:href="#arrowUp" x="0" y="0" onmousedown="handlePan(0,-1)"/>
  <use id="arrowright" xlink:href="#arrowRight" x="0" y="0" onmousedown="handlePan(1,0)"/>
  <use id="arrowdown" xlink:href="#arrowDown" x="0" y="0" onmousedown="handlePan(0,1)"/>
  <use id="arrowleft" xlink:href="#arrowLeft" x="0" y="0" onmousedown="handlePan(-1,0)"/>
</g>
<svg viewBox="0 0 15 15" width="100%" height="30px" preserveAspectRatio="xMaxYMin meet">
 <g id="arrow_out" transform="scale(0.3 0.3)">
  <a xlink:href="classdata__access_1_1_deferred_wrapped_provider__coll__graph_org.svg" target="_base">
   <rect id="button" ry="5" rx="5" y="6" x="6" height="38" width="38"
        fill="#f2f5e9" fill-opacity="0.5" stroke="#606060" stroke-width="1.0"/>
   <path id="arrow"
     d="M 11.500037,31.436501 C 11.940474,20.09759 22.043105,11.32322 32.158766,21.979434 L 37.068811,17.246167 C 37.068811,17.246167 37.088388,32 37.088388,32 L 22.160133,31.978069 C 22.160133,31.978069 26.997745,27.140456 26.997745,27.140456 C 18.528582,18.264221 13.291696,25.230495 11.500037,31.436501 z"
     style="fill:#404040;"/>
  </a>
 </g>
</svg>

<style type='text/css'>
<![CDATA[
[data-mouse-over-selected='false'] { opacity: 0.7; }
[data-mouse-over-selected='true']  { opacity: 1.0; }
]]>
</style>
<script type="application/ecmascript"><![CDATA[
document.addEventListener('DOMContentLoaded', (event) => {
  highlightEdges();
  highlightAdjacentNodes();
});
]]></script>
</svg>
