<?xml version="1.0" encoding="UTF-8" standalone="no"?>
<!DOCTYPE svg PUBLIC "-//W3C//DTD SVG 1.1//EN"
 "http://www.w3.org/Graphics/SVG/1.1/DTD/svg11.dtd">
<!-- Generated by graphviz version 12.2.0 (20241103.1931)
 -->
<!-- Title: utils::PerNexusCsvOutputMgr Pages: 1 -->
<!--zoomable 807 -->

<svg id="main" version="1.1" xmlns="http://www.w3.org/2000/svg" xmlns:xlink="http://www.w3.org/1999/xlink" xml:space="preserve" onload="init(evt)">

<style type="text/css"><![CDATA[
.node, .edge {opacity: 0.7;}
.node.selected, .edge.selected {opacity: 1;}
.edge:hover path { stroke: red; }
.edge:hover polygon { stroke: red; fill: red; }
]]></style>

<defs>
  <circle id="rim" cx="0" cy="0" r="7"/>
  <circle id="rim2" cx="0" cy="0" r="3.5"/>
  <g id="zoomPlus">
    <use xlink:href="#rim" fill="#404040"><set attributeName="fill" to="#808080" begin="zoomplus.mouseover" end="zoomplus.mouseout"/></use>
    <path d="M-4,0h8M0,-4v8" fill="none" stroke="white" stroke-width="1.5" pointer-events="none"/>
  </g>
  <g id="zoomMin">
    <use xlink:href="#rim" fill="#404040"><set attributeName="fill" to="#808080" begin="zoomminus.mouseover" end="zoomminus.mouseout"/></use>
    <path d="M-4,0h8" fill="none" stroke="white" stroke-width="1.5" pointer-events="none"/>
  </g>
  <g id="arrowUp" transform="translate(30 24)">
    <use xlink:href="#rim"/>
    <path pointer-events="none" fill="none" stroke="white" stroke-width="1.5" d="M0,-3.0v7 M-2.5,-0.5L0,-3.0L2.5,-0.5"/>
  </g>
  <g id="arrowRight" transform="rotate(90) translate(36 -43)">
    <use xlink:href="#rim"/>
    <path pointer-events="none" fill="none" stroke="white" stroke-width="1.5" d="M0,-3.0v7 M-2.5,-0.5L0,-3.0L2.5,-0.5"/>
  </g>
  <g id="arrowDown" transform="rotate(180) translate(-30 -48)">
    <use xlink:href="#rim"/>
    <path pointer-events="none" fill="none" stroke="white" stroke-width="1.5" d="M0,-3.0v7 M-2.5,-0.5L0,-3.0L2.5,-0.5"/>
  </g>
  <g id="arrowLeft" transform="rotate(270) translate(-36 17)">
    <use xlink:href="#rim"/>
    <path pointer-events="none" fill="none" stroke="white" stroke-width="1.5" d="M0,-3.0v7 M-2.5,-0.5L0,-3.0L2.5,-0.5"/>
  </g>
  <g id="resetDef">
    <use xlink:href="#rim2" fill="#404040"><set attributeName="fill" to="#808080" begin="reset.mouseover" end="reset.mouseout"/></use>
  </g>
</defs>
<script type="application/ecmascript">
var viewWidth = 386;
var viewHeight = 807;
var sectionId = 'dynsection-1';
</script>
<script type="application/ecmascript" xlink:href="svg.min.js"/>
<svg id="graph" class="graph">
<g id="viewport">
<title>utils::PerNexusCsvOutputMgr</title>
<!-- Node1 -->
<g id="Node000001" class="node">
<title>Node1</title>
<g id="a_Node000001"><a xlink:title="Subtype that manages/writes per&#45;nexus data files in CSV format.">
<polygon fill="#999999" stroke="none" points="153.12,-110.75 16.88,-110.75 16.88,0 153.12,0 153.12,-110.75"/>
<text text-anchor="start" x="20.88" y="-97.25" font-family="Helvetica,sans-Serif" font-size="10.00">utils::PerNexusCsvOutputMgr</text>
<text text-anchor="start" x="24" y="-82" font-family="Helvetica,sans-Serif" font-size="10.00">&#45;</text>
<text text-anchor="start" x="34.12" y="-82" font-family="Helvetica,sans-Serif" font-size="10.00">closed</text>
<text text-anchor="start" x="22.5" y="-66.75" font-family="Helvetica,sans-Serif" font-size="10.00">+</text>
<text text-anchor="start" x="34.12" y="-66.75" font-family="Helvetica,sans-Serif" font-size="10.00">PerNexusCsvOutputMgr()</text>
<text text-anchor="start" x="22.5" y="-51.5" font-family="Helvetica,sans-Serif" font-size="10.00">+</text>
<text text-anchor="start" x="34.12" y="-51.5" font-family="Helvetica,sans-Serif" font-size="10.00">close()</text>
<text text-anchor="start" x="22.5" y="-36.25" font-family="Helvetica,sans-Serif" font-size="10.00">+</text>
<text text-anchor="start" x="34.12" y="-36.25" font-family="Helvetica,sans-Serif" font-size="10.00">commit_writes()</text>
<text text-anchor="start" x="22.5" y="-21" font-family="Helvetica,sans-Serif" font-size="10.00">+</text>
<text text-anchor="start" x="34.12" y="-21" font-family="Helvetica,sans-Serif" font-size="10.00">is_closed()</text>
<text text-anchor="start" x="22.5" y="-5.75" font-family="Helvetica,sans-Serif" font-size="10.00">+</text>
<text text-anchor="start" x="34.12" y="-5.75" font-family="Helvetica,sans-Serif" font-size="10.00">receive_data_entry()</text>
<polygon fill="#666666" stroke="#666666" points="16.88,-93.5 16.88,-93.5 153.12,-93.5 153.12,-93.5 16.88,-93.5"/>
<polygon fill="#666666" stroke="#666666" points="16.88,-78.25 16.88,-78.25 32.12,-78.25 32.12,-78.25 16.88,-78.25"/>
<polygon fill="#666666" stroke="#666666" points="32.12,-78.25 32.12,-78.25 153.12,-78.25 153.12,-78.25 32.12,-78.25"/>
<polygon fill="none" stroke="#666666" points="16.88,0 16.88,-110.75 153.12,-110.75 153.12,0 16.88,0"/>
</a>
</g>
</g>
<!-- Node2 -->
<g id="Node000002" class="node">
<title>Node2</title>
<g id="a_Node000002"><a xlink:href="classutils_1_1_nexus_outputs_mgr.html" target="_top" xlink:title="Abstract class for managing and writing to nexus data files.">
<polygon fill="white" stroke="none" points="138,-299.25 0,-299.25 0,-158 138,-158 138,-299.25"/>
<text text-anchor="start" x="18.38" y="-285.75" font-family="Helvetica,sans-Serif" font-size="10.00">utils::NexusOutputsMgr</text>
<text text-anchor="start" x="67.5" y="-270.5" font-family="Helvetica,sans-Serif" font-size="10.00"> </text>
<text text-anchor="start" x="4" y="-255.25" font-family="Helvetica,sans-Serif" font-size="10.00">+</text>
<text text-anchor="start" x="14" y="-255.25" font-family="Helvetica,sans-Serif" font-size="10.00">close()</text>
<text text-anchor="start" x="4" y="-240" font-family="Helvetica,sans-Serif" font-size="10.00">+</text>
<text text-anchor="start" x="14" y="-240" font-family="Helvetica,sans-Serif" font-size="10.00">commit_writes()</text>
<text text-anchor="start" x="4" y="-224.75" font-family="Helvetica,sans-Serif" font-size="10.00">+</text>
<text text-anchor="start" x="14" y="-224.75" font-family="Helvetica,sans-Serif" font-size="10.00">is_closed()</text>
<text text-anchor="start" x="4" y="-209.5" font-family="Helvetica,sans-Serif" font-size="10.00">+</text>
<text text-anchor="start" x="14" y="-209.5" font-family="Helvetica,sans-Serif" font-size="10.00">receive_data_entry()</text>
<text text-anchor="start" x="4" y="-194.25" font-family="Helvetica,sans-Serif" font-size="10.00">+</text>
<text text-anchor="start" x="14" y="-194.25" font-family="Helvetica,sans-Serif" font-size="10.00">receive_data_entry()</text>
<text text-anchor="start" x="4.38" y="-179" font-family="Helvetica,sans-Serif" font-size="10.00">#</text>
<text text-anchor="start" x="14" y="-179" font-family="Helvetica,sans-Serif" font-size="10.00">~NexusOutputsMgr()</text>
<text text-anchor="start" x="4.38" y="-163.75" font-family="Helvetica,sans-Serif" font-size="10.00">#</text>
<text text-anchor="start" x="14" y="-163.75" font-family="Helvetica,sans-Serif" font-size="10.00">get_default_formulation_id()</text>
<polygon fill="#666666" stroke="#666666" points="0,-282 0,-282 138,-282 138,-282 0,-282"/>
<polygon fill="#666666" stroke="#666666" points="0,-266.75 0,-266.75 138,-266.75 138,-266.75 0,-266.75"/>
<polygon fill="none" stroke="#666666" points="0,-158 0,-299.25 138,-299.25 138,-158 0,-158"/>
</a>
</g>
</g>
<!-- Node2&#45;&gt;Node1 -->
<g id="edge1_Node000001_Node000002" class="edge">
<title>Node2&#45;&gt;Node1</title>
<g id="a_edge1_Node000001_Node000002"><a xlink:title=" ">
<path fill="none" stroke="#63b8ff" d="M76.52,-147.14C77.68,-134.73 78.85,-122.17 79.94,-110.52"/>
<polygon fill="none" stroke="#63b8ff" points="73.05,-146.68 75.6,-156.96 80.02,-147.33 73.05,-146.68"/>
</a>
</g>
</g>
<!-- Node3 -->
<g id="Node000003" class="node">
<title>Node3</title>
<g id="a_Node000003"><a xlink:title=" ">
<polygon fill="white" stroke="none" points="248.38,-264.75 155.62,-264.75 155.62,-192.5 248.38,-192.5 248.38,-264.75"/>
<text text-anchor="start" x="159.62" y="-251.25" font-family="Helvetica,sans-Serif" font-size="10.00">std::unordered_map</text>
<text text-anchor="start" x="159.62" y="-240" font-family="Helvetica,sans-Serif" font-size="10.00">&lt; std::string, std::</text>
<text text-anchor="start" x="178.75" y="-228.75" font-family="Helvetica,sans-Serif" font-size="10.00">ofstream &gt;</text>
<text text-anchor="start" x="200.5" y="-213.5" font-family="Helvetica,sans-Serif" font-size="10.00"> </text>
<text text-anchor="start" x="200.5" y="-198.25" font-family="Helvetica,sans-Serif" font-size="10.00"> </text>
<polygon fill="#666666" stroke="#666666" points="155.62,-225 155.62,-225 248.38,-225 248.38,-225 155.62,-225"/>
<polygon fill="#666666" stroke="#666666" points="155.62,-209.75 155.62,-209.75 248.38,-209.75 248.38,-209.75 155.62,-209.75"/>
<polygon fill="none" stroke="#666666" points="155.62,-192.5 155.62,-264.75 248.38,-264.75 248.38,-192.5 155.62,-192.5"/>
</a>
</g>
</g>
<!-- Node3&#45;&gt;Node1 -->
<g id="edge2_Node000001_Node000003" class="edge">
<title>Node3&#45;&gt;Node1</title>
<g id="a_edge2_Node000001_Node000003"><a xlink:title=" ">
<path fill="none" stroke="#63b8ff" d="M178.04,-192.56C164.01,-172.01 145.84,-145.42 129.29,-121.2"/>
<polygon fill="none" stroke="#63b8ff" points="129.34,-121.28 122.65,-118.58 122.57,-111.37 129.26,-114.06 129.34,-121.28"/>
</a>
</g>
<text text-anchor="middle" x="173.37" y="-130.5" font-family="Helvetica,sans-Serif" font-size="10.00" fill="grey"> &#45;nexus_outfiles</text>
</g>
<!-- Node4 -->
<g id="Node000004" class="node">
<title>Node4</title>
<g id="a_Node000004"><a xlink:title=" ">
<polygon fill="white" stroke="none" points="139,-413.12 89,-413.12 89,-363.38 139,-363.38 139,-413.12"/>
<text text-anchor="start" x="93" y="-399.62" font-family="Helvetica,sans-Serif" font-size="10.00">std::string</text>
<text text-anchor="start" x="112.5" y="-384.38" font-family="Helvetica,sans-Serif" font-size="10.00"> </text>
<text text-anchor="start" x="112.5" y="-369.12" font-family="Helvetica,sans-Serif" font-size="10.00"> </text>
<polygon fill="#666666" stroke="#666666" points="89,-395.88 89,-395.88 139,-395.88 139,-395.88 89,-395.88"/>
<polygon fill="#666666" stroke="#666666" points="89,-380.62 89,-380.62 139,-380.62 139,-380.62 89,-380.62"/>
<polygon fill="none" stroke="#666666" points="89,-363.38 89,-413.12 139,-413.12 139,-363.38 89,-363.38"/>
</a>
</g>
</g>
<!-- Node4&#45;&gt;Node3 -->
<g id="edge3_Node000003_Node000004" class="edge">
<title>Node4&#45;&gt;Node3</title>
<g id="a_edge3_Node000003_Node000004"><a xlink:title=" ">
<path fill="none" stroke="#63b8ff" d="M127.17,-363.65C140.13,-340.45 160.24,-304.42 176.35,-275.56"/>
<polygon fill="none" stroke="#63b8ff" points="176.24,-275.76 175.68,-268.57 182.09,-265.28 182.66,-272.47 176.24,-275.76"/>
</a>
</g>
<text text-anchor="middle" x="166.98" y="-324.62" font-family="Helvetica,sans-Serif" font-size="10.00" fill="grey"> +keys</text>
</g>
<!-- Node5 -->
<g id="Node000005" class="node">
<title>Node5</title>
<g id="a_Node000005"><a xlink:title=" ">
<polygon fill="white" stroke="none" points="146.25,-527 61.75,-527 61.75,-466 146.25,-466 146.25,-527"/>
<text text-anchor="start" x="65.75" y="-513.5" font-family="Helvetica,sans-Serif" font-size="10.00">std::basic_string&lt;</text>
<text text-anchor="start" x="88.62" y="-502.25" font-family="Helvetica,sans-Serif" font-size="10.00"> Char &gt;</text>
<text text-anchor="start" x="102.5" y="-487" font-family="Helvetica,sans-Serif" font-size="10.00"> </text>
<text text-anchor="start" x="102.5" y="-471.75" font-family="Helvetica,sans-Serif" font-size="10.00"> </text>
<polygon fill="#666666" stroke="#666666" points="61.75,-498.5 61.75,-498.5 146.25,-498.5 146.25,-498.5 61.75,-498.5"/>
<polygon fill="#666666" stroke="#666666" points="61.75,-483.25 61.75,-483.25 146.25,-483.25 146.25,-483.25 61.75,-483.25"/>
<polygon fill="none" stroke="#666666" points="61.75,-466 61.75,-527 146.25,-527 146.25,-466 61.75,-466"/>
</a>
</g>
</g>
<!-- Node5&#45;&gt;Node4 -->
<g id="edge4_Node000004_Node000005" class="edge">
<title>Node5&#45;&gt;Node4</title>
<g id="a_edge4_Node000004_Node000005"><a xlink:title=" ">
<path fill="none" stroke="#63b8ff" d="M107.84,-454.75C109.16,-440.67 110.6,-425.37 111.76,-413.1"/>
<polygon fill="none" stroke="#63b8ff" points="104.35,-454.39 106.9,-464.68 111.32,-455.05 104.35,-454.39"/>
</a>
</g>
</g>
<!-- Node6 -->
<g id="Node000006" class="node">
<title>Node6</title>
<g id="a_Node000006"><a xlink:title=" ">
<polygon fill="white" stroke="none" points="234.12,-413.12 169.88,-413.12 169.88,-363.38 234.12,-363.38 234.12,-413.12"/>
<text text-anchor="start" x="173.88" y="-399.62" font-family="Helvetica,sans-Serif" font-size="10.00">std::ofstream</text>
<text text-anchor="start" x="200.5" y="-384.38" font-family="Helvetica,sans-Serif" font-size="10.00"> </text>
<text text-anchor="start" x="200.5" y="-369.12" font-family="Helvetica,sans-Serif" font-size="10.00"> </text>
<polygon fill="#666666" stroke="#666666" points="169.88,-395.88 169.88,-395.88 234.12,-395.88 234.12,-395.88 169.88,-395.88"/>
<polygon fill="#666666" stroke="#666666" points="169.88,-380.62 169.88,-380.62 234.12,-380.62 234.12,-380.62 169.88,-380.62"/>
<polygon fill="none" stroke="#666666" points="169.88,-363.38 169.88,-413.12 234.12,-413.12 234.12,-363.38 169.88,-363.38"/>
</a>
</g>
</g>
<!-- Node6&#45;&gt;Node3 -->
<g id="edge5_Node000003_Node000006" class="edge">
<title>Node6&#45;&gt;Node3</title>
<g id="a_edge5_Node000003_Node000006"><a xlink:title=" ">
<path fill="none" stroke="#63b8ff" d="M202,-363.65C202,-340.96 202,-306.01 202,-277.49"/>
<polygon fill="none" stroke="#63b8ff" points="202,-277.39 198,-271.39 202,-265.39 206,-271.39 202,-277.39"/>
</a>
</g>
<text text-anchor="middle" x="226" y="-324.62" font-family="Helvetica,sans-Serif" font-size="10.00" fill="grey"> +elements</text>
</g>
<!-- Node7 -->
<g id="Node000007" class="node">
<title>Node7</title>
<g id="a_Node000007"><a xlink:title=" ">
<polygon fill="white" stroke="none" points="257.38,-527 164.62,-527 164.62,-466 257.38,-466 257.38,-527"/>
<text text-anchor="start" x="168.62" y="-513.5" font-family="Helvetica,sans-Serif" font-size="10.00">std::basic_ofstream</text>
<text text-anchor="start" x="192.62" y="-502.25" font-family="Helvetica,sans-Serif" font-size="10.00">&lt; Char &gt;</text>
<text text-anchor="start" x="209.5" y="-487" font-family="Helvetica,sans-Serif" font-size="10.00"> </text>
<text text-anchor="start" x="209.5" y="-471.75" font-family="Helvetica,sans-Serif" font-size="10.00"> </text>
<polygon fill="#666666" stroke="#666666" points="164.62,-498.5 164.62,-498.5 257.38,-498.5 257.38,-498.5 164.62,-498.5"/>
<polygon fill="#666666" stroke="#666666" points="164.62,-483.25 164.62,-483.25 257.38,-483.25 257.38,-483.25 164.62,-483.25"/>
<polygon fill="none" stroke="#666666" points="164.62,-466 164.62,-527 257.38,-527 257.38,-466 164.62,-466"/>
</a>
</g>
</g>
<!-- Node7&#45;&gt;Node6 -->
<g id="edge6_Node000006_Node000007" class="edge">
<title>Node7&#45;&gt;Node6</title>
<g id="a_edge6_Node000006_Node000007"><a xlink:title=" ">
<path fill="none" stroke="#63b8ff" d="M207.55,-454.75C206.36,-440.67 205.06,-425.37 204.02,-413.1"/>
<polygon fill="none" stroke="#63b8ff" points="204.06,-455.01 208.39,-464.68 211.03,-454.42 204.06,-455.01"/>
</a>
</g>
</g>
<!-- Node8 -->
<g id="Node000008" class="node">
<title>Node8</title>
<g id="a_Node000008"><a xlink:title=" ">
<polygon fill="white" stroke="none" points="255.88,-625 166.12,-625 166.12,-564 255.88,-564 255.88,-625"/>
<text text-anchor="start" x="170.12" y="-611.5" font-family="Helvetica,sans-Serif" font-size="10.00">std::basic_ostream</text>
<text text-anchor="start" x="192.62" y="-600.25" font-family="Helvetica,sans-Serif" font-size="10.00">&lt; Char &gt;</text>
<text text-anchor="start" x="209.5" y="-585" font-family="Helvetica,sans-Serif" font-size="10.00"> </text>
<text text-anchor="start" x="209.5" y="-569.75" font-family="Helvetica,sans-Serif" font-size="10.00"> </text>
<polygon fill="#666666" stroke="#666666" points="166.12,-596.5 166.12,-596.5 255.88,-596.5 255.88,-596.5 166.12,-596.5"/>
<polygon fill="#666666" stroke="#666666" points="166.12,-581.25 166.12,-581.25 255.88,-581.25 255.88,-581.25 166.12,-581.25"/>
<polygon fill="none" stroke="#666666" points="166.12,-564 166.12,-625 255.88,-625 255.88,-564 166.12,-564"/>
</a>
</g>
</g>
<!-- Node8&#45;&gt;Node7 -->
<g id="edge7_Node000007_Node000008" class="edge">
<title>Node8&#45;&gt;Node7</title>
<g id="a_edge7_Node000007_Node000008"><a xlink:title=" ">
<path fill="none" stroke="#63b8ff" d="M211,-552.7C211,-544.06 211,-535.1 211,-526.98"/>
<polygon fill="none" stroke="#63b8ff" points="207.5,-552.66 211,-562.66 214.5,-552.66 207.5,-552.66"/>
</a>
</g>
</g>
<!-- Node9 -->
<g id="Node000009" class="node">
<title>Node9</title>
<g id="a_Node000009"><a xlink:title=" ">
<polygon fill="white" stroke="none" points="263,-711.75 159,-711.75 159,-662 263,-662 263,-711.75"/>
<text text-anchor="start" x="163" y="-698.25" font-family="Helvetica,sans-Serif" font-size="10.00">std::basic_ios&lt; Char &gt;</text>
<text text-anchor="start" x="209.5" y="-683" font-family="Helvetica,sans-Serif" font-size="10.00"> </text>
<text text-anchor="start" x="209.5" y="-667.75" font-family="Helvetica,sans-Serif" font-size="10.00"> </text>
<polygon fill="#666666" stroke="#666666" points="159,-694.5 159,-694.5 263,-694.5 263,-694.5 159,-694.5"/>
<polygon fill="#666666" stroke="#666666" points="159,-679.25 159,-679.25 263,-679.25 263,-679.25 159,-679.25"/>
<polygon fill="none" stroke="#666666" points="159,-662 159,-711.75 263,-711.75 263,-662 159,-662"/>
</a>
</g>
</g>
<!-- Node9&#45;&gt;Node8 -->
<g id="edge8_Node000008_Node000009" class="edge">
<title>Node9&#45;&gt;Node8</title>
<g id="a_edge8_Node000008_Node000009"><a xlink:title=" ">
<path fill="none" stroke="#63b8ff" d="M211,-650.87C211,-642.29 211,-633.19 211,-624.9"/>
<polygon fill="none" stroke="#63b8ff" points="207.5,-650.62 211,-660.62 214.5,-650.62 207.5,-650.62"/>
</a>
</g>
</g>
<!-- Node10 -->
<g id="Node000010" class="node">
<title>Node10</title>
<g id="a_Node000010"><a xlink:title=" ">
<polygon fill="white" stroke="none" points="243.5,-798.5 178.5,-798.5 178.5,-748.75 243.5,-748.75 243.5,-798.5"/>
<text text-anchor="start" x="182.5" y="-785" font-family="Helvetica,sans-Serif" font-size="10.00">std::ios_base</text>
<text text-anchor="start" x="209.5" y="-769.75" font-family="Helvetica,sans-Serif" font-size="10.00"> </text>
<text text-anchor="start" x="209.5" y="-754.5" font-family="Helvetica,sans-Serif" font-size="10.00"> </text>
<polygon fill="#666666" stroke="#666666" points="178.5,-781.25 178.5,-781.25 243.5,-781.25 243.5,-781.25 178.5,-781.25"/>
<polygon fill="#666666" stroke="#666666" points="178.5,-766 178.5,-766 243.5,-766 243.5,-766 178.5,-766"/>
<polygon fill="none" stroke="#666666" points="178.5,-748.75 178.5,-798.5 243.5,-798.5 243.5,-748.75 178.5,-748.75"/>
</a>
</g>
</g>
<!-- Node10&#45;&gt;Node9 -->
<g id="edge9_Node000009_Node000010" class="edge">
<title>Node10&#45;&gt;Node9</title>
<g id="a_edge9_Node000009_Node000010"><a xlink:title=" ">
<path fill="none" stroke="#63b8ff" d="M211,-737.54C211,-728.82 211,-719.68 211,-711.65"/>
<polygon fill="none" stroke="#63b8ff" points="207.5,-737.5 211,-747.5 214.5,-737.5 207.5,-737.5"/>
</a>
</g>
</g>
<!-- Node11 -->
<g id="Node000011" class="node">
<title>Node11</title>
<g id="a_Node000011"><a xlink:title=" ">
<polygon fill="white" stroke="none" points="345.38,-418.75 252.62,-418.75 252.62,-357.75 345.38,-357.75 345.38,-418.75"/>
<text text-anchor="start" x="256.62" y="-405.25" font-family="Helvetica,sans-Serif" font-size="10.00">std::unordered_map</text>
<text text-anchor="start" x="281.75" y="-394" font-family="Helvetica,sans-Serif" font-size="10.00">&lt; K, T &gt;</text>
<text text-anchor="start" x="297.5" y="-378.75" font-family="Helvetica,sans-Serif" font-size="10.00"> </text>
<text text-anchor="start" x="297.5" y="-363.5" font-family="Helvetica,sans-Serif" font-size="10.00"> </text>
<polygon fill="#666666" stroke="#666666" points="252.62,-390.25 252.62,-390.25 345.38,-390.25 345.38,-390.25 252.62,-390.25"/>
<polygon fill="#666666" stroke="#666666" points="252.62,-375 252.62,-375 345.38,-375 345.38,-375 252.62,-375"/>
<polygon fill="none" stroke="#666666" points="252.62,-357.75 252.62,-418.75 345.38,-418.75 345.38,-357.75 252.62,-357.75"/>
</a>
</g>
</g>
<!-- Node11&#45;&gt;Node3 -->
<g id="edge10_Node000003_Node000011" class="edge">
<title>Node11&#45;&gt;Node3</title>
<g id="a_edge10_Node000003_Node000011"><a xlink:title=" ">
<path fill="none" stroke="orange" d="M274.97,-348.2C259.18,-322.55 238.72,-289.29 223.48,-264.53"/>
<polygon fill="orange" stroke="orange" points="271.97,-350 280.19,-356.68 277.93,-346.33 271.97,-350"/>
</a>
</g>
<text text-anchor="start" x="267.62" y="-330.25" font-family="Helvetica,sans-Serif" font-size="10.00" fill="grey"> &lt; std::string, std</text>
<text text-anchor="middle" x="303.25" y="-319" font-family="Helvetica,sans-Serif" font-size="10.00" fill="grey">::ofstream &gt;</text>
</g>
<!-- Node12 -->
<g id="Node000012" class="node">
<title>Node12</title>
<g id="a_Node000012"><a xlink:title=" ">
<polygon fill="white" stroke="none" points="302.38,-521.38 287.62,-521.38 287.62,-471.62 302.38,-471.62 302.38,-521.38"/>
<text text-anchor="start" x="291.62" y="-507.88" font-family="Helvetica,sans-Serif" font-size="10.00">K</text>
<text text-anchor="start" x="293.5" y="-492.62" font-family="Helvetica,sans-Serif" font-size="10.00"> </text>
<text text-anchor="start" x="293.5" y="-477.38" font-family="Helvetica,sans-Serif" font-size="10.00"> </text>
<polygon fill="#666666" stroke="#666666" points="287.62,-504.12 287.62,-504.12 302.38,-504.12 302.38,-504.12 287.62,-504.12"/>
<polygon fill="#666666" stroke="#666666" points="287.62,-488.88 287.62,-488.88 302.38,-488.88 302.38,-488.88 287.62,-488.88"/>
<polygon fill="none" stroke="#666666" points="287.62,-471.62 287.62,-521.38 302.38,-521.38 302.38,-471.62 287.62,-471.62"/>
</a>
</g>
</g>
<!-- Node12&#45;&gt;Node11 -->
<g id="edge11_Node000011_Node000012" class="edge">
<title>Node12&#45;&gt;Node11</title>
<g id="a_edge11_Node000011_Node000012"><a xlink:title=" ">
<path fill="none" stroke="#63b8ff" d="M295.46,-471.77C295.7,-461.07 296.05,-448.27 296.5,-436.75 296.57,-435.01 296.64,-433.24 296.72,-431.44"/>
<polygon fill="none" stroke="#63b8ff" points="296.72,-431.52 293.01,-425.34 297.29,-419.54 301,-425.72 296.72,-431.52"/>
</a>
</g>
<text text-anchor="middle" x="310.75" y="-438.5" font-family="Helvetica,sans-Serif" font-size="10.00" fill="grey"> +keys</text>
</g>
<!-- Node13 -->
<g id="Node000013" class="node">
<title>Node13</title>
<g id="a_Node000013"><a xlink:title=" ">
<polygon fill="white" stroke="none" points="354,-521.38 340,-521.38 340,-471.62 354,-471.62 354,-521.38"/>
<text text-anchor="start" x="344" y="-507.88" font-family="Helvetica,sans-Serif" font-size="10.00">T</text>
<text text-anchor="start" x="345.5" y="-492.62" font-family="Helvetica,sans-Serif" font-size="10.00"> </text>
<text text-anchor="start" x="345.5" y="-477.38" font-family="Helvetica,sans-Serif" font-size="10.00"> </text>
<polygon fill="#666666" stroke="#666666" points="340,-504.12 340,-504.12 354,-504.12 354,-504.12 340,-504.12"/>
<polygon fill="#666666" stroke="#666666" points="340,-488.88 340,-488.88 354,-488.88 354,-488.88 340,-488.88"/>
<polygon fill="none" stroke="#666666" points="340,-471.62 340,-521.38 354,-521.38 354,-471.62 340,-471.62"/>
</a>
</g>
</g>
<!-- Node13&#45;&gt;Node11 -->
<g id="edge12_Node000011_Node000013" class="edge">
<title>Node13&#45;&gt;Node11</title>
<g id="a_edge12_Node000011_Node000013"><a xlink:title=" ">
<path fill="none" stroke="#63b8ff" d="M340.07,-474.82C336.05,-463.42 330.67,-449.13 325,-436.75 323.97,-434.51 322.88,-432.22 321.75,-429.93"/>
<polygon fill="none" stroke="#63b8ff" points="321.8,-430.03 315.5,-426.53 316.3,-419.36 322.61,-422.86 321.8,-430.03"/>
</a>
</g>
<text text-anchor="middle" x="353.78" y="-438.5" font-family="Helvetica,sans-Serif" font-size="10.00" fill="grey"> +elements</text>
</g>
</g>
</svg>

<g id="navigator" transform="translate(0 0)" fill="#404254">
  <rect fill="#f2f5e9" fill-opacity="0.5" stroke="#606060" stroke-width=".5" x="0" y="0" width="60" height="60"/>
  <use id="zoomplus" xlink:href="#zoomPlus" x="17" y="9" onmousedown="handleZoom(evt,'in')"/>
  <use id="zoomminus" xlink:href="#zoomMin" x="42" y="9" onmousedown="handleZoom(evt,'out')"/>
  <use id="reset" xlink:href="#resetDef" x="30" y="36" onmousedown="handleReset()"/>
   <use id="arrowup" xlink:href="#arrowUp" x="0" y="0" onmousedown="handlePan(0,-1)"/>
  <use id="arrowright" xlink:href="#arrowRight" x="0" y="0" onmousedown="handlePan(1,0)"/>
  <use id="arrowdown" xlink:href="#arrowDown" x="0" y="0" onmousedown="handlePan(0,1)"/>
  <use id="arrowleft" xlink:href="#arrowLeft" x="0" y="0" onmousedown="handlePan(-1,0)"/>
</g>
<svg viewBox="0 0 15 15" width="100%" height="30px" preserveAspectRatio="xMaxYMin meet">
 <g id="arrow_out" transform="scale(0.3 0.3)">
  <a xlink:href="classutils_1_1_per_nexus_csv_output_mgr__coll__graph_org.svg" target="_base">
   <rect id="button" ry="5" rx="5" y="6" x="6" height="38" width="38"
        fill="#f2f5e9" fill-opacity="0.5" stroke="#606060" stroke-width="1.0"/>
   <path id="arrow"
     d="M 11.500037,31.436501 C 11.940474,20.09759 22.043105,11.32322 32.158766,21.979434 L 37.068811,17.246167 C 37.068811,17.246167 37.088388,32 37.088388,32 L 22.160133,31.978069 C 22.160133,31.978069 26.997745,27.140456 26.997745,27.140456 C 18.528582,18.264221 13.291696,25.230495 11.500037,31.436501 z"
     style="fill:#404040;"/>
  </a>
 </g>
</svg>

<style type='text/css'>
<![CDATA[
[data-mouse-over-selected='false'] { opacity: 0.7; }
[data-mouse-over-selected='true']  { opacity: 1.0; }
]]>
</style>
<script type="application/ecmascript"><![CDATA[
document.addEventListener('DOMContentLoaded', (event) => {
  highlightEdges();
  highlightAdjacentNodes();
});
]]></script>
</svg>
