<?xml version="1.0" encoding="UTF-8" standalone="no"?>
<!DOCTYPE svg PUBLIC "-//W3C//DTD SVG 1.1//EN"
 "http://www.w3.org/Graphics/SVG/1.1/DTD/svg11.dtd">
<!-- Generated by graphviz version 2.44.0 ()
 -->
<!-- Title: HY_CatchmentRealization Pages: 1 -->
<svg width="284pt" height="447pt"
 viewBox="0.00 0.00 283.50 447.00" xmlns="http://www.w3.org/2000/svg" xmlns:xlink="http://www.w3.org/1999/xlink">
<g id="graph0" class="graph" transform="scale(1 1) rotate(0) translate(4 443)">
<title>HY_CatchmentRealization</title>
<polygon fill="white" stroke="transparent" points="-4,4 -4,-443 279.5,-443 279.5,4 -4,4"/>
<!-- Node1 -->
<g id="node1" class="node">
<title>Node1</title>
<g id="a_node1"><a xlink:title=" ">
<polygon fill="#bfbfbf" stroke="black" points="47.5,-0.5 47.5,-112.5 197.5,-112.5 197.5,-0.5 47.5,-0.5"/>
<text text-anchor="middle" x="122.5" y="-100.5" font-family="Helvetica,sans-Serif" font-size="10.00">HY_CatchmentRealization</text>
<polyline fill="none" stroke="black" points="47.5,-93.5 197.5,-93.5 "/>
<text text-anchor="start" x="55.5" y="-81.5" font-family="Helvetica,sans-Serif" font-size="10.00"># id_number</text>
<polyline fill="none" stroke="black" points="47.5,-74.5 197.5,-74.5 "/>
<text text-anchor="start" x="55.5" y="-62.5" font-family="Helvetica,sans-Serif" font-size="10.00">+ HY_CatchmentRealization()</text>
<text text-anchor="start" x="55.5" y="-51.5" font-family="Helvetica,sans-Serif" font-size="10.00">+ HY_CatchmentRealization()</text>
<text text-anchor="start" x="55.5" y="-40.5" font-family="Helvetica,sans-Serif" font-size="10.00">+ ~HY_CatchmentRealization()</text>
<text text-anchor="start" x="55.5" y="-29.5" font-family="Helvetica,sans-Serif" font-size="10.00">+ get_response()</text>
<text text-anchor="start" x="55.5" y="-18.5" font-family="Helvetica,sans-Serif" font-size="10.00"># get_catchment_id()</text>
<text text-anchor="start" x="55.5" y="-7.5" font-family="Helvetica,sans-Serif" font-size="10.00"># set_catchment_id()</text>
</a>
</g>
</g>
<!-- Node2 -->
<g id="node2" class="node">
<title>Node2</title>
<g id="a_node2"><a xlink:title=" ">
<polygon fill="white" stroke="#bfbfbf" points="0,-160.5 0,-228.5 117,-228.5 117,-160.5 0,-160.5"/>
<text text-anchor="start" x="8" y="-216.5" font-family="Helvetica,sans-Serif" font-size="10.00">std::unique_ptr&lt; forcing</text>
<text text-anchor="middle" x="58.5" y="-205.5" font-family="Helvetica,sans-Serif" font-size="10.00">::ForcingProvider &gt;</text>
<polyline fill="none" stroke="#bfbfbf" points="0,-198.5 117,-198.5 "/>
<text text-anchor="start" x="8" y="-186.5" font-family="Helvetica,sans-Serif" font-size="10.00">+ ptr</text>
<polyline fill="none" stroke="#bfbfbf" points="0,-179.5 117,-179.5 "/>
<text text-anchor="start" x="8" y="-167.5" font-family="Helvetica,sans-Serif" font-size="10.00">+ operator&#45;&gt;()</text>
</a>
</g>
</g>
<!-- Node2&#45;&gt;Node1 -->
<g id="edge1" class="edge">
<title>Node2&#45;&gt;Node1</title>
<path fill="none" stroke="#404040" d="M74.16,-160.23C79.37,-149.16 85.36,-136.41 91.33,-123.75"/>
<polygon fill="none" stroke="#404040" points="91.42,-123.54 90.36,-116.41 96.53,-112.68 97.6,-119.81 91.42,-123.54"/>
<text text-anchor="middle" x="106" y="-134" font-family="Helvetica,sans-Serif" font-size="10.00"> #forcing</text>
</g>
<!-- Node3 -->
<g id="node3" class="node">
<title>Node3</title>
<g id="a_node3"><a xlink:title=" ">
<polygon fill="white" stroke="#bfbfbf" points="10.5,-276.5 10.5,-333.5 112.5,-333.5 112.5,-276.5 10.5,-276.5"/>
<text text-anchor="middle" x="61.5" y="-321.5" font-family="Helvetica,sans-Serif" font-size="10.00">std::unique_ptr&lt; T &gt;</text>
<polyline fill="none" stroke="#bfbfbf" points="10.5,-314.5 112.5,-314.5 "/>
<text text-anchor="middle" x="61.5" y="-302.5" font-family="Helvetica,sans-Serif" font-size="10.00"> </text>
<polyline fill="none" stroke="#bfbfbf" points="10.5,-295.5 112.5,-295.5 "/>
<text text-anchor="start" x="18.5" y="-283.5" font-family="Helvetica,sans-Serif" font-size="10.00">+ operator&#45;&gt;()</text>
</a>
</g>
</g>
<!-- Node3&#45;&gt;Node2 -->
<g id="edge2" class="edge">
<title>Node3&#45;&gt;Node2</title>
<path fill="none" stroke="orange" d="M60.45,-265.99C60.11,-253.77 59.74,-240.35 59.41,-228.52"/>
<polygon fill="orange" stroke="orange" points="56.96,-266.44 60.74,-276.34 63.96,-266.25 56.96,-266.44"/>
<text text-anchor="middle" x="121" y="-250" font-family="Helvetica,sans-Serif" font-size="10.00"> &lt; forcing::ForcingProvider &gt;</text>
</g>
<!-- Node4 -->
<g id="node4" class="node">
<title>Node4</title>
<g id="a_node4"><a xlink:title=" ">
<polygon fill="white" stroke="#bfbfbf" points="107,-381.5 107,-438.5 136,-438.5 136,-381.5 107,-381.5"/>
<text text-anchor="middle" x="121.5" y="-426.5" font-family="Helvetica,sans-Serif" font-size="10.00">T</text>
<polyline fill="none" stroke="#bfbfbf" points="107,-419.5 136,-419.5 "/>
<text text-anchor="middle" x="121.5" y="-407.5" font-family="Helvetica,sans-Serif" font-size="10.00"> </text>
<polyline fill="none" stroke="#bfbfbf" points="107,-400.5 136,-400.5 "/>
<text text-anchor="middle" x="121.5" y="-388.5" font-family="Helvetica,sans-Serif" font-size="10.00"> </text>
</a>
</g>
</g>
<!-- Node4&#45;&gt;Node3 -->
<g id="edge3" class="edge">
<title>Node4&#45;&gt;Node3</title>
<path fill="none" stroke="#404040" d="M106.98,-384.07C99.97,-372.04 91.41,-357.35 83.62,-343.97"/>
<polygon fill="none" stroke="#404040" points="83.62,-343.97 77.14,-340.8 77.58,-333.6 84.06,-336.77 83.62,-343.97"/>
<text text-anchor="middle" x="103.5" y="-355" font-family="Helvetica,sans-Serif" font-size="10.00"> +ptr</text>
</g>
<!-- Node6 -->
<g id="node6" class="node">
<title>Node6</title>
<g id="a_node6"><a xlink:title=" ">
<polygon fill="white" stroke="#bfbfbf" points="137,-276.5 137,-333.5 240,-333.5 240,-276.5 137,-276.5"/>
<text text-anchor="middle" x="188.5" y="-321.5" font-family="Helvetica,sans-Serif" font-size="10.00">std::shared_ptr&lt; T &gt;</text>
<polyline fill="none" stroke="#bfbfbf" points="137,-314.5 240,-314.5 "/>
<text text-anchor="middle" x="188.5" y="-302.5" font-family="Helvetica,sans-Serif" font-size="10.00"> </text>
<polyline fill="none" stroke="#bfbfbf" points="137,-295.5 240,-295.5 "/>
<text text-anchor="start" x="145" y="-283.5" font-family="Helvetica,sans-Serif" font-size="10.00">+ operator&#45;&gt;()</text>
</a>
</g>
</g>
<!-- Node4&#45;&gt;Node6 -->
<g id="edge6" class="edge">
<title>Node4&#45;&gt;Node6</title>
<path fill="none" stroke="#404040" d="M136.04,-386.65C144.15,-374.18 154.48,-358.3 163.82,-343.94"/>
<polygon fill="none" stroke="#404040" points="163.86,-343.88 163.78,-336.67 170.4,-333.82 170.48,-341.03 163.86,-343.88"/>
<text text-anchor="middle" x="167.5" y="-355" font-family="Helvetica,sans-Serif" font-size="10.00"> +ptr</text>
</g>
<!-- Node5 -->
<g id="node5" class="node">
<title>Node5</title>
<g id="a_node5"><a xlink:title=" ">
<polygon fill="white" stroke="#bfbfbf" points="139,-160.5 139,-228.5 242,-228.5 242,-160.5 139,-160.5"/>
<text text-anchor="start" x="147" y="-216.5" font-family="Helvetica,sans-Serif" font-size="10.00">std::shared_ptr&lt; HY</text>
<text text-anchor="middle" x="190.5" y="-205.5" font-family="Helvetica,sans-Serif" font-size="10.00">_Catchment &gt;</text>
<polyline fill="none" stroke="#bfbfbf" points="139,-198.5 242,-198.5 "/>
<text text-anchor="start" x="147" y="-186.5" font-family="Helvetica,sans-Serif" font-size="10.00">+ ptr</text>
<polyline fill="none" stroke="#bfbfbf" points="139,-179.5 242,-179.5 "/>
<text text-anchor="start" x="147" y="-167.5" font-family="Helvetica,sans-Serif" font-size="10.00">+ operator&#45;&gt;()</text>
</a>
</g>
</g>
<!-- Node5&#45;&gt;Node1 -->
<g id="edge4" class="edge">
<title>Node5&#45;&gt;Node1</title>
<path fill="none" stroke="#404040" d="M173.87,-160.23C168.33,-149.16 161.96,-136.41 155.62,-123.75"/>
<polygon fill="none" stroke="#404040" points="155.46,-123.41 149.2,-119.84 150.09,-112.68 156.35,-116.26 155.46,-123.41"/>
<text text-anchor="middle" x="211.5" y="-134" font-family="Helvetica,sans-Serif" font-size="10.00"> #realized_catchment</text>
</g>
<!-- Node6&#45;&gt;Node5 -->
<g id="edge5" class="edge">
<title>Node6&#45;&gt;Node5</title>
<path fill="none" stroke="orange" d="M189.2,-265.99C189.43,-253.77 189.67,-240.35 189.89,-228.52"/>
<polygon fill="orange" stroke="orange" points="185.69,-266.28 189.01,-276.34 192.69,-266.41 185.69,-266.28"/>
<text text-anchor="middle" x="232.5" y="-250" font-family="Helvetica,sans-Serif" font-size="10.00"> &lt; HY_Catchment &gt;</text>
</g>
</g>
</svg>
