<?xml version="1.0" encoding="UTF-8" standalone="no"?>
<!DOCTYPE svg PUBLIC "-//W3C//DTD SVG 1.1//EN"
 "http://www.w3.org/Graphics/SVG/1.1/DTD/svg11.dtd">
<!-- Generated by graphviz version 7.0.5 (20221223.1930)
 -->
<!-- Title: HY_FlowPath Pages: 1 -->
<svg width="262pt" height="236pt"
 viewBox="0.00 0.00 262.00 236.00" xmlns="http://www.w3.org/2000/svg" xmlns:xlink="http://www.w3.org/1999/xlink">
<g id="graph0" class="graph" transform="scale(1 1) rotate(0) translate(4 232)">
<title>HY_FlowPath</title>
<!-- Node1 -->
<g id="node1" class="node">
<title>Node1</title>
<g id="a_node1"><a xlink:title=" ">
<polygon fill="#999999" stroke="#666666" points="159.5,-63 62.5,-63 62.5,0 159.5,0 159.5,-63"/>
<text text-anchor="middle" x="111" y="-51" font-family="Helvetica,sans-Serif" font-size="10.00">{HY_FlowPath</text>
<text text-anchor="start" x="70.5" y="-40" font-family="Helvetica,sans-Serif" font-size="10.00">|&#45; flow_path</text>
<text text-anchor="start" x="70.5" y="-29" font-family="Helvetica,sans-Serif" font-size="10.00">|+ HY_FlowPath()</text>
<text text-anchor="start" x="70.5" y="-18" font-family="Helvetica,sans-Serif" font-size="10.00">+ ~HY_FlowPath()</text>
<text text-anchor="middle" x="111" y="-7" font-family="Helvetica,sans-Serif" font-size="10.00">}</text>
</a>
</g>
</g>
<!-- Node2 -->
<g id="node2" class="node">
<title>Node2</title>
<g id="a_node2"><a xlink:href="class_g_m___object.html" target="_top" xlink:title=" ">
<polygon fill="white" stroke="#666666" points="86,-189.5 0,-189.5 0,-137.5 86,-137.5 86,-189.5"/>
<text text-anchor="middle" x="43" y="-177.5" font-family="Helvetica,sans-Serif" font-size="10.00">{GM_Object</text>
<text text-anchor="start" x="8" y="-166.5" font-family="Helvetica,sans-Serif" font-size="10.00">||+ GM_Object()</text>
<text text-anchor="start" x="8" y="-155.5" font-family="Helvetica,sans-Serif" font-size="10.00">+ ~GM_Object()</text>
<text text-anchor="middle" x="43" y="-144.5" font-family="Helvetica,sans-Serif" font-size="10.00">}</text>
</a>
</g>
</g>
<!-- Node2&#45;&gt;Node1 -->
<g id="edge1" class="edge">
<title>Node2&#45;&gt;Node1</title>
<path fill="none" stroke="#63b8ff" d="M61.48,-127.17C71.92,-107.21 84.86,-82.48 94.89,-63.31"/>
<polygon fill="none" stroke="#63b8ff" points="58.51,-125.3 56.97,-135.78 64.71,-128.55 58.51,-125.3"/>
</g>
<!-- Node3 -->
<g id="node3" class="node">
<title>Node3</title>
<g id="a_node3"><a xlink:href="class_h_y___catchment_realization.html" target="_top" xlink:title=" ">
<polygon fill="white" stroke="#666666" points="254,-228 104,-228 104,-99 254,-99 254,-228"/>
<text text-anchor="middle" x="179" y="-216" font-family="Helvetica,sans-Serif" font-size="10.00">{HY_CatchmentRealization</text>
<text text-anchor="start" x="112" y="-205" font-family="Helvetica,sans-Serif" font-size="10.00">|# realized_catchment</text>
<text text-anchor="start" x="112" y="-194" font-family="Helvetica,sans-Serif" font-size="10.00"># id_number</text>
<text text-anchor="start" x="112" y="-183" font-family="Helvetica,sans-Serif" font-size="10.00"># forcing</text>
<text text-anchor="start" x="112" y="-172" font-family="Helvetica,sans-Serif" font-size="10.00">|+ HY_CatchmentRealization()</text>
<text text-anchor="start" x="112" y="-161" font-family="Helvetica,sans-Serif" font-size="10.00">+ HY_CatchmentRealization()</text>
<text text-anchor="start" x="112" y="-150" font-family="Helvetica,sans-Serif" font-size="10.00">+ ~HY_CatchmentRealization()</text>
<text text-anchor="start" x="112" y="-139" font-family="Helvetica,sans-Serif" font-size="10.00">+ get_response()</text>
<text text-anchor="start" x="112" y="-128" font-family="Helvetica,sans-Serif" font-size="10.00"># get_catchment_id()</text>
<text text-anchor="start" x="112" y="-117" font-family="Helvetica,sans-Serif" font-size="10.00"># set_catchment_id()</text>
<text text-anchor="middle" x="179" y="-106" font-family="Helvetica,sans-Serif" font-size="10.00">}</text>
</a>
</g>
</g>
<!-- Node3&#45;&gt;Node1 -->
<g id="edge2" class="edge">
<title>Node3&#45;&gt;Node1</title>
<path fill="none" stroke="#63b8ff" d="M140.32,-88.55C135.67,-79.67 131.15,-71.01 127.09,-63.27"/>
<polygon fill="none" stroke="#63b8ff" points="137.16,-90.06 144.9,-97.3 143.36,-86.82 137.16,-90.06"/>
</g>
</g>
</svg>
