<?xml version="1.0" encoding="UTF-8" standalone="no"?>
<!DOCTYPE svg PUBLIC "-//W3C//DTD SVG 1.1//EN"
 "http://www.w3.org/Graphics/SVG/1.1/DTD/svg11.dtd">
<!-- Generated by graphviz version 2.49.3 (20211027.1534)
 -->
<!-- Title: realization::Bmi_Formulation Pages: 1 -->
<!--zoomable 1857 -->
<svg id="main" version="1.1" xmlns="http://www.w3.org/2000/svg" xmlns:xlink="http://www.w3.org/1999/xlink" xml:space="preserve" onload="init(evt)">
<style type="text/css"><![CDATA[
.edge:hover path { stroke: red; }
.edge:hover polygon { stroke: red; fill: red; }
]]></style>
<script type="text/javascript"><![CDATA[
var edges = document.getElementsByTagName('g');
if (edges && edges.length) {
  for (var i=0;i<edges.length;i++) {
    if (edges[i].id.substr(0,4)=='edge') {
      edges[i].setAttribute('class','edge');
    }
  }
}
]]></script>
        <defs>
                <circle id="rim" cx="0" cy="0" r="7"/>
                <circle id="rim2" cx="0" cy="0" r="3.5"/>
                <g id="zoomPlus">
                        <use xlink:href="#rim" fill="#404040">
                                <set attributeName="fill" to="#808080" begin="zoomplus.mouseover" end="zoomplus.mouseout"/>
                        </use>
                        <path d="M-4,0h8M0,-4v8" fill="none" stroke="white" stroke-width="1.5" pointer-events="none"/>
                </g>
                <g id="zoomMin">
                        <use xlink:href="#rim" fill="#404040">
                                <set attributeName="fill" to="#808080" begin="zoomminus.mouseover" end="zoomminus.mouseout"/>
                        </use>
                        <path d="M-4,0h8" fill="none" stroke="white" stroke-width="1.5" pointer-events="none"/>
                </g>
                <g id="dirArrow">
                        <path fill="none" stroke="white" stroke-width="1.5" d="M0,-3.0v7 M-2.5,-0.5L0,-3.0L2.5,-0.5"/>
                </g>
               <g id="resetDef">
                       <use xlink:href="#rim2" fill="#404040">
                               <set attributeName="fill" to="#808080" begin="reset.mouseover" end="reset.mouseout"/>
                       </use>
               </g>
        </defs>

<script type="text/javascript">
var viewWidth = 958;
var viewHeight = 1857;
var sectionId = 'dynsection-1';
</script>
<script xlink:href="svgpan.js"/>
<svg id="graph" class="graph">
<g id="viewport">
<title>realization::Bmi_Formulation</title>
<polygon fill="white" stroke="transparent" points="-4,4 -4,-1853 954.28,-1853 954.28,4 -4,4"/>
<!-- Node1 -->
<g id="node1" class="node">
<title>Node1</title>
<g id="a_node1"><a xlink:title="Abstraction of formulation with backing model object(s) that implements the BMI.">
<polygon fill="#bfbfbf" stroke="black" points="645.28,-0.5 645.28,-398.5 793.28,-398.5 793.28,-0.5 645.28,-0.5"/>
<text text-anchor="middle" x="719.28" y="-386.5" font-family="Helvetica,sans-Serif" font-size="10.00">realization::Bmi_Formulation</text>
<polyline fill="none" stroke="black" points="645.28,-379.5 793.28,-379.5 "/>
<text text-anchor="start" x="653.28" y="-367.5" font-family="Helvetica,sans-Serif" font-size="10.00"># output_text_stream</text>
<text text-anchor="start" x="653.28" y="-356.5" font-family="Helvetica,sans-Serif" font-size="10.00">&#45; output_header_fields</text>
<text text-anchor="start" x="653.28" y="-345.5" font-family="Helvetica,sans-Serif" font-size="10.00">&#45; output_variable_names</text>
<text text-anchor="start" x="653.28" y="-334.5" font-family="Helvetica,sans-Serif" font-size="10.00">&#45; output_precision</text>
<text text-anchor="start" x="653.28" y="-323.5" font-family="Helvetica,sans-Serif" font-size="10.00">&#45; OPTIONAL_PARAMETERS</text>
<text text-anchor="start" x="653.28" y="-312.5" font-family="Helvetica,sans-Serif" font-size="10.00">&#45; REQUIRED_PARAMETERS</text>
<polyline fill="none" stroke="black" points="645.28,-305.5 793.28,-305.5 "/>
<text text-anchor="start" x="653.28" y="-293.5" font-family="Helvetica,sans-Serif" font-size="10.00">+ Bmi_Formulation()</text>
<text text-anchor="start" x="653.28" y="-282.5" font-family="Helvetica,sans-Serif" font-size="10.00">+ ~Bmi_Formulation()</text>
<text text-anchor="start" x="653.28" y="-271.5" font-family="Helvetica,sans-Serif" font-size="10.00">+ convert_model_time()</text>
<text text-anchor="start" x="653.28" y="-260.5" font-family="Helvetica,sans-Serif" font-size="10.00">+ get_allow_model_exceed</text>
<text text-anchor="start" x="653.28" y="-249.5" font-family="Helvetica,sans-Serif" font-size="10.00">_end_time()</text>
<text text-anchor="start" x="653.28" y="-238.5" font-family="Helvetica,sans-Serif" font-size="10.00">+ get_bmi_input_variables()</text>
<text text-anchor="start" x="653.28" y="-227.5" font-family="Helvetica,sans-Serif" font-size="10.00">+ get_bmi_main_output</text>
<text text-anchor="start" x="653.28" y="-216.5" font-family="Helvetica,sans-Serif" font-size="10.00">_var()</text>
<text text-anchor="start" x="653.28" y="-205.5" font-family="Helvetica,sans-Serif" font-size="10.00">+ get_bmi_model_start</text>
<text text-anchor="start" x="653.28" y="-194.5" font-family="Helvetica,sans-Serif" font-size="10.00">_time_forcing_offset_s()</text>
<text text-anchor="start" x="653.28" y="-183.5" font-family="Helvetica,sans-Serif" font-size="10.00">+ get_bmi_output_variables()</text>
<text text-anchor="start" x="653.28" y="-172.5" font-family="Helvetica,sans-Serif" font-size="10.00">+ get_config_mapped_variable</text>
<text text-anchor="start" x="653.28" y="-161.5" font-family="Helvetica,sans-Serif" font-size="10.00">_name()</text>
<text text-anchor="start" x="653.28" y="-150.5" font-family="Helvetica,sans-Serif" font-size="10.00">+ get_model_current_time()</text>
<text text-anchor="start" x="653.28" y="-139.5" font-family="Helvetica,sans-Serif" font-size="10.00">+ get_model_end_time()</text>
<text text-anchor="start" x="653.28" y="-128.5" font-family="Helvetica,sans-Serif" font-size="10.00">+ get_forcing_file_path()</text>
<text text-anchor="start" x="653.28" y="-117.5" font-family="Helvetica,sans-Serif" font-size="10.00">+ get_model_type_name()</text>
<text text-anchor="start" x="653.28" y="-106.5" font-family="Helvetica,sans-Serif" font-size="10.00">+ get_output_header_fields()</text>
<text text-anchor="start" x="653.28" y="-95.5" font-family="Helvetica,sans-Serif" font-size="10.00">+ get_output_header_line()</text>
<text text-anchor="start" x="653.28" y="-84.5" font-family="Helvetica,sans-Serif" font-size="10.00">and 8 more...</text>
<text text-anchor="start" x="653.28" y="-73.5" font-family="Helvetica,sans-Serif" font-size="10.00"># get_output_precision()</text>
<text text-anchor="start" x="653.28" y="-62.5" font-family="Helvetica,sans-Serif" font-size="10.00"># set_bmi_main_output</text>
<text text-anchor="start" x="653.28" y="-51.5" font-family="Helvetica,sans-Serif" font-size="10.00">_var()</text>
<text text-anchor="start" x="653.28" y="-40.5" font-family="Helvetica,sans-Serif" font-size="10.00"># set_model_type_name()</text>
<text text-anchor="start" x="653.28" y="-29.5" font-family="Helvetica,sans-Serif" font-size="10.00"># set_output_header_fields()</text>
<text text-anchor="start" x="653.28" y="-18.5" font-family="Helvetica,sans-Serif" font-size="10.00"># set_output_variable</text>
<text text-anchor="start" x="653.28" y="-7.5" font-family="Helvetica,sans-Serif" font-size="10.00">_names()</text>
</a>
</g>
</g>
<!-- Node2 -->
<g id="node2" class="node">
<title>Node2</title>
<g id="a_node2"><a xlink:href="classrealization_1_1_catchment___formulation.html" target="_top" xlink:title=" ">
<polygon fill="white" stroke="black" points="315.78,-436.5 315.78,-625.5 462.78,-625.5 462.78,-436.5 315.78,-436.5"/>
<text text-anchor="start" x="323.78" y="-613.5" font-family="Helvetica,sans-Serif" font-size="10.00">realization::Catchment</text>
<text text-anchor="middle" x="389.28" y="-602.5" font-family="Helvetica,sans-Serif" font-size="10.00">_Formulation</text>
<polyline fill="none" stroke="black" points="315.78,-595.5 462.78,-595.5 "/>
<text text-anchor="middle" x="389.28" y="-583.5" font-family="Helvetica,sans-Serif" font-size="10.00"> </text>
<polyline fill="none" stroke="black" points="315.78,-576.5 462.78,-576.5 "/>
<text text-anchor="start" x="323.78" y="-564.5" font-family="Helvetica,sans-Serif" font-size="10.00">+ Catchment_Formulation()</text>
<text text-anchor="start" x="323.78" y="-553.5" font-family="Helvetica,sans-Serif" font-size="10.00">+ Catchment_Formulation()</text>
<text text-anchor="start" x="323.78" y="-542.5" font-family="Helvetica,sans-Serif" font-size="10.00">+ get_output_header_line()</text>
<text text-anchor="start" x="323.78" y="-531.5" font-family="Helvetica,sans-Serif" font-size="10.00">+ get_response()</text>
<text text-anchor="start" x="323.78" y="-520.5" font-family="Helvetica,sans-Serif" font-size="10.00">+ get_required_parameters()</text>
<text text-anchor="start" x="323.78" y="-509.5" font-family="Helvetica,sans-Serif" font-size="10.00">+ create_formulation()</text>
<text text-anchor="start" x="323.78" y="-498.5" font-family="Helvetica,sans-Serif" font-size="10.00">+ create_formulation()</text>
<text text-anchor="start" x="323.78" y="-487.5" font-family="Helvetica,sans-Serif" font-size="10.00">+ ~Catchment_Formulation()</text>
<text text-anchor="start" x="323.78" y="-476.5" font-family="Helvetica,sans-Serif" font-size="10.00">+ config_pattern_substitution()</text>
<text text-anchor="start" x="323.78" y="-465.5" font-family="Helvetica,sans-Serif" font-size="10.00"># get_catchment_id()</text>
<text text-anchor="start" x="323.78" y="-454.5" font-family="Helvetica,sans-Serif" font-size="10.00"># set_catchment_id()</text>
<text text-anchor="start" x="323.78" y="-443.5" font-family="Helvetica,sans-Serif" font-size="10.00"># _link_legacy_forcing()</text>
</a>
</g>
</g>
<!-- Node2&#45;&gt;Node1 -->
<g id="edge1" class="edge">
<title>Node2&#45;&gt;Node1</title>
<path fill="none" stroke="midnightblue" d="M470.03,-449.38C523.44,-396.04 592.96,-326.63 645.01,-274.67"/>
<polygon fill="none" stroke="midnightblue" points="467.54,-446.92 462.93,-456.46 472.48,-451.87 467.54,-446.92"/>
</g>
<!-- Node3 -->
<g id="node3" class="node">
<title>Node3</title>
<g id="a_node3"><a xlink:href="classrealization_1_1_formulation.html" target="_top" xlink:title=" ">
<polygon fill="white" stroke="black" points="21.78,-838.5 21.78,-1038.5 158.78,-1038.5 158.78,-838.5 21.78,-838.5"/>
<text text-anchor="middle" x="90.28" y="-1026.5" font-family="Helvetica,sans-Serif" font-size="10.00">realization::Formulation</text>
<polyline fill="none" stroke="black" points="21.78,-1019.5 158.78,-1019.5 "/>
<text text-anchor="middle" x="90.28" y="-1007.5" font-family="Helvetica,sans-Serif" font-size="10.00"> </text>
<polyline fill="none" stroke="black" points="21.78,-1000.5 158.78,-1000.5 "/>
<text text-anchor="start" x="29.78" y="-988.5" font-family="Helvetica,sans-Serif" font-size="10.00">+ Formulation()</text>
<text text-anchor="start" x="29.78" y="-977.5" font-family="Helvetica,sans-Serif" font-size="10.00">+ ~Formulation()</text>
<text text-anchor="start" x="29.78" y="-966.5" font-family="Helvetica,sans-Serif" font-size="10.00">+ get_formulation_type()</text>
<text text-anchor="start" x="29.78" y="-955.5" font-family="Helvetica,sans-Serif" font-size="10.00">+ get_response()</text>
<text text-anchor="start" x="29.78" y="-944.5" font-family="Helvetica,sans-Serif" font-size="10.00">+ add_time()</text>
<text text-anchor="start" x="29.78" y="-933.5" font-family="Helvetica,sans-Serif" font-size="10.00">+ get_id()</text>
<text text-anchor="start" x="29.78" y="-922.5" font-family="Helvetica,sans-Serif" font-size="10.00">+ get_output_header_line()</text>
<text text-anchor="start" x="29.78" y="-911.5" font-family="Helvetica,sans-Serif" font-size="10.00">+ get_output_line_for</text>
<text text-anchor="start" x="29.78" y="-900.5" font-family="Helvetica,sans-Serif" font-size="10.00">_timestep()</text>
<text text-anchor="start" x="29.78" y="-889.5" font-family="Helvetica,sans-Serif" font-size="10.00">+ create_formulation()</text>
<text text-anchor="start" x="29.78" y="-878.5" font-family="Helvetica,sans-Serif" font-size="10.00">+ create_formulation()</text>
<text text-anchor="start" x="29.78" y="-867.5" font-family="Helvetica,sans-Serif" font-size="10.00"># get_required_parameters()</text>
<text text-anchor="start" x="29.78" y="-856.5" font-family="Helvetica,sans-Serif" font-size="10.00"># interpret_parameters()</text>
<text text-anchor="start" x="29.78" y="-845.5" font-family="Helvetica,sans-Serif" font-size="10.00"># validate_parameters()</text>
</a>
</g>
</g>
<!-- Node3&#45;&gt;Node2 -->
<g id="edge2" class="edge">
<title>Node3&#45;&gt;Node2</title>
<path fill="none" stroke="midnightblue" d="M103.9,-828.37C114.58,-777.26 133.56,-717.91 167.28,-673 205.19,-622.53 266.9,-585.45 315.65,-562.01"/>
<polygon fill="none" stroke="midnightblue" points="100.41,-827.98 101.88,-838.47 107.27,-829.36 100.41,-827.98"/>
</g>
<!-- Node4 -->
<g id="node4" class="node">
<title>Node4</title>
<g id="a_node4"><a xlink:href="classrealization_1_1_et___aware.html" target="_top" xlink:title="Interface for type that is aware of parameters for evapotranspiration in certain calculations,...">
<polygon fill="white" stroke="black" points="71.28,-1284.5 71.28,-1374.5 179.28,-1374.5 179.28,-1284.5 71.28,-1284.5"/>
<text text-anchor="middle" x="125.28" y="-1362.5" font-family="Helvetica,sans-Serif" font-size="10.00">realization::Et_Aware</text>
<polyline fill="none" stroke="black" points="71.28,-1355.5 179.28,-1355.5 "/>
<text text-anchor="middle" x="125.28" y="-1343.5" font-family="Helvetica,sans-Serif" font-size="10.00"> </text>
<polyline fill="none" stroke="black" points="71.28,-1336.5 179.28,-1336.5 "/>
<text text-anchor="start" x="79.28" y="-1324.5" font-family="Helvetica,sans-Serif" font-size="10.00">+ Et_Aware()</text>
<text text-anchor="start" x="79.28" y="-1313.5" font-family="Helvetica,sans-Serif" font-size="10.00">+ ~Et_Aware()</text>
<text text-anchor="start" x="79.28" y="-1302.5" font-family="Helvetica,sans-Serif" font-size="10.00">+ is_et_params_set()</text>
<text text-anchor="start" x="79.28" y="-1291.5" font-family="Helvetica,sans-Serif" font-size="10.00">+ set_et_params()</text>
</a>
</g>
</g>
<!-- Node4&#45;&gt;Node3 -->
<g id="edge3" class="edge">
<title>Node4&#45;&gt;Node3</title>
<path fill="none" stroke="midnightblue" d="M120.39,-1274.1C114.92,-1213.29 105.94,-1113.53 99.21,-1038.74"/>
<polygon fill="none" stroke="midnightblue" points="116.92,-1274.61 121.3,-1284.26 123.89,-1273.98 116.92,-1274.61"/>
</g>
<!-- Node11 -->
<g id="node11" class="node">
<title>Node11</title>
<g id="a_node11"><a xlink:href="classrealization_1_1_et___accountable.html" target="_top" xlink:title="Interface for type that is able to account for evapotranspiration in certain calculations,...">
<polygon fill="white" stroke="black" points="176.78,-877 176.78,-1000 309.78,-1000 309.78,-877 176.78,-877"/>
<text text-anchor="middle" x="243.28" y="-988" font-family="Helvetica,sans-Serif" font-size="10.00">realization::Et_Accountable</text>
<polyline fill="none" stroke="black" points="176.78,-981 309.78,-981 "/>
<text text-anchor="start" x="184.78" y="-969" font-family="Helvetica,sans-Serif" font-size="10.00">&#45; et_params</text>
<polyline fill="none" stroke="black" points="176.78,-962 309.78,-962 "/>
<text text-anchor="start" x="184.78" y="-950" font-family="Helvetica,sans-Serif" font-size="10.00">+ Et_Accountable()</text>
<text text-anchor="start" x="184.78" y="-939" font-family="Helvetica,sans-Serif" font-size="10.00">+ ~Et_Accountable()</text>
<text text-anchor="start" x="184.78" y="-928" font-family="Helvetica,sans-Serif" font-size="10.00">+ calc_et()</text>
<text text-anchor="start" x="184.78" y="-917" font-family="Helvetica,sans-Serif" font-size="10.00">+ get_et_params()</text>
<text text-anchor="start" x="184.78" y="-906" font-family="Helvetica,sans-Serif" font-size="10.00">+ is_et_params_set()</text>
<text text-anchor="start" x="184.78" y="-895" font-family="Helvetica,sans-Serif" font-size="10.00">+ set_et_params()</text>
<text text-anchor="start" x="184.78" y="-884" font-family="Helvetica,sans-Serif" font-size="10.00"># get_et_params_ptr()</text>
</a>
</g>
</g>
<!-- Node4&#45;&gt;Node11 -->
<g id="edge12" class="edge">
<title>Node4&#45;&gt;Node11</title>
<path fill="none" stroke="midnightblue" d="M144.08,-1274.54C151.53,-1252.71 160.03,-1227.23 167.28,-1204 189,-1134.45 211.81,-1053.9 226.71,-1000.14"/>
<polygon fill="none" stroke="midnightblue" points="140.67,-1273.7 140.74,-1284.29 147.3,-1275.97 140.67,-1273.7"/>
</g>
<!-- Node5 -->
<g id="node5" class="node">
<title>Node5</title>
<g id="a_node5"><a xlink:title=" ">
<polygon fill="white" stroke="#bfbfbf" points="451.78,-1510.5 451.78,-1567.5 510.78,-1567.5 510.78,-1510.5 451.78,-1510.5"/>
<text text-anchor="middle" x="481.28" y="-1555.5" font-family="Helvetica,sans-Serif" font-size="10.00">std::string</text>
<polyline fill="none" stroke="#bfbfbf" points="451.78,-1548.5 510.78,-1548.5 "/>
<text text-anchor="middle" x="481.28" y="-1536.5" font-family="Helvetica,sans-Serif" font-size="10.00"> </text>
<polyline fill="none" stroke="#bfbfbf" points="451.78,-1529.5 510.78,-1529.5 "/>
<text text-anchor="middle" x="481.28" y="-1517.5" font-family="Helvetica,sans-Serif" font-size="10.00"> </text>
</a>
</g>
</g>
<!-- Node5&#45;&gt;Node1 -->
<g id="edge19" class="edge">
<title>Node5&#45;&gt;Node1</title>
<path fill="none" stroke="#404040" d="M510.92,-1529.19C559.04,-1513.28 653.67,-1475.02 702.28,-1408 722.99,-1379.45 719.28,-1365.76 719.28,-1330.5 719.28,-1330.5 719.28,-1330.5 719.28,-530 719.28,-491.51 719.28,-450.49 719.28,-410.92"/>
<polygon fill="none" stroke="#404040" points="719.28,-410.7 715.28,-404.7 719.28,-398.7 723.28,-404.7 719.28,-410.7"/>
<text text-anchor="middle" x="768.78" y="-941.5" font-family="Helvetica,sans-Serif" font-size="10.00"> &#45;bmi_main_output_var</text>
<text text-anchor="middle" x="768.78" y="-930.5" font-family="Helvetica,sans-Serif" font-size="10.00">&#45;model_type_name</text>
</g>
<!-- Node5&#45;&gt;Node3 -->
<g id="edge4" class="edge">
<title>Node5&#45;&gt;Node3</title>
<path fill="none" stroke="#404040" d="M451.57,-1533.74C361.76,-1520.19 96.19,-1475.01 46.28,-1408 -30.15,-1305.38 3.42,-1152.96 40.99,-1050.09"/>
<polygon fill="none" stroke="#404040" points="41.03,-1049.97 39.38,-1042.95 45.23,-1038.73 46.88,-1045.75 41.03,-1049.97"/>
<text text-anchor="middle" x="54.28" y="-1327" font-family="Helvetica,sans-Serif" font-size="10.00"> #id</text>
</g>
<!-- Node10 -->
<g id="node10" class="node">
<title>Node10</title>
<g id="a_node10"><a xlink:href="classutils_1_1_stream_handler.html" target="_top" xlink:title="This class provides a copyable interface to a std::ostream or std::ostream like object that may not s...">
<polygon fill="white" stroke="black" points="301.28,-1251.5 301.28,-1407.5 405.28,-1407.5 405.28,-1251.5 301.28,-1251.5"/>
<text text-anchor="middle" x="353.28" y="-1395.5" font-family="Helvetica,sans-Serif" font-size="10.00">utils::StreamHandler</text>
<polyline fill="none" stroke="black" points="301.28,-1388.5 405.28,-1388.5 "/>
<text text-anchor="start" x="309.28" y="-1376.5" font-family="Helvetica,sans-Serif" font-size="10.00"># output_stream</text>
<polyline fill="none" stroke="black" points="301.28,-1369.5 405.28,-1369.5 "/>
<text text-anchor="start" x="309.28" y="-1357.5" font-family="Helvetica,sans-Serif" font-size="10.00">+ StreamHandler()</text>
<text text-anchor="start" x="309.28" y="-1346.5" font-family="Helvetica,sans-Serif" font-size="10.00">+ StreamHandler()</text>
<text text-anchor="start" x="309.28" y="-1335.5" font-family="Helvetica,sans-Serif" font-size="10.00">+ StreamHandler()</text>
<text text-anchor="start" x="309.28" y="-1324.5" font-family="Helvetica,sans-Serif" font-size="10.00">+ StreamHandler()</text>
<text text-anchor="start" x="309.28" y="-1313.5" font-family="Helvetica,sans-Serif" font-size="10.00">+ ~StreamHandler()</text>
<text text-anchor="start" x="309.28" y="-1302.5" font-family="Helvetica,sans-Serif" font-size="10.00">+ operator=()</text>
<text text-anchor="start" x="309.28" y="-1291.5" font-family="Helvetica,sans-Serif" font-size="10.00">+ put()</text>
<text text-anchor="start" x="309.28" y="-1280.5" font-family="Helvetica,sans-Serif" font-size="10.00">+ put_indexed()</text>
<text text-anchor="start" x="309.28" y="-1269.5" font-family="Helvetica,sans-Serif" font-size="10.00">+ put_var()</text>
<text text-anchor="start" x="309.28" y="-1258.5" font-family="Helvetica,sans-Serif" font-size="10.00">+ operator&lt;&lt;()</text>
</a>
</g>
</g>
<!-- Node5&#45;&gt;Node10 -->
<g id="edge10" class="edge">
<title>Node5&#45;&gt;Node10</title>
<path fill="none" stroke="#404040" d="M464.29,-1510.45C449.68,-1486.77 427.8,-1451.29 407.31,-1418.08"/>
<polygon fill="none" stroke="#404040" points="407.3,-1418.07 400.75,-1415.07 401,-1407.86 407.56,-1410.87 407.3,-1418.07"/>
<text text-anchor="middle" x="429.28" y="-1429" font-family="Helvetica,sans-Serif" font-size="10.00"> #sep</text>
</g>
<!-- Node12 -->
<g id="node12" class="node">
<title>Node12</title>
<g id="a_node12"><a xlink:href="class_forcing.html" target="_top" xlink:title="Forcing class providing time&#45;series precipiation forcing data to the model.">
<polygon fill="white" stroke="black" points="539.28,-673.5 539.28,-1203.5 679.28,-1203.5 679.28,-673.5 539.28,-673.5"/>
<text text-anchor="middle" x="609.28" y="-1191.5" font-family="Helvetica,sans-Serif" font-size="10.00">Forcing</text>
<polyline fill="none" stroke="black" points="539.28,-1184.5 679.28,-1184.5 "/>
<text text-anchor="start" x="547.28" y="-1172.5" font-family="Helvetica,sans-Serif" font-size="10.00">&#45; available_forcings</text>
<text text-anchor="start" x="547.28" y="-1161.5" font-family="Helvetica,sans-Serif" font-size="10.00">&#45; AORC_vector</text>
<text text-anchor="start" x="547.28" y="-1150.5" font-family="Helvetica,sans-Serif" font-size="10.00">&#45; is_aorc_data</text>
<text text-anchor="start" x="547.28" y="-1139.5" font-family="Helvetica,sans-Serif" font-size="10.00">&#45; precipitation_rate</text>
<text text-anchor="start" x="547.28" y="-1128.5" font-family="Helvetica,sans-Serif" font-size="10.00">_meters_per_second_vector</text>
<text text-anchor="start" x="547.28" y="-1117.5" font-family="Helvetica,sans-Serif" font-size="10.00">&#45; time_epoch_vector</text>
<text text-anchor="start" x="547.28" y="-1106.5" font-family="Helvetica,sans-Serif" font-size="10.00">&#45; forcing_vector_index</text>
<text text-anchor="start" x="547.28" y="-1095.5" font-family="Helvetica,sans-Serif" font-size="10.00">&#45; precipitation_rate</text>
<text text-anchor="start" x="547.28" y="-1084.5" font-family="Helvetica,sans-Serif" font-size="10.00">_meters_per_second</text>
<text text-anchor="start" x="547.28" y="-1073.5" font-family="Helvetica,sans-Serif" font-size="10.00">&#45; air_temperature_fahrenheit</text>
<text text-anchor="start" x="547.28" y="-1062.5" font-family="Helvetica,sans-Serif" font-size="10.00">&#45; latitude</text>
<text text-anchor="start" x="547.28" y="-1051.5" font-family="Helvetica,sans-Serif" font-size="10.00">&#45; longitude</text>
<text text-anchor="start" x="547.28" y="-1040.5" font-family="Helvetica,sans-Serif" font-size="10.00">&#45; catchment_id</text>
<text text-anchor="start" x="547.28" y="-1029.5" font-family="Helvetica,sans-Serif" font-size="10.00">&#45; day_of_year</text>
<text text-anchor="start" x="547.28" y="-1018.5" font-family="Helvetica,sans-Serif" font-size="10.00">&#45; start_date_time</text>
<text text-anchor="start" x="547.28" y="-1007.5" font-family="Helvetica,sans-Serif" font-size="10.00">&#45; end_date_time</text>
<text text-anchor="start" x="547.28" y="-996.5" font-family="Helvetica,sans-Serif" font-size="10.00">&#45; start_date_time_epoch</text>
<text text-anchor="start" x="547.28" y="-985.5" font-family="Helvetica,sans-Serif" font-size="10.00">&#45; end_date_time_epoch</text>
<text text-anchor="start" x="547.28" y="-974.5" font-family="Helvetica,sans-Serif" font-size="10.00">&#45; current_date_time_epoch</text>
<polyline fill="none" stroke="black" points="539.28,-967.5 679.28,-967.5 "/>
<text text-anchor="start" x="547.28" y="-955.5" font-family="Helvetica,sans-Serif" font-size="10.00">+ Forcing()</text>
<text text-anchor="start" x="547.28" y="-944.5" font-family="Helvetica,sans-Serif" font-size="10.00">+ Forcing()</text>
<text text-anchor="start" x="547.28" y="-933.5" font-family="Helvetica,sans-Serif" font-size="10.00">+ Forcing()</text>
<text text-anchor="start" x="547.28" y="-922.5" font-family="Helvetica,sans-Serif" font-size="10.00">+ get_aorc_for_index()</text>
<text text-anchor="start" x="547.28" y="-911.5" font-family="Helvetica,sans-Serif" font-size="10.00">+ get_available_forcing</text>
<text text-anchor="start" x="547.28" y="-900.5" font-family="Helvetica,sans-Serif" font-size="10.00">_outputs()</text>
<text text-anchor="start" x="547.28" y="-889.5" font-family="Helvetica,sans-Serif" font-size="10.00">+ get_avaliable_variable</text>
<text text-anchor="start" x="547.28" y="-878.5" font-family="Helvetica,sans-Serif" font-size="10.00">_names()</text>
<text text-anchor="start" x="547.28" y="-867.5" font-family="Helvetica,sans-Serif" font-size="10.00">+ get_converted_value</text>
<text text-anchor="start" x="547.28" y="-856.5" font-family="Helvetica,sans-Serif" font-size="10.00">_for_param_in_units()</text>
<text text-anchor="start" x="547.28" y="-845.5" font-family="Helvetica,sans-Serif" font-size="10.00">+ get_converted_value</text>
<text text-anchor="start" x="547.28" y="-834.5" font-family="Helvetica,sans-Serif" font-size="10.00">_for_param_in_units()</text>
<text text-anchor="start" x="547.28" y="-823.5" font-family="Helvetica,sans-Serif" font-size="10.00">+ get_forcing_output</text>
<text text-anchor="start" x="547.28" y="-812.5" font-family="Helvetica,sans-Serif" font-size="10.00">_time_begin()</text>
<text text-anchor="start" x="547.28" y="-801.5" font-family="Helvetica,sans-Serif" font-size="10.00">+ get_data_start_time()</text>
<text text-anchor="start" x="547.28" y="-790.5" font-family="Helvetica,sans-Serif" font-size="10.00">+ get_forcing_output</text>
<text text-anchor="start" x="547.28" y="-779.5" font-family="Helvetica,sans-Serif" font-size="10.00">_time_end()</text>
<text text-anchor="start" x="547.28" y="-768.5" font-family="Helvetica,sans-Serif" font-size="10.00">+ get_data_stop_time()</text>
<text text-anchor="start" x="547.28" y="-757.5" font-family="Helvetica,sans-Serif" font-size="10.00">+ get_ts_index_for_time()</text>
<text text-anchor="start" x="547.28" y="-746.5" font-family="Helvetica,sans-Serif" font-size="10.00">+ get_value()</text>
<text text-anchor="start" x="547.28" y="-735.5" font-family="Helvetica,sans-Serif" font-size="10.00">+ get_value_for_param</text>
<text text-anchor="start" x="547.28" y="-724.5" font-family="Helvetica,sans-Serif" font-size="10.00">_name()</text>
<text text-anchor="start" x="547.28" y="-713.5" font-family="Helvetica,sans-Serif" font-size="10.00">and 19 more...</text>
<text text-anchor="start" x="547.28" y="-702.5" font-family="Helvetica,sans-Serif" font-size="10.00">+ get_forcing_field_names()</text>
<text text-anchor="start" x="547.28" y="-691.5" font-family="Helvetica,sans-Serif" font-size="10.00">&#45; read_forcing()</text>
<text text-anchor="start" x="547.28" y="-680.5" font-family="Helvetica,sans-Serif" font-size="10.00">&#45; read_forcing_aorc()</text>
</a>
</g>
</g>
<!-- Node5&#45;&gt;Node12 -->
<g id="edge17" class="edge">
<title>Node5&#45;&gt;Node12</title>
<path fill="none" stroke="#404040" d="M511.15,-1510.24C535.13,-1485.87 567.22,-1448.14 582.28,-1408 604.85,-1347.86 616.08,-1280.33 620.82,-1215.66"/>
<polygon fill="none" stroke="#404040" points="620.82,-1215.59 617.23,-1209.34 621.63,-1203.62 625.21,-1209.87 620.82,-1215.59"/>
<text text-anchor="middle" x="657.28" y="-1327" font-family="Helvetica,sans-Serif" font-size="10.00"> &#45;forcing_file_name</text>
</g>
<!-- Node6 -->
<g id="node6" class="node">
<title>Node6</title>
<g id="a_node6"><a xlink:title=" ">
<polygon fill="white" stroke="#bfbfbf" points="434.78,-1731 434.78,-1799 527.78,-1799 527.78,-1731 434.78,-1731"/>
<text text-anchor="start" x="442.78" y="-1787" font-family="Helvetica,sans-Serif" font-size="10.00">std::basic_string&lt;</text>
<text text-anchor="middle" x="481.28" y="-1776" font-family="Helvetica,sans-Serif" font-size="10.00"> Char &gt;</text>
<polyline fill="none" stroke="#bfbfbf" points="434.78,-1769 527.78,-1769 "/>
<text text-anchor="middle" x="481.28" y="-1757" font-family="Helvetica,sans-Serif" font-size="10.00"> </text>
<polyline fill="none" stroke="#bfbfbf" points="434.78,-1750 527.78,-1750 "/>
<text text-anchor="middle" x="481.28" y="-1738" font-family="Helvetica,sans-Serif" font-size="10.00"> </text>
</a>
</g>
</g>
<!-- Node6&#45;&gt;Node5 -->
<g id="edge5" class="edge">
<title>Node6&#45;&gt;Node5</title>
<path fill="none" stroke="midnightblue" d="M481.28,-1720.85C481.28,-1675.59 481.28,-1605.84 481.28,-1567.54"/>
<polygon fill="none" stroke="midnightblue" points="477.78,-1720.95 481.28,-1730.95 484.78,-1720.95 477.78,-1720.95"/>
</g>
<!-- Node7 -->
<g id="node7" class="node">
<title>Node7</title>
<g id="a_node7"><a xlink:href="class_h_y___catchment_area.html" target="_top" xlink:title=" ">
<polygon fill="white" stroke="black" points="327.78,-888 327.78,-989 450.78,-989 450.78,-888 327.78,-888"/>
<text text-anchor="middle" x="389.28" y="-977" font-family="Helvetica,sans-Serif" font-size="10.00">HY_CatchmentArea</text>
<polyline fill="none" stroke="black" points="327.78,-970 450.78,-970 "/>
<text text-anchor="start" x="335.78" y="-958" font-family="Helvetica,sans-Serif" font-size="10.00"># bounds</text>
<polyline fill="none" stroke="black" points="327.78,-951 450.78,-951 "/>
<text text-anchor="start" x="335.78" y="-939" font-family="Helvetica,sans-Serif" font-size="10.00">+ HY_CatchmentArea()</text>
<text text-anchor="start" x="335.78" y="-928" font-family="Helvetica,sans-Serif" font-size="10.00">+ HY_CatchmentArea()</text>
<text text-anchor="start" x="335.78" y="-917" font-family="Helvetica,sans-Serif" font-size="10.00">+ set_output_stream()</text>
<text text-anchor="start" x="335.78" y="-906" font-family="Helvetica,sans-Serif" font-size="10.00">+ write_output()</text>
<text text-anchor="start" x="335.78" y="-895" font-family="Helvetica,sans-Serif" font-size="10.00">+ ~HY_CatchmentArea()</text>
</a>
</g>
</g>
<!-- Node7&#45;&gt;Node2 -->
<g id="edge6" class="edge">
<title>Node7&#45;&gt;Node2</title>
<path fill="none" stroke="midnightblue" d="M389.28,-877.49C389.28,-811.13 389.28,-703.35 389.28,-625.81"/>
<polygon fill="none" stroke="midnightblue" points="385.78,-877.78 389.28,-887.78 392.78,-877.78 385.78,-877.78"/>
</g>
<!-- Node8 -->
<g id="node8" class="node">
<title>Node8</title>
<g id="a_node8"><a xlink:href="class_h_y___catchment_realization.html" target="_top" xlink:title=" ">
<polygon fill="white" stroke="black" points="423.28,-1262.5 423.28,-1396.5 573.28,-1396.5 573.28,-1262.5 423.28,-1262.5"/>
<text text-anchor="middle" x="498.28" y="-1384.5" font-family="Helvetica,sans-Serif" font-size="10.00">HY_CatchmentRealization</text>
<polyline fill="none" stroke="black" points="423.28,-1377.5 573.28,-1377.5 "/>
<text text-anchor="start" x="431.28" y="-1365.5" font-family="Helvetica,sans-Serif" font-size="10.00"># realized_catchment</text>
<text text-anchor="start" x="431.28" y="-1354.5" font-family="Helvetica,sans-Serif" font-size="10.00"># id_number</text>
<text text-anchor="start" x="431.28" y="-1343.5" font-family="Helvetica,sans-Serif" font-size="10.00"># forcing</text>
<polyline fill="none" stroke="black" points="423.28,-1336.5 573.28,-1336.5 "/>
<text text-anchor="start" x="431.28" y="-1324.5" font-family="Helvetica,sans-Serif" font-size="10.00">+ HY_CatchmentRealization()</text>
<text text-anchor="start" x="431.28" y="-1313.5" font-family="Helvetica,sans-Serif" font-size="10.00">+ HY_CatchmentRealization()</text>
<text text-anchor="start" x="431.28" y="-1302.5" font-family="Helvetica,sans-Serif" font-size="10.00">+ ~HY_CatchmentRealization()</text>
<text text-anchor="start" x="431.28" y="-1291.5" font-family="Helvetica,sans-Serif" font-size="10.00">+ get_response()</text>
<text text-anchor="start" x="431.28" y="-1280.5" font-family="Helvetica,sans-Serif" font-size="10.00"># get_catchment_id()</text>
<text text-anchor="start" x="431.28" y="-1269.5" font-family="Helvetica,sans-Serif" font-size="10.00"># set_catchment_id()</text>
</a>
</g>
</g>
<!-- Node8&#45;&gt;Node7 -->
<g id="edge7" class="edge">
<title>Node8&#45;&gt;Node7</title>
<path fill="none" stroke="midnightblue" d="M476.94,-1252.31C455.12,-1174.47 421.89,-1055.85 403.23,-989.28"/>
<polygon fill="none" stroke="midnightblue" points="473.6,-1253.39 479.67,-1262.07 480.34,-1251.5 473.6,-1253.39"/>
</g>
<!-- Node9 -->
<g id="node9" class="node">
<title>Node9</title>
<g id="a_node9"><a xlink:href="class_g_m___object.html" target="_top" xlink:title=" ">
<polygon fill="white" stroke="black" points="197.28,-1295.5 197.28,-1363.5 283.28,-1363.5 283.28,-1295.5 197.28,-1295.5"/>
<text text-anchor="middle" x="240.28" y="-1351.5" font-family="Helvetica,sans-Serif" font-size="10.00">GM_Object</text>
<polyline fill="none" stroke="black" points="197.28,-1344.5 283.28,-1344.5 "/>
<text text-anchor="middle" x="240.28" y="-1332.5" font-family="Helvetica,sans-Serif" font-size="10.00"> </text>
<polyline fill="none" stroke="black" points="197.28,-1325.5 283.28,-1325.5 "/>
<text text-anchor="start" x="205.28" y="-1313.5" font-family="Helvetica,sans-Serif" font-size="10.00">+ GM_Object()</text>
<text text-anchor="start" x="205.28" y="-1302.5" font-family="Helvetica,sans-Serif" font-size="10.00">+ ~GM_Object()</text>
</a>
</g>
</g>
<!-- Node9&#45;&gt;Node7 -->
<g id="edge8" class="edge">
<title>Node9&#45;&gt;Node7</title>
<path fill="none" stroke="midnightblue" d="M268.24,-1286.85C287.55,-1257.55 311,-1220.71 318.28,-1204 349.53,-1132.3 369.94,-1043.53 380.53,-989.24"/>
<polygon fill="none" stroke="midnightblue" points="265.27,-1285.01 262.67,-1295.28 271.11,-1288.87 265.27,-1285.01"/>
</g>
<!-- Node10&#45;&gt;Node7 -->
<g id="edge9" class="edge">
<title>Node10&#45;&gt;Node7</title>
<path fill="none" stroke="#404040" d="M360.44,-1251.18C367.23,-1177.86 377.29,-1069.13 383.56,-1001.38"/>
<polygon fill="none" stroke="#404040" points="383.58,-1001.17 380.15,-994.83 384.68,-989.22 388.11,-995.57 383.58,-1001.17"/>
<text text-anchor="middle" x="380.78" y="-1225" font-family="Helvetica,sans-Serif" font-size="10.00"> #output</text>
</g>
<!-- Node11&#45;&gt;Node2 -->
<g id="edge11" class="edge">
<title>Node11&#45;&gt;Node2</title>
<path fill="none" stroke="midnightblue" d="M259.39,-867C272.65,-813.01 293.29,-737.17 318.28,-673 324.35,-657.42 331.56,-641.26 339.02,-625.68"/>
<polygon fill="none" stroke="midnightblue" points="255.97,-866.27 257,-876.82 262.77,-867.93 255.97,-866.27"/>
</g>
<!-- Node12&#45;&gt;Node2 -->
<g id="edge13" class="edge">
<title>Node12&#45;&gt;Node2</title>
<path fill="none" stroke="#404040" d="M539.22,-808.36C509.1,-752.83 474.35,-688.78 445.89,-636.33"/>
<polygon fill="none" stroke="#404040" points="445.82,-636.21 439.45,-632.85 440.1,-625.67 446.48,-629.03 445.82,-636.21"/>
<text text-anchor="middle" x="490.28" y="-647" font-family="Helvetica,sans-Serif" font-size="10.00"> #legacy_forcing</text>
</g>
<!-- Node13 -->
<g id="node13" class="node">
<title>Node13</title>
<g id="a_node13"><a xlink:href="classdata__access_1_1_generic_data_provider.html" target="_top" xlink:title=" ">
<polygon fill="white" stroke="black" points="751.78,-1295.5 751.78,-1363.5 882.78,-1363.5 882.78,-1295.5 751.78,-1295.5"/>
<text text-anchor="start" x="759.78" y="-1351.5" font-family="Helvetica,sans-Serif" font-size="10.00">data_access::GenericData</text>
<text text-anchor="middle" x="817.28" y="-1340.5" font-family="Helvetica,sans-Serif" font-size="10.00">Provider</text>
<polyline fill="none" stroke="black" points="751.78,-1333.5 882.78,-1333.5 "/>
<text text-anchor="middle" x="817.28" y="-1321.5" font-family="Helvetica,sans-Serif" font-size="10.00"> </text>
<polyline fill="none" stroke="black" points="751.78,-1314.5 882.78,-1314.5 "/>
<text text-anchor="middle" x="817.28" y="-1302.5" font-family="Helvetica,sans-Serif" font-size="10.00"> </text>
</a>
</g>
</g>
<!-- Node13&#45;&gt;Node1 -->
<g id="edge18" class="edge">
<title>Node13&#45;&gt;Node1</title>
<path fill="none" stroke="midnightblue" d="M819.45,-1285.3C820.54,-1261.35 821.74,-1231.03 822.28,-1204 827.02,-968.05 847.56,-907.64 822.28,-673 812.47,-581.91 792.31,-482.62 772.4,-398.67"/>
<polygon fill="none" stroke="midnightblue" points="815.94,-1285.33 818.97,-1295.48 822.93,-1285.66 815.94,-1285.33"/>
</g>
<!-- Node13&#45;&gt;Node12 -->
<g id="edge14" class="edge">
<title>Node13&#45;&gt;Node12</title>
<path fill="none" stroke="midnightblue" d="M769.67,-1288.57C745.17,-1265.91 716.51,-1235.77 697.28,-1204 690.9,-1193.44 684.91,-1182.36 679.3,-1170.97"/>
<polygon fill="none" stroke="midnightblue" points="767.37,-1291.21 777.12,-1295.36 772.08,-1286.04 767.37,-1291.21"/>
</g>
<!-- Node14 -->
<g id="node14" class="node">
<title>Node14</title>
<g id="a_node14"><a xlink:href="classdata__access_1_1_data_provider.html" target="_top" xlink:title=" ">
<polygon fill="white" stroke="black" points="721.78,-1455.5 721.78,-1622.5 912.78,-1622.5 912.78,-1455.5 721.78,-1455.5"/>
<text text-anchor="start" x="729.78" y="-1610.5" font-family="Helvetica,sans-Serif" font-size="10.00">data_access::DataProvider</text>
<text text-anchor="middle" x="817.28" y="-1599.5" font-family="Helvetica,sans-Serif" font-size="10.00">&lt; double, CatchmentAggrDataSelector &gt;</text>
<polyline fill="none" stroke="black" points="721.78,-1592.5 912.78,-1592.5 "/>
<text text-anchor="middle" x="817.28" y="-1580.5" font-family="Helvetica,sans-Serif" font-size="10.00"> </text>
<polyline fill="none" stroke="black" points="721.78,-1573.5 912.78,-1573.5 "/>
<text text-anchor="start" x="729.78" y="-1561.5" font-family="Helvetica,sans-Serif" font-size="10.00">+ ~DataProvider()</text>
<text text-anchor="start" x="729.78" y="-1550.5" font-family="Helvetica,sans-Serif" font-size="10.00">+ get_avaliable_variable</text>
<text text-anchor="start" x="729.78" y="-1539.5" font-family="Helvetica,sans-Serif" font-size="10.00">_names()</text>
<text text-anchor="start" x="729.78" y="-1528.5" font-family="Helvetica,sans-Serif" font-size="10.00">+ get_data_start_time()</text>
<text text-anchor="start" x="729.78" y="-1517.5" font-family="Helvetica,sans-Serif" font-size="10.00">+ get_data_stop_time()</text>
<text text-anchor="start" x="729.78" y="-1506.5" font-family="Helvetica,sans-Serif" font-size="10.00">+ record_duration()</text>
<text text-anchor="start" x="729.78" y="-1495.5" font-family="Helvetica,sans-Serif" font-size="10.00">+ get_ts_index_for_time()</text>
<text text-anchor="start" x="729.78" y="-1484.5" font-family="Helvetica,sans-Serif" font-size="10.00">+ get_value()</text>
<text text-anchor="start" x="729.78" y="-1473.5" font-family="Helvetica,sans-Serif" font-size="10.00">+ is_property_sum_over</text>
<text text-anchor="start" x="729.78" y="-1462.5" font-family="Helvetica,sans-Serif" font-size="10.00">_time_step()</text>
</a>
</g>
</g>
<!-- Node14&#45;&gt;Node13 -->
<g id="edge15" class="edge">
<title>Node14&#45;&gt;Node13</title>
<path fill="none" stroke="midnightblue" d="M817.28,-1445.16C817.28,-1416.05 817.28,-1385.77 817.28,-1363.65"/>
<polygon fill="none" stroke="midnightblue" points="813.78,-1445.39 817.28,-1455.39 820.78,-1445.39 813.78,-1445.39"/>
</g>
<!-- Node15 -->
<g id="node15" class="node">
<title>Node15</title>
<g id="a_node15"><a xlink:href="classdata__access_1_1_data_provider.html" target="_top" xlink:title=" ">
<polygon fill="white" stroke="black" points="745.78,-1681.5 745.78,-1848.5 888.78,-1848.5 888.78,-1681.5 745.78,-1681.5"/>
<text text-anchor="start" x="753.78" y="-1836.5" font-family="Helvetica,sans-Serif" font-size="10.00">data_access::DataProvider</text>
<text text-anchor="middle" x="817.28" y="-1825.5" font-family="Helvetica,sans-Serif" font-size="10.00">&lt; data_type, selection_type &gt;</text>
<polyline fill="none" stroke="black" points="745.78,-1818.5 888.78,-1818.5 "/>
<text text-anchor="middle" x="817.28" y="-1806.5" font-family="Helvetica,sans-Serif" font-size="10.00"> </text>
<polyline fill="none" stroke="black" points="745.78,-1799.5 888.78,-1799.5 "/>
<text text-anchor="start" x="753.78" y="-1787.5" font-family="Helvetica,sans-Serif" font-size="10.00">+ ~DataProvider()</text>
<text text-anchor="start" x="753.78" y="-1776.5" font-family="Helvetica,sans-Serif" font-size="10.00">+ get_avaliable_variable</text>
<text text-anchor="start" x="753.78" y="-1765.5" font-family="Helvetica,sans-Serif" font-size="10.00">_names()</text>
<text text-anchor="start" x="753.78" y="-1754.5" font-family="Helvetica,sans-Serif" font-size="10.00">+ get_data_start_time()</text>
<text text-anchor="start" x="753.78" y="-1743.5" font-family="Helvetica,sans-Serif" font-size="10.00">+ get_data_stop_time()</text>
<text text-anchor="start" x="753.78" y="-1732.5" font-family="Helvetica,sans-Serif" font-size="10.00">+ record_duration()</text>
<text text-anchor="start" x="753.78" y="-1721.5" font-family="Helvetica,sans-Serif" font-size="10.00">+ get_ts_index_for_time()</text>
<text text-anchor="start" x="753.78" y="-1710.5" font-family="Helvetica,sans-Serif" font-size="10.00">+ get_value()</text>
<text text-anchor="start" x="753.78" y="-1699.5" font-family="Helvetica,sans-Serif" font-size="10.00">+ is_property_sum_over</text>
<text text-anchor="start" x="753.78" y="-1688.5" font-family="Helvetica,sans-Serif" font-size="10.00">_time_step()</text>
</a>
</g>
</g>
<!-- Node15&#45;&gt;Node14 -->
<g id="edge16" class="edge">
<title>Node15&#45;&gt;Node14</title>
<path fill="none" stroke="orange" d="M817.28,-1670.84C817.28,-1654.91 817.28,-1638.45 817.28,-1622.81"/>
<polygon fill="orange" stroke="orange" points="813.78,-1671.23 817.28,-1681.23 820.78,-1671.23 813.78,-1671.23"/>
<text text-anchor="start" x="817.28" y="-1655" font-family="Helvetica,sans-Serif" font-size="10.00"> &lt; double, CatchmentAggrData</text>
<text text-anchor="middle" x="883.78" y="-1644" font-family="Helvetica,sans-Serif" font-size="10.00">Selector &gt;</text>
</g>
</g>
</svg>
        <g id="navigator" transform="translate(0 0)" fill="#404254">
                <rect fill="#f2f5e9" fill-opacity="0.5" stroke="#606060" stroke-width=".5" x="0" y="0" width="60" height="60"/>
                <use id="zoomplus" xlink:href="#zoomPlus" x="17" y="9" onmousedown="handleZoom(evt,'in')"/>
                <use id="zoomminus" xlink:href="#zoomMin" x="42" y="9" onmousedown="handleZoom(evt,'out')"/>
                <use id="reset" xlink:href="#resetDef" x="30" y="36" onmousedown="handleReset()"/>
                <g id="arrowUp" xlink:href="#dirArrow" transform="translate(30 24)" onmousedown="handlePan(0,-1)">
                  <use xlink:href="#rim" fill="#404040">
                        <set attributeName="fill" to="#808080" begin="arrowUp.mouseover" end="arrowUp.mouseout"/>
                  </use>
                  <path fill="none" stroke="white" stroke-width="1.5" d="M0,-3.0v7 M-2.5,-0.5L0,-3.0L2.5,-0.5"/>
                </g>
                <g id="arrowRight" xlink:href="#dirArrow" transform="rotate(90) translate(36 -43)" onmousedown="handlePan(1,0)">
                  <use xlink:href="#rim" fill="#404040">
                        <set attributeName="fill" to="#808080" begin="arrowRight.mouseover" end="arrowRight.mouseout"/>
                  </use>
                  <path fill="none" stroke="white" stroke-width="1.5" d="M0,-3.0v7 M-2.5,-0.5L0,-3.0L2.5,-0.5"/>
                </g>
                <g id="arrowDown" xlink:href="#dirArrow" transform="rotate(180) translate(-30 -48)" onmousedown="handlePan(0,1)">
                  <use xlink:href="#rim" fill="#404040">
                        <set attributeName="fill" to="#808080" begin="arrowDown.mouseover" end="arrowDown.mouseout"/>
                  </use>
                  <path fill="none" stroke="white" stroke-width="1.5" d="M0,-3.0v7 M-2.5,-0.5L0,-3.0L2.5,-0.5"/>
                </g>
                <g id="arrowLeft" xlink:href="#dirArrow" transform="rotate(270) translate(-36 17)" onmousedown="handlePan(-1,0)">
                  <use xlink:href="#rim" fill="#404040">
                        <set attributeName="fill" to="#808080" begin="arrowLeft.mouseover" end="arrowLeft.mouseout"/>
                  </use>
                  <path fill="none" stroke="white" stroke-width="1.5" d="M0,-3.0v7 M-2.5,-0.5L0,-3.0L2.5,-0.5"/>
                </g>
        </g>
        <svg viewBox="0 0 15 15" width="100%" height="30px" preserveAspectRatio="xMaxYMin meet">
         <g id="arrow_out" transform="scale(0.3 0.3)">
          <a xlink:href="classrealization_1_1_bmi___formulation__coll__graph_org.svg" target="_base">
           <rect id="button" ry="5" rx="5" y="6" x="6" height="38" width="38"
                fill="#f2f5e9" fill-opacity="0.5" stroke="#606060" stroke-width="1.0"/>
           <path id="arrow"
             d="M 11.500037,31.436501 C 11.940474,20.09759 22.043105,11.32322 32.158766,21.979434 L 37.068811,17.246167 C 37.068811,17.246167 37.088388,32 37.088388,32 L 22.160133,31.978069 C 22.160133,31.978069 26.997745,27.140456 26.997745,27.140456 C 18.528582,18.264221 13.291696,25.230495 11.500037,31.436501 z"
             style="fill:#404040;"/>
          </a>
         </g>
        </svg>
</svg>
