<?xml version="1.0" encoding="UTF-8" standalone="no"?>
<!DOCTYPE svg PUBLIC "-//W3C//DTD SVG 1.1//EN"
 "http://www.w3.org/Graphics/SVG/1.1/DTD/svg11.dtd">
<!-- Generated by graphviz version 7.0.5 (20221223.1930)
 -->
<!-- Title: models::bmi::AbstractCLibBmiAdapter&lt; C &gt; Pages: 1 -->
<!--zoomable 1567 -->
<svg id="main" version="1.1" xmlns="http://www.w3.org/2000/svg" xmlns:xlink="http://www.w3.org/1999/xlink" xml:space="preserve" onload="init(evt)">
<style type="text/css"><![CDATA[
.edge:hover path { stroke: red; }
.edge:hover polygon { stroke: red; fill: red; }
]]></style>
<script type="text/javascript"><![CDATA[
var edges = document.getElementsByTagName('g');
if (edges && edges.length) {
  for (var i=0;i<edges.length;i++) {
    if (edges[i].id.substr(0,4)=='edge') {
      edges[i].setAttribute('class','edge');
    }
  }
}
]]></script>
        <defs>
                <circle id="rim" cx="0" cy="0" r="7"/>
                <circle id="rim2" cx="0" cy="0" r="3.5"/>
                <g id="zoomPlus">
                        <use xlink:href="#rim" fill="#404040">
                                <set attributeName="fill" to="#808080" begin="zoomplus.mouseover" end="zoomplus.mouseout"/>
                        </use>
                        <path d="M-4,0h8M0,-4v8" fill="none" stroke="white" stroke-width="1.5" pointer-events="none"/>
                </g>
                <g id="zoomMin">
                        <use xlink:href="#rim" fill="#404040">
                                <set attributeName="fill" to="#808080" begin="zoomminus.mouseover" end="zoomminus.mouseout"/>
                        </use>
                        <path d="M-4,0h8" fill="none" stroke="white" stroke-width="1.5" pointer-events="none"/>
                </g>
                <g id="dirArrow">
                        <path fill="none" stroke="white" stroke-width="1.5" d="M0,-3.0v7 M-2.5,-0.5L0,-3.0L2.5,-0.5"/>
                </g>
               <g id="resetDef">
                       <use xlink:href="#rim2" fill="#404040">
                               <set attributeName="fill" to="#808080" begin="reset.mouseover" end="reset.mouseout"/>
                       </use>
               </g>
        </defs>

<script type="text/javascript">
var viewWidth = 1028;
var viewHeight = 1567;
var sectionId = 'dynsection-1';
</script>
<script xlink:href="svgpan.js"/>
<svg id="graph" class="graph">
<g id="viewport">
<title>models::bmi::AbstractCLibBmiAdapter&lt; C &gt;</title>
<!-- Node1 -->
<g id="node1" class="node">
<title>Node1</title>
<g id="a_node1"><a xlink:title=" ">
<polygon fill="#999999" stroke="#666666" points="144,-173 0,-173 0,0 144,0 144,-173"/>
<text text-anchor="start" x="8" y="-161" font-family="Helvetica,sans-Serif" font-size="10.00">{models::bmi::AbstractCLib</text>
<text text-anchor="middle" x="72" y="-150" font-family="Helvetica,sans-Serif" font-size="10.00">BmiAdapter&lt; C &gt;</text>
<text text-anchor="start" x="8" y="-139" font-family="Helvetica,sans-Serif" font-size="10.00">|&#45; dyn_lib_handle</text>
<text text-anchor="start" x="8" y="-128" font-family="Helvetica,sans-Serif" font-size="10.00">|+ AbstractCLibBmiAdapter()</text>
<text text-anchor="start" x="8" y="-117" font-family="Helvetica,sans-Serif" font-size="10.00">+ AbstractCLibBmiAdapter()</text>
<text text-anchor="start" x="8" y="-106" font-family="Helvetica,sans-Serif" font-size="10.00">+ ~AbstractCLibBmiAdapter()</text>
<text text-anchor="start" x="8" y="-95" font-family="Helvetica,sans-Serif" font-size="10.00">+ Finalize()</text>
<text text-anchor="start" x="8" y="-84" font-family="Helvetica,sans-Serif" font-size="10.00"># dynamic_library_load()</text>
<text text-anchor="start" x="8" y="-73" font-family="Helvetica,sans-Serif" font-size="10.00"># dynamic_load_symbol()</text>
<text text-anchor="start" x="8" y="-62" font-family="Helvetica,sans-Serif" font-size="10.00"># dynamic_load_symbol()</text>
<text text-anchor="start" x="8" y="-51" font-family="Helvetica,sans-Serif" font-size="10.00"># get_bmi_registration</text>
<text text-anchor="start" x="8" y="-40" font-family="Helvetica,sans-Serif" font-size="10.00">_function()</text>
<text text-anchor="start" x="8" y="-29" font-family="Helvetica,sans-Serif" font-size="10.00"># get_dyn_lib_handle()</text>
<text text-anchor="start" x="8" y="-18" font-family="Helvetica,sans-Serif" font-size="10.00">&#45; finalizeForLibAbstraction()</text>
<text text-anchor="middle" x="72" y="-7" font-family="Helvetica,sans-Serif" font-size="10.00">}</text>
</a>
</g>
</g>
<!-- Node2 -->
<g id="node2" class="node">
<title>Node2</title>
<g id="a_node2"><a xlink:href="classmodels_1_1bmi_1_1_bmi___adapter.html" target="_top" xlink:title=" ">
<polygon fill="white" stroke="#666666" points="638.5,-493 483.5,-493 483.5,-210 638.5,-210 638.5,-493"/>
<text text-anchor="middle" x="561" y="-481" font-family="Helvetica,sans-Serif" font-size="10.00">{models::bmi::Bmi_Adapter&lt; C &gt;</text>
<text text-anchor="start" x="491.5" y="-470" font-family="Helvetica,sans-Serif" font-size="10.00">|# allow_model_exceed</text>
<text text-anchor="start" x="491.5" y="-459" font-family="Helvetica,sans-Serif" font-size="10.00">_end_time</text>
<text text-anchor="start" x="491.5" y="-448" font-family="Helvetica,sans-Serif" font-size="10.00"># bmi_model_has_fixed</text>
<text text-anchor="start" x="491.5" y="-437" font-family="Helvetica,sans-Serif" font-size="10.00">_time_step</text>
<text text-anchor="start" x="491.5" y="-426" font-family="Helvetica,sans-Serif" font-size="10.00"># bmi_model_time_convert</text>
<text text-anchor="start" x="491.5" y="-415" font-family="Helvetica,sans-Serif" font-size="10.00">_factor</text>
<text text-anchor="start" x="491.5" y="-404" font-family="Helvetica,sans-Serif" font-size="10.00"># bmi_model_uses_forcing_file</text>
<text text-anchor="start" x="491.5" y="-393" font-family="Helvetica,sans-Serif" font-size="10.00"># model_initialized</text>
<text text-anchor="start" x="491.5" y="-382" font-family="Helvetica,sans-Serif" font-size="10.00">|+ Bmi_Adapter()</text>
<text text-anchor="start" x="491.5" y="-371" font-family="Helvetica,sans-Serif" font-size="10.00">+ Bmi_Adapter()</text>
<text text-anchor="start" x="491.5" y="-360" font-family="Helvetica,sans-Serif" font-size="10.00">+ Bmi_Adapter()</text>
<text text-anchor="start" x="491.5" y="-349" font-family="Helvetica,sans-Serif" font-size="10.00">+ get_time_convert_factor()</text>
<text text-anchor="start" x="491.5" y="-338" font-family="Helvetica,sans-Serif" font-size="10.00">+ convert_model_time</text>
<text text-anchor="start" x="491.5" y="-327" font-family="Helvetica,sans-Serif" font-size="10.00">_to_seconds()</text>
<text text-anchor="start" x="491.5" y="-316" font-family="Helvetica,sans-Serif" font-size="10.00">+ convert_seconds_to</text>
<text text-anchor="start" x="491.5" y="-305" font-family="Helvetica,sans-Serif" font-size="10.00">_model_time()</text>
<text text-anchor="start" x="491.5" y="-294" font-family="Helvetica,sans-Serif" font-size="10.00">+ get_analogous_cxx_type()</text>
<text text-anchor="start" x="491.5" y="-283" font-family="Helvetica,sans-Serif" font-size="10.00">+ Initialize()</text>
<text text-anchor="start" x="491.5" y="-272" font-family="Helvetica,sans-Serif" font-size="10.00">+ Initialize()</text>
<text text-anchor="start" x="491.5" y="-261" font-family="Helvetica,sans-Serif" font-size="10.00">+ isInitialized()</text>
<text text-anchor="start" x="491.5" y="-250" font-family="Helvetica,sans-Serif" font-size="10.00">+ get_model_name()</text>
<text text-anchor="start" x="491.5" y="-239" font-family="Helvetica,sans-Serif" font-size="10.00"># construct_and_init</text>
<text text-anchor="start" x="491.5" y="-228" font-family="Helvetica,sans-Serif" font-size="10.00">_backing_model()</text>
<text text-anchor="middle" x="561" y="-217" font-family="Helvetica,sans-Serif" font-size="10.00">}</text>
</a>
</g>
</g>
<!-- Node2&#45;&gt;Node1 -->
<g id="edge1" class="edge">
<title>Node2&#45;&gt;Node1</title>
<path fill="none" stroke="#63b8ff" d="M473.19,-303.27C379.19,-252.71 231.79,-173.44 144.25,-126.36"/>
<polygon fill="none" stroke="#63b8ff" points="471.45,-306.31 481.91,-307.96 474.76,-300.15 471.45,-306.31"/>
</g>
<!-- Node3 -->
<g id="node3" class="node">
<title>Node3</title>
<g id="a_node3"><a xlink:href="classbmi_1_1_bmi.html" target="_top" xlink:title=" ">
<polygon fill="white" stroke="#666666" points="919,-1109 797,-1109 797,-903 919,-903 919,-1109"/>
<text text-anchor="middle" x="858" y="-1097" font-family="Helvetica,sans-Serif" font-size="10.00">{bmi::Bmi</text>
<text text-anchor="start" x="805" y="-1086" font-family="Helvetica,sans-Serif" font-size="10.00">||+ Initialize()</text>
<text text-anchor="start" x="805" y="-1075" font-family="Helvetica,sans-Serif" font-size="10.00">+ Update()</text>
<text text-anchor="start" x="805" y="-1064" font-family="Helvetica,sans-Serif" font-size="10.00">+ UpdateUntil()</text>
<text text-anchor="start" x="805" y="-1053" font-family="Helvetica,sans-Serif" font-size="10.00">+ Finalize()</text>
<text text-anchor="start" x="805" y="-1042" font-family="Helvetica,sans-Serif" font-size="10.00">+ GetComponentName()</text>
<text text-anchor="start" x="805" y="-1031" font-family="Helvetica,sans-Serif" font-size="10.00">+ GetInputItemCount()</text>
<text text-anchor="start" x="805" y="-1020" font-family="Helvetica,sans-Serif" font-size="10.00">+ GetOutputItemCount()</text>
<text text-anchor="start" x="805" y="-1009" font-family="Helvetica,sans-Serif" font-size="10.00">+ GetInputVarNames()</text>
<text text-anchor="start" x="805" y="-998" font-family="Helvetica,sans-Serif" font-size="10.00">+ GetOutputVarNames()</text>
<text text-anchor="start" x="805" y="-987" font-family="Helvetica,sans-Serif" font-size="10.00">+ GetVarGrid()</text>
<text text-anchor="start" x="805" y="-976" font-family="Helvetica,sans-Serif" font-size="10.00">+ GetVarType()</text>
<text text-anchor="start" x="805" y="-965" font-family="Helvetica,sans-Serif" font-size="10.00">+ GetVarUnits()</text>
<text text-anchor="start" x="805" y="-954" font-family="Helvetica,sans-Serif" font-size="10.00">+ GetVarItemsize()</text>
<text text-anchor="start" x="805" y="-943" font-family="Helvetica,sans-Serif" font-size="10.00">+ GetVarNbytes()</text>
<text text-anchor="start" x="805" y="-932" font-family="Helvetica,sans-Serif" font-size="10.00">+ GetVarLocation()</text>
<text text-anchor="start" x="805" y="-921" font-family="Helvetica,sans-Serif" font-size="10.00">and 26 more...</text>
<text text-anchor="middle" x="858" y="-910" font-family="Helvetica,sans-Serif" font-size="10.00">}</text>
</a>
</g>
</g>
<!-- Node3&#45;&gt;Node2 -->
<g id="edge2" class="edge">
<title>Node3&#45;&gt;Node2</title>
<path fill="none" stroke="#63b8ff" d="M889.42,-891.71C910.28,-792.5 924.03,-647.75 864,-540 816.35,-454.48 711.83,-403.04 638.95,-376.23"/>
<polygon fill="none" stroke="#63b8ff" points="886.07,-890.68 887.37,-901.19 892.91,-892.16 886.07,-890.68"/>
</g>
<!-- Node19 -->
<g id="node19" class="node">
<title>Node19</title>
<g id="a_node19"><a xlink:href="classmodels_1_1bmi_1_1_bmi___adapter.html" target="_top" xlink:title="Abstract adapter interface for C++ classes to interact with the essential aspects of external models ...">
<polygon fill="white" stroke="#666666" points="541.5,-834 386.5,-834 386.5,-540 541.5,-540 541.5,-834"/>
<text text-anchor="middle" x="464" y="-822" font-family="Helvetica,sans-Serif" font-size="10.00">{models::bmi::Bmi_Adapter&lt; T &gt;</text>
<text text-anchor="start" x="394.5" y="-811" font-family="Helvetica,sans-Serif" font-size="10.00">|# allow_model_exceed</text>
<text text-anchor="start" x="394.5" y="-800" font-family="Helvetica,sans-Serif" font-size="10.00">_end_time</text>
<text text-anchor="start" x="394.5" y="-789" font-family="Helvetica,sans-Serif" font-size="10.00"># bmi_model</text>
<text text-anchor="start" x="394.5" y="-778" font-family="Helvetica,sans-Serif" font-size="10.00"># bmi_model_has_fixed</text>
<text text-anchor="start" x="394.5" y="-767" font-family="Helvetica,sans-Serif" font-size="10.00">_time_step</text>
<text text-anchor="start" x="394.5" y="-756" font-family="Helvetica,sans-Serif" font-size="10.00"># bmi_model_time_convert</text>
<text text-anchor="start" x="394.5" y="-745" font-family="Helvetica,sans-Serif" font-size="10.00">_factor</text>
<text text-anchor="start" x="394.5" y="-734" font-family="Helvetica,sans-Serif" font-size="10.00"># bmi_model_uses_forcing_file</text>
<text text-anchor="start" x="394.5" y="-723" font-family="Helvetica,sans-Serif" font-size="10.00"># model_initialized</text>
<text text-anchor="start" x="394.5" y="-712" font-family="Helvetica,sans-Serif" font-size="10.00">|+ Bmi_Adapter()</text>
<text text-anchor="start" x="394.5" y="-701" font-family="Helvetica,sans-Serif" font-size="10.00">+ Bmi_Adapter()</text>
<text text-anchor="start" x="394.5" y="-690" font-family="Helvetica,sans-Serif" font-size="10.00">+ Bmi_Adapter()</text>
<text text-anchor="start" x="394.5" y="-679" font-family="Helvetica,sans-Serif" font-size="10.00">+ get_time_convert_factor()</text>
<text text-anchor="start" x="394.5" y="-668" font-family="Helvetica,sans-Serif" font-size="10.00">+ convert_model_time</text>
<text text-anchor="start" x="394.5" y="-657" font-family="Helvetica,sans-Serif" font-size="10.00">_to_seconds()</text>
<text text-anchor="start" x="394.5" y="-646" font-family="Helvetica,sans-Serif" font-size="10.00">+ convert_seconds_to</text>
<text text-anchor="start" x="394.5" y="-635" font-family="Helvetica,sans-Serif" font-size="10.00">_model_time()</text>
<text text-anchor="start" x="394.5" y="-624" font-family="Helvetica,sans-Serif" font-size="10.00">+ get_analogous_cxx_type()</text>
<text text-anchor="start" x="394.5" y="-613" font-family="Helvetica,sans-Serif" font-size="10.00">+ Initialize()</text>
<text text-anchor="start" x="394.5" y="-602" font-family="Helvetica,sans-Serif" font-size="10.00">+ Initialize()</text>
<text text-anchor="start" x="394.5" y="-591" font-family="Helvetica,sans-Serif" font-size="10.00">+ isInitialized()</text>
<text text-anchor="start" x="394.5" y="-580" font-family="Helvetica,sans-Serif" font-size="10.00">+ get_model_name()</text>
<text text-anchor="start" x="394.5" y="-569" font-family="Helvetica,sans-Serif" font-size="10.00"># construct_and_init</text>
<text text-anchor="start" x="394.5" y="-558" font-family="Helvetica,sans-Serif" font-size="10.00">_backing_model()</text>
<text text-anchor="middle" x="464" y="-547" font-family="Helvetica,sans-Serif" font-size="10.00">}</text>
</a>
</g>
</g>
<!-- Node3&#45;&gt;Node19 -->
<g id="edge25" class="edge">
<title>Node3&#45;&gt;Node19</title>
<path fill="none" stroke="#63b8ff" d="M788.27,-903.24C788.18,-903.16 788.09,-903.08 788,-903 749.41,-869.53 733.57,-867.81 685,-852 639.98,-837.34 620.74,-858.12 580,-834 566.21,-825.84 553.42,-815.37 541.75,-803.8"/>
<polygon fill="none" stroke="#63b8ff" points="785.77,-905.69 795.46,-909.98 790.56,-900.58 785.77,-905.69"/>
</g>
<!-- Node4 -->
<g id="node4" class="node">
<title>Node4</title>
<g id="a_node4"><a xlink:title=" ">
<polygon fill="white" stroke="#666666" points="340,-1331.5 278,-1331.5 278,-1301.5 340,-1301.5 340,-1331.5"/>
<text text-anchor="middle" x="309" y="-1319.5" font-family="Helvetica,sans-Serif" font-size="10.00">{std::string</text>
<text text-anchor="middle" x="309" y="-1308.5" font-family="Helvetica,sans-Serif" font-size="10.00">||}</text>
</a>
</g>
</g>
<!-- Node4&#45;&gt;Node1 -->
<g id="edge30" class="edge">
<title>Node4&#45;&gt;Node1</title>
<path fill="none" stroke="#404040" d="M277.72,-1310.77C210.84,-1299.77 60,-1269.88 60,-1224 60,-1224 60,-1224 60,-350.5 60,-296.16 62.59,-235.58 65.36,-186.27"/>
<polygon fill="none" stroke="#404040" points="65.36,-186.21 61.71,-179.99 66.05,-174.23 69.7,-180.45 65.36,-186.21"/>
<text text-anchor="middle" x="96.5" y="-877" font-family="Helvetica,sans-Serif" font-size="10.00"> &#45;bmi_lib_file</text>
<text text-anchor="start" x="60" y="-866" font-family="Helvetica,sans-Serif" font-size="10.00">&#45;bmi_registration</text>
<text text-anchor="middle" x="96.5" y="-855" font-family="Helvetica,sans-Serif" font-size="10.00">_function</text>
</g>
<!-- Node4&#45;&gt;Node2 -->
<g id="edge3" class="edge">
<title>Node4&#45;&gt;Node2</title>
<path fill="none" stroke="#404040" d="M277.58,-1311.84C230.72,-1304.43 148,-1283 148,-1224 148,-1224 148,-1224 148,-686 148,-521.17 349.6,-423.87 471.09,-380.2"/>
<polygon fill="none" stroke="#404040" points="471.15,-380.18 475.48,-374.41 482.47,-376.19 478.14,-381.95 471.15,-380.18"/>
<text text-anchor="middle" x="192.5" y="-1020" font-family="Helvetica,sans-Serif" font-size="10.00"> #bmi_init_config</text>
<text text-anchor="middle" x="192.5" y="-1009" font-family="Helvetica,sans-Serif" font-size="10.00">#forcing_file_path</text>
<text text-anchor="middle" x="192.5" y="-998" font-family="Helvetica,sans-Serif" font-size="10.00">#init_exception_msg</text>
<text text-anchor="middle" x="192.5" y="-987" font-family="Helvetica,sans-Serif" font-size="10.00">#model_name</text>
</g>
<!-- Node11 -->
<g id="node11" class="node">
<title>Node11</title>
<g id="a_node11"><a xlink:title=" ">
<polygon fill="white" stroke="#666666" points="525.5,-1238 402.5,-1238 402.5,-1208 525.5,-1208 525.5,-1238"/>
<text text-anchor="middle" x="464" y="-1226" font-family="Helvetica,sans-Serif" font-size="10.00">{std::vector&lt; std::string &gt;</text>
<text text-anchor="middle" x="464" y="-1215" font-family="Helvetica,sans-Serif" font-size="10.00">||}</text>
</a>
</g>
</g>
<!-- Node4&#45;&gt;Node11 -->
<g id="edge12" class="edge">
<title>Node4&#45;&gt;Node11</title>
<path fill="none" stroke="#404040" d="M338.08,-1301.16C351.33,-1294.42 367.13,-1286.1 381,-1278 398.44,-1267.82 417.35,-1255.61 432.72,-1245.38"/>
<polygon fill="none" stroke="#404040" points="432.49,-1245.53 435.24,-1238.86 442.45,-1238.84 439.7,-1245.5 432.49,-1245.53"/>
<text text-anchor="middle" x="422.5" y="-1270" font-family="Helvetica,sans-Serif" font-size="10.00"> +elements</text>
</g>
<!-- Node13 -->
<g id="node13" class="node">
<title>Node13</title>
<g id="a_node13"><a xlink:href="classutils_1_1_stream_handler.html" target="_top" xlink:title="This class provides a copyable interface to a std::ostream or std::ostream like object that may not s...">
<polygon fill="white" stroke="#666666" points="362.5,-1076 255.5,-1076 255.5,-936 362.5,-936 362.5,-1076"/>
<text text-anchor="middle" x="309" y="-1064" font-family="Helvetica,sans-Serif" font-size="10.00">{utils::StreamHandler</text>
<text text-anchor="start" x="263.5" y="-1053" font-family="Helvetica,sans-Serif" font-size="10.00">||+ StreamHandler()</text>
<text text-anchor="start" x="263.5" y="-1042" font-family="Helvetica,sans-Serif" font-size="10.00">+ StreamHandler()</text>
<text text-anchor="start" x="263.5" y="-1031" font-family="Helvetica,sans-Serif" font-size="10.00">+ StreamHandler()</text>
<text text-anchor="start" x="263.5" y="-1020" font-family="Helvetica,sans-Serif" font-size="10.00">+ StreamHandler()</text>
<text text-anchor="start" x="263.5" y="-1009" font-family="Helvetica,sans-Serif" font-size="10.00">+ ~StreamHandler()</text>
<text text-anchor="start" x="263.5" y="-998" font-family="Helvetica,sans-Serif" font-size="10.00">+ operator=()</text>
<text text-anchor="start" x="263.5" y="-987" font-family="Helvetica,sans-Serif" font-size="10.00">+ put()</text>
<text text-anchor="start" x="263.5" y="-976" font-family="Helvetica,sans-Serif" font-size="10.00">+ put_indexed()</text>
<text text-anchor="start" x="263.5" y="-965" font-family="Helvetica,sans-Serif" font-size="10.00">+ put_var()</text>
<text text-anchor="start" x="263.5" y="-954" font-family="Helvetica,sans-Serif" font-size="10.00">+ operator&lt;&lt;()</text>
<text text-anchor="middle" x="309" y="-943" font-family="Helvetica,sans-Serif" font-size="10.00">}</text>
</a>
</g>
</g>
<!-- Node4&#45;&gt;Node13 -->
<g id="edge23" class="edge">
<title>Node4&#45;&gt;Node13</title>
<path fill="none" stroke="#404040" d="M309,-1301.03C309,-1263.84 309,-1162.65 309,-1089.36"/>
<polygon fill="none" stroke="#404040" points="309,-1089.38 305,-1083.38 309,-1077.38 313,-1083.38 309,-1089.38"/>
<text text-anchor="middle" x="321" y="-1220.5" font-family="Helvetica,sans-Serif" font-size="10.00"> #sep</text>
</g>
<!-- Node4&#45;&gt;Node19 -->
<g id="edge26" class="edge">
<title>Node4&#45;&gt;Node19</title>
<path fill="none" stroke="#404040" d="M315.8,-1301.23C321.94,-1287.93 330.92,-1267.44 337,-1249 342.01,-1233.8 367.85,-1124.69 371,-1109 393.78,-995.6 385.34,-964.55 412,-852 412.41,-850.27 412.83,-848.54 413.25,-846.8"/>
<polygon fill="none" stroke="#404040" points="413.24,-846.84 410.84,-840.04 416.19,-835.21 418.59,-842.01 413.24,-846.84"/>
<text text-anchor="middle" x="411.5" y="-1167" font-family="Helvetica,sans-Serif" font-size="10.00"> #bmi_init_config</text>
<text text-anchor="middle" x="411.5" y="-1156" font-family="Helvetica,sans-Serif" font-size="10.00">#forcing_file_path</text>
<text text-anchor="middle" x="411.5" y="-1145" font-family="Helvetica,sans-Serif" font-size="10.00">#init_exception_msg</text>
<text text-anchor="middle" x="411.5" y="-1134" font-family="Helvetica,sans-Serif" font-size="10.00">#model_name</text>
</g>
<!-- Node5 -->
<g id="node5" class="node">
<title>Node5</title>
<g id="a_node5"><a xlink:title=" ">
<polygon fill="white" stroke="#666666" points="357,-1425 261,-1425 261,-1384 357,-1384 357,-1425"/>
<text text-anchor="start" x="269" y="-1413" font-family="Helvetica,sans-Serif" font-size="10.00">{std::basic_string&lt;</text>
<text text-anchor="middle" x="309" y="-1402" font-family="Helvetica,sans-Serif" font-size="10.00"> Char &gt;</text>
<text text-anchor="middle" x="309" y="-1391" font-family="Helvetica,sans-Serif" font-size="10.00">||}</text>
</a>
</g>
</g>
<!-- Node5&#45;&gt;Node4 -->
<g id="edge4" class="edge">
<title>Node5&#45;&gt;Node4</title>
<path fill="none" stroke="#63b8ff" d="M309,-1372.08C309,-1358.35 309,-1342.91 309,-1331.97"/>
<polygon fill="none" stroke="#63b8ff" points="305.5,-1372.04 309,-1382.04 312.5,-1372.04 305.5,-1372.04"/>
</g>
<!-- Node6 -->
<g id="node6" class="node">
<title>Node6</title>
<g id="a_node6"><a xlink:title=" ">
<polygon fill="white" stroke="#666666" points="983.5,-1179 876.5,-1179 876.5,-1127 983.5,-1127 983.5,-1179"/>
<text text-anchor="middle" x="930" y="-1167" font-family="Helvetica,sans-Serif" font-size="10.00">{std::shared_ptr&lt; C &gt;</text>
<text text-anchor="start" x="884.5" y="-1156" font-family="Helvetica,sans-Serif" font-size="10.00">|+ ptr</text>
<text text-anchor="start" x="884.5" y="-1145" font-family="Helvetica,sans-Serif" font-size="10.00">|+ operator&#45;&gt;()</text>
<text text-anchor="middle" x="930" y="-1134" font-family="Helvetica,sans-Serif" font-size="10.00">}</text>
</a>
</g>
</g>
<!-- Node6&#45;&gt;Node2 -->
<g id="edge5" class="edge">
<title>Node6&#45;&gt;Node2</title>
<path fill="none" stroke="#404040" d="M935.93,-1126.67C955.05,-1038.96 1007.73,-742.44 899,-540 849.17,-447.22 733.4,-397.73 651.27,-373.32"/>
<polygon fill="none" stroke="#404040" points="651.3,-373.33 644.43,-375.51 639.77,-370.01 646.64,-367.82 651.3,-373.33"/>
<text text-anchor="middle" x="992.5" y="-866" font-family="Helvetica,sans-Serif" font-size="10.00"> #bmi_model</text>
</g>
<!-- Node7 -->
<g id="node7" class="node">
<title>Node7</title>
<g id="a_node7"><a xlink:title=" ">
<polygon fill="white" stroke="#666666" points="784,-1337 678,-1337 678,-1296 784,-1296 784,-1337"/>
<text text-anchor="middle" x="731" y="-1325" font-family="Helvetica,sans-Serif" font-size="10.00">{std::shared_ptr&lt; T &gt;</text>
<text text-anchor="start" x="686" y="-1314" font-family="Helvetica,sans-Serif" font-size="10.00">||+ operator&#45;&gt;()</text>
<text text-anchor="middle" x="731" y="-1303" font-family="Helvetica,sans-Serif" font-size="10.00">}</text>
</a>
</g>
</g>
<!-- Node7&#45;&gt;Node6 -->
<g id="edge6" class="edge">
<title>Node7&#45;&gt;Node6</title>
<path fill="none" stroke="orange" d="M793.36,-1290.84C801.8,-1286.86 810.23,-1282.55 818,-1278 859.94,-1253.46 894.94,-1207.95 914.14,-1179.41"/>
<polygon fill="orange" stroke="orange" points="792.12,-1287.56 784.47,-1294.89 795.02,-1293.93 792.12,-1287.56"/>
<text text-anchor="middle" x="847" y="-1270" font-family="Helvetica,sans-Serif" font-size="10.00"> &lt; C &gt;</text>
</g>
<!-- Node9 -->
<g id="node9" class="node">
<title>Node9</title>
<g id="a_node9"><a xlink:title=" ">
<polygon fill="white" stroke="#666666" points="779,-1032 651,-1032 651,-980 779,-980 779,-1032"/>
<text text-anchor="middle" x="715" y="-1020" font-family="Helvetica,sans-Serif" font-size="10.00">{std::shared_ptr&lt; double &gt;</text>
<text text-anchor="start" x="659" y="-1009" font-family="Helvetica,sans-Serif" font-size="10.00">|+ ptr</text>
<text text-anchor="start" x="659" y="-998" font-family="Helvetica,sans-Serif" font-size="10.00">|+ operator&#45;&gt;()</text>
<text text-anchor="middle" x="715" y="-987" font-family="Helvetica,sans-Serif" font-size="10.00">}</text>
</a>
</g>
</g>
<!-- Node7&#45;&gt;Node9 -->
<g id="edge9" class="edge">
<title>Node7&#45;&gt;Node9</title>
<path fill="none" stroke="orange" d="M753.71,-1286.49C761.05,-1275.39 768.25,-1262.22 772,-1249 794.19,-1170.72 752.8,-1076.51 729.43,-1032.27"/>
<polygon fill="orange" stroke="orange" points="751.04,-1284.2 748.18,-1294.4 756.78,-1288.21 751.04,-1284.2"/>
<text text-anchor="middle" x="802" y="-1220.5" font-family="Helvetica,sans-Serif" font-size="10.00"> &lt; double &gt;</text>
</g>
<!-- Node10 -->
<g id="node10" class="node">
<title>Node10</title>
<g id="a_node10"><a xlink:title=" ">
<polygon fill="white" stroke="#666666" points="632.5,-1032 517.5,-1032 517.5,-980 632.5,-980 632.5,-1032"/>
<text text-anchor="start" x="525.5" y="-1020" font-family="Helvetica,sans-Serif" font-size="10.00">{std::shared_ptr&lt; std</text>
<text text-anchor="middle" x="575" y="-1009" font-family="Helvetica,sans-Serif" font-size="10.00">::vector&lt; std::string &gt; &gt;</text>
<text text-anchor="start" x="525.5" y="-998" font-family="Helvetica,sans-Serif" font-size="10.00">||+ operator&#45;&gt;()</text>
<text text-anchor="middle" x="575" y="-987" font-family="Helvetica,sans-Serif" font-size="10.00">}</text>
</a>
</g>
</g>
<!-- Node7&#45;&gt;Node10 -->
<g id="edge15" class="edge">
<title>Node7&#45;&gt;Node10</title>
<path fill="none" stroke="orange" d="M712.01,-1286.25C704.83,-1274.8 696.77,-1261.44 690,-1249 648,-1171.76 605.33,-1076.67 585.88,-1032.18"/>
<polygon fill="orange" stroke="orange" points="708.92,-1287.91 717.23,-1294.48 714.83,-1284.16 708.92,-1287.91"/>
<text text-anchor="start" x="690" y="-1226" font-family="Helvetica,sans-Serif" font-size="10.00"> &lt; std::vector&lt; std</text>
<text text-anchor="middle" x="729" y="-1215" font-family="Helvetica,sans-Serif" font-size="10.00">::string &gt; &gt;</text>
</g>
<!-- Node14 -->
<g id="node14" class="node">
<title>Node14</title>
<g id="a_node14"><a xlink:title=" ">
<polygon fill="white" stroke="#666666" points="648.5,-1249 543.5,-1249 543.5,-1197 648.5,-1197 648.5,-1249"/>
<text text-anchor="start" x="551.5" y="-1237" font-family="Helvetica,sans-Serif" font-size="10.00">{std::shared_ptr&lt; std</text>
<text text-anchor="middle" x="596" y="-1226" font-family="Helvetica,sans-Serif" font-size="10.00">::ostream &gt;</text>
<text text-anchor="start" x="551.5" y="-1215" font-family="Helvetica,sans-Serif" font-size="10.00">||+ operator&#45;&gt;()</text>
<text text-anchor="middle" x="596" y="-1204" font-family="Helvetica,sans-Serif" font-size="10.00">}</text>
</a>
</g>
</g>
<!-- Node7&#45;&gt;Node14 -->
<g id="edge22" class="edge">
<title>Node7&#45;&gt;Node14</title>
<path fill="none" stroke="orange" d="M666.72,-1295.87C636.37,-1289.8 620.94,-1298.6 603,-1278 596.23,-1270.23 593.96,-1259.29 593.58,-1249.28"/>
<polygon fill="orange" stroke="orange" points="665.59,-1299.2 676.14,-1298.2 667.27,-1292.4 665.59,-1299.2"/>
<text text-anchor="middle" x="639.5" y="-1270" font-family="Helvetica,sans-Serif" font-size="10.00"> &lt; std::ostream &gt;</text>
</g>
<!-- Node8 -->
<g id="node8" class="node">
<title>Node8</title>
<g id="a_node8"><a xlink:title=" ">
<polygon fill="white" stroke="#666666" points="677.5,-1419.5 648.5,-1419.5 648.5,-1389.5 677.5,-1389.5 677.5,-1419.5"/>
<text text-anchor="middle" x="663" y="-1407.5" font-family="Helvetica,sans-Serif" font-size="10.00">{T</text>
<text text-anchor="middle" x="663" y="-1396.5" font-family="Helvetica,sans-Serif" font-size="10.00">||}</text>
</a>
</g>
</g>
<!-- Node8&#45;&gt;Node7 -->
<g id="edge7" class="edge">
<title>Node8&#45;&gt;Node7</title>
<path fill="none" stroke="#404040" d="M675.69,-1389.09C681.67,-1382.19 688.82,-1373.77 695,-1366 699.77,-1360.01 704.75,-1353.49 709.43,-1347.23"/>
<polygon fill="none" stroke="#404040" points="709.26,-1347.45 709.61,-1340.25 716.4,-1337.81 716.05,-1345.01 709.26,-1347.45"/>
<text text-anchor="middle" x="713" y="-1358" font-family="Helvetica,sans-Serif" font-size="10.00"> +ptr</text>
</g>
<!-- Node12 -->
<g id="node12" class="node">
<title>Node12</title>
<g id="a_node12"><a xlink:title=" ">
<polygon fill="white" stroke="#666666" points="659.5,-1331.5 572.5,-1331.5 572.5,-1301.5 659.5,-1301.5 659.5,-1331.5"/>
<text text-anchor="middle" x="616" y="-1319.5" font-family="Helvetica,sans-Serif" font-size="10.00">{std::vector&lt; T &gt;</text>
<text text-anchor="middle" x="616" y="-1308.5" font-family="Helvetica,sans-Serif" font-size="10.00">||}</text>
</a>
</g>
</g>
<!-- Node8&#45;&gt;Node12 -->
<g id="edge14" class="edge">
<title>Node8&#45;&gt;Node12</title>
<path fill="none" stroke="#404040" d="M655.24,-1389.3C648.37,-1376.73 638.17,-1358.07 629.9,-1342.93"/>
<polygon fill="none" stroke="#404040" points="629.96,-1343.04 623.57,-1339.7 624.2,-1332.51 630.59,-1335.86 629.96,-1343.04"/>
<text text-anchor="middle" x="666.5" y="-1358" font-family="Helvetica,sans-Serif" font-size="10.00"> +elements</text>
</g>
<!-- Node9&#45;&gt;Node2 -->
<g id="edge8" class="edge">
<title>Node9&#45;&gt;Node2</title>
<path fill="none" stroke="#404040" d="M719.52,-979.59C731.18,-907.94 757.64,-699.14 702,-540 689.91,-505.44 668.93,-472.03 646.78,-443.22"/>
<polygon fill="none" stroke="#404040" points="646.9,-443.36 640.04,-441.13 639.47,-433.94 646.33,-436.18 646.9,-443.36"/>
<text text-anchor="middle" x="799" y="-684.5" font-family="Helvetica,sans-Serif" font-size="10.00"> #bmi_model_time_step_size</text>
</g>
<!-- Node9&#45;&gt;Node19 -->
<g id="edge27" class="edge">
<title>Node9&#45;&gt;Node19</title>
<path fill="none" stroke="#404040" d="M703.74,-979.91C691.82,-956.33 670.75,-921.9 642,-903 610.46,-882.26 588.64,-908.37 559,-885 544.83,-873.83 532.64,-860.01 522.19,-844.92"/>
<polygon fill="none" stroke="#404040" points="522.3,-845.08 515.67,-842.25 515.73,-835.04 522.36,-837.87 522.3,-845.08"/>
<text text-anchor="middle" x="622" y="-866" font-family="Helvetica,sans-Serif" font-size="10.00"> #bmi_model_time_step_size</text>
</g>
<!-- Node10&#45;&gt;Node2 -->
<g id="edge10" class="edge">
<title>Node10&#45;&gt;Node2</title>
<path fill="none" stroke="#404040" d="M589.63,-979.7C602.38,-958.43 621.94,-927.65 642,-903 649.14,-894.23 655.67,-895.45 660,-885 665.61,-871.45 668.18,-864.18 660,-852 648.22,-834.46 628.75,-850.84 616,-834 577.92,-783.71 565.58,-627.15 561.89,-506.05"/>
<polygon fill="none" stroke="#404040" points="561.9,-506.23 557.73,-500.35 561.56,-494.24 565.72,-500.12 561.9,-506.23"/>
<text text-anchor="middle" x="659" y="-690" font-family="Helvetica,sans-Serif" font-size="10.00"> #input_var_names</text>
<text text-anchor="middle" x="659" y="-679" font-family="Helvetica,sans-Serif" font-size="10.00">#output_var_names</text>
</g>
<!-- Node10&#45;&gt;Node19 -->
<g id="edge28" class="edge">
<title>Node10&#45;&gt;Node19</title>
<path fill="none" stroke="#404040" d="M523.35,-979.55C488.5,-959.25 445.3,-927.23 425,-885 419.22,-872.97 416.04,-860.14 414.81,-847.01"/>
<polygon fill="none" stroke="#404040" points="414.82,-847.24 410.54,-841.43 414.25,-835.25 418.53,-841.05 414.82,-847.24"/>
<text text-anchor="middle" x="468" y="-871.5" font-family="Helvetica,sans-Serif" font-size="10.00"> #input_var_names</text>
<text text-anchor="middle" x="468" y="-860.5" font-family="Helvetica,sans-Serif" font-size="10.00">#output_var_names</text>
</g>
<!-- Node11&#45;&gt;Node10 -->
<g id="edge11" class="edge">
<title>Node11&#45;&gt;Node10</title>
<path fill="none" stroke="#404040" d="M514.96,-1207.65C529.38,-1201.17 543.68,-1191.95 553,-1179 581.04,-1140.05 582.69,-1082.91 579.94,-1045.34"/>
<polygon fill="none" stroke="#404040" points="579.94,-1045.3 575.41,-1039.69 578.85,-1033.35 583.38,-1038.96 579.94,-1045.3"/>
<text text-anchor="middle" x="584" y="-1150.5" font-family="Helvetica,sans-Serif" font-size="10.00"> +ptr</text>
</g>
<!-- Node12&#45;&gt;Node11 -->
<g id="edge13" class="edge">
<title>Node12&#45;&gt;Node11</title>
<path fill="none" stroke="orange" d="M568.73,-1297.47C567.14,-1296.96 565.56,-1296.47 564,-1296 529.51,-1285.65 512.26,-1301.53 485,-1278 473.27,-1267.88 468.06,-1250.39 465.76,-1238.07"/>
<polygon fill="orange" stroke="orange" points="567.25,-1300.66 577.85,-1300.55 569.49,-1294.03 567.25,-1300.66"/>
<text text-anchor="middle" x="515.5" y="-1270" font-family="Helvetica,sans-Serif" font-size="10.00"> &lt; std::string &gt;</text>
</g>
<!-- Node13&#45;&gt;Node2 -->
<g id="edge16" class="edge">
<title>Node13&#45;&gt;Node2</title>
<path fill="none" stroke="#404040" d="M298.02,-935.63C286.41,-840.75 277.63,-667.74 342,-540 370.69,-483.07 425.04,-436.38 472.42,-403.82"/>
<polygon fill="none" stroke="#404040" points="472.33,-403.88 475.07,-397.22 482.29,-397.19 479.54,-403.85 472.33,-403.88"/>
<text text-anchor="middle" x="359.5" y="-684.5" font-family="Helvetica,sans-Serif" font-size="10.00"> #output</text>
</g>
<!-- Node13&#45;&gt;Node19 -->
<g id="edge29" class="edge">
<title>Node13&#45;&gt;Node19</title>
<path fill="none" stroke="#404040" d="M317.52,-935.6C322.47,-908.68 330.15,-878.11 342,-852 351.82,-830.36 364.85,-808.82 378.74,-788.81"/>
<polygon fill="none" stroke="#404040" points="378.82,-788.69 379.04,-781.48 385.78,-778.91 385.56,-786.12 378.82,-788.69"/>
<text text-anchor="middle" x="359.5" y="-866" font-family="Helvetica,sans-Serif" font-size="10.00"> #output</text>
</g>
<!-- Node14&#45;&gt;Node13 -->
<g id="edge17" class="edge">
<title>Node14&#45;&gt;Node13</title>
<path fill="none" stroke="#404040" d="M543.2,-1200.07C540.43,-1199.01 537.69,-1197.98 535,-1197 510.44,-1188.04 497.85,-1197.12 479,-1179 461.26,-1161.95 474.39,-1146.96 460,-1127 436.97,-1095.07 403.25,-1067.16 373.51,-1046.31"/>
<polygon fill="none" stroke="#404040" points="373.41,-1046.24 366.2,-1046.15 363.51,-1039.46 370.72,-1039.55 373.41,-1046.24"/>
<text text-anchor="middle" x="514" y="-1150.5" font-family="Helvetica,sans-Serif" font-size="10.00"> #output_stream</text>
</g>
<!-- Node15 -->
<g id="node15" class="node">
<title>Node15</title>
<g id="a_node15"><a xlink:title=" ">
<polygon fill="white" stroke="#666666" points="554.5,-1331.5 481.5,-1331.5 481.5,-1301.5 554.5,-1301.5 554.5,-1331.5"/>
<text text-anchor="middle" x="518" y="-1319.5" font-family="Helvetica,sans-Serif" font-size="10.00">{std::ostream</text>
<text text-anchor="middle" x="518" y="-1308.5" font-family="Helvetica,sans-Serif" font-size="10.00">||}</text>
</a>
</g>
</g>
<!-- Node15&#45;&gt;Node14 -->
<g id="edge18" class="edge">
<title>Node15&#45;&gt;Node14</title>
<path fill="none" stroke="#404040" d="M530.19,-1301.2C539.8,-1289.93 553.61,-1273.72 566.11,-1259.07"/>
<polygon fill="none" stroke="#404040" points="566.11,-1259.06 566.96,-1251.9 573.89,-1249.93 573.05,-1257.09 566.11,-1259.06"/>
<text text-anchor="middle" x="569" y="-1270" font-family="Helvetica,sans-Serif" font-size="10.00"> +ptr</text>
</g>
<!-- Node16 -->
<g id="node16" class="node">
<title>Node16</title>
<g id="a_node16"><a xlink:title=" ">
<polygon fill="white" stroke="#666666" points="568.5,-1425 467.5,-1425 467.5,-1384 568.5,-1384 568.5,-1425"/>
<text text-anchor="start" x="475.5" y="-1413" font-family="Helvetica,sans-Serif" font-size="10.00">{std::basic_ostream</text>
<text text-anchor="middle" x="518" y="-1402" font-family="Helvetica,sans-Serif" font-size="10.00">&lt; Char &gt;</text>
<text text-anchor="middle" x="518" y="-1391" font-family="Helvetica,sans-Serif" font-size="10.00">||}</text>
</a>
</g>
</g>
<!-- Node16&#45;&gt;Node15 -->
<g id="edge19" class="edge">
<title>Node16&#45;&gt;Node15</title>
<path fill="none" stroke="#63b8ff" d="M518,-1372.08C518,-1358.35 518,-1342.91 518,-1331.97"/>
<polygon fill="none" stroke="#63b8ff" points="514.5,-1372.04 518,-1382.04 521.5,-1372.04 514.5,-1372.04"/>
</g>
<!-- Node17 -->
<g id="node17" class="node">
<title>Node17</title>
<g id="a_node17"><a xlink:title=" ">
<polygon fill="white" stroke="#666666" points="576,-1492 460,-1492 460,-1462 576,-1462 576,-1492"/>
<text text-anchor="middle" x="518" y="-1480" font-family="Helvetica,sans-Serif" font-size="10.00">{std::basic_ios&lt; Char &gt;</text>
<text text-anchor="middle" x="518" y="-1469" font-family="Helvetica,sans-Serif" font-size="10.00">||}</text>
</a>
</g>
</g>
<!-- Node17&#45;&gt;Node16 -->
<g id="edge20" class="edge">
<title>Node17&#45;&gt;Node16</title>
<path fill="none" stroke="#63b8ff" d="M518,-1450.42C518,-1442.16 518,-1433.14 518,-1425.36"/>
<polygon fill="none" stroke="#63b8ff" points="514.5,-1450.22 518,-1460.22 521.5,-1450.22 514.5,-1450.22"/>
</g>
<!-- Node18 -->
<g id="node18" class="node">
<title>Node18</title>
<g id="a_node18"><a xlink:title=" ">
<polygon fill="white" stroke="#666666" points="556.5,-1559 479.5,-1559 479.5,-1529 556.5,-1529 556.5,-1559"/>
<text text-anchor="middle" x="518" y="-1547" font-family="Helvetica,sans-Serif" font-size="10.00">{std::ios_base</text>
<text text-anchor="middle" x="518" y="-1536" font-family="Helvetica,sans-Serif" font-size="10.00">||}</text>
</a>
</g>
</g>
<!-- Node18&#45;&gt;Node17 -->
<g id="edge21" class="edge">
<title>Node18&#45;&gt;Node17</title>
<path fill="none" stroke="#63b8ff" d="M518,-1517.28C518,-1508.81 518,-1499.7 518,-1492.39"/>
<polygon fill="none" stroke="#63b8ff" points="514.5,-1517.06 518,-1527.06 521.5,-1517.06 514.5,-1517.06"/>
</g>
<!-- Node19&#45;&gt;Node2 -->
<g id="edge24" class="edge">
<title>Node19&#45;&gt;Node2</title>
<path fill="none" stroke="orange" d="M509.7,-528.86C513.15,-517.01 516.62,-505.09 520.03,-493.34"/>
<polygon fill="orange" stroke="orange" points="506.4,-527.69 506.97,-538.27 513.12,-529.64 506.4,-527.69"/>
<text text-anchor="middle" x="525" y="-514" font-family="Helvetica,sans-Serif" font-size="10.00"> &lt; C &gt;</text>
</g>
</g>
</svg>
        <g id="navigator" transform="translate(0 0)" fill="#404254">
                <rect fill="#f2f5e9" fill-opacity="0.5" stroke="#606060" stroke-width=".5" x="0" y="0" width="60" height="60"/>
                <use id="zoomplus" xlink:href="#zoomPlus" x="17" y="9" onmousedown="handleZoom(evt,'in')"/>
                <use id="zoomminus" xlink:href="#zoomMin" x="42" y="9" onmousedown="handleZoom(evt,'out')"/>
                <use id="reset" xlink:href="#resetDef" x="30" y="36" onmousedown="handleReset()"/>
                <g id="arrowUp" xlink:href="#dirArrow" transform="translate(30 24)" onmousedown="handlePan(0,-1)">
                  <use xlink:href="#rim" fill="#404040">
                        <set attributeName="fill" to="#808080" begin="arrowUp.mouseover" end="arrowUp.mouseout"/>
                  </use>
                  <path fill="none" stroke="white" stroke-width="1.5" d="M0,-3.0v7 M-2.5,-0.5L0,-3.0L2.5,-0.5"/>
                </g>
                <g id="arrowRight" xlink:href="#dirArrow" transform="rotate(90) translate(36 -43)" onmousedown="handlePan(1,0)">
                  <use xlink:href="#rim" fill="#404040">
                        <set attributeName="fill" to="#808080" begin="arrowRight.mouseover" end="arrowRight.mouseout"/>
                  </use>
                  <path fill="none" stroke="white" stroke-width="1.5" d="M0,-3.0v7 M-2.5,-0.5L0,-3.0L2.5,-0.5"/>
                </g>
                <g id="arrowDown" xlink:href="#dirArrow" transform="rotate(180) translate(-30 -48)" onmousedown="handlePan(0,1)">
                  <use xlink:href="#rim" fill="#404040">
                        <set attributeName="fill" to="#808080" begin="arrowDown.mouseover" end="arrowDown.mouseout"/>
                  </use>
                  <path fill="none" stroke="white" stroke-width="1.5" d="M0,-3.0v7 M-2.5,-0.5L0,-3.0L2.5,-0.5"/>
                </g>
                <g id="arrowLeft" xlink:href="#dirArrow" transform="rotate(270) translate(-36 17)" onmousedown="handlePan(-1,0)">
                  <use xlink:href="#rim" fill="#404040">
                        <set attributeName="fill" to="#808080" begin="arrowLeft.mouseover" end="arrowLeft.mouseout"/>
                  </use>
                  <path fill="none" stroke="white" stroke-width="1.5" d="M0,-3.0v7 M-2.5,-0.5L0,-3.0L2.5,-0.5"/>
                </g>
        </g>
        <svg viewBox="0 0 15 15" width="100%" height="30px" preserveAspectRatio="xMaxYMin meet">
         <g id="arrow_out" transform="scale(0.3 0.3)">
          <a xlink:href="classmodels_1_1bmi_1_1_abstract_c_lib_bmi_adapter__coll__graph_org.svg" target="_base">
           <rect id="button" ry="5" rx="5" y="6" x="6" height="38" width="38"
                fill="#f2f5e9" fill-opacity="0.5" stroke="#606060" stroke-width="1.0"/>
           <path id="arrow"
             d="M 11.500037,31.436501 C 11.940474,20.09759 22.043105,11.32322 32.158766,21.979434 L 37.068811,17.246167 C 37.068811,17.246167 37.088388,32 37.088388,32 L 22.160133,31.978069 C 22.160133,31.978069 26.997745,27.140456 26.997745,27.140456 C 18.528582,18.264221 13.291696,25.230495 11.500037,31.436501 z"
             style="fill:#404040;"/>
          </a>
         </g>
        </svg>
</svg>
