<?xml version="1.0" encoding="UTF-8" standalone="no"?>
<!DOCTYPE svg PUBLIC "-//W3C//DTD SVG 1.1//EN"
 "http://www.w3.org/Graphics/SVG/1.1/DTD/svg11.dtd">
<!-- Generated by graphviz version 3.0.0 (20221109.1736)
 -->
<!-- Title: geojson::MultiLineStringFeature Pages: 1 -->
<!--zoomable 1329 -->
<svg id="main" version="1.1" xmlns="http://www.w3.org/2000/svg" xmlns:xlink="http://www.w3.org/1999/xlink" xml:space="preserve" onload="init(evt)">
<style type="text/css"><![CDATA[
.edge:hover path { stroke: red; }
.edge:hover polygon { stroke: red; fill: red; }
]]></style>
<script type="text/javascript"><![CDATA[
var edges = document.getElementsByTagName('g');
if (edges && edges.length) {
  for (var i=0;i<edges.length;i++) {
    if (edges[i].id.substr(0,4)=='edge') {
      edges[i].setAttribute('class','edge');
    }
  }
}
]]></script>
        <defs>
                <circle id="rim" cx="0" cy="0" r="7"/>
                <circle id="rim2" cx="0" cy="0" r="3.5"/>
                <g id="zoomPlus">
                        <use xlink:href="#rim" fill="#404040">
                                <set attributeName="fill" to="#808080" begin="zoomplus.mouseover" end="zoomplus.mouseout"/>
                        </use>
                        <path d="M-4,0h8M0,-4v8" fill="none" stroke="white" stroke-width="1.5" pointer-events="none"/>
                </g>
                <g id="zoomMin">
                        <use xlink:href="#rim" fill="#404040">
                                <set attributeName="fill" to="#808080" begin="zoomminus.mouseover" end="zoomminus.mouseout"/>
                        </use>
                        <path d="M-4,0h8" fill="none" stroke="white" stroke-width="1.5" pointer-events="none"/>
                </g>
                <g id="dirArrow">
                        <path fill="none" stroke="white" stroke-width="1.5" d="M0,-3.0v7 M-2.5,-0.5L0,-3.0L2.5,-0.5"/>
                </g>
               <g id="resetDef">
                       <use xlink:href="#rim2" fill="#404040">
                               <set attributeName="fill" to="#808080" begin="reset.mouseover" end="reset.mouseout"/>
                       </use>
               </g>
        </defs>

<script type="text/javascript">
var viewWidth = 729;
var viewHeight = 1329;
var sectionId = 'dynsection-1';
</script>
<script xlink:href="svgpan.js"/>
<svg id="graph" class="graph">
<g id="viewport">
<title>geojson::MultiLineStringFeature</title>
<polygon fill="white" stroke="transparent" points="-4,4 -4,-1325 724.5,-1325 724.5,4 -4,4"/>
<!-- Node1 -->
<g id="node1" class="node">
<title>Node1</title>
<g id="a_node1"><a xlink:title=" ">
<polygon fill="#bfbfbf" stroke="black" points="485,-0.5 485,-112.5 614,-112.5 614,-0.5 485,-0.5"/>
<text text-anchor="start" x="493" y="-100.5" font-family="Helvetica,sans-Serif" font-size="10.00">geojson::MultiLineString</text>
<text text-anchor="middle" x="549.5" y="-89.5" font-family="Helvetica,sans-Serif" font-size="10.00">Feature</text>
<polyline fill="none" stroke="black" points="485,-82.5 614,-82.5 "/>
<text text-anchor="middle" x="549.5" y="-70.5" font-family="Helvetica,sans-Serif" font-size="10.00"> </text>
<polyline fill="none" stroke="black" points="485,-63.5 614,-63.5 "/>
<text text-anchor="start" x="493" y="-51.5" font-family="Helvetica,sans-Serif" font-size="10.00">+ MultiLineStringFeature()</text>
<text text-anchor="start" x="493" y="-40.5" font-family="Helvetica,sans-Serif" font-size="10.00">+ MultiLineStringFeature()</text>
<text text-anchor="start" x="493" y="-29.5" font-family="Helvetica,sans-Serif" font-size="10.00">+ MultiLineStringFeature()</text>
<text text-anchor="start" x="493" y="-18.5" font-family="Helvetica,sans-Serif" font-size="10.00">+ geometry()</text>
<text text-anchor="start" x="493" y="-7.5" font-family="Helvetica,sans-Serif" font-size="10.00">+ visit()</text>
</a>
</g>
</g>
<!-- Node2 -->
<g id="node2" class="node">
<title>Node2</title>
<g id="a_node2"><a xlink:href="classgeojson_1_1_feature_base.html" target="_top" xlink:title="Represents an individual feature within a Geojson definition.">
<polygon fill="white" stroke="black" points="322.5,-182.5 322.5,-470.5 456.5,-470.5 456.5,-182.5 322.5,-182.5"/>
<text text-anchor="middle" x="389.5" y="-458.5" font-family="Helvetica,sans-Serif" font-size="10.00">geojson::FeatureBase</text>
<polyline fill="none" stroke="black" points="322.5,-451.5 456.5,-451.5 "/>
<text text-anchor="start" x="330.5" y="-439.5" font-family="Helvetica,sans-Serif" font-size="10.00"># type</text>
<text text-anchor="start" x="330.5" y="-428.5" font-family="Helvetica,sans-Serif" font-size="10.00"># geom</text>
<polyline fill="none" stroke="black" points="322.5,-421.5 456.5,-421.5 "/>
<text text-anchor="start" x="330.5" y="-409.5" font-family="Helvetica,sans-Serif" font-size="10.00">+ FeatureBase()</text>
<text text-anchor="start" x="330.5" y="-398.5" font-family="Helvetica,sans-Serif" font-size="10.00">+ ~FeatureBase()</text>
<text text-anchor="start" x="330.5" y="-387.5" font-family="Helvetica,sans-Serif" font-size="10.00">+ get_type()</text>
<text text-anchor="start" x="330.5" y="-376.5" font-family="Helvetica,sans-Serif" font-size="10.00">+ add_origination_feature()</text>
<text text-anchor="start" x="330.5" y="-365.5" font-family="Helvetica,sans-Serif" font-size="10.00">+ add_destination_feature()</text>
<text text-anchor="start" x="330.5" y="-354.5" font-family="Helvetica,sans-Serif" font-size="10.00">+ assign_neighbors()</text>
<text text-anchor="start" x="330.5" y="-343.5" font-family="Helvetica,sans-Serif" font-size="10.00">+ add_neighbor_feature()</text>
<text text-anchor="start" x="330.5" y="-332.5" font-family="Helvetica,sans-Serif" font-size="10.00">+ get_property()</text>
<text text-anchor="start" x="330.5" y="-321.5" font-family="Helvetica,sans-Serif" font-size="10.00">+ set_id()</text>
<text text-anchor="start" x="330.5" y="-310.5" font-family="Helvetica,sans-Serif" font-size="10.00">+ get()</text>
<text text-anchor="start" x="330.5" y="-299.5" font-family="Helvetica,sans-Serif" font-size="10.00">+ set()</text>
<text text-anchor="start" x="330.5" y="-288.5" font-family="Helvetica,sans-Serif" font-size="10.00">+ set()</text>
<text text-anchor="start" x="330.5" y="-277.5" font-family="Helvetica,sans-Serif" font-size="10.00">+ set()</text>
<text text-anchor="start" x="330.5" y="-266.5" font-family="Helvetica,sans-Serif" font-size="10.00">+ set()</text>
<text text-anchor="start" x="330.5" y="-255.5" font-family="Helvetica,sans-Serif" font-size="10.00">+ set()</text>
<text text-anchor="start" x="330.5" y="-244.5" font-family="Helvetica,sans-Serif" font-size="10.00">and 29 more...</text>
<text text-anchor="start" x="330.5" y="-233.5" font-family="Helvetica,sans-Serif" font-size="10.00"># FeatureBase()</text>
<text text-anchor="start" x="330.5" y="-222.5" font-family="Helvetica,sans-Serif" font-size="10.00"># break_links()</text>
<text text-anchor="start" x="330.5" y="-211.5" font-family="Helvetica,sans-Serif" font-size="10.00"># remove_destination()</text>
<text text-anchor="start" x="330.5" y="-200.5" font-family="Helvetica,sans-Serif" font-size="10.00"># remove_origination()</text>
<text text-anchor="start" x="330.5" y="-189.5" font-family="Helvetica,sans-Serif" font-size="10.00"># remove_neighbor()</text>
</a>
</g>
</g>
<!-- Node2&#45;&gt;Node1 -->
<g id="edge1" class="edge">
<title>Node2&#45;&gt;Node1</title>
<path fill="none" stroke="midnightblue" d="M461.98,-211.27C471.7,-195.47 481.44,-179.39 490.5,-164 500.26,-147.43 510.54,-129.18 519.73,-112.54"/>
<polygon fill="none" stroke="midnightblue" points="458.86,-209.66 456.59,-220.01 464.82,-213.33 458.86,-209.66"/>
</g>
<!-- Node14 -->
<g id="node14" class="node">
<title>Node14</title>
<g id="a_node14"><a xlink:title=" ">
<polygon fill="white" stroke="black" points="362.5,-22.5 362.5,-90.5 466.5,-90.5 466.5,-22.5 362.5,-22.5"/>
<text text-anchor="start" x="370.5" y="-78.5" font-family="Helvetica,sans-Serif" font-size="10.00">std::vector&lt; geojson</text>
<text text-anchor="middle" x="414.5" y="-67.5" font-family="Helvetica,sans-Serif" font-size="10.00">::FeatureBase * &gt;</text>
<polyline fill="none" stroke="black" points="362.5,-60.5 466.5,-60.5 "/>
<text text-anchor="middle" x="414.5" y="-48.5" font-family="Helvetica,sans-Serif" font-size="10.00"> </text>
<polyline fill="none" stroke="black" points="362.5,-41.5 466.5,-41.5 "/>
<text text-anchor="middle" x="414.5" y="-29.5" font-family="Helvetica,sans-Serif" font-size="10.00"> </text>
</a>
</g>
</g>
<!-- Node2&#45;&gt;Node14 -->
<g id="edge21" class="edge">
<title>Node2&#45;&gt;Node14</title>
<path fill="none" stroke="#404040" d="M370.03,-182.3C370.56,-164.88 372.5,-147.44 376.5,-131 378.94,-120.97 383.01,-110.77 387.59,-101.3"/>
<polygon fill="none" stroke="#404040" points="387.63,-101.22 386.84,-94.06 393.15,-90.57 393.94,-97.73 387.63,-101.22"/>
<text text-anchor="middle" x="401" y="-145" font-family="Helvetica,sans-Serif" font-size="10.00"> +elements</text>
</g>
<!-- Node3 -->
<g id="node3" class="node">
<title>Node3</title>
<g id="a_node3"><a xlink:title=" ">
<polygon fill="white" stroke="black" points="432.5,-944.5 432.5,-1012.5 538.5,-1012.5 538.5,-944.5 432.5,-944.5"/>
<text text-anchor="start" x="440.5" y="-1000.5" font-family="Helvetica,sans-Serif" font-size="10.00">std::vector&lt;::geojson</text>
<text text-anchor="middle" x="485.5" y="-989.5" font-family="Helvetica,sans-Serif" font-size="10.00">::geometry &gt;</text>
<polyline fill="none" stroke="black" points="432.5,-982.5 538.5,-982.5 "/>
<text text-anchor="start" x="440.5" y="-970.5" font-family="Helvetica,sans-Serif" font-size="10.00">+ elements</text>
<polyline fill="none" stroke="black" points="432.5,-963.5 538.5,-963.5 "/>
<text text-anchor="middle" x="485.5" y="-951.5" font-family="Helvetica,sans-Serif" font-size="10.00"> </text>
</a>
</g>
</g>
<!-- Node3&#45;&gt;Node2 -->
<g id="edge2" class="edge">
<title>Node3&#45;&gt;Node2</title>
<path fill="none" stroke="#404040" d="M485.68,-944.48C485.93,-854.83 485.06,-608.33 468.5,-529 465.3,-513.68 461.06,-498.02 456.19,-482.53"/>
<polygon fill="none" stroke="#404040" points="456.06,-482.13 450.4,-477.66 452.35,-470.72 458.01,-475.19 456.06,-482.13"/>
<text text-anchor="middle" x="528.5" y="-642.5" font-family="Helvetica,sans-Serif" font-size="10.00"> #geometry_collection</text>
</g>
<!-- Node4 -->
<g id="node4" class="node">
<title>Node4</title>
<g id="a_node4"><a xlink:title=" ">
<polygon fill="white" stroke="black" points="368.5,-1153 368.5,-1210 452.5,-1210 452.5,-1153 368.5,-1153"/>
<text text-anchor="middle" x="410.5" y="-1198" font-family="Helvetica,sans-Serif" font-size="10.00">std::vector&lt; T &gt;</text>
<polyline fill="none" stroke="black" points="368.5,-1191 452.5,-1191 "/>
<text text-anchor="middle" x="410.5" y="-1179" font-family="Helvetica,sans-Serif" font-size="10.00"> </text>
<polyline fill="none" stroke="black" points="368.5,-1172 452.5,-1172 "/>
<text text-anchor="middle" x="410.5" y="-1160" font-family="Helvetica,sans-Serif" font-size="10.00"> </text>
</a>
</g>
</g>
<!-- Node4&#45;&gt;Node3 -->
<g id="edge3" class="edge">
<title>Node4&#45;&gt;Node3</title>
<path fill="none" stroke="orange" d="M437.98,-1144.49C447.01,-1131.13 456.31,-1115.46 462.5,-1100 473.83,-1071.73 479.68,-1037.44 482.63,-1012.68"/>
<polygon fill="orange" stroke="orange" points="434.96,-1142.7 432.12,-1152.91 440.71,-1146.7 434.96,-1142.7"/>
<text text-anchor="middle" x="504.5" y="-1121" font-family="Helvetica,sans-Serif" font-size="10.00"> &lt;::geojson::geometry &gt;</text>
</g>
<!-- Node10 -->
<g id="node10" class="node">
<title>Node10</title>
<g id="a_node10"><a xlink:title=" ">
<polygon fill="white" stroke="black" points="224.5,-1031.5 224.5,-1099.5 328.5,-1099.5 328.5,-1031.5 224.5,-1031.5"/>
<text text-anchor="start" x="232.5" y="-1087.5" font-family="Helvetica,sans-Serif" font-size="10.00">std::vector&lt; geojson</text>
<text text-anchor="middle" x="276.5" y="-1076.5" font-family="Helvetica,sans-Serif" font-size="10.00">::JSONProperty &gt;</text>
<polyline fill="none" stroke="black" points="224.5,-1069.5 328.5,-1069.5 "/>
<text text-anchor="middle" x="276.5" y="-1057.5" font-family="Helvetica,sans-Serif" font-size="10.00"> </text>
<polyline fill="none" stroke="black" points="224.5,-1050.5 328.5,-1050.5 "/>
<text text-anchor="middle" x="276.5" y="-1038.5" font-family="Helvetica,sans-Serif" font-size="10.00"> </text>
</a>
</g>
</g>
<!-- Node4&#45;&gt;Node10 -->
<g id="edge13" class="edge">
<title>Node4&#45;&gt;Node10</title>
<path fill="none" stroke="orange" d="M358.13,-1174.89C328.6,-1168.75 294.02,-1155.89 275.5,-1129 269.71,-1120.6 268.31,-1109.94 268.85,-1099.82"/>
<polygon fill="orange" stroke="orange" points="357.86,-1178.4 368.33,-1176.8 359.14,-1171.52 357.86,-1178.4"/>
<text text-anchor="middle" x="336" y="-1121" font-family="Helvetica,sans-Serif" font-size="10.00"> &lt; geojson::JSONProperty &gt;</text>
</g>
<!-- Node13 -->
<g id="node13" class="node">
<title>Node13</title>
<g id="a_node13"><a xlink:title=" ">
<polygon fill="white" stroke="black" points="345,-616.5 345,-673.5 452,-673.5 452,-616.5 345,-616.5"/>
<text text-anchor="middle" x="398.5" y="-661.5" font-family="Helvetica,sans-Serif" font-size="10.00">std::vector&lt; double &gt;</text>
<polyline fill="none" stroke="black" points="345,-654.5 452,-654.5 "/>
<text text-anchor="start" x="353" y="-642.5" font-family="Helvetica,sans-Serif" font-size="10.00">+ elements</text>
<polyline fill="none" stroke="black" points="345,-635.5 452,-635.5 "/>
<text text-anchor="middle" x="398.5" y="-623.5" font-family="Helvetica,sans-Serif" font-size="10.00"> </text>
</a>
</g>
</g>
<!-- Node4&#45;&gt;Node13 -->
<g id="edge18" class="edge">
<title>Node4&#45;&gt;Node13</title>
<path fill="none" stroke="orange" d="M409.65,-1142.77C407.37,-1041.03 401.12,-762.77 399.12,-673.77"/>
<polygon fill="orange" stroke="orange" points="406.16,-1142.97 409.88,-1152.89 413.15,-1142.81 406.16,-1142.97"/>
<text text-anchor="middle" x="433.5" y="-1063" font-family="Helvetica,sans-Serif" font-size="10.00"> &lt; double &gt;</text>
</g>
<!-- Node4&#45;&gt;Node14 -->
<g id="edge22" class="edge">
<title>Node4&#45;&gt;Node14</title>
<path fill="none" stroke="orange" d="M462.77,-1172.33C519.32,-1160.17 601.5,-1131.34 601.5,-1066.5 601.5,-1066.5 601.5,-1066.5 601.5,-325.5 601.5,-225.97 551.55,-209.61 490.5,-131 479.47,-116.79 465.74,-102.69 453.01,-90.7"/>
<polygon fill="orange" stroke="orange" points="461.99,-1168.92 452.89,-1174.34 463.39,-1175.78 461.99,-1168.92"/>
<text text-anchor="middle" x="661" y="-642.5" font-family="Helvetica,sans-Serif" font-size="10.00"> &lt; geojson::FeatureBase * &gt;</text>
</g>
<!-- Node5 -->
<g id="node5" class="node">
<title>Node5</title>
<g id="a_node5"><a xlink:title=" ">
<polygon fill="white" stroke="black" points="327,-1263.5 327,-1320.5 356,-1320.5 356,-1263.5 327,-1263.5"/>
<text text-anchor="middle" x="341.5" y="-1308.5" font-family="Helvetica,sans-Serif" font-size="10.00">T</text>
<polyline fill="none" stroke="black" points="327,-1301.5 356,-1301.5 "/>
<text text-anchor="middle" x="341.5" y="-1289.5" font-family="Helvetica,sans-Serif" font-size="10.00"> </text>
<polyline fill="none" stroke="black" points="327,-1282.5 356,-1282.5 "/>
<text text-anchor="middle" x="341.5" y="-1270.5" font-family="Helvetica,sans-Serif" font-size="10.00"> </text>
</a>
</g>
</g>
<!-- Node5&#45;&gt;Node4 -->
<g id="edge4" class="edge">
<title>Node5&#45;&gt;Node4</title>
<path fill="none" stroke="#404040" d="M356.13,-1267.99C364.88,-1254.24 376.2,-1236.44 386.25,-1220.63"/>
<polygon fill="none" stroke="#404040" points="386.52,-1220.22 386.36,-1213.01 392.95,-1210.09 393.11,-1217.3 386.52,-1220.22"/>
<text text-anchor="middle" x="401" y="-1237" font-family="Helvetica,sans-Serif" font-size="10.00"> +elements</text>
</g>
<!-- Node11 -->
<g id="node11" class="node">
<title>Node11</title>
<g id="a_node11"><a xlink:title=" ">
<polygon fill="white" stroke="black" points="127.5,-1153 127.5,-1210 215.5,-1210 215.5,-1153 127.5,-1153"/>
<text text-anchor="middle" x="171.5" y="-1198" font-family="Helvetica,sans-Serif" font-size="10.00">std::map&lt; K, T &gt;</text>
<polyline fill="none" stroke="black" points="127.5,-1191 215.5,-1191 "/>
<text text-anchor="middle" x="171.5" y="-1179" font-family="Helvetica,sans-Serif" font-size="10.00"> </text>
<polyline fill="none" stroke="black" points="127.5,-1172 215.5,-1172 "/>
<text text-anchor="middle" x="171.5" y="-1160" font-family="Helvetica,sans-Serif" font-size="10.00"> </text>
</a>
</g>
</g>
<!-- Node5&#45;&gt;Node11 -->
<g id="edge16" class="edge">
<title>Node5&#45;&gt;Node11</title>
<path fill="none" stroke="#404040" d="M326.71,-1281.56C304.21,-1267.2 260.27,-1239.15 224.86,-1216.56"/>
<polygon fill="none" stroke="#404040" points="224.77,-1216.5 217.56,-1216.64 214.65,-1210.04 221.86,-1209.9 224.77,-1216.5"/>
<text text-anchor="middle" x="292" y="-1237" font-family="Helvetica,sans-Serif" font-size="10.00"> +elements</text>
</g>
<!-- Node6 -->
<g id="node6" class="node">
<title>Node6</title>
<g id="a_node6"><a xlink:title=" ">
<polygon fill="white" stroke="black" points="127,-529.5 127,-597.5 234,-597.5 234,-529.5 127,-529.5"/>
<text text-anchor="start" x="135" y="-585.5" font-family="Helvetica,sans-Serif" font-size="10.00">std::map&lt; std::string,</text>
<text text-anchor="middle" x="180.5" y="-574.5" font-family="Helvetica,sans-Serif" font-size="10.00"> JSONProperty &gt;</text>
<polyline fill="none" stroke="black" points="127,-567.5 234,-567.5 "/>
<text text-anchor="middle" x="180.5" y="-555.5" font-family="Helvetica,sans-Serif" font-size="10.00"> </text>
<polyline fill="none" stroke="black" points="127,-548.5 234,-548.5 "/>
<text text-anchor="middle" x="180.5" y="-536.5" font-family="Helvetica,sans-Serif" font-size="10.00"> </text>
</a>
</g>
</g>
<!-- Node6&#45;&gt;Node2 -->
<g id="edge5" class="edge">
<title>Node6&#45;&gt;Node2</title>
<path fill="none" stroke="#404040" d="M210,-529.33C236.99,-498.98 278.09,-452.77 314.15,-412.22"/>
<polygon fill="none" stroke="#404040" points="314.26,-412.1 315.26,-404.96 322.24,-403.13 321.24,-410.27 314.26,-412.1"/>
<text text-anchor="middle" x="284" y="-503" font-family="Helvetica,sans-Serif" font-size="10.00"> #foreign_members</text>
<text text-anchor="middle" x="284" y="-492" font-family="Helvetica,sans-Serif" font-size="10.00">#properties</text>
</g>
<!-- Node9 -->
<g id="node9" class="node">
<title>Node9</title>
<g id="a_node9"><a xlink:href="classgeojson_1_1_j_s_o_n_property.html" target="_top" xlink:title="@TODO: Convert JSONProperty into a variant of the supported types">
<polygon fill="white" stroke="black" points="193.5,-692.5 193.5,-925.5 311.5,-925.5 311.5,-692.5 193.5,-692.5"/>
<text text-anchor="middle" x="252.5" y="-913.5" font-family="Helvetica,sans-Serif" font-size="10.00">geojson::JSONProperty</text>
<polyline fill="none" stroke="black" points="193.5,-906.5 311.5,-906.5 "/>
<text text-anchor="start" x="201.5" y="-894.5" font-family="Helvetica,sans-Serif" font-size="10.00">&#45; type</text>
<text text-anchor="start" x="201.5" y="-883.5" font-family="Helvetica,sans-Serif" font-size="10.00">&#45; data</text>
<polyline fill="none" stroke="black" points="193.5,-876.5 311.5,-876.5 "/>
<text text-anchor="start" x="201.5" y="-864.5" font-family="Helvetica,sans-Serif" font-size="10.00">+ JSONProperty()</text>
<text text-anchor="start" x="201.5" y="-853.5" font-family="Helvetica,sans-Serif" font-size="10.00">+ JSONProperty()</text>
<text text-anchor="start" x="201.5" y="-842.5" font-family="Helvetica,sans-Serif" font-size="10.00">+ JSONProperty()</text>
<text text-anchor="start" x="201.5" y="-831.5" font-family="Helvetica,sans-Serif" font-size="10.00">+ JSONProperty()</text>
<text text-anchor="start" x="201.5" y="-820.5" font-family="Helvetica,sans-Serif" font-size="10.00">+ JSONProperty()</text>
<text text-anchor="start" x="201.5" y="-809.5" font-family="Helvetica,sans-Serif" font-size="10.00">+ JSONProperty()</text>
<text text-anchor="start" x="201.5" y="-798.5" font-family="Helvetica,sans-Serif" font-size="10.00">+ JSONProperty()</text>
<text text-anchor="start" x="201.5" y="-787.5" font-family="Helvetica,sans-Serif" font-size="10.00">+ JSONProperty()</text>
<text text-anchor="start" x="201.5" y="-776.5" font-family="Helvetica,sans-Serif" font-size="10.00">+ JSONProperty()</text>
<text text-anchor="start" x="201.5" y="-765.5" font-family="Helvetica,sans-Serif" font-size="10.00">+ JSONProperty()</text>
<text text-anchor="start" x="201.5" y="-754.5" font-family="Helvetica,sans-Serif" font-size="10.00">+ ~JSONProperty()</text>
<text text-anchor="start" x="201.5" y="-743.5" font-family="Helvetica,sans-Serif" font-size="10.00">+ JSONProperty()</text>
<text text-anchor="start" x="201.5" y="-732.5" font-family="Helvetica,sans-Serif" font-size="10.00">+ JSONProperty()</text>
<text text-anchor="start" x="201.5" y="-721.5" font-family="Helvetica,sans-Serif" font-size="10.00">+ get_type()</text>
<text text-anchor="start" x="201.5" y="-710.5" font-family="Helvetica,sans-Serif" font-size="10.00">+ as_natural_number()</text>
<text text-anchor="start" x="201.5" y="-699.5" font-family="Helvetica,sans-Serif" font-size="10.00">and 16 more...</text>
</a>
</g>
</g>
<!-- Node6&#45;&gt;Node9 -->
<g id="edge10" class="edge">
<title>Node6&#45;&gt;Node9</title>
<path fill="none" stroke="#404040" d="M218.41,-597.54C223.15,-603.25 227.41,-609.47 230.5,-616 239.94,-635.92 245.98,-658.26 249.74,-680.47"/>
<polygon fill="none" stroke="#404040" points="249.76,-680.55 254.61,-685.88 251.56,-692.41 246.71,-687.08 249.76,-680.55"/>
<text text-anchor="middle" x="265.5" y="-642.5" font-family="Helvetica,sans-Serif" font-size="10.00"> &#45;values</text>
</g>
<!-- Node7 -->
<g id="node7" class="node">
<title>Node7</title>
<g id="a_node7"><a xlink:title=" ">
<polygon fill="white" stroke="black" points="17,-1037 17,-1094 76,-1094 76,-1037 17,-1037"/>
<text text-anchor="middle" x="46.5" y="-1082" font-family="Helvetica,sans-Serif" font-size="10.00">std::string</text>
<polyline fill="none" stroke="black" points="17,-1075 76,-1075 "/>
<text text-anchor="middle" x="46.5" y="-1063" font-family="Helvetica,sans-Serif" font-size="10.00"> </text>
<polyline fill="none" stroke="black" points="17,-1056 76,-1056 "/>
<text text-anchor="middle" x="46.5" y="-1044" font-family="Helvetica,sans-Serif" font-size="10.00"> </text>
</a>
</g>
</g>
<!-- Node7&#45;&gt;Node2 -->
<g id="edge19" class="edge">
<title>Node7&#45;&gt;Node2</title>
<path fill="none" stroke="#404040" d="M41.37,-1036.84C29.25,-964.37 4.19,-764.38 65.5,-616 82.7,-574.37 87.26,-562.39 117.5,-529 174.53,-466.03 253.9,-409.92 312.18,-373"/>
<polygon fill="none" stroke="#404040" points="312.28,-372.94 315.23,-366.37 322.44,-366.56 319.48,-373.14 312.28,-372.94"/>
<text text-anchor="middle" x="73.5" y="-642.5" font-family="Helvetica,sans-Serif" font-size="10.00"> #id</text>
</g>
<!-- Node7&#45;&gt;Node6 -->
<g id="edge6" class="edge">
<title>Node7&#45;&gt;Node6</title>
<path fill="none" stroke="#404040" d="M46.46,-1036.99C46.92,-974.71 51.17,-818.52 80.5,-692 88.66,-656.78 87.51,-644.7 109.5,-616 112.21,-612.47 115.22,-609.07 118.44,-605.83"/>
<polygon fill="none" stroke="#404040" points="118.53,-605.74 120.22,-598.73 127.35,-597.6 125.65,-604.61 118.53,-605.74"/>
<text text-anchor="middle" x="95" y="-806.5" font-family="Helvetica,sans-Serif" font-size="10.00"> +keys</text>
</g>
<!-- Node7&#45;&gt;Node9 -->
<g id="edge9" class="edge">
<title>Node7&#45;&gt;Node9</title>
<path fill="none" stroke="#404040" d="M52.18,-1036.94C58.85,-1006.31 70.31,-959.15 80.5,-944 106.65,-905.12 147.72,-872.51 183.17,-849.2"/>
<polygon fill="none" stroke="#404040" points="183.39,-849.05 186.28,-842.45 193.49,-842.57 190.6,-849.18 183.39,-849.05"/>
<text text-anchor="middle" x="91" y="-976" font-family="Helvetica,sans-Serif" font-size="10.00"> &#45;key</text>
</g>
<!-- Node8 -->
<g id="node8" class="node">
<title>Node8</title>
<g id="a_node8"><a xlink:title=" ">
<polygon fill="white" stroke="black" points="0,-1147.5 0,-1215.5 93,-1215.5 93,-1147.5 0,-1147.5"/>
<text text-anchor="start" x="8" y="-1203.5" font-family="Helvetica,sans-Serif" font-size="10.00">std::basic_string&lt;</text>
<text text-anchor="middle" x="46.5" y="-1192.5" font-family="Helvetica,sans-Serif" font-size="10.00"> Char &gt;</text>
<polyline fill="none" stroke="black" points="0,-1185.5 93,-1185.5 "/>
<text text-anchor="middle" x="46.5" y="-1173.5" font-family="Helvetica,sans-Serif" font-size="10.00"> </text>
<polyline fill="none" stroke="black" points="0,-1166.5 93,-1166.5 "/>
<text text-anchor="middle" x="46.5" y="-1154.5" font-family="Helvetica,sans-Serif" font-size="10.00"> </text>
</a>
</g>
</g>
<!-- Node8&#45;&gt;Node7 -->
<g id="edge7" class="edge">
<title>Node8&#45;&gt;Node7</title>
<path fill="none" stroke="midnightblue" d="M46.5,-1137.03C46.5,-1122.67 46.5,-1107.1 46.5,-1094.24"/>
<polygon fill="none" stroke="midnightblue" points="43,-1137.22 46.5,-1147.22 50,-1137.22 43,-1137.22"/>
</g>
<!-- Node9&#45;&gt;Node6 -->
<g id="edge8" class="edge">
<title>Node9&#45;&gt;Node6</title>
<path fill="none" stroke="#404040" d="M193.4,-708.75C188.58,-697.33 184.44,-685.61 181.5,-674 176.27,-653.34 175.42,-629.78 176.13,-609.82"/>
<polygon fill="none" stroke="#404040" points="176.14,-609.59 172.46,-603.39 176.77,-597.6 180.45,-603.8 176.14,-609.59"/>
<text text-anchor="middle" x="206" y="-642.5" font-family="Helvetica,sans-Serif" font-size="10.00"> +elements</text>
</g>
<!-- Node9&#45;&gt;Node10 -->
<g id="edge12" class="edge">
<title>Node9&#45;&gt;Node10</title>
<path fill="none" stroke="#404040" d="M263.41,-925.67C266.54,-958.88 269.77,-993.15 272.24,-1019.33"/>
<polygon fill="none" stroke="#404040" points="272.26,-1019.54 276.81,-1025.14 273.39,-1031.49 268.84,-1025.89 272.26,-1019.54"/>
<text text-anchor="middle" x="296" y="-976" font-family="Helvetica,sans-Serif" font-size="10.00"> +elements</text>
</g>
<!-- Node10&#45;&gt;Node9 -->
<g id="edge11" class="edge">
<title>Node10&#45;&gt;Node9</title>
<path fill="none" stroke="#404040" d="M315.33,-1031.45C319.87,-1025.79 323.83,-1019.58 326.5,-1013 338.03,-984.58 334.15,-973.7 326.5,-944 323.97,-934.2 320.56,-924.34 316.58,-914.67"/>
<polygon fill="none" stroke="#404040" points="316.47,-914.42 310.4,-910.52 311.67,-903.42 317.73,-907.32 316.47,-914.42"/>
<text text-anchor="middle" x="358" y="-976" font-family="Helvetica,sans-Serif" font-size="10.00"> &#45;value_list</text>
</g>
<!-- Node11&#45;&gt;Node6 -->
<g id="edge14" class="edge">
<title>Node11&#45;&gt;Node6</title>
<path fill="none" stroke="orange" d="M159.91,-1143.14C150.12,-1109.49 136.85,-1058.48 131.5,-1013 113.23,-857.81 153.19,-672.12 171.72,-597.72"/>
<polygon fill="orange" stroke="orange" points="156.64,-1144.4 162.83,-1153 163.35,-1142.42 156.64,-1144.4"/>
<text text-anchor="middle" x="196.5" y="-976" font-family="Helvetica,sans-Serif" font-size="10.00"> &lt; std::string, JSONProperty &gt;</text>
</g>
<!-- Node12 -->
<g id="node12" class="node">
<title>Node12</title>
<g id="a_node12"><a xlink:title=" ">
<polygon fill="white" stroke="black" points="157,-1263.5 157,-1320.5 186,-1320.5 186,-1263.5 157,-1263.5"/>
<text text-anchor="middle" x="171.5" y="-1308.5" font-family="Helvetica,sans-Serif" font-size="10.00">K</text>
<polyline fill="none" stroke="black" points="157,-1301.5 186,-1301.5 "/>
<text text-anchor="middle" x="171.5" y="-1289.5" font-family="Helvetica,sans-Serif" font-size="10.00"> </text>
<polyline fill="none" stroke="black" points="157,-1282.5 186,-1282.5 "/>
<text text-anchor="middle" x="171.5" y="-1270.5" font-family="Helvetica,sans-Serif" font-size="10.00"> </text>
</a>
</g>
</g>
<!-- Node12&#45;&gt;Node11 -->
<g id="edge15" class="edge">
<title>Node12&#45;&gt;Node11</title>
<path fill="none" stroke="#404040" d="M171.5,-1263.34C171.5,-1250.84 171.5,-1235.84 171.5,-1222.18"/>
<polygon fill="none" stroke="#404040" points="171.5,-1222.11 167.5,-1216.11 171.5,-1210.11 175.5,-1216.11 171.5,-1222.11"/>
<text text-anchor="middle" x="186" y="-1237" font-family="Helvetica,sans-Serif" font-size="10.00"> +keys</text>
</g>
<!-- Node13&#45;&gt;Node2 -->
<g id="edge17" class="edge">
<title>Node13&#45;&gt;Node2</title>
<path fill="none" stroke="#404040" d="M397.72,-616.47C396.85,-585.97 395.38,-534.32 393.92,-483.04"/>
<polygon fill="none" stroke="#404040" points="393.91,-482.72 389.75,-476.84 393.57,-470.73 397.74,-476.61 393.91,-482.72"/>
<text text-anchor="middle" x="431" y="-561" font-family="Helvetica,sans-Serif" font-size="10.00"> #bounding_box</text>
</g>
<!-- Node14&#45;&gt;Node2 -->
<g id="edge20" class="edge">
<title>Node14&#45;&gt;Node2</title>
<path fill="none" stroke="#404040" d="M422.72,-90.58C425.46,-103.15 428.15,-117.65 429.5,-131 430.79,-143.8 430.86,-157.01 430.03,-170.22"/>
<polygon fill="none" stroke="#404040" points="430.01,-170.39 433.5,-176.7 429.02,-182.35 425.53,-176.04 430.01,-170.39"/>
<text text-anchor="middle" x="459" y="-156" font-family="Helvetica,sans-Serif" font-size="10.00"> #destination</text>
<text text-anchor="middle" x="459" y="-145" font-family="Helvetica,sans-Serif" font-size="10.00">#neighbors</text>
<text text-anchor="middle" x="459" y="-134" font-family="Helvetica,sans-Serif" font-size="10.00">#origination</text>
</g>
</g>
</svg>
        <g id="navigator" transform="translate(0 0)" fill="#404254">
                <rect fill="#f2f5e9" fill-opacity="0.5" stroke="#606060" stroke-width=".5" x="0" y="0" width="60" height="60"/>
                <use id="zoomplus" xlink:href="#zoomPlus" x="17" y="9" onmousedown="handleZoom(evt,'in')"/>
                <use id="zoomminus" xlink:href="#zoomMin" x="42" y="9" onmousedown="handleZoom(evt,'out')"/>
                <use id="reset" xlink:href="#resetDef" x="30" y="36" onmousedown="handleReset()"/>
                <g id="arrowUp" xlink:href="#dirArrow" transform="translate(30 24)" onmousedown="handlePan(0,-1)">
                  <use xlink:href="#rim" fill="#404040">
                        <set attributeName="fill" to="#808080" begin="arrowUp.mouseover" end="arrowUp.mouseout"/>
                  </use>
                  <path fill="none" stroke="white" stroke-width="1.5" d="M0,-3.0v7 M-2.5,-0.5L0,-3.0L2.5,-0.5"/>
                </g>
                <g id="arrowRight" xlink:href="#dirArrow" transform="rotate(90) translate(36 -43)" onmousedown="handlePan(1,0)">
                  <use xlink:href="#rim" fill="#404040">
                        <set attributeName="fill" to="#808080" begin="arrowRight.mouseover" end="arrowRight.mouseout"/>
                  </use>
                  <path fill="none" stroke="white" stroke-width="1.5" d="M0,-3.0v7 M-2.5,-0.5L0,-3.0L2.5,-0.5"/>
                </g>
                <g id="arrowDown" xlink:href="#dirArrow" transform="rotate(180) translate(-30 -48)" onmousedown="handlePan(0,1)">
                  <use xlink:href="#rim" fill="#404040">
                        <set attributeName="fill" to="#808080" begin="arrowDown.mouseover" end="arrowDown.mouseout"/>
                  </use>
                  <path fill="none" stroke="white" stroke-width="1.5" d="M0,-3.0v7 M-2.5,-0.5L0,-3.0L2.5,-0.5"/>
                </g>
                <g id="arrowLeft" xlink:href="#dirArrow" transform="rotate(270) translate(-36 17)" onmousedown="handlePan(-1,0)">
                  <use xlink:href="#rim" fill="#404040">
                        <set attributeName="fill" to="#808080" begin="arrowLeft.mouseover" end="arrowLeft.mouseout"/>
                  </use>
                  <path fill="none" stroke="white" stroke-width="1.5" d="M0,-3.0v7 M-2.5,-0.5L0,-3.0L2.5,-0.5"/>
                </g>
        </g>
        <svg viewBox="0 0 15 15" width="100%" height="30px" preserveAspectRatio="xMaxYMin meet">
         <g id="arrow_out" transform="scale(0.3 0.3)">
          <a xlink:href="classgeojson_1_1_multi_line_string_feature__coll__graph_org.svg" target="_base">
           <rect id="button" ry="5" rx="5" y="6" x="6" height="38" width="38"
                fill="#f2f5e9" fill-opacity="0.5" stroke="#606060" stroke-width="1.0"/>
           <path id="arrow"
             d="M 11.500037,31.436501 C 11.940474,20.09759 22.043105,11.32322 32.158766,21.979434 L 37.068811,17.246167 C 37.068811,17.246167 37.088388,32 37.088388,32 L 22.160133,31.978069 C 22.160133,31.978069 26.997745,27.140456 26.997745,27.140456 C 18.528582,18.264221 13.291696,25.230495 11.500037,31.436501 z"
             style="fill:#404040;"/>
          </a>
         </g>
        </svg>
</svg>
