<?xml version="1.0" encoding="UTF-8" standalone="no"?>
<!DOCTYPE svg PUBLIC "-//W3C//DTD SVG 1.1//EN"
 "http://www.w3.org/Graphics/SVG/1.1/DTD/svg11.dtd">
<!-- Generated by graphviz version 3.0.0 (20220413.0242)
 -->
<!-- Title: realization::ConfigurationException Pages: 1 -->
<svg width="189pt" height="332pt"
 viewBox="0.00 0.00 189.00 332.00" xmlns="http://www.w3.org/2000/svg" xmlns:xlink="http://www.w3.org/1999/xlink">
<g id="graph0" class="graph" transform="scale(1 1) rotate(0) translate(4 328)">
<title>realization::ConfigurationException</title>
<polygon fill="white" stroke="transparent" points="-4,4 -4,-328 185,-328 185,4 -4,4"/>
<!-- Node1 -->
<g id="node1" class="node">
<title>Node1</title>
<g id="a_node1"><a xlink:title="Custom exception indicating a problem when integrating with the provided realization configuration.">
<polygon fill="#bfbfbf" stroke="black" points="0,-0.5 0,-112.5 129,-112.5 129,-0.5 0,-0.5"/>
<text text-anchor="start" x="8" y="-100.5" font-family="Helvetica,sans-Serif" font-size="10.00">realization::Configuration</text>
<text text-anchor="middle" x="64.5" y="-89.5" font-family="Helvetica,sans-Serif" font-size="10.00">Exception</text>
<polyline fill="none" stroke="black" points="0,-82.5 129,-82.5 "/>
<text text-anchor="middle" x="64.5" y="-70.5" font-family="Helvetica,sans-Serif" font-size="10.00"> </text>
<polyline fill="none" stroke="black" points="0,-63.5 129,-63.5 "/>
<text text-anchor="start" x="8" y="-51.5" font-family="Helvetica,sans-Serif" font-size="10.00">+ ConfigurationException()</text>
<text text-anchor="start" x="8" y="-40.5" font-family="Helvetica,sans-Serif" font-size="10.00">+ ConfigurationException()</text>
<text text-anchor="start" x="8" y="-29.5" font-family="Helvetica,sans-Serif" font-size="10.00">+ ConfigurationException()</text>
<text text-anchor="start" x="8" y="-18.5" font-family="Helvetica,sans-Serif" font-size="10.00">+ ConfigurationException()</text>
<text text-anchor="start" x="8" y="-7.5" font-family="Helvetica,sans-Serif" font-size="10.00">+ what()</text>
</a>
</g>
</g>
<!-- Node2 -->
<g id="node2" class="node">
<title>Node2</title>
<g id="a_node2"><a xlink:title=" ">
<polygon fill="white" stroke="black" points="10.5,-160.5 10.5,-217.5 86.5,-217.5 86.5,-160.5 10.5,-160.5"/>
<text text-anchor="middle" x="48.5" y="-205.5" font-family="Helvetica,sans-Serif" font-size="10.00">std::exception</text>
<polyline fill="none" stroke="black" points="10.5,-198.5 86.5,-198.5 "/>
<text text-anchor="middle" x="48.5" y="-186.5" font-family="Helvetica,sans-Serif" font-size="10.00"> </text>
<polyline fill="none" stroke="black" points="10.5,-179.5 86.5,-179.5 "/>
<text text-anchor="middle" x="48.5" y="-167.5" font-family="Helvetica,sans-Serif" font-size="10.00"> </text>
</a>
</g>
</g>
<!-- Node2&#45;&gt;Node1 -->
<g id="edge1" class="edge">
<title>Node2&#45;&gt;Node1</title>
<path fill="none" stroke="midnightblue" d="M53.11,-150.38C54.56,-138.58 56.19,-125.3 57.75,-112.55"/>
<polygon fill="none" stroke="midnightblue" points="49.64,-149.97 51.89,-160.32 56.58,-150.82 49.64,-149.97"/>
</g>
<!-- Node3 -->
<g id="node3" class="node">
<title>Node3</title>
<g id="a_node3"><a xlink:title=" ">
<polygon fill="white" stroke="black" points="105,-160.5 105,-217.5 164,-217.5 164,-160.5 105,-160.5"/>
<text text-anchor="middle" x="134.5" y="-205.5" font-family="Helvetica,sans-Serif" font-size="10.00">std::string</text>
<polyline fill="none" stroke="black" points="105,-198.5 164,-198.5 "/>
<text text-anchor="middle" x="134.5" y="-186.5" font-family="Helvetica,sans-Serif" font-size="10.00"> </text>
<polyline fill="none" stroke="black" points="105,-179.5 164,-179.5 "/>
<text text-anchor="middle" x="134.5" y="-167.5" font-family="Helvetica,sans-Serif" font-size="10.00"> </text>
</a>
</g>
</g>
<!-- Node3&#45;&gt;Node1 -->
<g id="edge2" class="edge">
<title>Node3&#45;&gt;Node1</title>
<path fill="none" stroke="#404040" d="M119.65,-160.32C113.82,-149.45 106.86,-136.47 99.87,-123.45"/>
<polygon fill="none" stroke="#404040" points="99.7,-123.12 93.34,-119.73 94.03,-112.55 100.39,-115.94 99.7,-123.12"/>
<text text-anchor="middle" x="143.5" y="-134" font-family="Helvetica,sans-Serif" font-size="10.00"> &#45;what_message</text>
</g>
<!-- Node4 -->
<g id="node4" class="node">
<title>Node4</title>
<g id="a_node4"><a xlink:title=" ">
<polygon fill="white" stroke="black" points="88,-255.5 88,-323.5 181,-323.5 181,-255.5 88,-255.5"/>
<text text-anchor="start" x="96" y="-311.5" font-family="Helvetica,sans-Serif" font-size="10.00">std::basic_string&lt;</text>
<text text-anchor="middle" x="134.5" y="-300.5" font-family="Helvetica,sans-Serif" font-size="10.00"> Char &gt;</text>
<polyline fill="none" stroke="black" points="88,-293.5 181,-293.5 "/>
<text text-anchor="middle" x="134.5" y="-281.5" font-family="Helvetica,sans-Serif" font-size="10.00"> </text>
<polyline fill="none" stroke="black" points="88,-274.5 181,-274.5 "/>
<text text-anchor="middle" x="134.5" y="-262.5" font-family="Helvetica,sans-Serif" font-size="10.00"> </text>
</a>
</g>
</g>
<!-- Node4&#45;&gt;Node3 -->
<g id="edge3" class="edge">
<title>Node4&#45;&gt;Node3</title>
<path fill="none" stroke="midnightblue" d="M134.5,-245.38C134.5,-235.94 134.5,-226.2 134.5,-217.57"/>
<polygon fill="none" stroke="midnightblue" points="131,-245.43 134.5,-255.43 138,-245.43 131,-245.43"/>
</g>
</g>
</svg>
