<?xml version="1.0" encoding="UTF-8" standalone="no"?>
<!DOCTYPE svg PUBLIC "-//W3C//DTD SVG 1.1//EN"
 "http://www.w3.org/Graphics/SVG/1.1/DTD/svg11.dtd">
<!-- Generated by graphviz version 7.0.5 (20221223.1930)
 -->
<!-- Title: Reservoir::Explicit_Time::Reservoir Pages: 1 -->
<!--zoomable 816 -->
<svg id="main" version="1.1" xmlns="http://www.w3.org/2000/svg" xmlns:xlink="http://www.w3.org/1999/xlink" xml:space="preserve" onload="init(evt)">
<style type="text/css"><![CDATA[
.edge:hover path { stroke: red; }
.edge:hover polygon { stroke: red; fill: red; }
]]></style>
<script type="text/javascript"><![CDATA[
var edges = document.getElementsByTagName('g');
if (edges && edges.length) {
  for (var i=0;i<edges.length;i++) {
    if (edges[i].id.substr(0,4)=='edge') {
      edges[i].setAttribute('class','edge');
    }
  }
}
]]></script>
        <defs>
                <circle id="rim" cx="0" cy="0" r="7"/>
                <circle id="rim2" cx="0" cy="0" r="3.5"/>
                <g id="zoomPlus">
                        <use xlink:href="#rim" fill="#404040">
                                <set attributeName="fill" to="#808080" begin="zoomplus.mouseover" end="zoomplus.mouseout"/>
                        </use>
                        <path d="M-4,0h8M0,-4v8" fill="none" stroke="white" stroke-width="1.5" pointer-events="none"/>
                </g>
                <g id="zoomMin">
                        <use xlink:href="#rim" fill="#404040">
                                <set attributeName="fill" to="#808080" begin="zoomminus.mouseover" end="zoomminus.mouseout"/>
                        </use>
                        <path d="M-4,0h8" fill="none" stroke="white" stroke-width="1.5" pointer-events="none"/>
                </g>
                <g id="dirArrow">
                        <path fill="none" stroke="white" stroke-width="1.5" d="M0,-3.0v7 M-2.5,-0.5L0,-3.0L2.5,-0.5"/>
                </g>
               <g id="resetDef">
                       <use xlink:href="#rim2" fill="#404040">
                               <set attributeName="fill" to="#808080" begin="reset.mouseover" end="reset.mouseout"/>
                       </use>
               </g>
        </defs>

<script type="text/javascript">
var viewWidth = 515;
var viewHeight = 816;
var sectionId = 'dynsection-0';
</script>
<script xlink:href="svgpan.js"/>
<svg id="graph" class="graph">
<g id="viewport">
<title>Reservoir::Explicit_Time::Reservoir</title>
<!-- Node1 -->
<g id="node1" class="node">
<title>Node1</title>
<g id="a_node1"><a xlink:title="Reservoir that has zero, one, or multiple outlets.">
<polygon fill="#999999" stroke="#666666" points="281,-217 161,-217 161,0 281,0 281,-217"/>
<text text-anchor="start" x="169" y="-205" font-family="Helvetica,sans-Serif" font-size="10.00">{Reservoir::Explicit</text>
<text text-anchor="middle" x="221" y="-194" font-family="Helvetica,sans-Serif" font-size="10.00">_Time::Reservoir</text>
<text text-anchor="start" x="169" y="-183" font-family="Helvetica,sans-Serif" font-size="10.00">||+ Reservoir()</text>
<text text-anchor="start" x="169" y="-172" font-family="Helvetica,sans-Serif" font-size="10.00">+ Reservoir()</text>
<text text-anchor="start" x="169" y="-161" font-family="Helvetica,sans-Serif" font-size="10.00">+ Reservoir()</text>
<text text-anchor="start" x="169" y="-150" font-family="Helvetica,sans-Serif" font-size="10.00">+ Reservoir()</text>
<text text-anchor="start" x="169" y="-139" font-family="Helvetica,sans-Serif" font-size="10.00">+ response_meters_per</text>
<text text-anchor="start" x="169" y="-128" font-family="Helvetica,sans-Serif" font-size="10.00">_second()</text>
<text text-anchor="start" x="169" y="-117" font-family="Helvetica,sans-Serif" font-size="10.00">+ add_outlet()</text>
<text text-anchor="start" x="169" y="-106" font-family="Helvetica,sans-Serif" font-size="10.00">+ add_outlet()</text>
<text text-anchor="start" x="169" y="-95" font-family="Helvetica,sans-Serif" font-size="10.00">+ add_outlet()</text>
<text text-anchor="start" x="169" y="-84" font-family="Helvetica,sans-Serif" font-size="10.00">+ sort_outlets()</text>
<text text-anchor="start" x="169" y="-73" font-family="Helvetica,sans-Serif" font-size="10.00">+ check_highest_outlet</text>
<text text-anchor="start" x="169" y="-62" font-family="Helvetica,sans-Serif" font-size="10.00">_against_max_storage()</text>
<text text-anchor="start" x="169" y="-51" font-family="Helvetica,sans-Serif" font-size="10.00">+ get_storage_height</text>
<text text-anchor="start" x="169" y="-40" font-family="Helvetica,sans-Serif" font-size="10.00">_meters()</text>
<text text-anchor="start" x="169" y="-29" font-family="Helvetica,sans-Serif" font-size="10.00">+ velocity_meters_per</text>
<text text-anchor="start" x="169" y="-18" font-family="Helvetica,sans-Serif" font-size="10.00">_second_for_outlet()</text>
<text text-anchor="middle" x="221" y="-7" font-family="Helvetica,sans-Serif" font-size="10.00">}</text>
</a>
</g>
</g>
<!-- Node2 -->
<g id="node2" class="node">
<title>Node2</title>
<g id="a_node2"><a xlink:href="structreservoir__parameters.html" target="_top" xlink:title=" ">
<polygon fill="white" stroke="#666666" points="140,-316 0,-316 0,-264 140,-264 140,-316"/>
<text text-anchor="middle" x="70" y="-304" font-family="Helvetica,sans-Serif" font-size="10.00">{reservoir_parameters</text>
<text text-anchor="start" x="8" y="-293" font-family="Helvetica,sans-Serif" font-size="10.00">|+ minimum_storage_meters</text>
<text text-anchor="start" x="8" y="-282" font-family="Helvetica,sans-Serif" font-size="10.00">+ maximum_storage_meters</text>
<text text-anchor="middle" x="70" y="-271" font-family="Helvetica,sans-Serif" font-size="10.00">|}</text>
</a>
</g>
</g>
<!-- Node2&#45;&gt;Node1 -->
<g id="edge1" class="edge">
<title>Node2&#45;&gt;Node1</title>
<path fill="none" stroke="#404040" d="M91.31,-263.66C107.39,-244.56 130.39,-217.22 152.57,-190.85"/>
<polygon fill="none" stroke="#404040" points="152.38,-191.07 153.18,-183.91 160.1,-181.89 159.3,-189.06 152.38,-191.07"/>
<text text-anchor="middle" x="142.5" y="-238" font-family="Helvetica,sans-Serif" font-size="10.00"> &#45;parameters</text>
</g>
<!-- Node3 -->
<g id="node3" class="node">
<title>Node3</title>
<g id="a_node3"><a xlink:href="structreservoir__state.html" target="_top" xlink:title=" ">
<polygon fill="white" stroke="#666666" points="284,-316 158,-316 158,-264 284,-264 284,-316"/>
<text text-anchor="middle" x="221" y="-304" font-family="Helvetica,sans-Serif" font-size="10.00">{reservoir_state</text>
<text text-anchor="start" x="166" y="-293" font-family="Helvetica,sans-Serif" font-size="10.00">|+ current_storage_height</text>
<text text-anchor="start" x="166" y="-282" font-family="Helvetica,sans-Serif" font-size="10.00">_meters</text>
<text text-anchor="middle" x="221" y="-271" font-family="Helvetica,sans-Serif" font-size="10.00">|}</text>
</a>
</g>
</g>
<!-- Node3&#45;&gt;Node1 -->
<g id="edge2" class="edge">
<title>Node3&#45;&gt;Node1</title>
<path fill="none" stroke="#404040" d="M221,-263.66C221,-254.1 221,-242.46 221,-229.92"/>
<polygon fill="none" stroke="#404040" points="221,-230.03 217,-224.03 221,-218.03 225,-224.03 221,-230.03"/>
<text text-anchor="middle" x="235" y="-238" font-family="Helvetica,sans-Serif" font-size="10.00"> &#45;state</text>
</g>
<!-- Node4 -->
<g id="node4" class="node">
<title>Node4</title>
<g id="a_node4"><a xlink:title=" ">
<polygon fill="white" stroke="#666666" points="433.5,-310.5 302.5,-310.5 302.5,-269.5 433.5,-269.5 433.5,-310.5"/>
<text text-anchor="start" x="310.5" y="-298.5" font-family="Helvetica,sans-Serif" font-size="10.00">{std::vector&lt; std::shared</text>
<text text-anchor="middle" x="368" y="-287.5" font-family="Helvetica,sans-Serif" font-size="10.00">_ptr&lt; Reservoir_Outlet &gt; &gt;</text>
<text text-anchor="middle" x="368" y="-276.5" font-family="Helvetica,sans-Serif" font-size="10.00">||}</text>
</a>
</g>
</g>
<!-- Node4&#45;&gt;Node1 -->
<g id="edge3" class="edge">
<title>Node4&#45;&gt;Node1</title>
<path fill="none" stroke="#404040" d="M351.71,-269.1C336.46,-250.49 312.62,-221.38 289.45,-193.09"/>
<polygon fill="none" stroke="#404040" points="289.48,-193.11 282.58,-191.01 281.87,-183.83 288.77,-185.94 289.48,-193.11"/>
<text text-anchor="middle" x="350.5" y="-238" font-family="Helvetica,sans-Serif" font-size="10.00"> &#45;outlets</text>
</g>
<!-- Node5 -->
<g id="node5" class="node">
<title>Node5</title>
<g id="a_node5"><a xlink:title=" ">
<polygon fill="white" stroke="#666666" points="353.5,-415 220.5,-415 220.5,-363 353.5,-363 353.5,-415"/>
<text text-anchor="start" x="228.5" y="-403" font-family="Helvetica,sans-Serif" font-size="10.00">{std::shared_ptr&lt; Reservoir</text>
<text text-anchor="middle" x="287" y="-392" font-family="Helvetica,sans-Serif" font-size="10.00">_Outlet &gt;</text>
<text text-anchor="start" x="228.5" y="-381" font-family="Helvetica,sans-Serif" font-size="10.00">||+ operator&#45;&gt;()</text>
<text text-anchor="middle" x="287" y="-370" font-family="Helvetica,sans-Serif" font-size="10.00">}</text>
</a>
</g>
</g>
<!-- Node5&#45;&gt;Node4 -->
<g id="edge4" class="edge">
<title>Node5&#45;&gt;Node4</title>
<path fill="none" stroke="#404040" d="M308.28,-362.51C319.04,-349.63 332.15,-333.93 343.35,-320.52"/>
<polygon fill="none" stroke="#404040" points="343.19,-320.71 343.97,-313.54 350.88,-311.5 350.11,-318.67 343.19,-320.71"/>
<text text-anchor="middle" x="354.5" y="-337" font-family="Helvetica,sans-Serif" font-size="10.00"> +elements</text>
</g>
<!-- Node6 -->
<g id="node6" class="node">
<title>Node6</title>
<g id="a_node6"><a xlink:href="class_reservoir_1_1_explicit___time_1_1_reservoir___outlet.html" target="_top" xlink:title="Base Single Reservior Outlet Class.">
<polygon fill="white" stroke="#666666" points="276,-731 124,-731 124,-481 276,-481 276,-731"/>
<text text-anchor="start" x="132" y="-719" font-family="Helvetica,sans-Serif" font-size="10.00">{Reservoir::Explicit</text>
<text text-anchor="middle" x="200" y="-708" font-family="Helvetica,sans-Serif" font-size="10.00">_Time::Reservoir_Outlet</text>
<text text-anchor="start" x="132" y="-697" font-family="Helvetica,sans-Serif" font-size="10.00">|# a</text>
<text text-anchor="start" x="132" y="-686" font-family="Helvetica,sans-Serif" font-size="10.00"># b</text>
<text text-anchor="start" x="132" y="-675" font-family="Helvetica,sans-Serif" font-size="10.00"># activation_threshold</text>
<text text-anchor="start" x="132" y="-664" font-family="Helvetica,sans-Serif" font-size="10.00">_meters</text>
<text text-anchor="start" x="132" y="-653" font-family="Helvetica,sans-Serif" font-size="10.00"># max_velocity_meters</text>
<text text-anchor="start" x="132" y="-642" font-family="Helvetica,sans-Serif" font-size="10.00">_per_second</text>
<text text-anchor="start" x="132" y="-631" font-family="Helvetica,sans-Serif" font-size="10.00"># velocity_meters_per</text>
<text text-anchor="start" x="132" y="-620" font-family="Helvetica,sans-Serif" font-size="10.00">_second_local</text>
<text text-anchor="start" x="132" y="-609" font-family="Helvetica,sans-Serif" font-size="10.00">|+ Reservoir_Outlet()</text>
<text text-anchor="start" x="132" y="-598" font-family="Helvetica,sans-Serif" font-size="10.00">+ Reservoir_Outlet()</text>
<text text-anchor="start" x="132" y="-587" font-family="Helvetica,sans-Serif" font-size="10.00">+ adjust_velocity()</text>
<text text-anchor="start" x="132" y="-576" font-family="Helvetica,sans-Serif" font-size="10.00">+ get_activation_threshold</text>
<text text-anchor="start" x="132" y="-565" font-family="Helvetica,sans-Serif" font-size="10.00">_meters()</text>
<text text-anchor="start" x="132" y="-554" font-family="Helvetica,sans-Serif" font-size="10.00">+ get_previously_calculated</text>
<text text-anchor="start" x="132" y="-543" font-family="Helvetica,sans-Serif" font-size="10.00">_velocity_meters_per_second()</text>
<text text-anchor="start" x="132" y="-532" font-family="Helvetica,sans-Serif" font-size="10.00">+ velocity_meters_per</text>
<text text-anchor="start" x="132" y="-521" font-family="Helvetica,sans-Serif" font-size="10.00">_second()</text>
<text text-anchor="start" x="132" y="-510" font-family="Helvetica,sans-Serif" font-size="10.00"># calc_velocity_meters</text>
<text text-anchor="start" x="132" y="-499" font-family="Helvetica,sans-Serif" font-size="10.00">_per_second_local()</text>
<text text-anchor="middle" x="200" y="-488" font-family="Helvetica,sans-Serif" font-size="10.00">}</text>
</a>
</g>
</g>
<!-- Node6&#45;&gt;Node5 -->
<g id="edge5" class="edge">
<title>Node6&#45;&gt;Node5</title>
<path fill="none" stroke="#404040" d="M237.43,-480.76C243.64,-464.42 250.53,-448.11 258,-433 259.11,-430.76 260.32,-428.5 261.59,-426.25"/>
<polygon fill="none" stroke="#404040" points="261.6,-426.24 261.33,-419.03 267.88,-416.01 268.15,-423.22 261.6,-426.24"/>
<text text-anchor="middle" x="268" y="-445.5" font-family="Helvetica,sans-Serif" font-size="10.00"> +ptr</text>
</g>
<!-- Node7 -->
<g id="node7" class="node">
<title>Node7</title>
<g id="a_node7"><a xlink:title=" ">
<polygon fill="white" stroke="#666666" points="400,-626.5 294,-626.5 294,-585.5 400,-585.5 400,-626.5"/>
<text text-anchor="middle" x="347" y="-614.5" font-family="Helvetica,sans-Serif" font-size="10.00">{std::shared_ptr&lt; T &gt;</text>
<text text-anchor="start" x="302" y="-603.5" font-family="Helvetica,sans-Serif" font-size="10.00">||+ operator&#45;&gt;()</text>
<text text-anchor="middle" x="347" y="-592.5" font-family="Helvetica,sans-Serif" font-size="10.00">}</text>
</a>
</g>
</g>
<!-- Node7&#45;&gt;Node5 -->
<g id="edge6" class="edge">
<title>Node7&#45;&gt;Node5</title>
<path fill="none" stroke="orange" d="M329.42,-575.32C313.98,-547.42 292.67,-503.94 284,-463 280.69,-447.36 281.36,-429.44 282.9,-415.26"/>
<polygon fill="orange" stroke="orange" points="326.3,-576.91 334.26,-583.9 332.39,-573.47 326.3,-576.91"/>
<text text-anchor="middle" x="330" y="-445.5" font-family="Helvetica,sans-Serif" font-size="10.00"> &lt; Reservoir_Outlet &gt;</text>
</g>
<!-- Node8 -->
<g id="node8" class="node">
<title>Node8</title>
<g id="a_node8"><a xlink:title=" ">
<polygon fill="white" stroke="#666666" points="401.5,-808 372.5,-808 372.5,-778 401.5,-778 401.5,-808"/>
<text text-anchor="middle" x="387" y="-796" font-family="Helvetica,sans-Serif" font-size="10.00">{T</text>
<text text-anchor="middle" x="387" y="-785" font-family="Helvetica,sans-Serif" font-size="10.00">||}</text>
</a>
</g>
</g>
<!-- Node8&#45;&gt;Node7 -->
<g id="edge7" class="edge">
<title>Node8&#45;&gt;Node7</title>
<path fill="none" stroke="#404040" d="M383.93,-777.79C377.57,-748.37 362.82,-680.15 354,-639.39"/>
<polygon fill="none" stroke="#404040" points="353.99,-639.32 348.81,-634.3 351.45,-627.6 356.63,-632.61 353.99,-639.32"/>
<text text-anchor="middle" x="389" y="-752" font-family="Helvetica,sans-Serif" font-size="10.00"> +ptr</text>
</g>
<!-- Node9 -->
<g id="node9" class="node">
<title>Node9</title>
<g id="a_node9"><a xlink:title=" ">
<polygon fill="white" stroke="#666666" points="471.5,-463 384.5,-463 384.5,-433 471.5,-433 471.5,-463"/>
<text text-anchor="middle" x="428" y="-451" font-family="Helvetica,sans-Serif" font-size="10.00">{std::vector&lt; T &gt;</text>
<text text-anchor="middle" x="428" y="-440" font-family="Helvetica,sans-Serif" font-size="10.00">||}</text>
</a>
</g>
</g>
<!-- Node8&#45;&gt;Node9 -->
<g id="edge9" class="edge">
<title>Node8&#45;&gt;Node9</title>
<path fill="none" stroke="#404040" d="M395.15,-777.69C397.96,-772.28 400.92,-765.99 403,-760 407.31,-747.56 407.22,-744.04 409,-731 421.68,-638.1 426.02,-526.77 427.4,-476.28"/>
<polygon fill="none" stroke="#404040" points="427.4,-476.35 423.55,-470.25 427.7,-464.35 431.55,-470.45 427.4,-476.35"/>
<text text-anchor="middle" x="430.5" y="-752" font-family="Helvetica,sans-Serif" font-size="10.00"> +elements</text>
</g>
<!-- Node9&#45;&gt;Node4 -->
<g id="edge8" class="edge">
<title>Node9&#45;&gt;Node4</title>
<path fill="none" stroke="orange" d="M418.34,-421.88C406.46,-391.01 386.55,-339.23 375.67,-310.94"/>
<polygon fill="orange" stroke="orange" points="415.06,-423.11 421.92,-431.19 421.6,-420.6 415.06,-423.11"/>
<text text-anchor="start" x="415" y="-392" font-family="Helvetica,sans-Serif" font-size="10.00"> &lt; std::shared_ptr&lt;</text>
<text text-anchor="middle" x="461" y="-381" font-family="Helvetica,sans-Serif" font-size="10.00"> Reservoir_Outlet &gt; &gt;</text>
</g>
</g>
</svg>
        <g id="navigator" transform="translate(0 0)" fill="#404254">
                <rect fill="#f2f5e9" fill-opacity="0.5" stroke="#606060" stroke-width=".5" x="0" y="0" width="60" height="60"/>
                <use id="zoomplus" xlink:href="#zoomPlus" x="17" y="9" onmousedown="handleZoom(evt,'in')"/>
                <use id="zoomminus" xlink:href="#zoomMin" x="42" y="9" onmousedown="handleZoom(evt,'out')"/>
                <use id="reset" xlink:href="#resetDef" x="30" y="36" onmousedown="handleReset()"/>
                <g id="arrowUp" xlink:href="#dirArrow" transform="translate(30 24)" onmousedown="handlePan(0,-1)">
                  <use xlink:href="#rim" fill="#404040">
                        <set attributeName="fill" to="#808080" begin="arrowUp.mouseover" end="arrowUp.mouseout"/>
                  </use>
                  <path fill="none" stroke="white" stroke-width="1.5" d="M0,-3.0v7 M-2.5,-0.5L0,-3.0L2.5,-0.5"/>
                </g>
                <g id="arrowRight" xlink:href="#dirArrow" transform="rotate(90) translate(36 -43)" onmousedown="handlePan(1,0)">
                  <use xlink:href="#rim" fill="#404040">
                        <set attributeName="fill" to="#808080" begin="arrowRight.mouseover" end="arrowRight.mouseout"/>
                  </use>
                  <path fill="none" stroke="white" stroke-width="1.5" d="M0,-3.0v7 M-2.5,-0.5L0,-3.0L2.5,-0.5"/>
                </g>
                <g id="arrowDown" xlink:href="#dirArrow" transform="rotate(180) translate(-30 -48)" onmousedown="handlePan(0,1)">
                  <use xlink:href="#rim" fill="#404040">
                        <set attributeName="fill" to="#808080" begin="arrowDown.mouseover" end="arrowDown.mouseout"/>
                  </use>
                  <path fill="none" stroke="white" stroke-width="1.5" d="M0,-3.0v7 M-2.5,-0.5L0,-3.0L2.5,-0.5"/>
                </g>
                <g id="arrowLeft" xlink:href="#dirArrow" transform="rotate(270) translate(-36 17)" onmousedown="handlePan(-1,0)">
                  <use xlink:href="#rim" fill="#404040">
                        <set attributeName="fill" to="#808080" begin="arrowLeft.mouseover" end="arrowLeft.mouseout"/>
                  </use>
                  <path fill="none" stroke="white" stroke-width="1.5" d="M0,-3.0v7 M-2.5,-0.5L0,-3.0L2.5,-0.5"/>
                </g>
        </g>
        <svg viewBox="0 0 15 15" width="100%" height="30px" preserveAspectRatio="xMaxYMin meet">
         <g id="arrow_out" transform="scale(0.3 0.3)">
          <a xlink:href="class_reservoir_1_1_explicit___time_1_1_reservoir__coll__graph_org.svg" target="_base">
           <rect id="button" ry="5" rx="5" y="6" x="6" height="38" width="38"
                fill="#f2f5e9" fill-opacity="0.5" stroke="#606060" stroke-width="1.0"/>
           <path id="arrow"
             d="M 11.500037,31.436501 C 11.940474,20.09759 22.043105,11.32322 32.158766,21.979434 L 37.068811,17.246167 C 37.068811,17.246167 37.088388,32 37.088388,32 L 22.160133,31.978069 C 22.160133,31.978069 26.997745,27.140456 26.997745,27.140456 C 18.528582,18.264221 13.291696,25.230495 11.500037,31.436501 z"
             style="fill:#404040;"/>
          </a>
         </g>
        </svg>
</svg>
