<?xml version="1.0" encoding="UTF-8" standalone="no"?>
<!DOCTYPE svg PUBLIC "-//W3C//DTD SVG 1.1//EN"
 "http://www.w3.org/Graphics/SVG/1.1/DTD/svg11.dtd">
<!-- Generated by graphviz version 12.2.0 (20241103.1931)
 -->
<!-- Title: utils::FileStreamHandler Pages: 1 -->
<!--zoomable 811 -->

<svg id="main" version="1.1" xmlns="http://www.w3.org/2000/svg" xmlns:xlink="http://www.w3.org/1999/xlink" xml:space="preserve" onload="init(evt)">

<style type="text/css"><![CDATA[
.node, .edge {opacity: 0.7;}
.node.selected, .edge.selected {opacity: 1;}
.edge:hover path { stroke: red; }
.edge:hover polygon { stroke: red; fill: red; }
]]></style>

<defs>
  <circle id="rim" cx="0" cy="0" r="7"/>
  <circle id="rim2" cx="0" cy="0" r="3.5"/>
  <g id="zoomPlus">
    <use xlink:href="#rim" fill="#404040"><set attributeName="fill" to="#808080" begin="zoomplus.mouseover" end="zoomplus.mouseout"/></use>
    <path d="M-4,0h8M0,-4v8" fill="none" stroke="white" stroke-width="1.5" pointer-events="none"/>
  </g>
  <g id="zoomMin">
    <use xlink:href="#rim" fill="#404040"><set attributeName="fill" to="#808080" begin="zoomminus.mouseover" end="zoomminus.mouseout"/></use>
    <path d="M-4,0h8" fill="none" stroke="white" stroke-width="1.5" pointer-events="none"/>
  </g>
  <g id="arrowUp" transform="translate(30 24)">
    <use xlink:href="#rim"/>
    <path pointer-events="none" fill="none" stroke="white" stroke-width="1.5" d="M0,-3.0v7 M-2.5,-0.5L0,-3.0L2.5,-0.5"/>
  </g>
  <g id="arrowRight" transform="rotate(90) translate(36 -43)">
    <use xlink:href="#rim"/>
    <path pointer-events="none" fill="none" stroke="white" stroke-width="1.5" d="M0,-3.0v7 M-2.5,-0.5L0,-3.0L2.5,-0.5"/>
  </g>
  <g id="arrowDown" transform="rotate(180) translate(-30 -48)">
    <use xlink:href="#rim"/>
    <path pointer-events="none" fill="none" stroke="white" stroke-width="1.5" d="M0,-3.0v7 M-2.5,-0.5L0,-3.0L2.5,-0.5"/>
  </g>
  <g id="arrowLeft" transform="rotate(270) translate(-36 17)">
    <use xlink:href="#rim"/>
    <path pointer-events="none" fill="none" stroke="white" stroke-width="1.5" d="M0,-3.0v7 M-2.5,-0.5L0,-3.0L2.5,-0.5"/>
  </g>
  <g id="resetDef">
    <use xlink:href="#rim2" fill="#404040"><set attributeName="fill" to="#808080" begin="reset.mouseover" end="reset.mouseout"/></use>
  </g>
</defs>
<script type="application/ecmascript">
var viewWidth = 305;
var viewHeight = 811;
var sectionId = 'dynsection-1';
</script>
<script type="application/ecmascript" xlink:href="svg.min.js"/>
<svg id="graph" class="graph">
<g id="viewport">
<title>utils::FileStreamHandler</title>
<!-- Node1 -->
<g id="Node000001" class="node">
<title>Node1</title>
<g id="a_Node000001"><a xlink:title=" ">
<polygon fill="#999999" stroke="none" points="251.75,-65 140.25,-65 140.25,0 251.75,0 251.75,-65"/>
<text text-anchor="start" x="144.25" y="-51.5" font-family="Helvetica,sans-Serif" font-size="10.00">utils::FileStreamHandler</text>
<text text-anchor="start" x="194.5" y="-36.25" font-family="Helvetica,sans-Serif" font-size="10.00"> </text>
<text text-anchor="start" x="144.56" y="-21" font-family="Helvetica,sans-Serif" font-size="10.00">+</text>
<text text-anchor="start" x="154.88" y="-21" font-family="Helvetica,sans-Serif" font-size="10.00">FileStreamHandler()</text>
<text text-anchor="start" x="144.56" y="-5.75" font-family="Helvetica,sans-Serif" font-size="10.00">+</text>
<text text-anchor="start" x="154.88" y="-5.75" font-family="Helvetica,sans-Serif" font-size="10.00">~FileStreamHandler()</text>
<polygon fill="#666666" stroke="#666666" points="140.25,-47.75 140.25,-47.75 251.75,-47.75 251.75,-47.75 140.25,-47.75"/>
<polygon fill="#666666" stroke="#666666" points="140.25,-32.5 140.25,-32.5 251.75,-32.5 251.75,-32.5 140.25,-32.5"/>
<polygon fill="none" stroke="#666666" points="140.25,0 140.25,-65 251.75,-65 251.75,0 140.25,0"/>
</a>
</g>
</g>
<!-- Node2 -->
<g id="Node000002" class="node">
<title>Node2</title>
<g id="a_Node000002"><a xlink:href="classutils_1_1_stream_handler.html" target="_top" xlink:title="This class provides a copyable interface to a std::ostream or std::ostream like object that may not s...">
<polygon fill="white" stroke="none" points="243.88,-304.25 148.12,-304.25 148.12,-102 243.88,-102 243.88,-304.25"/>
<text text-anchor="start" x="152.12" y="-290.75" font-family="Helvetica,sans-Serif" font-size="10.00">utils::StreamHandler</text>
<text text-anchor="start" x="194.5" y="-275.5" font-family="Helvetica,sans-Serif" font-size="10.00"> </text>
<text text-anchor="start" x="152.44" y="-260.25" font-family="Helvetica,sans-Serif" font-size="10.00">+</text>
<text text-anchor="start" x="162.75" y="-260.25" font-family="Helvetica,sans-Serif" font-size="10.00">StreamHandler()</text>
<text text-anchor="start" x="152.44" y="-245" font-family="Helvetica,sans-Serif" font-size="10.00">+</text>
<text text-anchor="start" x="162.75" y="-245" font-family="Helvetica,sans-Serif" font-size="10.00">StreamHandler()</text>
<text text-anchor="start" x="152.44" y="-229.75" font-family="Helvetica,sans-Serif" font-size="10.00">+</text>
<text text-anchor="start" x="162.75" y="-229.75" font-family="Helvetica,sans-Serif" font-size="10.00">StreamHandler()</text>
<text text-anchor="start" x="152.44" y="-214.5" font-family="Helvetica,sans-Serif" font-size="10.00">+</text>
<text text-anchor="start" x="162.75" y="-214.5" font-family="Helvetica,sans-Serif" font-size="10.00">StreamHandler()</text>
<text text-anchor="start" x="152.44" y="-199.25" font-family="Helvetica,sans-Serif" font-size="10.00">+</text>
<text text-anchor="start" x="162.75" y="-199.25" font-family="Helvetica,sans-Serif" font-size="10.00">~StreamHandler()</text>
<text text-anchor="start" x="152.44" y="-184" font-family="Helvetica,sans-Serif" font-size="10.00">+</text>
<text text-anchor="start" x="162.75" y="-184" font-family="Helvetica,sans-Serif" font-size="10.00">operator=()</text>
<text text-anchor="start" x="152.44" y="-168.75" font-family="Helvetica,sans-Serif" font-size="10.00">+</text>
<text text-anchor="start" x="162.75" y="-168.75" font-family="Helvetica,sans-Serif" font-size="10.00">put()</text>
<text text-anchor="start" x="152.44" y="-153.5" font-family="Helvetica,sans-Serif" font-size="10.00">+</text>
<text text-anchor="start" x="162.75" y="-153.5" font-family="Helvetica,sans-Serif" font-size="10.00">put_indexed()</text>
<text text-anchor="start" x="152.44" y="-138.25" font-family="Helvetica,sans-Serif" font-size="10.00">+</text>
<text text-anchor="start" x="162.75" y="-138.25" font-family="Helvetica,sans-Serif" font-size="10.00">put_var()</text>
<text text-anchor="start" x="152.44" y="-123" font-family="Helvetica,sans-Serif" font-size="10.00">+</text>
<text text-anchor="start" x="162.75" y="-123" font-family="Helvetica,sans-Serif" font-size="10.00">operator&lt;&lt;()</text>
<text text-anchor="start" x="152.44" y="-107.75" font-family="Helvetica,sans-Serif" font-size="10.00">+</text>
<text text-anchor="start" x="162.75" y="-107.75" font-family="Helvetica,sans-Serif" font-size="10.00">getNullStream()</text>
<polygon fill="#666666" stroke="#666666" points="148.12,-287 148.12,-287 243.88,-287 243.88,-287 148.12,-287"/>
<polygon fill="#666666" stroke="#666666" points="148.12,-271.75 148.12,-271.75 243.88,-271.75 243.88,-271.75 148.12,-271.75"/>
<polygon fill="none" stroke="#666666" points="148.12,-102 148.12,-304.25 243.88,-304.25 243.88,-102 148.12,-102"/>
</a>
</g>
</g>
<!-- Node2&#45;&gt;Node1 -->
<g id="edge1_Node000001_Node000002" class="edge">
<title>Node2&#45;&gt;Node1</title>
<g id="a_edge1_Node000001_Node000002"><a xlink:title=" ">
<path fill="none" stroke="#63b8ff" d="M196,-90.58C196,-81.31 196,-72.54 196,-64.77"/>
<polygon fill="none" stroke="#63b8ff" points="192.5,-90.57 196,-100.57 199.5,-90.57 192.5,-90.57"/>
</a>
</g>
</g>
<!-- Node3 -->
<g id="Node000003" class="node">
<title>Node3</title>
<g id="a_Node000003"><a xlink:title=" ">
<polygon fill="white" stroke="none" points="194.75,-412.5 101.25,-412.5 101.25,-351.5 194.75,-351.5 194.75,-412.5"/>
<text text-anchor="start" x="105.25" y="-399" font-family="Helvetica,sans-Serif" font-size="10.00">std::shared_ptr&lt; std</text>
<text text-anchor="start" x="124" y="-387.75" font-family="Helvetica,sans-Serif" font-size="10.00">::ostream &gt;</text>
<text text-anchor="start" x="146.5" y="-372.5" font-family="Helvetica,sans-Serif" font-size="10.00"> </text>
<text text-anchor="start" x="111.56" y="-357.25" font-family="Helvetica,sans-Serif" font-size="10.00">+</text>
<text text-anchor="start" x="127.88" y="-357.25" font-family="Helvetica,sans-Serif" font-size="10.00">operator&#45;&gt;()</text>
<polygon fill="#666666" stroke="#666666" points="101.25,-384 101.25,-384 194.75,-384 194.75,-384 101.25,-384"/>
<polygon fill="#666666" stroke="#666666" points="101.25,-368.75 101.25,-368.75 194.75,-368.75 194.75,-368.75 101.25,-368.75"/>
<polygon fill="none" stroke="#666666" points="101.25,-351.5 101.25,-412.5 194.75,-412.5 194.75,-351.5 101.25,-351.5"/>
</a>
</g>
</g>
<!-- Node3&#45;&gt;Node2 -->
<g id="edge2_Node000002_Node000003" class="edge">
<title>Node3&#45;&gt;Node2</title>
<g id="a_edge2_Node000002_Node000003"><a xlink:title=" ">
<path fill="none" stroke="#63b8ff" d="M149.75,-351.79C150.68,-342.29 152.1,-331.75 154.25,-322.25 154.67,-320.39 155.11,-318.53 155.57,-316.65"/>
<polygon fill="none" stroke="#63b8ff" points="155.57,-316.66 153.22,-309.85 158.61,-305.06 160.96,-311.88 155.57,-316.66"/>
</a>
</g>
<text text-anchor="middle" x="189.12" y="-324" font-family="Helvetica,sans-Serif" font-size="10.00" fill="grey"> #output_stream</text>
</g>
<!-- Node4 -->
<g id="Node000004" class="node">
<title>Node4</title>
<g id="a_Node000004"><a xlink:title=" ">
<polygon fill="white" stroke="none" points="82.62,-515.12 21.38,-515.12 21.38,-465.38 82.62,-465.38 82.62,-515.12"/>
<text text-anchor="start" x="25.38" y="-501.62" font-family="Helvetica,sans-Serif" font-size="10.00">std::ostream</text>
<text text-anchor="start" x="50.5" y="-486.38" font-family="Helvetica,sans-Serif" font-size="10.00"> </text>
<text text-anchor="start" x="50.5" y="-471.12" font-family="Helvetica,sans-Serif" font-size="10.00"> </text>
<polygon fill="#666666" stroke="#666666" points="21.38,-497.88 21.38,-497.88 82.62,-497.88 82.62,-497.88 21.38,-497.88"/>
<polygon fill="#666666" stroke="#666666" points="21.38,-482.62 21.38,-482.62 82.62,-482.62 82.62,-482.62 21.38,-482.62"/>
<polygon fill="none" stroke="#666666" points="21.38,-465.38 21.38,-515.12 82.62,-515.12 82.62,-465.38 21.38,-465.38"/>
</a>
</g>
</g>
<!-- Node4&#45;&gt;Node3 -->
<g id="edge3_Node000003_Node000004" class="edge">
<title>Node4&#45;&gt;Node3</title>
<g id="a_edge3_Node000003_Node000004"><a xlink:title=" ">
<path fill="none" stroke="#63b8ff" d="M73.54,-465.41C85.15,-452.56 99.76,-436.39 112.96,-421.78"/>
<polygon fill="none" stroke="#63b8ff" points="112.74,-422.03 113.79,-414.89 120.78,-413.12 119.73,-420.26 112.74,-422.03"/>
</a>
</g>
<text text-anchor="middle" x="112.63" y="-432.25" font-family="Helvetica,sans-Serif" font-size="10.00" fill="grey"> +ptr</text>
</g>
<!-- Node5 -->
<g id="Node000005" class="node">
<title>Node5</title>
<g id="a_Node000005"><a xlink:title=" ">
<polygon fill="white" stroke="none" points="96.88,-629 7.12,-629 7.12,-568 96.88,-568 96.88,-629"/>
<text text-anchor="start" x="11.12" y="-615.5" font-family="Helvetica,sans-Serif" font-size="10.00">std::basic_ostream</text>
<text text-anchor="start" x="33.62" y="-604.25" font-family="Helvetica,sans-Serif" font-size="10.00">&lt; Char &gt;</text>
<text text-anchor="start" x="50.5" y="-589" font-family="Helvetica,sans-Serif" font-size="10.00"> </text>
<text text-anchor="start" x="50.5" y="-573.75" font-family="Helvetica,sans-Serif" font-size="10.00"> </text>
<polygon fill="#666666" stroke="#666666" points="7.12,-600.5 7.12,-600.5 96.88,-600.5 96.88,-600.5 7.12,-600.5"/>
<polygon fill="#666666" stroke="#666666" points="7.12,-585.25 7.12,-585.25 96.88,-585.25 96.88,-585.25 7.12,-585.25"/>
<polygon fill="none" stroke="#666666" points="7.12,-568 7.12,-629 96.88,-629 96.88,-568 7.12,-568"/>
</a>
</g>
</g>
<!-- Node5&#45;&gt;Node4 -->
<g id="edge4_Node000004_Node000005" class="edge">
<title>Node5&#45;&gt;Node4</title>
<g id="a_edge4_Node000004_Node000005"><a xlink:title=" ">
<path fill="none" stroke="#63b8ff" d="M52,-556.75C52,-542.67 52,-527.37 52,-515.1"/>
<polygon fill="none" stroke="#63b8ff" points="48.5,-556.67 52,-566.67 55.5,-556.67 48.5,-556.67"/>
</a>
</g>
</g>
<!-- Node6 -->
<g id="Node000006" class="node">
<title>Node6</title>
<g id="a_Node000006"><a xlink:title=" ">
<polygon fill="white" stroke="none" points="104,-715.75 0,-715.75 0,-666 104,-666 104,-715.75"/>
<text text-anchor="start" x="4" y="-702.25" font-family="Helvetica,sans-Serif" font-size="10.00">std::basic_ios&lt; Char &gt;</text>
<text text-anchor="start" x="50.5" y="-687" font-family="Helvetica,sans-Serif" font-size="10.00"> </text>
<text text-anchor="start" x="50.5" y="-671.75" font-family="Helvetica,sans-Serif" font-size="10.00"> </text>
<polygon fill="#666666" stroke="#666666" points="0,-698.5 0,-698.5 104,-698.5 104,-698.5 0,-698.5"/>
<polygon fill="#666666" stroke="#666666" points="0,-683.25 0,-683.25 104,-683.25 104,-683.25 0,-683.25"/>
<polygon fill="none" stroke="#666666" points="0,-666 0,-715.75 104,-715.75 104,-666 0,-666"/>
</a>
</g>
</g>
<!-- Node6&#45;&gt;Node5 -->
<g id="edge5_Node000005_Node000006" class="edge">
<title>Node6&#45;&gt;Node5</title>
<g id="a_edge5_Node000005_Node000006"><a xlink:title=" ">
<path fill="none" stroke="#63b8ff" d="M52,-654.87C52,-646.29 52,-637.19 52,-628.9"/>
<polygon fill="none" stroke="#63b8ff" points="48.5,-654.62 52,-664.62 55.5,-654.62 48.5,-654.62"/>
</a>
</g>
</g>
<!-- Node7 -->
<g id="Node000007" class="node">
<title>Node7</title>
<g id="a_Node000007"><a xlink:title=" ">
<polygon fill="white" stroke="none" points="84.5,-802.5 19.5,-802.5 19.5,-752.75 84.5,-752.75 84.5,-802.5"/>
<text text-anchor="start" x="23.5" y="-789" font-family="Helvetica,sans-Serif" font-size="10.00">std::ios_base</text>
<text text-anchor="start" x="50.5" y="-773.75" font-family="Helvetica,sans-Serif" font-size="10.00"> </text>
<text text-anchor="start" x="50.5" y="-758.5" font-family="Helvetica,sans-Serif" font-size="10.00"> </text>
<polygon fill="#666666" stroke="#666666" points="19.5,-785.25 19.5,-785.25 84.5,-785.25 84.5,-785.25 19.5,-785.25"/>
<polygon fill="#666666" stroke="#666666" points="19.5,-770 19.5,-770 84.5,-770 84.5,-770 19.5,-770"/>
<polygon fill="none" stroke="#666666" points="19.5,-752.75 19.5,-802.5 84.5,-802.5 84.5,-752.75 19.5,-752.75"/>
</a>
</g>
</g>
<!-- Node7&#45;&gt;Node6 -->
<g id="edge6_Node000006_Node000007" class="edge">
<title>Node7&#45;&gt;Node6</title>
<g id="a_edge6_Node000006_Node000007"><a xlink:title=" ">
<path fill="none" stroke="#63b8ff" d="M52,-741.54C52,-732.82 52,-723.68 52,-715.65"/>
<polygon fill="none" stroke="#63b8ff" points="48.5,-741.5 52,-751.5 55.5,-741.5 48.5,-741.5"/>
</a>
</g>
</g>
<!-- Node8 -->
<g id="Node000008" class="node">
<title>Node8</title>
<g id="a_Node000008"><a xlink:title=" ">
<polygon fill="white" stroke="none" points="195.12,-515.12 100.88,-515.12 100.88,-465.38 195.12,-465.38 195.12,-515.12"/>
<text text-anchor="start" x="104.88" y="-501.62" font-family="Helvetica,sans-Serif" font-size="10.00">std::shared_ptr&lt; T &gt;</text>
<text text-anchor="start" x="146.5" y="-486.38" font-family="Helvetica,sans-Serif" font-size="10.00"> </text>
<text text-anchor="start" x="111.38" y="-471.12" font-family="Helvetica,sans-Serif" font-size="10.00">+</text>
<text text-anchor="start" x="127.88" y="-471.12" font-family="Helvetica,sans-Serif" font-size="10.00">operator&#45;&gt;()</text>
<polygon fill="#666666" stroke="#666666" points="100.88,-497.88 100.88,-497.88 195.12,-497.88 195.12,-497.88 100.88,-497.88"/>
<polygon fill="#666666" stroke="#666666" points="100.88,-482.62 100.88,-482.62 195.12,-482.62 195.12,-482.62 100.88,-482.62"/>
<polygon fill="none" stroke="#666666" points="100.88,-465.38 100.88,-515.12 195.12,-515.12 195.12,-465.38 100.88,-465.38"/>
</a>
</g>
</g>
<!-- Node8&#45;&gt;Node3 -->
<g id="edge7_Node000003_Node000008" class="edge">
<title>Node8&#45;&gt;Node3</title>
<g id="a_edge7_Node000003_Node000008"><a xlink:title=" ">
<path fill="none" stroke="orange" d="M148,-454.1C148,-440.61 148,-425.36 148,-412.46"/>
<polygon fill="orange" stroke="orange" points="144.5,-453.89 148,-463.89 151.5,-453.89 144.5,-453.89"/>
</a>
</g>
<text text-anchor="middle" x="184" y="-432.25" font-family="Helvetica,sans-Serif" font-size="10.00" fill="grey"> &lt; std::ostream &gt;</text>
</g>
<!-- Node9 -->
<g id="Node000009" class="node">
<title>Node9</title>
<g id="a_Node000009"><a xlink:title=" ">
<polygon fill="white" stroke="none" points="155,-623.38 141,-623.38 141,-573.62 155,-573.62 155,-623.38"/>
<text text-anchor="start" x="145" y="-609.88" font-family="Helvetica,sans-Serif" font-size="10.00">T</text>
<text text-anchor="start" x="146.5" y="-594.62" font-family="Helvetica,sans-Serif" font-size="10.00"> </text>
<text text-anchor="start" x="146.5" y="-579.38" font-family="Helvetica,sans-Serif" font-size="10.00"> </text>
<polygon fill="#666666" stroke="#666666" points="141,-606.12 141,-606.12 155,-606.12 155,-606.12 141,-606.12"/>
<polygon fill="#666666" stroke="#666666" points="141,-590.88 141,-590.88 155,-590.88 155,-590.88 141,-590.88"/>
<polygon fill="none" stroke="#666666" points="141,-573.62 141,-623.38 155,-623.38 155,-573.62 141,-573.62"/>
</a>
</g>
</g>
<!-- Node9&#45;&gt;Node8 -->
<g id="edge8_Node000008_Node000009" class="edge">
<title>Node9&#45;&gt;Node8</title>
<g id="a_edge8_Node000008_Node000009"><a xlink:title=" ">
<path fill="none" stroke="#63b8ff" d="M148,-573.66C148,-560.12 148,-542.9 148,-527.7"/>
<polygon fill="none" stroke="#63b8ff" points="148,-527.92 144,-521.92 148,-515.92 152,-521.92 148,-527.92"/>
</a>
</g>
<text text-anchor="middle" x="157.75" y="-540.5" font-family="Helvetica,sans-Serif" font-size="10.00" fill="grey"> +ptr</text>
</g>
<!-- Node10 -->
<g id="Node000010" class="node">
<title>Node10</title>
<g id="a_Node000010"><a xlink:title=" ">
<polygon fill="white" stroke="none" points="273,-406.88 223,-406.88 223,-357.12 273,-357.12 273,-406.88"/>
<text text-anchor="start" x="227" y="-393.38" font-family="Helvetica,sans-Serif" font-size="10.00">std::string</text>
<text text-anchor="start" x="246.5" y="-378.12" font-family="Helvetica,sans-Serif" font-size="10.00"> </text>
<text text-anchor="start" x="246.5" y="-362.88" font-family="Helvetica,sans-Serif" font-size="10.00"> </text>
<polygon fill="#666666" stroke="#666666" points="223,-389.62 223,-389.62 273,-389.62 273,-389.62 223,-389.62"/>
<polygon fill="#666666" stroke="#666666" points="223,-374.38 223,-374.38 273,-374.38 273,-374.38 223,-374.38"/>
<polygon fill="none" stroke="#666666" points="223,-357.12 223,-406.88 273,-406.88 273,-357.12 223,-357.12"/>
</a>
</g>
</g>
<!-- Node10&#45;&gt;Node2 -->
<g id="edge9_Node000002_Node000010" class="edge">
<title>Node10&#45;&gt;Node2</title>
<g id="a_edge9_Node000002_Node000010"><a xlink:title=" ">
<path fill="none" stroke="#63b8ff" d="M240.99,-357.15C237.71,-345.99 233.54,-331.81 229.07,-316.6"/>
<polygon fill="none" stroke="#63b8ff" points="229.07,-316.61 223.54,-311.98 225.68,-305.09 231.21,-309.72 229.07,-316.61"/>
</a>
</g>
<text text-anchor="middle" x="244.26" y="-324" font-family="Helvetica,sans-Serif" font-size="10.00" fill="grey"> #sep</text>
</g>
<!-- Node11 -->
<g id="Node000011" class="node">
<title>Node11</title>
<g id="a_Node000011"><a xlink:title=" ">
<polygon fill="white" stroke="none" points="297.25,-520.75 212.75,-520.75 212.75,-459.75 297.25,-459.75 297.25,-520.75"/>
<text text-anchor="start" x="216.75" y="-507.25" font-family="Helvetica,sans-Serif" font-size="10.00">std::basic_string&lt;</text>
<text text-anchor="start" x="239.62" y="-496" font-family="Helvetica,sans-Serif" font-size="10.00"> Char &gt;</text>
<text text-anchor="start" x="253.5" y="-480.75" font-family="Helvetica,sans-Serif" font-size="10.00"> </text>
<text text-anchor="start" x="253.5" y="-465.5" font-family="Helvetica,sans-Serif" font-size="10.00"> </text>
<polygon fill="#666666" stroke="#666666" points="212.75,-492.25 212.75,-492.25 297.25,-492.25 297.25,-492.25 212.75,-492.25"/>
<polygon fill="#666666" stroke="#666666" points="212.75,-477 212.75,-477 297.25,-477 297.25,-477 212.75,-477"/>
<polygon fill="none" stroke="#666666" points="212.75,-459.75 212.75,-520.75 297.25,-520.75 297.25,-459.75 212.75,-459.75"/>
</a>
</g>
</g>
<!-- Node11&#45;&gt;Node10 -->
<g id="edge10_Node000010_Node000011" class="edge">
<title>Node11&#45;&gt;Node10</title>
<g id="a_edge10_Node000010_Node000011"><a xlink:title=" ">
<path fill="none" stroke="#63b8ff" d="M252.32,-448.5C251.39,-434.42 250.38,-419.12 249.57,-406.85"/>
<polygon fill="none" stroke="#63b8ff" points="248.82,-448.68 252.97,-458.43 255.8,-448.22 248.82,-448.68"/>
</a>
</g>
</g>
</g>
</svg>

<g id="navigator" transform="translate(0 0)" fill="#404254">
  <rect fill="#f2f5e9" fill-opacity="0.5" stroke="#606060" stroke-width=".5" x="0" y="0" width="60" height="60"/>
  <use id="zoomplus" xlink:href="#zoomPlus" x="17" y="9" onmousedown="handleZoom(evt,'in')"/>
  <use id="zoomminus" xlink:href="#zoomMin" x="42" y="9" onmousedown="handleZoom(evt,'out')"/>
  <use id="reset" xlink:href="#resetDef" x="30" y="36" onmousedown="handleReset()"/>
   <use id="arrowup" xlink:href="#arrowUp" x="0" y="0" onmousedown="handlePan(0,-1)"/>
  <use id="arrowright" xlink:href="#arrowRight" x="0" y="0" onmousedown="handlePan(1,0)"/>
  <use id="arrowdown" xlink:href="#arrowDown" x="0" y="0" onmousedown="handlePan(0,1)"/>
  <use id="arrowleft" xlink:href="#arrowLeft" x="0" y="0" onmousedown="handlePan(-1,0)"/>
</g>
<svg viewBox="0 0 15 15" width="100%" height="30px" preserveAspectRatio="xMaxYMin meet">
 <g id="arrow_out" transform="scale(0.3 0.3)">
  <a xlink:href="classutils_1_1_file_stream_handler__coll__graph_org.svg" target="_base">
   <rect id="button" ry="5" rx="5" y="6" x="6" height="38" width="38"
        fill="#f2f5e9" fill-opacity="0.5" stroke="#606060" stroke-width="1.0"/>
   <path id="arrow"
     d="M 11.500037,31.436501 C 11.940474,20.09759 22.043105,11.32322 32.158766,21.979434 L 37.068811,17.246167 C 37.068811,17.246167 37.088388,32 37.088388,32 L 22.160133,31.978069 C 22.160133,31.978069 26.997745,27.140456 26.997745,27.140456 C 18.528582,18.264221 13.291696,25.230495 11.500037,31.436501 z"
     style="fill:#404040;"/>
  </a>
 </g>
</svg>

<style type='text/css'>
<![CDATA[
[data-mouse-over-selected='false'] { opacity: 0.7; }
[data-mouse-over-selected='true']  { opacity: 1.0; }
]]>
</style>
<script type="application/ecmascript"><![CDATA[
document.addEventListener('DOMContentLoaded', (event) => {
  highlightEdges();
  highlightAdjacentNodes();
});
]]></script>
</svg>
