<?xml version="1.0" encoding="UTF-8" standalone="no"?>
<!DOCTYPE svg PUBLIC "-//W3C//DTD SVG 1.1//EN"
 "http://www.w3.org/Graphics/SVG/1.1/DTD/svg11.dtd">
<!-- Generated by graphviz version 2.44.0 ()
 -->
<!-- Title: HY_FlowPath Pages: 1 -->
<svg width="1149pt" height="1445pt"
 viewBox="0.00 0.00 1149.00 1445.00" xmlns="http://www.w3.org/2000/svg" xmlns:xlink="http://www.w3.org/1999/xlink">
<g id="graph0" class="graph" transform="scale(1 1) rotate(0) translate(4 1441)">
<title>HY_FlowPath</title>
<polygon fill="white" stroke="transparent" points="-4,4 -4,-1441 1145,-1441 1145,4 -4,4"/>
<!-- Node1 -->
<g id="node1" class="node">
<title>Node1</title>
<g id="a_node1"><a xlink:title=" ">
<polygon fill="#bfbfbf" stroke="black" points="73.5,-0.5 73.5,-68.5 170.5,-68.5 170.5,-0.5 73.5,-0.5"/>
<text text-anchor="middle" x="122" y="-56.5" font-family="Helvetica,sans-Serif" font-size="10.00">HY_FlowPath</text>
<polyline fill="none" stroke="black" points="73.5,-49.5 170.5,-49.5 "/>
<text text-anchor="middle" x="122" y="-37.5" font-family="Helvetica,sans-Serif" font-size="10.00"> </text>
<polyline fill="none" stroke="black" points="73.5,-30.5 170.5,-30.5 "/>
<text text-anchor="start" x="81.5" y="-18.5" font-family="Helvetica,sans-Serif" font-size="10.00">+ HY_FlowPath()</text>
<text text-anchor="start" x="81.5" y="-7.5" font-family="Helvetica,sans-Serif" font-size="10.00">+ ~HY_FlowPath()</text>
</a>
</g>
</g>
<!-- Node2 -->
<g id="node2" class="node">
<title>Node2</title>
<g id="a_node2"><a xlink:href="class_g_m___object.html" target="_top" xlink:title=" ">
<polygon fill="white" stroke="black" points="0,-134 0,-202 86,-202 86,-134 0,-134"/>
<text text-anchor="middle" x="43" y="-190" font-family="Helvetica,sans-Serif" font-size="10.00">GM_Object</text>
<polyline fill="none" stroke="black" points="0,-183 86,-183 "/>
<text text-anchor="middle" x="43" y="-171" font-family="Helvetica,sans-Serif" font-size="10.00"> </text>
<polyline fill="none" stroke="black" points="0,-164 86,-164 "/>
<text text-anchor="start" x="8" y="-152" font-family="Helvetica,sans-Serif" font-size="10.00">+ GM_Object()</text>
<text text-anchor="start" x="8" y="-141" font-family="Helvetica,sans-Serif" font-size="10.00">+ ~GM_Object()</text>
</a>
</g>
</g>
<!-- Node2&#45;&gt;Node1 -->
<g id="edge1" class="edge">
<title>Node2&#45;&gt;Node1</title>
<path fill="none" stroke="midnightblue" d="M68.16,-125.12C79.12,-106.88 91.78,-85.8 102.07,-68.67"/>
<polygon fill="none" stroke="midnightblue" points="65.08,-123.44 62.94,-133.82 71.09,-127.05 65.08,-123.44"/>
</g>
<!-- Node3 -->
<g id="node3" class="node">
<title>Node3</title>
<g id="a_node3"><a xlink:href="class_h_y___catchment_realization.html" target="_top" xlink:title=" ">
<polygon fill="white" stroke="black" points="187,-106.5 187,-229.5 337,-229.5 337,-106.5 187,-106.5"/>
<text text-anchor="middle" x="262" y="-217.5" font-family="Helvetica,sans-Serif" font-size="10.00">HY_CatchmentRealization</text>
<polyline fill="none" stroke="black" points="187,-210.5 337,-210.5 "/>
<text text-anchor="start" x="195" y="-198.5" font-family="Helvetica,sans-Serif" font-size="10.00"># id_number</text>
<polyline fill="none" stroke="black" points="187,-191.5 337,-191.5 "/>
<text text-anchor="start" x="195" y="-179.5" font-family="Helvetica,sans-Serif" font-size="10.00">+ HY_CatchmentRealization()</text>
<text text-anchor="start" x="195" y="-168.5" font-family="Helvetica,sans-Serif" font-size="10.00">+ HY_CatchmentRealization()</text>
<text text-anchor="start" x="195" y="-157.5" font-family="Helvetica,sans-Serif" font-size="10.00">+ HY_CatchmentRealization()</text>
<text text-anchor="start" x="195" y="-146.5" font-family="Helvetica,sans-Serif" font-size="10.00">+ ~HY_CatchmentRealization()</text>
<text text-anchor="start" x="195" y="-135.5" font-family="Helvetica,sans-Serif" font-size="10.00">+ get_response()</text>
<text text-anchor="start" x="195" y="-124.5" font-family="Helvetica,sans-Serif" font-size="10.00"># get_catchment_id()</text>
<text text-anchor="start" x="195" y="-113.5" font-family="Helvetica,sans-Serif" font-size="10.00"># set_catchment_id()</text>
</a>
</g>
</g>
<!-- Node3&#45;&gt;Node1 -->
<g id="edge2" class="edge">
<title>Node3&#45;&gt;Node1</title>
<path fill="none" stroke="midnightblue" d="M189.9,-99.28C178.59,-88.65 167.35,-78.1 157.37,-68.73"/>
<polygon fill="none" stroke="midnightblue" points="187.64,-101.96 197.33,-106.25 192.43,-96.86 187.64,-101.96"/>
</g>
<!-- Node4 -->
<g id="node4" class="node">
<title>Node4</title>
<g id="a_node4"><a xlink:title=" ">
<polygon fill="white" stroke="#bfbfbf" points="168.5,-829.5 168.5,-897.5 271.5,-897.5 271.5,-829.5 168.5,-829.5"/>
<text text-anchor="start" x="176.5" y="-885.5" font-family="Helvetica,sans-Serif" font-size="10.00">std::shared_ptr&lt; HY</text>
<text text-anchor="middle" x="220" y="-874.5" font-family="Helvetica,sans-Serif" font-size="10.00">_Catchment &gt;</text>
<polyline fill="none" stroke="#bfbfbf" points="168.5,-867.5 271.5,-867.5 "/>
<text text-anchor="start" x="176.5" y="-855.5" font-family="Helvetica,sans-Serif" font-size="10.00">+ ptr</text>
<polyline fill="none" stroke="#bfbfbf" points="168.5,-848.5 271.5,-848.5 "/>
<text text-anchor="start" x="176.5" y="-836.5" font-family="Helvetica,sans-Serif" font-size="10.00">+ operator&#45;&gt;()</text>
</a>
</g>
</g>
<!-- Node4&#45;&gt;Node3 -->
<g id="edge3" class="edge">
<title>Node4&#45;&gt;Node3</title>
<path fill="none" stroke="#404040" d="M222.03,-829.05C228.47,-722.6 248.62,-389.99 257.6,-241.66"/>
<polygon fill="none" stroke="#404040" points="257.6,-241.58 253.97,-235.35 258.33,-229.6 261.96,-235.83 257.6,-241.58"/>
<text text-anchor="middle" x="298" y="-565" font-family="Helvetica,sans-Serif" font-size="10.00"> #realized_catchment</text>
</g>
<!-- Node5 -->
<g id="node5" class="node">
<title>Node5</title>
<g id="a_node5"><a xlink:title=" ">
<polygon fill="white" stroke="#bfbfbf" points="207.5,-1192 207.5,-1249 310.5,-1249 310.5,-1192 207.5,-1192"/>
<text text-anchor="middle" x="259" y="-1237" font-family="Helvetica,sans-Serif" font-size="10.00">std::shared_ptr&lt; T &gt;</text>
<polyline fill="none" stroke="#bfbfbf" points="207.5,-1230 310.5,-1230 "/>
<text text-anchor="middle" x="259" y="-1218" font-family="Helvetica,sans-Serif" font-size="10.00"> </text>
<polyline fill="none" stroke="#bfbfbf" points="207.5,-1211 310.5,-1211 "/>
<text text-anchor="start" x="215.5" y="-1199" font-family="Helvetica,sans-Serif" font-size="10.00">+ operator&#45;&gt;()</text>
</a>
</g>
</g>
<!-- Node5&#45;&gt;Node4 -->
<g id="edge4" class="edge">
<title>Node5&#45;&gt;Node4</title>
<path fill="none" stroke="orange" d="M240.87,-1182.62C230.75,-1159.96 219.18,-1130 214,-1102 200.72,-1030.21 208.67,-944.16 214.85,-897.88"/>
<polygon fill="orange" stroke="orange" points="237.75,-1184.21 245.09,-1191.85 244.12,-1181.3 237.75,-1184.21"/>
<text text-anchor="middle" x="257" y="-1094" font-family="Helvetica,sans-Serif" font-size="10.00"> &lt; HY_Catchment &gt;</text>
</g>
<!-- Node15 -->
<g id="node15" class="node">
<title>Node15</title>
<g id="a_node15"><a xlink:title=" ">
<polygon fill="white" stroke="#bfbfbf" points="245.5,-960.5 245.5,-1028.5 352.5,-1028.5 352.5,-960.5 245.5,-960.5"/>
<text text-anchor="start" x="253.5" y="-1016.5" font-family="Helvetica,sans-Serif" font-size="10.00">std::shared_ptr&lt; time</text>
<text text-anchor="middle" x="299" y="-1005.5" font-family="Helvetica,sans-Serif" font-size="10.00">_type &gt;</text>
<polyline fill="none" stroke="#bfbfbf" points="245.5,-998.5 352.5,-998.5 "/>
<text text-anchor="start" x="253.5" y="-986.5" font-family="Helvetica,sans-Serif" font-size="10.00">+ ptr</text>
<polyline fill="none" stroke="#bfbfbf" points="245.5,-979.5 352.5,-979.5 "/>
<text text-anchor="start" x="253.5" y="-967.5" font-family="Helvetica,sans-Serif" font-size="10.00">+ operator&#45;&gt;()</text>
</a>
</g>
</g>
<!-- Node5&#45;&gt;Node15 -->
<g id="edge17" class="edge">
<title>Node5&#45;&gt;Node15</title>
<path fill="none" stroke="orange" d="M277.13,-1182.62C287.25,-1159.96 298.82,-1130 304,-1102 308.48,-1077.79 306.95,-1049.99 304.45,-1028.87"/>
<polygon fill="orange" stroke="orange" points="273.88,-1181.3 272.91,-1191.85 280.25,-1184.21 273.88,-1181.3"/>
<text text-anchor="middle" x="335.5" y="-1094" font-family="Helvetica,sans-Serif" font-size="10.00"> &lt; time_type &gt;</text>
</g>
<!-- Node18 -->
<g id="node18" class="node">
<title>Node18</title>
<g id="a_node18"><a xlink:title=" ">
<polygon fill="white" stroke="#bfbfbf" points="50,-248.5 50,-305.5 194,-305.5 194,-248.5 50,-248.5"/>
<text text-anchor="middle" x="122" y="-293.5" font-family="Helvetica,sans-Serif" font-size="10.00">std::shared_ptr&lt; linestring_t &gt;</text>
<polyline fill="none" stroke="#bfbfbf" points="50,-286.5 194,-286.5 "/>
<text text-anchor="start" x="58" y="-274.5" font-family="Helvetica,sans-Serif" font-size="10.00">+ ptr</text>
<polyline fill="none" stroke="#bfbfbf" points="50,-267.5 194,-267.5 "/>
<text text-anchor="start" x="58" y="-255.5" font-family="Helvetica,sans-Serif" font-size="10.00">+ operator&#45;&gt;()</text>
</a>
</g>
</g>
<!-- Node5&#45;&gt;Node18 -->
<g id="edge24" class="edge">
<title>Node5&#45;&gt;Node18</title>
<path fill="none" stroke="orange" d="M217.49,-1184.99C188.35,-1157.95 151.73,-1117.53 135,-1073 28.8,-790.33 94.6,-410.26 116,-305.64"/>
<polygon fill="orange" stroke="orange" points="215.35,-1187.78 225.1,-1191.92 220.06,-1182.6 215.35,-1187.78"/>
<text text-anchor="middle" x="168.5" y="-992" font-family="Helvetica,sans-Serif" font-size="10.00"> &lt; linestring_t &gt;</text>
</g>
<!-- Node6 -->
<g id="node6" class="node">
<title>Node6</title>
<g id="a_node6"><a xlink:title=" ">
<polygon fill="white" stroke="#bfbfbf" points="391.5,-1374 391.5,-1431 420.5,-1431 420.5,-1374 391.5,-1374"/>
<text text-anchor="middle" x="406" y="-1419" font-family="Helvetica,sans-Serif" font-size="10.00">T</text>
<polyline fill="none" stroke="#bfbfbf" points="391.5,-1412 420.5,-1412 "/>
<text text-anchor="middle" x="406" y="-1400" font-family="Helvetica,sans-Serif" font-size="10.00"> </text>
<polyline fill="none" stroke="#bfbfbf" points="391.5,-1393 420.5,-1393 "/>
<text text-anchor="middle" x="406" y="-1381" font-family="Helvetica,sans-Serif" font-size="10.00"> </text>
</a>
</g>
</g>
<!-- Node6&#45;&gt;Node5 -->
<g id="edge5" class="edge">
<title>Node6&#45;&gt;Node5</title>
<path fill="none" stroke="#404040" d="M391.37,-1383.58C367.77,-1354.69 320.8,-1297.18 289.64,-1259.02"/>
<polygon fill="none" stroke="#404040" points="289.28,-1258.58 282.39,-1256.46 281.69,-1249.29 288.59,-1251.4 289.28,-1258.58"/>
<text text-anchor="middle" x="372" y="-1342" font-family="Helvetica,sans-Serif" font-size="10.00"> +ptr</text>
</g>
<!-- Node11 -->
<g id="node11" class="node">
<title>Node11</title>
<g id="a_node11"><a xlink:title=" ">
<polygon fill="white" stroke="#bfbfbf" points="547,-1192 547,-1249 631,-1249 631,-1192 547,-1192"/>
<text text-anchor="middle" x="589" y="-1237" font-family="Helvetica,sans-Serif" font-size="10.00">std::vector&lt; T &gt;</text>
<polyline fill="none" stroke="#bfbfbf" points="547,-1230 631,-1230 "/>
<text text-anchor="middle" x="589" y="-1218" font-family="Helvetica,sans-Serif" font-size="10.00"> </text>
<polyline fill="none" stroke="#bfbfbf" points="547,-1211 631,-1211 "/>
<text text-anchor="middle" x="589" y="-1199" font-family="Helvetica,sans-Serif" font-size="10.00"> </text>
</a>
</g>
</g>
<!-- Node6&#45;&gt;Node11 -->
<g id="edge11" class="edge">
<title>Node6&#45;&gt;Node11</title>
<path fill="none" stroke="#404040" d="M420.66,-1389.75C439.41,-1374.52 472.59,-1346.84 499,-1321 519.22,-1301.21 540.52,-1277.8 557.32,-1258.66"/>
<polygon fill="none" stroke="#404040" points="557.54,-1258.41 558.46,-1251.26 565.42,-1249.36 564.49,-1256.51 557.54,-1258.41"/>
<text text-anchor="middle" x="503.5" y="-1342" font-family="Helvetica,sans-Serif" font-size="10.00"> +elements</text>
</g>
<!-- Node7 -->
<g id="node7" class="node">
<title>Node7</title>
<g id="a_node7"><a xlink:href="class_forcing.html" target="_top" xlink:title="Forcing class providing time&#45;series precipiation forcing data to the model.">
<polygon fill="white" stroke="black" points="568.5,-324.5 568.5,-810.5 705.5,-810.5 705.5,-324.5 568.5,-324.5"/>
<text text-anchor="middle" x="637" y="-798.5" font-family="Helvetica,sans-Serif" font-size="10.00">Forcing</text>
<polyline fill="none" stroke="black" points="568.5,-791.5 705.5,-791.5 "/>
<text text-anchor="start" x="576.5" y="-779.5" font-family="Helvetica,sans-Serif" font-size="10.00">&#45; is_aorc_data</text>
<text text-anchor="start" x="576.5" y="-768.5" font-family="Helvetica,sans-Serif" font-size="10.00">&#45; forcing_vector_index</text>
<text text-anchor="start" x="576.5" y="-757.5" font-family="Helvetica,sans-Serif" font-size="10.00">&#45; precipitation_rate</text>
<text text-anchor="start" x="576.5" y="-746.5" font-family="Helvetica,sans-Serif" font-size="10.00">_meters_per_second</text>
<text text-anchor="start" x="576.5" y="-735.5" font-family="Helvetica,sans-Serif" font-size="10.00">&#45; air_temperature_fahrenheit</text>
<text text-anchor="start" x="576.5" y="-724.5" font-family="Helvetica,sans-Serif" font-size="10.00">&#45; latitude</text>
<text text-anchor="start" x="576.5" y="-713.5" font-family="Helvetica,sans-Serif" font-size="10.00">&#45; longitude</text>
<text text-anchor="start" x="576.5" y="-702.5" font-family="Helvetica,sans-Serif" font-size="10.00">&#45; catchment_id</text>
<text text-anchor="start" x="576.5" y="-691.5" font-family="Helvetica,sans-Serif" font-size="10.00">&#45; day_of_year</text>
<text text-anchor="start" x="576.5" y="-680.5" font-family="Helvetica,sans-Serif" font-size="10.00">&#45; start_date_time_epoch</text>
<text text-anchor="start" x="576.5" y="-669.5" font-family="Helvetica,sans-Serif" font-size="10.00">&#45; end_date_time_epoch</text>
<text text-anchor="start" x="576.5" y="-658.5" font-family="Helvetica,sans-Serif" font-size="10.00">&#45; current_date_time_epoch</text>
<polyline fill="none" stroke="black" points="568.5,-651.5 705.5,-651.5 "/>
<text text-anchor="start" x="576.5" y="-639.5" font-family="Helvetica,sans-Serif" font-size="10.00">+ Forcing()</text>
<text text-anchor="start" x="576.5" y="-628.5" font-family="Helvetica,sans-Serif" font-size="10.00">+ Forcing()</text>
<text text-anchor="start" x="576.5" y="-617.5" font-family="Helvetica,sans-Serif" font-size="10.00">+ Forcing()</text>
<text text-anchor="start" x="576.5" y="-606.5" font-family="Helvetica,sans-Serif" font-size="10.00">+ get_aorc_for_index()</text>
<text text-anchor="start" x="576.5" y="-595.5" font-family="Helvetica,sans-Serif" font-size="10.00">+ get_available_forcing</text>
<text text-anchor="start" x="576.5" y="-584.5" font-family="Helvetica,sans-Serif" font-size="10.00">_outputs()</text>
<text text-anchor="start" x="576.5" y="-573.5" font-family="Helvetica,sans-Serif" font-size="10.00">+ get_converted_value</text>
<text text-anchor="start" x="576.5" y="-562.5" font-family="Helvetica,sans-Serif" font-size="10.00">_for_param_in_units()</text>
<text text-anchor="start" x="576.5" y="-551.5" font-family="Helvetica,sans-Serif" font-size="10.00">+ get_converted_value</text>
<text text-anchor="start" x="576.5" y="-540.5" font-family="Helvetica,sans-Serif" font-size="10.00">_for_param_in_units()</text>
<text text-anchor="start" x="576.5" y="-529.5" font-family="Helvetica,sans-Serif" font-size="10.00">+ get_forcing_output</text>
<text text-anchor="start" x="576.5" y="-518.5" font-family="Helvetica,sans-Serif" font-size="10.00">_time_begin()</text>
<text text-anchor="start" x="576.5" y="-507.5" font-family="Helvetica,sans-Serif" font-size="10.00">+ get_forcing_output</text>
<text text-anchor="start" x="576.5" y="-496.5" font-family="Helvetica,sans-Serif" font-size="10.00">_time_end()</text>
<text text-anchor="start" x="576.5" y="-485.5" font-family="Helvetica,sans-Serif" font-size="10.00">+ get_ts_index_for_time()</text>
<text text-anchor="start" x="576.5" y="-474.5" font-family="Helvetica,sans-Serif" font-size="10.00">+ get_value()</text>
<text text-anchor="start" x="576.5" y="-463.5" font-family="Helvetica,sans-Serif" font-size="10.00">+ get_value_for_param</text>
<text text-anchor="start" x="576.5" y="-452.5" font-family="Helvetica,sans-Serif" font-size="10.00">_name()</text>
<text text-anchor="start" x="576.5" y="-441.5" font-family="Helvetica,sans-Serif" font-size="10.00">+ get_value_for_param</text>
<text text-anchor="start" x="576.5" y="-430.5" font-family="Helvetica,sans-Serif" font-size="10.00">_name()</text>
<text text-anchor="start" x="576.5" y="-419.5" font-family="Helvetica,sans-Serif" font-size="10.00">+ check_forcing_vector</text>
<text text-anchor="start" x="576.5" y="-408.5" font-family="Helvetica,sans-Serif" font-size="10.00">_index_bounds()</text>
<text text-anchor="start" x="576.5" y="-397.5" font-family="Helvetica,sans-Serif" font-size="10.00">+ get_current_hourly</text>
<text text-anchor="start" x="576.5" y="-386.5" font-family="Helvetica,sans-Serif" font-size="10.00">_precipitation_meters</text>
<text text-anchor="start" x="576.5" y="-375.5" font-family="Helvetica,sans-Serif" font-size="10.00">_per_second()</text>
<text text-anchor="start" x="576.5" y="-364.5" font-family="Helvetica,sans-Serif" font-size="10.00">and 16 more...</text>
<text text-anchor="start" x="576.5" y="-353.5" font-family="Helvetica,sans-Serif" font-size="10.00">+ get_forcing_field_names()</text>
<text text-anchor="start" x="576.5" y="-342.5" font-family="Helvetica,sans-Serif" font-size="10.00">&#45; read_forcing()</text>
<text text-anchor="start" x="576.5" y="-331.5" font-family="Helvetica,sans-Serif" font-size="10.00">&#45; read_forcing_aorc()</text>
</a>
</g>
</g>
<!-- Node7&#45;&gt;Node3 -->
<g id="edge6" class="edge">
<title>Node7&#45;&gt;Node3</title>
<path fill="none" stroke="#404040" d="M568.22,-493.59C499.68,-420.94 395.19,-310.19 327.74,-238.69"/>
<polygon fill="none" stroke="#404040" points="327.53,-238.47 320.51,-236.85 319.3,-229.74 326.33,-231.36 327.53,-238.47"/>
<text text-anchor="middle" x="401.5" y="-274.5" font-family="Helvetica,sans-Serif" font-size="10.00"> #forcing</text>
</g>
<!-- Node8 -->
<g id="node8" class="node">
<title>Node8</title>
<g id="a_node8"><a xlink:href="classforcing_1_1_forcing_provider.html" target="_top" xlink:title="An abstraction interface for types that provides forcing data.">
<polygon fill="white" stroke="black" points="907,-916.5 907,-1072.5 1033,-1072.5 1033,-916.5 907,-916.5"/>
<text text-anchor="middle" x="970" y="-1060.5" font-family="Helvetica,sans-Serif" font-size="10.00">forcing::ForcingProvider</text>
<polyline fill="none" stroke="black" points="907,-1053.5 1033,-1053.5 "/>
<text text-anchor="middle" x="970" y="-1041.5" font-family="Helvetica,sans-Serif" font-size="10.00"> </text>
<polyline fill="none" stroke="black" points="907,-1034.5 1033,-1034.5 "/>
<text text-anchor="start" x="915" y="-1022.5" font-family="Helvetica,sans-Serif" font-size="10.00">+ get_available_forcing</text>
<text text-anchor="start" x="915" y="-1011.5" font-family="Helvetica,sans-Serif" font-size="10.00">_outputs()</text>
<text text-anchor="start" x="915" y="-1000.5" font-family="Helvetica,sans-Serif" font-size="10.00">+ get_forcing_output</text>
<text text-anchor="start" x="915" y="-989.5" font-family="Helvetica,sans-Serif" font-size="10.00">_time_begin()</text>
<text text-anchor="start" x="915" y="-978.5" font-family="Helvetica,sans-Serif" font-size="10.00">+ get_forcing_output</text>
<text text-anchor="start" x="915" y="-967.5" font-family="Helvetica,sans-Serif" font-size="10.00">_time_end()</text>
<text text-anchor="start" x="915" y="-956.5" font-family="Helvetica,sans-Serif" font-size="10.00">+ get_ts_index_for_time()</text>
<text text-anchor="start" x="915" y="-945.5" font-family="Helvetica,sans-Serif" font-size="10.00">+ get_value()</text>
<text text-anchor="start" x="915" y="-934.5" font-family="Helvetica,sans-Serif" font-size="10.00">+ is_property_sum_over</text>
<text text-anchor="start" x="915" y="-923.5" font-family="Helvetica,sans-Serif" font-size="10.00">_time_step()</text>
</a>
</g>
</g>
<!-- Node8&#45;&gt;Node7 -->
<g id="edge7" class="edge">
<title>Node8&#45;&gt;Node7</title>
<path fill="none" stroke="midnightblue" d="M941.04,-906.68C930.41,-880.59 916.99,-852.65 901,-829 846.35,-748.19 763.93,-671.8 705.74,-622.89"/>
<polygon fill="none" stroke="midnightblue" points="937.88,-908.2 944.83,-916.19 944.38,-905.61 937.88,-908.2"/>
</g>
<!-- Node9 -->
<g id="node9" class="node">
<title>Node9</title>
<g id="a_node9"><a xlink:title=" ">
<polygon fill="white" stroke="#bfbfbf" points="371,-966 371,-1023 501,-1023 501,-966 371,-966"/>
<text text-anchor="middle" x="436" y="-1011" font-family="Helvetica,sans-Serif" font-size="10.00">std::vector&lt; AORC_data &gt;</text>
<polyline fill="none" stroke="#bfbfbf" points="371,-1004 501,-1004 "/>
<text text-anchor="middle" x="436" y="-992" font-family="Helvetica,sans-Serif" font-size="10.00"> </text>
<polyline fill="none" stroke="#bfbfbf" points="371,-985 501,-985 "/>
<text text-anchor="middle" x="436" y="-973" font-family="Helvetica,sans-Serif" font-size="10.00"> </text>
</a>
</g>
</g>
<!-- Node9&#45;&gt;Node7 -->
<g id="edge8" class="edge">
<title>Node9&#45;&gt;Node7</title>
<path fill="none" stroke="#404040" d="M443.75,-965.86C453.42,-932.7 471.24,-875.73 492,-829 512.39,-783.1 538.15,-734.58 562.28,-692.01"/>
<polygon fill="none" stroke="#404040" points="562.44,-691.74 561.93,-684.55 568.38,-681.32 568.88,-688.51 562.44,-691.74"/>
<text text-anchor="middle" x="525" y="-861" font-family="Helvetica,sans-Serif" font-size="10.00"> &#45;AORC_vector</text>
</g>
<!-- Node10 -->
<g id="node10" class="node">
<title>Node10</title>
<g id="a_node10"><a xlink:href="struct_a_o_r_c__data.html" target="_top" xlink:title=" ">
<polygon fill="white" stroke="black" points="356.5,-1120.5 356.5,-1320.5 489.5,-1320.5 489.5,-1120.5 356.5,-1120.5"/>
<text text-anchor="middle" x="423" y="-1308.5" font-family="Helvetica,sans-Serif" font-size="10.00">AORC_data</text>
<polyline fill="none" stroke="black" points="356.5,-1301.5 489.5,-1301.5 "/>
<text text-anchor="start" x="364.5" y="-1289.5" font-family="Helvetica,sans-Serif" font-size="10.00">+ APCP_surface_kg_per</text>
<text text-anchor="start" x="364.5" y="-1278.5" font-family="Helvetica,sans-Serif" font-size="10.00">_meters_squared</text>
<text text-anchor="start" x="364.5" y="-1267.5" font-family="Helvetica,sans-Serif" font-size="10.00">+ DLWRF_surface_W_per</text>
<text text-anchor="start" x="364.5" y="-1256.5" font-family="Helvetica,sans-Serif" font-size="10.00">_meters_squared</text>
<text text-anchor="start" x="364.5" y="-1245.5" font-family="Helvetica,sans-Serif" font-size="10.00">+ DSWRF_surface_W_per</text>
<text text-anchor="start" x="364.5" y="-1234.5" font-family="Helvetica,sans-Serif" font-size="10.00">_meters_squared</text>
<text text-anchor="start" x="364.5" y="-1223.5" font-family="Helvetica,sans-Serif" font-size="10.00">+ PRES_surface_Pa</text>
<text text-anchor="start" x="364.5" y="-1212.5" font-family="Helvetica,sans-Serif" font-size="10.00">+ SPFH_2maboveground</text>
<text text-anchor="start" x="364.5" y="-1201.5" font-family="Helvetica,sans-Serif" font-size="10.00">_kg_per_kg</text>
<text text-anchor="start" x="364.5" y="-1190.5" font-family="Helvetica,sans-Serif" font-size="10.00">+ TMP_2maboveground_K</text>
<text text-anchor="start" x="364.5" y="-1179.5" font-family="Helvetica,sans-Serif" font-size="10.00">+ UGRD_10maboveground</text>
<text text-anchor="start" x="364.5" y="-1168.5" font-family="Helvetica,sans-Serif" font-size="10.00">_meters_per_second</text>
<text text-anchor="start" x="364.5" y="-1157.5" font-family="Helvetica,sans-Serif" font-size="10.00">+ VGRD_10maboveground</text>
<text text-anchor="start" x="364.5" y="-1146.5" font-family="Helvetica,sans-Serif" font-size="10.00">_meters_per_second</text>
<polyline fill="none" stroke="black" points="356.5,-1139.5 489.5,-1139.5 "/>
<text text-anchor="middle" x="423" y="-1127.5" font-family="Helvetica,sans-Serif" font-size="10.00"> </text>
</a>
</g>
</g>
<!-- Node10&#45;&gt;Node9 -->
<g id="edge9" class="edge">
<title>Node10&#45;&gt;Node9</title>
<path fill="none" stroke="#404040" d="M422.61,-1120.19C422.92,-1110.32 423.37,-1100.46 424,-1091 425.21,-1072.8 427.57,-1052.75 429.88,-1035.75"/>
<polygon fill="none" stroke="#404040" points="429.94,-1035.3 426.82,-1028.8 431.62,-1023.41 434.74,-1029.91 429.94,-1035.3"/>
<text text-anchor="middle" x="448.5" y="-1094" font-family="Helvetica,sans-Serif" font-size="10.00"> +elements</text>
</g>
<!-- Node11&#45;&gt;Node9 -->
<g id="edge10" class="edge">
<title>Node11&#45;&gt;Node9</title>
<path fill="none" stroke="orange" d="M562.68,-1183.59C545.91,-1160.48 523.85,-1129.69 505,-1102 487.02,-1075.59 467.27,-1044.93 453.53,-1023.31"/>
<polygon fill="orange" stroke="orange" points="559.9,-1185.71 568.61,-1191.74 565.56,-1181.59 559.9,-1185.71"/>
<text text-anchor="middle" x="540.5" y="-1094" font-family="Helvetica,sans-Serif" font-size="10.00"> &lt; AORC_data &gt;</text>
</g>
<!-- Node12 -->
<g id="node12" class="node">
<title>Node12</title>
<g id="a_node12"><a xlink:title=" ">
<polygon fill="white" stroke="#bfbfbf" points="783.5,-966 783.5,-1023 888.5,-1023 888.5,-966 783.5,-966"/>
<text text-anchor="middle" x="836" y="-1011" font-family="Helvetica,sans-Serif" font-size="10.00">std::vector&lt; time_t &gt;</text>
<polyline fill="none" stroke="#bfbfbf" points="783.5,-1004 888.5,-1004 "/>
<text text-anchor="start" x="791.5" y="-992" font-family="Helvetica,sans-Serif" font-size="10.00">+ elements</text>
<polyline fill="none" stroke="#bfbfbf" points="783.5,-985 888.5,-985 "/>
<text text-anchor="middle" x="836" y="-973" font-family="Helvetica,sans-Serif" font-size="10.00"> </text>
</a>
</g>
</g>
<!-- Node11&#45;&gt;Node12 -->
<g id="edge13" class="edge">
<title>Node11&#45;&gt;Node12</title>
<path fill="none" stroke="orange" d="M637.56,-1185.75C676.38,-1157.68 731.21,-1115.58 774,-1073 789.39,-1057.69 804.65,-1038.67 816.18,-1023.31"/>
<polygon fill="orange" stroke="orange" points="635.11,-1183.19 629.03,-1191.87 639.2,-1188.88 635.11,-1183.19"/>
<text text-anchor="middle" x="773" y="-1094" font-family="Helvetica,sans-Serif" font-size="10.00"> &lt; time_t &gt;</text>
</g>
<!-- Node16 -->
<g id="node16" class="node">
<title>Node16</title>
<g id="a_node16"><a xlink:title=" ">
<polygon fill="white" stroke="#bfbfbf" points="645,-966 645,-1023 765,-1023 765,-966 645,-966"/>
<text text-anchor="middle" x="705" y="-1011" font-family="Helvetica,sans-Serif" font-size="10.00">std::vector&lt; std::string &gt;</text>
<polyline fill="none" stroke="#bfbfbf" points="645,-1004 765,-1004 "/>
<text text-anchor="middle" x="705" y="-992" font-family="Helvetica,sans-Serif" font-size="10.00"> </text>
<polyline fill="none" stroke="#bfbfbf" points="645,-985 765,-985 "/>
<text text-anchor="middle" x="705" y="-973" font-family="Helvetica,sans-Serif" font-size="10.00"> </text>
</a>
</g>
</g>
<!-- Node11&#45;&gt;Node16 -->
<g id="edge20" class="edge">
<title>Node11&#45;&gt;Node16</title>
<path fill="none" stroke="orange" d="M608.17,-1182.49C631.39,-1137.65 669.96,-1063.16 690.73,-1023.06"/>
<polygon fill="orange" stroke="orange" points="604.95,-1181.09 603.46,-1191.58 611.16,-1184.31 604.95,-1181.09"/>
<text text-anchor="middle" x="683.5" y="-1094" font-family="Helvetica,sans-Serif" font-size="10.00"> &lt; std::string &gt;</text>
</g>
<!-- Node17 -->
<g id="node17" class="node">
<title>Node17</title>
<g id="a_node17"><a xlink:title=" ">
<polygon fill="white" stroke="#bfbfbf" points="519.5,-966 519.5,-1023 626.5,-1023 626.5,-966 519.5,-966"/>
<text text-anchor="middle" x="573" y="-1011" font-family="Helvetica,sans-Serif" font-size="10.00">std::vector&lt; double &gt;</text>
<polyline fill="none" stroke="#bfbfbf" points="519.5,-1004 626.5,-1004 "/>
<text text-anchor="start" x="527.5" y="-992" font-family="Helvetica,sans-Serif" font-size="10.00">+ elements</text>
<polyline fill="none" stroke="#bfbfbf" points="519.5,-985 626.5,-985 "/>
<text text-anchor="middle" x="573" y="-973" font-family="Helvetica,sans-Serif" font-size="10.00"> </text>
</a>
</g>
</g>
<!-- Node11&#45;&gt;Node17 -->
<g id="edge22" class="edge">
<title>Node11&#45;&gt;Node17</title>
<path fill="none" stroke="orange" d="M586.28,-1181.36C583.06,-1136.41 577.81,-1062.82 574.97,-1023.06"/>
<polygon fill="orange" stroke="orange" points="582.8,-1181.86 587.01,-1191.58 589.78,-1181.36 582.8,-1181.86"/>
<text text-anchor="middle" x="604" y="-1094" font-family="Helvetica,sans-Serif" font-size="10.00"> &lt; double &gt;</text>
</g>
<!-- Node12&#45;&gt;Node7 -->
<g id="edge12" class="edge">
<title>Node12&#45;&gt;Node7</title>
<path fill="none" stroke="#404040" d="M829.36,-965.78C820.97,-932.54 805.14,-875.51 785,-829 764.33,-781.27 737.22,-731.07 711.86,-687.63"/>
<polygon fill="none" stroke="#404040" points="711.71,-687.37 705.22,-684.22 705.63,-677.02 712.12,-680.17 711.71,-687.37"/>
<text text-anchor="middle" x="853" y="-861" font-family="Helvetica,sans-Serif" font-size="10.00"> &#45;time_epoch_vector</text>
</g>
<!-- Node13 -->
<g id="node13" class="node">
<title>Node13</title>
<g id="a_node13"><a xlink:title=" ">
<polygon fill="white" stroke="#bfbfbf" points="973.5,-1192 973.5,-1249 1032.5,-1249 1032.5,-1192 973.5,-1192"/>
<text text-anchor="middle" x="1003" y="-1237" font-family="Helvetica,sans-Serif" font-size="10.00">std::string</text>
<polyline fill="none" stroke="#bfbfbf" points="973.5,-1230 1032.5,-1230 "/>
<text text-anchor="middle" x="1003" y="-1218" font-family="Helvetica,sans-Serif" font-size="10.00"> </text>
<polyline fill="none" stroke="#bfbfbf" points="973.5,-1211 1032.5,-1211 "/>
<text text-anchor="middle" x="1003" y="-1199" font-family="Helvetica,sans-Serif" font-size="10.00"> </text>
</a>
</g>
</g>
<!-- Node13&#45;&gt;Node7 -->
<g id="edge14" class="edge">
<title>Node13&#45;&gt;Node7</title>
<path fill="none" stroke="#404040" d="M1016.14,-1191.62C1040.22,-1136.3 1085.15,-1009.88 1042,-916 975.15,-770.56 814.06,-663.15 716.39,-608.69"/>
<polygon fill="none" stroke="#404040" points="716.19,-608.58 709,-609.19 705.68,-602.79 712.86,-602.18 716.19,-608.58"/>
<text text-anchor="middle" x="1100" y="-992" font-family="Helvetica,sans-Serif" font-size="10.00"> &#45;forcing_file_name</text>
</g>
<!-- Node13&#45;&gt;Node16 -->
<g id="edge19" class="edge">
<title>Node13&#45;&gt;Node16</title>
<path fill="none" stroke="#404040" d="M973.31,-1201.04C915.62,-1165.07 792.49,-1087.84 775,-1073 760.87,-1061.01 746.87,-1046.24 735.14,-1032.83"/>
<polygon fill="none" stroke="#404040" points="734.84,-1032.47 727.9,-1030.51 727.04,-1023.36 733.98,-1025.31 734.84,-1032.47"/>
<text text-anchor="middle" x="836.5" y="-1094" font-family="Helvetica,sans-Serif" font-size="10.00"> +elements</text>
</g>
<!-- Node14 -->
<g id="node14" class="node">
<title>Node14</title>
<g id="a_node14"><a xlink:title=" ">
<polygon fill="white" stroke="#bfbfbf" points="956.5,-1368.5 956.5,-1436.5 1049.5,-1436.5 1049.5,-1368.5 956.5,-1368.5"/>
<text text-anchor="start" x="964.5" y="-1424.5" font-family="Helvetica,sans-Serif" font-size="10.00">std::basic_string&lt;</text>
<text text-anchor="middle" x="1003" y="-1413.5" font-family="Helvetica,sans-Serif" font-size="10.00"> Char &gt;</text>
<polyline fill="none" stroke="#bfbfbf" points="956.5,-1406.5 1049.5,-1406.5 "/>
<text text-anchor="middle" x="1003" y="-1394.5" font-family="Helvetica,sans-Serif" font-size="10.00"> </text>
<polyline fill="none" stroke="#bfbfbf" points="956.5,-1387.5 1049.5,-1387.5 "/>
<text text-anchor="middle" x="1003" y="-1375.5" font-family="Helvetica,sans-Serif" font-size="10.00"> </text>
</a>
</g>
</g>
<!-- Node14&#45;&gt;Node13 -->
<g id="edge15" class="edge">
<title>Node14&#45;&gt;Node13</title>
<path fill="none" stroke="midnightblue" d="M1003,-1358.38C1003,-1324.41 1003,-1278.1 1003,-1249"/>
<polygon fill="none" stroke="midnightblue" points="999.5,-1358.49 1003,-1368.49 1006.5,-1358.49 999.5,-1358.49"/>
</g>
<!-- Node15&#45;&gt;Node7 -->
<g id="edge16" class="edge">
<title>Node15&#45;&gt;Node7</title>
<path fill="none" stroke="#404040" d="M314.57,-960.22C331.29,-925.92 359.72,-871.6 391,-829 441.46,-760.27 508.41,-690.46 559.73,-640.43"/>
<polygon fill="none" stroke="#404040" points="559.85,-640.3 561.38,-633.26 568.47,-631.95 566.95,-639 559.85,-640.3"/>
<text text-anchor="middle" x="426.5" y="-866.5" font-family="Helvetica,sans-Serif" font-size="10.00"> &#45;end_date_time</text>
<text text-anchor="middle" x="426.5" y="-855.5" font-family="Helvetica,sans-Serif" font-size="10.00">&#45;start_date_time</text>
</g>
<!-- Node16&#45;&gt;Node7 -->
<g id="edge18" class="edge">
<title>Node16&#45;&gt;Node7</title>
<path fill="none" stroke="#404040" d="M703.15,-965.75C700.77,-932.96 696.08,-876.83 689,-829 688.69,-826.92 688.38,-824.84 688.06,-822.74"/>
<polygon fill="none" stroke="#404040" points="688.03,-822.53 683.15,-817.22 686.18,-810.67 691.06,-815.99 688.03,-822.53"/>
<text text-anchor="middle" x="739" y="-861" font-family="Helvetica,sans-Serif" font-size="10.00"> &#45;available_forcings</text>
</g>
<!-- Node17&#45;&gt;Node7 -->
<g id="edge21" class="edge">
<title>Node17&#45;&gt;Node7</title>
<path fill="none" stroke="#404040" d="M570.08,-965.96C568.21,-946.9 565.96,-920.94 565,-898 563.72,-867.36 560.88,-859.39 565,-829 565.47,-825.51 565.98,-822.01 566.52,-818.48"/>
<polygon fill="none" stroke="#404040" points="566.55,-818.3 563.56,-811.74 568.47,-806.46 571.46,-813.02 566.55,-818.3"/>
<text text-anchor="start" x="565" y="-866.5" font-family="Helvetica,sans-Serif" font-size="10.00"> &#45;precipitation_rate</text>
<text text-anchor="middle" x="627" y="-855.5" font-family="Helvetica,sans-Serif" font-size="10.00">_meters_per_second_vector</text>
</g>
<!-- Node18&#45;&gt;Node1 -->
<g id="edge23" class="edge">
<title>Node18&#45;&gt;Node1</title>
<path fill="none" stroke="#404040" d="M122,-248.41C122,-207.44 122,-130.04 122,-80.71"/>
<polygon fill="none" stroke="#404040" points="122,-80.51 118,-74.51 122,-68.51 126,-74.51 122,-80.51"/>
<text text-anchor="middle" x="145.5" y="-165.5" font-family="Helvetica,sans-Serif" font-size="10.00"> &#45;flow_path</text>
</g>
</g>
</svg>
