<?xml version="1.0" encoding="UTF-8" standalone="no"?>
<!DOCTYPE svg PUBLIC "-//W3C//DTD SVG 1.1//EN"
 "http://www.w3.org/Graphics/SVG/1.1/DTD/svg11.dtd">
<!-- Generated by graphviz version 2.49.3 (20211027.1534)
 -->
<!-- Title: HY_Catchment Pages: 1 -->
<svg width="525pt" height="447pt"
 viewBox="0.00 0.00 525.00 447.00" xmlns="http://www.w3.org/2000/svg" xmlns:xlink="http://www.w3.org/1999/xlink">
<g id="graph0" class="graph" transform="scale(1 1) rotate(0) translate(4 443)">
<title>HY_Catchment</title>
<polygon fill="white" stroke="transparent" points="-4,4 -4,-443 521,-443 521,4 -4,4"/>
<!-- Node1 -->
<g id="node1" class="node">
<title>Node1</title>
<g id="a_node1"><a xlink:title=" ">
<polygon fill="#bfbfbf" stroke="black" points="142,-0.5 142,-90.5 264,-90.5 264,-0.5 142,-0.5"/>
<text text-anchor="middle" x="203" y="-78.5" font-family="Helvetica,sans-Serif" font-size="10.00">HY_Catchment</text>
<polyline fill="none" stroke="black" points="142,-71.5 264,-71.5 "/>
<text text-anchor="start" x="150" y="-59.5" font-family="Helvetica,sans-Serif" font-size="10.00">+ realization</text>
<polyline fill="none" stroke="black" points="142,-52.5 264,-52.5 "/>
<text text-anchor="start" x="150" y="-40.5" font-family="Helvetica,sans-Serif" font-size="10.00">+ HY_Catchment()</text>
<text text-anchor="start" x="150" y="-29.5" font-family="Helvetica,sans-Serif" font-size="10.00">+ HY_Catchment()</text>
<text text-anchor="start" x="150" y="-18.5" font-family="Helvetica,sans-Serif" font-size="10.00">+ ~HY_Catchment()</text>
<text text-anchor="start" x="150" y="-7.5" font-family="Helvetica,sans-Serif" font-size="10.00">+ get_outflow_nexuses()</text>
</a>
</g>
</g>
<!-- Node2 -->
<g id="node2" class="node">
<title>Node2</title>
<g id="a_node2"><a xlink:href="class_h_y___hydro_feature.html" target="_top" xlink:title=" ">
<polygon fill="white" stroke="black" points="0,-149.5 0,-217.5 114,-217.5 114,-149.5 0,-149.5"/>
<text text-anchor="middle" x="57" y="-205.5" font-family="Helvetica,sans-Serif" font-size="10.00">HY_HydroFeature</text>
<polyline fill="none" stroke="black" points="0,-198.5 114,-198.5 "/>
<text text-anchor="middle" x="57" y="-186.5" font-family="Helvetica,sans-Serif" font-size="10.00"> </text>
<polyline fill="none" stroke="black" points="0,-179.5 114,-179.5 "/>
<text text-anchor="start" x="8" y="-167.5" font-family="Helvetica,sans-Serif" font-size="10.00">+ HY_HydroFeature()</text>
<text text-anchor="start" x="8" y="-156.5" font-family="Helvetica,sans-Serif" font-size="10.00">+ ~HY_HydroFeature()</text>
</a>
</g>
</g>
<!-- Node2&#45;&gt;Node1 -->
<g id="edge1" class="edge">
<title>Node2&#45;&gt;Node1</title>
<path fill="none" stroke="midnightblue" d="M100.47,-142C117.81,-125.86 137.81,-107.22 155.52,-90.73"/>
<polygon fill="none" stroke="midnightblue" points="97.65,-139.85 92.72,-149.23 102.42,-144.98 97.65,-139.85"/>
</g>
<!-- Node3 -->
<g id="node3" class="node">
<title>Node3</title>
<g id="a_node3"><a xlink:title=" ">
<polygon fill="white" stroke="#bfbfbf" points="200.5,-265.5 200.5,-322.5 259.5,-322.5 259.5,-265.5 200.5,-265.5"/>
<text text-anchor="middle" x="230" y="-310.5" font-family="Helvetica,sans-Serif" font-size="10.00">std::string</text>
<polyline fill="none" stroke="#bfbfbf" points="200.5,-303.5 259.5,-303.5 "/>
<text text-anchor="middle" x="230" y="-291.5" font-family="Helvetica,sans-Serif" font-size="10.00"> </text>
<polyline fill="none" stroke="#bfbfbf" points="200.5,-284.5 259.5,-284.5 "/>
<text text-anchor="middle" x="230" y="-272.5" font-family="Helvetica,sans-Serif" font-size="10.00"> </text>
</a>
</g>
</g>
<!-- Node3&#45;&gt;Node1 -->
<g id="edge2" class="edge">
<title>Node3&#45;&gt;Node1</title>
<path fill="none" stroke="#404040" d="M200.18,-270.45C185.04,-257.08 168.16,-238.71 160,-218 145.18,-180.41 156.97,-136.14 171.92,-101.99"/>
<polygon fill="none" stroke="#404040" points="172.05,-101.72 170.93,-94.6 177.08,-90.83 178.19,-97.95 172.05,-101.72"/>
<text text-anchor="middle" x="209.5" y="-203" font-family="Helvetica,sans-Serif" font-size="10.00"> &#45;conjoint_catchment</text>
<text text-anchor="middle" x="209.5" y="-192" font-family="Helvetica,sans-Serif" font-size="10.00">&#45;containing_catchment</text>
<text text-anchor="middle" x="209.5" y="-181" font-family="Helvetica,sans-Serif" font-size="10.00">&#45;id</text>
<text text-anchor="middle" x="209.5" y="-170" font-family="Helvetica,sans-Serif" font-size="10.00">&#45;lower_catchment</text>
<text text-anchor="middle" x="209.5" y="-159" font-family="Helvetica,sans-Serif" font-size="10.00">&#45;upper_catchment</text>
</g>
<!-- Node5 -->
<g id="node5" class="node">
<title>Node5</title>
<g id="a_node5"><a xlink:title=" ">
<polygon fill="white" stroke="#bfbfbf" points="411,-155 411,-212 517,-212 517,-155 411,-155"/>
<text text-anchor="middle" x="464" y="-200" font-family="Helvetica,sans-Serif" font-size="10.00">std::vector&lt; Nexus &gt;</text>
<polyline fill="none" stroke="#bfbfbf" points="411,-193 517,-193 "/>
<text text-anchor="middle" x="464" y="-181" font-family="Helvetica,sans-Serif" font-size="10.00"> </text>
<polyline fill="none" stroke="#bfbfbf" points="411,-174 517,-174 "/>
<text text-anchor="middle" x="464" y="-162" font-family="Helvetica,sans-Serif" font-size="10.00"> </text>
</a>
</g>
</g>
<!-- Node3&#45;&gt;Node5 -->
<g id="edge5" class="edge">
<title>Node3&#45;&gt;Node5</title>
<path fill="none" stroke="#404040" d="M259.68,-267.22C274.01,-256.04 291.98,-243.75 310,-236 348.27,-219.54 362.78,-232.06 402,-218 403.03,-217.63 404.07,-217.24 405.11,-216.84"/>
<polygon fill="none" stroke="#404040" points="405.21,-216.8 409.17,-210.78 416.25,-212.11 412.29,-218.14 405.21,-216.8"/>
<text text-anchor="middle" x="334.5" y="-239" font-family="Helvetica,sans-Serif" font-size="10.00"> +elements</text>
</g>
<!-- Node8 -->
<g id="node8" class="node">
<title>Node8</title>
<g id="a_node8"><a xlink:title=" ">
<polygon fill="white" stroke="#bfbfbf" points="267.5,-155 267.5,-212 392.5,-212 392.5,-155 267.5,-155"/>
<text text-anchor="middle" x="330" y="-200" font-family="Helvetica,sans-Serif" font-size="10.00">std::vector&lt; Catchment &gt;</text>
<polyline fill="none" stroke="#bfbfbf" points="267.5,-193 392.5,-193 "/>
<text text-anchor="middle" x="330" y="-181" font-family="Helvetica,sans-Serif" font-size="10.00"> </text>
<polyline fill="none" stroke="#bfbfbf" points="267.5,-174 392.5,-174 "/>
<text text-anchor="middle" x="330" y="-162" font-family="Helvetica,sans-Serif" font-size="10.00"> </text>
</a>
</g>
</g>
<!-- Node3&#45;&gt;Node8 -->
<g id="edge9" class="edge">
<title>Node3&#45;&gt;Node8</title>
<path fill="none" stroke="#404040" d="M224.88,-265.25C224.45,-255.38 225.69,-244.58 231,-236 234.73,-229.98 244.4,-223.2 256.31,-216.58"/>
<polygon fill="none" stroke="#404040" points="256.64,-216.41 260.09,-210.08 267.26,-210.84 263.81,-217.17 256.64,-216.41"/>
<text text-anchor="middle" x="255.5" y="-239" font-family="Helvetica,sans-Serif" font-size="10.00"> +elements</text>
</g>
<!-- Node4 -->
<g id="node4" class="node">
<title>Node4</title>
<g id="a_node4"><a xlink:title=" ">
<polygon fill="white" stroke="#bfbfbf" points="183.5,-370.5 183.5,-438.5 276.5,-438.5 276.5,-370.5 183.5,-370.5"/>
<text text-anchor="start" x="191.5" y="-426.5" font-family="Helvetica,sans-Serif" font-size="10.00">std::basic_string&lt;</text>
<text text-anchor="middle" x="230" y="-415.5" font-family="Helvetica,sans-Serif" font-size="10.00"> Char &gt;</text>
<polyline fill="none" stroke="#bfbfbf" points="183.5,-408.5 276.5,-408.5 "/>
<text text-anchor="middle" x="230" y="-396.5" font-family="Helvetica,sans-Serif" font-size="10.00"> </text>
<polyline fill="none" stroke="#bfbfbf" points="183.5,-389.5 276.5,-389.5 "/>
<text text-anchor="middle" x="230" y="-377.5" font-family="Helvetica,sans-Serif" font-size="10.00"> </text>
</a>
</g>
</g>
<!-- Node4&#45;&gt;Node3 -->
<g id="edge3" class="edge">
<title>Node4&#45;&gt;Node3</title>
<path fill="none" stroke="midnightblue" d="M230,-360.06C230,-347.51 230,-334.15 230,-322.83"/>
<polygon fill="none" stroke="midnightblue" points="226.5,-360.36 230,-370.36 233.5,-360.36 226.5,-360.36"/>
</g>
<!-- Node5&#45;&gt;Node1 -->
<g id="edge4" class="edge">
<title>Node5&#45;&gt;Node1</title>
<path fill="none" stroke="#404040" d="M441.42,-154.89C427.65,-139.57 408.9,-121.19 389,-109 354.42,-87.81 311.78,-72.82 276.06,-62.83"/>
<polygon fill="none" stroke="#404040" points="275.81,-62.77 268.98,-65.06 264.23,-59.64 271.06,-57.34 275.81,-62.77"/>
<text text-anchor="middle" x="436" y="-123" font-family="Helvetica,sans-Serif" font-size="10.00"> &#45;inflows</text>
<text text-anchor="middle" x="436" y="-112" font-family="Helvetica,sans-Serif" font-size="10.00">&#45;outflows</text>
</g>
<!-- Node6 -->
<g id="node6" class="node">
<title>Node6</title>
<g id="a_node6"><a xlink:title=" ">
<polygon fill="white" stroke="#bfbfbf" points="377,-265.5 377,-322.5 461,-322.5 461,-265.5 377,-265.5"/>
<text text-anchor="middle" x="419" y="-310.5" font-family="Helvetica,sans-Serif" font-size="10.00">std::vector&lt; T &gt;</text>
<polyline fill="none" stroke="#bfbfbf" points="377,-303.5 461,-303.5 "/>
<text text-anchor="middle" x="419" y="-291.5" font-family="Helvetica,sans-Serif" font-size="10.00"> </text>
<polyline fill="none" stroke="#bfbfbf" points="377,-284.5 461,-284.5 "/>
<text text-anchor="middle" x="419" y="-272.5" font-family="Helvetica,sans-Serif" font-size="10.00"> </text>
</a>
</g>
</g>
<!-- Node6&#45;&gt;Node5 -->
<g id="edge6" class="edge">
<title>Node6&#45;&gt;Node5</title>
<path fill="none" stroke="orange" d="M438.11,-255.75C439.47,-252.81 440.78,-249.87 442,-247 446.76,-235.77 451.35,-223.13 455.09,-212.16"/>
<polygon fill="orange" stroke="orange" points="434.83,-254.51 433.68,-265.04 441.14,-257.53 434.83,-254.51"/>
<text text-anchor="middle" x="469.5" y="-239" font-family="Helvetica,sans-Serif" font-size="10.00"> &lt; Nexus &gt;</text>
</g>
<!-- Node6&#45;&gt;Node8 -->
<g id="edge10" class="edge">
<title>Node6&#45;&gt;Node8</title>
<path fill="none" stroke="orange" d="M380.84,-258.01C377.4,-254.39 374.07,-250.69 371,-247 362.04,-236.22 353.34,-223.42 346.28,-212.21"/>
<polygon fill="orange" stroke="orange" points="378.48,-260.6 387.98,-265.28 383.47,-255.69 378.48,-260.6"/>
<text text-anchor="middle" x="404.5" y="-239" font-family="Helvetica,sans-Serif" font-size="10.00"> &lt; Catchment &gt;</text>
</g>
<!-- Node7 -->
<g id="node7" class="node">
<title>Node7</title>
<g id="a_node7"><a xlink:title=" ">
<polygon fill="white" stroke="#bfbfbf" points="404.5,-376 404.5,-433 433.5,-433 433.5,-376 404.5,-376"/>
<text text-anchor="middle" x="419" y="-421" font-family="Helvetica,sans-Serif" font-size="10.00">T</text>
<polyline fill="none" stroke="#bfbfbf" points="404.5,-414 433.5,-414 "/>
<text text-anchor="middle" x="419" y="-402" font-family="Helvetica,sans-Serif" font-size="10.00"> </text>
<polyline fill="none" stroke="#bfbfbf" points="404.5,-395 433.5,-395 "/>
<text text-anchor="middle" x="419" y="-383" font-family="Helvetica,sans-Serif" font-size="10.00"> </text>
</a>
</g>
</g>
<!-- Node7&#45;&gt;Node6 -->
<g id="edge7" class="edge">
<title>Node7&#45;&gt;Node6</title>
<path fill="none" stroke="#404040" d="M419,-375.84C419,-363.34 419,-348.34 419,-334.68"/>
<polygon fill="none" stroke="#404040" points="419,-334.61 415,-328.61 419,-322.61 423,-328.61 419,-334.61"/>
<text text-anchor="middle" x="443.5" y="-344" font-family="Helvetica,sans-Serif" font-size="10.00"> +elements</text>
</g>
<!-- Node8&#45;&gt;Node1 -->
<g id="edge8" class="edge">
<title>Node8&#45;&gt;Node1</title>
<path fill="none" stroke="#404040" d="M304.3,-154.98C289.41,-139.03 270.16,-118.41 252.44,-99.44"/>
<polygon fill="none" stroke="#404040" points="252.35,-99.35 245.33,-97.69 244.16,-90.58 251.18,-92.23 252.35,-99.35"/>
<text text-anchor="middle" x="333" y="-117.5" font-family="Helvetica,sans-Serif" font-size="10.00"> &#45;contained_catchments</text>
</g>
</g>
</svg>
