<?xml version="1.0" encoding="UTF-8" standalone="no"?>
<!DOCTYPE svg PUBLIC "-//W3C//DTD SVG 1.1//EN"
 "http://www.w3.org/Graphics/SVG/1.1/DTD/svg11.dtd">
<!-- Generated by graphviz version 9.0.0 (20230911.1827)
 -->
<!-- Title: realization::Formulation Pages: 1 -->
<svg width="139pt" height="426pt"
 viewBox="0.00 0.00 139.00 426.25" xmlns="http://www.w3.org/2000/svg" xmlns:xlink="http://www.w3.org/1999/xlink">
<g id="graph0" class="graph" transform="scale(1 1) rotate(0) translate(4 422.25)">
<title>realization::Formulation</title>
<!-- Node1 -->
<g id="Node000001" class="node">
<title>Node1</title>
<g id="a_Node000001"><a xlink:title=" ">
<polygon fill="#999999" stroke="none" points="131,-225 0,-225 0,0 131,0 131,-225"/>
<text text-anchor="start" x="16" y="-211.5" font-family="Helvetica,sans-Serif" font-size="10.00">realization::Formulation</text>
<text text-anchor="start" x="64" y="-196.5" font-family="Helvetica,sans-Serif" font-size="10.00"> </text>
<text text-anchor="start" x="4" y="-181.5" font-family="Helvetica,sans-Serif" font-size="10.00">+</text>
<text text-anchor="start" x="14" y="-181.5" font-family="Helvetica,sans-Serif" font-size="10.00">Formulation()</text>
<text text-anchor="start" x="4" y="-166.5" font-family="Helvetica,sans-Serif" font-size="10.00">+</text>
<text text-anchor="start" x="14" y="-166.5" font-family="Helvetica,sans-Serif" font-size="10.00">~Formulation()</text>
<text text-anchor="start" x="4" y="-151.5" font-family="Helvetica,sans-Serif" font-size="10.00">+</text>
<text text-anchor="start" x="14" y="-151.5" font-family="Helvetica,sans-Serif" font-size="10.00">get_formulation_type()</text>
<text text-anchor="start" x="4" y="-136.5" font-family="Helvetica,sans-Serif" font-size="10.00">+</text>
<text text-anchor="start" x="14" y="-136.5" font-family="Helvetica,sans-Serif" font-size="10.00">get_response()</text>
<text text-anchor="start" x="4" y="-121.5" font-family="Helvetica,sans-Serif" font-size="10.00">+</text>
<text text-anchor="start" x="14" y="-121.5" font-family="Helvetica,sans-Serif" font-size="10.00">get_id()</text>
<text text-anchor="start" x="4" y="-106.5" font-family="Helvetica,sans-Serif" font-size="10.00">+</text>
<text text-anchor="start" x="14" y="-106.5" font-family="Helvetica,sans-Serif" font-size="10.00">get_output_header_line()</text>
<text text-anchor="start" x="4" y="-91.5" font-family="Helvetica,sans-Serif" font-size="10.00">+</text>
<text text-anchor="start" x="14" y="-91.5" font-family="Helvetica,sans-Serif" font-size="10.00">get_output_line_for</text>
<text text-anchor="start" x="14" y="-80.25" font-family="Helvetica,sans-Serif" font-size="10.00">_timestep()</text>
<text text-anchor="start" x="4" y="-65.5" font-family="Helvetica,sans-Serif" font-size="10.00">+</text>
<text text-anchor="start" x="14" y="-65.5" font-family="Helvetica,sans-Serif" font-size="10.00">create_formulation()</text>
<text text-anchor="start" x="4" y="-50.5" font-family="Helvetica,sans-Serif" font-size="10.00">+</text>
<text text-anchor="start" x="14" y="-50.5" font-family="Helvetica,sans-Serif" font-size="10.00">create_formulation()</text>
<text text-anchor="start" x="4.38" y="-35.5" font-family="Helvetica,sans-Serif" font-size="10.00">#</text>
<text text-anchor="start" x="14" y="-35.5" font-family="Helvetica,sans-Serif" font-size="10.00">get_required_parameters()</text>
<text text-anchor="start" x="4.38" y="-20.5" font-family="Helvetica,sans-Serif" font-size="10.00">#</text>
<text text-anchor="start" x="14" y="-20.5" font-family="Helvetica,sans-Serif" font-size="10.00">interpret_parameters()</text>
<text text-anchor="start" x="4.38" y="-5.5" font-family="Helvetica,sans-Serif" font-size="10.00">#</text>
<text text-anchor="start" x="14" y="-5.5" font-family="Helvetica,sans-Serif" font-size="10.00">validate_parameters()</text>
<polygon fill="#666666" stroke="#666666" points="0,-208 0,-208 131,-208 131,-208 0,-208"/>
<polygon fill="#666666" stroke="#666666" points="0,-193 0,-193 131,-193 131,-193 0,-193"/>
<polygon fill="none" stroke="#666666" points="0,0 0,-225 131,-225 131,0 0,0"/>
</a>
</g>
</g>
<!-- Node2 -->
<g id="Node000002" class="node">
<title>Node2</title>
<g id="a_Node000002"><a xlink:title=" ">
<polygon fill="white" stroke="none" points="91.5,-321.25 39.5,-321.25 39.5,-272.25 91.5,-272.25 91.5,-321.25"/>
<text text-anchor="start" x="44.5" y="-307.75" font-family="Helvetica,sans-Serif" font-size="10.00">std::string</text>
<text text-anchor="start" x="64" y="-292.75" font-family="Helvetica,sans-Serif" font-size="10.00"> </text>
<text text-anchor="start" x="64" y="-277.75" font-family="Helvetica,sans-Serif" font-size="10.00"> </text>
<polygon fill="#666666" stroke="#666666" points="39.5,-304.25 39.5,-304.25 91.5,-304.25 91.5,-304.25 39.5,-304.25"/>
<polygon fill="#666666" stroke="#666666" points="39.5,-289.25 39.5,-289.25 91.5,-289.25 91.5,-289.25 39.5,-289.25"/>
<polygon fill="none" stroke="#666666" points="39.5,-272.25 39.5,-321.25 91.5,-321.25 91.5,-272.25 39.5,-272.25"/>
</a>
</g>
</g>
<!-- Node2&#45;&gt;Node1 -->
<g id="edge1_Node000001_Node000002" class="edge">
<title>Node2&#45;&gt;Node1</title>
<g id="a_edge1_Node000001_Node000002"><a xlink:title=" ">
<path fill="none" stroke="#63b8ff" d="M65.5,-272.3C65.5,-262.61 65.5,-250.58 65.5,-237.51"/>
<polygon fill="none" stroke="#63b8ff" points="65.5,-237.6 61.5,-231.6 65.5,-225.6 69.5,-231.6 65.5,-237.6"/>
</a>
</g>
<text text-anchor="middle" x="73" y="-244.75" font-family="Helvetica,sans-Serif" font-size="10.00" fill="grey"> #id</text>
</g>
<!-- Node3 -->
<g id="Node000003" class="node">
<title>Node3</title>
<g id="a_Node000003"><a xlink:title=" ">
<polygon fill="white" stroke="none" points="108.5,-418.25 22.5,-418.25 22.5,-358.25 108.5,-358.25 108.5,-418.25"/>
<text text-anchor="start" x="27.25" y="-404.75" font-family="Helvetica,sans-Serif" font-size="10.00">std::basic_string&lt;</text>
<text text-anchor="start" x="50.12" y="-393.5" font-family="Helvetica,sans-Serif" font-size="10.00"> Char &gt;</text>
<text text-anchor="start" x="64" y="-378.75" font-family="Helvetica,sans-Serif" font-size="10.00"> </text>
<text text-anchor="start" x="64" y="-363.75" font-family="Helvetica,sans-Serif" font-size="10.00"> </text>
<polygon fill="#666666" stroke="#666666" points="22.5,-390.25 22.5,-390.25 108.5,-390.25 108.5,-390.25 22.5,-390.25"/>
<polygon fill="#666666" stroke="#666666" points="22.5,-375.25 22.5,-375.25 108.5,-375.25 108.5,-375.25 22.5,-375.25"/>
<polygon fill="none" stroke="#666666" points="22.5,-358.25 22.5,-418.25 108.5,-418.25 108.5,-358.25 22.5,-358.25"/>
</a>
</g>
</g>
<!-- Node3&#45;&gt;Node2 -->
<g id="edge2_Node000002_Node000003" class="edge">
<title>Node3&#45;&gt;Node2</title>
<g id="a_edge2_Node000002_Node000003"><a xlink:title=" ">
<path fill="none" stroke="#63b8ff" d="M65.5,-347.04C65.5,-338.17 65.5,-329.07 65.5,-321.13"/>
<polygon fill="none" stroke="#63b8ff" points="62,-346.93 65.5,-356.93 69,-346.93 62,-346.93"/>
</a>
</g>
</g>
</g>
</svg>
