<?xml version="1.0" encoding="UTF-8" standalone="no"?>
<!DOCTYPE svg PUBLIC "-//W3C//DTD SVG 1.1//EN"
 "http://www.w3.org/Graphics/SVG/1.1/DTD/svg11.dtd">
<!-- Generated by graphviz version 12.2.0 (20241103.1931)
 -->
<!-- Title: hy_features::hydrolocation::HY_HydroLocation Pages: 1 -->
<svg width="128pt" height="353pt"
 viewBox="0.00 0.00 127.75 353.00" xmlns="http://www.w3.org/2000/svg" xmlns:xlink="http://www.w3.org/1999/xlink">
<g id="graph0" class="graph" transform="scale(1 1) rotate(0) translate(4 349)">
<title>hy_features::hydrolocation::HY_HydroLocation</title>
<!-- Node1 -->
<g id="Node000001" class="node">
<title>Node1</title>
<g id="a_Node000001"><a xlink:title=" ">
<polygon fill="#999999" stroke="none" points="119.75,-244 0,-244 0,0 119.75,0 119.75,-244"/>
<text text-anchor="start" x="4" y="-230.5" font-family="Helvetica,sans-Serif" font-size="10.00">hy_features::hydrolocation</text>
<text text-anchor="start" x="16.38" y="-219.25" font-family="Helvetica,sans-Serif" font-size="10.00">::HY_HydroLocation</text>
<text text-anchor="start" x="8.25" y="-204" font-family="Helvetica,sans-Serif" font-size="10.00">&#45;</text>
<text text-anchor="start" x="19.5" y="-204" font-family="Helvetica,sans-Serif" font-size="10.00">_shape</text>
<text text-anchor="start" x="8.25" y="-188.75" font-family="Helvetica,sans-Serif" font-size="10.00">&#45;</text>
<text text-anchor="start" x="19.5" y="-188.75" font-family="Helvetica,sans-Serif" font-size="10.00">_type</text>
<text text-anchor="start" x="8.25" y="-173.5" font-family="Helvetica,sans-Serif" font-size="10.00">&#45;</text>
<text text-anchor="start" x="19.5" y="-173.5" font-family="Helvetica,sans-Serif" font-size="10.00">_referenced_position</text>
<text text-anchor="start" x="8.25" y="-158.25" font-family="Helvetica,sans-Serif" font-size="10.00">&#45;</text>
<text text-anchor="start" x="19.5" y="-158.25" font-family="Helvetica,sans-Serif" font-size="10.00">_realized_nexus</text>
<text text-anchor="start" x="6.75" y="-143" font-family="Helvetica,sans-Serif" font-size="10.00">+</text>
<text text-anchor="start" x="19.5" y="-143" font-family="Helvetica,sans-Serif" font-size="10.00">HY_HydroLocation()</text>
<text text-anchor="start" x="6.75" y="-127.75" font-family="Helvetica,sans-Serif" font-size="10.00">+</text>
<text text-anchor="start" x="19.5" y="-127.75" font-family="Helvetica,sans-Serif" font-size="10.00">HY_HydroLocation()</text>
<text text-anchor="start" x="6.75" y="-112.5" font-family="Helvetica,sans-Serif" font-size="10.00">+</text>
<text text-anchor="start" x="19.5" y="-112.5" font-family="Helvetica,sans-Serif" font-size="10.00">geometry()</text>
<text text-anchor="start" x="6.75" y="-97.25" font-family="Helvetica,sans-Serif" font-size="10.00">+</text>
<text text-anchor="start" x="19.5" y="-97.25" font-family="Helvetica,sans-Serif" font-size="10.00">geometry()</text>
<text text-anchor="start" x="6.75" y="-82" font-family="Helvetica,sans-Serif" font-size="10.00">+</text>
<text text-anchor="start" x="19.5" y="-82" font-family="Helvetica,sans-Serif" font-size="10.00">itype()</text>
<text text-anchor="start" x="6.75" y="-66.75" font-family="Helvetica,sans-Serif" font-size="10.00">+</text>
<text text-anchor="start" x="19.5" y="-66.75" font-family="Helvetica,sans-Serif" font-size="10.00">itype()</text>
<text text-anchor="start" x="6.75" y="-51.5" font-family="Helvetica,sans-Serif" font-size="10.00">+</text>
<text text-anchor="start" x="19.5" y="-51.5" font-family="Helvetica,sans-Serif" font-size="10.00">referenced_position()</text>
<text text-anchor="start" x="6.75" y="-36.25" font-family="Helvetica,sans-Serif" font-size="10.00">+</text>
<text text-anchor="start" x="19.5" y="-36.25" font-family="Helvetica,sans-Serif" font-size="10.00">referenced_position()</text>
<text text-anchor="start" x="6.75" y="-21" font-family="Helvetica,sans-Serif" font-size="10.00">+</text>
<text text-anchor="start" x="19.5" y="-21" font-family="Helvetica,sans-Serif" font-size="10.00">realized_nexus()</text>
<text text-anchor="start" x="6.75" y="-5.75" font-family="Helvetica,sans-Serif" font-size="10.00">+</text>
<text text-anchor="start" x="19.5" y="-5.75" font-family="Helvetica,sans-Serif" font-size="10.00">realized_nexus()</text>
<polygon fill="#666666" stroke="#666666" points="0,-215.5 0,-215.5 119.75,-215.5 119.75,-215.5 0,-215.5"/>
<polygon fill="#666666" stroke="#666666" points="0,-154.5 0,-154.5 17.5,-154.5 17.5,-154.5 0,-154.5"/>
<polygon fill="#666666" stroke="#666666" points="17.5,-154.5 17.5,-154.5 119.75,-154.5 119.75,-154.5 17.5,-154.5"/>
<polygon fill="none" stroke="#666666" points="0,0 0,-244 119.75,-244 119.75,0 0,0"/>
</a>
</g>
</g>
<!-- Node2 -->
<g id="Node000002" class="node">
<title>Node2</title>
<g id="a_Node000002"><a xlink:href="class_g_m___object.html" target="_top" xlink:title=" ">
<polygon fill="white" stroke="none" points="99.25,-345 20.5,-345 20.5,-280 99.25,-280 99.25,-345"/>
<text text-anchor="start" x="35.12" y="-331.5" font-family="Helvetica,sans-Serif" font-size="10.00">GM_Object</text>
<text text-anchor="start" x="58.38" y="-316.25" font-family="Helvetica,sans-Serif" font-size="10.00"> </text>
<text text-anchor="start" x="24.5" y="-301" font-family="Helvetica,sans-Serif" font-size="10.00">+</text>
<text text-anchor="start" x="34.5" y="-301" font-family="Helvetica,sans-Serif" font-size="10.00">GM_Object()</text>
<text text-anchor="start" x="24.5" y="-285.75" font-family="Helvetica,sans-Serif" font-size="10.00">+</text>
<text text-anchor="start" x="34.5" y="-285.75" font-family="Helvetica,sans-Serif" font-size="10.00">~GM_Object()</text>
<polygon fill="#666666" stroke="#666666" points="20.5,-327.75 20.5,-327.75 99.25,-327.75 99.25,-327.75 20.5,-327.75"/>
<polygon fill="#666666" stroke="#666666" points="20.5,-312.5 20.5,-312.5 99.25,-312.5 99.25,-312.5 20.5,-312.5"/>
<polygon fill="none" stroke="#666666" points="20.5,-280 20.5,-345 99.25,-345 99.25,-280 20.5,-280"/>
</a>
</g>
</g>
<!-- Node2&#45;&gt;Node1 -->
<g id="edge1_Node000001_Node000002" class="edge">
<title>Node2&#45;&gt;Node1</title>
<g id="a_edge1_Node000001_Node000002"><a xlink:title=" ">
<path fill="none" stroke="#63b8ff" d="M59.88,-268.99C59.88,-261.11 59.88,-252.53 59.88,-243.61"/>
<polygon fill="none" stroke="#63b8ff" points="56.38,-268.86 59.88,-278.86 63.38,-268.86 56.38,-268.86"/>
</a>
</g>
</g>
</g>
</svg>
