<?xml version="1.0" encoding="UTF-8" standalone="no"?>
<!DOCTYPE svg PUBLIC "-//W3C//DTD SVG 1.1//EN"
 "http://www.w3.org/Graphics/SVG/1.1/DTD/svg11.dtd">
<!-- Generated by graphviz version 9.0.0 (20230911.1827)
 -->
<!-- Title: geojson::FeatureCollection Pages: 1 -->
<svg width="1213pt" height="945pt"
 viewBox="0.00 0.00 1213.17 945.00" xmlns="http://www.w3.org/2000/svg" xmlns:xlink="http://www.w3.org/1999/xlink">
<g id="graph0" class="graph" transform="scale(1 1) rotate(0) translate(4 941)">
<title>geojson::FeatureCollection</title>
<!-- Node1 -->
<g id="Node000001" class="node">
<title>Node1</title>
<g id="a_Node000001"><a xlink:title=" ">
<polygon fill="#999999" stroke="none" points="340.67,-274 216.67,-274 216.67,0 340.67,0 340.67,-274"/>
<text text-anchor="start" x="221.67" y="-260.5" font-family="Helvetica,sans-Serif" font-size="10.00">geojson::FeatureCollection</text>
<text text-anchor="start" x="277.17" y="-245.5" font-family="Helvetica,sans-Serif" font-size="10.00"> </text>
<text text-anchor="start" x="221.67" y="-230.5" font-family="Helvetica,sans-Serif" font-size="10.00">+</text>
<text text-anchor="start" x="232.67" y="-230.5" font-family="Helvetica,sans-Serif" font-size="10.00">FeatureCollection()</text>
<text text-anchor="start" x="221.67" y="-215.5" font-family="Helvetica,sans-Serif" font-size="10.00">+</text>
<text text-anchor="start" x="232.67" y="-215.5" font-family="Helvetica,sans-Serif" font-size="10.00">FeatureCollection()</text>
<text text-anchor="start" x="221.67" y="-200.5" font-family="Helvetica,sans-Serif" font-size="10.00">+</text>
<text text-anchor="start" x="232.67" y="-200.5" font-family="Helvetica,sans-Serif" font-size="10.00">FeatureCollection()</text>
<text text-anchor="start" x="221.67" y="-185.5" font-family="Helvetica,sans-Serif" font-size="10.00">+</text>
<text text-anchor="start" x="232.67" y="-185.5" font-family="Helvetica,sans-Serif" font-size="10.00">FeatureCollection()</text>
<text text-anchor="start" x="221.67" y="-170.5" font-family="Helvetica,sans-Serif" font-size="10.00">+</text>
<text text-anchor="start" x="232.67" y="-170.5" font-family="Helvetica,sans-Serif" font-size="10.00">FeatureCollection()</text>
<text text-anchor="start" x="221.67" y="-155.5" font-family="Helvetica,sans-Serif" font-size="10.00">+</text>
<text text-anchor="start" x="232.67" y="-155.5" font-family="Helvetica,sans-Serif" font-size="10.00">~FeatureCollection()</text>
<text text-anchor="start" x="221.67" y="-140.5" font-family="Helvetica,sans-Serif" font-size="10.00">+</text>
<text text-anchor="start" x="232.67" y="-140.5" font-family="Helvetica,sans-Serif" font-size="10.00">get_size()</text>
<text text-anchor="start" x="221.67" y="-125.5" font-family="Helvetica,sans-Serif" font-size="10.00">+</text>
<text text-anchor="start" x="232.67" y="-125.5" font-family="Helvetica,sans-Serif" font-size="10.00">is_empty()</text>
<text text-anchor="start" x="221.67" y="-110.5" font-family="Helvetica,sans-Serif" font-size="10.00">+</text>
<text text-anchor="start" x="232.67" y="-110.5" font-family="Helvetica,sans-Serif" font-size="10.00">get_bounding_box()</text>
<text text-anchor="start" x="221.67" y="-95.5" font-family="Helvetica,sans-Serif" font-size="10.00">+</text>
<text text-anchor="start" x="232.67" y="-95.5" font-family="Helvetica,sans-Serif" font-size="10.00">get_feature()</text>
<text text-anchor="start" x="221.67" y="-80.5" font-family="Helvetica,sans-Serif" font-size="10.00">+</text>
<text text-anchor="start" x="232.67" y="-80.5" font-family="Helvetica,sans-Serif" font-size="10.00">find()</text>
<text text-anchor="start" x="221.67" y="-65.5" font-family="Helvetica,sans-Serif" font-size="10.00">+</text>
<text text-anchor="start" x="232.67" y="-65.5" font-family="Helvetica,sans-Serif" font-size="10.00">find()</text>
<text text-anchor="start" x="221.67" y="-50.5" font-family="Helvetica,sans-Serif" font-size="10.00">+</text>
<text text-anchor="start" x="232.67" y="-50.5" font-family="Helvetica,sans-Serif" font-size="10.00">remove_feature()</text>
<text text-anchor="start" x="221.67" y="-35.5" font-family="Helvetica,sans-Serif" font-size="10.00">+</text>
<text text-anchor="start" x="232.67" y="-35.5" font-family="Helvetica,sans-Serif" font-size="10.00">remove_feature_by_id()</text>
<text text-anchor="start" x="221.67" y="-20.5" font-family="Helvetica,sans-Serif" font-size="10.00">+</text>
<text text-anchor="start" x="232.67" y="-20.5" font-family="Helvetica,sans-Serif" font-size="10.00">get_feature()</text>
<text text-anchor="start" x="232.67" y="-5.5" font-family="Helvetica,sans-Serif" font-size="10.00">and 19 more...</text>
<polygon fill="#666666" stroke="#666666" points="216.67,-257 216.67,-257 340.67,-257 340.67,-257 216.67,-257"/>
<polygon fill="#666666" stroke="#666666" points="216.67,-242 216.67,-242 340.67,-242 340.67,-242 216.67,-242"/>
<polygon fill="none" stroke="#666666" points="216.67,0 216.67,-274 340.67,-274 340.67,0 216.67,0"/>
</a>
</g>
</g>
<!-- Node2 -->
<g id="Node000002" class="node">
<title>Node2</title>
<g id="a_Node000002"><a xlink:title=" ">
<polygon fill="white" stroke="none" points="159.67,-375.75 55.67,-375.75 55.67,-326.75 159.67,-326.75 159.67,-375.75"/>
<text text-anchor="start" x="60.42" y="-362.25" font-family="Helvetica,sans-Serif" font-size="10.00">std::vector&lt; Feature &gt;</text>
<text text-anchor="start" x="106.17" y="-347.25" font-family="Helvetica,sans-Serif" font-size="10.00"> </text>
<text text-anchor="start" x="106.17" y="-332.25" font-family="Helvetica,sans-Serif" font-size="10.00"> </text>
<polygon fill="#666666" stroke="#666666" points="55.67,-358.75 55.67,-358.75 159.67,-358.75 159.67,-358.75 55.67,-358.75"/>
<polygon fill="#666666" stroke="#666666" points="55.67,-343.75 55.67,-343.75 159.67,-343.75 159.67,-343.75 55.67,-343.75"/>
<polygon fill="none" stroke="#666666" points="55.67,-326.75 55.67,-375.75 159.67,-375.75 159.67,-326.75 55.67,-326.75"/>
</a>
</g>
</g>
<!-- Node2&#45;&gt;Node1 -->
<g id="edge1_Node000001_Node000002" class="edge">
<title>Node2&#45;&gt;Node1</title>
<g id="a_edge1_Node000001_Node000002"><a xlink:title=" ">
<path fill="none" stroke="#63b8ff" d="M126.29,-327.13C146.16,-302.47 178.83,-261.92 208.83,-224.68"/>
<polygon fill="none" stroke="#63b8ff" points="208.71,-224.84 209.36,-217.65 216.24,-215.49 215.59,-222.67 208.71,-224.84"/>
</a>
</g>
<text text-anchor="middle" x="173.92" y="-293.75" font-family="Helvetica,sans-Serif" font-size="10.00" fill="grey"> &#45;features</text>
</g>
<!-- Node3 -->
<g id="Node000003" class="node">
<title>Node3</title>
<g id="a_Node000003"><a xlink:title=" ">
<polygon fill="white" stroke="none" points="129.67,-616.25 33.67,-616.25 33.67,-567.25 129.67,-567.25 129.67,-616.25"/>
<text text-anchor="start" x="38.54" y="-602.75" font-family="Helvetica,sans-Serif" font-size="10.00">std::shared_ptr&lt; T &gt;</text>
<text text-anchor="start" x="80.17" y="-587.75" font-family="Helvetica,sans-Serif" font-size="10.00"> </text>
<text text-anchor="start" x="44.67" y="-572.75" font-family="Helvetica,sans-Serif" font-size="10.00">+</text>
<text text-anchor="start" x="61.67" y="-572.75" font-family="Helvetica,sans-Serif" font-size="10.00">operator&#45;&gt;()</text>
<polygon fill="#666666" stroke="#666666" points="33.67,-599.25 33.67,-599.25 129.67,-599.25 129.67,-599.25 33.67,-599.25"/>
<polygon fill="#666666" stroke="#666666" points="33.67,-584.25 33.67,-584.25 129.67,-584.25 129.67,-584.25 33.67,-584.25"/>
<polygon fill="none" stroke="#666666" points="33.67,-567.25 33.67,-616.25 129.67,-616.25 129.67,-567.25 33.67,-567.25"/>
</a>
</g>
</g>
<!-- Node3&#45;&gt;Node2 -->
<g id="edge2_Node000002_Node000003" class="edge">
<title>Node3&#45;&gt;Node2</title>
<g id="a_edge2_Node000002_Node000003"><a xlink:title=" ">
<path fill="none" stroke="#63b8ff" d="M60.5,-567.55C29,-530.08 -22.99,-454.81 11.67,-399.25 19.38,-386.89 31.39,-377.69 44.33,-370.88"/>
<polygon fill="none" stroke="#63b8ff" points="44.18,-370.95 47.92,-364.78 55.05,-365.86 51.31,-372.03 44.18,-370.95"/>
</a>
</g>
<text text-anchor="middle" x="35.67" y="-406.62" font-family="Helvetica,sans-Serif" font-size="10.00" fill="grey"> +elements</text>
</g>
<!-- Node7 -->
<g id="Node000007" class="node">
<title>Node7</title>
<g id="a_Node000007"><a xlink:title=" ">
<polygon fill="white" stroke="none" points="395.67,-381.25 295.67,-381.25 295.67,-321.25 395.67,-321.25 395.67,-381.25"/>
<text text-anchor="start" x="300.67" y="-367.75" font-family="Helvetica,sans-Serif" font-size="10.00">std::map&lt; std::string,</text>
<text text-anchor="start" x="323.92" y="-356.5" font-family="Helvetica,sans-Serif" font-size="10.00"> Feature &gt;</text>
<text text-anchor="start" x="344.17" y="-341.75" font-family="Helvetica,sans-Serif" font-size="10.00"> </text>
<text text-anchor="start" x="344.17" y="-326.75" font-family="Helvetica,sans-Serif" font-size="10.00"> </text>
<polygon fill="#666666" stroke="#666666" points="295.67,-353.25 295.67,-353.25 395.67,-353.25 395.67,-353.25 295.67,-353.25"/>
<polygon fill="#666666" stroke="#666666" points="295.67,-338.25 295.67,-338.25 395.67,-338.25 395.67,-338.25 295.67,-338.25"/>
<polygon fill="none" stroke="#666666" points="295.67,-321.25 295.67,-381.25 395.67,-381.25 395.67,-321.25 295.67,-321.25"/>
</a>
</g>
</g>
<!-- Node3&#45;&gt;Node7 -->
<g id="edge11_Node000007_Node000003" class="edge">
<title>Node3&#45;&gt;Node7</title>
<g id="a_edge11_Node000007_Node000003"><a xlink:title=" ">
<path fill="none" stroke="#63b8ff" d="M72.32,-567.46C57.95,-527.44 36.3,-445.44 78.67,-399.25 107.82,-367.46 223.92,-389.98 283.48,-380.89"/>
<polygon fill="none" stroke="#63b8ff" points="283.34,-380.92 288.38,-375.76 295.08,-378.43 290.03,-383.59 283.34,-380.92"/>
</a>
</g>
<text text-anchor="middle" x="102.67" y="-406.62" font-family="Helvetica,sans-Serif" font-size="10.00" fill="grey"> +elements</text>
</g>
<!-- Node4 -->
<g id="Node000004" class="node">
<title>Node4</title>
<g id="a_Node000004"><a xlink:title=" ">
<polygon fill="white" stroke="none" points="216.67,-840 200.67,-840 200.67,-791 216.67,-791 216.67,-840"/>
<text text-anchor="start" x="205.67" y="-826.5" font-family="Helvetica,sans-Serif" font-size="10.00">T</text>
<text text-anchor="start" x="207.17" y="-811.5" font-family="Helvetica,sans-Serif" font-size="10.00"> </text>
<text text-anchor="start" x="207.17" y="-796.5" font-family="Helvetica,sans-Serif" font-size="10.00"> </text>
<polygon fill="#666666" stroke="#666666" points="200.67,-823 200.67,-823 216.67,-823 216.67,-823 200.67,-823"/>
<polygon fill="#666666" stroke="#666666" points="200.67,-808 200.67,-808 216.67,-808 216.67,-808 200.67,-808"/>
<polygon fill="none" stroke="#666666" points="200.67,-791 200.67,-840 216.67,-840 216.67,-791 200.67,-791"/>
</a>
</g>
</g>
<!-- Node4&#45;&gt;Node3 -->
<g id="edge3_Node000003_Node000004" class="edge">
<title>Node4&#45;&gt;Node3</title>
<g id="a_edge3_Node000003_Node000004"><a xlink:title=" ">
<path fill="none" stroke="#63b8ff" d="M200.72,-800.63C181.12,-766.39 129.96,-677.07 101.5,-627.37"/>
<polygon fill="none" stroke="#63b8ff" points="101.53,-627.43 95.08,-624.21 95.57,-617.02 102.02,-620.24 101.53,-627.43"/>
</a>
</g>
<text text-anchor="middle" x="194.42" y="-763.5" font-family="Helvetica,sans-Serif" font-size="10.00" fill="grey"> +ptr</text>
</g>
<!-- Node5 -->
<g id="Node000005" class="node">
<title>Node5</title>
<g id="a_Node000005"><a xlink:title=" ">
<polygon fill="white" stroke="none" points="256.17,-616.25 179.17,-616.25 179.17,-567.25 256.17,-567.25 256.17,-616.25"/>
<text text-anchor="start" x="183.92" y="-602.75" font-family="Helvetica,sans-Serif" font-size="10.00">std::vector&lt; T &gt;</text>
<text text-anchor="start" x="216.17" y="-587.75" font-family="Helvetica,sans-Serif" font-size="10.00"> </text>
<text text-anchor="start" x="216.17" y="-572.75" font-family="Helvetica,sans-Serif" font-size="10.00"> </text>
<polygon fill="#666666" stroke="#666666" points="179.17,-599.25 179.17,-599.25 256.17,-599.25 256.17,-599.25 179.17,-599.25"/>
<polygon fill="#666666" stroke="#666666" points="179.17,-584.25 179.17,-584.25 256.17,-584.25 256.17,-584.25 179.17,-584.25"/>
<polygon fill="none" stroke="#666666" points="179.17,-567.25 179.17,-616.25 256.17,-616.25 256.17,-567.25 179.17,-567.25"/>
</a>
</g>
</g>
<!-- Node4&#45;&gt;Node5 -->
<g id="edge5_Node000005_Node000004" class="edge">
<title>Node4&#45;&gt;Node5</title>
<g id="a_edge5_Node000005_Node000004"><a xlink:title=" ">
<path fill="none" stroke="#63b8ff" d="M208.97,-791.13C209.12,-781.96 209.35,-771.36 209.67,-761.75 211.19,-715.95 213.83,-663.21 215.66,-629"/>
<polygon fill="none" stroke="#63b8ff" points="215.66,-628.86 211.99,-622.65 216.31,-616.88 219.98,-623.09 215.66,-628.86"/>
</a>
</g>
<text text-anchor="middle" x="233.67" y="-763.5" font-family="Helvetica,sans-Serif" font-size="10.00" fill="grey"> +elements</text>
</g>
<!-- Node10 -->
<g id="Node000010" class="node">
<title>Node10</title>
<g id="a_Node000010"><a xlink:title=" ">
<polygon fill="white" stroke="none" points="375.17,-616.25 294.17,-616.25 294.17,-567.25 375.17,-567.25 375.17,-616.25"/>
<text text-anchor="start" x="299.04" y="-602.75" font-family="Helvetica,sans-Serif" font-size="10.00">std::map&lt; K, T &gt;</text>
<text text-anchor="start" x="333.17" y="-587.75" font-family="Helvetica,sans-Serif" font-size="10.00"> </text>
<text text-anchor="start" x="333.17" y="-572.75" font-family="Helvetica,sans-Serif" font-size="10.00"> </text>
<polygon fill="#666666" stroke="#666666" points="294.17,-599.25 294.17,-599.25 375.17,-599.25 375.17,-599.25 294.17,-599.25"/>
<polygon fill="#666666" stroke="#666666" points="294.17,-584.25 294.17,-584.25 375.17,-584.25 375.17,-584.25 294.17,-584.25"/>
<polygon fill="none" stroke="#666666" points="294.17,-567.25 294.17,-616.25 375.17,-616.25 375.17,-567.25 294.17,-567.25"/>
</a>
</g>
</g>
<!-- Node4&#45;&gt;Node10 -->
<g id="edge14_Node000010_Node000004" class="edge">
<title>Node4&#45;&gt;Node10</title>
<g id="a_edge14_Node000010_Node000004"><a xlink:title=" ">
<path fill="none" stroke="#63b8ff" d="M216.62,-809.5C227.23,-802.48 246.02,-788.79 257.67,-773 290.82,-728.09 313.11,-666.71 324.84,-628.42"/>
<polygon fill="none" stroke="#63b8ff" points="324.81,-628.51 322.68,-621.62 328.22,-617 330.35,-623.89 324.81,-628.51"/>
</a>
</g>
<text text-anchor="middle" x="288.67" y="-763.5" font-family="Helvetica,sans-Serif" font-size="10.00" fill="grey"> +elements</text>
</g>
<!-- Node5&#45;&gt;Node2 -->
<g id="edge4_Node000002_Node000005" class="edge">
<title>Node5&#45;&gt;Node2</title>
<g id="a_edge4_Node000002_Node000005"><a xlink:title=" ">
<path fill="none" stroke="orange" d="M202.81,-557.28C185.72,-518.95 156.66,-454.34 130.67,-399.25 127.03,-391.53 122.96,-383.14 119.27,-375.61"/>
<polygon fill="orange" stroke="orange" points="199.42,-558.27 206.69,-565.98 205.82,-555.42 199.42,-558.27"/>
</a>
</g>
<text text-anchor="middle" x="166.54" y="-406.62" font-family="Helvetica,sans-Serif" font-size="10.00" fill="grey"> &lt; Feature &gt;</text>
</g>
<!-- Node6 -->
<g id="Node000006" class="node">
<title>Node6</title>
<g id="a_Node000006"><a xlink:title=" ">
<polygon fill="white" stroke="none" points="277.67,-375.75 177.67,-375.75 177.67,-326.75 277.67,-326.75 277.67,-375.75"/>
<text text-anchor="start" x="182.67" y="-362.25" font-family="Helvetica,sans-Serif" font-size="10.00">std::vector&lt; double &gt;</text>
<text text-anchor="start" x="192.17" y="-347.25" font-family="Helvetica,sans-Serif" font-size="10.00">+</text>
<text text-anchor="start" x="212.67" y="-347.25" font-family="Helvetica,sans-Serif" font-size="10.00">elements</text>
<text text-anchor="start" x="226.17" y="-332.25" font-family="Helvetica,sans-Serif" font-size="10.00"> </text>
<polygon fill="#666666" stroke="#666666" points="177.67,-358.75 177.67,-358.75 277.67,-358.75 277.67,-358.75 177.67,-358.75"/>
<polygon fill="#666666" stroke="#666666" points="177.67,-343.75 177.67,-343.75 210.67,-343.75 210.67,-343.75 177.67,-343.75"/>
<polygon fill="#666666" stroke="#666666" points="210.67,-343.75 210.67,-343.75 277.67,-343.75 277.67,-343.75 210.67,-343.75"/>
<polygon fill="none" stroke="#666666" points="177.67,-326.75 177.67,-375.75 277.67,-375.75 277.67,-326.75 177.67,-326.75"/>
</a>
</g>
</g>
<!-- Node5&#45;&gt;Node6 -->
<g id="edge7_Node000006_Node000005" class="edge">
<title>Node5&#45;&gt;Node6</title>
<g id="a_edge7_Node000006_Node000005"><a xlink:title=" ">
<path fill="none" stroke="orange" d="M219.12,-556.12C221.19,-506.85 224.92,-417.84 226.69,-375.65"/>
<polygon fill="orange" stroke="orange" points="215.63,-555.8 218.71,-565.94 222.63,-556.09 215.63,-555.8"/>
</a>
</g>
<text text-anchor="middle" x="249.29" y="-406.62" font-family="Helvetica,sans-Serif" font-size="10.00" fill="grey"> &lt; double &gt;</text>
</g>
<!-- Node15 -->
<g id="Node000015" class="node">
<title>Node15</title>
<g id="a_Node000015"><a xlink:title=" ">
<polygon fill="white" stroke="none" points="999.17,-381.25 902.17,-381.25 902.17,-321.25 999.17,-321.25 999.17,-381.25"/>
<text text-anchor="start" x="907.17" y="-367.75" font-family="Helvetica,sans-Serif" font-size="10.00">std::vector&lt; geojson</text>
<text text-anchor="start" x="912.79" y="-356.5" font-family="Helvetica,sans-Serif" font-size="10.00">::JSONProperty &gt;</text>
<text text-anchor="start" x="949.17" y="-341.75" font-family="Helvetica,sans-Serif" font-size="10.00"> </text>
<text text-anchor="start" x="949.17" y="-326.75" font-family="Helvetica,sans-Serif" font-size="10.00"> </text>
<polygon fill="#666666" stroke="#666666" points="902.17,-353.25 902.17,-353.25 999.17,-353.25 999.17,-353.25 902.17,-353.25"/>
<polygon fill="#666666" stroke="#666666" points="902.17,-338.25 902.17,-338.25 999.17,-338.25 999.17,-338.25 902.17,-338.25"/>
<polygon fill="none" stroke="#666666" points="902.17,-321.25 902.17,-381.25 999.17,-381.25 999.17,-321.25 902.17,-321.25"/>
</a>
</g>
</g>
<!-- Node5&#45;&gt;Node15 -->
<g id="edge25_Node000015_Node000005" class="edge">
<title>Node5&#45;&gt;Node15</title>
<g id="a_edge25_Node000015_Node000005"><a xlink:title=" ">
<path fill="none" stroke="orange" d="M222.63,-556.14C229.72,-520.56 246.42,-466.67 284.67,-439.75 329.31,-408.33 476.65,-434.77 529.67,-421.75 554.12,-415.74 557.38,-405.91 581.67,-399.25 611.95,-390.95 809.22,-368.13 902.26,-357.65"/>
<polygon fill="orange" stroke="orange" points="219.19,-555.49 220.84,-565.95 226.08,-556.74 219.19,-555.49"/>
</a>
</g>
<text text-anchor="middle" x="641.67" y="-406.62" font-family="Helvetica,sans-Serif" font-size="10.00" fill="grey"> &lt; geojson::JSONProperty &gt;</text>
</g>
<!-- Node6&#45;&gt;Node1 -->
<g id="edge6_Node000001_Node000006" class="edge">
<title>Node6&#45;&gt;Node1</title>
<g id="a_edge6_Node000001_Node000006"><a xlink:title=" ">
<path fill="none" stroke="#63b8ff" d="M233.22,-327.13C235.88,-316.09 239.3,-301.85 243.07,-286.16"/>
<polygon fill="none" stroke="#63b8ff" points="243,-286.44 240.51,-279.67 245.8,-274.77 248.29,-281.54 243,-286.44"/>
</a>
</g>
<text text-anchor="middle" x="273.92" y="-293.75" font-family="Helvetica,sans-Serif" font-size="10.00" fill="grey"> &#45;bounding_box</text>
</g>
<!-- Node7&#45;&gt;Node1 -->
<g id="edge8_Node000001_Node000007" class="edge">
<title>Node7&#45;&gt;Node1</title>
<g id="a_edge8_Node000001_Node000007"><a xlink:title=" ">
<path fill="none" stroke="#63b8ff" d="M336.63,-321.63C333.43,-311.49 329.58,-299.28 325.4,-286.03"/>
<polygon fill="none" stroke="#63b8ff" points="325.36,-285.9 319.74,-281.39 321.74,-274.46 327.37,-278.98 325.36,-285.9"/>
</a>
</g>
<text text-anchor="middle" x="361.17" y="-293.75" font-family="Helvetica,sans-Serif" font-size="10.00" fill="grey"> &#45;feature_by_id</text>
</g>
<!-- Node8 -->
<g id="Node000008" class="node">
<title>Node8</title>
<g id="a_Node000008"><a xlink:title=" ">
<polygon fill="white" stroke="none" points="792.67,-840 740.67,-840 740.67,-791 792.67,-791 792.67,-840"/>
<text text-anchor="start" x="745.67" y="-826.5" font-family="Helvetica,sans-Serif" font-size="10.00">std::string</text>
<text text-anchor="start" x="765.17" y="-811.5" font-family="Helvetica,sans-Serif" font-size="10.00"> </text>
<text text-anchor="start" x="765.17" y="-796.5" font-family="Helvetica,sans-Serif" font-size="10.00"> </text>
<polygon fill="#666666" stroke="#666666" points="740.67,-823 740.67,-823 792.67,-823 792.67,-823 740.67,-823"/>
<polygon fill="#666666" stroke="#666666" points="740.67,-808 740.67,-808 792.67,-808 792.67,-808 740.67,-808"/>
<polygon fill="none" stroke="#666666" points="740.67,-791 740.67,-840 792.67,-840 792.67,-791 740.67,-791"/>
</a>
</g>
</g>
<!-- Node8&#45;&gt;Node7 -->
<g id="edge9_Node000007_Node000008" class="edge">
<title>Node8&#45;&gt;Node7</title>
<g id="a_edge9_Node000007_Node000008"><a xlink:title=" ">
<path fill="none" stroke="#63b8ff" d="M740.81,-797.8C720.98,-784.39 693.5,-764.44 672.17,-743.75 531.67,-607.42 531.73,-541.92 397.67,-399.25 394.7,-396.09 391.56,-392.91 388.34,-389.76"/>
<polygon fill="none" stroke="#63b8ff" points="388.52,-389.94 381.42,-388.71 379.82,-381.67 386.93,-382.9 388.52,-389.94"/>
</a>
</g>
<text text-anchor="middle" x="686.92" y="-587.88" font-family="Helvetica,sans-Serif" font-size="10.00" fill="grey"> +keys</text>
</g>
<!-- Node12 -->
<g id="Node000012" class="node">
<title>Node12</title>
<g id="a_Node000012"><a xlink:title=" ">
<polygon fill="white" stroke="none" points="686.17,-381.25 565.17,-381.25 565.17,-321.25 686.17,-321.25 686.17,-381.25"/>
<text text-anchor="start" x="569.79" y="-367.75" font-family="Helvetica,sans-Serif" font-size="10.00">std::map&lt; std::string,</text>
<text text-anchor="start" x="569.79" y="-356.5" font-family="Helvetica,sans-Serif" font-size="10.00"> geojson::JSONProperty &gt;</text>
<text text-anchor="start" x="624.17" y="-341.75" font-family="Helvetica,sans-Serif" font-size="10.00"> </text>
<text text-anchor="start" x="624.17" y="-326.75" font-family="Helvetica,sans-Serif" font-size="10.00"> </text>
<polygon fill="#666666" stroke="#666666" points="565.17,-353.25 565.17,-353.25 686.17,-353.25 686.17,-353.25 565.17,-353.25"/>
<polygon fill="#666666" stroke="#666666" points="565.17,-338.25 565.17,-338.25 686.17,-338.25 686.17,-338.25 565.17,-338.25"/>
<polygon fill="none" stroke="#666666" points="565.17,-321.25 565.17,-381.25 686.17,-381.25 686.17,-321.25 565.17,-321.25"/>
</a>
</g>
</g>
<!-- Node8&#45;&gt;Node12 -->
<g id="edge16_Node000012_Node000008" class="edge">
<title>Node8&#45;&gt;Node12</title>
<g id="a_edge16_Node000012_Node000008"><a xlink:title=" ">
<path fill="none" stroke="#63b8ff" d="M766.96,-791.04C766.74,-724.66 758.98,-531.7 680.67,-399.25 678.9,-396.26 676.88,-393.37 674.67,-390.59"/>
<polygon fill="none" stroke="#63b8ff" points="674.67,-390.59 667.67,-388.84 666.61,-381.7 673.6,-383.46 674.67,-390.59"/>
</a>
</g>
<text text-anchor="middle" x="779.92" y="-587.88" font-family="Helvetica,sans-Serif" font-size="10.00" fill="grey"> +keys</text>
</g>
<!-- Node13 -->
<g id="Node000013" class="node">
<title>Node13</title>
<g id="a_Node000013"><a xlink:href="classgeojson_1_1_j_s_o_n_property.html" target="_top" xlink:title="@TODO: Convert JSONProperty into a variant of the supported types">
<polygon fill="white" stroke="none" points="1041.17,-743.75 930.17,-743.75 930.17,-439.75 1041.17,-439.75 1041.17,-743.75"/>
<text text-anchor="start" x="935.04" y="-730.25" font-family="Helvetica,sans-Serif" font-size="10.00">geojson::JSONProperty</text>
<text text-anchor="start" x="940.17" y="-715.25" font-family="Helvetica,sans-Serif" font-size="10.00">&#45;</text>
<text text-anchor="start" x="953.17" y="-715.25" font-family="Helvetica,sans-Serif" font-size="10.00">type</text>
<text text-anchor="start" x="940.17" y="-700.25" font-family="Helvetica,sans-Serif" font-size="10.00">&#45;</text>
<text text-anchor="start" x="953.17" y="-700.25" font-family="Helvetica,sans-Serif" font-size="10.00">data</text>
<text text-anchor="start" x="938.67" y="-685.25" font-family="Helvetica,sans-Serif" font-size="10.00">+</text>
<text text-anchor="start" x="953.17" y="-685.25" font-family="Helvetica,sans-Serif" font-size="10.00">JSONProperty()</text>
<text text-anchor="start" x="938.67" y="-670.25" font-family="Helvetica,sans-Serif" font-size="10.00">+</text>
<text text-anchor="start" x="953.17" y="-670.25" font-family="Helvetica,sans-Serif" font-size="10.00">JSONProperty()</text>
<text text-anchor="start" x="938.67" y="-655.25" font-family="Helvetica,sans-Serif" font-size="10.00">+</text>
<text text-anchor="start" x="953.17" y="-655.25" font-family="Helvetica,sans-Serif" font-size="10.00">JSONProperty()</text>
<text text-anchor="start" x="938.67" y="-640.25" font-family="Helvetica,sans-Serif" font-size="10.00">+</text>
<text text-anchor="start" x="953.17" y="-640.25" font-family="Helvetica,sans-Serif" font-size="10.00">JSONProperty()</text>
<text text-anchor="start" x="938.67" y="-625.25" font-family="Helvetica,sans-Serif" font-size="10.00">+</text>
<text text-anchor="start" x="953.17" y="-625.25" font-family="Helvetica,sans-Serif" font-size="10.00">JSONProperty()</text>
<text text-anchor="start" x="938.67" y="-610.25" font-family="Helvetica,sans-Serif" font-size="10.00">+</text>
<text text-anchor="start" x="953.17" y="-610.25" font-family="Helvetica,sans-Serif" font-size="10.00">JSONProperty()</text>
<text text-anchor="start" x="938.67" y="-595.25" font-family="Helvetica,sans-Serif" font-size="10.00">+</text>
<text text-anchor="start" x="953.17" y="-595.25" font-family="Helvetica,sans-Serif" font-size="10.00">JSONProperty()</text>
<text text-anchor="start" x="938.67" y="-580.25" font-family="Helvetica,sans-Serif" font-size="10.00">+</text>
<text text-anchor="start" x="953.17" y="-580.25" font-family="Helvetica,sans-Serif" font-size="10.00">JSONProperty()</text>
<text text-anchor="start" x="938.67" y="-565.25" font-family="Helvetica,sans-Serif" font-size="10.00">+</text>
<text text-anchor="start" x="953.17" y="-565.25" font-family="Helvetica,sans-Serif" font-size="10.00">JSONProperty()</text>
<text text-anchor="start" x="938.67" y="-550.25" font-family="Helvetica,sans-Serif" font-size="10.00">+</text>
<text text-anchor="start" x="953.17" y="-550.25" font-family="Helvetica,sans-Serif" font-size="10.00">JSONProperty()</text>
<text text-anchor="start" x="938.67" y="-535.25" font-family="Helvetica,sans-Serif" font-size="10.00">+</text>
<text text-anchor="start" x="953.17" y="-535.25" font-family="Helvetica,sans-Serif" font-size="10.00">JSONProperty()</text>
<text text-anchor="start" x="938.67" y="-520.25" font-family="Helvetica,sans-Serif" font-size="10.00">+</text>
<text text-anchor="start" x="953.17" y="-520.25" font-family="Helvetica,sans-Serif" font-size="10.00">~JSONProperty()</text>
<text text-anchor="start" x="938.67" y="-505.25" font-family="Helvetica,sans-Serif" font-size="10.00">+</text>
<text text-anchor="start" x="953.17" y="-505.25" font-family="Helvetica,sans-Serif" font-size="10.00">JSONProperty()</text>
<text text-anchor="start" x="938.67" y="-490.25" font-family="Helvetica,sans-Serif" font-size="10.00">+</text>
<text text-anchor="start" x="953.17" y="-490.25" font-family="Helvetica,sans-Serif" font-size="10.00">JSONProperty()</text>
<text text-anchor="start" x="938.67" y="-475.25" font-family="Helvetica,sans-Serif" font-size="10.00">+</text>
<text text-anchor="start" x="953.17" y="-475.25" font-family="Helvetica,sans-Serif" font-size="10.00">get_type()</text>
<text text-anchor="start" x="953.17" y="-460.25" font-family="Helvetica,sans-Serif" font-size="10.00">and 17 more...</text>
<text text-anchor="start" x="938.67" y="-445.25" font-family="Helvetica,sans-Serif" font-size="10.00">+</text>
<text text-anchor="start" x="953.17" y="-445.25" font-family="Helvetica,sans-Serif" font-size="10.00">print_property()</text>
<polygon fill="#666666" stroke="#666666" points="930.17,-726.75 930.17,-726.75 1041.17,-726.75 1041.17,-726.75 930.17,-726.75"/>
<polygon fill="#666666" stroke="#666666" points="930.17,-696.75 930.17,-696.75 951.17,-696.75 951.17,-696.75 930.17,-696.75"/>
<polygon fill="#666666" stroke="#666666" points="951.17,-696.75 951.17,-696.75 1041.17,-696.75 1041.17,-696.75 951.17,-696.75"/>
<polygon fill="none" stroke="#666666" points="930.17,-439.75 930.17,-743.75 1041.17,-743.75 1041.17,-439.75 930.17,-439.75"/>
</a>
</g>
</g>
<!-- Node8&#45;&gt;Node13 -->
<g id="edge18_Node000013_Node000008" class="edge">
<title>Node8&#45;&gt;Node13</title>
<g id="a_edge18_Node000013_Node000008"><a xlink:title=" ">
<path fill="none" stroke="#63b8ff" d="M789.69,-791.19C820.72,-759.77 877.18,-702.6 921.56,-657.67"/>
<polygon fill="none" stroke="#63b8ff" points="921.48,-657.75 922.85,-650.67 929.91,-649.21 928.54,-656.29 921.48,-657.75"/>
</a>
</g>
<text text-anchor="middle" x="823.79" y="-763.5" font-family="Helvetica,sans-Serif" font-size="10.00" fill="grey"> &#45;key</text>
</g>
<!-- Node14 -->
<g id="Node000014" class="node">
<title>Node14</title>
<g id="a_Node000014"><a xlink:title=" ">
<polygon fill="white" stroke="none" points="1176.67,-381.25 1076.67,-381.25 1076.67,-321.25 1176.67,-321.25 1176.67,-381.25"/>
<text text-anchor="start" x="1081.67" y="-367.75" font-family="Helvetica,sans-Serif" font-size="10.00">std::map&lt; std::string,</text>
<text text-anchor="start" x="1089.92" y="-356.5" font-family="Helvetica,sans-Serif" font-size="10.00"> JSONProperty &gt;</text>
<text text-anchor="start" x="1125.17" y="-341.75" font-family="Helvetica,sans-Serif" font-size="10.00"> </text>
<text text-anchor="start" x="1125.17" y="-326.75" font-family="Helvetica,sans-Serif" font-size="10.00"> </text>
<polygon fill="#666666" stroke="#666666" points="1076.67,-353.25 1076.67,-353.25 1176.67,-353.25 1176.67,-353.25 1076.67,-353.25"/>
<polygon fill="#666666" stroke="#666666" points="1076.67,-338.25 1076.67,-338.25 1176.67,-338.25 1176.67,-338.25 1076.67,-338.25"/>
<polygon fill="none" stroke="#666666" points="1076.67,-321.25 1076.67,-381.25 1176.67,-381.25 1176.67,-321.25 1076.67,-321.25"/>
</a>
</g>
</g>
<!-- Node8&#45;&gt;Node14 -->
<g id="edge20_Node000014_Node000008" class="edge">
<title>Node8&#45;&gt;Node14</title>
<g id="a_edge20_Node000014_Node000008"><a xlink:title=" ">
<path fill="none" stroke="#63b8ff" d="M792.52,-815.42C847.02,-815.95 974.93,-809.59 1050.67,-743.75 1167.14,-642.49 1151.24,-573.25 1180.67,-421.75 1182.58,-411.93 1184.81,-408.35 1180.67,-399.25 1179.39,-396.43 1177.84,-393.72 1176.1,-391.12"/>
<polygon fill="none" stroke="#63b8ff" points="1176.09,-391.1 1169.21,-388.94 1168.55,-381.76 1175.43,-383.92 1176.09,-391.1"/>
</a>
</g>
<text text-anchor="middle" x="1190.92" y="-587.88" font-family="Helvetica,sans-Serif" font-size="10.00" fill="grey"> +keys</text>
</g>
<!-- Node9 -->
<g id="Node000009" class="node">
<title>Node9</title>
<g id="a_Node000009"><a xlink:title=" ">
<polygon fill="white" stroke="none" points="809.67,-937 723.67,-937 723.67,-877 809.67,-877 809.67,-937"/>
<text text-anchor="start" x="728.42" y="-923.5" font-family="Helvetica,sans-Serif" font-size="10.00">std::basic_string&lt;</text>
<text text-anchor="start" x="751.29" y="-912.25" font-family="Helvetica,sans-Serif" font-size="10.00"> Char &gt;</text>
<text text-anchor="start" x="765.17" y="-897.5" font-family="Helvetica,sans-Serif" font-size="10.00"> </text>
<text text-anchor="start" x="765.17" y="-882.5" font-family="Helvetica,sans-Serif" font-size="10.00"> </text>
<polygon fill="#666666" stroke="#666666" points="723.67,-909 723.67,-909 809.67,-909 809.67,-909 723.67,-909"/>
<polygon fill="#666666" stroke="#666666" points="723.67,-894 723.67,-894 809.67,-894 809.67,-894 723.67,-894"/>
<polygon fill="none" stroke="#666666" points="723.67,-877 723.67,-937 809.67,-937 809.67,-877 723.67,-877"/>
</a>
</g>
</g>
<!-- Node9&#45;&gt;Node8 -->
<g id="edge10_Node000008_Node000009" class="edge">
<title>Node9&#45;&gt;Node8</title>
<g id="a_edge10_Node000008_Node000009"><a xlink:title=" ">
<path fill="none" stroke="#63b8ff" d="M766.67,-865.79C766.67,-856.92 766.67,-847.82 766.67,-839.88"/>
<polygon fill="none" stroke="#63b8ff" points="763.17,-865.68 766.67,-875.68 770.17,-865.68 763.17,-865.68"/>
</a>
</g>
</g>
<!-- Node10&#45;&gt;Node7 -->
<g id="edge12_Node000007_Node000010" class="edge">
<title>Node10&#45;&gt;Node7</title>
<g id="a_edge12_Node000007_Node000010"><a xlink:title=" ">
<path fill="none" stroke="orange" d="M317.18,-557.17C299.27,-517.97 276.9,-451.82 298.67,-399.25 301.36,-392.75 305.44,-386.67 310.09,-381.2"/>
<polygon fill="orange" stroke="orange" points="313.98,-558.57 321.43,-566.11 320.3,-555.57 313.98,-558.57"/>
</a>
</g>
<text text-anchor="middle" x="348.17" y="-406.62" font-family="Helvetica,sans-Serif" font-size="10.00" fill="grey"> &lt; std::string, Feature &gt;</text>
</g>
<!-- Node10&#45;&gt;Node12 -->
<g id="edge26_Node000012_Node000010" class="edge">
<title>Node10&#45;&gt;Node12</title>
<g id="a_edge26_Node000012_Node000010"><a xlink:title=" ">
<path fill="none" stroke="orange" d="M341.08,-556.25C348.47,-523.65 363.16,-474.69 389.67,-439.75 431.07,-385.18 510.25,-364.63 565.43,-356.9"/>
<polygon fill="orange" stroke="orange" points="337.66,-555.47 338.99,-565.98 344.51,-556.93 337.66,-555.47"/>
</a>
</g>
<text text-anchor="start" x="434.67" y="-412.25" font-family="Helvetica,sans-Serif" font-size="10.00" fill="grey"> &lt; std::string, geojson</text>
<text text-anchor="middle" x="480.42" y="-401" font-family="Helvetica,sans-Serif" font-size="10.00" fill="grey">::JSONProperty &gt;</text>
</g>
<!-- Node10&#45;&gt;Node14 -->
<g id="edge22_Node000014_Node000010" class="edge">
<title>Node10&#45;&gt;Node14</title>
<g id="a_edge22_Node000014_Node000010"><a xlink:title=" ">
<path fill="none" stroke="orange" d="M336.66,-556.15C340.74,-520.58 353.01,-466.7 389.67,-439.75 424.35,-414.25 735.5,-434.32 776.67,-421.75 795.08,-416.13 795.39,-405.29 813.67,-399.25 896.31,-371.94 922.84,-395.68 1008.67,-381.25 1031.24,-377.46 1055.88,-371.67 1076.77,-366.26"/>
<polygon fill="orange" stroke="orange" points="333.19,-555.65 335.71,-565.94 340.16,-556.33 333.19,-555.65"/>
</a>
</g>
<text text-anchor="middle" x="878.17" y="-406.62" font-family="Helvetica,sans-Serif" font-size="10.00" fill="grey"> &lt; std::string, JSONProperty &gt;</text>
</g>
<!-- Node11 -->
<g id="Node000011" class="node">
<title>Node11</title>
<g id="a_Node000011"><a xlink:title=" ">
<polygon fill="white" stroke="none" points="358.67,-840 342.67,-840 342.67,-791 358.67,-791 358.67,-840"/>
<text text-anchor="start" x="347.29" y="-826.5" font-family="Helvetica,sans-Serif" font-size="10.00">K</text>
<text text-anchor="start" x="349.17" y="-811.5" font-family="Helvetica,sans-Serif" font-size="10.00"> </text>
<text text-anchor="start" x="349.17" y="-796.5" font-family="Helvetica,sans-Serif" font-size="10.00"> </text>
<polygon fill="#666666" stroke="#666666" points="342.67,-823 342.67,-823 358.67,-823 358.67,-823 342.67,-823"/>
<polygon fill="#666666" stroke="#666666" points="342.67,-808 342.67,-808 358.67,-808 358.67,-808 342.67,-808"/>
<polygon fill="none" stroke="#666666" points="342.67,-791 342.67,-840 358.67,-840 358.67,-791 342.67,-791"/>
</a>
</g>
</g>
<!-- Node11&#45;&gt;Node10 -->
<g id="edge13_Node000010_Node000011" class="edge">
<title>Node11&#45;&gt;Node10</title>
<g id="a_edge13_Node000010_Node000011"><a xlink:title=" ">
<path fill="none" stroke="#63b8ff" d="M348.99,-791.19C346.2,-752.51 340.59,-674.8 337.28,-628.94"/>
<polygon fill="none" stroke="#63b8ff" points="337.28,-628.95 332.86,-623.25 336.42,-616.98 340.84,-622.68 337.28,-628.95"/>
</a>
</g>
<text text-anchor="middle" x="361.92" y="-763.5" font-family="Helvetica,sans-Serif" font-size="10.00" fill="grey"> +keys</text>
</g>
<!-- Node12&#45;&gt;Node1 -->
<g id="edge15_Node000001_Node000012" class="edge">
<title>Node12&#45;&gt;Node1</title>
<g id="a_edge15_Node000001_Node000012"><a xlink:title=" ">
<path fill="none" stroke="#63b8ff" d="M578.51,-321.4C520.06,-285.65 419.82,-224.34 351.47,-182.53"/>
<polygon fill="none" stroke="#63b8ff" points="351.37,-182.47 344.16,-182.75 341.13,-176.21 348.34,-175.93 351.37,-182.47"/>
</a>
</g>
<text text-anchor="middle" x="582.79" y="-293.75" font-family="Helvetica,sans-Serif" font-size="10.00" fill="grey"> &#45;foreign_members</text>
</g>
<!-- Node13&#45;&gt;Node12 -->
<g id="edge17_Node000012_Node000013" class="edge">
<title>Node13&#45;&gt;Node12</title>
<g id="a_edge17_Node000012_Node000013"><a xlink:title=" ">
<path fill="none" stroke="#63b8ff" d="M930.41,-558.68C876.87,-526.65 794.38,-474.68 728.67,-421.75 717.53,-412.78 717.03,-407.94 705.67,-399.25 700.6,-395.37 695.18,-391.57 689.65,-387.92"/>
<polygon fill="none" stroke="#63b8ff" points="689.8,-388.01 682.59,-388.16 679.69,-381.56 686.89,-381.41 689.8,-388.01"/>
</a>
</g>
<text text-anchor="middle" x="752.67" y="-406.62" font-family="Helvetica,sans-Serif" font-size="10.00" fill="grey"> +elements</text>
</g>
<!-- Node13&#45;&gt;Node14 -->
<g id="edge21_Node000014_Node000013" class="edge">
<title>Node13&#45;&gt;Node14</title>
<g id="a_edge21_Node000014_Node000013"><a xlink:title=" ">
<path fill="none" stroke="#63b8ff" d="M1041.07,-479.33C1055.62,-452.53 1071.95,-424.4 1088.67,-399.25 1090.36,-396.71 1092.16,-394.13 1094.02,-391.57"/>
<polygon fill="none" stroke="#63b8ff" points="1094.09,-391.48 1094.52,-384.28 1101.33,-381.91 1100.9,-389.11 1094.09,-391.48"/>
</a>
</g>
<text text-anchor="middle" x="1112.67" y="-406.62" font-family="Helvetica,sans-Serif" font-size="10.00" fill="grey"> +elements</text>
</g>
<!-- Node13&#45;&gt;Node15 -->
<g id="edge24_Node000015_Node000013" class="edge">
<title>Node13&#45;&gt;Node15</title>
<g id="a_edge24_Node000015_Node000013"><a xlink:title=" ">
<path fill="none" stroke="#63b8ff" d="M950.02,-439.92C949.12,-433.8 948.33,-427.73 947.67,-421.75 946.57,-411.81 947.35,-409.24 947.67,-399.25 947.72,-397.5 947.79,-395.72 947.87,-393.92"/>
<polygon fill="none" stroke="#63b8ff" points="947.87,-393.95 944.18,-387.75 948.49,-381.97 952.17,-388.17 947.87,-393.95"/>
</a>
</g>
<text text-anchor="middle" x="971.67" y="-406.62" font-family="Helvetica,sans-Serif" font-size="10.00" fill="grey"> +elements</text>
</g>
<!-- Node14&#45;&gt;Node13 -->
<g id="edge19_Node000013_Node000014" class="edge">
<title>Node14&#45;&gt;Node13</title>
<g id="a_edge19_Node000013_Node000014"><a xlink:title=" ">
<path fill="none" stroke="#63b8ff" d="M1139.61,-380.95C1143.58,-393.73 1145.71,-408.79 1140.67,-421.75 1122.39,-468.72 1084.29,-510.56 1050.43,-540.86"/>
<polygon fill="none" stroke="#63b8ff" points="1050.73,-540.61 1048.84,-547.57 1041.69,-548.51 1043.58,-541.55 1050.73,-540.61"/>
</a>
</g>
<text text-anchor="middle" x="1159.54" y="-406.62" font-family="Helvetica,sans-Serif" font-size="10.00" fill="grey"> &#45;values</text>
</g>
<!-- Node15&#45;&gt;Node13 -->
<g id="edge23_Node000013_Node000015" class="edge">
<title>Node15&#45;&gt;Node13</title>
<g id="a_edge23_Node000013_Node000015"><a xlink:title=" ">
<path fill="none" stroke="#63b8ff" d="M987.74,-381C992.59,-386.51 996.85,-392.64 999.67,-399.25 1003.46,-408.15 1006.22,-417.5 1008.12,-427.07"/>
<polygon fill="none" stroke="#63b8ff" points="1008.11,-427.03 1013.01,-432.32 1010,-438.88 1005.11,-433.58 1008.11,-427.03"/>
</a>
</g>
<text text-anchor="middle" x="1028.92" y="-406.62" font-family="Helvetica,sans-Serif" font-size="10.00" fill="grey"> &#45;value_list</text>
</g>
</g>
</svg>
