<?xml version="1.0" encoding="UTF-8" standalone="no"?>
<!DOCTYPE svg PUBLIC "-//W3C//DTD SVG 1.1//EN"
 "http://www.w3.org/Graphics/SVG/1.1/DTD/svg11.dtd">
<!-- Generated by graphviz version 9.0.0 (20230911.1827)
 -->
<!-- Title: HY_HydroNexus Pages: 1 -->
<!--zoomable 595 -->

<svg id="main" version="1.1" xmlns="http://www.w3.org/2000/svg" xmlns:xlink="http://www.w3.org/1999/xlink" xml:space="preserve" onload="init(evt)">
<style type="text/css"><![CDATA[
.node, .edge {opacity: 0.7;}
.node.selected, .edge.selected {opacity: 1;}
.edge:hover path { stroke: red; }
.edge:hover polygon { stroke: red; fill: red; }
]]></style>

<defs>
  <circle id="rim" cx="0" cy="0" r="7"/>
  <circle id="rim2" cx="0" cy="0" r="3.5"/>
  <g id="zoomPlus">
    <use xlink:href="#rim" fill="#404040"><set attributeName="fill" to="#808080" begin="zoomplus.mouseover" end="zoomplus.mouseout"/></use>
    <path d="M-4,0h8M0,-4v8" fill="none" stroke="white" stroke-width="1.5" pointer-events="none"/>
  </g>
  <g id="zoomMin">
    <use xlink:href="#rim" fill="#404040"><set attributeName="fill" to="#808080" begin="zoomminus.mouseover" end="zoomminus.mouseout"/></use>
    <path d="M-4,0h8" fill="none" stroke="white" stroke-width="1.5" pointer-events="none"/>
  </g>
  <g id="arrowUp" transform="translate(30 24)">
    <use xlink:href="#rim"/>
    <path pointer-events="none" fill="none" stroke="white" stroke-width="1.5" d="M0,-3.0v7 M-2.5,-0.5L0,-3.0L2.5,-0.5"/>
  </g>
  <g id="arrowRight" transform="rotate(90) translate(36 -43)">
    <use xlink:href="#rim"/>
    <path pointer-events="none" fill="none" stroke="white" stroke-width="1.5" d="M0,-3.0v7 M-2.5,-0.5L0,-3.0L2.5,-0.5"/>
  </g>
  <g id="arrowDown" transform="rotate(180) translate(-30 -48)">
    <use xlink:href="#rim"/>
    <path pointer-events="none" fill="none" stroke="white" stroke-width="1.5" d="M0,-3.0v7 M-2.5,-0.5L0,-3.0L2.5,-0.5"/>
  </g>
  <g id="arrowLeft" transform="rotate(270) translate(-36 17)">
    <use xlink:href="#rim"/>
    <path pointer-events="none" fill="none" stroke="white" stroke-width="1.5" d="M0,-3.0v7 M-2.5,-0.5L0,-3.0L2.5,-0.5"/>
  </g>
  <g id="resetDef">
    <use xlink:href="#rim2" fill="#404040"><set attributeName="fill" to="#808080" begin="reset.mouseover" end="reset.mouseout"/></use>
  </g>
</defs>
<script type="application/ecmascript">
var viewWidth = 157;
var viewHeight = 595;
var sectionId = 'dynsection-0';
</script>
<script type="application/ecmascript" xlink:href="svg.min.js"/>
<svg id="graph" class="graph">
<g id="viewport">
<title>HY_HydroNexus</title>
<!-- Node1 -->
<g id="Node000001" class="node">
<title>Node1</title>
<g id="a_Node000001"><a xlink:title=" ">
<polygon fill="#999999" stroke="none" points="149,-587 0,-587 0,-291 149,-291 149,-587"/>
<text text-anchor="start" x="38.12" y="-573.5" font-family="Helvetica,sans-Serif" font-size="10.00">HY_HydroNexus</text>
<text text-anchor="start" x="4.38" y="-558.5" font-family="Helvetica,sans-Serif" font-size="10.00">#</text>
<text text-anchor="start" x="14" y="-558.5" font-family="Helvetica,sans-Serif" font-size="10.00">id</text>
<text text-anchor="start" x="5.5" y="-543.5" font-family="Helvetica,sans-Serif" font-size="10.00">&#45;</text>
<text text-anchor="start" x="14" y="-543.5" font-family="Helvetica,sans-Serif" font-size="10.00">realization</text>
<text text-anchor="start" x="5.5" y="-528.5" font-family="Helvetica,sans-Serif" font-size="10.00">&#45;</text>
<text text-anchor="start" x="14" y="-528.5" font-family="Helvetica,sans-Serif" font-size="10.00">receiving_catchments</text>
<text text-anchor="start" x="5.5" y="-513.5" font-family="Helvetica,sans-Serif" font-size="10.00">&#45;</text>
<text text-anchor="start" x="14" y="-513.5" font-family="Helvetica,sans-Serif" font-size="10.00">contributing_catchments</text>
<text text-anchor="start" x="5.5" y="-498.5" font-family="Helvetica,sans-Serif" font-size="10.00">&#45;</text>
<text text-anchor="start" x="14" y="-498.5" font-family="Helvetica,sans-Serif" font-size="10.00">number_of_downstream</text>
<text text-anchor="start" x="14" y="-487.25" font-family="Helvetica,sans-Serif" font-size="10.00">_catchments</text>
<text text-anchor="start" x="4" y="-472.5" font-family="Helvetica,sans-Serif" font-size="10.00">+</text>
<text text-anchor="start" x="14" y="-472.5" font-family="Helvetica,sans-Serif" font-size="10.00">HY_HydroNexus()</text>
<text text-anchor="start" x="4" y="-457.5" font-family="Helvetica,sans-Serif" font-size="10.00">+</text>
<text text-anchor="start" x="14" y="-457.5" font-family="Helvetica,sans-Serif" font-size="10.00">HY_HydroNexus()</text>
<text text-anchor="start" x="4" y="-442.5" font-family="Helvetica,sans-Serif" font-size="10.00">+</text>
<text text-anchor="start" x="14" y="-442.5" font-family="Helvetica,sans-Serif" font-size="10.00">HY_HydroNexus()</text>
<text text-anchor="start" x="4" y="-427.5" font-family="Helvetica,sans-Serif" font-size="10.00">+</text>
<text text-anchor="start" x="14" y="-427.5" font-family="Helvetica,sans-Serif" font-size="10.00">~HY_HydroNexus()</text>
<text text-anchor="start" x="4" y="-412.5" font-family="Helvetica,sans-Serif" font-size="10.00">+</text>
<text text-anchor="start" x="14" y="-412.5" font-family="Helvetica,sans-Serif" font-size="10.00">add_upstream_flow()</text>
<text text-anchor="start" x="4" y="-397.5" font-family="Helvetica,sans-Serif" font-size="10.00">+</text>
<text text-anchor="start" x="14" y="-397.5" font-family="Helvetica,sans-Serif" font-size="10.00">get_downstream_flow()</text>
<text text-anchor="start" x="4" y="-382.5" font-family="Helvetica,sans-Serif" font-size="10.00">+</text>
<text text-anchor="start" x="14" y="-382.5" font-family="Helvetica,sans-Serif" font-size="10.00">inspect_upstream_flows()</text>
<text text-anchor="start" x="4" y="-367.5" font-family="Helvetica,sans-Serif" font-size="10.00">+</text>
<text text-anchor="start" x="14" y="-367.5" font-family="Helvetica,sans-Serif" font-size="10.00">inspect_downstream</text>
<text text-anchor="start" x="14" y="-356.25" font-family="Helvetica,sans-Serif" font-size="10.00">_requests()</text>
<text text-anchor="start" x="4" y="-341.5" font-family="Helvetica,sans-Serif" font-size="10.00">+</text>
<text text-anchor="start" x="14" y="-341.5" font-family="Helvetica,sans-Serif" font-size="10.00">get_flow_units()</text>
<text text-anchor="start" x="4" y="-326.5" font-family="Helvetica,sans-Serif" font-size="10.00">+</text>
<text text-anchor="start" x="14" y="-326.5" font-family="Helvetica,sans-Serif" font-size="10.00">get_receiving_catchments()</text>
<text text-anchor="start" x="4" y="-311.5" font-family="Helvetica,sans-Serif" font-size="10.00">+</text>
<text text-anchor="start" x="14" y="-311.5" font-family="Helvetica,sans-Serif" font-size="10.00">get_contributing_catchments()</text>
<text text-anchor="start" x="4" y="-296.5" font-family="Helvetica,sans-Serif" font-size="10.00">+</text>
<text text-anchor="start" x="14" y="-296.5" font-family="Helvetica,sans-Serif" font-size="10.00">get_id()</text>
<polygon fill="#666666" stroke="#666666" points="0,-570 0,-570 149,-570 149,-570 0,-570"/>
<polygon fill="#666666" stroke="#666666" points="0,-484 0,-484 12,-484 12,-484 0,-484"/>
<polygon fill="#666666" stroke="#666666" points="12,-484 12,-484 149,-484 149,-484 12,-484"/>
<polygon fill="none" stroke="#666666" points="0,-291 0,-587 149,-587 149,-291 0,-291"/>
</a>
</g>
</g>
<!-- Node2 -->
<g id="Node000002" class="node">
<title>Node2</title>
<g id="a_Node000002"><a xlink:href="class_h_y___point_hydro_nexus.html" target="_top" xlink:title=" ">
<polygon fill="white" stroke="none" points="139,-255 10,-255 10,0 139,0 139,-255"/>
<text text-anchor="start" x="26.88" y="-241.5" font-family="Helvetica,sans-Serif" font-size="10.00">HY_PointHydroNexus</text>
<text text-anchor="start" x="14.38" y="-226.5" font-family="Helvetica,sans-Serif" font-size="10.00">#</text>
<text text-anchor="start" x="24" y="-226.5" font-family="Helvetica,sans-Serif" font-size="10.00">upstream_flows</text>
<text text-anchor="start" x="14.38" y="-211.5" font-family="Helvetica,sans-Serif" font-size="10.00">#</text>
<text text-anchor="start" x="24" y="-211.5" font-family="Helvetica,sans-Serif" font-size="10.00">downstream_requests</text>
<text text-anchor="start" x="14.38" y="-196.5" font-family="Helvetica,sans-Serif" font-size="10.00">#</text>
<text text-anchor="start" x="24" y="-196.5" font-family="Helvetica,sans-Serif" font-size="10.00">summed_flows</text>
<text text-anchor="start" x="14.38" y="-181.5" font-family="Helvetica,sans-Serif" font-size="10.00">#</text>
<text text-anchor="start" x="24" y="-181.5" font-family="Helvetica,sans-Serif" font-size="10.00">total_requests</text>
<text text-anchor="start" x="14.38" y="-166.5" font-family="Helvetica,sans-Serif" font-size="10.00">#</text>
<text text-anchor="start" x="24" y="-166.5" font-family="Helvetica,sans-Serif" font-size="10.00">min_timestep</text>
<text text-anchor="start" x="14.38" y="-151.5" font-family="Helvetica,sans-Serif" font-size="10.00">#</text>
<text text-anchor="start" x="24" y="-151.5" font-family="Helvetica,sans-Serif" font-size="10.00">completed</text>
<text text-anchor="start" x="14" y="-136.5" font-family="Helvetica,sans-Serif" font-size="10.00">+</text>
<text text-anchor="start" x="24" y="-136.5" font-family="Helvetica,sans-Serif" font-size="10.00">HY_PointHydroNexus()</text>
<text text-anchor="start" x="14" y="-121.5" font-family="Helvetica,sans-Serif" font-size="10.00">+</text>
<text text-anchor="start" x="24" y="-121.5" font-family="Helvetica,sans-Serif" font-size="10.00">HY_PointHydroNexus()</text>
<text text-anchor="start" x="14" y="-106.5" font-family="Helvetica,sans-Serif" font-size="10.00">+</text>
<text text-anchor="start" x="24" y="-106.5" font-family="Helvetica,sans-Serif" font-size="10.00">~HY_PointHydroNexus()</text>
<text text-anchor="start" x="14" y="-91.5" font-family="Helvetica,sans-Serif" font-size="10.00">+</text>
<text text-anchor="start" x="24" y="-91.5" font-family="Helvetica,sans-Serif" font-size="10.00">get_downstream_flow()</text>
<text text-anchor="start" x="14" y="-76.5" font-family="Helvetica,sans-Serif" font-size="10.00">+</text>
<text text-anchor="start" x="24" y="-76.5" font-family="Helvetica,sans-Serif" font-size="10.00">add_upstream_flow()</text>
<text text-anchor="start" x="14" y="-61.5" font-family="Helvetica,sans-Serif" font-size="10.00">+</text>
<text text-anchor="start" x="24" y="-61.5" font-family="Helvetica,sans-Serif" font-size="10.00">inspect_upstream_flows()</text>
<text text-anchor="start" x="14" y="-46.5" font-family="Helvetica,sans-Serif" font-size="10.00">+</text>
<text text-anchor="start" x="24" y="-46.5" font-family="Helvetica,sans-Serif" font-size="10.00">inspect_downstream</text>
<text text-anchor="start" x="24" y="-35.25" font-family="Helvetica,sans-Serif" font-size="10.00">_requests()</text>
<text text-anchor="start" x="14" y="-20.5" font-family="Helvetica,sans-Serif" font-size="10.00">+</text>
<text text-anchor="start" x="24" y="-20.5" font-family="Helvetica,sans-Serif" font-size="10.00">get_flow_units()</text>
<text text-anchor="start" x="14" y="-5.5" font-family="Helvetica,sans-Serif" font-size="10.00">+</text>
<text text-anchor="start" x="24" y="-5.5" font-family="Helvetica,sans-Serif" font-size="10.00">set_mintime()</text>
<polygon fill="#666666" stroke="#666666" points="10,-238 10,-238 139,-238 139,-238 10,-238"/>
<polygon fill="#666666" stroke="#666666" points="10,-148 10,-148 22,-148 22,-148 10,-148"/>
<polygon fill="#666666" stroke="#666666" points="22,-148 22,-148 139,-148 139,-148 22,-148"/>
<polygon fill="none" stroke="#666666" points="10,0 10,-255 139,-255 139,0 10,0"/>
</a>
</g>
</g>
<!-- Node1&#45;&gt;Node2 -->
<g id="edge1_Node000001_Node000002" class="edge">
<title>Node1&#45;&gt;Node2</title>
<g id="a_edge1_Node000001_Node000002"><a xlink:title=" ">
<path fill="none" stroke="#63b8ff" d="M74.5,-279.97C74.5,-271.58 74.5,-263.21 74.5,-254.95"/>
<polygon fill="none" stroke="#63b8ff" points="71,-279.89 74.5,-289.89 78,-279.89 71,-279.89"/>
</a>
</g>
</g>
</g>
</svg>

<g id="navigator" transform="translate(0 0)" fill="#404254">
  <rect fill="#f2f5e9" fill-opacity="0.5" stroke="#606060" stroke-width=".5" x="0" y="0" width="60" height="60"/>
  <use id="zoomplus" xlink:href="#zoomPlus" x="17" y="9" onmousedown="handleZoom(evt,'in')"/>
  <use id="zoomminus" xlink:href="#zoomMin" x="42" y="9" onmousedown="handleZoom(evt,'out')"/>
  <use id="reset" xlink:href="#resetDef" x="30" y="36" onmousedown="handleReset()"/>
   <use id="arrowup" xlink:href="#arrowUp" x="0" y="0" onmousedown="handlePan(0,-1)"/>
  <use id="arrowright" xlink:href="#arrowRight" x="0" y="0" onmousedown="handlePan(1,0)"/>
  <use id="arrowdown" xlink:href="#arrowDown" x="0" y="0" onmousedown="handlePan(0,1)"/>
  <use id="arrowleft" xlink:href="#arrowLeft" x="0" y="0" onmousedown="handlePan(-1,0)"/>
</g>
<svg viewBox="0 0 15 15" width="100%" height="30px" preserveAspectRatio="xMaxYMin meet">
 <g id="arrow_out" transform="scale(0.3 0.3)">
  <a xlink:href="class_h_y___hydro_nexus__inherit__graph_org.svg" target="_base">
   <rect id="button" ry="5" rx="5" y="6" x="6" height="38" width="38"
        fill="#f2f5e9" fill-opacity="0.5" stroke="#606060" stroke-width="1.0"/>
   <path id="arrow"
     d="M 11.500037,31.436501 C 11.940474,20.09759 22.043105,11.32322 32.158766,21.979434 L 37.068811,17.246167 C 37.068811,17.246167 37.088388,32 37.088388,32 L 22.160133,31.978069 C 22.160133,31.978069 26.997745,27.140456 26.997745,27.140456 C 18.528582,18.264221 13.291696,25.230495 11.500037,31.436501 z"
     style="fill:#404040;"/>
  </a>
 </g>
</svg>

<style type='text/css'>
<![CDATA[
[data-mouse-over-selected='false'] { opacity: 0.7; }
[data-mouse-over-selected='true']  { opacity: 1.0; }
]]>
</style>
<script type="application/ecmascript"><![CDATA[
document.addEventListener('DOMContentLoaded', (event) => {
  highlightEdges();
  highlightAdjacentNodes();
});
]]></script>
</svg>
