<?xml version="1.0" encoding="UTF-8" standalone="no"?>
<!DOCTYPE svg PUBLIC "-//W3C//DTD SVG 1.1//EN"
 "http://www.w3.org/Graphics/SVG/1.1/DTD/svg11.dtd">
<!-- Generated by graphviz version 2.49.3 (20211027.1534)
 -->
<!-- Title: realization::Catchment_Formulation Pages: 1 -->
<!--zoomable 1421 -->
<svg id="main" version="1.1" xmlns="http://www.w3.org/2000/svg" xmlns:xlink="http://www.w3.org/1999/xlink" xml:space="preserve" onload="init(evt)">
<style type="text/css"><![CDATA[
.edge:hover path { stroke: red; }
.edge:hover polygon { stroke: red; fill: red; }
]]></style>
<script type="text/javascript"><![CDATA[
var edges = document.getElementsByTagName('g');
if (edges && edges.length) {
  for (var i=0;i<edges.length;i++) {
    if (edges[i].id.substr(0,4)=='edge') {
      edges[i].setAttribute('class','edge');
    }
  }
}
]]></script>
        <defs>
                <circle id="rim" cx="0" cy="0" r="7"/>
                <circle id="rim2" cx="0" cy="0" r="3.5"/>
                <g id="zoomPlus">
                        <use xlink:href="#rim" fill="#404040">
                                <set attributeName="fill" to="#808080" begin="zoomplus.mouseover" end="zoomplus.mouseout"/>
                        </use>
                        <path d="M-4,0h8M0,-4v8" fill="none" stroke="white" stroke-width="1.5" pointer-events="none"/>
                </g>
                <g id="zoomMin">
                        <use xlink:href="#rim" fill="#404040">
                                <set attributeName="fill" to="#808080" begin="zoomminus.mouseover" end="zoomminus.mouseout"/>
                        </use>
                        <path d="M-4,0h8" fill="none" stroke="white" stroke-width="1.5" pointer-events="none"/>
                </g>
                <g id="dirArrow">
                        <path fill="none" stroke="white" stroke-width="1.5" d="M0,-3.0v7 M-2.5,-0.5L0,-3.0L2.5,-0.5"/>
                </g>
               <g id="resetDef">
                       <use xlink:href="#rim2" fill="#404040">
                               <set attributeName="fill" to="#808080" begin="reset.mouseover" end="reset.mouseout"/>
                       </use>
               </g>
        </defs>

<script type="text/javascript">
var viewWidth = 897;
var viewHeight = 1421;
var sectionId = 'dynsection-1';
</script>
<script xlink:href="svgpan.js"/>
<svg id="graph" class="graph">
<g id="viewport">
<title>realization::Catchment_Formulation</title>
<polygon fill="white" stroke="transparent" points="-4,4 -4,-1417 893,-1417 893,4 -4,4"/>
<!-- Node1 -->
<g id="node1" class="node">
<title>Node1</title>
<g id="a_node1"><a xlink:title=" ">
<polygon fill="#bfbfbf" stroke="black" points="340.5,-0.5 340.5,-189.5 487.5,-189.5 487.5,-0.5 340.5,-0.5"/>
<text text-anchor="start" x="348.5" y="-177.5" font-family="Helvetica,sans-Serif" font-size="10.00">realization::Catchment</text>
<text text-anchor="middle" x="414" y="-166.5" font-family="Helvetica,sans-Serif" font-size="10.00">_Formulation</text>
<polyline fill="none" stroke="black" points="340.5,-159.5 487.5,-159.5 "/>
<text text-anchor="middle" x="414" y="-147.5" font-family="Helvetica,sans-Serif" font-size="10.00"> </text>
<polyline fill="none" stroke="black" points="340.5,-140.5 487.5,-140.5 "/>
<text text-anchor="start" x="348.5" y="-128.5" font-family="Helvetica,sans-Serif" font-size="10.00">+ Catchment_Formulation()</text>
<text text-anchor="start" x="348.5" y="-117.5" font-family="Helvetica,sans-Serif" font-size="10.00">+ Catchment_Formulation()</text>
<text text-anchor="start" x="348.5" y="-106.5" font-family="Helvetica,sans-Serif" font-size="10.00">+ get_output_header_line()</text>
<text text-anchor="start" x="348.5" y="-95.5" font-family="Helvetica,sans-Serif" font-size="10.00">+ get_response()</text>
<text text-anchor="start" x="348.5" y="-84.5" font-family="Helvetica,sans-Serif" font-size="10.00">+ get_required_parameters()</text>
<text text-anchor="start" x="348.5" y="-73.5" font-family="Helvetica,sans-Serif" font-size="10.00">+ create_formulation()</text>
<text text-anchor="start" x="348.5" y="-62.5" font-family="Helvetica,sans-Serif" font-size="10.00">+ create_formulation()</text>
<text text-anchor="start" x="348.5" y="-51.5" font-family="Helvetica,sans-Serif" font-size="10.00">+ ~Catchment_Formulation()</text>
<text text-anchor="start" x="348.5" y="-40.5" font-family="Helvetica,sans-Serif" font-size="10.00">+ config_pattern_substitution()</text>
<text text-anchor="start" x="348.5" y="-29.5" font-family="Helvetica,sans-Serif" font-size="10.00"># get_catchment_id()</text>
<text text-anchor="start" x="348.5" y="-18.5" font-family="Helvetica,sans-Serif" font-size="10.00"># set_catchment_id()</text>
<text text-anchor="start" x="348.5" y="-7.5" font-family="Helvetica,sans-Serif" font-size="10.00"># _link_legacy_forcing()</text>
</a>
</g>
</g>
<!-- Node2 -->
<g id="node2" class="node">
<title>Node2</title>
<g id="a_node2"><a xlink:href="classrealization_1_1_formulation.html" target="_top" xlink:title=" ">
<polygon fill="white" stroke="black" points="454.5,-402.5 454.5,-602.5 591.5,-602.5 591.5,-402.5 454.5,-402.5"/>
<text text-anchor="middle" x="523" y="-590.5" font-family="Helvetica,sans-Serif" font-size="10.00">realization::Formulation</text>
<polyline fill="none" stroke="black" points="454.5,-583.5 591.5,-583.5 "/>
<text text-anchor="middle" x="523" y="-571.5" font-family="Helvetica,sans-Serif" font-size="10.00"> </text>
<polyline fill="none" stroke="black" points="454.5,-564.5 591.5,-564.5 "/>
<text text-anchor="start" x="462.5" y="-552.5" font-family="Helvetica,sans-Serif" font-size="10.00">+ Formulation()</text>
<text text-anchor="start" x="462.5" y="-541.5" font-family="Helvetica,sans-Serif" font-size="10.00">+ ~Formulation()</text>
<text text-anchor="start" x="462.5" y="-530.5" font-family="Helvetica,sans-Serif" font-size="10.00">+ get_formulation_type()</text>
<text text-anchor="start" x="462.5" y="-519.5" font-family="Helvetica,sans-Serif" font-size="10.00">+ get_response()</text>
<text text-anchor="start" x="462.5" y="-508.5" font-family="Helvetica,sans-Serif" font-size="10.00">+ add_time()</text>
<text text-anchor="start" x="462.5" y="-497.5" font-family="Helvetica,sans-Serif" font-size="10.00">+ get_id()</text>
<text text-anchor="start" x="462.5" y="-486.5" font-family="Helvetica,sans-Serif" font-size="10.00">+ get_output_header_line()</text>
<text text-anchor="start" x="462.5" y="-475.5" font-family="Helvetica,sans-Serif" font-size="10.00">+ get_output_line_for</text>
<text text-anchor="start" x="462.5" y="-464.5" font-family="Helvetica,sans-Serif" font-size="10.00">_timestep()</text>
<text text-anchor="start" x="462.5" y="-453.5" font-family="Helvetica,sans-Serif" font-size="10.00">+ create_formulation()</text>
<text text-anchor="start" x="462.5" y="-442.5" font-family="Helvetica,sans-Serif" font-size="10.00">+ create_formulation()</text>
<text text-anchor="start" x="462.5" y="-431.5" font-family="Helvetica,sans-Serif" font-size="10.00"># get_required_parameters()</text>
<text text-anchor="start" x="462.5" y="-420.5" font-family="Helvetica,sans-Serif" font-size="10.00"># interpret_parameters()</text>
<text text-anchor="start" x="462.5" y="-409.5" font-family="Helvetica,sans-Serif" font-size="10.00"># validate_parameters()</text>
</a>
</g>
</g>
<!-- Node2&#45;&gt;Node1 -->
<g id="edge1" class="edge">
<title>Node2&#45;&gt;Node1</title>
<path fill="none" stroke="midnightblue" d="M493.64,-392.28C476.63,-328.98 455.42,-250.1 439.17,-189.65"/>
<polygon fill="none" stroke="midnightblue" points="490.36,-393.55 496.34,-402.3 497.12,-391.74 490.36,-393.55"/>
</g>
<!-- Node3 -->
<g id="node3" class="node">
<title>Node3</title>
<g id="a_node3"><a xlink:href="classrealization_1_1_et___aware.html" target="_top" xlink:title="Interface for type that is aware of parameters for evapotranspiration in certain calculations,...">
<polygon fill="white" stroke="black" points="394,-848.5 394,-938.5 502,-938.5 502,-848.5 394,-848.5"/>
<text text-anchor="middle" x="448" y="-926.5" font-family="Helvetica,sans-Serif" font-size="10.00">realization::Et_Aware</text>
<polyline fill="none" stroke="black" points="394,-919.5 502,-919.5 "/>
<text text-anchor="middle" x="448" y="-907.5" font-family="Helvetica,sans-Serif" font-size="10.00"> </text>
<polyline fill="none" stroke="black" points="394,-900.5 502,-900.5 "/>
<text text-anchor="start" x="402" y="-888.5" font-family="Helvetica,sans-Serif" font-size="10.00">+ Et_Aware()</text>
<text text-anchor="start" x="402" y="-877.5" font-family="Helvetica,sans-Serif" font-size="10.00">+ ~Et_Aware()</text>
<text text-anchor="start" x="402" y="-866.5" font-family="Helvetica,sans-Serif" font-size="10.00">+ is_et_params_set()</text>
<text text-anchor="start" x="402" y="-855.5" font-family="Helvetica,sans-Serif" font-size="10.00">+ set_et_params()</text>
</a>
</g>
</g>
<!-- Node3&#45;&gt;Node2 -->
<g id="edge2" class="edge">
<title>Node3&#45;&gt;Node2</title>
<path fill="none" stroke="midnightblue" d="M458.49,-838.1C470.21,-777.29 489.45,-677.53 503.87,-602.74"/>
<polygon fill="none" stroke="midnightblue" points="454.99,-837.77 456.53,-848.26 461.86,-839.1 454.99,-837.77"/>
</g>
<!-- Node10 -->
<g id="node10" class="node">
<title>Node10</title>
<g id="a_node10"><a xlink:href="classrealization_1_1_et___accountable.html" target="_top" xlink:title="Interface for type that is able to account for evapotranspiration in certain calculations,...">
<polygon fill="white" stroke="black" points="303.5,-441 303.5,-564 436.5,-564 436.5,-441 303.5,-441"/>
<text text-anchor="middle" x="370" y="-552" font-family="Helvetica,sans-Serif" font-size="10.00">realization::Et_Accountable</text>
<polyline fill="none" stroke="black" points="303.5,-545 436.5,-545 "/>
<text text-anchor="start" x="311.5" y="-533" font-family="Helvetica,sans-Serif" font-size="10.00">&#45; et_params</text>
<polyline fill="none" stroke="black" points="303.5,-526 436.5,-526 "/>
<text text-anchor="start" x="311.5" y="-514" font-family="Helvetica,sans-Serif" font-size="10.00">+ Et_Accountable()</text>
<text text-anchor="start" x="311.5" y="-503" font-family="Helvetica,sans-Serif" font-size="10.00">+ ~Et_Accountable()</text>
<text text-anchor="start" x="311.5" y="-492" font-family="Helvetica,sans-Serif" font-size="10.00">+ calc_et()</text>
<text text-anchor="start" x="311.5" y="-481" font-family="Helvetica,sans-Serif" font-size="10.00">+ get_et_params()</text>
<text text-anchor="start" x="311.5" y="-470" font-family="Helvetica,sans-Serif" font-size="10.00">+ is_et_params_set()</text>
<text text-anchor="start" x="311.5" y="-459" font-family="Helvetica,sans-Serif" font-size="10.00">+ set_et_params()</text>
<text text-anchor="start" x="311.5" y="-448" font-family="Helvetica,sans-Serif" font-size="10.00"># get_et_params_ptr()</text>
</a>
</g>
</g>
<!-- Node3&#45;&gt;Node10 -->
<g id="edge11" class="edge">
<title>Node3&#45;&gt;Node10</title>
<path fill="none" stroke="midnightblue" d="M437.08,-838.03C422.63,-765.98 397.24,-639.35 382.19,-564.27"/>
<polygon fill="none" stroke="midnightblue" points="433.73,-839.14 439.13,-848.26 440.59,-837.76 433.73,-839.14"/>
</g>
<!-- Node4 -->
<g id="node4" class="node">
<title>Node4</title>
<g id="a_node4"><a xlink:title=" ">
<polygon fill="white" stroke="#bfbfbf" points="508.5,-1074.5 508.5,-1131.5 567.5,-1131.5 567.5,-1074.5 508.5,-1074.5"/>
<text text-anchor="middle" x="538" y="-1119.5" font-family="Helvetica,sans-Serif" font-size="10.00">std::string</text>
<polyline fill="none" stroke="#bfbfbf" points="508.5,-1112.5 567.5,-1112.5 "/>
<text text-anchor="middle" x="538" y="-1100.5" font-family="Helvetica,sans-Serif" font-size="10.00"> </text>
<polyline fill="none" stroke="#bfbfbf" points="508.5,-1093.5 567.5,-1093.5 "/>
<text text-anchor="middle" x="538" y="-1081.5" font-family="Helvetica,sans-Serif" font-size="10.00"> </text>
</a>
</g>
</g>
<!-- Node4&#45;&gt;Node2 -->
<g id="edge3" class="edge">
<title>Node4&#45;&gt;Node2</title>
<path fill="none" stroke="#404040" d="M537.31,-1074.33C535.29,-993.91 529.35,-756.93 525.79,-614.85"/>
<polygon fill="none" stroke="#404040" points="525.79,-614.67 521.64,-608.77 525.49,-602.68 529.63,-608.57 525.79,-614.67"/>
<text text-anchor="middle" x="543" y="-891" font-family="Helvetica,sans-Serif" font-size="10.00"> #id</text>
</g>
<!-- Node9 -->
<g id="node9" class="node">
<title>Node9</title>
<g id="a_node9"><a xlink:href="classutils_1_1_stream_handler.html" target="_top" xlink:title="This class provides a copyable interface to a std::ostream or std::ostream like object that may not s...">
<polygon fill="white" stroke="black" points="272,-815.5 272,-971.5 376,-971.5 376,-815.5 272,-815.5"/>
<text text-anchor="middle" x="324" y="-959.5" font-family="Helvetica,sans-Serif" font-size="10.00">utils::StreamHandler</text>
<polyline fill="none" stroke="black" points="272,-952.5 376,-952.5 "/>
<text text-anchor="start" x="280" y="-940.5" font-family="Helvetica,sans-Serif" font-size="10.00"># output_stream</text>
<polyline fill="none" stroke="black" points="272,-933.5 376,-933.5 "/>
<text text-anchor="start" x="280" y="-921.5" font-family="Helvetica,sans-Serif" font-size="10.00">+ StreamHandler()</text>
<text text-anchor="start" x="280" y="-910.5" font-family="Helvetica,sans-Serif" font-size="10.00">+ StreamHandler()</text>
<text text-anchor="start" x="280" y="-899.5" font-family="Helvetica,sans-Serif" font-size="10.00">+ StreamHandler()</text>
<text text-anchor="start" x="280" y="-888.5" font-family="Helvetica,sans-Serif" font-size="10.00">+ StreamHandler()</text>
<text text-anchor="start" x="280" y="-877.5" font-family="Helvetica,sans-Serif" font-size="10.00">+ ~StreamHandler()</text>
<text text-anchor="start" x="280" y="-866.5" font-family="Helvetica,sans-Serif" font-size="10.00">+ operator=()</text>
<text text-anchor="start" x="280" y="-855.5" font-family="Helvetica,sans-Serif" font-size="10.00">+ put()</text>
<text text-anchor="start" x="280" y="-844.5" font-family="Helvetica,sans-Serif" font-size="10.00">+ put_indexed()</text>
<text text-anchor="start" x="280" y="-833.5" font-family="Helvetica,sans-Serif" font-size="10.00">+ put_var()</text>
<text text-anchor="start" x="280" y="-822.5" font-family="Helvetica,sans-Serif" font-size="10.00">+ operator&lt;&lt;()</text>
</a>
</g>
</g>
<!-- Node4&#45;&gt;Node9 -->
<g id="edge9" class="edge">
<title>Node4&#45;&gt;Node9</title>
<path fill="none" stroke="#404040" d="M508.29,-1079.65C476.29,-1054.94 424.66,-1013.17 385,-972 384.81,-971.81 384.63,-971.61 384.44,-971.42"/>
<polygon fill="none" stroke="#404040" points="384.25,-971.21 377.24,-969.52 376.11,-962.4 383.12,-964.09 384.25,-971.21"/>
<text text-anchor="middle" x="425" y="-993" font-family="Helvetica,sans-Serif" font-size="10.00"> #sep</text>
</g>
<!-- Node11 -->
<g id="node11" class="node">
<title>Node11</title>
<g id="a_node11"><a xlink:href="class_forcing.html" target="_top" xlink:title="Forcing class providing time&#45;series precipiation forcing data to the model.">
<polygon fill="white" stroke="black" points="610,-237.5 610,-767.5 750,-767.5 750,-237.5 610,-237.5"/>
<text text-anchor="middle" x="680" y="-755.5" font-family="Helvetica,sans-Serif" font-size="10.00">Forcing</text>
<polyline fill="none" stroke="black" points="610,-748.5 750,-748.5 "/>
<text text-anchor="start" x="618" y="-736.5" font-family="Helvetica,sans-Serif" font-size="10.00">&#45; available_forcings</text>
<text text-anchor="start" x="618" y="-725.5" font-family="Helvetica,sans-Serif" font-size="10.00">&#45; AORC_vector</text>
<text text-anchor="start" x="618" y="-714.5" font-family="Helvetica,sans-Serif" font-size="10.00">&#45; is_aorc_data</text>
<text text-anchor="start" x="618" y="-703.5" font-family="Helvetica,sans-Serif" font-size="10.00">&#45; precipitation_rate</text>
<text text-anchor="start" x="618" y="-692.5" font-family="Helvetica,sans-Serif" font-size="10.00">_meters_per_second_vector</text>
<text text-anchor="start" x="618" y="-681.5" font-family="Helvetica,sans-Serif" font-size="10.00">&#45; time_epoch_vector</text>
<text text-anchor="start" x="618" y="-670.5" font-family="Helvetica,sans-Serif" font-size="10.00">&#45; forcing_vector_index</text>
<text text-anchor="start" x="618" y="-659.5" font-family="Helvetica,sans-Serif" font-size="10.00">&#45; precipitation_rate</text>
<text text-anchor="start" x="618" y="-648.5" font-family="Helvetica,sans-Serif" font-size="10.00">_meters_per_second</text>
<text text-anchor="start" x="618" y="-637.5" font-family="Helvetica,sans-Serif" font-size="10.00">&#45; air_temperature_fahrenheit</text>
<text text-anchor="start" x="618" y="-626.5" font-family="Helvetica,sans-Serif" font-size="10.00">&#45; latitude</text>
<text text-anchor="start" x="618" y="-615.5" font-family="Helvetica,sans-Serif" font-size="10.00">&#45; longitude</text>
<text text-anchor="start" x="618" y="-604.5" font-family="Helvetica,sans-Serif" font-size="10.00">&#45; catchment_id</text>
<text text-anchor="start" x="618" y="-593.5" font-family="Helvetica,sans-Serif" font-size="10.00">&#45; day_of_year</text>
<text text-anchor="start" x="618" y="-582.5" font-family="Helvetica,sans-Serif" font-size="10.00">&#45; start_date_time</text>
<text text-anchor="start" x="618" y="-571.5" font-family="Helvetica,sans-Serif" font-size="10.00">&#45; end_date_time</text>
<text text-anchor="start" x="618" y="-560.5" font-family="Helvetica,sans-Serif" font-size="10.00">&#45; start_date_time_epoch</text>
<text text-anchor="start" x="618" y="-549.5" font-family="Helvetica,sans-Serif" font-size="10.00">&#45; end_date_time_epoch</text>
<text text-anchor="start" x="618" y="-538.5" font-family="Helvetica,sans-Serif" font-size="10.00">&#45; current_date_time_epoch</text>
<polyline fill="none" stroke="black" points="610,-531.5 750,-531.5 "/>
<text text-anchor="start" x="618" y="-519.5" font-family="Helvetica,sans-Serif" font-size="10.00">+ Forcing()</text>
<text text-anchor="start" x="618" y="-508.5" font-family="Helvetica,sans-Serif" font-size="10.00">+ Forcing()</text>
<text text-anchor="start" x="618" y="-497.5" font-family="Helvetica,sans-Serif" font-size="10.00">+ Forcing()</text>
<text text-anchor="start" x="618" y="-486.5" font-family="Helvetica,sans-Serif" font-size="10.00">+ get_aorc_for_index()</text>
<text text-anchor="start" x="618" y="-475.5" font-family="Helvetica,sans-Serif" font-size="10.00">+ get_available_forcing</text>
<text text-anchor="start" x="618" y="-464.5" font-family="Helvetica,sans-Serif" font-size="10.00">_outputs()</text>
<text text-anchor="start" x="618" y="-453.5" font-family="Helvetica,sans-Serif" font-size="10.00">+ get_avaliable_variable</text>
<text text-anchor="start" x="618" y="-442.5" font-family="Helvetica,sans-Serif" font-size="10.00">_names()</text>
<text text-anchor="start" x="618" y="-431.5" font-family="Helvetica,sans-Serif" font-size="10.00">+ get_converted_value</text>
<text text-anchor="start" x="618" y="-420.5" font-family="Helvetica,sans-Serif" font-size="10.00">_for_param_in_units()</text>
<text text-anchor="start" x="618" y="-409.5" font-family="Helvetica,sans-Serif" font-size="10.00">+ get_converted_value</text>
<text text-anchor="start" x="618" y="-398.5" font-family="Helvetica,sans-Serif" font-size="10.00">_for_param_in_units()</text>
<text text-anchor="start" x="618" y="-387.5" font-family="Helvetica,sans-Serif" font-size="10.00">+ get_forcing_output</text>
<text text-anchor="start" x="618" y="-376.5" font-family="Helvetica,sans-Serif" font-size="10.00">_time_begin()</text>
<text text-anchor="start" x="618" y="-365.5" font-family="Helvetica,sans-Serif" font-size="10.00">+ get_data_start_time()</text>
<text text-anchor="start" x="618" y="-354.5" font-family="Helvetica,sans-Serif" font-size="10.00">+ get_forcing_output</text>
<text text-anchor="start" x="618" y="-343.5" font-family="Helvetica,sans-Serif" font-size="10.00">_time_end()</text>
<text text-anchor="start" x="618" y="-332.5" font-family="Helvetica,sans-Serif" font-size="10.00">+ get_data_stop_time()</text>
<text text-anchor="start" x="618" y="-321.5" font-family="Helvetica,sans-Serif" font-size="10.00">+ get_ts_index_for_time()</text>
<text text-anchor="start" x="618" y="-310.5" font-family="Helvetica,sans-Serif" font-size="10.00">+ get_value()</text>
<text text-anchor="start" x="618" y="-299.5" font-family="Helvetica,sans-Serif" font-size="10.00">+ get_value_for_param</text>
<text text-anchor="start" x="618" y="-288.5" font-family="Helvetica,sans-Serif" font-size="10.00">_name()</text>
<text text-anchor="start" x="618" y="-277.5" font-family="Helvetica,sans-Serif" font-size="10.00">and 19 more...</text>
<text text-anchor="start" x="618" y="-266.5" font-family="Helvetica,sans-Serif" font-size="10.00">+ get_forcing_field_names()</text>
<text text-anchor="start" x="618" y="-255.5" font-family="Helvetica,sans-Serif" font-size="10.00">&#45; read_forcing()</text>
<text text-anchor="start" x="618" y="-244.5" font-family="Helvetica,sans-Serif" font-size="10.00">&#45; read_forcing_aorc()</text>
</a>
</g>
</g>
<!-- Node4&#45;&gt;Node11 -->
<g id="edge16" class="edge">
<title>Node4&#45;&gt;Node11</title>
<path fill="none" stroke="#404040" d="M543.63,-1074.21C554.12,-1022.88 577.61,-909.75 600,-815 602.74,-803.39 605.59,-791.54 608.5,-779.58"/>
<polygon fill="none" stroke="#404040" points="608.58,-779.24 606.12,-772.47 611.42,-767.59 613.89,-774.36 608.58,-779.24"/>
<text text-anchor="middle" x="641" y="-891" font-family="Helvetica,sans-Serif" font-size="10.00"> &#45;forcing_file_name</text>
</g>
<!-- Node5 -->
<g id="node5" class="node">
<title>Node5</title>
<g id="a_node5"><a xlink:title=" ">
<polygon fill="white" stroke="#bfbfbf" points="491.5,-1295 491.5,-1363 584.5,-1363 584.5,-1295 491.5,-1295"/>
<text text-anchor="start" x="499.5" y="-1351" font-family="Helvetica,sans-Serif" font-size="10.00">std::basic_string&lt;</text>
<text text-anchor="middle" x="538" y="-1340" font-family="Helvetica,sans-Serif" font-size="10.00"> Char &gt;</text>
<polyline fill="none" stroke="#bfbfbf" points="491.5,-1333 584.5,-1333 "/>
<text text-anchor="middle" x="538" y="-1321" font-family="Helvetica,sans-Serif" font-size="10.00"> </text>
<polyline fill="none" stroke="#bfbfbf" points="491.5,-1314 584.5,-1314 "/>
<text text-anchor="middle" x="538" y="-1302" font-family="Helvetica,sans-Serif" font-size="10.00"> </text>
</a>
</g>
</g>
<!-- Node5&#45;&gt;Node4 -->
<g id="edge4" class="edge">
<title>Node5&#45;&gt;Node4</title>
<path fill="none" stroke="midnightblue" d="M538,-1284.85C538,-1239.59 538,-1169.84 538,-1131.54"/>
<polygon fill="none" stroke="midnightblue" points="534.5,-1284.95 538,-1294.95 541.5,-1284.95 534.5,-1284.95"/>
</g>
<!-- Node6 -->
<g id="node6" class="node">
<title>Node6</title>
<g id="a_node6"><a xlink:href="class_h_y___catchment_area.html" target="_top" xlink:title=" ">
<polygon fill="white" stroke="black" points="147.5,-452 147.5,-553 270.5,-553 270.5,-452 147.5,-452"/>
<text text-anchor="middle" x="209" y="-541" font-family="Helvetica,sans-Serif" font-size="10.00">HY_CatchmentArea</text>
<polyline fill="none" stroke="black" points="147.5,-534 270.5,-534 "/>
<text text-anchor="start" x="155.5" y="-522" font-family="Helvetica,sans-Serif" font-size="10.00"># bounds</text>
<polyline fill="none" stroke="black" points="147.5,-515 270.5,-515 "/>
<text text-anchor="start" x="155.5" y="-503" font-family="Helvetica,sans-Serif" font-size="10.00">+ HY_CatchmentArea()</text>
<text text-anchor="start" x="155.5" y="-492" font-family="Helvetica,sans-Serif" font-size="10.00">+ HY_CatchmentArea()</text>
<text text-anchor="start" x="155.5" y="-481" font-family="Helvetica,sans-Serif" font-size="10.00">+ set_output_stream()</text>
<text text-anchor="start" x="155.5" y="-470" font-family="Helvetica,sans-Serif" font-size="10.00">+ write_output()</text>
<text text-anchor="start" x="155.5" y="-459" font-family="Helvetica,sans-Serif" font-size="10.00">+ ~HY_CatchmentArea()</text>
</a>
</g>
</g>
<!-- Node6&#45;&gt;Node1 -->
<g id="edge5" class="edge">
<title>Node6&#45;&gt;Node1</title>
<path fill="none" stroke="midnightblue" d="M221.07,-441.84C233.9,-386.37 257.44,-302.66 294,-237 306.67,-214.25 323.33,-191.78 340.19,-171.69"/>
<polygon fill="none" stroke="midnightblue" points="217.6,-441.33 218.8,-451.85 224.42,-442.88 217.6,-441.33"/>
</g>
<!-- Node7 -->
<g id="node7" class="node">
<title>Node7</title>
<g id="a_node7"><a xlink:href="class_h_y___catchment_realization.html" target="_top" xlink:title=" ">
<polygon fill="white" stroke="black" points="104,-826.5 104,-960.5 254,-960.5 254,-826.5 104,-826.5"/>
<text text-anchor="middle" x="179" y="-948.5" font-family="Helvetica,sans-Serif" font-size="10.00">HY_CatchmentRealization</text>
<polyline fill="none" stroke="black" points="104,-941.5 254,-941.5 "/>
<text text-anchor="start" x="112" y="-929.5" font-family="Helvetica,sans-Serif" font-size="10.00"># realized_catchment</text>
<text text-anchor="start" x="112" y="-918.5" font-family="Helvetica,sans-Serif" font-size="10.00"># id_number</text>
<text text-anchor="start" x="112" y="-907.5" font-family="Helvetica,sans-Serif" font-size="10.00"># forcing</text>
<polyline fill="none" stroke="black" points="104,-900.5 254,-900.5 "/>
<text text-anchor="start" x="112" y="-888.5" font-family="Helvetica,sans-Serif" font-size="10.00">+ HY_CatchmentRealization()</text>
<text text-anchor="start" x="112" y="-877.5" font-family="Helvetica,sans-Serif" font-size="10.00">+ HY_CatchmentRealization()</text>
<text text-anchor="start" x="112" y="-866.5" font-family="Helvetica,sans-Serif" font-size="10.00">+ ~HY_CatchmentRealization()</text>
<text text-anchor="start" x="112" y="-855.5" font-family="Helvetica,sans-Serif" font-size="10.00">+ get_response()</text>
<text text-anchor="start" x="112" y="-844.5" font-family="Helvetica,sans-Serif" font-size="10.00"># get_catchment_id()</text>
<text text-anchor="start" x="112" y="-833.5" font-family="Helvetica,sans-Serif" font-size="10.00"># set_catchment_id()</text>
</a>
</g>
</g>
<!-- Node7&#45;&gt;Node6 -->
<g id="edge6" class="edge">
<title>Node7&#45;&gt;Node6</title>
<path fill="none" stroke="midnightblue" d="M184.91,-815.84C190.92,-737.99 200.04,-619.71 205.16,-553.28"/>
<polygon fill="none" stroke="midnightblue" points="181.4,-815.83 184.12,-826.07 188.38,-816.37 181.4,-815.83"/>
</g>
<!-- Node8 -->
<g id="node8" class="node">
<title>Node8</title>
<g id="a_node8"><a xlink:href="class_g_m___object.html" target="_top" xlink:title=" ">
<polygon fill="white" stroke="black" points="0,-859.5 0,-927.5 86,-927.5 86,-859.5 0,-859.5"/>
<text text-anchor="middle" x="43" y="-915.5" font-family="Helvetica,sans-Serif" font-size="10.00">GM_Object</text>
<polyline fill="none" stroke="black" points="0,-908.5 86,-908.5 "/>
<text text-anchor="middle" x="43" y="-896.5" font-family="Helvetica,sans-Serif" font-size="10.00"> </text>
<polyline fill="none" stroke="black" points="0,-889.5 86,-889.5 "/>
<text text-anchor="start" x="8" y="-877.5" font-family="Helvetica,sans-Serif" font-size="10.00">+ GM_Object()</text>
<text text-anchor="start" x="8" y="-866.5" font-family="Helvetica,sans-Serif" font-size="10.00">+ ~GM_Object()</text>
</a>
</g>
</g>
<!-- Node8&#45;&gt;Node6 -->
<g id="edge7" class="edge">
<title>Node8&#45;&gt;Node6</title>
<path fill="none" stroke="midnightblue" d="M61.12,-850.03C92.06,-777.53 154.92,-630.23 187.83,-553.11"/>
<polygon fill="none" stroke="midnightblue" points="57.86,-848.76 57.15,-859.33 64.3,-851.51 57.86,-848.76"/>
</g>
<!-- Node9&#45;&gt;Node6 -->
<g id="edge8" class="edge">
<title>Node9&#45;&gt;Node6</title>
<path fill="none" stroke="#404040" d="M301.14,-815.18C279.42,-741.71 247.19,-632.67 227.17,-564.96"/>
<polygon fill="none" stroke="#404040" points="227.1,-564.73 221.56,-560.11 223.7,-553.22 229.24,-557.84 227.1,-564.73"/>
<text text-anchor="middle" x="311.5" y="-789" font-family="Helvetica,sans-Serif" font-size="10.00"> #output</text>
</g>
<!-- Node10&#45;&gt;Node1 -->
<g id="edge10" class="edge">
<title>Node10&#45;&gt;Node1</title>
<path fill="none" stroke="midnightblue" d="M377.68,-430.77C384.93,-363.87 395.87,-263.04 403.85,-189.53"/>
<polygon fill="none" stroke="midnightblue" points="374.19,-430.47 376.59,-440.79 381.15,-431.23 374.19,-430.47"/>
</g>
<!-- Node11&#45;&gt;Node1 -->
<g id="edge12" class="edge">
<title>Node11&#45;&gt;Node1</title>
<path fill="none" stroke="#404040" d="M609.88,-250.63C607.04,-245.98 604.08,-241.43 601,-237 574.38,-198.7 534.06,-166.41 497.68,-142.44"/>
<polygon fill="none" stroke="#404040" points="497.62,-142.4 490.41,-142.51 487.53,-135.9 494.74,-135.79 497.62,-142.4"/>
<text text-anchor="middle" x="620" y="-211" font-family="Helvetica,sans-Serif" font-size="10.00"> #legacy_forcing</text>
</g>
<!-- Node12 -->
<g id="node12" class="node">
<title>Node12</title>
<g id="a_node12"><a xlink:href="classdata__access_1_1_generic_data_provider.html" target="_top" xlink:title=" ">
<polygon fill="white" stroke="black" points="690.5,-859.5 690.5,-927.5 821.5,-927.5 821.5,-859.5 690.5,-859.5"/>
<text text-anchor="start" x="698.5" y="-915.5" font-family="Helvetica,sans-Serif" font-size="10.00">data_access::GenericData</text>
<text text-anchor="middle" x="756" y="-904.5" font-family="Helvetica,sans-Serif" font-size="10.00">Provider</text>
<polyline fill="none" stroke="black" points="690.5,-897.5 821.5,-897.5 "/>
<text text-anchor="middle" x="756" y="-885.5" font-family="Helvetica,sans-Serif" font-size="10.00"> </text>
<polyline fill="none" stroke="black" points="690.5,-878.5 821.5,-878.5 "/>
<text text-anchor="middle" x="756" y="-866.5" font-family="Helvetica,sans-Serif" font-size="10.00"> </text>
</a>
</g>
</g>
<!-- Node12&#45;&gt;Node11 -->
<g id="edge13" class="edge">
<title>Node12&#45;&gt;Node11</title>
<path fill="none" stroke="midnightblue" d="M747.59,-849.45C743.31,-827.56 737.73,-798.96 731.59,-767.58"/>
<polygon fill="none" stroke="midnightblue" points="744.17,-850.19 749.52,-859.33 751.04,-848.85 744.17,-850.19"/>
</g>
<!-- Node13 -->
<g id="node13" class="node">
<title>Node13</title>
<g id="a_node13"><a xlink:href="classdata__access_1_1_data_provider.html" target="_top" xlink:title=" ">
<polygon fill="white" stroke="black" points="660.5,-1019.5 660.5,-1186.5 851.5,-1186.5 851.5,-1019.5 660.5,-1019.5"/>
<text text-anchor="start" x="668.5" y="-1174.5" font-family="Helvetica,sans-Serif" font-size="10.00">data_access::DataProvider</text>
<text text-anchor="middle" x="756" y="-1163.5" font-family="Helvetica,sans-Serif" font-size="10.00">&lt; double, CatchmentAggrDataSelector &gt;</text>
<polyline fill="none" stroke="black" points="660.5,-1156.5 851.5,-1156.5 "/>
<text text-anchor="middle" x="756" y="-1144.5" font-family="Helvetica,sans-Serif" font-size="10.00"> </text>
<polyline fill="none" stroke="black" points="660.5,-1137.5 851.5,-1137.5 "/>
<text text-anchor="start" x="668.5" y="-1125.5" font-family="Helvetica,sans-Serif" font-size="10.00">+ ~DataProvider()</text>
<text text-anchor="start" x="668.5" y="-1114.5" font-family="Helvetica,sans-Serif" font-size="10.00">+ get_avaliable_variable</text>
<text text-anchor="start" x="668.5" y="-1103.5" font-family="Helvetica,sans-Serif" font-size="10.00">_names()</text>
<text text-anchor="start" x="668.5" y="-1092.5" font-family="Helvetica,sans-Serif" font-size="10.00">+ get_data_start_time()</text>
<text text-anchor="start" x="668.5" y="-1081.5" font-family="Helvetica,sans-Serif" font-size="10.00">+ get_data_stop_time()</text>
<text text-anchor="start" x="668.5" y="-1070.5" font-family="Helvetica,sans-Serif" font-size="10.00">+ record_duration()</text>
<text text-anchor="start" x="668.5" y="-1059.5" font-family="Helvetica,sans-Serif" font-size="10.00">+ get_ts_index_for_time()</text>
<text text-anchor="start" x="668.5" y="-1048.5" font-family="Helvetica,sans-Serif" font-size="10.00">+ get_value()</text>
<text text-anchor="start" x="668.5" y="-1037.5" font-family="Helvetica,sans-Serif" font-size="10.00">+ is_property_sum_over</text>
<text text-anchor="start" x="668.5" y="-1026.5" font-family="Helvetica,sans-Serif" font-size="10.00">_time_step()</text>
</a>
</g>
</g>
<!-- Node13&#45;&gt;Node12 -->
<g id="edge14" class="edge">
<title>Node13&#45;&gt;Node12</title>
<path fill="none" stroke="midnightblue" d="M756,-1009.16C756,-980.05 756,-949.77 756,-927.65"/>
<polygon fill="none" stroke="midnightblue" points="752.5,-1009.39 756,-1019.39 759.5,-1009.39 752.5,-1009.39"/>
</g>
<!-- Node14 -->
<g id="node14" class="node">
<title>Node14</title>
<g id="a_node14"><a xlink:href="classdata__access_1_1_data_provider.html" target="_top" xlink:title=" ">
<polygon fill="white" stroke="black" points="684.5,-1245.5 684.5,-1412.5 827.5,-1412.5 827.5,-1245.5 684.5,-1245.5"/>
<text text-anchor="start" x="692.5" y="-1400.5" font-family="Helvetica,sans-Serif" font-size="10.00">data_access::DataProvider</text>
<text text-anchor="middle" x="756" y="-1389.5" font-family="Helvetica,sans-Serif" font-size="10.00">&lt; data_type, selection_type &gt;</text>
<polyline fill="none" stroke="black" points="684.5,-1382.5 827.5,-1382.5 "/>
<text text-anchor="middle" x="756" y="-1370.5" font-family="Helvetica,sans-Serif" font-size="10.00"> </text>
<polyline fill="none" stroke="black" points="684.5,-1363.5 827.5,-1363.5 "/>
<text text-anchor="start" x="692.5" y="-1351.5" font-family="Helvetica,sans-Serif" font-size="10.00">+ ~DataProvider()</text>
<text text-anchor="start" x="692.5" y="-1340.5" font-family="Helvetica,sans-Serif" font-size="10.00">+ get_avaliable_variable</text>
<text text-anchor="start" x="692.5" y="-1329.5" font-family="Helvetica,sans-Serif" font-size="10.00">_names()</text>
<text text-anchor="start" x="692.5" y="-1318.5" font-family="Helvetica,sans-Serif" font-size="10.00">+ get_data_start_time()</text>
<text text-anchor="start" x="692.5" y="-1307.5" font-family="Helvetica,sans-Serif" font-size="10.00">+ get_data_stop_time()</text>
<text text-anchor="start" x="692.5" y="-1296.5" font-family="Helvetica,sans-Serif" font-size="10.00">+ record_duration()</text>
<text text-anchor="start" x="692.5" y="-1285.5" font-family="Helvetica,sans-Serif" font-size="10.00">+ get_ts_index_for_time()</text>
<text text-anchor="start" x="692.5" y="-1274.5" font-family="Helvetica,sans-Serif" font-size="10.00">+ get_value()</text>
<text text-anchor="start" x="692.5" y="-1263.5" font-family="Helvetica,sans-Serif" font-size="10.00">+ is_property_sum_over</text>
<text text-anchor="start" x="692.5" y="-1252.5" font-family="Helvetica,sans-Serif" font-size="10.00">_time_step()</text>
</a>
</g>
</g>
<!-- Node14&#45;&gt;Node13 -->
<g id="edge15" class="edge">
<title>Node14&#45;&gt;Node13</title>
<path fill="none" stroke="orange" d="M756,-1234.84C756,-1218.91 756,-1202.45 756,-1186.81"/>
<polygon fill="orange" stroke="orange" points="752.5,-1235.23 756,-1245.23 759.5,-1235.23 752.5,-1235.23"/>
<text text-anchor="start" x="756" y="-1219" font-family="Helvetica,sans-Serif" font-size="10.00"> &lt; double, CatchmentAggrData</text>
<text text-anchor="middle" x="822.5" y="-1208" font-family="Helvetica,sans-Serif" font-size="10.00">Selector &gt;</text>
</g>
</g>
</svg>
        <g id="navigator" transform="translate(0 0)" fill="#404254">
                <rect fill="#f2f5e9" fill-opacity="0.5" stroke="#606060" stroke-width=".5" x="0" y="0" width="60" height="60"/>
                <use id="zoomplus" xlink:href="#zoomPlus" x="17" y="9" onmousedown="handleZoom(evt,'in')"/>
                <use id="zoomminus" xlink:href="#zoomMin" x="42" y="9" onmousedown="handleZoom(evt,'out')"/>
                <use id="reset" xlink:href="#resetDef" x="30" y="36" onmousedown="handleReset()"/>
                <g id="arrowUp" xlink:href="#dirArrow" transform="translate(30 24)" onmousedown="handlePan(0,-1)">
                  <use xlink:href="#rim" fill="#404040">
                        <set attributeName="fill" to="#808080" begin="arrowUp.mouseover" end="arrowUp.mouseout"/>
                  </use>
                  <path fill="none" stroke="white" stroke-width="1.5" d="M0,-3.0v7 M-2.5,-0.5L0,-3.0L2.5,-0.5"/>
                </g>
                <g id="arrowRight" xlink:href="#dirArrow" transform="rotate(90) translate(36 -43)" onmousedown="handlePan(1,0)">
                  <use xlink:href="#rim" fill="#404040">
                        <set attributeName="fill" to="#808080" begin="arrowRight.mouseover" end="arrowRight.mouseout"/>
                  </use>
                  <path fill="none" stroke="white" stroke-width="1.5" d="M0,-3.0v7 M-2.5,-0.5L0,-3.0L2.5,-0.5"/>
                </g>
                <g id="arrowDown" xlink:href="#dirArrow" transform="rotate(180) translate(-30 -48)" onmousedown="handlePan(0,1)">
                  <use xlink:href="#rim" fill="#404040">
                        <set attributeName="fill" to="#808080" begin="arrowDown.mouseover" end="arrowDown.mouseout"/>
                  </use>
                  <path fill="none" stroke="white" stroke-width="1.5" d="M0,-3.0v7 M-2.5,-0.5L0,-3.0L2.5,-0.5"/>
                </g>
                <g id="arrowLeft" xlink:href="#dirArrow" transform="rotate(270) translate(-36 17)" onmousedown="handlePan(-1,0)">
                  <use xlink:href="#rim" fill="#404040">
                        <set attributeName="fill" to="#808080" begin="arrowLeft.mouseover" end="arrowLeft.mouseout"/>
                  </use>
                  <path fill="none" stroke="white" stroke-width="1.5" d="M0,-3.0v7 M-2.5,-0.5L0,-3.0L2.5,-0.5"/>
                </g>
        </g>
        <svg viewBox="0 0 15 15" width="100%" height="30px" preserveAspectRatio="xMaxYMin meet">
         <g id="arrow_out" transform="scale(0.3 0.3)">
          <a xlink:href="classrealization_1_1_catchment___formulation__coll__graph_org.svg" target="_base">
           <rect id="button" ry="5" rx="5" y="6" x="6" height="38" width="38"
                fill="#f2f5e9" fill-opacity="0.5" stroke="#606060" stroke-width="1.0"/>
           <path id="arrow"
             d="M 11.500037,31.436501 C 11.940474,20.09759 22.043105,11.32322 32.158766,21.979434 L 37.068811,17.246167 C 37.068811,17.246167 37.088388,32 37.088388,32 L 22.160133,31.978069 C 22.160133,31.978069 26.997745,27.140456 26.997745,27.140456 C 18.528582,18.264221 13.291696,25.230495 11.500037,31.436501 z"
             style="fill:#404040;"/>
          </a>
         </g>
        </svg>
</svg>
