<?xml version="1.0" encoding="UTF-8" standalone="no"?>
<!DOCTYPE svg PUBLIC "-//W3C//DTD SVG 1.1//EN"
 "http://www.w3.org/Graphics/SVG/1.1/DTD/svg11.dtd">
<!-- Generated by graphviz version 9.0.0 (20230911.1827)
 -->
<!-- Title: realization::Bmi_Multi_Formulation Pages: 1 -->
<!--zoomable 1952 -->

<svg id="main" version="1.1" xmlns="http://www.w3.org/2000/svg" xmlns:xlink="http://www.w3.org/1999/xlink" xml:space="preserve" onload="init(evt)">
<style type="text/css"><![CDATA[
.node, .edge {opacity: 0.7;}
.node.selected, .edge.selected {opacity: 1;}
.edge:hover path { stroke: red; }
.edge:hover polygon { stroke: red; fill: red; }
]]></style>

<defs>
  <circle id="rim" cx="0" cy="0" r="7"/>
  <circle id="rim2" cx="0" cy="0" r="3.5"/>
  <g id="zoomPlus">
    <use xlink:href="#rim" fill="#404040"><set attributeName="fill" to="#808080" begin="zoomplus.mouseover" end="zoomplus.mouseout"/></use>
    <path d="M-4,0h8M0,-4v8" fill="none" stroke="white" stroke-width="1.5" pointer-events="none"/>
  </g>
  <g id="zoomMin">
    <use xlink:href="#rim" fill="#404040"><set attributeName="fill" to="#808080" begin="zoomminus.mouseover" end="zoomminus.mouseout"/></use>
    <path d="M-4,0h8" fill="none" stroke="white" stroke-width="1.5" pointer-events="none"/>
  </g>
  <g id="arrowUp" transform="translate(30 24)">
    <use xlink:href="#rim"/>
    <path pointer-events="none" fill="none" stroke="white" stroke-width="1.5" d="M0,-3.0v7 M-2.5,-0.5L0,-3.0L2.5,-0.5"/>
  </g>
  <g id="arrowRight" transform="rotate(90) translate(36 -43)">
    <use xlink:href="#rim"/>
    <path pointer-events="none" fill="none" stroke="white" stroke-width="1.5" d="M0,-3.0v7 M-2.5,-0.5L0,-3.0L2.5,-0.5"/>
  </g>
  <g id="arrowDown" transform="rotate(180) translate(-30 -48)">
    <use xlink:href="#rim"/>
    <path pointer-events="none" fill="none" stroke="white" stroke-width="1.5" d="M0,-3.0v7 M-2.5,-0.5L0,-3.0L2.5,-0.5"/>
  </g>
  <g id="arrowLeft" transform="rotate(270) translate(-36 17)">
    <use xlink:href="#rim"/>
    <path pointer-events="none" fill="none" stroke="white" stroke-width="1.5" d="M0,-3.0v7 M-2.5,-0.5L0,-3.0L2.5,-0.5"/>
  </g>
  <g id="resetDef">
    <use xlink:href="#rim2" fill="#404040"><set attributeName="fill" to="#808080" begin="reset.mouseover" end="reset.mouseout"/></use>
  </g>
</defs>
<script type="application/ecmascript">
var viewWidth = 516;
var viewHeight = 1952;
var sectionId = 'dynsection-0';
</script>
<script type="application/ecmascript" xlink:href="svg.min.js"/>
<svg id="graph" class="graph">
<g id="viewport">
<title>realization::Bmi_Multi_Formulation</title>
<!-- Node1 -->
<g id="Node000001" class="node">
<title>Node1</title>
<g id="a_Node000001"><a xlink:title="Abstraction of a formulation with multiple backing model object that implements the BMI.">
<polygon fill="#999999" stroke="none" points="357.5,-617 205.5,-617 205.5,0 357.5,0 357.5,-617"/>
<text text-anchor="start" x="235.75" y="-603.5" font-family="Helvetica,sans-Serif" font-size="10.00">realization::Bmi_Multi</text>
<text text-anchor="start" x="253.38" y="-592.25" font-family="Helvetica,sans-Serif" font-size="10.00">_Formulation</text>
<text text-anchor="start" x="209.88" y="-577.5" font-family="Helvetica,sans-Serif" font-size="10.00">#</text>
<text text-anchor="start" x="219.5" y="-577.5" font-family="Helvetica,sans-Serif" font-size="10.00">availableData</text>
<text text-anchor="start" x="211" y="-562.5" font-family="Helvetica,sans-Serif" font-size="10.00">&#45;</text>
<text text-anchor="start" x="219.5" y="-562.5" font-family="Helvetica,sans-Serif" font-size="10.00">available_forcings</text>
<text text-anchor="start" x="211" y="-547.5" font-family="Helvetica,sans-Serif" font-size="10.00">&#45;</text>
<text text-anchor="start" x="219.5" y="-547.5" font-family="Helvetica,sans-Serif" font-size="10.00">default_output_values</text>
<text text-anchor="start" x="211" y="-532.5" font-family="Helvetica,sans-Serif" font-size="10.00">&#45;</text>
<text text-anchor="start" x="219.5" y="-532.5" font-family="Helvetica,sans-Serif" font-size="10.00">deferredProviders</text>
<text text-anchor="start" x="211" y="-517.5" font-family="Helvetica,sans-Serif" font-size="10.00">&#45;</text>
<text text-anchor="start" x="219.5" y="-517.5" font-family="Helvetica,sans-Serif" font-size="10.00">deferredProviderModuleIndices</text>
<text text-anchor="start" x="211" y="-502.5" font-family="Helvetica,sans-Serif" font-size="10.00">&#45;</text>
<text text-anchor="start" x="219.5" y="-502.5" font-family="Helvetica,sans-Serif" font-size="10.00">is_out_vars_from_last_mod</text>
<text text-anchor="start" x="211" y="-487.5" font-family="Helvetica,sans-Serif" font-size="10.00">&#45;</text>
<text text-anchor="start" x="219.5" y="-487.5" font-family="Helvetica,sans-Serif" font-size="10.00">modules</text>
<text text-anchor="start" x="211" y="-472.5" font-family="Helvetica,sans-Serif" font-size="10.00">&#45;</text>
<text text-anchor="start" x="219.5" y="-472.5" font-family="Helvetica,sans-Serif" font-size="10.00">module_types</text>
<text text-anchor="start" x="211" y="-457.5" font-family="Helvetica,sans-Serif" font-size="10.00">&#45;</text>
<text text-anchor="start" x="219.5" y="-457.5" font-family="Helvetica,sans-Serif" font-size="10.00">module_variable_maps</text>
<text text-anchor="start" x="211" y="-442.5" font-family="Helvetica,sans-Serif" font-size="10.00">&#45;</text>
<text text-anchor="start" x="219.5" y="-442.5" font-family="Helvetica,sans-Serif" font-size="10.00">next_time_step_index</text>
<text text-anchor="start" x="211" y="-427.5" font-family="Helvetica,sans-Serif" font-size="10.00">&#45;</text>
<text text-anchor="start" x="219.5" y="-427.5" font-family="Helvetica,sans-Serif" font-size="10.00">primary_module_index</text>
<text text-anchor="start" x="211" y="-412.5" font-family="Helvetica,sans-Serif" font-size="10.00">&#45;</text>
<text text-anchor="start" x="219.5" y="-412.5" font-family="Helvetica,sans-Serif" font-size="10.00">Bmi_Multi_Formulation_Test</text>
<text text-anchor="start" x="209.5" y="-397.5" font-family="Helvetica,sans-Serif" font-size="10.00">+</text>
<text text-anchor="start" x="219.5" y="-397.5" font-family="Helvetica,sans-Serif" font-size="10.00">Bmi_Multi_Formulation()</text>
<text text-anchor="start" x="209.5" y="-382.5" font-family="Helvetica,sans-Serif" font-size="10.00">+</text>
<text text-anchor="start" x="219.5" y="-382.5" font-family="Helvetica,sans-Serif" font-size="10.00">~Bmi_Multi_Formulation()</text>
<text text-anchor="start" x="209.5" y="-367.5" font-family="Helvetica,sans-Serif" font-size="10.00">+</text>
<text text-anchor="start" x="219.5" y="-367.5" font-family="Helvetica,sans-Serif" font-size="10.00">convert_model_time()</text>
<text text-anchor="start" x="209.5" y="-352.5" font-family="Helvetica,sans-Serif" font-size="10.00">+</text>
<text text-anchor="start" x="219.5" y="-352.5" font-family="Helvetica,sans-Serif" font-size="10.00">convert_model_time()</text>
<text text-anchor="start" x="209.5" y="-337.5" font-family="Helvetica,sans-Serif" font-size="10.00">+</text>
<text text-anchor="start" x="219.5" y="-337.5" font-family="Helvetica,sans-Serif" font-size="10.00">create_formulation()</text>
<text text-anchor="start" x="209.5" y="-322.5" font-family="Helvetica,sans-Serif" font-size="10.00">+</text>
<text text-anchor="start" x="219.5" y="-322.5" font-family="Helvetica,sans-Serif" font-size="10.00">create_formulation()</text>
<text text-anchor="start" x="209.5" y="-307.5" font-family="Helvetica,sans-Serif" font-size="10.00">+</text>
<text text-anchor="start" x="219.5" y="-307.5" font-family="Helvetica,sans-Serif" font-size="10.00">get_allow_model_exceed</text>
<text text-anchor="start" x="219.5" y="-296.25" font-family="Helvetica,sans-Serif" font-size="10.00">_end_time()</text>
<text text-anchor="start" x="209.5" y="-281.5" font-family="Helvetica,sans-Serif" font-size="10.00">+</text>
<text text-anchor="start" x="219.5" y="-281.5" font-family="Helvetica,sans-Serif" font-size="10.00">get_available_variable</text>
<text text-anchor="start" x="219.5" y="-270.25" font-family="Helvetica,sans-Serif" font-size="10.00">_names()</text>
<text text-anchor="start" x="209.5" y="-255.5" font-family="Helvetica,sans-Serif" font-size="10.00">+</text>
<text text-anchor="start" x="219.5" y="-255.5" font-family="Helvetica,sans-Serif" font-size="10.00">get_bmi_input_variables()</text>
<text text-anchor="start" x="209.5" y="-240.5" font-family="Helvetica,sans-Serif" font-size="10.00">+</text>
<text text-anchor="start" x="219.5" y="-240.5" font-family="Helvetica,sans-Serif" font-size="10.00">get_bmi_model_start</text>
<text text-anchor="start" x="219.5" y="-229.25" font-family="Helvetica,sans-Serif" font-size="10.00">_time_forcing_offset_s()</text>
<text text-anchor="start" x="209.5" y="-214.5" font-family="Helvetica,sans-Serif" font-size="10.00">+</text>
<text text-anchor="start" x="219.5" y="-214.5" font-family="Helvetica,sans-Serif" font-size="10.00">get_bmi_output_variables()</text>
<text text-anchor="start" x="209.5" y="-199.5" font-family="Helvetica,sans-Serif" font-size="10.00">+</text>
<text text-anchor="start" x="219.5" y="-199.5" font-family="Helvetica,sans-Serif" font-size="10.00">get_config_mapped_variable</text>
<text text-anchor="start" x="219.5" y="-188.25" font-family="Helvetica,sans-Serif" font-size="10.00">_name()</text>
<text text-anchor="start" x="209.5" y="-173.5" font-family="Helvetica,sans-Serif" font-size="10.00">+</text>
<text text-anchor="start" x="219.5" y="-173.5" font-family="Helvetica,sans-Serif" font-size="10.00">get_config_mapped_variable</text>
<text text-anchor="start" x="219.5" y="-162.25" font-family="Helvetica,sans-Serif" font-size="10.00">_name()</text>
<text text-anchor="start" x="209.5" y="-147.5" font-family="Helvetica,sans-Serif" font-size="10.00">+</text>
<text text-anchor="start" x="219.5" y="-147.5" font-family="Helvetica,sans-Serif" font-size="10.00">get_config_mapped_variable</text>
<text text-anchor="start" x="219.5" y="-136.25" font-family="Helvetica,sans-Serif" font-size="10.00">_name()</text>
<text text-anchor="start" x="209.5" y="-121.5" font-family="Helvetica,sans-Serif" font-size="10.00">+</text>
<text text-anchor="start" x="219.5" y="-121.5" font-family="Helvetica,sans-Serif" font-size="10.00">get_forcing_file_path()</text>
<text text-anchor="start" x="219.5" y="-106.5" font-family="Helvetica,sans-Serif" font-size="10.00">and 24 more...</text>
<text text-anchor="start" x="209.88" y="-91.5" font-family="Helvetica,sans-Serif" font-size="10.00">#</text>
<text text-anchor="start" x="219.5" y="-91.5" font-family="Helvetica,sans-Serif" font-size="10.00">create_multi_formulation()</text>
<text text-anchor="start" x="209.88" y="-76.5" font-family="Helvetica,sans-Serif" font-size="10.00">#</text>
<text text-anchor="start" x="219.5" y="-76.5" font-family="Helvetica,sans-Serif" font-size="10.00">get_var_value_as_double()</text>
<text text-anchor="start" x="209.88" y="-61.5" font-family="Helvetica,sans-Serif" font-size="10.00">#</text>
<text text-anchor="start" x="219.5" y="-61.5" font-family="Helvetica,sans-Serif" font-size="10.00">get_var_value_as_double()</text>
<text text-anchor="start" x="209.88" y="-46.5" font-family="Helvetica,sans-Serif" font-size="10.00">#</text>
<text text-anchor="start" x="219.5" y="-46.5" font-family="Helvetica,sans-Serif" font-size="10.00">init_deferred_associations()</text>
<text text-anchor="start" x="209.88" y="-31.5" font-family="Helvetica,sans-Serif" font-size="10.00">#</text>
<text text-anchor="start" x="219.5" y="-31.5" font-family="Helvetica,sans-Serif" font-size="10.00">init_nested_module()</text>
<text text-anchor="start" x="211" y="-16.5" font-family="Helvetica,sans-Serif" font-size="10.00">&#45;</text>
<text text-anchor="start" x="219.5" y="-16.5" font-family="Helvetica,sans-Serif" font-size="10.00">setup_nested_deferred</text>
<text text-anchor="start" x="219.5" y="-5.25" font-family="Helvetica,sans-Serif" font-size="10.00">_provider()</text>
<polygon fill="#666666" stroke="#666666" points="205.5,-589 205.5,-589 357.5,-589 357.5,-589 205.5,-589"/>
<polygon fill="#666666" stroke="#666666" points="205.5,-409 205.5,-409 217.5,-409 217.5,-409 205.5,-409"/>
<polygon fill="#666666" stroke="#666666" points="217.5,-409 217.5,-409 357.5,-409 357.5,-409 217.5,-409"/>
<polygon fill="none" stroke="#666666" points="205.5,0 205.5,-617 357.5,-617 357.5,0 205.5,0"/>
</a>
</g>
</g>
<!-- Node2 -->
<g id="Node000002" class="node">
<title>Node2</title>
<g id="a_Node000002"><a xlink:href="classrealization_1_1_bmi___formulation.html" target="_top" xlink:title="Abstraction of formulation with backing model object(s) that implements the BMI.">
<polygon fill="white" stroke="none" points="352,-1174 211,-1174 211,-654 352,-654 352,-1174"/>
<text text-anchor="start" x="220.75" y="-1160.5" font-family="Helvetica,sans-Serif" font-size="10.00">realization::Bmi_Formulation</text>
<text text-anchor="start" x="215.38" y="-1145.5" font-family="Helvetica,sans-Serif" font-size="10.00">#</text>
<text text-anchor="start" x="225" y="-1145.5" font-family="Helvetica,sans-Serif" font-size="10.00">output_text_stream</text>
<text text-anchor="start" x="216.5" y="-1130.5" font-family="Helvetica,sans-Serif" font-size="10.00">&#45;</text>
<text text-anchor="start" x="225" y="-1130.5" font-family="Helvetica,sans-Serif" font-size="10.00">bmi_main_output_var</text>
<text text-anchor="start" x="216.5" y="-1115.5" font-family="Helvetica,sans-Serif" font-size="10.00">&#45;</text>
<text text-anchor="start" x="225" y="-1115.5" font-family="Helvetica,sans-Serif" font-size="10.00">model_type_name</text>
<text text-anchor="start" x="216.5" y="-1100.5" font-family="Helvetica,sans-Serif" font-size="10.00">&#45;</text>
<text text-anchor="start" x="225" y="-1100.5" font-family="Helvetica,sans-Serif" font-size="10.00">output_header_fields</text>
<text text-anchor="start" x="216.5" y="-1085.5" font-family="Helvetica,sans-Serif" font-size="10.00">&#45;</text>
<text text-anchor="start" x="225" y="-1085.5" font-family="Helvetica,sans-Serif" font-size="10.00">output_variable_names</text>
<text text-anchor="start" x="216.5" y="-1070.5" font-family="Helvetica,sans-Serif" font-size="10.00">&#45;</text>
<text text-anchor="start" x="225" y="-1070.5" font-family="Helvetica,sans-Serif" font-size="10.00">output_precision</text>
<text text-anchor="start" x="216.5" y="-1055.5" font-family="Helvetica,sans-Serif" font-size="10.00">&#45;</text>
<text text-anchor="start" x="225" y="-1055.5" font-family="Helvetica,sans-Serif" font-size="10.00">OPTIONAL_PARAMETERS</text>
<text text-anchor="start" x="216.5" y="-1040.5" font-family="Helvetica,sans-Serif" font-size="10.00">&#45;</text>
<text text-anchor="start" x="225" y="-1040.5" font-family="Helvetica,sans-Serif" font-size="10.00">REQUIRED_PARAMETERS</text>
<text text-anchor="start" x="215" y="-1025.5" font-family="Helvetica,sans-Serif" font-size="10.00">+</text>
<text text-anchor="start" x="225" y="-1025.5" font-family="Helvetica,sans-Serif" font-size="10.00">Bmi_Formulation()</text>
<text text-anchor="start" x="215" y="-1010.5" font-family="Helvetica,sans-Serif" font-size="10.00">+</text>
<text text-anchor="start" x="225" y="-1010.5" font-family="Helvetica,sans-Serif" font-size="10.00">~Bmi_Formulation()</text>
<text text-anchor="start" x="215" y="-995.5" font-family="Helvetica,sans-Serif" font-size="10.00">+</text>
<text text-anchor="start" x="225" y="-995.5" font-family="Helvetica,sans-Serif" font-size="10.00">convert_model_time()</text>
<text text-anchor="start" x="215" y="-980.5" font-family="Helvetica,sans-Serif" font-size="10.00">+</text>
<text text-anchor="start" x="225" y="-980.5" font-family="Helvetica,sans-Serif" font-size="10.00">get_allow_model_exceed</text>
<text text-anchor="start" x="225" y="-969.25" font-family="Helvetica,sans-Serif" font-size="10.00">_end_time()</text>
<text text-anchor="start" x="215" y="-954.5" font-family="Helvetica,sans-Serif" font-size="10.00">+</text>
<text text-anchor="start" x="225" y="-954.5" font-family="Helvetica,sans-Serif" font-size="10.00">get_bmi_input_variables()</text>
<text text-anchor="start" x="215" y="-939.5" font-family="Helvetica,sans-Serif" font-size="10.00">+</text>
<text text-anchor="start" x="225" y="-939.5" font-family="Helvetica,sans-Serif" font-size="10.00">get_bmi_main_output</text>
<text text-anchor="start" x="225" y="-928.25" font-family="Helvetica,sans-Serif" font-size="10.00">_var()</text>
<text text-anchor="start" x="215" y="-913.5" font-family="Helvetica,sans-Serif" font-size="10.00">+</text>
<text text-anchor="start" x="225" y="-913.5" font-family="Helvetica,sans-Serif" font-size="10.00">get_bmi_model_start</text>
<text text-anchor="start" x="225" y="-902.25" font-family="Helvetica,sans-Serif" font-size="10.00">_time_forcing_offset_s()</text>
<text text-anchor="start" x="215" y="-887.5" font-family="Helvetica,sans-Serif" font-size="10.00">+</text>
<text text-anchor="start" x="225" y="-887.5" font-family="Helvetica,sans-Serif" font-size="10.00">get_bmi_output_variables()</text>
<text text-anchor="start" x="215" y="-872.5" font-family="Helvetica,sans-Serif" font-size="10.00">+</text>
<text text-anchor="start" x="225" y="-872.5" font-family="Helvetica,sans-Serif" font-size="10.00">get_config_mapped_variable</text>
<text text-anchor="start" x="225" y="-861.25" font-family="Helvetica,sans-Serif" font-size="10.00">_name()</text>
<text text-anchor="start" x="215" y="-846.5" font-family="Helvetica,sans-Serif" font-size="10.00">+</text>
<text text-anchor="start" x="225" y="-846.5" font-family="Helvetica,sans-Serif" font-size="10.00">get_model_current_time()</text>
<text text-anchor="start" x="215" y="-831.5" font-family="Helvetica,sans-Serif" font-size="10.00">+</text>
<text text-anchor="start" x="225" y="-831.5" font-family="Helvetica,sans-Serif" font-size="10.00">get_model_end_time()</text>
<text text-anchor="start" x="215" y="-816.5" font-family="Helvetica,sans-Serif" font-size="10.00">+</text>
<text text-anchor="start" x="225" y="-816.5" font-family="Helvetica,sans-Serif" font-size="10.00">get_forcing_file_path()</text>
<text text-anchor="start" x="215" y="-801.5" font-family="Helvetica,sans-Serif" font-size="10.00">+</text>
<text text-anchor="start" x="225" y="-801.5" font-family="Helvetica,sans-Serif" font-size="10.00">get_model_type_name()</text>
<text text-anchor="start" x="215" y="-786.5" font-family="Helvetica,sans-Serif" font-size="10.00">+</text>
<text text-anchor="start" x="225" y="-786.5" font-family="Helvetica,sans-Serif" font-size="10.00">get_output_header_fields()</text>
<text text-anchor="start" x="215" y="-771.5" font-family="Helvetica,sans-Serif" font-size="10.00">+</text>
<text text-anchor="start" x="225" y="-771.5" font-family="Helvetica,sans-Serif" font-size="10.00">get_output_header_line()</text>
<text text-anchor="start" x="225" y="-756.5" font-family="Helvetica,sans-Serif" font-size="10.00">and 10 more...</text>
<text text-anchor="start" x="215.38" y="-741.5" font-family="Helvetica,sans-Serif" font-size="10.00">#</text>
<text text-anchor="start" x="225" y="-741.5" font-family="Helvetica,sans-Serif" font-size="10.00">get_output_precision()</text>
<text text-anchor="start" x="215.38" y="-726.5" font-family="Helvetica,sans-Serif" font-size="10.00">#</text>
<text text-anchor="start" x="225" y="-726.5" font-family="Helvetica,sans-Serif" font-size="10.00">set_bmi_main_output</text>
<text text-anchor="start" x="225" y="-715.25" font-family="Helvetica,sans-Serif" font-size="10.00">_var()</text>
<text text-anchor="start" x="215.38" y="-700.5" font-family="Helvetica,sans-Serif" font-size="10.00">#</text>
<text text-anchor="start" x="225" y="-700.5" font-family="Helvetica,sans-Serif" font-size="10.00">set_model_type_name()</text>
<text text-anchor="start" x="215.38" y="-685.5" font-family="Helvetica,sans-Serif" font-size="10.00">#</text>
<text text-anchor="start" x="225" y="-685.5" font-family="Helvetica,sans-Serif" font-size="10.00">set_output_header_fields()</text>
<text text-anchor="start" x="215.38" y="-670.5" font-family="Helvetica,sans-Serif" font-size="10.00">#</text>
<text text-anchor="start" x="225" y="-670.5" font-family="Helvetica,sans-Serif" font-size="10.00">set_output_variable</text>
<text text-anchor="start" x="225" y="-659.25" font-family="Helvetica,sans-Serif" font-size="10.00">_names()</text>
<polygon fill="#666666" stroke="#666666" points="211,-1157 211,-1157 352,-1157 352,-1157 211,-1157"/>
<polygon fill="#666666" stroke="#666666" points="211,-1037 211,-1037 223,-1037 223,-1037 211,-1037"/>
<polygon fill="#666666" stroke="#666666" points="223,-1037 223,-1037 352,-1037 352,-1037 223,-1037"/>
<polygon fill="none" stroke="#666666" points="211,-654 211,-1174 352,-1174 352,-654 211,-654"/>
</a>
</g>
</g>
<!-- Node2&#45;&gt;Node1 -->
<g id="edge1_Node000001_Node000002" class="edge">
<title>Node2&#45;&gt;Node1</title>
<g id="a_edge1_Node000001_Node000002"><a xlink:title=" ">
<path fill="none" stroke="#63b8ff" d="M281.5,-643.01C281.5,-634.29 281.5,-625.54 281.5,-616.79"/>
<polygon fill="none" stroke="#63b8ff" points="278,-642.92 281.5,-652.92 285,-642.92 278,-642.92"/>
</a>
</g>
</g>
<!-- Node3 -->
<g id="Node000003" class="node">
<title>Node3</title>
<g id="a_Node000003"><a xlink:href="classrealization_1_1_catchment___formulation.html" target="_top" xlink:title=" ">
<polygon fill="white" stroke="none" points="277.5,-1421 137.5,-1421 137.5,-1211 277.5,-1211 277.5,-1421"/>
<text text-anchor="start" x="159.88" y="-1407.5" font-family="Helvetica,sans-Serif" font-size="10.00">realization::Catchment</text>
<text text-anchor="start" x="179.38" y="-1396.25" font-family="Helvetica,sans-Serif" font-size="10.00">_Formulation</text>
<text text-anchor="start" x="143" y="-1381.5" font-family="Helvetica,sans-Serif" font-size="10.00">&#45;</text>
<text text-anchor="start" x="151.5" y="-1381.5" font-family="Helvetica,sans-Serif" font-size="10.00">cat_id</text>
<text text-anchor="start" x="141.5" y="-1366.5" font-family="Helvetica,sans-Serif" font-size="10.00">+</text>
<text text-anchor="start" x="151.5" y="-1366.5" font-family="Helvetica,sans-Serif" font-size="10.00">Catchment_Formulation()</text>
<text text-anchor="start" x="141.5" y="-1351.5" font-family="Helvetica,sans-Serif" font-size="10.00">+</text>
<text text-anchor="start" x="151.5" y="-1351.5" font-family="Helvetica,sans-Serif" font-size="10.00">Catchment_Formulation()</text>
<text text-anchor="start" x="141.5" y="-1336.5" font-family="Helvetica,sans-Serif" font-size="10.00">+</text>
<text text-anchor="start" x="151.5" y="-1336.5" font-family="Helvetica,sans-Serif" font-size="10.00">get_output_header_line()</text>
<text text-anchor="start" x="141.5" y="-1321.5" font-family="Helvetica,sans-Serif" font-size="10.00">+</text>
<text text-anchor="start" x="151.5" y="-1321.5" font-family="Helvetica,sans-Serif" font-size="10.00">get_response()</text>
<text text-anchor="start" x="141.5" y="-1306.5" font-family="Helvetica,sans-Serif" font-size="10.00">+</text>
<text text-anchor="start" x="151.5" y="-1306.5" font-family="Helvetica,sans-Serif" font-size="10.00">get_required_parameters()</text>
<text text-anchor="start" x="141.5" y="-1291.5" font-family="Helvetica,sans-Serif" font-size="10.00">+</text>
<text text-anchor="start" x="151.5" y="-1291.5" font-family="Helvetica,sans-Serif" font-size="10.00">create_formulation()</text>
<text text-anchor="start" x="141.5" y="-1276.5" font-family="Helvetica,sans-Serif" font-size="10.00">+</text>
<text text-anchor="start" x="151.5" y="-1276.5" font-family="Helvetica,sans-Serif" font-size="10.00">create_formulation()</text>
<text text-anchor="start" x="141.5" y="-1261.5" font-family="Helvetica,sans-Serif" font-size="10.00">+</text>
<text text-anchor="start" x="151.5" y="-1261.5" font-family="Helvetica,sans-Serif" font-size="10.00">~Catchment_Formulation()</text>
<text text-anchor="start" x="141.5" y="-1246.5" font-family="Helvetica,sans-Serif" font-size="10.00">+</text>
<text text-anchor="start" x="151.5" y="-1246.5" font-family="Helvetica,sans-Serif" font-size="10.00">config_pattern_substitution()</text>
<text text-anchor="start" x="141.88" y="-1231.5" font-family="Helvetica,sans-Serif" font-size="10.00">#</text>
<text text-anchor="start" x="151.5" y="-1231.5" font-family="Helvetica,sans-Serif" font-size="10.00">get_catchment_id()</text>
<text text-anchor="start" x="141.88" y="-1216.5" font-family="Helvetica,sans-Serif" font-size="10.00">#</text>
<text text-anchor="start" x="151.5" y="-1216.5" font-family="Helvetica,sans-Serif" font-size="10.00">set_catchment_id()</text>
<polygon fill="#666666" stroke="#666666" points="137.5,-1393 137.5,-1393 277.5,-1393 277.5,-1393 137.5,-1393"/>
<polygon fill="#666666" stroke="#666666" points="137.5,-1378 137.5,-1378 149.5,-1378 149.5,-1378 137.5,-1378"/>
<polygon fill="#666666" stroke="#666666" points="149.5,-1378 149.5,-1378 277.5,-1378 277.5,-1378 149.5,-1378"/>
<polygon fill="none" stroke="#666666" points="137.5,-1211 137.5,-1421 277.5,-1421 277.5,-1211 137.5,-1211"/>
</a>
</g>
</g>
<!-- Node3&#45;&gt;Node2 -->
<g id="edge2_Node000002_Node000003" class="edge">
<title>Node3&#45;&gt;Node2</title>
<g id="a_edge2_Node000002_Node000003"><a xlink:title=" ">
<path fill="none" stroke="#63b8ff" d="M228.75,-1200.15C230.32,-1191.63 231.95,-1182.84 233.61,-1173.89"/>
<polygon fill="none" stroke="#63b8ff" points="225.35,-1199.25 226.98,-1209.72 232.24,-1200.52 225.35,-1199.25"/>
</a>
</g>
</g>
<!-- Node4 -->
<g id="Node000004" class="node">
<title>Node4</title>
<g id="a_Node000004"><a xlink:href="classrealization_1_1_formulation.html" target="_top" xlink:title=" ">
<polygon fill="white" stroke="none" points="131,-1683 0,-1683 0,-1458 131,-1458 131,-1683"/>
<text text-anchor="start" x="16" y="-1669.5" font-family="Helvetica,sans-Serif" font-size="10.00">realization::Formulation</text>
<text text-anchor="start" x="4.38" y="-1654.5" font-family="Helvetica,sans-Serif" font-size="10.00">#</text>
<text text-anchor="start" x="14" y="-1654.5" font-family="Helvetica,sans-Serif" font-size="10.00">id</text>
<text text-anchor="start" x="4" y="-1639.5" font-family="Helvetica,sans-Serif" font-size="10.00">+</text>
<text text-anchor="start" x="14" y="-1639.5" font-family="Helvetica,sans-Serif" font-size="10.00">Formulation()</text>
<text text-anchor="start" x="4" y="-1624.5" font-family="Helvetica,sans-Serif" font-size="10.00">+</text>
<text text-anchor="start" x="14" y="-1624.5" font-family="Helvetica,sans-Serif" font-size="10.00">~Formulation()</text>
<text text-anchor="start" x="4" y="-1609.5" font-family="Helvetica,sans-Serif" font-size="10.00">+</text>
<text text-anchor="start" x="14" y="-1609.5" font-family="Helvetica,sans-Serif" font-size="10.00">get_formulation_type()</text>
<text text-anchor="start" x="4" y="-1594.5" font-family="Helvetica,sans-Serif" font-size="10.00">+</text>
<text text-anchor="start" x="14" y="-1594.5" font-family="Helvetica,sans-Serif" font-size="10.00">get_response()</text>
<text text-anchor="start" x="4" y="-1579.5" font-family="Helvetica,sans-Serif" font-size="10.00">+</text>
<text text-anchor="start" x="14" y="-1579.5" font-family="Helvetica,sans-Serif" font-size="10.00">get_id()</text>
<text text-anchor="start" x="4" y="-1564.5" font-family="Helvetica,sans-Serif" font-size="10.00">+</text>
<text text-anchor="start" x="14" y="-1564.5" font-family="Helvetica,sans-Serif" font-size="10.00">get_output_header_line()</text>
<text text-anchor="start" x="4" y="-1549.5" font-family="Helvetica,sans-Serif" font-size="10.00">+</text>
<text text-anchor="start" x="14" y="-1549.5" font-family="Helvetica,sans-Serif" font-size="10.00">get_output_line_for</text>
<text text-anchor="start" x="14" y="-1538.25" font-family="Helvetica,sans-Serif" font-size="10.00">_timestep()</text>
<text text-anchor="start" x="4" y="-1523.5" font-family="Helvetica,sans-Serif" font-size="10.00">+</text>
<text text-anchor="start" x="14" y="-1523.5" font-family="Helvetica,sans-Serif" font-size="10.00">create_formulation()</text>
<text text-anchor="start" x="4" y="-1508.5" font-family="Helvetica,sans-Serif" font-size="10.00">+</text>
<text text-anchor="start" x="14" y="-1508.5" font-family="Helvetica,sans-Serif" font-size="10.00">create_formulation()</text>
<text text-anchor="start" x="4.38" y="-1493.5" font-family="Helvetica,sans-Serif" font-size="10.00">#</text>
<text text-anchor="start" x="14" y="-1493.5" font-family="Helvetica,sans-Serif" font-size="10.00">get_required_parameters()</text>
<text text-anchor="start" x="4.38" y="-1478.5" font-family="Helvetica,sans-Serif" font-size="10.00">#</text>
<text text-anchor="start" x="14" y="-1478.5" font-family="Helvetica,sans-Serif" font-size="10.00">interpret_parameters()</text>
<text text-anchor="start" x="4.38" y="-1463.5" font-family="Helvetica,sans-Serif" font-size="10.00">#</text>
<text text-anchor="start" x="14" y="-1463.5" font-family="Helvetica,sans-Serif" font-size="10.00">validate_parameters()</text>
<polygon fill="#666666" stroke="#666666" points="0,-1666 0,-1666 131,-1666 131,-1666 0,-1666"/>
<polygon fill="#666666" stroke="#666666" points="0,-1651 0,-1651 12,-1651 12,-1651 0,-1651"/>
<polygon fill="#666666" stroke="#666666" points="12,-1651 12,-1651 131,-1651 131,-1651 12,-1651"/>
<polygon fill="none" stroke="#666666" points="0,-1458 0,-1683 131,-1683 131,-1458 0,-1458"/>
</a>
</g>
</g>
<!-- Node4&#45;&gt;Node3 -->
<g id="edge3_Node000003_Node000004" class="edge">
<title>Node4&#45;&gt;Node3</title>
<g id="a_edge3_Node000003_Node000004"><a xlink:title=" ">
<path fill="none" stroke="#63b8ff" d="M133.78,-1448.09C138.94,-1438.92 144.11,-1429.71 149.2,-1420.67"/>
<polygon fill="none" stroke="#63b8ff" points="130.79,-1446.26 128.94,-1456.7 136.89,-1449.7 130.79,-1446.26"/>
</a>
</g>
</g>
<!-- Node5 -->
<g id="Node000005" class="node">
<title>Node5</title>
<g id="a_Node000005"><a xlink:href="class_h_y___catchment_area.html" target="_top" xlink:title=" ">
<polygon fill="white" stroke="none" points="265.5,-1632.5 149.5,-1632.5 149.5,-1508.5 265.5,-1508.5 265.5,-1632.5"/>
<text text-anchor="start" x="164" y="-1619" font-family="Helvetica,sans-Serif" font-size="10.00">HY_CatchmentArea</text>
<text text-anchor="start" x="153.88" y="-1604" font-family="Helvetica,sans-Serif" font-size="10.00">#</text>
<text text-anchor="start" x="163.5" y="-1604" font-family="Helvetica,sans-Serif" font-size="10.00">bounds</text>
<text text-anchor="start" x="153.88" y="-1589" font-family="Helvetica,sans-Serif" font-size="10.00">#</text>
<text text-anchor="start" x="163.5" y="-1589" font-family="Helvetica,sans-Serif" font-size="10.00">output</text>
<text text-anchor="start" x="153.5" y="-1574" font-family="Helvetica,sans-Serif" font-size="10.00">+</text>
<text text-anchor="start" x="163.5" y="-1574" font-family="Helvetica,sans-Serif" font-size="10.00">HY_CatchmentArea()</text>
<text text-anchor="start" x="153.5" y="-1559" font-family="Helvetica,sans-Serif" font-size="10.00">+</text>
<text text-anchor="start" x="163.5" y="-1559" font-family="Helvetica,sans-Serif" font-size="10.00">HY_CatchmentArea()</text>
<text text-anchor="start" x="153.5" y="-1544" font-family="Helvetica,sans-Serif" font-size="10.00">+</text>
<text text-anchor="start" x="163.5" y="-1544" font-family="Helvetica,sans-Serif" font-size="10.00">set_output_stream()</text>
<text text-anchor="start" x="153.5" y="-1529" font-family="Helvetica,sans-Serif" font-size="10.00">+</text>
<text text-anchor="start" x="163.5" y="-1529" font-family="Helvetica,sans-Serif" font-size="10.00">write_output()</text>
<text text-anchor="start" x="153.5" y="-1514" font-family="Helvetica,sans-Serif" font-size="10.00">+</text>
<text text-anchor="start" x="163.5" y="-1514" font-family="Helvetica,sans-Serif" font-size="10.00">~HY_CatchmentArea()</text>
<polygon fill="#666666" stroke="#666666" points="149.5,-1615.5 149.5,-1615.5 265.5,-1615.5 265.5,-1615.5 149.5,-1615.5"/>
<polygon fill="#666666" stroke="#666666" points="149.5,-1585.5 149.5,-1585.5 161.5,-1585.5 161.5,-1585.5 149.5,-1585.5"/>
<polygon fill="#666666" stroke="#666666" points="161.5,-1585.5 161.5,-1585.5 265.5,-1585.5 265.5,-1585.5 161.5,-1585.5"/>
<polygon fill="none" stroke="#666666" points="149.5,-1508.5 149.5,-1632.5 265.5,-1632.5 265.5,-1508.5 149.5,-1508.5"/>
</a>
</g>
</g>
<!-- Node5&#45;&gt;Node3 -->
<g id="edge4_Node000003_Node000005" class="edge">
<title>Node5&#45;&gt;Node3</title>
<g id="a_edge4_Node000003_Node000005"><a xlink:title=" ">
<path fill="none" stroke="#63b8ff" d="M207.5,-1497.26C207.5,-1473.41 207.5,-1446.38 207.5,-1420.65"/>
<polygon fill="none" stroke="#63b8ff" points="204,-1497.19 207.5,-1507.19 211,-1497.19 204,-1497.19"/>
</a>
</g>
</g>
<!-- Node6 -->
<g id="Node000006" class="node">
<title>Node6</title>
<g id="a_Node000006"><a xlink:href="class_h_y___catchment_realization.html" target="_top" xlink:title=" ">
<polygon fill="white" stroke="none" points="171,-1919.5 28,-1919.5 28,-1765.5 171,-1765.5 171,-1919.5"/>
<text text-anchor="start" x="42.5" y="-1906" font-family="Helvetica,sans-Serif" font-size="10.00">HY_CatchmentRealization</text>
<text text-anchor="start" x="32.38" y="-1891" font-family="Helvetica,sans-Serif" font-size="10.00">#</text>
<text text-anchor="start" x="42" y="-1891" font-family="Helvetica,sans-Serif" font-size="10.00">realized_catchment</text>
<text text-anchor="start" x="32.38" y="-1876" font-family="Helvetica,sans-Serif" font-size="10.00">#</text>
<text text-anchor="start" x="42" y="-1876" font-family="Helvetica,sans-Serif" font-size="10.00">id_number</text>
<text text-anchor="start" x="32.38" y="-1861" font-family="Helvetica,sans-Serif" font-size="10.00">#</text>
<text text-anchor="start" x="42" y="-1861" font-family="Helvetica,sans-Serif" font-size="10.00">forcing</text>
<text text-anchor="start" x="32" y="-1846" font-family="Helvetica,sans-Serif" font-size="10.00">+</text>
<text text-anchor="start" x="42" y="-1846" font-family="Helvetica,sans-Serif" font-size="10.00">HY_CatchmentRealization()</text>
<text text-anchor="start" x="32" y="-1831" font-family="Helvetica,sans-Serif" font-size="10.00">+</text>
<text text-anchor="start" x="42" y="-1831" font-family="Helvetica,sans-Serif" font-size="10.00">HY_CatchmentRealization()</text>
<text text-anchor="start" x="32" y="-1816" font-family="Helvetica,sans-Serif" font-size="10.00">+</text>
<text text-anchor="start" x="42" y="-1816" font-family="Helvetica,sans-Serif" font-size="10.00">~HY_CatchmentRealization()</text>
<text text-anchor="start" x="32" y="-1801" font-family="Helvetica,sans-Serif" font-size="10.00">+</text>
<text text-anchor="start" x="42" y="-1801" font-family="Helvetica,sans-Serif" font-size="10.00">get_response()</text>
<text text-anchor="start" x="32.38" y="-1786" font-family="Helvetica,sans-Serif" font-size="10.00">#</text>
<text text-anchor="start" x="42" y="-1786" font-family="Helvetica,sans-Serif" font-size="10.00">get_catchment_id()</text>
<text text-anchor="start" x="32.38" y="-1771" font-family="Helvetica,sans-Serif" font-size="10.00">#</text>
<text text-anchor="start" x="42" y="-1771" font-family="Helvetica,sans-Serif" font-size="10.00">set_catchment_id()</text>
<polygon fill="#666666" stroke="#666666" points="28,-1902.5 28,-1902.5 171,-1902.5 171,-1902.5 28,-1902.5"/>
<polygon fill="#666666" stroke="#666666" points="28,-1857.5 28,-1857.5 40,-1857.5 40,-1857.5 28,-1857.5"/>
<polygon fill="#666666" stroke="#666666" points="40,-1857.5 40,-1857.5 171,-1857.5 171,-1857.5 40,-1857.5"/>
<polygon fill="none" stroke="#666666" points="28,-1765.5 28,-1919.5 171,-1919.5 171,-1765.5 28,-1765.5"/>
</a>
</g>
</g>
<!-- Node6&#45;&gt;Node5 -->
<g id="edge5_Node000005_Node000006" class="edge">
<title>Node6&#45;&gt;Node5</title>
<g id="a_edge5_Node000005_Node000006"><a xlink:title=" ">
<path fill="none" stroke="#63b8ff" d="M134.09,-1755.03C150.07,-1715.06 168.68,-1668.56 183.16,-1632.36"/>
<polygon fill="none" stroke="#63b8ff" points="130.9,-1753.58 130.43,-1764.17 137.4,-1756.18 130.9,-1753.58"/>
</a>
</g>
</g>
<!-- Node7 -->
<g id="Node000007" class="node">
<title>Node7</title>
<g id="a_Node000007"><a xlink:href="class_g_m___object.html" target="_top" xlink:title=" ">
<polygon fill="white" stroke="none" points="267.5,-1874.5 189.5,-1874.5 189.5,-1810.5 267.5,-1810.5 267.5,-1874.5"/>
<text text-anchor="start" x="203.75" y="-1861" font-family="Helvetica,sans-Serif" font-size="10.00">GM_Object</text>
<text text-anchor="start" x="227" y="-1846" font-family="Helvetica,sans-Serif" font-size="10.00"> </text>
<text text-anchor="start" x="193.5" y="-1831" font-family="Helvetica,sans-Serif" font-size="10.00">+</text>
<text text-anchor="start" x="203.5" y="-1831" font-family="Helvetica,sans-Serif" font-size="10.00">GM_Object()</text>
<text text-anchor="start" x="193.5" y="-1816" font-family="Helvetica,sans-Serif" font-size="10.00">+</text>
<text text-anchor="start" x="203.5" y="-1816" font-family="Helvetica,sans-Serif" font-size="10.00">~GM_Object()</text>
<polygon fill="#666666" stroke="#666666" points="189.5,-1857.5 189.5,-1857.5 267.5,-1857.5 267.5,-1857.5 189.5,-1857.5"/>
<polygon fill="#666666" stroke="#666666" points="189.5,-1842.5 189.5,-1842.5 267.5,-1842.5 267.5,-1842.5 189.5,-1842.5"/>
<polygon fill="none" stroke="#666666" points="189.5,-1810.5 189.5,-1874.5 267.5,-1874.5 267.5,-1810.5 189.5,-1810.5"/>
</a>
</g>
</g>
<!-- Node7&#45;&gt;Node5 -->
<g id="edge6_Node000005_Node000007" class="edge">
<title>Node7&#45;&gt;Node5</title>
<g id="a_edge6_Node000005_Node000007"><a xlink:title=" ">
<path fill="none" stroke="#63b8ff" d="M225.21,-1799.18C221.72,-1754.36 216.19,-1683.21 212.23,-1632.37"/>
<polygon fill="none" stroke="#63b8ff" points="221.71,-1799.32 225.97,-1809.02 228.69,-1798.78 221.71,-1799.32"/>
</a>
</g>
</g>
<!-- Node8 -->
<g id="Node000008" class="node">
<title>Node8</title>
<g id="a_Node000008"><a xlink:href="classdata__access_1_1_generic_data_provider.html" target="_top" xlink:title=" ">
<polygon fill="white" stroke="none" points="428.5,-1346 304.5,-1346 304.5,-1286 428.5,-1286 428.5,-1346"/>
<text text-anchor="start" x="309.5" y="-1332.5" font-family="Helvetica,sans-Serif" font-size="10.00">data_access::GenericData</text>
<text text-anchor="start" x="348.5" y="-1321.25" font-family="Helvetica,sans-Serif" font-size="10.00">Provider</text>
<text text-anchor="start" x="365" y="-1306.5" font-family="Helvetica,sans-Serif" font-size="10.00"> </text>
<text text-anchor="start" x="365" y="-1291.5" font-family="Helvetica,sans-Serif" font-size="10.00"> </text>
<polygon fill="#666666" stroke="#666666" points="304.5,-1318 304.5,-1318 428.5,-1318 428.5,-1318 304.5,-1318"/>
<polygon fill="#666666" stroke="#666666" points="304.5,-1303 304.5,-1303 428.5,-1303 428.5,-1303 304.5,-1303"/>
<polygon fill="none" stroke="#666666" points="304.5,-1286 304.5,-1346 428.5,-1346 428.5,-1286 304.5,-1286"/>
</a>
</g>
</g>
<!-- Node8&#45;&gt;Node2 -->
<g id="edge7_Node000002_Node000008" class="edge">
<title>Node8&#45;&gt;Node2</title>
<g id="a_edge7_Node000002_Node000008"><a xlink:title=" ">
<path fill="none" stroke="#63b8ff" d="M358.02,-1275.11C352.53,-1249.28 344.86,-1213.18 336.48,-1173.74"/>
<polygon fill="none" stroke="#63b8ff" points="354.57,-1275.7 360.07,-1284.75 361.42,-1274.24 354.57,-1275.7"/>
</a>
</g>
</g>
<!-- Node9 -->
<g id="Node000009" class="node">
<title>Node9</title>
<g id="a_Node000009"><a xlink:href="classdata__access_1_1_data_provider.html" target="_top" xlink:title=" ">
<polygon fill="white" stroke="none" points="467.5,-1671.5 283.5,-1671.5 283.5,-1469.5 467.5,-1469.5 467.5,-1671.5"/>
<text text-anchor="start" x="288.5" y="-1658" font-family="Helvetica,sans-Serif" font-size="10.00">data_access::DataProvider</text>
<text text-anchor="start" x="288.5" y="-1646.75" font-family="Helvetica,sans-Serif" font-size="10.00">&lt; double, CatchmentAggrDataSelector &gt;</text>
<text text-anchor="start" x="374" y="-1632" font-family="Helvetica,sans-Serif" font-size="10.00"> </text>
<text text-anchor="start" x="303.5" y="-1617" font-family="Helvetica,sans-Serif" font-size="10.00">+</text>
<text text-anchor="start" x="329.5" y="-1617" font-family="Helvetica,sans-Serif" font-size="10.00">~DataProvider()</text>
<text text-anchor="start" x="303.5" y="-1602" font-family="Helvetica,sans-Serif" font-size="10.00">+</text>
<text text-anchor="start" x="329.5" y="-1602" font-family="Helvetica,sans-Serif" font-size="10.00">get_available_variable</text>
<text text-anchor="start" x="329.5" y="-1590.75" font-family="Helvetica,sans-Serif" font-size="10.00">_names()</text>
<text text-anchor="start" x="303.5" y="-1576" font-family="Helvetica,sans-Serif" font-size="10.00">+</text>
<text text-anchor="start" x="329.5" y="-1576" font-family="Helvetica,sans-Serif" font-size="10.00">get_data_start_time()</text>
<text text-anchor="start" x="303.5" y="-1561" font-family="Helvetica,sans-Serif" font-size="10.00">+</text>
<text text-anchor="start" x="329.5" y="-1561" font-family="Helvetica,sans-Serif" font-size="10.00">get_data_stop_time()</text>
<text text-anchor="start" x="303.5" y="-1546" font-family="Helvetica,sans-Serif" font-size="10.00">+</text>
<text text-anchor="start" x="329.5" y="-1546" font-family="Helvetica,sans-Serif" font-size="10.00">record_duration()</text>
<text text-anchor="start" x="303.5" y="-1531" font-family="Helvetica,sans-Serif" font-size="10.00">+</text>
<text text-anchor="start" x="329.5" y="-1531" font-family="Helvetica,sans-Serif" font-size="10.00">get_ts_index_for_time()</text>
<text text-anchor="start" x="303.5" y="-1516" font-family="Helvetica,sans-Serif" font-size="10.00">+</text>
<text text-anchor="start" x="329.5" y="-1516" font-family="Helvetica,sans-Serif" font-size="10.00">get_value()</text>
<text text-anchor="start" x="303.5" y="-1501" font-family="Helvetica,sans-Serif" font-size="10.00">+</text>
<text text-anchor="start" x="329.5" y="-1501" font-family="Helvetica,sans-Serif" font-size="10.00">get_values()</text>
<text text-anchor="start" x="303.5" y="-1486" font-family="Helvetica,sans-Serif" font-size="10.00">+</text>
<text text-anchor="start" x="329.5" y="-1486" font-family="Helvetica,sans-Serif" font-size="10.00">is_property_sum_over</text>
<text text-anchor="start" x="329.5" y="-1474.75" font-family="Helvetica,sans-Serif" font-size="10.00">_time_step()</text>
<polygon fill="#666666" stroke="#666666" points="283.5,-1643.5 283.5,-1643.5 467.5,-1643.5 467.5,-1643.5 283.5,-1643.5"/>
<polygon fill="#666666" stroke="#666666" points="283.5,-1628.5 283.5,-1628.5 467.5,-1628.5 467.5,-1628.5 283.5,-1628.5"/>
<polygon fill="none" stroke="#666666" points="283.5,-1469.5 283.5,-1671.5 467.5,-1671.5 467.5,-1469.5 283.5,-1469.5"/>
</a>
</g>
</g>
<!-- Node9&#45;&gt;Node8 -->
<g id="edge8_Node000008_Node000009" class="edge">
<title>Node9&#45;&gt;Node8</title>
<g id="a_edge8_Node000008_Node000009"><a xlink:title=" ">
<path fill="none" stroke="#63b8ff" d="M371.54,-1458.4C370.07,-1417.06 368.51,-1373.52 367.53,-1345.86"/>
<polygon fill="none" stroke="#63b8ff" points="368.03,-1458.32 371.89,-1468.19 375.03,-1458.07 368.03,-1458.32"/>
</a>
</g>
</g>
<!-- Node10 -->
<g id="Node000010" class="node">
<title>Node10</title>
<g id="a_Node000010"><a xlink:href="classdata__access_1_1_data_provider.html" target="_top" xlink:title=" ">
<polygon fill="white" stroke="none" points="443.5,-1943.5 307.5,-1943.5 307.5,-1741.5 443.5,-1741.5 443.5,-1943.5"/>
<text text-anchor="start" x="312.5" y="-1930" font-family="Helvetica,sans-Serif" font-size="10.00">data_access::DataProvider</text>
<text text-anchor="start" x="312.5" y="-1918.75" font-family="Helvetica,sans-Serif" font-size="10.00">&lt; data_type, selection_type &gt;</text>
<text text-anchor="start" x="374" y="-1904" font-family="Helvetica,sans-Serif" font-size="10.00"> </text>
<text text-anchor="start" x="315.5" y="-1889" font-family="Helvetica,sans-Serif" font-size="10.00">+</text>
<text text-anchor="start" x="329.5" y="-1889" font-family="Helvetica,sans-Serif" font-size="10.00">~DataProvider()</text>
<text text-anchor="start" x="315.5" y="-1874" font-family="Helvetica,sans-Serif" font-size="10.00">+</text>
<text text-anchor="start" x="329.5" y="-1874" font-family="Helvetica,sans-Serif" font-size="10.00">get_available_variable</text>
<text text-anchor="start" x="329.5" y="-1862.75" font-family="Helvetica,sans-Serif" font-size="10.00">_names()</text>
<text text-anchor="start" x="315.5" y="-1848" font-family="Helvetica,sans-Serif" font-size="10.00">+</text>
<text text-anchor="start" x="329.5" y="-1848" font-family="Helvetica,sans-Serif" font-size="10.00">get_data_start_time()</text>
<text text-anchor="start" x="315.5" y="-1833" font-family="Helvetica,sans-Serif" font-size="10.00">+</text>
<text text-anchor="start" x="329.5" y="-1833" font-family="Helvetica,sans-Serif" font-size="10.00">get_data_stop_time()</text>
<text text-anchor="start" x="315.5" y="-1818" font-family="Helvetica,sans-Serif" font-size="10.00">+</text>
<text text-anchor="start" x="329.5" y="-1818" font-family="Helvetica,sans-Serif" font-size="10.00">record_duration()</text>
<text text-anchor="start" x="315.5" y="-1803" font-family="Helvetica,sans-Serif" font-size="10.00">+</text>
<text text-anchor="start" x="329.5" y="-1803" font-family="Helvetica,sans-Serif" font-size="10.00">get_ts_index_for_time()</text>
<text text-anchor="start" x="315.5" y="-1788" font-family="Helvetica,sans-Serif" font-size="10.00">+</text>
<text text-anchor="start" x="329.5" y="-1788" font-family="Helvetica,sans-Serif" font-size="10.00">get_value()</text>
<text text-anchor="start" x="315.5" y="-1773" font-family="Helvetica,sans-Serif" font-size="10.00">+</text>
<text text-anchor="start" x="329.5" y="-1773" font-family="Helvetica,sans-Serif" font-size="10.00">get_values()</text>
<text text-anchor="start" x="315.5" y="-1758" font-family="Helvetica,sans-Serif" font-size="10.00">+</text>
<text text-anchor="start" x="329.5" y="-1758" font-family="Helvetica,sans-Serif" font-size="10.00">is_property_sum_over</text>
<text text-anchor="start" x="329.5" y="-1746.75" font-family="Helvetica,sans-Serif" font-size="10.00">_time_step()</text>
<polygon fill="#666666" stroke="#666666" points="307.5,-1915.5 307.5,-1915.5 443.5,-1915.5 443.5,-1915.5 307.5,-1915.5"/>
<polygon fill="#666666" stroke="#666666" points="307.5,-1900.5 307.5,-1900.5 443.5,-1900.5 443.5,-1900.5 307.5,-1900.5"/>
<polygon fill="none" stroke="#666666" points="307.5,-1741.5 307.5,-1943.5 443.5,-1943.5 443.5,-1741.5 307.5,-1741.5"/>
</a>
</g>
</g>
<!-- Node10&#45;&gt;Node9 -->
<g id="edge9_Node000009_Node000010" class="edge">
<title>Node10&#45;&gt;Node9</title>
<g id="a_edge9_Node000009_Node000010"><a xlink:title=" ">
<path fill="none" stroke="orange" d="M375.5,-1730.31C375.5,-1710.76 375.5,-1690.53 375.5,-1671.31"/>
<polygon fill="orange" stroke="orange" points="372,-1730.22 375.5,-1740.22 379,-1730.22 372,-1730.22"/>
</a>
</g>
<text text-anchor="start" x="375.5" y="-1714" font-family="Helvetica,sans-Serif" font-size="10.00" fill="grey"> &lt; double, CatchmentAggrData</text>
<text text-anchor="middle" x="441.5" y="-1702.75" font-family="Helvetica,sans-Serif" font-size="10.00" fill="grey">Selector &gt;</text>
</g>
</g>
</svg>

<g id="navigator" transform="translate(0 0)" fill="#404254">
  <rect fill="#f2f5e9" fill-opacity="0.5" stroke="#606060" stroke-width=".5" x="0" y="0" width="60" height="60"/>
  <use id="zoomplus" xlink:href="#zoomPlus" x="17" y="9" onmousedown="handleZoom(evt,'in')"/>
  <use id="zoomminus" xlink:href="#zoomMin" x="42" y="9" onmousedown="handleZoom(evt,'out')"/>
  <use id="reset" xlink:href="#resetDef" x="30" y="36" onmousedown="handleReset()"/>
   <use id="arrowup" xlink:href="#arrowUp" x="0" y="0" onmousedown="handlePan(0,-1)"/>
  <use id="arrowright" xlink:href="#arrowRight" x="0" y="0" onmousedown="handlePan(1,0)"/>
  <use id="arrowdown" xlink:href="#arrowDown" x="0" y="0" onmousedown="handlePan(0,1)"/>
  <use id="arrowleft" xlink:href="#arrowLeft" x="0" y="0" onmousedown="handlePan(-1,0)"/>
</g>
<svg viewBox="0 0 15 15" width="100%" height="30px" preserveAspectRatio="xMaxYMin meet">
 <g id="arrow_out" transform="scale(0.3 0.3)">
  <a xlink:href="classrealization_1_1_bmi___multi___formulation__inherit__graph_org.svg" target="_base">
   <rect id="button" ry="5" rx="5" y="6" x="6" height="38" width="38"
        fill="#f2f5e9" fill-opacity="0.5" stroke="#606060" stroke-width="1.0"/>
   <path id="arrow"
     d="M 11.500037,31.436501 C 11.940474,20.09759 22.043105,11.32322 32.158766,21.979434 L 37.068811,17.246167 C 37.068811,17.246167 37.088388,32 37.088388,32 L 22.160133,31.978069 C 22.160133,31.978069 26.997745,27.140456 26.997745,27.140456 C 18.528582,18.264221 13.291696,25.230495 11.500037,31.436501 z"
     style="fill:#404040;"/>
  </a>
 </g>
</svg>

<style type='text/css'>
<![CDATA[
[data-mouse-over-selected='false'] { opacity: 0.7; }
[data-mouse-over-selected='true']  { opacity: 1.0; }
]]>
</style>
<script type="application/ecmascript"><![CDATA[
document.addEventListener('DOMContentLoaded', (event) => {
  highlightEdges();
  highlightAdjacentNodes();
});
]]></script>
</svg>
