<?xml version="1.0" encoding="UTF-8" standalone="no"?>
<!DOCTYPE svg PUBLIC "-//W3C//DTD SVG 1.1//EN"
 "http://www.w3.org/Graphics/SVG/1.1/DTD/svg11.dtd">
<!-- Generated by graphviz version 3.0.0 (20220413.0106)
 -->
<!-- Title: forcing::DeferredWrappedProvider Pages: 1 -->
<svg width="383pt" height="733pt"
 viewBox="0.00 0.00 382.50 733.00" xmlns="http://www.w3.org/2000/svg" xmlns:xlink="http://www.w3.org/1999/xlink">
<g id="graph0" class="graph" transform="scale(1 1) rotate(0) translate(4 729)">
<title>forcing::DeferredWrappedProvider</title>
<polygon fill="white" stroke="transparent" points="-4,4 -4,-729 378.5,-729 378.5,4 -4,4"/>
<!-- Node1 -->
<g id="node1" class="node">
<title>Node1</title>
<g id="a_node1"><a xlink:title="A specialized @WrappedForcingProvider that is created without first knowing the backing source it wra...">
<polygon fill="#bfbfbf" stroke="black" points="122.5,-0.5 122.5,-156.5 264.5,-156.5 264.5,-0.5 122.5,-0.5"/>
<text text-anchor="start" x="130.5" y="-144.5" font-family="Helvetica,sans-Serif" font-size="10.00">forcing::DeferredWrapped</text>
<text text-anchor="middle" x="193.5" y="-133.5" font-family="Helvetica,sans-Serif" font-size="10.00">Provider</text>
<polyline fill="none" stroke="black" points="122.5,-126.5 264.5,-126.5 "/>
<text text-anchor="middle" x="193.5" y="-114.5" font-family="Helvetica,sans-Serif" font-size="10.00"> </text>
<polyline fill="none" stroke="black" points="122.5,-107.5 264.5,-107.5 "/>
<text text-anchor="start" x="130.5" y="-95.5" font-family="Helvetica,sans-Serif" font-size="10.00">+ DeferredWrappedProvider()</text>
<text text-anchor="start" x="130.5" y="-84.5" font-family="Helvetica,sans-Serif" font-size="10.00">+ DeferredWrappedProvider()</text>
<text text-anchor="start" x="130.5" y="-73.5" font-family="Helvetica,sans-Serif" font-size="10.00">+ DeferredWrappedProvider()</text>
<text text-anchor="start" x="130.5" y="-62.5" font-family="Helvetica,sans-Serif" font-size="10.00">+ get_available_forcing</text>
<text text-anchor="start" x="130.5" y="-51.5" font-family="Helvetica,sans-Serif" font-size="10.00">_outputs()</text>
<text text-anchor="start" x="130.5" y="-40.5" font-family="Helvetica,sans-Serif" font-size="10.00">+ getSetMessage()</text>
<text text-anchor="start" x="130.5" y="-29.5" font-family="Helvetica,sans-Serif" font-size="10.00">+ isReadyToProvideData()</text>
<text text-anchor="start" x="130.5" y="-18.5" font-family="Helvetica,sans-Serif" font-size="10.00">+ isWrappedProviderSet()</text>
<text text-anchor="start" x="130.5" y="-7.5" font-family="Helvetica,sans-Serif" font-size="10.00">+ setWrappedProvider()</text>
</a>
</g>
</g>
<!-- Node2 -->
<g id="node2" class="node">
<title>Node2</title>
<g id="a_node2"><a xlink:href="classforcing_1_1_wrapped_forcing_provider.html" target="_top" xlink:title="Simple implementation that basically wraps another instance.">
<polygon fill="white" stroke="black" points="0,-204.5 0,-393.5 157,-393.5 157,-204.5 0,-204.5"/>
<text text-anchor="middle" x="78.5" y="-381.5" font-family="Helvetica,sans-Serif" font-size="10.00">forcing::WrappedForcingProvider</text>
<polyline fill="none" stroke="black" points="0,-374.5 157,-374.5 "/>
<text text-anchor="middle" x="78.5" y="-362.5" font-family="Helvetica,sans-Serif" font-size="10.00"> </text>
<polyline fill="none" stroke="black" points="0,-355.5 157,-355.5 "/>
<text text-anchor="start" x="8" y="-343.5" font-family="Helvetica,sans-Serif" font-size="10.00">+ WrappedForcingProvider()</text>
<text text-anchor="start" x="8" y="-332.5" font-family="Helvetica,sans-Serif" font-size="10.00">+ WrappedForcingProvider()</text>
<text text-anchor="start" x="8" y="-321.5" font-family="Helvetica,sans-Serif" font-size="10.00">+ WrappedForcingProvider()</text>
<text text-anchor="start" x="8" y="-310.5" font-family="Helvetica,sans-Serif" font-size="10.00">+ get_available_forcing</text>
<text text-anchor="start" x="8" y="-299.5" font-family="Helvetica,sans-Serif" font-size="10.00">_outputs()</text>
<text text-anchor="start" x="8" y="-288.5" font-family="Helvetica,sans-Serif" font-size="10.00">+ get_forcing_output</text>
<text text-anchor="start" x="8" y="-277.5" font-family="Helvetica,sans-Serif" font-size="10.00">_time_begin()</text>
<text text-anchor="start" x="8" y="-266.5" font-family="Helvetica,sans-Serif" font-size="10.00">+ get_forcing_output</text>
<text text-anchor="start" x="8" y="-255.5" font-family="Helvetica,sans-Serif" font-size="10.00">_time_end()</text>
<text text-anchor="start" x="8" y="-244.5" font-family="Helvetica,sans-Serif" font-size="10.00">+ get_ts_index_for_time()</text>
<text text-anchor="start" x="8" y="-233.5" font-family="Helvetica,sans-Serif" font-size="10.00">+ get_value()</text>
<text text-anchor="start" x="8" y="-222.5" font-family="Helvetica,sans-Serif" font-size="10.00">+ is_property_sum_over</text>
<text text-anchor="start" x="8" y="-211.5" font-family="Helvetica,sans-Serif" font-size="10.00">_time_step()</text>
</a>
</g>
</g>
<!-- Node2&#45;&gt;Node1 -->
<g id="edge1" class="edge">
<title>Node2&#45;&gt;Node1</title>
<path fill="none" stroke="midnightblue" d="M132.49,-195.42C139.33,-182.43 146.23,-169.31 152.81,-156.81"/>
<polygon fill="none" stroke="midnightblue" points="129.33,-193.91 127.77,-204.39 135.53,-197.17 129.33,-193.91"/>
</g>
<!-- Node3 -->
<g id="node3" class="node">
<title>Node3</title>
<g id="a_node3"><a xlink:href="classforcing_1_1_forcing_provider.html" target="_top" xlink:title="An abstraction interface for types that provides forcing data.">
<polygon fill="white" stroke="black" points="15.5,-441.5 15.5,-608.5 141.5,-608.5 141.5,-441.5 15.5,-441.5"/>
<text text-anchor="middle" x="78.5" y="-596.5" font-family="Helvetica,sans-Serif" font-size="10.00">forcing::ForcingProvider</text>
<polyline fill="none" stroke="black" points="15.5,-589.5 141.5,-589.5 "/>
<text text-anchor="middle" x="78.5" y="-577.5" font-family="Helvetica,sans-Serif" font-size="10.00"> </text>
<polyline fill="none" stroke="black" points="15.5,-570.5 141.5,-570.5 "/>
<text text-anchor="start" x="23.5" y="-558.5" font-family="Helvetica,sans-Serif" font-size="10.00">+ ~ForcingProvider()</text>
<text text-anchor="start" x="23.5" y="-547.5" font-family="Helvetica,sans-Serif" font-size="10.00">+ get_available_forcing</text>
<text text-anchor="start" x="23.5" y="-536.5" font-family="Helvetica,sans-Serif" font-size="10.00">_outputs()</text>
<text text-anchor="start" x="23.5" y="-525.5" font-family="Helvetica,sans-Serif" font-size="10.00">+ get_forcing_output</text>
<text text-anchor="start" x="23.5" y="-514.5" font-family="Helvetica,sans-Serif" font-size="10.00">_time_begin()</text>
<text text-anchor="start" x="23.5" y="-503.5" font-family="Helvetica,sans-Serif" font-size="10.00">+ get_forcing_output</text>
<text text-anchor="start" x="23.5" y="-492.5" font-family="Helvetica,sans-Serif" font-size="10.00">_time_end()</text>
<text text-anchor="start" x="23.5" y="-481.5" font-family="Helvetica,sans-Serif" font-size="10.00">+ get_ts_index_for_time()</text>
<text text-anchor="start" x="23.5" y="-470.5" font-family="Helvetica,sans-Serif" font-size="10.00">+ get_value()</text>
<text text-anchor="start" x="23.5" y="-459.5" font-family="Helvetica,sans-Serif" font-size="10.00">+ is_property_sum_over</text>
<text text-anchor="start" x="23.5" y="-448.5" font-family="Helvetica,sans-Serif" font-size="10.00">_time_step()</text>
</a>
</g>
</g>
<!-- Node3&#45;&gt;Node2 -->
<g id="edge2" class="edge">
<title>Node3&#45;&gt;Node2</title>
<path fill="none" stroke="midnightblue" d="M68.01,-431.24C67.82,-428.47 67.65,-425.71 67.5,-423 66.98,-413.47 66.98,-403.54 67.32,-393.64"/>
<polygon fill="none" stroke="midnightblue" points="64.53,-431.67 68.76,-441.38 71.51,-431.15 64.53,-431.67"/>
</g>
<!-- Node3&#45;&gt;Node2 -->
<g id="edge3" class="edge">
<title>Node3&#45;&gt;Node2</title>
<path fill="none" stroke="#404040" d="M78.5,-441.23C78.5,-429.76 78.5,-417.85 78.5,-406.03"/>
<polygon fill="none" stroke="#404040" points="78.5,-405.76 74.5,-399.76 78.5,-393.76 82.5,-399.76 78.5,-405.76"/>
<text text-anchor="middle" x="121" y="-415" font-family="Helvetica,sans-Serif" font-size="10.00"> #wrapped_provider</text>
</g>
<!-- Node4 -->
<g id="node4" class="node">
<title>Node4</title>
<g id="a_node4"><a xlink:title=" ">
<polygon fill="white" stroke="black" points="272.5,-270.5 272.5,-327.5 374.5,-327.5 374.5,-270.5 272.5,-270.5"/>
<text text-anchor="middle" x="323.5" y="-315.5" font-family="Helvetica,sans-Serif" font-size="10.00">std::vector&lt; string &gt;</text>
<polyline fill="none" stroke="black" points="272.5,-308.5 374.5,-308.5 "/>
<text text-anchor="middle" x="323.5" y="-296.5" font-family="Helvetica,sans-Serif" font-size="10.00"> </text>
<polyline fill="none" stroke="black" points="272.5,-289.5 374.5,-289.5 "/>
<text text-anchor="middle" x="323.5" y="-277.5" font-family="Helvetica,sans-Serif" font-size="10.00"> </text>
</a>
</g>
</g>
<!-- Node4&#45;&gt;Node1 -->
<g id="edge4" class="edge">
<title>Node4&#45;&gt;Node1</title>
<path fill="none" stroke="#404040" d="M307.04,-270.33C291.61,-244.41 267.72,-204.25 245.83,-167.45"/>
<polygon fill="none" stroke="#404040" points="245.55,-166.98 239.04,-163.87 239.41,-156.67 245.92,-159.78 245.55,-166.98"/>
<text text-anchor="middle" x="295" y="-178" font-family="Helvetica,sans-Serif" font-size="10.00"> #providedOutputs</text>
</g>
<!-- Node5 -->
<g id="node5" class="node">
<title>Node5</title>
<g id="a_node5"><a xlink:title=" ">
<polygon fill="white" stroke="black" points="171,-496.5 171,-553.5 230,-553.5 230,-496.5 171,-496.5"/>
<text text-anchor="middle" x="200.5" y="-541.5" font-family="Helvetica,sans-Serif" font-size="10.00">std::string</text>
<polyline fill="none" stroke="black" points="171,-534.5 230,-534.5 "/>
<text text-anchor="middle" x="200.5" y="-522.5" font-family="Helvetica,sans-Serif" font-size="10.00"> </text>
<polyline fill="none" stroke="black" points="171,-515.5 230,-515.5 "/>
<text text-anchor="middle" x="200.5" y="-503.5" font-family="Helvetica,sans-Serif" font-size="10.00"> </text>
</a>
</g>
</g>
<!-- Node5&#45;&gt;Node1 -->
<g id="edge9" class="edge">
<title>Node5&#45;&gt;Node1</title>
<path fill="none" stroke="#404040" d="M200.06,-496.19C199.05,-431.91 196.51,-270.69 194.9,-168.68"/>
<polygon fill="none" stroke="#404040" points="194.9,-168.54 190.81,-162.61 194.71,-156.55 198.81,-162.48 194.9,-168.54"/>
<text text-anchor="middle" x="229" y="-296.5" font-family="Helvetica,sans-Serif" font-size="10.00"> #setMessage</text>
</g>
<!-- Node5&#45;&gt;Node4 -->
<g id="edge5" class="edge">
<title>Node5&#45;&gt;Node4</title>
<path fill="none" stroke="#404040" d="M215.83,-496.08C237.68,-456.3 277.84,-383.15 302.46,-338.32"/>
<polygon fill="none" stroke="#404040" points="302.59,-338.08 301.97,-330.9 308.36,-327.56 308.98,-334.75 302.59,-338.08"/>
<text text-anchor="middle" x="287" y="-415" font-family="Helvetica,sans-Serif" font-size="10.00"> +elements</text>
</g>
<!-- Node6 -->
<g id="node6" class="node">
<title>Node6</title>
<g id="a_node6"><a xlink:title=" ">
<polygon fill="white" stroke="black" points="154,-656.5 154,-724.5 247,-724.5 247,-656.5 154,-656.5"/>
<text text-anchor="start" x="162" y="-712.5" font-family="Helvetica,sans-Serif" font-size="10.00">std::basic_string&lt;</text>
<text text-anchor="middle" x="200.5" y="-701.5" font-family="Helvetica,sans-Serif" font-size="10.00"> Char &gt;</text>
<polyline fill="none" stroke="black" points="154,-694.5 247,-694.5 "/>
<text text-anchor="middle" x="200.5" y="-682.5" font-family="Helvetica,sans-Serif" font-size="10.00"> </text>
<polyline fill="none" stroke="black" points="154,-675.5 247,-675.5 "/>
<text text-anchor="middle" x="200.5" y="-663.5" font-family="Helvetica,sans-Serif" font-size="10.00"> </text>
</a>
</g>
</g>
<!-- Node6&#45;&gt;Node5 -->
<g id="edge6" class="edge">
<title>Node6&#45;&gt;Node5</title>
<path fill="none" stroke="midnightblue" d="M200.5,-646.03C200.5,-616.7 200.5,-578.88 200.5,-553.61"/>
<polygon fill="none" stroke="midnightblue" points="197,-646.41 200.5,-656.41 204,-646.41 197,-646.41"/>
</g>
<!-- Node7 -->
<g id="node7" class="node">
<title>Node7</title>
<g id="a_node7"><a xlink:title=" ">
<polygon fill="white" stroke="black" points="281.5,-496.5 281.5,-553.5 365.5,-553.5 365.5,-496.5 281.5,-496.5"/>
<text text-anchor="middle" x="323.5" y="-541.5" font-family="Helvetica,sans-Serif" font-size="10.00">std::vector&lt; T &gt;</text>
<polyline fill="none" stroke="black" points="281.5,-534.5 365.5,-534.5 "/>
<text text-anchor="middle" x="323.5" y="-522.5" font-family="Helvetica,sans-Serif" font-size="10.00"> </text>
<polyline fill="none" stroke="black" points="281.5,-515.5 365.5,-515.5 "/>
<text text-anchor="middle" x="323.5" y="-503.5" font-family="Helvetica,sans-Serif" font-size="10.00"> </text>
</a>
</g>
</g>
<!-- Node7&#45;&gt;Node4 -->
<g id="edge7" class="edge">
<title>Node7&#45;&gt;Node4</title>
<path fill="none" stroke="orange" d="M323.5,-485.86C323.5,-440.91 323.5,-367.32 323.5,-327.56"/>
<polygon fill="orange" stroke="orange" points="320,-486.08 323.5,-496.08 327,-486.08 320,-486.08"/>
<text text-anchor="middle" x="345" y="-415" font-family="Helvetica,sans-Serif" font-size="10.00"> &lt; string &gt;</text>
</g>
<!-- Node8 -->
<g id="node8" class="node">
<title>Node8</title>
<g id="a_node8"><a xlink:title=" ">
<polygon fill="white" stroke="black" points="309,-662 309,-719 338,-719 338,-662 309,-662"/>
<text text-anchor="middle" x="323.5" y="-707" font-family="Helvetica,sans-Serif" font-size="10.00">T</text>
<polyline fill="none" stroke="black" points="309,-700 338,-700 "/>
<text text-anchor="middle" x="323.5" y="-688" font-family="Helvetica,sans-Serif" font-size="10.00"> </text>
<polyline fill="none" stroke="black" points="309,-681 338,-681 "/>
<text text-anchor="middle" x="323.5" y="-669" font-family="Helvetica,sans-Serif" font-size="10.00"> </text>
</a>
</g>
</g>
<!-- Node8&#45;&gt;Node7 -->
<g id="edge8" class="edge">
<title>Node8&#45;&gt;Node7</title>
<path fill="none" stroke="#404040" d="M323.5,-661.76C323.5,-635.38 323.5,-595.4 323.5,-565.65"/>
<polygon fill="none" stroke="#404040" points="323.5,-565.6 319.5,-559.6 323.5,-553.6 327.5,-559.6 323.5,-565.6"/>
<text text-anchor="middle" x="348" y="-630" font-family="Helvetica,sans-Serif" font-size="10.00"> +elements</text>
</g>
</g>
</svg>
