<?xml version="1.0" encoding="UTF-8" standalone="no"?>
<!DOCTYPE svg PUBLIC "-//W3C//DTD SVG 1.1//EN"
 "http://www.w3.org/Graphics/SVG/1.1/DTD/svg11.dtd">
<!-- Generated by graphviz version 2.44.0 ()
 -->
<!-- Title: HY_HydroNetwork Pages: 1 -->
<svg width="1032pt" height="574pt"
 viewBox="0.00 0.00 1032.00 574.00" xmlns="http://www.w3.org/2000/svg" xmlns:xlink="http://www.w3.org/1999/xlink">
<g id="graph0" class="graph" transform="scale(1 1) rotate(0) translate(4 570)">
<title>HY_HydroNetwork</title>
<polygon fill="white" stroke="transparent" points="-4,4 -4,-570 1028,-570 1028,4 -4,4"/>
<!-- Node1 -->
<g id="node1" class="node">
<title>Node1</title>
<g id="a_node1"><a xlink:title=" ">
<polygon fill="#bfbfbf" stroke="black" points="360,-0.5 360,-68.5 478,-68.5 478,-0.5 360,-0.5"/>
<text text-anchor="middle" x="419" y="-56.5" font-family="Helvetica,sans-Serif" font-size="10.00">HY_HydroNetwork</text>
<polyline fill="none" stroke="black" points="360,-49.5 478,-49.5 "/>
<text text-anchor="middle" x="419" y="-37.5" font-family="Helvetica,sans-Serif" font-size="10.00"> </text>
<polyline fill="none" stroke="black" points="360,-30.5 478,-30.5 "/>
<text text-anchor="start" x="368" y="-18.5" font-family="Helvetica,sans-Serif" font-size="10.00">+ HY_HydroNetwork()</text>
<text text-anchor="start" x="368" y="-7.5" font-family="Helvetica,sans-Serif" font-size="10.00">+ ~HY_HydroNetwork()</text>
</a>
</g>
</g>
<!-- Node2 -->
<g id="node2" class="node">
<title>Node2</title>
<g id="a_node2"><a xlink:href="class_g_m___object.html" target="_top" xlink:title=" ">
<polygon fill="white" stroke="black" points="0,-138.5 0,-206.5 86,-206.5 86,-138.5 0,-138.5"/>
<text text-anchor="middle" x="43" y="-194.5" font-family="Helvetica,sans-Serif" font-size="10.00">GM_Object</text>
<polyline fill="none" stroke="black" points="0,-187.5 86,-187.5 "/>
<text text-anchor="middle" x="43" y="-175.5" font-family="Helvetica,sans-Serif" font-size="10.00"> </text>
<polyline fill="none" stroke="black" points="0,-168.5 86,-168.5 "/>
<text text-anchor="start" x="8" y="-156.5" font-family="Helvetica,sans-Serif" font-size="10.00">+ GM_Object()</text>
<text text-anchor="start" x="8" y="-145.5" font-family="Helvetica,sans-Serif" font-size="10.00">+ ~GM_Object()</text>
</a>
</g>
</g>
<!-- Node2&#45;&gt;Node1 -->
<g id="edge1" class="edge">
<title>Node2&#45;&gt;Node1</title>
<path fill="none" stroke="midnightblue" d="M75.41,-131.1C81.43,-125.39 88.03,-120.09 95,-116 178.85,-66.79 291.93,-47.5 359.93,-40.06"/>
<polygon fill="none" stroke="midnightblue" points="72.65,-128.9 68.11,-138.48 77.63,-133.82 72.65,-128.9"/>
</g>
<!-- Node3 -->
<g id="node3" class="node">
<title>Node3</title>
<g id="a_node3"><a xlink:href="class_h_y___catchment_realization.html" target="_top" xlink:title=" ">
<polygon fill="white" stroke="black" points="104,-116.5 104,-228.5 254,-228.5 254,-116.5 104,-116.5"/>
<text text-anchor="middle" x="179" y="-216.5" font-family="Helvetica,sans-Serif" font-size="10.00">HY_CatchmentRealization</text>
<polyline fill="none" stroke="black" points="104,-209.5 254,-209.5 "/>
<text text-anchor="start" x="112" y="-197.5" font-family="Helvetica,sans-Serif" font-size="10.00"># id_number</text>
<polyline fill="none" stroke="black" points="104,-190.5 254,-190.5 "/>
<text text-anchor="start" x="112" y="-178.5" font-family="Helvetica,sans-Serif" font-size="10.00">+ HY_CatchmentRealization()</text>
<text text-anchor="start" x="112" y="-167.5" font-family="Helvetica,sans-Serif" font-size="10.00">+ HY_CatchmentRealization()</text>
<text text-anchor="start" x="112" y="-156.5" font-family="Helvetica,sans-Serif" font-size="10.00">+ ~HY_CatchmentRealization()</text>
<text text-anchor="start" x="112" y="-145.5" font-family="Helvetica,sans-Serif" font-size="10.00">+ get_response()</text>
<text text-anchor="start" x="112" y="-134.5" font-family="Helvetica,sans-Serif" font-size="10.00"># get_catchment_id()</text>
<text text-anchor="start" x="112" y="-123.5" font-family="Helvetica,sans-Serif" font-size="10.00"># set_catchment_id()</text>
</a>
</g>
</g>
<!-- Node3&#45;&gt;Node1 -->
<g id="edge2" class="edge">
<title>Node3&#45;&gt;Node1</title>
<path fill="none" stroke="midnightblue" d="M262.72,-121.9C266.19,-119.9 269.62,-117.93 273,-116 301.41,-99.79 333.18,-82.2 359.82,-67.62"/>
<polygon fill="none" stroke="midnightblue" points="260.95,-118.88 254.05,-126.92 264.46,-124.94 260.95,-118.88"/>
</g>
<!-- Node4 -->
<g id="node4" class="node">
<title>Node4</title>
<g id="a_node4"><a xlink:title=" ">
<polygon fill="white" stroke="#bfbfbf" points="49.5,-287.5 49.5,-355.5 166.5,-355.5 166.5,-287.5 49.5,-287.5"/>
<text text-anchor="start" x="57.5" y="-343.5" font-family="Helvetica,sans-Serif" font-size="10.00">std::unique_ptr&lt; forcing</text>
<text text-anchor="middle" x="108" y="-332.5" font-family="Helvetica,sans-Serif" font-size="10.00">::ForcingProvider &gt;</text>
<polyline fill="none" stroke="#bfbfbf" points="49.5,-325.5 166.5,-325.5 "/>
<text text-anchor="start" x="57.5" y="-313.5" font-family="Helvetica,sans-Serif" font-size="10.00">+ ptr</text>
<polyline fill="none" stroke="#bfbfbf" points="49.5,-306.5 166.5,-306.5 "/>
<text text-anchor="start" x="57.5" y="-294.5" font-family="Helvetica,sans-Serif" font-size="10.00">+ operator&#45;&gt;()</text>
</a>
</g>
</g>
<!-- Node4&#45;&gt;Node3 -->
<g id="edge3" class="edge">
<title>Node4&#45;&gt;Node3</title>
<path fill="none" stroke="#404040" d="M124.11,-287.14C130.89,-273.1 139.04,-256.24 146.95,-239.86"/>
<polygon fill="none" stroke="#404040" points="147.15,-239.44 146.16,-232.3 152.37,-228.64 153.36,-235.78 147.15,-239.44"/>
<text text-anchor="middle" x="162.5" y="-255.5" font-family="Helvetica,sans-Serif" font-size="10.00"> #forcing</text>
</g>
<!-- Node5 -->
<g id="node5" class="node">
<title>Node5</title>
<g id="a_node5"><a xlink:title=" ">
<polygon fill="white" stroke="#bfbfbf" points="182,-403.5 182,-460.5 284,-460.5 284,-403.5 182,-403.5"/>
<text text-anchor="middle" x="233" y="-448.5" font-family="Helvetica,sans-Serif" font-size="10.00">std::unique_ptr&lt; T &gt;</text>
<polyline fill="none" stroke="#bfbfbf" points="182,-441.5 284,-441.5 "/>
<text text-anchor="middle" x="233" y="-429.5" font-family="Helvetica,sans-Serif" font-size="10.00"> </text>
<polyline fill="none" stroke="#bfbfbf" points="182,-422.5 284,-422.5 "/>
<text text-anchor="start" x="190" y="-410.5" font-family="Helvetica,sans-Serif" font-size="10.00">+ operator&#45;&gt;()</text>
</a>
</g>
</g>
<!-- Node5&#45;&gt;Node4 -->
<g id="edge4" class="edge">
<title>Node5&#45;&gt;Node4</title>
<path fill="none" stroke="orange" d="M172,-422.41C149.18,-415.96 125.34,-404.7 111,-385 104.93,-376.66 102.95,-365.9 102.86,-355.67"/>
<polygon fill="orange" stroke="orange" points="171.14,-425.8 181.69,-424.88 172.87,-419.01 171.14,-425.8"/>
<text text-anchor="middle" x="171.5" y="-377" font-family="Helvetica,sans-Serif" font-size="10.00"> &lt; forcing::ForcingProvider &gt;</text>
</g>
<!-- Node6 -->
<g id="node6" class="node">
<title>Node6</title>
<g id="a_node6"><a xlink:title=" ">
<polygon fill="white" stroke="#bfbfbf" points="463.5,-508.5 463.5,-565.5 492.5,-565.5 492.5,-508.5 463.5,-508.5"/>
<text text-anchor="middle" x="478" y="-553.5" font-family="Helvetica,sans-Serif" font-size="10.00">T</text>
<polyline fill="none" stroke="#bfbfbf" points="463.5,-546.5 492.5,-546.5 "/>
<text text-anchor="middle" x="478" y="-534.5" font-family="Helvetica,sans-Serif" font-size="10.00"> </text>
<polyline fill="none" stroke="#bfbfbf" points="463.5,-527.5 492.5,-527.5 "/>
<text text-anchor="middle" x="478" y="-515.5" font-family="Helvetica,sans-Serif" font-size="10.00"> </text>
</a>
</g>
</g>
<!-- Node6&#45;&gt;Node5 -->
<g id="edge5" class="edge">
<title>Node6&#45;&gt;Node5</title>
<path fill="none" stroke="#404040" d="M463.41,-529.87C431.12,-516.29 352.03,-483.04 295.53,-459.29"/>
<polygon fill="none" stroke="#404040" points="295.26,-459.17 288.18,-460.54 284.2,-454.52 291.28,-453.16 295.26,-459.17"/>
<text text-anchor="middle" x="373" y="-482" font-family="Helvetica,sans-Serif" font-size="10.00"> +ptr</text>
</g>
<!-- Node8 -->
<g id="node8" class="node">
<title>Node8</title>
<g id="a_node8"><a xlink:title=" ">
<polygon fill="white" stroke="#bfbfbf" points="426.5,-403.5 426.5,-460.5 529.5,-460.5 529.5,-403.5 426.5,-403.5"/>
<text text-anchor="middle" x="478" y="-448.5" font-family="Helvetica,sans-Serif" font-size="10.00">std::shared_ptr&lt; T &gt;</text>
<polyline fill="none" stroke="#bfbfbf" points="426.5,-441.5 529.5,-441.5 "/>
<text text-anchor="middle" x="478" y="-429.5" font-family="Helvetica,sans-Serif" font-size="10.00"> </text>
<polyline fill="none" stroke="#bfbfbf" points="426.5,-422.5 529.5,-422.5 "/>
<text text-anchor="start" x="434.5" y="-410.5" font-family="Helvetica,sans-Serif" font-size="10.00">+ operator&#45;&gt;()</text>
</a>
</g>
</g>
<!-- Node6&#45;&gt;Node8 -->
<g id="edge8" class="edge">
<title>Node6&#45;&gt;Node8</title>
<path fill="none" stroke="#404040" d="M478,-508.4C478,-497.55 478,-484.87 478,-473.05"/>
<polygon fill="none" stroke="#404040" points="478,-472.68 474,-466.68 478,-460.68 482,-466.68 478,-472.68"/>
<text text-anchor="middle" x="488" y="-482" font-family="Helvetica,sans-Serif" font-size="10.00"> +ptr</text>
</g>
<!-- Node11 -->
<g id="node11" class="node">
<title>Node11</title>
<g id="a_node11"><a xlink:title=" ">
<polygon fill="white" stroke="#bfbfbf" points="676,-293 676,-350 760,-350 760,-293 676,-293"/>
<text text-anchor="middle" x="718" y="-338" font-family="Helvetica,sans-Serif" font-size="10.00">std::vector&lt; T &gt;</text>
<polyline fill="none" stroke="#bfbfbf" points="676,-331 760,-331 "/>
<text text-anchor="middle" x="718" y="-319" font-family="Helvetica,sans-Serif" font-size="10.00"> </text>
<polyline fill="none" stroke="#bfbfbf" points="676,-312 760,-312 "/>
<text text-anchor="middle" x="718" y="-300" font-family="Helvetica,sans-Serif" font-size="10.00"> </text>
</a>
</g>
</g>
<!-- Node6&#45;&gt;Node11 -->
<g id="edge13" class="edge">
<title>Node6&#45;&gt;Node11</title>
<path fill="none" stroke="#404040" d="M492.73,-529.4C531,-511.56 634.69,-458.68 693,-385 698.47,-378.09 702.89,-369.82 706.4,-361.6"/>
<polygon fill="none" stroke="#404040" points="706.49,-361.36 704.89,-354.33 710.77,-350.15 712.37,-357.18 706.49,-361.36"/>
<text text-anchor="middle" x="699.5" y="-429.5" font-family="Helvetica,sans-Serif" font-size="10.00"> +elements</text>
</g>
<!-- Node7 -->
<g id="node7" class="node">
<title>Node7</title>
<g id="a_node7"><a xlink:title=" ">
<polygon fill="white" stroke="#bfbfbf" points="184.5,-287.5 184.5,-355.5 287.5,-355.5 287.5,-287.5 184.5,-287.5"/>
<text text-anchor="start" x="192.5" y="-343.5" font-family="Helvetica,sans-Serif" font-size="10.00">std::shared_ptr&lt; HY</text>
<text text-anchor="middle" x="236" y="-332.5" font-family="Helvetica,sans-Serif" font-size="10.00">_Catchment &gt;</text>
<polyline fill="none" stroke="#bfbfbf" points="184.5,-325.5 287.5,-325.5 "/>
<text text-anchor="start" x="192.5" y="-313.5" font-family="Helvetica,sans-Serif" font-size="10.00">+ ptr</text>
<polyline fill="none" stroke="#bfbfbf" points="184.5,-306.5 287.5,-306.5 "/>
<text text-anchor="start" x="192.5" y="-294.5" font-family="Helvetica,sans-Serif" font-size="10.00">+ operator&#45;&gt;()</text>
</a>
</g>
</g>
<!-- Node7&#45;&gt;Node3 -->
<g id="edge6" class="edge">
<title>Node7&#45;&gt;Node3</title>
<path fill="none" stroke="#404040" d="M202.16,-287.3C197.8,-281.57 193.87,-275.39 191,-269 187.01,-260.11 184.22,-250.32 182.28,-240.49"/>
<polygon fill="none" stroke="#404040" points="182.27,-240.4 177.35,-235.12 180.32,-228.55 185.24,-233.83 182.27,-240.4"/>
<text text-anchor="middle" x="237" y="-255.5" font-family="Helvetica,sans-Serif" font-size="10.00"> #realized_catchment</text>
</g>
<!-- Node8&#45;&gt;Node7 -->
<g id="edge7" class="edge">
<title>Node8&#45;&gt;Node7</title>
<path fill="none" stroke="orange" d="M416.26,-426.78C376.21,-421.63 324.35,-410.22 285,-385 273.39,-377.56 263.38,-366.4 255.48,-355.55"/>
<polygon fill="orange" stroke="orange" points="416.09,-430.28 426.43,-427.99 416.92,-423.33 416.09,-430.28"/>
<text text-anchor="middle" x="328" y="-377" font-family="Helvetica,sans-Serif" font-size="10.00"> &lt; HY_Catchment &gt;</text>
</g>
<!-- Node10 -->
<g id="node10" class="node">
<title>Node10</title>
<g id="a_node10"><a xlink:title=" ">
<polygon fill="white" stroke="#bfbfbf" points="305.5,-287.5 305.5,-355.5 408.5,-355.5 408.5,-287.5 305.5,-287.5"/>
<text text-anchor="start" x="313.5" y="-343.5" font-family="Helvetica,sans-Serif" font-size="10.00">std::shared_ptr&lt; HY</text>
<text text-anchor="middle" x="357" y="-332.5" font-family="Helvetica,sans-Serif" font-size="10.00">_HydroNexus &gt;</text>
<polyline fill="none" stroke="#bfbfbf" points="305.5,-325.5 408.5,-325.5 "/>
<text text-anchor="start" x="313.5" y="-313.5" font-family="Helvetica,sans-Serif" font-size="10.00">+ ptr</text>
<polyline fill="none" stroke="#bfbfbf" points="305.5,-306.5 408.5,-306.5 "/>
<text text-anchor="start" x="313.5" y="-294.5" font-family="Helvetica,sans-Serif" font-size="10.00">+ operator&#45;&gt;()</text>
</a>
</g>
</g>
<!-- Node8&#45;&gt;Node10 -->
<g id="edge11" class="edge">
<title>Node8&#45;&gt;Node10</title>
<path fill="none" stroke="orange" d="M416.82,-410.08C404.1,-403.57 391.65,-395.32 382,-385 374.33,-376.81 368.9,-365.97 365.11,-355.62"/>
<polygon fill="orange" stroke="orange" points="415.55,-413.36 426.08,-414.51 418.57,-407.04 415.55,-413.36"/>
<text text-anchor="middle" x="428" y="-377" font-family="Helvetica,sans-Serif" font-size="10.00"> &lt; HY_HydroNexus &gt;</text>
</g>
<!-- Node13 -->
<g id="node13" class="node">
<title>Node13</title>
<g id="a_node13"><a xlink:title=" ">
<polygon fill="white" stroke="#bfbfbf" points="860.5,-287.5 860.5,-355.5 963.5,-355.5 963.5,-287.5 860.5,-287.5"/>
<text text-anchor="start" x="868.5" y="-343.5" font-family="Helvetica,sans-Serif" font-size="10.00">std::shared_ptr&lt; HY</text>
<text text-anchor="middle" x="912" y="-332.5" font-family="Helvetica,sans-Serif" font-size="10.00">_CatchmentArea &gt;</text>
<polyline fill="none" stroke="#bfbfbf" points="860.5,-325.5 963.5,-325.5 "/>
<text text-anchor="start" x="868.5" y="-313.5" font-family="Helvetica,sans-Serif" font-size="10.00">+ ptr</text>
<polyline fill="none" stroke="#bfbfbf" points="860.5,-306.5 963.5,-306.5 "/>
<text text-anchor="start" x="868.5" y="-294.5" font-family="Helvetica,sans-Serif" font-size="10.00">+ operator&#45;&gt;()</text>
</a>
</g>
</g>
<!-- Node8&#45;&gt;Node13 -->
<g id="edge16" class="edge">
<title>Node8&#45;&gt;Node13</title>
<path fill="none" stroke="orange" d="M539.97,-418.89C583.06,-410.19 641.74,-397.78 693,-385 750.74,-370.6 816.28,-351.53 860.49,-338.26"/>
<polygon fill="orange" stroke="orange" points="539.04,-415.51 529.92,-420.91 540.41,-422.37 539.04,-415.51"/>
<text text-anchor="middle" x="789" y="-377" font-family="Helvetica,sans-Serif" font-size="10.00"> &lt; HY_CatchmentArea &gt;</text>
</g>
<!-- Node15 -->
<g id="node15" class="node">
<title>Node15</title>
<g id="a_node15"><a xlink:title=" ">
<polygon fill="white" stroke="#bfbfbf" points="548,-287.5 548,-355.5 658,-355.5 658,-287.5 548,-287.5"/>
<text text-anchor="start" x="556" y="-343.5" font-family="Helvetica,sans-Serif" font-size="10.00">std::shared_ptr&lt; HY</text>
<text text-anchor="middle" x="603" y="-332.5" font-family="Helvetica,sans-Serif" font-size="10.00">_CatchementDivide &gt;</text>
<polyline fill="none" stroke="#bfbfbf" points="548,-325.5 658,-325.5 "/>
<text text-anchor="start" x="556" y="-313.5" font-family="Helvetica,sans-Serif" font-size="10.00">+ ptr</text>
<polyline fill="none" stroke="#bfbfbf" points="548,-306.5 658,-306.5 "/>
<text text-anchor="start" x="556" y="-294.5" font-family="Helvetica,sans-Serif" font-size="10.00">+ operator&#45;&gt;()</text>
</a>
</g>
</g>
<!-- Node8&#45;&gt;Node15 -->
<g id="edge20" class="edge">
<title>Node8&#45;&gt;Node15</title>
<path fill="none" stroke="orange" d="M538.46,-402.01C546.46,-396.91 554.23,-391.22 561,-385 570.15,-376.6 578.29,-365.83 584.92,-355.6"/>
<polygon fill="orange" stroke="orange" points="536.45,-399.13 529.72,-407.31 540.08,-405.12 536.45,-399.13"/>
<text text-anchor="middle" x="630" y="-377" font-family="Helvetica,sans-Serif" font-size="10.00"> &lt; HY_CatchementDivide &gt;</text>
</g>
<!-- Node17 -->
<g id="node17" class="node">
<title>Node17</title>
<g id="a_node17"><a xlink:title=" ">
<polygon fill="white" stroke="#bfbfbf" points="426.5,-287.5 426.5,-355.5 529.5,-355.5 529.5,-287.5 426.5,-287.5"/>
<text text-anchor="start" x="434.5" y="-343.5" font-family="Helvetica,sans-Serif" font-size="10.00">std::shared_ptr&lt; HY</text>
<text text-anchor="middle" x="478" y="-332.5" font-family="Helvetica,sans-Serif" font-size="10.00">_FlowPath &gt;</text>
<polyline fill="none" stroke="#bfbfbf" points="426.5,-325.5 529.5,-325.5 "/>
<text text-anchor="start" x="434.5" y="-313.5" font-family="Helvetica,sans-Serif" font-size="10.00">+ ptr</text>
<polyline fill="none" stroke="#bfbfbf" points="426.5,-306.5 529.5,-306.5 "/>
<text text-anchor="start" x="434.5" y="-294.5" font-family="Helvetica,sans-Serif" font-size="10.00">+ operator&#45;&gt;()</text>
</a>
</g>
</g>
<!-- Node8&#45;&gt;Node17 -->
<g id="edge24" class="edge">
<title>Node8&#45;&gt;Node17</title>
<path fill="none" stroke="orange" d="M478,-392.99C478,-380.77 478,-367.35 478,-355.52"/>
<polygon fill="orange" stroke="orange" points="474.5,-393.34 478,-403.34 481.5,-393.34 474.5,-393.34"/>
<text text-anchor="middle" x="518" y="-377" font-family="Helvetica,sans-Serif" font-size="10.00"> &lt; HY_FlowPath &gt;</text>
</g>
<!-- Node9 -->
<g id="node9" class="node">
<title>Node9</title>
<g id="a_node9"><a xlink:title=" ">
<polygon fill="white" stroke="#bfbfbf" points="282.5,-138.5 282.5,-206.5 413.5,-206.5 413.5,-138.5 282.5,-138.5"/>
<text text-anchor="start" x="290.5" y="-194.5" font-family="Helvetica,sans-Serif" font-size="10.00">std::vector&lt; std::shared</text>
<text text-anchor="middle" x="348" y="-183.5" font-family="Helvetica,sans-Serif" font-size="10.00">_ptr&lt; HY_HydroNexus &gt; &gt;</text>
<polyline fill="none" stroke="#bfbfbf" points="282.5,-176.5 413.5,-176.5 "/>
<text text-anchor="middle" x="348" y="-164.5" font-family="Helvetica,sans-Serif" font-size="10.00"> </text>
<polyline fill="none" stroke="#bfbfbf" points="282.5,-157.5 413.5,-157.5 "/>
<text text-anchor="middle" x="348" y="-145.5" font-family="Helvetica,sans-Serif" font-size="10.00"> </text>
</a>
</g>
</g>
<!-- Node9&#45;&gt;Node1 -->
<g id="edge9" class="edge">
<title>Node9&#45;&gt;Node1</title>
<path fill="none" stroke="#404040" d="M357.52,-138.37C362.78,-122.34 370.06,-103.13 379,-87 380.57,-84.17 382.28,-81.34 384.09,-78.53"/>
<polygon fill="none" stroke="#404040" points="384.16,-78.42 384.27,-71.21 390.97,-68.54 390.86,-75.75 384.16,-78.42"/>
<text text-anchor="middle" x="418.5" y="-90" font-family="Helvetica,sans-Serif" font-size="10.00"> &#45;internal_nexuses</text>
</g>
<!-- Node10&#45;&gt;Node9 -->
<g id="edge10" class="edge">
<title>Node10&#45;&gt;Node9</title>
<path fill="none" stroke="#404040" d="M305.18,-289.12C299.07,-283.22 293.7,-276.5 290,-269 281.19,-251.11 288.81,-232.18 301.09,-215.94"/>
<polygon fill="none" stroke="#404040" points="301.09,-215.94 301.85,-208.77 308.76,-206.72 308,-213.89 301.09,-215.94"/>
<text text-anchor="middle" x="314.5" y="-255.5" font-family="Helvetica,sans-Serif" font-size="10.00"> +elements</text>
</g>
<!-- Node11&#45;&gt;Node9 -->
<g id="edge12" class="edge">
<title>Node11&#45;&gt;Node9</title>
<path fill="none" stroke="orange" d="M671.32,-288.59C669.89,-288.02 668.44,-287.48 667,-287 606.59,-266.85 431.68,-307.56 381,-269 361.88,-254.45 353.77,-228.12 350.37,-206.79"/>
<polygon fill="orange" stroke="orange" points="670.14,-291.9 680.68,-292.97 673.11,-285.56 670.14,-291.9"/>
<text text-anchor="start" x="381" y="-261" font-family="Helvetica,sans-Serif" font-size="10.00"> &lt; std::shared_ptr&lt;</text>
<text text-anchor="middle" x="427" y="-250" font-family="Helvetica,sans-Serif" font-size="10.00"> HY_HydroNexus &gt; &gt;</text>
</g>
<!-- Node12 -->
<g id="node12" class="node">
<title>Node12</title>
<g id="a_node12"><a xlink:title=" ">
<polygon fill="white" stroke="#bfbfbf" points="792.5,-138.5 792.5,-206.5 937.5,-206.5 937.5,-138.5 792.5,-138.5"/>
<text text-anchor="start" x="800.5" y="-194.5" font-family="Helvetica,sans-Serif" font-size="10.00">std::vector&lt; std::shared</text>
<text text-anchor="middle" x="865" y="-183.5" font-family="Helvetica,sans-Serif" font-size="10.00">_ptr&lt; HY_CatchmentArea &gt; &gt;</text>
<polyline fill="none" stroke="#bfbfbf" points="792.5,-176.5 937.5,-176.5 "/>
<text text-anchor="middle" x="865" y="-164.5" font-family="Helvetica,sans-Serif" font-size="10.00"> </text>
<polyline fill="none" stroke="#bfbfbf" points="792.5,-157.5 937.5,-157.5 "/>
<text text-anchor="middle" x="865" y="-145.5" font-family="Helvetica,sans-Serif" font-size="10.00"> </text>
</a>
</g>
</g>
<!-- Node11&#45;&gt;Node12 -->
<g id="edge17" class="edge">
<title>Node11&#45;&gt;Node12</title>
<path fill="none" stroke="orange" d="M769.59,-303.32C787.93,-295.2 807.59,-283.95 822,-269 838.66,-251.72 849.57,-226.87 856.23,-206.85"/>
<polygon fill="orange" stroke="orange" points="768.01,-300.19 760.15,-307.28 770.72,-306.64 768.01,-300.19"/>
<text text-anchor="start" x="838" y="-261" font-family="Helvetica,sans-Serif" font-size="10.00"> &lt; std::shared_ptr&lt;</text>
<text text-anchor="middle" x="891" y="-250" font-family="Helvetica,sans-Serif" font-size="10.00"> HY_CatchmentArea &gt; &gt;</text>
</g>
<!-- Node14 -->
<g id="node14" class="node">
<title>Node14</title>
<g id="a_node14"><a xlink:title=" ">
<polygon fill="white" stroke="#bfbfbf" points="573.5,-138.5 573.5,-206.5 730.5,-206.5 730.5,-138.5 573.5,-138.5"/>
<text text-anchor="start" x="581.5" y="-194.5" font-family="Helvetica,sans-Serif" font-size="10.00">std::vector&lt; std::shared</text>
<text text-anchor="middle" x="652" y="-183.5" font-family="Helvetica,sans-Serif" font-size="10.00">_ptr&lt; HY_CatchementDivide &gt; &gt;</text>
<polyline fill="none" stroke="#bfbfbf" points="573.5,-176.5 730.5,-176.5 "/>
<text text-anchor="middle" x="652" y="-164.5" font-family="Helvetica,sans-Serif" font-size="10.00"> </text>
<polyline fill="none" stroke="#bfbfbf" points="573.5,-157.5 730.5,-157.5 "/>
<text text-anchor="middle" x="652" y="-145.5" font-family="Helvetica,sans-Serif" font-size="10.00"> </text>
</a>
</g>
</g>
<!-- Node11&#45;&gt;Node14 -->
<g id="edge21" class="edge">
<title>Node11&#45;&gt;Node14</title>
<path fill="none" stroke="orange" d="M704.81,-283.43C700.38,-271.67 695.23,-258.69 690,-247 684.02,-233.62 676.77,-219.24 670.21,-206.77"/>
<polygon fill="orange" stroke="orange" points="701.59,-284.82 708.35,-292.97 708.16,-282.38 701.59,-284.82"/>
<text text-anchor="start" x="700" y="-261" font-family="Helvetica,sans-Serif" font-size="10.00"> &lt; std::shared_ptr&lt;</text>
<text text-anchor="middle" x="759" y="-250" font-family="Helvetica,sans-Serif" font-size="10.00"> HY_CatchementDivide &gt; &gt;</text>
</g>
<!-- Node16 -->
<g id="node16" class="node">
<title>Node16</title>
<g id="a_node16"><a xlink:title=" ">
<polygon fill="white" stroke="#bfbfbf" points="431.5,-138.5 431.5,-206.5 550.5,-206.5 550.5,-138.5 431.5,-138.5"/>
<text text-anchor="start" x="439.5" y="-194.5" font-family="Helvetica,sans-Serif" font-size="10.00">std::vector&lt; std::shared</text>
<text text-anchor="middle" x="491" y="-183.5" font-family="Helvetica,sans-Serif" font-size="10.00">_ptr&lt; HY_FlowPath &gt; &gt;</text>
<polyline fill="none" stroke="#bfbfbf" points="431.5,-176.5 550.5,-176.5 "/>
<text text-anchor="middle" x="491" y="-164.5" font-family="Helvetica,sans-Serif" font-size="10.00"> </text>
<polyline fill="none" stroke="#bfbfbf" points="431.5,-157.5 550.5,-157.5 "/>
<text text-anchor="middle" x="491" y="-145.5" font-family="Helvetica,sans-Serif" font-size="10.00"> </text>
</a>
</g>
</g>
<!-- Node11&#45;&gt;Node16 -->
<g id="edge25" class="edge">
<title>Node11&#45;&gt;Node16</title>
<path fill="none" stroke="orange" d="M670.59,-288.46C669.4,-287.94 668.2,-287.46 667,-287 615.78,-267.5 590.19,-300.01 545,-269 533.53,-261.13 517.58,-231.18 505.99,-206.89"/>
<polygon fill="orange" stroke="orange" points="669.15,-291.65 679.67,-292.88 672.22,-285.36 669.15,-291.65"/>
<text text-anchor="start" x="545" y="-261" font-family="Helvetica,sans-Serif" font-size="10.00"> &lt; std::shared_ptr&lt;</text>
<text text-anchor="middle" x="585.5" y="-250" font-family="Helvetica,sans-Serif" font-size="10.00"> HY_FlowPath &gt; &gt;</text>
</g>
<!-- Node12&#45;&gt;Node1 -->
<g id="edge14" class="edge">
<title>Node12&#45;&gt;Node1</title>
<path fill="none" stroke="#404040" d="M795.52,-138.4C777.37,-130.44 757.65,-122.4 739,-116 655.09,-87.2 555.6,-63.78 490.08,-49.78"/>
<polygon fill="none" stroke="#404040" points="490,-49.76 483.3,-52.43 478.26,-47.27 484.96,-44.6 490,-49.76"/>
<text text-anchor="middle" x="709.5" y="-90" font-family="Helvetica,sans-Serif" font-size="10.00"> &#45;sub_network</text>
</g>
<!-- Node13&#45;&gt;Node12 -->
<g id="edge15" class="edge">
<title>Node13&#45;&gt;Node12</title>
<path fill="none" stroke="#404040" d="M960.95,-287.39C972.49,-275.4 979.52,-261.29 972,-247 965.28,-234.22 955.22,-223.24 943.91,-213.95"/>
<polygon fill="none" stroke="#404040" points="943.72,-213.81 936.53,-213.36 934.17,-206.54 941.37,-206.99 943.72,-213.81"/>
<text text-anchor="middle" x="999.5" y="-255.5" font-family="Helvetica,sans-Serif" font-size="10.00"> +elements</text>
</g>
<!-- Node14&#45;&gt;Node1 -->
<g id="edge18" class="edge">
<title>Node14&#45;&gt;Node1</title>
<path fill="none" stroke="#404040" d="M602.88,-138.43C578.33,-122.33 547.97,-103.03 520,-87 510.05,-81.3 499.4,-75.52 488.88,-70"/>
<polygon fill="none" stroke="#404040" points="488.65,-69.89 481.48,-70.67 478,-64.36 485.17,-63.57 488.65,-69.89"/>
<text text-anchor="middle" x="577" y="-90" font-family="Helvetica,sans-Serif" font-size="10.00"> &#45;network_divides</text>
</g>
<!-- Node15&#45;&gt;Node14 -->
<g id="edge19" class="edge">
<title>Node15&#45;&gt;Node14</title>
<path fill="none" stroke="#404040" d="M622,-287.27C624.95,-281.31 627.76,-275.06 630,-269 635.93,-252.98 640.6,-234.84 644.07,-218.7"/>
<polygon fill="none" stroke="#404040" points="644.1,-218.57 641.38,-211.89 646.5,-206.82 649.22,-213.5 644.1,-218.57"/>
<text text-anchor="middle" x="661.5" y="-255.5" font-family="Helvetica,sans-Serif" font-size="10.00"> +elements</text>
</g>
<!-- Node16&#45;&gt;Node1 -->
<g id="edge22" class="edge">
<title>Node16&#45;&gt;Node1</title>
<path fill="none" stroke="#404040" d="M480.48,-138.45C474.8,-122.44 467.08,-103.22 458,-87 456.44,-84.21 454.74,-81.39 452.95,-78.61"/>
<polygon fill="none" stroke="#404040" points="452.94,-78.59 446.26,-75.88 446.19,-68.66 452.87,-71.38 452.94,-78.59"/>
<text text-anchor="middle" x="490" y="-90" font-family="Helvetica,sans-Serif" font-size="10.00"> &#45;flow_paths</text>
</g>
<!-- Node17&#45;&gt;Node16 -->
<g id="edge23" class="edge">
<title>Node17&#45;&gt;Node16</title>
<path fill="none" stroke="#404040" d="M477.26,-287.26C477.15,-281.18 477.06,-274.9 477,-269 476.91,-259.22 476.08,-256.73 477,-247 477.87,-237.74 479.35,-227.91 481.03,-218.55"/>
<polygon fill="none" stroke="#404040" points="481.06,-218.39 478.26,-211.75 483.32,-206.61 486.12,-213.25 481.06,-218.39"/>
<text text-anchor="middle" x="501.5" y="-255.5" font-family="Helvetica,sans-Serif" font-size="10.00"> +elements</text>
</g>
</g>
</svg>
