<?xml version="1.0" encoding="UTF-8" standalone="no"?>
<!DOCTYPE svg PUBLIC "-//W3C//DTD SVG 1.1//EN"
 "http://www.w3.org/Graphics/SVG/1.1/DTD/svg11.dtd">
<!-- Generated by graphviz version 12.2.0 (20241103.1931)
 -->
<!-- Title: utils::FileChecker Pages: 1 -->
<svg width="120pt" height="149pt"
 viewBox="0.00 0.00 119.75 149.25" xmlns="http://www.w3.org/2000/svg" xmlns:xlink="http://www.w3.org/1999/xlink">
<g id="graph0" class="graph" transform="scale(1 1) rotate(0) translate(4 145.25)">
<title>utils::FileChecker</title>
<!-- Node1 -->
<g id="Node000001" class="node">
<title>Node1</title>
<g id="a_Node000001"><a xlink:title="Simple utility class for testing things about one or more files.">
<polygon fill="#999999" stroke="none" points="111.75,-141.25 0,-141.25 0,0 111.75,0 111.75,-141.25"/>
<text text-anchor="start" x="18.75" y="-127.75" font-family="Helvetica,sans-Serif" font-size="10.00">utils::FileChecker</text>
<text text-anchor="start" x="54.38" y="-112.5" font-family="Helvetica,sans-Serif" font-size="10.00"> </text>
<text text-anchor="start" x="4" y="-97.25" font-family="Helvetica,sans-Serif" font-size="10.00">+</text>
<text text-anchor="start" x="14" y="-97.25" font-family="Helvetica,sans-Serif" font-size="10.00">directory_exists()</text>
<text text-anchor="start" x="4" y="-82" font-family="Helvetica,sans-Serif" font-size="10.00">+</text>
<text text-anchor="start" x="14" y="-82" font-family="Helvetica,sans-Serif" font-size="10.00">file_can_be_written()</text>
<text text-anchor="start" x="4" y="-66.75" font-family="Helvetica,sans-Serif" font-size="10.00">+</text>
<text text-anchor="start" x="14" y="-66.75" font-family="Helvetica,sans-Serif" font-size="10.00">file_is_empty()</text>
<text text-anchor="start" x="4" y="-51.5" font-family="Helvetica,sans-Serif" font-size="10.00">+</text>
<text text-anchor="start" x="14" y="-51.5" font-family="Helvetica,sans-Serif" font-size="10.00">file_is_readable()</text>
<text text-anchor="start" x="4" y="-36.25" font-family="Helvetica,sans-Serif" font-size="10.00">+</text>
<text text-anchor="start" x="14" y="-36.25" font-family="Helvetica,sans-Serif" font-size="10.00">file_is_readable()</text>
<text text-anchor="start" x="4" y="-21" font-family="Helvetica,sans-Serif" font-size="10.00">+</text>
<text text-anchor="start" x="14" y="-21" font-family="Helvetica,sans-Serif" font-size="10.00">find_first_accessible()</text>
<text text-anchor="start" x="4" y="-5.75" font-family="Helvetica,sans-Serif" font-size="10.00">+</text>
<text text-anchor="start" x="14" y="-5.75" font-family="Helvetica,sans-Serif" font-size="10.00">find_first_readable()</text>
<polygon fill="#666666" stroke="#666666" points="0,-124 0,-124 111.75,-124 111.75,-124 0,-124"/>
<polygon fill="#666666" stroke="#666666" points="0,-108.75 0,-108.75 111.75,-108.75 111.75,-108.75 0,-108.75"/>
<polygon fill="none" stroke="#666666" points="0,0 0,-141.25 111.75,-141.25 111.75,0 0,0"/>
</a>
</g>
</g>
</g>
</svg>
