<?xml version="1.0" encoding="UTF-8" standalone="no"?>
<!DOCTYPE svg PUBLIC "-//W3C//DTD SVG 1.1//EN"
 "http://www.w3.org/Graphics/SVG/1.1/DTD/svg11.dtd">
<!-- Generated by graphviz version 12.2.0 (20241103.1931)
 -->
<!-- Title: models::bmi::protocols::ProtocolError Pages: 1 -->
<svg width="112pt" height="323pt"
 viewBox="0.00 0.00 112.00 322.50" xmlns="http://www.w3.org/2000/svg" xmlns:xlink="http://www.w3.org/1999/xlink">
<g id="graph0" class="graph" transform="scale(1 1) rotate(0) translate(4 318.5)">
<title>models::bmi::protocols::ProtocolError</title>
<!-- Node1 -->
<g id="Node000001" class="node">
<title>Node1</title>
<g id="a_Node000001"><a xlink:title=" ">
<polygon fill="#999999" stroke="none" points="104,-228.75 0,-228.75 0,0 104,0 104,-228.75"/>
<text text-anchor="start" x="4" y="-215.25" font-family="Helvetica,sans-Serif" font-size="10.00">models::bmi::protocols</text>
<text text-anchor="start" x="21.62" y="-204" font-family="Helvetica,sans-Serif" font-size="10.00">::ProtocolError</text>
<text text-anchor="start" x="10.12" y="-188.75" font-family="Helvetica,sans-Serif" font-size="10.00">&#45;</text>
<text text-anchor="start" x="23.25" y="-188.75" font-family="Helvetica,sans-Serif" font-size="10.00">err</text>
<text text-anchor="start" x="10.12" y="-173.5" font-family="Helvetica,sans-Serif" font-size="10.00">&#45;</text>
<text text-anchor="start" x="23.25" y="-173.5" font-family="Helvetica,sans-Serif" font-size="10.00">message</text>
<text text-anchor="start" x="8.62" y="-158.25" font-family="Helvetica,sans-Serif" font-size="10.00">+</text>
<text text-anchor="start" x="23.25" y="-158.25" font-family="Helvetica,sans-Serif" font-size="10.00">ProtocolError()</text>
<text text-anchor="start" x="8.62" y="-143" font-family="Helvetica,sans-Serif" font-size="10.00">+</text>
<text text-anchor="start" x="23.25" y="-143" font-family="Helvetica,sans-Serif" font-size="10.00">ProtocolError()</text>
<text text-anchor="start" x="8.62" y="-127.75" font-family="Helvetica,sans-Serif" font-size="10.00">+</text>
<text text-anchor="start" x="23.25" y="-127.75" font-family="Helvetica,sans-Serif" font-size="10.00">ProtocolError()</text>
<text text-anchor="start" x="8.62" y="-112.5" font-family="Helvetica,sans-Serif" font-size="10.00">+</text>
<text text-anchor="start" x="23.25" y="-112.5" font-family="Helvetica,sans-Serif" font-size="10.00">ProtocolError()</text>
<text text-anchor="start" x="8.62" y="-97.25" font-family="Helvetica,sans-Serif" font-size="10.00">+</text>
<text text-anchor="start" x="23.25" y="-97.25" font-family="Helvetica,sans-Serif" font-size="10.00">operator=()</text>
<text text-anchor="start" x="8.62" y="-82" font-family="Helvetica,sans-Serif" font-size="10.00">+</text>
<text text-anchor="start" x="23.25" y="-82" font-family="Helvetica,sans-Serif" font-size="10.00">operator=()</text>
<text text-anchor="start" x="8.62" y="-66.75" font-family="Helvetica,sans-Serif" font-size="10.00">+</text>
<text text-anchor="start" x="23.25" y="-66.75" font-family="Helvetica,sans-Serif" font-size="10.00">~ProtocolError()</text>
<text text-anchor="start" x="8.62" y="-51.5" font-family="Helvetica,sans-Serif" font-size="10.00">+</text>
<text text-anchor="start" x="23.25" y="-51.5" font-family="Helvetica,sans-Serif" font-size="10.00">to_string()</text>
<text text-anchor="start" x="8.62" y="-36.25" font-family="Helvetica,sans-Serif" font-size="10.00">+</text>
<text text-anchor="start" x="23.25" y="-36.25" font-family="Helvetica,sans-Serif" font-size="10.00">error_code()</text>
<text text-anchor="start" x="8.62" y="-21" font-family="Helvetica,sans-Serif" font-size="10.00">+</text>
<text text-anchor="start" x="23.25" y="-21" font-family="Helvetica,sans-Serif" font-size="10.00">get_message()</text>
<text text-anchor="start" x="8.62" y="-5.75" font-family="Helvetica,sans-Serif" font-size="10.00">+</text>
<text text-anchor="start" x="23.25" y="-5.75" font-family="Helvetica,sans-Serif" font-size="10.00">what()</text>
<polygon fill="#666666" stroke="#666666" points="0,-200.25 0,-200.25 104,-200.25 104,-200.25 0,-200.25"/>
<polygon fill="#666666" stroke="#666666" points="0,-169.75 0,-169.75 21.25,-169.75 21.25,-169.75 0,-169.75"/>
<polygon fill="#666666" stroke="#666666" points="21.25,-169.75 21.25,-169.75 104,-169.75 104,-169.75 21.25,-169.75"/>
<polygon fill="none" stroke="#666666" points="0,0 0,-228.75 104,-228.75 104,0 0,0"/>
</a>
</g>
</g>
<!-- Node2 -->
<g id="Node000002" class="node">
<title>Node2</title>
<g id="a_Node000002"><a xlink:title=" ">
<polygon fill="white" stroke="none" points="85.62,-314.5 18.38,-314.5 18.38,-264.75 85.62,-264.75 85.62,-314.5"/>
<text text-anchor="start" x="22.38" y="-301" font-family="Helvetica,sans-Serif" font-size="10.00">std::exception</text>
<text text-anchor="start" x="50.5" y="-285.75" font-family="Helvetica,sans-Serif" font-size="10.00"> </text>
<text text-anchor="start" x="50.5" y="-270.5" font-family="Helvetica,sans-Serif" font-size="10.00"> </text>
<polygon fill="#666666" stroke="#666666" points="18.38,-297.25 18.38,-297.25 85.62,-297.25 85.62,-297.25 18.38,-297.25"/>
<polygon fill="#666666" stroke="#666666" points="18.38,-282 18.38,-282 85.62,-282 85.62,-282 18.38,-282"/>
<polygon fill="none" stroke="#666666" points="18.38,-264.75 18.38,-314.5 85.62,-314.5 85.62,-264.75 18.38,-264.75"/>
</a>
</g>
</g>
<!-- Node2&#45;&gt;Node1 -->
<g id="edge1_Node000001_Node000002" class="edge">
<title>Node2&#45;&gt;Node1</title>
<g id="a_edge1_Node000001_Node000002"><a xlink:title=" ">
<path fill="none" stroke="#63b8ff" d="M52,-253.39C52,-245.83 52,-237.46 52,-228.68"/>
<polygon fill="none" stroke="#63b8ff" points="48.5,-253.39 52,-263.39 55.5,-253.39 48.5,-253.39"/>
</a>
</g>
</g>
</g>
</svg>
