<?xml version="1.0" encoding="UTF-8" standalone="no"?>
<!DOCTYPE svg PUBLIC "-//W3C//DTD SVG 1.1//EN"
 "http://www.w3.org/Graphics/SVG/1.1/DTD/svg11.dtd">
<!-- Generated by graphviz version 7.0.5 (20221223.1930)
 -->
<!-- Title: geojson::PointFeature Pages: 1 -->
<!--zoomable 1154 -->
<svg id="main" version="1.1" xmlns="http://www.w3.org/2000/svg" xmlns:xlink="http://www.w3.org/1999/xlink" xml:space="preserve" onload="init(evt)">
<style type="text/css"><![CDATA[
.edge:hover path { stroke: red; }
.edge:hover polygon { stroke: red; fill: red; }
]]></style>
<script type="text/javascript"><![CDATA[
var edges = document.getElementsByTagName('g');
if (edges && edges.length) {
  for (var i=0;i<edges.length;i++) {
    if (edges[i].id.substr(0,4)=='edge') {
      edges[i].setAttribute('class','edge');
    }
  }
}
]]></script>
        <defs>
                <circle id="rim" cx="0" cy="0" r="7"/>
                <circle id="rim2" cx="0" cy="0" r="3.5"/>
                <g id="zoomPlus">
                        <use xlink:href="#rim" fill="#404040">
                                <set attributeName="fill" to="#808080" begin="zoomplus.mouseover" end="zoomplus.mouseout"/>
                        </use>
                        <path d="M-4,0h8M0,-4v8" fill="none" stroke="white" stroke-width="1.5" pointer-events="none"/>
                </g>
                <g id="zoomMin">
                        <use xlink:href="#rim" fill="#404040">
                                <set attributeName="fill" to="#808080" begin="zoomminus.mouseover" end="zoomminus.mouseout"/>
                        </use>
                        <path d="M-4,0h8" fill="none" stroke="white" stroke-width="1.5" pointer-events="none"/>
                </g>
                <g id="dirArrow">
                        <path fill="none" stroke="white" stroke-width="1.5" d="M0,-3.0v7 M-2.5,-0.5L0,-3.0L2.5,-0.5"/>
                </g>
               <g id="resetDef">
                       <use xlink:href="#rim2" fill="#404040">
                               <set attributeName="fill" to="#808080" begin="reset.mouseover" end="reset.mouseout"/>
                       </use>
               </g>
        </defs>

<script type="text/javascript">
var viewWidth = 730;
var viewHeight = 1154;
var sectionId = 'dynsection-1';
</script>
<script xlink:href="svgpan.js"/>
<svg id="graph" class="graph">
<g id="viewport">
<title>geojson::PointFeature</title>
<!-- Node1 -->
<g id="node1" class="node">
<title>Node1</title>
<g id="a_node1"><a xlink:title=" ">
<polygon fill="#999999" stroke="#666666" points="609.5,-85 496.5,-85 496.5,0 609.5,0 609.5,-85"/>
<text text-anchor="middle" x="553" y="-73" font-family="Helvetica,sans-Serif" font-size="10.00">{geojson::PointFeature</text>
<text text-anchor="start" x="504.5" y="-62" font-family="Helvetica,sans-Serif" font-size="10.00">||+ PointFeature()</text>
<text text-anchor="start" x="504.5" y="-51" font-family="Helvetica,sans-Serif" font-size="10.00">+ PointFeature()</text>
<text text-anchor="start" x="504.5" y="-40" font-family="Helvetica,sans-Serif" font-size="10.00">+ PointFeature()</text>
<text text-anchor="start" x="504.5" y="-29" font-family="Helvetica,sans-Serif" font-size="10.00">+ geometry()</text>
<text text-anchor="start" x="504.5" y="-18" font-family="Helvetica,sans-Serif" font-size="10.00">+ visit()</text>
<text text-anchor="middle" x="553" y="-7" font-family="Helvetica,sans-Serif" font-size="10.00">}</text>
</a>
</g>
</g>
<!-- Node2 -->
<g id="node2" class="node">
<title>Node2</title>
<g id="a_node2"><a xlink:href="classgeojson_1_1_feature_base.html" target="_top" xlink:title="Represents an individual feature within a Geojson definition.">
<polygon fill="white" stroke="#666666" points="458,-437 324,-437 324,-154 458,-154 458,-437"/>
<text text-anchor="middle" x="391" y="-425" font-family="Helvetica,sans-Serif" font-size="10.00">{geojson::FeatureBase</text>
<text text-anchor="start" x="332" y="-414" font-family="Helvetica,sans-Serif" font-size="10.00">|# type</text>
<text text-anchor="start" x="332" y="-403" font-family="Helvetica,sans-Serif" font-size="10.00"># geom</text>
<text text-anchor="start" x="332" y="-392" font-family="Helvetica,sans-Serif" font-size="10.00">|+ FeatureBase()</text>
<text text-anchor="start" x="332" y="-381" font-family="Helvetica,sans-Serif" font-size="10.00">+ ~FeatureBase()</text>
<text text-anchor="start" x="332" y="-370" font-family="Helvetica,sans-Serif" font-size="10.00">+ get_type()</text>
<text text-anchor="start" x="332" y="-359" font-family="Helvetica,sans-Serif" font-size="10.00">+ add_origination_feature()</text>
<text text-anchor="start" x="332" y="-348" font-family="Helvetica,sans-Serif" font-size="10.00">+ add_destination_feature()</text>
<text text-anchor="start" x="332" y="-337" font-family="Helvetica,sans-Serif" font-size="10.00">+ assign_neighbors()</text>
<text text-anchor="start" x="332" y="-326" font-family="Helvetica,sans-Serif" font-size="10.00">+ add_neighbor_feature()</text>
<text text-anchor="start" x="332" y="-315" font-family="Helvetica,sans-Serif" font-size="10.00">+ get_property()</text>
<text text-anchor="start" x="332" y="-304" font-family="Helvetica,sans-Serif" font-size="10.00">+ set_id()</text>
<text text-anchor="start" x="332" y="-293" font-family="Helvetica,sans-Serif" font-size="10.00">+ get()</text>
<text text-anchor="start" x="332" y="-282" font-family="Helvetica,sans-Serif" font-size="10.00">+ set()</text>
<text text-anchor="start" x="332" y="-271" font-family="Helvetica,sans-Serif" font-size="10.00">+ set()</text>
<text text-anchor="start" x="332" y="-260" font-family="Helvetica,sans-Serif" font-size="10.00">+ set()</text>
<text text-anchor="start" x="332" y="-249" font-family="Helvetica,sans-Serif" font-size="10.00">+ set()</text>
<text text-anchor="start" x="332" y="-238" font-family="Helvetica,sans-Serif" font-size="10.00">+ set()</text>
<text text-anchor="start" x="332" y="-227" font-family="Helvetica,sans-Serif" font-size="10.00">and 31 more...</text>
<text text-anchor="start" x="332" y="-216" font-family="Helvetica,sans-Serif" font-size="10.00"># FeatureBase()</text>
<text text-anchor="start" x="332" y="-205" font-family="Helvetica,sans-Serif" font-size="10.00"># break_links()</text>
<text text-anchor="start" x="332" y="-194" font-family="Helvetica,sans-Serif" font-size="10.00"># remove_destination()</text>
<text text-anchor="start" x="332" y="-183" font-family="Helvetica,sans-Serif" font-size="10.00"># remove_origination()</text>
<text text-anchor="start" x="332" y="-172" font-family="Helvetica,sans-Serif" font-size="10.00"># remove_neighbor()</text>
<text text-anchor="middle" x="391" y="-161" font-family="Helvetica,sans-Serif" font-size="10.00">}</text>
</a>
</g>
</g>
<!-- Node2&#45;&gt;Node1 -->
<g id="edge1" class="edge">
<title>Node2&#45;&gt;Node1</title>
<path fill="none" stroke="#63b8ff" d="M464.49,-183.13C474.79,-167.34 485.2,-151.28 495,-136 505.64,-119.41 517.21,-101.03 527.2,-85.06"/>
<polygon fill="none" stroke="#63b8ff" points="461.81,-180.83 459.27,-191.12 467.67,-184.66 461.81,-180.83"/>
</g>
<!-- Node14 -->
<g id="node14" class="node">
<title>Node14</title>
<g id="a_node14"><a xlink:title=" ">
<polygon fill="white" stroke="#666666" points="478.5,-63 371.5,-63 371.5,-22 478.5,-22 478.5,-63"/>
<text text-anchor="start" x="379.5" y="-51" font-family="Helvetica,sans-Serif" font-size="10.00">{std::vector&lt; geojson</text>
<text text-anchor="middle" x="425" y="-40" font-family="Helvetica,sans-Serif" font-size="10.00">::FeatureBase * &gt;</text>
<text text-anchor="middle" x="425" y="-29" font-family="Helvetica,sans-Serif" font-size="10.00">||}</text>
</a>
</g>
</g>
<!-- Node2&#45;&gt;Node14 -->
<g id="edge21" class="edge">
<title>Node2&#45;&gt;Node14</title>
<path fill="none" stroke="#404040" d="M372.89,-153.59C374.02,-136.3 376.8,-119.07 382,-103 385.37,-92.57 391.34,-82.43 397.77,-73.56"/>
<polygon fill="none" stroke="#404040" points="397.74,-73.6 398.29,-66.41 405.14,-64.16 404.59,-71.35 397.74,-73.6"/>
<text text-anchor="middle" x="406.5" y="-117" font-family="Helvetica,sans-Serif" font-size="10.00"> +elements</text>
</g>
<!-- Node3 -->
<g id="node3" class="node">
<title>Node3</title>
<g id="a_node3"><a xlink:title=" ">
<polygon fill="white" stroke="#666666" points="541.5,-922 432.5,-922 432.5,-870 541.5,-870 541.5,-922"/>
<text text-anchor="start" x="440.5" y="-910" font-family="Helvetica,sans-Serif" font-size="10.00">{std::vector&lt;::geojson</text>
<text text-anchor="middle" x="487" y="-899" font-family="Helvetica,sans-Serif" font-size="10.00">::geometry &gt;</text>
<text text-anchor="start" x="440.5" y="-888" font-family="Helvetica,sans-Serif" font-size="10.00">|+ elements</text>
<text text-anchor="middle" x="487" y="-877" font-family="Helvetica,sans-Serif" font-size="10.00">|}</text>
</a>
</g>
</g>
<!-- Node3&#45;&gt;Node2 -->
<g id="edge2" class="edge">
<title>Node3&#45;&gt;Node2</title>
<path fill="none" stroke="#404040" d="M488.82,-869.83C492.8,-806.18 499.72,-634 470,-495 466.79,-479.97 462.55,-464.61 457.69,-449.42"/>
<polygon fill="none" stroke="#404040" points="457.73,-449.53 452.05,-445.09 453.96,-438.14 459.64,-442.58 457.73,-449.53"/>
<text text-anchor="middle" x="533" y="-572" font-family="Helvetica,sans-Serif" font-size="10.00"> #geometry_collection</text>
</g>
<!-- Node4 -->
<g id="node4" class="node">
<title>Node4</title>
<g id="a_node4"><a xlink:title=" ">
<polygon fill="white" stroke="#666666" points="455.5,-1063.5 368.5,-1063.5 368.5,-1033.5 455.5,-1033.5 455.5,-1063.5"/>
<text text-anchor="middle" x="412" y="-1051.5" font-family="Helvetica,sans-Serif" font-size="10.00">{std::vector&lt; T &gt;</text>
<text text-anchor="middle" x="412" y="-1040.5" font-family="Helvetica,sans-Serif" font-size="10.00">||}</text>
</a>
</g>
</g>
<!-- Node4&#45;&gt;Node3 -->
<g id="edge3" class="edge">
<title>Node4&#45;&gt;Node3</title>
<path fill="none" stroke="orange" d="M433.67,-1024.54C444.12,-1012.4 456.08,-996.76 464,-981 473.37,-962.35 479.32,-939.4 482.81,-922.2"/>
<polygon fill="orange" stroke="orange" points="431.09,-1022.17 427.06,-1031.97 436.32,-1026.82 431.09,-1022.17"/>
<text text-anchor="middle" x="504" y="-1002" font-family="Helvetica,sans-Serif" font-size="10.00"> &lt;::geojson::geometry &gt;</text>
</g>
<!-- Node10 -->
<g id="node10" class="node">
<title>Node10</title>
<g id="a_node10"><a xlink:title=" ">
<polygon fill="white" stroke="#666666" points="331.5,-981 224.5,-981 224.5,-940 331.5,-940 331.5,-981"/>
<text text-anchor="start" x="232.5" y="-969" font-family="Helvetica,sans-Serif" font-size="10.00">{std::vector&lt; geojson</text>
<text text-anchor="middle" x="278" y="-958" font-family="Helvetica,sans-Serif" font-size="10.00">::JSONProperty &gt;</text>
<text text-anchor="middle" x="278" y="-947" font-family="Helvetica,sans-Serif" font-size="10.00">||}</text>
</a>
</g>
</g>
<!-- Node4&#45;&gt;Node10 -->
<g id="edge13" class="edge">
<title>Node4&#45;&gt;Node10</title>
<path fill="none" stroke="orange" d="M357.17,-1039.14C324.3,-1032.88 286.98,-1023.14 277,-1010 270.88,-1001.95 270.72,-990.79 272.28,-981.21"/>
<polygon fill="orange" stroke="orange" points="356.15,-1042.51 366.62,-1040.86 357.41,-1035.62 356.15,-1042.51"/>
<text text-anchor="middle" x="337.5" y="-1002" font-family="Helvetica,sans-Serif" font-size="10.00"> &lt; geojson::JSONProperty &gt;</text>
</g>
<!-- Node13 -->
<g id="node13" class="node">
<title>Node13</title>
<g id="a_node13"><a xlink:title=" ">
<polygon fill="white" stroke="#666666" points="455,-595 345,-595 345,-554 455,-554 455,-595"/>
<text text-anchor="middle" x="400" y="-583" font-family="Helvetica,sans-Serif" font-size="10.00">{std::vector&lt; double &gt;</text>
<text text-anchor="start" x="353" y="-572" font-family="Helvetica,sans-Serif" font-size="10.00">|+ elements</text>
<text text-anchor="middle" x="400" y="-561" font-family="Helvetica,sans-Serif" font-size="10.00">|}</text>
</a>
</g>
</g>
<!-- Node4&#45;&gt;Node13 -->
<g id="edge18" class="edge">
<title>Node4&#45;&gt;Node13</title>
<path fill="none" stroke="orange" d="M411.35,-1021.84C409.2,-937.56 402.41,-670.29 400.5,-595.26"/>
<polygon fill="orange" stroke="orange" points="407.84,-1021.7 411.6,-1031.6 414.84,-1021.52 407.84,-1021.7"/>
<text text-anchor="middle" x="435" y="-958" font-family="Helvetica,sans-Serif" font-size="10.00"> &lt; double &gt;</text>
</g>
<!-- Node4&#45;&gt;Node14 -->
<g id="edge22" class="edge">
<title>Node4&#45;&gt;Node14</title>
<path fill="none" stroke="orange" d="M467.12,-1045.38C523.54,-1039.91 603,-1021.55 603,-961.5 603,-961.5 603,-961.5 603,-294.5 603,-191.93 502.88,-102.03 452.81,-63.49"/>
<polygon fill="orange" stroke="orange" points="467,-1041.88 457.33,-1046.21 467.59,-1048.86 467,-1041.88"/>
<text text-anchor="middle" x="662.5" y="-572" font-family="Helvetica,sans-Serif" font-size="10.00"> &lt; geojson::FeatureBase * &gt;</text>
</g>
<!-- Node5 -->
<g id="node5" class="node">
<title>Node5</title>
<g id="a_node5"><a xlink:title=" ">
<polygon fill="white" stroke="#666666" points="358.5,-1146 329.5,-1146 329.5,-1116 358.5,-1116 358.5,-1146"/>
<text text-anchor="middle" x="344" y="-1134" font-family="Helvetica,sans-Serif" font-size="10.00">{T</text>
<text text-anchor="middle" x="344" y="-1123" font-family="Helvetica,sans-Serif" font-size="10.00">||}</text>
</a>
</g>
</g>
<!-- Node5&#45;&gt;Node4 -->
<g id="edge4" class="edge">
<title>Node5&#45;&gt;Node4</title>
<path fill="none" stroke="#404040" d="M356.16,-1115.61C366.02,-1103.93 380.14,-1087.22 391.71,-1073.52"/>
<polygon fill="none" stroke="#404040" points="391.62,-1073.62 392.44,-1066.46 399.37,-1064.46 398.55,-1071.62 391.62,-1073.62"/>
<text text-anchor="middle" x="405.5" y="-1090" font-family="Helvetica,sans-Serif" font-size="10.00"> +elements</text>
</g>
<!-- Node11 -->
<g id="node11" class="node">
<title>Node11</title>
<g id="a_node11"><a xlink:title=" ">
<polygon fill="white" stroke="#666666" points="221.5,-1063.5 130.5,-1063.5 130.5,-1033.5 221.5,-1033.5 221.5,-1063.5"/>
<text text-anchor="middle" x="176" y="-1051.5" font-family="Helvetica,sans-Serif" font-size="10.00">{std::map&lt; K, T &gt;</text>
<text text-anchor="middle" x="176" y="-1040.5" font-family="Helvetica,sans-Serif" font-size="10.00">||}</text>
</a>
</g>
</g>
<!-- Node5&#45;&gt;Node11 -->
<g id="edge16" class="edge">
<title>Node5&#45;&gt;Node11</title>
<path fill="none" stroke="#404040" d="M329.09,-1122.86C304.34,-1111 253.93,-1086.84 217.71,-1069.48"/>
<polygon fill="none" stroke="#404040" points="217.66,-1069.46 210.52,-1070.48 206.84,-1064.28 213.98,-1063.26 217.66,-1069.46"/>
<text text-anchor="middle" x="300.5" y="-1090" font-family="Helvetica,sans-Serif" font-size="10.00"> +elements</text>
</g>
<!-- Node6 -->
<g id="node6" class="node">
<title>Node6</title>
<g id="a_node6"><a xlink:title=" ">
<polygon fill="white" stroke="#666666" points="237,-536 127,-536 127,-495 237,-495 237,-536"/>
<text text-anchor="start" x="135" y="-524" font-family="Helvetica,sans-Serif" font-size="10.00">{std::map&lt; std::string,</text>
<text text-anchor="middle" x="182" y="-513" font-family="Helvetica,sans-Serif" font-size="10.00"> JSONProperty &gt;</text>
<text text-anchor="middle" x="182" y="-502" font-family="Helvetica,sans-Serif" font-size="10.00">||}</text>
</a>
</g>
</g>
<!-- Node6&#45;&gt;Node2 -->
<g id="edge5" class="edge">
<title>Node6&#45;&gt;Node2</title>
<path fill="none" stroke="#404040" d="M200.92,-494.77C226.57,-468.01 273.89,-418.65 314.9,-375.88"/>
<polygon fill="none" stroke="#404040" points="314.88,-375.89 316.15,-368.79 323.19,-367.23 321.92,-374.33 314.88,-375.89"/>
<text text-anchor="middle" x="280.5" y="-469" font-family="Helvetica,sans-Serif" font-size="10.00"> #foreign_members</text>
<text text-anchor="middle" x="280.5" y="-458" font-family="Helvetica,sans-Serif" font-size="10.00">#properties</text>
</g>
<!-- Node9 -->
<g id="node9" class="node">
<title>Node9</title>
<g id="a_node9"><a xlink:href="classgeojson_1_1_j_s_o_n_property.html" target="_top" xlink:title="@TODO: Convert JSONProperty into a variant of the supported types">
<polygon fill="white" stroke="#666666" points="314.5,-852 193.5,-852 193.5,-613 314.5,-613 314.5,-852"/>
<text text-anchor="middle" x="254" y="-840" font-family="Helvetica,sans-Serif" font-size="10.00">{geojson::JSONProperty</text>
<text text-anchor="start" x="201.5" y="-829" font-family="Helvetica,sans-Serif" font-size="10.00">|&#45; type</text>
<text text-anchor="start" x="201.5" y="-818" font-family="Helvetica,sans-Serif" font-size="10.00">&#45; data</text>
<text text-anchor="start" x="201.5" y="-807" font-family="Helvetica,sans-Serif" font-size="10.00">|+ JSONProperty()</text>
<text text-anchor="start" x="201.5" y="-796" font-family="Helvetica,sans-Serif" font-size="10.00">+ JSONProperty()</text>
<text text-anchor="start" x="201.5" y="-785" font-family="Helvetica,sans-Serif" font-size="10.00">+ JSONProperty()</text>
<text text-anchor="start" x="201.5" y="-774" font-family="Helvetica,sans-Serif" font-size="10.00">+ JSONProperty()</text>
<text text-anchor="start" x="201.5" y="-763" font-family="Helvetica,sans-Serif" font-size="10.00">+ JSONProperty()</text>
<text text-anchor="start" x="201.5" y="-752" font-family="Helvetica,sans-Serif" font-size="10.00">+ JSONProperty()</text>
<text text-anchor="start" x="201.5" y="-741" font-family="Helvetica,sans-Serif" font-size="10.00">+ JSONProperty()</text>
<text text-anchor="start" x="201.5" y="-730" font-family="Helvetica,sans-Serif" font-size="10.00">+ JSONProperty()</text>
<text text-anchor="start" x="201.5" y="-719" font-family="Helvetica,sans-Serif" font-size="10.00">+ JSONProperty()</text>
<text text-anchor="start" x="201.5" y="-708" font-family="Helvetica,sans-Serif" font-size="10.00">+ JSONProperty()</text>
<text text-anchor="start" x="201.5" y="-697" font-family="Helvetica,sans-Serif" font-size="10.00">+ JSONProperty()</text>
<text text-anchor="start" x="201.5" y="-686" font-family="Helvetica,sans-Serif" font-size="10.00">+ ~JSONProperty()</text>
<text text-anchor="start" x="201.5" y="-675" font-family="Helvetica,sans-Serif" font-size="10.00">+ JSONProperty()</text>
<text text-anchor="start" x="201.5" y="-664" font-family="Helvetica,sans-Serif" font-size="10.00">+ JSONProperty()</text>
<text text-anchor="start" x="201.5" y="-653" font-family="Helvetica,sans-Serif" font-size="10.00">+ get_type()</text>
<text text-anchor="start" x="201.5" y="-642" font-family="Helvetica,sans-Serif" font-size="10.00">and 17 more...</text>
<text text-anchor="start" x="201.5" y="-631" font-family="Helvetica,sans-Serif" font-size="10.00">+ print_property()</text>
<text text-anchor="middle" x="254" y="-620" font-family="Helvetica,sans-Serif" font-size="10.00">}</text>
</a>
</g>
</g>
<!-- Node6&#45;&gt;Node9 -->
<g id="edge10" class="edge">
<title>Node6&#45;&gt;Node9</title>
<path fill="none" stroke="#404040" d="M216.29,-536.29C222.41,-541.32 228.08,-547.24 232,-554 240.19,-568.13 245.94,-583.94 249.92,-600.16"/>
<polygon fill="none" stroke="#404040" points="249.88,-600 255.06,-605.02 252.43,-611.73 247.24,-606.71 249.88,-600"/>
<text text-anchor="middle" x="266" y="-572" font-family="Helvetica,sans-Serif" font-size="10.00"> &#45;values</text>
</g>
<!-- Node7 -->
<g id="node7" class="node">
<title>Node7</title>
<g id="a_node7"><a xlink:title=" ">
<polygon fill="white" stroke="#666666" points="79,-975.5 17,-975.5 17,-945.5 79,-945.5 79,-975.5"/>
<text text-anchor="middle" x="48" y="-963.5" font-family="Helvetica,sans-Serif" font-size="10.00">{std::string</text>
<text text-anchor="middle" x="48" y="-952.5" font-family="Helvetica,sans-Serif" font-size="10.00">||}</text>
</a>
</g>
</g>
<!-- Node7&#45;&gt;Node2 -->
<g id="edge19" class="edge">
<title>Node7&#45;&gt;Node2</title>
<path fill="none" stroke="#404040" d="M44.27,-945.23C30.71,-890.01 -11.19,-686.91 68,-554 126.4,-455.99 236.95,-380.36 312.28,-337.13"/>
<polygon fill="none" stroke="#404040" points="312.36,-337.09 315.62,-330.65 322.81,-331.18 319.55,-337.61 312.36,-337.09"/>
<text text-anchor="middle" x="76" y="-572" font-family="Helvetica,sans-Serif" font-size="10.00"> #id</text>
</g>
<!-- Node7&#45;&gt;Node6 -->
<g id="edge6" class="edge">
<title>Node7&#45;&gt;Node6</title>
<path fill="none" stroke="#404040" d="M47.6,-945.3C46.62,-897.44 46.42,-737.99 82,-613 90,-584.9 90.64,-574.96 111,-554 114.72,-550.18 118.91,-546.66 123.35,-543.44"/>
<polygon fill="none" stroke="#404040" points="123.24,-543.51 126.09,-536.88 133.3,-536.96 130.45,-543.58 123.24,-543.51"/>
<text text-anchor="middle" x="96.5" y="-730" font-family="Helvetica,sans-Serif" font-size="10.00"> +keys</text>
</g>
<!-- Node7&#45;&gt;Node9 -->
<g id="edge9" class="edge">
<title>Node7&#45;&gt;Node9</title>
<path fill="none" stroke="#404040" d="M52.41,-945.17C59.36,-923.18 72.97,-882.34 82,-870 109.02,-833.05 148.54,-800.73 182.88,-776.83"/>
<polygon fill="none" stroke="#404040" points="182.7,-776.96 185.4,-770.27 192.61,-770.2 189.91,-776.88 182.7,-776.96"/>
<text text-anchor="middle" x="92.5" y="-893.5" font-family="Helvetica,sans-Serif" font-size="10.00"> &#45;key</text>
</g>
<!-- Node8 -->
<g id="node8" class="node">
<title>Node8</title>
<g id="a_node8"><a xlink:title=" ">
<polygon fill="white" stroke="#666666" points="96,-1069 0,-1069 0,-1028 96,-1028 96,-1069"/>
<text text-anchor="start" x="8" y="-1057" font-family="Helvetica,sans-Serif" font-size="10.00">{std::basic_string&lt;</text>
<text text-anchor="middle" x="48" y="-1046" font-family="Helvetica,sans-Serif" font-size="10.00"> Char &gt;</text>
<text text-anchor="middle" x="48" y="-1035" font-family="Helvetica,sans-Serif" font-size="10.00">||}</text>
</a>
</g>
</g>
<!-- Node8&#45;&gt;Node7 -->
<g id="edge7" class="edge">
<title>Node8&#45;&gt;Node7</title>
<path fill="none" stroke="#63b8ff" d="M48,-1016.08C48,-1002.35 48,-986.91 48,-975.97"/>
<polygon fill="none" stroke="#63b8ff" points="44.5,-1016.04 48,-1026.04 51.5,-1016.04 44.5,-1016.04"/>
</g>
<!-- Node9&#45;&gt;Node6 -->
<g id="edge8" class="edge">
<title>Node9&#45;&gt;Node6</title>
<path fill="none" stroke="#404040" d="M193.07,-625.7C189.04,-615.56 185.57,-605.23 183,-595 179.27,-580.17 178.62,-563.27 179.06,-548.96"/>
<polygon fill="none" stroke="#404040" points="179.06,-549.06 175.39,-542.85 179.71,-537.08 183.38,-543.29 179.06,-549.06"/>
<text text-anchor="middle" x="207.5" y="-572" font-family="Helvetica,sans-Serif" font-size="10.00"> +elements</text>
</g>
<!-- Node9&#45;&gt;Node10 -->
<g id="edge12" class="edge">
<title>Node9&#45;&gt;Node10</title>
<path fill="none" stroke="#404040" d="M266.61,-852.28C269.53,-879.78 272.41,-906.82 274.53,-926.87"/>
<polygon fill="none" stroke="#404040" points="274.55,-927.01 279.16,-932.55 275.82,-938.94 271.21,-933.4 274.55,-927.01"/>
<text text-anchor="middle" x="298.5" y="-893.5" font-family="Helvetica,sans-Serif" font-size="10.00"> +elements</text>
</g>
<!-- Node10&#45;&gt;Node9 -->
<g id="edge11" class="edge">
<title>Node10&#45;&gt;Node9</title>
<path fill="none" stroke="#404040" d="M313.45,-939.64C319.33,-934.68 324.6,-928.79 328,-922 338.34,-901.33 333.68,-892.4 328,-870 325.84,-861.48 323.03,-852.91 319.76,-844.44"/>
<polygon fill="none" stroke="#404040" points="319.78,-844.49 313.8,-840.47 315.21,-833.4 321.2,-837.42 319.78,-844.49"/>
<text text-anchor="middle" x="358.5" y="-893.5" font-family="Helvetica,sans-Serif" font-size="10.00"> &#45;value_list</text>
</g>
<!-- Node11&#45;&gt;Node6 -->
<g id="edge14" class="edge">
<title>Node11&#45;&gt;Node6</title>
<path fill="none" stroke="orange" d="M165.38,-1022.87C155.26,-997.97 140.75,-958.12 135,-922 111.54,-774.67 158.44,-595.46 175.85,-536.41"/>
<polygon fill="orange" stroke="orange" points="162.02,-1023.9 169.09,-1031.79 168.48,-1021.21 162.02,-1023.9"/>
<text text-anchor="middle" x="200" y="-893.5" font-family="Helvetica,sans-Serif" font-size="10.00"> &lt; std::string, JSONProperty &gt;</text>
</g>
<!-- Node12 -->
<g id="node12" class="node">
<title>Node12</title>
<g id="a_node12"><a xlink:title=" ">
<polygon fill="white" stroke="#666666" points="190.5,-1146 161.5,-1146 161.5,-1116 190.5,-1116 190.5,-1146"/>
<text text-anchor="middle" x="176" y="-1134" font-family="Helvetica,sans-Serif" font-size="10.00">{K</text>
<text text-anchor="middle" x="176" y="-1123" font-family="Helvetica,sans-Serif" font-size="10.00">||}</text>
</a>
</g>
</g>
<!-- Node12&#45;&gt;Node11 -->
<g id="edge15" class="edge">
<title>Node12&#45;&gt;Node11</title>
<path fill="none" stroke="#404040" d="M176,-1115.61C176,-1104.85 176,-1089.81 176,-1076.8"/>
<polygon fill="none" stroke="#404040" points="176,-1076.67 172,-1070.67 176,-1064.67 180,-1070.67 176,-1076.67"/>
<text text-anchor="middle" x="190.5" y="-1090" font-family="Helvetica,sans-Serif" font-size="10.00"> +keys</text>
</g>
<!-- Node13&#45;&gt;Node2 -->
<g id="edge17" class="edge">
<title>Node13&#45;&gt;Node2</title>
<path fill="none" stroke="#404040" d="M399.35,-553.58C398.61,-530.81 397.33,-491.34 395.99,-450.06"/>
<polygon fill="none" stroke="#404040" points="395.99,-450.1 391.8,-444.24 395.6,-438.11 399.79,-443.98 395.99,-450.1"/>
<text text-anchor="middle" x="432.5" y="-513" font-family="Helvetica,sans-Serif" font-size="10.00"> #bounding_box</text>
</g>
<!-- Node14&#45;&gt;Node2 -->
<g id="edge20" class="edge">
<title>Node14&#45;&gt;Node2</title>
<path fill="none" stroke="#404040" d="M429.16,-63.23C431.39,-74.76 433.89,-89.64 435,-103 436.03,-115.37 435.88,-128.08 434.87,-140.8"/>
<polygon fill="none" stroke="#404040" points="434.88,-140.68 438.25,-147.05 433.66,-152.62 430.29,-146.24 434.88,-140.68"/>
<text text-anchor="middle" x="463.5" y="-128" font-family="Helvetica,sans-Serif" font-size="10.00"> #destination</text>
<text text-anchor="middle" x="463.5" y="-117" font-family="Helvetica,sans-Serif" font-size="10.00">#neighbors</text>
<text text-anchor="middle" x="463.5" y="-106" font-family="Helvetica,sans-Serif" font-size="10.00">#origination</text>
</g>
</g>
</svg>
        <g id="navigator" transform="translate(0 0)" fill="#404254">
                <rect fill="#f2f5e9" fill-opacity="0.5" stroke="#606060" stroke-width=".5" x="0" y="0" width="60" height="60"/>
                <use id="zoomplus" xlink:href="#zoomPlus" x="17" y="9" onmousedown="handleZoom(evt,'in')"/>
                <use id="zoomminus" xlink:href="#zoomMin" x="42" y="9" onmousedown="handleZoom(evt,'out')"/>
                <use id="reset" xlink:href="#resetDef" x="30" y="36" onmousedown="handleReset()"/>
                <g id="arrowUp" xlink:href="#dirArrow" transform="translate(30 24)" onmousedown="handlePan(0,-1)">
                  <use xlink:href="#rim" fill="#404040">
                        <set attributeName="fill" to="#808080" begin="arrowUp.mouseover" end="arrowUp.mouseout"/>
                  </use>
                  <path fill="none" stroke="white" stroke-width="1.5" d="M0,-3.0v7 M-2.5,-0.5L0,-3.0L2.5,-0.5"/>
                </g>
                <g id="arrowRight" xlink:href="#dirArrow" transform="rotate(90) translate(36 -43)" onmousedown="handlePan(1,0)">
                  <use xlink:href="#rim" fill="#404040">
                        <set attributeName="fill" to="#808080" begin="arrowRight.mouseover" end="arrowRight.mouseout"/>
                  </use>
                  <path fill="none" stroke="white" stroke-width="1.5" d="M0,-3.0v7 M-2.5,-0.5L0,-3.0L2.5,-0.5"/>
                </g>
                <g id="arrowDown" xlink:href="#dirArrow" transform="rotate(180) translate(-30 -48)" onmousedown="handlePan(0,1)">
                  <use xlink:href="#rim" fill="#404040">
                        <set attributeName="fill" to="#808080" begin="arrowDown.mouseover" end="arrowDown.mouseout"/>
                  </use>
                  <path fill="none" stroke="white" stroke-width="1.5" d="M0,-3.0v7 M-2.5,-0.5L0,-3.0L2.5,-0.5"/>
                </g>
                <g id="arrowLeft" xlink:href="#dirArrow" transform="rotate(270) translate(-36 17)" onmousedown="handlePan(-1,0)">
                  <use xlink:href="#rim" fill="#404040">
                        <set attributeName="fill" to="#808080" begin="arrowLeft.mouseover" end="arrowLeft.mouseout"/>
                  </use>
                  <path fill="none" stroke="white" stroke-width="1.5" d="M0,-3.0v7 M-2.5,-0.5L0,-3.0L2.5,-0.5"/>
                </g>
        </g>
        <svg viewBox="0 0 15 15" width="100%" height="30px" preserveAspectRatio="xMaxYMin meet">
         <g id="arrow_out" transform="scale(0.3 0.3)">
          <a xlink:href="classgeojson_1_1_point_feature__coll__graph_org.svg" target="_base">
           <rect id="button" ry="5" rx="5" y="6" x="6" height="38" width="38"
                fill="#f2f5e9" fill-opacity="0.5" stroke="#606060" stroke-width="1.0"/>
           <path id="arrow"
             d="M 11.500037,31.436501 C 11.940474,20.09759 22.043105,11.32322 32.158766,21.979434 L 37.068811,17.246167 C 37.068811,17.246167 37.088388,32 37.088388,32 L 22.160133,31.978069 C 22.160133,31.978069 26.997745,27.140456 26.997745,27.140456 C 18.528582,18.264221 13.291696,25.230495 11.500037,31.436501 z"
             style="fill:#404040;"/>
          </a>
         </g>
        </svg>
</svg>
