<?xml version="1.0" encoding="UTF-8" standalone="no"?>
<!DOCTYPE svg PUBLIC "-//W3C//DTD SVG 1.1//EN"
 "http://www.w3.org/Graphics/SVG/1.1/DTD/svg11.dtd">
<!-- Generated by graphviz version 7.0.5 (20221223.1930)
 -->
<!-- Title: hy_features::hydrolocation::HY_HydroLocation Pages: 1 -->
<svg width="994pt" height="1627pt"
 viewBox="0.00 0.00 994.00 1627.00" xmlns="http://www.w3.org/2000/svg" xmlns:xlink="http://www.w3.org/1999/xlink">
<g id="graph0" class="graph" transform="scale(1 1) rotate(0) translate(4 1623)">
<title>hy_features::hydrolocation::HY_HydroLocation</title>
<!-- Node1 -->
<g id="node1" class="node">
<title>Node1</title>
<g id="a_node1"><a xlink:title=" ">
<polygon fill="#999999" stroke="#666666" points="229.5,-173 98.5,-173 98.5,0 229.5,0 229.5,-173"/>
<text text-anchor="start" x="106.5" y="-161" font-family="Helvetica,sans-Serif" font-size="10.00">{hy_features::hydrolocation</text>
<text text-anchor="middle" x="164" y="-150" font-family="Helvetica,sans-Serif" font-size="10.00">::HY_HydroLocation</text>
<text text-anchor="start" x="106.5" y="-139" font-family="Helvetica,sans-Serif" font-size="10.00">|&#45; _shape</text>
<text text-anchor="start" x="106.5" y="-128" font-family="Helvetica,sans-Serif" font-size="10.00">&#45; _type</text>
<text text-anchor="start" x="106.5" y="-117" font-family="Helvetica,sans-Serif" font-size="10.00">|+ HY_HydroLocation()</text>
<text text-anchor="start" x="106.5" y="-106" font-family="Helvetica,sans-Serif" font-size="10.00">+ HY_HydroLocation()</text>
<text text-anchor="start" x="106.5" y="-95" font-family="Helvetica,sans-Serif" font-size="10.00">+ geometry()</text>
<text text-anchor="start" x="106.5" y="-84" font-family="Helvetica,sans-Serif" font-size="10.00">+ geometry()</text>
<text text-anchor="start" x="106.5" y="-73" font-family="Helvetica,sans-Serif" font-size="10.00">+ itype()</text>
<text text-anchor="start" x="106.5" y="-62" font-family="Helvetica,sans-Serif" font-size="10.00">+ itype()</text>
<text text-anchor="start" x="106.5" y="-51" font-family="Helvetica,sans-Serif" font-size="10.00">+ referenced_position()</text>
<text text-anchor="start" x="106.5" y="-40" font-family="Helvetica,sans-Serif" font-size="10.00">+ referenced_position()</text>
<text text-anchor="start" x="106.5" y="-29" font-family="Helvetica,sans-Serif" font-size="10.00">+ realized_nexus()</text>
<text text-anchor="start" x="106.5" y="-18" font-family="Helvetica,sans-Serif" font-size="10.00">+ realized_nexus()</text>
<text text-anchor="middle" x="164" y="-7" font-family="Helvetica,sans-Serif" font-size="10.00">}</text>
</a>
</g>
</g>
<!-- Node2 -->
<g id="node2" class="node">
<title>Node2</title>
<g id="a_node2"><a xlink:href="class_g_m___object.html" target="_top" xlink:title=" ">
<polygon fill="white" stroke="#666666" points="786,-618.5 700,-618.5 700,-566.5 786,-566.5 786,-618.5"/>
<text text-anchor="middle" x="743" y="-606.5" font-family="Helvetica,sans-Serif" font-size="10.00">{GM_Object</text>
<text text-anchor="start" x="708" y="-595.5" font-family="Helvetica,sans-Serif" font-size="10.00">||+ GM_Object()</text>
<text text-anchor="start" x="708" y="-584.5" font-family="Helvetica,sans-Serif" font-size="10.00">+ ~GM_Object()</text>
<text text-anchor="middle" x="743" y="-573.5" font-family="Helvetica,sans-Serif" font-size="10.00">}</text>
</a>
</g>
</g>
<!-- Node2&#45;&gt;Node1 -->
<g id="edge1" class="edge">
<title>Node2&#45;&gt;Node1</title>
<path fill="none" stroke="#63b8ff" d="M736.31,-555.28C732.31,-530.51 728,-496.88 728,-467 728,-467 728,-467 728,-256 728,-153.04 378.58,-107.77 229.8,-93.16"/>
<polygon fill="none" stroke="#63b8ff" points="732.81,-555.56 737.92,-564.84 739.71,-554.4 732.81,-555.56"/>
</g>
<!-- Node8 -->
<g id="node8" class="node">
<title>Node8</title>
<g id="a_node8"><a xlink:href="class_h_y___flow_path.html" target="_top" xlink:title=" ">
<polygon fill="white" stroke="#666666" points="642.5,-492 545.5,-492 545.5,-440 642.5,-440 642.5,-492"/>
<text text-anchor="middle" x="594" y="-480" font-family="Helvetica,sans-Serif" font-size="10.00">{HY_FlowPath</text>
<text text-anchor="start" x="553.5" y="-469" font-family="Helvetica,sans-Serif" font-size="10.00">||+ HY_FlowPath()</text>
<text text-anchor="start" x="553.5" y="-458" font-family="Helvetica,sans-Serif" font-size="10.00">+ ~HY_FlowPath()</text>
<text text-anchor="middle" x="594" y="-447" font-family="Helvetica,sans-Serif" font-size="10.00">}</text>
</a>
</g>
</g>
<!-- Node2&#45;&gt;Node8 -->
<g id="edge8" class="edge">
<title>Node2&#45;&gt;Node8</title>
<path fill="none" stroke="#63b8ff" d="M708.17,-558.61C700.94,-552.01 693.29,-545.2 686,-539 670.08,-525.47 665.45,-522.88 649,-510 641.75,-504.32 633.95,-498.23 626.58,-492.46"/>
<polygon fill="none" stroke="#63b8ff" points="705.59,-560.99 715.32,-565.19 710.33,-555.84 705.59,-560.99"/>
</g>
<!-- Node3 -->
<g id="node3" class="node">
<title>Node3</title>
<g id="a_node3"><a xlink:href="classhy__features_1_1hydrolocation_1_1_h_y___indirect_position.html" target="_top" xlink:title=" ">
<polygon fill="white" stroke="#666666" points="229.5,-294 98.5,-294 98.5,-220 229.5,-220 229.5,-294"/>
<text text-anchor="start" x="106.5" y="-282" font-family="Helvetica,sans-Serif" font-size="10.00">{hy_features::hydrolocation</text>
<text text-anchor="middle" x="164" y="-271" font-family="Helvetica,sans-Serif" font-size="10.00">::HY_IndirectPosition</text>
<text text-anchor="start" x="106.5" y="-260" font-family="Helvetica,sans-Serif" font-size="10.00">|&#45; distance_description</text>
<text text-anchor="start" x="106.5" y="-249" font-family="Helvetica,sans-Serif" font-size="10.00">|+ HY_IndirectPosition()</text>
<text text-anchor="start" x="106.5" y="-238" font-family="Helvetica,sans-Serif" font-size="10.00">+ ~HY_IndirectPosition()</text>
<text text-anchor="middle" x="164" y="-227" font-family="Helvetica,sans-Serif" font-size="10.00">}</text>
</a>
</g>
</g>
<!-- Node3&#45;&gt;Node1 -->
<g id="edge2" class="edge">
<title>Node3&#45;&gt;Node1</title>
<path fill="none" stroke="#404040" d="M164,-219.85C164,-209.77 164,-198.3 164,-186.43"/>
<polygon fill="none" stroke="#404040" points="164,-186.35 160,-180.35 164,-174.35 168,-180.35 164,-186.35"/>
<text text-anchor="middle" x="212" y="-194" font-family="Helvetica,sans-Serif" font-size="10.00"> &#45;_referenced_position</text>
</g>
<!-- Node4 -->
<g id="node4" class="node">
<title>Node4</title>
<g id="a_node4"><a xlink:href="structhy__features_1_1hydrolocation_1_1_h_y___distance_from_referent.html" target="_top" xlink:title=" ">
<polygon fill="white" stroke="#666666" points="165,-1131 15,-1131 15,-1057 165,-1057 165,-1131"/>
<text text-anchor="start" x="23" y="-1119" font-family="Helvetica,sans-Serif" font-size="10.00">{hy_features::hydrolocation</text>
<text text-anchor="middle" x="90" y="-1108" font-family="Helvetica,sans-Serif" font-size="10.00">::HY_DistanceFromReferent</text>
<text text-anchor="start" x="23" y="-1097" font-family="Helvetica,sans-Serif" font-size="10.00">|+ absolute</text>
<text text-anchor="start" x="23" y="-1086" font-family="Helvetica,sans-Serif" font-size="10.00">+ interpolative</text>
<text text-anchor="start" x="23" y="-1075" font-family="Helvetica,sans-Serif" font-size="10.00">|+ HY_DistanceFromReferent()</text>
<text text-anchor="middle" x="90" y="-1064" font-family="Helvetica,sans-Serif" font-size="10.00">}</text>
</a>
</g>
</g>
<!-- Node4&#45;&gt;Node3 -->
<g id="edge3" class="edge">
<title>Node4&#45;&gt;Node3</title>
<path fill="none" stroke="#404040" d="M94.51,-1056.77C100.68,-1003.92 111,-902.57 111,-816 111,-816 111,-816 111,-366 111,-344.83 119.31,-323.49 129.35,-305.43"/>
<polygon fill="none" stroke="#404040" points="129.34,-305.44 128.98,-298.24 135.49,-295.13 135.85,-302.34 129.34,-305.44"/>
<text text-anchor="middle" x="164" y="-590" font-family="Helvetica,sans-Serif" font-size="10.00"> &#45;distance_from_referent</text>
</g>
<!-- Node5 -->
<g id="node5" class="node">
<title>Node5</title>
<g id="a_node5"><a xlink:title=" ">
<polygon fill="white" stroke="#666666" points="304,-1465 242,-1465 242,-1435 304,-1435 304,-1465"/>
<text text-anchor="middle" x="273" y="-1453" font-family="Helvetica,sans-Serif" font-size="10.00">{std::string</text>
<text text-anchor="middle" x="273" y="-1442" font-family="Helvetica,sans-Serif" font-size="10.00">||}</text>
</a>
</g>
</g>
<!-- Node5&#45;&gt;Node1 -->
<g id="edge34" class="edge">
<title>Node5&#45;&gt;Node1</title>
<path fill="none" stroke="#404040" d="M241.68,-1440.35C169.98,-1418.42 0,-1353.52 0,-1231 0,-1231 0,-1231 0,-256 0,-201.43 44.71,-157.91 87.45,-128.77"/>
<polygon fill="none" stroke="#404040" points="87.46,-128.77 90.28,-122.13 97.49,-122.17 94.67,-128.81 87.46,-128.77"/>
<text text-anchor="middle" x="37.5" y="-590" font-family="Helvetica,sans-Serif" font-size="10.00"> &#45;_realized_nexus</text>
</g>
<!-- Node5&#45;&gt;Node4 -->
<g id="edge4" class="edge">
<title>Node5&#45;&gt;Node4</title>
<path fill="none" stroke="#404040" d="M241.7,-1437.77C195.77,-1419.39 111.79,-1378.04 77,-1311 49.87,-1258.73 60.84,-1189.48 73.43,-1143.65"/>
<polygon fill="none" stroke="#404040" points="73.39,-1143.76 71.22,-1136.89 76.74,-1132.24 78.9,-1139.12 73.39,-1143.76"/>
<text text-anchor="middle" x="150.5" y="-1343" font-family="Helvetica,sans-Serif" font-size="10.00"> +accuracyStatement</text>
<text text-anchor="middle" x="150.5" y="-1332" font-family="Helvetica,sans-Serif" font-size="10.00">+precisionStatement</text>
</g>
<!-- Node11 -->
<g id="node11" class="node">
<title>Node11</title>
<g id="a_node11"><a xlink:href="class_h_y___catchment.html" target="_top" xlink:title=" ">
<polygon fill="white" stroke="#666666" points="416,-1039 240,-1039 240,-844 416,-844 416,-1039"/>
<text text-anchor="middle" x="328" y="-1027" font-family="Helvetica,sans-Serif" font-size="10.00">{HY_Catchment</text>
<text text-anchor="start" x="248" y="-1016" font-family="Helvetica,sans-Serif" font-size="10.00">|+ ATMOSPHERIC_LAYER_HIGH</text>
<text text-anchor="start" x="248" y="-1005" font-family="Helvetica,sans-Serif" font-size="10.00">+ ATMOSPHERIC_Layer_LOW</text>
<text text-anchor="start" x="248" y="-994" font-family="Helvetica,sans-Serif" font-size="10.00">+ CANOPY_LAYER</text>
<text text-anchor="start" x="248" y="-983" font-family="Helvetica,sans-Serif" font-size="10.00">+ SNOW_LAYER</text>
<text text-anchor="start" x="248" y="-972" font-family="Helvetica,sans-Serif" font-size="10.00">+ SURFACE_LAYER</text>
<text text-anchor="start" x="248" y="-961" font-family="Helvetica,sans-Serif" font-size="10.00">+ GROUND_WATER_SHALLOW</text>
<text text-anchor="start" x="248" y="-950" font-family="Helvetica,sans-Serif" font-size="10.00">_LAYER</text>
<text text-anchor="start" x="248" y="-939" font-family="Helvetica,sans-Serif" font-size="10.00">+ GROUND_WATER_DEEP_LAYER</text>
<text text-anchor="start" x="248" y="-928" font-family="Helvetica,sans-Serif" font-size="10.00">&#45; layer</text>
<text text-anchor="start" x="248" y="-917" font-family="Helvetica,sans-Serif" font-size="10.00">|+ HY_Catchment()</text>
<text text-anchor="start" x="248" y="-906" font-family="Helvetica,sans-Serif" font-size="10.00">+ HY_Catchment()</text>
<text text-anchor="start" x="248" y="-895" font-family="Helvetica,sans-Serif" font-size="10.00">+ ~HY_Catchment()</text>
<text text-anchor="start" x="248" y="-884" font-family="Helvetica,sans-Serif" font-size="10.00">+ get_outflow_nexuses()</text>
<text text-anchor="start" x="248" y="-873" font-family="Helvetica,sans-Serif" font-size="10.00">+ get_layer()</text>
<text text-anchor="start" x="248" y="-862" font-family="Helvetica,sans-Serif" font-size="10.00">+ set_layer()</text>
<text text-anchor="middle" x="328" y="-851" font-family="Helvetica,sans-Serif" font-size="10.00">}</text>
</a>
</g>
</g>
<!-- Node5&#45;&gt;Node11 -->
<g id="edge17" class="edge">
<title>Node5&#45;&gt;Node11</title>
<path fill="none" stroke="#404040" d="M282.28,-1434.61C293.94,-1415.98 313.89,-1382.19 326,-1351 332.63,-1333.92 333.06,-1329.09 336,-1311 354.16,-1199.41 360.71,-1169.55 350,-1057 349.85,-1055.47 349.7,-1053.94 349.53,-1052.4"/>
<polygon fill="none" stroke="#404040" points="349.52,-1052.26 344.82,-1046.79 348.06,-1040.35 352.76,-1045.82 349.52,-1052.26"/>
<text text-anchor="middle" x="405.5" y="-1249.5" font-family="Helvetica,sans-Serif" font-size="10.00"> &#45;conjoint_catchment</text>
<text text-anchor="middle" x="405.5" y="-1238.5" font-family="Helvetica,sans-Serif" font-size="10.00">&#45;containing_catchment</text>
<text text-anchor="middle" x="405.5" y="-1227.5" font-family="Helvetica,sans-Serif" font-size="10.00">&#45;id</text>
<text text-anchor="middle" x="405.5" y="-1216.5" font-family="Helvetica,sans-Serif" font-size="10.00">&#45;lower_catchment</text>
<text text-anchor="middle" x="405.5" y="-1205.5" font-family="Helvetica,sans-Serif" font-size="10.00">&#45;upper_catchment</text>
</g>
<!-- Node16 -->
<g id="node16" class="node">
<title>Node16</title>
<g id="a_node16"><a xlink:title=" ">
<polygon fill="white" stroke="#666666" points="327.5,-1245 218.5,-1245 218.5,-1215 327.5,-1215 327.5,-1245"/>
<text text-anchor="middle" x="273" y="-1233" font-family="Helvetica,sans-Serif" font-size="10.00">{std::vector&lt; Nexus &gt;</text>
<text text-anchor="middle" x="273" y="-1222" font-family="Helvetica,sans-Serif" font-size="10.00">||}</text>
</a>
</g>
</g>
<!-- Node5&#45;&gt;Node16 -->
<g id="edge19" class="edge">
<title>Node5&#45;&gt;Node16</title>
<path fill="none" stroke="#404040" d="M273,-1434.7C273,-1398.9 273,-1304.97 273,-1258.23"/>
<polygon fill="none" stroke="#404040" points="273,-1258.26 269,-1252.26 273,-1246.26 277,-1252.26 273,-1258.26"/>
<text text-anchor="middle" x="297.5" y="-1337.5" font-family="Helvetica,sans-Serif" font-size="10.00"> +elements</text>
</g>
<!-- Node18 -->
<g id="node18" class="node">
<title>Node18</title>
<g id="a_node18"><a xlink:title=" ">
<polygon fill="white" stroke="#666666" points="609,-1245 481,-1245 481,-1215 609,-1215 609,-1245"/>
<text text-anchor="middle" x="545" y="-1233" font-family="Helvetica,sans-Serif" font-size="10.00">{std::vector&lt; Catchment &gt;</text>
<text text-anchor="middle" x="545" y="-1222" font-family="Helvetica,sans-Serif" font-size="10.00">||}</text>
</a>
</g>
</g>
<!-- Node5&#45;&gt;Node18 -->
<g id="edge23" class="edge">
<title>Node5&#45;&gt;Node18</title>
<path fill="none" stroke="#404040" d="M288.64,-1434.53C309.11,-1415.54 346.03,-1381.07 377,-1351 386.92,-1341.37 387.01,-1335.9 399,-1329 426.1,-1313.41 440,-1326.76 467,-1311 491,-1296.99 512.57,-1273.61 526.91,-1255.73"/>
<polygon fill="none" stroke="#404040" points="526.97,-1255.65 527.47,-1248.45 534.31,-1246.15 533.8,-1253.35 526.97,-1255.65"/>
<text text-anchor="middle" x="423.5" y="-1337.5" font-family="Helvetica,sans-Serif" font-size="10.00"> +elements</text>
</g>
<!-- Node6 -->
<g id="node6" class="node">
<title>Node6</title>
<g id="a_node6"><a xlink:title=" ">
<polygon fill="white" stroke="#666666" points="321,-1619 225,-1619 225,-1578 321,-1578 321,-1619"/>
<text text-anchor="start" x="233" y="-1607" font-family="Helvetica,sans-Serif" font-size="10.00">{std::basic_string&lt;</text>
<text text-anchor="middle" x="273" y="-1596" font-family="Helvetica,sans-Serif" font-size="10.00"> Char &gt;</text>
<text text-anchor="middle" x="273" y="-1585" font-family="Helvetica,sans-Serif" font-size="10.00">||}</text>
</a>
</g>
</g>
<!-- Node6&#45;&gt;Node5 -->
<g id="edge5" class="edge">
<title>Node6&#45;&gt;Node5</title>
<path fill="none" stroke="#63b8ff" d="M273,-1566.62C273,-1535.38 273,-1488.48 273,-1465.18"/>
<polygon fill="none" stroke="#63b8ff" points="269.5,-1566.23 273,-1576.23 276.5,-1566.23 269.5,-1566.23"/>
</g>
<!-- Node7 -->
<g id="node7" class="node">
<title>Node7</title>
<g id="a_node7"><a xlink:title=" ">
<polygon fill="white" stroke="#666666" points="354,-393 248,-393 248,-341 354,-341 354,-393"/>
<text text-anchor="start" x="256" y="-381" font-family="Helvetica,sans-Serif" font-size="10.00">{std::shared_ptr&lt; HY</text>
<text text-anchor="middle" x="301" y="-370" font-family="Helvetica,sans-Serif" font-size="10.00">_FlowPath &gt;</text>
<text text-anchor="start" x="256" y="-359" font-family="Helvetica,sans-Serif" font-size="10.00">||+ operator&#45;&gt;()</text>
<text text-anchor="middle" x="301" y="-348" font-family="Helvetica,sans-Serif" font-size="10.00">}</text>
</a>
</g>
</g>
<!-- Node7&#45;&gt;Node3 -->
<g id="edge6" class="edge">
<title>Node7&#45;&gt;Node3</title>
<path fill="none" stroke="#404040" d="M268.88,-340.68C254.41,-329.27 236.88,-315.45 220.33,-302.41"/>
<polygon fill="none" stroke="#404040" points="220.32,-302.4 213.13,-301.83 210.9,-294.97 218.08,-295.54 220.32,-302.4"/>
<text text-anchor="middle" x="266" y="-315" font-family="Helvetica,sans-Serif" font-size="10.00"> &#45;flowpath</text>
</g>
<!-- Node8&#45;&gt;Node7 -->
<g id="edge7" class="edge">
<title>Node8&#45;&gt;Node7</title>
<path fill="none" stroke="#404040" d="M545.29,-448.87C496.37,-432.68 420.7,-407.63 366.54,-389.7"/>
<polygon fill="none" stroke="#404040" points="366.54,-389.7 359.59,-391.61 355.15,-385.93 362.11,-384.02 366.54,-389.7"/>
<text text-anchor="middle" x="466" y="-414" font-family="Helvetica,sans-Serif" font-size="10.00"> +ptr</text>
</g>
<!-- Node9 -->
<g id="node9" class="node">
<title>Node9</title>
<g id="a_node9"><a xlink:href="class_h_y___catchment_realization.html" target="_top" xlink:title=" ">
<polygon fill="white" stroke="#666666" points="599,-646 449,-646 449,-539 599,-539 599,-646"/>
<text text-anchor="middle" x="524" y="-634" font-family="Helvetica,sans-Serif" font-size="10.00">{HY_CatchmentRealization</text>
<text text-anchor="start" x="457" y="-623" font-family="Helvetica,sans-Serif" font-size="10.00">|# id_number</text>
<text text-anchor="start" x="457" y="-612" font-family="Helvetica,sans-Serif" font-size="10.00">|+ HY_CatchmentRealization()</text>
<text text-anchor="start" x="457" y="-601" font-family="Helvetica,sans-Serif" font-size="10.00">+ HY_CatchmentRealization()</text>
<text text-anchor="start" x="457" y="-590" font-family="Helvetica,sans-Serif" font-size="10.00">+ ~HY_CatchmentRealization()</text>
<text text-anchor="start" x="457" y="-579" font-family="Helvetica,sans-Serif" font-size="10.00">+ get_response()</text>
<text text-anchor="start" x="457" y="-568" font-family="Helvetica,sans-Serif" font-size="10.00"># get_catchment_id()</text>
<text text-anchor="start" x="457" y="-557" font-family="Helvetica,sans-Serif" font-size="10.00"># set_catchment_id()</text>
<text text-anchor="middle" x="524" y="-546" font-family="Helvetica,sans-Serif" font-size="10.00">}</text>
</a>
</g>
</g>
<!-- Node9&#45;&gt;Node8 -->
<g id="edge9" class="edge">
<title>Node9&#45;&gt;Node8</title>
<path fill="none" stroke="#63b8ff" d="M559.22,-528.86C566.48,-515.94 573.73,-503.05 579.71,-492.41"/>
<polygon fill="none" stroke="#63b8ff" points="556.28,-526.95 554.43,-537.38 562.38,-530.38 556.28,-526.95"/>
</g>
<!-- Node13 -->
<g id="node13" class="node">
<title>Node13</title>
<g id="a_node13"><a xlink:title=" ">
<polygon fill="white" stroke="#666666" points="471.5,-492 346.5,-492 346.5,-440 471.5,-440 471.5,-492"/>
<text text-anchor="start" x="354.5" y="-480" font-family="Helvetica,sans-Serif" font-size="10.00">{std::shared_ptr&lt; HY</text>
<text text-anchor="middle" x="409" y="-469" font-family="Helvetica,sans-Serif" font-size="10.00">_CatchmentRealization &gt;</text>
<text text-anchor="start" x="354.5" y="-458" font-family="Helvetica,sans-Serif" font-size="10.00">||+ operator&#45;&gt;()</text>
<text text-anchor="middle" x="409" y="-447" font-family="Helvetica,sans-Serif" font-size="10.00">}</text>
</a>
</g>
</g>
<!-- Node9&#45;&gt;Node13 -->
<g id="edge14" class="edge">
<title>Node9&#45;&gt;Node13</title>
<path fill="none" stroke="#404040" d="M475.23,-538.7C463.77,-526.3 451.84,-513.38 441.31,-501.98"/>
<polygon fill="none" stroke="#404040" points="441.22,-501.88 434.21,-500.19 433.08,-493.07 440.09,-494.76 441.22,-501.88"/>
<text text-anchor="middle" x="466" y="-513" font-family="Helvetica,sans-Serif" font-size="10.00"> +ptr</text>
</g>
<!-- Node10 -->
<g id="node10" class="node">
<title>Node10</title>
<g id="a_node10"><a xlink:title=" ">
<polygon fill="white" stroke="#666666" points="559,-786 453,-786 453,-734 559,-734 559,-786"/>
<text text-anchor="start" x="461" y="-774" font-family="Helvetica,sans-Serif" font-size="10.00">{std::shared_ptr&lt; HY</text>
<text text-anchor="middle" x="506" y="-763" font-family="Helvetica,sans-Serif" font-size="10.00">_Catchment &gt;</text>
<text text-anchor="start" x="461" y="-752" font-family="Helvetica,sans-Serif" font-size="10.00">||+ operator&#45;&gt;()</text>
<text text-anchor="middle" x="506" y="-741" font-family="Helvetica,sans-Serif" font-size="10.00">}</text>
</a>
</g>
</g>
<!-- Node10&#45;&gt;Node9 -->
<g id="edge10" class="edge">
<title>Node10&#45;&gt;Node9</title>
<path fill="none" stroke="#404040" d="M514.78,-733.79C516.47,-728.01 518.01,-721.84 519,-716 522.09,-697.67 523.66,-677.59 524.38,-659.09"/>
<polygon fill="none" stroke="#404040" points="524.38,-659.16 520.55,-653.04 524.73,-647.16 528.55,-653.28 524.38,-659.16"/>
<text text-anchor="middle" x="570" y="-687.5" font-family="Helvetica,sans-Serif" font-size="10.00"> #realized_catchment</text>
</g>
<!-- Node11&#45;&gt;Node10 -->
<g id="edge11" class="edge">
<title>Node11&#45;&gt;Node10</title>
<path fill="none" stroke="#404040" d="M416.48,-851.28C436.32,-831.27 456.19,-811.23 472.16,-795.13"/>
<polygon fill="none" stroke="#404040" points="471.99,-795.3 473.37,-788.22 480.44,-786.78 479.05,-793.85 471.99,-795.3"/>
<text text-anchor="middle" x="472" y="-812.5" font-family="Helvetica,sans-Serif" font-size="10.00"> +ptr</text>
</g>
<!-- Node12 -->
<g id="node12" class="node">
<title>Node12</title>
<g id="a_node12"><a xlink:href="class_h_y___hydro_feature.html" target="_top" xlink:title=" ">
<polygon fill="white" stroke="#666666" points="200,-1256 86,-1256 86,-1204 200,-1204 200,-1256"/>
<text text-anchor="middle" x="143" y="-1244" font-family="Helvetica,sans-Serif" font-size="10.00">{HY_HydroFeature</text>
<text text-anchor="start" x="94" y="-1233" font-family="Helvetica,sans-Serif" font-size="10.00">||+ HY_HydroFeature()</text>
<text text-anchor="start" x="94" y="-1222" font-family="Helvetica,sans-Serif" font-size="10.00">+ ~HY_HydroFeature()</text>
<text text-anchor="middle" x="143" y="-1211" font-family="Helvetica,sans-Serif" font-size="10.00">}</text>
</a>
</g>
</g>
<!-- Node12&#45;&gt;Node11 -->
<g id="edge12" class="edge">
<title>Node12&#45;&gt;Node11</title>
<path fill="none" stroke="#63b8ff" d="M165.65,-1193.92C190.4,-1155.6 231.11,-1092.55 265.57,-1039.19"/>
<polygon fill="none" stroke="#63b8ff" points="162.72,-1192 160.24,-1202.3 168.6,-1195.8 162.72,-1192"/>
</g>
<!-- Node13&#45;&gt;Node11 -->
<g id="edge13" class="edge">
<title>Node13&#45;&gt;Node11</title>
<path fill="none" stroke="#404040" d="M346.05,-489.32C321.93,-500.76 296.12,-517.01 279,-539 243.7,-584.34 253.39,-607.02 246,-664 238.66,-720.54 254.08,-781.49 273.45,-831.74"/>
<polygon fill="none" stroke="#404040" points="273.41,-831.62 279.34,-835.72 277.85,-842.77 271.91,-838.68 273.41,-831.62"/>
<text text-anchor="middle" x="272" y="-687.5" font-family="Helvetica,sans-Serif" font-size="10.00"> +realization</text>
</g>
<!-- Node14 -->
<g id="node14" class="node">
<title>Node14</title>
<g id="a_node14"><a xlink:title=" ">
<polygon fill="white" stroke="#666666" points="614,-962 508,-962 508,-921 614,-921 614,-962"/>
<text text-anchor="middle" x="561" y="-950" font-family="Helvetica,sans-Serif" font-size="10.00">{std::shared_ptr&lt; T &gt;</text>
<text text-anchor="start" x="516" y="-939" font-family="Helvetica,sans-Serif" font-size="10.00">||+ operator&#45;&gt;()</text>
<text text-anchor="middle" x="561" y="-928" font-family="Helvetica,sans-Serif" font-size="10.00">}</text>
</a>
</g>
</g>
<!-- Node14&#45;&gt;Node7 -->
<g id="edge33" class="edge">
<title>Node14&#45;&gt;Node7</title>
<path fill="none" stroke="orange" d="M521.42,-914.2C457.51,-868.74 335.26,-768.45 301,-646 275.77,-555.83 288.78,-442.67 296.56,-393.15"/>
<polygon fill="orange" stroke="orange" points="519.35,-917.02 529.54,-919.9 523.37,-911.29 519.35,-917.02"/>
<text text-anchor="middle" x="341" y="-590" font-family="Helvetica,sans-Serif" font-size="10.00"> &lt; HY_FlowPath &gt;</text>
</g>
<!-- Node14&#45;&gt;Node10 -->
<g id="edge25" class="edge">
<title>Node14&#45;&gt;Node10</title>
<path fill="none" stroke="orange" d="M542.73,-910.9C530,-888.5 514.08,-856.5 507,-826 504.01,-813.14 503.55,-798.45 503.92,-786.3"/>
<polygon fill="orange" stroke="orange" points="539.66,-912.59 547.73,-919.47 545.71,-909.06 539.66,-912.59"/>
<text text-anchor="middle" x="550" y="-812.5" font-family="Helvetica,sans-Serif" font-size="10.00"> &lt; HY_Catchment &gt;</text>
</g>
<!-- Node14&#45;&gt;Node13 -->
<g id="edge15" class="edge">
<title>Node14&#45;&gt;Node13</title>
<path fill="none" stroke="orange" d="M528.57,-913.23C485.4,-874.57 411.11,-799.2 382,-716 374.37,-694.19 380.09,-687.03 382,-664 382.67,-655.92 383.79,-654.02 385,-646 393.23,-591.27 401.52,-526.92 405.87,-492.23"/>
<polygon fill="orange" stroke="orange" points="526.08,-915.7 535.89,-919.69 530.71,-910.45 526.08,-915.7"/>
<text text-anchor="middle" x="448.5" y="-687.5" font-family="Helvetica,sans-Serif" font-size="10.00"> &lt; HY_CatchmentRealization &gt;</text>
</g>
<!-- Node19 -->
<g id="node19" class="node">
<title>Node19</title>
<g id="a_node19"><a xlink:title=" ">
<polygon fill="white" stroke="#666666" points="734,-786 578,-786 578,-734 734,-734 734,-786"/>
<text text-anchor="start" x="586" y="-774" font-family="Helvetica,sans-Serif" font-size="10.00">{std::shared_ptr&lt; data</text>
<text text-anchor="middle" x="656" y="-763" font-family="Helvetica,sans-Serif" font-size="10.00">_access::GenericDataProvider &gt;</text>
<text text-anchor="start" x="586" y="-752" font-family="Helvetica,sans-Serif" font-size="10.00">||+ operator&#45;&gt;()</text>
<text text-anchor="middle" x="656" y="-741" font-family="Helvetica,sans-Serif" font-size="10.00">}</text>
</a>
</g>
</g>
<!-- Node14&#45;&gt;Node19 -->
<g id="edge30" class="edge">
<title>Node14&#45;&gt;Node19</title>
<path fill="none" stroke="orange" d="M569.76,-909.93C578.78,-881.21 594.56,-837.73 616,-804 619.94,-797.8 624.82,-791.69 629.81,-786.11"/>
<polygon fill="orange" stroke="orange" points="566.42,-908.86 566.85,-919.45 573.12,-910.9 566.42,-908.86"/>
<text text-anchor="start" x="616" y="-818" font-family="Helvetica,sans-Serif" font-size="10.00"> &lt; data_access::GenericData</text>
<text text-anchor="middle" x="678.5" y="-807" font-family="Helvetica,sans-Serif" font-size="10.00">Provider &gt;</text>
</g>
<!-- Node23 -->
<g id="node23" class="node">
<title>Node23</title>
<g id="a_node23"><a xlink:title=" ">
<polygon fill="white" stroke="#666666" points="845.5,-716 698.5,-716 698.5,-664 845.5,-664 845.5,-716"/>
<text text-anchor="middle" x="772" y="-704" font-family="Helvetica,sans-Serif" font-size="10.00">{std::shared_ptr&lt; linestring_t &gt;</text>
<text text-anchor="start" x="706.5" y="-693" font-family="Helvetica,sans-Serif" font-size="10.00">|+ ptr</text>
<text text-anchor="start" x="706.5" y="-682" font-family="Helvetica,sans-Serif" font-size="10.00">|+ operator&#45;&gt;()</text>
<text text-anchor="middle" x="772" y="-671" font-family="Helvetica,sans-Serif" font-size="10.00">}</text>
</a>
</g>
</g>
<!-- Node14&#45;&gt;Node23 -->
<g id="edge32" class="edge">
<title>Node14&#45;&gt;Node23</title>
<path fill="none" stroke="orange" d="M623.14,-915.86C662.73,-897.02 711.87,-867.24 741,-826 764.24,-793.1 770.34,-745.46 771.78,-716.45"/>
<polygon fill="orange" stroke="orange" points="621.76,-912.64 614.15,-920.02 624.7,-919 621.76,-912.64"/>
<text text-anchor="middle" x="785.5" y="-812.5" font-family="Helvetica,sans-Serif" font-size="10.00"> &lt; linestring_t &gt;</text>
</g>
<!-- Node15 -->
<g id="node15" class="node">
<title>Node15</title>
<g id="a_node15"><a xlink:title=" ">
<polygon fill="white" stroke="#666666" points="619.5,-1613.5 590.5,-1613.5 590.5,-1583.5 619.5,-1583.5 619.5,-1613.5"/>
<text text-anchor="middle" x="605" y="-1601.5" font-family="Helvetica,sans-Serif" font-size="10.00">{T</text>
<text text-anchor="middle" x="605" y="-1590.5" font-family="Helvetica,sans-Serif" font-size="10.00">||}</text>
</a>
</g>
</g>
<!-- Node15&#45;&gt;Node14 -->
<g id="edge16" class="edge">
<title>Node15&#45;&gt;Node14</title>
<path fill="none" stroke="#404040" d="M613.78,-1583.1C617.4,-1576.34 621.17,-1568.03 623,-1560 624.08,-1555.23 623.03,-1553.89 623,-1549 621.89,-1371.21 642.97,-1325.03 618,-1149 609.04,-1085.84 586.5,-1014.61 572.6,-974.48"/>
<polygon fill="none" stroke="#404040" points="572.61,-974.53 566.85,-970.2 568.63,-963.21 574.39,-967.54 572.61,-974.53"/>
<text text-anchor="middle" x="639" y="-1337.5" font-family="Helvetica,sans-Serif" font-size="10.00"> +ptr</text>
</g>
<!-- Node17 -->
<g id="node17" class="node">
<title>Node17</title>
<g id="a_node17"><a xlink:title=" ">
<polygon fill="white" stroke="#666666" points="588.5,-1465 501.5,-1465 501.5,-1435 588.5,-1435 588.5,-1465"/>
<text text-anchor="middle" x="545" y="-1453" font-family="Helvetica,sans-Serif" font-size="10.00">{std::vector&lt; T &gt;</text>
<text text-anchor="middle" x="545" y="-1442" font-family="Helvetica,sans-Serif" font-size="10.00">||}</text>
</a>
</g>
</g>
<!-- Node15&#45;&gt;Node17 -->
<g id="edge21" class="edge">
<title>Node15&#45;&gt;Node17</title>
<path fill="none" stroke="#404040" d="M590.72,-1583.24C584.81,-1576.64 578.33,-1568.41 574,-1560 560.57,-1533.9 552.92,-1501 548.89,-1478.21"/>
<polygon fill="none" stroke="#404040" points="548.89,-1478.21 543.99,-1472.92 546.98,-1466.36 551.88,-1471.64 548.89,-1478.21"/>
<text text-anchor="middle" x="598.5" y="-1552" font-family="Helvetica,sans-Serif" font-size="10.00"> +elements</text>
</g>
<!-- Node16&#45;&gt;Node11 -->
<g id="edge18" class="edge">
<title>Node16&#45;&gt;Node11</title>
<path fill="none" stroke="#404040" d="M275.73,-1214.79C281.43,-1185.11 295.05,-1114.12 306.97,-1052.07"/>
<polygon fill="none" stroke="#404040" points="306.97,-1052.06 304.17,-1045.41 309.23,-1040.28 312.03,-1046.92 306.97,-1052.06"/>
<text text-anchor="middle" x="326" y="-1097" font-family="Helvetica,sans-Serif" font-size="10.00"> &#45;inflows</text>
<text text-anchor="middle" x="326" y="-1086" font-family="Helvetica,sans-Serif" font-size="10.00">&#45;outflows</text>
</g>
<!-- Node17&#45;&gt;Node16 -->
<g id="edge20" class="edge">
<title>Node17&#45;&gt;Node16</title>
<path fill="none" stroke="orange" d="M533.24,-1424.55C518.42,-1396.58 490.19,-1351.73 452,-1329 409.43,-1303.66 385.22,-1335.21 342,-1311 314,-1295.31 292.04,-1263.69 280.94,-1245.25"/>
<polygon fill="orange" stroke="orange" points="530.07,-1426.04 537.74,-1433.35 536.31,-1422.85 530.07,-1426.04"/>
<text text-anchor="middle" x="501.5" y="-1337.5" font-family="Helvetica,sans-Serif" font-size="10.00"> &lt; Nexus &gt;</text>
</g>
<!-- Node17&#45;&gt;Node18 -->
<g id="edge24" class="edge">
<title>Node17&#45;&gt;Node18</title>
<path fill="none" stroke="orange" d="M545,-1423.33C545,-1377.17 545,-1281.6 545,-1245.36"/>
<polygon fill="orange" stroke="orange" points="541.5,-1423.18 545,-1433.18 548.5,-1423.18 541.5,-1423.18"/>
<text text-anchor="middle" x="578.5" y="-1337.5" font-family="Helvetica,sans-Serif" font-size="10.00"> &lt; Catchment &gt;</text>
</g>
<!-- Node18&#45;&gt;Node11 -->
<g id="edge22" class="edge">
<title>Node18&#45;&gt;Node11</title>
<path fill="none" stroke="#404040" d="M534.24,-1214.79C511.48,-1184.74 456.64,-1112.34 409.23,-1049.74"/>
<polygon fill="none" stroke="#404040" points="409.18,-1049.68 402.37,-1047.31 401.93,-1040.11 408.74,-1042.48 409.18,-1049.68"/>
<text text-anchor="middle" x="520" y="-1091.5" font-family="Helvetica,sans-Serif" font-size="10.00"> &#45;contained_catchments</text>
</g>
<!-- Node19&#45;&gt;Node9 -->
<g id="edge26" class="edge">
<title>Node19&#45;&gt;Node9</title>
<path fill="none" stroke="#404040" d="M650.62,-733.64C645.36,-713.29 635.79,-684.78 620,-664 616.53,-659.43 612.68,-655.02 608.58,-650.8"/>
<polygon fill="none" stroke="#404040" points="608.56,-650.78 601.46,-649.51 599.9,-642.47 607,-643.73 608.56,-650.78"/>
<text text-anchor="middle" x="663.5" y="-687.5" font-family="Helvetica,sans-Serif" font-size="10.00"> #forcing</text>
</g>
<!-- Node20 -->
<g id="node20" class="node">
<title>Node20</title>
<g id="a_node20"><a xlink:href="classdata__access_1_1_generic_data_provider.html" target="_top" xlink:title=" ">
<polygon fill="white" stroke="#666666" points="920,-962 786,-962 786,-921 920,-921 920,-962"/>
<text text-anchor="start" x="794" y="-950" font-family="Helvetica,sans-Serif" font-size="10.00">{data_access::GenericData</text>
<text text-anchor="middle" x="853" y="-939" font-family="Helvetica,sans-Serif" font-size="10.00">Provider</text>
<text text-anchor="middle" x="853" y="-928" font-family="Helvetica,sans-Serif" font-size="10.00">||}</text>
</a>
</g>
</g>
<!-- Node20&#45;&gt;Node19 -->
<g id="edge27" class="edge">
<title>Node20&#45;&gt;Node19</title>
<path fill="none" stroke="#404040" d="M855.97,-920.93C859.24,-891.56 860.61,-836.12 831,-804 818.95,-790.93 783.14,-781 747.02,-773.98"/>
<polygon fill="none" stroke="#404040" points="746.95,-773.97 740.33,-776.81 735.15,-771.79 741.78,-768.95 746.95,-773.97"/>
<text text-anchor="middle" x="855" y="-812.5" font-family="Helvetica,sans-Serif" font-size="10.00"> +ptr</text>
</g>
<!-- Node21 -->
<g id="node21" class="node">
<title>Node21</title>
<g id="a_node21"><a xlink:href="classdata__access_1_1_data_provider.html" target="_top" xlink:title=" ">
<polygon fill="white" stroke="#666666" points="948.5,-1311 757.5,-1311 757.5,-1149 948.5,-1149 948.5,-1311"/>
<text text-anchor="start" x="765.5" y="-1299" font-family="Helvetica,sans-Serif" font-size="10.00">{data_access::DataProvider</text>
<text text-anchor="middle" x="853" y="-1288" font-family="Helvetica,sans-Serif" font-size="10.00">&lt; double, CatchmentAggrDataSelector &gt;</text>
<text text-anchor="start" x="765.5" y="-1277" font-family="Helvetica,sans-Serif" font-size="10.00">||+ ~DataProvider()</text>
<text text-anchor="start" x="765.5" y="-1266" font-family="Helvetica,sans-Serif" font-size="10.00">+ get_available_variable</text>
<text text-anchor="start" x="765.5" y="-1255" font-family="Helvetica,sans-Serif" font-size="10.00">_names()</text>
<text text-anchor="start" x="765.5" y="-1244" font-family="Helvetica,sans-Serif" font-size="10.00">+ get_data_start_time()</text>
<text text-anchor="start" x="765.5" y="-1233" font-family="Helvetica,sans-Serif" font-size="10.00">+ get_data_stop_time()</text>
<text text-anchor="start" x="765.5" y="-1222" font-family="Helvetica,sans-Serif" font-size="10.00">+ record_duration()</text>
<text text-anchor="start" x="765.5" y="-1211" font-family="Helvetica,sans-Serif" font-size="10.00">+ get_ts_index_for_time()</text>
<text text-anchor="start" x="765.5" y="-1200" font-family="Helvetica,sans-Serif" font-size="10.00">+ get_value()</text>
<text text-anchor="start" x="765.5" y="-1189" font-family="Helvetica,sans-Serif" font-size="10.00">+ get_values()</text>
<text text-anchor="start" x="765.5" y="-1178" font-family="Helvetica,sans-Serif" font-size="10.00">+ is_property_sum_over</text>
<text text-anchor="start" x="765.5" y="-1167" font-family="Helvetica,sans-Serif" font-size="10.00">_time_step()</text>
<text text-anchor="middle" x="853" y="-1156" font-family="Helvetica,sans-Serif" font-size="10.00">}</text>
</a>
</g>
</g>
<!-- Node21&#45;&gt;Node20 -->
<g id="edge28" class="edge">
<title>Node21&#45;&gt;Node20</title>
<path fill="none" stroke="#63b8ff" d="M853,-1137.38C853,-1075.14 853,-997.88 853,-962.22"/>
<polygon fill="none" stroke="#63b8ff" points="849.5,-1137.3 853,-1147.3 856.5,-1137.3 849.5,-1137.3"/>
</g>
<!-- Node22 -->
<g id="node22" class="node">
<title>Node22</title>
<g id="a_node22"><a xlink:href="classdata__access_1_1_data_provider.html" target="_top" xlink:title=" ">
<polygon fill="white" stroke="#666666" points="924.5,-1531 781.5,-1531 781.5,-1369 924.5,-1369 924.5,-1531"/>
<text text-anchor="start" x="789.5" y="-1519" font-family="Helvetica,sans-Serif" font-size="10.00">{data_access::DataProvider</text>
<text text-anchor="middle" x="853" y="-1508" font-family="Helvetica,sans-Serif" font-size="10.00">&lt; data_type, selection_type &gt;</text>
<text text-anchor="start" x="789.5" y="-1497" font-family="Helvetica,sans-Serif" font-size="10.00">||+ ~DataProvider()</text>
<text text-anchor="start" x="789.5" y="-1486" font-family="Helvetica,sans-Serif" font-size="10.00">+ get_available_variable</text>
<text text-anchor="start" x="789.5" y="-1475" font-family="Helvetica,sans-Serif" font-size="10.00">_names()</text>
<text text-anchor="start" x="789.5" y="-1464" font-family="Helvetica,sans-Serif" font-size="10.00">+ get_data_start_time()</text>
<text text-anchor="start" x="789.5" y="-1453" font-family="Helvetica,sans-Serif" font-size="10.00">+ get_data_stop_time()</text>
<text text-anchor="start" x="789.5" y="-1442" font-family="Helvetica,sans-Serif" font-size="10.00">+ record_duration()</text>
<text text-anchor="start" x="789.5" y="-1431" font-family="Helvetica,sans-Serif" font-size="10.00">+ get_ts_index_for_time()</text>
<text text-anchor="start" x="789.5" y="-1420" font-family="Helvetica,sans-Serif" font-size="10.00">+ get_value()</text>
<text text-anchor="start" x="789.5" y="-1409" font-family="Helvetica,sans-Serif" font-size="10.00">+ get_values()</text>
<text text-anchor="start" x="789.5" y="-1398" font-family="Helvetica,sans-Serif" font-size="10.00">+ is_property_sum_over</text>
<text text-anchor="start" x="789.5" y="-1387" font-family="Helvetica,sans-Serif" font-size="10.00">_time_step()</text>
<text text-anchor="middle" x="853" y="-1376" font-family="Helvetica,sans-Serif" font-size="10.00">}</text>
</a>
</g>
</g>
<!-- Node22&#45;&gt;Node21 -->
<g id="edge29" class="edge">
<title>Node22&#45;&gt;Node21</title>
<path fill="none" stroke="orange" d="M853,-1357.68C853,-1342.33 853,-1326.49 853,-1311.44"/>
<polygon fill="orange" stroke="orange" points="849.5,-1357.24 853,-1367.24 856.5,-1357.24 849.5,-1357.24"/>
<text text-anchor="start" x="853" y="-1343" font-family="Helvetica,sans-Serif" font-size="10.00"> &lt; double, CatchmentAggrData</text>
<text text-anchor="middle" x="919.5" y="-1332" font-family="Helvetica,sans-Serif" font-size="10.00">Selector &gt;</text>
</g>
<!-- Node23&#45;&gt;Node8 -->
<g id="edge31" class="edge">
<title>Node23&#45;&gt;Node8</title>
<path fill="none" stroke="#404040" d="M698.21,-667.33C672.26,-659.12 648.4,-650.63 644,-646 634.18,-635.66 614.1,-554.31 602.59,-504.9"/>
<polygon fill="none" stroke="#404040" points="602.63,-505.07 597.38,-500.12 599.93,-493.38 605.18,-498.32 602.63,-505.07"/>
<text text-anchor="middle" x="667.5" y="-590" font-family="Helvetica,sans-Serif" font-size="10.00"> &#45;flow_path</text>
</g>
</g>
</svg>
