<?xml version="1.0" encoding="UTF-8" standalone="no"?>
<!DOCTYPE svg PUBLIC "-//W3C//DTD SVG 1.1//EN"
 "http://www.w3.org/Graphics/SVG/1.1/DTD/svg11.dtd">
<!-- Generated by graphviz version 2.49.3 (20211027.1534)
 -->
<!-- Title: geojson::FeatureBase Pages: 1 -->
<!--zoomable 700 -->
<svg id="main" version="1.1" xmlns="http://www.w3.org/2000/svg" xmlns:xlink="http://www.w3.org/1999/xlink" xml:space="preserve" onload="init(evt)">
<style type="text/css"><![CDATA[
.edge:hover path { stroke: red; }
.edge:hover polygon { stroke: red; fill: red; }
]]></style>
<script type="text/javascript"><![CDATA[
var edges = document.getElementsByTagName('g');
if (edges && edges.length) {
  for (var i=0;i<edges.length;i++) {
    if (edges[i].id.substr(0,4)=='edge') {
      edges[i].setAttribute('class','edge');
    }
  }
}
]]></script>
        <defs>
                <circle id="rim" cx="0" cy="0" r="7"/>
                <circle id="rim2" cx="0" cy="0" r="3.5"/>
                <g id="zoomPlus">
                        <use xlink:href="#rim" fill="#404040">
                                <set attributeName="fill" to="#808080" begin="zoomplus.mouseover" end="zoomplus.mouseout"/>
                        </use>
                        <path d="M-4,0h8M0,-4v8" fill="none" stroke="white" stroke-width="1.5" pointer-events="none"/>
                </g>
                <g id="zoomMin">
                        <use xlink:href="#rim" fill="#404040">
                                <set attributeName="fill" to="#808080" begin="zoomminus.mouseover" end="zoomminus.mouseout"/>
                        </use>
                        <path d="M-4,0h8" fill="none" stroke="white" stroke-width="1.5" pointer-events="none"/>
                </g>
                <g id="dirArrow">
                        <path fill="none" stroke="white" stroke-width="1.5" d="M0,-3.0v7 M-2.5,-0.5L0,-3.0L2.5,-0.5"/>
                </g>
               <g id="resetDef">
                       <use xlink:href="#rim2" fill="#404040">
                               <set attributeName="fill" to="#808080" begin="reset.mouseover" end="reset.mouseout"/>
                       </use>
               </g>
        </defs>

<script type="text/javascript">
var viewWidth = 342;
var viewHeight = 700;
var sectionId = 'dynsection-1';
</script>
<script xlink:href="svgpan.js"/>
<svg id="graph" class="graph">
<g id="viewport">
<title>geojson::FeatureBase</title>
<polygon fill="white" stroke="transparent" points="-4,4 -4,-696 338,-696 338,4 -4,4"/>
<!-- Node1 -->
<g id="node1" class="node">
<title>Node1</title>
<g id="a_node1"><a xlink:title="Represents an individual feature within a Geojson definition.">
<polygon fill="#bfbfbf" stroke="black" points="200,-0.5 200,-343.5 334,-343.5 334,-0.5 200,-0.5"/>
<text text-anchor="middle" x="267" y="-331.5" font-family="Helvetica,sans-Serif" font-size="10.00">geojson::FeatureBase</text>
<polyline fill="none" stroke="black" points="200,-324.5 334,-324.5 "/>
<text text-anchor="start" x="208" y="-312.5" font-family="Helvetica,sans-Serif" font-size="10.00"># type</text>
<text text-anchor="start" x="208" y="-301.5" font-family="Helvetica,sans-Serif" font-size="10.00"># geom</text>
<text text-anchor="start" x="208" y="-290.5" font-family="Helvetica,sans-Serif" font-size="10.00"># geometry_collection</text>
<text text-anchor="start" x="208" y="-279.5" font-family="Helvetica,sans-Serif" font-size="10.00"># bounding_box</text>
<text text-anchor="start" x="208" y="-268.5" font-family="Helvetica,sans-Serif" font-size="10.00"># origination</text>
<text text-anchor="start" x="208" y="-257.5" font-family="Helvetica,sans-Serif" font-size="10.00"># destination</text>
<text text-anchor="start" x="208" y="-246.5" font-family="Helvetica,sans-Serif" font-size="10.00"># neighbors</text>
<polyline fill="none" stroke="black" points="200,-239.5 334,-239.5 "/>
<text text-anchor="start" x="208" y="-227.5" font-family="Helvetica,sans-Serif" font-size="10.00">+ FeatureBase()</text>
<text text-anchor="start" x="208" y="-216.5" font-family="Helvetica,sans-Serif" font-size="10.00">+ ~FeatureBase()</text>
<text text-anchor="start" x="208" y="-205.5" font-family="Helvetica,sans-Serif" font-size="10.00">+ get_type()</text>
<text text-anchor="start" x="208" y="-194.5" font-family="Helvetica,sans-Serif" font-size="10.00">+ add_origination_feature()</text>
<text text-anchor="start" x="208" y="-183.5" font-family="Helvetica,sans-Serif" font-size="10.00">+ add_destination_feature()</text>
<text text-anchor="start" x="208" y="-172.5" font-family="Helvetica,sans-Serif" font-size="10.00">+ assign_neighbors()</text>
<text text-anchor="start" x="208" y="-161.5" font-family="Helvetica,sans-Serif" font-size="10.00">+ add_neighbor_feature()</text>
<text text-anchor="start" x="208" y="-150.5" font-family="Helvetica,sans-Serif" font-size="10.00">+ get_property()</text>
<text text-anchor="start" x="208" y="-139.5" font-family="Helvetica,sans-Serif" font-size="10.00">+ set_id()</text>
<text text-anchor="start" x="208" y="-128.5" font-family="Helvetica,sans-Serif" font-size="10.00">+ get()</text>
<text text-anchor="start" x="208" y="-117.5" font-family="Helvetica,sans-Serif" font-size="10.00">+ set()</text>
<text text-anchor="start" x="208" y="-106.5" font-family="Helvetica,sans-Serif" font-size="10.00">+ set()</text>
<text text-anchor="start" x="208" y="-95.5" font-family="Helvetica,sans-Serif" font-size="10.00">+ set()</text>
<text text-anchor="start" x="208" y="-84.5" font-family="Helvetica,sans-Serif" font-size="10.00">+ set()</text>
<text text-anchor="start" x="208" y="-73.5" font-family="Helvetica,sans-Serif" font-size="10.00">+ set()</text>
<text text-anchor="start" x="208" y="-62.5" font-family="Helvetica,sans-Serif" font-size="10.00">and 29 more...</text>
<text text-anchor="start" x="208" y="-51.5" font-family="Helvetica,sans-Serif" font-size="10.00"># FeatureBase()</text>
<text text-anchor="start" x="208" y="-40.5" font-family="Helvetica,sans-Serif" font-size="10.00"># break_links()</text>
<text text-anchor="start" x="208" y="-29.5" font-family="Helvetica,sans-Serif" font-size="10.00"># remove_destination()</text>
<text text-anchor="start" x="208" y="-18.5" font-family="Helvetica,sans-Serif" font-size="10.00"># remove_origination()</text>
<text text-anchor="start" x="208" y="-7.5" font-family="Helvetica,sans-Serif" font-size="10.00"># remove_neighbor()</text>
</a>
</g>
</g>
<!-- Node2 -->
<g id="node2" class="node">
<title>Node2</title>
<g id="a_node2"><a xlink:title=" ">
<polygon fill="white" stroke="#bfbfbf" points="32.5,-402.5 32.5,-470.5 139.5,-470.5 139.5,-402.5 32.5,-402.5"/>
<text text-anchor="start" x="40.5" y="-458.5" font-family="Helvetica,sans-Serif" font-size="10.00">std::map&lt; std::string,</text>
<text text-anchor="middle" x="86" y="-447.5" font-family="Helvetica,sans-Serif" font-size="10.00"> JSONProperty &gt;</text>
<polyline fill="none" stroke="#bfbfbf" points="32.5,-440.5 139.5,-440.5 "/>
<text text-anchor="middle" x="86" y="-428.5" font-family="Helvetica,sans-Serif" font-size="10.00"> </text>
<polyline fill="none" stroke="#bfbfbf" points="32.5,-421.5 139.5,-421.5 "/>
<text text-anchor="middle" x="86" y="-409.5" font-family="Helvetica,sans-Serif" font-size="10.00"> </text>
</a>
</g>
</g>
<!-- Node2&#45;&gt;Node1 -->
<g id="edge1" class="edge">
<title>Node2&#45;&gt;Node1</title>
<path fill="none" stroke="#404040" d="M111.32,-402.36C124.31,-385.12 140.25,-363.61 154,-344 166.87,-325.64 180.26,-305.96 193.12,-286.72"/>
<polygon fill="none" stroke="#404040" points="193.14,-286.69 193.13,-279.48 199.79,-276.7 199.79,-283.92 193.14,-286.69"/>
<text text-anchor="middle" x="180.5" y="-376" font-family="Helvetica,sans-Serif" font-size="10.00"> #foreign_members</text>
<text text-anchor="middle" x="180.5" y="-365" font-family="Helvetica,sans-Serif" font-size="10.00">#properties</text>
</g>
<!-- Node5 -->
<g id="node5" class="node">
<title>Node5</title>
<g id="a_node5"><a xlink:href="classgeojson_1_1_j_s_o_n_property.html" target="_top" xlink:title="@TODO: Convert JSONProperty into a variant of the supported types">
<polygon fill="white" stroke="black" points="27,-33.5 27,-310.5 145,-310.5 145,-33.5 27,-33.5"/>
<text text-anchor="middle" x="86" y="-298.5" font-family="Helvetica,sans-Serif" font-size="10.00">geojson::JSONProperty</text>
<polyline fill="none" stroke="black" points="27,-291.5 145,-291.5 "/>
<text text-anchor="start" x="35" y="-279.5" font-family="Helvetica,sans-Serif" font-size="10.00">&#45; type</text>
<text text-anchor="start" x="35" y="-268.5" font-family="Helvetica,sans-Serif" font-size="10.00">&#45; natural_number</text>
<text text-anchor="start" x="35" y="-257.5" font-family="Helvetica,sans-Serif" font-size="10.00">&#45; real_number</text>
<text text-anchor="start" x="35" y="-246.5" font-family="Helvetica,sans-Serif" font-size="10.00">&#45; boolean</text>
<text text-anchor="start" x="35" y="-235.5" font-family="Helvetica,sans-Serif" font-size="10.00">&#45; value_list</text>
<text text-anchor="start" x="35" y="-224.5" font-family="Helvetica,sans-Serif" font-size="10.00">&#45; data</text>
<polyline fill="none" stroke="black" points="27,-217.5 145,-217.5 "/>
<text text-anchor="start" x="35" y="-205.5" font-family="Helvetica,sans-Serif" font-size="10.00">+ JSONProperty()</text>
<text text-anchor="start" x="35" y="-194.5" font-family="Helvetica,sans-Serif" font-size="10.00">+ JSONProperty()</text>
<text text-anchor="start" x="35" y="-183.5" font-family="Helvetica,sans-Serif" font-size="10.00">+ JSONProperty()</text>
<text text-anchor="start" x="35" y="-172.5" font-family="Helvetica,sans-Serif" font-size="10.00">+ JSONProperty()</text>
<text text-anchor="start" x="35" y="-161.5" font-family="Helvetica,sans-Serif" font-size="10.00">+ JSONProperty()</text>
<text text-anchor="start" x="35" y="-150.5" font-family="Helvetica,sans-Serif" font-size="10.00">+ JSONProperty()</text>
<text text-anchor="start" x="35" y="-139.5" font-family="Helvetica,sans-Serif" font-size="10.00">+ JSONProperty()</text>
<text text-anchor="start" x="35" y="-128.5" font-family="Helvetica,sans-Serif" font-size="10.00">+ JSONProperty()</text>
<text text-anchor="start" x="35" y="-117.5" font-family="Helvetica,sans-Serif" font-size="10.00">+ JSONProperty()</text>
<text text-anchor="start" x="35" y="-106.5" font-family="Helvetica,sans-Serif" font-size="10.00">+ JSONProperty()</text>
<text text-anchor="start" x="35" y="-95.5" font-family="Helvetica,sans-Serif" font-size="10.00">+ ~JSONProperty()</text>
<text text-anchor="start" x="35" y="-84.5" font-family="Helvetica,sans-Serif" font-size="10.00">+ JSONProperty()</text>
<text text-anchor="start" x="35" y="-73.5" font-family="Helvetica,sans-Serif" font-size="10.00">+ JSONProperty()</text>
<text text-anchor="start" x="35" y="-62.5" font-family="Helvetica,sans-Serif" font-size="10.00">+ get_type()</text>
<text text-anchor="start" x="35" y="-51.5" font-family="Helvetica,sans-Serif" font-size="10.00">+ as_natural_number()</text>
<text text-anchor="start" x="35" y="-40.5" font-family="Helvetica,sans-Serif" font-size="10.00">and 16 more...</text>
</a>
</g>
</g>
<!-- Node2&#45;&gt;Node5 -->
<g id="edge6" class="edge">
<title>Node2&#45;&gt;Node5</title>
<path fill="none" stroke="#404040" d="M86,-402.25C86,-381.4 86,-352.87 86,-323.02"/>
<polygon fill="none" stroke="#404040" points="86,-322.63 82,-316.63 86,-310.63 90,-316.63 86,-322.63"/>
<text text-anchor="middle" x="103" y="-370.5" font-family="Helvetica,sans-Serif" font-size="10.00"> &#45;values</text>
</g>
<!-- Node3 -->
<g id="node3" class="node">
<title>Node3</title>
<g id="a_node3"><a xlink:title=" ">
<polygon fill="white" stroke="#bfbfbf" points="211.5,-518.5 211.5,-575.5 270.5,-575.5 270.5,-518.5 211.5,-518.5"/>
<text text-anchor="middle" x="241" y="-563.5" font-family="Helvetica,sans-Serif" font-size="10.00">std::string</text>
<polyline fill="none" stroke="#bfbfbf" points="211.5,-556.5 270.5,-556.5 "/>
<text text-anchor="middle" x="241" y="-544.5" font-family="Helvetica,sans-Serif" font-size="10.00"> </text>
<polyline fill="none" stroke="#bfbfbf" points="211.5,-537.5 270.5,-537.5 "/>
<text text-anchor="middle" x="241" y="-525.5" font-family="Helvetica,sans-Serif" font-size="10.00"> </text>
</a>
</g>
</g>
<!-- Node3&#45;&gt;Node1 -->
<g id="edge10" class="edge">
<title>Node3&#45;&gt;Node1</title>
<path fill="none" stroke="#404040" d="M255.95,-518.38C262.59,-504.58 269.65,-487.37 273,-471 280.53,-434.17 283.3,-394.25 283.41,-355.96"/>
<polygon fill="none" stroke="#404040" points="283.41,-355.59 279.38,-349.61 283.36,-343.59 287.38,-349.57 283.41,-355.59"/>
<text text-anchor="middle" x="289" y="-434" font-family="Helvetica,sans-Serif" font-size="10.00"> #id</text>
</g>
<!-- Node3&#45;&gt;Node2 -->
<g id="edge2" class="edge">
<title>Node3&#45;&gt;Node2</title>
<path fill="none" stroke="#404040" d="M211.42,-518.37C200.36,-508.61 187.46,-497.87 175,-489 167.14,-483.41 158.64,-477.88 150.1,-472.64"/>
<polygon fill="none" stroke="#404040" points="150.02,-472.59 142.81,-472.93 139.73,-466.41 146.93,-466.07 150.02,-472.59"/>
<text text-anchor="middle" x="202.5" y="-492" font-family="Helvetica,sans-Serif" font-size="10.00"> +keys</text>
</g>
<!-- Node3&#45;&gt;Node5 -->
<g id="edge5" class="edge">
<title>Node3&#45;&gt;Node5</title>
<path fill="none" stroke="#404040" d="M240.21,-518.14C238.62,-469.88 234.45,-374.66 226,-362 216.29,-347.45 203.83,-355.89 191,-344 176.82,-330.86 163.86,-315.38 152.25,-299.2"/>
<polygon fill="none" stroke="#404040" points="152.04,-298.9 145.34,-296.25 145.2,-289.04 151.91,-291.69 152.04,-298.9"/>
<text text-anchor="middle" x="252" y="-439.5" font-family="Helvetica,sans-Serif" font-size="10.00"> &#45;key</text>
<text text-anchor="middle" x="252" y="-428.5" font-family="Helvetica,sans-Serif" font-size="10.00">&#45;string</text>
</g>
<!-- Node4 -->
<g id="node4" class="node">
<title>Node4</title>
<g id="a_node4"><a xlink:title=" ">
<polygon fill="white" stroke="#bfbfbf" points="194.5,-623.5 194.5,-691.5 287.5,-691.5 287.5,-623.5 194.5,-623.5"/>
<text text-anchor="start" x="202.5" y="-679.5" font-family="Helvetica,sans-Serif" font-size="10.00">std::basic_string&lt;</text>
<text text-anchor="middle" x="241" y="-668.5" font-family="Helvetica,sans-Serif" font-size="10.00"> Char &gt;</text>
<polyline fill="none" stroke="#bfbfbf" points="194.5,-661.5 287.5,-661.5 "/>
<text text-anchor="middle" x="241" y="-649.5" font-family="Helvetica,sans-Serif" font-size="10.00"> </text>
<polyline fill="none" stroke="#bfbfbf" points="194.5,-642.5 287.5,-642.5 "/>
<text text-anchor="middle" x="241" y="-630.5" font-family="Helvetica,sans-Serif" font-size="10.00"> </text>
</a>
</g>
</g>
<!-- Node4&#45;&gt;Node3 -->
<g id="edge3" class="edge">
<title>Node4&#45;&gt;Node3</title>
<path fill="none" stroke="midnightblue" d="M241,-613.06C241,-600.51 241,-587.15 241,-575.83"/>
<polygon fill="none" stroke="midnightblue" points="237.5,-613.36 241,-623.36 244.5,-613.36 237.5,-613.36"/>
</g>
<!-- Node5&#45;&gt;Node2 -->
<g id="edge4" class="edge">
<title>Node5&#45;&gt;Node2</title>
<path fill="none" stroke="#404040" d="M27.83,-310.73C22.56,-327.75 18.07,-345.1 15,-362 13.25,-371.62 10.56,-375.29 15,-384 17.33,-388.58 20.29,-392.84 23.66,-396.8"/>
<polygon fill="none" stroke="#404040" points="23.76,-396.91 30.82,-398.39 32.17,-405.47 25.11,-404 23.76,-396.91"/>
<text text-anchor="middle" x="39.5" y="-370.5" font-family="Helvetica,sans-Serif" font-size="10.00"> +elements</text>
</g>
<!-- Node6 -->
<g id="node6" class="node">
<title>Node6</title>
<g id="a_node6"><a xlink:title=" ">
<polygon fill="white" stroke="#bfbfbf" points="0,-518.5 0,-575.5 88,-575.5 88,-518.5 0,-518.5"/>
<text text-anchor="middle" x="44" y="-563.5" font-family="Helvetica,sans-Serif" font-size="10.00">std::map&lt; K, T &gt;</text>
<polyline fill="none" stroke="#bfbfbf" points="0,-556.5 88,-556.5 "/>
<text text-anchor="middle" x="44" y="-544.5" font-family="Helvetica,sans-Serif" font-size="10.00"> </text>
<polyline fill="none" stroke="#bfbfbf" points="0,-537.5 88,-537.5 "/>
<text text-anchor="middle" x="44" y="-525.5" font-family="Helvetica,sans-Serif" font-size="10.00"> </text>
</a>
</g>
</g>
<!-- Node6&#45;&gt;Node2 -->
<g id="edge7" class="edge">
<title>Node6&#45;&gt;Node2</title>
<path fill="none" stroke="orange" d="M41.21,-508.26C41.69,-501.7 42.83,-495.05 45,-489 47.28,-482.65 50.69,-476.5 54.58,-470.78"/>
<polygon fill="orange" stroke="orange" points="37.7,-508.29 40.93,-518.38 44.7,-508.48 37.7,-508.29"/>
<text text-anchor="middle" x="110" y="-492" font-family="Helvetica,sans-Serif" font-size="10.00"> &lt; std::string, JSONProperty &gt;</text>
</g>
<!-- Node7 -->
<g id="node7" class="node">
<title>Node7</title>
<g id="a_node7"><a xlink:title=" ">
<polygon fill="white" stroke="#bfbfbf" points="3.5,-629 3.5,-686 32.5,-686 32.5,-629 3.5,-629"/>
<text text-anchor="middle" x="18" y="-674" font-family="Helvetica,sans-Serif" font-size="10.00">K</text>
<polyline fill="none" stroke="#bfbfbf" points="3.5,-667 32.5,-667 "/>
<text text-anchor="middle" x="18" y="-655" font-family="Helvetica,sans-Serif" font-size="10.00"> </text>
<polyline fill="none" stroke="#bfbfbf" points="3.5,-648 32.5,-648 "/>
<text text-anchor="middle" x="18" y="-636" font-family="Helvetica,sans-Serif" font-size="10.00"> </text>
</a>
</g>
</g>
<!-- Node7&#45;&gt;Node6 -->
<g id="edge8" class="edge">
<title>Node7&#45;&gt;Node6</title>
<path fill="none" stroke="#404040" d="M15.62,-628.73C15.4,-617.75 16.08,-605.13 19,-594 19.61,-591.69 20.35,-589.37 21.2,-587.07"/>
<polygon fill="none" stroke="#404040" points="21.32,-586.8 20.07,-579.7 26.15,-575.82 27.39,-582.92 21.32,-586.8"/>
<text text-anchor="middle" x="33.5" y="-597" font-family="Helvetica,sans-Serif" font-size="10.00"> +keys</text>
</g>
<!-- Node8 -->
<g id="node8" class="node">
<title>Node8</title>
<g id="a_node8"><a xlink:title=" ">
<polygon fill="white" stroke="#bfbfbf" points="55.5,-629 55.5,-686 84.5,-686 84.5,-629 55.5,-629"/>
<text text-anchor="middle" x="70" y="-674" font-family="Helvetica,sans-Serif" font-size="10.00">T</text>
<polyline fill="none" stroke="#bfbfbf" points="55.5,-667 84.5,-667 "/>
<text text-anchor="middle" x="70" y="-655" font-family="Helvetica,sans-Serif" font-size="10.00"> </text>
<polyline fill="none" stroke="#bfbfbf" points="55.5,-648 84.5,-648 "/>
<text text-anchor="middle" x="70" y="-636" font-family="Helvetica,sans-Serif" font-size="10.00"> </text>
</a>
</g>
</g>
<!-- Node8&#45;&gt;Node6 -->
<g id="edge9" class="edge">
<title>Node8&#45;&gt;Node6</title>
<path fill="none" stroke="#404040" d="M63.37,-628.84C60.38,-616.34 56.78,-601.34 53.51,-587.68"/>
<polygon fill="none" stroke="#404040" points="53.41,-587.28 48.12,-582.38 50.62,-575.61 55.9,-580.51 53.41,-587.28"/>
<text text-anchor="middle" x="81.5" y="-597" font-family="Helvetica,sans-Serif" font-size="10.00"> +elements</text>
</g>
</g>
</svg>
        <g id="navigator" transform="translate(0 0)" fill="#404254">
                <rect fill="#f2f5e9" fill-opacity="0.5" stroke="#606060" stroke-width=".5" x="0" y="0" width="60" height="60"/>
                <use id="zoomplus" xlink:href="#zoomPlus" x="17" y="9" onmousedown="handleZoom(evt,'in')"/>
                <use id="zoomminus" xlink:href="#zoomMin" x="42" y="9" onmousedown="handleZoom(evt,'out')"/>
                <use id="reset" xlink:href="#resetDef" x="30" y="36" onmousedown="handleReset()"/>
                <g id="arrowUp" xlink:href="#dirArrow" transform="translate(30 24)" onmousedown="handlePan(0,-1)">
                  <use xlink:href="#rim" fill="#404040">
                        <set attributeName="fill" to="#808080" begin="arrowUp.mouseover" end="arrowUp.mouseout"/>
                  </use>
                  <path fill="none" stroke="white" stroke-width="1.5" d="M0,-3.0v7 M-2.5,-0.5L0,-3.0L2.5,-0.5"/>
                </g>
                <g id="arrowRight" xlink:href="#dirArrow" transform="rotate(90) translate(36 -43)" onmousedown="handlePan(1,0)">
                  <use xlink:href="#rim" fill="#404040">
                        <set attributeName="fill" to="#808080" begin="arrowRight.mouseover" end="arrowRight.mouseout"/>
                  </use>
                  <path fill="none" stroke="white" stroke-width="1.5" d="M0,-3.0v7 M-2.5,-0.5L0,-3.0L2.5,-0.5"/>
                </g>
                <g id="arrowDown" xlink:href="#dirArrow" transform="rotate(180) translate(-30 -48)" onmousedown="handlePan(0,1)">
                  <use xlink:href="#rim" fill="#404040">
                        <set attributeName="fill" to="#808080" begin="arrowDown.mouseover" end="arrowDown.mouseout"/>
                  </use>
                  <path fill="none" stroke="white" stroke-width="1.5" d="M0,-3.0v7 M-2.5,-0.5L0,-3.0L2.5,-0.5"/>
                </g>
                <g id="arrowLeft" xlink:href="#dirArrow" transform="rotate(270) translate(-36 17)" onmousedown="handlePan(-1,0)">
                  <use xlink:href="#rim" fill="#404040">
                        <set attributeName="fill" to="#808080" begin="arrowLeft.mouseover" end="arrowLeft.mouseout"/>
                  </use>
                  <path fill="none" stroke="white" stroke-width="1.5" d="M0,-3.0v7 M-2.5,-0.5L0,-3.0L2.5,-0.5"/>
                </g>
        </g>
        <svg viewBox="0 0 15 15" width="100%" height="30px" preserveAspectRatio="xMaxYMin meet">
         <g id="arrow_out" transform="scale(0.3 0.3)">
          <a xlink:href="classgeojson_1_1_feature_base__coll__graph_org.svg" target="_base">
           <rect id="button" ry="5" rx="5" y="6" x="6" height="38" width="38"
                fill="#f2f5e9" fill-opacity="0.5" stroke="#606060" stroke-width="1.0"/>
           <path id="arrow"
             d="M 11.500037,31.436501 C 11.940474,20.09759 22.043105,11.32322 32.158766,21.979434 L 37.068811,17.246167 C 37.068811,17.246167 37.088388,32 37.088388,32 L 22.160133,31.978069 C 22.160133,31.978069 26.997745,27.140456 26.997745,27.140456 C 18.528582,18.264221 13.291696,25.230495 11.500037,31.436501 z"
             style="fill:#404040;"/>
          </a>
         </g>
        </svg>
</svg>
