<?xml version="1.0" encoding="UTF-8" standalone="no"?>
<!DOCTYPE svg PUBLIC "-//W3C//DTD SVG 1.1//EN"
 "http://www.w3.org/Graphics/SVG/1.1/DTD/svg11.dtd">
<!-- Generated by graphviz version 7.0.5 (20221223.1930)
 -->
<!-- Title: hy_features::hydrolocation::HY_IndirectPosition Pages: 1 -->
<!--zoomable 1286 -->
<svg id="main" version="1.1" xmlns="http://www.w3.org/2000/svg" xmlns:xlink="http://www.w3.org/1999/xlink" xml:space="preserve" onload="init(evt)">
<style type="text/css"><![CDATA[
.edge:hover path { stroke: red; }
.edge:hover polygon { stroke: red; fill: red; }
]]></style>
<script type="text/javascript"><![CDATA[
var edges = document.getElementsByTagName('g');
if (edges && edges.length) {
  for (var i=0;i<edges.length;i++) {
    if (edges[i].id.substr(0,4)=='edge') {
      edges[i].setAttribute('class','edge');
    }
  }
}
]]></script>
        <defs>
                <circle id="rim" cx="0" cy="0" r="7"/>
                <circle id="rim2" cx="0" cy="0" r="3.5"/>
                <g id="zoomPlus">
                        <use xlink:href="#rim" fill="#404040">
                                <set attributeName="fill" to="#808080" begin="zoomplus.mouseover" end="zoomplus.mouseout"/>
                        </use>
                        <path d="M-4,0h8M0,-4v8" fill="none" stroke="white" stroke-width="1.5" pointer-events="none"/>
                </g>
                <g id="zoomMin">
                        <use xlink:href="#rim" fill="#404040">
                                <set attributeName="fill" to="#808080" begin="zoomminus.mouseover" end="zoomminus.mouseout"/>
                        </use>
                        <path d="M-4,0h8" fill="none" stroke="white" stroke-width="1.5" pointer-events="none"/>
                </g>
                <g id="dirArrow">
                        <path fill="none" stroke="white" stroke-width="1.5" d="M0,-3.0v7 M-2.5,-0.5L0,-3.0L2.5,-0.5"/>
                </g>
               <g id="resetDef">
                       <use xlink:href="#rim2" fill="#404040">
                               <set attributeName="fill" to="#808080" begin="reset.mouseover" end="reset.mouseout"/>
                       </use>
               </g>
        </defs>

<script type="text/javascript">
var viewWidth = 1092;
var viewHeight = 1286;
var sectionId = 'dynsection-0';
</script>
<script xlink:href="svgpan.js"/>
<svg id="graph" class="graph">
<g id="viewport">
<title>hy_features::hydrolocation::HY_IndirectPosition</title>
<!-- Node1 -->
<g id="node1" class="node">
<title>Node1</title>
<g id="a_node1"><a xlink:title=" ">
<polygon fill="#999999" stroke="#666666" points="315,-74 184,-74 184,0 315,0 315,-74"/>
<text text-anchor="start" x="192" y="-62" font-family="Helvetica,sans-Serif" font-size="10.00">{hy_features::hydrolocation</text>
<text text-anchor="middle" x="249.5" y="-51" font-family="Helvetica,sans-Serif" font-size="10.00">::HY_IndirectPosition</text>
<text text-anchor="start" x="192" y="-40" font-family="Helvetica,sans-Serif" font-size="10.00">|&#45; distance_description</text>
<text text-anchor="start" x="192" y="-29" font-family="Helvetica,sans-Serif" font-size="10.00">|+ HY_IndirectPosition()</text>
<text text-anchor="start" x="192" y="-18" font-family="Helvetica,sans-Serif" font-size="10.00">+ ~HY_IndirectPosition()</text>
<text text-anchor="middle" x="249.5" y="-7" font-family="Helvetica,sans-Serif" font-size="10.00">}</text>
</a>
</g>
</g>
<!-- Node2 -->
<g id="node2" class="node">
<title>Node2</title>
<g id="a_node2"><a xlink:href="structhy__features_1_1hydrolocation_1_1_h_y___distance_from_referent.html" target="_top" xlink:title=" ">
<polygon fill="white" stroke="#666666" points="308.5,-790 158.5,-790 158.5,-716 308.5,-716 308.5,-790"/>
<text text-anchor="start" x="166.5" y="-778" font-family="Helvetica,sans-Serif" font-size="10.00">{hy_features::hydrolocation</text>
<text text-anchor="middle" x="233.5" y="-767" font-family="Helvetica,sans-Serif" font-size="10.00">::HY_DistanceFromReferent</text>
<text text-anchor="start" x="166.5" y="-756" font-family="Helvetica,sans-Serif" font-size="10.00">|+ absolute</text>
<text text-anchor="start" x="166.5" y="-745" font-family="Helvetica,sans-Serif" font-size="10.00">+ interpolative</text>
<text text-anchor="start" x="166.5" y="-734" font-family="Helvetica,sans-Serif" font-size="10.00">|+ HY_DistanceFromReferent()</text>
<text text-anchor="middle" x="233.5" y="-723" font-family="Helvetica,sans-Serif" font-size="10.00">}</text>
</a>
</g>
</g>
<!-- Node2&#45;&gt;Node1 -->
<g id="edge1" class="edge">
<title>Node2&#45;&gt;Node1</title>
<path fill="none" stroke="#404040" d="M233.5,-715.75C233.5,-684.13 233.5,-637.03 233.5,-596 233.5,-596 233.5,-596 233.5,-146 233.5,-126.63 236.05,-105.51 239.11,-87.13"/>
<polygon fill="none" stroke="#404040" points="239.14,-87 236.26,-80.39 241.25,-75.18 244.13,-81.79 239.14,-87"/>
<text text-anchor="middle" x="286.5" y="-370" font-family="Helvetica,sans-Serif" font-size="10.00"> &#45;distance_from_referent</text>
</g>
<!-- Node3 -->
<g id="node3" class="node">
<title>Node3</title>
<g id="a_node3"><a xlink:title=" ">
<polygon fill="white" stroke="#666666" points="484.5,-1124 422.5,-1124 422.5,-1094 484.5,-1094 484.5,-1124"/>
<text text-anchor="middle" x="453.5" y="-1112" font-family="Helvetica,sans-Serif" font-size="10.00">{std::string</text>
<text text-anchor="middle" x="453.5" y="-1101" font-family="Helvetica,sans-Serif" font-size="10.00">||}</text>
</a>
</g>
</g>
<!-- Node3&#45;&gt;Node2 -->
<g id="edge2" class="edge">
<title>Node3&#45;&gt;Node2</title>
<path fill="none" stroke="#404040" d="M422.15,-1096.7C376.06,-1078.21 291.49,-1036.75 254.5,-970 225.91,-918.41 224.43,-849.14 227.6,-803.11"/>
<polygon fill="none" stroke="#404040" points="227.61,-803.06 224.11,-796.75 228.58,-791.1 232.08,-797.4 227.61,-803.06"/>
<text text-anchor="middle" x="329" y="-1002" font-family="Helvetica,sans-Serif" font-size="10.00"> +accuracyStatement</text>
<text text-anchor="middle" x="329" y="-991" font-family="Helvetica,sans-Serif" font-size="10.00">+precisionStatement</text>
</g>
<!-- Node10 -->
<g id="node10" class="node">
<title>Node10</title>
<g id="a_node10"><a xlink:href="class_h_y___catchment.html" target="_top" xlink:title=" ">
<polygon fill="white" stroke="#666666" points="483.5,-698 361.5,-698 361.5,-624 483.5,-624 483.5,-698"/>
<text text-anchor="middle" x="422.5" y="-686" font-family="Helvetica,sans-Serif" font-size="10.00">{HY_Catchment</text>
<text text-anchor="start" x="369.5" y="-675" font-family="Helvetica,sans-Serif" font-size="10.00">||+ HY_Catchment()</text>
<text text-anchor="start" x="369.5" y="-664" font-family="Helvetica,sans-Serif" font-size="10.00">+ HY_Catchment()</text>
<text text-anchor="start" x="369.5" y="-653" font-family="Helvetica,sans-Serif" font-size="10.00">+ ~HY_Catchment()</text>
<text text-anchor="start" x="369.5" y="-642" font-family="Helvetica,sans-Serif" font-size="10.00">+ get_outflow_nexuses()</text>
<text text-anchor="middle" x="422.5" y="-631" font-family="Helvetica,sans-Serif" font-size="10.00">}</text>
</a>
</g>
</g>
<!-- Node3&#45;&gt;Node10 -->
<g id="edge15" class="edge">
<title>Node3&#45;&gt;Node10</title>
<path fill="none" stroke="#404040" d="M449.18,-1093.67C441.92,-1068.8 427.59,-1015.88 422.5,-970 412.41,-879.09 415.81,-772.15 419.17,-711.19"/>
<polygon fill="none" stroke="#404040" points="419.18,-711.06 415.53,-704.84 419.87,-699.08 423.52,-705.3 419.18,-711.06"/>
<text text-anchor="middle" x="472" y="-908.5" font-family="Helvetica,sans-Serif" font-size="10.00"> &#45;conjoint_catchment</text>
<text text-anchor="middle" x="472" y="-897.5" font-family="Helvetica,sans-Serif" font-size="10.00">&#45;containing_catchment</text>
<text text-anchor="middle" x="472" y="-886.5" font-family="Helvetica,sans-Serif" font-size="10.00">&#45;id</text>
<text text-anchor="middle" x="472" y="-875.5" font-family="Helvetica,sans-Serif" font-size="10.00">&#45;lower_catchment</text>
<text text-anchor="middle" x="472" y="-864.5" font-family="Helvetica,sans-Serif" font-size="10.00">&#45;upper_catchment</text>
</g>
<!-- Node15 -->
<g id="node15" class="node">
<title>Node15</title>
<g id="a_node15"><a xlink:title=" ">
<polygon fill="white" stroke="#666666" points="786,-904 677,-904 677,-874 786,-874 786,-904"/>
<text text-anchor="middle" x="731.5" y="-892" font-family="Helvetica,sans-Serif" font-size="10.00">{std::vector&lt; Nexus &gt;</text>
<text text-anchor="middle" x="731.5" y="-881" font-family="Helvetica,sans-Serif" font-size="10.00">||}</text>
</a>
</g>
</g>
<!-- Node3&#45;&gt;Node15 -->
<g id="edge17" class="edge">
<title>Node3&#45;&gt;Node15</title>
<path fill="none" stroke="#404040" d="M466.06,-1093.76C489.14,-1068.51 540.92,-1015.95 595.5,-988 624.86,-972.96 639.74,-987.81 667.5,-970 688.76,-956.35 706.14,-933.22 717.39,-915.33"/>
<polygon fill="none" stroke="#404040" points="717.41,-915.3 717.05,-908.09 723.56,-904.99 723.92,-912.2 717.41,-915.3"/>
<text text-anchor="middle" x="620" y="-996.5" font-family="Helvetica,sans-Serif" font-size="10.00"> +elements</text>
</g>
<!-- Node17 -->
<g id="node17" class="node">
<title>Node17</title>
<g id="a_node17"><a xlink:title=" ">
<polygon fill="white" stroke="#666666" points="658.5,-904 530.5,-904 530.5,-874 658.5,-874 658.5,-904"/>
<text text-anchor="middle" x="594.5" y="-892" font-family="Helvetica,sans-Serif" font-size="10.00">{std::vector&lt; Catchment &gt;</text>
<text text-anchor="middle" x="594.5" y="-881" font-family="Helvetica,sans-Serif" font-size="10.00">||}</text>
</a>
</g>
</g>
<!-- Node3&#45;&gt;Node17 -->
<g id="edge21" class="edge">
<title>Node3&#45;&gt;Node17</title>
<path fill="none" stroke="#404040" d="M451.77,-1093.69C449.62,-1069.25 448.85,-1019.13 473.5,-988 486.36,-971.76 499.37,-981.65 516.5,-970 539.21,-954.55 560.67,-931.72 575.3,-914.39"/>
<polygon fill="none" stroke="#404040" points="575.29,-914.4 576.01,-907.23 582.91,-905.13 582.19,-912.3 575.29,-914.4"/>
<text text-anchor="middle" x="498" y="-996.5" font-family="Helvetica,sans-Serif" font-size="10.00"> +elements</text>
</g>
<!-- Node4 -->
<g id="node4" class="node">
<title>Node4</title>
<g id="a_node4"><a xlink:title=" ">
<polygon fill="white" stroke="#666666" points="501.5,-1278 405.5,-1278 405.5,-1237 501.5,-1237 501.5,-1278"/>
<text text-anchor="start" x="413.5" y="-1266" font-family="Helvetica,sans-Serif" font-size="10.00">{std::basic_string&lt;</text>
<text text-anchor="middle" x="453.5" y="-1255" font-family="Helvetica,sans-Serif" font-size="10.00"> Char &gt;</text>
<text text-anchor="middle" x="453.5" y="-1244" font-family="Helvetica,sans-Serif" font-size="10.00">||}</text>
</a>
</g>
</g>
<!-- Node4&#45;&gt;Node3 -->
<g id="edge3" class="edge">
<title>Node4&#45;&gt;Node3</title>
<path fill="none" stroke="#63b8ff" d="M453.5,-1225.62C453.5,-1194.38 453.5,-1147.48 453.5,-1124.18"/>
<polygon fill="none" stroke="#63b8ff" points="450,-1225.23 453.5,-1235.23 457,-1225.23 450,-1225.23"/>
</g>
<!-- Node5 -->
<g id="node5" class="node">
<title>Node5</title>
<g id="a_node5"><a xlink:title=" ">
<polygon fill="white" stroke="#666666" points="842.5,-173 736.5,-173 736.5,-121 842.5,-121 842.5,-173"/>
<text text-anchor="start" x="744.5" y="-161" font-family="Helvetica,sans-Serif" font-size="10.00">{std::shared_ptr&lt; HY</text>
<text text-anchor="middle" x="789.5" y="-150" font-family="Helvetica,sans-Serif" font-size="10.00">_FlowPath &gt;</text>
<text text-anchor="start" x="744.5" y="-139" font-family="Helvetica,sans-Serif" font-size="10.00">||+ operator&#45;&gt;()</text>
<text text-anchor="middle" x="789.5" y="-128" font-family="Helvetica,sans-Serif" font-size="10.00">}</text>
</a>
</g>
</g>
<!-- Node5&#45;&gt;Node1 -->
<g id="edge4" class="edge">
<title>Node5&#45;&gt;Node1</title>
<path fill="none" stroke="#404040" d="M736.24,-135.35C640.55,-116.21 439.13,-75.93 327.73,-53.65"/>
<polygon fill="none" stroke="#404040" points="327.92,-53.68 321.25,-56.43 316.15,-51.33 322.82,-48.58 327.92,-53.68"/>
<text text-anchor="middle" x="588.5" y="-95" font-family="Helvetica,sans-Serif" font-size="10.00"> &#45;flowpath</text>
</g>
<!-- Node6 -->
<g id="node6" class="node">
<title>Node6</title>
<g id="a_node6"><a xlink:href="class_h_y___flow_path.html" target="_top" xlink:title=" ">
<polygon fill="white" stroke="#666666" points="838,-272 741,-272 741,-220 838,-220 838,-272"/>
<text text-anchor="middle" x="789.5" y="-260" font-family="Helvetica,sans-Serif" font-size="10.00">{HY_FlowPath</text>
<text text-anchor="start" x="749" y="-249" font-family="Helvetica,sans-Serif" font-size="10.00">||+ HY_FlowPath()</text>
<text text-anchor="start" x="749" y="-238" font-family="Helvetica,sans-Serif" font-size="10.00">+ ~HY_FlowPath()</text>
<text text-anchor="middle" x="789.5" y="-227" font-family="Helvetica,sans-Serif" font-size="10.00">}</text>
</a>
</g>
</g>
<!-- Node6&#45;&gt;Node5 -->
<g id="edge5" class="edge">
<title>Node6&#45;&gt;Node5</title>
<path fill="none" stroke="#404040" d="M789.5,-219.51C789.5,-209.38 789.5,-197.5 789.5,-186.36"/>
<polygon fill="none" stroke="#404040" points="789.5,-186.22 785.5,-180.22 789.5,-174.22 793.5,-180.22 789.5,-186.22"/>
<text text-anchor="middle" x="799.5" y="-194" font-family="Helvetica,sans-Serif" font-size="10.00"> +ptr</text>
</g>
<!-- Node7 -->
<g id="node7" class="node">
<title>Node7</title>
<g id="a_node7"><a xlink:href="class_g_m___object.html" target="_top" xlink:title=" ">
<polygon fill="white" stroke="#666666" points="832.5,-398.5 746.5,-398.5 746.5,-346.5 832.5,-346.5 832.5,-398.5"/>
<text text-anchor="middle" x="789.5" y="-386.5" font-family="Helvetica,sans-Serif" font-size="10.00">{GM_Object</text>
<text text-anchor="start" x="754.5" y="-375.5" font-family="Helvetica,sans-Serif" font-size="10.00">||+ GM_Object()</text>
<text text-anchor="start" x="754.5" y="-364.5" font-family="Helvetica,sans-Serif" font-size="10.00">+ ~GM_Object()</text>
<text text-anchor="middle" x="789.5" y="-353.5" font-family="Helvetica,sans-Serif" font-size="10.00">}</text>
</a>
</g>
</g>
<!-- Node7&#45;&gt;Node6 -->
<g id="edge6" class="edge">
<title>Node7&#45;&gt;Node6</title>
<path fill="none" stroke="#63b8ff" d="M789.5,-334.49C789.5,-314.5 789.5,-290.33 789.5,-272.46"/>
<polygon fill="none" stroke="#63b8ff" points="786,-334.49 789.5,-344.49 793,-334.49 786,-334.49"/>
</g>
<!-- Node8 -->
<g id="node8" class="node">
<title>Node8</title>
<g id="a_node8"><a xlink:href="class_h_y___catchment_realization.html" target="_top" xlink:title=" ">
<polygon fill="white" stroke="#666666" points="662.5,-426 512.5,-426 512.5,-319 662.5,-319 662.5,-426"/>
<text text-anchor="middle" x="587.5" y="-414" font-family="Helvetica,sans-Serif" font-size="10.00">{HY_CatchmentRealization</text>
<text text-anchor="start" x="520.5" y="-403" font-family="Helvetica,sans-Serif" font-size="10.00">|# id_number</text>
<text text-anchor="start" x="520.5" y="-392" font-family="Helvetica,sans-Serif" font-size="10.00">|+ HY_CatchmentRealization()</text>
<text text-anchor="start" x="520.5" y="-381" font-family="Helvetica,sans-Serif" font-size="10.00">+ HY_CatchmentRealization()</text>
<text text-anchor="start" x="520.5" y="-370" font-family="Helvetica,sans-Serif" font-size="10.00">+ ~HY_CatchmentRealization()</text>
<text text-anchor="start" x="520.5" y="-359" font-family="Helvetica,sans-Serif" font-size="10.00">+ get_response()</text>
<text text-anchor="start" x="520.5" y="-348" font-family="Helvetica,sans-Serif" font-size="10.00"># get_catchment_id()</text>
<text text-anchor="start" x="520.5" y="-337" font-family="Helvetica,sans-Serif" font-size="10.00"># set_catchment_id()</text>
<text text-anchor="middle" x="587.5" y="-326" font-family="Helvetica,sans-Serif" font-size="10.00">}</text>
</a>
</g>
</g>
<!-- Node8&#45;&gt;Node6 -->
<g id="edge7" class="edge">
<title>Node8&#45;&gt;Node6</title>
<path fill="none" stroke="#63b8ff" d="M672.31,-319.23C698.56,-303.05 726.31,-285.94 748.22,-272.44"/>
<polygon fill="none" stroke="#63b8ff" points="670.68,-316.12 664.01,-324.35 674.36,-322.08 670.68,-316.12"/>
</g>
<!-- Node12 -->
<g id="node12" class="node">
<title>Node12</title>
<g id="a_node12"><a xlink:title=" ">
<polygon fill="white" stroke="#666666" points="650,-272 525,-272 525,-220 650,-220 650,-272"/>
<text text-anchor="start" x="533" y="-260" font-family="Helvetica,sans-Serif" font-size="10.00">{std::shared_ptr&lt; HY</text>
<text text-anchor="middle" x="587.5" y="-249" font-family="Helvetica,sans-Serif" font-size="10.00">_CatchmentRealization &gt;</text>
<text text-anchor="start" x="533" y="-238" font-family="Helvetica,sans-Serif" font-size="10.00">||+ operator&#45;&gt;()</text>
<text text-anchor="middle" x="587.5" y="-227" font-family="Helvetica,sans-Serif" font-size="10.00">}</text>
</a>
</g>
</g>
<!-- Node8&#45;&gt;Node12 -->
<g id="edge12" class="edge">
<title>Node8&#45;&gt;Node12</title>
<path fill="none" stroke="#404040" d="M587.5,-318.7C587.5,-307.42 587.5,-295.72 587.5,-285.13"/>
<polygon fill="none" stroke="#404040" points="587.5,-285.31 583.5,-279.31 587.5,-273.31 591.5,-279.31 587.5,-285.31"/>
<text text-anchor="middle" x="597.5" y="-293" font-family="Helvetica,sans-Serif" font-size="10.00"> +ptr</text>
</g>
<!-- Node9 -->
<g id="node9" class="node">
<title>Node9</title>
<g id="a_node9"><a xlink:title=" ">
<polygon fill="white" stroke="#666666" points="675.5,-566 569.5,-566 569.5,-514 675.5,-514 675.5,-566"/>
<text text-anchor="start" x="577.5" y="-554" font-family="Helvetica,sans-Serif" font-size="10.00">{std::shared_ptr&lt; HY</text>
<text text-anchor="middle" x="622.5" y="-543" font-family="Helvetica,sans-Serif" font-size="10.00">_Catchment &gt;</text>
<text text-anchor="start" x="577.5" y="-532" font-family="Helvetica,sans-Serif" font-size="10.00">||+ operator&#45;&gt;()</text>
<text text-anchor="middle" x="622.5" y="-521" font-family="Helvetica,sans-Serif" font-size="10.00">}</text>
</a>
</g>
</g>
<!-- Node9&#45;&gt;Node8 -->
<g id="edge8" class="edge">
<title>Node9&#45;&gt;Node8</title>
<path fill="none" stroke="#404040" d="M598.24,-513.84C594.26,-508.35 590.71,-502.28 588.5,-496 582.24,-478.24 580.2,-458.11 580.19,-439.37"/>
<polygon fill="none" stroke="#404040" points="580.2,-439.25 576.34,-433.16 580.49,-427.26 584.34,-433.35 580.2,-439.25"/>
<text text-anchor="middle" x="634.5" y="-467.5" font-family="Helvetica,sans-Serif" font-size="10.00"> #realized_catchment</text>
</g>
<!-- Node10&#45;&gt;Node9 -->
<g id="edge9" class="edge">
<title>Node10&#45;&gt;Node9</title>
<path fill="none" stroke="#404040" d="M417.97,-623.84C418.23,-609.66 421.37,-594.35 431.5,-584 449.66,-565.46 516.46,-571.7 556.37,-566.01"/>
<polygon fill="none" stroke="#404040" points="556.35,-566.01 561.46,-560.92 568.12,-563.68 563.01,-568.77 556.35,-566.01"/>
<text text-anchor="middle" x="441.5" y="-592.5" font-family="Helvetica,sans-Serif" font-size="10.00"> +ptr</text>
</g>
<!-- Node11 -->
<g id="node11" class="node">
<title>Node11</title>
<g id="a_node11"><a xlink:href="class_h_y___hydro_feature.html" target="_top" xlink:title=" ">
<polygon fill="white" stroke="#666666" points="377.5,-915 263.5,-915 263.5,-863 377.5,-863 377.5,-915"/>
<text text-anchor="middle" x="320.5" y="-903" font-family="Helvetica,sans-Serif" font-size="10.00">{HY_HydroFeature</text>
<text text-anchor="start" x="271.5" y="-892" font-family="Helvetica,sans-Serif" font-size="10.00">||+ HY_HydroFeature()</text>
<text text-anchor="start" x="271.5" y="-881" font-family="Helvetica,sans-Serif" font-size="10.00">+ ~HY_HydroFeature()</text>
<text text-anchor="middle" x="320.5" y="-870" font-family="Helvetica,sans-Serif" font-size="10.00">}</text>
</a>
</g>
</g>
<!-- Node11&#45;&gt;Node10 -->
<g id="edge10" class="edge">
<title>Node11&#45;&gt;Node10</title>
<path fill="none" stroke="#63b8ff" d="M336.67,-852.17C355.69,-810.02 387.09,-740.46 406.17,-698.17"/>
<polygon fill="none" stroke="#63b8ff" points="333.55,-850.58 332.63,-861.13 339.93,-853.46 333.55,-850.58"/>
</g>
<!-- Node12&#45;&gt;Node10 -->
<g id="edge11" class="edge">
<title>Node12&#45;&gt;Node10</title>
<path fill="none" stroke="#404040" d="M552.92,-272.44C536.79,-285.32 518,-301.83 503.5,-319 438.29,-396.22 413.48,-416.6 386.5,-514 377.51,-546.47 386.73,-583.31 398.09,-611.86"/>
<polygon fill="none" stroke="#404040" points="398.01,-611.67 404.03,-615.64 402.69,-622.72 396.67,-618.76 398.01,-611.67"/>
<text text-anchor="middle" x="437.5" y="-467.5" font-family="Helvetica,sans-Serif" font-size="10.00"> +realization</text>
</g>
<!-- Node13 -->
<g id="node13" class="node">
<title>Node13</title>
<g id="a_node13"><a xlink:title=" ">
<polygon fill="white" stroke="#666666" points="818.5,-681.5 712.5,-681.5 712.5,-640.5 818.5,-640.5 818.5,-681.5"/>
<text text-anchor="middle" x="765.5" y="-669.5" font-family="Helvetica,sans-Serif" font-size="10.00">{std::shared_ptr&lt; T &gt;</text>
<text text-anchor="start" x="720.5" y="-658.5" font-family="Helvetica,sans-Serif" font-size="10.00">||+ operator&#45;&gt;()</text>
<text text-anchor="middle" x="765.5" y="-647.5" font-family="Helvetica,sans-Serif" font-size="10.00">}</text>
</a>
</g>
</g>
<!-- Node13&#45;&gt;Node5 -->
<g id="edge31" class="edge">
<title>Node13&#45;&gt;Node5</title>
<path fill="none" stroke="orange" d="M829.92,-655.08C900.41,-645.76 1003.5,-618.83 1003.5,-541 1003.5,-541 1003.5,-541 1003.5,-245 1003.5,-174.64 906.33,-155.06 842.95,-149.77"/>
<polygon fill="orange" stroke="orange" points="829.91,-651.55 820.41,-656.24 830.77,-658.5 829.91,-651.55"/>
<text text-anchor="middle" x="1043.5" y="-370" font-family="Helvetica,sans-Serif" font-size="10.00"> &lt; HY_FlowPath &gt;</text>
</g>
<!-- Node13&#45;&gt;Node9 -->
<g id="edge23" class="edge">
<title>Node13&#45;&gt;Node9</title>
<path fill="none" stroke="orange" d="M701.11,-652.29C672.04,-645.23 640.3,-631.74 622.5,-606 614.67,-594.68 614.3,-579.38 616.07,-566.47"/>
<polygon fill="orange" stroke="orange" points="700.09,-655.65 710.61,-654.36 701.59,-648.81 700.09,-655.65"/>
<text text-anchor="middle" x="665.5" y="-592.5" font-family="Helvetica,sans-Serif" font-size="10.00"> &lt; HY_Catchment &gt;</text>
</g>
<!-- Node13&#45;&gt;Node12 -->
<g id="edge13" class="edge">
<title>Node13&#45;&gt;Node12</title>
<path fill="none" stroke="orange" d="M750.99,-629.92C735.96,-597.56 712.84,-544.24 699.5,-496 678.28,-419.24 710.35,-388.53 671.5,-319 661.1,-300.39 643.93,-284.38 627.81,-272.22"/>
<polygon fill="orange" stroke="orange" points="747.69,-631.13 755.11,-638.69 754.03,-628.15 747.69,-631.13"/>
<text text-anchor="middle" x="766" y="-467.5" font-family="Helvetica,sans-Serif" font-size="10.00"> &lt; HY_CatchmentRealization &gt;</text>
</g>
<!-- Node18 -->
<g id="node18" class="node">
<title>Node18</title>
<g id="a_node18"><a xlink:title=" ">
<polygon fill="white" stroke="#666666" points="551.5,-566 395.5,-566 395.5,-514 551.5,-514 551.5,-566"/>
<text text-anchor="start" x="403.5" y="-554" font-family="Helvetica,sans-Serif" font-size="10.00">{std::shared_ptr&lt; data</text>
<text text-anchor="middle" x="473.5" y="-543" font-family="Helvetica,sans-Serif" font-size="10.00">_access::GenericDataProvider &gt;</text>
<text text-anchor="start" x="403.5" y="-532" font-family="Helvetica,sans-Serif" font-size="10.00">||+ operator&#45;&gt;()</text>
<text text-anchor="middle" x="473.5" y="-521" font-family="Helvetica,sans-Serif" font-size="10.00">}</text>
</a>
</g>
</g>
<!-- Node13&#45;&gt;Node18 -->
<g id="edge28" class="edge">
<title>Node13&#45;&gt;Node18</title>
<path fill="none" stroke="orange" d="M700.62,-655.81C627.5,-649.71 514.96,-635.69 485.5,-606 475.32,-595.74 472.25,-579.83 471.76,-566.32"/>
<polygon fill="orange" stroke="orange" points="700.24,-659.3 710.49,-656.61 700.8,-652.32 700.24,-659.3"/>
<text text-anchor="start" x="485.5" y="-598" font-family="Helvetica,sans-Serif" font-size="10.00"> &lt; data_access::GenericData</text>
<text text-anchor="middle" x="548" y="-587" font-family="Helvetica,sans-Serif" font-size="10.00">Provider &gt;</text>
</g>
<!-- Node22 -->
<g id="node22" class="node">
<title>Node22</title>
<g id="a_node22"><a xlink:title=" ">
<polygon fill="white" stroke="#666666" points="988,-496 841,-496 841,-444 988,-444 988,-496"/>
<text text-anchor="middle" x="914.5" y="-484" font-family="Helvetica,sans-Serif" font-size="10.00">{std::shared_ptr&lt; linestring_t &gt;</text>
<text text-anchor="start" x="849" y="-473" font-family="Helvetica,sans-Serif" font-size="10.00">|+ ptr</text>
<text text-anchor="start" x="849" y="-462" font-family="Helvetica,sans-Serif" font-size="10.00">|+ operator&#45;&gt;()</text>
<text text-anchor="middle" x="914.5" y="-451" font-family="Helvetica,sans-Serif" font-size="10.00">}</text>
</a>
</g>
</g>
<!-- Node13&#45;&gt;Node22 -->
<g id="edge30" class="edge">
<title>Node13&#45;&gt;Node22</title>
<path fill="none" stroke="orange" d="M788.06,-631.39C817.05,-594.61 866.93,-531.34 894.58,-496.26"/>
<polygon fill="orange" stroke="orange" points="785.54,-628.92 782.1,-638.94 791.04,-633.26 785.54,-628.92"/>
<text text-anchor="middle" x="857" y="-592.5" font-family="Helvetica,sans-Serif" font-size="10.00"> &lt; linestring_t &gt;</text>
</g>
<!-- Node14 -->
<g id="node14" class="node">
<title>Node14</title>
<g id="a_node14"><a xlink:title=" ">
<polygon fill="white" stroke="#666666" points="788,-1272.5 759,-1272.5 759,-1242.5 788,-1242.5 788,-1272.5"/>
<text text-anchor="middle" x="773.5" y="-1260.5" font-family="Helvetica,sans-Serif" font-size="10.00">{T</text>
<text text-anchor="middle" x="773.5" y="-1249.5" font-family="Helvetica,sans-Serif" font-size="10.00">||}</text>
</a>
</g>
</g>
<!-- Node14&#45;&gt;Node13 -->
<g id="edge14" class="edge">
<title>Node14&#45;&gt;Node13</title>
<path fill="none" stroke="#404040" d="M787.19,-1242.02C792.43,-1235.5 797.79,-1227.4 800.5,-1219 802,-1214.35 800.53,-1212.89 800.5,-1208 799.39,-1030.21 814.59,-984.76 795.5,-808 791.21,-768.29 781.19,-723.38 773.9,-693.99"/>
<polygon fill="none" stroke="#404040" points="773.95,-694.16 768.6,-689.32 771,-682.52 776.35,-687.36 773.95,-694.16"/>
<text text-anchor="middle" x="814.5" y="-996.5" font-family="Helvetica,sans-Serif" font-size="10.00"> +ptr</text>
</g>
<!-- Node16 -->
<g id="node16" class="node">
<title>Node16</title>
<g id="a_node16"><a xlink:title=" ">
<polygon fill="white" stroke="#666666" points="775,-1124 688,-1124 688,-1094 775,-1094 775,-1124"/>
<text text-anchor="middle" x="731.5" y="-1112" font-family="Helvetica,sans-Serif" font-size="10.00">{std::vector&lt; T &gt;</text>
<text text-anchor="middle" x="731.5" y="-1101" font-family="Helvetica,sans-Serif" font-size="10.00">||}</text>
</a>
</g>
</g>
<!-- Node14&#45;&gt;Node16 -->
<g id="edge19" class="edge">
<title>Node14&#45;&gt;Node16</title>
<path fill="none" stroke="#404040" d="M763.47,-1242.13C759.19,-1235.38 754.5,-1227.07 751.5,-1219 741.5,-1192.1 736.36,-1159.53 733.82,-1137.04"/>
<polygon fill="none" stroke="#404040" points="733.81,-1137.02 729.23,-1131.45 732.61,-1125.08 737.19,-1130.65 733.81,-1137.02"/>
<text text-anchor="middle" x="776" y="-1211" font-family="Helvetica,sans-Serif" font-size="10.00"> +elements</text>
</g>
<!-- Node15&#45;&gt;Node10 -->
<g id="edge16" class="edge">
<title>Node15&#45;&gt;Node10</title>
<path fill="none" stroke="#404040" d="M727.02,-873.91C715.78,-840.91 683.15,-758.25 626.5,-716 589.05,-688.07 538.3,-674.57 496.79,-668.05"/>
<polygon fill="none" stroke="#404040" points="496.71,-668.04 490.21,-671.15 484.84,-666.33 491.34,-663.23 496.71,-668.04"/>
<text text-anchor="middle" x="706.5" y="-756" font-family="Helvetica,sans-Serif" font-size="10.00"> &#45;inflows</text>
<text text-anchor="middle" x="706.5" y="-745" font-family="Helvetica,sans-Serif" font-size="10.00">&#45;outflows</text>
</g>
<!-- Node16&#45;&gt;Node15 -->
<g id="edge18" class="edge">
<title>Node16&#45;&gt;Node15</title>
<path fill="none" stroke="orange" d="M731.5,-1082.33C731.5,-1036.17 731.5,-940.6 731.5,-904.36"/>
<polygon fill="orange" stroke="orange" points="728,-1082.18 731.5,-1092.18 735,-1082.18 728,-1082.18"/>
<text text-anchor="middle" x="755" y="-996.5" font-family="Helvetica,sans-Serif" font-size="10.00"> &lt; Nexus &gt;</text>
</g>
<!-- Node16&#45;&gt;Node17 -->
<g id="edge22" class="edge">
<title>Node16&#45;&gt;Node17</title>
<path fill="none" stroke="orange" d="M713.4,-1084.75C698.52,-1065.24 677.24,-1036.41 660.5,-1010 637.08,-973.05 613.23,-927.22 601.67,-904.37"/>
<polygon fill="orange" stroke="orange" points="710.55,-1086.78 719.41,-1092.58 716.1,-1082.52 710.55,-1086.78"/>
<text text-anchor="middle" x="694" y="-996.5" font-family="Helvetica,sans-Serif" font-size="10.00"> &lt; Catchment &gt;</text>
</g>
<!-- Node17&#45;&gt;Node10 -->
<g id="edge20" class="edge">
<title>Node17&#45;&gt;Node10</title>
<path fill="none" stroke="#404040" d="M583.48,-873.52C558.65,-840.89 497.42,-760.44 458.04,-708.69"/>
<polygon fill="none" stroke="#404040" points="458.04,-708.7 451.22,-706.34 450.77,-699.15 457.59,-701.5 458.04,-708.7"/>
<text text-anchor="middle" x="570.5" y="-750.5" font-family="Helvetica,sans-Serif" font-size="10.00"> &#45;contained_catchments</text>
</g>
<!-- Node18&#45;&gt;Node8 -->
<g id="edge24" class="edge">
<title>Node18&#45;&gt;Node8</title>
<path fill="none" stroke="#404040" d="M490.83,-513.56C503.9,-494.41 522.28,-467.53 538.5,-444 540.12,-441.66 541.76,-439.27 543.43,-436.86"/>
<polygon fill="none" stroke="#404040" points="543.46,-436.82 543.58,-429.61 550.29,-426.95 550.16,-434.16 543.46,-436.82"/>
<text text-anchor="middle" x="557" y="-467.5" font-family="Helvetica,sans-Serif" font-size="10.00"> #forcing</text>
</g>
<!-- Node19 -->
<g id="node19" class="node">
<title>Node19</title>
<g id="a_node19"><a xlink:href="classdata__access_1_1_generic_data_provider.html" target="_top" xlink:title=" ">
<polygon fill="white" stroke="#666666" points="194.5,-681.5 60.5,-681.5 60.5,-640.5 194.5,-640.5 194.5,-681.5"/>
<text text-anchor="start" x="68.5" y="-669.5" font-family="Helvetica,sans-Serif" font-size="10.00">{data_access::GenericData</text>
<text text-anchor="middle" x="127.5" y="-658.5" font-family="Helvetica,sans-Serif" font-size="10.00">Provider</text>
<text text-anchor="middle" x="127.5" y="-647.5" font-family="Helvetica,sans-Serif" font-size="10.00">||}</text>
</a>
</g>
</g>
<!-- Node19&#45;&gt;Node18 -->
<g id="edge25" class="edge">
<title>Node19&#45;&gt;Node18</title>
<path fill="none" stroke="#404040" d="M185.41,-640.08C240.51,-621.13 324.11,-592.38 387.09,-570.72"/>
<polygon fill="none" stroke="#404040" points="387.19,-570.68 391.57,-564.95 398.54,-566.78 394.17,-572.51 387.19,-570.68"/>
<text text-anchor="middle" x="352.5" y="-592.5" font-family="Helvetica,sans-Serif" font-size="10.00"> +ptr</text>
</g>
<!-- Node20 -->
<g id="node20" class="node">
<title>Node20</title>
<g id="a_node20"><a xlink:href="classdata__access_1_1_data_provider.html" target="_top" xlink:title=" ">
<polygon fill="white" stroke="#666666" points="191,-970 0,-970 0,-808 191,-808 191,-970"/>
<text text-anchor="start" x="8" y="-958" font-family="Helvetica,sans-Serif" font-size="10.00">{data_access::DataProvider</text>
<text text-anchor="middle" x="95.5" y="-947" font-family="Helvetica,sans-Serif" font-size="10.00">&lt; double, CatchmentAggrDataSelector &gt;</text>
<text text-anchor="start" x="8" y="-936" font-family="Helvetica,sans-Serif" font-size="10.00">||+ ~DataProvider()</text>
<text text-anchor="start" x="8" y="-925" font-family="Helvetica,sans-Serif" font-size="10.00">+ get_avaliable_variable</text>
<text text-anchor="start" x="8" y="-914" font-family="Helvetica,sans-Serif" font-size="10.00">_names()</text>
<text text-anchor="start" x="8" y="-903" font-family="Helvetica,sans-Serif" font-size="10.00">+ get_data_start_time()</text>
<text text-anchor="start" x="8" y="-892" font-family="Helvetica,sans-Serif" font-size="10.00">+ get_data_stop_time()</text>
<text text-anchor="start" x="8" y="-881" font-family="Helvetica,sans-Serif" font-size="10.00">+ record_duration()</text>
<text text-anchor="start" x="8" y="-870" font-family="Helvetica,sans-Serif" font-size="10.00">+ get_ts_index_for_time()</text>
<text text-anchor="start" x="8" y="-859" font-family="Helvetica,sans-Serif" font-size="10.00">+ get_value()</text>
<text text-anchor="start" x="8" y="-848" font-family="Helvetica,sans-Serif" font-size="10.00">+ get_values()</text>
<text text-anchor="start" x="8" y="-837" font-family="Helvetica,sans-Serif" font-size="10.00">+ is_property_sum_over</text>
<text text-anchor="start" x="8" y="-826" font-family="Helvetica,sans-Serif" font-size="10.00">_time_step()</text>
<text text-anchor="middle" x="95.5" y="-815" font-family="Helvetica,sans-Serif" font-size="10.00">}</text>
</a>
</g>
</g>
<!-- Node20&#45;&gt;Node19 -->
<g id="edge26" class="edge">
<title>Node20&#45;&gt;Node19</title>
<path fill="none" stroke="#63b8ff" d="M108.47,-796.43C114.47,-754.02 121.07,-707.43 124.7,-681.75"/>
<polygon fill="none" stroke="#63b8ff" points="105.02,-795.79 107.08,-806.19 111.95,-796.78 105.02,-795.79"/>
</g>
<!-- Node21 -->
<g id="node21" class="node">
<title>Node21</title>
<g id="a_node21"><a xlink:href="classdata__access_1_1_data_provider.html" target="_top" xlink:title=" ">
<polygon fill="white" stroke="#666666" points="151,-1190 8,-1190 8,-1028 151,-1028 151,-1190"/>
<text text-anchor="start" x="16" y="-1178" font-family="Helvetica,sans-Serif" font-size="10.00">{data_access::DataProvider</text>
<text text-anchor="middle" x="79.5" y="-1167" font-family="Helvetica,sans-Serif" font-size="10.00">&lt; data_type, selection_type &gt;</text>
<text text-anchor="start" x="16" y="-1156" font-family="Helvetica,sans-Serif" font-size="10.00">||+ ~DataProvider()</text>
<text text-anchor="start" x="16" y="-1145" font-family="Helvetica,sans-Serif" font-size="10.00">+ get_avaliable_variable</text>
<text text-anchor="start" x="16" y="-1134" font-family="Helvetica,sans-Serif" font-size="10.00">_names()</text>
<text text-anchor="start" x="16" y="-1123" font-family="Helvetica,sans-Serif" font-size="10.00">+ get_data_start_time()</text>
<text text-anchor="start" x="16" y="-1112" font-family="Helvetica,sans-Serif" font-size="10.00">+ get_data_stop_time()</text>
<text text-anchor="start" x="16" y="-1101" font-family="Helvetica,sans-Serif" font-size="10.00">+ record_duration()</text>
<text text-anchor="start" x="16" y="-1090" font-family="Helvetica,sans-Serif" font-size="10.00">+ get_ts_index_for_time()</text>
<text text-anchor="start" x="16" y="-1079" font-family="Helvetica,sans-Serif" font-size="10.00">+ get_value()</text>
<text text-anchor="start" x="16" y="-1068" font-family="Helvetica,sans-Serif" font-size="10.00">+ get_values()</text>
<text text-anchor="start" x="16" y="-1057" font-family="Helvetica,sans-Serif" font-size="10.00">+ is_property_sum_over</text>
<text text-anchor="start" x="16" y="-1046" font-family="Helvetica,sans-Serif" font-size="10.00">_time_step()</text>
<text text-anchor="middle" x="79.5" y="-1035" font-family="Helvetica,sans-Serif" font-size="10.00">}</text>
</a>
</g>
</g>
<!-- Node21&#45;&gt;Node20 -->
<g id="edge27" class="edge">
<title>Node21&#45;&gt;Node20</title>
<path fill="none" stroke="orange" d="M78.91,-1016.35C79.25,-1006.77 79.76,-997.18 80.5,-988 80.96,-982.25 81.56,-976.33 82.25,-970.38"/>
<polygon fill="orange" stroke="orange" points="75.42,-1015.96 78.62,-1026.05 82.41,-1016.16 75.42,-1015.96"/>
<text text-anchor="start" x="80.5" y="-1002" font-family="Helvetica,sans-Serif" font-size="10.00"> &lt; double, CatchmentAggrData</text>
<text text-anchor="middle" x="147" y="-991" font-family="Helvetica,sans-Serif" font-size="10.00">Selector &gt;</text>
</g>
<!-- Node22&#45;&gt;Node6 -->
<g id="edge29" class="edge">
<title>Node22&#45;&gt;Node6</title>
<path fill="none" stroke="#404040" d="M903.76,-443.62C890.54,-413.23 866.71,-361.13 841.5,-319 834.18,-306.77 825.37,-293.98 817.09,-282.63"/>
<polygon fill="none" stroke="#404040" points="817.08,-282.62 810.29,-280.19 809.93,-272.98 816.71,-275.42 817.08,-282.62"/>
<text text-anchor="middle" x="919" y="-370" font-family="Helvetica,sans-Serif" font-size="10.00"> &#45;flow_path</text>
</g>
</g>
</svg>
        <g id="navigator" transform="translate(0 0)" fill="#404254">
                <rect fill="#f2f5e9" fill-opacity="0.5" stroke="#606060" stroke-width=".5" x="0" y="0" width="60" height="60"/>
                <use id="zoomplus" xlink:href="#zoomPlus" x="17" y="9" onmousedown="handleZoom(evt,'in')"/>
                <use id="zoomminus" xlink:href="#zoomMin" x="42" y="9" onmousedown="handleZoom(evt,'out')"/>
                <use id="reset" xlink:href="#resetDef" x="30" y="36" onmousedown="handleReset()"/>
                <g id="arrowUp" xlink:href="#dirArrow" transform="translate(30 24)" onmousedown="handlePan(0,-1)">
                  <use xlink:href="#rim" fill="#404040">
                        <set attributeName="fill" to="#808080" begin="arrowUp.mouseover" end="arrowUp.mouseout"/>
                  </use>
                  <path fill="none" stroke="white" stroke-width="1.5" d="M0,-3.0v7 M-2.5,-0.5L0,-3.0L2.5,-0.5"/>
                </g>
                <g id="arrowRight" xlink:href="#dirArrow" transform="rotate(90) translate(36 -43)" onmousedown="handlePan(1,0)">
                  <use xlink:href="#rim" fill="#404040">
                        <set attributeName="fill" to="#808080" begin="arrowRight.mouseover" end="arrowRight.mouseout"/>
                  </use>
                  <path fill="none" stroke="white" stroke-width="1.5" d="M0,-3.0v7 M-2.5,-0.5L0,-3.0L2.5,-0.5"/>
                </g>
                <g id="arrowDown" xlink:href="#dirArrow" transform="rotate(180) translate(-30 -48)" onmousedown="handlePan(0,1)">
                  <use xlink:href="#rim" fill="#404040">
                        <set attributeName="fill" to="#808080" begin="arrowDown.mouseover" end="arrowDown.mouseout"/>
                  </use>
                  <path fill="none" stroke="white" stroke-width="1.5" d="M0,-3.0v7 M-2.5,-0.5L0,-3.0L2.5,-0.5"/>
                </g>
                <g id="arrowLeft" xlink:href="#dirArrow" transform="rotate(270) translate(-36 17)" onmousedown="handlePan(-1,0)">
                  <use xlink:href="#rim" fill="#404040">
                        <set attributeName="fill" to="#808080" begin="arrowLeft.mouseover" end="arrowLeft.mouseout"/>
                  </use>
                  <path fill="none" stroke="white" stroke-width="1.5" d="M0,-3.0v7 M-2.5,-0.5L0,-3.0L2.5,-0.5"/>
                </g>
        </g>
        <svg viewBox="0 0 15 15" width="100%" height="30px" preserveAspectRatio="xMaxYMin meet">
         <g id="arrow_out" transform="scale(0.3 0.3)">
          <a xlink:href="classhy__features_1_1hydrolocation_1_1_h_y___indirect_position__coll__graph_org.svg" target="_base">
           <rect id="button" ry="5" rx="5" y="6" x="6" height="38" width="38"
                fill="#f2f5e9" fill-opacity="0.5" stroke="#606060" stroke-width="1.0"/>
           <path id="arrow"
             d="M 11.500037,31.436501 C 11.940474,20.09759 22.043105,11.32322 32.158766,21.979434 L 37.068811,17.246167 C 37.068811,17.246167 37.088388,32 37.088388,32 L 22.160133,31.978069 C 22.160133,31.978069 26.997745,27.140456 26.997745,27.140456 C 18.528582,18.264221 13.291696,25.230495 11.500037,31.436501 z"
             style="fill:#404040;"/>
          </a>
         </g>
        </svg>
</svg>
