<?xml version="1.0" encoding="UTF-8" standalone="no"?>
<!DOCTYPE svg PUBLIC "-//W3C//DTD SVG 1.1//EN"
 "http://www.w3.org/Graphics/SVG/1.1/DTD/svg11.dtd">
<!-- Generated by graphviz version 12.2.0 (20241103.1931)
 -->
<!-- Title: geojson::FeatureCollection Pages: 1 -->
<!--zoomable 957 -->

<svg id="main" version="1.1" xmlns="http://www.w3.org/2000/svg" xmlns:xlink="http://www.w3.org/1999/xlink" xml:space="preserve" onload="init(evt)">

<style type="text/css"><![CDATA[
.node, .edge {opacity: 0.7;}
.node.selected, .edge.selected {opacity: 1;}
.edge:hover path { stroke: red; }
.edge:hover polygon { stroke: red; fill: red; }
]]></style>

<defs>
  <circle id="rim" cx="0" cy="0" r="7"/>
  <circle id="rim2" cx="0" cy="0" r="3.5"/>
  <g id="zoomPlus">
    <use xlink:href="#rim" fill="#404040"><set attributeName="fill" to="#808080" begin="zoomplus.mouseover" end="zoomplus.mouseout"/></use>
    <path d="M-4,0h8M0,-4v8" fill="none" stroke="white" stroke-width="1.5" pointer-events="none"/>
  </g>
  <g id="zoomMin">
    <use xlink:href="#rim" fill="#404040"><set attributeName="fill" to="#808080" begin="zoomminus.mouseover" end="zoomminus.mouseout"/></use>
    <path d="M-4,0h8" fill="none" stroke="white" stroke-width="1.5" pointer-events="none"/>
  </g>
  <g id="arrowUp" transform="translate(30 24)">
    <use xlink:href="#rim"/>
    <path pointer-events="none" fill="none" stroke="white" stroke-width="1.5" d="M0,-3.0v7 M-2.5,-0.5L0,-3.0L2.5,-0.5"/>
  </g>
  <g id="arrowRight" transform="rotate(90) translate(36 -43)">
    <use xlink:href="#rim"/>
    <path pointer-events="none" fill="none" stroke="white" stroke-width="1.5" d="M0,-3.0v7 M-2.5,-0.5L0,-3.0L2.5,-0.5"/>
  </g>
  <g id="arrowDown" transform="rotate(180) translate(-30 -48)">
    <use xlink:href="#rim"/>
    <path pointer-events="none" fill="none" stroke="white" stroke-width="1.5" d="M0,-3.0v7 M-2.5,-0.5L0,-3.0L2.5,-0.5"/>
  </g>
  <g id="arrowLeft" transform="rotate(270) translate(-36 17)">
    <use xlink:href="#rim"/>
    <path pointer-events="none" fill="none" stroke="white" stroke-width="1.5" d="M0,-3.0v7 M-2.5,-0.5L0,-3.0L2.5,-0.5"/>
  </g>
  <g id="resetDef">
    <use xlink:href="#rim2" fill="#404040"><set attributeName="fill" to="#808080" begin="reset.mouseover" end="reset.mouseout"/></use>
  </g>
</defs>
<script type="application/ecmascript">
var viewWidth = 1215;
var viewHeight = 957;
var sectionId = 'dynsection-0';
</script>
<script type="application/ecmascript" xlink:href="svg.min.js"/>
<svg id="graph" class="graph">
<g id="viewport">
<title>geojson::FeatureCollection</title>
<!-- Node1 -->
<g id="Node000001" class="node">
<title>Node1</title>
<g id="a_Node000001"><a xlink:title=" ">
<polygon fill="#999999" stroke="none" points="339.89,-278.5 217.89,-278.5 217.89,0 339.89,0 339.89,-278.5"/>
<text text-anchor="start" x="221.89" y="-265" font-family="Helvetica,sans-Serif" font-size="10.00">geojson::FeatureCollection</text>
<text text-anchor="start" x="277.39" y="-249.75" font-family="Helvetica,sans-Serif" font-size="10.00"> </text>
<text text-anchor="start" x="222.58" y="-234.5" font-family="Helvetica,sans-Serif" font-size="10.00">+</text>
<text text-anchor="start" x="233.27" y="-234.5" font-family="Helvetica,sans-Serif" font-size="10.00">FeatureCollection()</text>
<text text-anchor="start" x="222.58" y="-219.25" font-family="Helvetica,sans-Serif" font-size="10.00">+</text>
<text text-anchor="start" x="233.27" y="-219.25" font-family="Helvetica,sans-Serif" font-size="10.00">FeatureCollection()</text>
<text text-anchor="start" x="222.58" y="-204" font-family="Helvetica,sans-Serif" font-size="10.00">+</text>
<text text-anchor="start" x="233.27" y="-204" font-family="Helvetica,sans-Serif" font-size="10.00">FeatureCollection()</text>
<text text-anchor="start" x="222.58" y="-188.75" font-family="Helvetica,sans-Serif" font-size="10.00">+</text>
<text text-anchor="start" x="233.27" y="-188.75" font-family="Helvetica,sans-Serif" font-size="10.00">FeatureCollection()</text>
<text text-anchor="start" x="222.58" y="-173.5" font-family="Helvetica,sans-Serif" font-size="10.00">+</text>
<text text-anchor="start" x="233.27" y="-173.5" font-family="Helvetica,sans-Serif" font-size="10.00">FeatureCollection()</text>
<text text-anchor="start" x="222.58" y="-158.25" font-family="Helvetica,sans-Serif" font-size="10.00">+</text>
<text text-anchor="start" x="233.27" y="-158.25" font-family="Helvetica,sans-Serif" font-size="10.00">~FeatureCollection()</text>
<text text-anchor="start" x="222.58" y="-143" font-family="Helvetica,sans-Serif" font-size="10.00">+</text>
<text text-anchor="start" x="233.27" y="-143" font-family="Helvetica,sans-Serif" font-size="10.00">get_size()</text>
<text text-anchor="start" x="222.58" y="-127.75" font-family="Helvetica,sans-Serif" font-size="10.00">+</text>
<text text-anchor="start" x="233.27" y="-127.75" font-family="Helvetica,sans-Serif" font-size="10.00">is_empty()</text>
<text text-anchor="start" x="222.58" y="-112.5" font-family="Helvetica,sans-Serif" font-size="10.00">+</text>
<text text-anchor="start" x="233.27" y="-112.5" font-family="Helvetica,sans-Serif" font-size="10.00">get_bounding_box()</text>
<text text-anchor="start" x="222.58" y="-97.25" font-family="Helvetica,sans-Serif" font-size="10.00">+</text>
<text text-anchor="start" x="233.27" y="-97.25" font-family="Helvetica,sans-Serif" font-size="10.00">get_feature()</text>
<text text-anchor="start" x="222.58" y="-82" font-family="Helvetica,sans-Serif" font-size="10.00">+</text>
<text text-anchor="start" x="233.27" y="-82" font-family="Helvetica,sans-Serif" font-size="10.00">find()</text>
<text text-anchor="start" x="222.58" y="-66.75" font-family="Helvetica,sans-Serif" font-size="10.00">+</text>
<text text-anchor="start" x="233.27" y="-66.75" font-family="Helvetica,sans-Serif" font-size="10.00">find()</text>
<text text-anchor="start" x="222.58" y="-51.5" font-family="Helvetica,sans-Serif" font-size="10.00">+</text>
<text text-anchor="start" x="233.27" y="-51.5" font-family="Helvetica,sans-Serif" font-size="10.00">remove_feature()</text>
<text text-anchor="start" x="222.58" y="-36.25" font-family="Helvetica,sans-Serif" font-size="10.00">+</text>
<text text-anchor="start" x="233.27" y="-36.25" font-family="Helvetica,sans-Serif" font-size="10.00">remove_feature_by_id()</text>
<text text-anchor="start" x="222.58" y="-21" font-family="Helvetica,sans-Serif" font-size="10.00">+</text>
<text text-anchor="start" x="233.27" y="-21" font-family="Helvetica,sans-Serif" font-size="10.00">get_feature()</text>
<text text-anchor="start" x="233.27" y="-5.75" font-family="Helvetica,sans-Serif" font-size="10.00">and 19 more...</text>
<polygon fill="#666666" stroke="#666666" points="217.89,-261.25 217.89,-261.25 339.89,-261.25 339.89,-261.25 217.89,-261.25"/>
<polygon fill="#666666" stroke="#666666" points="217.89,-246 217.89,-246 339.89,-246 339.89,-246 217.89,-246"/>
<polygon fill="none" stroke="#666666" points="217.89,0 217.89,-278.5 339.89,-278.5 339.89,0 217.89,0"/>
</a>
</g>
</g>
<!-- Node2 -->
<g id="Node000002" class="node">
<title>Node2</title>
<g id="a_Node000002"><a xlink:title=" ">
<polygon fill="white" stroke="none" points="161.14,-381.12 58.64,-381.12 58.64,-331.38 161.14,-331.38 161.14,-381.12"/>
<text text-anchor="start" x="62.64" y="-367.62" font-family="Helvetica,sans-Serif" font-size="10.00">std::vector&lt; Feature &gt;</text>
<text text-anchor="start" x="108.39" y="-352.38" font-family="Helvetica,sans-Serif" font-size="10.00"> </text>
<text text-anchor="start" x="108.39" y="-337.12" font-family="Helvetica,sans-Serif" font-size="10.00"> </text>
<polygon fill="#666666" stroke="#666666" points="58.64,-363.88 58.64,-363.88 161.14,-363.88 161.14,-363.88 58.64,-363.88"/>
<polygon fill="#666666" stroke="#666666" points="58.64,-348.62 58.64,-348.62 161.14,-348.62 161.14,-348.62 58.64,-348.62"/>
<polygon fill="none" stroke="#666666" points="58.64,-331.38 58.64,-381.12 161.14,-381.12 161.14,-331.38 58.64,-331.38"/>
</a>
</g>
</g>
<!-- Node2&#45;&gt;Node1 -->
<g id="edge1_Node000001_Node000002" class="edge">
<title>Node2&#45;&gt;Node1</title>
<g id="a_edge1_Node000001_Node000002"><a xlink:title=" ">
<path fill="none" stroke="#63b8ff" d="M128.63,-331.42C148.35,-306.33 180.58,-265.32 210.15,-227.71"/>
<polygon fill="none" stroke="#63b8ff" points="210.02,-227.87 210.59,-220.68 217.44,-218.43 216.88,-225.62 210.02,-227.87"/>
</a>
</g>
<text text-anchor="middle" x="175.47" y="-298.25" font-family="Helvetica,sans-Serif" font-size="10.00" fill="grey"> &#45;features</text>
</g>
<!-- Node3 -->
<g id="Node000003" class="node">
<title>Node3</title>
<g id="a_Node000003"><a xlink:title=" ">
<polygon fill="white" stroke="none" points="129.02,-624.62 34.77,-624.62 34.77,-574.88 129.02,-574.88 129.02,-624.62"/>
<text text-anchor="start" x="38.77" y="-611.12" font-family="Helvetica,sans-Serif" font-size="10.00">std::shared_ptr&lt; T &gt;</text>
<text text-anchor="start" x="80.39" y="-595.88" font-family="Helvetica,sans-Serif" font-size="10.00"> </text>
<text text-anchor="start" x="45.27" y="-580.62" font-family="Helvetica,sans-Serif" font-size="10.00">+</text>
<text text-anchor="start" x="61.77" y="-580.62" font-family="Helvetica,sans-Serif" font-size="10.00">operator&#45;&gt;()</text>
<polygon fill="#666666" stroke="#666666" points="34.77,-607.38 34.77,-607.38 129.02,-607.38 129.02,-607.38 34.77,-607.38"/>
<polygon fill="#666666" stroke="#666666" points="34.77,-592.12 34.77,-592.12 129.02,-592.12 129.02,-592.12 34.77,-592.12"/>
<polygon fill="none" stroke="#666666" points="34.77,-574.88 34.77,-624.62 129.02,-624.62 129.02,-574.88 34.77,-574.88"/>
</a>
</g>
</g>
<!-- Node3&#45;&gt;Node2 -->
<g id="edge2_Node000002_Node000003" class="edge">
<title>Node3&#45;&gt;Node2</title>
<g id="a_edge2_Node000002_Node000003"><a xlink:title=" ">
<path fill="none" stroke="#63b8ff" d="M60.35,-574.9C28.66,-536.79 -23.18,-460.73 11.89,-404.75 20.13,-391.61 33.15,-382.01 47.04,-375.04"/>
<polygon fill="none" stroke="#63b8ff" points="47.05,-375.03 50.9,-368.93 58.01,-370.14 54.16,-376.24 47.05,-375.03"/>
</a>
</g>
<text text-anchor="middle" x="35.89" y="-412.12" font-family="Helvetica,sans-Serif" font-size="10.00" fill="grey"> +elements</text>
</g>
<!-- Node7 -->
<g id="Node000007" class="node">
<title>Node7</title>
<g id="a_Node000007"><a xlink:title=" ">
<polygon fill="white" stroke="none" points="392.89,-386.75 294.89,-386.75 294.89,-325.75 392.89,-325.75 392.89,-386.75"/>
<text text-anchor="start" x="298.89" y="-373.25" font-family="Helvetica,sans-Serif" font-size="10.00">std::map&lt; std::string,</text>
<text text-anchor="start" x="322.14" y="-362" font-family="Helvetica,sans-Serif" font-size="10.00"> Feature &gt;</text>
<text text-anchor="start" x="342.39" y="-346.75" font-family="Helvetica,sans-Serif" font-size="10.00"> </text>
<text text-anchor="start" x="342.39" y="-331.5" font-family="Helvetica,sans-Serif" font-size="10.00"> </text>
<polygon fill="#666666" stroke="#666666" points="294.89,-358.25 294.89,-358.25 392.89,-358.25 392.89,-358.25 294.89,-358.25"/>
<polygon fill="#666666" stroke="#666666" points="294.89,-343 294.89,-343 392.89,-343 392.89,-343 294.89,-343"/>
<polygon fill="none" stroke="#666666" points="294.89,-325.75 294.89,-386.75 392.89,-386.75 392.89,-325.75 294.89,-325.75"/>
</a>
</g>
</g>
<!-- Node3&#45;&gt;Node7 -->
<g id="edge11_Node000007_Node000003" class="edge">
<title>Node3&#45;&gt;Node7</title>
<g id="a_edge11_Node000007_Node000003"><a xlink:title=" ">
<path fill="none" stroke="#63b8ff" d="M72.95,-575.17C59.28,-534.63 39.02,-451.57 81.89,-404.75 110.41,-373.61 223.94,-395.55 282.45,-386.43"/>
<polygon fill="none" stroke="#63b8ff" points="282.45,-386.43 287.47,-381.25 294.18,-383.88 289.16,-389.07 282.45,-386.43"/>
</a>
</g>
<text text-anchor="middle" x="105.89" y="-412.12" font-family="Helvetica,sans-Serif" font-size="10.00" fill="grey"> +elements</text>
</g>
<!-- Node4 -->
<g id="Node000004" class="node">
<title>Node4</title>
<g id="a_Node000004"><a xlink:title=" ">
<polygon fill="white" stroke="none" points="216.89,-851.25 202.89,-851.25 202.89,-801.5 216.89,-801.5 216.89,-851.25"/>
<text text-anchor="start" x="206.89" y="-837.75" font-family="Helvetica,sans-Serif" font-size="10.00">T</text>
<text text-anchor="start" x="208.39" y="-822.5" font-family="Helvetica,sans-Serif" font-size="10.00"> </text>
<text text-anchor="start" x="208.39" y="-807.25" font-family="Helvetica,sans-Serif" font-size="10.00"> </text>
<polygon fill="#666666" stroke="#666666" points="202.89,-834 202.89,-834 216.89,-834 216.89,-834 202.89,-834"/>
<polygon fill="#666666" stroke="#666666" points="202.89,-818.75 202.89,-818.75 216.89,-818.75 216.89,-818.75 202.89,-818.75"/>
<polygon fill="none" stroke="#666666" points="202.89,-801.5 202.89,-851.25 216.89,-851.25 216.89,-801.5 202.89,-801.5"/>
</a>
</g>
</g>
<!-- Node4&#45;&gt;Node3 -->
<g id="edge3_Node000003_Node000004" class="edge">
<title>Node4&#45;&gt;Node3</title>
<g id="a_edge3_Node000003_Node000004"><a xlink:title=" ">
<path fill="none" stroke="#63b8ff" d="M203.01,-813.3C184.13,-780.16 130.96,-686.86 101.75,-635.59"/>
<polygon fill="none" stroke="#63b8ff" points="101.77,-635.63 95.32,-632.39 95.83,-625.2 102.27,-628.43 101.77,-635.63"/>
</a>
</g>
<text text-anchor="middle" x="195.16" y="-774" font-family="Helvetica,sans-Serif" font-size="10.00" fill="grey"> +ptr</text>
</g>
<!-- Node5 -->
<g id="Node000005" class="node">
<title>Node5</title>
<g id="a_Node000005"><a xlink:title=" ">
<polygon fill="white" stroke="none" points="256.64,-624.62 181.14,-624.62 181.14,-574.88 256.64,-574.88 256.64,-624.62"/>
<text text-anchor="start" x="185.14" y="-611.12" font-family="Helvetica,sans-Serif" font-size="10.00">std::vector&lt; T &gt;</text>
<text text-anchor="start" x="217.39" y="-595.88" font-family="Helvetica,sans-Serif" font-size="10.00"> </text>
<text text-anchor="start" x="217.39" y="-580.62" font-family="Helvetica,sans-Serif" font-size="10.00"> </text>
<polygon fill="#666666" stroke="#666666" points="181.14,-607.38 181.14,-607.38 256.64,-607.38 256.64,-607.38 181.14,-607.38"/>
<polygon fill="#666666" stroke="#666666" points="181.14,-592.12 181.14,-592.12 256.64,-592.12 256.64,-592.12 181.14,-592.12"/>
<polygon fill="none" stroke="#666666" points="181.14,-574.88 181.14,-624.62 256.64,-624.62 256.64,-574.88 181.14,-574.88"/>
</a>
</g>
</g>
<!-- Node4&#45;&gt;Node5 -->
<g id="edge5_Node000005_Node000004" class="edge">
<title>Node4&#45;&gt;Node5</title>
<g id="a_edge5_Node000005_Node000004"><a xlink:title=" ">
<path fill="none" stroke="#63b8ff" d="M210.2,-801.57C210.36,-792.4 210.58,-781.84 210.89,-772.25 212.42,-725.7 215.06,-672.08 216.89,-637.37"/>
<polygon fill="none" stroke="#63b8ff" points="216.88,-637.48 213.21,-631.28 217.52,-625.5 221.2,-631.71 216.88,-637.48"/>
</a>
</g>
<text text-anchor="middle" x="234.89" y="-774" font-family="Helvetica,sans-Serif" font-size="10.00" fill="grey"> +elements</text>
</g>
<!-- Node10 -->
<g id="Node000010" class="node">
<title>Node10</title>
<g id="a_Node000010"><a xlink:title=" ">
<polygon fill="white" stroke="none" points="375.52,-624.62 296.27,-624.62 296.27,-574.88 375.52,-574.88 375.52,-624.62"/>
<text text-anchor="start" x="300.27" y="-611.12" font-family="Helvetica,sans-Serif" font-size="10.00">std::map&lt; K, T &gt;</text>
<text text-anchor="start" x="334.39" y="-595.88" font-family="Helvetica,sans-Serif" font-size="10.00"> </text>
<text text-anchor="start" x="334.39" y="-580.62" font-family="Helvetica,sans-Serif" font-size="10.00"> </text>
<polygon fill="#666666" stroke="#666666" points="296.27,-607.38 296.27,-607.38 375.52,-607.38 375.52,-607.38 296.27,-607.38"/>
<polygon fill="#666666" stroke="#666666" points="296.27,-592.12 296.27,-592.12 375.52,-592.12 375.52,-592.12 296.27,-592.12"/>
<polygon fill="none" stroke="#666666" points="296.27,-574.88 296.27,-624.62 375.52,-624.62 375.52,-574.88 296.27,-574.88"/>
</a>
</g>
</g>
<!-- Node4&#45;&gt;Node10 -->
<g id="edge14_Node000010_Node000004" class="edge">
<title>Node4&#45;&gt;Node10</title>
<g id="a_edge14_Node000010_Node000004"><a xlink:title=" ">
<path fill="none" stroke="#63b8ff" d="M216.8,-821.02C227.18,-814.17 246.88,-799.94 258.89,-783.5 292.23,-737.9 314.46,-675.69 326.13,-636.89"/>
<polygon fill="none" stroke="#63b8ff" points="326.15,-636.83 323.98,-629.96 329.5,-625.31 331.66,-632.19 326.15,-636.83"/>
</a>
</g>
<text text-anchor="middle" x="289.01" y="-774" font-family="Helvetica,sans-Serif" font-size="10.00" fill="grey"> +elements</text>
</g>
<!-- Node5&#45;&gt;Node2 -->
<g id="edge4_Node000002_Node000005" class="edge">
<title>Node5&#45;&gt;Node2</title>
<g id="a_edge4_Node000002_Node000005"><a xlink:title=" ">
<path fill="none" stroke="orange" d="M203.64,-564.94C181.24,-515.33 140.03,-424.03 120.59,-380.94"/>
<polygon fill="orange" stroke="orange" points="200.32,-566.1 207.62,-573.77 206.7,-563.22 200.32,-566.1"/>
</a>
</g>
<text text-anchor="middle" x="165" y="-412.12" font-family="Helvetica,sans-Serif" font-size="10.00" fill="grey"> &lt; Feature &gt;</text>
</g>
<!-- Node6 -->
<g id="Node000006" class="node">
<title>Node6</title>
<g id="a_Node000006"><a xlink:title=" ">
<polygon fill="white" stroke="none" points="276.89,-381.12 178.89,-381.12 178.89,-331.38 276.89,-331.38 276.89,-381.12"/>
<text text-anchor="start" x="182.89" y="-367.62" font-family="Helvetica,sans-Serif" font-size="10.00">std::vector&lt; double &gt;</text>
<text text-anchor="start" x="192.96" y="-352.38" font-family="Helvetica,sans-Serif" font-size="10.00">+</text>
<text text-anchor="start" x="213.02" y="-352.38" font-family="Helvetica,sans-Serif" font-size="10.00">elements</text>
<text text-anchor="start" x="226.39" y="-337.12" font-family="Helvetica,sans-Serif" font-size="10.00"> </text>
<polygon fill="#666666" stroke="#666666" points="178.89,-363.88 178.89,-363.88 276.89,-363.88 276.89,-363.88 178.89,-363.88"/>
<polygon fill="#666666" stroke="#666666" points="178.89,-348.62 178.89,-348.62 211.02,-348.62 211.02,-348.62 178.89,-348.62"/>
<polygon fill="#666666" stroke="#666666" points="211.02,-348.62 211.02,-348.62 276.89,-348.62 276.89,-348.62 211.02,-348.62"/>
<polygon fill="none" stroke="#666666" points="178.89,-331.38 178.89,-381.12 276.89,-381.12 276.89,-331.38 178.89,-331.38"/>
</a>
</g>
</g>
<!-- Node5&#45;&gt;Node6 -->
<g id="edge7_Node000006_Node000005" class="edge">
<title>Node5&#45;&gt;Node6</title>
<g id="a_edge7_Node000006_Node000005"><a xlink:title=" ">
<path fill="none" stroke="orange" d="M220.2,-563.68C222.06,-513.8 225.42,-423.66 227.01,-380.94"/>
<polygon fill="orange" stroke="orange" points="216.71,-563.52 219.83,-573.64 223.7,-563.78 216.71,-563.52"/>
</a>
</g>
<text text-anchor="middle" x="249.58" y="-412.12" font-family="Helvetica,sans-Serif" font-size="10.00" fill="grey"> &lt; double &gt;</text>
</g>
<!-- Node15 -->
<g id="Node000015" class="node">
<title>Node15</title>
<g id="a_Node000015"><a xlink:title=" ">
<polygon fill="white" stroke="none" points="998.39,-386.75 903.39,-386.75 903.39,-325.75 998.39,-325.75 998.39,-386.75"/>
<text text-anchor="start" x="907.39" y="-373.25" font-family="Helvetica,sans-Serif" font-size="10.00">std::vector&lt; geojson</text>
<text text-anchor="start" x="913.02" y="-362" font-family="Helvetica,sans-Serif" font-size="10.00">::JSONProperty &gt;</text>
<text text-anchor="start" x="949.39" y="-346.75" font-family="Helvetica,sans-Serif" font-size="10.00"> </text>
<text text-anchor="start" x="949.39" y="-331.5" font-family="Helvetica,sans-Serif" font-size="10.00"> </text>
<polygon fill="#666666" stroke="#666666" points="903.39,-358.25 903.39,-358.25 998.39,-358.25 998.39,-358.25 903.39,-358.25"/>
<polygon fill="#666666" stroke="#666666" points="903.39,-343 903.39,-343 998.39,-343 998.39,-343 903.39,-343"/>
<polygon fill="none" stroke="#666666" points="903.39,-325.75 903.39,-386.75 998.39,-386.75 998.39,-325.75 903.39,-325.75"/>
</a>
</g>
</g>
<!-- Node5&#45;&gt;Node15 -->
<g id="edge25_Node000015_Node000005" class="edge">
<title>Node5&#45;&gt;Node15</title>
<g id="a_edge25_Node000015_Node000005"><a xlink:title=" ">
<path fill="none" stroke="orange" d="M223.82,-564.04C230.95,-527.89 247.87,-472.75 286.89,-445.25 331.16,-414.06 477.31,-440.18 529.89,-427.25 554.35,-421.24 557.61,-411.42 581.89,-404.75 612.3,-396.4 810.97,-373.15 903.55,-362.59"/>
<polygon fill="orange" stroke="orange" points="220.43,-563.11 222.1,-573.57 227.32,-564.35 220.43,-563.11"/>
</a>
</g>
<text text-anchor="middle" x="641.89" y="-412.12" font-family="Helvetica,sans-Serif" font-size="10.00" fill="grey"> &lt; geojson::JSONProperty &gt;</text>
</g>
<!-- Node6&#45;&gt;Node1 -->
<g id="edge6_Node000001_Node000006" class="edge">
<title>Node6&#45;&gt;Node1</title>
<g id="a_edge6_Node000001_Node000006"><a xlink:title=" ">
<path fill="none" stroke="#63b8ff" d="M233.55,-331.42C236.15,-320.46 239.46,-306.47 243.12,-291.06"/>
<polygon fill="none" stroke="#63b8ff" points="243.14,-290.97 240.64,-284.21 245.91,-279.29 248.42,-286.05 243.14,-290.97"/>
</a>
</g>
<text text-anchor="middle" x="273.82" y="-298.25" font-family="Helvetica,sans-Serif" font-size="10.00" fill="grey"> &#45;bounding_box</text>
</g>
<!-- Node7&#45;&gt;Node1 -->
<g id="edge8_Node000001_Node000007" class="edge">
<title>Node7&#45;&gt;Node1</title>
<g id="a_edge8_Node000001_Node000007"><a xlink:title=" ">
<path fill="none" stroke="#63b8ff" d="M334.99,-325.81C331.93,-315.68 328.26,-303.55 324.29,-290.4"/>
<polygon fill="none" stroke="#63b8ff" points="324.3,-290.42 318.73,-285.84 320.82,-278.94 326.39,-283.52 324.3,-290.42"/>
</a>
</g>
<text text-anchor="middle" x="359.69" y="-298.25" font-family="Helvetica,sans-Serif" font-size="10.00" fill="grey"> &#45;feature_by_id</text>
</g>
<!-- Node8 -->
<g id="Node000008" class="node">
<title>Node8</title>
<g id="a_Node000008"><a xlink:title=" ">
<polygon fill="white" stroke="none" points="791.89,-851.25 741.89,-851.25 741.89,-801.5 791.89,-801.5 791.89,-851.25"/>
<text text-anchor="start" x="745.89" y="-837.75" font-family="Helvetica,sans-Serif" font-size="10.00">std::string</text>
<text text-anchor="start" x="765.39" y="-822.5" font-family="Helvetica,sans-Serif" font-size="10.00"> </text>
<text text-anchor="start" x="765.39" y="-807.25" font-family="Helvetica,sans-Serif" font-size="10.00"> </text>
<polygon fill="#666666" stroke="#666666" points="741.89,-834 741.89,-834 791.89,-834 791.89,-834 741.89,-834"/>
<polygon fill="#666666" stroke="#666666" points="741.89,-818.75 741.89,-818.75 791.89,-818.75 791.89,-818.75 741.89,-818.75"/>
<polygon fill="none" stroke="#666666" points="741.89,-801.5 741.89,-851.25 791.89,-851.25 791.89,-801.5 741.89,-801.5"/>
</a>
</g>
</g>
<!-- Node8&#45;&gt;Node7 -->
<g id="edge9_Node000007_Node000008" class="edge">
<title>Node8&#45;&gt;Node7</title>
<g id="a_edge9_Node000007_Node000008"><a xlink:title=" ">
<path fill="none" stroke="#63b8ff" d="M741.93,-809.49C721.78,-796.06 693.29,-775.62 671.39,-754.25 530.27,-616.45 533.3,-548.17 397.89,-404.75 395.02,-401.71 391.98,-398.65 388.85,-395.63"/>
<polygon fill="none" stroke="#63b8ff" points="388.77,-395.55 381.66,-394.38 380,-387.36 387.12,-388.53 388.77,-395.55"/>
</a>
</g>
<text text-anchor="middle" x="685.64" y="-595.88" font-family="Helvetica,sans-Serif" font-size="10.00" fill="grey"> +keys</text>
</g>
<!-- Node12 -->
<g id="Node000012" class="node">
<title>Node12</title>
<g id="a_Node000012"><a xlink:title=" ">
<polygon fill="white" stroke="none" points="684.77,-386.75 565.02,-386.75 565.02,-325.75 684.77,-325.75 684.77,-386.75"/>
<text text-anchor="start" x="569.02" y="-373.25" font-family="Helvetica,sans-Serif" font-size="10.00">std::map&lt; std::string,</text>
<text text-anchor="start" x="569.02" y="-362" font-family="Helvetica,sans-Serif" font-size="10.00"> geojson::JSONProperty &gt;</text>
<text text-anchor="start" x="623.39" y="-346.75" font-family="Helvetica,sans-Serif" font-size="10.00"> </text>
<text text-anchor="start" x="623.39" y="-331.5" font-family="Helvetica,sans-Serif" font-size="10.00"> </text>
<polygon fill="#666666" stroke="#666666" points="565.02,-358.25 565.02,-358.25 684.77,-358.25 684.77,-358.25 565.02,-358.25"/>
<polygon fill="#666666" stroke="#666666" points="565.02,-343 565.02,-343 684.77,-343 684.77,-343 565.02,-343"/>
<polygon fill="none" stroke="#666666" points="565.02,-325.75 565.02,-386.75 684.77,-386.75 684.77,-325.75 565.02,-325.75"/>
</a>
</g>
</g>
<!-- Node8&#45;&gt;Node12 -->
<g id="edge16_Node000012_Node000008" class="edge">
<title>Node8&#45;&gt;Node12</title>
<g id="a_edge16_Node000012_Node000008"><a xlink:title=" ">
<path fill="none" stroke="#63b8ff" d="M767.29,-801.6C767.35,-734.33 760.25,-538.8 680.89,-404.75 679.13,-401.77 677.11,-398.88 674.9,-396.11"/>
<polygon fill="none" stroke="#63b8ff" points="674.92,-396.13 667.93,-394.37 666.86,-387.24 673.85,-389 674.92,-396.13"/>
</a>
</g>
<text text-anchor="middle" x="780.45" y="-595.88" font-family="Helvetica,sans-Serif" font-size="10.00" fill="grey"> +keys</text>
</g>
<!-- Node13 -->
<g id="Node000013" class="node">
<title>Node13</title>
<g id="a_Node000013"><a xlink:href="classgeojson_1_1_j_s_o_n_property.html" target="_top" xlink:title="@TODO: Convert JSONProperty into a variant of the supported types">
<polygon fill="white" stroke="none" points="1040.52,-754.25 931.27,-754.25 931.27,-445.25 1040.52,-445.25 1040.52,-754.25"/>
<text text-anchor="start" x="935.27" y="-740.75" font-family="Helvetica,sans-Serif" font-size="10.00">geojson::JSONProperty</text>
<text text-anchor="start" x="941.02" y="-725.5" font-family="Helvetica,sans-Serif" font-size="10.00">&#45;</text>
<text text-anchor="start" x="953.77" y="-725.5" font-family="Helvetica,sans-Serif" font-size="10.00">type</text>
<text text-anchor="start" x="941.02" y="-710.25" font-family="Helvetica,sans-Serif" font-size="10.00">&#45;</text>
<text text-anchor="start" x="953.77" y="-710.25" font-family="Helvetica,sans-Serif" font-size="10.00">data</text>
<text text-anchor="start" x="939.52" y="-695" font-family="Helvetica,sans-Serif" font-size="10.00">+</text>
<text text-anchor="start" x="953.77" y="-695" font-family="Helvetica,sans-Serif" font-size="10.00">JSONProperty()</text>
<text text-anchor="start" x="939.52" y="-679.75" font-family="Helvetica,sans-Serif" font-size="10.00">+</text>
<text text-anchor="start" x="953.77" y="-679.75" font-family="Helvetica,sans-Serif" font-size="10.00">JSONProperty()</text>
<text text-anchor="start" x="939.52" y="-664.5" font-family="Helvetica,sans-Serif" font-size="10.00">+</text>
<text text-anchor="start" x="953.77" y="-664.5" font-family="Helvetica,sans-Serif" font-size="10.00">JSONProperty()</text>
<text text-anchor="start" x="939.52" y="-649.25" font-family="Helvetica,sans-Serif" font-size="10.00">+</text>
<text text-anchor="start" x="953.77" y="-649.25" font-family="Helvetica,sans-Serif" font-size="10.00">JSONProperty()</text>
<text text-anchor="start" x="939.52" y="-634" font-family="Helvetica,sans-Serif" font-size="10.00">+</text>
<text text-anchor="start" x="953.77" y="-634" font-family="Helvetica,sans-Serif" font-size="10.00">JSONProperty()</text>
<text text-anchor="start" x="939.52" y="-618.75" font-family="Helvetica,sans-Serif" font-size="10.00">+</text>
<text text-anchor="start" x="953.77" y="-618.75" font-family="Helvetica,sans-Serif" font-size="10.00">JSONProperty()</text>
<text text-anchor="start" x="939.52" y="-603.5" font-family="Helvetica,sans-Serif" font-size="10.00">+</text>
<text text-anchor="start" x="953.77" y="-603.5" font-family="Helvetica,sans-Serif" font-size="10.00">JSONProperty()</text>
<text text-anchor="start" x="939.52" y="-588.25" font-family="Helvetica,sans-Serif" font-size="10.00">+</text>
<text text-anchor="start" x="953.77" y="-588.25" font-family="Helvetica,sans-Serif" font-size="10.00">JSONProperty()</text>
<text text-anchor="start" x="939.52" y="-573" font-family="Helvetica,sans-Serif" font-size="10.00">+</text>
<text text-anchor="start" x="953.77" y="-573" font-family="Helvetica,sans-Serif" font-size="10.00">JSONProperty()</text>
<text text-anchor="start" x="939.52" y="-557.75" font-family="Helvetica,sans-Serif" font-size="10.00">+</text>
<text text-anchor="start" x="953.77" y="-557.75" font-family="Helvetica,sans-Serif" font-size="10.00">JSONProperty()</text>
<text text-anchor="start" x="939.52" y="-542.5" font-family="Helvetica,sans-Serif" font-size="10.00">+</text>
<text text-anchor="start" x="953.77" y="-542.5" font-family="Helvetica,sans-Serif" font-size="10.00">JSONProperty()</text>
<text text-anchor="start" x="939.52" y="-527.25" font-family="Helvetica,sans-Serif" font-size="10.00">+</text>
<text text-anchor="start" x="953.77" y="-527.25" font-family="Helvetica,sans-Serif" font-size="10.00">~JSONProperty()</text>
<text text-anchor="start" x="939.52" y="-512" font-family="Helvetica,sans-Serif" font-size="10.00">+</text>
<text text-anchor="start" x="953.77" y="-512" font-family="Helvetica,sans-Serif" font-size="10.00">JSONProperty()</text>
<text text-anchor="start" x="939.52" y="-496.75" font-family="Helvetica,sans-Serif" font-size="10.00">+</text>
<text text-anchor="start" x="953.77" y="-496.75" font-family="Helvetica,sans-Serif" font-size="10.00">JSONProperty()</text>
<text text-anchor="start" x="939.52" y="-481.5" font-family="Helvetica,sans-Serif" font-size="10.00">+</text>
<text text-anchor="start" x="953.77" y="-481.5" font-family="Helvetica,sans-Serif" font-size="10.00">get_type()</text>
<text text-anchor="start" x="953.77" y="-466.25" font-family="Helvetica,sans-Serif" font-size="10.00">and 17 more...</text>
<text text-anchor="start" x="939.52" y="-451" font-family="Helvetica,sans-Serif" font-size="10.00">+</text>
<text text-anchor="start" x="953.77" y="-451" font-family="Helvetica,sans-Serif" font-size="10.00">print_property()</text>
<polygon fill="#666666" stroke="#666666" points="931.27,-737 931.27,-737 1040.52,-737 1040.52,-737 931.27,-737"/>
<polygon fill="#666666" stroke="#666666" points="931.27,-706.5 931.27,-706.5 951.77,-706.5 951.77,-706.5 931.27,-706.5"/>
<polygon fill="#666666" stroke="#666666" points="951.77,-706.5 951.77,-706.5 1040.52,-706.5 1040.52,-706.5 951.77,-706.5"/>
<polygon fill="none" stroke="#666666" points="931.27,-445.25 931.27,-754.25 1040.52,-754.25 1040.52,-445.25 931.27,-445.25"/>
</a>
</g>
</g>
<!-- Node8&#45;&gt;Node13 -->
<g id="edge18_Node000013_Node000008" class="edge">
<title>Node8&#45;&gt;Node13</title>
<g id="a_edge18_Node000013_Node000008"><a xlink:title=" ">
<path fill="none" stroke="#63b8ff" d="M789.92,-801.76C821.15,-769.73 878.16,-711.26 922.66,-665.61"/>
<polygon fill="none" stroke="#63b8ff" points="922.67,-665.6 923.99,-658.51 931.04,-657.01 929.72,-664.1 922.67,-665.6"/>
</a>
</g>
<text text-anchor="middle" x="824.32" y="-774" font-family="Helvetica,sans-Serif" font-size="10.00" fill="grey"> &#45;key</text>
</g>
<!-- Node14 -->
<g id="Node000014" class="node">
<title>Node14</title>
<g id="a_Node000014"><a xlink:title=" ">
<polygon fill="white" stroke="none" points="1175.89,-386.75 1077.89,-386.75 1077.89,-325.75 1175.89,-325.75 1175.89,-386.75"/>
<text text-anchor="start" x="1081.89" y="-373.25" font-family="Helvetica,sans-Serif" font-size="10.00">std::map&lt; std::string,</text>
<text text-anchor="start" x="1090.14" y="-362" font-family="Helvetica,sans-Serif" font-size="10.00"> JSONProperty &gt;</text>
<text text-anchor="start" x="1125.39" y="-346.75" font-family="Helvetica,sans-Serif" font-size="10.00"> </text>
<text text-anchor="start" x="1125.39" y="-331.5" font-family="Helvetica,sans-Serif" font-size="10.00"> </text>
<polygon fill="#666666" stroke="#666666" points="1077.89,-358.25 1077.89,-358.25 1175.89,-358.25 1175.89,-358.25 1077.89,-358.25"/>
<polygon fill="#666666" stroke="#666666" points="1077.89,-343 1077.89,-343 1175.89,-343 1175.89,-343 1077.89,-343"/>
<polygon fill="none" stroke="#666666" points="1077.89,-325.75 1077.89,-386.75 1175.89,-386.75 1175.89,-325.75 1077.89,-325.75"/>
</a>
</g>
</g>
<!-- Node8&#45;&gt;Node14 -->
<g id="edge20_Node000014_Node000008" class="edge">
<title>Node8&#45;&gt;Node14</title>
<g id="a_edge20_Node000014_Node000008"><a xlink:title=" ">
<path fill="none" stroke="#63b8ff" d="M791.84,-826.22C845.69,-826.69 974.07,-820.31 1049.89,-754.25 1168.07,-651.3 1152.01,-581.1 1181.89,-427.25 1183.8,-417.43 1186.06,-413.84 1181.89,-404.75 1180.61,-401.94 1179.07,-399.24 1177.33,-396.64"/>
<polygon fill="none" stroke="#63b8ff" points="1177.33,-396.65 1170.45,-394.48 1169.8,-387.3 1176.68,-389.46 1177.33,-396.65"/>
</a>
</g>
<text text-anchor="middle" x="1192.42" y="-595.88" font-family="Helvetica,sans-Serif" font-size="10.00" fill="grey"> +keys</text>
</g>
<!-- Node9 -->
<g id="Node000009" class="node">
<title>Node9</title>
<g id="a_Node000009"><a xlink:title=" ">
<polygon fill="white" stroke="none" points="809.14,-949.25 724.64,-949.25 724.64,-888.25 809.14,-888.25 809.14,-949.25"/>
<text text-anchor="start" x="728.64" y="-935.75" font-family="Helvetica,sans-Serif" font-size="10.00">std::basic_string&lt;</text>
<text text-anchor="start" x="751.52" y="-924.5" font-family="Helvetica,sans-Serif" font-size="10.00"> Char &gt;</text>
<text text-anchor="start" x="765.39" y="-909.25" font-family="Helvetica,sans-Serif" font-size="10.00"> </text>
<text text-anchor="start" x="765.39" y="-894" font-family="Helvetica,sans-Serif" font-size="10.00"> </text>
<polygon fill="#666666" stroke="#666666" points="724.64,-920.75 724.64,-920.75 809.14,-920.75 809.14,-920.75 724.64,-920.75"/>
<polygon fill="#666666" stroke="#666666" points="724.64,-905.5 724.64,-905.5 809.14,-905.5 809.14,-905.5 724.64,-905.5"/>
<polygon fill="none" stroke="#666666" points="724.64,-888.25 724.64,-949.25 809.14,-949.25 809.14,-888.25 724.64,-888.25"/>
</a>
</g>
</g>
<!-- Node9&#45;&gt;Node8 -->
<g id="edge10_Node000008_Node000009" class="edge">
<title>Node9&#45;&gt;Node8</title>
<g id="a_edge10_Node000008_Node000009"><a xlink:title=" ">
<path fill="none" stroke="#63b8ff" d="M766.89,-877.15C766.89,-868.19 766.89,-859 766.89,-850.98"/>
<polygon fill="none" stroke="#63b8ff" points="763.39,-877.14 766.89,-887.14 770.39,-877.14 763.39,-877.14"/>
</a>
</g>
</g>
<!-- Node10&#45;&gt;Node7 -->
<g id="edge12_Node000007_Node000010" class="edge">
<title>Node10&#45;&gt;Node7</title>
<g id="a_edge12_Node000007_Node000010"><a xlink:title=" ">
<path fill="none" stroke="orange" d="M318.25,-564.77C300.19,-525.16 277.56,-458.29 298.89,-404.75 301.46,-398.31 305.36,-392.25 309.81,-386.74"/>
<polygon fill="orange" stroke="orange" points="314.98,-566.04 322.42,-573.58 321.31,-563.04 314.98,-566.04"/>
</a>
</g>
<text text-anchor="middle" x="348.39" y="-412.12" font-family="Helvetica,sans-Serif" font-size="10.00" fill="grey"> &lt; std::string, Feature &gt;</text>
</g>
<!-- Node10&#45;&gt;Node12 -->
<g id="edge26_Node000012_Node000010" class="edge">
<title>Node10&#45;&gt;Node12</title>
<g id="a_edge26_Node000012_Node000010"><a xlink:title=" ">
<path fill="none" stroke="orange" d="M341.82,-564.11C348.84,-530.99 363.13,-480.93 389.89,-445.25 430.94,-390.53 510.02,-369.83 565.06,-362"/>
<polygon fill="orange" stroke="orange" points="338.45,-563.1 339.92,-573.59 345.31,-564.47 338.45,-563.1"/>
</a>
</g>
<text text-anchor="start" x="434.29" y="-417.75" font-family="Helvetica,sans-Serif" font-size="10.00" fill="grey"> &lt; std::string, geojson</text>
<text text-anchor="middle" x="480.04" y="-406.5" font-family="Helvetica,sans-Serif" font-size="10.00" fill="grey">::JSONProperty &gt;</text>
</g>
<!-- Node10&#45;&gt;Node14 -->
<g id="edge22_Node000014_Node000010" class="edge">
<title>Node10&#45;&gt;Node14</title>
<g id="a_edge22_Node000014_Node000010"><a xlink:title=" ">
<path fill="none" stroke="orange" d="M337.46,-563.62C341.15,-527.49 352.93,-472.74 389.89,-445.25 424.43,-419.56 735.73,-439.82 776.89,-427.25 795.3,-421.63 795.62,-410.79 813.89,-404.75 896.11,-377.56 922.52,-401.21 1007.89,-386.75 1031.19,-382.81 1056.66,-376.73 1078.03,-371.12"/>
<polygon fill="orange" stroke="orange" points="333.98,-563.33 336.63,-573.58 340.95,-563.91 333.98,-563.33"/>
</a>
</g>
<text text-anchor="middle" x="878.39" y="-412.12" font-family="Helvetica,sans-Serif" font-size="10.00" fill="grey"> &lt; std::string, JSONProperty &gt;</text>
</g>
<!-- Node11 -->
<g id="Node000011" class="node">
<title>Node11</title>
<g id="a_Node000011"><a xlink:title=" ">
<polygon fill="white" stroke="none" points="359.27,-851.25 344.52,-851.25 344.52,-801.5 359.27,-801.5 359.27,-851.25"/>
<text text-anchor="start" x="348.52" y="-837.75" font-family="Helvetica,sans-Serif" font-size="10.00">K</text>
<text text-anchor="start" x="350.39" y="-822.5" font-family="Helvetica,sans-Serif" font-size="10.00"> </text>
<text text-anchor="start" x="350.39" y="-807.25" font-family="Helvetica,sans-Serif" font-size="10.00"> </text>
<polygon fill="#666666" stroke="#666666" points="344.52,-834 344.52,-834 359.27,-834 359.27,-834 344.52,-834"/>
<polygon fill="#666666" stroke="#666666" points="344.52,-818.75 344.52,-818.75 359.27,-818.75 359.27,-818.75 344.52,-818.75"/>
<polygon fill="none" stroke="#666666" points="344.52,-801.5 344.52,-851.25 359.27,-851.25 359.27,-801.5 344.52,-801.5"/>
</a>
</g>
</g>
<!-- Node11&#45;&gt;Node10 -->
<g id="edge13_Node000010_Node000011" class="edge">
<title>Node11&#45;&gt;Node10</title>
<g id="a_edge13_Node000010_Node000011"><a xlink:title=" ">
<path fill="none" stroke="#63b8ff" d="M350.21,-801.76C347.42,-762.5 341.79,-683.52 338.48,-637.11"/>
<polygon fill="none" stroke="#63b8ff" points="338.49,-637.25 334.08,-631.55 337.64,-625.28 342.06,-630.98 338.49,-637.25"/>
</a>
</g>
<text text-anchor="middle" x="363.08" y="-774" font-family="Helvetica,sans-Serif" font-size="10.00" fill="grey"> +keys</text>
</g>
<!-- Node12&#45;&gt;Node1 -->
<g id="edge15_Node000001_Node000012" class="edge">
<title>Node12&#45;&gt;Node1</title>
<g id="a_edge15_Node000001_Node000012"><a xlink:title=" ">
<path fill="none" stroke="#63b8ff" d="M577.51,-325.81C518.95,-289.42 418.74,-227.15 350.71,-184.88"/>
<polygon fill="none" stroke="#63b8ff" points="350.62,-184.82 343.41,-185.05 340.43,-178.49 347.63,-178.25 350.62,-184.82"/>
</a>
</g>
<text text-anchor="middle" x="581.4" y="-298.25" font-family="Helvetica,sans-Serif" font-size="10.00" fill="grey"> &#45;foreign_members</text>
</g>
<!-- Node13&#45;&gt;Node12 -->
<g id="edge17_Node000012_Node000013" class="edge">
<title>Node13&#45;&gt;Node12</title>
<g id="a_edge17_Node000012_Node000013"><a xlink:title=" ">
<path fill="none" stroke="#63b8ff" d="M931.44,-566.53C877.97,-533.95 795.03,-480.89 728.89,-427.25 717.79,-418.24 717.26,-413.43 705.89,-404.75 700.84,-400.89 695.45,-397.1 689.94,-393.46"/>
<polygon fill="none" stroke="#63b8ff" points="690.12,-393.58 682.91,-393.72 680.01,-387.12 687.22,-386.98 690.12,-393.58"/>
</a>
</g>
<text text-anchor="middle" x="752.89" y="-412.12" font-family="Helvetica,sans-Serif" font-size="10.00" fill="grey"> +elements</text>
</g>
<!-- Node13&#45;&gt;Node14 -->
<g id="edge21_Node000014_Node000013" class="edge">
<title>Node13&#45;&gt;Node14</title>
<g id="a_edge21_Node000014_Node000013"><a xlink:title=" ">
<path fill="none" stroke="#63b8ff" d="M1040.43,-487.42C1055.19,-459.82 1071.83,-430.72 1088.89,-404.75 1090.65,-402.09 1092.51,-399.39 1094.44,-396.71"/>
<polygon fill="none" stroke="#63b8ff" points="1094.35,-396.83 1094.75,-389.63 1101.55,-387.23 1101.15,-394.43 1094.35,-396.83"/>
</a>
</g>
<text text-anchor="middle" x="1112.89" y="-412.12" font-family="Helvetica,sans-Serif" font-size="10.00" fill="grey"> +elements</text>
</g>
<!-- Node13&#45;&gt;Node15 -->
<g id="edge24_Node000015_Node000013" class="edge">
<title>Node13&#45;&gt;Node15</title>
<g id="a_edge24_Node000015_Node000013"><a xlink:title=" ">
<path fill="none" stroke="#63b8ff" d="M950.25,-445.68C949.35,-439.48 948.56,-433.31 947.89,-427.25 946.81,-417.31 947.58,-414.75 947.89,-404.75 947.95,-403.01 948.02,-401.23 948.09,-399.44"/>
<polygon fill="none" stroke="#63b8ff" points="948.09,-399.51 944.4,-393.32 948.7,-387.53 952.39,-393.73 948.09,-399.51"/>
</a>
</g>
<text text-anchor="middle" x="971.89" y="-412.12" font-family="Helvetica,sans-Serif" font-size="10.00" fill="grey"> +elements</text>
</g>
<!-- Node14&#45;&gt;Node13 -->
<g id="edge19_Node000013_Node000014" class="edge">
<title>Node14&#45;&gt;Node13</title>
<g id="a_edge19_Node000013_Node000014"><a xlink:title=" ">
<path fill="none" stroke="#63b8ff" d="M1139.93,-386.48C1143.82,-399.28 1145.88,-414.3 1140.89,-427.25 1122.51,-475.01 1083.99,-517.74 1049.94,-548.6"/>
<polygon fill="none" stroke="#63b8ff" points="1050.14,-548.43 1048.3,-555.4 1041.16,-556.39 1043,-549.42 1050.14,-548.43"/>
</a>
</g>
<text text-anchor="middle" x="1160.71" y="-412.12" font-family="Helvetica,sans-Serif" font-size="10.00" fill="grey"> &#45;values</text>
</g>
<!-- Node15&#45;&gt;Node13 -->
<g id="edge23_Node000013_Node000015" class="edge">
<title>Node15&#45;&gt;Node13</title>
<g id="a_edge23_Node000013_Node000015"><a xlink:title=" ">
<path fill="none" stroke="#63b8ff" d="M988.21,-386.63C992.96,-392.12 997.12,-398.2 999.89,-404.75 1003.67,-413.67 1006.42,-423.02 1008.34,-432.61"/>
<polygon fill="none" stroke="#63b8ff" points="1008.33,-432.58 1013.24,-437.87 1010.24,-444.43 1005.34,-439.14 1008.33,-432.58"/>
</a>
</g>
<text text-anchor="middle" x="1029.74" y="-412.12" font-family="Helvetica,sans-Serif" font-size="10.00" fill="grey"> &#45;value_list</text>
</g>
</g>
</svg>

<g id="navigator" transform="translate(0 0)" fill="#404254">
  <rect fill="#f2f5e9" fill-opacity="0.5" stroke="#606060" stroke-width=".5" x="0" y="0" width="60" height="60"/>
  <use id="zoomplus" xlink:href="#zoomPlus" x="17" y="9" onmousedown="handleZoom(evt,'in')"/>
  <use id="zoomminus" xlink:href="#zoomMin" x="42" y="9" onmousedown="handleZoom(evt,'out')"/>
  <use id="reset" xlink:href="#resetDef" x="30" y="36" onmousedown="handleReset()"/>
   <use id="arrowup" xlink:href="#arrowUp" x="0" y="0" onmousedown="handlePan(0,-1)"/>
  <use id="arrowright" xlink:href="#arrowRight" x="0" y="0" onmousedown="handlePan(1,0)"/>
  <use id="arrowdown" xlink:href="#arrowDown" x="0" y="0" onmousedown="handlePan(0,1)"/>
  <use id="arrowleft" xlink:href="#arrowLeft" x="0" y="0" onmousedown="handlePan(-1,0)"/>
</g>
<svg viewBox="0 0 15 15" width="100%" height="30px" preserveAspectRatio="xMaxYMin meet">
 <g id="arrow_out" transform="scale(0.3 0.3)">
  <a xlink:href="classgeojson_1_1_feature_collection__coll__graph_org.svg" target="_base">
   <rect id="button" ry="5" rx="5" y="6" x="6" height="38" width="38"
        fill="#f2f5e9" fill-opacity="0.5" stroke="#606060" stroke-width="1.0"/>
   <path id="arrow"
     d="M 11.500037,31.436501 C 11.940474,20.09759 22.043105,11.32322 32.158766,21.979434 L 37.068811,17.246167 C 37.068811,17.246167 37.088388,32 37.088388,32 L 22.160133,31.978069 C 22.160133,31.978069 26.997745,27.140456 26.997745,27.140456 C 18.528582,18.264221 13.291696,25.230495 11.500037,31.436501 z"
     style="fill:#404040;"/>
  </a>
 </g>
</svg>

<style type='text/css'>
<![CDATA[
[data-mouse-over-selected='false'] { opacity: 0.7; }
[data-mouse-over-selected='true']  { opacity: 1.0; }
]]>
</style>
<script type="application/ecmascript"><![CDATA[
document.addEventListener('DOMContentLoaded', (event) => {
  highlightEdges();
  highlightAdjacentNodes();
});
]]></script>
</svg>
