<?xml version="1.0" encoding="UTF-8" standalone="no"?>
<!DOCTYPE svg PUBLIC "-//W3C//DTD SVG 1.1//EN"
 "http://www.w3.org/Graphics/SVG/1.1/DTD/svg11.dtd">
<!-- Generated by graphviz version 3.0.0 (20221109.1736)
 -->
<!-- Title: test/core Pages: 1 -->
<svg width="334pt" height="111pt"
 viewBox="0.00 0.00 334.00 111.00" xmlns="http://www.w3.org/2000/svg" xmlns:xlink="http://www.w3.org/1999/xlink">
<g id="graph0" class="graph" transform="scale(1 1) rotate(0) translate(4 107)">
<title>test/core</title>
<polygon fill="white" stroke="transparent" points="-4,4 -4,-107 330,-107 330,4 -4,4"/>
<g id="clust1" class="cluster">
<title>clusterdir_13e138d54eb8818da29c3992edef070a</title>
<g id="a_clust1"><a xlink:href="dir_13e138d54eb8818da29c3992edef070a.html" target="_top" xlink:title="test">
<polygon fill="#edf0f7" stroke="#404040" stroke-dasharray="5,2" points="8,-8 8,-95 318,-95 318,-8 8,-8"/>
<text text-anchor="middle" x="163" y="-83" font-family="Helvetica,sans-Serif" font-size="10.00">test</text>
</a>
</g>
</g>
<g id="clust2" class="cluster">
<title>clusterdir_453640859cfc4e9268868ec6c20756ed</title>
<g id="a_clust2"><a xlink:href="dir_453640859cfc4e9268868ec6c20756ed.html" target="_top">
<polygon fill="#edf0f7" stroke="#404040" stroke-width="2" points="16,-16 16,-68 310,-68 310,-16 16,-16"/>
</a>
</g>
</g>
<!-- dir_453640859cfc4e9268868ec6c20756ed -->
<g id="node1" class="node">
<title>dir_453640859cfc4e9268868ec6c20756ed</title>
<text text-anchor="middle" x="275" y="-39.5" font-family="Helvetica,sans-Serif" font-size="10.00">core</text>
</g>
<!-- dir_2f75d09b94964f36ec2fb1257e634315 -->
<g id="node2" class="node">
<title>dir_2f75d09b94964f36ec2fb1257e634315</title>
<g id="a_node2"><a xlink:href="dir_2f75d09b94964f36ec2fb1257e634315.html" target="_top" xlink:title="catchment">
<polygon fill="#a2b4d6" stroke="#404040" points="230,-60 168,-60 168,-24 230,-24 230,-60"/>
<text text-anchor="middle" x="199" y="-39.5" font-family="Helvetica,sans-Serif" font-size="10.00">catchment</text>
</a>
</g>
</g>
<!-- dir_bbec9111c9aa9e6b087277fe2118a922 -->
<g id="node3" class="node">
<title>dir_bbec9111c9aa9e6b087277fe2118a922</title>
<g id="a_node3"><a xlink:href="dir_bbec9111c9aa9e6b087277fe2118a922.html" target="_top" xlink:title="mediator">
<polygon fill="#a2b4d6" stroke="#404040" points="150,-60 96,-60 96,-24 150,-24 150,-60"/>
<text text-anchor="middle" x="123" y="-39.5" font-family="Helvetica,sans-Serif" font-size="10.00">mediator</text>
</a>
</g>
</g>
<!-- dir_84b1212f0fba800e0394fab1e2815654 -->
<g id="node4" class="node">
<title>dir_84b1212f0fba800e0394fab1e2815654</title>
<g id="a_node4"><a xlink:href="dir_84b1212f0fba800e0394fab1e2815654.html" target="_top" xlink:title="nexus">
<polygon fill="#a2b4d6" stroke="#404040" points="78,-60 24,-60 24,-24 78,-24 78,-60"/>
<text text-anchor="middle" x="51" y="-39.5" font-family="Helvetica,sans-Serif" font-size="10.00">nexus</text>
</a>
</g>
</g>
</g>
</svg>
