<?xml version="1.0" encoding="UTF-8" standalone="no"?>
<!DOCTYPE svg PUBLIC "-//W3C//DTD SVG 1.1//EN"
 "http://www.w3.org/Graphics/SVG/1.1/DTD/svg11.dtd">
<!-- Generated by graphviz version 7.0.5 (20221223.1930)
 -->
<!-- Title: Graphical Class Hierarchy Pages: 1 -->
<svg width="1094pt" height="350pt"
 viewBox="0.00 0.00 1094.00 350.00" xmlns="http://www.w3.org/2000/svg" xmlns:xlink="http://www.w3.org/1999/xlink">
<g id="graph0" class="graph" transform="scale(1 1) rotate(0) translate(4 346)">
<title>Graphical Class Hierarchy</title>
<!-- Node0 -->
<g id="node1" class="node">
<title>Node0</title>
<g id="a_node1"><a xlink:href="classdata__access_1_1_data_provider.html" target="_top" xlink:title=" ">
<polygon fill="white" stroke="#666666" points="358,-301 167,-301 167,-271 358,-271 358,-301"/>
<text text-anchor="start" x="175" y="-289" font-family="Helvetica,sans-Serif" font-size="10.00">data_access::DataProvider</text>
<text text-anchor="middle" x="262.5" y="-278" font-family="Helvetica,sans-Serif" font-size="10.00">&lt; double, CatchmentAggrDataSelector &gt;</text>
</a>
</g>
</g>
<!-- Node1 -->
<g id="node2" class="node">
<title>Node1</title>
<g id="a_node2"><a xlink:href="classdata__access_1_1_generic_data_provider.html" target="_top" xlink:title=" ">
<polygon fill="white" stroke="#666666" points="525,-300 394,-300 394,-270 525,-270 525,-300"/>
<text text-anchor="start" x="402" y="-288" font-family="Helvetica,sans-Serif" font-size="10.00">data_access::GenericData</text>
<text text-anchor="middle" x="459.5" y="-277" font-family="Helvetica,sans-Serif" font-size="10.00">Provider</text>
</a>
</g>
</g>
<!-- Node0&#45;&gt;Node1 -->
<g id="edge1" class="edge">
<title>Node0&#45;&gt;Node1</title>
<path fill="none" stroke="#63b8ff" d="M369.87,-285.45C377.94,-285.41 385.93,-285.37 393.61,-285.33"/>
<polygon fill="#63b8ff" stroke="#63b8ff" points="369.92,-281.95 359.94,-285.51 369.96,-288.95 369.92,-281.95"/>
</g>
<!-- Node2 -->
<g id="node3" class="node">
<title>Node2</title>
<g id="a_node3"><a xlink:href="class_csv_per_feature_forcing_provider.html" target="_top" xlink:title="Forcing class providing time&#45;series precipiation forcing data to the model.">
<polygon fill="white" stroke="#666666" points="711,-293.5 561,-293.5 561,-274.5 711,-274.5 711,-293.5"/>
<text text-anchor="middle" x="636" y="-281.5" font-family="Helvetica,sans-Serif" font-size="10.00">CsvPerFeatureForcingProvider</text>
</a>
</g>
</g>
<!-- Node1&#45;&gt;Node2 -->
<g id="edge2" class="edge">
<title>Node1&#45;&gt;Node2</title>
<path fill="none" stroke="#63b8ff" d="M536.88,-284.56C544.74,-284.52 552.72,-284.47 560.56,-284.43"/>
<polygon fill="#63b8ff" stroke="#63b8ff" points="536.97,-281.06 526.99,-284.62 537.01,-288.06 536.97,-281.06"/>
</g>
<!-- Node3 -->
<g id="node4" class="node">
<title>Node3</title>
<g id="a_node4"><a xlink:href="classdata__access_1_1_wrapped_data_provider.html" target="_top" xlink:title="Simple implementation that basically wraps another instance.">
<polygon fill="white" stroke="#666666" points="703.5,-342 568.5,-342 568.5,-312 703.5,-312 703.5,-342"/>
<text text-anchor="start" x="576.5" y="-330" font-family="Helvetica,sans-Serif" font-size="10.00">data_access::WrappedData</text>
<text text-anchor="middle" x="636" y="-319" font-family="Helvetica,sans-Serif" font-size="10.00">Provider</text>
</a>
</g>
</g>
<!-- Node1&#45;&gt;Node3 -->
<g id="edge3" class="edge">
<title>Node1&#45;&gt;Node3</title>
<path fill="none" stroke="#63b8ff" d="M535.59,-303.07C547.29,-305.89 559.29,-308.78 570.73,-311.53"/>
<polygon fill="#63b8ff" stroke="#63b8ff" points="536.5,-299.69 525.96,-300.75 534.86,-306.5 536.5,-299.69"/>
</g>
<!-- Node6 -->
<g id="node7" class="node">
<title>Node6</title>
<g id="a_node7"><a xlink:href="classrealization_1_1_bmi___formulation.html" target="_top" xlink:title="Abstraction of formulation with backing model object(s) that implements the BMI.">
<polygon fill="white" stroke="#666666" points="705,-222.5 567,-222.5 567,-203.5 705,-203.5 705,-222.5"/>
<text text-anchor="middle" x="636" y="-210.5" font-family="Helvetica,sans-Serif" font-size="10.00">realization::Bmi_Formulation</text>
</a>
</g>
</g>
<!-- Node1&#45;&gt;Node6 -->
<g id="edge6" class="edge">
<title>Node1&#45;&gt;Node6</title>
<path fill="none" stroke="#63b8ff" d="M508.34,-265.26C541.55,-251.56 584.4,-233.88 610.77,-223"/>
<polygon fill="#63b8ff" stroke="#63b8ff" points="507.24,-261.93 499.33,-268.98 509.91,-268.4 507.24,-261.93"/>
</g>
<!-- Node4 -->
<g id="node5" class="node">
<title>Node4</title>
<g id="a_node5"><a xlink:href="classdata__access_1_1_deferred_wrapped_provider.html" target="_top" xlink:title="A specialized @WrappedDataProvider that is created without first knowing the backing source it wraps.">
<polygon fill="white" stroke="#666666" points="899,-342 747,-342 747,-312 899,-312 899,-342"/>
<text text-anchor="start" x="755" y="-330" font-family="Helvetica,sans-Serif" font-size="10.00">data_access::DeferredWrapped</text>
<text text-anchor="middle" x="823" y="-319" font-family="Helvetica,sans-Serif" font-size="10.00">Provider</text>
</a>
</g>
</g>
<!-- Node3&#45;&gt;Node4 -->
<g id="edge4" class="edge">
<title>Node3&#45;&gt;Node4</title>
<path fill="none" stroke="#63b8ff" d="M714.99,-327C725.43,-327 736.12,-327 746.52,-327"/>
<polygon fill="#63b8ff" stroke="#63b8ff" points="715.3,-323.5 705.3,-327 715.3,-330.5 715.3,-323.5"/>
</g>
<!-- Node5 -->
<g id="node6" class="node">
<title>Node5</title>
<g id="a_node6"><a xlink:href="classdata__access_1_1_optional_wrapped_data_provider.html" target="_top" xlink:title="Extension of DeferredWrappedProvider, where default values can be used instead of a backing provider.">
<polygon fill="white" stroke="#666666" points="1086,-342 935,-342 935,-312 1086,-312 1086,-342"/>
<text text-anchor="start" x="943" y="-330" font-family="Helvetica,sans-Serif" font-size="10.00">data_access::OptionalWrapped</text>
<text text-anchor="middle" x="1010.5" y="-319" font-family="Helvetica,sans-Serif" font-size="10.00">DataProvider</text>
</a>
</g>
</g>
<!-- Node4&#45;&gt;Node5 -->
<g id="edge5" class="edge">
<title>Node4&#45;&gt;Node5</title>
<path fill="none" stroke="#63b8ff" d="M910.72,-327C918.74,-327 926.82,-327 934.72,-327"/>
<polygon fill="#63b8ff" stroke="#63b8ff" points="910.96,-323.5 900.96,-327 910.96,-330.5 910.96,-323.5"/>
</g>
<!-- Node7 -->
<g id="node8" class="node">
<title>Node7</title>
<g id="a_node8"><a xlink:href="classrealization_1_1_bmi___module___formulation.html" target="_top" xlink:title=" ">
<polygon fill="white" stroke="#666666" points="882.5,-133.5 763.5,-133.5 763.5,-92.5 882.5,-92.5 882.5,-133.5"/>
<text text-anchor="start" x="771.5" y="-121.5" font-family="Helvetica,sans-Serif" font-size="10.00">realization::Bmi_Module</text>
<text text-anchor="start" x="771.5" y="-110.5" font-family="Helvetica,sans-Serif" font-size="10.00">_Formulation&lt; models::</text>
<text text-anchor="middle" x="823" y="-99.5" font-family="Helvetica,sans-Serif" font-size="10.00">bmi::Bmi_C_Adapter &gt;</text>
</a>
</g>
</g>
<!-- Node6&#45;&gt;Node7 -->
<g id="edge7" class="edge">
<title>Node6&#45;&gt;Node7</title>
<path fill="none" stroke="#63b8ff" d="M660.11,-196.5C681.87,-181.4 715.7,-159.04 747,-143 753.12,-139.87 759.64,-136.83 766.19,-133.98"/>
<polygon fill="#63b8ff" stroke="#63b8ff" points="658.16,-193.59 651.98,-202.2 662.18,-199.32 658.16,-193.59"/>
</g>
<!-- Node9 -->
<g id="node10" class="node">
<title>Node9</title>
<g id="a_node10"><a xlink:href="classrealization_1_1_bmi___module___formulation.html" target="_top" xlink:title=" ">
<polygon fill="white" stroke="#666666" points="885,-289.5 761,-289.5 761,-248.5 885,-248.5 885,-289.5"/>
<text text-anchor="start" x="769" y="-277.5" font-family="Helvetica,sans-Serif" font-size="10.00">realization::Bmi_Module</text>
<text text-anchor="start" x="769" y="-266.5" font-family="Helvetica,sans-Serif" font-size="10.00">_Formulation&lt; models::</text>
<text text-anchor="middle" x="823" y="-255.5" font-family="Helvetica,sans-Serif" font-size="10.00">bmi::Bmi_Cpp_Adapter &gt;</text>
</a>
</g>
</g>
<!-- Node6&#45;&gt;Node9 -->
<g id="edge9" class="edge">
<title>Node6&#45;&gt;Node9</title>
<path fill="none" stroke="#63b8ff" d="M680.48,-226.16C704.34,-233.38 734.31,-242.46 760.52,-250.39"/>
<polygon fill="#63b8ff" stroke="#63b8ff" points="681.68,-222.87 671.1,-223.32 679.65,-229.57 681.68,-222.87"/>
</g>
<!-- Node11 -->
<g id="node12" class="node">
<title>Node11</title>
<g id="a_node12"><a xlink:href="classrealization_1_1_bmi___module___formulation.html" target="_top" xlink:title="Abstraction of a formulation with a single backing model object that implements the BMI.">
<polygon fill="white" stroke="#666666" points="882.5,-230 763.5,-230 763.5,-200 882.5,-200 882.5,-230"/>
<text text-anchor="start" x="771.5" y="-218" font-family="Helvetica,sans-Serif" font-size="10.00">realization::Bmi_Module</text>
<text text-anchor="middle" x="823" y="-207" font-family="Helvetica,sans-Serif" font-size="10.00">_Formulation&lt; M &gt;</text>
</a>
</g>
</g>
<!-- Node6&#45;&gt;Node11 -->
<g id="edge11" class="edge">
<title>Node6&#45;&gt;Node11</title>
<path fill="none" stroke="#63b8ff" d="M716.6,-213.86C732.19,-214.03 748.28,-214.2 763.04,-214.36"/>
<polygon fill="#63b8ff" stroke="#63b8ff" points="716.91,-210.36 706.88,-213.76 716.84,-217.36 716.91,-210.36"/>
</g>
<!-- Node12 -->
<g id="node13" class="node">
<title>Node12</title>
<g id="a_node13"><a xlink:href="classrealization_1_1_bmi___multi___formulation.html" target="_top" xlink:title="Abstraction of a formulation with multiple backing model object that implements the BMI.">
<polygon fill="white" stroke="#666666" points="877,-182 769,-182 769,-152 877,-152 877,-182"/>
<text text-anchor="start" x="777" y="-170" font-family="Helvetica,sans-Serif" font-size="10.00">realization::Bmi_Multi</text>
<text text-anchor="middle" x="823" y="-159" font-family="Helvetica,sans-Serif" font-size="10.00">_Formulation</text>
</a>
</g>
</g>
<!-- Node6&#45;&gt;Node12 -->
<g id="edge12" class="edge">
<title>Node6&#45;&gt;Node12</title>
<path fill="none" stroke="#63b8ff" d="M688.24,-200.26C713.24,-194.04 743.3,-186.57 768.59,-180.28"/>
<polygon fill="#63b8ff" stroke="#63b8ff" points="687.47,-196.84 678.61,-202.65 689.16,-203.64 687.47,-196.84"/>
</g>
<!-- Node8 -->
<g id="node9" class="node">
<title>Node8</title>
<g id="a_node9"><a xlink:href="classrealization_1_1_bmi___c___formulation.html" target="_top" xlink:title=" ">
<polygon fill="white" stroke="#666666" points="1057.5,-128 963.5,-128 963.5,-98 1057.5,-98 1057.5,-128"/>
<text text-anchor="start" x="971.5" y="-116" font-family="Helvetica,sans-Serif" font-size="10.00">realization::Bmi_C</text>
<text text-anchor="middle" x="1010.5" y="-105" font-family="Helvetica,sans-Serif" font-size="10.00">_Formulation</text>
</a>
</g>
</g>
<!-- Node7&#45;&gt;Node8 -->
<g id="edge8" class="edge">
<title>Node7&#45;&gt;Node8</title>
<path fill="none" stroke="#63b8ff" d="M894.4,-113C917.37,-113 942.3,-113 963.06,-113"/>
<polygon fill="#63b8ff" stroke="#63b8ff" points="894.46,-109.5 884.46,-113 894.46,-116.5 894.46,-109.5"/>
</g>
<!-- Node10 -->
<g id="node11" class="node">
<title>Node10</title>
<g id="a_node11"><a xlink:href="classrealization_1_1_bmi___cpp___formulation.html" target="_top" xlink:title="Encapsulates a bmi::Bmi model in C++ such that it can be loaded as a formulation, as such also so tha...">
<polygon fill="white" stroke="#666666" points="1062.5,-284 958.5,-284 958.5,-254 1062.5,-254 1062.5,-284"/>
<text text-anchor="start" x="966.5" y="-272" font-family="Helvetica,sans-Serif" font-size="10.00">realization::Bmi_Cpp</text>
<text text-anchor="middle" x="1010.5" y="-261" font-family="Helvetica,sans-Serif" font-size="10.00">_Formulation</text>
</a>
</g>
</g>
<!-- Node9&#45;&gt;Node10 -->
<g id="edge10" class="edge">
<title>Node9&#45;&gt;Node10</title>
<path fill="none" stroke="#63b8ff" d="M896.53,-269C917.15,-269 939.16,-269 958.23,-269"/>
<polygon fill="#63b8ff" stroke="#63b8ff" points="896.77,-265.5 886.77,-269 896.77,-272.5 896.77,-265.5"/>
</g>
<!-- Node15 -->
<g id="node14" class="node">
<title>Node15</title>
<g id="a_node14"><a xlink:href="class_g_m___object.html" target="_top" xlink:title=" ">
<polygon fill="white" stroke="#666666" points="98.5,-104.5 32.5,-104.5 32.5,-85.5 98.5,-85.5 98.5,-104.5"/>
<text text-anchor="middle" x="65.5" y="-92.5" font-family="Helvetica,sans-Serif" font-size="10.00">GM_Object</text>
</a>
</g>
</g>
<!-- Node14 -->
<g id="node15" class="node">
<title>Node14</title>
<g id="a_node15"><a xlink:href="class_h_y___catchment_area.html" target="_top" xlink:title=" ">
<polygon fill="white" stroke="#666666" points="314.5,-141.5 210.5,-141.5 210.5,-122.5 314.5,-122.5 314.5,-141.5"/>
<text text-anchor="middle" x="262.5" y="-129.5" font-family="Helvetica,sans-Serif" font-size="10.00">HY_CatchmentArea</text>
</a>
</g>
</g>
<!-- Node15&#45;&gt;Node14 -->
<g id="edge13" class="edge">
<title>Node15&#45;&gt;Node14</title>
<path fill="none" stroke="#63b8ff" d="M109.95,-103.24C139.59,-108.87 178.98,-116.34 210.17,-122.26"/>
<polygon fill="#63b8ff" stroke="#63b8ff" points="110.66,-99.82 100.19,-101.39 109.36,-106.69 110.66,-99.82"/>
</g>
<!-- Node16 -->
<g id="node17" class="node">
<title>Node16</title>
<g id="a_node17"><a xlink:href="class_h_y___catchment_divide.html" target="_top" xlink:title=" ">
<polygon fill="white" stroke="#666666" points="317.5,-67.5 207.5,-67.5 207.5,-48.5 317.5,-48.5 317.5,-67.5"/>
<text text-anchor="middle" x="262.5" y="-55.5" font-family="Helvetica,sans-Serif" font-size="10.00">HY_CatchmentDivide</text>
</a>
</g>
</g>
<!-- Node15&#45;&gt;Node16 -->
<g id="edge16" class="edge">
<title>Node15&#45;&gt;Node16</title>
<path fill="none" stroke="#63b8ff" d="M109.82,-86.78C139.12,-81.22 177.98,-73.85 209.03,-67.96"/>
<polygon fill="#63b8ff" stroke="#63b8ff" points="109.36,-83.31 100.19,-88.61 110.66,-90.18 109.36,-83.31"/>
</g>
<!-- Node19 -->
<g id="node18" class="node">
<title>Node19</title>
<g id="a_node18"><a xlink:href="class_h_y___flow_path.html" target="_top" xlink:title=" ">
<polygon fill="white" stroke="#666666" points="301,-178.5 224,-178.5 224,-159.5 301,-159.5 301,-178.5"/>
<text text-anchor="middle" x="262.5" y="-166.5" font-family="Helvetica,sans-Serif" font-size="10.00">HY_FlowPath</text>
</a>
</g>
</g>
<!-- Node15&#45;&gt;Node19 -->
<g id="edge17" class="edge">
<title>Node15&#45;&gt;Node19</title>
<path fill="none" stroke="#63b8ff" d="M109.54,-103.5C116.99,-105.94 124.44,-109.05 131,-113 150.93,-125.01 146.59,-139.84 167,-151 184.29,-160.45 205.72,-165.02 223.8,-167.19"/>
<polygon fill="#63b8ff" stroke="#63b8ff" points="110.76,-100.21 100.18,-100.81 108.82,-106.94 110.76,-100.21"/>
</g>
<!-- Node20 -->
<g id="node19" class="node">
<title>Node20</title>
<g id="a_node19"><a xlink:href="class_h_y___hydro_network.html" target="_top" xlink:title=" ">
<polygon fill="white" stroke="#666666" points="311.5,-104.5 213.5,-104.5 213.5,-85.5 311.5,-85.5 311.5,-104.5"/>
<text text-anchor="middle" x="262.5" y="-92.5" font-family="Helvetica,sans-Serif" font-size="10.00">HY_HydroNetwork</text>
</a>
</g>
</g>
<!-- Node15&#45;&gt;Node20 -->
<g id="edge18" class="edge">
<title>Node15&#45;&gt;Node20</title>
<path fill="none" stroke="#63b8ff" d="M109.88,-95C140.49,-95 181.52,-95 213.17,-95"/>
<polygon fill="#63b8ff" stroke="#63b8ff" points="110.21,-91.5 100.21,-95 110.21,-98.5 110.21,-91.5"/>
</g>
<!-- Node21 -->
<g id="node20" class="node">
<title>Node21</title>
<g id="a_node20"><a xlink:href="classhy__features_1_1hydrolocation_1_1_h_y___hydro_location.html" target="_top" xlink:title=" ">
<polygon fill="white" stroke="#666666" points="326.5,-30 198.5,-30 198.5,0 326.5,0 326.5,-30"/>
<text text-anchor="start" x="206.5" y="-18" font-family="Helvetica,sans-Serif" font-size="10.00">hy_features::hydrolocation</text>
<text text-anchor="middle" x="262.5" y="-7" font-family="Helvetica,sans-Serif" font-size="10.00">::HY_HydroLocation</text>
</a>
</g>
</g>
<!-- Node15&#45;&gt;Node21 -->
<g id="edge19" class="edge">
<title>Node15&#45;&gt;Node21</title>
<path fill="none" stroke="#63b8ff" d="M90.68,-79.17C110.5,-66.78 139.66,-49.87 167,-39 176.91,-35.06 187.66,-31.6 198.25,-28.63"/>
<polygon fill="#63b8ff" stroke="#63b8ff" points="89.06,-76.05 82.49,-84.37 92.81,-81.96 89.06,-76.05"/>
</g>
<!-- Node13 -->
<g id="node16" class="node">
<title>Node13</title>
<g id="a_node16"><a xlink:href="classrealization_1_1_catchment___formulation.html" target="_top" xlink:title=" ">
<polygon fill="white" stroke="#666666" points="515.5,-221 403.5,-221 403.5,-191 515.5,-191 515.5,-221"/>
<text text-anchor="start" x="411.5" y="-209" font-family="Helvetica,sans-Serif" font-size="10.00">realization::Catchment</text>
<text text-anchor="middle" x="459.5" y="-198" font-family="Helvetica,sans-Serif" font-size="10.00">_Formulation</text>
</a>
</g>
</g>
<!-- Node14&#45;&gt;Node13 -->
<g id="edge14" class="edge">
<title>Node14&#45;&gt;Node13</title>
<path fill="none" stroke="#63b8ff" d="M325.97,-141.78C336.81,-144.26 347.85,-147.3 358,-151 385.84,-161.15 415.32,-178.12 435.1,-190.53"/>
<polygon fill="#63b8ff" stroke="#63b8ff" points="326.78,-138.37 316.27,-139.71 325.32,-145.22 326.78,-138.37"/>
</g>
<!-- Node13&#45;&gt;Node6 -->
<g id="edge15" class="edge">
<title>Node13&#45;&gt;Node6</title>
<path fill="none" stroke="#63b8ff" d="M526.94,-208.67C539.94,-209.19 553.6,-209.73 566.66,-210.26"/>
<polygon fill="#63b8ff" stroke="#63b8ff" points="527.36,-205.18 517.23,-208.28 527.08,-212.17 527.36,-205.18"/>
</g>
<!-- Node17 -->
<g id="node21" class="node">
<title>Node17</title>
<g id="a_node21"><a xlink:href="class_h_y___catchment_realization.html" target="_top" xlink:title=" ">
<polygon fill="white" stroke="#666666" points="131,-141.5 0,-141.5 0,-122.5 131,-122.5 131,-141.5"/>
<text text-anchor="middle" x="65.5" y="-129.5" font-family="Helvetica,sans-Serif" font-size="10.00">HY_CatchmentRealization</text>
</a>
</g>
</g>
<!-- Node17&#45;&gt;Node14 -->
<g id="edge21" class="edge">
<title>Node17&#45;&gt;Node14</title>
<path fill="none" stroke="#63b8ff" d="M142.72,-132C165.3,-132 189.48,-132 210.1,-132"/>
<polygon fill="#63b8ff" stroke="#63b8ff" points="142.95,-128.5 132.95,-132 142.95,-135.5 142.95,-128.5"/>
</g>
<!-- Node17&#45;&gt;Node16 -->
<g id="edge22" class="edge">
<title>Node17&#45;&gt;Node16</title>
<path fill="none" stroke="#63b8ff" d="M121.85,-117.81C125.02,-116.35 128.09,-114.75 131,-113 150.65,-101.15 146.8,-86.87 167,-76 179.21,-69.43 193.43,-65.23 207.08,-62.55"/>
<polygon fill="#63b8ff" stroke="#63b8ff" points="120.84,-114.44 112.89,-121.44 123.47,-120.93 120.84,-114.44"/>
</g>
<!-- Node17&#45;&gt;Node19 -->
<g id="edge23" class="edge">
<title>Node17&#45;&gt;Node19</title>
<path fill="none" stroke="#63b8ff" d="M130.15,-144.08C161.08,-149.95 197.21,-156.8 223.74,-161.83"/>
<polygon fill="#63b8ff" stroke="#63b8ff" points="130.98,-140.67 120.5,-142.25 129.67,-147.55 130.98,-140.67"/>
</g>
<!-- Node17&#45;&gt;Node20 -->
<g id="edge24" class="edge">
<title>Node17&#45;&gt;Node20</title>
<path fill="none" stroke="#63b8ff" d="M130.31,-119.89C157.29,-114.77 188.2,-108.91 213.24,-104.16"/>
<polygon fill="#63b8ff" stroke="#63b8ff" points="129.67,-116.45 120.5,-121.75 130.98,-123.33 129.67,-116.45"/>
</g>
<!-- Node18 -->
<g id="node22" class="node">
<title>Node18</title>
<g id="a_node22"><a xlink:href="class_h_y___cartographic_realization.html" target="_top" xlink:title=" ">
<polygon fill="white" stroke="#666666" points="331.5,-252.5 193.5,-252.5 193.5,-233.5 331.5,-233.5 331.5,-252.5"/>
<text text-anchor="middle" x="262.5" y="-240.5" font-family="Helvetica,sans-Serif" font-size="10.00">HY_CartographicRealization</text>
</a>
</g>
</g>
<!-- Node17&#45;&gt;Node18 -->
<g id="edge20" class="edge">
<title>Node17&#45;&gt;Node18</title>
<path fill="none" stroke="#63b8ff" d="M80.97,-150.61C98.79,-172.12 131.11,-206.89 167,-225 175.2,-229.14 184.24,-232.33 193.38,-234.79"/>
<polygon fill="#63b8ff" stroke="#63b8ff" points="83.8,-148.54 74.8,-142.95 78.35,-152.93 83.8,-148.54"/>
</g>
<!-- Node22 -->
<g id="node23" class="node">
<title>Node22</title>
<g id="a_node23"><a xlink:href="classrealization_1_1_formulation.html" target="_top" xlink:title=" ">
<polygon fill="white" stroke="#666666" points="320.5,-215.5 204.5,-215.5 204.5,-196.5 320.5,-196.5 320.5,-215.5"/>
<text text-anchor="middle" x="262.5" y="-203.5" font-family="Helvetica,sans-Serif" font-size="10.00">realization::Formulation</text>
</a>
</g>
</g>
<!-- Node22&#45;&gt;Node13 -->
<g id="edge25" class="edge">
<title>Node22&#45;&gt;Node13</title>
<path fill="none" stroke="#63b8ff" d="M332.46,-206C355.63,-206 381.15,-206 403.13,-206"/>
<polygon fill="#63b8ff" stroke="#63b8ff" points="332.47,-202.5 322.47,-206 332.47,-209.5 332.47,-202.5"/>
</g>
</g>
</svg>
