<?xml version="1.0" encoding="UTF-8" standalone="no"?>
<!DOCTYPE svg PUBLIC "-//W3C//DTD SVG 1.1//EN"
 "http://www.w3.org/Graphics/SVG/1.1/DTD/svg11.dtd">
<!-- Generated by graphviz version 2.44.0 ()
 -->
<!-- Title: Graphical Class Hierarchy Pages: 1 -->
<svg width="554pt" height="88pt"
 viewBox="0.00 0.00 554.00 88.00" xmlns="http://www.w3.org/2000/svg" xmlns:xlink="http://www.w3.org/1999/xlink">
<g id="graph0" class="graph" transform="scale(1 1) rotate(0) translate(4 84)">
<title>Graphical Class Hierarchy</title>
<polygon fill="white" stroke="transparent" points="-4,4 -4,-84 550,-84 550,4 -4,4"/>
<!-- Node0 -->
<g id="node1" class="node">
<title>Node0</title>
<g id="a_node1"><a xlink:href="classbmi_1_1_bmi.html" target="_top" xlink:title=" ">
<polygon fill="white" stroke="black" points="0,-30 0,-49 54,-49 54,-30 0,-30"/>
<text text-anchor="middle" x="27" y="-37" font-family="Helvetica,sans-Serif" font-size="10.00">bmi::Bmi</text>
</a>
</g>
</g>
<!-- Node1 -->
<g id="node2" class="node">
<title>Node1</title>
<g id="a_node2"><a xlink:href="classmodels_1_1bmi_1_1_bmi___adapter.html" target="_top" xlink:title=" ">
<polygon fill="white" stroke="black" points="90,-52 90,-71 242,-71 242,-52 90,-52"/>
<text text-anchor="middle" x="166" y="-59" font-family="Helvetica,sans-Serif" font-size="10.00">models::bmi::Bmi_Adapter&lt; C &gt;</text>
</a>
</g>
</g>
<!-- Node0&#45;&gt;Node1 -->
<g id="edge1" class="edge">
<title>Node0&#45;&gt;Node1</title>
<path fill="none" stroke="midnightblue" d="M64.28,-45.33C77.01,-47.37 91.67,-49.72 105.79,-51.99"/>
<polygon fill="midnightblue" stroke="midnightblue" points="64.52,-41.82 54.09,-43.69 63.41,-48.73 64.52,-41.82"/>
</g>
<!-- Node3 -->
<g id="node4" class="node">
<title>Node3</title>
<g id="a_node4"><a xlink:href="classmodels_1_1bmi_1_1_bmi___adapter.html" target="_top" xlink:title="Abstract adapter interface for C++ classes to interact with the essential aspects of external models ...">
<polygon fill="white" stroke="black" points="90,-11 90,-30 242,-30 242,-11 90,-11"/>
<text text-anchor="middle" x="166" y="-18" font-family="Helvetica,sans-Serif" font-size="10.00">models::bmi::Bmi_Adapter&lt; T &gt;</text>
</a>
</g>
</g>
<!-- Node0&#45;&gt;Node3 -->
<g id="edge3" class="edge">
<title>Node0&#45;&gt;Node3</title>
<path fill="none" stroke="midnightblue" d="M64.31,-34.46C74.19,-33.09 85.22,-31.56 96.27,-30.03"/>
<polygon fill="midnightblue" stroke="midnightblue" points="63.52,-31.04 54.09,-35.88 64.48,-37.97 63.52,-31.04"/>
</g>
<!-- Node2 -->
<g id="node3" class="node">
<title>Node2</title>
<g id="a_node3"><a xlink:href="classmodels_1_1bmi_1_1_abstract_c_lib_bmi_adapter.html" target="_top" xlink:title=" ">
<polygon fill="white" stroke="black" points="278,-49.5 278,-79.5 408,-79.5 408,-49.5 278,-49.5"/>
<text text-anchor="start" x="286" y="-67.5" font-family="Helvetica,sans-Serif" font-size="10.00">models::bmi::AbstractCLib</text>
<text text-anchor="middle" x="343" y="-56.5" font-family="Helvetica,sans-Serif" font-size="10.00">BmiAdapter&lt; C &gt;</text>
</a>
</g>
</g>
<!-- Node1&#45;&gt;Node2 -->
<g id="edge2" class="edge">
<title>Node1&#45;&gt;Node2</title>
<path fill="none" stroke="midnightblue" d="M252.29,-62.96C260.89,-63.11 269.51,-63.26 277.83,-63.4"/>
<polygon fill="midnightblue" stroke="midnightblue" points="252.29,-59.46 242.23,-62.79 252.17,-66.46 252.29,-59.46"/>
</g>
<!-- Node4 -->
<g id="node5" class="node">
<title>Node4</title>
<g id="a_node5"><a xlink:href="classmodels_1_1bmi_1_1_abstract_c_lib_bmi_adapter.html" target="_top" xlink:title=" ">
<polygon fill="white" stroke="black" points="278,-0.5 278,-30.5 408,-30.5 408,-0.5 278,-0.5"/>
<text text-anchor="start" x="286" y="-18.5" font-family="Helvetica,sans-Serif" font-size="10.00">models::bmi::AbstractCLib</text>
<text text-anchor="middle" x="343" y="-7.5" font-family="Helvetica,sans-Serif" font-size="10.00">BmiAdapter&lt; C_Bmi &gt;</text>
</a>
</g>
</g>
<!-- Node3&#45;&gt;Node4 -->
<g id="edge4" class="edge">
<title>Node3&#45;&gt;Node4</title>
<path fill="none" stroke="midnightblue" d="M252.29,-18.06C260.89,-17.82 269.51,-17.57 277.83,-17.33"/>
<polygon fill="midnightblue" stroke="midnightblue" points="252.13,-14.57 242.23,-18.35 252.33,-21.56 252.13,-14.57"/>
</g>
<!-- Node5 -->
<g id="node6" class="node">
<title>Node5</title>
<g id="a_node6"><a xlink:href="classmodels_1_1bmi_1_1_bmi___c___adapter.html" target="_top" xlink:title="An adapter class to serve as a C++ interface to the essential aspects of external models written in t...">
<polygon fill="white" stroke="black" points="444,-0.5 444,-30.5 546,-30.5 546,-0.5 444,-0.5"/>
<text text-anchor="start" x="452" y="-18.5" font-family="Helvetica,sans-Serif" font-size="10.00">models::bmi::Bmi_C</text>
<text text-anchor="middle" x="495" y="-7.5" font-family="Helvetica,sans-Serif" font-size="10.00">_Adapter</text>
</a>
</g>
</g>
<!-- Node4&#45;&gt;Node5 -->
<g id="edge5" class="edge">
<title>Node4&#45;&gt;Node5</title>
<path fill="none" stroke="midnightblue" d="M418.19,-15.5C426.86,-15.5 435.54,-15.5 443.77,-15.5"/>
<polygon fill="midnightblue" stroke="midnightblue" points="418.05,-12 408.05,-15.5 418.05,-19 418.05,-12"/>
</g>
</g>
</svg>
