<?xml version="1.0" encoding="UTF-8" standalone="no"?>
<!DOCTYPE svg PUBLIC "-//W3C//DTD SVG 1.1//EN"
 "http://www.w3.org/Graphics/SVG/1.1/DTD/svg11.dtd">
<!-- Generated by graphviz version 3.0.0 (20221109.1736)
 -->
<!-- Title: Graphical Class Hierarchy Pages: 1 -->
<svg width="297pt" height="268pt"
 viewBox="0.00 0.00 297.00 268.00" xmlns="http://www.w3.org/2000/svg" xmlns:xlink="http://www.w3.org/1999/xlink">
<g id="graph0" class="graph" transform="scale(1 1) rotate(0) translate(4 264)">
<title>Graphical Class Hierarchy</title>
<polygon fill="white" stroke="transparent" points="-4,4 -4,-264 293,-264 293,4 -4,4"/>
<!-- Node0 -->
<g id="node1" class="node">
<title>Node0</title>
<g id="a_node1"><a xlink:href="classgeojson_1_1_feature_base.html" target="_top" xlink:title="Represents an individual feature within a Geojson definition.">
<polygon fill="white" stroke="black" points="0,-114.5 0,-133.5 110,-133.5 110,-114.5 0,-114.5"/>
<text text-anchor="middle" x="55" y="-121.5" font-family="Helvetica,sans-Serif" font-size="10.00">geojson::FeatureBase</text>
</a>
</g>
</g>
<!-- Node1 -->
<g id="node2" class="node">
<title>Node1</title>
<g id="a_node2"><a xlink:href="classgeojson_1_1_collection_feature.html" target="_top" xlink:title=" ">
<polygon fill="white" stroke="black" points="152,-240.5 152,-259.5 283,-259.5 283,-240.5 152,-240.5"/>
<text text-anchor="middle" x="217.5" y="-247.5" font-family="Helvetica,sans-Serif" font-size="10.00">geojson::CollectionFeature</text>
</a>
</g>
</g>
<!-- Node0&#45;&gt;Node1 -->
<g id="edge1" class="edge">
<title>Node0&#45;&gt;Node1</title>
<path fill="none" stroke="midnightblue" d="M66.59,-142.54C81.31,-166.6 110.2,-208.18 146,-231 152.09,-234.88 158.97,-237.98 165.97,-240.45"/>
<polygon fill="midnightblue" stroke="midnightblue" points="69.45,-140.5 61.34,-133.69 63.44,-144.08 69.45,-140.5"/>
</g>
<!-- Node2 -->
<g id="node3" class="node">
<title>Node2</title>
<g id="a_node3"><a xlink:href="classgeojson_1_1_line_string_feature.html" target="_top" xlink:title=" ">
<polygon fill="white" stroke="black" points="151.5,-202.5 151.5,-221.5 283.5,-221.5 283.5,-202.5 151.5,-202.5"/>
<text text-anchor="middle" x="217.5" y="-209.5" font-family="Helvetica,sans-Serif" font-size="10.00">geojson::LineStringFeature</text>
</a>
</g>
</g>
<!-- Node0&#45;&gt;Node2 -->
<g id="edge2" class="edge">
<title>Node0&#45;&gt;Node2</title>
<path fill="none" stroke="midnightblue" d="M73.45,-140.76C90.62,-156.39 118.24,-179.29 146,-193 153.73,-196.82 162.33,-199.95 170.78,-202.48"/>
<polygon fill="midnightblue" stroke="midnightblue" points="75.61,-137.99 65.9,-133.74 70.84,-143.11 75.61,-137.99"/>
</g>
<!-- Node3 -->
<g id="node4" class="node">
<title>Node3</title>
<g id="a_node4"><a xlink:href="classgeojson_1_1_multi_line_string_feature.html" target="_top" xlink:title=" ">
<polygon fill="white" stroke="black" points="157.5,-153 157.5,-183 277.5,-183 277.5,-153 157.5,-153"/>
<text text-anchor="start" x="165.5" y="-171" font-family="Helvetica,sans-Serif" font-size="10.00">geojson::MultiLineString</text>
<text text-anchor="middle" x="217.5" y="-160" font-family="Helvetica,sans-Serif" font-size="10.00">Feature</text>
</a>
</g>
</g>
<!-- Node0&#45;&gt;Node3 -->
<g id="edge3" class="edge">
<title>Node0&#45;&gt;Node3</title>
<path fill="none" stroke="midnightblue" d="M100.65,-136.24C119.52,-141.41 141.68,-147.49 161.55,-152.93"/>
<polygon fill="midnightblue" stroke="midnightblue" points="101.4,-132.82 90.83,-133.55 99.54,-139.57 101.4,-132.82"/>
</g>
<!-- Node4 -->
<g id="node5" class="node">
<title>Node4</title>
<g id="a_node5"><a xlink:href="classgeojson_1_1_multi_point_feature.html" target="_top" xlink:title=" ">
<polygon fill="white" stroke="black" points="152,-114.5 152,-133.5 283,-133.5 283,-114.5 152,-114.5"/>
<text text-anchor="middle" x="217.5" y="-121.5" font-family="Helvetica,sans-Serif" font-size="10.00">geojson::MultiPointFeature</text>
</a>
</g>
</g>
<!-- Node0&#45;&gt;Node4 -->
<g id="edge4" class="edge">
<title>Node0&#45;&gt;Node4</title>
<path fill="none" stroke="midnightblue" d="M120.54,-124C130.89,-124 141.6,-124 151.95,-124"/>
<polygon fill="midnightblue" stroke="midnightblue" points="120.34,-120.5 110.34,-124 120.34,-127.5 120.34,-120.5"/>
</g>
<!-- Node5 -->
<g id="node6" class="node">
<title>Node5</title>
<g id="a_node6"><a xlink:href="classgeojson_1_1_multi_polygon_feature.html" target="_top" xlink:title=" ">
<polygon fill="white" stroke="black" points="146,-76.5 146,-95.5 289,-95.5 289,-76.5 146,-76.5"/>
<text text-anchor="middle" x="217.5" y="-83.5" font-family="Helvetica,sans-Serif" font-size="10.00">geojson::MultiPolygonFeature</text>
</a>
</g>
</g>
<!-- Node0&#45;&gt;Node5 -->
<g id="edge5" class="edge">
<title>Node0&#45;&gt;Node5</title>
<path fill="none" stroke="midnightblue" d="M106.25,-112.1C128.81,-106.76 155.06,-100.55 176.29,-95.52"/>
<polygon fill="midnightblue" stroke="midnightblue" points="105.43,-108.7 96.5,-114.41 107.04,-115.51 105.43,-108.7"/>
</g>
<!-- Node6 -->
<g id="node7" class="node">
<title>Node6</title>
<g id="a_node7"><a xlink:href="classgeojson_1_1_point_feature.html" target="_top" xlink:title=" ">
<polygon fill="white" stroke="black" points="162.5,-38.5 162.5,-57.5 272.5,-57.5 272.5,-38.5 162.5,-38.5"/>
<text text-anchor="middle" x="217.5" y="-45.5" font-family="Helvetica,sans-Serif" font-size="10.00">geojson::PointFeature</text>
</a>
</g>
</g>
<!-- Node0&#45;&gt;Node6 -->
<g id="edge6" class="edge">
<title>Node0&#45;&gt;Node6</title>
<path fill="none" stroke="midnightblue" d="M76.79,-108.27C94.41,-95.58 120.77,-78.09 146,-67 154.47,-63.28 163.85,-60.13 172.92,-57.54"/>
<polygon fill="midnightblue" stroke="midnightblue" points="74.42,-105.66 68.43,-114.4 78.56,-111.31 74.42,-105.66"/>
</g>
<!-- Node7 -->
<g id="node8" class="node">
<title>Node7</title>
<g id="a_node8"><a xlink:href="classgeojson_1_1_polygon_feature.html" target="_top" xlink:title="Represents a feature based around a polygon defining an area.">
<polygon fill="white" stroke="black" points="156.5,-0.5 156.5,-19.5 278.5,-19.5 278.5,-0.5 156.5,-0.5"/>
<text text-anchor="middle" x="217.5" y="-7.5" font-family="Helvetica,sans-Serif" font-size="10.00">geojson::PolygonFeature</text>
</a>
</g>
</g>
<!-- Node0&#45;&gt;Node7 -->
<g id="edge7" class="edge">
<title>Node0&#45;&gt;Node7</title>
<path fill="none" stroke="midnightblue" d="M68.24,-105.98C83.81,-84.45 112.71,-48.86 146,-29 152.53,-25.1 159.87,-21.99 167.29,-19.51"/>
<polygon fill="midnightblue" stroke="midnightblue" points="65.31,-104.06 62.41,-114.25 71.03,-108.09 65.31,-104.06"/>
</g>
</g>
</svg>
