<?xml version="1.0" encoding="UTF-8" standalone="no"?>
<!DOCTYPE svg PUBLIC "-//W3C//DTD SVG 1.1//EN"
 "http://www.w3.org/Graphics/SVG/1.1/DTD/svg11.dtd">
<!-- Generated by graphviz version 2.50.0 (20220203.2022)
 -->
<!-- Title: Graphical Class Hierarchy Pages: 1 -->
<svg width="554pt" height="126pt"
 viewBox="0.00 0.00 554.00 125.50" xmlns="http://www.w3.org/2000/svg" xmlns:xlink="http://www.w3.org/1999/xlink">
<g id="graph0" class="graph" transform="scale(1 1) rotate(0) translate(4 121.5)">
<title>Graphical Class Hierarchy</title>
<polygon fill="white" stroke="transparent" points="-4,4 -4,-121.5 550,-121.5 550,4 -4,4"/>
<!-- Node0 -->
<g id="node1" class="node">
<title>Node0</title>
<g id="a_node1"><a xlink:href="classbmi_1_1_bmi.html" target="_top" xlink:title=" ">
<polygon fill="white" stroke="black" points="0,-44.5 0,-63.5 54,-63.5 54,-44.5 0,-44.5"/>
<text text-anchor="middle" x="27" y="-51.5" font-family="Helvetica,sans-Serif" font-size="10.00">bmi::Bmi</text>
</a>
</g>
</g>
<!-- Node1 -->
<g id="node2" class="node">
<title>Node1</title>
<g id="a_node2"><a xlink:href="classmodels_1_1bmi_1_1_bmi___adapter.html" target="_top" xlink:title=" ">
<polygon fill="white" stroke="black" points="90,-90.5 90,-109.5 242,-109.5 242,-90.5 90,-90.5"/>
<text text-anchor="middle" x="166" y="-97.5" font-family="Helvetica,sans-Serif" font-size="10.00">models::bmi::Bmi_Adapter&lt; C &gt;</text>
</a>
</g>
</g>
<!-- Node0&#45;&gt;Node1 -->
<g id="edge1" class="edge">
<title>Node0&#45;&gt;Node1</title>
<path fill="none" stroke="midnightblue" d="M60.77,-67.28C70.15,-70.91 80.43,-74.75 90,-78 102.98,-82.41 117.39,-86.76 130.08,-90.42"/>
<polygon fill="midnightblue" stroke="midnightblue" points="61.97,-63.99 51.38,-63.59 59.41,-70.5 61.97,-63.99"/>
</g>
<!-- Node3 -->
<g id="node4" class="node">
<title>Node3</title>
<g id="a_node4"><a xlink:href="classmodels_1_1bmi_1_1_bmi___adapter.html" target="_top" xlink:title=" ">
<polygon fill="white" stroke="black" points="101.5,-39 101.5,-69 230.5,-69 230.5,-39 101.5,-39"/>
<text text-anchor="start" x="109.5" y="-57" font-family="Helvetica,sans-Serif" font-size="10.00">models::bmi::Bmi_Adapter</text>
<text text-anchor="middle" x="166" y="-46" font-family="Helvetica,sans-Serif" font-size="10.00">&lt; C_Bmi &gt;</text>
</a>
</g>
</g>
<!-- Node0&#45;&gt;Node3 -->
<g id="edge3" class="edge">
<title>Node0&#45;&gt;Node3</title>
<path fill="none" stroke="midnightblue" d="M64.14,-54C75.61,-54 88.66,-54 101.47,-54"/>
<polygon fill="midnightblue" stroke="midnightblue" points="64.09,-50.5 54.09,-54 64.09,-57.5 64.09,-50.5"/>
</g>
<!-- Node6 -->
<g id="node7" class="node">
<title>Node6</title>
<g id="a_node7"><a xlink:href="classmodels_1_1bmi_1_1_bmi___adapter.html" target="_top" xlink:title="Abstract adapter interface for C++ classes to interact with the essential aspects of external models ...">
<polygon fill="white" stroke="black" points="90,-0.5 90,-19.5 242,-19.5 242,-0.5 90,-0.5"/>
<text text-anchor="middle" x="166" y="-7.5" font-family="Helvetica,sans-Serif" font-size="10.00">models::bmi::Bmi_Adapter&lt; T &gt;</text>
</a>
</g>
</g>
<!-- Node0&#45;&gt;Node6 -->
<g id="edge6" class="edge">
<title>Node0&#45;&gt;Node6</title>
<path fill="none" stroke="midnightblue" d="M58.92,-40.58C68.75,-36.57 79.74,-32.35 90,-29 100.6,-25.54 112.21,-22.32 123.06,-19.56"/>
<polygon fill="midnightblue" stroke="midnightblue" points="57.43,-37.41 49.54,-44.48 60.12,-43.87 57.43,-37.41"/>
</g>
<!-- Node2 -->
<g id="node3" class="node">
<title>Node2</title>
<g id="a_node3"><a xlink:href="classmodels_1_1bmi_1_1_abstract_c_lib_bmi_adapter.html" target="_top" xlink:title=" ">
<polygon fill="white" stroke="black" points="278,-87 278,-117 408,-117 408,-87 278,-87"/>
<text text-anchor="start" x="286" y="-105" font-family="Helvetica,sans-Serif" font-size="10.00">models::bmi::AbstractCLib</text>
<text text-anchor="middle" x="343" y="-94" font-family="Helvetica,sans-Serif" font-size="10.00">BmiAdapter&lt; C &gt;</text>
</a>
</g>
</g>
<!-- Node1&#45;&gt;Node2 -->
<g id="edge2" class="edge">
<title>Node1&#45;&gt;Node2</title>
<path fill="none" stroke="midnightblue" d="M252.29,-100.97C260.89,-101.07 269.51,-101.17 277.83,-101.27"/>
<polygon fill="midnightblue" stroke="midnightblue" points="252.27,-97.47 242.23,-100.86 252.19,-104.47 252.27,-97.47"/>
</g>
<!-- Node4 -->
<g id="node5" class="node">
<title>Node4</title>
<g id="a_node5"><a xlink:href="classmodels_1_1bmi_1_1_abstract_c_lib_bmi_adapter.html" target="_top" xlink:title=" ">
<polygon fill="white" stroke="black" points="278,-38 278,-68 408,-68 408,-38 278,-38"/>
<text text-anchor="start" x="286" y="-56" font-family="Helvetica,sans-Serif" font-size="10.00">models::bmi::AbstractCLib</text>
<text text-anchor="middle" x="343" y="-45" font-family="Helvetica,sans-Serif" font-size="10.00">BmiAdapter&lt; C_Bmi &gt;</text>
</a>
</g>
</g>
<!-- Node3&#45;&gt;Node4 -->
<g id="edge4" class="edge">
<title>Node3&#45;&gt;Node4</title>
<path fill="none" stroke="midnightblue" d="M240.87,-53.58C253.14,-53.51 265.78,-53.44 277.79,-53.37"/>
<polygon fill="midnightblue" stroke="midnightblue" points="240.65,-50.08 230.67,-53.64 240.69,-57.08 240.65,-50.08"/>
</g>
<!-- Node5 -->
<g id="node6" class="node">
<title>Node5</title>
<g id="a_node6"><a xlink:href="classmodels_1_1bmi_1_1_bmi___c___adapter.html" target="_top" xlink:title="An adapter class to serve as a C++ interface to the essential aspects of external models written in t...">
<polygon fill="white" stroke="black" points="444,-38 444,-68 546,-68 546,-38 444,-38"/>
<text text-anchor="start" x="452" y="-56" font-family="Helvetica,sans-Serif" font-size="10.00">models::bmi::Bmi_C</text>
<text text-anchor="middle" x="495" y="-45" font-family="Helvetica,sans-Serif" font-size="10.00">_Adapter</text>
</a>
</g>
</g>
<!-- Node4&#45;&gt;Node5 -->
<g id="edge5" class="edge">
<title>Node4&#45;&gt;Node5</title>
<path fill="none" stroke="midnightblue" d="M418.19,-53C426.86,-53 435.54,-53 443.77,-53"/>
<polygon fill="midnightblue" stroke="midnightblue" points="418.05,-49.5 408.05,-53 418.05,-56.5 418.05,-49.5"/>
</g>
</g>
</svg>
