<?xml version="1.0" encoding="UTF-8" standalone="no"?>
<!DOCTYPE svg PUBLIC "-//W3C//DTD SVG 1.1//EN"
 "http://www.w3.org/Graphics/SVG/1.1/DTD/svg11.dtd">
<!-- Generated by graphviz version 7.0.5 (20221223.1930)
 -->
<!-- Title: Graphical Class Hierarchy Pages: 1 -->
<svg width="307pt" height="619pt"
 viewBox="0.00 0.00 307.00 619.00" xmlns="http://www.w3.org/2000/svg" xmlns:xlink="http://www.w3.org/1999/xlink">
<g id="graph0" class="graph" transform="scale(1 1) rotate(0) translate(4 615)">
<title>Graphical Class Hierarchy</title>
<!-- Node0 -->
<g id="node1" class="node">
<title>Node0</title>
<g id="a_node1"><a xlink:href="class_network___test.html" target="_top" xlink:title=" ">
<polygon fill="white" stroke="#666666" points="98,-574 20,-574 20,-555 98,-555 98,-574"/>
<text text-anchor="middle" x="59" y="-562" font-family="Helvetica,sans-Serif" font-size="10.00">Network_Test</text>
</a>
</g>
</g>
<!-- Node1 -->
<g id="node2" class="node">
<title>Node1</title>
<g id="a_node2"><a xlink:href="class_network___test1.html" target="_top" xlink:title=" ">
<polygon fill="white" stroke="#666666" points="268,-611 185,-611 185,-592 268,-592 268,-611"/>
<text text-anchor="middle" x="226.5" y="-599" font-family="Helvetica,sans-Serif" font-size="10.00">Network_Test1</text>
</a>
</g>
</g>
<!-- Node0&#45;&gt;Node1 -->
<g id="edge1" class="edge">
<title>Node0&#45;&gt;Node1</title>
<path fill="none" stroke="#63b8ff" d="M109.42,-575.55C133.44,-580.92 161.96,-587.3 184.72,-592.38"/>
<polygon fill="#63b8ff" stroke="#63b8ff" points="110.38,-572.18 99.86,-573.41 108.86,-579.01 110.38,-572.18"/>
</g>
<!-- Node3 -->
<g id="node3" class="node">
<title>Node3</title>
<g id="a_node3"><a xlink:href="class_network___test2.html" target="_top" xlink:title=" ">
<polygon fill="white" stroke="#666666" points="268,-574 185,-574 185,-555 268,-555 268,-574"/>
<text text-anchor="middle" x="226.5" y="-562" font-family="Helvetica,sans-Serif" font-size="10.00">Network_Test2</text>
</a>
</g>
</g>
<!-- Node0&#45;&gt;Node3 -->
<g id="edge2" class="edge">
<title>Node0&#45;&gt;Node3</title>
<path fill="none" stroke="#63b8ff" d="M109.75,-564.5C133.7,-564.5 162.07,-564.5 184.72,-564.5"/>
<polygon fill="#63b8ff" stroke="#63b8ff" points="109.9,-561 99.9,-564.5 109.9,-568 109.9,-561"/>
</g>
<!-- Node4 -->
<g id="node4" class="node">
<title>Node4</title>
<g id="a_node4"><a xlink:title=" ">
<polygon fill="#e0e0e0" stroke="#999999" points="94,-297 24,-297 24,-278 94,-278 94,-297"/>
<text text-anchor="middle" x="59" y="-285" font-family="Helvetica,sans-Serif" font-size="10.00">testing::Test</text>
</a>
</g>
</g>
<!-- Node4&#45;&gt;Node3 -->
<g id="edge10" class="edge">
<title>Node4&#45;&gt;Node3</title>
<path fill="none" stroke="#63b8ff" d="M61.21,-308.6C65.23,-357.97 82.31,-481.74 154,-546.5 162.45,-554.14 173.67,-558.64 184.71,-561.26"/>
<polygon fill="#63b8ff" stroke="#63b8ff" points="64.71,-308.48 60.53,-298.75 57.73,-308.97 64.71,-308.48"/>
</g>
<!-- Node5 -->
<g id="node5" class="node">
<title>Node5</title>
<g id="a_node5"><a xlink:href="class_et_calc_kernel_test.html" target="_top" xlink:title=" ">
<polygon fill="white" stroke="#666666" points="272.5,-537 180.5,-537 180.5,-518 272.5,-518 272.5,-537"/>
<text text-anchor="middle" x="226.5" y="-525" font-family="Helvetica,sans-Serif" font-size="10.00">EtCalcKernelTest</text>
</a>
</g>
</g>
<!-- Node4&#45;&gt;Node5 -->
<g id="edge3" class="edge">
<title>Node4&#45;&gt;Node5</title>
<path fill="none" stroke="#63b8ff" d="M62.65,-308.55C69.36,-352.78 91.23,-455.71 154,-509.5 161.39,-515.83 170.69,-519.99 180.12,-522.71"/>
<polygon fill="#63b8ff" stroke="#63b8ff" points="66.13,-308.19 61.29,-298.77 59.2,-309.16 66.13,-308.19"/>
</g>
<!-- Node6 -->
<g id="node6" class="node">
<title>Node6</title>
<g id="a_node6"><a xlink:href="class_feature_collection___test.html" target="_top" xlink:title=" ">
<polygon fill="white" stroke="#666666" points="285,-500 168,-500 168,-481 285,-481 285,-500"/>
<text text-anchor="middle" x="226.5" y="-488" font-family="Helvetica,sans-Serif" font-size="10.00">FeatureCollection_Test</text>
</a>
</g>
</g>
<!-- Node4&#45;&gt;Node6 -->
<g id="edge4" class="edge">
<title>Node4&#45;&gt;Node6</title>
<path fill="none" stroke="#63b8ff" d="M64.58,-308.45C74.15,-347.05 100,-429.4 154,-472.5 158.1,-475.77 162.72,-478.46 167.59,-480.67"/>
<polygon fill="#63b8ff" stroke="#63b8ff" points="68.02,-307.77 62.33,-298.83 61.2,-309.36 68.02,-307.77"/>
</g>
<!-- Node7 -->
<g id="node7" class="node">
<title>Node7</title>
<g id="a_node7"><a xlink:href="class_feature___test.html" target="_top" xlink:title=" ">
<polygon fill="white" stroke="#666666" points="263.5,-463 189.5,-463 189.5,-444 263.5,-444 263.5,-463"/>
<text text-anchor="middle" x="226.5" y="-451" font-family="Helvetica,sans-Serif" font-size="10.00">Feature_Test</text>
</a>
</g>
</g>
<!-- Node4&#45;&gt;Node7 -->
<g id="edge5" class="edge">
<title>Node4&#45;&gt;Node7</title>
<path fill="none" stroke="#63b8ff" d="M67.26,-308.02C79.77,-340.29 108.5,-402.62 154,-435.5 164.17,-442.85 177.03,-447.21 189.03,-449.79"/>
<polygon fill="#63b8ff" stroke="#63b8ff" points="70.55,-306.82 63.79,-298.67 63.99,-309.26 70.55,-306.82"/>
</g>
<!-- Node8 -->
<g id="node8" class="node">
<title>Node8</title>
<g id="a_node8"><a xlink:href="class_g_i_u_h___test.html" target="_top" xlink:title=" ">
<polygon fill="white" stroke="#666666" points="260,-426 193,-426 193,-407 260,-407 260,-426"/>
<text text-anchor="middle" x="226.5" y="-414" font-family="Helvetica,sans-Serif" font-size="10.00">GIUH_Test</text>
</a>
</g>
</g>
<!-- Node4&#45;&gt;Node8 -->
<g id="edge6" class="edge">
<title>Node4&#45;&gt;Node8</title>
<path fill="none" stroke="#63b8ff" d="M71.22,-307.12C86.61,-332.22 116.66,-375.23 154,-398.5 165.62,-405.74 180.02,-410.08 192.84,-412.67"/>
<polygon fill="#63b8ff" stroke="#63b8ff" points="74.26,-305.39 66.15,-298.58 68.24,-308.96 74.26,-305.39"/>
</g>
<!-- Node9 -->
<g id="node9" class="node">
<title>Node9</title>
<g id="a_node9"><a xlink:href="class_hymod_kernel_test.html" target="_top" xlink:title=" ">
<polygon fill="white" stroke="#666666" points="274,-389 179,-389 179,-370 274,-370 274,-389"/>
<text text-anchor="middle" x="226.5" y="-377" font-family="Helvetica,sans-Serif" font-size="10.00">HymodKernelTest</text>
</a>
</g>
</g>
<!-- Node4&#45;&gt;Node9 -->
<g id="edge7" class="edge">
<title>Node4&#45;&gt;Node9</title>
<path fill="none" stroke="#63b8ff" d="M77.7,-305.24C95.5,-322.11 124.48,-346.99 154,-361.5 161.7,-365.28 170.26,-368.32 178.72,-370.74"/>
<polygon fill="#63b8ff" stroke="#63b8ff" points="80.16,-302.76 70.55,-298.31 75.29,-307.78 80.16,-302.76"/>
</g>
<!-- Node10 -->
<g id="node10" class="node">
<title>Node10</title>
<g id="a_node10"><a xlink:href="class_j_s_o_n_geometry___test.html" target="_top" xlink:title=" ">
<polygon fill="white" stroke="#666666" points="281.5,-352 171.5,-352 171.5,-333 281.5,-333 281.5,-352"/>
<text text-anchor="middle" x="226.5" y="-340" font-family="Helvetica,sans-Serif" font-size="10.00">JSONGeometry_Test</text>
</a>
</g>
</g>
<!-- Node4&#45;&gt;Node10 -->
<g id="edge8" class="edge">
<title>Node4&#45;&gt;Node10</title>
<path fill="none" stroke="#63b8ff" d="M93.31,-301.82C111.12,-309.17 133.53,-317.93 154,-324.5 163.02,-327.4 172.8,-330.12 182.14,-332.54"/>
<polygon fill="#63b8ff" stroke="#63b8ff" points="94.85,-298.67 84.28,-298.04 92.15,-305.13 94.85,-298.67"/>
</g>
<!-- Node11 -->
<g id="node11" class="node">
<title>Node11</title>
<g id="a_node11"><a xlink:href="class_j_s_o_n_property___test.html" target="_top" xlink:title=" ">
<polygon fill="white" stroke="#666666" points="278.5,-315 174.5,-315 174.5,-296 278.5,-296 278.5,-315"/>
<text text-anchor="middle" x="226.5" y="-303" font-family="Helvetica,sans-Serif" font-size="10.00">JSONProperty_Test</text>
</a>
</g>
</g>
<!-- Node4&#45;&gt;Node11 -->
<g id="edge9" class="edge">
<title>Node4&#45;&gt;Node11</title>
<path fill="none" stroke="#63b8ff" d="M105.64,-292.46C126.92,-294.78 152.34,-297.54 174.28,-299.93"/>
<polygon fill="#63b8ff" stroke="#63b8ff" points="106.12,-289 95.8,-291.39 105.36,-295.95 106.12,-289"/>
</g>
<!-- Node12 -->
<g id="node12" class="node">
<title>Node12</title>
<g id="a_node12"><a xlink:href="class_nexus___remote___test.html" target="_top" xlink:title=" ">
<polygon fill="white" stroke="#666666" points="280.5,-278 172.5,-278 172.5,-259 280.5,-259 280.5,-278"/>
<text text-anchor="middle" x="226.5" y="-266" font-family="Helvetica,sans-Serif" font-size="10.00">Nexus_Remote_Test</text>
</a>
</g>
</g>
<!-- Node4&#45;&gt;Node12 -->
<g id="edge11" class="edge">
<title>Node4&#45;&gt;Node12</title>
<path fill="none" stroke="#63b8ff" d="M105.59,-282.27C126.16,-279.9 150.6,-277.1 172.03,-274.64"/>
<polygon fill="#63b8ff" stroke="#63b8ff" points="105.33,-278.77 95.8,-283.39 106.13,-285.73 105.33,-278.77"/>
</g>
<!-- Node13 -->
<g id="node13" class="node">
<title>Node13</title>
<g id="a_node13"><a xlink:href="class_nexus___test.html" target="_top" xlink:title=" ">
<polygon fill="white" stroke="#666666" points="261,-241 192,-241 192,-222 261,-222 261,-241"/>
<text text-anchor="middle" x="226.5" y="-229" font-family="Helvetica,sans-Serif" font-size="10.00">Nexus_Test</text>
</a>
</g>
</g>
<!-- Node4&#45;&gt;Node13 -->
<g id="edge12" class="edge">
<title>Node4&#45;&gt;Node13</title>
<path fill="none" stroke="#63b8ff" d="M93.35,-273.29C111.16,-265.97 133.58,-257.21 154,-250.5 166.2,-246.49 179.78,-242.72 191.8,-239.6"/>
<polygon fill="#63b8ff" stroke="#63b8ff" points="92.2,-269.98 84.3,-277.04 94.88,-276.44 92.2,-269.98"/>
</g>
<!-- Node14 -->
<g id="node14" class="node">
<title>Node14</title>
<g id="a_node14"><a xlink:href="class_pdm03_kernel_test.html" target="_top" xlink:title=" ">
<polygon fill="white" stroke="#666666" points="274,-204 179,-204 179,-185 274,-185 274,-204"/>
<text text-anchor="middle" x="226.5" y="-192" font-family="Helvetica,sans-Serif" font-size="10.00">Pdm03KernelTest</text>
</a>
</g>
</g>
<!-- Node4&#45;&gt;Node14 -->
<g id="edge13" class="edge">
<title>Node4&#45;&gt;Node14</title>
<path fill="none" stroke="#63b8ff" d="M78.03,-269.57C95.89,-252.77 124.73,-228.12 154,-213.5 161.7,-209.65 170.26,-206.52 178.72,-203.99"/>
<polygon fill="#63b8ff" stroke="#63b8ff" points="75.61,-267.04 70.84,-276.49 80.47,-272.08 75.61,-267.04"/>
</g>
<!-- Node15 -->
<g id="node15" class="node">
<title>Node15</title>
<g id="a_node15"><a xlink:href="class_reservoir_kernel_test.html" target="_top" xlink:title=" ">
<polygon fill="white" stroke="#666666" points="279,-167 174,-167 174,-148 279,-148 279,-167"/>
<text text-anchor="middle" x="226.5" y="-155" font-family="Helvetica,sans-Serif" font-size="10.00">ReservoirKernelTest</text>
</a>
</g>
</g>
<!-- Node4&#45;&gt;Node15 -->
<g id="edge14" class="edge">
<title>Node4&#45;&gt;Node15</title>
<path fill="none" stroke="#63b8ff" d="M71.27,-267.95C86.71,-242.93 116.82,-200.02 154,-176.5 159.97,-172.72 166.68,-169.69 173.52,-167.26"/>
<polygon fill="#63b8ff" stroke="#63b8ff" points="68.3,-266.09 66.18,-276.47 74.31,-269.68 68.3,-266.09"/>
</g>
<!-- Node16 -->
<g id="node16" class="node">
<title>Node16</title>
<g id="a_node16"><a xlink:href="class_reservoir_timeless_kernel_test.html" target="_top" xlink:title=" ">
<polygon fill="white" stroke="#666666" points="299,-130 154,-130 154,-111 299,-111 299,-130"/>
<text text-anchor="middle" x="226.5" y="-118" font-family="Helvetica,sans-Serif" font-size="10.00">ReservoirTimelessKernelTest</text>
</a>
</g>
</g>
<!-- Node4&#45;&gt;Node16 -->
<g id="edge15" class="edge">
<title>Node4&#45;&gt;Node16</title>
<path fill="none" stroke="#63b8ff" d="M67.31,-267.05C79.89,-234.87 108.71,-172.68 154,-139.5 159.08,-135.78 164.83,-132.79 170.81,-130.38"/>
<polygon fill="#63b8ff" stroke="#63b8ff" points="64.05,-265.78 63.82,-276.37 70.61,-268.24 64.05,-265.78"/>
</g>
<!-- Node17 -->
<g id="node17" class="node">
<title>Node17</title>
<g id="a_node17"><a xlink:href="class_schaake_kernel_test.html" target="_top" xlink:title=" ">
<polygon fill="white" stroke="#666666" points="277.5,-93 175.5,-93 175.5,-74 277.5,-74 277.5,-93"/>
<text text-anchor="middle" x="226.5" y="-81" font-family="Helvetica,sans-Serif" font-size="10.00">SchaakeKernelTest</text>
</a>
</g>
</g>
<!-- Node4&#45;&gt;Node17 -->
<g id="edge16" class="edge">
<title>Node4&#45;&gt;Node17</title>
<path fill="none" stroke="#63b8ff" d="M64.64,-266.62C74.3,-228.13 100.28,-145.96 154,-102.5 160.19,-97.49 167.58,-93.79 175.22,-91.07"/>
<polygon fill="#63b8ff" stroke="#63b8ff" points="61.27,-265.67 62.36,-276.21 68.08,-267.28 61.27,-265.67"/>
</g>
<!-- Node18 -->
<g id="node18" class="node">
<title>Node18</title>
<g id="a_node18"><a xlink:href="class_tshirt_model_test.html" target="_top" xlink:title=" ">
<polygon fill="white" stroke="#666666" points="270,-56 183,-56 183,-37 270,-37 270,-56"/>
<text text-anchor="middle" x="226.5" y="-44" font-family="Helvetica,sans-Serif" font-size="10.00">TshirtModelTest</text>
</a>
</g>
</g>
<!-- Node4&#45;&gt;Node18 -->
<g id="edge17" class="edge">
<title>Node4&#45;&gt;Node18</title>
<path fill="none" stroke="#63b8ff" d="M62.7,-266.51C69.52,-222.4 91.58,-119.7 154,-65.5 162.05,-58.51 172.4,-54.06 182.7,-51.23"/>
<polygon fill="#63b8ff" stroke="#63b8ff" points="59.26,-265.87 61.32,-276.26 66.19,-266.85 59.26,-265.87"/>
</g>
<!-- Node19 -->
<g id="node19" class="node">
<title>Node19</title>
<g id="a_node19"><a xlink:href="class_units_helper___test.html" target="_top" xlink:title=" ">
<polygon fill="white" stroke="#666666" points="273,-19 180,-19 180,0 273,0 273,-19"/>
<text text-anchor="middle" x="226.5" y="-7" font-family="Helvetica,sans-Serif" font-size="10.00">UnitsHelper_Test</text>
</a>
</g>
</g>
<!-- Node4&#45;&gt;Node19 -->
<g id="edge18" class="edge">
<title>Node4&#45;&gt;Node19</title>
<path fill="none" stroke="#63b8ff" d="M61.3,-266.13C65.49,-216.66 82.9,-93.58 154,-28.5 161.2,-21.91 170.43,-17.56 179.84,-14.7"/>
<polygon fill="#63b8ff" stroke="#63b8ff" points="57.82,-265.79 60.57,-276.02 64.8,-266.3 57.82,-265.79"/>
</g>
<!-- Node2 -->
<g id="node20" class="node">
<title>Node2</title>
<g id="a_node20"><a xlink:title=" ">
<polygon fill="#e0e0e0" stroke="#999999" points="118,-611 0,-611 0,-592 118,-592 118,-611"/>
<text text-anchor="middle" x="59" y="-599" font-family="Helvetica,sans-Serif" font-size="10.00">testing::TestWithParam</text>
</a>
</g>
</g>
<!-- Node2&#45;&gt;Node1 -->
<g id="edge19" class="edge">
<title>Node2&#45;&gt;Node1</title>
<path fill="none" stroke="#63b8ff" d="M129.81,-601.5C148.47,-601.5 168.02,-601.5 184.55,-601.5"/>
<polygon fill="#63b8ff" stroke="#63b8ff" points="129.86,-598 119.86,-601.5 129.86,-605 129.86,-598"/>
</g>
</g>
</svg>
