<?xml version="1.0" encoding="UTF-8" standalone="no"?>
<!DOCTYPE svg PUBLIC "-//W3C//DTD SVG 1.1//EN"
 "http://www.w3.org/Graphics/SVG/1.1/DTD/svg11.dtd">
<!-- Generated by graphviz version 7.0.5 (20221223.1930)
 -->
<!-- Title: Graphical Class Hierarchy Pages: 1 -->
<svg width="1094pt" height="446pt"
 viewBox="0.00 0.00 1094.00 446.00" xmlns="http://www.w3.org/2000/svg" xmlns:xlink="http://www.w3.org/1999/xlink">
<g id="graph0" class="graph" transform="scale(1 1) rotate(0) translate(4 442)">
<title>Graphical Class Hierarchy</title>
<!-- Node0 -->
<g id="node1" class="node">
<title>Node0</title>
<g id="a_node1"><a xlink:href="classdata__access_1_1_data_provider.html" target="_top" xlink:title=" ">
<polygon fill="white" stroke="#666666" points="358,-400.5 167,-400.5 167,-370.5 358,-370.5 358,-400.5"/>
<text text-anchor="start" x="175" y="-388.5" font-family="Helvetica,sans-Serif" font-size="10.00">data_access::DataProvider</text>
<text text-anchor="middle" x="262.5" y="-377.5" font-family="Helvetica,sans-Serif" font-size="10.00">&lt; double, CatchmentAggrDataSelector &gt;</text>
</a>
</g>
</g>
<!-- Node1 -->
<g id="node2" class="node">
<title>Node1</title>
<g id="a_node2"><a xlink:href="classdata__access_1_1_generic_data_provider.html" target="_top" xlink:title=" ">
<polygon fill="white" stroke="#666666" points="525,-400.5 394,-400.5 394,-370.5 525,-370.5 525,-400.5"/>
<text text-anchor="start" x="402" y="-388.5" font-family="Helvetica,sans-Serif" font-size="10.00">data_access::GenericData</text>
<text text-anchor="middle" x="459.5" y="-377.5" font-family="Helvetica,sans-Serif" font-size="10.00">Provider</text>
</a>
</g>
</g>
<!-- Node0&#45;&gt;Node1 -->
<g id="edge1" class="edge">
<title>Node0&#45;&gt;Node1</title>
<path fill="none" stroke="#63b8ff" d="M369.87,-385.5C377.94,-385.5 385.93,-385.5 393.61,-385.5"/>
<polygon fill="#63b8ff" stroke="#63b8ff" points="369.94,-382 359.94,-385.5 369.94,-389 369.94,-382"/>
</g>
<!-- Node2 -->
<g id="node3" class="node">
<title>Node2</title>
<g id="a_node3"><a xlink:href="class_csv_per_feature_forcing_provider.html" target="_top" xlink:title="Forcing class providing time&#45;series precipiation forcing data to the model.">
<polygon fill="white" stroke="#666666" points="711,-438 561,-438 561,-419 711,-419 711,-438"/>
<text text-anchor="middle" x="636" y="-426" font-family="Helvetica,sans-Serif" font-size="10.00">CsvPerFeatureForcingProvider</text>
</a>
</g>
</g>
<!-- Node1&#45;&gt;Node2 -->
<g id="edge2" class="edge">
<title>Node1&#45;&gt;Node2</title>
<path fill="none" stroke="#63b8ff" d="M534.02,-403.62C554.7,-408.71 576.44,-414.07 594.42,-418.5"/>
<polygon fill="#63b8ff" stroke="#63b8ff" points="535.02,-400.26 524.48,-401.26 533.35,-407.06 535.02,-400.26"/>
</g>
<!-- Node3 -->
<g id="node4" class="node">
<title>Node3</title>
<g id="a_node4"><a xlink:href="classdata__access_1_1_wrapped_data_provider.html" target="_top" xlink:title="Simple implementation that basically wraps another instance.">
<polygon fill="white" stroke="#666666" points="703.5,-400.5 568.5,-400.5 568.5,-370.5 703.5,-370.5 703.5,-400.5"/>
<text text-anchor="start" x="576.5" y="-388.5" font-family="Helvetica,sans-Serif" font-size="10.00">data_access::WrappedData</text>
<text text-anchor="middle" x="636" y="-377.5" font-family="Helvetica,sans-Serif" font-size="10.00">Provider</text>
</a>
</g>
</g>
<!-- Node1&#45;&gt;Node3 -->
<g id="edge3" class="edge">
<title>Node1&#45;&gt;Node3</title>
<path fill="none" stroke="#63b8ff" d="M536.74,-385.5C547.22,-385.5 557.92,-385.5 568.22,-385.5"/>
<polygon fill="#63b8ff" stroke="#63b8ff" points="536.99,-382 526.99,-385.5 536.99,-389 536.99,-382"/>
</g>
<!-- Node6 -->
<g id="node7" class="node">
<title>Node6</title>
<g id="a_node7"><a xlink:href="classrealization_1_1_bmi___formulation.html" target="_top" xlink:title="Abstraction of formulation with backing model object(s) that implements the BMI.">
<polygon fill="white" stroke="#666666" points="705,-320 567,-320 567,-301 705,-301 705,-320"/>
<text text-anchor="middle" x="636" y="-308" font-family="Helvetica,sans-Serif" font-size="10.00">realization::Bmi_Formulation</text>
</a>
</g>
</g>
<!-- Node1&#45;&gt;Node6 -->
<g id="edge6" class="edge">
<title>Node1&#45;&gt;Node6</title>
<path fill="none" stroke="#63b8ff" d="M506.38,-365.78C540.29,-351.21 585.04,-331.97 611.83,-320.46"/>
<polygon fill="#63b8ff" stroke="#63b8ff" points="505.43,-362.38 497.62,-369.54 508.19,-368.81 505.43,-362.38"/>
</g>
<!-- Node4 -->
<g id="node5" class="node">
<title>Node4</title>
<g id="a_node5"><a xlink:href="classdata__access_1_1_deferred_wrapped_provider.html" target="_top" xlink:title="A specialized @WrappedDataProvider that is created without first knowing the backing source it wraps.">
<polygon fill="white" stroke="#666666" points="899,-433.5 747,-433.5 747,-403.5 899,-403.5 899,-433.5"/>
<text text-anchor="start" x="755" y="-421.5" font-family="Helvetica,sans-Serif" font-size="10.00">data_access::DeferredWrapped</text>
<text text-anchor="middle" x="823" y="-410.5" font-family="Helvetica,sans-Serif" font-size="10.00">Provider</text>
</a>
</g>
</g>
<!-- Node3&#45;&gt;Node4 -->
<g id="edge4" class="edge">
<title>Node3&#45;&gt;Node4</title>
<path fill="none" stroke="#63b8ff" d="M714.99,-399.41C725.43,-401.27 736.12,-403.18 746.52,-405.04"/>
<polygon fill="#63b8ff" stroke="#63b8ff" points="715.74,-395.99 705.28,-397.68 714.51,-402.88 715.74,-395.99"/>
</g>
<!-- Node5 -->
<g id="node6" class="node">
<title>Node5</title>
<g id="a_node6"><a xlink:href="classdata__access_1_1_optional_wrapped_data_provider.html" target="_top" xlink:title="Extension of DeferredWrappedProvider, where default values can be used instead of a backing provider.">
<polygon fill="white" stroke="#666666" points="1086,-433.5 935,-433.5 935,-403.5 1086,-403.5 1086,-433.5"/>
<text text-anchor="start" x="943" y="-421.5" font-family="Helvetica,sans-Serif" font-size="10.00">data_access::OptionalWrapped</text>
<text text-anchor="middle" x="1010.5" y="-410.5" font-family="Helvetica,sans-Serif" font-size="10.00">DataProvider</text>
</a>
</g>
</g>
<!-- Node4&#45;&gt;Node5 -->
<g id="edge5" class="edge">
<title>Node4&#45;&gt;Node5</title>
<path fill="none" stroke="#63b8ff" d="M910.72,-418.5C918.74,-418.5 926.82,-418.5 934.72,-418.5"/>
<polygon fill="#63b8ff" stroke="#63b8ff" points="910.96,-415 900.96,-418.5 910.96,-422 910.96,-415"/>
</g>
<!-- Node7 -->
<g id="node8" class="node">
<title>Node7</title>
<g id="a_node8"><a xlink:href="classrealization_1_1_bmi___module___formulation.html" target="_top" xlink:title=" ">
<polygon fill="white" stroke="#666666" points="882.5,-229 763.5,-229 763.5,-188 882.5,-188 882.5,-229"/>
<text text-anchor="start" x="771.5" y="-217" font-family="Helvetica,sans-Serif" font-size="10.00">realization::Bmi_Module</text>
<text text-anchor="start" x="771.5" y="-206" font-family="Helvetica,sans-Serif" font-size="10.00">_Formulation&lt; models::</text>
<text text-anchor="middle" x="823" y="-195" font-family="Helvetica,sans-Serif" font-size="10.00">bmi::Bmi_C_Adapter &gt;</text>
</a>
</g>
</g>
<!-- Node6&#45;&gt;Node7 -->
<g id="edge7" class="edge">
<title>Node6&#45;&gt;Node7</title>
<path fill="none" stroke="#63b8ff" d="M704.09,-295.77C706.49,-294.46 708.8,-293.04 711,-291.5 734.3,-275.12 724.81,-256.35 747,-238.5 751.92,-234.55 757.42,-231.05 763.16,-227.98"/>
<polygon fill="#63b8ff" stroke="#63b8ff" points="702.84,-292.49 695.23,-299.87 705.77,-298.85 702.84,-292.49"/>
</g>
<!-- Node9 -->
<g id="node10" class="node">
<title>Node9</title>
<g id="a_node10"><a xlink:href="classrealization_1_1_bmi___module___formulation.html" target="_top" xlink:title=" ">
<polygon fill="white" stroke="#666666" points="885,-385 761,-385 761,-344 885,-344 885,-385"/>
<text text-anchor="start" x="769" y="-373" font-family="Helvetica,sans-Serif" font-size="10.00">realization::Bmi_Module</text>
<text text-anchor="start" x="769" y="-362" font-family="Helvetica,sans-Serif" font-size="10.00">_Formulation&lt; models::</text>
<text text-anchor="middle" x="823" y="-351" font-family="Helvetica,sans-Serif" font-size="10.00">bmi::Bmi_Cpp_Adapter &gt;</text>
</a>
</g>
</g>
<!-- Node6&#45;&gt;Node9 -->
<g id="edge9" class="edge">
<title>Node6&#45;&gt;Node9</title>
<path fill="none" stroke="#63b8ff" d="M681.71,-323.55C705.38,-330.46 734.81,-339.05 760.59,-346.58"/>
<polygon fill="#63b8ff" stroke="#63b8ff" points="682.96,-320.27 672.38,-320.83 681,-326.99 682.96,-320.27"/>
</g>
<!-- Node11 -->
<g id="node12" class="node">
<title>Node11</title>
<g id="a_node12"><a xlink:href="classrealization_1_1_bmi___module___formulation.html" target="_top" xlink:title="Abstraction of a formulation with a single backing model object that implements the BMI.">
<polygon fill="white" stroke="#666666" points="882.5,-325.5 763.5,-325.5 763.5,-295.5 882.5,-295.5 882.5,-325.5"/>
<text text-anchor="start" x="771.5" y="-313.5" font-family="Helvetica,sans-Serif" font-size="10.00">realization::Bmi_Module</text>
<text text-anchor="middle" x="823" y="-302.5" font-family="Helvetica,sans-Serif" font-size="10.00">_Formulation&lt; M &gt;</text>
</a>
</g>
</g>
<!-- Node6&#45;&gt;Node11 -->
<g id="edge11" class="edge">
<title>Node6&#45;&gt;Node11</title>
<path fill="none" stroke="#63b8ff" d="M716.6,-310.5C732.19,-310.5 748.28,-310.5 763.04,-310.5"/>
<polygon fill="#63b8ff" stroke="#63b8ff" points="716.88,-307 706.88,-310.5 716.88,-314 716.88,-307"/>
</g>
<!-- Node12 -->
<g id="node13" class="node">
<title>Node12</title>
<g id="a_node13"><a xlink:href="classrealization_1_1_bmi___multi___formulation.html" target="_top" xlink:title="Abstraction of a formulation with multiple backing model object that implements the BMI.">
<polygon fill="white" stroke="#666666" points="877,-277.5 769,-277.5 769,-247.5 877,-247.5 877,-277.5"/>
<text text-anchor="start" x="777" y="-265.5" font-family="Helvetica,sans-Serif" font-size="10.00">realization::Bmi_Multi</text>
<text text-anchor="middle" x="823" y="-254.5" font-family="Helvetica,sans-Serif" font-size="10.00">_Formulation</text>
</a>
</g>
</g>
<!-- Node6&#45;&gt;Node12 -->
<g id="edge12" class="edge">
<title>Node6&#45;&gt;Node12</title>
<path fill="none" stroke="#63b8ff" d="M686.69,-297.77C694.82,-295.68 703.14,-293.53 711,-291.5 729.8,-286.63 750.38,-281.26 768.66,-276.48"/>
<polygon fill="#63b8ff" stroke="#63b8ff" points="686.08,-294.32 677.26,-300.19 687.82,-301.1 686.08,-294.32"/>
</g>
<!-- Node8 -->
<g id="node9" class="node">
<title>Node8</title>
<g id="a_node9"><a xlink:href="classrealization_1_1_bmi___c___formulation.html" target="_top" xlink:title=" ">
<polygon fill="white" stroke="#666666" points="1057.5,-223.5 963.5,-223.5 963.5,-193.5 1057.5,-193.5 1057.5,-223.5"/>
<text text-anchor="start" x="971.5" y="-211.5" font-family="Helvetica,sans-Serif" font-size="10.00">realization::Bmi_C</text>
<text text-anchor="middle" x="1010.5" y="-200.5" font-family="Helvetica,sans-Serif" font-size="10.00">_Formulation</text>
</a>
</g>
</g>
<!-- Node7&#45;&gt;Node8 -->
<g id="edge8" class="edge">
<title>Node7&#45;&gt;Node8</title>
<path fill="none" stroke="#63b8ff" d="M894.4,-208.5C917.37,-208.5 942.3,-208.5 963.06,-208.5"/>
<polygon fill="#63b8ff" stroke="#63b8ff" points="894.46,-205 884.46,-208.5 894.46,-212 894.46,-205"/>
</g>
<!-- Node10 -->
<g id="node11" class="node">
<title>Node10</title>
<g id="a_node11"><a xlink:href="classrealization_1_1_bmi___cpp___formulation.html" target="_top" xlink:title="Encapsulates a bmi::Bmi model in C++ such that it can be loaded as a formulation, as such also so tha...">
<polygon fill="white" stroke="#666666" points="1062.5,-379.5 958.5,-379.5 958.5,-349.5 1062.5,-349.5 1062.5,-379.5"/>
<text text-anchor="start" x="966.5" y="-367.5" font-family="Helvetica,sans-Serif" font-size="10.00">realization::Bmi_Cpp</text>
<text text-anchor="middle" x="1010.5" y="-356.5" font-family="Helvetica,sans-Serif" font-size="10.00">_Formulation</text>
</a>
</g>
</g>
<!-- Node9&#45;&gt;Node10 -->
<g id="edge10" class="edge">
<title>Node9&#45;&gt;Node10</title>
<path fill="none" stroke="#63b8ff" d="M896.53,-364.5C917.15,-364.5 939.16,-364.5 958.23,-364.5"/>
<polygon fill="#63b8ff" stroke="#63b8ff" points="896.77,-361 886.77,-364.5 896.77,-368 896.77,-361"/>
</g>
<!-- Node18 -->
<g id="node14" class="node">
<title>Node18</title>
<g id="a_node14"><a xlink:href="class_g_m___object.html" target="_top" xlink:title=" ">
<polygon fill="white" stroke="#666666" points="98.5,-130 32.5,-130 32.5,-111 98.5,-111 98.5,-130"/>
<text text-anchor="middle" x="65.5" y="-118" font-family="Helvetica,sans-Serif" font-size="10.00">GM_Object</text>
</a>
</g>
</g>
<!-- Node17 -->
<g id="node15" class="node">
<title>Node17</title>
<g id="a_node15"><a xlink:href="class_h_y___catchment_area.html" target="_top" xlink:title=" ">
<polygon fill="white" stroke="#666666" points="314.5,-130 210.5,-130 210.5,-111 314.5,-111 314.5,-130"/>
<text text-anchor="middle" x="262.5" y="-118" font-family="Helvetica,sans-Serif" font-size="10.00">HY_CatchmentArea</text>
</a>
</g>
</g>
<!-- Node18&#45;&gt;Node17 -->
<g id="edge13" class="edge">
<title>Node18&#45;&gt;Node17</title>
<path fill="none" stroke="#63b8ff" d="M109.95,-120.5C139.59,-120.5 178.98,-120.5 210.17,-120.5"/>
<polygon fill="#63b8ff" stroke="#63b8ff" points="110.21,-117 100.21,-120.5 110.21,-124 110.21,-117"/>
</g>
<!-- Node19 -->
<g id="node20" class="node">
<title>Node19</title>
<g id="a_node20"><a xlink:href="class_h_y___catchment_divide.html" target="_top" xlink:title=" ">
<polygon fill="white" stroke="#666666" points="317.5,-93 207.5,-93 207.5,-74 317.5,-74 317.5,-93"/>
<text text-anchor="middle" x="262.5" y="-81" font-family="Helvetica,sans-Serif" font-size="10.00">HY_CatchmentDivide</text>
</a>
</g>
</g>
<!-- Node18&#45;&gt;Node19 -->
<g id="edge19" class="edge">
<title>Node18&#45;&gt;Node19</title>
<path fill="none" stroke="#63b8ff" d="M109.82,-112.28C139.12,-106.72 177.98,-99.35 209.03,-93.46"/>
<polygon fill="#63b8ff" stroke="#63b8ff" points="109.36,-108.81 100.19,-114.11 110.66,-115.68 109.36,-108.81"/>
</g>
<!-- Node22 -->
<g id="node21" class="node">
<title>Node22</title>
<g id="a_node21"><a xlink:href="class_h_y___flow_path.html" target="_top" xlink:title=" ">
<polygon fill="white" stroke="#666666" points="301,-56 224,-56 224,-37 301,-37 301,-56"/>
<text text-anchor="middle" x="262.5" y="-44" font-family="Helvetica,sans-Serif" font-size="10.00">HY_FlowPath</text>
</a>
</g>
</g>
<!-- Node18&#45;&gt;Node22 -->
<g id="edge20" class="edge">
<title>Node18&#45;&gt;Node22</title>
<path fill="none" stroke="#63b8ff" d="M109.5,-111.2C116.96,-108.65 124.42,-105.47 131,-101.5 150.65,-89.65 146.8,-75.37 167,-64.5 184.35,-55.16 205.79,-50.61 223.85,-48.41"/>
<polygon fill="#63b8ff" stroke="#63b8ff" points="108.69,-107.78 100.13,-114.03 110.72,-114.48 108.69,-107.78"/>
</g>
<!-- Node23 -->
<g id="node22" class="node">
<title>Node23</title>
<g id="a_node22"><a xlink:href="class_h_y___hydro_network.html" target="_top" xlink:title=" ">
<polygon fill="white" stroke="#666666" points="311.5,-167 213.5,-167 213.5,-148 311.5,-148 311.5,-167"/>
<text text-anchor="middle" x="262.5" y="-155" font-family="Helvetica,sans-Serif" font-size="10.00">HY_HydroNetwork</text>
</a>
</g>
</g>
<!-- Node18&#45;&gt;Node23 -->
<g id="edge21" class="edge">
<title>Node18&#45;&gt;Node23</title>
<path fill="none" stroke="#63b8ff" d="M109.88,-128.73C140.49,-134.54 181.52,-142.32 213.17,-148.33"/>
<polygon fill="#63b8ff" stroke="#63b8ff" points="110.66,-125.32 100.19,-126.89 109.36,-132.19 110.66,-125.32"/>
</g>
<!-- Node24 -->
<g id="node23" class="node">
<title>Node24</title>
<g id="a_node23"><a xlink:href="classhy__features_1_1hydrolocation_1_1_h_y___hydro_location.html" target="_top" xlink:title=" ">
<polygon fill="white" stroke="#666666" points="326.5,-215.5 198.5,-215.5 198.5,-185.5 326.5,-185.5 326.5,-215.5"/>
<text text-anchor="start" x="206.5" y="-203.5" font-family="Helvetica,sans-Serif" font-size="10.00">hy_features::hydrolocation</text>
<text text-anchor="middle" x="262.5" y="-192.5" font-family="Helvetica,sans-Serif" font-size="10.00">::HY_HydroLocation</text>
</a>
</g>
</g>
<!-- Node18&#45;&gt;Node24 -->
<g id="edge22" class="edge">
<title>Node18&#45;&gt;Node24</title>
<path fill="none" stroke="#63b8ff" d="M91.71,-136.54C111.55,-148.6 140.22,-164.81 167,-175.5 176.85,-179.43 187.52,-182.93 198.03,-185.98"/>
<polygon fill="#63b8ff" stroke="#63b8ff" points="93.57,-133.57 83.22,-131.29 89.89,-139.53 93.57,-133.57"/>
</g>
<!-- Node13 -->
<g id="node16" class="node">
<title>Node13</title>
<g id="a_node16"><a xlink:href="classrealization_1_1_catchment___formulation.html" target="_top" xlink:title=" ">
<polygon fill="white" stroke="#666666" points="515.5,-258.5 403.5,-258.5 403.5,-228.5 515.5,-228.5 515.5,-258.5"/>
<text text-anchor="start" x="411.5" y="-246.5" font-family="Helvetica,sans-Serif" font-size="10.00">realization::Catchment</text>
<text text-anchor="middle" x="459.5" y="-235.5" font-family="Helvetica,sans-Serif" font-size="10.00">_Formulation</text>
</a>
</g>
</g>
<!-- Node17&#45;&gt;Node13 -->
<g id="edge14" class="edge">
<title>Node17&#45;&gt;Node13</title>
<path fill="none" stroke="#63b8ff" d="M325.64,-126.65C336.84,-129.32 348.09,-133.12 358,-138.5 398.57,-160.55 432.5,-204.73 448.54,-228.13"/>
<polygon fill="#63b8ff" stroke="#63b8ff" points="326.5,-123.25 316,-124.65 325.07,-130.11 326.5,-123.25"/>
</g>
<!-- Node13&#45;&gt;Node6 -->
<g id="edge16" class="edge">
<title>Node13&#45;&gt;Node6</title>
<path fill="none" stroke="#63b8ff" d="M498.93,-264.02C517.35,-273.29 539.94,-283.85 561,-291.5 570.35,-294.9 580.57,-297.93 590.36,-300.53"/>
<polygon fill="#63b8ff" stroke="#63b8ff" points="500.73,-261.01 490.24,-259.57 497.55,-267.24 500.73,-261.01"/>
</g>
<!-- Node14 -->
<g id="node17" class="node">
<title>Node14</title>
<g id="a_node17"><a xlink:href="class_simple___lumped___model___realization.html" target="_top" xlink:title=" ">
<polygon fill="white" stroke="#666666" points="695.5,-282.5 576.5,-282.5 576.5,-252.5 695.5,-252.5 695.5,-282.5"/>
<text text-anchor="start" x="584.5" y="-270.5" font-family="Helvetica,sans-Serif" font-size="10.00">Simple_Lumped_Model</text>
<text text-anchor="middle" x="636" y="-259.5" font-family="Helvetica,sans-Serif" font-size="10.00">_Realization</text>
</a>
</g>
</g>
<!-- Node13&#45;&gt;Node14 -->
<g id="edge15" class="edge">
<title>Node13&#45;&gt;Node14</title>
<path fill="none" stroke="#63b8ff" d="M526.78,-252.62C543.04,-254.85 560.34,-257.23 576.23,-259.42"/>
<polygon fill="#63b8ff" stroke="#63b8ff" points="527.6,-249.2 517.21,-251.3 526.64,-256.13 527.6,-249.2"/>
</g>
<!-- Node15 -->
<g id="node18" class="node">
<title>Node15</title>
<g id="a_node18"><a xlink:href="classrealization_1_1_tshirt___c___realization.html" target="_top" xlink:title=" ">
<polygon fill="white" stroke="#666666" points="680.5,-234.5 591.5,-234.5 591.5,-204.5 680.5,-204.5 680.5,-234.5"/>
<text text-anchor="start" x="599.5" y="-222.5" font-family="Helvetica,sans-Serif" font-size="10.00">realization::Tshirt</text>
<text text-anchor="middle" x="636" y="-211.5" font-family="Helvetica,sans-Serif" font-size="10.00">_C_Realization</text>
</a>
</g>
</g>
<!-- Node13&#45;&gt;Node15 -->
<g id="edge17" class="edge">
<title>Node13&#45;&gt;Node15</title>
<path fill="none" stroke="#63b8ff" d="M527.08,-234.34C548.55,-231.39 571.8,-228.19 591.19,-225.53"/>
<polygon fill="#63b8ff" stroke="#63b8ff" points="526.64,-230.87 517.21,-235.7 527.6,-237.8 526.64,-230.87"/>
</g>
<!-- Node16 -->
<g id="node19" class="node">
<title>Node16</title>
<g id="a_node19"><a xlink:href="classrealization_1_1_tshirt___realization.html" target="_top" xlink:title=" ">
<polygon fill="white" stroke="#666666" points="680.5,-186.5 591.5,-186.5 591.5,-156.5 680.5,-156.5 680.5,-186.5"/>
<text text-anchor="start" x="599.5" y="-174.5" font-family="Helvetica,sans-Serif" font-size="10.00">realization::Tshirt</text>
<text text-anchor="middle" x="636" y="-163.5" font-family="Helvetica,sans-Serif" font-size="10.00">_Realization</text>
</a>
</g>
</g>
<!-- Node13&#45;&gt;Node16 -->
<g id="edge18" class="edge">
<title>Node13&#45;&gt;Node16</title>
<path fill="none" stroke="#63b8ff" d="M500.21,-223.04C518.48,-214.02 540.58,-203.65 561,-195.5 570.66,-191.65 581.2,-187.94 591.22,-184.64"/>
<polygon fill="#63b8ff" stroke="#63b8ff" points="498.68,-219.9 491.3,-227.49 501.81,-226.16 498.68,-219.9"/>
</g>
<!-- Node20 -->
<g id="node24" class="node">
<title>Node20</title>
<g id="a_node24"><a xlink:href="class_h_y___catchment_realization.html" target="_top" xlink:title=" ">
<polygon fill="white" stroke="#666666" points="131,-93 0,-93 0,-74 131,-74 131,-93"/>
<text text-anchor="middle" x="65.5" y="-81" font-family="Helvetica,sans-Serif" font-size="10.00">HY_CatchmentRealization</text>
</a>
</g>
</g>
<!-- Node20&#45;&gt;Node17 -->
<g id="edge24" class="edge">
<title>Node20&#45;&gt;Node17</title>
<path fill="none" stroke="#63b8ff" d="M130.26,-95.6C156.19,-100.52 185.75,-106.13 210.24,-110.77"/>
<polygon fill="#63b8ff" stroke="#63b8ff" points="130.98,-92.17 120.5,-93.75 129.67,-99.05 130.98,-92.17"/>
</g>
<!-- Node20&#45;&gt;Node19 -->
<g id="edge25" class="edge">
<title>Node20&#45;&gt;Node19</title>
<path fill="none" stroke="#63b8ff" d="M142.86,-83.5C164.38,-83.5 187.33,-83.5 207.26,-83.5"/>
<polygon fill="#63b8ff" stroke="#63b8ff" points="142.95,-80 132.95,-83.5 142.95,-87 142.95,-80"/>
</g>
<!-- Node20&#45;&gt;Node22 -->
<g id="edge26" class="edge">
<title>Node20&#45;&gt;Node22</title>
<path fill="none" stroke="#63b8ff" d="M130.15,-71.42C161.08,-65.55 197.21,-58.7 223.74,-53.67"/>
<polygon fill="#63b8ff" stroke="#63b8ff" points="129.67,-67.95 120.5,-73.25 130.98,-74.83 129.67,-67.95"/>
</g>
<!-- Node20&#45;&gt;Node23 -->
<g id="edge27" class="edge">
<title>Node20&#45;&gt;Node23</title>
<path fill="none" stroke="#63b8ff" d="M123.89,-97.73C126.34,-98.89 128.72,-100.15 131,-101.5 150.73,-113.21 146.85,-127.53 167,-138.5 181.11,-146.18 197.92,-150.78 213.43,-153.52"/>
<polygon fill="#63b8ff" stroke="#63b8ff" points="125.49,-94.61 114.92,-94.03 122.82,-101.08 125.49,-94.61"/>
</g>
<!-- Node21 -->
<g id="node25" class="node">
<title>Node21</title>
<g id="a_node25"><a xlink:href="class_h_y___cartographic_realization.html" target="_top" xlink:title=" ">
<polygon fill="white" stroke="#666666" points="331.5,-19 193.5,-19 193.5,0 331.5,0 331.5,-19"/>
<text text-anchor="middle" x="262.5" y="-7" font-family="Helvetica,sans-Serif" font-size="10.00">HY_CartographicRealization</text>
</a>
</g>
</g>
<!-- Node20&#45;&gt;Node21 -->
<g id="edge23" class="edge">
<title>Node20&#45;&gt;Node21</title>
<path fill="none" stroke="#63b8ff" d="M90.16,-67.44C109.9,-54.77 139.18,-37.6 167,-27.5 175.79,-24.31 185.26,-21.65 194.68,-19.45"/>
<polygon fill="#63b8ff" stroke="#63b8ff" points="88.48,-64.36 82.04,-72.77 92.32,-70.21 88.48,-64.36"/>
</g>
<!-- Node26 -->
<g id="node26" class="node">
<title>Node26</title>
<g id="a_node26"><a xlink:href="classrealization_1_1_et___aware.html" target="_top" xlink:title="Interface for type that is aware of parameters for evapotranspiration in certain calculations,...">
<polygon fill="white" stroke="#666666" points="119,-271 12,-271 12,-252 119,-252 119,-271"/>
<text text-anchor="middle" x="65.5" y="-259" font-family="Helvetica,sans-Serif" font-size="10.00">realization::Et_Aware</text>
</a>
</g>
</g>
<!-- Node25 -->
<g id="node27" class="node">
<title>Node25</title>
<g id="a_node27"><a xlink:href="classrealization_1_1_et___accountable.html" target="_top" xlink:title="Interface for type that is able to account for evapotranspiration in certain calculations,...">
<polygon fill="white" stroke="#666666" points="329,-253 196,-253 196,-234 329,-234 329,-253"/>
<text text-anchor="middle" x="262.5" y="-241" font-family="Helvetica,sans-Serif" font-size="10.00">realization::Et_Accountable</text>
</a>
</g>
</g>
<!-- Node26&#45;&gt;Node25 -->
<g id="edge28" class="edge">
<title>Node26&#45;&gt;Node25</title>
<path fill="none" stroke="#63b8ff" d="M130.62,-255.58C151.53,-253.65 174.76,-251.51 195.79,-249.57"/>
<polygon fill="#63b8ff" stroke="#63b8ff" points="130.41,-252.09 120.78,-256.49 131.06,-259.06 130.41,-252.09"/>
</g>
<!-- Node27 -->
<g id="node28" class="node">
<title>Node27</title>
<g id="a_node28"><a xlink:href="classrealization_1_1_formulation.html" target="_top" xlink:title=" ">
<polygon fill="white" stroke="#666666" points="320.5,-290 204.5,-290 204.5,-271 320.5,-271 320.5,-290"/>
<text text-anchor="middle" x="262.5" y="-278" font-family="Helvetica,sans-Serif" font-size="10.00">realization::Formulation</text>
</a>
</g>
</g>
<!-- Node26&#45;&gt;Node27 -->
<g id="edge30" class="edge">
<title>Node26&#45;&gt;Node27</title>
<path fill="none" stroke="#63b8ff" d="M130.66,-267.75C154.4,-270.06 181.15,-272.67 204.24,-274.92"/>
<polygon fill="#63b8ff" stroke="#63b8ff" points="131.07,-264.27 120.78,-266.79 130.39,-271.24 131.07,-264.27"/>
</g>
<!-- Node25&#45;&gt;Node13 -->
<g id="edge29" class="edge">
<title>Node25&#45;&gt;Node13</title>
<path fill="none" stroke="#63b8ff" d="M340.68,-243.5C361.54,-243.5 383.71,-243.5 403.11,-243.5"/>
<polygon fill="#63b8ff" stroke="#63b8ff" points="340.76,-240 330.76,-243.5 340.76,-247 340.76,-240"/>
</g>
<!-- Node27&#45;&gt;Node13 -->
<g id="edge31" class="edge">
<title>Node27&#45;&gt;Node13</title>
<path fill="none" stroke="#63b8ff" d="M327.04,-268.44C351.6,-263.78 379.44,-258.5 403.17,-254"/>
<polygon fill="#63b8ff" stroke="#63b8ff" points="326.67,-264.95 317.5,-270.25 327.98,-271.83 326.67,-264.95"/>
</g>
</g>
</svg>
