<?xml version="1.0" encoding="UTF-8" standalone="no"?>
<!DOCTYPE svg PUBLIC "-//W3C//DTD SVG 1.1//EN"
 "http://www.w3.org/Graphics/SVG/1.1/DTD/svg11.dtd">
<!-- Generated by graphviz version 9.0.0 (20230911.1827)
 -->
<!-- Title: Graphical Class Hierarchy Pages: 1 -->
<svg width="1047pt" height="294pt"
 viewBox="0.00 0.00 1046.75 293.88" xmlns="http://www.w3.org/2000/svg" xmlns:xlink="http://www.w3.org/1999/xlink">
<g id="graph0" class="graph" transform="scale(1 1) rotate(0) translate(4 289.88)">
<title>Graphical Class Hierarchy</title>
<!-- Node0 -->
<g id="Node000000" class="node">
<title>Node0</title>
<g id="a_Node000000"><a xlink:href="classdata__access_1_1_data_provider.html" target="_top" xlink:title=" ">
<polygon fill="white" stroke="#666666" points="480,-234.5 339.5,-234.5 339.5,-204 480,-204 480,-234.5"/>
<text text-anchor="start" x="347.5" y="-221" font-family="Helvetica,sans-Serif" font-size="10.00">data_access::DataProvider</text>
<text text-anchor="middle" x="409.75" y="-209.75" font-family="Helvetica,sans-Serif" font-size="10.00">&lt; DataType, SelectionType &gt;</text>
</a>
</g>
</g>
<!-- Node1 -->
<g id="Node000001" class="node">
<title>Node1</title>
<g id="a_Node000001"><a xlink:href="class_csv_per_feature_forcing_provider.html" target="_top" xlink:title="Forcing class providing time&#45;series precipiation forcing data to the model.">
<polygon fill="white" stroke="#666666" points="665.5,-285.88 516,-285.88 516,-266.62 665.5,-266.62 665.5,-285.88"/>
<text text-anchor="middle" x="590.75" y="-272.38" font-family="Helvetica,sans-Serif" font-size="10.00">CsvPerFeatureForcingProvider</text>
</a>
</g>
</g>
<!-- Node0&#45;&gt;Node1 -->
<g id="edge29_Node000000_Node000001" class="edge">
<title>Node0&#45;&gt;Node1</title>
<g id="a_edge29_Node000000_Node000001"><a xlink:title=" ">
<path fill="none" stroke="#63b8ff" d="M460.38,-238.98C477.82,-245.55 497.64,-252.63 516,-258.25 525.33,-261.11 535.42,-263.81 545.06,-266.22"/>
<polygon fill="#63b8ff" stroke="#63b8ff" points="461.87,-235.8 451.28,-235.51 459.38,-242.34 461.87,-235.8"/>
</a>
</g>
</g>
<!-- Node2 -->
<g id="Node000002" class="node">
<title>Node2</title>
<g id="a_Node000002"><a xlink:href="class_null_forcing_provider.html" target="_top" xlink:title="Forcing class that returns no variables to the simulation–use this e.g.">
<polygon fill="white" stroke="#666666" points="641.5,-248.88 540,-248.88 540,-229.62 641.5,-229.62 641.5,-248.88"/>
<text text-anchor="middle" x="590.75" y="-235.38" font-family="Helvetica,sans-Serif" font-size="10.00">NullForcingProvider</text>
</a>
</g>
</g>
<!-- Node0&#45;&gt;Node2 -->
<g id="edge30_Node000000_Node000002" class="edge">
<title>Node0&#45;&gt;Node2</title>
<g id="a_edge30_Node000000_Node000002"><a xlink:title=" ">
<path fill="none" stroke="#63b8ff" d="M491.68,-228.29C508.01,-230.12 524.72,-231.98 539.61,-233.65"/>
<polygon fill="#63b8ff" stroke="#63b8ff" points="492.3,-224.84 481.97,-227.21 491.52,-231.8 492.3,-224.84"/>
</a>
</g>
</g>
<!-- Node3 -->
<g id="Node000003" class="node">
<title>Node3</title>
<g id="a_Node000003"><a xlink:href="classdata__access_1_1_wrapped_data_provider.html" target="_top" xlink:title="Simple implementation that basically wraps another instance.">
<polygon fill="white" stroke="#666666" points="658,-211.5 523.5,-211.5 523.5,-181 658,-181 658,-211.5"/>
<text text-anchor="start" x="531.5" y="-198" font-family="Helvetica,sans-Serif" font-size="10.00">data_access::WrappedData</text>
<text text-anchor="middle" x="590.75" y="-186.75" font-family="Helvetica,sans-Serif" font-size="10.00">Provider</text>
</a>
</g>
</g>
<!-- Node0&#45;&gt;Node3 -->
<g id="edge31_Node000000_Node000003" class="edge">
<title>Node0&#45;&gt;Node3</title>
<g id="a_edge31_Node000000_Node000003"><a xlink:title=" ">
<path fill="none" stroke="#63b8ff" d="M491.77,-208.84C502.27,-207.49 512.93,-206.12 523.15,-204.81"/>
<polygon fill="#63b8ff" stroke="#63b8ff" points="491.44,-205.35 481.97,-210.1 492.33,-212.3 491.44,-205.35"/>
</a>
</g>
</g>
<!-- Node6 -->
<g id="Node000006" class="node">
<title>Node6</title>
<g id="a_Node000006"><a xlink:href="classrealization_1_1_bmi___formulation.html" target="_top" xlink:title="Abstraction of formulation with backing model object(s) that implements the BMI.">
<polygon fill="white" stroke="#666666" points="659.5,-159.88 522,-159.88 522,-140.62 659.5,-140.62 659.5,-159.88"/>
<text text-anchor="middle" x="590.75" y="-146.38" font-family="Helvetica,sans-Serif" font-size="10.00">realization::Bmi_Formulation</text>
</a>
</g>
</g>
<!-- Node0&#45;&gt;Node6 -->
<g id="edge34_Node000000_Node000006" class="edge">
<title>Node0&#45;&gt;Node6</title>
<g id="a_edge34_Node000000_Node000006"><a xlink:title=" ">
<path fill="none" stroke="#63b8ff" d="M453.39,-198.69C472.33,-189.96 495.04,-180.02 516,-172.25 527.78,-167.89 540.85,-163.76 552.68,-160.29"/>
<polygon fill="#63b8ff" stroke="#63b8ff" points="451.97,-195.49 444.38,-202.89 454.92,-201.84 451.97,-195.49"/>
</a>
</g>
</g>
<!-- Node4 -->
<g id="Node000004" class="node">
<title>Node4</title>
<g id="a_Node000004"><a xlink:href="classdata__access_1_1_deferred_wrapped_provider.html" target="_top" xlink:title="A specialized @WrappedDataProvider that is created without first knowing the backing source it wraps.">
<polygon fill="white" stroke="#666666" points="852.5,-214.5 701.5,-214.5 701.5,-184 852.5,-184 852.5,-214.5"/>
<text text-anchor="start" x="709.5" y="-201" font-family="Helvetica,sans-Serif" font-size="10.00">data_access::DeferredWrapped</text>
<text text-anchor="middle" x="777" y="-189.75" font-family="Helvetica,sans-Serif" font-size="10.00">Provider</text>
</a>
</g>
</g>
<!-- Node3&#45;&gt;Node4 -->
<g id="edge32_Node000003_Node000004" class="edge">
<title>Node3&#45;&gt;Node4</title>
<g id="a_edge32_Node000003_Node000004"><a xlink:title=" ">
<path fill="none" stroke="#63b8ff" d="M669.51,-197.52C679.99,-197.69 690.72,-197.86 701.14,-198.03"/>
<polygon fill="#63b8ff" stroke="#63b8ff" points="669.84,-194.02 659.78,-197.36 669.72,-201.02 669.84,-194.02"/>
</a>
</g>
</g>
<!-- Node5 -->
<g id="Node000005" class="node">
<title>Node5</title>
<g id="a_Node000005"><a xlink:href="classdata__access_1_1_optional_wrapped_data_provider.html" target="_top" xlink:title="Extension of DeferredWrappedProvider, where default values can be used instead of a backing provider.">
<polygon fill="white" stroke="#666666" points="1038.75,-214.5 888.5,-214.5 888.5,-184 1038.75,-184 1038.75,-214.5"/>
<text text-anchor="start" x="896.5" y="-201" font-family="Helvetica,sans-Serif" font-size="10.00">data_access::OptionalWrapped</text>
<text text-anchor="middle" x="963.62" y="-189.75" font-family="Helvetica,sans-Serif" font-size="10.00">DataProvider</text>
</a>
</g>
</g>
<!-- Node4&#45;&gt;Node5 -->
<g id="edge33_Node000004_Node000005" class="edge">
<title>Node4&#45;&gt;Node5</title>
<g id="a_edge33_Node000004_Node000005"><a xlink:title=" ">
<path fill="none" stroke="#63b8ff" d="M864.16,-199.25C872.22,-199.25 880.35,-199.25 888.29,-199.25"/>
<polygon fill="#63b8ff" stroke="#63b8ff" points="864.34,-195.75 854.34,-199.25 864.34,-202.75 864.34,-195.75"/>
</a>
</g>
</g>
<!-- Node7 -->
<g id="Node000007" class="node">
<title>Node7</title>
<g id="a_Node000007"><a xlink:href="classrealization_1_1_bmi___module___formulation.html" target="_top" xlink:title="Abstraction of a formulation with a single backing model object that implements the BMI.">
<polygon fill="white" stroke="#666666" points="836,-116.5 718,-116.5 718,-86 836,-86 836,-116.5"/>
<text text-anchor="start" x="726" y="-103" font-family="Helvetica,sans-Serif" font-size="10.00">realization::Bmi_Module</text>
<text text-anchor="middle" x="777" y="-91.75" font-family="Helvetica,sans-Serif" font-size="10.00">_Formulation</text>
</a>
</g>
</g>
<!-- Node6&#45;&gt;Node7 -->
<g id="edge35_Node000006_Node000007" class="edge">
<title>Node6&#45;&gt;Node7</title>
<g id="a_edge35_Node000006_Node000007"><a xlink:title=" ">
<path fill="none" stroke="#63b8ff" d="M640.33,-137.33C664.04,-131.02 692.74,-123.39 717.63,-116.77"/>
<polygon fill="#63b8ff" stroke="#63b8ff" points="639.71,-133.87 630.94,-139.83 641.51,-140.64 639.71,-133.87"/>
</a>
</g>
</g>
<!-- Node10 -->
<g id="Node000010" class="node">
<title>Node10</title>
<g id="a_Node000010"><a xlink:href="classrealization_1_1_bmi___multi___formulation.html" target="_top" xlink:title="Abstraction of a formulation with multiple backing model object that implements the BMI.">
<polygon fill="white" stroke="#666666" points="830.75,-165.5 723.25,-165.5 723.25,-135 830.75,-135 830.75,-165.5"/>
<text text-anchor="start" x="731.25" y="-152" font-family="Helvetica,sans-Serif" font-size="10.00">realization::Bmi_Multi</text>
<text text-anchor="middle" x="777" y="-140.75" font-family="Helvetica,sans-Serif" font-size="10.00">_Formulation</text>
</a>
</g>
</g>
<!-- Node6&#45;&gt;Node10 -->
<g id="edge38_Node000006_Node000010" class="edge">
<title>Node6&#45;&gt;Node10</title>
<g id="a_edge38_Node000006_Node000010"><a xlink:title=" ">
<path fill="none" stroke="#63b8ff" d="M671.2,-150.25C688.66,-150.25 706.75,-150.25 722.88,-150.25"/>
<polygon fill="#63b8ff" stroke="#63b8ff" points="671.35,-146.75 661.35,-150.25 671.35,-153.75 671.35,-146.75"/>
</a>
</g>
</g>
<!-- Node8 -->
<g id="Node000008" class="node">
<title>Node8</title>
<g id="a_Node000008"><a xlink:href="classrealization_1_1_bmi___c___formulation.html" target="_top" xlink:title=" ">
<polygon fill="white" stroke="#666666" points="1010.25,-92.5 917,-92.5 917,-62 1010.25,-62 1010.25,-92.5"/>
<text text-anchor="start" x="925" y="-79" font-family="Helvetica,sans-Serif" font-size="10.00">realization::Bmi_C</text>
<text text-anchor="middle" x="963.62" y="-67.75" font-family="Helvetica,sans-Serif" font-size="10.00">_Formulation</text>
</a>
</g>
</g>
<!-- Node7&#45;&gt;Node8 -->
<g id="edge36_Node000007_Node000008" class="edge">
<title>Node7&#45;&gt;Node8</title>
<g id="a_edge36_Node000007_Node000008"><a xlink:title=" ">
<path fill="none" stroke="#63b8ff" d="M847.55,-92.21C870.63,-89.21 895.72,-85.95 916.57,-83.24"/>
<polygon fill="#63b8ff" stroke="#63b8ff" points="847.38,-88.7 837.92,-93.46 848.29,-95.64 847.38,-88.7"/>
</a>
</g>
</g>
<!-- Node9 -->
<g id="Node000009" class="node">
<title>Node9</title>
<g id="a_Node000009"><a xlink:href="classrealization_1_1_bmi___cpp___formulation.html" target="_top" xlink:title="Encapsulates a bmi::Bmi model in C++ such that it can be loaded as a formulation, as such also so tha...">
<polygon fill="white" stroke="#666666" points="1015.5,-141.5 911.75,-141.5 911.75,-111 1015.5,-111 1015.5,-141.5"/>
<text text-anchor="start" x="919.75" y="-128" font-family="Helvetica,sans-Serif" font-size="10.00">realization::Bmi_Cpp</text>
<text text-anchor="middle" x="963.62" y="-116.75" font-family="Helvetica,sans-Serif" font-size="10.00">_Formulation</text>
</a>
</g>
</g>
<!-- Node7&#45;&gt;Node9 -->
<g id="edge37_Node000007_Node000009" class="edge">
<title>Node7&#45;&gt;Node9</title>
<g id="a_edge37_Node000007_Node000009"><a xlink:title=" ">
<path fill="none" stroke="#63b8ff" d="M847.65,-110.68C868.83,-113.55 891.71,-116.65 911.44,-119.32"/>
<polygon fill="#63b8ff" stroke="#63b8ff" points="848.3,-107.24 837.92,-109.36 847.36,-114.17 848.3,-107.24"/>
</a>
</g>
</g>
<!-- Node13 -->
<g id="Node000013" class="node">
<title>Node13</title>
<g id="a_Node000013"><a xlink:href="class_g_m___object.html" target="_top" xlink:title=" ">
<polygon fill="white" stroke="#666666" points="97.75,-104.88 32.25,-104.88 32.25,-85.62 97.75,-85.62 97.75,-104.88"/>
<text text-anchor="middle" x="65" y="-91.38" font-family="Helvetica,sans-Serif" font-size="10.00">GM_Object</text>
</a>
</g>
</g>
<!-- Node12 -->
<g id="Node000012" class="node">
<title>Node12</title>
<g id="a_Node000012"><a xlink:href="class_h_y___catchment_area.html" target="_top" xlink:title=" ">
<polygon fill="white" stroke="#666666" points="286.25,-104.88 183.25,-104.88 183.25,-85.62 286.25,-85.62 286.25,-104.88"/>
<text text-anchor="middle" x="234.75" y="-91.38" font-family="Helvetica,sans-Serif" font-size="10.00">HY_CatchmentArea</text>
</a>
</g>
</g>
<!-- Node13&#45;&gt;Node12 -->
<g id="edge39_Node000013_Node000012" class="edge">
<title>Node13&#45;&gt;Node12</title>
<g id="a_edge39_Node000013_Node000012"><a xlink:title=" ">
<path fill="none" stroke="#63b8ff" d="M109.18,-95.25C131.66,-95.25 159.27,-95.25 182.79,-95.25"/>
<polygon fill="#63b8ff" stroke="#63b8ff" points="109.46,-91.75 99.46,-95.25 109.46,-98.75 109.46,-91.75"/>
</a>
</g>
</g>
<!-- Node14 -->
<g id="Node000014" class="node">
<title>Node14</title>
<g id="a_Node000014"><a xlink:href="class_h_y___catchment_divide.html" target="_top" xlink:title=" ">
<polygon fill="white" stroke="#666666" points="289.62,-67.88 179.88,-67.88 179.88,-48.62 289.62,-48.62 289.62,-67.88"/>
<text text-anchor="middle" x="234.75" y="-54.38" font-family="Helvetica,sans-Serif" font-size="10.00">HY_CatchmentDivide</text>
</a>
</g>
</g>
<!-- Node13&#45;&gt;Node14 -->
<g id="edge42_Node000013_Node000014" class="edge">
<title>Node13&#45;&gt;Node14</title>
<g id="a_edge42_Node000013_Node000014"><a xlink:title=" ">
<path fill="none" stroke="#63b8ff" d="M108.94,-85.78C133.13,-80.44 163.34,-73.78 187.98,-68.35"/>
<polygon fill="#63b8ff" stroke="#63b8ff" points="108.44,-82.31 99.43,-87.88 109.94,-89.14 108.44,-82.31"/>
</a>
</g>
</g>
<!-- Node17 -->
<g id="Node000017" class="node">
<title>Node17</title>
<g id="a_Node000017"><a xlink:href="class_h_y___flow_path.html" target="_top" xlink:title=" ">
<polygon fill="white" stroke="#666666" points="273.12,-141.88 196.38,-141.88 196.38,-122.62 273.12,-122.62 273.12,-141.88"/>
<text text-anchor="middle" x="234.75" y="-128.38" font-family="Helvetica,sans-Serif" font-size="10.00">HY_FlowPath</text>
</a>
</g>
</g>
<!-- Node13&#45;&gt;Node17 -->
<g id="edge43_Node000013_Node000017" class="edge">
<title>Node13&#45;&gt;Node17</title>
<g id="a_edge43_Node000013_Node000017"><a xlink:title=" ">
<path fill="none" stroke="#63b8ff" d="M108.98,-104.73C135.88,-110.66 170.22,-118.24 196.06,-123.94"/>
<polygon fill="#63b8ff" stroke="#63b8ff" points="109.94,-101.36 99.43,-102.62 108.44,-108.19 109.94,-101.36"/>
</a>
</g>
</g>
<!-- Node18 -->
<g id="Node000018" class="node">
<title>Node18</title>
<g id="a_Node000018"><a xlink:href="class_h_y___hydro_network.html" target="_top" xlink:title=" ">
<polygon fill="white" stroke="#666666" points="283.62,-178.88 185.88,-178.88 185.88,-159.62 283.62,-159.62 283.62,-178.88"/>
<text text-anchor="middle" x="234.75" y="-165.38" font-family="Helvetica,sans-Serif" font-size="10.00">HY_HydroNetwork</text>
</a>
</g>
</g>
<!-- Node13&#45;&gt;Node18 -->
<g id="edge44_Node000013_Node000018" class="edge">
<title>Node13&#45;&gt;Node18</title>
<g id="a_edge44_Node000013_Node000018"><a xlink:title=" ">
<path fill="none" stroke="#63b8ff" d="M108.97,-103.87C116.27,-106.29 123.57,-109.37 130,-113.25 149.91,-125.28 146,-139.37 166,-151.25 171.96,-154.79 178.63,-157.65 185.39,-159.95"/>
<polygon fill="#63b8ff" stroke="#63b8ff" points="110.01,-100.53 99.43,-101.1 108.06,-107.25 110.01,-100.53"/>
</a>
</g>
</g>
<!-- Node19 -->
<g id="Node000019" class="node">
<title>Node19</title>
<g id="a_Node000019"><a xlink:href="classhy__features_1_1hydrolocation_1_1_h_y___hydro_location.html" target="_top" xlink:title=" ">
<polygon fill="white" stroke="#666666" points="298.62,-30.5 170.88,-30.5 170.88,0 298.62,0 298.62,-30.5"/>
<text text-anchor="start" x="178.88" y="-17" font-family="Helvetica,sans-Serif" font-size="10.00">hy_features::hydrolocation</text>
<text text-anchor="middle" x="234.75" y="-5.75" font-family="Helvetica,sans-Serif" font-size="10.00">::HY_HydroLocation</text>
</a>
</g>
</g>
<!-- Node13&#45;&gt;Node19 -->
<g id="edge45_Node000013_Node000019" class="edge">
<title>Node13&#45;&gt;Node19</title>
<g id="a_edge45_Node000013_Node000019"><a xlink:title=" ">
<path fill="none" stroke="#63b8ff" d="M91.65,-79.29C111.48,-67.34 139.88,-51.08 166,-39.25 172.48,-36.31 179.43,-33.5 186.32,-30.89"/>
<polygon fill="#63b8ff" stroke="#63b8ff" points="89.85,-76.28 83.13,-84.48 93.5,-82.26 89.85,-76.28"/>
</a>
</g>
</g>
<!-- Node11 -->
<g id="Node000011" class="node">
<title>Node11</title>
<g id="a_Node000011"><a xlink:href="classrealization_1_1_catchment___formulation.html" target="_top" xlink:title=" ">
<polygon fill="white" stroke="#666666" points="465.38,-165.5 354.12,-165.5 354.12,-135 465.38,-135 465.38,-165.5"/>
<text text-anchor="start" x="362.12" y="-152" font-family="Helvetica,sans-Serif" font-size="10.00">realization::Catchment</text>
<text text-anchor="middle" x="409.75" y="-140.75" font-family="Helvetica,sans-Serif" font-size="10.00">_Formulation</text>
</a>
</g>
</g>
<!-- Node12&#45;&gt;Node11 -->
<g id="edge40_Node000012_Node000011" class="edge">
<title>Node12&#45;&gt;Node11</title>
<g id="a_edge40_Node000012_Node000011"><a xlink:title=" ">
<path fill="none" stroke="#63b8ff" d="M286.59,-108.29C292.31,-109.9 298.04,-111.57 303.5,-113.25 324.42,-119.69 347.37,-127.66 366.5,-134.55"/>
<polygon fill="#63b8ff" stroke="#63b8ff" points="287.69,-104.97 277.12,-105.7 285.84,-111.72 287.69,-104.97"/>
</a>
</g>
</g>
<!-- Node11&#45;&gt;Node6 -->
<g id="edge41_Node000011_Node000006" class="edge">
<title>Node11&#45;&gt;Node6</title>
<g id="a_edge41_Node000011_Node000006"><a xlink:title=" ">
<path fill="none" stroke="#63b8ff" d="M476.94,-150.25C491.58,-150.25 507.11,-150.25 521.81,-150.25"/>
<polygon fill="#63b8ff" stroke="#63b8ff" points="476.94,-146.75 466.94,-150.25 476.94,-153.75 476.94,-146.75"/>
</a>
</g>
</g>
<!-- Node15 -->
<g id="Node000015" class="node">
<title>Node15</title>
<g id="a_Node000015"><a xlink:href="class_h_y___catchment_realization.html" target="_top" xlink:title=" ">
<polygon fill="white" stroke="#666666" points="130,-141.88 0,-141.88 0,-122.62 130,-122.62 130,-141.88"/>
<text text-anchor="middle" x="65" y="-128.38" font-family="Helvetica,sans-Serif" font-size="10.00">HY_CatchmentRealization</text>
</a>
</g>
</g>
<!-- Node15&#45;&gt;Node12 -->
<g id="edge47_Node000015_Node000012" class="edge">
<title>Node15&#45;&gt;Node12</title>
<g id="a_edge47_Node000015_Node000012"><a xlink:title=" ">
<path fill="none" stroke="#63b8ff" d="M122.98,-119.68C144.16,-115.01 167.91,-109.77 187.97,-105.35"/>
<polygon fill="#63b8ff" stroke="#63b8ff" points="122.33,-116.24 113.32,-121.81 123.84,-123.08 122.33,-116.24"/>
</a>
</g>
</g>
<!-- Node15&#45;&gt;Node14 -->
<g id="edge48_Node000015_Node000014" class="edge">
<title>Node15&#45;&gt;Node14</title>
<g id="a_edge48_Node000015_Node000014"><a xlink:title=" ">
<path fill="none" stroke="#63b8ff" d="M123.36,-117.84C125.65,-116.73 127.87,-115.53 130,-114.25 149.91,-102.22 146,-88.13 166,-76.25 171.34,-73.08 177.24,-70.46 183.26,-68.29"/>
<polygon fill="#63b8ff" stroke="#63b8ff" points="122.27,-114.51 114.42,-121.62 125,-120.95 122.27,-114.51"/>
</a>
</g>
</g>
<!-- Node15&#45;&gt;Node17 -->
<g id="edge49_Node000015_Node000017" class="edge">
<title>Node15&#45;&gt;Node17</title>
<g id="a_edge49_Node000015_Node000017"><a xlink:title=" ">
<path fill="none" stroke="#63b8ff" d="M141.68,-132.25C160.51,-132.25 179.9,-132.25 196,-132.25"/>
<polygon fill="#63b8ff" stroke="#63b8ff" points="141.89,-128.75 131.89,-132.25 141.89,-135.75 141.89,-128.75"/>
</a>
</g>
</g>
<!-- Node15&#45;&gt;Node18 -->
<g id="edge50_Node000015_Node000018" class="edge">
<title>Node15&#45;&gt;Node18</title>
<g id="a_edge50_Node000015_Node000018"><a xlink:title=" ">
<path fill="none" stroke="#63b8ff" d="M122.98,-144.82C144.16,-149.49 167.91,-154.73 187.97,-159.15"/>
<polygon fill="#63b8ff" stroke="#63b8ff" points="123.84,-141.42 113.32,-142.69 122.33,-148.26 123.84,-141.42"/>
</a>
</g>
</g>
<!-- Node16 -->
<g id="Node000016" class="node">
<title>Node16</title>
<g id="a_Node000016"><a xlink:href="class_h_y___cartographic_realization.html" target="_top" xlink:title=" ">
<polygon fill="white" stroke="#666666" points="303.5,-252.88 166,-252.88 166,-233.62 303.5,-233.62 303.5,-252.88"/>
<text text-anchor="middle" x="234.75" y="-239.38" font-family="Helvetica,sans-Serif" font-size="10.00">HY_CartographicRealization</text>
</a>
</g>
</g>
<!-- Node15&#45;&gt;Node16 -->
<g id="edge46_Node000015_Node000016" class="edge">
<title>Node15&#45;&gt;Node16</title>
<g id="a_edge46_Node000015_Node000016"><a xlink:title=" ">
<path fill="none" stroke="#63b8ff" d="M81.17,-151.08C99.2,-172.22 131.26,-206.07 166,-225.25 171.65,-228.37 177.86,-230.97 184.16,-233.13"/>
<polygon fill="#63b8ff" stroke="#63b8ff" points="83.97,-148.97 74.88,-143.52 78.58,-153.45 83.97,-148.97"/>
</a>
</g>
</g>
<!-- Node20 -->
<g id="Node000020" class="node">
<title>Node20</title>
<g id="a_Node000020"><a xlink:href="classrealization_1_1_formulation.html" target="_top" xlink:title=" ">
<polygon fill="white" stroke="#666666" points="292.25,-215.88 177.25,-215.88 177.25,-196.62 292.25,-196.62 292.25,-215.88"/>
<text text-anchor="middle" x="234.75" y="-202.38" font-family="Helvetica,sans-Serif" font-size="10.00">realization::Formulation</text>
</a>
</g>
</g>
<!-- Node20&#45;&gt;Node11 -->
<g id="edge51_Node000020_Node000011" class="edge">
<title>Node20&#45;&gt;Node11</title>
<g id="a_edge51_Node000020_Node000011"><a xlink:title=" ">
<path fill="none" stroke="#63b8ff" d="M286.82,-193.19C292.47,-191.59 298.12,-189.93 303.5,-188.25 324.92,-181.55 348.43,-173.16 367.79,-165.97"/>
<polygon fill="#63b8ff" stroke="#63b8ff" points="286.21,-189.73 277.5,-195.76 288.07,-196.48 286.21,-189.73"/>
</a>
</g>
</g>
</g>
</svg>
