<?xml version="1.0" encoding="UTF-8" standalone="no"?>
<!DOCTYPE svg PUBLIC "-//W3C//DTD SVG 1.1//EN"
 "http://www.w3.org/Graphics/SVG/1.1/DTD/svg11.dtd">
<!-- Generated by graphviz version 7.0.5 (20221223.1930)
 -->
<!-- Title: Graphical Class Hierarchy Pages: 1 -->
<svg width="542pt" height="86pt"
 viewBox="0.00 0.00 542.00 86.00" xmlns="http://www.w3.org/2000/svg" xmlns:xlink="http://www.w3.org/1999/xlink">
<g id="graph0" class="graph" transform="scale(1 1) rotate(0) translate(4 82)">
<title>Graphical Class Hierarchy</title>
<!-- Node0 -->
<g id="node1" class="node">
<title>Node0</title>
<g id="a_node1"><a xlink:href="classbmi_1_1_bmi.html" target="_top" xlink:title=" ">
<polygon fill="white" stroke="#666666" points="54,-48.5 0,-48.5 0,-29.5 54,-29.5 54,-48.5"/>
<text text-anchor="middle" x="27" y="-36.5" font-family="Helvetica,sans-Serif" font-size="10.00">bmi::Bmi</text>
</a>
</g>
</g>
<!-- Node1 -->
<g id="node2" class="node">
<title>Node1</title>
<g id="a_node2"><a xlink:href="classmodels_1_1bmi_1_1_bmi___adapter.html" target="_top" xlink:title="Abstract adapter interface for C++ classes to interact with the essential aspects of external models ...">
<polygon fill="white" stroke="#666666" points="219,-48.5 90,-48.5 90,-29.5 219,-29.5 219,-48.5"/>
<text text-anchor="middle" x="154.5" y="-36.5" font-family="Helvetica,sans-Serif" font-size="10.00">models::bmi::Bmi_Adapter</text>
</a>
</g>
</g>
<!-- Node0&#45;&gt;Node1 -->
<g id="edge1" class="edge">
<title>Node0&#45;&gt;Node1</title>
<path fill="none" stroke="#63b8ff" d="M65.7,-39C73.31,-39 81.51,-39 89.73,-39"/>
<polygon fill="#63b8ff" stroke="#63b8ff" points="65.82,-35.5 55.82,-39 65.82,-42.5 65.82,-35.5"/>
</g>
<!-- Node2 -->
<g id="node3" class="node">
<title>Node2</title>
<g id="a_node3"><a xlink:href="classmodels_1_1bmi_1_1_abstract_c_lib_bmi_adapter.html" target="_top" xlink:title=" ">
<polygon fill="white" stroke="#666666" points="385,-54 255,-54 255,-24 385,-24 385,-54"/>
<text text-anchor="start" x="263" y="-42" font-family="Helvetica,sans-Serif" font-size="10.00">models::bmi::AbstractCLib</text>
<text text-anchor="middle" x="320" y="-31" font-family="Helvetica,sans-Serif" font-size="10.00">BmiAdapter</text>
</a>
</g>
</g>
<!-- Node1&#45;&gt;Node2 -->
<g id="edge2" class="edge">
<title>Node1&#45;&gt;Node2</title>
<path fill="none" stroke="#63b8ff" d="M230.51,-39C238.58,-39 246.75,-39 254.68,-39"/>
<polygon fill="#63b8ff" stroke="#63b8ff" points="230.7,-35.5 220.7,-39 230.7,-42.5 230.7,-35.5"/>
</g>
<!-- Node3 -->
<g id="node4" class="node">
<title>Node3</title>
<g id="a_node4"><a xlink:href="classmodels_1_1bmi_1_1_bmi___c___adapter.html" target="_top" xlink:title="An adapter class to serve as a C++ interface to the essential aspects of external models written in t...">
<polygon fill="white" stroke="#666666" points="528.5,-78 426.5,-78 426.5,-48 528.5,-48 528.5,-78"/>
<text text-anchor="start" x="434.5" y="-66" font-family="Helvetica,sans-Serif" font-size="10.00">models::bmi::Bmi_C</text>
<text text-anchor="middle" x="477.5" y="-55" font-family="Helvetica,sans-Serif" font-size="10.00">_Adapter</text>
</a>
</g>
</g>
<!-- Node2&#45;&gt;Node3 -->
<g id="edge3" class="edge">
<title>Node2&#45;&gt;Node3</title>
<path fill="none" stroke="#63b8ff" d="M396.49,-50.65C406.6,-52.21 416.75,-53.78 426.28,-55.25"/>
<polygon fill="#63b8ff" stroke="#63b8ff" points="397.06,-47.2 386.64,-49.13 395.99,-54.12 397.06,-47.2"/>
</g>
<!-- Node4 -->
<g id="node5" class="node">
<title>Node4</title>
<g id="a_node5"><a xlink:href="classmodels_1_1bmi_1_1_bmi___cpp___adapter.html" target="_top" xlink:title="A thin wrapper class to provide convenience functions around raw BMI models written in C++,...">
<polygon fill="white" stroke="#666666" points="534,-30 421,-30 421,0 534,0 534,-30"/>
<text text-anchor="start" x="429" y="-18" font-family="Helvetica,sans-Serif" font-size="10.00">models::bmi::Bmi_Cpp</text>
<text text-anchor="middle" x="477.5" y="-7" font-family="Helvetica,sans-Serif" font-size="10.00">_Adapter</text>
</a>
</g>
</g>
<!-- Node2&#45;&gt;Node4 -->
<g id="edge4" class="edge">
<title>Node2&#45;&gt;Node4</title>
<path fill="none" stroke="#63b8ff" d="M396.38,-27.37C404.65,-26.09 412.97,-24.81 420.94,-23.58"/>
<polygon fill="#63b8ff" stroke="#63b8ff" points="395.99,-23.88 386.64,-28.87 397.06,-30.8 395.99,-23.88"/>
</g>
</g>
</svg>
