<?xml version="1.0" encoding="UTF-8" standalone="no"?>
<!DOCTYPE svg PUBLIC "-//W3C//DTD SVG 1.1//EN"
 "http://www.w3.org/Graphics/SVG/1.1/DTD/svg11.dtd">
<!-- Generated by graphviz version 2.50.0 (20220203.2022)
 -->
<!-- Title: Graphical Class Hierarchy Pages: 1 -->
<svg width="983pt" height="485pt"
 viewBox="0.00 0.00 983.00 485.00" xmlns="http://www.w3.org/2000/svg" xmlns:xlink="http://www.w3.org/1999/xlink">
<g id="graph0" class="graph" transform="scale(1 1) rotate(0) translate(4 481)">
<title>Graphical Class Hierarchy</title>
<polygon fill="white" stroke="transparent" points="-4,4 -4,-481 979,-481 979,4 -4,4"/>
<!-- Node0 -->
<g id="node1" class="node">
<title>Node0</title>
<g id="a_node1"><a xlink:href="classforcing_1_1_forcing_provider.html" target="_top" xlink:title="An abstraction interface for types that provides forcing data.">
<polygon fill="white" stroke="black" points="341,-400.5 341,-419.5 460,-419.5 460,-400.5 341,-400.5"/>
<text text-anchor="middle" x="400.5" y="-407.5" font-family="Helvetica,sans-Serif" font-size="10.00">forcing::ForcingProvider</text>
</a>
</g>
</g>
<!-- Node1 -->
<g id="node2" class="node">
<title>Node1</title>
<g id="a_node2"><a xlink:href="class_csv_per_feature_forcing_provider.html" target="_top" xlink:title="Forcing class providing time&#45;series precipiation forcing data to the model.">
<polygon fill="white" stroke="black" points="499.5,-457.5 499.5,-476.5 649.5,-476.5 649.5,-457.5 499.5,-457.5"/>
<text text-anchor="middle" x="574.5" y="-464.5" font-family="Helvetica,sans-Serif" font-size="10.00">CsvPerFeatureForcingProvider</text>
</a>
</g>
</g>
<!-- Node0&#45;&gt;Node1 -->
<g id="edge1" class="edge">
<title>Node0&#45;&gt;Node1</title>
<path fill="none" stroke="midnightblue" d="M432.23,-423.65C450.52,-431.44 474.31,-441.02 496,-448 506.81,-451.48 518.65,-454.68 529.75,-457.42"/>
<polygon fill="midnightblue" stroke="midnightblue" points="433.52,-420.39 422.95,-419.64 430.74,-426.82 433.52,-420.39"/>
</g>
<!-- Node2 -->
<g id="node3" class="node">
<title>Node2</title>
<g id="a_node3"><a xlink:href="class_forcing.html" target="_top" xlink:title="Forcing class providing time&#45;series precipiation forcing data to the model.">
<polygon fill="white" stroke="black" points="550,-419.5 550,-438.5 599,-438.5 599,-419.5 550,-419.5"/>
<text text-anchor="middle" x="574.5" y="-426.5" font-family="Helvetica,sans-Serif" font-size="10.00">Forcing</text>
</a>
</g>
</g>
<!-- Node0&#45;&gt;Node2 -->
<g id="edge2" class="edge">
<title>Node0&#45;&gt;Node2</title>
<path fill="none" stroke="midnightblue" d="M470.46,-417.62C498.67,-420.73 529.43,-424.13 549.93,-426.4"/>
<polygon fill="midnightblue" stroke="midnightblue" points="470.54,-414.1 460.21,-416.49 469.77,-421.06 470.54,-414.1"/>
</g>
<!-- Node3 -->
<g id="node4" class="node">
<title>Node3</title>
<g id="a_node4"><a xlink:href="classforcing_1_1_wrapped_forcing_provider.html" target="_top" xlink:title="Simple implementation that basically wraps another instance.">
<polygon fill="white" stroke="black" points="496,-381.5 496,-400.5 653,-400.5 653,-381.5 496,-381.5"/>
<text text-anchor="middle" x="574.5" y="-388.5" font-family="Helvetica,sans-Serif" font-size="10.00">forcing::WrappedForcingProvider</text>
</a>
</g>
</g>
<!-- Node0&#45;&gt;Node3 -->
<g id="edge3" class="edge">
<title>Node0&#45;&gt;Node3</title>
<path fill="none" stroke="midnightblue" d="M470.33,-402.4C478.73,-401.47 487.37,-400.51 495.89,-399.57"/>
<polygon fill="midnightblue" stroke="midnightblue" points="469.77,-398.94 460.21,-403.51 470.54,-405.9 469.77,-398.94"/>
</g>
<!-- Node6 -->
<g id="node7" class="node">
<title>Node6</title>
<g id="a_node7"><a xlink:href="classrealization_1_1_bmi___formulation.html" target="_top" xlink:title="Abstraction of formulation with backing model object(s) that implements the BMI.">
<polygon fill="white" stroke="black" points="505.5,-308.5 505.5,-327.5 643.5,-327.5 643.5,-308.5 505.5,-308.5"/>
<text text-anchor="middle" x="574.5" y="-315.5" font-family="Helvetica,sans-Serif" font-size="10.00">realization::Bmi_Formulation</text>
</a>
</g>
</g>
<!-- Node0&#45;&gt;Node6 -->
<g id="edge6" class="edge">
<title>Node0&#45;&gt;Node6</title>
<path fill="none" stroke="midnightblue" d="M428.44,-395.59C463.94,-376.6 525.42,-343.72 555.66,-327.54"/>
<polygon fill="midnightblue" stroke="midnightblue" points="426.75,-392.53 419.58,-400.33 430.05,-398.7 426.75,-392.53"/>
</g>
<!-- Node4 -->
<g id="node5" class="node">
<title>Node4</title>
<g id="a_node5"><a xlink:href="classforcing_1_1_deferred_wrapped_provider.html" target="_top" xlink:title="A specialized @WrappedForcingProvider that is created without first knowing the backing source it wra...">
<polygon fill="white" stroke="black" points="689,-411 689,-441 814,-441 814,-411 689,-411"/>
<text text-anchor="start" x="697" y="-429" font-family="Helvetica,sans-Serif" font-size="10.00">forcing::DeferredWrapped</text>
<text text-anchor="middle" x="751.5" y="-418" font-family="Helvetica,sans-Serif" font-size="10.00">Provider</text>
</a>
</g>
</g>
<!-- Node3&#45;&gt;Node4 -->
<g id="edge4" class="edge">
<title>Node3&#45;&gt;Node4</title>
<path fill="none" stroke="midnightblue" d="M633.55,-402.61C651.32,-406.16 670.93,-410.09 688.92,-413.68"/>
<polygon fill="midnightblue" stroke="midnightblue" points="633.81,-399.09 623.32,-400.56 632.44,-405.96 633.81,-399.09"/>
</g>
<!-- Node5 -->
<g id="node6" class="node">
<title>Node5</title>
<g id="a_node6"><a xlink:href="classforcing_1_1_optional_wrapped_provider.html" target="_top" xlink:title="Extension of DeferredWrappedProvider, where default values can be used instead of a backing provider.">
<polygon fill="white" stroke="black" points="850,-411 850,-441 975,-441 975,-411 850,-411"/>
<text text-anchor="start" x="858" y="-429" font-family="Helvetica,sans-Serif" font-size="10.00">forcing::OptionalWrapped</text>
<text text-anchor="middle" x="912.5" y="-418" font-family="Helvetica,sans-Serif" font-size="10.00">Provider</text>
</a>
</g>
</g>
<!-- Node4&#45;&gt;Node5 -->
<g id="edge5" class="edge">
<title>Node4&#45;&gt;Node5</title>
<path fill="none" stroke="midnightblue" d="M824.59,-426C832.99,-426 841.5,-426 849.74,-426"/>
<polygon fill="midnightblue" stroke="midnightblue" points="824.43,-422.5 814.43,-426 824.43,-429.5 824.43,-422.5"/>
</g>
<!-- Node7 -->
<g id="node8" class="node">
<title>Node7</title>
<g id="a_node8"><a xlink:href="classrealization_1_1_bmi___module___formulation.html" target="_top" xlink:title=" ">
<polygon fill="white" stroke="black" points="692,-194.5 692,-235.5 811,-235.5 811,-194.5 692,-194.5"/>
<text text-anchor="start" x="700" y="-223.5" font-family="Helvetica,sans-Serif" font-size="10.00">realization::Bmi_Module</text>
<text text-anchor="start" x="700" y="-212.5" font-family="Helvetica,sans-Serif" font-size="10.00">_Formulation&lt; models::</text>
<text text-anchor="middle" x="751.5" y="-201.5" font-family="Helvetica,sans-Serif" font-size="10.00">bmi::Bmi_C_Adapter &gt;</text>
</a>
</g>
</g>
<!-- Node6&#45;&gt;Node7 -->
<g id="edge7" class="edge">
<title>Node6&#45;&gt;Node7</title>
<path fill="none" stroke="midnightblue" d="M643.9,-304.42C647.08,-302.81 650.13,-301.01 653,-299 676.62,-282.44 667.28,-263.98 689,-245 692.94,-241.56 697.33,-238.42 701.92,-235.57"/>
<polygon fill="midnightblue" stroke="midnightblue" points="642.42,-301.24 634.67,-308.47 645.23,-307.65 642.42,-301.24"/>
</g>
<!-- Node9 -->
<g id="node10" class="node">
<title>Node9</title>
<g id="a_node10"><a xlink:href="classrealization_1_1_bmi___module___formulation.html" target="_top" xlink:title=" ">
<polygon fill="white" stroke="black" points="689.5,-351.5 689.5,-392.5 813.5,-392.5 813.5,-351.5 689.5,-351.5"/>
<text text-anchor="start" x="697.5" y="-380.5" font-family="Helvetica,sans-Serif" font-size="10.00">realization::Bmi_Module</text>
<text text-anchor="start" x="697.5" y="-369.5" font-family="Helvetica,sans-Serif" font-size="10.00">_Formulation&lt; models::</text>
<text text-anchor="middle" x="751.5" y="-358.5" font-family="Helvetica,sans-Serif" font-size="10.00">bmi::Bmi_Cpp_Adapter &gt;</text>
</a>
</g>
</g>
<!-- Node6&#45;&gt;Node9 -->
<g id="edge9" class="edge">
<title>Node6&#45;&gt;Node9</title>
<path fill="none" stroke="midnightblue" d="M615.98,-330.49C637.79,-337.22 665.15,-345.66 689.48,-353.17"/>
<polygon fill="midnightblue" stroke="midnightblue" points="616.97,-327.13 606.38,-327.53 614.91,-333.82 616.97,-327.13"/>
</g>
<!-- Node11 -->
<g id="node12" class="node">
<title>Node11</title>
<g id="a_node12"><a xlink:href="classrealization_1_1_bmi___module___formulation.html" target="_top" xlink:title="Abstraction of a formulation with a single backing model object that implements the BMI.">
<polygon fill="white" stroke="black" points="692,-303 692,-333 811,-333 811,-303 692,-303"/>
<text text-anchor="start" x="700" y="-321" font-family="Helvetica,sans-Serif" font-size="10.00">realization::Bmi_Module</text>
<text text-anchor="middle" x="751.5" y="-310" font-family="Helvetica,sans-Serif" font-size="10.00">_Formulation&lt; M &gt;</text>
</a>
</g>
</g>
<!-- Node6&#45;&gt;Node11 -->
<g id="edge11" class="edge">
<title>Node6&#45;&gt;Node11</title>
<path fill="none" stroke="midnightblue" d="M653.84,-318C666.63,-318 679.69,-318 691.9,-318"/>
<polygon fill="midnightblue" stroke="midnightblue" points="653.66,-314.5 643.66,-318 653.66,-321.5 653.66,-314.5"/>
</g>
<!-- Node12 -->
<g id="node13" class="node">
<title>Node12</title>
<g id="a_node13"><a xlink:href="classrealization_1_1_bmi___multi___formulation.html" target="_top" xlink:title="Abstraction of a formulation with multiple backing model object that implements the BMI.">
<polygon fill="white" stroke="black" points="697.5,-254 697.5,-284 805.5,-284 805.5,-254 697.5,-254"/>
<text text-anchor="start" x="705.5" y="-272" font-family="Helvetica,sans-Serif" font-size="10.00">realization::Bmi_Multi</text>
<text text-anchor="middle" x="751.5" y="-261" font-family="Helvetica,sans-Serif" font-size="10.00">_Formulation</text>
</a>
</g>
</g>
<!-- Node6&#45;&gt;Node12 -->
<g id="edge12" class="edge">
<title>Node6&#45;&gt;Node12</title>
<path fill="none" stroke="midnightblue" d="M626.19,-306.02C635.15,-303.78 644.37,-301.38 653,-299 669.56,-294.43 687.57,-289.01 703.55,-284.05"/>
<polygon fill="midnightblue" stroke="midnightblue" points="625.11,-302.68 616.24,-308.48 626.79,-309.48 625.11,-302.68"/>
</g>
<!-- Node8 -->
<g id="node9" class="node">
<title>Node8</title>
<g id="a_node9"><a xlink:href="classrealization_1_1_bmi___c___formulation.html" target="_top" xlink:title=" ">
<polygon fill="white" stroke="black" points="865.5,-200 865.5,-230 959.5,-230 959.5,-200 865.5,-200"/>
<text text-anchor="start" x="873.5" y="-218" font-family="Helvetica,sans-Serif" font-size="10.00">realization::Bmi_C</text>
<text text-anchor="middle" x="912.5" y="-207" font-family="Helvetica,sans-Serif" font-size="10.00">_Formulation</text>
</a>
</g>
</g>
<!-- Node7&#45;&gt;Node8 -->
<g id="edge8" class="edge">
<title>Node7&#45;&gt;Node8</title>
<path fill="none" stroke="midnightblue" d="M821.44,-215C836.3,-215 851.67,-215 865.41,-215"/>
<polygon fill="midnightblue" stroke="midnightblue" points="821.25,-211.5 811.25,-215 821.25,-218.5 821.25,-211.5"/>
</g>
<!-- Node10 -->
<g id="node11" class="node">
<title>Node10</title>
<g id="a_node11"><a xlink:href="classrealization_1_1_bmi___cpp___formulation.html" target="_top" xlink:title="Encapsulates a bmi::Bmi model in C++ such that it can be loaded as a formulation, as such also so tha...">
<polygon fill="white" stroke="black" points="860.5,-357 860.5,-387 964.5,-387 964.5,-357 860.5,-357"/>
<text text-anchor="start" x="868.5" y="-375" font-family="Helvetica,sans-Serif" font-size="10.00">realization::Bmi_Cpp</text>
<text text-anchor="middle" x="912.5" y="-364" font-family="Helvetica,sans-Serif" font-size="10.00">_Formulation</text>
</a>
</g>
</g>
<!-- Node9&#45;&gt;Node10 -->
<g id="edge10" class="edge">
<title>Node9&#45;&gt;Node10</title>
<path fill="none" stroke="midnightblue" d="M823.81,-372C836.16,-372 848.78,-372 860.46,-372"/>
<polygon fill="midnightblue" stroke="midnightblue" points="823.52,-368.5 813.52,-372 823.52,-375.5 823.52,-368.5"/>
</g>
<!-- Node18 -->
<g id="node14" class="node">
<title>Node18</title>
<g id="a_node14"><a xlink:href="class_g_m___object.html" target="_top" xlink:title=" ">
<polygon fill="white" stroke="black" points="32.5,-114.5 32.5,-133.5 98.5,-133.5 98.5,-114.5 32.5,-114.5"/>
<text text-anchor="middle" x="65.5" y="-121.5" font-family="Helvetica,sans-Serif" font-size="10.00">GM_Object</text>
</a>
</g>
</g>
<!-- Node17 -->
<g id="node15" class="node">
<title>Node17</title>
<g id="a_node15"><a xlink:href="class_h_y___catchment_area.html" target="_top" xlink:title=" ">
<polygon fill="white" stroke="black" points="184,-76.5 184,-95.5 288,-95.5 288,-76.5 184,-76.5"/>
<text text-anchor="middle" x="236" y="-83.5" font-family="Helvetica,sans-Serif" font-size="10.00">HY_CatchmentArea</text>
</a>
</g>
</g>
<!-- Node18&#45;&gt;Node17 -->
<g id="edge13" class="edge">
<title>Node18&#45;&gt;Node17</title>
<path fill="none" stroke="midnightblue" d="M108.43,-114.54C134.18,-108.74 167.04,-101.33 192.83,-95.51"/>
<polygon fill="midnightblue" stroke="midnightblue" points="107.58,-111.15 98.59,-116.76 109.12,-117.98 107.58,-111.15"/>
</g>
<!-- Node19 -->
<g id="node20" class="node">
<title>Node19</title>
<g id="a_node20"><a xlink:href="class_h_y___catchment_divide.html" target="_top" xlink:title=" ">
<polygon fill="white" stroke="black" points="181,-152.5 181,-171.5 291,-171.5 291,-152.5 181,-152.5"/>
<text text-anchor="middle" x="236" y="-159.5" font-family="Helvetica,sans-Serif" font-size="10.00">HY_CatchmentDivide</text>
</a>
</g>
</g>
<!-- Node18&#45;&gt;Node19 -->
<g id="edge19" class="edge">
<title>Node18&#45;&gt;Node19</title>
<path fill="none" stroke="midnightblue" d="M108.43,-133.46C134.18,-139.26 167.04,-146.67 192.83,-152.49"/>
<polygon fill="midnightblue" stroke="midnightblue" points="109.12,-130.02 98.59,-131.24 107.58,-136.85 109.12,-130.02"/>
</g>
<!-- Node22 -->
<g id="node21" class="node">
<title>Node22</title>
<g id="a_node21"><a xlink:href="class_h_y___flow_path.html" target="_top" xlink:title=" ">
<polygon fill="white" stroke="black" points="197.5,-114.5 197.5,-133.5 274.5,-133.5 274.5,-114.5 197.5,-114.5"/>
<text text-anchor="middle" x="236" y="-121.5" font-family="Helvetica,sans-Serif" font-size="10.00">HY_FlowPath</text>
</a>
</g>
</g>
<!-- Node18&#45;&gt;Node22 -->
<g id="edge20" class="edge">
<title>Node18&#45;&gt;Node22</title>
<path fill="none" stroke="midnightblue" d="M108.62,-124C135.9,-124 171.11,-124 197.44,-124"/>
<polygon fill="midnightblue" stroke="midnightblue" points="108.59,-120.5 98.59,-124 108.59,-127.5 108.59,-120.5"/>
</g>
<!-- Node23 -->
<g id="node22" class="node">
<title>Node23</title>
<g id="a_node22"><a xlink:href="class_h_y___hydro_network.html" target="_top" xlink:title=" ">
<polygon fill="white" stroke="black" points="187,-38.5 187,-57.5 285,-57.5 285,-38.5 187,-38.5"/>
<text text-anchor="middle" x="236" y="-45.5" font-family="Helvetica,sans-Serif" font-size="10.00">HY_HydroNetwork</text>
</a>
</g>
</g>
<!-- Node18&#45;&gt;Node23 -->
<g id="edge21" class="edge">
<title>Node18&#45;&gt;Node23</title>
<path fill="none" stroke="midnightblue" d="M108.5,-115.12C116.3,-112.52 124.14,-109.2 131,-105 150.84,-92.85 147.08,-79.01 167,-67 173.4,-63.14 180.62,-60.04 187.89,-57.56"/>
<polygon fill="midnightblue" stroke="midnightblue" points="107.31,-111.82 98.73,-118.05 109.31,-118.53 107.31,-111.82"/>
</g>
<!-- Node24 -->
<g id="node23" class="node">
<title>Node24</title>
<g id="a_node23"><a xlink:href="classhy__features_1_1hydrolocation_1_1_h_y___hydro_location.html" target="_top" xlink:title=" ">
<polygon fill="white" stroke="black" points="172,-191 172,-221 300,-221 300,-191 172,-191"/>
<text text-anchor="start" x="180" y="-209" font-family="Helvetica,sans-Serif" font-size="10.00">hy_features::hydrolocation</text>
<text text-anchor="middle" x="236" y="-198" font-family="Helvetica,sans-Serif" font-size="10.00">::HY_HydroLocation</text>
</a>
</g>
</g>
<!-- Node18&#45;&gt;Node24 -->
<g id="edge22" class="edge">
<title>Node18&#45;&gt;Node24</title>
<path fill="none" stroke="midnightblue" d="M90.49,-139.09C110.49,-151.3 139.98,-168.47 167,-181 174.53,-184.49 182.7,-187.84 190.67,-190.9"/>
<polygon fill="midnightblue" stroke="midnightblue" points="92.1,-135.97 81.75,-133.7 88.42,-141.92 92.1,-135.97"/>
</g>
<!-- Node13 -->
<g id="node16" class="node">
<title>Node13</title>
<g id="a_node16"><a xlink:href="classrealization_1_1_catchment___formulation.html" target="_top" xlink:title=" ">
<polygon fill="white" stroke="black" points="344.5,-235 344.5,-265 456.5,-265 456.5,-235 344.5,-235"/>
<text text-anchor="start" x="352.5" y="-253" font-family="Helvetica,sans-Serif" font-size="10.00">realization::Catchment</text>
<text text-anchor="middle" x="400.5" y="-242" font-family="Helvetica,sans-Serif" font-size="10.00">_Formulation</text>
</a>
</g>
</g>
<!-- Node17&#45;&gt;Node13 -->
<g id="edge14" class="edge">
<title>Node17&#45;&gt;Node13</title>
<path fill="none" stroke="midnightblue" d="M296.48,-99.71C299.47,-101.29 302.33,-103.04 305,-105 352,-139.48 382.04,-204.97 393.83,-234.67"/>
<polygon fill="midnightblue" stroke="midnightblue" points="297.78,-96.46 287.23,-95.51 294.89,-102.83 297.78,-96.46"/>
</g>
<!-- Node13&#45;&gt;Node6 -->
<g id="edge16" class="edge">
<title>Node13&#45;&gt;Node6</title>
<path fill="none" stroke="midnightblue" d="M435.19,-269.97C452.84,-279.77 475.08,-291.14 496,-299 505.73,-302.65 516.41,-305.8 526.64,-308.42"/>
<polygon fill="midnightblue" stroke="midnightblue" points="436.84,-266.88 426.41,-265.01 433.4,-272.97 436.84,-266.88"/>
</g>
<!-- Node14 -->
<g id="node17" class="node">
<title>Node14</title>
<g id="a_node17"><a xlink:href="class_simple___lumped___model___realization.html" target="_top" xlink:title=" ">
<polygon fill="white" stroke="black" points="515,-259 515,-289 634,-289 634,-259 515,-259"/>
<text text-anchor="start" x="523" y="-277" font-family="Helvetica,sans-Serif" font-size="10.00">Simple_Lumped_Model</text>
<text text-anchor="middle" x="574.5" y="-266" font-family="Helvetica,sans-Serif" font-size="10.00">_Realization</text>
</a>
</g>
</g>
<!-- Node13&#45;&gt;Node14 -->
<g id="edge15" class="edge">
<title>Node13&#45;&gt;Node14</title>
<path fill="none" stroke="midnightblue" d="M467.06,-259.15C482.82,-261.35 499.56,-263.68 514.97,-265.83"/>
<polygon fill="midnightblue" stroke="midnightblue" points="467.26,-255.64 456.87,-257.73 466.29,-262.57 467.26,-255.64"/>
</g>
<!-- Node15 -->
<g id="node18" class="node">
<title>Node15</title>
<g id="a_node18"><a xlink:href="classrealization_1_1_tshirt___c___realization.html" target="_top" xlink:title=" ">
<polygon fill="white" stroke="black" points="530,-210 530,-240 619,-240 619,-210 530,-210"/>
<text text-anchor="start" x="538" y="-228" font-family="Helvetica,sans-Serif" font-size="10.00">realization::Tshirt</text>
<text text-anchor="middle" x="574.5" y="-217" font-family="Helvetica,sans-Serif" font-size="10.00">_C_Realization</text>
</a>
</g>
</g>
<!-- Node13&#45;&gt;Node15 -->
<g id="edge17" class="edge">
<title>Node13&#45;&gt;Node15</title>
<path fill="none" stroke="midnightblue" d="M467.04,-240.47C488.09,-237.41 510.88,-234.1 529.96,-231.33"/>
<polygon fill="midnightblue" stroke="midnightblue" points="466.26,-237.05 456.87,-241.95 467.27,-243.98 466.26,-237.05"/>
</g>
<!-- Node16 -->
<g id="node19" class="node">
<title>Node16</title>
<g id="a_node19"><a xlink:href="classrealization_1_1_tshirt___realization.html" target="_top" xlink:title=" ">
<polygon fill="white" stroke="black" points="530,-161 530,-191 619,-191 619,-161 530,-161"/>
<text text-anchor="start" x="538" y="-179" font-family="Helvetica,sans-Serif" font-size="10.00">realization::Tshirt</text>
<text text-anchor="middle" x="574.5" y="-168" font-family="Helvetica,sans-Serif" font-size="10.00">_Realization</text>
</a>
</g>
</g>
<!-- Node13&#45;&gt;Node16 -->
<g id="edge18" class="edge">
<title>Node13&#45;&gt;Node16</title>
<path fill="none" stroke="midnightblue" d="M435.73,-229.91C453.35,-220.07 475.42,-208.54 496,-200 506.8,-195.52 518.74,-191.42 529.95,-187.93"/>
<polygon fill="midnightblue" stroke="midnightblue" points="433.93,-226.9 426.94,-234.87 437.37,-233 433.93,-226.9"/>
</g>
<!-- Node20 -->
<g id="node24" class="node">
<title>Node20</title>
<g id="a_node24"><a xlink:href="class_h_y___catchment_realization.html" target="_top" xlink:title=" ">
<polygon fill="white" stroke="black" points="0,-76.5 0,-95.5 131,-95.5 131,-76.5 0,-76.5"/>
<text text-anchor="middle" x="65.5" y="-83.5" font-family="Helvetica,sans-Serif" font-size="10.00">HY_CatchmentRealization</text>
</a>
</g>
</g>
<!-- Node20&#45;&gt;Node17 -->
<g id="edge24" class="edge">
<title>Node20&#45;&gt;Node17</title>
<path fill="none" stroke="midnightblue" d="M141.5,-86C155.81,-86 170.49,-86 183.84,-86"/>
<polygon fill="midnightblue" stroke="midnightblue" points="141.16,-82.5 131.16,-86 141.16,-89.5 141.16,-82.5"/>
</g>
<!-- Node20&#45;&gt;Node19 -->
<g id="edge25" class="edge">
<title>Node20&#45;&gt;Node19</title>
<path fill="none" stroke="midnightblue" d="M120.1,-99.34C123.9,-101.02 127.57,-102.9 131,-105 150.84,-117.15 147.08,-130.99 167,-143 173.4,-146.86 180.62,-149.96 187.89,-152.44"/>
<polygon fill="midnightblue" stroke="midnightblue" points="121.1,-95.97 110.51,-95.57 118.53,-102.48 121.1,-95.97"/>
</g>
<!-- Node20&#45;&gt;Node22 -->
<g id="edge26" class="edge">
<title>Node20&#45;&gt;Node22</title>
<path fill="none" stroke="midnightblue" d="M118.88,-97.81C144.29,-103.54 174.25,-110.3 197.38,-115.51"/>
<polygon fill="midnightblue" stroke="midnightblue" points="119.54,-94.37 109.02,-95.59 118,-101.2 119.54,-94.37"/>
</g>
<!-- Node20&#45;&gt;Node23 -->
<g id="edge27" class="edge">
<title>Node20&#45;&gt;Node23</title>
<path fill="none" stroke="midnightblue" d="M118.93,-74.18C142.69,-68.82 170.4,-62.57 192.79,-57.52"/>
<polygon fill="midnightblue" stroke="midnightblue" points="118,-70.8 109.02,-76.41 119.54,-77.63 118,-70.8"/>
</g>
<!-- Node21 -->
<g id="node25" class="node">
<title>Node21</title>
<g id="a_node25"><a xlink:href="class_h_y___cartographic_realization.html" target="_top" xlink:title=" ">
<polygon fill="white" stroke="black" points="167,-0.5 167,-19.5 305,-19.5 305,-0.5 167,-0.5"/>
<text text-anchor="middle" x="236" y="-7.5" font-family="Helvetica,sans-Serif" font-size="10.00">HY_CartographicRealization</text>
</a>
</g>
</g>
<!-- Node20&#45;&gt;Node21 -->
<g id="edge23" class="edge">
<title>Node20&#45;&gt;Node21</title>
<path fill="none" stroke="midnightblue" d="M89.55,-70.77C109.41,-58.19 139.18,-40.57 167,-29 175.71,-25.38 185.34,-22.21 194.54,-19.56"/>
<polygon fill="midnightblue" stroke="midnightblue" points="87.43,-67.98 80.91,-76.33 91.21,-73.86 87.43,-67.98"/>
</g>
<!-- Node26 -->
<g id="node26" class="node">
<title>Node26</title>
<g id="a_node26"><a xlink:href="classrealization_1_1_et___aware.html" target="_top" xlink:title="Interface for type that is aware of parameters for evapotranspiration in certain calculations,...">
<polygon fill="white" stroke="black" points="12,-259.5 12,-278.5 119,-278.5 119,-259.5 12,-259.5"/>
<text text-anchor="middle" x="65.5" y="-266.5" font-family="Helvetica,sans-Serif" font-size="10.00">realization::Et_Aware</text>
</a>
</g>
</g>
<!-- Node25 -->
<g id="node27" class="node">
<title>Node25</title>
<g id="a_node27"><a xlink:href="classrealization_1_1_et___accountable.html" target="_top" xlink:title="Interface for type that is able to account for evapotranspiration in certain calculations,...">
<polygon fill="white" stroke="black" points="169.5,-240.5 169.5,-259.5 302.5,-259.5 302.5,-240.5 169.5,-240.5"/>
<text text-anchor="middle" x="236" y="-247.5" font-family="Helvetica,sans-Serif" font-size="10.00">realization::Et_Accountable</text>
</a>
</g>
</g>
<!-- Node26&#45;&gt;Node25 -->
<g id="edge28" class="edge">
<title>Node26&#45;&gt;Node25</title>
<path fill="none" stroke="midnightblue" d="M129.57,-261.89C142.54,-260.43 156.23,-258.88 169.28,-257.41"/>
<polygon fill="midnightblue" stroke="midnightblue" points="128.9,-258.44 119.35,-263.04 129.68,-265.4 128.9,-258.44"/>
</g>
<!-- Node27 -->
<g id="node28" class="node">
<title>Node27</title>
<g id="a_node28"><a xlink:href="classrealization_1_1_formulation.html" target="_top" xlink:title=" ">
<polygon fill="white" stroke="black" points="178,-278.5 178,-297.5 294,-297.5 294,-278.5 178,-278.5"/>
<text text-anchor="middle" x="236" y="-285.5" font-family="Helvetica,sans-Serif" font-size="10.00">realization::Formulation</text>
</a>
</g>
</g>
<!-- Node26&#45;&gt;Node27 -->
<g id="edge30" class="edge">
<title>Node26&#45;&gt;Node27</title>
<path fill="none" stroke="midnightblue" d="M129.6,-276.12C145.47,-277.9 162.4,-279.81 177.95,-281.57"/>
<polygon fill="midnightblue" stroke="midnightblue" points="129.68,-272.6 119.35,-274.96 128.9,-279.56 129.68,-272.6"/>
</g>
<!-- Node25&#45;&gt;Node13 -->
<g id="edge29" class="edge">
<title>Node25&#45;&gt;Node13</title>
<path fill="none" stroke="midnightblue" d="M312.76,-250C323.4,-250 334.16,-250 344.31,-250"/>
<polygon fill="midnightblue" stroke="midnightblue" points="312.63,-246.5 302.63,-250 312.63,-253.5 312.63,-246.5"/>
</g>
<!-- Node27&#45;&gt;Node13 -->
<g id="edge31" class="edge">
<title>Node27&#45;&gt;Node13</title>
<path fill="none" stroke="midnightblue" d="M287.98,-276.08C305.91,-271.89 326.13,-267.16 344.39,-262.89"/>
<polygon fill="midnightblue" stroke="midnightblue" points="286.95,-272.73 278.01,-278.41 288.54,-279.54 286.95,-272.73"/>
</g>
</g>
</svg>
