<?xml version="1.0" encoding="UTF-8" standalone="no"?>
<!DOCTYPE svg PUBLIC "-//W3C//DTD SVG 1.1//EN"
 "http://www.w3.org/Graphics/SVG/1.1/DTD/svg11.dtd">
<!-- Generated by graphviz version 3.0.0 (20220413.0242)
 -->
<!-- Title: Graphical Class Hierarchy Pages: 1 -->
<svg width="309pt" height="110pt"
 viewBox="0.00 0.00 309.00 110.00" xmlns="http://www.w3.org/2000/svg" xmlns:xlink="http://www.w3.org/1999/xlink">
<g id="graph0" class="graph" transform="scale(1 1) rotate(0) translate(4 106)">
<title>Graphical Class Hierarchy</title>
<polygon fill="white" stroke="transparent" points="-4,4 -4,-106 305,-106 305,4 -4,4"/>
<!-- Node0 -->
<g id="node1" class="node">
<title>Node0</title>
<g id="a_node1"><a xlink:href="class_reservoir_1_1_implicit___time_1_1_reservoir___outlet.html" target="_top" xlink:title="Base Single Reservior Outlet Class.">
<polygon fill="white" stroke="black" points="0,-36 0,-66 121,-66 121,-36 0,-36"/>
<text text-anchor="start" x="8" y="-54" font-family="Helvetica,sans-Serif" font-size="10.00">Reservoir::Implicit</text>
<text text-anchor="middle" x="60.5" y="-43" font-family="Helvetica,sans-Serif" font-size="10.00">_Time::Reservoir_Outlet</text>
</a>
</g>
</g>
<!-- Node1 -->
<g id="node2" class="node">
<title>Node1</title>
<g id="a_node2"><a xlink:href="class_reservoir_1_1_implicit___time_1_1_reservoir___exponential___outlet.html" target="_top" xlink:title="Single Exponential Reservoir Outlet Class This class is for a single exponential reservoir outlet tha...">
<polygon fill="white" stroke="black" points="157,-60.5 157,-101.5 301,-101.5 301,-60.5 157,-60.5"/>
<text text-anchor="start" x="165" y="-89.5" font-family="Helvetica,sans-Serif" font-size="10.00">Reservoir::Implicit</text>
<text text-anchor="start" x="165" y="-78.5" font-family="Helvetica,sans-Serif" font-size="10.00">_Time::Reservoir_Exponential</text>
<text text-anchor="middle" x="229" y="-67.5" font-family="Helvetica,sans-Serif" font-size="10.00">_Outlet</text>
</a>
</g>
</g>
<!-- Node0&#45;&gt;Node1 -->
<g id="edge1" class="edge">
<title>Node0&#45;&gt;Node1</title>
<path fill="none" stroke="midnightblue" d="M131.04,-63.53C139.57,-65.07 148.29,-66.64 156.84,-68.18"/>
<polygon fill="midnightblue" stroke="midnightblue" points="131.6,-60.07 121.14,-61.75 130.36,-66.96 131.6,-60.07"/>
</g>
<!-- Node2 -->
<g id="node3" class="node">
<title>Node2</title>
<g id="a_node3"><a xlink:href="class_reservoir_1_1_implicit___time_1_1_reservoir___linear___outlet.html" target="_top" xlink:title="Single Linear Reservior Outlet Class This class is for a single linear reservoir outlet that is deriv...">
<polygon fill="white" stroke="black" points="168,-0.5 168,-41.5 290,-41.5 290,-0.5 168,-0.5"/>
<text text-anchor="start" x="176" y="-29.5" font-family="Helvetica,sans-Serif" font-size="10.00">Reservoir::Implicit</text>
<text text-anchor="start" x="176" y="-18.5" font-family="Helvetica,sans-Serif" font-size="10.00">_Time::Reservoir_Linear</text>
<text text-anchor="middle" x="229" y="-7.5" font-family="Helvetica,sans-Serif" font-size="10.00">_Outlet</text>
</a>
</g>
</g>
<!-- Node0&#45;&gt;Node2 -->
<g id="edge2" class="edge">
<title>Node0&#45;&gt;Node2</title>
<path fill="none" stroke="midnightblue" d="M131.26,-38.43C143.45,-36.23 156.04,-33.97 167.94,-31.82"/>
<polygon fill="midnightblue" stroke="midnightblue" points="130.36,-35.04 121.14,-40.25 131.6,-41.93 130.36,-35.04"/>
</g>
</g>
</svg>
