<?xml version="1.0" encoding="UTF-8" standalone="no"?>
<!DOCTYPE svg PUBLIC "-//W3C//DTD SVG 1.1//EN"
 "http://www.w3.org/Graphics/SVG/1.1/DTD/svg11.dtd">
<!-- Generated by graphviz version 9.0.0 (20230911.1827)
 -->
<!-- Title: Graphical Class Hierarchy Pages: 1 -->
<svg width="297pt" height="261pt"
 viewBox="0.00 0.00 296.50 261.25" xmlns="http://www.w3.org/2000/svg" xmlns:xlink="http://www.w3.org/1999/xlink">
<g id="graph0" class="graph" transform="scale(1 1) rotate(0) translate(4 257.25)">
<title>Graphical Class Hierarchy</title>
<!-- Node0 -->
<g id="Node000000" class="node">
<title>Node0</title>
<g id="a_Node000000"><a xlink:href="classgeojson_1_1_feature_base.html" target="_top" xlink:title="Represents an individual feature within a Geojson definition.">
<polygon fill="white" stroke="#666666" points="109.75,-130.25 0,-130.25 0,-111 109.75,-111 109.75,-130.25"/>
<text text-anchor="middle" x="54.88" y="-116.75" font-family="Helvetica,sans-Serif" font-size="10.00">geojson::FeatureBase</text>
</a>
</g>
</g>
<!-- Node1 -->
<g id="Node000001" class="node">
<title>Node1</title>
<g id="a_Node000001"><a xlink:href="classgeojson_1_1_collection_feature.html" target="_top" xlink:title=" ">
<polygon fill="white" stroke="#666666" points="282.12,-253.25 152.12,-253.25 152.12,-234 282.12,-234 282.12,-253.25"/>
<text text-anchor="middle" x="217.12" y="-239.75" font-family="Helvetica,sans-Serif" font-size="10.00">geojson::CollectionFeature</text>
</a>
</g>
</g>
<!-- Node0&#45;&gt;Node1 -->
<g id="edge52_Node000000_Node000001" class="edge">
<title>Node0&#45;&gt;Node1</title>
<g id="a_edge52_Node000000_Node000001"><a xlink:title=" ">
<path fill="none" stroke="#63b8ff" d="M67.31,-140.2C82.28,-164.05 110.77,-203.86 145.75,-225.62 150.89,-228.82 156.58,-231.45 162.42,-233.62"/>
<polygon fill="#63b8ff" stroke="#63b8ff" points="70.38,-138.51 62.2,-131.78 64.4,-142.14 70.38,-138.51"/>
</a>
</g>
</g>
<!-- Node2 -->
<g id="Node000002" class="node">
<title>Node2</title>
<g id="a_Node000002"><a xlink:href="classgeojson_1_1_line_string_feature.html" target="_top" xlink:title=" ">
<polygon fill="white" stroke="#666666" points="282.88,-216.25 151.38,-216.25 151.38,-197 282.88,-197 282.88,-216.25"/>
<text text-anchor="middle" x="217.12" y="-202.75" font-family="Helvetica,sans-Serif" font-size="10.00">geojson::LineStringFeature</text>
</a>
</g>
</g>
<!-- Node0&#45;&gt;Node2 -->
<g id="edge53_Node000000_Node000002" class="edge">
<title>Node0&#45;&gt;Node2</title>
<g id="a_edge53_Node000000_Node000002"><a xlink:title=" ">
<path fill="none" stroke="#63b8ff" d="M74.9,-138.2C92.19,-153.3 119.01,-174.64 145.75,-187.62 153.04,-191.16 161.08,-194.12 169.04,-196.57"/>
<polygon fill="#63b8ff" stroke="#63b8ff" points="77.25,-135.61 67.47,-131.55 72.59,-140.83 77.25,-135.61"/>
</a>
</g>
</g>
<!-- Node3 -->
<g id="Node000003" class="node">
<title>Node3</title>
<g id="a_Node000003"><a xlink:href="classgeojson_1_1_multi_line_string_feature.html" target="_top" xlink:title=" ">
<polygon fill="white" stroke="#666666" points="276.88,-178.88 157.38,-178.88 157.38,-148.38 276.88,-148.38 276.88,-178.88"/>
<text text-anchor="start" x="165.38" y="-165.38" font-family="Helvetica,sans-Serif" font-size="10.00">geojson::MultiLineString</text>
<text text-anchor="middle" x="217.12" y="-154.12" font-family="Helvetica,sans-Serif" font-size="10.00">Feature</text>
</a>
</g>
</g>
<!-- Node0&#45;&gt;Node3 -->
<g id="edge54_Node000000_Node000003" class="edge">
<title>Node0&#45;&gt;Node3</title>
<g id="a_edge54_Node000000_Node000003"><a xlink:title=" ">
<path fill="none" stroke="#63b8ff" d="M104.12,-133.57C120.91,-138.08 139.93,-143.18 157.46,-147.88"/>
<polygon fill="#63b8ff" stroke="#63b8ff" points="105.47,-130.31 94.91,-131.1 103.66,-137.07 105.47,-130.31"/>
</a>
</g>
</g>
<!-- Node4 -->
<g id="Node000004" class="node">
<title>Node4</title>
<g id="a_Node000004"><a xlink:href="classgeojson_1_1_multi_point_feature.html" target="_top" xlink:title=" ">
<polygon fill="white" stroke="#666666" points="282.5,-130.25 151.75,-130.25 151.75,-111 282.5,-111 282.5,-130.25"/>
<text text-anchor="middle" x="217.12" y="-116.75" font-family="Helvetica,sans-Serif" font-size="10.00">geojson::MultiPointFeature</text>
</a>
</g>
</g>
<!-- Node0&#45;&gt;Node4 -->
<g id="edge55_Node000000_Node000004" class="edge">
<title>Node0&#45;&gt;Node4</title>
<g id="a_edge55_Node000000_Node000004"><a xlink:title=" ">
<path fill="none" stroke="#63b8ff" d="M121.53,-120.62C131.39,-120.62 141.55,-120.62 151.39,-120.62"/>
<polygon fill="#63b8ff" stroke="#63b8ff" points="121.64,-117.13 111.64,-120.63 121.64,-124.13 121.64,-117.13"/>
</a>
</g>
</g>
<!-- Node5 -->
<g id="Node000005" class="node">
<title>Node5</title>
<g id="a_Node000005"><a xlink:href="classgeojson_1_1_multi_polygon_feature.html" target="_top" xlink:title=" ">
<polygon fill="white" stroke="#666666" points="288.5,-93.25 145.75,-93.25 145.75,-74 288.5,-74 288.5,-93.25"/>
<text text-anchor="middle" x="217.12" y="-79.75" font-family="Helvetica,sans-Serif" font-size="10.00">geojson::MultiPolygonFeature</text>
</a>
</g>
</g>
<!-- Node0&#45;&gt;Node5 -->
<g id="edge56_Node000000_Node000005" class="edge">
<title>Node0&#45;&gt;Node5</title>
<g id="a_edge56_Node000000_Node000005"><a xlink:title=" ">
<path fill="none" stroke="#63b8ff" d="M110.86,-107.93C130.96,-103.29 153.41,-98.11 172.39,-93.72"/>
<polygon fill="#63b8ff" stroke="#63b8ff" points="110.09,-104.51 101.14,-110.17 111.67,-111.33 110.09,-104.51"/>
</a>
</g>
</g>
<!-- Node6 -->
<g id="Node000006" class="node">
<title>Node6</title>
<g id="a_Node000006"><a xlink:href="classgeojson_1_1_point_feature.html" target="_top" xlink:title=" ">
<polygon fill="white" stroke="#666666" points="272,-56.25 162.25,-56.25 162.25,-37 272,-37 272,-56.25"/>
<text text-anchor="middle" x="217.12" y="-42.75" font-family="Helvetica,sans-Serif" font-size="10.00">geojson::PointFeature</text>
</a>
</g>
</g>
<!-- Node0&#45;&gt;Node6 -->
<g id="edge57_Node000000_Node000006" class="edge">
<title>Node0&#45;&gt;Node6</title>
<g id="a_edge57_Node000000_Node000006"><a xlink:title=" ">
<path fill="none" stroke="#63b8ff" d="M78.04,-104.11C95.61,-91.7 121.22,-75.11 145.75,-64.62 152.94,-61.55 160.78,-58.91 168.52,-56.68"/>
<polygon fill="#63b8ff" stroke="#63b8ff" points="76.46,-100.94 70.39,-109.62 80.55,-106.62 76.46,-100.94"/>
</a>
</g>
</g>
<!-- Node7 -->
<g id="Node000007" class="node">
<title>Node7</title>
<g id="a_Node000007"><a xlink:href="classgeojson_1_1_polygon_feature.html" target="_top" xlink:title="Represents a feature based around a polygon defining an area.">
<polygon fill="white" stroke="#666666" points="278,-19.25 156.25,-19.25 156.25,0 278,0 278,-19.25"/>
<text text-anchor="middle" x="217.12" y="-5.75" font-family="Helvetica,sans-Serif" font-size="10.00">geojson::PolygonFeature</text>
</a>
</g>
</g>
<!-- Node0&#45;&gt;Node7 -->
<g id="edge58_Node000000_Node000007" class="edge">
<title>Node0&#45;&gt;Node7</title>
<g id="a_edge58_Node000000_Node000007"><a xlink:title=" ">
<path fill="none" stroke="#63b8ff" d="M69.23,-101.44C85.06,-80.19 113.38,-46.43 145.75,-27.62 151.2,-24.46 157.21,-21.84 163.35,-19.68"/>
<polygon fill="#63b8ff" stroke="#63b8ff" points="66.41,-99.37 63.4,-109.53 72.09,-103.47 66.41,-99.37"/>
</a>
</g>
</g>
</g>
</svg>
