<?xml version="1.0" encoding="UTF-8" standalone="no"?>
<!DOCTYPE svg PUBLIC "-//W3C//DTD SVG 1.1//EN"
 "http://www.w3.org/Graphics/SVG/1.1/DTD/svg11.dtd">
<!-- Generated by graphviz version 9.0.0 (20230911.1827)
 -->
<!-- Title: Graphical Class Hierarchy Pages: 1 -->
<svg width="539pt" height="88pt"
 viewBox="0.00 0.00 539.25 87.50" xmlns="http://www.w3.org/2000/svg" xmlns:xlink="http://www.w3.org/1999/xlink">
<g id="graph0" class="graph" transform="scale(1 1) rotate(0) translate(4 83.5)">
<title>Graphical Class Hierarchy</title>
<!-- Node0 -->
<g id="Node000000" class="node">
<title>Node0</title>
<g id="a_Node000000"><a xlink:href="classbmi_1_1_bmi.html" target="_top" xlink:title=" ">
<polygon fill="white" stroke="#666666" points="53.5,-48.88 0,-48.88 0,-29.62 53.5,-29.62 53.5,-48.88"/>
<text text-anchor="middle" x="26.75" y="-35.38" font-family="Helvetica,sans-Serif" font-size="10.00">bmi::Bmi</text>
</a>
</g>
</g>
<!-- Node1 -->
<g id="Node000001" class="node">
<title>Node1</title>
<g id="a_Node000001"><a xlink:href="classmodels_1_1bmi_1_1_bmi___adapter.html" target="_top" xlink:title="Abstract adapter interface for C++ classes to interact with the essential aspects of external models ...">
<polygon fill="white" stroke="#666666" points="218,-48.88 89.5,-48.88 89.5,-29.62 218,-29.62 218,-48.88"/>
<text text-anchor="middle" x="153.75" y="-35.38" font-family="Helvetica,sans-Serif" font-size="10.00">models::bmi::Bmi_Adapter</text>
</a>
</g>
</g>
<!-- Node0&#45;&gt;Node1 -->
<g id="edge1_Node000000_Node000001" class="edge">
<title>Node0&#45;&gt;Node1</title>
<g id="a_edge1_Node000000_Node000001"><a xlink:title=" ">
<path fill="none" stroke="#63b8ff" d="M65.3,-39.25C72.88,-39.25 81.05,-39.25 89.24,-39.25"/>
<polygon fill="#63b8ff" stroke="#63b8ff" points="65.47,-35.75 55.47,-39.25 65.47,-42.75 65.47,-35.75"/>
</a>
</g>
</g>
<!-- Node2 -->
<g id="Node000002" class="node">
<title>Node2</title>
<g id="a_Node000002"><a xlink:href="classmodels_1_1bmi_1_1_abstract_c_lib_bmi_adapter.html" target="_top" xlink:title=" ">
<polygon fill="white" stroke="#666666" points="383.25,-54.5 254,-54.5 254,-24 383.25,-24 383.25,-54.5"/>
<text text-anchor="start" x="262" y="-41" font-family="Helvetica,sans-Serif" font-size="10.00">models::bmi::AbstractCLib</text>
<text text-anchor="middle" x="318.62" y="-29.75" font-family="Helvetica,sans-Serif" font-size="10.00">BmiAdapter</text>
</a>
</g>
</g>
<!-- Node1&#45;&gt;Node2 -->
<g id="edge2_Node000001_Node000002" class="edge">
<title>Node1&#45;&gt;Node2</title>
<g id="a_edge2_Node000001_Node000002"><a xlink:title=" ">
<path fill="none" stroke="#63b8ff" d="M229.47,-39.25C237.52,-39.25 245.65,-39.25 253.56,-39.25"/>
<polygon fill="#63b8ff" stroke="#63b8ff" points="229.7,-35.75 219.7,-39.25 229.7,-42.75 229.7,-35.75"/>
</a>
</g>
</g>
<!-- Node3 -->
<g id="Node000003" class="node">
<title>Node3</title>
<g id="a_Node000003"><a xlink:href="classmodels_1_1bmi_1_1_bmi___c___adapter.html" target="_top" xlink:title="An adapter class to serve as a C++ interface to the essential aspects of external models written in t...">
<polygon fill="white" stroke="#666666" points="526,-79.5 424.5,-79.5 424.5,-49 526,-49 526,-79.5"/>
<text text-anchor="start" x="432.5" y="-66" font-family="Helvetica,sans-Serif" font-size="10.00">models::bmi::Bmi_C</text>
<text text-anchor="middle" x="475.25" y="-54.75" font-family="Helvetica,sans-Serif" font-size="10.00">_Adapter</text>
</a>
</g>
</g>
<!-- Node2&#45;&gt;Node3 -->
<g id="edge3_Node000002_Node000003" class="edge">
<title>Node2&#45;&gt;Node3</title>
<g id="a_edge3_Node000002_Node000003"><a xlink:title=" ">
<path fill="none" stroke="#63b8ff" d="M394.7,-51.39C404.74,-53.01 414.84,-54.64 424.31,-56.18"/>
<polygon fill="#63b8ff" stroke="#63b8ff" points="395.33,-47.95 384.9,-49.8 394.22,-54.86 395.33,-47.95"/>
</a>
</g>
</g>
<!-- Node4 -->
<g id="Node000004" class="node">
<title>Node4</title>
<g id="a_Node000004"><a xlink:href="classmodels_1_1bmi_1_1_bmi___cpp___adapter.html" target="_top" xlink:title="A thin wrapper class to provide convenience functions around raw BMI models written in C++,...">
<polygon fill="white" stroke="#666666" points="531.25,-30.5 419.25,-30.5 419.25,0 531.25,0 531.25,-30.5"/>
<text text-anchor="start" x="427.25" y="-17" font-family="Helvetica,sans-Serif" font-size="10.00">models::bmi::Bmi_Cpp</text>
<text text-anchor="middle" x="475.25" y="-5.75" font-family="Helvetica,sans-Serif" font-size="10.00">_Adapter</text>
</a>
</g>
</g>
<!-- Node2&#45;&gt;Node4 -->
<g id="edge4_Node000002_Node000004" class="edge">
<title>Node2&#45;&gt;Node4</title>
<g id="a_edge4_Node000002_Node000004"><a xlink:title=" ">
<path fill="none" stroke="#63b8ff" d="M394.58,-27.62C402.81,-26.34 411.07,-25.06 419,-23.83"/>
<polygon fill="#63b8ff" stroke="#63b8ff" points="394.25,-24.13 384.91,-29.12 395.32,-31.04 394.25,-24.13"/>
</a>
</g>
</g>
</g>
</svg>
