<?xml version="1.0" encoding="UTF-8" standalone="no"?>
<!DOCTYPE svg PUBLIC "-//W3C//DTD SVG 1.1//EN"
 "http://www.w3.org/Graphics/SVG/1.1/DTD/svg11.dtd">
<!-- Generated by graphviz version 3.0.0 (20221109.1736)
 -->
<!-- Title: Graphical Class Hierarchy Pages: 1 -->
<svg width="565pt" height="176pt"
 viewBox="0.00 0.00 565.00 175.50" xmlns="http://www.w3.org/2000/svg" xmlns:xlink="http://www.w3.org/1999/xlink">
<g id="graph0" class="graph" transform="scale(1 1) rotate(0) translate(4 171.5)">
<title>Graphical Class Hierarchy</title>
<polygon fill="white" stroke="transparent" points="-4,4 -4,-171.5 561,-171.5 561,4 -4,4"/>
<!-- Node0 -->
<g id="node1" class="node">
<title>Node0</title>
<g id="a_node1"><a xlink:href="classbmi_1_1_bmi.html" target="_top" xlink:title=" ">
<polygon fill="white" stroke="black" points="0,-68.5 0,-87.5 54,-87.5 54,-68.5 0,-68.5"/>
<text text-anchor="middle" x="27" y="-75.5" font-family="Helvetica,sans-Serif" font-size="10.00">bmi::Bmi</text>
</a>
</g>
</g>
<!-- Node1 -->
<g id="node2" class="node">
<title>Node1</title>
<g id="a_node2"><a xlink:href="classmodels_1_1bmi_1_1_bmi___adapter.html" target="_top" xlink:title=" ">
<polygon fill="white" stroke="black" points="90,-139.5 90,-158.5 242,-158.5 242,-139.5 90,-139.5"/>
<text text-anchor="middle" x="166" y="-146.5" font-family="Helvetica,sans-Serif" font-size="10.00">models::bmi::Bmi_Adapter&lt; C &gt;</text>
</a>
</g>
</g>
<!-- Node0&#45;&gt;Node1 -->
<g id="edge1" class="edge">
<title>Node0&#45;&gt;Node1</title>
<path fill="none" stroke="midnightblue" d="M44.95,-94.86C56.71,-105.71 73.22,-119.35 90,-128 99.13,-132.71 109.46,-136.47 119.45,-139.44"/>
<polygon fill="midnightblue" stroke="midnightblue" points="47.28,-92.25 37.62,-87.89 42.45,-97.32 47.28,-92.25"/>
</g>
<!-- Node3 -->
<g id="node4" class="node">
<title>Node3</title>
<g id="a_node4"><a xlink:href="classmodels_1_1bmi_1_1_bmi___adapter.html" target="_top" xlink:title=" ">
<polygon fill="white" stroke="black" points="101.5,-88 101.5,-118 230.5,-118 230.5,-88 101.5,-88"/>
<text text-anchor="start" x="109.5" y="-106" font-family="Helvetica,sans-Serif" font-size="10.00">models::bmi::Bmi_Adapter</text>
<text text-anchor="middle" x="166" y="-95" font-family="Helvetica,sans-Serif" font-size="10.00">&lt; C_Bmi &gt;</text>
</a>
</g>
</g>
<!-- Node0&#45;&gt;Node3 -->
<g id="edge3" class="edge">
<title>Node0&#45;&gt;Node3</title>
<path fill="none" stroke="midnightblue" d="M64.14,-84.59C75.61,-86.69 88.66,-89.07 101.47,-91.41"/>
<polygon fill="midnightblue" stroke="midnightblue" points="64.56,-81.11 54.09,-82.76 63.3,-88 64.56,-81.11"/>
</g>
<!-- Node6 -->
<g id="node7" class="node">
<title>Node6</title>
<g id="a_node7"><a xlink:href="classmodels_1_1bmi_1_1_bmi___adapter.html" target="_top" xlink:title=" ">
<polygon fill="white" stroke="black" points="101.5,-39 101.5,-69 230.5,-69 230.5,-39 101.5,-39"/>
<text text-anchor="start" x="109.5" y="-57" font-family="Helvetica,sans-Serif" font-size="10.00">models::bmi::Bmi_Adapter</text>
<text text-anchor="middle" x="166" y="-46" font-family="Helvetica,sans-Serif" font-size="10.00">&lt; Cpp_Bmi &gt;</text>
</a>
</g>
</g>
<!-- Node0&#45;&gt;Node6 -->
<g id="edge6" class="edge">
<title>Node0&#45;&gt;Node6</title>
<path fill="none" stroke="midnightblue" d="M64.14,-71.67C75.61,-69.66 88.66,-67.37 101.47,-65.13"/>
<polygon fill="midnightblue" stroke="midnightblue" points="63.34,-68.26 54.09,-73.43 64.55,-75.15 63.34,-68.26"/>
</g>
<!-- Node9 -->
<g id="node10" class="node">
<title>Node9</title>
<g id="a_node10"><a xlink:href="classmodels_1_1bmi_1_1_bmi___adapter.html" target="_top" xlink:title="Abstract adapter interface for C++ classes to interact with the essential aspects of external models ...">
<polygon fill="white" stroke="black" points="90,-0.5 90,-19.5 242,-19.5 242,-0.5 90,-0.5"/>
<text text-anchor="middle" x="166" y="-7.5" font-family="Helvetica,sans-Serif" font-size="10.00">models::bmi::Bmi_Adapter&lt; T &gt;</text>
</a>
</g>
</g>
<!-- Node0&#45;&gt;Node9 -->
<g id="edge9" class="edge">
<title>Node0&#45;&gt;Node9</title>
<path fill="none" stroke="midnightblue" d="M44.94,-61.35C56.69,-50.67 73.21,-37.29 90,-29 97.71,-25.2 106.25,-22.11 114.73,-19.61"/>
<polygon fill="midnightblue" stroke="midnightblue" points="42.51,-58.83 37.61,-68.23 47.3,-63.94 42.51,-58.83"/>
</g>
<!-- Node2 -->
<g id="node3" class="node">
<title>Node2</title>
<g id="a_node3"><a xlink:href="classmodels_1_1bmi_1_1_abstract_c_lib_bmi_adapter.html" target="_top" xlink:title=" ">
<polygon fill="white" stroke="black" points="278,-137 278,-167 408,-167 408,-137 278,-137"/>
<text text-anchor="start" x="286" y="-155" font-family="Helvetica,sans-Serif" font-size="10.00">models::bmi::AbstractCLib</text>
<text text-anchor="middle" x="343" y="-144" font-family="Helvetica,sans-Serif" font-size="10.00">BmiAdapter&lt; C &gt;</text>
</a>
</g>
</g>
<!-- Node1&#45;&gt;Node2 -->
<g id="edge2" class="edge">
<title>Node1&#45;&gt;Node2</title>
<path fill="none" stroke="midnightblue" d="M252.29,-150.46C260.89,-150.61 269.51,-150.76 277.83,-150.9"/>
<polygon fill="midnightblue" stroke="midnightblue" points="252.29,-146.96 242.23,-150.29 252.17,-153.96 252.29,-146.96"/>
</g>
<!-- Node4 -->
<g id="node5" class="node">
<title>Node4</title>
<g id="a_node5"><a xlink:href="classmodels_1_1bmi_1_1_abstract_c_lib_bmi_adapter.html" target="_top" xlink:title=" ">
<polygon fill="white" stroke="black" points="278,-88 278,-118 408,-118 408,-88 278,-88"/>
<text text-anchor="start" x="286" y="-106" font-family="Helvetica,sans-Serif" font-size="10.00">models::bmi::AbstractCLib</text>
<text text-anchor="middle" x="343" y="-95" font-family="Helvetica,sans-Serif" font-size="10.00">BmiAdapter&lt; C_Bmi &gt;</text>
</a>
</g>
</g>
<!-- Node3&#45;&gt;Node4 -->
<g id="edge4" class="edge">
<title>Node3&#45;&gt;Node4</title>
<path fill="none" stroke="midnightblue" d="M240.87,-103C253.14,-103 265.78,-103 277.79,-103"/>
<polygon fill="midnightblue" stroke="midnightblue" points="240.67,-99.5 230.67,-103 240.67,-106.5 240.67,-99.5"/>
</g>
<!-- Node5 -->
<g id="node6" class="node">
<title>Node5</title>
<g id="a_node6"><a xlink:href="classmodels_1_1bmi_1_1_bmi___c___adapter.html" target="_top" xlink:title="An adapter class to serve as a C++ interface to the essential aspects of external models written in t...">
<polygon fill="white" stroke="black" points="449.5,-88 449.5,-118 551.5,-118 551.5,-88 449.5,-88"/>
<text text-anchor="start" x="457.5" y="-106" font-family="Helvetica,sans-Serif" font-size="10.00">models::bmi::Bmi_C</text>
<text text-anchor="middle" x="500.5" y="-95" font-family="Helvetica,sans-Serif" font-size="10.00">_Adapter</text>
</a>
</g>
</g>
<!-- Node4&#45;&gt;Node5 -->
<g id="edge5" class="edge">
<title>Node4&#45;&gt;Node5</title>
<path fill="none" stroke="midnightblue" d="M418.19,-103C428.72,-103 439.34,-103 449.28,-103"/>
<polygon fill="midnightblue" stroke="midnightblue" points="418.15,-99.5 408.15,-103 418.15,-106.5 418.15,-99.5"/>
</g>
<!-- Node7 -->
<g id="node8" class="node">
<title>Node7</title>
<g id="a_node8"><a xlink:href="classmodels_1_1bmi_1_1_abstract_c_lib_bmi_adapter.html" target="_top" xlink:title=" ">
<polygon fill="white" stroke="black" points="278,-39 278,-69 408,-69 408,-39 278,-39"/>
<text text-anchor="start" x="286" y="-57" font-family="Helvetica,sans-Serif" font-size="10.00">models::bmi::AbstractCLib</text>
<text text-anchor="middle" x="343" y="-46" font-family="Helvetica,sans-Serif" font-size="10.00">BmiAdapter&lt; Cpp_Bmi &gt;</text>
</a>
</g>
</g>
<!-- Node6&#45;&gt;Node7 -->
<g id="edge7" class="edge">
<title>Node6&#45;&gt;Node7</title>
<path fill="none" stroke="midnightblue" d="M240.87,-54C253.14,-54 265.78,-54 277.79,-54"/>
<polygon fill="midnightblue" stroke="midnightblue" points="240.67,-50.5 230.67,-54 240.67,-57.5 240.67,-50.5"/>
</g>
<!-- Node8 -->
<g id="node9" class="node">
<title>Node8</title>
<g id="a_node9"><a xlink:href="classmodels_1_1bmi_1_1_bmi___cpp___adapter.html" target="_top" xlink:title="A thin wrapper class to provide convenience functions around raw BMI models written in C++,...">
<polygon fill="white" stroke="black" points="444,-39 444,-69 557,-69 557,-39 444,-39"/>
<text text-anchor="start" x="452" y="-57" font-family="Helvetica,sans-Serif" font-size="10.00">models::bmi::Bmi_Cpp</text>
<text text-anchor="middle" x="500.5" y="-46" font-family="Helvetica,sans-Serif" font-size="10.00">_Adapter</text>
</a>
</g>
</g>
<!-- Node7&#45;&gt;Node8 -->
<g id="edge8" class="edge">
<title>Node7&#45;&gt;Node8</title>
<path fill="none" stroke="midnightblue" d="M418.25,-54C426.9,-54 435.6,-54 443.94,-54"/>
<polygon fill="midnightblue" stroke="midnightblue" points="418.15,-50.5 408.15,-54 418.15,-57.5 418.15,-50.5"/>
</g>
</g>
</svg>
