<?xml version="1.0" encoding="UTF-8" standalone="no"?>
<!DOCTYPE svg PUBLIC "-//W3C//DTD SVG 1.1//EN"
 "http://www.w3.org/Graphics/SVG/1.1/DTD/svg11.dtd">
<!-- Generated by graphviz version 7.0.5 (20221223.1930)
 -->
<!-- Title: Graphical Class Hierarchy Pages: 1 -->
<svg width="394pt" height="381pt"
 viewBox="0.00 0.00 394.00 381.00" xmlns="http://www.w3.org/2000/svg" xmlns:xlink="http://www.w3.org/1999/xlink">
<g id="graph0" class="graph" transform="scale(1 1) rotate(0) translate(4 377)">
<title>Graphical Class Hierarchy</title>
<!-- Node0 -->
<g id="node1" class="node">
<title>Node0</title>
<g id="a_node1"><a xlink:title=" ">
<polygon fill="#e0e0e0" stroke="#999999" points="86,-281.5 0,-281.5 0,-262.5 86,-262.5 86,-281.5"/>
<text text-anchor="middle" x="43" y="-269.5" font-family="Helvetica,sans-Serif" font-size="10.00">boost::exception</text>
</a>
</g>
</g>
<!-- Node1 -->
<g id="node2" class="node">
<title>Node1</title>
<g id="a_node2"><a xlink:href="structadd__to__summed__nexus.html" target="_top" xlink:title=" ">
<polygon fill="white" stroke="#666666" points="249,-238.5 130,-238.5 130,-219.5 249,-219.5 249,-238.5"/>
<text text-anchor="middle" x="189.5" y="-226.5" font-family="Helvetica,sans-Serif" font-size="10.00">add_to_summed_nexus</text>
</a>
</g>
</g>
<!-- Node0&#45;&gt;Node1 -->
<g id="edge1" class="edge">
<title>Node0&#45;&gt;Node1</title>
<path fill="none" stroke="#63b8ff" d="M86.51,-258.75C98.01,-255.21 110.47,-251.42 122,-248 132.13,-244.99 143.15,-241.81 153.26,-238.93"/>
<polygon fill="#63b8ff" stroke="#63b8ff" points="85.8,-255.3 77.28,-261.6 87.87,-261.99 85.8,-255.3"/>
</g>
<!-- Node3 -->
<g id="node3" class="node">
<title>Node3</title>
<g id="a_node3"><a xlink:href="structcompleted__time__step.html" target="_top" xlink:title=" ">
<polygon fill="white" stroke="#666666" points="244.5,-201.5 134.5,-201.5 134.5,-182.5 244.5,-182.5 244.5,-201.5"/>
<text text-anchor="middle" x="189.5" y="-189.5" font-family="Helvetica,sans-Serif" font-size="10.00">completed_time_step</text>
</a>
</g>
</g>
<!-- Node0&#45;&gt;Node3 -->
<g id="edge2" class="edge">
<title>Node0&#45;&gt;Node3</title>
<path fill="none" stroke="#63b8ff" d="M62.01,-254.59C76.98,-240.98 99.42,-222.5 122,-211 129.06,-207.4 136.9,-204.4 144.65,-201.92"/>
<polygon fill="#63b8ff" stroke="#63b8ff" points="59.75,-251.91 54.82,-261.3 64.52,-257.03 59.75,-251.91"/>
</g>
<!-- Node5 -->
<g id="node4" class="node">
<title>Node5</title>
<g id="a_node4"><a xlink:href="structinvalid__downstream__request.html" target="_top" xlink:title=" ">
<polygon fill="white" stroke="#666666" points="241,-373 138,-373 138,-343 241,-343 241,-373"/>
<text text-anchor="start" x="146" y="-361" font-family="Helvetica,sans-Serif" font-size="10.00">invalid_downstream</text>
<text text-anchor="middle" x="189.5" y="-350" font-family="Helvetica,sans-Serif" font-size="10.00">_request</text>
</a>
</g>
</g>
<!-- Node0&#45;&gt;Node5 -->
<g id="edge3" class="edge">
<title>Node0&#45;&gt;Node5</title>
<path fill="none" stroke="#63b8ff" d="M62.18,-289.3C77.25,-302.9 99.73,-321.57 122,-334 127.68,-337.17 133.86,-340.06 140.09,-342.64"/>
<polygon fill="#63b8ff" stroke="#63b8ff" points="64.66,-286.82 54.93,-282.61 59.91,-291.96 64.66,-286.82"/>
</g>
<!-- Node6 -->
<g id="node5" class="node">
<title>Node6</title>
<g id="a_node5"><a xlink:href="structinvalid__time__step.html" target="_top" xlink:title=" ">
<polygon fill="white" stroke="#666666" points="235.5,-324.5 143.5,-324.5 143.5,-305.5 235.5,-305.5 235.5,-324.5"/>
<text text-anchor="middle" x="189.5" y="-312.5" font-family="Helvetica,sans-Serif" font-size="10.00">invalid_time_step</text>
</a>
</g>
</g>
<!-- Node0&#45;&gt;Node6 -->
<g id="edge4" class="edge">
<title>Node0&#45;&gt;Node6</title>
<path fill="none" stroke="#63b8ff" d="M86.51,-285.25C98.01,-288.79 110.47,-292.58 122,-296 132.13,-299.01 143.15,-302.19 153.26,-305.07"/>
<polygon fill="#63b8ff" stroke="#63b8ff" points="87.87,-282.01 77.28,-282.4 85.8,-288.7 87.87,-282.01"/>
</g>
<!-- Node9 -->
<g id="node6" class="node">
<title>Node9</title>
<g id="a_node6"><a xlink:href="structrequest__from__empty__nexus.html" target="_top" xlink:title=" ">
<polygon fill="white" stroke="#666666" points="242,-287 137,-287 137,-257 242,-257 242,-287"/>
<text text-anchor="start" x="145" y="-275" font-family="Helvetica,sans-Serif" font-size="10.00">request_from_empty</text>
<text text-anchor="middle" x="189.5" y="-264" font-family="Helvetica,sans-Serif" font-size="10.00">_nexus</text>
</a>
</g>
</g>
<!-- Node0&#45;&gt;Node9 -->
<g id="edge5" class="edge">
<title>Node0&#45;&gt;Node9</title>
<path fill="none" stroke="#63b8ff" d="M97.59,-272C110.31,-272 123.86,-272 136.51,-272"/>
<polygon fill="#63b8ff" stroke="#63b8ff" points="97.7,-268.5 87.7,-272 97.7,-275.5 97.7,-268.5"/>
</g>
<!-- Node2 -->
<g id="node7" class="node">
<title>Node2</title>
<g id="a_node7"><a xlink:title=" ">
<polygon fill="#e0e0e0" stroke="#999999" points="81,-201.5 5,-201.5 5,-182.5 81,-182.5 81,-201.5"/>
<text text-anchor="middle" x="43" y="-189.5" font-family="Helvetica,sans-Serif" font-size="10.00">std::exception</text>
</a>
</g>
</g>
<!-- Node2&#45;&gt;Node1 -->
<g id="edge6" class="edge">
<title>Node2&#45;&gt;Node1</title>
<path fill="none" stroke="#63b8ff" d="M92.18,-204.34C110.86,-209.12 131.97,-214.52 149.65,-219.05"/>
<polygon fill="#63b8ff" stroke="#63b8ff" points="93.23,-200.99 82.68,-201.9 91.5,-207.78 93.23,-200.99"/>
</g>
<!-- Node2&#45;&gt;Node3 -->
<g id="edge7" class="edge">
<title>Node2&#45;&gt;Node3</title>
<path fill="none" stroke="#63b8ff" d="M92.6,-192C105.98,-192 120.57,-192 134.25,-192"/>
<polygon fill="#63b8ff" stroke="#63b8ff" points="92.73,-188.5 82.73,-192 92.73,-195.5 92.73,-188.5"/>
</g>
<!-- Node2&#45;&gt;Node5 -->
<g id="edge9" class="edge">
<title>Node2&#45;&gt;Node5</title>
<path fill="none" stroke="#63b8ff" d="M57.97,-210.78C66.6,-222.8 77.58,-238.92 86,-254 105,-288.04 93.4,-307.5 122,-334 126.59,-338.25 131.99,-341.77 137.7,-344.66"/>
<polygon fill="#63b8ff" stroke="#63b8ff" points="61,-209 52.28,-202.98 55.35,-213.12 61,-209"/>
</g>
<!-- Node2&#45;&gt;Node6 -->
<g id="edge10" class="edge">
<title>Node2&#45;&gt;Node6</title>
<path fill="none" stroke="#63b8ff" d="M57.47,-211.32C77.46,-239.75 113.51,-290.16 122,-296 128.33,-300.36 135.65,-303.72 143.07,-306.32"/>
<polygon fill="#63b8ff" stroke="#63b8ff" points="60.39,-209.38 51.79,-203.2 54.66,-213.4 60.39,-209.38"/>
</g>
<!-- Node2&#45;&gt;Node9 -->
<g id="edge13" class="edge">
<title>Node2&#45;&gt;Node9</title>
<path fill="none" stroke="#63b8ff" d="M64.03,-208.75C79.21,-220.85 100.99,-236.94 122,-248 127.87,-251.09 134.21,-253.94 140.58,-256.52"/>
<polygon fill="#63b8ff" stroke="#63b8ff" points="66.63,-206.36 56.66,-202.77 62.22,-211.79 66.63,-206.36"/>
</g>
<!-- Node4 -->
<g id="node8" class="node">
<title>Node4</title>
<g id="a_node8"><a xlink:href="classexternal_1_1_external_integration_exception.html" target="_top" xlink:title="Custom exception indicating a problem when integrating with some external component.">
<polygon fill="white" stroke="#666666" points="257,-30 122,-30 122,0 257,0 257,-30"/>
<text text-anchor="start" x="130" y="-18" font-family="Helvetica,sans-Serif" font-size="10.00">external::ExternalIntegration</text>
<text text-anchor="middle" x="189.5" y="-7" font-family="Helvetica,sans-Serif" font-size="10.00">Exception</text>
</a>
</g>
</g>
<!-- Node2&#45;&gt;Node4 -->
<g id="edge8" class="edge">
<title>Node2&#45;&gt;Node4</title>
<path fill="none" stroke="#63b8ff" d="M49.31,-171.54C58.68,-139.25 81.17,-76.41 122,-40 126.14,-36.31 130.88,-33.14 135.89,-30.43"/>
<polygon fill="#63b8ff" stroke="#63b8ff" points="46.02,-170.27 46.74,-180.84 52.77,-172.13 46.02,-170.27"/>
</g>
<!-- Node7 -->
<g id="node9" class="node">
<title>Node7</title>
<g id="a_node9"><a xlink:href="classmodels_1_1external_1_1_state___exception.html" target="_top" xlink:title="Custom exception indicating bad external model state.">
<polygon fill="white" stroke="#666666" points="246.5,-164 132.5,-164 132.5,-134 246.5,-134 246.5,-164"/>
<text text-anchor="start" x="140.5" y="-152" font-family="Helvetica,sans-Serif" font-size="10.00">models::external::State</text>
<text text-anchor="middle" x="189.5" y="-141" font-family="Helvetica,sans-Serif" font-size="10.00">_Exception</text>
</a>
</g>
</g>
<!-- Node2&#45;&gt;Node7 -->
<g id="edge11" class="edge">
<title>Node2&#45;&gt;Node7</title>
<path fill="none" stroke="#63b8ff" d="M88.22,-178.84C103.46,-174.31 120.68,-169.18 136.49,-164.48"/>
<polygon fill="#63b8ff" stroke="#63b8ff" points="87.55,-175.39 78.97,-181.6 89.55,-182.1 87.55,-175.39"/>
</g>
<!-- Node8 -->
<g id="node10" class="node">
<title>Node8</title>
<g id="a_node10"><a xlink:href="classrealization_1_1_configuration_exception.html" target="_top" xlink:title="Custom exception indicating a problem when integrating with the provided realization configuration.">
<polygon fill="white" stroke="#666666" points="250,-116 129,-116 129,-86 250,-86 250,-116"/>
<text text-anchor="start" x="137" y="-104" font-family="Helvetica,sans-Serif" font-size="10.00">realization::Configuration</text>
<text text-anchor="middle" x="189.5" y="-93" font-family="Helvetica,sans-Serif" font-size="10.00">Exception</text>
</a>
</g>
</g>
<!-- Node2&#45;&gt;Node8 -->
<g id="edge12" class="edge">
<title>Node2&#45;&gt;Node8</title>
<path fill="none" stroke="#63b8ff" d="M61.01,-174.13C75.92,-159.3 98.8,-138.53 122,-125 127.41,-121.85 133.3,-119 139.27,-116.45"/>
<polygon fill="#63b8ff" stroke="#63b8ff" points="58.78,-171.41 54.26,-180.99 63.77,-176.31 58.78,-171.41"/>
</g>
<!-- Node10 -->
<g id="node11" class="node">
<title>Node10</title>
<g id="a_node11"><a xlink:title=" ">
<polygon fill="#e0e0e0" stroke="#999999" points="235.5,-67.5 143.5,-67.5 143.5,-48.5 235.5,-48.5 235.5,-67.5"/>
<text text-anchor="middle" x="189.5" y="-55.5" font-family="Helvetica,sans-Serif" font-size="10.00">std::runtime_error</text>
</a>
</g>
</g>
<!-- Node2&#45;&gt;Node10 -->
<g id="edge14" class="edge">
<title>Node2&#45;&gt;Node10</title>
<path fill="none" stroke="#63b8ff" d="M52.35,-171.87C64.1,-146.05 87.94,-101.66 122,-77 128.32,-72.42 135.72,-68.95 143.24,-66.31"/>
<polygon fill="#63b8ff" stroke="#63b8ff" points="49.2,-170.34 48.42,-180.91 55.62,-173.14 49.2,-170.34"/>
</g>
<!-- Node11 -->
<g id="node12" class="node">
<title>Node11</title>
<g id="a_node12"><a xlink:href="structngen_1_1sqlite_1_1sqlite__error.html" target="_top" xlink:title=" ">
<polygon fill="white" stroke="#666666" points="386,-73 293,-73 293,-43 386,-43 386,-73"/>
<text text-anchor="start" x="301" y="-61" font-family="Helvetica,sans-Serif" font-size="10.00">ngen::sqlite::sqlite</text>
<text text-anchor="middle" x="339.5" y="-50" font-family="Helvetica,sans-Serif" font-size="10.00">_error</text>
</a>
</g>
</g>
<!-- Node10&#45;&gt;Node11 -->
<g id="edge15" class="edge">
<title>Node10&#45;&gt;Node11</title>
<path fill="none" stroke="#63b8ff" d="M246.98,-58C262.04,-58 278.13,-58 292.55,-58"/>
<polygon fill="#63b8ff" stroke="#63b8ff" points="247.22,-54.5 237.22,-58 247.22,-61.5 247.22,-54.5"/>
</g>
</g>
</svg>
