<?xml version="1.0" encoding="UTF-8" standalone="no"?>
<!DOCTYPE svg PUBLIC "-//W3C//DTD SVG 1.1//EN"
 "http://www.w3.org/Graphics/SVG/1.1/DTD/svg11.dtd">
<!-- Generated by graphviz version 3.0.0 (20221109.1736)
 -->
<!-- Title: Graphical Class Hierarchy Pages: 1 -->
<svg width="1094pt" height="456pt"
 viewBox="0.00 0.00 1094.00 456.00" xmlns="http://www.w3.org/2000/svg" xmlns:xlink="http://www.w3.org/1999/xlink">
<g id="graph0" class="graph" transform="scale(1 1) rotate(0) translate(4 452)">
<title>Graphical Class Hierarchy</title>
<polygon fill="white" stroke="transparent" points="-4,4 -4,-452 1090,-452 1090,4 -4,4"/>
<!-- Node0 -->
<g id="node1" class="node">
<title>Node0</title>
<g id="a_node1"><a xlink:href="classdata__access_1_1_data_provider.html" target="_top" xlink:title=" ">
<polygon fill="white" stroke="black" points="167,-379 167,-409 358,-409 358,-379 167,-379"/>
<text text-anchor="start" x="175" y="-397" font-family="Helvetica,sans-Serif" font-size="10.00">data_access::DataProvider</text>
<text text-anchor="middle" x="262.5" y="-386" font-family="Helvetica,sans-Serif" font-size="10.00">&lt; double, CatchmentAggrDataSelector &gt;</text>
</a>
</g>
</g>
<!-- Node1 -->
<g id="node2" class="node">
<title>Node1</title>
<g id="a_node2"><a xlink:href="classdata__access_1_1_generic_data_provider.html" target="_top" xlink:title=" ">
<polygon fill="white" stroke="black" points="394,-379 394,-409 525,-409 525,-379 394,-379"/>
<text text-anchor="start" x="402" y="-397" font-family="Helvetica,sans-Serif" font-size="10.00">data_access::GenericData</text>
<text text-anchor="middle" x="459.5" y="-386" font-family="Helvetica,sans-Serif" font-size="10.00">Provider</text>
</a>
</g>
</g>
<!-- Node0&#45;&gt;Node1 -->
<g id="edge1" class="edge">
<title>Node0&#45;&gt;Node1</title>
<path fill="none" stroke="midnightblue" d="M368.38,-394C377.07,-394 385.7,-394 393.96,-394"/>
<polygon fill="midnightblue" stroke="midnightblue" points="368.14,-390.5 358.14,-394 368.14,-397.5 368.14,-390.5"/>
</g>
<!-- Node2 -->
<g id="node3" class="node">
<title>Node2</title>
<g id="a_node3"><a xlink:href="class_csv_per_feature_forcing_provider.html" target="_top" xlink:title="Forcing class providing time&#45;series precipiation forcing data to the model.">
<polygon fill="white" stroke="black" points="561,-428.5 561,-447.5 711,-447.5 711,-428.5 561,-428.5"/>
<text text-anchor="middle" x="636" y="-435.5" font-family="Helvetica,sans-Serif" font-size="10.00">CsvPerFeatureForcingProvider</text>
</a>
</g>
</g>
<!-- Node1&#45;&gt;Node2 -->
<g id="edge2" class="edge">
<title>Node1&#45;&gt;Node2</title>
<path fill="none" stroke="midnightblue" d="M529.8,-411.47C552.81,-417.28 577.56,-423.52 597.27,-428.49"/>
<polygon fill="midnightblue" stroke="midnightblue" points="530.62,-408.07 520.06,-409.02 528.91,-414.86 530.62,-408.07"/>
</g>
<!-- Node3 -->
<g id="node4" class="node">
<title>Node3</title>
<g id="a_node4"><a xlink:href="classdata__access_1_1_wrapped_data_provider.html" target="_top" xlink:title="Simple implementation that basically wraps another instance.">
<polygon fill="white" stroke="black" points="568.5,-379 568.5,-409 703.5,-409 703.5,-379 568.5,-379"/>
<text text-anchor="start" x="576.5" y="-397" font-family="Helvetica,sans-Serif" font-size="10.00">data_access::WrappedData</text>
<text text-anchor="middle" x="636" y="-386" font-family="Helvetica,sans-Serif" font-size="10.00">Provider</text>
</a>
</g>
</g>
<!-- Node1&#45;&gt;Node3 -->
<g id="edge3" class="edge">
<title>Node1&#45;&gt;Node3</title>
<path fill="none" stroke="midnightblue" d="M535.74,-394C546.54,-394 557.59,-394 568.22,-394"/>
<polygon fill="midnightblue" stroke="midnightblue" points="535.48,-390.5 525.48,-394 535.48,-397.5 535.48,-390.5"/>
</g>
<!-- Node6 -->
<g id="node7" class="node">
<title>Node6</title>
<g id="a_node7"><a xlink:href="classrealization_1_1_bmi___formulation.html" target="_top" xlink:title="Abstraction of formulation with backing model object(s) that implements the BMI.">
<polygon fill="white" stroke="black" points="567,-308.5 567,-327.5 705,-327.5 705,-308.5 567,-308.5"/>
<text text-anchor="middle" x="636" y="-315.5" font-family="Helvetica,sans-Serif" font-size="10.00">realization::Bmi_Formulation</text>
</a>
</g>
</g>
<!-- Node1&#45;&gt;Node6 -->
<g id="edge6" class="edge">
<title>Node1&#45;&gt;Node6</title>
<path fill="none" stroke="midnightblue" d="M504.39,-374.88C539.02,-359.8 585.87,-339.4 613.02,-327.57"/>
<polygon fill="midnightblue" stroke="midnightblue" points="502.75,-371.78 494.98,-378.98 505.54,-378.2 502.75,-371.78"/>
</g>
<!-- Node4 -->
<g id="node5" class="node">
<title>Node4</title>
<g id="a_node5"><a xlink:href="classdata__access_1_1_deferred_wrapped_provider.html" target="_top" xlink:title="A specialized @WrappedDataProvider that is created without first knowing the backing source it wraps.">
<polygon fill="white" stroke="black" points="747,-411 747,-441 899,-441 899,-411 747,-411"/>
<text text-anchor="start" x="755" y="-429" font-family="Helvetica,sans-Serif" font-size="10.00">data_access::DeferredWrapped</text>
<text text-anchor="middle" x="823" y="-418" font-family="Helvetica,sans-Serif" font-size="10.00">Provider</text>
</a>
</g>
</g>
<!-- Node3&#45;&gt;Node4 -->
<g id="edge4" class="edge">
<title>Node3&#45;&gt;Node4</title>
<path fill="none" stroke="midnightblue" d="M713.56,-407.24C724.6,-409.15 735.95,-411.12 746.96,-413.02"/>
<polygon fill="midnightblue" stroke="midnightblue" points="713.98,-403.76 703.53,-405.51 712.78,-410.66 713.98,-403.76"/>
</g>
<!-- Node5 -->
<g id="node6" class="node">
<title>Node5</title>
<g id="a_node6"><a xlink:href="classdata__access_1_1_optional_wrapped_data_provider.html" target="_top" xlink:title="Extension of DeferredWrappedProvider, where default values can be used instead of a backing provider.">
<polygon fill="white" stroke="black" points="935,-411 935,-441 1086,-441 1086,-411 935,-411"/>
<text text-anchor="start" x="943" y="-429" font-family="Helvetica,sans-Serif" font-size="10.00">data_access::OptionalWrapped</text>
<text text-anchor="middle" x="1010.5" y="-418" font-family="Helvetica,sans-Serif" font-size="10.00">DataProvider</text>
</a>
</g>
</g>
<!-- Node4&#45;&gt;Node5 -->
<g id="edge5" class="edge">
<title>Node4&#45;&gt;Node5</title>
<path fill="none" stroke="midnightblue" d="M909.45,-426C917.92,-426 926.47,-426 934.81,-426"/>
<polygon fill="midnightblue" stroke="midnightblue" points="909.18,-422.5 899.18,-426 909.18,-429.5 909.18,-422.5"/>
</g>
<!-- Node7 -->
<g id="node8" class="node">
<title>Node7</title>
<g id="a_node8"><a xlink:href="classrealization_1_1_bmi___module___formulation.html" target="_top" xlink:title=" ">
<polygon fill="white" stroke="black" points="763.5,-194.5 763.5,-235.5 882.5,-235.5 882.5,-194.5 763.5,-194.5"/>
<text text-anchor="start" x="771.5" y="-223.5" font-family="Helvetica,sans-Serif" font-size="10.00">realization::Bmi_Module</text>
<text text-anchor="start" x="771.5" y="-212.5" font-family="Helvetica,sans-Serif" font-size="10.00">_Formulation&lt; models::</text>
<text text-anchor="middle" x="823" y="-201.5" font-family="Helvetica,sans-Serif" font-size="10.00">bmi::Bmi_C_Adapter &gt;</text>
</a>
</g>
</g>
<!-- Node6&#45;&gt;Node7 -->
<g id="edge7" class="edge">
<title>Node6&#45;&gt;Node7</title>
<path fill="none" stroke="midnightblue" d="M701.95,-304.44C705.11,-302.82 708.16,-301.02 711,-299 734.53,-282.31 724.6,-263.17 747,-245 751.9,-241.02 757.4,-237.52 763.12,-234.44"/>
<polygon fill="midnightblue" stroke="midnightblue" points="700.48,-301.25 692.75,-308.49 703.31,-307.66 700.48,-301.25"/>
</g>
<!-- Node9 -->
<g id="node10" class="node">
<title>Node9</title>
<g id="a_node10"><a xlink:href="classrealization_1_1_bmi___module___formulation.html" target="_top" xlink:title=" ">
<polygon fill="white" stroke="black" points="761,-351.5 761,-392.5 885,-392.5 885,-351.5 761,-351.5"/>
<text text-anchor="start" x="769" y="-380.5" font-family="Helvetica,sans-Serif" font-size="10.00">realization::Bmi_Module</text>
<text text-anchor="start" x="769" y="-369.5" font-family="Helvetica,sans-Serif" font-size="10.00">_Formulation&lt; models::</text>
<text text-anchor="middle" x="823" y="-358.5" font-family="Helvetica,sans-Serif" font-size="10.00">bmi::Bmi_Cpp_Adapter &gt;</text>
</a>
</g>
</g>
<!-- Node6&#45;&gt;Node9 -->
<g id="edge9" class="edge">
<title>Node6&#45;&gt;Node9</title>
<path fill="none" stroke="midnightblue" d="M679.56,-330.42C703.67,-337.46 734.26,-346.39 760.9,-354.17"/>
<polygon fill="midnightblue" stroke="midnightblue" points="680.23,-326.97 669.65,-327.53 678.27,-333.69 680.23,-326.97"/>
</g>
<!-- Node11 -->
<g id="node12" class="node">
<title>Node11</title>
<g id="a_node12"><a xlink:href="classrealization_1_1_bmi___module___formulation.html" target="_top" xlink:title="Abstraction of a formulation with a single backing model object that implements the BMI.">
<polygon fill="white" stroke="black" points="763.5,-303 763.5,-333 882.5,-333 882.5,-303 763.5,-303"/>
<text text-anchor="start" x="771.5" y="-321" font-family="Helvetica,sans-Serif" font-size="10.00">realization::Bmi_Module</text>
<text text-anchor="middle" x="823" y="-310" font-family="Helvetica,sans-Serif" font-size="10.00">_Formulation&lt; M &gt;</text>
</a>
</g>
</g>
<!-- Node6&#45;&gt;Node11 -->
<g id="edge11" class="edge">
<title>Node6&#45;&gt;Node11</title>
<path fill="none" stroke="midnightblue" d="M715.55,-318C731.62,-318 748.26,-318 763.48,-318"/>
<polygon fill="midnightblue" stroke="midnightblue" points="715.1,-314.5 705.1,-318 715.1,-321.5 715.1,-314.5"/>
</g>
<!-- Node12 -->
<g id="node13" class="node">
<title>Node12</title>
<g id="a_node13"><a xlink:href="classrealization_1_1_bmi___multi___formulation.html" target="_top" xlink:title="Abstraction of a formulation with multiple backing model object that implements the BMI.">
<polygon fill="white" stroke="black" points="769,-254 769,-284 877,-284 877,-254 769,-254"/>
<text text-anchor="start" x="777" y="-272" font-family="Helvetica,sans-Serif" font-size="10.00">realization::Bmi_Multi</text>
<text text-anchor="middle" x="823" y="-261" font-family="Helvetica,sans-Serif" font-size="10.00">_Formulation</text>
</a>
</g>
</g>
<!-- Node6&#45;&gt;Node12 -->
<g id="edge12" class="edge">
<title>Node6&#45;&gt;Node12</title>
<path fill="none" stroke="midnightblue" d="M684.46,-305.91C693.29,-303.63 702.43,-301.26 711,-299 729.92,-294.02 750.62,-288.45 768.96,-283.48"/>
<polygon fill="midnightblue" stroke="midnightblue" points="683.48,-302.55 674.67,-308.43 685.23,-309.33 683.48,-302.55"/>
</g>
<!-- Node8 -->
<g id="node9" class="node">
<title>Node8</title>
<g id="a_node9"><a xlink:href="classrealization_1_1_bmi___c___formulation.html" target="_top" xlink:title=" ">
<polygon fill="white" stroke="black" points="963.5,-200 963.5,-230 1057.5,-230 1057.5,-200 963.5,-200"/>
<text text-anchor="start" x="971.5" y="-218" font-family="Helvetica,sans-Serif" font-size="10.00">realization::Bmi_C</text>
<text text-anchor="middle" x="1010.5" y="-207" font-family="Helvetica,sans-Serif" font-size="10.00">_Formulation</text>
</a>
</g>
</g>
<!-- Node7&#45;&gt;Node8 -->
<g id="edge8" class="edge">
<title>Node7&#45;&gt;Node8</title>
<path fill="none" stroke="midnightblue" d="M892.94,-215C916.38,-215 941.99,-215 963.23,-215"/>
<polygon fill="midnightblue" stroke="midnightblue" points="892.69,-211.5 882.69,-215 892.69,-218.5 892.69,-211.5"/>
</g>
<!-- Node10 -->
<g id="node11" class="node">
<title>Node10</title>
<g id="a_node11"><a xlink:href="classrealization_1_1_bmi___cpp___formulation.html" target="_top" xlink:title="Encapsulates a bmi::Bmi model in C++ such that it can be loaded as a formulation, as such also so tha...">
<polygon fill="white" stroke="black" points="958.5,-357 958.5,-387 1062.5,-387 1062.5,-357 958.5,-357"/>
<text text-anchor="start" x="966.5" y="-375" font-family="Helvetica,sans-Serif" font-size="10.00">realization::Bmi_Cpp</text>
<text text-anchor="middle" x="1010.5" y="-364" font-family="Helvetica,sans-Serif" font-size="10.00">_Formulation</text>
</a>
</g>
</g>
<!-- Node9&#45;&gt;Node10 -->
<g id="edge10" class="edge">
<title>Node9&#45;&gt;Node10</title>
<path fill="none" stroke="midnightblue" d="M895.39,-372C916.33,-372 938.81,-372 958.23,-372"/>
<polygon fill="midnightblue" stroke="midnightblue" points="895.25,-368.5 885.25,-372 895.25,-375.5 895.25,-368.5"/>
</g>
<!-- Node18 -->
<g id="node14" class="node">
<title>Node18</title>
<g id="a_node14"><a xlink:href="class_g_m___object.html" target="_top" xlink:title=" ">
<polygon fill="white" stroke="black" points="32.5,-114.5 32.5,-133.5 98.5,-133.5 98.5,-114.5 32.5,-114.5"/>
<text text-anchor="middle" x="65.5" y="-121.5" font-family="Helvetica,sans-Serif" font-size="10.00">GM_Object</text>
</a>
</g>
</g>
<!-- Node17 -->
<g id="node15" class="node">
<title>Node17</title>
<g id="a_node15"><a xlink:href="class_h_y___catchment_area.html" target="_top" xlink:title=" ">
<polygon fill="white" stroke="black" points="210.5,-114.5 210.5,-133.5 314.5,-133.5 314.5,-114.5 210.5,-114.5"/>
<text text-anchor="middle" x="262.5" y="-121.5" font-family="Helvetica,sans-Serif" font-size="10.00">HY_CatchmentArea</text>
</a>
</g>
</g>
<!-- Node18&#45;&gt;Node17 -->
<g id="edge13" class="edge">
<title>Node18&#45;&gt;Node17</title>
<path fill="none" stroke="midnightblue" d="M108.77,-124C138.54,-124 178.56,-124 210.17,-124"/>
<polygon fill="midnightblue" stroke="midnightblue" points="108.7,-120.5 98.7,-124 108.7,-127.5 108.7,-120.5"/>
</g>
<!-- Node19 -->
<g id="node20" class="node">
<title>Node19</title>
<g id="a_node20"><a xlink:href="class_h_y___catchment_divide.html" target="_top" xlink:title=" ">
<polygon fill="white" stroke="black" points="207.5,-76.5 207.5,-95.5 317.5,-95.5 317.5,-76.5 207.5,-76.5"/>
<text text-anchor="middle" x="262.5" y="-83.5" font-family="Helvetica,sans-Serif" font-size="10.00">HY_CatchmentDivide</text>
</a>
</g>
</g>
<!-- Node18&#45;&gt;Node19 -->
<g id="edge19" class="edge">
<title>Node18&#45;&gt;Node19</title>
<path fill="none" stroke="midnightblue" d="M108.6,-115.8C139.1,-109.85 180.43,-101.8 212.43,-95.56"/>
<polygon fill="midnightblue" stroke="midnightblue" points="107.85,-112.38 98.7,-117.73 109.19,-119.25 107.85,-112.38"/>
</g>
<!-- Node22 -->
<g id="node21" class="node">
<title>Node22</title>
<g id="a_node21"><a xlink:href="class_h_y___flow_path.html" target="_top" xlink:title=" ">
<polygon fill="white" stroke="black" points="224,-38.5 224,-57.5 301,-57.5 301,-38.5 224,-38.5"/>
<text text-anchor="middle" x="262.5" y="-45.5" font-family="Helvetica,sans-Serif" font-size="10.00">HY_FlowPath</text>
</a>
</g>
</g>
<!-- Node18&#45;&gt;Node22 -->
<g id="edge20" class="edge">
<title>Node18&#45;&gt;Node22</title>
<path fill="none" stroke="midnightblue" d="M108.5,-115.12C116.3,-112.52 124.14,-109.2 131,-105 150.84,-92.85 146.64,-78.26 167,-67 184.28,-57.44 205.71,-52.66 223.79,-50.28"/>
<polygon fill="midnightblue" stroke="midnightblue" points="107.31,-111.82 98.73,-118.05 109.31,-118.53 107.31,-111.82"/>
</g>
<!-- Node23 -->
<g id="node22" class="node">
<title>Node23</title>
<g id="a_node22"><a xlink:href="class_h_y___hydro_network.html" target="_top" xlink:title=" ">
<polygon fill="white" stroke="black" points="213.5,-152.5 213.5,-171.5 311.5,-171.5 311.5,-152.5 213.5,-152.5"/>
<text text-anchor="middle" x="262.5" y="-159.5" font-family="Helvetica,sans-Serif" font-size="10.00">HY_HydroNetwork</text>
</a>
</g>
</g>
<!-- Node18&#45;&gt;Node23 -->
<g id="edge21" class="edge">
<title>Node18&#45;&gt;Node23</title>
<path fill="none" stroke="midnightblue" d="M108.67,-132.22C139.4,-138.21 181.1,-146.33 213.17,-152.58"/>
<polygon fill="midnightblue" stroke="midnightblue" points="109.19,-128.75 98.7,-130.27 107.85,-135.62 109.19,-128.75"/>
</g>
<!-- Node24 -->
<g id="node23" class="node">
<title>Node24</title>
<g id="a_node23"><a xlink:href="classhy__features_1_1hydrolocation_1_1_h_y___hydro_location.html" target="_top" xlink:title=" ">
<polygon fill="white" stroke="black" points="198.5,-191 198.5,-221 326.5,-221 326.5,-191 198.5,-191"/>
<text text-anchor="start" x="206.5" y="-209" font-family="Helvetica,sans-Serif" font-size="10.00">hy_features::hydrolocation</text>
<text text-anchor="middle" x="262.5" y="-198" font-family="Helvetica,sans-Serif" font-size="10.00">::HY_HydroLocation</text>
</a>
</g>
</g>
<!-- Node18&#45;&gt;Node24 -->
<g id="edge22" class="edge">
<title>Node18&#45;&gt;Node24</title>
<path fill="none" stroke="midnightblue" d="M89.17,-139.11C109,-151.77 138.94,-169.56 167,-181 176.98,-185.07 187.82,-188.66 198.48,-191.76"/>
<polygon fill="midnightblue" stroke="midnightblue" points="90.85,-136.03 80.56,-133.53 87.04,-141.9 90.85,-136.03"/>
</g>
<!-- Node13 -->
<g id="node16" class="node">
<title>Node13</title>
<g id="a_node16"><a xlink:href="classrealization_1_1_catchment___formulation.html" target="_top" xlink:title=" ">
<polygon fill="white" stroke="black" points="403.5,-235 403.5,-265 515.5,-265 515.5,-235 403.5,-235"/>
<text text-anchor="start" x="411.5" y="-253" font-family="Helvetica,sans-Serif" font-size="10.00">realization::Catchment</text>
<text text-anchor="middle" x="459.5" y="-242" font-family="Helvetica,sans-Serif" font-size="10.00">_Formulation</text>
</a>
</g>
</g>
<!-- Node17&#45;&gt;Node13 -->
<g id="edge14" class="edge">
<title>Node17&#45;&gt;Node13</title>
<path fill="none" stroke="midnightblue" d="M324.65,-130.55C336.19,-133.35 347.82,-137.34 358,-143 398.98,-165.79 432.97,-211.1 448.85,-234.78"/>
<polygon fill="midnightblue" stroke="midnightblue" points="325.08,-127.06 314.57,-128.37 323.61,-133.9 325.08,-127.06"/>
</g>
<!-- Node13&#45;&gt;Node6 -->
<g id="edge16" class="edge">
<title>Node13&#45;&gt;Node6</title>
<path fill="none" stroke="midnightblue" d="M496.65,-269.83C515.45,-279.57 539.03,-290.92 561,-299 570.83,-302.62 581.65,-305.81 591.9,-308.5"/>
<polygon fill="midnightblue" stroke="midnightblue" points="498.05,-266.61 487.57,-265.06 494.79,-272.81 498.05,-266.61"/>
</g>
<!-- Node14 -->
<g id="node17" class="node">
<title>Node14</title>
<g id="a_node17"><a xlink:href="class_simple___lumped___model___realization.html" target="_top" xlink:title=" ">
<polygon fill="white" stroke="black" points="576.5,-259 576.5,-289 695.5,-289 695.5,-259 576.5,-259"/>
<text text-anchor="start" x="584.5" y="-277" font-family="Helvetica,sans-Serif" font-size="10.00">Simple_Lumped_Model</text>
<text text-anchor="middle" x="636" y="-266" font-family="Helvetica,sans-Serif" font-size="10.00">_Realization</text>
</a>
</g>
</g>
<!-- Node13&#45;&gt;Node14 -->
<g id="edge15" class="edge">
<title>Node13&#45;&gt;Node14</title>
<path fill="none" stroke="midnightblue" d="M525.84,-258.99C542.38,-261.26 560.04,-263.69 576.23,-265.92"/>
<polygon fill="midnightblue" stroke="midnightblue" points="526.1,-255.49 515.71,-257.59 525.14,-262.42 526.1,-255.49"/>
</g>
<!-- Node15 -->
<g id="node18" class="node">
<title>Node15</title>
<g id="a_node18"><a xlink:href="classrealization_1_1_tshirt___c___realization.html" target="_top" xlink:title=" ">
<polygon fill="white" stroke="black" points="591.5,-210 591.5,-240 680.5,-240 680.5,-210 591.5,-210"/>
<text text-anchor="start" x="599.5" y="-228" font-family="Helvetica,sans-Serif" font-size="10.00">realization::Tshirt</text>
<text text-anchor="middle" x="636" y="-217" font-family="Helvetica,sans-Serif" font-size="10.00">_C_Realization</text>
</a>
</g>
</g>
<!-- Node13&#45;&gt;Node15 -->
<g id="edge17" class="edge">
<title>Node13&#45;&gt;Node15</title>
<path fill="none" stroke="midnightblue" d="M525.64,-240.67C547.61,-237.52 571.59,-234.08 591.47,-231.24"/>
<polygon fill="midnightblue" stroke="midnightblue" points="525.12,-237.21 515.71,-242.09 526.11,-244.14 525.12,-237.21"/>
</g>
<!-- Node16 -->
<g id="node19" class="node">
<title>Node16</title>
<g id="a_node19"><a xlink:href="classrealization_1_1_tshirt___realization.html" target="_top" xlink:title=" ">
<polygon fill="white" stroke="black" points="591.5,-161 591.5,-191 680.5,-191 680.5,-161 591.5,-161"/>
<text text-anchor="start" x="599.5" y="-179" font-family="Helvetica,sans-Serif" font-size="10.00">realization::Tshirt</text>
<text text-anchor="middle" x="636" y="-168" font-family="Helvetica,sans-Serif" font-size="10.00">_Realization</text>
</a>
</g>
</g>
<!-- Node13&#45;&gt;Node16 -->
<g id="edge18" class="edge">
<title>Node13&#45;&gt;Node16</title>
<path fill="none" stroke="midnightblue" d="M498.13,-230.23C516.78,-220.8 539.8,-209.71 561,-201 570.66,-197.03 581.2,-193.19 591.22,-189.76"/>
<polygon fill="midnightblue" stroke="midnightblue" points="496.4,-227.19 489.08,-234.85 499.58,-233.42 496.4,-227.19"/>
</g>
<!-- Node20 -->
<g id="node24" class="node">
<title>Node20</title>
<g id="a_node24"><a xlink:href="class_h_y___catchment_realization.html" target="_top" xlink:title=" ">
<polygon fill="white" stroke="black" points="0,-76.5 0,-95.5 131,-95.5 131,-76.5 0,-76.5"/>
<text text-anchor="middle" x="65.5" y="-83.5" font-family="Helvetica,sans-Serif" font-size="10.00">HY_CatchmentRealization</text>
</a>
</g>
</g>
<!-- Node20&#45;&gt;Node17 -->
<g id="edge24" class="edge">
<title>Node20&#45;&gt;Node17</title>
<path fill="none" stroke="midnightblue" d="M125.46,-97.49C153.28,-102.91 186.1,-109.31 212.52,-114.46"/>
<polygon fill="midnightblue" stroke="midnightblue" points="125.94,-94.02 115.46,-95.54 124.6,-100.89 125.94,-94.02"/>
</g>
<!-- Node20&#45;&gt;Node19 -->
<g id="edge25" class="edge">
<title>Node20&#45;&gt;Node19</title>
<path fill="none" stroke="midnightblue" d="M141.16,-86C163.22,-86 186.94,-86 207.43,-86"/>
<polygon fill="midnightblue" stroke="midnightblue" points="141.16,-82.5 131.16,-86 141.16,-89.5 141.16,-82.5"/>
</g>
<!-- Node20&#45;&gt;Node22 -->
<g id="edge26" class="edge">
<title>Node20&#45;&gt;Node22</title>
<path fill="none" stroke="midnightblue" d="M125.58,-74.49C157.54,-68.26 196.05,-60.75 223.91,-55.33"/>
<polygon fill="midnightblue" stroke="midnightblue" points="124.6,-71.11 115.46,-76.46 125.94,-77.98 124.6,-71.11"/>
</g>
<!-- Node20&#45;&gt;Node23 -->
<g id="edge27" class="edge">
<title>Node20&#45;&gt;Node23</title>
<path fill="none" stroke="midnightblue" d="M120.1,-99.34C123.9,-101.02 127.57,-102.9 131,-105 150.84,-117.15 146.64,-131.74 167,-143 181.06,-150.78 197.86,-155.39 213.37,-158.13"/>
<polygon fill="midnightblue" stroke="midnightblue" points="121.1,-95.97 110.51,-95.57 118.53,-102.48 121.1,-95.97"/>
</g>
<!-- Node21 -->
<g id="node25" class="node">
<title>Node21</title>
<g id="a_node25"><a xlink:href="class_h_y___cartographic_realization.html" target="_top" xlink:title=" ">
<polygon fill="white" stroke="black" points="193.5,-0.5 193.5,-19.5 331.5,-19.5 331.5,-0.5 193.5,-0.5"/>
<text text-anchor="middle" x="262.5" y="-7.5" font-family="Helvetica,sans-Serif" font-size="10.00">HY_CartographicRealization</text>
</a>
</g>
</g>
<!-- Node20&#45;&gt;Node21 -->
<g id="edge23" class="edge">
<title>Node20&#45;&gt;Node21</title>
<path fill="none" stroke="midnightblue" d="M88.66,-70.68C108.39,-57.74 138.45,-39.66 167,-29 177.27,-25.17 188.47,-22.05 199.45,-19.54"/>
<polygon fill="midnightblue" stroke="midnightblue" points="86.49,-67.93 80.12,-76.4 90.38,-73.75 86.49,-67.93"/>
</g>
<!-- Node26 -->
<g id="node26" class="node">
<title>Node26</title>
<g id="a_node26"><a xlink:href="classrealization_1_1_et___aware.html" target="_top" xlink:title="Interface for type that is aware of parameters for evapotranspiration in certain calculations,...">
<polygon fill="white" stroke="black" points="12,-259.5 12,-278.5 119,-278.5 119,-259.5 12,-259.5"/>
<text text-anchor="middle" x="65.5" y="-266.5" font-family="Helvetica,sans-Serif" font-size="10.00">realization::Et_Aware</text>
</a>
</g>
</g>
<!-- Node25 -->
<g id="node27" class="node">
<title>Node25</title>
<g id="a_node27"><a xlink:href="classrealization_1_1_et___accountable.html" target="_top" xlink:title="Interface for type that is able to account for evapotranspiration in certain calculations,...">
<polygon fill="white" stroke="black" points="196,-240.5 196,-259.5 329,-259.5 329,-240.5 196,-240.5"/>
<text text-anchor="middle" x="262.5" y="-247.5" font-family="Helvetica,sans-Serif" font-size="10.00">realization::Et_Accountable</text>
</a>
</g>
</g>
<!-- Node26&#45;&gt;Node25 -->
<g id="edge28" class="edge">
<title>Node26&#45;&gt;Node25</title>
<path fill="none" stroke="midnightblue" d="M129.25,-262.89C150.58,-260.81 174.45,-258.48 195.99,-256.38"/>
<polygon fill="midnightblue" stroke="midnightblue" points="128.63,-259.43 119.01,-263.88 129.31,-266.4 128.63,-259.43"/>
</g>
<!-- Node27 -->
<g id="node28" class="node">
<title>Node27</title>
<g id="a_node28"><a xlink:href="classrealization_1_1_formulation.html" target="_top" xlink:title=" ">
<polygon fill="white" stroke="black" points="204.5,-278.5 204.5,-297.5 320.5,-297.5 320.5,-278.5 204.5,-278.5"/>
<text text-anchor="middle" x="262.5" y="-285.5" font-family="Helvetica,sans-Serif" font-size="10.00">realization::Formulation</text>
</a>
</g>
</g>
<!-- Node26&#45;&gt;Node27 -->
<g id="edge30" class="edge">
<title>Node26&#45;&gt;Node27</title>
<path fill="none" stroke="midnightblue" d="M129.15,-275.1C153.34,-277.46 180.82,-280.14 204.44,-282.44"/>
<polygon fill="midnightblue" stroke="midnightblue" points="129.31,-271.6 119.01,-274.12 128.63,-278.57 129.31,-271.6"/>
</g>
<!-- Node25&#45;&gt;Node13 -->
<g id="edge29" class="edge">
<title>Node25&#45;&gt;Node13</title>
<path fill="none" stroke="midnightblue" d="M339.28,-250C360.66,-250 383.51,-250 403.43,-250"/>
<polygon fill="midnightblue" stroke="midnightblue" points="339.25,-246.5 329.25,-250 339.25,-253.5 339.25,-246.5"/>
</g>
<!-- Node27&#45;&gt;Node13 -->
<g id="edge31" class="edge">
<title>Node27&#45;&gt;Node13</title>
<path fill="none" stroke="midnightblue" d="M322.44,-276.51C348.13,-271.51 378.08,-265.67 403.32,-260.75"/>
<polygon fill="midnightblue" stroke="midnightblue" points="321.6,-273.11 312.46,-278.46 322.94,-279.98 321.6,-273.11"/>
</g>
</g>
</svg>
