<?xml version="1.0" encoding="UTF-8" standalone="no"?>
<!DOCTYPE svg PUBLIC "-//W3C//DTD SVG 1.1//EN"
 "http://www.w3.org/Graphics/SVG/1.1/DTD/svg11.dtd">
<!-- Generated by graphviz version 9.0.0 (20230911.1827)
 -->
<!-- Title: Graphical Class Hierarchy Pages: 1 -->
<svg width="209pt" height="64pt"
 viewBox="0.00 0.00 208.75 64.25" xmlns="http://www.w3.org/2000/svg" xmlns:xlink="http://www.w3.org/1999/xlink">
<g id="graph0" class="graph" transform="scale(1 1) rotate(0) translate(4 60.25)">
<title>Graphical Class Hierarchy</title>
<!-- Node0 -->
<g id="Node000000" class="node">
<title>Node0</title>
<g id="a_Node000000"><a xlink:href="classngen_1_1_layer.html" target="_top" xlink:title=" ">
<polygon fill="white" stroke="#666666" points="65.5,-37.25 0,-37.25 0,-18 65.5,-18 65.5,-37.25"/>
<text text-anchor="middle" x="32.75" y="-23.75" font-family="Helvetica,sans-Serif" font-size="10.00">ngen::Layer</text>
</a>
</g>
</g>
<!-- Node1 -->
<g id="Node000001" class="node">
<title>Node1</title>
<g id="a_Node000001"><a xlink:href="classngen_1_1_domain_layer.html" target="_top" xlink:title=" ">
<polygon fill="white" stroke="#666666" points="200.38,-56.25 101.88,-56.25 101.88,-37 200.38,-37 200.38,-56.25"/>
<text text-anchor="middle" x="151.12" y="-42.75" font-family="Helvetica,sans-Serif" font-size="10.00">ngen::DomainLayer</text>
</a>
</g>
</g>
<!-- Node0&#45;&gt;Node1 -->
<g id="edge79_Node000000_Node000001" class="edge">
<title>Node0&#45;&gt;Node1</title>
<g id="a_edge79_Node000000_Node000001"><a xlink:title=" ">
<path fill="none" stroke="#63b8ff" d="M77.15,-34.71C85.11,-36.01 93.46,-37.37 101.55,-38.69"/>
<polygon fill="#63b8ff" stroke="#63b8ff" points="77.79,-31.27 67.35,-33.11 76.66,-38.18 77.79,-31.27"/>
</a>
</g>
</g>
<!-- Node2 -->
<g id="Node000002" class="node">
<title>Node2</title>
<g id="a_Node000002"><a xlink:href="classngen_1_1_surface_layer.html" target="_top" xlink:title=" ">
<polygon fill="white" stroke="#666666" points="200.75,-19.25 101.5,-19.25 101.5,0 200.75,0 200.75,-19.25"/>
<text text-anchor="middle" x="151.12" y="-5.75" font-family="Helvetica,sans-Serif" font-size="10.00">ngen::SurfaceLayer</text>
</a>
</g>
</g>
<!-- Node0&#45;&gt;Node2 -->
<g id="edge80_Node000000_Node000002" class="edge">
<title>Node0&#45;&gt;Node2</title>
<g id="a_edge80_Node000000_Node000002"><a xlink:title=" ">
<path fill="none" stroke="#63b8ff" d="M77.01,-20.93C84.86,-19.72 93.1,-18.44 101.11,-17.21"/>
<polygon fill="#63b8ff" stroke="#63b8ff" points="76.7,-17.44 67.35,-22.43 77.77,-24.36 76.7,-17.44"/>
</a>
</g>
</g>
</g>
</svg>
