<?xml version="1.0" encoding="UTF-8" standalone="no"?>
<!DOCTYPE svg PUBLIC "-//W3C//DTD SVG 1.1//EN"
 "http://www.w3.org/Graphics/SVG/1.1/DTD/svg11.dtd">
<!-- Generated by graphviz version 12.2.0 (20241103.1931)
 -->
<!-- Title: utils::FeatureDescriptor Pages: 1 -->
<!--zoomable 630 -->

<svg id="main" version="1.1" xmlns="http://www.w3.org/2000/svg" xmlns:xlink="http://www.w3.org/1999/xlink" xml:space="preserve" onload="init(evt)">

<style type="text/css"><![CDATA[
.node, .edge {opacity: 0.7;}
.node.selected, .edge.selected {opacity: 1;}
.edge:hover path { stroke: red; }
.edge:hover polygon { stroke: red; fill: red; }
]]></style>

<defs>
  <circle id="rim" cx="0" cy="0" r="7"/>
  <circle id="rim2" cx="0" cy="0" r="3.5"/>
  <g id="zoomPlus">
    <use xlink:href="#rim" fill="#404040"><set attributeName="fill" to="#808080" begin="zoomplus.mouseover" end="zoomplus.mouseout"/></use>
    <path d="M-4,0h8M0,-4v8" fill="none" stroke="white" stroke-width="1.5" pointer-events="none"/>
  </g>
  <g id="zoomMin">
    <use xlink:href="#rim" fill="#404040"><set attributeName="fill" to="#808080" begin="zoomminus.mouseover" end="zoomminus.mouseout"/></use>
    <path d="M-4,0h8" fill="none" stroke="white" stroke-width="1.5" pointer-events="none"/>
  </g>
  <g id="arrowUp" transform="translate(30 24)">
    <use xlink:href="#rim"/>
    <path pointer-events="none" fill="none" stroke="white" stroke-width="1.5" d="M0,-3.0v7 M-2.5,-0.5L0,-3.0L2.5,-0.5"/>
  </g>
  <g id="arrowRight" transform="rotate(90) translate(36 -43)">
    <use xlink:href="#rim"/>
    <path pointer-events="none" fill="none" stroke="white" stroke-width="1.5" d="M0,-3.0v7 M-2.5,-0.5L0,-3.0L2.5,-0.5"/>
  </g>
  <g id="arrowDown" transform="rotate(180) translate(-30 -48)">
    <use xlink:href="#rim"/>
    <path pointer-events="none" fill="none" stroke="white" stroke-width="1.5" d="M0,-3.0v7 M-2.5,-0.5L0,-3.0L2.5,-0.5"/>
  </g>
  <g id="arrowLeft" transform="rotate(270) translate(-36 17)">
    <use xlink:href="#rim"/>
    <path pointer-events="none" fill="none" stroke="white" stroke-width="1.5" d="M0,-3.0v7 M-2.5,-0.5L0,-3.0L2.5,-0.5"/>
  </g>
  <g id="resetDef">
    <use xlink:href="#rim2" fill="#404040"><set attributeName="fill" to="#808080" begin="reset.mouseover" end="reset.mouseout"/></use>
  </g>
</defs>
<script type="application/ecmascript">
var viewWidth = 383;
var viewHeight = 630;
var sectionId = 'dynsection-0';
</script>
<script type="application/ecmascript" xlink:href="svg.min.js"/>
<svg id="graph" class="graph">
<g id="viewport">
<title>utils::FeatureDescriptor</title>
<!-- Node1 -->
<g id="Node000001" class="node">
<title>Node1</title>
<g id="a_Node000001"><a xlink:title="One feature&#39;s output schema, supplied to a manager at construction.">
<polygon fill="#999999" stroke="none" points="107.75,-65 0,-65 0,0 107.75,0 107.75,-65"/>
<text text-anchor="start" x="4" y="-51.5" font-family="Helvetica,sans-Serif" font-size="10.00">utils::FeatureDescriptor</text>
<text text-anchor="start" x="52.38" y="-36.25" font-family="Helvetica,sans-Serif" font-size="10.00"> </text>
<text text-anchor="start" x="5.62" y="-21" font-family="Helvetica,sans-Serif" font-size="10.00">+</text>
<text text-anchor="start" x="17.25" y="-21" font-family="Helvetica,sans-Serif" font-size="10.00">FeatureDescriptor()</text>
<text text-anchor="start" x="5.62" y="-5.75" font-family="Helvetica,sans-Serif" font-size="10.00">+</text>
<text text-anchor="start" x="17.25" y="-5.75" font-family="Helvetica,sans-Serif" font-size="10.00">FeatureDescriptor()</text>
<polygon fill="#666666" stroke="#666666" points="0,-47.75 0,-47.75 107.75,-47.75 107.75,-47.75 0,-47.75"/>
<polygon fill="#666666" stroke="#666666" points="0,-32.5 0,-32.5 107.75,-32.5 107.75,-32.5 0,-32.5"/>
<polygon fill="none" stroke="#666666" points="0,0 0,-65 107.75,-65 107.75,0 0,0"/>
</a>
</g>
</g>
<!-- Node2 -->
<g id="Node000002" class="node">
<title>Node2</title>
<g id="a_Node000002"><a xlink:title=" ">
<polygon fill="white" stroke="none" points="108.88,-514 58.88,-514 58.88,-464.25 108.88,-464.25 108.88,-514"/>
<text text-anchor="start" x="62.88" y="-500.5" font-family="Helvetica,sans-Serif" font-size="10.00">std::string</text>
<text text-anchor="start" x="82.38" y="-485.25" font-family="Helvetica,sans-Serif" font-size="10.00"> </text>
<text text-anchor="start" x="82.38" y="-470" font-family="Helvetica,sans-Serif" font-size="10.00"> </text>
<polygon fill="#666666" stroke="#666666" points="58.88,-496.75 58.88,-496.75 108.88,-496.75 108.88,-496.75 58.88,-496.75"/>
<polygon fill="#666666" stroke="#666666" points="58.88,-481.5 58.88,-481.5 108.88,-481.5 108.88,-481.5 58.88,-481.5"/>
<polygon fill="none" stroke="#666666" points="58.88,-464.25 58.88,-514 108.88,-514 108.88,-464.25 58.88,-464.25"/>
</a>
</g>
</g>
<!-- Node2&#45;&gt;Node1 -->
<g id="edge1_Node000001_Node000002" class="edge">
<title>Node2&#45;&gt;Node1</title>
<g id="a_edge1_Node000001_Node000002"><a xlink:title=" ">
<path fill="none" stroke="#63b8ff" d="M70.82,-464.29C57.22,-437.19 37.88,-391.23 37.88,-349 37.88,-349 37.88,-349 37.88,-141.75 37.88,-120.35 40.97,-96.82 44.44,-77.18"/>
<polygon fill="none" stroke="#63b8ff" points="44.43,-77.26 41.6,-70.63 46.64,-65.47 49.47,-72.11 44.43,-77.26"/>
</a>
</g>
<text text-anchor="middle" x="71.25" y="-247.12" font-family="Helvetica,sans-Serif" font-size="10.00" fill="grey"> +catchment_id</text>
<text text-anchor="middle" x="71.25" y="-235.88" font-family="Helvetica,sans-Serif" font-size="10.00" fill="grey">+formulation_id</text>
</g>
<!-- Node5 -->
<g id="Node000005" class="node">
<title>Node5</title>
<g id="a_Node000005"><a xlink:href="structutils_1_1_output_field.html" target="_top" xlink:title="One output column: the mapping from a source variable to its output, positionally aligned with the va...">
<polygon fill="white" stroke="none" points="217.25,-270.25 136.5,-270.25 136.5,-220.5 217.25,-220.5 217.25,-270.25"/>
<text text-anchor="start" x="140.5" y="-256.75" font-family="Helvetica,sans-Serif" font-size="10.00">utils::OutputField</text>
<text text-anchor="start" x="142.12" y="-241.5" font-family="Helvetica,sans-Serif" font-size="10.00">+</text>
<text text-anchor="start" x="153.75" y="-241.5" font-family="Helvetica,sans-Serif" font-size="10.00">units</text>
<text text-anchor="start" x="142.12" y="-226.25" font-family="Helvetica,sans-Serif" font-size="10.00">+</text>
<text text-anchor="start" x="153.75" y="-226.25" font-family="Helvetica,sans-Serif" font-size="10.00">OutputField()</text>
<polygon fill="#666666" stroke="#666666" points="136.5,-253 136.5,-253 217.25,-253 217.25,-253 136.5,-253"/>
<polygon fill="#666666" stroke="#666666" points="136.5,-237.75 136.5,-237.75 151.75,-237.75 151.75,-237.75 136.5,-237.75"/>
<polygon fill="#666666" stroke="#666666" points="151.75,-237.75 151.75,-237.75 217.25,-237.75 217.25,-237.75 151.75,-237.75"/>
<polygon fill="none" stroke="#666666" points="136.5,-220.5 136.5,-270.25 217.25,-270.25 217.25,-220.5 136.5,-220.5"/>
</a>
</g>
</g>
<!-- Node2&#45;&gt;Node5 -->
<g id="edge5_Node000005_Node000002" class="edge">
<title>Node2&#45;&gt;Node5</title>
<g id="a_edge5_Node000005_Node000002"><a xlink:title=" ">
<path fill="none" stroke="#63b8ff" d="M79.57,-464.3C74.56,-429.9 69.71,-365.21 93.38,-317.5 100.99,-302.14 113.58,-288.78 126.71,-277.92"/>
<polygon fill="none" stroke="#63b8ff" points="126.58,-278.02 128.87,-271.19 136.06,-270.67 133.77,-277.51 126.58,-278.02"/>
</a>
</g>
<text text-anchor="middle" x="125.62" y="-349.75" font-family="Helvetica,sans-Serif" font-size="10.00" fill="grey"> +output_name</text>
<text text-anchor="middle" x="125.62" y="-338.5" font-family="Helvetica,sans-Serif" font-size="10.00" fill="grey">+source_name</text>
</g>
<!-- Node6 -->
<g id="Node000006" class="node">
<title>Node6</title>
<g id="a_Node000006"><a xlink:title=" ">
<polygon fill="white" stroke="none" points="264.88,-378.5 166.88,-378.5 166.88,-317.5 264.88,-317.5 264.88,-378.5"/>
<text text-anchor="start" x="170.88" y="-365" font-family="Helvetica,sans-Serif" font-size="10.00">std::map&lt; std::string,</text>
<text text-anchor="start" x="189.62" y="-353.75" font-family="Helvetica,sans-Serif" font-size="10.00"> std::string &gt;</text>
<text text-anchor="start" x="214.38" y="-338.5" font-family="Helvetica,sans-Serif" font-size="10.00"> </text>
<text text-anchor="start" x="214.38" y="-323.25" font-family="Helvetica,sans-Serif" font-size="10.00"> </text>
<polygon fill="#666666" stroke="#666666" points="166.88,-350 166.88,-350 264.88,-350 264.88,-350 166.88,-350"/>
<polygon fill="#666666" stroke="#666666" points="166.88,-334.75 166.88,-334.75 264.88,-334.75 264.88,-334.75 166.88,-334.75"/>
<polygon fill="none" stroke="#666666" points="166.88,-317.5 166.88,-378.5 264.88,-378.5 264.88,-317.5 166.88,-317.5"/>
</a>
</g>
</g>
<!-- Node2&#45;&gt;Node6 -->
<g id="edge7_Node000006_Node000002" class="edge">
<title>Node2&#45;&gt;Node6</title>
<g id="a_edge7_Node000006_Node000002"><a xlink:title=" ">
<path fill="none" stroke="#63b8ff" d="M98.32,-464.37C110.82,-444.89 130.11,-417.26 150.88,-396.5 154.24,-393.14 157.85,-389.84 161.59,-386.63"/>
<polygon fill="none" stroke="#63b8ff" points="161.7,-386.54 163.83,-379.66 171.01,-378.97 168.88,-385.86 161.7,-386.54"/>
</a>
</g>
<text text-anchor="middle" x="174.88" y="-423.12" font-family="Helvetica,sans-Serif" font-size="10.00" fill="grey"> +elements</text>
<text text-anchor="middle" x="174.88" y="-411.88" font-family="Helvetica,sans-Serif" font-size="10.00" fill="grey">+keys</text>
</g>
<!-- Node3 -->
<g id="Node000003" class="node">
<title>Node3</title>
<g id="a_Node000003"><a xlink:title=" ">
<polygon fill="white" stroke="none" points="126.12,-622.25 41.62,-622.25 41.62,-561.25 126.12,-561.25 126.12,-622.25"/>
<text text-anchor="start" x="45.62" y="-608.75" font-family="Helvetica,sans-Serif" font-size="10.00">std::basic_string&lt;</text>
<text text-anchor="start" x="68.5" y="-597.5" font-family="Helvetica,sans-Serif" font-size="10.00"> Char &gt;</text>
<text text-anchor="start" x="82.38" y="-582.25" font-family="Helvetica,sans-Serif" font-size="10.00"> </text>
<text text-anchor="start" x="82.38" y="-567" font-family="Helvetica,sans-Serif" font-size="10.00"> </text>
<polygon fill="#666666" stroke="#666666" points="41.62,-593.75 41.62,-593.75 126.12,-593.75 126.12,-593.75 41.62,-593.75"/>
<polygon fill="#666666" stroke="#666666" points="41.62,-578.5 41.62,-578.5 126.12,-578.5 126.12,-578.5 41.62,-578.5"/>
<polygon fill="none" stroke="#666666" points="41.62,-561.25 41.62,-622.25 126.12,-622.25 126.12,-561.25 41.62,-561.25"/>
</a>
</g>
</g>
<!-- Node3&#45;&gt;Node2 -->
<g id="edge2_Node000002_Node000003" class="edge">
<title>Node3&#45;&gt;Node2</title>
<g id="a_edge2_Node000002_Node000003"><a xlink:title=" ">
<path fill="none" stroke="#63b8ff" d="M83.88,-549.98C83.88,-537.74 83.88,-524.72 83.88,-513.95"/>
<polygon fill="none" stroke="#63b8ff" points="80.38,-549.86 83.88,-559.86 87.38,-549.86 80.38,-549.86"/>
</a>
</g>
</g>
<!-- Node4 -->
<g id="Node000004" class="node">
<title>Node4</title>
<g id="a_Node000004"><a xlink:title=" ">
<polygon fill="white" stroke="none" points="216.5,-173.25 137.25,-173.25 137.25,-112.25 216.5,-112.25 216.5,-173.25"/>
<text text-anchor="start" x="141.25" y="-159.75" font-family="Helvetica,sans-Serif" font-size="10.00">std::vector&lt; utils</text>
<text text-anchor="start" x="145.38" y="-148.5" font-family="Helvetica,sans-Serif" font-size="10.00">::OutputField &gt;</text>
<text text-anchor="start" x="175.38" y="-133.25" font-family="Helvetica,sans-Serif" font-size="10.00"> </text>
<text text-anchor="start" x="175.38" y="-118" font-family="Helvetica,sans-Serif" font-size="10.00"> </text>
<polygon fill="#666666" stroke="#666666" points="137.25,-144.75 137.25,-144.75 216.5,-144.75 216.5,-144.75 137.25,-144.75"/>
<polygon fill="#666666" stroke="#666666" points="137.25,-129.5 137.25,-129.5 216.5,-129.5 216.5,-129.5 137.25,-129.5"/>
<polygon fill="none" stroke="#666666" points="137.25,-112.25 137.25,-173.25 216.5,-173.25 216.5,-112.25 137.25,-112.25"/>
</a>
</g>
</g>
<!-- Node4&#45;&gt;Node1 -->
<g id="edge3_Node000001_Node000004" class="edge">
<title>Node4&#45;&gt;Node1</title>
<g id="a_edge3_Node000001_Node000004"><a xlink:title=" ">
<path fill="none" stroke="#63b8ff" d="M143.59,-112.46C129.82,-100.33 113.63,-86.09 98.83,-73.06"/>
<polygon fill="none" stroke="#63b8ff" points="99.03,-73.24 91.88,-72.28 90.02,-65.31 97.16,-66.27 99.03,-73.24"/>
</a>
</g>
<text text-anchor="middle" x="138.11" y="-84.75" font-family="Helvetica,sans-Serif" font-size="10.00" fill="grey"> +fields</text>
</g>
<!-- Node5&#45;&gt;Node4 -->
<g id="edge4_Node000004_Node000005" class="edge">
<title>Node5&#45;&gt;Node4</title>
<g id="a_edge4_Node000004_Node000005"><a xlink:title=" ">
<path fill="none" stroke="#63b8ff" d="M176.88,-220.53C176.88,-210.23 176.88,-197.85 176.88,-186.08"/>
<polygon fill="none" stroke="#63b8ff" points="176.88,-186.08 172.88,-180.08 176.88,-174.08 180.88,-180.08 176.88,-186.08"/>
</a>
</g>
<text text-anchor="middle" x="200.88" y="-193" font-family="Helvetica,sans-Serif" font-size="10.00" fill="grey"> +elements</text>
</g>
<!-- Node6&#45;&gt;Node5 -->
<g id="edge6_Node000005_Node000006" class="edge">
<title>Node6&#45;&gt;Node5</title>
<g id="a_edge6_Node000005_Node000006"><a xlink:title=" ">
<path fill="none" stroke="#63b8ff" d="M204.49,-317.62C200.2,-306.55 195.27,-293.82 190.77,-282.22"/>
<polygon fill="none" stroke="#63b8ff" points="190.77,-282.23 184.87,-278.08 186.44,-271.04 192.33,-275.19 190.77,-282.23"/>
</a>
</g>
<text text-anchor="middle" x="220.75" y="-290" font-family="Helvetica,sans-Serif" font-size="10.00" fill="grey"> +attributes</text>
</g>
<!-- Node7 -->
<g id="Node000007" class="node">
<title>Node7</title>
<g id="a_Node000007"><a xlink:title=" ">
<polygon fill="white" stroke="none" points="248.5,-514 169.25,-514 169.25,-464.25 248.5,-464.25 248.5,-514"/>
<text text-anchor="start" x="173.25" y="-500.5" font-family="Helvetica,sans-Serif" font-size="10.00">std::map&lt; K, T &gt;</text>
<text text-anchor="start" x="207.38" y="-485.25" font-family="Helvetica,sans-Serif" font-size="10.00"> </text>
<text text-anchor="start" x="207.38" y="-470" font-family="Helvetica,sans-Serif" font-size="10.00"> </text>
<polygon fill="#666666" stroke="#666666" points="169.25,-496.75 169.25,-496.75 248.5,-496.75 248.5,-496.75 169.25,-496.75"/>
<polygon fill="#666666" stroke="#666666" points="169.25,-481.5 169.25,-481.5 248.5,-481.5 248.5,-481.5 169.25,-481.5"/>
<polygon fill="none" stroke="#666666" points="169.25,-464.25 169.25,-514 248.5,-514 248.5,-464.25 169.25,-464.25"/>
</a>
</g>
</g>
<!-- Node7&#45;&gt;Node6 -->
<g id="edge8_Node000006_Node000007" class="edge">
<title>Node7&#45;&gt;Node6</title>
<g id="a_edge8_Node000006_Node000007"><a xlink:title=" ">
<path fill="none" stroke="orange" d="M205.08,-453.42C204.9,-451 204.74,-448.59 204.62,-446.25 203.51,-424.17 202.06,-418.46 204.62,-396.5 205.31,-390.61 206.47,-384.39 207.78,-378.46"/>
<polygon fill="orange" stroke="orange" points="201.57,-453.52 205.94,-463.17 208.55,-452.9 201.57,-453.52"/>
</a>
</g>
<text text-anchor="start" x="204.62" y="-423.12" font-family="Helvetica,sans-Serif" font-size="10.00" fill="grey"> &lt; std::string, std</text>
<text text-anchor="middle" x="240.25" y="-411.88" font-family="Helvetica,sans-Serif" font-size="10.00" fill="grey">::string &gt;</text>
</g>
<!-- Node8 -->
<g id="Node000008" class="node">
<title>Node8</title>
<g id="a_Node000008"><a xlink:title=" ">
<polygon fill="white" stroke="none" points="207.25,-616.62 192.5,-616.62 192.5,-566.88 207.25,-566.88 207.25,-616.62"/>
<text text-anchor="start" x="196.5" y="-603.12" font-family="Helvetica,sans-Serif" font-size="10.00">K</text>
<text text-anchor="start" x="198.38" y="-587.88" font-family="Helvetica,sans-Serif" font-size="10.00"> </text>
<text text-anchor="start" x="198.38" y="-572.62" font-family="Helvetica,sans-Serif" font-size="10.00"> </text>
<polygon fill="#666666" stroke="#666666" points="192.5,-599.38 192.5,-599.38 207.25,-599.38 207.25,-599.38 192.5,-599.38"/>
<polygon fill="#666666" stroke="#666666" points="192.5,-584.12 192.5,-584.12 207.25,-584.12 207.25,-584.12 192.5,-584.12"/>
<polygon fill="none" stroke="#666666" points="192.5,-566.88 192.5,-616.62 207.25,-616.62 207.25,-566.88 192.5,-566.88"/>
</a>
</g>
</g>
<!-- Node8&#45;&gt;Node7 -->
<g id="edge9_Node000007_Node000008" class="edge">
<title>Node8&#45;&gt;Node7</title>
<g id="a_edge9_Node000007_Node000008"><a xlink:title=" ">
<path fill="none" stroke="#63b8ff" d="M199.66,-566.97C199.78,-556.26 200.21,-543.47 201.38,-532 201.55,-530.25 201.76,-528.47 202,-526.68"/>
<polygon fill="none" stroke="#63b8ff" points="201.99,-526.7 198.95,-520.16 203.82,-514.84 206.86,-521.38 201.99,-526.7"/>
</a>
</g>
<text text-anchor="middle" x="215.62" y="-533.75" font-family="Helvetica,sans-Serif" font-size="10.00" fill="grey"> +keys</text>
</g>
<!-- Node9 -->
<g id="Node000009" class="node">
<title>Node9</title>
<g id="a_Node000009"><a xlink:title=" ">
<polygon fill="white" stroke="none" points="293.88,-616.62 279.88,-616.62 279.88,-566.88 293.88,-566.88 293.88,-616.62"/>
<text text-anchor="start" x="283.88" y="-603.12" font-family="Helvetica,sans-Serif" font-size="10.00">T</text>
<text text-anchor="start" x="285.38" y="-587.88" font-family="Helvetica,sans-Serif" font-size="10.00"> </text>
<text text-anchor="start" x="285.38" y="-572.62" font-family="Helvetica,sans-Serif" font-size="10.00"> </text>
<polygon fill="#666666" stroke="#666666" points="279.88,-599.38 279.88,-599.38 293.88,-599.38 293.88,-599.38 279.88,-599.38"/>
<polygon fill="#666666" stroke="#666666" points="279.88,-584.12 279.88,-584.12 293.88,-584.12 293.88,-584.12 279.88,-584.12"/>
<polygon fill="none" stroke="#666666" points="279.88,-566.88 279.88,-616.62 293.88,-616.62 293.88,-566.88 279.88,-566.88"/>
</a>
</g>
</g>
<!-- Node9&#45;&gt;Node7 -->
<g id="edge10_Node000007_Node000009" class="edge">
<title>Node9&#45;&gt;Node7</title>
<g id="a_edge10_Node000007_Node000009"><a xlink:title=" ">
<path fill="none" stroke="#63b8ff" d="M279.95,-581.82C269.98,-568.96 251.04,-544.52 235.22,-524.11"/>
<polygon fill="none" stroke="#63b8ff" points="235.19,-524.08 228.36,-521.79 227.84,-514.59 234.68,-516.89 235.19,-524.08"/>
</a>
</g>
<text text-anchor="middle" x="271.88" y="-533.75" font-family="Helvetica,sans-Serif" font-size="10.00" fill="grey"> +elements</text>
</g>
<!-- Node10 -->
<g id="Node000010" class="node">
<title>Node10</title>
<g id="a_Node000010"><a xlink:title=" ">
<polygon fill="white" stroke="none" points="360.62,-446.25 285.12,-446.25 285.12,-396.5 360.62,-396.5 360.62,-446.25"/>
<text text-anchor="start" x="289.12" y="-432.75" font-family="Helvetica,sans-Serif" font-size="10.00">std::vector&lt; T &gt;</text>
<text text-anchor="start" x="321.38" y="-417.5" font-family="Helvetica,sans-Serif" font-size="10.00"> </text>
<text text-anchor="start" x="321.38" y="-402.25" font-family="Helvetica,sans-Serif" font-size="10.00"> </text>
<polygon fill="#666666" stroke="#666666" points="285.12,-429 285.12,-429 360.62,-429 360.62,-429 285.12,-429"/>
<polygon fill="#666666" stroke="#666666" points="285.12,-413.75 285.12,-413.75 360.62,-413.75 360.62,-413.75 285.12,-413.75"/>
<polygon fill="none" stroke="#666666" points="285.12,-396.5 285.12,-446.25 360.62,-446.25 360.62,-396.5 285.12,-396.5"/>
</a>
</g>
</g>
<!-- Node9&#45;&gt;Node10 -->
<g id="edge12_Node000010_Node000009" class="edge">
<title>Node9&#45;&gt;Node10</title>
<g id="a_edge12_Node000010_Node000009"><a xlink:title=" ">
<path fill="none" stroke="#63b8ff" d="M293.73,-567.17C295.83,-559.56 298.06,-551.08 299.88,-543.25 306.39,-515.11 312.44,-482.98 316.7,-458.92"/>
<polygon fill="none" stroke="#63b8ff" points="316.71,-458.83 313.8,-452.23 318.77,-447 321.69,-453.6 316.71,-458.83"/>
</a>
</g>
<text text-anchor="middle" x="325.97" y="-533.75" font-family="Helvetica,sans-Serif" font-size="10.00" fill="grey"> +elements</text>
</g>
<!-- Node10&#45;&gt;Node4 -->
<g id="edge11_Node000004_Node000010" class="edge">
<title>Node10&#45;&gt;Node4</title>
<g id="a_edge11_Node000004_Node000010"><a xlink:title=" ">
<path fill="none" stroke="orange" d="M313.88,-385.77C300.54,-338.75 272.33,-253.44 228.88,-191.25 224.39,-184.84 218.9,-178.66 213.19,-173"/>
<polygon fill="orange" stroke="orange" points="310.42,-386.42 316.47,-395.12 317.17,-384.55 310.42,-386.42"/>
</a>
</g>
<text text-anchor="middle" x="329.63" y="-290" font-family="Helvetica,sans-Serif" font-size="10.00" fill="grey"> &lt; utils::OutputField &gt;</text>
</g>
</g>
</svg>

<g id="navigator" transform="translate(0 0)" fill="#404254">
  <rect fill="#f2f5e9" fill-opacity="0.5" stroke="#606060" stroke-width=".5" x="0" y="0" width="60" height="60"/>
  <use id="zoomplus" xlink:href="#zoomPlus" x="17" y="9" onmousedown="handleZoom(evt,'in')"/>
  <use id="zoomminus" xlink:href="#zoomMin" x="42" y="9" onmousedown="handleZoom(evt,'out')"/>
  <use id="reset" xlink:href="#resetDef" x="30" y="36" onmousedown="handleReset()"/>
   <use id="arrowup" xlink:href="#arrowUp" x="0" y="0" onmousedown="handlePan(0,-1)"/>
  <use id="arrowright" xlink:href="#arrowRight" x="0" y="0" onmousedown="handlePan(1,0)"/>
  <use id="arrowdown" xlink:href="#arrowDown" x="0" y="0" onmousedown="handlePan(0,1)"/>
  <use id="arrowleft" xlink:href="#arrowLeft" x="0" y="0" onmousedown="handlePan(-1,0)"/>
</g>
<svg viewBox="0 0 15 15" width="100%" height="30px" preserveAspectRatio="xMaxYMin meet">
 <g id="arrow_out" transform="scale(0.3 0.3)">
  <a xlink:href="structutils_1_1_feature_descriptor__coll__graph_org.svg" target="_base">
   <rect id="button" ry="5" rx="5" y="6" x="6" height="38" width="38"
        fill="#f2f5e9" fill-opacity="0.5" stroke="#606060" stroke-width="1.0"/>
   <path id="arrow"
     d="M 11.500037,31.436501 C 11.940474,20.09759 22.043105,11.32322 32.158766,21.979434 L 37.068811,17.246167 C 37.068811,17.246167 37.088388,32 37.088388,32 L 22.160133,31.978069 C 22.160133,31.978069 26.997745,27.140456 26.997745,27.140456 C 18.528582,18.264221 13.291696,25.230495 11.500037,31.436501 z"
     style="fill:#404040;"/>
  </a>
 </g>
</svg>

<style type='text/css'>
<![CDATA[
[data-mouse-over-selected='false'] { opacity: 0.7; }
[data-mouse-over-selected='true']  { opacity: 1.0; }
]]>
</style>
<script type="application/ecmascript"><![CDATA[
document.addEventListener('DOMContentLoaded', (event) => {
  highlightEdges();
  highlightAdjacentNodes();
});
]]></script>
</svg>
