<?xml version="1.0" encoding="UTF-8" standalone="no"?>
<!DOCTYPE svg PUBLIC "-//W3C//DTD SVG 1.1//EN"
 "http://www.w3.org/Graphics/SVG/1.1/DTD/svg11.dtd">
<!-- Generated by graphviz version 9.0.0 (20230911.1827)
 -->
<!-- Title: SelectorConfig Pages: 1 -->
<svg width="126pt" height="277pt"
 viewBox="0.00 0.00 126.25 276.50" xmlns="http://www.w3.org/2000/svg" xmlns:xlink="http://www.w3.org/1999/xlink">
<g id="graph0" class="graph" transform="scale(1 1) rotate(0) translate(4 272.5)">
<title>SelectorConfig</title>
<!-- Node1 -->
<g id="Node000001" class="node">
<title>Node1</title>
<g id="a_Node000001"><a xlink:title=" ">
<polygon fill="#999999" stroke="none" points="94,-64 0,-64 0,0 94,0 94,-64"/>
<text text-anchor="start" x="15.5" y="-50.5" font-family="Helvetica,sans-Serif" font-size="10.00">SelectorConfig</text>
<text text-anchor="start" x="4" y="-35.5" font-family="Helvetica,sans-Serif" font-size="10.00">+</text>
<text text-anchor="start" x="14" y="-35.5" font-family="Helvetica,sans-Serif" font-size="10.00">init_time</text>
<text text-anchor="start" x="4" y="-20.5" font-family="Helvetica,sans-Serif" font-size="10.00">+</text>
<text text-anchor="start" x="14" y="-20.5" font-family="Helvetica,sans-Serif" font-size="10.00">duration_seconds</text>
<text text-anchor="start" x="45.5" y="-5.5" font-family="Helvetica,sans-Serif" font-size="10.00"> </text>
<polygon fill="#666666" stroke="#666666" points="0,-47 0,-47 94,-47 94,-47 0,-47"/>
<polygon fill="#666666" stroke="#666666" points="0,-17 0,-17 12,-17 12,-17 0,-17"/>
<polygon fill="#666666" stroke="#666666" points="12,-17 12,-17 94,-17 94,-17 12,-17"/>
<polygon fill="none" stroke="#666666" points="0,0 0,-64 94,-64 94,0 0,0"/>
</a>
</g>
</g>
<!-- Node2 -->
<g id="Node000002" class="node">
<title>Node2</title>
<g id="a_Node000002"><a xlink:title=" ">
<polygon fill="white" stroke="none" points="73,-171.5 21,-171.5 21,-122.5 73,-122.5 73,-171.5"/>
<text text-anchor="start" x="26" y="-158" font-family="Helvetica,sans-Serif" font-size="10.00">std::string</text>
<text text-anchor="start" x="45.5" y="-143" font-family="Helvetica,sans-Serif" font-size="10.00"> </text>
<text text-anchor="start" x="45.5" y="-128" font-family="Helvetica,sans-Serif" font-size="10.00"> </text>
<polygon fill="#666666" stroke="#666666" points="21,-154.5 21,-154.5 73,-154.5 73,-154.5 21,-154.5"/>
<polygon fill="#666666" stroke="#666666" points="21,-139.5 21,-139.5 73,-139.5 73,-139.5 21,-139.5"/>
<polygon fill="none" stroke="#666666" points="21,-122.5 21,-171.5 73,-171.5 73,-122.5 21,-122.5"/>
</a>
</g>
</g>
<!-- Node2&#45;&gt;Node1 -->
<g id="edge1_Node000001_Node000002" class="edge">
<title>Node2&#45;&gt;Node1</title>
<g id="a_edge1_Node000001_Node000002"><a xlink:title=" ">
<path fill="none" stroke="#63b8ff" d="M47,-122.59C47,-109.25 47,-92.12 47,-76.42"/>
<polygon fill="none" stroke="#63b8ff" points="47,-76.58 43,-70.58 47,-64.58 51,-70.58 47,-76.58"/>
</a>
</g>
<text text-anchor="middle" x="82.62" y="-95" font-family="Helvetica,sans-Serif" font-size="10.00" fill="grey"> +variable_name</text>
<text text-anchor="middle" x="82.62" y="-83.75" font-family="Helvetica,sans-Serif" font-size="10.00" fill="grey">+variable_units</text>
</g>
<!-- Node3 -->
<g id="Node000003" class="node">
<title>Node3</title>
<g id="a_Node000003"><a xlink:title=" ">
<polygon fill="white" stroke="none" points="90,-268.5 4,-268.5 4,-208.5 90,-208.5 90,-268.5"/>
<text text-anchor="start" x="8.75" y="-255" font-family="Helvetica,sans-Serif" font-size="10.00">std::basic_string&lt;</text>
<text text-anchor="start" x="31.62" y="-243.75" font-family="Helvetica,sans-Serif" font-size="10.00"> Char &gt;</text>
<text text-anchor="start" x="45.5" y="-229" font-family="Helvetica,sans-Serif" font-size="10.00"> </text>
<text text-anchor="start" x="45.5" y="-214" font-family="Helvetica,sans-Serif" font-size="10.00"> </text>
<polygon fill="#666666" stroke="#666666" points="4,-240.5 4,-240.5 90,-240.5 90,-240.5 4,-240.5"/>
<polygon fill="#666666" stroke="#666666" points="4,-225.5 4,-225.5 90,-225.5 90,-225.5 4,-225.5"/>
<polygon fill="none" stroke="#666666" points="4,-208.5 4,-268.5 90,-268.5 90,-208.5 4,-208.5"/>
</a>
</g>
</g>
<!-- Node3&#45;&gt;Node2 -->
<g id="edge2_Node000002_Node000003" class="edge">
<title>Node3&#45;&gt;Node2</title>
<g id="a_edge2_Node000002_Node000003"><a xlink:title=" ">
<path fill="none" stroke="#63b8ff" d="M47,-197.29C47,-188.42 47,-179.32 47,-171.38"/>
<polygon fill="none" stroke="#63b8ff" points="43.5,-197.18 47,-207.18 50.5,-197.18 43.5,-197.18"/>
</a>
</g>
</g>
</g>
</svg>
