<?xml version="1.0" encoding="UTF-8" standalone="no"?>
<!DOCTYPE svg PUBLIC "-//W3C//DTD SVG 1.1//EN"
 "http://www.w3.org/Graphics/SVG/1.1/DTD/svg11.dtd">
<!-- Generated by graphviz version 9.0.0 (20230911.1827)
 -->
<!-- Title: ngen::mdarray&lt; T &gt;::iterator&lt; T &gt; Pages: 1 -->
<svg width="224pt" height="824pt"
 viewBox="0.00 0.00 224.00 824.00" xmlns="http://www.w3.org/2000/svg" xmlns:xlink="http://www.w3.org/1999/xlink">
<g id="graph0" class="graph" transform="scale(1 1) rotate(0) translate(4 820)">
<title>ngen::mdarray&lt; T &gt;::iterator&lt; T &gt;</title>
<!-- Node1 -->
<g id="Node000001" class="node">
<title>Node1</title>
<g id="a_Node000001"><a xlink:title=" ">
<polygon fill="#999999" stroke="none" points="160,-165 68,-165 68,0 160,0 160,-165"/>
<text text-anchor="start" x="72.75" y="-151.5" font-family="Helvetica,sans-Serif" font-size="10.00">ngen::mdarray&lt; T &gt;</text>
<text text-anchor="start" x="85.5" y="-140.25" font-family="Helvetica,sans-Serif" font-size="10.00">::iterator&lt; T &gt;</text>
<text text-anchor="start" x="78.5" y="-125.5" font-family="Helvetica,sans-Serif" font-size="10.00">&#45;</text>
<text text-anchor="start" x="92" y="-125.5" font-family="Helvetica,sans-Serif" font-size="10.00">m_idx</text>
<text text-anchor="start" x="77" y="-110.5" font-family="Helvetica,sans-Serif" font-size="10.00">+</text>
<text text-anchor="start" x="92" y="-110.5" font-family="Helvetica,sans-Serif" font-size="10.00">iterator()</text>
<text text-anchor="start" x="77" y="-95.5" font-family="Helvetica,sans-Serif" font-size="10.00">+</text>
<text text-anchor="start" x="92" y="-95.5" font-family="Helvetica,sans-Serif" font-size="10.00">operator*()</text>
<text text-anchor="start" x="77" y="-80.5" font-family="Helvetica,sans-Serif" font-size="10.00">+</text>
<text text-anchor="start" x="92" y="-80.5" font-family="Helvetica,sans-Serif" font-size="10.00">operator&#45;&gt;()</text>
<text text-anchor="start" x="77" y="-65.5" font-family="Helvetica,sans-Serif" font-size="10.00">+</text>
<text text-anchor="start" x="92" y="-65.5" font-family="Helvetica,sans-Serif" font-size="10.00">operator++()</text>
<text text-anchor="start" x="77" y="-50.5" font-family="Helvetica,sans-Serif" font-size="10.00">+</text>
<text text-anchor="start" x="92" y="-50.5" font-family="Helvetica,sans-Serif" font-size="10.00">operator++()</text>
<text text-anchor="start" x="77" y="-35.5" font-family="Helvetica,sans-Serif" font-size="10.00">+</text>
<text text-anchor="start" x="92" y="-35.5" font-family="Helvetica,sans-Serif" font-size="10.00">operator&#45;&#45;()</text>
<text text-anchor="start" x="77" y="-20.5" font-family="Helvetica,sans-Serif" font-size="10.00">+</text>
<text text-anchor="start" x="92" y="-20.5" font-family="Helvetica,sans-Serif" font-size="10.00">operator&#45;&#45;()</text>
<text text-anchor="start" x="77" y="-5.5" font-family="Helvetica,sans-Serif" font-size="10.00">+</text>
<text text-anchor="start" x="92" y="-5.5" font-family="Helvetica,sans-Serif" font-size="10.00">mdindex()</text>
<polygon fill="#666666" stroke="#666666" points="68,-137 68,-137 160,-137 160,-137 68,-137"/>
<polygon fill="#666666" stroke="#666666" points="68,-122 68,-122 90,-122 90,-122 68,-122"/>
<polygon fill="#666666" stroke="#666666" points="90,-122 90,-122 160,-122 160,-122 90,-122"/>
<polygon fill="none" stroke="#666666" points="68,0 68,-165 160,-165 160,0 68,0"/>
</a>
</g>
</g>
<!-- Node2 -->
<g id="Node000002" class="node">
<title>Node2</title>
<g id="a_Node000002"><a xlink:href="classngen_1_1mdarray.html" target="_top" xlink:title=" ">
<polygon fill="white" stroke="none" points="160,-516.25 68,-516.25 68,-212.25 160,-212.25 160,-516.25"/>
<text text-anchor="start" x="72.75" y="-502.75" font-family="Helvetica,sans-Serif" font-size="10.00">ngen::mdarray&lt; T &gt;</text>
<text text-anchor="start" x="73" y="-487.75" font-family="Helvetica,sans-Serif" font-size="10.00">+</text>
<text text-anchor="start" x="84" y="-487.75" font-family="Helvetica,sans-Serif" font-size="10.00">iterator</text>
<text text-anchor="start" x="73" y="-472.75" font-family="Helvetica,sans-Serif" font-size="10.00">+</text>
<text text-anchor="start" x="84" y="-472.75" font-family="Helvetica,sans-Serif" font-size="10.00">mdarray()</text>
<text text-anchor="start" x="73" y="-457.75" font-family="Helvetica,sans-Serif" font-size="10.00">+</text>
<text text-anchor="start" x="84" y="-457.75" font-family="Helvetica,sans-Serif" font-size="10.00">mdarray()</text>
<text text-anchor="start" x="73" y="-442.75" font-family="Helvetica,sans-Serif" font-size="10.00">+</text>
<text text-anchor="start" x="84" y="-442.75" font-family="Helvetica,sans-Serif" font-size="10.00">mdarray()</text>
<text text-anchor="start" x="73" y="-427.75" font-family="Helvetica,sans-Serif" font-size="10.00">+</text>
<text text-anchor="start" x="84" y="-427.75" font-family="Helvetica,sans-Serif" font-size="10.00">at()</text>
<text text-anchor="start" x="73" y="-412.75" font-family="Helvetica,sans-Serif" font-size="10.00">+</text>
<text text-anchor="start" x="84" y="-412.75" font-family="Helvetica,sans-Serif" font-size="10.00">operator[]()</text>
<text text-anchor="start" x="73" y="-397.75" font-family="Helvetica,sans-Serif" font-size="10.00">+</text>
<text text-anchor="start" x="84" y="-397.75" font-family="Helvetica,sans-Serif" font-size="10.00">at()</text>
<text text-anchor="start" x="73" y="-382.75" font-family="Helvetica,sans-Serif" font-size="10.00">+</text>
<text text-anchor="start" x="84" y="-382.75" font-family="Helvetica,sans-Serif" font-size="10.00">operator[]()</text>
<text text-anchor="start" x="73" y="-367.75" font-family="Helvetica,sans-Serif" font-size="10.00">+</text>
<text text-anchor="start" x="84" y="-367.75" font-family="Helvetica,sans-Serif" font-size="10.00">insert()</text>
<text text-anchor="start" x="73" y="-352.75" font-family="Helvetica,sans-Serif" font-size="10.00">+</text>
<text text-anchor="start" x="84" y="-352.75" font-family="Helvetica,sans-Serif" font-size="10.00">insert()</text>
<text text-anchor="start" x="73" y="-337.75" font-family="Helvetica,sans-Serif" font-size="10.00">+</text>
<text text-anchor="start" x="84" y="-337.75" font-family="Helvetica,sans-Serif" font-size="10.00">size()</text>
<text text-anchor="start" x="73" y="-322.75" font-family="Helvetica,sans-Serif" font-size="10.00">+</text>
<text text-anchor="start" x="84" y="-322.75" font-family="Helvetica,sans-Serif" font-size="10.00">begin()</text>
<text text-anchor="start" x="73" y="-307.75" font-family="Helvetica,sans-Serif" font-size="10.00">+</text>
<text text-anchor="start" x="84" y="-307.75" font-family="Helvetica,sans-Serif" font-size="10.00">end()</text>
<text text-anchor="start" x="73" y="-292.75" font-family="Helvetica,sans-Serif" font-size="10.00">+</text>
<text text-anchor="start" x="84" y="-292.75" font-family="Helvetica,sans-Serif" font-size="10.00">rank()</text>
<text text-anchor="start" x="73" y="-277.75" font-family="Helvetica,sans-Serif" font-size="10.00">+</text>
<text text-anchor="start" x="84" y="-277.75" font-family="Helvetica,sans-Serif" font-size="10.00">shape()</text>
<text text-anchor="start" x="73" y="-262.75" font-family="Helvetica,sans-Serif" font-size="10.00">+</text>
<text text-anchor="start" x="84" y="-262.75" font-family="Helvetica,sans-Serif" font-size="10.00">index()</text>
<text text-anchor="start" x="73" y="-247.75" font-family="Helvetica,sans-Serif" font-size="10.00">+</text>
<text text-anchor="start" x="84" y="-247.75" font-family="Helvetica,sans-Serif" font-size="10.00">deindex()</text>
<text text-anchor="start" x="74.5" y="-232.75" font-family="Helvetica,sans-Serif" font-size="10.00">&#45;</text>
<text text-anchor="start" x="84" y="-232.75" font-family="Helvetica,sans-Serif" font-size="10.00">max_size()</text>
<text text-anchor="start" x="74.5" y="-217.75" font-family="Helvetica,sans-Serif" font-size="10.00">&#45;</text>
<text text-anchor="start" x="84" y="-217.75" font-family="Helvetica,sans-Serif" font-size="10.00">bounds_check()</text>
<polygon fill="#666666" stroke="#666666" points="68,-499.25 68,-499.25 160,-499.25 160,-499.25 68,-499.25"/>
<polygon fill="#666666" stroke="#666666" points="68,-484.25 68,-484.25 82,-484.25 82,-484.25 68,-484.25"/>
<polygon fill="#666666" stroke="#666666" points="82,-484.25 82,-484.25 160,-484.25 160,-484.25 82,-484.25"/>
<polygon fill="none" stroke="#666666" points="68,-212.25 68,-516.25 160,-516.25 160,-212.25 68,-212.25"/>
</a>
</g>
</g>
<!-- Node2&#45;&gt;Node1 -->
<g id="edge1_Node000001_Node000002" class="edge">
<title>Node2&#45;&gt;Node1</title>
<g id="a_edge1_Node000001_Node000002"><a xlink:title=" ">
<path fill="none" stroke="#63b8ff" d="M114,-212.32C114,-200.54 114,-188.87 114,-177.64"/>
<polygon fill="none" stroke="#63b8ff" points="114,-177.58 110,-171.58 114,-165.58 118,-171.58 114,-177.58"/>
</a>
</g>
<text text-anchor="middle" x="129" y="-184.75" font-family="Helvetica,sans-Serif" font-size="10.00" fill="grey"> &#45;m_ref</text>
</g>
<!-- Node3 -->
<g id="Node000003" class="node">
<title>Node3</title>
<g id="a_Node000003"><a xlink:title=" ">
<polygon fill="white" stroke="none" points="112,-618 0,-618 0,-569 112,-569 112,-618"/>
<text text-anchor="start" x="5" y="-604.5" font-family="Helvetica,sans-Serif" font-size="10.00">std::vector&lt; size_type &gt;</text>
<text text-anchor="start" x="17.5" y="-589.5" font-family="Helvetica,sans-Serif" font-size="10.00">+</text>
<text text-anchor="start" x="41" y="-589.5" font-family="Helvetica,sans-Serif" font-size="10.00">elements</text>
<text text-anchor="start" x="54.5" y="-574.5" font-family="Helvetica,sans-Serif" font-size="10.00"> </text>
<polygon fill="#666666" stroke="#666666" points="0,-601 0,-601 112,-601 112,-601 0,-601"/>
<polygon fill="#666666" stroke="#666666" points="0,-586 0,-586 39,-586 39,-586 0,-586"/>
<polygon fill="#666666" stroke="#666666" points="39,-586 39,-586 112,-586 112,-586 39,-586"/>
<polygon fill="none" stroke="#666666" points="0,-569 0,-618 112,-618 112,-569 0,-569"/>
</a>
</g>
</g>
<!-- Node3&#45;&gt;Node2 -->
<g id="edge2_Node000002_Node000003" class="edge">
<title>Node3&#45;&gt;Node2</title>
<g id="a_edge2_Node000002_Node000003"><a xlink:title=" ">
<path fill="none" stroke="#63b8ff" d="M61.99,-569.04C64.79,-558.06 68.39,-543.94 72.39,-528.27"/>
<polygon fill="none" stroke="#63b8ff" points="72.33,-528.51 69.94,-521.71 75.3,-516.88 77.69,-523.69 72.33,-528.51"/>
</a>
</g>
<text text-anchor="middle" x="93.5" y="-536" font-family="Helvetica,sans-Serif" font-size="10.00" fill="grey"> &#45;m_shape</text>
</g>
<!-- Node4 -->
<g id="Node000004" class="node">
<title>Node4</title>
<g id="a_Node000004"><a xlink:title=" ">
<polygon fill="white" stroke="none" points="152.5,-719.75 75.5,-719.75 75.5,-670.75 152.5,-670.75 152.5,-719.75"/>
<text text-anchor="start" x="80.25" y="-706.25" font-family="Helvetica,sans-Serif" font-size="10.00">std::vector&lt; T &gt;</text>
<text text-anchor="start" x="112.5" y="-691.25" font-family="Helvetica,sans-Serif" font-size="10.00"> </text>
<text text-anchor="start" x="112.5" y="-676.25" font-family="Helvetica,sans-Serif" font-size="10.00"> </text>
<polygon fill="#666666" stroke="#666666" points="75.5,-702.75 75.5,-702.75 152.5,-702.75 152.5,-702.75 75.5,-702.75"/>
<polygon fill="#666666" stroke="#666666" points="75.5,-687.75 75.5,-687.75 152.5,-687.75 152.5,-687.75 75.5,-687.75"/>
<polygon fill="none" stroke="#666666" points="75.5,-670.75 75.5,-719.75 152.5,-719.75 152.5,-670.75 75.5,-670.75"/>
</a>
</g>
</g>
<!-- Node4&#45;&gt;Node3 -->
<g id="edge3_Node000003_Node000004" class="edge">
<title>Node4&#45;&gt;Node3</title>
<g id="a_edge3_Node000003_Node000004"><a xlink:title=" ">
<path fill="none" stroke="orange" d="M88.55,-661.8C86.51,-658.79 84.54,-655.75 82.75,-652.75 76.14,-641.66 70.02,-628.67 65.32,-617.76"/>
<polygon fill="orange" stroke="orange" points="85.7,-663.83 94.36,-669.93 91.39,-659.76 85.7,-663.83"/>
</a>
</g>
<text text-anchor="middle" x="112.62" y="-643.25" font-family="Helvetica,sans-Serif" font-size="10.00" fill="grey"> &lt; size_type &gt;</text>
</g>
<!-- Node6 -->
<g id="Node000006" class="node">
<title>Node6</title>
<g id="a_Node000006"><a xlink:title=" ">
<polygon fill="white" stroke="none" points="216,-623.5 130,-623.5 130,-563.5 216,-563.5 216,-623.5"/>
<text text-anchor="start" x="134.75" y="-610" font-family="Helvetica,sans-Serif" font-size="10.00">std::vector&lt; value</text>
<text text-anchor="start" x="157.25" y="-598.75" font-family="Helvetica,sans-Serif" font-size="10.00">_type &gt;</text>
<text text-anchor="start" x="141" y="-584" font-family="Helvetica,sans-Serif" font-size="10.00">+</text>
<text text-anchor="start" x="158" y="-584" font-family="Helvetica,sans-Serif" font-size="10.00">elements</text>
<text text-anchor="start" x="171.5" y="-569" font-family="Helvetica,sans-Serif" font-size="10.00"> </text>
<polygon fill="#666666" stroke="#666666" points="130,-595.5 130,-595.5 216,-595.5 216,-595.5 130,-595.5"/>
<polygon fill="#666666" stroke="#666666" points="130,-580.5 130,-580.5 156,-580.5 156,-580.5 130,-580.5"/>
<polygon fill="#666666" stroke="#666666" points="156,-580.5 156,-580.5 216,-580.5 216,-580.5 156,-580.5"/>
<polygon fill="none" stroke="#666666" points="130,-563.5 130,-623.5 216,-623.5 216,-563.5 130,-563.5"/>
</a>
</g>
</g>
<!-- Node4&#45;&gt;Node6 -->
<g id="edge6_Node000006_Node000004" class="edge">
<title>Node4&#45;&gt;Node6</title>
<g id="a_edge6_Node000006_Node000004"><a xlink:title=" ">
<path fill="none" stroke="orange" d="M136.7,-661.27C138.53,-658.41 140.32,-655.54 142,-652.75 147.67,-643.32 153.44,-632.78 158.45,-623.27"/>
<polygon fill="orange" stroke="orange" points="133.82,-659.28 131.26,-669.56 139.67,-663.12 133.82,-659.28"/>
</a>
</g>
<text text-anchor="middle" x="180.62" y="-643.25" font-family="Helvetica,sans-Serif" font-size="10.00" fill="grey"> &lt; value_type &gt;</text>
</g>
<!-- Node5 -->
<g id="Node000005" class="node">
<title>Node5</title>
<g id="a_Node000005"><a xlink:title=" ">
<polygon fill="white" stroke="none" points="122,-816 106,-816 106,-767 122,-767 122,-816"/>
<text text-anchor="start" x="111" y="-802.5" font-family="Helvetica,sans-Serif" font-size="10.00">T</text>
<text text-anchor="start" x="112.5" y="-787.5" font-family="Helvetica,sans-Serif" font-size="10.00"> </text>
<text text-anchor="start" x="112.5" y="-772.5" font-family="Helvetica,sans-Serif" font-size="10.00"> </text>
<polygon fill="#666666" stroke="#666666" points="106,-799 106,-799 122,-799 122,-799 106,-799"/>
<polygon fill="#666666" stroke="#666666" points="106,-784 106,-784 122,-784 122,-784 106,-784"/>
<polygon fill="none" stroke="#666666" points="106,-767 106,-816 122,-816 122,-767 106,-767"/>
</a>
</g>
</g>
<!-- Node5&#45;&gt;Node4 -->
<g id="edge4_Node000004_Node000005" class="edge">
<title>Node5&#45;&gt;Node4</title>
<g id="a_edge4_Node000004_Node000005"><a xlink:title=" ">
<path fill="none" stroke="#63b8ff" d="M114,-767.2C114,-756.78 114,-744.25 114,-732.64"/>
<polygon fill="none" stroke="#63b8ff" points="114,-732.51 110,-726.51 114,-720.51 118,-726.51 114,-732.51"/>
</a>
</g>
<text text-anchor="middle" x="138" y="-739.5" font-family="Helvetica,sans-Serif" font-size="10.00" fill="grey"> +elements</text>
</g>
<!-- Node6&#45;&gt;Node2 -->
<g id="edge5_Node000002_Node000006" class="edge">
<title>Node6&#45;&gt;Node2</title>
<g id="a_edge5_Node000002_Node000006"><a xlink:title=" ">
<path fill="none" stroke="#63b8ff" d="M165.53,-563.72C162.92,-553.66 159.77,-541.54 156.33,-528.31"/>
<polygon fill="none" stroke="#63b8ff" points="156.35,-528.36 150.97,-523.56 153.33,-516.75 158.71,-521.55 156.35,-528.36"/>
</a>
</g>
<text text-anchor="middle" x="178.75" y="-536" font-family="Helvetica,sans-Serif" font-size="10.00" fill="grey"> &#45;m_data</text>
</g>
</g>
</svg>
