<?xml version="1.0" encoding="UTF-8" standalone="no"?>
<!DOCTYPE svg PUBLIC "-//W3C//DTD SVG 1.1//EN"
 "http://www.w3.org/Graphics/SVG/1.1/DTD/svg11.dtd">
<!-- Generated by graphviz version 7.0.5 (20221223.1930)
 -->
<!-- Title: ngen::detail::variable&lt; SupportedTypes &gt; Pages: 1 -->
<!--zoomable 688 -->
<svg id="main" version="1.1" xmlns="http://www.w3.org/2000/svg" xmlns:xlink="http://www.w3.org/1999/xlink" xml:space="preserve" onload="init(evt)">
<style type="text/css"><![CDATA[
.edge:hover path { stroke: red; }
.edge:hover polygon { stroke: red; fill: red; }
]]></style>
<script type="text/javascript"><![CDATA[
var edges = document.getElementsByTagName('g');
if (edges && edges.length) {
  for (var i=0;i<edges.length;i++) {
    if (edges[i].id.substr(0,4)=='edge') {
      edges[i].setAttribute('class','edge');
    }
  }
}
]]></script>
        <defs>
                <circle id="rim" cx="0" cy="0" r="7"/>
                <circle id="rim2" cx="0" cy="0" r="3.5"/>
                <g id="zoomPlus">
                        <use xlink:href="#rim" fill="#404040">
                                <set attributeName="fill" to="#808080" begin="zoomplus.mouseover" end="zoomplus.mouseout"/>
                        </use>
                        <path d="M-4,0h8M0,-4v8" fill="none" stroke="white" stroke-width="1.5" pointer-events="none"/>
                </g>
                <g id="zoomMin">
                        <use xlink:href="#rim" fill="#404040">
                                <set attributeName="fill" to="#808080" begin="zoomminus.mouseover" end="zoomminus.mouseout"/>
                        </use>
                        <path d="M-4,0h8" fill="none" stroke="white" stroke-width="1.5" pointer-events="none"/>
                </g>
                <g id="dirArrow">
                        <path fill="none" stroke="white" stroke-width="1.5" d="M0,-3.0v7 M-2.5,-0.5L0,-3.0L2.5,-0.5"/>
                </g>
               <g id="resetDef">
                       <use xlink:href="#rim2" fill="#404040">
                               <set attributeName="fill" to="#808080" begin="reset.mouseover" end="reset.mouseout"/>
                       </use>
               </g>
        </defs>

<script type="text/javascript">
var viewWidth = 319;
var viewHeight = 688;
var sectionId = 'dynsection-0';
</script>
<script xlink:href="svgpan.js"/>
<svg id="graph" class="graph">
<g id="viewport">
<title>ngen::detail::variable&lt; SupportedTypes &gt;</title>
<!-- Node1 -->
<g id="node1" class="node">
<title>Node1</title>
<g id="a_node1"><a xlink:title="Variable Key.">
<polygon fill="#999999" stroke="#666666" points="280,-217 173,-217 173,0 280,0 280,-217"/>
<text text-anchor="start" x="181" y="-205" font-family="Helvetica,sans-Serif" font-size="10.00">{ngen::detail::variable</text>
<text text-anchor="middle" x="226.5" y="-194" font-family="Helvetica,sans-Serif" font-size="10.00">&lt; SupportedTypes &gt;</text>
<text text-anchor="start" x="181" y="-183" font-family="Helvetica,sans-Serif" font-size="10.00">|&#45; m_data</text>
<text text-anchor="start" x="181" y="-172" font-family="Helvetica,sans-Serif" font-size="10.00">|+ variable()</text>
<text text-anchor="start" x="181" y="-161" font-family="Helvetica,sans-Serif" font-size="10.00">+ set_data()</text>
<text text-anchor="start" x="181" y="-150" font-family="Helvetica,sans-Serif" font-size="10.00">+ set_data()</text>
<text text-anchor="start" x="181" y="-139" font-family="Helvetica,sans-Serif" font-size="10.00">+ values()</text>
<text text-anchor="start" x="181" y="-128" font-family="Helvetica,sans-Serif" font-size="10.00">+ values()</text>
<text text-anchor="start" x="181" y="-117" font-family="Helvetica,sans-Serif" font-size="10.00">+ operator==()</text>
<text text-anchor="start" x="181" y="-106" font-family="Helvetica,sans-Serif" font-size="10.00">+ name()</text>
<text text-anchor="start" x="181" y="-95" font-family="Helvetica,sans-Serif" font-size="10.00">+ dimensions()</text>
<text text-anchor="start" x="181" y="-84" font-family="Helvetica,sans-Serif" font-size="10.00">+ size()</text>
<text text-anchor="start" x="181" y="-73" font-family="Helvetica,sans-Serif" font-size="10.00">+ rank()</text>
<text text-anchor="start" x="181" y="-62" font-family="Helvetica,sans-Serif" font-size="10.00">+ insert()</text>
<text text-anchor="start" x="181" y="-51" font-family="Helvetica,sans-Serif" font-size="10.00">+ at()</text>
<text text-anchor="start" x="181" y="-40" font-family="Helvetica,sans-Serif" font-size="10.00">+ at()</text>
<text text-anchor="start" x="181" y="-29" font-family="Helvetica,sans-Serif" font-size="10.00">+ shape()</text>
<text text-anchor="start" x="181" y="-18" font-family="Helvetica,sans-Serif" font-size="10.00">+ make()</text>
<text text-anchor="middle" x="226.5" y="-7" font-family="Helvetica,sans-Serif" font-size="10.00">}</text>
</a>
</g>
</g>
<!-- Node2 -->
<g id="node2" class="node">
<title>Node2</title>
<g id="a_node2"><a xlink:title=" ">
<polygon fill="white" stroke="#666666" points="270.5,-602 208.5,-602 208.5,-572 270.5,-572 270.5,-602"/>
<text text-anchor="middle" x="239.5" y="-590" font-family="Helvetica,sans-Serif" font-size="10.00">{std::string</text>
<text text-anchor="middle" x="239.5" y="-579" font-family="Helvetica,sans-Serif" font-size="10.00">||}</text>
</a>
</g>
</g>
<!-- Node2&#45;&gt;Node1 -->
<g id="edge1" class="edge">
<title>Node2&#45;&gt;Node1</title>
<path fill="none" stroke="#404040" d="M248.49,-571.57C251.32,-566.25 254.07,-560.05 255.5,-554 288.07,-416.01 271.56,-375.86 255.5,-235 255.31,-233.38 255.12,-231.74 254.91,-230.1"/>
<polygon fill="none" stroke="#404040" points="254.91,-230.16 250.1,-224.79 253.2,-218.28 258.01,-223.65 254.91,-230.16"/>
<text text-anchor="middle" x="289" y="-326" font-family="Helvetica,sans-Serif" font-size="10.00"> &#45;m_name</text>
</g>
<!-- Node5 -->
<g id="node5" class="node">
<title>Node5</title>
<g id="a_node5"><a xlink:href="structngen_1_1detail_1_1dimension.html" target="_top" xlink:title="Dimension Key.">
<polygon fill="white" stroke="#666666" points="241,-525 124,-525 124,-352 241,-352 241,-525"/>
<text text-anchor="middle" x="182.5" y="-513" font-family="Helvetica,sans-Serif" font-size="10.00">{ngen::detail::dimension</text>
<text text-anchor="start" x="132" y="-502" font-family="Helvetica,sans-Serif" font-size="10.00">|&#45; mdframe</text>
<text text-anchor="start" x="132" y="-491" font-family="Helvetica,sans-Serif" font-size="10.00">&#45; m_size</text>
<text text-anchor="start" x="132" y="-480" font-family="Helvetica,sans-Serif" font-size="10.00">|+ dimension()</text>
<text text-anchor="start" x="132" y="-469" font-family="Helvetica,sans-Serif" font-size="10.00">+ dimension()</text>
<text text-anchor="start" x="132" y="-458" font-family="Helvetica,sans-Serif" font-size="10.00">+ operator=()</text>
<text text-anchor="start" x="132" y="-447" font-family="Helvetica,sans-Serif" font-size="10.00">+ dimension()</text>
<text text-anchor="start" x="132" y="-436" font-family="Helvetica,sans-Serif" font-size="10.00">+ operator=()</text>
<text text-anchor="start" x="132" y="-425" font-family="Helvetica,sans-Serif" font-size="10.00">+ ~dimension()</text>
<text text-anchor="start" x="132" y="-414" font-family="Helvetica,sans-Serif" font-size="10.00">+ dimension()</text>
<text text-anchor="start" x="132" y="-403" font-family="Helvetica,sans-Serif" font-size="10.00">+ dimension()</text>
<text text-anchor="start" x="132" y="-392" font-family="Helvetica,sans-Serif" font-size="10.00">+ operator==()</text>
<text text-anchor="start" x="132" y="-381" font-family="Helvetica,sans-Serif" font-size="10.00">+ size()</text>
<text text-anchor="start" x="132" y="-370" font-family="Helvetica,sans-Serif" font-size="10.00">+ name()</text>
<text text-anchor="middle" x="182.5" y="-359" font-family="Helvetica,sans-Serif" font-size="10.00">}</text>
</a>
</g>
</g>
<!-- Node2&#45;&gt;Node5 -->
<g id="edge5" class="edge">
<title>Node2&#45;&gt;Node5</title>
<path fill="none" stroke="#404040" d="M225.09,-571.7C220.51,-566.49 215.78,-560.32 212.5,-554 209.75,-548.69 207.23,-543.11 204.94,-537.39"/>
<polygon fill="none" stroke="#404040" points="205.01,-537.59 199.17,-533.35 200.84,-526.33 206.68,-530.57 205.01,-537.59"/>
<text text-anchor="middle" x="234" y="-546" font-family="Helvetica,sans-Serif" font-size="10.00"> &#45;m_name</text>
</g>
<!-- Node3 -->
<g id="node3" class="node">
<title>Node3</title>
<g id="a_node3"><a xlink:title=" ">
<polygon fill="white" stroke="#666666" points="287.5,-680 191.5,-680 191.5,-639 287.5,-639 287.5,-680"/>
<text text-anchor="start" x="199.5" y="-668" font-family="Helvetica,sans-Serif" font-size="10.00">{std::basic_string&lt;</text>
<text text-anchor="middle" x="239.5" y="-657" font-family="Helvetica,sans-Serif" font-size="10.00"> Char &gt;</text>
<text text-anchor="middle" x="239.5" y="-646" font-family="Helvetica,sans-Serif" font-size="10.00">||}</text>
</a>
</g>
</g>
<!-- Node3&#45;&gt;Node2 -->
<g id="edge2" class="edge">
<title>Node3&#45;&gt;Node2</title>
<path fill="none" stroke="#63b8ff" d="M239.5,-627.39C239.5,-618.68 239.5,-609.62 239.5,-602.39"/>
<polygon fill="none" stroke="#63b8ff" points="236,-627.35 239.5,-637.35 243,-627.35 236,-627.35"/>
</g>
<!-- Node4 -->
<g id="node4" class="node">
<title>Node4</title>
<g id="a_node4"><a xlink:title=" ">
<polygon fill="white" stroke="#666666" points="232.5,-305 134.5,-305 134.5,-264 232.5,-264 232.5,-305"/>
<text text-anchor="start" x="142.5" y="-293" font-family="Helvetica,sans-Serif" font-size="10.00">{std::vector&lt; ngen::</text>
<text text-anchor="middle" x="183.5" y="-282" font-family="Helvetica,sans-Serif" font-size="10.00">detail::dimension &gt;</text>
<text text-anchor="middle" x="183.5" y="-271" font-family="Helvetica,sans-Serif" font-size="10.00">||}</text>
</a>
</g>
</g>
<!-- Node4&#45;&gt;Node1 -->
<g id="edge3" class="edge">
<title>Node4&#45;&gt;Node1</title>
<path fill="none" stroke="#404040" d="M183.63,-263.54C183.97,-254.73 184.76,-244.29 186.5,-235 186.82,-233.27 187.17,-231.52 187.52,-229.77"/>
<polygon fill="none" stroke="#404040" points="187.51,-229.82 184.91,-223.1 190.11,-218.11 192.72,-224.83 187.51,-229.82"/>
<text text-anchor="middle" x="221" y="-238" font-family="Helvetica,sans-Serif" font-size="10.00"> &#45;m_dimensions</text>
</g>
<!-- Node5&#45;&gt;Node4 -->
<g id="edge4" class="edge">
<title>Node5&#45;&gt;Node4</title>
<path fill="none" stroke="#404040" d="M183.06,-351.73C183.14,-339.92 183.22,-328.43 183.28,-318.43"/>
<polygon fill="none" stroke="#404040" points="183.28,-318.3 179.32,-312.27 183.36,-306.3 187.32,-312.33 183.28,-318.3"/>
<text text-anchor="middle" x="207" y="-326" font-family="Helvetica,sans-Serif" font-size="10.00"> +elements</text>
</g>
<!-- Node6 -->
<g id="node6" class="node">
<title>Node6</title>
<g id="a_node6"><a xlink:title=" ">
<polygon fill="white" stroke="#666666" points="87,-453.5 0,-453.5 0,-423.5 87,-423.5 87,-453.5"/>
<text text-anchor="middle" x="43.5" y="-441.5" font-family="Helvetica,sans-Serif" font-size="10.00">{std::vector&lt; T &gt;</text>
<text text-anchor="middle" x="43.5" y="-430.5" font-family="Helvetica,sans-Serif" font-size="10.00">||}</text>
</a>
</g>
</g>
<!-- Node6&#45;&gt;Node4 -->
<g id="edge6" class="edge">
<title>Node6&#45;&gt;Node4</title>
<path fill="none" stroke="orange" d="M40.32,-411.87C38.64,-386.31 40.32,-347.43 61.5,-323 79.57,-302.16 108.92,-292.72 134.3,-288.52"/>
<polygon fill="orange" stroke="orange" points="36.82,-412.07 41.21,-421.72 43.8,-411.44 36.82,-412.07"/>
<text text-anchor="middle" x="120" y="-326" font-family="Helvetica,sans-Serif" font-size="10.00"> &lt; ngen::detail::dimension &gt;</text>
</g>
<!-- Node7 -->
<g id="node7" class="node">
<title>Node7</title>
<g id="a_node7"><a xlink:title=" ">
<polygon fill="white" stroke="#666666" points="58,-602 29,-602 29,-572 58,-572 58,-602"/>
<text text-anchor="middle" x="43.5" y="-590" font-family="Helvetica,sans-Serif" font-size="10.00">{T</text>
<text text-anchor="middle" x="43.5" y="-579" font-family="Helvetica,sans-Serif" font-size="10.00">||}</text>
</a>
</g>
</g>
<!-- Node7&#45;&gt;Node6 -->
<g id="edge7" class="edge">
<title>Node7&#45;&gt;Node6</title>
<path fill="none" stroke="#404040" d="M43.5,-571.69C43.5,-547.34 43.5,-497.48 43.5,-466.44"/>
<polygon fill="none" stroke="#404040" points="43.5,-466.56 39.5,-460.56 43.5,-454.56 47.5,-460.56 43.5,-466.56"/>
<text text-anchor="middle" x="68" y="-546" font-family="Helvetica,sans-Serif" font-size="10.00"> +elements</text>
</g>
</g>
</svg>
        <g id="navigator" transform="translate(0 0)" fill="#404254">
                <rect fill="#f2f5e9" fill-opacity="0.5" stroke="#606060" stroke-width=".5" x="0" y="0" width="60" height="60"/>
                <use id="zoomplus" xlink:href="#zoomPlus" x="17" y="9" onmousedown="handleZoom(evt,'in')"/>
                <use id="zoomminus" xlink:href="#zoomMin" x="42" y="9" onmousedown="handleZoom(evt,'out')"/>
                <use id="reset" xlink:href="#resetDef" x="30" y="36" onmousedown="handleReset()"/>
                <g id="arrowUp" xlink:href="#dirArrow" transform="translate(30 24)" onmousedown="handlePan(0,-1)">
                  <use xlink:href="#rim" fill="#404040">
                        <set attributeName="fill" to="#808080" begin="arrowUp.mouseover" end="arrowUp.mouseout"/>
                  </use>
                  <path fill="none" stroke="white" stroke-width="1.5" d="M0,-3.0v7 M-2.5,-0.5L0,-3.0L2.5,-0.5"/>
                </g>
                <g id="arrowRight" xlink:href="#dirArrow" transform="rotate(90) translate(36 -43)" onmousedown="handlePan(1,0)">
                  <use xlink:href="#rim" fill="#404040">
                        <set attributeName="fill" to="#808080" begin="arrowRight.mouseover" end="arrowRight.mouseout"/>
                  </use>
                  <path fill="none" stroke="white" stroke-width="1.5" d="M0,-3.0v7 M-2.5,-0.5L0,-3.0L2.5,-0.5"/>
                </g>
                <g id="arrowDown" xlink:href="#dirArrow" transform="rotate(180) translate(-30 -48)" onmousedown="handlePan(0,1)">
                  <use xlink:href="#rim" fill="#404040">
                        <set attributeName="fill" to="#808080" begin="arrowDown.mouseover" end="arrowDown.mouseout"/>
                  </use>
                  <path fill="none" stroke="white" stroke-width="1.5" d="M0,-3.0v7 M-2.5,-0.5L0,-3.0L2.5,-0.5"/>
                </g>
                <g id="arrowLeft" xlink:href="#dirArrow" transform="rotate(270) translate(-36 17)" onmousedown="handlePan(-1,0)">
                  <use xlink:href="#rim" fill="#404040">
                        <set attributeName="fill" to="#808080" begin="arrowLeft.mouseover" end="arrowLeft.mouseout"/>
                  </use>
                  <path fill="none" stroke="white" stroke-width="1.5" d="M0,-3.0v7 M-2.5,-0.5L0,-3.0L2.5,-0.5"/>
                </g>
        </g>
        <svg viewBox="0 0 15 15" width="100%" height="30px" preserveAspectRatio="xMaxYMin meet">
         <g id="arrow_out" transform="scale(0.3 0.3)">
          <a xlink:href="structngen_1_1detail_1_1variable__coll__graph_org.svg" target="_base">
           <rect id="button" ry="5" rx="5" y="6" x="6" height="38" width="38"
                fill="#f2f5e9" fill-opacity="0.5" stroke="#606060" stroke-width="1.0"/>
           <path id="arrow"
             d="M 11.500037,31.436501 C 11.940474,20.09759 22.043105,11.32322 32.158766,21.979434 L 37.068811,17.246167 C 37.068811,17.246167 37.088388,32 37.088388,32 L 22.160133,31.978069 C 22.160133,31.978069 26.997745,27.140456 26.997745,27.140456 C 18.528582,18.264221 13.291696,25.230495 11.500037,31.436501 z"
             style="fill:#404040;"/>
          </a>
         </g>
        </svg>
</svg>
