<?xml version="1.0" encoding="UTF-8" standalone="no"?>
<!DOCTYPE svg PUBLIC "-//W3C//DTD SVG 1.1//EN"
 "http://www.w3.org/Graphics/SVG/1.1/DTD/svg11.dtd">
<!-- Generated by graphviz version 9.0.0 (20230911.1827)
 -->
<!-- Title: AORC_data Pages: 1 -->
<svg width="134pt" height="228pt"
 viewBox="0.00 0.00 134.00 228.00" xmlns="http://www.w3.org/2000/svg" xmlns:xlink="http://www.w3.org/1999/xlink">
<g id="graph0" class="graph" transform="scale(1 1) rotate(0) translate(4 224)">
<title>AORC_data</title>
<!-- Node1 -->
<g id="Node000001" class="node">
<title>Node1</title>
<g id="a_Node000001"><a xlink:title=" ">
<polygon fill="#999999" stroke="none" points="126,-220 0,-220 0,0 126,0 126,-220"/>
<text text-anchor="start" x="37.12" y="-206.5" font-family="Helvetica,sans-Serif" font-size="10.00">AORC_data</text>
<text text-anchor="start" x="4" y="-191.5" font-family="Helvetica,sans-Serif" font-size="10.00">+</text>
<text text-anchor="start" x="14" y="-191.5" font-family="Helvetica,sans-Serif" font-size="10.00">APCP_surface_kg_per</text>
<text text-anchor="start" x="14" y="-180.25" font-family="Helvetica,sans-Serif" font-size="10.00">_meters_squared</text>
<text text-anchor="start" x="4" y="-165.5" font-family="Helvetica,sans-Serif" font-size="10.00">+</text>
<text text-anchor="start" x="14" y="-165.5" font-family="Helvetica,sans-Serif" font-size="10.00">DLWRF_surface_W_per</text>
<text text-anchor="start" x="14" y="-154.25" font-family="Helvetica,sans-Serif" font-size="10.00">_meters_squared</text>
<text text-anchor="start" x="4" y="-139.5" font-family="Helvetica,sans-Serif" font-size="10.00">+</text>
<text text-anchor="start" x="14" y="-139.5" font-family="Helvetica,sans-Serif" font-size="10.00">DSWRF_surface_W_per</text>
<text text-anchor="start" x="14" y="-128.25" font-family="Helvetica,sans-Serif" font-size="10.00">_meters_squared</text>
<text text-anchor="start" x="4" y="-113.5" font-family="Helvetica,sans-Serif" font-size="10.00">+</text>
<text text-anchor="start" x="14" y="-113.5" font-family="Helvetica,sans-Serif" font-size="10.00">PRES_surface_Pa</text>
<text text-anchor="start" x="4" y="-98.5" font-family="Helvetica,sans-Serif" font-size="10.00">+</text>
<text text-anchor="start" x="14" y="-98.5" font-family="Helvetica,sans-Serif" font-size="10.00">SPFH_2maboveground</text>
<text text-anchor="start" x="14" y="-87.25" font-family="Helvetica,sans-Serif" font-size="10.00">_kg_per_kg</text>
<text text-anchor="start" x="4" y="-72.5" font-family="Helvetica,sans-Serif" font-size="10.00">+</text>
<text text-anchor="start" x="14" y="-72.5" font-family="Helvetica,sans-Serif" font-size="10.00">TMP_2maboveground_K</text>
<text text-anchor="start" x="4" y="-57.5" font-family="Helvetica,sans-Serif" font-size="10.00">+</text>
<text text-anchor="start" x="14" y="-57.5" font-family="Helvetica,sans-Serif" font-size="10.00">UGRD_10maboveground</text>
<text text-anchor="start" x="14" y="-46.25" font-family="Helvetica,sans-Serif" font-size="10.00">_meters_per_second</text>
<text text-anchor="start" x="4" y="-31.5" font-family="Helvetica,sans-Serif" font-size="10.00">+</text>
<text text-anchor="start" x="14" y="-31.5" font-family="Helvetica,sans-Serif" font-size="10.00">VGRD_10maboveground</text>
<text text-anchor="start" x="14" y="-20.25" font-family="Helvetica,sans-Serif" font-size="10.00">_meters_per_second</text>
<text text-anchor="start" x="61.5" y="-5.5" font-family="Helvetica,sans-Serif" font-size="10.00"> </text>
<polygon fill="#666666" stroke="#666666" points="0,-203 0,-203 126,-203 126,-203 0,-203"/>
<polygon fill="#666666" stroke="#666666" points="0,-17 0,-17 12,-17 12,-17 0,-17"/>
<polygon fill="#666666" stroke="#666666" points="12,-17 12,-17 126,-17 126,-17 12,-17"/>
<polygon fill="none" stroke="#666666" points="0,0 0,-220 126,-220 126,0 0,0"/>
</a>
</g>
</g>
</g>
</svg>
