<?xml version="1.0" encoding="UTF-8" standalone="no"?>
<!DOCTYPE svg PUBLIC "-//W3C//DTD SVG 1.1//EN"
 "http://www.w3.org/Graphics/SVG/1.1/DTD/svg11.dtd">
<!-- Generated by graphviz version 3.0.0 (20221109.1736)
 -->
<!-- Title: giuh::giuh_carry_over Pages: 1 -->
<svg width="248pt" height="320pt"
 viewBox="0.00 0.00 248.00 320.00" xmlns="http://www.w3.org/2000/svg" xmlns:xlink="http://www.w3.org/1999/xlink">
<g id="graph0" class="graph" transform="scale(1 1) rotate(0) translate(4 316)">
<title>giuh::giuh_carry_over</title>
<polygon fill="white" stroke="transparent" points="-4,4 -4,-316 244,-316 244,4 -4,4"/>
<!-- Node1 -->
<g id="node1" class="node">
<title>Node1</title>
<g id="a_node1"><a xlink:title=" ">
<polygon fill="#bfbfbf" stroke="black" points="0,-127.5 0,-206.5 119,-206.5 119,-127.5 0,-127.5"/>
<text text-anchor="middle" x="59.5" y="-194.5" font-family="Helvetica,sans-Serif" font-size="10.00">giuh::giuh_carry_over</text>
<polyline fill="none" stroke="black" points="0,-187.5 119,-187.5 "/>
<text text-anchor="start" x="8" y="-175.5" font-family="Helvetica,sans-Serif" font-size="10.00">+ original_input_amount</text>
<text text-anchor="start" x="8" y="-164.5" font-family="Helvetica,sans-Serif" font-size="10.00">+ last_outputted_cdf</text>
<text text-anchor="start" x="8" y="-153.5" font-family="Helvetica,sans-Serif" font-size="10.00">_index</text>
<polyline fill="none" stroke="black" points="0,-146.5 119,-146.5 "/>
<text text-anchor="start" x="8" y="-134.5" font-family="Helvetica,sans-Serif" font-size="10.00">+ giuh_carry_over()</text>
</a>
</g>
</g>
<!-- Node2 -->
<g id="node2" class="node">
<title>Node2</title>
<g id="a_node2"><a xlink:title=" ">
<polygon fill="white" stroke="black" points="49,-0.5 49,-68.5 156,-68.5 156,-0.5 49,-0.5"/>
<text text-anchor="start" x="57" y="-56.5" font-family="Helvetica,sans-Serif" font-size="10.00">std::shared_ptr&lt; giuh</text>
<text text-anchor="middle" x="102.5" y="-45.5" font-family="Helvetica,sans-Serif" font-size="10.00">::giuh_carry_over &gt;</text>
<polyline fill="none" stroke="black" points="49,-38.5 156,-38.5 "/>
<text text-anchor="middle" x="102.5" y="-26.5" font-family="Helvetica,sans-Serif" font-size="10.00"> </text>
<polyline fill="none" stroke="black" points="49,-19.5 156,-19.5 "/>
<text text-anchor="start" x="57" y="-7.5" font-family="Helvetica,sans-Serif" font-size="10.00">+ operator&#45;&gt;()</text>
</a>
</g>
</g>
<!-- Node1&#45;&gt;Node2 -->
<g id="edge2" class="edge">
<title>Node1&#45;&gt;Node2</title>
<path fill="none" stroke="#404040" d="M52,-127.23C51.02,-114.09 51.7,-99.57 56.5,-87 57.58,-84.16 58.91,-81.37 60.41,-78.66"/>
<polygon fill="none" stroke="#404040" points="60.41,-78.66 60.33,-71.45 66.96,-68.61 67.04,-75.82 60.41,-78.66"/>
<text text-anchor="middle" x="66.5" y="-95.5" font-family="Helvetica,sans-Serif" font-size="10.00"> +ptr</text>
</g>
<!-- Node2&#45;&gt;Node1 -->
<g id="edge1" class="edge">
<title>Node2&#45;&gt;Node1</title>
<path fill="none" stroke="#404040" d="M93.08,-68.57C89.34,-81.26 84.88,-95.86 80.5,-109 79.72,-111.34 78.9,-113.74 78.07,-116.15"/>
<polygon fill="none" stroke="#404040" points="78.06,-116.17 79.83,-123.16 74.06,-127.48 72.29,-120.49 78.06,-116.17"/>
<text text-anchor="middle" x="100" y="-95.5" font-family="Helvetica,sans-Serif" font-size="10.00"> +next</text>
</g>
<!-- Node3 -->
<g id="node3" class="node">
<title>Node3</title>
<g id="a_node3"><a xlink:title=" ">
<polygon fill="white" stroke="black" points="137,-138.5 137,-195.5 240,-195.5 240,-138.5 137,-138.5"/>
<text text-anchor="middle" x="188.5" y="-183.5" font-family="Helvetica,sans-Serif" font-size="10.00">std::shared_ptr&lt; T &gt;</text>
<polyline fill="none" stroke="black" points="137,-176.5 240,-176.5 "/>
<text text-anchor="middle" x="188.5" y="-164.5" font-family="Helvetica,sans-Serif" font-size="10.00"> </text>
<polyline fill="none" stroke="black" points="137,-157.5 240,-157.5 "/>
<text text-anchor="start" x="145" y="-145.5" font-family="Helvetica,sans-Serif" font-size="10.00">+ operator&#45;&gt;()</text>
</a>
</g>
</g>
<!-- Node3&#45;&gt;Node2 -->
<g id="edge3" class="edge">
<title>Node3&#45;&gt;Node2</title>
<path fill="none" stroke="orange" d="M164.68,-129.86C152.07,-110.71 136.68,-87.36 124.37,-68.68"/>
<polygon fill="orange" stroke="orange" points="161.84,-131.9 170.26,-138.32 167.68,-128.05 161.84,-131.9"/>
<text text-anchor="start" x="150.5" y="-101" font-family="Helvetica,sans-Serif" font-size="10.00"> &lt; giuh::giuh_carry</text>
<text text-anchor="middle" x="189.5" y="-90" font-family="Helvetica,sans-Serif" font-size="10.00">_over &gt;</text>
</g>
<!-- Node4 -->
<g id="node4" class="node">
<title>Node4</title>
<g id="a_node4"><a xlink:title=" ">
<polygon fill="white" stroke="black" points="174,-254.5 174,-311.5 203,-311.5 203,-254.5 174,-254.5"/>
<text text-anchor="middle" x="188.5" y="-299.5" font-family="Helvetica,sans-Serif" font-size="10.00">T</text>
<polyline fill="none" stroke="black" points="174,-292.5 203,-292.5 "/>
<text text-anchor="middle" x="188.5" y="-280.5" font-family="Helvetica,sans-Serif" font-size="10.00"> </text>
<polyline fill="none" stroke="black" points="174,-273.5 203,-273.5 "/>
<text text-anchor="middle" x="188.5" y="-261.5" font-family="Helvetica,sans-Serif" font-size="10.00"> </text>
</a>
</g>
</g>
<!-- Node4&#45;&gt;Node3 -->
<g id="edge4" class="edge">
<title>Node4&#45;&gt;Node3</title>
<path fill="none" stroke="#404040" d="M188.5,-254.4C188.5,-240.5 188.5,-223.39 188.5,-208.07"/>
<polygon fill="none" stroke="#404040" points="188.5,-207.74 184.5,-201.74 188.5,-195.74 192.5,-201.74 188.5,-207.74"/>
<text text-anchor="middle" x="198.5" y="-228" font-family="Helvetica,sans-Serif" font-size="10.00"> +ptr</text>
</g>
</g>
</svg>
