<?xml version="1.0" encoding="UTF-8" standalone="no"?>
<!DOCTYPE svg PUBLIC "-//W3C//DTD SVG 1.1//EN"
 "http://www.w3.org/Graphics/SVG/1.1/DTD/svg11.dtd">
<!-- Generated by graphviz version 3.0.0 (20221109.1736)
 -->
<!-- Title: tshirt::tshirt_state Pages: 1 -->
<svg width="181pt" height="414pt"
 viewBox="0.00 0.00 181.00 414.00" xmlns="http://www.w3.org/2000/svg" xmlns:xlink="http://www.w3.org/1999/xlink">
<g id="graph0" class="graph" transform="scale(1 1) rotate(0) translate(4 410)">
<title>tshirt::tshirt_state</title>
<polygon fill="white" stroke="transparent" points="-4,4 -4,-410 177,-410 177,4 -4,4"/>
<!-- Node1 -->
<g id="node1" class="node">
<title>Node1</title>
<g id="a_node1"><a xlink:title="Structure for containing and organizing the state values of the Tshirt hydrological model.">
<polygon fill="#bfbfbf" stroke="black" points="0,-0.5 0,-79.5 116,-79.5 116,-0.5 0,-0.5"/>
<text text-anchor="middle" x="58" y="-67.5" font-family="Helvetica,sans-Serif" font-size="10.00">tshirt::tshirt_state</text>
<polyline fill="none" stroke="black" points="0,-60.5 116,-60.5 "/>
<text text-anchor="start" x="8" y="-48.5" font-family="Helvetica,sans-Serif" font-size="10.00">+ soil_storage_meters</text>
<text text-anchor="start" x="8" y="-37.5" font-family="Helvetica,sans-Serif" font-size="10.00">+ groundwater_storage</text>
<text text-anchor="start" x="8" y="-26.5" font-family="Helvetica,sans-Serif" font-size="10.00">_meters</text>
<polyline fill="none" stroke="black" points="0,-19.5 116,-19.5 "/>
<text text-anchor="start" x="8" y="-7.5" font-family="Helvetica,sans-Serif" font-size="10.00">+ tshirt_state()</text>
</a>
</g>
</g>
<!-- Node2 -->
<g id="node2" class="node">
<title>Node2</title>
<g id="a_node2"><a xlink:title=" ">
<polygon fill="white" stroke="black" points="4.5,-138.5 4.5,-195.5 111.5,-195.5 111.5,-138.5 4.5,-138.5"/>
<text text-anchor="middle" x="58" y="-183.5" font-family="Helvetica,sans-Serif" font-size="10.00">std::vector&lt; double &gt;</text>
<polyline fill="none" stroke="black" points="4.5,-176.5 111.5,-176.5 "/>
<text text-anchor="start" x="12.5" y="-164.5" font-family="Helvetica,sans-Serif" font-size="10.00">+ elements</text>
<polyline fill="none" stroke="black" points="4.5,-157.5 111.5,-157.5 "/>
<text text-anchor="middle" x="58" y="-145.5" font-family="Helvetica,sans-Serif" font-size="10.00"> </text>
</a>
</g>
</g>
<!-- Node2&#45;&gt;Node1 -->
<g id="edge1" class="edge">
<title>Node2&#45;&gt;Node1</title>
<path fill="none" stroke="#404040" d="M58,-138.26C58,-124.64 58,-107.79 58,-91.96"/>
<polygon fill="none" stroke="#404040" points="58,-91.57 54,-85.57 58,-79.57 62,-85.57 58,-91.57"/>
<text text-anchor="start" x="58" y="-112" font-family="Helvetica,sans-Serif" font-size="10.00"> +nash_cascade_storeage</text>
<text text-anchor="middle" x="115.5" y="-101" font-family="Helvetica,sans-Serif" font-size="10.00">_meters</text>
</g>
<!-- Node3 -->
<g id="node3" class="node">
<title>Node3</title>
<g id="a_node3"><a xlink:title=" ">
<polygon fill="white" stroke="black" points="16,-243.5 16,-300.5 100,-300.5 100,-243.5 16,-243.5"/>
<text text-anchor="middle" x="58" y="-288.5" font-family="Helvetica,sans-Serif" font-size="10.00">std::vector&lt; T &gt;</text>
<polyline fill="none" stroke="black" points="16,-281.5 100,-281.5 "/>
<text text-anchor="middle" x="58" y="-269.5" font-family="Helvetica,sans-Serif" font-size="10.00"> </text>
<polyline fill="none" stroke="black" points="16,-262.5 100,-262.5 "/>
<text text-anchor="middle" x="58" y="-250.5" font-family="Helvetica,sans-Serif" font-size="10.00"> </text>
</a>
</g>
</g>
<!-- Node3&#45;&gt;Node2 -->
<g id="edge2" class="edge">
<title>Node3&#45;&gt;Node2</title>
<path fill="none" stroke="orange" d="M58,-233.29C58,-220.84 58,-207.23 58,-195.68"/>
<polygon fill="orange" stroke="orange" points="54.5,-233.4 58,-243.4 61.5,-233.4 54.5,-233.4"/>
<text text-anchor="middle" x="82" y="-217" font-family="Helvetica,sans-Serif" font-size="10.00"> &lt; double &gt;</text>
</g>
<!-- Node4 -->
<g id="node4" class="node">
<title>Node4</title>
<g id="a_node4"><a xlink:title=" ">
<polygon fill="white" stroke="black" points="43.5,-348.5 43.5,-405.5 72.5,-405.5 72.5,-348.5 43.5,-348.5"/>
<text text-anchor="middle" x="58" y="-393.5" font-family="Helvetica,sans-Serif" font-size="10.00">T</text>
<polyline fill="none" stroke="black" points="43.5,-386.5 72.5,-386.5 "/>
<text text-anchor="middle" x="58" y="-374.5" font-family="Helvetica,sans-Serif" font-size="10.00"> </text>
<polyline fill="none" stroke="black" points="43.5,-367.5 72.5,-367.5 "/>
<text text-anchor="middle" x="58" y="-355.5" font-family="Helvetica,sans-Serif" font-size="10.00"> </text>
</a>
</g>
</g>
<!-- Node4&#45;&gt;Node3 -->
<g id="edge3" class="edge">
<title>Node4&#45;&gt;Node3</title>
<path fill="none" stroke="#404040" d="M58,-348.4C58,-337.55 58,-324.87 58,-313.05"/>
<polygon fill="none" stroke="#404040" points="58,-312.68 54,-306.68 58,-300.68 62,-306.68 58,-312.68"/>
<text text-anchor="middle" x="82.5" y="-322" font-family="Helvetica,sans-Serif" font-size="10.00"> +elements</text>
</g>
</g>
</svg>
