<?xml version="1.0" encoding="UTF-8" standalone="no"?>
<!DOCTYPE svg PUBLIC "-//W3C//DTD SVG 1.1//EN"
 "http://www.w3.org/Graphics/SVG/1.1/DTD/svg11.dtd">
<!-- Generated by graphviz version 9.0.0 (20230911.1827)
 -->
<!-- Title: realization::config::Layer Pages: 1 -->
<!--zoomable 1251 -->

<svg id="main" version="1.1" xmlns="http://www.w3.org/2000/svg" xmlns:xlink="http://www.w3.org/1999/xlink" xml:space="preserve" onload="init(evt)">
<style type="text/css"><![CDATA[
.node, .edge {opacity: 0.7;}
.node.selected, .edge.selected {opacity: 1;}
.edge:hover path { stroke: red; }
.edge:hover polygon { stroke: red; fill: red; }
]]></style>

<defs>
  <circle id="rim" cx="0" cy="0" r="7"/>
  <circle id="rim2" cx="0" cy="0" r="3.5"/>
  <g id="zoomPlus">
    <use xlink:href="#rim" fill="#404040"><set attributeName="fill" to="#808080" begin="zoomplus.mouseover" end="zoomplus.mouseout"/></use>
    <path d="M-4,0h8M0,-4v8" fill="none" stroke="white" stroke-width="1.5" pointer-events="none"/>
  </g>
  <g id="zoomMin">
    <use xlink:href="#rim" fill="#404040"><set attributeName="fill" to="#808080" begin="zoomminus.mouseover" end="zoomminus.mouseout"/></use>
    <path d="M-4,0h8" fill="none" stroke="white" stroke-width="1.5" pointer-events="none"/>
  </g>
  <g id="arrowUp" transform="translate(30 24)">
    <use xlink:href="#rim"/>
    <path pointer-events="none" fill="none" stroke="white" stroke-width="1.5" d="M0,-3.0v7 M-2.5,-0.5L0,-3.0L2.5,-0.5"/>
  </g>
  <g id="arrowRight" transform="rotate(90) translate(36 -43)">
    <use xlink:href="#rim"/>
    <path pointer-events="none" fill="none" stroke="white" stroke-width="1.5" d="M0,-3.0v7 M-2.5,-0.5L0,-3.0L2.5,-0.5"/>
  </g>
  <g id="arrowDown" transform="rotate(180) translate(-30 -48)">
    <use xlink:href="#rim"/>
    <path pointer-events="none" fill="none" stroke="white" stroke-width="1.5" d="M0,-3.0v7 M-2.5,-0.5L0,-3.0L2.5,-0.5"/>
  </g>
  <g id="arrowLeft" transform="rotate(270) translate(-36 17)">
    <use xlink:href="#rim"/>
    <path pointer-events="none" fill="none" stroke="white" stroke-width="1.5" d="M0,-3.0v7 M-2.5,-0.5L0,-3.0L2.5,-0.5"/>
  </g>
  <g id="resetDef">
    <use xlink:href="#rim2" fill="#404040"><set attributeName="fill" to="#808080" begin="reset.mouseover" end="reset.mouseout"/></use>
  </g>
</defs>
<script type="application/ecmascript">
var viewWidth = 690;
var viewHeight = 1251;
var sectionId = 'dynsection-0';
</script>
<script type="application/ecmascript" xlink:href="svg.min.js"/>
<svg id="graph" class="graph">
<g id="viewport">
<title>realization::config::Layer</title>
<!-- Node1 -->
<g id="Node000001" class="node">
<title>Node1</title>
<g id="a_Node000001"><a xlink:title="Layer configuration information.">
<polygon fill="#999999" stroke="none" points="105.13,-120 12.13,-120 12.13,0 105.13,0 105.13,-120"/>
<text text-anchor="start" x="21.88" y="-106.5" font-family="Helvetica,sans-Serif" font-size="10.00">realization::config</text>
<text text-anchor="start" x="44.38" y="-95.25" font-family="Helvetica,sans-Serif" font-size="10.00">::Layer</text>
<text text-anchor="start" x="57.13" y="-80.5" font-family="Helvetica,sans-Serif" font-size="10.00"> </text>
<text text-anchor="start" x="16.13" y="-65.5" font-family="Helvetica,sans-Serif" font-size="10.00">+</text>
<text text-anchor="start" x="26.13" y="-65.5" font-family="Helvetica,sans-Serif" font-size="10.00">Layer()</text>
<text text-anchor="start" x="16.13" y="-50.5" font-family="Helvetica,sans-Serif" font-size="10.00">+</text>
<text text-anchor="start" x="26.13" y="-50.5" font-family="Helvetica,sans-Serif" font-size="10.00">Layer()</text>
<text text-anchor="start" x="16.13" y="-35.5" font-family="Helvetica,sans-Serif" font-size="10.00">+</text>
<text text-anchor="start" x="26.13" y="-35.5" font-family="Helvetica,sans-Serif" font-size="10.00">get_descriptor()</text>
<text text-anchor="start" x="16.13" y="-20.5" font-family="Helvetica,sans-Serif" font-size="10.00">+</text>
<text text-anchor="start" x="26.13" y="-20.5" font-family="Helvetica,sans-Serif" font-size="10.00">has_formulation()</text>
<text text-anchor="start" x="16.13" y="-5.5" font-family="Helvetica,sans-Serif" font-size="10.00">+</text>
<text text-anchor="start" x="26.13" y="-5.5" font-family="Helvetica,sans-Serif" font-size="10.00">get_domain()</text>
<polygon fill="#666666" stroke="#666666" points="12.13,-92 12.13,-92 105.13,-92 105.13,-92 12.13,-92"/>
<polygon fill="#666666" stroke="#666666" points="12.13,-77 12.13,-77 105.13,-77 105.13,-77 12.13,-77"/>
<polygon fill="none" stroke="#666666" points="12.13,0 12.13,-120 105.13,-120 105.13,0 12.13,0"/>
</a>
</g>
</g>
<!-- Node2 -->
<g id="Node000002" class="node">
<title>Node2</title>
<g id="a_Node000002"><a xlink:href="structrealization_1_1config_1_1_config.html" target="_top" xlink:title="Structure representing the configuration for a general Formulation.">
<polygon fill="white" stroke="none" points="183.13,-257.25 90.13,-257.25 90.13,-167.25 183.13,-167.25 183.13,-257.25"/>
<text text-anchor="start" x="99.88" y="-243.75" font-family="Helvetica,sans-Serif" font-size="10.00">realization::config</text>
<text text-anchor="start" x="120.88" y="-232.5" font-family="Helvetica,sans-Serif" font-size="10.00">::Config</text>
<text text-anchor="start" x="135.13" y="-217.75" font-family="Helvetica,sans-Serif" font-size="10.00"> </text>
<text text-anchor="start" x="94.13" y="-202.75" font-family="Helvetica,sans-Serif" font-size="10.00">+</text>
<text text-anchor="start" x="104.13" y="-202.75" font-family="Helvetica,sans-Serif" font-size="10.00">Config()</text>
<text text-anchor="start" x="94.13" y="-187.75" font-family="Helvetica,sans-Serif" font-size="10.00">+</text>
<text text-anchor="start" x="104.13" y="-187.75" font-family="Helvetica,sans-Serif" font-size="10.00">Config()</text>
<text text-anchor="start" x="94.13" y="-172.75" font-family="Helvetica,sans-Serif" font-size="10.00">+</text>
<text text-anchor="start" x="104.13" y="-172.75" font-family="Helvetica,sans-Serif" font-size="10.00">has_formulation()</text>
<polygon fill="#666666" stroke="#666666" points="90.13,-229.25 90.13,-229.25 183.13,-229.25 183.13,-229.25 90.13,-229.25"/>
<polygon fill="#666666" stroke="#666666" points="90.13,-214.25 90.13,-214.25 183.13,-214.25 183.13,-214.25 90.13,-214.25"/>
<polygon fill="none" stroke="#666666" points="90.13,-167.25 90.13,-257.25 183.13,-257.25 183.13,-167.25 90.13,-167.25"/>
</a>
</g>
</g>
<!-- Node2&#45;&gt;Node1 -->
<g id="edge1_Node000001_Node000002" class="edge">
<title>Node2&#45;&gt;Node1</title>
<g id="a_edge1_Node000001_Node000002"><a xlink:title=" ">
<path fill="none" stroke="#63b8ff" d="M113.86,-167.39C107.94,-155.98 101.41,-143.4 94.97,-131.01"/>
<polygon fill="none" stroke="#63b8ff" points="95.06,-131.18 88.74,-127.69 89.53,-120.53 95.85,-124.01 95.06,-131.18"/>
</a>
</g>
<text text-anchor="middle" x="130.75" y="-139.75" font-family="Helvetica,sans-Serif" font-size="10.00" fill="grey"> +formulation</text>
</g>
<!-- Node3 -->
<g id="Node000003" class="node">
<title>Node3</title>
<g id="a_Node000003"><a xlink:href="structrealization_1_1config_1_1_formulation.html" target="_top" xlink:title=" ">
<polygon fill="white" stroke="none" points="309.13,-409.5 226.13,-409.5 226.13,-304.5 309.13,-304.5 309.13,-409.5"/>
<text text-anchor="start" x="230.88" y="-396" font-family="Helvetica,sans-Serif" font-size="10.00">realization::config</text>
<text text-anchor="start" x="239.88" y="-384.75" font-family="Helvetica,sans-Serif" font-size="10.00">::Formulation</text>
<text text-anchor="start" x="266.13" y="-370" font-family="Helvetica,sans-Serif" font-size="10.00"> </text>
<text text-anchor="start" x="231.13" y="-355" font-family="Helvetica,sans-Serif" font-size="10.00">+</text>
<text text-anchor="start" x="242.13" y="-355" font-family="Helvetica,sans-Serif" font-size="10.00">Formulation()</text>
<text text-anchor="start" x="231.13" y="-340" font-family="Helvetica,sans-Serif" font-size="10.00">+</text>
<text text-anchor="start" x="242.13" y="-340" font-family="Helvetica,sans-Serif" font-size="10.00">Formulation()</text>
<text text-anchor="start" x="231.13" y="-325" font-family="Helvetica,sans-Serif" font-size="10.00">+</text>
<text text-anchor="start" x="242.13" y="-325" font-family="Helvetica,sans-Serif" font-size="10.00">Formulation()</text>
<text text-anchor="start" x="231.13" y="-310" font-family="Helvetica,sans-Serif" font-size="10.00">+</text>
<text text-anchor="start" x="242.13" y="-310" font-family="Helvetica,sans-Serif" font-size="10.00">link_external()</text>
<polygon fill="#666666" stroke="#666666" points="226.13,-381.5 226.13,-381.5 309.13,-381.5 309.13,-381.5 226.13,-381.5"/>
<polygon fill="#666666" stroke="#666666" points="226.13,-366.5 226.13,-366.5 309.13,-366.5 309.13,-366.5 226.13,-366.5"/>
<polygon fill="none" stroke="#666666" points="226.13,-304.5 226.13,-409.5 309.13,-409.5 309.13,-304.5 226.13,-304.5"/>
</a>
</g>
</g>
<!-- Node3&#45;&gt;Node2 -->
<g id="edge2_Node000002_Node000003" class="edge">
<title>Node3&#45;&gt;Node2</title>
<g id="a_edge2_Node000002_Node000003"><a xlink:title=" ">
<path fill="none" stroke="#63b8ff" d="M226.18,-310.83C213.27,-296.76 198.91,-281.11 185.53,-266.54"/>
<polygon fill="none" stroke="#63b8ff" points="185.64,-266.65 178.63,-264.94 177.52,-257.81 184.53,-259.53 185.64,-266.65"/>
</a>
</g>
<text text-anchor="middle" x="230.75" y="-277" font-family="Helvetica,sans-Serif" font-size="10.00" fill="grey"> +formulation</text>
</g>
<!-- Node13 -->
<g id="Node000013" class="node">
<title>Node13</title>
<g id="a_Node000013"><a xlink:title=" ">
<polygon fill="white" stroke="none" points="390.63,-242.25 284.63,-242.25 284.63,-182.25 390.63,-182.25 390.63,-242.25"/>
<text text-anchor="start" x="289.25" y="-228.75" font-family="Helvetica,sans-Serif" font-size="10.00">std::vector&lt; realization</text>
<text text-anchor="start" x="290.75" y="-217.5" font-family="Helvetica,sans-Serif" font-size="10.00">::config::Formulation &gt;</text>
<text text-anchor="start" x="336.13" y="-202.75" font-family="Helvetica,sans-Serif" font-size="10.00"> </text>
<text text-anchor="start" x="336.13" y="-187.75" font-family="Helvetica,sans-Serif" font-size="10.00"> </text>
<polygon fill="#666666" stroke="#666666" points="284.63,-214.25 284.63,-214.25 390.63,-214.25 390.63,-214.25 284.63,-214.25"/>
<polygon fill="#666666" stroke="#666666" points="284.63,-199.25 284.63,-199.25 390.63,-199.25 390.63,-199.25 284.63,-199.25"/>
<polygon fill="none" stroke="#666666" points="284.63,-182.25 284.63,-242.25 390.63,-242.25 390.63,-182.25 284.63,-182.25"/>
</a>
</g>
</g>
<!-- Node3&#45;&gt;Node13 -->
<g id="edge18_Node000013_Node000003" class="edge">
<title>Node3&#45;&gt;Node13</title>
<g id="a_edge18_Node000013_Node000003"><a xlink:title=" ">
<path fill="none" stroke="#63b8ff" d="M305.64,-304.7C309.28,-298.72 312.71,-292.58 315.63,-286.5 320.41,-276.55 324.41,-265.33 327.63,-254.72"/>
<polygon fill="none" stroke="#63b8ff" points="327.66,-254.62 325.44,-247.75 330.92,-243.07 333.14,-249.93 327.66,-254.62"/>
</a>
</g>
<text text-anchor="middle" x="343.63" y="-277" font-family="Helvetica,sans-Serif" font-size="10.00" fill="grey"> +elements</text>
</g>
<!-- Node4 -->
<g id="Node000004" class="node">
<title>Node4</title>
<g id="a_Node000004"><a xlink:title=" ">
<polygon fill="white" stroke="none" points="176.63,-1033.75 124.63,-1033.75 124.63,-984.75 176.63,-984.75 176.63,-1033.75"/>
<text text-anchor="start" x="129.63" y="-1020.25" font-family="Helvetica,sans-Serif" font-size="10.00">std::string</text>
<text text-anchor="start" x="149.13" y="-1005.25" font-family="Helvetica,sans-Serif" font-size="10.00"> </text>
<text text-anchor="start" x="149.13" y="-990.25" font-family="Helvetica,sans-Serif" font-size="10.00"> </text>
<polygon fill="#666666" stroke="#666666" points="124.63,-1016.75 124.63,-1016.75 176.63,-1016.75 176.63,-1016.75 124.63,-1016.75"/>
<polygon fill="#666666" stroke="#666666" points="124.63,-1001.75 124.63,-1001.75 176.63,-1001.75 176.63,-1001.75 124.63,-1001.75"/>
<polygon fill="none" stroke="#666666" points="124.63,-984.75 124.63,-1033.75 176.63,-1033.75 176.63,-984.75 124.63,-984.75"/>
</a>
</g>
</g>
<!-- Node4&#45;&gt;Node1 -->
<g id="edge22_Node000001_Node000004" class="edge">
<title>Node4&#45;&gt;Node1</title>
<g id="a_edge22_Node000001_Node000004"><a xlink:title=" ">
<path fill="none" stroke="#63b8ff" d="M124.7,-1000.87C102.42,-993.56 70.37,-980.62 47.63,-961.25 -18.78,-904.69 4.63,-856.98 4.63,-769.75 4.63,-769.75 4.63,-769.75 4.63,-211.25 4.63,-184.33 12.4,-156.22 22.04,-131.68"/>
<polygon fill="none" stroke="#63b8ff" points="21.97,-131.87 20.57,-124.8 26.56,-120.78 27.96,-127.86 21.97,-131.87"/>
</a>
</g>
<text text-anchor="middle" x="23" y="-429.25" font-family="Helvetica,sans-Serif" font-size="10.00" fill="grey"> &#45;domain</text>
</g>
<!-- Node4&#45;&gt;Node3 -->
<g id="edge3_Node000003_Node000004" class="edge">
<title>Node4&#45;&gt;Node3</title>
<g id="a_edge3_Node000003_Node000004"><a xlink:title=" ">
<path fill="none" stroke="#63b8ff" d="M149.41,-984.99C144.78,-888.86 131.39,-523.21 189.63,-427.5 195.78,-417.39 202.52,-417.93 216.19,-408.77"/>
<polygon fill="none" stroke="#63b8ff" points="215.97,-408.94 218.33,-402.13 225.53,-401.69 223.17,-408.5 215.97,-408.94"/>
</a>
</g>
<text text-anchor="middle" x="172.75" y="-562.88" font-family="Helvetica,sans-Serif" font-size="10.00" fill="grey"> +type</text>
</g>
<!-- Node6 -->
<g id="Node000006" class="node">
<title>Node6</title>
<g id="a_Node000006"><a xlink:title=" ">
<polygon fill="white" stroke="none" points="305.63,-516.75 205.63,-516.75 205.63,-456.75 305.63,-456.75 305.63,-516.75"/>
<text text-anchor="start" x="210.63" y="-503.25" font-family="Helvetica,sans-Serif" font-size="10.00">std::map&lt; std::string,</text>
<text text-anchor="start" x="218.88" y="-492" font-family="Helvetica,sans-Serif" font-size="10.00"> JSONProperty &gt;</text>
<text text-anchor="start" x="254.13" y="-477.25" font-family="Helvetica,sans-Serif" font-size="10.00"> </text>
<text text-anchor="start" x="254.13" y="-462.25" font-family="Helvetica,sans-Serif" font-size="10.00"> </text>
<polygon fill="#666666" stroke="#666666" points="205.63,-488.75 205.63,-488.75 305.63,-488.75 305.63,-488.75 205.63,-488.75"/>
<polygon fill="#666666" stroke="#666666" points="205.63,-473.75 205.63,-473.75 305.63,-473.75 305.63,-473.75 205.63,-473.75"/>
<polygon fill="none" stroke="#666666" points="205.63,-456.75 205.63,-516.75 305.63,-516.75 305.63,-456.75 205.63,-456.75"/>
</a>
</g>
</g>
<!-- Node4&#45;&gt;Node6 -->
<g id="edge6_Node000006_Node000004" class="edge">
<title>Node4&#45;&gt;Node6</title>
<g id="a_edge6_Node000006_Node000004"><a xlink:title=" ">
<path fill="none" stroke="#63b8ff" d="M158.41,-985.02C160.7,-977.51 163.01,-969.09 164.63,-961.25 195.75,-810.26 167.72,-766.31 205.13,-616.75 212.74,-586.31 225.71,-553.39 236.6,-528.43"/>
<polygon fill="none" stroke="#63b8ff" points="236.66,-528.3 235.44,-521.19 241.54,-517.33 242.75,-524.44 236.66,-528.3"/>
</a>
</g>
<text text-anchor="middle" x="219.88" y="-764.88" font-family="Helvetica,sans-Serif" font-size="10.00" fill="grey"> +keys</text>
</g>
<!-- Node7 -->
<g id="Node000007" class="node">
<title>Node7</title>
<g id="a_Node000007"><a xlink:href="classgeojson_1_1_j_s_o_n_property.html" target="_top" xlink:title="@TODO: Convert JSONProperty into a variant of the supported types">
<polygon fill="white" stroke="none" points="354.13,-920.75 243.13,-920.75 243.13,-616.75 354.13,-616.75 354.13,-920.75"/>
<text text-anchor="start" x="248" y="-907.25" font-family="Helvetica,sans-Serif" font-size="10.00">geojson::JSONProperty</text>
<text text-anchor="start" x="253.13" y="-892.25" font-family="Helvetica,sans-Serif" font-size="10.00">&#45;</text>
<text text-anchor="start" x="266.13" y="-892.25" font-family="Helvetica,sans-Serif" font-size="10.00">type</text>
<text text-anchor="start" x="253.13" y="-877.25" font-family="Helvetica,sans-Serif" font-size="10.00">&#45;</text>
<text text-anchor="start" x="266.13" y="-877.25" font-family="Helvetica,sans-Serif" font-size="10.00">data</text>
<text text-anchor="start" x="251.63" y="-862.25" font-family="Helvetica,sans-Serif" font-size="10.00">+</text>
<text text-anchor="start" x="266.13" y="-862.25" font-family="Helvetica,sans-Serif" font-size="10.00">JSONProperty()</text>
<text text-anchor="start" x="251.63" y="-847.25" font-family="Helvetica,sans-Serif" font-size="10.00">+</text>
<text text-anchor="start" x="266.13" y="-847.25" font-family="Helvetica,sans-Serif" font-size="10.00">JSONProperty()</text>
<text text-anchor="start" x="251.63" y="-832.25" font-family="Helvetica,sans-Serif" font-size="10.00">+</text>
<text text-anchor="start" x="266.13" y="-832.25" font-family="Helvetica,sans-Serif" font-size="10.00">JSONProperty()</text>
<text text-anchor="start" x="251.63" y="-817.25" font-family="Helvetica,sans-Serif" font-size="10.00">+</text>
<text text-anchor="start" x="266.13" y="-817.25" font-family="Helvetica,sans-Serif" font-size="10.00">JSONProperty()</text>
<text text-anchor="start" x="251.63" y="-802.25" font-family="Helvetica,sans-Serif" font-size="10.00">+</text>
<text text-anchor="start" x="266.13" y="-802.25" font-family="Helvetica,sans-Serif" font-size="10.00">JSONProperty()</text>
<text text-anchor="start" x="251.63" y="-787.25" font-family="Helvetica,sans-Serif" font-size="10.00">+</text>
<text text-anchor="start" x="266.13" y="-787.25" font-family="Helvetica,sans-Serif" font-size="10.00">JSONProperty()</text>
<text text-anchor="start" x="251.63" y="-772.25" font-family="Helvetica,sans-Serif" font-size="10.00">+</text>
<text text-anchor="start" x="266.13" y="-772.25" font-family="Helvetica,sans-Serif" font-size="10.00">JSONProperty()</text>
<text text-anchor="start" x="251.63" y="-757.25" font-family="Helvetica,sans-Serif" font-size="10.00">+</text>
<text text-anchor="start" x="266.13" y="-757.25" font-family="Helvetica,sans-Serif" font-size="10.00">JSONProperty()</text>
<text text-anchor="start" x="251.63" y="-742.25" font-family="Helvetica,sans-Serif" font-size="10.00">+</text>
<text text-anchor="start" x="266.13" y="-742.25" font-family="Helvetica,sans-Serif" font-size="10.00">JSONProperty()</text>
<text text-anchor="start" x="251.63" y="-727.25" font-family="Helvetica,sans-Serif" font-size="10.00">+</text>
<text text-anchor="start" x="266.13" y="-727.25" font-family="Helvetica,sans-Serif" font-size="10.00">JSONProperty()</text>
<text text-anchor="start" x="251.63" y="-712.25" font-family="Helvetica,sans-Serif" font-size="10.00">+</text>
<text text-anchor="start" x="266.13" y="-712.25" font-family="Helvetica,sans-Serif" font-size="10.00">JSONProperty()</text>
<text text-anchor="start" x="251.63" y="-697.25" font-family="Helvetica,sans-Serif" font-size="10.00">+</text>
<text text-anchor="start" x="266.13" y="-697.25" font-family="Helvetica,sans-Serif" font-size="10.00">~JSONProperty()</text>
<text text-anchor="start" x="251.63" y="-682.25" font-family="Helvetica,sans-Serif" font-size="10.00">+</text>
<text text-anchor="start" x="266.13" y="-682.25" font-family="Helvetica,sans-Serif" font-size="10.00">JSONProperty()</text>
<text text-anchor="start" x="251.63" y="-667.25" font-family="Helvetica,sans-Serif" font-size="10.00">+</text>
<text text-anchor="start" x="266.13" y="-667.25" font-family="Helvetica,sans-Serif" font-size="10.00">JSONProperty()</text>
<text text-anchor="start" x="251.63" y="-652.25" font-family="Helvetica,sans-Serif" font-size="10.00">+</text>
<text text-anchor="start" x="266.13" y="-652.25" font-family="Helvetica,sans-Serif" font-size="10.00">get_type()</text>
<text text-anchor="start" x="266.13" y="-637.25" font-family="Helvetica,sans-Serif" font-size="10.00">and 17 more...</text>
<text text-anchor="start" x="251.63" y="-622.25" font-family="Helvetica,sans-Serif" font-size="10.00">+</text>
<text text-anchor="start" x="266.13" y="-622.25" font-family="Helvetica,sans-Serif" font-size="10.00">print_property()</text>
<polygon fill="#666666" stroke="#666666" points="243.13,-903.75 243.13,-903.75 354.13,-903.75 354.13,-903.75 243.13,-903.75"/>
<polygon fill="#666666" stroke="#666666" points="243.13,-873.75 243.13,-873.75 264.13,-873.75 264.13,-873.75 243.13,-873.75"/>
<polygon fill="#666666" stroke="#666666" points="264.13,-873.75 264.13,-873.75 354.13,-873.75 354.13,-873.75 264.13,-873.75"/>
<polygon fill="none" stroke="#666666" points="243.13,-616.75 243.13,-920.75 354.13,-920.75 354.13,-616.75 243.13,-616.75"/>
</a>
</g>
</g>
<!-- Node4&#45;&gt;Node7 -->
<g id="edge8_Node000007_Node000004" class="edge">
<title>Node4&#45;&gt;Node7</title>
<g id="a_edge8_Node000007_Node000004"><a xlink:title=" ">
<path fill="none" stroke="#63b8ff" d="M176.45,-990.53C186.99,-982.44 198.76,-972.22 207.63,-961.25 218.34,-948 228.14,-933.29 237.03,-918.07"/>
<polygon fill="none" stroke="#63b8ff" points="236.99,-918.15 236.46,-910.96 242.89,-907.7 243.42,-914.89 236.99,-918.15"/>
</a>
</g>
<text text-anchor="middle" x="231.75" y="-946.12" font-family="Helvetica,sans-Serif" font-size="10.00" fill="grey"> &#45;key</text>
</g>
<!-- Node15 -->
<g id="Node000015" class="node">
<title>Node15</title>
<g id="a_Node000015"><a xlink:href="structngen_1_1_layer_description.html" target="_top" xlink:title="A simple structure to hold meta data related to a computational layer.">
<polygon fill="white" stroke="none" points="127.63,-598.75 19.63,-598.75 19.63,-534.75 127.63,-534.75 127.63,-598.75"/>
<text text-anchor="start" x="24.5" y="-585.25" font-family="Helvetica,sans-Serif" font-size="10.00">ngen::LayerDescription</text>
<text text-anchor="start" x="35.63" y="-570.25" font-family="Helvetica,sans-Serif" font-size="10.00">+</text>
<text text-anchor="start" x="57.63" y="-570.25" font-family="Helvetica,sans-Serif" font-size="10.00">id</text>
<text text-anchor="start" x="35.63" y="-555.25" font-family="Helvetica,sans-Serif" font-size="10.00">+</text>
<text text-anchor="start" x="57.63" y="-555.25" font-family="Helvetica,sans-Serif" font-size="10.00">time_step</text>
<text text-anchor="start" x="72.13" y="-540.25" font-family="Helvetica,sans-Serif" font-size="10.00"> </text>
<polygon fill="#666666" stroke="#666666" points="19.63,-581.75 19.63,-581.75 127.63,-581.75 127.63,-581.75 19.63,-581.75"/>
<polygon fill="#666666" stroke="#666666" points="19.63,-551.75 19.63,-551.75 55.63,-551.75 55.63,-551.75 19.63,-551.75"/>
<polygon fill="#666666" stroke="#666666" points="55.63,-551.75 55.63,-551.75 127.63,-551.75 127.63,-551.75 55.63,-551.75"/>
<polygon fill="none" stroke="#666666" points="19.63,-534.75 19.63,-598.75 127.63,-598.75 127.63,-534.75 19.63,-534.75"/>
</a>
</g>
</g>
<!-- Node4&#45;&gt;Node15 -->
<g id="edge24_Node000015_Node000004" class="edge">
<title>Node4&#45;&gt;Node15</title>
<g id="a_edge24_Node000015_Node000004"><a xlink:title=" ">
<path fill="none" stroke="#63b8ff" d="M124.87,-1002.42C103.77,-996.14 75.25,-983.85 61.63,-961.25 -5.39,-850.08 33.64,-687.27 58.25,-610.64"/>
<polygon fill="none" stroke="#63b8ff" points="58.16,-610.92 56.24,-603.97 61.92,-599.52 63.84,-606.47 58.16,-610.92"/>
</a>
</g>
<text text-anchor="middle" x="99.13" y="-951.75" font-family="Helvetica,sans-Serif" font-size="10.00" fill="grey"> +name</text>
<text text-anchor="middle" x="99.13" y="-940.5" font-family="Helvetica,sans-Serif" font-size="10.00" fill="grey">+time_step_units</text>
</g>
<!-- Node5 -->
<g id="Node000005" class="node">
<title>Node5</title>
<g id="a_Node000005"><a xlink:title=" ">
<polygon fill="white" stroke="none" points="193.63,-1146.5 107.63,-1146.5 107.63,-1086.5 193.63,-1086.5 193.63,-1146.5"/>
<text text-anchor="start" x="112.38" y="-1133" font-family="Helvetica,sans-Serif" font-size="10.00">std::basic_string&lt;</text>
<text text-anchor="start" x="135.25" y="-1121.75" font-family="Helvetica,sans-Serif" font-size="10.00"> Char &gt;</text>
<text text-anchor="start" x="149.13" y="-1107" font-family="Helvetica,sans-Serif" font-size="10.00"> </text>
<text text-anchor="start" x="149.13" y="-1092" font-family="Helvetica,sans-Serif" font-size="10.00"> </text>
<polygon fill="#666666" stroke="#666666" points="107.63,-1118.5 107.63,-1118.5 193.63,-1118.5 193.63,-1118.5 107.63,-1118.5"/>
<polygon fill="#666666" stroke="#666666" points="107.63,-1103.5 107.63,-1103.5 193.63,-1103.5 193.63,-1103.5 107.63,-1103.5"/>
<polygon fill="none" stroke="#666666" points="107.63,-1086.5 107.63,-1146.5 193.63,-1146.5 193.63,-1086.5 107.63,-1086.5"/>
</a>
</g>
</g>
<!-- Node5&#45;&gt;Node4 -->
<g id="edge4_Node000004_Node000005" class="edge">
<title>Node5&#45;&gt;Node4</title>
<g id="a_edge4_Node000004_Node000005"><a xlink:title=" ">
<path fill="none" stroke="#63b8ff" d="M150.63,-1075.31C150.63,-1061.23 150.63,-1045.9 150.63,-1033.66"/>
<polygon fill="none" stroke="#63b8ff" points="147.13,-1075.23 150.63,-1085.23 154.13,-1075.23 147.13,-1075.23"/>
</a>
</g>
</g>
<!-- Node6&#45;&gt;Node3 -->
<g id="edge5_Node000003_Node000006" class="edge">
<title>Node6&#45;&gt;Node3</title>
<g id="a_edge5_Node000003_Node000006"><a xlink:title=" ">
<path fill="none" stroke="#63b8ff" d="M258.35,-456.76C259.32,-446.49 260.44,-434.48 261.57,-422.45"/>
<polygon fill="none" stroke="#63b8ff" points="261.59,-422.3 258.17,-415.95 262.71,-410.35 266.13,-416.7 261.59,-422.3"/>
</a>
</g>
<text text-anchor="middle" x="290.13" y="-429.25" font-family="Helvetica,sans-Serif" font-size="10.00" fill="grey"> +parameters</text>
</g>
<!-- Node6&#45;&gt;Node7 -->
<g id="edge9_Node000007_Node000006" class="edge">
<title>Node6&#45;&gt;Node7</title>
<g id="a_edge9_Node000007_Node000006"><a xlink:title=" ">
<path fill="none" stroke="#63b8ff" d="M248.66,-516.69C247.5,-522.63 246.48,-528.86 245.88,-534.75 242.97,-563.05 241.59,-570.63 245.88,-598.75 246.17,-600.65 246.47,-602.56 246.8,-604.47"/>
<polygon fill="none" stroke="#63b8ff" points="246.8,-604.49 251.83,-609.66 248.99,-616.29 243.96,-611.12 246.8,-604.49"/>
</a>
</g>
<text text-anchor="middle" x="263.5" y="-562.88" font-family="Helvetica,sans-Serif" font-size="10.00" fill="grey"> &#45;values</text>
</g>
<!-- Node14 -->
<g id="Node000014" class="node">
<title>Node14</title>
<g id="a_Node000014"><a xlink:href="structrealization_1_1config_1_1_forcing.html" target="_top" xlink:title="Structure for holding forcing configuration information.">
<polygon fill="white" stroke="none" points="208.13,-402 125.13,-402 125.13,-312 208.13,-312 208.13,-402"/>
<text text-anchor="start" x="129.88" y="-388.5" font-family="Helvetica,sans-Serif" font-size="10.00">realization::config</text>
<text text-anchor="start" x="148.25" y="-377.25" font-family="Helvetica,sans-Serif" font-size="10.00">::Forcing</text>
<text text-anchor="start" x="165.13" y="-362.5" font-family="Helvetica,sans-Serif" font-size="10.00"> </text>
<text text-anchor="start" x="134.63" y="-347.5" font-family="Helvetica,sans-Serif" font-size="10.00">+</text>
<text text-anchor="start" x="150.13" y="-347.5" font-family="Helvetica,sans-Serif" font-size="10.00">Forcing()</text>
<text text-anchor="start" x="134.63" y="-332.5" font-family="Helvetica,sans-Serif" font-size="10.00">+</text>
<text text-anchor="start" x="150.13" y="-332.5" font-family="Helvetica,sans-Serif" font-size="10.00">Forcing()</text>
<text text-anchor="start" x="134.63" y="-317.5" font-family="Helvetica,sans-Serif" font-size="10.00">+</text>
<text text-anchor="start" x="150.13" y="-317.5" font-family="Helvetica,sans-Serif" font-size="10.00">has_key()</text>
<polygon fill="#666666" stroke="#666666" points="125.13,-374 125.13,-374 208.13,-374 208.13,-374 125.13,-374"/>
<polygon fill="#666666" stroke="#666666" points="125.13,-359 125.13,-359 208.13,-359 208.13,-359 125.13,-359"/>
<polygon fill="none" stroke="#666666" points="125.13,-312 125.13,-402 208.13,-402 208.13,-312 125.13,-312"/>
</a>
</g>
</g>
<!-- Node6&#45;&gt;Node14 -->
<g id="edge21_Node000014_Node000006" class="edge">
<title>Node6&#45;&gt;Node14</title>
<g id="a_edge21_Node000014_Node000006"><a xlink:title=" ">
<path fill="none" stroke="#63b8ff" d="M216.17,-456.9C210.13,-451.34 204.34,-445.21 199.63,-438.75 194.11,-431.18 189.32,-422.55 185.25,-413.82"/>
<polygon fill="none" stroke="#63b8ff" points="185.23,-413.78 179.19,-409.86 180.48,-402.76 186.53,-406.69 185.23,-413.78"/>
</a>
</g>
<text text-anchor="middle" x="228.13" y="-429.25" font-family="Helvetica,sans-Serif" font-size="10.00" fill="grey"> +parameters</text>
</g>
<!-- Node7&#45;&gt;Node6 -->
<g id="edge7_Node000006_Node000007" class="edge">
<title>Node7&#45;&gt;Node6</title>
<g id="a_edge7_Node000006_Node000007"><a xlink:title=" ">
<path fill="none" stroke="#63b8ff" d="M299.36,-617C296.57,-589.22 291.7,-560.79 283.63,-534.75 282.94,-532.53 282.13,-530.31 281.22,-528.11"/>
<polygon fill="none" stroke="#63b8ff" points="281.27,-528.2 275.06,-524.54 276.05,-517.39 282.26,-521.06 281.27,-528.2"/>
</a>
</g>
<text text-anchor="middle" x="321.63" y="-562.88" font-family="Helvetica,sans-Serif" font-size="10.00" fill="grey"> +elements</text>
</g>
<!-- Node8 -->
<g id="Node000008" class="node">
<title>Node8</title>
<g id="a_Node000008"><a xlink:title=" ">
<polygon fill="white" stroke="none" points="321.13,-1039.25 224.13,-1039.25 224.13,-979.25 321.13,-979.25 321.13,-1039.25"/>
<text text-anchor="start" x="229.13" y="-1025.75" font-family="Helvetica,sans-Serif" font-size="10.00">std::vector&lt; geojson</text>
<text text-anchor="start" x="234.75" y="-1014.5" font-family="Helvetica,sans-Serif" font-size="10.00">::JSONProperty &gt;</text>
<text text-anchor="start" x="271.13" y="-999.75" font-family="Helvetica,sans-Serif" font-size="10.00"> </text>
<text text-anchor="start" x="271.13" y="-984.75" font-family="Helvetica,sans-Serif" font-size="10.00"> </text>
<polygon fill="#666666" stroke="#666666" points="224.13,-1011.25 224.13,-1011.25 321.13,-1011.25 321.13,-1011.25 224.13,-1011.25"/>
<polygon fill="#666666" stroke="#666666" points="224.13,-996.25 224.13,-996.25 321.13,-996.25 321.13,-996.25 224.13,-996.25"/>
<polygon fill="none" stroke="#666666" points="224.13,-979.25 224.13,-1039.25 321.13,-1039.25 321.13,-979.25 224.13,-979.25"/>
</a>
</g>
</g>
<!-- Node7&#45;&gt;Node8 -->
<g id="edge11_Node000008_Node000007" class="edge">
<title>Node7&#45;&gt;Node8</title>
<g id="a_edge11_Node000008_Node000007"><a xlink:title=" ">
<path fill="none" stroke="#63b8ff" d="M271.42,-920.69C270.74,-926.78 270.13,-932.82 269.63,-938.75 268.78,-948.71 269.31,-951.26 269.63,-961.25 269.68,-963 269.75,-964.78 269.83,-966.58"/>
<polygon fill="none" stroke="#63b8ff" points="269.83,-966.55 274.13,-972.33 270.45,-978.53 266.14,-972.75 269.83,-966.55"/>
</a>
</g>
<text text-anchor="middle" x="293.63" y="-946.12" font-family="Helvetica,sans-Serif" font-size="10.00" fill="grey"> +elements</text>
</g>
<!-- Node8&#45;&gt;Node7 -->
<g id="edge10_Node000007_Node000008" class="edge">
<title>Node8&#45;&gt;Node7</title>
<g id="a_edge10_Node000007_Node000008"><a xlink:title=" ">
<path fill="none" stroke="#63b8ff" d="M309.7,-979.5C314.55,-973.99 318.81,-967.86 321.63,-961.25 325.44,-952.31 328.09,-942.93 329.8,-933.34"/>
<polygon fill="none" stroke="#63b8ff" points="329.79,-933.4 326.63,-926.91 331.4,-921.5 334.56,-927.98 329.79,-933.4"/>
</a>
</g>
<text text-anchor="middle" x="350.88" y="-946.12" font-family="Helvetica,sans-Serif" font-size="10.00" fill="grey"> &#45;value_list</text>
</g>
<!-- Node9 -->
<g id="Node000009" class="node">
<title>Node9</title>
<g id="a_Node000009"><a xlink:title=" ">
<polygon fill="white" stroke="none" points="423.13,-1141 346.13,-1141 346.13,-1092 423.13,-1092 423.13,-1141"/>
<text text-anchor="start" x="350.88" y="-1127.5" font-family="Helvetica,sans-Serif" font-size="10.00">std::vector&lt; T &gt;</text>
<text text-anchor="start" x="383.13" y="-1112.5" font-family="Helvetica,sans-Serif" font-size="10.00"> </text>
<text text-anchor="start" x="383.13" y="-1097.5" font-family="Helvetica,sans-Serif" font-size="10.00"> </text>
<polygon fill="#666666" stroke="#666666" points="346.13,-1124 346.13,-1124 423.13,-1124 423.13,-1124 346.13,-1124"/>
<polygon fill="#666666" stroke="#666666" points="346.13,-1109 346.13,-1109 423.13,-1109 423.13,-1109 346.13,-1109"/>
<polygon fill="none" stroke="#666666" points="346.13,-1092 346.13,-1141 423.13,-1141 423.13,-1092 346.13,-1092"/>
</a>
</g>
</g>
<!-- Node9&#45;&gt;Node8 -->
<g id="edge12_Node000008_Node000009" class="edge">
<title>Node9&#45;&gt;Node8</title>
<g id="a_edge12_Node000008_Node000009"><a xlink:title=" ">
<path fill="none" stroke="orange" d="M335.32,-1107.89C311.86,-1101.53 285.88,-1089.86 271.63,-1068.5 265.96,-1060 264.92,-1049.14 265.74,-1039.11"/>
<polygon fill="orange" stroke="orange" points="334.2,-1111.23 344.75,-1110.18 335.85,-1104.42 334.2,-1111.23"/>
</a>
</g>
<text text-anchor="middle" x="331.63" y="-1059" font-family="Helvetica,sans-Serif" font-size="10.00" fill="grey"> &lt; geojson::JSONProperty &gt;</text>
</g>
<!-- Node9&#45;&gt;Node13 -->
<g id="edge19_Node000013_Node000009" class="edge">
<title>Node9&#45;&gt;Node13</title>
<g id="a_edge19_Node000013_Node000009"><a xlink:title=" ">
<path fill="none" stroke="orange" d="M394.96,-1081.4C400.27,-1060.96 405.63,-1034.35 405.63,-1010.25 405.63,-1010.25 405.63,-1010.25 405.63,-356 405.63,-313.31 380.54,-269.82 360.84,-242.24"/>
<polygon fill="orange" stroke="orange" points="391.63,-1080.33 392.37,-1090.89 398.38,-1082.17 391.63,-1080.33"/>
</a>
</g>
<text text-anchor="start" x="405.63" y="-568.5" font-family="Helvetica,sans-Serif" font-size="10.00" fill="grey"> &lt; realization::config</text>
<text text-anchor="middle" x="447.63" y="-557.25" font-family="Helvetica,sans-Serif" font-size="10.00" fill="grey">::Formulation &gt;</text>
</g>
<!-- Node10 -->
<g id="Node000010" class="node">
<title>Node10</title>
<g id="a_Node000010"><a xlink:title=" ">
<polygon fill="white" stroke="none" points="428.63,-1242.75 412.63,-1242.75 412.63,-1193.75 428.63,-1193.75 428.63,-1242.75"/>
<text text-anchor="start" x="417.63" y="-1229.25" font-family="Helvetica,sans-Serif" font-size="10.00">T</text>
<text text-anchor="start" x="419.13" y="-1214.25" font-family="Helvetica,sans-Serif" font-size="10.00"> </text>
<text text-anchor="start" x="419.13" y="-1199.25" font-family="Helvetica,sans-Serif" font-size="10.00"> </text>
<polygon fill="#666666" stroke="#666666" points="412.63,-1225.75 412.63,-1225.75 428.63,-1225.75 428.63,-1225.75 412.63,-1225.75"/>
<polygon fill="#666666" stroke="#666666" points="412.63,-1210.75 412.63,-1210.75 428.63,-1210.75 428.63,-1210.75 412.63,-1210.75"/>
<polygon fill="none" stroke="#666666" points="412.63,-1193.75 412.63,-1242.75 428.63,-1242.75 428.63,-1193.75 412.63,-1193.75"/>
</a>
</g>
</g>
<!-- Node10&#45;&gt;Node9 -->
<g id="edge13_Node000009_Node000010" class="edge">
<title>Node10&#45;&gt;Node9</title>
<g id="a_edge13_Node000009_Node000010"><a xlink:title=" ">
<path fill="none" stroke="#63b8ff" d="M412.73,-1210.9C404.21,-1203.5 391.12,-1190.4 385.63,-1175.75 383.05,-1168.88 381.86,-1161.24 381.46,-1153.8"/>
<polygon fill="none" stroke="#63b8ff" points="381.46,-1153.75 377.48,-1147.74 381.5,-1141.75 385.48,-1147.77 381.46,-1153.75"/>
</a>
</g>
<text text-anchor="middle" x="409.63" y="-1166.25" font-family="Helvetica,sans-Serif" font-size="10.00" fill="grey"> +elements</text>
</g>
<!-- Node11 -->
<g id="Node000011" class="node">
<title>Node11</title>
<g id="a_Node000011"><a xlink:title=" ">
<polygon fill="white" stroke="none" points="545.13,-1141 464.13,-1141 464.13,-1092 545.13,-1092 545.13,-1141"/>
<text text-anchor="start" x="469" y="-1127.5" font-family="Helvetica,sans-Serif" font-size="10.00">std::map&lt; K, T &gt;</text>
<text text-anchor="start" x="503.13" y="-1112.5" font-family="Helvetica,sans-Serif" font-size="10.00"> </text>
<text text-anchor="start" x="503.13" y="-1097.5" font-family="Helvetica,sans-Serif" font-size="10.00"> </text>
<polygon fill="#666666" stroke="#666666" points="464.13,-1124 464.13,-1124 545.13,-1124 545.13,-1124 464.13,-1124"/>
<polygon fill="#666666" stroke="#666666" points="464.13,-1109 464.13,-1109 545.13,-1109 545.13,-1109 464.13,-1109"/>
<polygon fill="none" stroke="#666666" points="464.13,-1092 464.13,-1141 545.13,-1141 545.13,-1092 464.13,-1092"/>
</a>
</g>
</g>
<!-- Node10&#45;&gt;Node11 -->
<g id="edge16_Node000011_Node000010" class="edge">
<title>Node10&#45;&gt;Node11</title>
<g id="a_edge16_Node000011_Node000010"><a xlink:title=" ">
<path fill="none" stroke="#63b8ff" d="M428.46,-1207.45C437,-1196.8 451.14,-1179.31 463.63,-1164.5 467.52,-1159.88 471.67,-1155.04 475.77,-1150.3"/>
<polygon fill="none" stroke="#63b8ff" points="475.57,-1150.53 476.49,-1143.38 483.44,-1141.48 482.53,-1148.63 475.57,-1150.53"/>
</a>
</g>
<text text-anchor="middle" x="487.63" y="-1166.25" font-family="Helvetica,sans-Serif" font-size="10.00" fill="grey"> +elements</text>
</g>
<!-- Node11&#45;&gt;Node6 -->
<g id="edge14_Node000006_Node000011" class="edge">
<title>Node11&#45;&gt;Node6</title>
<g id="a_edge14_Node000006_Node000011"><a xlink:title=" ">
<path fill="none" stroke="orange" d="M516.77,-1081.27C549.23,-982.99 626.67,-696.67 490.63,-534.75 467.38,-507.08 367.44,-495.32 305.61,-490.62"/>
<polygon fill="orange" stroke="orange" points="513.5,-1080.01 513.63,-1090.6 520.14,-1082.24 513.5,-1080.01"/>
</a>
</g>
<text text-anchor="middle" x="617.13" y="-946.12" font-family="Helvetica,sans-Serif" font-size="10.00" fill="grey"> &lt; std::string, JSONProperty &gt;</text>
</g>
<!-- Node12 -->
<g id="Node000012" class="node">
<title>Node12</title>
<g id="a_Node000012"><a xlink:title=" ">
<polygon fill="white" stroke="none" points="534.63,-1242.75 518.63,-1242.75 518.63,-1193.75 534.63,-1193.75 534.63,-1242.75"/>
<text text-anchor="start" x="523.25" y="-1229.25" font-family="Helvetica,sans-Serif" font-size="10.00">K</text>
<text text-anchor="start" x="525.13" y="-1214.25" font-family="Helvetica,sans-Serif" font-size="10.00"> </text>
<text text-anchor="start" x="525.13" y="-1199.25" font-family="Helvetica,sans-Serif" font-size="10.00"> </text>
<polygon fill="#666666" stroke="#666666" points="518.63,-1225.75 518.63,-1225.75 534.63,-1225.75 534.63,-1225.75 518.63,-1225.75"/>
<polygon fill="#666666" stroke="#666666" points="518.63,-1210.75 518.63,-1210.75 534.63,-1210.75 534.63,-1210.75 518.63,-1210.75"/>
<polygon fill="none" stroke="#666666" points="518.63,-1193.75 518.63,-1242.75 534.63,-1242.75 534.63,-1193.75 518.63,-1193.75"/>
</a>
</g>
</g>
<!-- Node12&#45;&gt;Node11 -->
<g id="edge15_Node000011_Node000012" class="edge">
<title>Node12&#45;&gt;Node11</title>
<g id="a_edge15_Node000011_Node000012"><a xlink:title=" ">
<path fill="none" stroke="#63b8ff" d="M521.47,-1193.86C518.79,-1181.73 515.47,-1166.65 512.48,-1153.11"/>
<polygon fill="none" stroke="#63b8ff" points="512.53,-1153.34 507.33,-1148.34 509.95,-1141.62 515.15,-1146.62 512.53,-1153.34"/>
</a>
</g>
<text text-anchor="middle" x="530.88" y="-1166.25" font-family="Helvetica,sans-Serif" font-size="10.00" fill="grey"> +keys</text>
</g>
<!-- Node13&#45;&gt;Node3 -->
<g id="edge17_Node000003_Node000013" class="edge">
<title>Node13&#45;&gt;Node3</title>
<g id="a_edge17_Node000003_Node000013"><a xlink:title=" ">
<path fill="none" stroke="#63b8ff" d="M302.65,-242.06C293.21,-251.64 284,-263.01 278.13,-275.25 275.62,-280.48 273.65,-286.11 272.1,-291.88"/>
<polygon fill="none" stroke="#63b8ff" points="272.07,-292.01 274.72,-298.71 269.54,-303.74 266.9,-297.03 272.07,-292.01"/>
</a>
</g>
<text text-anchor="middle" x="297.38" y="-277" font-family="Helvetica,sans-Serif" font-size="10.00" fill="grey"> +nested</text>
</g>
<!-- Node14&#45;&gt;Node2 -->
<g id="edge20_Node000002_Node000014" class="edge">
<title>Node14&#45;&gt;Node2</title>
<g id="a_edge20_Node000002_Node000014"><a xlink:title=" ">
<path fill="none" stroke="#63b8ff" d="M145.87,-312.28C142.7,-303.89 139.91,-295.05 138.13,-286.5 136.99,-281.03 136.2,-275.28 135.67,-269.5"/>
<polygon fill="none" stroke="#63b8ff" points="135.69,-269.8 131.33,-264.06 134.95,-257.83 139.31,-263.57 135.69,-269.8"/>
</a>
</g>
<text text-anchor="middle" x="157.38" y="-277" font-family="Helvetica,sans-Serif" font-size="10.00" fill="grey"> +forcing</text>
</g>
<!-- Node15&#45;&gt;Node1 -->
<g id="edge23_Node000001_Node000015" class="edge">
<title>Node15&#45;&gt;Node1</title>
<g id="a_edge23_Node000001_Node000015"><a xlink:title=" ">
<path fill="none" stroke="#63b8ff" d="M68.13,-535.01C63.85,-508.41 58.63,-468.85 58.63,-434.12 58.63,-434.12 58.63,-434.12 58.63,-211.25 58.63,-185.71 58.63,-157.73 58.63,-132.91"/>
<polygon fill="none" stroke="#63b8ff" points="58.63,-132.77 54.63,-126.77 58.63,-120.77 62.63,-126.77 58.63,-132.77"/>
</a>
</g>
<text text-anchor="middle" x="82.63" y="-353.12" font-family="Helvetica,sans-Serif" font-size="10.00" fill="grey"> &#45;descriptor</text>
</g>
</g>
</svg>

<g id="navigator" transform="translate(0 0)" fill="#404254">
  <rect fill="#f2f5e9" fill-opacity="0.5" stroke="#606060" stroke-width=".5" x="0" y="0" width="60" height="60"/>
  <use id="zoomplus" xlink:href="#zoomPlus" x="17" y="9" onmousedown="handleZoom(evt,'in')"/>
  <use id="zoomminus" xlink:href="#zoomMin" x="42" y="9" onmousedown="handleZoom(evt,'out')"/>
  <use id="reset" xlink:href="#resetDef" x="30" y="36" onmousedown="handleReset()"/>
   <use id="arrowup" xlink:href="#arrowUp" x="0" y="0" onmousedown="handlePan(0,-1)"/>
  <use id="arrowright" xlink:href="#arrowRight" x="0" y="0" onmousedown="handlePan(1,0)"/>
  <use id="arrowdown" xlink:href="#arrowDown" x="0" y="0" onmousedown="handlePan(0,1)"/>
  <use id="arrowleft" xlink:href="#arrowLeft" x="0" y="0" onmousedown="handlePan(-1,0)"/>
</g>
<svg viewBox="0 0 15 15" width="100%" height="30px" preserveAspectRatio="xMaxYMin meet">
 <g id="arrow_out" transform="scale(0.3 0.3)">
  <a xlink:href="structrealization_1_1config_1_1_layer__coll__graph_org.svg" target="_base">
   <rect id="button" ry="5" rx="5" y="6" x="6" height="38" width="38"
        fill="#f2f5e9" fill-opacity="0.5" stroke="#606060" stroke-width="1.0"/>
   <path id="arrow"
     d="M 11.500037,31.436501 C 11.940474,20.09759 22.043105,11.32322 32.158766,21.979434 L 37.068811,17.246167 C 37.068811,17.246167 37.088388,32 37.088388,32 L 22.160133,31.978069 C 22.160133,31.978069 26.997745,27.140456 26.997745,27.140456 C 18.528582,18.264221 13.291696,25.230495 11.500037,31.436501 z"
     style="fill:#404040;"/>
  </a>
 </g>
</svg>

<style type='text/css'>
<![CDATA[
[data-mouse-over-selected='false'] { opacity: 0.7; }
[data-mouse-over-selected='true']  { opacity: 1.0; }
]]>
</style>
<script type="application/ecmascript"><![CDATA[
document.addEventListener('DOMContentLoaded', (event) => {
  highlightEdges();
  highlightAdjacentNodes();
});
]]></script>
</svg>
