<?xml version="1.0" encoding="UTF-8" standalone="no"?>
<!DOCTYPE svg PUBLIC "-//W3C//DTD SVG 1.1//EN"
 "http://www.w3.org/Graphics/SVG/1.1/DTD/svg11.dtd">
<!-- Generated by graphviz version 3.0.0 (20220413.0242)
 -->
<!-- Title: geojson::List Pages: 1 -->
<svg width="167pt" height="381pt"
 viewBox="0.00 0.00 166.50 381.00" xmlns="http://www.w3.org/2000/svg" xmlns:xlink="http://www.w3.org/1999/xlink">
<g id="graph0" class="graph" transform="scale(1 1) rotate(0) translate(4 377)">
<title>geojson::List</title>
<polygon fill="white" stroke="transparent" points="-4,4 -4,-377 162.5,-377 162.5,4 -4,4"/>
<!-- Node1 -->
<g id="node1" class="node">
<title>Node1</title>
<g id="a_node1"><a xlink:title="Struct wrapping a vector of PropertyVariant representing a JSON list.">
<polygon fill="#bfbfbf" stroke="black" points="37,-0.5 37,-57.5 108,-57.5 108,-0.5 37,-0.5"/>
<text text-anchor="middle" x="72.5" y="-45.5" font-family="Helvetica,sans-Serif" font-size="10.00">geojson::List</text>
<polyline fill="none" stroke="black" points="37,-38.5 108,-38.5 "/>
<text text-anchor="middle" x="72.5" y="-26.5" font-family="Helvetica,sans-Serif" font-size="10.00"> </text>
<polyline fill="none" stroke="black" points="37,-19.5 108,-19.5 "/>
<text text-anchor="middle" x="72.5" y="-7.5" font-family="Helvetica,sans-Serif" font-size="10.00"> </text>
</a>
</g>
</g>
<!-- Node2 -->
<g id="node2" class="node">
<title>Node2</title>
<g id="a_node2"><a xlink:title=" ">
<polygon fill="white" stroke="black" points="0,-105.5 0,-162.5 145,-162.5 145,-105.5 0,-105.5"/>
<text text-anchor="middle" x="72.5" y="-150.5" font-family="Helvetica,sans-Serif" font-size="10.00">std::vector&lt; PropertyVariant &gt;</text>
<polyline fill="none" stroke="black" points="0,-143.5 145,-143.5 "/>
<text text-anchor="start" x="8" y="-131.5" font-family="Helvetica,sans-Serif" font-size="10.00">+ elements</text>
<polyline fill="none" stroke="black" points="0,-124.5 145,-124.5 "/>
<text text-anchor="middle" x="72.5" y="-112.5" font-family="Helvetica,sans-Serif" font-size="10.00"> </text>
</a>
</g>
</g>
<!-- Node2&#45;&gt;Node1 -->
<g id="edge1" class="edge">
<title>Node2&#45;&gt;Node1</title>
<path fill="none" stroke="#404040" d="M72.5,-105.4C72.5,-94.55 72.5,-81.87 72.5,-70.05"/>
<polygon fill="none" stroke="#404040" points="72.5,-69.68 68.5,-63.68 72.5,-57.68 76.5,-63.68 72.5,-69.68"/>
<text text-anchor="middle" x="91" y="-79" font-family="Helvetica,sans-Serif" font-size="10.00"> +values</text>
</g>
<!-- Node3 -->
<g id="node3" class="node">
<title>Node3</title>
<g id="a_node3"><a xlink:title=" ">
<polygon fill="white" stroke="black" points="30.5,-210.5 30.5,-267.5 114.5,-267.5 114.5,-210.5 30.5,-210.5"/>
<text text-anchor="middle" x="72.5" y="-255.5" font-family="Helvetica,sans-Serif" font-size="10.00">std::vector&lt; T &gt;</text>
<polyline fill="none" stroke="black" points="30.5,-248.5 114.5,-248.5 "/>
<text text-anchor="middle" x="72.5" y="-236.5" font-family="Helvetica,sans-Serif" font-size="10.00"> </text>
<polyline fill="none" stroke="black" points="30.5,-229.5 114.5,-229.5 "/>
<text text-anchor="middle" x="72.5" y="-217.5" font-family="Helvetica,sans-Serif" font-size="10.00"> </text>
</a>
</g>
</g>
<!-- Node3&#45;&gt;Node2 -->
<g id="edge2" class="edge">
<title>Node3&#45;&gt;Node2</title>
<path fill="none" stroke="orange" d="M72.5,-200.29C72.5,-187.84 72.5,-174.23 72.5,-162.68"/>
<polygon fill="orange" stroke="orange" points="69,-200.4 72.5,-210.4 76,-200.4 69,-200.4"/>
<text text-anchor="middle" x="115.5" y="-184" font-family="Helvetica,sans-Serif" font-size="10.00"> &lt; PropertyVariant &gt;</text>
</g>
<!-- Node4 -->
<g id="node4" class="node">
<title>Node4</title>
<g id="a_node4"><a xlink:title=" ">
<polygon fill="white" stroke="black" points="58,-315.5 58,-372.5 87,-372.5 87,-315.5 58,-315.5"/>
<text text-anchor="middle" x="72.5" y="-360.5" font-family="Helvetica,sans-Serif" font-size="10.00">T</text>
<polyline fill="none" stroke="black" points="58,-353.5 87,-353.5 "/>
<text text-anchor="middle" x="72.5" y="-341.5" font-family="Helvetica,sans-Serif" font-size="10.00"> </text>
<polyline fill="none" stroke="black" points="58,-334.5 87,-334.5 "/>
<text text-anchor="middle" x="72.5" y="-322.5" font-family="Helvetica,sans-Serif" font-size="10.00"> </text>
</a>
</g>
</g>
<!-- Node4&#45;&gt;Node3 -->
<g id="edge3" class="edge">
<title>Node4&#45;&gt;Node3</title>
<path fill="none" stroke="#404040" d="M72.5,-315.4C72.5,-304.55 72.5,-291.87 72.5,-280.05"/>
<polygon fill="none" stroke="#404040" points="72.5,-279.68 68.5,-273.68 72.5,-267.68 76.5,-273.68 72.5,-279.68"/>
<text text-anchor="middle" x="97" y="-289" font-family="Helvetica,sans-Serif" font-size="10.00"> +elements</text>
</g>
</g>
</svg>
