<?xml version="1.0" encoding="UTF-8" standalone="no"?>
<!DOCTYPE svg PUBLIC "-//W3C//DTD SVG 1.1//EN"
 "http://www.w3.org/Graphics/SVG/1.1/DTD/svg11.dtd">
<!-- Generated by graphviz version 12.2.0 (20241103.1931)
 -->
<!-- Title: GridDataSelector Pages: 1 -->
<svg width="280pt" height="676pt"
 viewBox="0.00 0.00 280.25 676.25" xmlns="http://www.w3.org/2000/svg" xmlns:xlink="http://www.w3.org/1999/xlink">
<g id="graph0" class="graph" transform="scale(1 1) rotate(0) translate(4 672.25)">
<title>GridDataSelector</title>
<!-- Node1 -->
<g id="Node000001" class="node">
<title>Node1</title>
<g id="a_Node000001"><a xlink:title=" ">
<polygon fill="#999999" stroke="none" points="152,-293.75 48.5,-293.75 48.5,0 152,0 152,-293.75"/>
<text text-anchor="start" x="63.12" y="-280.25" font-family="Helvetica,sans-Serif" font-size="10.00">GridDataSelector</text>
<text text-anchor="start" x="98.75" y="-265" font-family="Helvetica,sans-Serif" font-size="10.00"> </text>
<text text-anchor="start" x="52.5" y="-249.75" font-family="Helvetica,sans-Serif" font-size="10.00">+</text>
<text text-anchor="start" x="62.5" y="-249.75" font-family="Helvetica,sans-Serif" font-size="10.00">GridDataSelector()</text>
<text text-anchor="start" x="52.5" y="-234.5" font-family="Helvetica,sans-Serif" font-size="10.00">+</text>
<text text-anchor="start" x="62.5" y="-234.5" font-family="Helvetica,sans-Serif" font-size="10.00">GridDataSelector()</text>
<text text-anchor="start" x="52.5" y="-219.25" font-family="Helvetica,sans-Serif" font-size="10.00">+</text>
<text text-anchor="start" x="62.5" y="-219.25" font-family="Helvetica,sans-Serif" font-size="10.00">GridDataSelector()</text>
<text text-anchor="start" x="52.5" y="-204" font-family="Helvetica,sans-Serif" font-size="10.00">+</text>
<text text-anchor="start" x="62.5" y="-204" font-family="Helvetica,sans-Serif" font-size="10.00">GridDataSelector()</text>
<text text-anchor="start" x="52.5" y="-188.75" font-family="Helvetica,sans-Serif" font-size="10.00">+</text>
<text text-anchor="start" x="62.5" y="-188.75" font-family="Helvetica,sans-Serif" font-size="10.00">GridDataSelector()</text>
<text text-anchor="start" x="52.5" y="-173.5" font-family="Helvetica,sans-Serif" font-size="10.00">+</text>
<text text-anchor="start" x="62.5" y="-173.5" font-family="Helvetica,sans-Serif" font-size="10.00">~GridDataSelector()</text>
<text text-anchor="start" x="52.5" y="-158.25" font-family="Helvetica,sans-Serif" font-size="10.00">+</text>
<text text-anchor="start" x="62.5" y="-158.25" font-family="Helvetica,sans-Serif" font-size="10.00">initial_time()</text>
<text text-anchor="start" x="52.5" y="-143" font-family="Helvetica,sans-Serif" font-size="10.00">+</text>
<text text-anchor="start" x="62.5" y="-143" font-family="Helvetica,sans-Serif" font-size="10.00">initial_time()</text>
<text text-anchor="start" x="52.5" y="-127.75" font-family="Helvetica,sans-Serif" font-size="10.00">+</text>
<text text-anchor="start" x="62.5" y="-127.75" font-family="Helvetica,sans-Serif" font-size="10.00">duration()</text>
<text text-anchor="start" x="52.5" y="-112.5" font-family="Helvetica,sans-Serif" font-size="10.00">+</text>
<text text-anchor="start" x="62.5" y="-112.5" font-family="Helvetica,sans-Serif" font-size="10.00">duration()</text>
<text text-anchor="start" x="52.5" y="-97.25" font-family="Helvetica,sans-Serif" font-size="10.00">+</text>
<text text-anchor="start" x="62.5" y="-97.25" font-family="Helvetica,sans-Serif" font-size="10.00">variable()</text>
<text text-anchor="start" x="52.5" y="-82" font-family="Helvetica,sans-Serif" font-size="10.00">+</text>
<text text-anchor="start" x="62.5" y="-82" font-family="Helvetica,sans-Serif" font-size="10.00">variable()</text>
<text text-anchor="start" x="52.5" y="-66.75" font-family="Helvetica,sans-Serif" font-size="10.00">+</text>
<text text-anchor="start" x="62.5" y="-66.75" font-family="Helvetica,sans-Serif" font-size="10.00">units()</text>
<text text-anchor="start" x="52.5" y="-51.5" font-family="Helvetica,sans-Serif" font-size="10.00">+</text>
<text text-anchor="start" x="62.5" y="-51.5" font-family="Helvetica,sans-Serif" font-size="10.00">units()</text>
<text text-anchor="start" x="52.5" y="-36.25" font-family="Helvetica,sans-Serif" font-size="10.00">+</text>
<text text-anchor="start" x="62.5" y="-36.25" font-family="Helvetica,sans-Serif" font-size="10.00">cells()</text>
<text text-anchor="start" x="52.5" y="-21" font-family="Helvetica,sans-Serif" font-size="10.00">+</text>
<text text-anchor="start" x="62.5" y="-21" font-family="Helvetica,sans-Serif" font-size="10.00">cells()</text>
<text text-anchor="start" x="54" y="-5.75" font-family="Helvetica,sans-Serif" font-size="10.00">&#45;</text>
<text text-anchor="start" x="62.5" y="-5.75" font-family="Helvetica,sans-Serif" font-size="10.00">position_()</text>
<polygon fill="#666666" stroke="#666666" points="48.5,-276.5 48.5,-276.5 152,-276.5 152,-276.5 48.5,-276.5"/>
<polygon fill="#666666" stroke="#666666" points="48.5,-261.25 48.5,-261.25 152,-261.25 152,-261.25 48.5,-261.25"/>
<polygon fill="none" stroke="#666666" points="48.5,0 48.5,-293.75 152,-293.75 152,0 48.5,0"/>
</a>
</g>
</g>
<!-- Node2 -->
<g id="Node000002" class="node">
<title>Node2</title>
<g id="a_Node000002"><a xlink:href="struct_selector_config.html" target="_top" xlink:title=" ">
<polygon fill="white" stroke="none" points="94.5,-406 0,-406 0,-341 94.5,-341 94.5,-406"/>
<text text-anchor="start" x="15.75" y="-392.5" font-family="Helvetica,sans-Serif" font-size="10.00">SelectorConfig</text>
<text text-anchor="start" x="4" y="-377.25" font-family="Helvetica,sans-Serif" font-size="10.00">+</text>
<text text-anchor="start" x="14" y="-377.25" font-family="Helvetica,sans-Serif" font-size="10.00">init_time</text>
<text text-anchor="start" x="4" y="-362" font-family="Helvetica,sans-Serif" font-size="10.00">+</text>
<text text-anchor="start" x="14" y="-362" font-family="Helvetica,sans-Serif" font-size="10.00">duration_seconds</text>
<text text-anchor="start" x="45.75" y="-346.75" font-family="Helvetica,sans-Serif" font-size="10.00"> </text>
<polygon fill="#666666" stroke="#666666" points="0,-388.75 0,-388.75 94.5,-388.75 94.5,-388.75 0,-388.75"/>
<polygon fill="#666666" stroke="#666666" points="0,-358.25 0,-358.25 12,-358.25 12,-358.25 0,-358.25"/>
<polygon fill="#666666" stroke="#666666" points="12,-358.25 12,-358.25 94.5,-358.25 94.5,-358.25 12,-358.25"/>
<polygon fill="none" stroke="#666666" points="0,-341 0,-406 94.5,-406 94.5,-341 0,-341"/>
</a>
</g>
</g>
<!-- Node2&#45;&gt;Node1 -->
<g id="edge1_Node000001_Node000002" class="edge">
<title>Node2&#45;&gt;Node1</title>
<g id="a_edge1_Node000001_Node000002"><a xlink:title=" ">
<path fill="none" stroke="#63b8ff" d="M54.62,-341.27C57.04,-331.02 59.91,-318.85 63.02,-305.67"/>
<polygon fill="none" stroke="#63b8ff" points="62.97,-305.87 60.46,-299.11 65.73,-294.19 68.24,-300.95 62.97,-305.87"/>
</a>
</g>
<text text-anchor="middle" x="79.46" y="-313.5" font-family="Helvetica,sans-Serif" font-size="10.00" fill="grey"> &#45;config_</text>
</g>
<!-- Node3 -->
<g id="Node000003" class="node">
<title>Node3</title>
<g id="a_Node000003"><a xlink:title=" ">
<polygon fill="white" stroke="none" points="72.25,-537.12 22.25,-537.12 22.25,-487.38 72.25,-487.38 72.25,-537.12"/>
<text text-anchor="start" x="26.25" y="-523.62" font-family="Helvetica,sans-Serif" font-size="10.00">std::string</text>
<text text-anchor="start" x="45.75" y="-508.38" font-family="Helvetica,sans-Serif" font-size="10.00"> </text>
<text text-anchor="start" x="45.75" y="-493.12" font-family="Helvetica,sans-Serif" font-size="10.00"> </text>
<polygon fill="#666666" stroke="#666666" points="22.25,-519.88 22.25,-519.88 72.25,-519.88 72.25,-519.88 22.25,-519.88"/>
<polygon fill="#666666" stroke="#666666" points="22.25,-504.62 22.25,-504.62 72.25,-504.62 72.25,-504.62 22.25,-504.62"/>
<polygon fill="none" stroke="#666666" points="22.25,-487.38 22.25,-537.12 72.25,-537.12 72.25,-487.38 22.25,-487.38"/>
</a>
</g>
</g>
<!-- Node3&#45;&gt;Node2 -->
<g id="edge2_Node000002_Node000003" class="edge">
<title>Node3&#45;&gt;Node2</title>
<g id="a_edge2_Node000002_Node000003"><a xlink:title=" ">
<path fill="none" stroke="#63b8ff" d="M47.25,-487.43C47.25,-468.56 47.25,-441.67 47.25,-418.86"/>
<polygon fill="none" stroke="#63b8ff" points="47.25,-418.9 43.25,-412.9 47.25,-406.9 51.25,-412.9 47.25,-418.9"/>
</a>
</g>
<text text-anchor="middle" x="82.88" y="-437" font-family="Helvetica,sans-Serif" font-size="10.00" fill="grey"> +variable_name</text>
<text text-anchor="middle" x="82.88" y="-425.75" font-family="Helvetica,sans-Serif" font-size="10.00" fill="grey">+variable_units</text>
</g>
<!-- Node4 -->
<g id="Node000004" class="node">
<title>Node4</title>
<g id="a_Node000004"><a xlink:title=" ">
<polygon fill="white" stroke="none" points="89.5,-668.25 5,-668.25 5,-607.25 89.5,-607.25 89.5,-668.25"/>
<text text-anchor="start" x="9" y="-654.75" font-family="Helvetica,sans-Serif" font-size="10.00">std::basic_string&lt;</text>
<text text-anchor="start" x="31.88" y="-643.5" font-family="Helvetica,sans-Serif" font-size="10.00"> Char &gt;</text>
<text text-anchor="start" x="45.75" y="-628.25" font-family="Helvetica,sans-Serif" font-size="10.00"> </text>
<text text-anchor="start" x="45.75" y="-613" font-family="Helvetica,sans-Serif" font-size="10.00"> </text>
<polygon fill="#666666" stroke="#666666" points="5,-639.75 5,-639.75 89.5,-639.75 89.5,-639.75 5,-639.75"/>
<polygon fill="#666666" stroke="#666666" points="5,-624.5 5,-624.5 89.5,-624.5 89.5,-624.5 5,-624.5"/>
<polygon fill="none" stroke="#666666" points="5,-607.25 5,-668.25 89.5,-668.25 89.5,-607.25 5,-607.25"/>
</a>
</g>
</g>
<!-- Node4&#45;&gt;Node3 -->
<g id="edge3_Node000003_Node000004" class="edge">
<title>Node4&#45;&gt;Node3</title>
<g id="a_edge3_Node000003_Node000004"><a xlink:title=" ">
<path fill="none" stroke="#63b8ff" d="M47.25,-596.08C47.25,-576.48 47.25,-553.65 47.25,-536.93"/>
<polygon fill="none" stroke="#63b8ff" points="43.75,-595.97 47.25,-605.97 50.75,-595.97 43.75,-595.97"/>
</a>
</g>
</g>
<!-- Node5 -->
<g id="Node000005" class="node">
<title>Node5</title>
<g id="a_Node000005"><a xlink:title=" ">
<polygon fill="white" stroke="none" points="198.25,-398.38 112.25,-398.38 112.25,-348.62 198.25,-348.62 198.25,-398.38"/>
<text text-anchor="start" x="116.25" y="-384.88" font-family="Helvetica,sans-Serif" font-size="10.00">std::vector&lt; Cell &gt;</text>
<text text-anchor="start" x="153.75" y="-369.62" font-family="Helvetica,sans-Serif" font-size="10.00"> </text>
<text text-anchor="start" x="153.75" y="-354.38" font-family="Helvetica,sans-Serif" font-size="10.00"> </text>
<polygon fill="#666666" stroke="#666666" points="112.25,-381.12 112.25,-381.12 198.25,-381.12 198.25,-381.12 112.25,-381.12"/>
<polygon fill="#666666" stroke="#666666" points="112.25,-365.88 112.25,-365.88 198.25,-365.88 198.25,-365.88 112.25,-365.88"/>
<polygon fill="none" stroke="#666666" points="112.25,-348.62 112.25,-398.38 198.25,-398.38 198.25,-348.62 112.25,-348.62"/>
</a>
</g>
</g>
<!-- Node5&#45;&gt;Node1 -->
<g id="edge4_Node000001_Node000005" class="edge">
<title>Node5&#45;&gt;Node1</title>
<g id="a_edge4_Node000001_Node000005"><a xlink:title=" ">
<path fill="none" stroke="#63b8ff" d="M149.47,-348.89C146.65,-337.37 143,-322.45 138.95,-305.93"/>
<polygon fill="none" stroke="#63b8ff" points="139.01,-306.18 133.7,-301.31 136.16,-294.53 141.47,-299.4 139.01,-306.18"/>
</a>
</g>
<text text-anchor="middle" x="157.33" y="-313.5" font-family="Helvetica,sans-Serif" font-size="10.00" fill="grey"> &#45;cells_</text>
</g>
<!-- Node6 -->
<g id="Node000006" class="node">
<title>Node6</title>
<g id="a_Node000006"><a xlink:href="struct_cell.html" target="_top" xlink:title=" ">
<polygon fill="white" stroke="none" points="168.88,-560 127.62,-560 127.62,-464.5 168.88,-464.5 168.88,-560"/>
<text text-anchor="start" x="140" y="-546.5" font-family="Helvetica,sans-Serif" font-size="10.00">Cell</text>
<text text-anchor="start" x="131.62" y="-531.25" font-family="Helvetica,sans-Serif" font-size="10.00">+</text>
<text text-anchor="start" x="141.62" y="-531.25" font-family="Helvetica,sans-Serif" font-size="10.00">x</text>
<text text-anchor="start" x="131.62" y="-516" font-family="Helvetica,sans-Serif" font-size="10.00">+</text>
<text text-anchor="start" x="141.62" y="-516" font-family="Helvetica,sans-Serif" font-size="10.00">y</text>
<text text-anchor="start" x="131.62" y="-500.75" font-family="Helvetica,sans-Serif" font-size="10.00">+</text>
<text text-anchor="start" x="141.62" y="-500.75" font-family="Helvetica,sans-Serif" font-size="10.00">z</text>
<text text-anchor="start" x="131.62" y="-485.5" font-family="Helvetica,sans-Serif" font-size="10.00">+</text>
<text text-anchor="start" x="141.62" y="-485.5" font-family="Helvetica,sans-Serif" font-size="10.00">value</text>
<text text-anchor="start" x="146.75" y="-470.25" font-family="Helvetica,sans-Serif" font-size="10.00"> </text>
<polygon fill="#666666" stroke="#666666" points="127.62,-542.75 127.62,-542.75 168.88,-542.75 168.88,-542.75 127.62,-542.75"/>
<polygon fill="#666666" stroke="#666666" points="127.62,-481.75 127.62,-481.75 139.62,-481.75 139.62,-481.75 127.62,-481.75"/>
<polygon fill="#666666" stroke="#666666" points="139.62,-481.75 139.62,-481.75 168.88,-481.75 168.88,-481.75 139.62,-481.75"/>
<polygon fill="none" stroke="#666666" points="127.62,-464.5 127.62,-560 168.88,-560 168.88,-464.5 127.62,-464.5"/>
</a>
</g>
</g>
<!-- Node6&#45;&gt;Node5 -->
<g id="edge5_Node000005_Node000006" class="edge">
<title>Node6&#45;&gt;Node5</title>
<g id="a_edge5_Node000005_Node000006"><a xlink:title=" ">
<path fill="none" stroke="#63b8ff" d="M150.26,-464.6C150.86,-451.47 151.55,-437.17 152.25,-424 152.47,-419.79 152.72,-415.37 152.98,-410.99"/>
<polygon fill="none" stroke="#63b8ff" points="152.97,-411.04 149.34,-404.81 153.69,-399.06 157.33,-405.29 152.97,-411.04"/>
</a>
</g>
<text text-anchor="middle" x="176.25" y="-431.38" font-family="Helvetica,sans-Serif" font-size="10.00" fill="grey"> +elements</text>
</g>
<!-- Node7 -->
<g id="Node000007" class="node">
<title>Node7</title>
<g id="a_Node000007"><a xlink:title=" ">
<polygon fill="white" stroke="none" points="262,-537.12 186.5,-537.12 186.5,-487.38 262,-487.38 262,-537.12"/>
<text text-anchor="start" x="190.5" y="-523.62" font-family="Helvetica,sans-Serif" font-size="10.00">std::vector&lt; T &gt;</text>
<text text-anchor="start" x="222.75" y="-508.38" font-family="Helvetica,sans-Serif" font-size="10.00"> </text>
<text text-anchor="start" x="222.75" y="-493.12" font-family="Helvetica,sans-Serif" font-size="10.00"> </text>
<polygon fill="#666666" stroke="#666666" points="186.5,-519.88 186.5,-519.88 262,-519.88 262,-519.88 186.5,-519.88"/>
<polygon fill="#666666" stroke="#666666" points="186.5,-504.62 186.5,-504.62 262,-504.62 262,-504.62 186.5,-504.62"/>
<polygon fill="none" stroke="#666666" points="186.5,-487.38 186.5,-537.12 262,-537.12 262,-487.38 186.5,-487.38"/>
</a>
</g>
</g>
<!-- Node7&#45;&gt;Node5 -->
<g id="edge6_Node000005_Node000007" class="edge">
<title>Node7&#45;&gt;Node5</title>
<g id="a_edge6_Node000005_Node000007"><a xlink:title=" ">
<path fill="none" stroke="orange" d="M218.62,-476.6C214.97,-459.98 209.17,-440.21 200.25,-424 195.15,-414.74 187.99,-405.81 180.88,-398.14"/>
<polygon fill="orange" stroke="orange" points="215.12,-476.93 220.52,-486.04 221.98,-475.54 215.12,-476.93"/>
</a>
</g>
<text text-anchor="middle" x="226.97" y="-431.38" font-family="Helvetica,sans-Serif" font-size="10.00" fill="grey"> &lt; Cell &gt;</text>
</g>
<!-- Node8 -->
<g id="Node000008" class="node">
<title>Node8</title>
<g id="a_Node000008"><a xlink:title=" ">
<polygon fill="white" stroke="none" points="231.25,-662.62 217.25,-662.62 217.25,-612.88 231.25,-612.88 231.25,-662.62"/>
<text text-anchor="start" x="221.25" y="-649.12" font-family="Helvetica,sans-Serif" font-size="10.00">T</text>
<text text-anchor="start" x="222.75" y="-633.88" font-family="Helvetica,sans-Serif" font-size="10.00"> </text>
<text text-anchor="start" x="222.75" y="-618.62" font-family="Helvetica,sans-Serif" font-size="10.00"> </text>
<polygon fill="#666666" stroke="#666666" points="217.25,-645.38 217.25,-645.38 231.25,-645.38 231.25,-645.38 217.25,-645.38"/>
<polygon fill="#666666" stroke="#666666" points="217.25,-630.12 217.25,-630.12 231.25,-630.12 231.25,-630.12 217.25,-630.12"/>
<polygon fill="none" stroke="#666666" points="217.25,-612.88 217.25,-662.62 231.25,-662.62 231.25,-612.88 217.25,-612.88"/>
</a>
</g>
</g>
<!-- Node8&#45;&gt;Node7 -->
<g id="edge7_Node000007_Node000008" class="edge">
<title>Node8&#45;&gt;Node7</title>
<g id="a_edge7_Node000007_Node000008"><a xlink:title=" ">
<path fill="none" stroke="#63b8ff" d="M224.25,-612.94C224.25,-595.08 224.25,-570.32 224.25,-549.94"/>
<polygon fill="none" stroke="#63b8ff" points="224.25,-549.89 220.25,-543.89 224.25,-537.89 228.25,-543.89 224.25,-549.89"/>
</a>
</g>
<text text-anchor="middle" x="248.25" y="-579.75" font-family="Helvetica,sans-Serif" font-size="10.00" fill="grey"> +elements</text>
</g>
</g>
</svg>
