<?xml version="1.0" encoding="UTF-8" standalone="no"?>
<!DOCTYPE svg PUBLIC "-//W3C//DTD SVG 1.1//EN"
 "http://www.w3.org/Graphics/SVG/1.1/DTD/svg11.dtd">
<!-- Generated by graphviz version 7.0.5 (20221223.1930)
 -->
<!-- Title: geojson::List Pages: 1 -->
<svg width="477pt" height="577pt"
 viewBox="0.00 0.00 477.00 577.00" xmlns="http://www.w3.org/2000/svg" xmlns:xlink="http://www.w3.org/1999/xlink">
<g id="graph0" class="graph" transform="scale(1 1) rotate(0) translate(4 573)">
<title>geojson::List</title>
<!-- Node1 -->
<g id="node1" class="node">
<title>Node1</title>
<g id="a_node1"><a xlink:title="Struct wrapping a vector of JSONProperty representing a JSON list.">
<polygon fill="#999999" stroke="#666666" points="78,-239 0,-239 0,-165 78,-165 78,-239"/>
<text text-anchor="middle" x="39" y="-227" font-family="Helvetica,sans-Serif" font-size="10.00">{geojson::List</text>
<text text-anchor="start" x="8" y="-216" font-family="Helvetica,sans-Serif" font-size="10.00">||+ List()</text>
<text text-anchor="start" x="8" y="-205" font-family="Helvetica,sans-Serif" font-size="10.00">+ get_values()</text>
<text text-anchor="start" x="8" y="-194" font-family="Helvetica,sans-Serif" font-size="10.00">+ push_back()</text>
<text text-anchor="start" x="8" y="-183" font-family="Helvetica,sans-Serif" font-size="10.00">+ operator==()</text>
<text text-anchor="middle" x="39" y="-172" font-family="Helvetica,sans-Serif" font-size="10.00">}</text>
</a>
</g>
</g>
<!-- Node2 -->
<g id="node2" class="node">
<title>Node2</title>
<g id="a_node2"><a xlink:title=" ">
<polygon fill="white" stroke="#666666" points="149.5,-404 42.5,-404 42.5,-363 149.5,-363 149.5,-404"/>
<text text-anchor="start" x="50.5" y="-392" font-family="Helvetica,sans-Serif" font-size="10.00">{std::vector&lt; geojson</text>
<text text-anchor="middle" x="96" y="-381" font-family="Helvetica,sans-Serif" font-size="10.00">::JSONProperty &gt;</text>
<text text-anchor="middle" x="96" y="-370" font-family="Helvetica,sans-Serif" font-size="10.00">||}</text>
</a>
</g>
</g>
<!-- Node2&#45;&gt;Node1 -->
<g id="edge1" class="edge">
<title>Node2&#45;&gt;Node1</title>
<path fill="none" stroke="#404040" d="M55.58,-362.65C49.32,-357.76 43.72,-351.9 40,-345 24.85,-316.86 24.79,-280.8 28.42,-252.06"/>
<polygon fill="none" stroke="#404040" points="28.4,-252.19 25.33,-245.66 30.17,-240.32 33.24,-246.85 28.4,-252.19"/>
<text text-anchor="middle" x="57" y="-337" font-family="Helvetica,sans-Serif" font-size="10.00"> &#45;values</text>
</g>
<!-- Node3 -->
<g id="node3" class="node">
<title>Node3</title>
<g id="a_node3"><a xlink:href="classgeojson_1_1_j_s_o_n_property.html" target="_top" xlink:title="@TODO: Convert JSONProperty into a variant of the supported types">
<polygon fill="white" stroke="#666666" points="226.5,-316 105.5,-316 105.5,-88 226.5,-88 226.5,-316"/>
<text text-anchor="middle" x="166" y="-304" font-family="Helvetica,sans-Serif" font-size="10.00">{geojson::JSONProperty</text>
<text text-anchor="start" x="113.5" y="-293" font-family="Helvetica,sans-Serif" font-size="10.00">|&#45; type</text>
<text text-anchor="start" x="113.5" y="-282" font-family="Helvetica,sans-Serif" font-size="10.00">&#45; data</text>
<text text-anchor="start" x="113.5" y="-271" font-family="Helvetica,sans-Serif" font-size="10.00">|+ JSONProperty()</text>
<text text-anchor="start" x="113.5" y="-260" font-family="Helvetica,sans-Serif" font-size="10.00">+ JSONProperty()</text>
<text text-anchor="start" x="113.5" y="-249" font-family="Helvetica,sans-Serif" font-size="10.00">+ JSONProperty()</text>
<text text-anchor="start" x="113.5" y="-238" font-family="Helvetica,sans-Serif" font-size="10.00">+ JSONProperty()</text>
<text text-anchor="start" x="113.5" y="-227" font-family="Helvetica,sans-Serif" font-size="10.00">+ JSONProperty()</text>
<text text-anchor="start" x="113.5" y="-216" font-family="Helvetica,sans-Serif" font-size="10.00">+ JSONProperty()</text>
<text text-anchor="start" x="113.5" y="-205" font-family="Helvetica,sans-Serif" font-size="10.00">+ JSONProperty()</text>
<text text-anchor="start" x="113.5" y="-194" font-family="Helvetica,sans-Serif" font-size="10.00">+ JSONProperty()</text>
<text text-anchor="start" x="113.5" y="-183" font-family="Helvetica,sans-Serif" font-size="10.00">+ JSONProperty()</text>
<text text-anchor="start" x="113.5" y="-172" font-family="Helvetica,sans-Serif" font-size="10.00">+ JSONProperty()</text>
<text text-anchor="start" x="113.5" y="-161" font-family="Helvetica,sans-Serif" font-size="10.00">+ ~JSONProperty()</text>
<text text-anchor="start" x="113.5" y="-150" font-family="Helvetica,sans-Serif" font-size="10.00">+ JSONProperty()</text>
<text text-anchor="start" x="113.5" y="-139" font-family="Helvetica,sans-Serif" font-size="10.00">+ JSONProperty()</text>
<text text-anchor="start" x="113.5" y="-128" font-family="Helvetica,sans-Serif" font-size="10.00">+ get_type()</text>
<text text-anchor="start" x="113.5" y="-117" font-family="Helvetica,sans-Serif" font-size="10.00">+ as_natural_number()</text>
<text text-anchor="start" x="113.5" y="-106" font-family="Helvetica,sans-Serif" font-size="10.00">and 16 more...</text>
<text text-anchor="middle" x="166" y="-95" font-family="Helvetica,sans-Serif" font-size="10.00">}</text>
</a>
</g>
</g>
<!-- Node2&#45;&gt;Node3 -->
<g id="edge11" class="edge">
<title>Node2&#45;&gt;Node3</title>
<path fill="none" stroke="#404040" d="M92.02,-362.88C90.91,-353.94 90.58,-343.31 93,-334 94.93,-326.57 97.39,-319.1 100.22,-311.72"/>
<polygon fill="none" stroke="#404040" points="100.22,-311.73 98.81,-304.65 104.8,-300.63 106.21,-307.71 100.22,-311.73"/>
<text text-anchor="middle" x="116.5" y="-337" font-family="Helvetica,sans-Serif" font-size="10.00"> &#45;value_list</text>
</g>
<!-- Node3&#45;&gt;Node2 -->
<g id="edge2" class="edge">
<title>Node3&#45;&gt;Node2</title>
<path fill="none" stroke="#404040" d="M156.58,-316.21C153.36,-326.3 149.24,-336.07 144,-345 142.14,-348.16 139.91,-351.16 137.43,-353.97"/>
<polygon fill="none" stroke="#404040" points="137.56,-353.85 136.02,-360.9 128.93,-362.2 130.46,-355.15 137.56,-353.85"/>
<text text-anchor="middle" x="173.5" y="-337" font-family="Helvetica,sans-Serif" font-size="10.00"> +elements</text>
</g>
<!-- Node6 -->
<g id="node6" class="node">
<title>Node6</title>
<g id="a_node6"><a xlink:title=" ">
<polygon fill="white" stroke="#666666" points="306,-41 196,-41 196,0 306,0 306,-41"/>
<text text-anchor="start" x="204" y="-29" font-family="Helvetica,sans-Serif" font-size="10.00">{std::map&lt; std::string,</text>
<text text-anchor="middle" x="251" y="-18" font-family="Helvetica,sans-Serif" font-size="10.00"> JSONProperty &gt;</text>
<text text-anchor="middle" x="251" y="-7" font-family="Helvetica,sans-Serif" font-size="10.00">||}</text>
</a>
</g>
</g>
<!-- Node3&#45;&gt;Node6 -->
<g id="edge7" class="edge">
<title>Node3&#45;&gt;Node6</title>
<path fill="none" stroke="#404040" d="M158.57,-87.69C161.22,-77.5 165.22,-67.75 171,-59 174.71,-53.38 179.5,-48.59 184.89,-44.51"/>
<polygon fill="none" stroke="#404040" points="184.99,-44.44 187.89,-37.84 195.1,-37.97 192.2,-44.58 184.99,-44.44"/>
<text text-anchor="middle" x="195.5" y="-62" font-family="Helvetica,sans-Serif" font-size="10.00"> +elements</text>
</g>
<!-- Node4 -->
<g id="node4" class="node">
<title>Node4</title>
<g id="a_node4"><a xlink:title=" ">
<polygon fill="white" stroke="#666666" points="269,-398.5 207,-398.5 207,-368.5 269,-368.5 269,-398.5"/>
<text text-anchor="middle" x="238" y="-386.5" font-family="Helvetica,sans-Serif" font-size="10.00">{std::string</text>
<text text-anchor="middle" x="238" y="-375.5" font-family="Helvetica,sans-Serif" font-size="10.00">||}</text>
</a>
</g>
</g>
<!-- Node4&#45;&gt;Node3 -->
<g id="edge3" class="edge">
<title>Node4&#45;&gt;Node3</title>
<path fill="none" stroke="#404040" d="M232.23,-368.11C228.28,-358.27 222.62,-344.17 216.26,-328.29"/>
<polygon fill="none" stroke="#404040" points="216.31,-328.43 210.36,-324.35 211.84,-317.29 217.79,-321.37 216.31,-328.43"/>
<text text-anchor="middle" x="232.5" y="-337" font-family="Helvetica,sans-Serif" font-size="10.00"> &#45;key</text>
</g>
<!-- Node4&#45;&gt;Node6 -->
<g id="edge6" class="edge">
<title>Node4&#45;&gt;Node6</title>
<path fill="none" stroke="#404040" d="M242.12,-368.02C243.92,-361.11 245.88,-352.69 247,-345 264.69,-223.88 258.67,-192.36 262,-70 262.13,-65.11 262.7,-63.84 262,-59 261.75,-57.25 261.43,-55.46 261.07,-53.66"/>
<polygon fill="none" stroke="#404040" points="261.06,-53.63 255.71,-48.79 258.12,-41.99 263.47,-46.83 261.06,-53.63"/>
<text text-anchor="middle" x="275.5" y="-199.5" font-family="Helvetica,sans-Serif" font-size="10.00"> +keys</text>
</g>
<!-- Node5 -->
<g id="node5" class="node">
<title>Node5</title>
<g id="a_node5"><a xlink:title=" ">
<polygon fill="white" stroke="#666666" points="278,-492 182,-492 182,-451 278,-451 278,-492"/>
<text text-anchor="start" x="190" y="-480" font-family="Helvetica,sans-Serif" font-size="10.00">{std::basic_string&lt;</text>
<text text-anchor="middle" x="230" y="-469" font-family="Helvetica,sans-Serif" font-size="10.00"> Char &gt;</text>
<text text-anchor="middle" x="230" y="-458" font-family="Helvetica,sans-Serif" font-size="10.00">||}</text>
</a>
</g>
</g>
<!-- Node5&#45;&gt;Node4 -->
<g id="edge4" class="edge">
<title>Node5&#45;&gt;Node4</title>
<path fill="none" stroke="#63b8ff" d="M232.88,-439.49C234.17,-425.66 235.63,-410.02 236.65,-398.97"/>
<polygon fill="none" stroke="#63b8ff" points="229.44,-438.77 232,-449.05 236.41,-439.41 229.44,-438.77"/>
</g>
<!-- Node6&#45;&gt;Node3 -->
<g id="edge5" class="edge">
<title>Node6&#45;&gt;Node3</title>
<path fill="none" stroke="#404040" d="M238.06,-41.44C234.63,-47.03 231.04,-53.18 228,-59 225.08,-64.6 222.18,-70.36 219.31,-76.21"/>
<polygon fill="none" stroke="#404040" points="219.44,-75.93 220.44,-83.07 214.23,-86.74 213.23,-79.6 219.44,-75.93"/>
<text text-anchor="middle" x="245" y="-62" font-family="Helvetica,sans-Serif" font-size="10.00"> &#45;values</text>
</g>
<!-- Node7 -->
<g id="node7" class="node">
<title>Node7</title>
<g id="a_node7"><a xlink:title=" ">
<polygon fill="white" stroke="#666666" points="387.5,-486.5 296.5,-486.5 296.5,-456.5 387.5,-456.5 387.5,-486.5"/>
<text text-anchor="middle" x="342" y="-474.5" font-family="Helvetica,sans-Serif" font-size="10.00">{std::map&lt; K, T &gt;</text>
<text text-anchor="middle" x="342" y="-463.5" font-family="Helvetica,sans-Serif" font-size="10.00">||}</text>
</a>
</g>
</g>
<!-- Node7&#45;&gt;Node6 -->
<g id="edge8" class="edge">
<title>Node7&#45;&gt;Node6</title>
<path fill="none" stroke="orange" d="M342.51,-444.98C342.97,-382.26 339.43,-216.35 294,-88 287.99,-71.02 276.87,-54.01 267.45,-41.44"/>
<polygon fill="orange" stroke="orange" points="339.01,-444.55 342.39,-454.59 346.01,-444.63 339.01,-444.55"/>
<text text-anchor="middle" x="404" y="-337" font-family="Helvetica,sans-Serif" font-size="10.00"> &lt; std::string, JSONProperty &gt;</text>
</g>
<!-- Node8 -->
<g id="node8" class="node">
<title>Node8</title>
<g id="a_node8"><a xlink:title=" ">
<polygon fill="white" stroke="#666666" points="356.5,-569 327.5,-569 327.5,-539 356.5,-539 356.5,-569"/>
<text text-anchor="middle" x="342" y="-557" font-family="Helvetica,sans-Serif" font-size="10.00">{K</text>
<text text-anchor="middle" x="342" y="-546" font-family="Helvetica,sans-Serif" font-size="10.00">||}</text>
</a>
</g>
</g>
<!-- Node8&#45;&gt;Node7 -->
<g id="edge9" class="edge">
<title>Node8&#45;&gt;Node7</title>
<path fill="none" stroke="#404040" d="M342,-538.61C342,-527.85 342,-512.81 342,-499.8"/>
<polygon fill="none" stroke="#404040" points="342,-499.67 338,-493.67 342,-487.67 346,-493.67 342,-499.67"/>
<text text-anchor="middle" x="356.5" y="-513" font-family="Helvetica,sans-Serif" font-size="10.00"> +keys</text>
</g>
<!-- Node9 -->
<g id="node9" class="node">
<title>Node9</title>
<g id="a_node9"><a xlink:title=" ">
<polygon fill="white" stroke="#666666" points="229.5,-569 200.5,-569 200.5,-539 229.5,-539 229.5,-569"/>
<text text-anchor="middle" x="215" y="-557" font-family="Helvetica,sans-Serif" font-size="10.00">{T</text>
<text text-anchor="middle" x="215" y="-546" font-family="Helvetica,sans-Serif" font-size="10.00">||}</text>
</a>
</g>
</g>
<!-- Node9&#45;&gt;Node7 -->
<g id="edge10" class="edge">
<title>Node9&#45;&gt;Node7</title>
<path fill="none" stroke="#404040" d="M229.57,-543.77C248.75,-531.61 283.05,-509.86 308.74,-493.58"/>
<polygon fill="none" stroke="#404040" points="308.6,-493.67 311.53,-487.08 318.74,-487.24 315.81,-493.83 308.6,-493.67"/>
<text text-anchor="middle" x="306.5" y="-513" font-family="Helvetica,sans-Serif" font-size="10.00"> +elements</text>
</g>
<!-- Node10 -->
<g id="node10" class="node">
<title>Node10</title>
<g id="a_node10"><a xlink:title=" ">
<polygon fill="white" stroke="#666666" points="157.5,-486.5 70.5,-486.5 70.5,-456.5 157.5,-456.5 157.5,-486.5"/>
<text text-anchor="middle" x="114" y="-474.5" font-family="Helvetica,sans-Serif" font-size="10.00">{std::vector&lt; T &gt;</text>
<text text-anchor="middle" x="114" y="-463.5" font-family="Helvetica,sans-Serif" font-size="10.00">||}</text>
</a>
</g>
</g>
<!-- Node9&#45;&gt;Node10 -->
<g id="edge13" class="edge">
<title>Node9&#45;&gt;Node10</title>
<path fill="none" stroke="#404040" d="M200.1,-541.12C184.89,-529 160.92,-509.9 142.13,-494.92"/>
<polygon fill="none" stroke="#404040" points="142.13,-494.92 134.94,-494.31 132.74,-487.44 139.93,-488.05 142.13,-494.92"/>
<text text-anchor="middle" x="197.5" y="-513" font-family="Helvetica,sans-Serif" font-size="10.00"> +elements</text>
</g>
<!-- Node10&#45;&gt;Node2 -->
<g id="edge12" class="edge">
<title>Node10&#45;&gt;Node2</title>
<path fill="none" stroke="orange" d="M108.7,-445.2C105.96,-432.11 102.67,-416.37 100.12,-404.19"/>
<polygon fill="orange" stroke="orange" points="105.24,-445.75 110.72,-454.82 112.09,-444.31 105.24,-445.75"/>
<text text-anchor="middle" x="166.5" y="-425" font-family="Helvetica,sans-Serif" font-size="10.00"> &lt; geojson::JSONProperty &gt;</text>
</g>
</g>
</svg>
