<?xml version="1.0" encoding="UTF-8" standalone="no"?>
<!DOCTYPE svg PUBLIC "-//W3C//DTD SVG 1.1//EN"
 "http://www.w3.org/Graphics/SVG/1.1/DTD/svg11.dtd">
<!-- Generated by graphviz version 7.0.5 (20221223.1930)
 -->
<!-- Title: ngen::srs::epsg Pages: 1 -->
<svg width="124pt" height="214pt"
 viewBox="0.00 0.00 124.00 214.00" xmlns="http://www.w3.org/2000/svg" xmlns:xlink="http://www.w3.org/1999/xlink">
<g id="graph0" class="graph" transform="scale(1 1) rotate(0) translate(4 210)">
<title>ngen::srs::epsg</title>
<!-- Node1 -->
<g id="node1" class="node">
<title>Node1</title>
<g id="a_node1"><a xlink:title=" ">
<polygon fill="#999999" stroke="#666666" points="94,-41 10,-41 10,0 94,0 94,-41"/>
<text text-anchor="middle" x="52" y="-29" font-family="Helvetica,sans-Serif" font-size="10.00">{ngen::srs::epsg</text>
<text text-anchor="start" x="18" y="-18" font-family="Helvetica,sans-Serif" font-size="10.00">||+ get()</text>
<text text-anchor="middle" x="52" y="-7" font-family="Helvetica,sans-Serif" font-size="10.00">}</text>
</a>
</g>
</g>
<!-- Node2 -->
<g id="node2" class="node">
<title>Node2</title>
<g id="a_node2"><a xlink:title=" ">
<polygon fill="white" stroke="#666666" points="104,-129 0,-129 0,-88 104,-88 104,-129"/>
<text text-anchor="start" x="8" y="-117" font-family="Helvetica,sans-Serif" font-size="10.00">{std::unordered_map</text>
<text text-anchor="middle" x="52" y="-106" font-family="Helvetica,sans-Serif" font-size="10.00">&lt; K, T &gt;</text>
<text text-anchor="middle" x="52" y="-95" font-family="Helvetica,sans-Serif" font-size="10.00">||}</text>
</a>
</g>
</g>
<!-- Node2&#45;&gt;Node1 -->
<g id="edge1" class="edge">
<title>Node2&#45;&gt;Node1</title>
<path fill="none" stroke="#404040" d="M52,-87.55C52,-77.68 52,-65.49 52,-54.29"/>
<polygon fill="none" stroke="#404040" points="52,-54.24 48,-48.24 52,-42.24 56,-48.24 52,-54.24"/>
<text text-anchor="middle" x="67" y="-62" font-family="Helvetica,sans-Serif" font-size="10.00"> &#45;defs_</text>
</g>
<!-- Node3 -->
<g id="node3" class="node">
<title>Node3</title>
<g id="a_node3"><a xlink:title=" ">
<polygon fill="white" stroke="#666666" points="40.5,-206 11.5,-206 11.5,-176 40.5,-176 40.5,-206"/>
<text text-anchor="middle" x="26" y="-194" font-family="Helvetica,sans-Serif" font-size="10.00">{K</text>
<text text-anchor="middle" x="26" y="-183" font-family="Helvetica,sans-Serif" font-size="10.00">||}</text>
</a>
</g>
</g>
<!-- Node3&#45;&gt;Node2 -->
<g id="edge2" class="edge">
<title>Node3&#45;&gt;Node2</title>
<path fill="none" stroke="#404040" d="M24.37,-175.73C23.87,-167.2 24.08,-156.26 27,-147 27.66,-144.9 28.48,-142.8 29.42,-140.74"/>
<polygon fill="none" stroke="#404040" points="29.44,-140.71 28.87,-133.52 35.29,-130.23 35.86,-137.42 29.44,-140.71"/>
<text text-anchor="middle" x="41.5" y="-150" font-family="Helvetica,sans-Serif" font-size="10.00"> +keys</text>
</g>
<!-- Node4 -->
<g id="node4" class="node">
<title>Node4</title>
<g id="a_node4"><a xlink:title=" ">
<polygon fill="white" stroke="#666666" points="92.5,-206 63.5,-206 63.5,-176 92.5,-176 92.5,-206"/>
<text text-anchor="middle" x="78" y="-194" font-family="Helvetica,sans-Serif" font-size="10.00">{T</text>
<text text-anchor="middle" x="78" y="-183" font-family="Helvetica,sans-Serif" font-size="10.00">||}</text>
</a>
</g>
</g>
<!-- Node4&#45;&gt;Node2 -->
<g id="edge3" class="edge">
<title>Node4&#45;&gt;Node2</title>
<path fill="none" stroke="#404040" d="M73.35,-175.61C70.28,-166.11 66.14,-153.28 62.32,-141.45"/>
<polygon fill="none" stroke="#404040" points="62.33,-141.49 56.68,-137.01 58.64,-130.07 64.29,-134.55 62.33,-141.49"/>
<text text-anchor="middle" x="91.5" y="-150" font-family="Helvetica,sans-Serif" font-size="10.00"> +elements</text>
</g>
</g>
</svg>
