<?xml version="1.0" encoding="UTF-8" standalone="no"?>
<!DOCTYPE svg PUBLIC "-//W3C//DTD SVG 1.1//EN"
 "http://www.w3.org/Graphics/SVG/1.1/DTD/svg11.dtd">
<!-- Generated by graphviz version 3.0.0 (20220413.0242)
 -->
<!-- Title: forcing_params Pages: 1 -->
<svg width="118pt" height="332pt"
 viewBox="0.00 0.00 118.00 332.00" xmlns="http://www.w3.org/2000/svg" xmlns:xlink="http://www.w3.org/1999/xlink">
<g id="graph0" class="graph" transform="scale(1 1) rotate(0) translate(4 328)">
<title>forcing_params</title>
<polygon fill="white" stroke="transparent" points="-4,4 -4,-328 114,-328 114,4 -4,4"/>
<!-- Node1 -->
<g id="node1" class="node">
<title>Node1</title>
<g id="a_node1"><a xlink:title="forcing_params providing configuration information for forcing time period and source.">
<polygon fill="#bfbfbf" stroke="black" points="0,-0.5 0,-68.5 98,-68.5 98,-0.5 0,-0.5"/>
<text text-anchor="middle" x="49" y="-56.5" font-family="Helvetica,sans-Serif" font-size="10.00">forcing_params</text>
<polyline fill="none" stroke="black" points="0,-49.5 98,-49.5 "/>
<text text-anchor="start" x="8" y="-37.5" font-family="Helvetica,sans-Serif" font-size="10.00">+ start_t</text>
<text text-anchor="start" x="8" y="-26.5" font-family="Helvetica,sans-Serif" font-size="10.00">+ end_t</text>
<polyline fill="none" stroke="black" points="0,-19.5 98,-19.5 "/>
<text text-anchor="start" x="8" y="-7.5" font-family="Helvetica,sans-Serif" font-size="10.00">+ forcing_params()</text>
</a>
</g>
</g>
<!-- Node2 -->
<g id="node2" class="node">
<title>Node2</title>
<g id="a_node2"><a xlink:title=" ">
<polygon fill="white" stroke="black" points="19.5,-160.5 19.5,-217.5 78.5,-217.5 78.5,-160.5 19.5,-160.5"/>
<text text-anchor="middle" x="49" y="-205.5" font-family="Helvetica,sans-Serif" font-size="10.00">std::string</text>
<polyline fill="none" stroke="black" points="19.5,-198.5 78.5,-198.5 "/>
<text text-anchor="middle" x="49" y="-186.5" font-family="Helvetica,sans-Serif" font-size="10.00"> </text>
<polyline fill="none" stroke="black" points="19.5,-179.5 78.5,-179.5 "/>
<text text-anchor="middle" x="49" y="-167.5" font-family="Helvetica,sans-Serif" font-size="10.00"> </text>
</a>
</g>
</g>
<!-- Node2&#45;&gt;Node1 -->
<g id="edge1" class="edge">
<title>Node2&#45;&gt;Node1</title>
<path fill="none" stroke="#404040" d="M49,-160.38C49,-138.25 49,-106.75 49,-80.92"/>
<polygon fill="none" stroke="#404040" points="49,-80.76 45,-74.76 49,-68.76 53,-74.76 49,-80.76"/>
<text text-anchor="middle" x="79.5" y="-134" font-family="Helvetica,sans-Serif" font-size="10.00"> +date_format</text>
<text text-anchor="middle" x="79.5" y="-123" font-family="Helvetica,sans-Serif" font-size="10.00">+end_time</text>
<text text-anchor="middle" x="79.5" y="-112" font-family="Helvetica,sans-Serif" font-size="10.00">+path</text>
<text text-anchor="middle" x="79.5" y="-101" font-family="Helvetica,sans-Serif" font-size="10.00">+provider</text>
<text text-anchor="middle" x="79.5" y="-90" font-family="Helvetica,sans-Serif" font-size="10.00">+start_time</text>
</g>
<!-- Node3 -->
<g id="node3" class="node">
<title>Node3</title>
<g id="a_node3"><a xlink:title=" ">
<polygon fill="white" stroke="black" points="2.5,-255.5 2.5,-323.5 95.5,-323.5 95.5,-255.5 2.5,-255.5"/>
<text text-anchor="start" x="10.5" y="-311.5" font-family="Helvetica,sans-Serif" font-size="10.00">std::basic_string&lt;</text>
<text text-anchor="middle" x="49" y="-300.5" font-family="Helvetica,sans-Serif" font-size="10.00"> Char &gt;</text>
<polyline fill="none" stroke="black" points="2.5,-293.5 95.5,-293.5 "/>
<text text-anchor="middle" x="49" y="-281.5" font-family="Helvetica,sans-Serif" font-size="10.00"> </text>
<polyline fill="none" stroke="black" points="2.5,-274.5 95.5,-274.5 "/>
<text text-anchor="middle" x="49" y="-262.5" font-family="Helvetica,sans-Serif" font-size="10.00"> </text>
</a>
</g>
</g>
<!-- Node3&#45;&gt;Node2 -->
<g id="edge2" class="edge">
<title>Node3&#45;&gt;Node2</title>
<path fill="none" stroke="midnightblue" d="M49,-245.38C49,-235.94 49,-226.2 49,-217.57"/>
<polygon fill="none" stroke="midnightblue" points="45.5,-245.43 49,-255.43 52.5,-245.43 45.5,-245.43"/>
</g>
</g>
</svg>
