<?xml version="1.0" encoding="UTF-8" standalone="no"?>
<!DOCTYPE svg PUBLIC "-//W3C//DTD SVG 1.1//EN"
 "http://www.w3.org/Graphics/SVG/1.1/DTD/svg11.dtd">
<!-- Generated by graphviz version 12.2.0 (20241103.1931)
 -->
<!-- Title: ngen::geopackage::wkb::wgs84 Pages: 1 -->
<svg width="117pt" height="273pt"
 viewBox="0.00 0.00 116.50 272.75" xmlns="http://www.w3.org/2000/svg" xmlns:xlink="http://www.w3.org/1999/xlink">

<svg id="main" version="1.1" xmlns="http://www.w3.org/2000/svg" xmlns:xlink="http://www.w3.org/1999/xlink" xml:space="preserve">

<style type="text/css"><![CDATA[
.node, .edge {opacity: 0.7;}
.node.selected, .edge.selected {opacity: 1;}
.edge:hover path { stroke: red; }
.edge:hover polygon { stroke: red; fill: red; }
]]></style>
<script type="application/ecmascript" xlink:href="svg.min.js"/>
<svg id="graph" class="graph">
<g id="graph0" class="graph" transform="scale(1 1) rotate(0) translate(4 268.75)">
<title>ngen::geopackage::wkb::wgs84</title>
<!-- Node1 -->
<g id="Node000001" class="node">
<title>Node1</title>
<g id="a_Node000001"><a xlink:title=" ">
<polygon fill="#999999" stroke="none" points="108.5,-167.75 0,-167.75 0,0 108.5,0 108.5,-167.75"/>
<text text-anchor="start" x="4" y="-154.25" font-family="Helvetica,sans-Serif" font-size="10.00">ngen::geopackage::wkb</text>
<text text-anchor="start" x="37.75" y="-143" font-family="Helvetica,sans-Serif" font-size="10.00">::wgs84</text>
<text text-anchor="start" x="16.31" y="-127.75" font-family="Helvetica,sans-Serif" font-size="10.00">&#45;</text>
<text text-anchor="start" x="35.62" y="-127.75" font-family="Helvetica,sans-Serif" font-size="10.00">srs</text>
<text text-anchor="start" x="16.31" y="-112.5" font-family="Helvetica,sans-Serif" font-size="10.00">&#45;</text>
<text text-anchor="start" x="35.62" y="-112.5" font-family="Helvetica,sans-Serif" font-size="10.00">tr</text>
<text text-anchor="start" x="14.81" y="-97.25" font-family="Helvetica,sans-Serif" font-size="10.00">+</text>
<text text-anchor="start" x="35.62" y="-97.25" font-family="Helvetica,sans-Serif" font-size="10.00">wgs84()</text>
<text text-anchor="start" x="14.81" y="-82" font-family="Helvetica,sans-Serif" font-size="10.00">+</text>
<text text-anchor="start" x="35.62" y="-82" font-family="Helvetica,sans-Serif" font-size="10.00">operator()()</text>
<text text-anchor="start" x="14.81" y="-66.75" font-family="Helvetica,sans-Serif" font-size="10.00">+</text>
<text text-anchor="start" x="35.62" y="-66.75" font-family="Helvetica,sans-Serif" font-size="10.00">operator()()</text>
<text text-anchor="start" x="14.81" y="-51.5" font-family="Helvetica,sans-Serif" font-size="10.00">+</text>
<text text-anchor="start" x="35.62" y="-51.5" font-family="Helvetica,sans-Serif" font-size="10.00">operator()()</text>
<text text-anchor="start" x="14.81" y="-36.25" font-family="Helvetica,sans-Serif" font-size="10.00">+</text>
<text text-anchor="start" x="35.62" y="-36.25" font-family="Helvetica,sans-Serif" font-size="10.00">operator()()</text>
<text text-anchor="start" x="14.81" y="-21" font-family="Helvetica,sans-Serif" font-size="10.00">+</text>
<text text-anchor="start" x="35.62" y="-21" font-family="Helvetica,sans-Serif" font-size="10.00">operator()()</text>
<text text-anchor="start" x="14.81" y="-5.75" font-family="Helvetica,sans-Serif" font-size="10.00">+</text>
<text text-anchor="start" x="35.62" y="-5.75" font-family="Helvetica,sans-Serif" font-size="10.00">operator()()</text>
<polygon fill="#666666" stroke="#666666" points="0,-139.25 0,-139.25 108.5,-139.25 108.5,-139.25 0,-139.25"/>
<polygon fill="#666666" stroke="#666666" points="0,-108.75 0,-108.75 33.62,-108.75 33.62,-108.75 0,-108.75"/>
<polygon fill="#666666" stroke="#666666" points="33.62,-108.75 33.62,-108.75 108.5,-108.75 108.5,-108.75 33.62,-108.75"/>
<polygon fill="none" stroke="#666666" points="0,0 0,-167.75 108.5,-167.75 108.5,0 0,0"/>
</a>
</g>
</g>
<!-- Node2 -->
<g id="Node000002" class="node">
<title>Node2</title>
<g id="a_Node000002"><a xlink:title=" ">
<polygon fill="white" stroke="none" points="105.5,-264.75 3,-264.75 3,-203.75 105.5,-203.75 105.5,-264.75"/>
<text text-anchor="start" x="7" y="-251.25" font-family="Helvetica,sans-Serif" font-size="10.00">boost::static_visitor</text>
<text text-anchor="start" x="7" y="-240" font-family="Helvetica,sans-Serif" font-size="10.00">&lt; geojson::geometry &gt;</text>
<text text-anchor="start" x="52.75" y="-224.75" font-family="Helvetica,sans-Serif" font-size="10.00"> </text>
<text text-anchor="start" x="52.75" y="-209.5" font-family="Helvetica,sans-Serif" font-size="10.00"> </text>
<polygon fill="#666666" stroke="#666666" points="3,-236.25 3,-236.25 105.5,-236.25 105.5,-236.25 3,-236.25"/>
<polygon fill="#666666" stroke="#666666" points="3,-221 3,-221 105.5,-221 105.5,-221 3,-221"/>
<polygon fill="none" stroke="#666666" points="3,-203.75 3,-264.75 105.5,-264.75 105.5,-203.75 3,-203.75"/>
</a>
</g>
</g>
<!-- Node2&#45;&gt;Node1 -->
<g id="edge1_Node000001_Node000002" class="edge">
<title>Node2&#45;&gt;Node1</title>
<g id="a_edge1_Node000001_Node000002"><a xlink:title=" ">
<path fill="none" stroke="#63b8ff" d="M54.25,-192.6C54.25,-184.78 54.25,-176.32 54.25,-167.71"/>
<polygon fill="none" stroke="#63b8ff" points="50.75,-192.42 54.25,-202.42 57.75,-192.42 50.75,-192.42"/>
</a>
</g>
</g>
</g>
</svg>
</svg>

<style type='text/css'>
<![CDATA[
[data-mouse-over-selected='false'] { opacity: 0.7; }
[data-mouse-over-selected='true']  { opacity: 1.0; }
]]>
</style>
<script type="application/ecmascript"><![CDATA[
document.addEventListener('DOMContentLoaded', (event) => {
  highlightEdges();
  highlightAdjacentNodes();
});
]]></script>
</svg>
