<?xml version="1.0" encoding="UTF-8" standalone="no"?>
<!DOCTYPE svg PUBLIC "-//W3C//DTD SVG 1.1//EN"
 "http://www.w3.org/Graphics/SVG/1.1/DTD/svg11.dtd">
<!-- Generated by graphviz version 9.0.0 (20230911.1827)
 -->
<!-- Title: ngen::detail::visitors::mdarray_at&lt; SupportedTypes &gt; Pages: 1 -->
<svg width="157pt" height="187pt"
 viewBox="0.00 0.00 157.00 187.00" xmlns="http://www.w3.org/2000/svg" xmlns:xlink="http://www.w3.org/1999/xlink">

<svg id="main" version="1.1" xmlns="http://www.w3.org/2000/svg" xmlns:xlink="http://www.w3.org/1999/xlink" xml:space="preserve" onload="init(evt)">
<style type="text/css"><![CDATA[
.node, .edge {opacity: 0.7;}
.node.selected, .edge.selected {opacity: 1;}
.edge:hover path { stroke: red; }
.edge:hover polygon { stroke: red; fill: red; }
]]></style>
<script type="application/ecmascript" xlink:href="svg.min.js"/>
<svg id="graph" class="graph">
<g id="graph0" class="graph" transform="scale(1 1) rotate(0) translate(4 183)">
<title>ngen::detail::visitors::mdarray_at&lt; SupportedTypes &gt;</title>
<!-- Node1 -->
<g id="Node000001" class="node">
<title>Node1</title>
<g id="a_Node000001"><a xlink:title="mdarray visitor for indexed access">
<polygon fill="#999999" stroke="none" points="149,-60 0,-60 0,0 149,0 149,-60"/>
<text text-anchor="start" x="4.75" y="-46.5" font-family="Helvetica,sans-Serif" font-size="10.00">ngen::detail::visitors</text>
<text text-anchor="start" x="4.75" y="-35.25" font-family="Helvetica,sans-Serif" font-size="10.00">::mdarray_at&lt; SupportedTypes &gt;</text>
<text text-anchor="start" x="73" y="-20.5" font-family="Helvetica,sans-Serif" font-size="10.00"> </text>
<text text-anchor="start" x="25" y="-5.5" font-family="Helvetica,sans-Serif" font-size="10.00">+</text>
<text text-anchor="start" x="56" y="-5.5" font-family="Helvetica,sans-Serif" font-size="10.00">operator()()</text>
<polygon fill="#666666" stroke="#666666" points="0,-32 0,-32 149,-32 149,-32 0,-32"/>
<polygon fill="#666666" stroke="#666666" points="0,-17 0,-17 149,-17 149,-17 0,-17"/>
<polygon fill="none" stroke="#666666" points="0,0 0,-60 149,-60 149,0 0,0"/>
</a>
</g>
</g>
<!-- Node2 -->
<g id="Node000002" class="node">
<title>Node2</title>
<g id="a_Node000002"><a xlink:title=" ">
<polygon fill="white" stroke="none" points="125.5,-179 23.5,-179 23.5,-96 125.5,-96 125.5,-179"/>
<text text-anchor="start" x="28.38" y="-165.5" font-family="Helvetica,sans-Serif" font-size="10.00">boost::static_visitor</text>
<text text-anchor="start" x="28.38" y="-154.25" font-family="Helvetica,sans-Serif" font-size="10.00">&lt; traits::type_list&lt;</text>
<text text-anchor="start" x="28.38" y="-143" font-family="Helvetica,sans-Serif" font-size="10.00"> SupportedTypes... &gt;::</text>
<text text-anchor="start" x="40" y="-131.75" font-family="Helvetica,sans-Serif" font-size="10.00">variant_scalar &gt;</text>
<text text-anchor="start" x="73" y="-116.5" font-family="Helvetica,sans-Serif" font-size="10.00"> </text>
<text text-anchor="start" x="73" y="-101.5" font-family="Helvetica,sans-Serif" font-size="10.00"> </text>
<polygon fill="#666666" stroke="#666666" points="23.5,-128 23.5,-128 125.5,-128 125.5,-128 23.5,-128"/>
<polygon fill="#666666" stroke="#666666" points="23.5,-113 23.5,-113 125.5,-113 125.5,-113 23.5,-113"/>
<polygon fill="none" stroke="#666666" points="23.5,-96 23.5,-179 125.5,-179 125.5,-96 23.5,-96"/>
</a>
</g>
</g>
<!-- Node2&#45;&gt;Node1 -->
<g id="edge1_Node000001_Node000002" class="edge">
<title>Node2&#45;&gt;Node1</title>
<g id="a_edge1_Node000001_Node000002"><a xlink:title=" ">
<path fill="none" stroke="#63b8ff" d="M74.5,-84.79C74.5,-76.18 74.5,-67.53 74.5,-59.76"/>
<polygon fill="none" stroke="#63b8ff" points="71,-84.5 74.5,-94.5 78,-84.5 71,-84.5"/>
</a>
</g>
</g>
</g>
</svg>
</svg>

<style type='text/css'>
<![CDATA[
[data-mouse-over-selected='false'] { opacity: 0.7; }
[data-mouse-over-selected='true']  { opacity: 1.0; }
]]>
</style>
<script type="application/ecmascript"><![CDATA[
document.addEventListener('DOMContentLoaded', (event) => {
  highlightEdges();
  highlightAdjacentNodes();
});
]]></script>
</svg>
