<?xml version="1.0" encoding="UTF-8" standalone="no"?>
<!DOCTYPE svg PUBLIC "-//W3C//DTD SVG 1.1//EN"
 "http://www.w3.org/Graphics/SVG/1.1/DTD/svg11.dtd">
<!-- Generated by graphviz version 12.2.0 (20241103.1931)
 -->
<!-- Title: hy_features::hydrolocation::HY_DistanceFromReferent Pages: 1 -->
<svg width="171pt" height="291pt"
 viewBox="0.00 0.00 170.75 290.50" xmlns="http://www.w3.org/2000/svg" xmlns:xlink="http://www.w3.org/1999/xlink">

<svg id="main" version="1.1" xmlns="http://www.w3.org/2000/svg" xmlns:xlink="http://www.w3.org/1999/xlink" xml:space="preserve">

<style type="text/css"><![CDATA[
.node, .edge {opacity: 0.7;}
.node.selected, .edge.selected {opacity: 1;}
.edge:hover path { stroke: red; }
.edge:hover polygon { stroke: red; fill: red; }
]]></style>
<script type="application/ecmascript" xlink:href="svg.min.js"/>
<svg id="graph" class="graph">
<g id="graph0" class="graph" transform="scale(1 1) rotate(0) translate(4 286.5)">
<title>hy_features::hydrolocation::HY_DistanceFromReferent</title>
<!-- Node1 -->
<g id="Node000001" class="node">
<title>Node1</title>
<g id="a_Node000001"><a xlink:title=" ">
<polygon fill="#999999" stroke="none" points="141,-76.25 0,-76.25 0,0 141,0 141,-76.25"/>
<text text-anchor="start" x="9.75" y="-62.75" font-family="Helvetica,sans-Serif" font-size="10.00">hy_features::hydrolocation</text>
<text text-anchor="start" x="9.75" y="-51.5" font-family="Helvetica,sans-Serif" font-size="10.00">::HY_DistanceFromReferent</text>
<text text-anchor="start" x="4" y="-36.25" font-family="Helvetica,sans-Serif" font-size="10.00">+</text>
<text text-anchor="start" x="14" y="-36.25" font-family="Helvetica,sans-Serif" font-size="10.00">absolute</text>
<text text-anchor="start" x="4" y="-21" font-family="Helvetica,sans-Serif" font-size="10.00">+</text>
<text text-anchor="start" x="14" y="-21" font-family="Helvetica,sans-Serif" font-size="10.00">interpolative</text>
<text text-anchor="start" x="4" y="-5.75" font-family="Helvetica,sans-Serif" font-size="10.00">+</text>
<text text-anchor="start" x="14" y="-5.75" font-family="Helvetica,sans-Serif" font-size="10.00">HY_DistanceFromReferent()</text>
<polygon fill="#666666" stroke="#666666" points="0,-47.75 0,-47.75 141,-47.75 141,-47.75 0,-47.75"/>
<polygon fill="#666666" stroke="#666666" points="0,-17.25 0,-17.25 12,-17.25 12,-17.25 0,-17.25"/>
<polygon fill="#666666" stroke="#666666" points="12,-17.25 12,-17.25 141,-17.25 141,-17.25 12,-17.25"/>
<polygon fill="none" stroke="#666666" points="0,0 0,-76.25 141,-76.25 141,0 0,0"/>
</a>
</g>
</g>
<!-- Node2 -->
<g id="Node000002" class="node">
<title>Node2</title>
<g id="a_Node000002"><a xlink:title=" ">
<polygon fill="white" stroke="none" points="95.5,-184.5 45.5,-184.5 45.5,-134.75 95.5,-134.75 95.5,-184.5"/>
<text text-anchor="start" x="49.5" y="-171" font-family="Helvetica,sans-Serif" font-size="10.00">std::string</text>
<text text-anchor="start" x="69" y="-155.75" font-family="Helvetica,sans-Serif" font-size="10.00"> </text>
<text text-anchor="start" x="69" y="-140.5" font-family="Helvetica,sans-Serif" font-size="10.00"> </text>
<polygon fill="#666666" stroke="#666666" points="45.5,-167.25 45.5,-167.25 95.5,-167.25 95.5,-167.25 45.5,-167.25"/>
<polygon fill="#666666" stroke="#666666" points="45.5,-152 45.5,-152 95.5,-152 95.5,-152 45.5,-152"/>
<polygon fill="none" stroke="#666666" points="45.5,-134.75 45.5,-184.5 95.5,-184.5 95.5,-134.75 45.5,-134.75"/>
</a>
</g>
</g>
<!-- Node2&#45;&gt;Node1 -->
<g id="edge1_Node000001_Node000002" class="edge">
<title>Node2&#45;&gt;Node1</title>
<g id="a_edge1_Node000001_Node000002"><a xlink:title=" ">
<path fill="none" stroke="#63b8ff" d="M70.5,-135.02C70.5,-121.71 70.5,-104.56 70.5,-88.46"/>
<polygon fill="none" stroke="#63b8ff" points="70.5,-88.76 66.5,-82.76 70.5,-76.76 74.5,-82.76 70.5,-88.76"/>
</a>
</g>
<text text-anchor="middle" x="116.62" y="-107.25" font-family="Helvetica,sans-Serif" font-size="10.00" fill="grey"> +accuracyStatement</text>
<text text-anchor="middle" x="116.62" y="-96" font-family="Helvetica,sans-Serif" font-size="10.00" fill="grey">+precisionStatement</text>
</g>
<!-- Node3 -->
<g id="Node000003" class="node">
<title>Node3</title>
<g id="a_Node000003"><a xlink:title=" ">
<polygon fill="white" stroke="none" points="112.75,-282.5 28.25,-282.5 28.25,-221.5 112.75,-221.5 112.75,-282.5"/>
<text text-anchor="start" x="32.25" y="-269" font-family="Helvetica,sans-Serif" font-size="10.00">std::basic_string&lt;</text>
<text text-anchor="start" x="55.12" y="-257.75" font-family="Helvetica,sans-Serif" font-size="10.00"> Char &gt;</text>
<text text-anchor="start" x="69" y="-242.5" font-family="Helvetica,sans-Serif" font-size="10.00"> </text>
<text text-anchor="start" x="69" y="-227.25" font-family="Helvetica,sans-Serif" font-size="10.00"> </text>
<polygon fill="#666666" stroke="#666666" points="28.25,-254 28.25,-254 112.75,-254 112.75,-254 28.25,-254"/>
<polygon fill="#666666" stroke="#666666" points="28.25,-238.75 28.25,-238.75 112.75,-238.75 112.75,-238.75 28.25,-238.75"/>
<polygon fill="none" stroke="#666666" points="28.25,-221.5 28.25,-282.5 112.75,-282.5 112.75,-221.5 28.25,-221.5"/>
</a>
</g>
</g>
<!-- Node3&#45;&gt;Node2 -->
<g id="edge2_Node000002_Node000003" class="edge">
<title>Node3&#45;&gt;Node2</title>
<g id="a_edge2_Node000002_Node000003"><a xlink:title=" ">
<path fill="none" stroke="#63b8ff" d="M70.5,-210.4C70.5,-201.44 70.5,-192.25 70.5,-184.23"/>
<polygon fill="none" stroke="#63b8ff" points="67,-210.39 70.5,-220.39 74,-210.39 67,-210.39"/>
</a>
</g>
</g>
</g>
</svg>
</svg>

<style type='text/css'>
<![CDATA[
[data-mouse-over-selected='false'] { opacity: 0.7; }
[data-mouse-over-selected='true']  { opacity: 1.0; }
]]>
</style>
<script type="application/ecmascript"><![CDATA[
document.addEventListener('DOMContentLoaded', (event) => {
  highlightEdges();
  highlightAdjacentNodes();
});
]]></script>
</svg>
