<?xml version="1.0" encoding="UTF-8" standalone="no"?>
<!DOCTYPE svg PUBLIC "-//W3C//DTD SVG 1.1//EN"
 "http://www.w3.org/Graphics/SVG/1.1/DTD/svg11.dtd">
<!-- Generated by graphviz version 12.2.0 (20241103.1931)
 -->
<!-- Title: ngen::detail::dimension Pages: 1 -->
<svg width="114pt" height="421pt"
 viewBox="0.00 0.00 113.50 420.50" xmlns="http://www.w3.org/2000/svg" xmlns:xlink="http://www.w3.org/1999/xlink">
<g id="graph0" class="graph" transform="scale(1 1) rotate(0) translate(4 416.5)">
<title>ngen::detail::dimension</title>
<!-- Node1 -->
<g id="Node000001" class="node">
<title>Node1</title>
<g id="a_Node000001"><a xlink:title="Dimension Key.">
<polygon fill="#999999" stroke="none" points="105.5,-217.5 0,-217.5 0,0 105.5,0 105.5,-217.5"/>
<text text-anchor="start" x="4" y="-204" font-family="Helvetica,sans-Serif" font-size="10.00">ngen::detail::dimension</text>
<text text-anchor="start" x="13.5" y="-188.75" font-family="Helvetica,sans-Serif" font-size="10.00">&#45;</text>
<text text-anchor="start" x="30" y="-188.75" font-family="Helvetica,sans-Serif" font-size="10.00">mdframe</text>
<text text-anchor="start" x="13.5" y="-173.5" font-family="Helvetica,sans-Serif" font-size="10.00">&#45;</text>
<text text-anchor="start" x="30" y="-173.5" font-family="Helvetica,sans-Serif" font-size="10.00">m_size</text>
<text text-anchor="start" x="12" y="-158.25" font-family="Helvetica,sans-Serif" font-size="10.00">+</text>
<text text-anchor="start" x="30" y="-158.25" font-family="Helvetica,sans-Serif" font-size="10.00">dimension()</text>
<text text-anchor="start" x="12" y="-143" font-family="Helvetica,sans-Serif" font-size="10.00">+</text>
<text text-anchor="start" x="30" y="-143" font-family="Helvetica,sans-Serif" font-size="10.00">dimension()</text>
<text text-anchor="start" x="12" y="-127.75" font-family="Helvetica,sans-Serif" font-size="10.00">+</text>
<text text-anchor="start" x="30" y="-127.75" font-family="Helvetica,sans-Serif" font-size="10.00">operator=()</text>
<text text-anchor="start" x="12" y="-112.5" font-family="Helvetica,sans-Serif" font-size="10.00">+</text>
<text text-anchor="start" x="30" y="-112.5" font-family="Helvetica,sans-Serif" font-size="10.00">dimension()</text>
<text text-anchor="start" x="12" y="-97.25" font-family="Helvetica,sans-Serif" font-size="10.00">+</text>
<text text-anchor="start" x="30" y="-97.25" font-family="Helvetica,sans-Serif" font-size="10.00">operator=()</text>
<text text-anchor="start" x="12" y="-82" font-family="Helvetica,sans-Serif" font-size="10.00">+</text>
<text text-anchor="start" x="30" y="-82" font-family="Helvetica,sans-Serif" font-size="10.00">~dimension()</text>
<text text-anchor="start" x="12" y="-66.75" font-family="Helvetica,sans-Serif" font-size="10.00">+</text>
<text text-anchor="start" x="30" y="-66.75" font-family="Helvetica,sans-Serif" font-size="10.00">dimension()</text>
<text text-anchor="start" x="12" y="-51.5" font-family="Helvetica,sans-Serif" font-size="10.00">+</text>
<text text-anchor="start" x="30" y="-51.5" font-family="Helvetica,sans-Serif" font-size="10.00">dimension()</text>
<text text-anchor="start" x="12" y="-36.25" font-family="Helvetica,sans-Serif" font-size="10.00">+</text>
<text text-anchor="start" x="30" y="-36.25" font-family="Helvetica,sans-Serif" font-size="10.00">operator==()</text>
<text text-anchor="start" x="12" y="-21" font-family="Helvetica,sans-Serif" font-size="10.00">+</text>
<text text-anchor="start" x="30" y="-21" font-family="Helvetica,sans-Serif" font-size="10.00">size()</text>
<text text-anchor="start" x="12" y="-5.75" font-family="Helvetica,sans-Serif" font-size="10.00">+</text>
<text text-anchor="start" x="30" y="-5.75" font-family="Helvetica,sans-Serif" font-size="10.00">name()</text>
<polygon fill="#666666" stroke="#666666" points="0,-200.25 0,-200.25 105.5,-200.25 105.5,-200.25 0,-200.25"/>
<polygon fill="#666666" stroke="#666666" points="0,-169.75 0,-169.75 28,-169.75 28,-169.75 0,-169.75"/>
<polygon fill="#666666" stroke="#666666" points="28,-169.75 28,-169.75 105.5,-169.75 105.5,-169.75 28,-169.75"/>
<polygon fill="none" stroke="#666666" points="0,0 0,-217.5 105.5,-217.5 105.5,0 0,0"/>
</a>
</g>
</g>
<!-- Node2 -->
<g id="Node000002" class="node">
<title>Node2</title>
<g id="a_Node000002"><a xlink:title=" ">
<polygon fill="white" stroke="none" points="77.75,-314.5 27.75,-314.5 27.75,-264.75 77.75,-264.75 77.75,-314.5"/>
<text text-anchor="start" x="31.75" y="-301" font-family="Helvetica,sans-Serif" font-size="10.00">std::string</text>
<text text-anchor="start" x="51.25" y="-285.75" font-family="Helvetica,sans-Serif" font-size="10.00"> </text>
<text text-anchor="start" x="51.25" y="-270.5" font-family="Helvetica,sans-Serif" font-size="10.00"> </text>
<polygon fill="#666666" stroke="#666666" points="27.75,-297.25 27.75,-297.25 77.75,-297.25 77.75,-297.25 27.75,-297.25"/>
<polygon fill="#666666" stroke="#666666" points="27.75,-282 27.75,-282 77.75,-282 77.75,-282 27.75,-282"/>
<polygon fill="none" stroke="#666666" points="27.75,-264.75 27.75,-314.5 77.75,-314.5 77.75,-264.75 27.75,-264.75"/>
</a>
</g>
</g>
<!-- Node2&#45;&gt;Node1 -->
<g id="edge1_Node000001_Node000002" class="edge">
<title>Node2&#45;&gt;Node1</title>
<g id="a_edge1_Node000001_Node000002"><a xlink:title=" ">
<path fill="none" stroke="#63b8ff" d="M52.75,-264.87C52.75,-255.15 52.75,-243.12 52.75,-230.09"/>
<polygon fill="none" stroke="#63b8ff" points="52.75,-230.24 48.75,-224.24 52.75,-218.24 56.75,-224.24 52.75,-230.24"/>
</a>
</g>
<text text-anchor="middle" x="74.12" y="-237.25" font-family="Helvetica,sans-Serif" font-size="10.00" fill="grey"> &#45;m_name</text>
</g>
<!-- Node3 -->
<g id="Node000003" class="node">
<title>Node3</title>
<g id="a_Node000003"><a xlink:title=" ">
<polygon fill="white" stroke="none" points="95,-412.5 10.5,-412.5 10.5,-351.5 95,-351.5 95,-412.5"/>
<text text-anchor="start" x="14.5" y="-399" font-family="Helvetica,sans-Serif" font-size="10.00">std::basic_string&lt;</text>
<text text-anchor="start" x="37.38" y="-387.75" font-family="Helvetica,sans-Serif" font-size="10.00"> Char &gt;</text>
<text text-anchor="start" x="51.25" y="-372.5" font-family="Helvetica,sans-Serif" font-size="10.00"> </text>
<text text-anchor="start" x="51.25" y="-357.25" font-family="Helvetica,sans-Serif" font-size="10.00"> </text>
<polygon fill="#666666" stroke="#666666" points="10.5,-384 10.5,-384 95,-384 95,-384 10.5,-384"/>
<polygon fill="#666666" stroke="#666666" points="10.5,-368.75 10.5,-368.75 95,-368.75 95,-368.75 10.5,-368.75"/>
<polygon fill="none" stroke="#666666" points="10.5,-351.5 10.5,-412.5 95,-412.5 95,-351.5 10.5,-351.5"/>
</a>
</g>
</g>
<!-- Node3&#45;&gt;Node2 -->
<g id="edge2_Node000002_Node000003" class="edge">
<title>Node3&#45;&gt;Node2</title>
<g id="a_edge2_Node000002_Node000003"><a xlink:title=" ">
<path fill="none" stroke="#63b8ff" d="M52.75,-340.4C52.75,-331.44 52.75,-322.25 52.75,-314.23"/>
<polygon fill="none" stroke="#63b8ff" points="49.25,-340.39 52.75,-350.39 56.25,-340.39 49.25,-340.39"/>
</a>
</g>
</g>
</g>
</svg>
