<?xml version="1.0" encoding="UTF-8" standalone="no"?>
<!DOCTYPE svg PUBLIC "-//W3C//DTD SVG 1.1//EN"
 "http://www.w3.org/Graphics/SVG/1.1/DTD/svg11.dtd">
<!-- Generated by graphviz version 12.2.0 (20241103.1931)
 -->
<!-- Title: geojson::List Pages: 1 -->
<!--zoomable 739 -->

<svg id="main" version="1.1" xmlns="http://www.w3.org/2000/svg" xmlns:xlink="http://www.w3.org/1999/xlink" xml:space="preserve" onload="init(evt)">

<style type="text/css"><![CDATA[
.node, .edge {opacity: 0.7;}
.node.selected, .edge.selected {opacity: 1;}
.edge:hover path { stroke: red; }
.edge:hover polygon { stroke: red; fill: red; }
]]></style>

<defs>
  <circle id="rim" cx="0" cy="0" r="7"/>
  <circle id="rim2" cx="0" cy="0" r="3.5"/>
  <g id="zoomPlus">
    <use xlink:href="#rim" fill="#404040"><set attributeName="fill" to="#808080" begin="zoomplus.mouseover" end="zoomplus.mouseout"/></use>
    <path d="M-4,0h8M0,-4v8" fill="none" stroke="white" stroke-width="1.5" pointer-events="none"/>
  </g>
  <g id="zoomMin">
    <use xlink:href="#rim" fill="#404040"><set attributeName="fill" to="#808080" begin="zoomminus.mouseover" end="zoomminus.mouseout"/></use>
    <path d="M-4,0h8" fill="none" stroke="white" stroke-width="1.5" pointer-events="none"/>
  </g>
  <g id="arrowUp" transform="translate(30 24)">
    <use xlink:href="#rim"/>
    <path pointer-events="none" fill="none" stroke="white" stroke-width="1.5" d="M0,-3.0v7 M-2.5,-0.5L0,-3.0L2.5,-0.5"/>
  </g>
  <g id="arrowRight" transform="rotate(90) translate(36 -43)">
    <use xlink:href="#rim"/>
    <path pointer-events="none" fill="none" stroke="white" stroke-width="1.5" d="M0,-3.0v7 M-2.5,-0.5L0,-3.0L2.5,-0.5"/>
  </g>
  <g id="arrowDown" transform="rotate(180) translate(-30 -48)">
    <use xlink:href="#rim"/>
    <path pointer-events="none" fill="none" stroke="white" stroke-width="1.5" d="M0,-3.0v7 M-2.5,-0.5L0,-3.0L2.5,-0.5"/>
  </g>
  <g id="arrowLeft" transform="rotate(270) translate(-36 17)">
    <use xlink:href="#rim"/>
    <path pointer-events="none" fill="none" stroke="white" stroke-width="1.5" d="M0,-3.0v7 M-2.5,-0.5L0,-3.0L2.5,-0.5"/>
  </g>
  <g id="resetDef">
    <use xlink:href="#rim2" fill="#404040"><set attributeName="fill" to="#808080" begin="reset.mouseover" end="reset.mouseout"/></use>
  </g>
</defs>
<script type="application/ecmascript">
var viewWidth = 468;
var viewHeight = 739;
var sectionId = 'dynsection-0';
</script>
<script type="application/ecmascript" xlink:href="svg.min.js"/>
<svg id="graph" class="graph">
<g id="viewport">
<title>geojson::List</title>
<!-- Node1 -->
<g id="Node000001" class="node">
<title>Node1</title>
<g id="a_Node000001"><a xlink:title="Struct wrapping a vector of JSONProperty representing a JSON list.">
<polygon fill="#999999" stroke="none" points="71.25,-310.5 0,-310.5 0,-215 71.25,-215 71.25,-310.5"/>
<text text-anchor="start" x="8.25" y="-297" font-family="Helvetica,sans-Serif" font-size="10.00">geojson::List</text>
<text text-anchor="start" x="34.12" y="-281.75" font-family="Helvetica,sans-Serif" font-size="10.00"> </text>
<text text-anchor="start" x="4" y="-266.5" font-family="Helvetica,sans-Serif" font-size="10.00">+</text>
<text text-anchor="start" x="14" y="-266.5" font-family="Helvetica,sans-Serif" font-size="10.00">List()</text>
<text text-anchor="start" x="4" y="-251.25" font-family="Helvetica,sans-Serif" font-size="10.00">+</text>
<text text-anchor="start" x="14" y="-251.25" font-family="Helvetica,sans-Serif" font-size="10.00">get_values()</text>
<text text-anchor="start" x="4" y="-236" font-family="Helvetica,sans-Serif" font-size="10.00">+</text>
<text text-anchor="start" x="14" y="-236" font-family="Helvetica,sans-Serif" font-size="10.00">push_back()</text>
<text text-anchor="start" x="4" y="-220.75" font-family="Helvetica,sans-Serif" font-size="10.00">+</text>
<text text-anchor="start" x="14" y="-220.75" font-family="Helvetica,sans-Serif" font-size="10.00">operator==()</text>
<polygon fill="#666666" stroke="#666666" points="0,-293.25 0,-293.25 71.25,-293.25 71.25,-293.25 0,-293.25"/>
<polygon fill="#666666" stroke="#666666" points="0,-278 0,-278 71.25,-278 71.25,-278 0,-278"/>
<polygon fill="none" stroke="#666666" points="0,-215 0,-310.5 71.25,-310.5 71.25,-215 0,-215"/>
</a>
</g>
</g>
<!-- Node2 -->
<g id="Node000002" class="node">
<title>Node2</title>
<g id="a_Node000002"><a xlink:title=" ">
<polygon fill="white" stroke="none" points="140.12,-525.5 45.12,-525.5 45.12,-464.5 140.12,-464.5 140.12,-525.5"/>
<text text-anchor="start" x="49.12" y="-512" font-family="Helvetica,sans-Serif" font-size="10.00">std::vector&lt; geojson</text>
<text text-anchor="start" x="54.75" y="-500.75" font-family="Helvetica,sans-Serif" font-size="10.00">::JSONProperty &gt;</text>
<text text-anchor="start" x="91.12" y="-485.5" font-family="Helvetica,sans-Serif" font-size="10.00"> </text>
<text text-anchor="start" x="91.12" y="-470.25" font-family="Helvetica,sans-Serif" font-size="10.00"> </text>
<polygon fill="#666666" stroke="#666666" points="45.12,-497 45.12,-497 140.12,-497 140.12,-497 45.12,-497"/>
<polygon fill="#666666" stroke="#666666" points="45.12,-481.75 45.12,-481.75 140.12,-481.75 140.12,-481.75 45.12,-481.75"/>
<polygon fill="none" stroke="#666666" points="45.12,-464.5 45.12,-525.5 140.12,-525.5 140.12,-464.5 45.12,-464.5"/>
</a>
</g>
</g>
<!-- Node2&#45;&gt;Node1 -->
<g id="edge1_Node000001_Node000002" class="edge">
<title>Node2&#45;&gt;Node1</title>
<g id="a_edge1_Node000001_Node000002"><a xlink:title=" ">
<path fill="none" stroke="#63b8ff" d="M49.75,-464.71C44.55,-459.28 39.99,-453.19 36.88,-446.5 19.02,-408.17 19.41,-360.21 23.9,-323.04"/>
<polygon fill="none" stroke="#63b8ff" points="23.88,-323.16 20.74,-316.68 25.51,-311.27 28.66,-317.76 23.88,-323.16"/>
</a>
</g>
<text text-anchor="middle" x="53.75" y="-437" font-family="Helvetica,sans-Serif" font-size="10.00" fill="grey"> &#45;values</text>
</g>
<!-- Node3 -->
<g id="Node000003" class="node">
<title>Node3</title>
<g id="a_Node000003"><a xlink:href="classgeojson_1_1_j_s_o_n_property.html" target="_top" xlink:title="@TODO: Convert JSONProperty into a variant of the supported types">
<polygon fill="white" stroke="none" points="217.25,-417.25 108,-417.25 108,-108.25 217.25,-108.25 217.25,-417.25"/>
<text text-anchor="start" x="112" y="-403.75" font-family="Helvetica,sans-Serif" font-size="10.00">geojson::JSONProperty</text>
<text text-anchor="start" x="117.75" y="-388.5" font-family="Helvetica,sans-Serif" font-size="10.00">&#45;</text>
<text text-anchor="start" x="130.5" y="-388.5" font-family="Helvetica,sans-Serif" font-size="10.00">type</text>
<text text-anchor="start" x="117.75" y="-373.25" font-family="Helvetica,sans-Serif" font-size="10.00">&#45;</text>
<text text-anchor="start" x="130.5" y="-373.25" font-family="Helvetica,sans-Serif" font-size="10.00">data</text>
<text text-anchor="start" x="116.25" y="-358" font-family="Helvetica,sans-Serif" font-size="10.00">+</text>
<text text-anchor="start" x="130.5" y="-358" font-family="Helvetica,sans-Serif" font-size="10.00">JSONProperty()</text>
<text text-anchor="start" x="116.25" y="-342.75" font-family="Helvetica,sans-Serif" font-size="10.00">+</text>
<text text-anchor="start" x="130.5" y="-342.75" font-family="Helvetica,sans-Serif" font-size="10.00">JSONProperty()</text>
<text text-anchor="start" x="116.25" y="-327.5" font-family="Helvetica,sans-Serif" font-size="10.00">+</text>
<text text-anchor="start" x="130.5" y="-327.5" font-family="Helvetica,sans-Serif" font-size="10.00">JSONProperty()</text>
<text text-anchor="start" x="116.25" y="-312.25" font-family="Helvetica,sans-Serif" font-size="10.00">+</text>
<text text-anchor="start" x="130.5" y="-312.25" font-family="Helvetica,sans-Serif" font-size="10.00">JSONProperty()</text>
<text text-anchor="start" x="116.25" y="-297" font-family="Helvetica,sans-Serif" font-size="10.00">+</text>
<text text-anchor="start" x="130.5" y="-297" font-family="Helvetica,sans-Serif" font-size="10.00">JSONProperty()</text>
<text text-anchor="start" x="116.25" y="-281.75" font-family="Helvetica,sans-Serif" font-size="10.00">+</text>
<text text-anchor="start" x="130.5" y="-281.75" font-family="Helvetica,sans-Serif" font-size="10.00">JSONProperty()</text>
<text text-anchor="start" x="116.25" y="-266.5" font-family="Helvetica,sans-Serif" font-size="10.00">+</text>
<text text-anchor="start" x="130.5" y="-266.5" font-family="Helvetica,sans-Serif" font-size="10.00">JSONProperty()</text>
<text text-anchor="start" x="116.25" y="-251.25" font-family="Helvetica,sans-Serif" font-size="10.00">+</text>
<text text-anchor="start" x="130.5" y="-251.25" font-family="Helvetica,sans-Serif" font-size="10.00">JSONProperty()</text>
<text text-anchor="start" x="116.25" y="-236" font-family="Helvetica,sans-Serif" font-size="10.00">+</text>
<text text-anchor="start" x="130.5" y="-236" font-family="Helvetica,sans-Serif" font-size="10.00">JSONProperty()</text>
<text text-anchor="start" x="116.25" y="-220.75" font-family="Helvetica,sans-Serif" font-size="10.00">+</text>
<text text-anchor="start" x="130.5" y="-220.75" font-family="Helvetica,sans-Serif" font-size="10.00">JSONProperty()</text>
<text text-anchor="start" x="116.25" y="-205.5" font-family="Helvetica,sans-Serif" font-size="10.00">+</text>
<text text-anchor="start" x="130.5" y="-205.5" font-family="Helvetica,sans-Serif" font-size="10.00">JSONProperty()</text>
<text text-anchor="start" x="116.25" y="-190.25" font-family="Helvetica,sans-Serif" font-size="10.00">+</text>
<text text-anchor="start" x="130.5" y="-190.25" font-family="Helvetica,sans-Serif" font-size="10.00">~JSONProperty()</text>
<text text-anchor="start" x="116.25" y="-175" font-family="Helvetica,sans-Serif" font-size="10.00">+</text>
<text text-anchor="start" x="130.5" y="-175" font-family="Helvetica,sans-Serif" font-size="10.00">JSONProperty()</text>
<text text-anchor="start" x="116.25" y="-159.75" font-family="Helvetica,sans-Serif" font-size="10.00">+</text>
<text text-anchor="start" x="130.5" y="-159.75" font-family="Helvetica,sans-Serif" font-size="10.00">JSONProperty()</text>
<text text-anchor="start" x="116.25" y="-144.5" font-family="Helvetica,sans-Serif" font-size="10.00">+</text>
<text text-anchor="start" x="130.5" y="-144.5" font-family="Helvetica,sans-Serif" font-size="10.00">get_type()</text>
<text text-anchor="start" x="130.5" y="-129.25" font-family="Helvetica,sans-Serif" font-size="10.00">and 17 more...</text>
<text text-anchor="start" x="116.25" y="-114" font-family="Helvetica,sans-Serif" font-size="10.00">+</text>
<text text-anchor="start" x="130.5" y="-114" font-family="Helvetica,sans-Serif" font-size="10.00">print_property()</text>
<polygon fill="#666666" stroke="#666666" points="108,-400 108,-400 217.25,-400 217.25,-400 108,-400"/>
<polygon fill="#666666" stroke="#666666" points="108,-369.5 108,-369.5 128.5,-369.5 128.5,-369.5 108,-369.5"/>
<polygon fill="#666666" stroke="#666666" points="128.5,-369.5 128.5,-369.5 217.25,-369.5 217.25,-369.5 128.5,-369.5"/>
<polygon fill="none" stroke="#666666" points="108,-108.25 108,-417.25 217.25,-417.25 217.25,-108.25 108,-108.25"/>
</a>
</g>
</g>
<!-- Node2&#45;&gt;Node3 -->
<g id="edge11_Node000003_Node000002" class="edge">
<title>Node2&#45;&gt;Node3</title>
<g id="a_edge11_Node000003_Node000002"><a xlink:title=" ">
<path fill="none" stroke="#63b8ff" d="M88.62,-464.8C88.05,-455.3 88.2,-444.76 90.12,-435.25 93.35,-419.35 98.1,-403.08 103.65,-387.21"/>
<polygon fill="none" stroke="#63b8ff" points="103.62,-387.29 101.91,-380.29 107.73,-376.02 109.43,-383.02 103.62,-387.29"/>
</a>
</g>
<text text-anchor="middle" x="113.38" y="-437" font-family="Helvetica,sans-Serif" font-size="10.00" fill="grey"> &#45;value_list</text>
</g>
<!-- Node3&#45;&gt;Node2 -->
<g id="edge2_Node000002_Node000003" class="edge">
<title>Node3&#45;&gt;Node2</title>
<g id="a_edge2_Node000002_Node000003"><a xlink:title=" ">
<path fill="none" stroke="#63b8ff" d="M152.04,-417.08C148.95,-427.27 145.19,-437.17 140.62,-446.5 139.28,-449.25 137.7,-451.94 135.96,-454.55"/>
<polygon fill="none" stroke="#63b8ff" points="135.95,-454.57 135.43,-461.76 128.59,-464.04 129.11,-456.85 135.95,-454.57"/>
</a>
</g>
<text text-anchor="middle" x="168.71" y="-437" font-family="Helvetica,sans-Serif" font-size="10.00" fill="grey"> +elements</text>
</g>
<!-- Node6 -->
<g id="Node000006" class="node">
<title>Node6</title>
<g id="a_Node000006"><a xlink:title=" ">
<polygon fill="white" stroke="none" points="292.62,-61 194.62,-61 194.62,0 292.62,0 292.62,-61"/>
<text text-anchor="start" x="198.62" y="-47.5" font-family="Helvetica,sans-Serif" font-size="10.00">std::map&lt; std::string,</text>
<text text-anchor="start" x="206.88" y="-36.25" font-family="Helvetica,sans-Serif" font-size="10.00"> JSONProperty &gt;</text>
<text text-anchor="start" x="242.12" y="-21" font-family="Helvetica,sans-Serif" font-size="10.00"> </text>
<text text-anchor="start" x="242.12" y="-5.75" font-family="Helvetica,sans-Serif" font-size="10.00"> </text>
<polygon fill="#666666" stroke="#666666" points="194.62,-32.5 194.62,-32.5 292.62,-32.5 292.62,-32.5 194.62,-32.5"/>
<polygon fill="#666666" stroke="#666666" points="194.62,-17.25 194.62,-17.25 292.62,-17.25 292.62,-17.25 194.62,-17.25"/>
<polygon fill="none" stroke="#666666" points="194.62,0 194.62,-61 292.62,-61 292.62,0 194.62,0"/>
</a>
</g>
</g>
<!-- Node3&#45;&gt;Node6 -->
<g id="edge7_Node000006_Node000003" class="edge">
<title>Node3&#45;&gt;Node6</title>
<g id="a_edge7_Node000006_Node000003"><a xlink:title=" ">
<path fill="none" stroke="#63b8ff" d="M153.51,-108.47C156.39,-98.16 160.34,-88.22 165.62,-79 170.23,-70.96 176.8,-64.12 184.19,-58.34"/>
<polygon fill="none" stroke="#63b8ff" points="184.05,-58.43 186.72,-51.74 193.93,-51.63 191.26,-58.32 184.05,-58.43"/>
</a>
</g>
<text text-anchor="middle" x="189.62" y="-80.75" font-family="Helvetica,sans-Serif" font-size="10.00" fill="grey"> +elements</text>
</g>
<!-- Node4 -->
<g id="Node000004" class="node">
<title>Node4</title>
<g id="a_Node000004"><a xlink:title=" ">
<polygon fill="white" stroke="none" points="258.62,-519.88 208.62,-519.88 208.62,-470.12 258.62,-470.12 258.62,-519.88"/>
<text text-anchor="start" x="212.62" y="-506.38" font-family="Helvetica,sans-Serif" font-size="10.00">std::string</text>
<text text-anchor="start" x="232.12" y="-491.12" font-family="Helvetica,sans-Serif" font-size="10.00"> </text>
<text text-anchor="start" x="232.12" y="-475.88" font-family="Helvetica,sans-Serif" font-size="10.00"> </text>
<polygon fill="#666666" stroke="#666666" points="208.62,-502.62 208.62,-502.62 258.62,-502.62 258.62,-502.62 208.62,-502.62"/>
<polygon fill="#666666" stroke="#666666" points="208.62,-487.38 208.62,-487.38 258.62,-487.38 258.62,-487.38 208.62,-487.38"/>
<polygon fill="none" stroke="#666666" points="208.62,-470.12 208.62,-519.88 258.62,-519.88 258.62,-470.12 208.62,-470.12"/>
</a>
</g>
</g>
<!-- Node4&#45;&gt;Node3 -->
<g id="edge3_Node000003_Node000004" class="edge">
<title>Node4&#45;&gt;Node3</title>
<g id="a_edge3_Node000003_Node000004"><a xlink:title=" ">
<path fill="none" stroke="#63b8ff" d="M226.29,-470.23C222.89,-459.19 218.53,-445.04 213.68,-429.31"/>
<polygon fill="none" stroke="#63b8ff" points="213.69,-429.34 208.1,-424.79 210.15,-417.88 215.74,-422.43 213.69,-429.34"/>
</a>
</g>
<text text-anchor="middle" x="228.41" y="-437" font-family="Helvetica,sans-Serif" font-size="10.00" fill="grey"> &#45;key</text>
</g>
<!-- Node4&#45;&gt;Node6 -->
<g id="edge6_Node000006_Node000004" class="edge">
<title>Node4&#45;&gt;Node6</title>
<g id="a_edge6_Node000006_Node000004"><a xlink:title=" ">
<path fill="none" stroke="#63b8ff" d="M238.83,-470.43C240.31,-462.83 241.76,-454.34 242.62,-446.5 260.09,-289.04 251.96,-248.65 254.62,-90.25 254.71,-85.25 255.19,-83.97 254.62,-79 254.43,-77.25 254.19,-75.48 253.91,-73.69"/>
<polygon fill="none" stroke="#63b8ff" points="253.91,-73.65 248.87,-68.48 251.71,-61.85 256.74,-67.02 253.91,-73.65"/>
</a>
</g>
<text text-anchor="middle" x="268.58" y="-258.88" font-family="Helvetica,sans-Serif" font-size="10.00" fill="grey"> +keys</text>
</g>
<!-- Node5 -->
<g id="Node000005" class="node">
<title>Node5</title>
<g id="a_Node000005"><a xlink:title=" ">
<polygon fill="white" stroke="none" points="268.88,-633.75 184.38,-633.75 184.38,-572.75 268.88,-572.75 268.88,-633.75"/>
<text text-anchor="start" x="188.38" y="-620.25" font-family="Helvetica,sans-Serif" font-size="10.00">std::basic_string&lt;</text>
<text text-anchor="start" x="211.25" y="-609" font-family="Helvetica,sans-Serif" font-size="10.00"> Char &gt;</text>
<text text-anchor="start" x="225.12" y="-593.75" font-family="Helvetica,sans-Serif" font-size="10.00"> </text>
<text text-anchor="start" x="225.12" y="-578.5" font-family="Helvetica,sans-Serif" font-size="10.00"> </text>
<polygon fill="#666666" stroke="#666666" points="184.38,-605.25 184.38,-605.25 268.88,-605.25 268.88,-605.25 184.38,-605.25"/>
<polygon fill="#666666" stroke="#666666" points="184.38,-590 184.38,-590 268.88,-590 268.88,-590 184.38,-590"/>
<polygon fill="none" stroke="#666666" points="184.38,-572.75 184.38,-633.75 268.88,-633.75 268.88,-572.75 184.38,-572.75"/>
</a>
</g>
</g>
<!-- Node5&#45;&gt;Node4 -->
<g id="edge4_Node000004_Node000005" class="edge">
<title>Node5&#45;&gt;Node4</title>
<g id="a_edge4_Node000004_Node000005"><a xlink:title=" ">
<path fill="none" stroke="#63b8ff" d="M229.31,-561.5C230.24,-547.42 231.25,-532.12 232.05,-519.85"/>
<polygon fill="none" stroke="#63b8ff" points="225.82,-561.22 228.66,-571.43 232.81,-561.68 225.82,-561.22"/>
</a>
</g>
</g>
<!-- Node6&#45;&gt;Node3 -->
<g id="edge5_Node000003_Node000006" class="edge">
<title>Node6&#45;&gt;Node3</title>
<g id="a_edge5_Node000003_Node000006"><a xlink:title=" ">
<path fill="none" stroke="#63b8ff" d="M228.78,-60.87C226.01,-66.8 223.23,-73.05 220.88,-79 218.62,-84.7 216.38,-90.52 214.18,-96.42"/>
<polygon fill="none" stroke="#63b8ff" points="214.14,-96.52 215.83,-103.53 210.01,-107.78 208.32,-100.77 214.14,-96.52"/>
</a>
</g>
<text text-anchor="middle" x="237.75" y="-80.75" font-family="Helvetica,sans-Serif" font-size="10.00" fill="grey"> &#45;values</text>
</g>
<!-- Node7 -->
<g id="Node000007" class="node">
<title>Node7</title>
<g id="a_Node000007"><a xlink:title=" ">
<polygon fill="white" stroke="none" points="366.25,-628.12 287,-628.12 287,-578.38 366.25,-578.38 366.25,-628.12"/>
<text text-anchor="start" x="291" y="-614.62" font-family="Helvetica,sans-Serif" font-size="10.00">std::map&lt; K, T &gt;</text>
<text text-anchor="start" x="325.12" y="-599.38" font-family="Helvetica,sans-Serif" font-size="10.00"> </text>
<text text-anchor="start" x="325.12" y="-584.12" font-family="Helvetica,sans-Serif" font-size="10.00"> </text>
<polygon fill="#666666" stroke="#666666" points="287,-610.88 287,-610.88 366.25,-610.88 366.25,-610.88 287,-610.88"/>
<polygon fill="#666666" stroke="#666666" points="287,-595.62 287,-595.62 366.25,-595.62 366.25,-595.62 287,-595.62"/>
<polygon fill="none" stroke="#666666" points="287,-578.38 287,-628.12 366.25,-628.12 366.25,-578.38 287,-578.38"/>
</a>
</g>
</g>
<!-- Node7&#45;&gt;Node6 -->
<g id="edge8_Node000006_Node000007" class="edge">
<title>Node7&#45;&gt;Node6</title>
<g id="a_edge8_Node000006_Node000007"><a xlink:title=" ">
<path fill="none" stroke="orange" d="M328.84,-567.02C332.93,-484.67 337.13,-274 286.62,-108.25 281.55,-91.59 272.47,-74.55 263.95,-60.77"/>
<polygon fill="orange" stroke="orange" points="325.35,-566.76 328.31,-576.93 332.34,-567.13 325.35,-566.76"/>
</a>
</g>
<text text-anchor="middle" x="395.36" y="-437" font-family="Helvetica,sans-Serif" font-size="10.00" fill="grey"> &lt; std::string, JSONProperty &gt;</text>
</g>
<!-- Node8 -->
<g id="Node000008" class="node">
<title>Node8</title>
<g id="a_Node000008"><a xlink:title=" ">
<polygon fill="white" stroke="none" points="334,-730.75 319.25,-730.75 319.25,-681 334,-681 334,-730.75"/>
<text text-anchor="start" x="323.25" y="-717.25" font-family="Helvetica,sans-Serif" font-size="10.00">K</text>
<text text-anchor="start" x="325.12" y="-702" font-family="Helvetica,sans-Serif" font-size="10.00"> </text>
<text text-anchor="start" x="325.12" y="-686.75" font-family="Helvetica,sans-Serif" font-size="10.00"> </text>
<polygon fill="#666666" stroke="#666666" points="319.25,-713.5 319.25,-713.5 334,-713.5 334,-713.5 319.25,-713.5"/>
<polygon fill="#666666" stroke="#666666" points="319.25,-698.25 319.25,-698.25 334,-698.25 334,-698.25 319.25,-698.25"/>
<polygon fill="none" stroke="#666666" points="319.25,-681 319.25,-730.75 334,-730.75 334,-681 319.25,-681"/>
</a>
</g>
</g>
<!-- Node8&#45;&gt;Node7 -->
<g id="edge9_Node000007_Node000008" class="edge">
<title>Node8&#45;&gt;Node7</title>
<g id="a_edge9_Node000007_Node000008"><a xlink:title=" ">
<path fill="none" stroke="#63b8ff" d="M326.62,-681.03C326.62,-669 326.62,-654.15 326.62,-640.72"/>
<polygon fill="none" stroke="#63b8ff" points="326.63,-640.83 322.63,-634.83 326.63,-628.83 330.63,-634.83 326.63,-640.83"/>
</a>
</g>
<text text-anchor="middle" x="340.88" y="-653.5" font-family="Helvetica,sans-Serif" font-size="10.00" fill="grey"> +keys</text>
</g>
<!-- Node9 -->
<g id="Node000009" class="node">
<title>Node9</title>
<g id="a_Node000009"><a xlink:title=" ">
<polygon fill="white" stroke="none" points="213.62,-730.75 199.62,-730.75 199.62,-681 213.62,-681 213.62,-730.75"/>
<text text-anchor="start" x="203.62" y="-717.25" font-family="Helvetica,sans-Serif" font-size="10.00">T</text>
<text text-anchor="start" x="205.12" y="-702" font-family="Helvetica,sans-Serif" font-size="10.00"> </text>
<text text-anchor="start" x="205.12" y="-686.75" font-family="Helvetica,sans-Serif" font-size="10.00"> </text>
<polygon fill="#666666" stroke="#666666" points="199.62,-713.5 199.62,-713.5 213.62,-713.5 213.62,-713.5 199.62,-713.5"/>
<polygon fill="#666666" stroke="#666666" points="199.62,-698.25 199.62,-698.25 213.62,-698.25 213.62,-698.25 199.62,-698.25"/>
<polygon fill="none" stroke="#666666" points="199.62,-681 199.62,-730.75 213.62,-730.75 213.62,-681 199.62,-681"/>
</a>
</g>
</g>
<!-- Node9&#45;&gt;Node7 -->
<g id="edge10_Node000007_Node000009" class="edge">
<title>Node9&#45;&gt;Node7</title>
<g id="a_edge10_Node000007_Node000009"><a xlink:title=" ">
<path fill="none" stroke="#63b8ff" d="M213.42,-699.18C227.62,-687.27 261.36,-658.98 288.33,-636.36"/>
<polygon fill="none" stroke="#63b8ff" points="288.4,-636.31 290.42,-629.39 297.59,-628.6 295.56,-635.52 288.4,-636.31"/>
</a>
</g>
<text text-anchor="middle" x="290.62" y="-653.5" font-family="Helvetica,sans-Serif" font-size="10.00" fill="grey"> +elements</text>
</g>
<!-- Node10 -->
<g id="Node000010" class="node">
<title>Node10</title>
<g id="a_Node000010"><a xlink:title=" ">
<polygon fill="white" stroke="none" points="149.38,-628.12 73.88,-628.12 73.88,-578.38 149.38,-578.38 149.38,-628.12"/>
<text text-anchor="start" x="77.88" y="-614.62" font-family="Helvetica,sans-Serif" font-size="10.00">std::vector&lt; T &gt;</text>
<text text-anchor="start" x="110.12" y="-599.38" font-family="Helvetica,sans-Serif" font-size="10.00"> </text>
<text text-anchor="start" x="110.12" y="-584.12" font-family="Helvetica,sans-Serif" font-size="10.00"> </text>
<polygon fill="#666666" stroke="#666666" points="73.88,-610.88 73.88,-610.88 149.38,-610.88 149.38,-610.88 73.88,-610.88"/>
<polygon fill="#666666" stroke="#666666" points="73.88,-595.62 73.88,-595.62 149.38,-595.62 149.38,-595.62 73.88,-595.62"/>
<polygon fill="none" stroke="#666666" points="73.88,-578.38 73.88,-628.12 149.38,-628.12 149.38,-578.38 73.88,-578.38"/>
</a>
</g>
</g>
<!-- Node9&#45;&gt;Node10 -->
<g id="edge13_Node000010_Node000009" class="edge">
<title>Node9&#45;&gt;Node10</title>
<g id="a_edge13_Node000010_Node000009"><a xlink:title=" ">
<path fill="none" stroke="#63b8ff" d="M199.79,-697.64C187.99,-685.13 163.08,-658.75 142.74,-637.21"/>
<polygon fill="none" stroke="#63b8ff" points="142.64,-637.1 135.61,-635.48 134.4,-628.37 141.42,-629.99 142.64,-637.1"/>
</a>
</g>
<text text-anchor="middle" x="188.81" y="-653.5" font-family="Helvetica,sans-Serif" font-size="10.00" fill="grey"> +elements</text>
</g>
<!-- Node10&#45;&gt;Node2 -->
<g id="edge12_Node000002_Node000010" class="edge">
<title>Node10&#45;&gt;Node2</title>
<g id="a_edge12_Node000002_Node000010"><a xlink:title=" ">
<path fill="none" stroke="orange" d="M105.34,-567.1C102.93,-553.61 100.2,-538.36 97.89,-525.46"/>
<polygon fill="orange" stroke="orange" points="101.89,-567.69 107.09,-576.92 108.78,-566.46 101.89,-567.69"/>
</a>
</g>
<text text-anchor="middle" x="162.69" y="-545.25" font-family="Helvetica,sans-Serif" font-size="10.00" fill="grey"> &lt; geojson::JSONProperty &gt;</text>
</g>
</g>
</svg>

<g id="navigator" transform="translate(0 0)" fill="#404254">
  <rect fill="#f2f5e9" fill-opacity="0.5" stroke="#606060" stroke-width=".5" x="0" y="0" width="60" height="60"/>
  <use id="zoomplus" xlink:href="#zoomPlus" x="17" y="9" onmousedown="handleZoom(evt,'in')"/>
  <use id="zoomminus" xlink:href="#zoomMin" x="42" y="9" onmousedown="handleZoom(evt,'out')"/>
  <use id="reset" xlink:href="#resetDef" x="30" y="36" onmousedown="handleReset()"/>
   <use id="arrowup" xlink:href="#arrowUp" x="0" y="0" onmousedown="handlePan(0,-1)"/>
  <use id="arrowright" xlink:href="#arrowRight" x="0" y="0" onmousedown="handlePan(1,0)"/>
  <use id="arrowdown" xlink:href="#arrowDown" x="0" y="0" onmousedown="handlePan(0,1)"/>
  <use id="arrowleft" xlink:href="#arrowLeft" x="0" y="0" onmousedown="handlePan(-1,0)"/>
</g>
<svg viewBox="0 0 15 15" width="100%" height="30px" preserveAspectRatio="xMaxYMin meet">
 <g id="arrow_out" transform="scale(0.3 0.3)">
  <a xlink:href="structgeojson_1_1_list__coll__graph_org.svg" target="_base">
   <rect id="button" ry="5" rx="5" y="6" x="6" height="38" width="38"
        fill="#f2f5e9" fill-opacity="0.5" stroke="#606060" stroke-width="1.0"/>
   <path id="arrow"
     d="M 11.500037,31.436501 C 11.940474,20.09759 22.043105,11.32322 32.158766,21.979434 L 37.068811,17.246167 C 37.068811,17.246167 37.088388,32 37.088388,32 L 22.160133,31.978069 C 22.160133,31.978069 26.997745,27.140456 26.997745,27.140456 C 18.528582,18.264221 13.291696,25.230495 11.500037,31.436501 z"
     style="fill:#404040;"/>
  </a>
 </g>
</svg>

<style type='text/css'>
<![CDATA[
[data-mouse-over-selected='false'] { opacity: 0.7; }
[data-mouse-over-selected='true']  { opacity: 1.0; }
]]>
</style>
<script type="application/ecmascript"><![CDATA[
document.addEventListener('DOMContentLoaded', (event) => {
  highlightEdges();
  highlightAdjacentNodes();
});
]]></script>
</svg>
