<?xml version="1.0" encoding="UTF-8" standalone="no"?>
<!DOCTYPE svg PUBLIC "-//W3C//DTD SVG 1.1//EN"
 "http://www.w3.org/Graphics/SVG/1.1/DTD/svg11.dtd">
<!-- Generated by graphviz version 12.2.0 (20241103.1931)
 -->
<!-- Title: network::VertexProperty Pages: 1 -->
<svg width="119pt" height="253pt"
 viewBox="0.00 0.00 118.75 252.75" xmlns="http://www.w3.org/2000/svg" xmlns:xlink="http://www.w3.org/1999/xlink">
<g id="graph0" class="graph" transform="scale(1 1) rotate(0) translate(4 248.75)">
<title>network::VertexProperty</title>
<!-- Node1 -->
<g id="Node000001" class="node">
<title>Node1</title>
<g id="a_Node000001"><a xlink:title=" ">
<polygon fill="#999999" stroke="none" points="110.75,-49.75 0,-49.75 0,0 110.75,0 110.75,-49.75"/>
<text text-anchor="start" x="4" y="-36.25" font-family="Helvetica,sans-Serif" font-size="10.00">network::VertexProperty</text>
<text text-anchor="start" x="53.88" y="-21" font-family="Helvetica,sans-Serif" font-size="10.00"> </text>
<text text-anchor="start" x="53.88" y="-5.75" font-family="Helvetica,sans-Serif" font-size="10.00"> </text>
<polygon fill="#666666" stroke="#666666" points="0,-32.5 0,-32.5 110.75,-32.5 110.75,-32.5 0,-32.5"/>
<polygon fill="#666666" stroke="#666666" points="0,-17.25 0,-17.25 110.75,-17.25 110.75,-17.25 0,-17.25"/>
<polygon fill="none" stroke="#666666" points="0,0 0,-49.75 110.75,-49.75 110.75,0 0,0"/>
</a>
</g>
</g>
<!-- Node2 -->
<g id="Node000002" class="node">
<title>Node2</title>
<g id="a_Node000002"><a xlink:title=" ">
<polygon fill="white" stroke="none" points="80.38,-146.75 30.38,-146.75 30.38,-97 80.38,-97 80.38,-146.75"/>
<text text-anchor="start" x="34.38" y="-133.25" font-family="Helvetica,sans-Serif" font-size="10.00">std::string</text>
<text text-anchor="start" x="53.88" y="-118" font-family="Helvetica,sans-Serif" font-size="10.00"> </text>
<text text-anchor="start" x="53.88" y="-102.75" font-family="Helvetica,sans-Serif" font-size="10.00"> </text>
<polygon fill="#666666" stroke="#666666" points="30.38,-129.5 30.38,-129.5 80.38,-129.5 80.38,-129.5 30.38,-129.5"/>
<polygon fill="#666666" stroke="#666666" points="30.38,-114.25 30.38,-114.25 80.38,-114.25 80.38,-114.25 30.38,-114.25"/>
<polygon fill="none" stroke="#666666" points="30.38,-97 30.38,-146.75 80.38,-146.75 80.38,-97 30.38,-97"/>
</a>
</g>
</g>
<!-- Node2&#45;&gt;Node1 -->
<g id="edge1_Node000001_Node000002" class="edge">
<title>Node2&#45;&gt;Node1</title>
<g id="a_edge1_Node000001_Node000002"><a xlink:title=" ">
<path fill="none" stroke="#63b8ff" d="M55.38,-97.39C55.38,-86.85 55.38,-74.17 55.38,-62.44"/>
<polygon fill="none" stroke="#63b8ff" points="55.38,-62.65 51.38,-56.65 55.38,-50.65 59.38,-56.65 55.38,-62.65"/>
</a>
</g>
<text text-anchor="middle" x="63.25" y="-69.5" font-family="Helvetica,sans-Serif" font-size="10.00" fill="grey"> +id</text>
</g>
<!-- Node3 -->
<g id="Node000003" class="node">
<title>Node3</title>
<g id="a_Node000003"><a xlink:title=" ">
<polygon fill="white" stroke="none" points="97.62,-244.75 13.12,-244.75 13.12,-183.75 97.62,-183.75 97.62,-244.75"/>
<text text-anchor="start" x="17.12" y="-231.25" font-family="Helvetica,sans-Serif" font-size="10.00">std::basic_string&lt;</text>
<text text-anchor="start" x="40" y="-220" font-family="Helvetica,sans-Serif" font-size="10.00"> Char &gt;</text>
<text text-anchor="start" x="53.88" y="-204.75" font-family="Helvetica,sans-Serif" font-size="10.00"> </text>
<text text-anchor="start" x="53.88" y="-189.5" font-family="Helvetica,sans-Serif" font-size="10.00"> </text>
<polygon fill="#666666" stroke="#666666" points="13.12,-216.25 13.12,-216.25 97.62,-216.25 97.62,-216.25 13.12,-216.25"/>
<polygon fill="#666666" stroke="#666666" points="13.12,-201 13.12,-201 97.62,-201 97.62,-201 13.12,-201"/>
<polygon fill="none" stroke="#666666" points="13.12,-183.75 13.12,-244.75 97.62,-244.75 97.62,-183.75 13.12,-183.75"/>
</a>
</g>
</g>
<!-- Node3&#45;&gt;Node2 -->
<g id="edge2_Node000002_Node000003" class="edge">
<title>Node3&#45;&gt;Node2</title>
<g id="a_edge2_Node000002_Node000003"><a xlink:title=" ">
<path fill="none" stroke="#63b8ff" d="M55.38,-172.65C55.38,-163.69 55.38,-154.5 55.38,-146.48"/>
<polygon fill="none" stroke="#63b8ff" points="51.88,-172.64 55.38,-182.64 58.88,-172.64 51.88,-172.64"/>
</a>
</g>
</g>
</g>
</svg>
