<?xml version="1.0" encoding="UTF-8" standalone="no"?>
<!DOCTYPE svg PUBLIC "-//W3C//DTD SVG 1.1//EN"
 "http://www.w3.org/Graphics/SVG/1.1/DTD/svg11.dtd">
<!-- Generated by graphviz version 12.2.0 (20241103.1931)
 -->
<!-- Title: utils::time_marker Pages: 1 -->
<svg width="110pt" height="268pt"
 viewBox="0.00 0.00 110.00 268.00" xmlns="http://www.w3.org/2000/svg" xmlns:xlink="http://www.w3.org/1999/xlink">

<svg id="main" version="1.1" xmlns="http://www.w3.org/2000/svg" xmlns:xlink="http://www.w3.org/1999/xlink" xml:space="preserve">

<style type="text/css"><![CDATA[
.node, .edge {opacity: 0.7;}
.node.selected, .edge.selected {opacity: 1;}
.edge:hover path { stroke: red; }
.edge:hover polygon { stroke: red; fill: red; }
]]></style>
<script type="application/ecmascript" xlink:href="svg.min.js"/>
<svg id="graph" class="graph">
<g id="graph0" class="graph" transform="scale(1 1) rotate(0) translate(4 264)">
<title>utils::time_marker</title>
<!-- Node1 -->
<g id="Node000001" class="node">
<title>Node1</title>
<g id="a_Node000001"><a xlink:title="Simple helper struct for tracking meaningful points in time for output writing.">
<polygon fill="#999999" stroke="none" points="85.5,-65 0,-65 0,0 85.5,0 85.5,-65"/>
<text text-anchor="start" x="4.5" y="-51.5" font-family="Helvetica,sans-Serif" font-size="10.00">utils::time_marker</text>
<text text-anchor="start" x="4" y="-36.25" font-family="Helvetica,sans-Serif" font-size="10.00">+</text>
<text text-anchor="start" x="14" y="-36.25" font-family="Helvetica,sans-Serif" font-size="10.00">sim_time_index</text>
<text text-anchor="start" x="4" y="-21" font-family="Helvetica,sans-Serif" font-size="10.00">+</text>
<text text-anchor="start" x="14" y="-21" font-family="Helvetica,sans-Serif" font-size="10.00">epoch_time</text>
<text text-anchor="start" x="4" y="-5.75" font-family="Helvetica,sans-Serif" font-size="10.00">+</text>
<text text-anchor="start" x="14" y="-5.75" font-family="Helvetica,sans-Serif" font-size="10.00">time_marker()</text>
<polygon fill="#666666" stroke="#666666" points="0,-47.75 0,-47.75 85.5,-47.75 85.5,-47.75 0,-47.75"/>
<polygon fill="#666666" stroke="#666666" points="0,-17.25 0,-17.25 12,-17.25 12,-17.25 0,-17.25"/>
<polygon fill="#666666" stroke="#666666" points="12,-17.25 12,-17.25 85.5,-17.25 85.5,-17.25 12,-17.25"/>
<polygon fill="none" stroke="#666666" points="0,0 0,-65 85.5,-65 85.5,0 0,0"/>
</a>
</g>
</g>
<!-- Node2 -->
<g id="Node000002" class="node">
<title>Node2</title>
<g id="a_Node000002"><a xlink:title=" ">
<polygon fill="white" stroke="none" points="67.75,-162 17.75,-162 17.75,-112.25 67.75,-112.25 67.75,-162"/>
<text text-anchor="start" x="21.75" y="-148.5" font-family="Helvetica,sans-Serif" font-size="10.00">std::string</text>
<text text-anchor="start" x="41.25" y="-133.25" font-family="Helvetica,sans-Serif" font-size="10.00"> </text>
<text text-anchor="start" x="41.25" y="-118" font-family="Helvetica,sans-Serif" font-size="10.00"> </text>
<polygon fill="#666666" stroke="#666666" points="17.75,-144.75 17.75,-144.75 67.75,-144.75 67.75,-144.75 17.75,-144.75"/>
<polygon fill="#666666" stroke="#666666" points="17.75,-129.5 17.75,-129.5 67.75,-129.5 67.75,-129.5 17.75,-129.5"/>
<polygon fill="none" stroke="#666666" points="17.75,-112.25 17.75,-162 67.75,-162 67.75,-112.25 17.75,-112.25"/>
</a>
</g>
</g>
<!-- Node2&#45;&gt;Node1 -->
<g id="edge1_Node000001_Node000002" class="edge">
<title>Node2&#45;&gt;Node1</title>
<g id="a_edge1_Node000001_Node000002"><a xlink:title=" ">
<path fill="none" stroke="#63b8ff" d="M42.75,-112.32C42.75,-102.08 42.75,-89.77 42.75,-77.95"/>
<polygon fill="none" stroke="#63b8ff" points="42.75,-77.85 38.75,-71.85 42.75,-65.85 46.75,-71.85 42.75,-77.85"/>
</a>
</g>
<text text-anchor="middle" x="72.38" y="-84.75" font-family="Helvetica,sans-Serif" font-size="10.00" fill="grey"> +time_stamp</text>
</g>
<!-- Node3 -->
<g id="Node000003" class="node">
<title>Node3</title>
<g id="a_Node000003"><a xlink:title=" ">
<polygon fill="white" stroke="none" points="85,-260 0.5,-260 0.5,-199 85,-199 85,-260"/>
<text text-anchor="start" x="4.5" y="-246.5" font-family="Helvetica,sans-Serif" font-size="10.00">std::basic_string&lt;</text>
<text text-anchor="start" x="27.38" y="-235.25" font-family="Helvetica,sans-Serif" font-size="10.00"> Char &gt;</text>
<text text-anchor="start" x="41.25" y="-220" font-family="Helvetica,sans-Serif" font-size="10.00"> </text>
<text text-anchor="start" x="41.25" y="-204.75" font-family="Helvetica,sans-Serif" font-size="10.00"> </text>
<polygon fill="#666666" stroke="#666666" points="0.5,-231.5 0.5,-231.5 85,-231.5 85,-231.5 0.5,-231.5"/>
<polygon fill="#666666" stroke="#666666" points="0.5,-216.25 0.5,-216.25 85,-216.25 85,-216.25 0.5,-216.25"/>
<polygon fill="none" stroke="#666666" points="0.5,-199 0.5,-260 85,-260 85,-199 0.5,-199"/>
</a>
</g>
</g>
<!-- Node3&#45;&gt;Node2 -->
<g id="edge2_Node000002_Node000003" class="edge">
<title>Node3&#45;&gt;Node2</title>
<g id="a_edge2_Node000002_Node000003"><a xlink:title=" ">
<path fill="none" stroke="#63b8ff" d="M42.75,-187.9C42.75,-178.94 42.75,-169.75 42.75,-161.73"/>
<polygon fill="none" stroke="#63b8ff" points="39.25,-187.89 42.75,-197.89 46.25,-187.89 39.25,-187.89"/>
</a>
</g>
</g>
</g>
</svg>
</svg>

<style type='text/css'>
<![CDATA[
[data-mouse-over-selected='false'] { opacity: 0.7; }
[data-mouse-over-selected='true']  { opacity: 1.0; }
]]>
</style>
<script type="application/ecmascript"><![CDATA[
document.addEventListener('DOMContentLoaded', (event) => {
  highlightEdges();
  highlightAdjacentNodes();
});
]]></script>
</svg>
