<?xml version="1.0" encoding="UTF-8" standalone="no"?>
<!DOCTYPE svg PUBLIC "-//W3C//DTD SVG 1.1//EN"
 "http://www.w3.org/Graphics/SVG/1.1/DTD/svg11.dtd">
<!-- Generated by graphviz version 9.0.0 (20230911.1827)
 -->
<!-- Title: invalid_time_step Pages: 1 -->
<svg width="174pt" height="142pt"
 viewBox="0.00 0.00 174.00 142.00" xmlns="http://www.w3.org/2000/svg" xmlns:xlink="http://www.w3.org/1999/xlink">

<svg id="main" version="1.1" xmlns="http://www.w3.org/2000/svg" xmlns:xlink="http://www.w3.org/1999/xlink" xml:space="preserve" onload="init(evt)">
<style type="text/css"><![CDATA[
.node, .edge {opacity: 0.7;}
.node.selected, .edge.selected {opacity: 1;}
.edge:hover path { stroke: red; }
.edge:hover polygon { stroke: red; fill: red; }
]]></style>
<script type="application/ecmascript" xlink:href="svg.min.js"/>
<svg id="graph" class="graph">
<g id="graph0" class="graph" transform="scale(1 1) rotate(0) translate(4 138)">
<title>invalid_time_step</title>
<!-- Node1 -->
<g id="Node000001" class="node">
<title>Node1</title>
<g id="a_Node000001"><a xlink:title=" ">
<polygon fill="#999999" stroke="none" points="128,-49 43,-49 43,0 128,0 128,-49"/>
<text text-anchor="start" x="47.62" y="-35.5" font-family="Helvetica,sans-Serif" font-size="10.00">invalid_time_step</text>
<text text-anchor="start" x="84" y="-20.5" font-family="Helvetica,sans-Serif" font-size="10.00"> </text>
<text text-anchor="start" x="57" y="-5.5" font-family="Helvetica,sans-Serif" font-size="10.00">+</text>
<text text-anchor="start" x="77" y="-5.5" font-family="Helvetica,sans-Serif" font-size="10.00">what()</text>
<polygon fill="#666666" stroke="#666666" points="43,-32 43,-32 128,-32 128,-32 43,-32"/>
<polygon fill="#666666" stroke="#666666" points="43,-17 43,-17 128,-17 128,-17 43,-17"/>
<polygon fill="none" stroke="#666666" points="43,0 43,-49 128,-49 128,0 43,0"/>
</a>
</g>
</g>
<!-- Node2 -->
<g id="Node000002" class="node">
<title>Node2</title>
<g id="a_Node000002"><a xlink:title=" ">
<polygon fill="white" stroke="none" points="79,-134 0,-134 0,-85 79,-85 79,-134"/>
<text text-anchor="start" x="4.62" y="-120.5" font-family="Helvetica,sans-Serif" font-size="10.00">boost::exception</text>
<text text-anchor="start" x="38" y="-105.5" font-family="Helvetica,sans-Serif" font-size="10.00"> </text>
<text text-anchor="start" x="38" y="-90.5" font-family="Helvetica,sans-Serif" font-size="10.00"> </text>
<polygon fill="#666666" stroke="#666666" points="0,-117 0,-117 79,-117 79,-117 0,-117"/>
<polygon fill="#666666" stroke="#666666" points="0,-102 0,-102 79,-102 79,-102 0,-102"/>
<polygon fill="none" stroke="#666666" points="0,-85 0,-134 79,-134 79,-85 0,-85"/>
</a>
</g>
</g>
<!-- Node2&#45;&gt;Node1 -->
<g id="edge1_Node000001_Node000002" class="edge">
<title>Node2&#45;&gt;Node1</title>
<g id="a_edge1_Node000001_Node000002"><a xlink:title=" ">
<path fill="none" stroke="#63b8ff" d="M57.74,-75.59C62.71,-66.62 67.99,-57.09 72.6,-48.78"/>
<polygon fill="none" stroke="#63b8ff" points="54.83,-73.61 53.05,-84.06 60.96,-77.01 54.83,-73.61"/>
</a>
</g>
</g>
<!-- Node3 -->
<g id="Node000003" class="node">
<title>Node3</title>
<g id="a_Node000003"><a xlink:title=" ">
<polygon fill="white" stroke="none" points="166,-134 97,-134 97,-85 166,-85 166,-134"/>
<text text-anchor="start" x="101.88" y="-120.5" font-family="Helvetica,sans-Serif" font-size="10.00">std::exception</text>
<text text-anchor="start" x="130" y="-105.5" font-family="Helvetica,sans-Serif" font-size="10.00"> </text>
<text text-anchor="start" x="130" y="-90.5" font-family="Helvetica,sans-Serif" font-size="10.00"> </text>
<polygon fill="#666666" stroke="#666666" points="97,-117 97,-117 166,-117 166,-117 97,-117"/>
<polygon fill="#666666" stroke="#666666" points="97,-102 97,-102 166,-102 166,-102 97,-102"/>
<polygon fill="none" stroke="#666666" points="97,-85 97,-134 166,-134 166,-85 97,-85"/>
</a>
</g>
</g>
<!-- Node3&#45;&gt;Node1 -->
<g id="edge2_Node000001_Node000003" class="edge">
<title>Node3&#45;&gt;Node1</title>
<g id="a_edge2_Node000001_Node000003"><a xlink:title=" ">
<path fill="none" stroke="#63b8ff" d="M113.26,-75.59C108.29,-66.62 103.01,-57.09 98.4,-48.78"/>
<polygon fill="none" stroke="#63b8ff" points="110.04,-77.01 117.95,-84.06 116.17,-73.61 110.04,-77.01"/>
</a>
</g>
</g>
</g>
</svg>
</svg>

<style type='text/css'>
<![CDATA[
[data-mouse-over-selected='false'] { opacity: 0.7; }
[data-mouse-over-selected='true']  { opacity: 1.0; }
]]>
</style>
<script type="application/ecmascript"><![CDATA[
document.addEventListener('DOMContentLoaded', (event) => {
  highlightEdges();
  highlightAdjacentNodes();
});
]]></script>
</svg>
