<?xml version="1.0" encoding="UTF-8" standalone="no"?>
<!DOCTYPE svg PUBLIC "-//W3C//DTD SVG 1.1//EN"
 "http://www.w3.org/Graphics/SVG/1.1/DTD/svg11.dtd">
<!-- Generated by graphviz version 9.0.0 (20230911.1827)
 -->
<!-- Title: ngen::sqlite::sqlite_error Pages: 1 -->
<svg width="94pt" height="238pt"
 viewBox="0.00 0.00 94.00 238.00" xmlns="http://www.w3.org/2000/svg" xmlns:xlink="http://www.w3.org/1999/xlink">
<g id="graph0" class="graph" transform="scale(1 1) rotate(0) translate(4 234)">
<title>ngen::sqlite::sqlite_error</title>
<!-- Node1 -->
<g id="Node000001" class="node">
<title>Node1</title>
<g id="a_Node000001"><a xlink:title=" ">
<polygon fill="#999999" stroke="none" points="86,-60 0,-60 0,0 86,0 86,-60"/>
<text text-anchor="start" x="4.75" y="-46.5" font-family="Helvetica,sans-Serif" font-size="10.00">ngen::sqlite::sqlite</text>
<text text-anchor="start" x="30.62" y="-35.25" font-family="Helvetica,sans-Serif" font-size="10.00">_error</text>
<text text-anchor="start" x="41.5" y="-20.5" font-family="Helvetica,sans-Serif" font-size="10.00"> </text>
<text text-anchor="start" x="7.5" y="-5.5" font-family="Helvetica,sans-Serif" font-size="10.00">+</text>
<text text-anchor="start" x="21" y="-5.5" font-family="Helvetica,sans-Serif" font-size="10.00">sqlite_error()</text>
<polygon fill="#666666" stroke="#666666" points="0,-32 0,-32 86,-32 86,-32 0,-32"/>
<polygon fill="#666666" stroke="#666666" points="0,-17 0,-17 86,-17 86,-17 0,-17"/>
<polygon fill="none" stroke="#666666" points="0,0 0,-60 86,-60 86,0 0,0"/>
</a>
</g>
</g>
<!-- Node2 -->
<g id="Node000002" class="node">
<title>Node2</title>
<g id="a_Node000002"><a xlink:title=" ">
<polygon fill="white" stroke="none" points="85.5,-145 0.5,-145 0.5,-96 85.5,-96 85.5,-145"/>
<text text-anchor="start" x="5.5" y="-131.5" font-family="Helvetica,sans-Serif" font-size="10.00">std::runtime_error</text>
<text text-anchor="start" x="41.5" y="-116.5" font-family="Helvetica,sans-Serif" font-size="10.00"> </text>
<text text-anchor="start" x="41.5" y="-101.5" font-family="Helvetica,sans-Serif" font-size="10.00"> </text>
<polygon fill="#666666" stroke="#666666" points="0.5,-128 0.5,-128 85.5,-128 85.5,-128 0.5,-128"/>
<polygon fill="#666666" stroke="#666666" points="0.5,-113 0.5,-113 85.5,-113 85.5,-113 0.5,-113"/>
<polygon fill="none" stroke="#666666" points="0.5,-96 0.5,-145 85.5,-145 85.5,-96 0.5,-96"/>
</a>
</g>
</g>
<!-- Node2&#45;&gt;Node1 -->
<g id="edge1_Node000001_Node000002" class="edge">
<title>Node2&#45;&gt;Node1</title>
<g id="a_edge1_Node000001_Node000002"><a xlink:title=" ">
<path fill="none" stroke="#63b8ff" d="M43,-84.94C43,-76.62 43,-67.82 43,-59.79"/>
<polygon fill="none" stroke="#63b8ff" points="39.5,-84.73 43,-94.73 46.5,-84.73 39.5,-84.73"/>
</a>
</g>
</g>
<!-- Node3 -->
<g id="Node000003" class="node">
<title>Node3</title>
<g id="a_Node000003"><a xlink:title=" ">
<polygon fill="white" stroke="none" points="77.5,-230 8.5,-230 8.5,-181 77.5,-181 77.5,-230"/>
<text text-anchor="start" x="13.38" y="-216.5" font-family="Helvetica,sans-Serif" font-size="10.00">std::exception</text>
<text text-anchor="start" x="41.5" y="-201.5" font-family="Helvetica,sans-Serif" font-size="10.00"> </text>
<text text-anchor="start" x="41.5" y="-186.5" font-family="Helvetica,sans-Serif" font-size="10.00"> </text>
<polygon fill="#666666" stroke="#666666" points="8.5,-213 8.5,-213 77.5,-213 77.5,-213 8.5,-213"/>
<polygon fill="#666666" stroke="#666666" points="8.5,-198 8.5,-198 77.5,-198 77.5,-198 8.5,-198"/>
<polygon fill="none" stroke="#666666" points="8.5,-181 8.5,-230 77.5,-230 77.5,-181 8.5,-181"/>
</a>
</g>
</g>
<!-- Node3&#45;&gt;Node2 -->
<g id="edge2_Node000002_Node000003" class="edge">
<title>Node3&#45;&gt;Node2</title>
<g id="a_edge2_Node000002_Node000003"><a xlink:title=" ">
<path fill="none" stroke="#63b8ff" d="M43,-170.14C43,-161.6 43,-152.65 43,-144.78"/>
<polygon fill="none" stroke="#63b8ff" points="39.5,-169.87 43,-179.87 46.5,-169.87 39.5,-169.87"/>
</a>
</g>
</g>
</g>
</svg>
