<?xml version="1.0" encoding="UTF-8" standalone="no"?>
<!DOCTYPE svg PUBLIC "-//W3C//DTD SVG 1.1//EN"
 "http://www.w3.org/Graphics/SVG/1.1/DTD/svg11.dtd">
<!-- Generated by graphviz version 9.0.0 (20230911.1827)
 -->
<!-- Title: realization::config::Routing Pages: 1 -->
<svg width="224pt" height="491pt"
 viewBox="0.00 0.00 223.50 491.00" xmlns="http://www.w3.org/2000/svg" xmlns:xlink="http://www.w3.org/1999/xlink">
<g id="graph0" class="graph" transform="scale(1 1) rotate(0) translate(4 487)">
<title>realization::config::Routing</title>
<!-- Node1 -->
<g id="Node000001" class="node">
<title>Node1</title>
<g id="a_Node000001"><a xlink:title=" ">
<polygon fill="#999999" stroke="none" points="141.5,-60 58.5,-60 58.5,0 141.5,0 141.5,-60"/>
<text text-anchor="start" x="63.25" y="-46.5" font-family="Helvetica,sans-Serif" font-size="10.00">realization::config</text>
<text text-anchor="start" x="81.25" y="-35.25" font-family="Helvetica,sans-Serif" font-size="10.00">::Routing</text>
<text text-anchor="start" x="98.5" y="-20.5" font-family="Helvetica,sans-Serif" font-size="10.00"> </text>
<text text-anchor="start" x="69" y="-5.5" font-family="Helvetica,sans-Serif" font-size="10.00">+</text>
<text text-anchor="start" x="85.5" y="-5.5" font-family="Helvetica,sans-Serif" font-size="10.00">Routing()</text>
<polygon fill="#666666" stroke="#666666" points="58.5,-32 58.5,-32 141.5,-32 141.5,-32 58.5,-32"/>
<polygon fill="#666666" stroke="#666666" points="58.5,-17 58.5,-17 141.5,-17 141.5,-17 58.5,-17"/>
<polygon fill="none" stroke="#666666" points="58.5,0 58.5,-60 141.5,-60 141.5,0 58.5,0"/>
</a>
</g>
</g>
<!-- Node2 -->
<g id="Node000002" class="node">
<title>Node2</title>
<g id="a_Node000002"><a xlink:title=" ">
<polygon fill="white" stroke="none" points="155.5,-167.25 44.5,-167.25 44.5,-107.25 155.5,-107.25 155.5,-167.25"/>
<text text-anchor="start" x="49.38" y="-153.75" font-family="Helvetica,sans-Serif" font-size="10.00">std::shared_ptr&lt; routing</text>
<text text-anchor="start" x="77.12" y="-142.5" font-family="Helvetica,sans-Serif" font-size="10.00">_params &gt;</text>
<text text-anchor="start" x="98.5" y="-127.75" font-family="Helvetica,sans-Serif" font-size="10.00"> </text>
<text text-anchor="start" x="59" y="-112.75" font-family="Helvetica,sans-Serif" font-size="10.00">+</text>
<text text-anchor="start" x="79.5" y="-112.75" font-family="Helvetica,sans-Serif" font-size="10.00">operator&#45;&gt;()</text>
<polygon fill="#666666" stroke="#666666" points="44.5,-139.25 44.5,-139.25 155.5,-139.25 155.5,-139.25 44.5,-139.25"/>
<polygon fill="#666666" stroke="#666666" points="44.5,-124.25 44.5,-124.25 155.5,-124.25 155.5,-124.25 44.5,-124.25"/>
<polygon fill="none" stroke="#666666" points="44.5,-107.25 44.5,-167.25 155.5,-167.25 155.5,-107.25 44.5,-107.25"/>
</a>
</g>
</g>
<!-- Node2&#45;&gt;Node1 -->
<g id="edge1_Node000001_Node000002" class="edge">
<title>Node2&#45;&gt;Node1</title>
<g id="a_edge1_Node000001_Node000002"><a xlink:title=" ">
<path fill="none" stroke="#63b8ff" d="M100,-107.49C100,-96.7 100,-84.21 100,-72.49"/>
<polygon fill="none" stroke="#63b8ff" points="100,-72.63 96,-66.63 100,-60.63 104,-66.63 100,-72.63"/>
</a>
</g>
<text text-anchor="middle" x="120.25" y="-79.75" font-family="Helvetica,sans-Serif" font-size="10.00" fill="grey"> +params</text>
</g>
<!-- Node3 -->
<g id="Node000003" class="node">
<title>Node3</title>
<g id="a_Node000003"><a xlink:href="structrouting__params.html" target="_top" xlink:title="routing_params providing configuration information for routing.">
<polygon fill="white" stroke="none" points="90,-278.5 0,-278.5 0,-214.5 90,-214.5 90,-278.5"/>
<text text-anchor="start" x="11.62" y="-265" font-family="Helvetica,sans-Serif" font-size="10.00">routing_params</text>
<text text-anchor="start" x="43.5" y="-250" font-family="Helvetica,sans-Serif" font-size="10.00"> </text>
<text text-anchor="start" x="4" y="-235" font-family="Helvetica,sans-Serif" font-size="10.00">+</text>
<text text-anchor="start" x="14" y="-235" font-family="Helvetica,sans-Serif" font-size="10.00">routing_params()</text>
<text text-anchor="start" x="4" y="-220" font-family="Helvetica,sans-Serif" font-size="10.00">+</text>
<text text-anchor="start" x="14" y="-220" font-family="Helvetica,sans-Serif" font-size="10.00">routing_params()</text>
<polygon fill="#666666" stroke="#666666" points="0,-261.5 0,-261.5 90,-261.5 90,-261.5 0,-261.5"/>
<polygon fill="#666666" stroke="#666666" points="0,-246.5 0,-246.5 90,-246.5 90,-246.5 0,-246.5"/>
<polygon fill="none" stroke="#666666" points="0,-214.5 0,-278.5 90,-278.5 90,-214.5 0,-214.5"/>
</a>
</g>
</g>
<!-- Node3&#45;&gt;Node2 -->
<g id="edge2_Node000002_Node000003" class="edge">
<title>Node3&#45;&gt;Node2</title>
<g id="a_edge2_Node000002_Node000003"><a xlink:title=" ">
<path fill="none" stroke="#63b8ff" d="M60.76,-214.77C66.52,-203.53 73.13,-190.65 79.26,-178.69"/>
<polygon fill="none" stroke="#63b8ff" points="79.29,-178.63 78.47,-171.46 84.77,-167.95 85.59,-175.11 79.29,-178.63"/>
</a>
</g>
<text text-anchor="middle" x="85.75" y="-187" font-family="Helvetica,sans-Serif" font-size="10.00" fill="grey"> +ptr</text>
</g>
<!-- Node4 -->
<g id="Node000004" class="node">
<title>Node4</title>
<g id="a_Node000004"><a xlink:title=" ">
<polygon fill="white" stroke="none" points="71,-386 19,-386 19,-337 71,-337 71,-386"/>
<text text-anchor="start" x="24" y="-372.5" font-family="Helvetica,sans-Serif" font-size="10.00">std::string</text>
<text text-anchor="start" x="43.5" y="-357.5" font-family="Helvetica,sans-Serif" font-size="10.00"> </text>
<text text-anchor="start" x="43.5" y="-342.5" font-family="Helvetica,sans-Serif" font-size="10.00"> </text>
<polygon fill="#666666" stroke="#666666" points="19,-369 19,-369 71,-369 71,-369 19,-369"/>
<polygon fill="#666666" stroke="#666666" points="19,-354 19,-354 71,-354 71,-354 19,-354"/>
<polygon fill="none" stroke="#666666" points="19,-337 19,-386 71,-386 71,-337 19,-337"/>
</a>
</g>
</g>
<!-- Node4&#45;&gt;Node3 -->
<g id="edge3_Node000003_Node000004" class="edge">
<title>Node4&#45;&gt;Node3</title>
<g id="a_edge3_Node000003_Node000004"><a xlink:title=" ">
<path fill="none" stroke="#63b8ff" d="M45,-337.09C45,-323.75 45,-306.62 45,-290.92"/>
<polygon fill="none" stroke="#63b8ff" points="45,-291.08 41,-285.08 45,-279.08 49,-285.08 45,-291.08"/>
</a>
</g>
<text text-anchor="start" x="45" y="-309.5" font-family="Helvetica,sans-Serif" font-size="10.00" fill="grey"> +t_route_config_file</text>
<text text-anchor="middle" x="88.12" y="-298.25" font-family="Helvetica,sans-Serif" font-size="10.00" fill="grey">_with_path</text>
</g>
<!-- Node5 -->
<g id="Node000005" class="node">
<title>Node5</title>
<g id="a_Node000005"><a xlink:title=" ">
<polygon fill="white" stroke="none" points="88,-483 2,-483 2,-423 88,-423 88,-483"/>
<text text-anchor="start" x="6.75" y="-469.5" font-family="Helvetica,sans-Serif" font-size="10.00">std::basic_string&lt;</text>
<text text-anchor="start" x="29.62" y="-458.25" font-family="Helvetica,sans-Serif" font-size="10.00"> Char &gt;</text>
<text text-anchor="start" x="43.5" y="-443.5" font-family="Helvetica,sans-Serif" font-size="10.00"> </text>
<text text-anchor="start" x="43.5" y="-428.5" font-family="Helvetica,sans-Serif" font-size="10.00"> </text>
<polygon fill="#666666" stroke="#666666" points="2,-455 2,-455 88,-455 88,-455 2,-455"/>
<polygon fill="#666666" stroke="#666666" points="2,-440 2,-440 88,-440 88,-440 2,-440"/>
<polygon fill="none" stroke="#666666" points="2,-423 2,-483 88,-483 88,-423 2,-423"/>
</a>
</g>
</g>
<!-- Node5&#45;&gt;Node4 -->
<g id="edge4_Node000004_Node000005" class="edge">
<title>Node5&#45;&gt;Node4</title>
<g id="a_edge4_Node000004_Node000005"><a xlink:title=" ">
<path fill="none" stroke="#63b8ff" d="M45,-411.79C45,-402.92 45,-393.82 45,-385.88"/>
<polygon fill="none" stroke="#63b8ff" points="41.5,-411.68 45,-421.68 48.5,-411.68 41.5,-411.68"/>
</a>
</g>
</g>
<!-- Node6 -->
<g id="Node000006" class="node">
<title>Node6</title>
<g id="a_Node000006"><a xlink:title=" ">
<polygon fill="white" stroke="none" points="204,-271 108,-271 108,-222 204,-222 204,-271"/>
<text text-anchor="start" x="112.88" y="-257.5" font-family="Helvetica,sans-Serif" font-size="10.00">std::shared_ptr&lt; T &gt;</text>
<text text-anchor="start" x="154.5" y="-242.5" font-family="Helvetica,sans-Serif" font-size="10.00"> </text>
<text text-anchor="start" x="119" y="-227.5" font-family="Helvetica,sans-Serif" font-size="10.00">+</text>
<text text-anchor="start" x="136" y="-227.5" font-family="Helvetica,sans-Serif" font-size="10.00">operator&#45;&gt;()</text>
<polygon fill="#666666" stroke="#666666" points="108,-254 108,-254 204,-254 204,-254 108,-254"/>
<polygon fill="#666666" stroke="#666666" points="108,-239 108,-239 204,-239 204,-239 108,-239"/>
<polygon fill="none" stroke="#666666" points="108,-222 108,-271 204,-271 204,-222 108,-222"/>
</a>
</g>
</g>
<!-- Node6&#45;&gt;Node2 -->
<g id="edge5_Node000002_Node000006" class="edge">
<title>Node6&#45;&gt;Node2</title>
<g id="a_edge5_Node000002_Node000006"><a xlink:title=" ">
<path fill="none" stroke="orange" d="M138.62,-212.22C131.1,-197.81 122.38,-181.1 115.13,-167.22"/>
<polygon fill="orange" stroke="orange" points="135.42,-213.64 143.15,-220.89 141.62,-210.4 135.42,-213.64"/>
</a>
</g>
<text text-anchor="middle" x="172.75" y="-187" font-family="Helvetica,sans-Serif" font-size="10.00" fill="grey"> &lt; routing_params &gt;</text>
</g>
<!-- Node7 -->
<g id="Node000007" class="node">
<title>Node7</title>
<g id="a_Node000007"><a xlink:title=" ">
<polygon fill="white" stroke="none" points="164,-386 148,-386 148,-337 164,-337 164,-386"/>
<text text-anchor="start" x="153" y="-372.5" font-family="Helvetica,sans-Serif" font-size="10.00">T</text>
<text text-anchor="start" x="154.5" y="-357.5" font-family="Helvetica,sans-Serif" font-size="10.00"> </text>
<text text-anchor="start" x="154.5" y="-342.5" font-family="Helvetica,sans-Serif" font-size="10.00"> </text>
<polygon fill="#666666" stroke="#666666" points="148,-369 148,-369 164,-369 164,-369 148,-369"/>
<polygon fill="#666666" stroke="#666666" points="148,-354 148,-354 164,-354 164,-354 148,-354"/>
<polygon fill="none" stroke="#666666" points="148,-337 148,-386 164,-386 164,-337 148,-337"/>
</a>
</g>
</g>
<!-- Node7&#45;&gt;Node6 -->
<g id="edge6_Node000006_Node000007" class="edge">
<title>Node7&#45;&gt;Node6</title>
<g id="a_edge6_Node000006_Node000007"><a xlink:title=" ">
<path fill="none" stroke="#63b8ff" d="M156,-337.09C156,-321.71 156,-301.28 156,-283.81"/>
<polygon fill="none" stroke="#63b8ff" points="156,-283.79 152,-277.79 156,-271.79 160,-277.79 156,-283.79"/>
</a>
</g>
<text text-anchor="middle" x="165.75" y="-303.88" font-family="Helvetica,sans-Serif" font-size="10.00" fill="grey"> +ptr</text>
</g>
</g>
</svg>
