<?xml version="1.0" encoding="UTF-8" standalone="no"?>
<!DOCTYPE svg PUBLIC "-//W3C//DTD SVG 1.1//EN"
 "http://www.w3.org/Graphics/SVG/1.1/DTD/svg11.dtd">
<!-- Generated by graphviz version 12.2.0 (20241103.1931)
 -->
<!-- Title: invalid_downstream_request Pages: 1 -->
<svg width="172pt" height="155pt"
 viewBox="0.00 0.00 171.50 154.75" xmlns="http://www.w3.org/2000/svg" xmlns:xlink="http://www.w3.org/1999/xlink">
<g id="graph0" class="graph" transform="scale(1 1) rotate(0) translate(4 150.75)">
<title>invalid_downstream_request</title>
<!-- Node1 -->
<g id="Node000001" class="node">
<title>Node1</title>
<g id="a_Node000001"><a xlink:title=" ">
<polygon fill="#999999" stroke="none" points="131,-61 36.75,-61 36.75,0 131,0 131,-61"/>
<text text-anchor="start" x="40.75" y="-47.5" font-family="Helvetica,sans-Serif" font-size="10.00">invalid_downstream</text>
<text text-anchor="start" x="65.12" y="-36.25" font-family="Helvetica,sans-Serif" font-size="10.00">_request</text>
<text text-anchor="start" x="82.38" y="-21" font-family="Helvetica,sans-Serif" font-size="10.00"> </text>
<text text-anchor="start" x="53.06" y="-5.75" font-family="Helvetica,sans-Serif" font-size="10.00">+</text>
<text text-anchor="start" x="75.38" y="-5.75" font-family="Helvetica,sans-Serif" font-size="10.00">what()</text>
<polygon fill="#666666" stroke="#666666" points="36.75,-32.5 36.75,-32.5 131,-32.5 131,-32.5 36.75,-32.5"/>
<polygon fill="#666666" stroke="#666666" points="36.75,-17.25 36.75,-17.25 131,-17.25 131,-17.25 36.75,-17.25"/>
<polygon fill="none" stroke="#666666" points="36.75,0 36.75,-61 131,-61 131,0 36.75,0"/>
</a>
</g>
</g>
<!-- Node2 -->
<g id="Node000002" class="node">
<title>Node2</title>
<g id="a_Node000002"><a xlink:title=" ">
<polygon fill="white" stroke="none" points="77.75,-146.75 0,-146.75 0,-97 77.75,-97 77.75,-146.75"/>
<text text-anchor="start" x="4" y="-133.25" font-family="Helvetica,sans-Serif" font-size="10.00">boost::exception</text>
<text text-anchor="start" x="37.38" y="-118" font-family="Helvetica,sans-Serif" font-size="10.00"> </text>
<text text-anchor="start" x="37.38" y="-102.75" font-family="Helvetica,sans-Serif" font-size="10.00"> </text>
<polygon fill="#666666" stroke="#666666" points="0,-129.5 0,-129.5 77.75,-129.5 77.75,-129.5 0,-129.5"/>
<polygon fill="#666666" stroke="#666666" points="0,-114.25 0,-114.25 77.75,-114.25 77.75,-114.25 0,-114.25"/>
<polygon fill="none" stroke="#666666" points="0,-97 0,-146.75 77.75,-146.75 77.75,-97 0,-97"/>
</a>
</g>
</g>
<!-- Node2&#45;&gt;Node1 -->
<g id="edge1_Node000001_Node000002" class="edge">
<title>Node2&#45;&gt;Node1</title>
<g id="a_edge1_Node000001_Node000002"><a xlink:title=" ">
<path fill="none" stroke="#63b8ff" d="M55.82,-87.22C60.18,-78.57 64.83,-69.32 69.07,-60.9"/>
<polygon fill="none" stroke="#63b8ff" points="52.75,-85.54 51.38,-96.04 59,-88.68 52.75,-85.54"/>
</a>
</g>
</g>
<!-- Node3 -->
<g id="Node000003" class="node">
<title>Node3</title>
<g id="a_Node000003"><a xlink:title=" ">
<polygon fill="white" stroke="none" points="163.5,-146.75 96.25,-146.75 96.25,-97 163.5,-97 163.5,-146.75"/>
<text text-anchor="start" x="100.25" y="-133.25" font-family="Helvetica,sans-Serif" font-size="10.00">std::exception</text>
<text text-anchor="start" x="128.38" y="-118" font-family="Helvetica,sans-Serif" font-size="10.00"> </text>
<text text-anchor="start" x="128.38" y="-102.75" font-family="Helvetica,sans-Serif" font-size="10.00"> </text>
<polygon fill="#666666" stroke="#666666" points="96.25,-129.5 96.25,-129.5 163.5,-129.5 163.5,-129.5 96.25,-129.5"/>
<polygon fill="#666666" stroke="#666666" points="96.25,-114.25 96.25,-114.25 163.5,-114.25 163.5,-114.25 96.25,-114.25"/>
<polygon fill="none" stroke="#666666" points="96.25,-97 96.25,-146.75 163.5,-146.75 163.5,-97 96.25,-97"/>
</a>
</g>
</g>
<!-- Node3&#45;&gt;Node1 -->
<g id="edge2_Node000001_Node000003" class="edge">
<title>Node3&#45;&gt;Node1</title>
<g id="a_edge2_Node000001_Node000003"><a xlink:title=" ">
<path fill="none" stroke="#63b8ff" d="M112.55,-87.22C108.1,-78.57 103.34,-69.32 99.01,-60.9"/>
<polygon fill="none" stroke="#63b8ff" points="109.41,-88.76 117.1,-96.05 115.63,-85.55 109.41,-88.76"/>
</a>
</g>
</g>
</g>
</svg>
