<?xml version="1.0" encoding="UTF-8" standalone="no"?>
<!DOCTYPE svg PUBLIC "-//W3C//DTD SVG 1.1//EN"
 "http://www.w3.org/Graphics/SVG/1.1/DTD/svg11.dtd">
<!-- Generated by graphviz version 2.44.0 ()
 -->
<!-- Title: Reservoir::Implicit_Time::Reservoir Pages: 1 -->
<!--zoomable 863 -->
<svg id="main" version="1.1" xmlns="http://www.w3.org/2000/svg" xmlns:xlink="http://www.w3.org/1999/xlink" xml:space="preserve" onload="init(evt)">
<style type="text/css"><![CDATA[
.edge:hover path { stroke: red; }
.edge:hover polygon { stroke: red; fill: red; }
]]></style>
<script type="text/javascript"><![CDATA[
var edges = document.getElementsByTagName('g');
if (edges && edges.length) {
  for (var i=0;i<edges.length;i++) {
    if (edges[i].id.substr(0,4)=='edge') {
      edges[i].setAttribute('class','edge');
    }
  }
}
]]></script>
        <defs>
                <circle id="rim" cx="0" cy="0" r="7"/>
                <circle id="rim2" cx="0" cy="0" r="3.5"/>
                <g id="zoomPlus">
                        <use xlink:href="#rim" fill="#404040">
                                <set attributeName="fill" to="#808080" begin="zoomplus.mouseover" end="zoomplus.mouseout"/>
                        </use>
                        <path d="M-4,0h8M0,-4v8" fill="none" stroke="white" stroke-width="1.5" pointer-events="none"/>
                </g>
                <g id="zoomMin">
                        <use xlink:href="#rim" fill="#404040">
                                <set attributeName="fill" to="#808080" begin="zoomminus.mouseover" end="zoomminus.mouseout"/>
                        </use>
                        <path d="M-4,0h8" fill="none" stroke="white" stroke-width="1.5" pointer-events="none"/>
                </g>
                <g id="dirArrow">
                        <path fill="none" stroke="white" stroke-width="1.5" d="M0,-3.0v7 M-2.5,-0.5L0,-3.0L2.5,-0.5"/>
                </g>
               <g id="resetDef">
                       <use xlink:href="#rim2" fill="#404040">
                               <set attributeName="fill" to="#808080" begin="reset.mouseover" end="reset.mouseout"/>
                       </use>
               </g>
        </defs>

<script type="text/javascript">
var viewWidth = 459;
var viewHeight = 863;
var sectionId = 'dynsection-0';
</script>
<script xlink:href="svgpan.js"/>
<svg id="graph" class="graph">
<g id="viewport">
<title>Reservoir::Implicit_Time::Reservoir</title>
<polygon fill="white" stroke="transparent" points="-4,4 -4,-859 454.5,-859 454.5,4 -4,4"/>
<!-- Node1 -->
<g id="node1" class="node">
<title>Node1</title>
<g id="a_node1"><a xlink:title="Reservoir that has zero, one, or multiple outlets and no time dimension.">
<polygon fill="#bfbfbf" stroke="black" points="163.5,-0.5 163.5,-211.5 289.5,-211.5 289.5,-0.5 163.5,-0.5"/>
<text text-anchor="start" x="171.5" y="-199.5" font-family="Helvetica,sans-Serif" font-size="10.00">Reservoir::Implicit</text>
<text text-anchor="middle" x="226.5" y="-188.5" font-family="Helvetica,sans-Serif" font-size="10.00">_Time::Reservoir</text>
<polyline fill="none" stroke="black" points="163.5,-181.5 289.5,-181.5 "/>
<text text-anchor="middle" x="226.5" y="-169.5" font-family="Helvetica,sans-Serif" font-size="10.00"> </text>
<polyline fill="none" stroke="black" points="163.5,-162.5 289.5,-162.5 "/>
<text text-anchor="start" x="171.5" y="-150.5" font-family="Helvetica,sans-Serif" font-size="10.00">+ Reservoir()</text>
<text text-anchor="start" x="171.5" y="-139.5" font-family="Helvetica,sans-Serif" font-size="10.00">+ Reservoir()</text>
<text text-anchor="start" x="171.5" y="-128.5" font-family="Helvetica,sans-Serif" font-size="10.00">+ Reservoir()</text>
<text text-anchor="start" x="171.5" y="-117.5" font-family="Helvetica,sans-Serif" font-size="10.00">+ Reservoir()</text>
<text text-anchor="start" x="171.5" y="-106.5" font-family="Helvetica,sans-Serif" font-size="10.00">+ response_meters()</text>
<text text-anchor="start" x="171.5" y="-95.5" font-family="Helvetica,sans-Serif" font-size="10.00">+ add_outlet()</text>
<text text-anchor="start" x="171.5" y="-84.5" font-family="Helvetica,sans-Serif" font-size="10.00">+ add_outlet()</text>
<text text-anchor="start" x="171.5" y="-73.5" font-family="Helvetica,sans-Serif" font-size="10.00">+ add_outlet()</text>
<text text-anchor="start" x="171.5" y="-62.5" font-family="Helvetica,sans-Serif" font-size="10.00">+ sort_outlets()</text>
<text text-anchor="start" x="171.5" y="-51.5" font-family="Helvetica,sans-Serif" font-size="10.00">+ check_highest_outlet</text>
<text text-anchor="start" x="171.5" y="-40.5" font-family="Helvetica,sans-Serif" font-size="10.00">_against_max_storage()</text>
<text text-anchor="start" x="171.5" y="-29.5" font-family="Helvetica,sans-Serif" font-size="10.00">+ get_storage_height</text>
<text text-anchor="start" x="171.5" y="-18.5" font-family="Helvetica,sans-Serif" font-size="10.00">_meters()</text>
<text text-anchor="start" x="171.5" y="-7.5" font-family="Helvetica,sans-Serif" font-size="10.00">+ flux_meters_for_outlet()</text>
</a>
</g>
</g>
<!-- Node2 -->
<g id="node2" class="node">
<title>Node2</title>
<g id="a_node2"><a xlink:href="structreservoir__state.html" target="_top" xlink:title=" ">
<polygon fill="white" stroke="black" points="18.5,-259.5 18.5,-327.5 142.5,-327.5 142.5,-259.5 18.5,-259.5"/>
<text text-anchor="middle" x="80.5" y="-315.5" font-family="Helvetica,sans-Serif" font-size="10.00">reservoir_state</text>
<polyline fill="none" stroke="black" points="18.5,-308.5 142.5,-308.5 "/>
<text text-anchor="start" x="26.5" y="-296.5" font-family="Helvetica,sans-Serif" font-size="10.00">+ current_storage_height</text>
<text text-anchor="start" x="26.5" y="-285.5" font-family="Helvetica,sans-Serif" font-size="10.00">_meters</text>
<polyline fill="none" stroke="black" points="18.5,-278.5 142.5,-278.5 "/>
<text text-anchor="middle" x="80.5" y="-266.5" font-family="Helvetica,sans-Serif" font-size="10.00"> </text>
</a>
</g>
</g>
<!-- Node2&#45;&gt;Node1 -->
<g id="edge1" class="edge">
<title>Node2&#45;&gt;Node1</title>
<path fill="none" stroke="#404040" d="M106.6,-259.34C120.45,-241.74 138.21,-219.18 155.79,-196.84"/>
<polygon fill="none" stroke="#404040" points="155.88,-196.72 156.45,-189.54 163.3,-187.29 162.74,-194.48 155.88,-196.72"/>
<text text-anchor="middle" x="142.5" y="-233" font-family="Helvetica,sans-Serif" font-size="10.00"> &#45;state</text>
</g>
<!-- Node3 -->
<g id="node3" class="node">
<title>Node3</title>
<g id="a_node3"><a xlink:title=" ">
<polygon fill="white" stroke="#bfbfbf" points="161,-259.5 161,-327.5 292,-327.5 292,-259.5 161,-259.5"/>
<text text-anchor="start" x="169" y="-315.5" font-family="Helvetica,sans-Serif" font-size="10.00">std::vector&lt; std::shared</text>
<text text-anchor="middle" x="226.5" y="-304.5" font-family="Helvetica,sans-Serif" font-size="10.00">_ptr&lt; Reservoir_Outlet &gt; &gt;</text>
<polyline fill="none" stroke="#bfbfbf" points="161,-297.5 292,-297.5 "/>
<text text-anchor="middle" x="226.5" y="-285.5" font-family="Helvetica,sans-Serif" font-size="10.00"> </text>
<polyline fill="none" stroke="#bfbfbf" points="161,-278.5 292,-278.5 "/>
<text text-anchor="middle" x="226.5" y="-266.5" font-family="Helvetica,sans-Serif" font-size="10.00"> </text>
</a>
</g>
</g>
<!-- Node3&#45;&gt;Node1 -->
<g id="edge2" class="edge">
<title>Node3&#45;&gt;Node1</title>
<path fill="none" stroke="#404040" d="M226.5,-259.34C226.5,-248.99 226.5,-236.93 226.5,-224.21"/>
<polygon fill="none" stroke="#404040" points="226.5,-223.84 222.5,-217.84 226.5,-211.84 230.5,-217.84 226.5,-223.84"/>
<text text-anchor="middle" x="244" y="-233" font-family="Helvetica,sans-Serif" font-size="10.00"> &#45;outlets</text>
</g>
<!-- Node4 -->
<g id="node4" class="node">
<title>Node4</title>
<g id="a_node4"><a xlink:title=" ">
<polygon fill="white" stroke="#bfbfbf" points="82.5,-375.5 82.5,-443.5 212.5,-443.5 212.5,-375.5 82.5,-375.5"/>
<text text-anchor="start" x="90.5" y="-431.5" font-family="Helvetica,sans-Serif" font-size="10.00">std::shared_ptr&lt; Reservoir</text>
<text text-anchor="middle" x="147.5" y="-420.5" font-family="Helvetica,sans-Serif" font-size="10.00">_Outlet &gt;</text>
<polyline fill="none" stroke="#bfbfbf" points="82.5,-413.5 212.5,-413.5 "/>
<text text-anchor="middle" x="147.5" y="-401.5" font-family="Helvetica,sans-Serif" font-size="10.00"> </text>
<polyline fill="none" stroke="#bfbfbf" points="82.5,-394.5 212.5,-394.5 "/>
<text text-anchor="start" x="90.5" y="-382.5" font-family="Helvetica,sans-Serif" font-size="10.00">+ operator&#45;&gt;()</text>
</a>
</g>
</g>
<!-- Node4&#45;&gt;Node3 -->
<g id="edge3" class="edge">
<title>Node4&#45;&gt;Node3</title>
<path fill="none" stroke="#404040" d="M170.56,-375.22C178.67,-363.51 187.91,-350.18 196.51,-337.77"/>
<polygon fill="none" stroke="#404040" points="196.71,-337.49 196.84,-330.28 203.55,-327.62 203.42,-334.83 196.71,-337.49"/>
<text text-anchor="middle" x="214" y="-349" font-family="Helvetica,sans-Serif" font-size="10.00"> +elements</text>
</g>
<!-- Node5 -->
<g id="node5" class="node">
<title>Node5</title>
<g id="a_node5"><a xlink:href="class_reservoir_1_1_implicit___time_1_1_reservoir___outlet.html" target="_top" xlink:title="Base Single Reservior Outlet Class.">
<polygon fill="white" stroke="black" points="0,-538.5 0,-749.5 137,-749.5 137,-538.5 0,-538.5"/>
<text text-anchor="start" x="8" y="-737.5" font-family="Helvetica,sans-Serif" font-size="10.00">Reservoir::Implicit</text>
<text text-anchor="middle" x="68.5" y="-726.5" font-family="Helvetica,sans-Serif" font-size="10.00">_Time::Reservoir_Outlet</text>
<polyline fill="none" stroke="black" points="0,-719.5 137,-719.5 "/>
<text text-anchor="start" x="8" y="-707.5" font-family="Helvetica,sans-Serif" font-size="10.00"># a</text>
<text text-anchor="start" x="8" y="-696.5" font-family="Helvetica,sans-Serif" font-size="10.00"># b</text>
<text text-anchor="start" x="8" y="-685.5" font-family="Helvetica,sans-Serif" font-size="10.00"># activation_threshold</text>
<text text-anchor="start" x="8" y="-674.5" font-family="Helvetica,sans-Serif" font-size="10.00">_meters</text>
<text text-anchor="start" x="8" y="-663.5" font-family="Helvetica,sans-Serif" font-size="10.00"># max_flux_meters</text>
<text text-anchor="start" x="8" y="-652.5" font-family="Helvetica,sans-Serif" font-size="10.00"># flux_meters_local</text>
<polyline fill="none" stroke="black" points="0,-645.5 137,-645.5 "/>
<text text-anchor="start" x="8" y="-633.5" font-family="Helvetica,sans-Serif" font-size="10.00">+ Reservoir_Outlet()</text>
<text text-anchor="start" x="8" y="-622.5" font-family="Helvetica,sans-Serif" font-size="10.00">+ Reservoir_Outlet()</text>
<text text-anchor="start" x="8" y="-611.5" font-family="Helvetica,sans-Serif" font-size="10.00">+ adjust_flux()</text>
<text text-anchor="start" x="8" y="-600.5" font-family="Helvetica,sans-Serif" font-size="10.00">+ get_activation_threshold</text>
<text text-anchor="start" x="8" y="-589.5" font-family="Helvetica,sans-Serif" font-size="10.00">_meters()</text>
<text text-anchor="start" x="8" y="-578.5" font-family="Helvetica,sans-Serif" font-size="10.00">+ get_previously_calculated</text>
<text text-anchor="start" x="8" y="-567.5" font-family="Helvetica,sans-Serif" font-size="10.00">_flux_meters()</text>
<text text-anchor="start" x="8" y="-556.5" font-family="Helvetica,sans-Serif" font-size="10.00">+ flux_meters()</text>
<text text-anchor="start" x="8" y="-545.5" font-family="Helvetica,sans-Serif" font-size="10.00"># calc_flux_meters_local()</text>
</a>
</g>
</g>
<!-- Node5&#45;&gt;Node4 -->
<g id="edge4" class="edge">
<title>Node5&#45;&gt;Node4</title>
<path fill="none" stroke="#404040" d="M89.96,-538.3C96.73,-512.83 105.2,-486.02 115.5,-462 116.62,-459.39 117.86,-456.75 119.18,-454.13"/>
<polygon fill="none" stroke="#404040" points="119.23,-454.04 118.59,-446.86 124.98,-443.5 125.62,-450.69 119.23,-454.04"/>
<text text-anchor="middle" x="125.5" y="-488.5" font-family="Helvetica,sans-Serif" font-size="10.00"> +ptr</text>
</g>
<!-- Node6 -->
<g id="node6" class="node">
<title>Node6</title>
<g id="a_node6"><a xlink:title="STL class.">
<polygon fill="white" stroke="#bfbfbf" points="155,-615.5 155,-672.5 258,-672.5 258,-615.5 155,-615.5"/>
<text text-anchor="middle" x="206.5" y="-660.5" font-family="Helvetica,sans-Serif" font-size="10.00">std::shared_ptr&lt; T &gt;</text>
<polyline fill="none" stroke="#bfbfbf" points="155,-653.5 258,-653.5 "/>
<text text-anchor="middle" x="206.5" y="-641.5" font-family="Helvetica,sans-Serif" font-size="10.00"> </text>
<polyline fill="none" stroke="#bfbfbf" points="155,-634.5 258,-634.5 "/>
<text text-anchor="start" x="163" y="-622.5" font-family="Helvetica,sans-Serif" font-size="10.00">+ operator&#45;&gt;()</text>
</a>
</g>
</g>
<!-- Node6&#45;&gt;Node4 -->
<g id="edge5" class="edge">
<title>Node6&#45;&gt;Node4</title>
<path fill="none" stroke="orange" d="M182.03,-606.59C167.7,-583.01 150.98,-551.02 143.5,-520 137.43,-494.85 138.94,-465.52 141.69,-443.55"/>
<polygon fill="orange" stroke="orange" points="179.13,-608.55 187.38,-615.19 185.07,-604.85 179.13,-608.55"/>
<text text-anchor="middle" x="189.5" y="-488.5" font-family="Helvetica,sans-Serif" font-size="10.00"> &lt; Reservoir_Outlet &gt;</text>
</g>
<!-- Node7 -->
<g id="node7" class="node">
<title>Node7</title>
<g id="a_node7"><a xlink:title=" ">
<polygon fill="white" stroke="#bfbfbf" points="232,-797.5 232,-854.5 261,-854.5 261,-797.5 232,-797.5"/>
<text text-anchor="middle" x="246.5" y="-842.5" font-family="Helvetica,sans-Serif" font-size="10.00">T</text>
<polyline fill="none" stroke="#bfbfbf" points="232,-835.5 261,-835.5 "/>
<text text-anchor="middle" x="246.5" y="-823.5" font-family="Helvetica,sans-Serif" font-size="10.00"> </text>
<polyline fill="none" stroke="#bfbfbf" points="232,-816.5 261,-816.5 "/>
<text text-anchor="middle" x="246.5" y="-804.5" font-family="Helvetica,sans-Serif" font-size="10.00"> </text>
</a>
</g>
</g>
<!-- Node7&#45;&gt;Node6 -->
<g id="edge6" class="edge">
<title>Node7&#45;&gt;Node6</title>
<path fill="none" stroke="#404040" d="M240.34,-797.27C233.64,-767.14 222.89,-718.76 215.31,-684.63"/>
<polygon fill="none" stroke="#404040" points="215.27,-684.48 210.07,-679.49 212.67,-672.76 217.88,-677.75 215.27,-684.48"/>
<text text-anchor="middle" x="246.5" y="-771" font-family="Helvetica,sans-Serif" font-size="10.00"> +ptr</text>
</g>
<!-- Node8 -->
<g id="node8" class="node">
<title>Node8</title>
<g id="a_node8"><a xlink:title="STL class.">
<polygon fill="white" stroke="#bfbfbf" points="244.5,-462.5 244.5,-519.5 328.5,-519.5 328.5,-462.5 244.5,-462.5"/>
<text text-anchor="middle" x="286.5" y="-507.5" font-family="Helvetica,sans-Serif" font-size="10.00">std::vector&lt; T &gt;</text>
<polyline fill="none" stroke="#bfbfbf" points="244.5,-500.5 328.5,-500.5 "/>
<text text-anchor="middle" x="286.5" y="-488.5" font-family="Helvetica,sans-Serif" font-size="10.00"> </text>
<polyline fill="none" stroke="#bfbfbf" points="244.5,-481.5 328.5,-481.5 "/>
<text text-anchor="middle" x="286.5" y="-469.5" font-family="Helvetica,sans-Serif" font-size="10.00"> </text>
</a>
</g>
</g>
<!-- Node7&#45;&gt;Node8 -->
<g id="edge8" class="edge">
<title>Node7&#45;&gt;Node8</title>
<path fill="none" stroke="#404040" d="M255.62,-797.19C259.77,-783.2 264.25,-765.88 266.5,-750 277.39,-673.11 282.69,-582.43 284.99,-531.64"/>
<polygon fill="none" stroke="#404040" points="284.99,-531.61 281.25,-525.44 285.51,-519.62 289.24,-525.78 284.99,-531.61"/>
<text text-anchor="middle" x="288" y="-771" font-family="Helvetica,sans-Serif" font-size="10.00"> +elements</text>
</g>
<!-- Node8&#45;&gt;Node3 -->
<g id="edge7" class="edge">
<title>Node8&#45;&gt;Node3</title>
<path fill="none" stroke="orange" d="M275.14,-452.64C266.28,-423.56 253.65,-382.2 242.5,-346 240.68,-340.09 238.74,-333.81 236.85,-327.74"/>
<polygon fill="orange" stroke="orange" points="271.84,-453.84 278.1,-462.38 278.54,-451.8 271.84,-453.84"/>
<text text-anchor="start" x="271.5" y="-412.5" font-family="Helvetica,sans-Serif" font-size="10.00"> &lt; std::shared_ptr&lt;</text>
<text text-anchor="middle" x="317.5" y="-401.5" font-family="Helvetica,sans-Serif" font-size="10.00"> Reservoir_Outlet &gt; &gt;</text>
</g>
<!-- Node9 -->
<g id="node9" class="node">
<title>Node9</title>
<g id="a_node9"><a xlink:href="structreservoir__parameters.html" target="_top" xlink:title=" ">
<polygon fill="white" stroke="black" points="310.5,-259.5 310.5,-327.5 450.5,-327.5 450.5,-259.5 310.5,-259.5"/>
<text text-anchor="middle" x="380.5" y="-315.5" font-family="Helvetica,sans-Serif" font-size="10.00">reservoir_parameters</text>
<polyline fill="none" stroke="black" points="310.5,-308.5 450.5,-308.5 "/>
<text text-anchor="start" x="318.5" y="-296.5" font-family="Helvetica,sans-Serif" font-size="10.00">+ minimum_storage_meters</text>
<text text-anchor="start" x="318.5" y="-285.5" font-family="Helvetica,sans-Serif" font-size="10.00">+ maximum_storage_meters</text>
<polyline fill="none" stroke="black" points="310.5,-278.5 450.5,-278.5 "/>
<text text-anchor="middle" x="380.5" y="-266.5" font-family="Helvetica,sans-Serif" font-size="10.00"> </text>
</a>
</g>
</g>
<!-- Node9&#45;&gt;Node1 -->
<g id="edge9" class="edge">
<title>Node9&#45;&gt;Node1</title>
<path fill="none" stroke="#404040" d="M352.97,-259.34C337.39,-240.57 317.12,-216.16 297.39,-192.39"/>
<polygon fill="none" stroke="#404040" points="297.24,-192.21 290.33,-190.15 289.58,-182.98 296.49,-185.04 297.24,-192.21"/>
<text text-anchor="middle" x="362" y="-233" font-family="Helvetica,sans-Serif" font-size="10.00"> &#45;parameters</text>
</g>
</g>
</svg>
        <g id="navigator" transform="translate(0 0)" fill="#404254">
                <rect fill="#f2f5e9" fill-opacity="0.5" stroke="#606060" stroke-width=".5" x="0" y="0" width="60" height="60"/>
                <use id="zoomplus" xlink:href="#zoomPlus" x="17" y="9" onmousedown="handleZoom(evt,'in')"/>
                <use id="zoomminus" xlink:href="#zoomMin" x="42" y="9" onmousedown="handleZoom(evt,'out')"/>
                <use id="reset" xlink:href="#resetDef" x="30" y="36" onmousedown="handleReset()"/>
                <g id="arrowUp" xlink:href="#dirArrow" transform="translate(30 24)" onmousedown="handlePan(0,-1)">
                  <use xlink:href="#rim" fill="#404040">
                        <set attributeName="fill" to="#808080" begin="arrowUp.mouseover" end="arrowUp.mouseout"/>
                  </use>
                  <path fill="none" stroke="white" stroke-width="1.5" d="M0,-3.0v7 M-2.5,-0.5L0,-3.0L2.5,-0.5"/>
                </g>
                <g id="arrowRight" xlink:href="#dirArrow" transform="rotate(90) translate(36 -43)" onmousedown="handlePan(1,0)">
                  <use xlink:href="#rim" fill="#404040">
                        <set attributeName="fill" to="#808080" begin="arrowRight.mouseover" end="arrowRight.mouseout"/>
                  </use>
                  <path fill="none" stroke="white" stroke-width="1.5" d="M0,-3.0v7 M-2.5,-0.5L0,-3.0L2.5,-0.5"/>
                </g>
                <g id="arrowDown" xlink:href="#dirArrow" transform="rotate(180) translate(-30 -48)" onmousedown="handlePan(0,1)">
                  <use xlink:href="#rim" fill="#404040">
                        <set attributeName="fill" to="#808080" begin="arrowDown.mouseover" end="arrowDown.mouseout"/>
                  </use>
                  <path fill="none" stroke="white" stroke-width="1.5" d="M0,-3.0v7 M-2.5,-0.5L0,-3.0L2.5,-0.5"/>
                </g>
                <g id="arrowLeft" xlink:href="#dirArrow" transform="rotate(270) translate(-36 17)" onmousedown="handlePan(-1,0)">
                  <use xlink:href="#rim" fill="#404040">
                        <set attributeName="fill" to="#808080" begin="arrowLeft.mouseover" end="arrowLeft.mouseout"/>
                  </use>
                  <path fill="none" stroke="white" stroke-width="1.5" d="M0,-3.0v7 M-2.5,-0.5L0,-3.0L2.5,-0.5"/>
                </g>
        </g>
        <svg viewBox="0 0 15 15" width="100%" height="30px" preserveAspectRatio="xMaxYMin meet">
         <g id="arrow_out" transform="scale(0.3 0.3)">
          <a xlink:href="class_reservoir_1_1_implicit___time_1_1_reservoir__coll__graph_org.svg" target="_base">
           <rect id="button" ry="5" rx="5" y="6" x="6" height="38" width="38"
                fill="#f2f5e9" fill-opacity="0.5" stroke="#606060" stroke-width="1.0"/>
           <path id="arrow"
             d="M 11.500037,31.436501 C 11.940474,20.09759 22.043105,11.32322 32.158766,21.979434 L 37.068811,17.246167 C 37.068811,17.246167 37.088388,32 37.088388,32 L 22.160133,31.978069 C 22.160133,31.978069 26.997745,27.140456 26.997745,27.140456 C 18.528582,18.264221 13.291696,25.230495 11.500037,31.436501 z"
             style="fill:#404040;"/>
          </a>
         </g>
        </svg>
</svg>
