<?xml version="1.0" encoding="UTF-8" standalone="no"?>
<!DOCTYPE svg PUBLIC "-//W3C//DTD SVG 1.1//EN"
 "http://www.w3.org/Graphics/SVG/1.1/DTD/svg11.dtd">
<!-- Generated by graphviz version 2.42.3 ()
 -->
<!-- Title: HY_FlowPath Pages: 1 -->
<svg width="945pt" height="1107pt"
 viewBox="0.00 0.00 945.00 1107.00" xmlns="http://www.w3.org/2000/svg" xmlns:xlink="http://www.w3.org/1999/xlink">
<g id="graph0" class="graph" transform="scale(1 1) rotate(0) translate(4 1103)">
<title>HY_FlowPath</title>
<polygon fill="white" stroke="transparent" points="-4,4 -4,-1103 941,-1103 941,4 -4,4"/>
<!-- Node1 -->
<g id="node1" class="node">
<title>Node1</title>
<g id="a_node1"><a xlink:title=" ">
<polygon fill="#bfbfbf" stroke="black" points="279.5,-486.5 279.5,-554.5 376.5,-554.5 376.5,-486.5 279.5,-486.5"/>
<text text-anchor="middle" x="328" y="-542.5" font-family="Helvetica,sans-Serif" font-size="10.00">HY_FlowPath</text>
<polyline fill="none" stroke="black" points="279.5,-535.5 376.5,-535.5 "/>
<text text-anchor="middle" x="328" y="-523.5" font-family="Helvetica,sans-Serif" font-size="10.00"> </text>
<polyline fill="none" stroke="black" points="279.5,-516.5 376.5,-516.5 "/>
<text text-anchor="start" x="287.5" y="-504.5" font-family="Helvetica,sans-Serif" font-size="10.00">+ HY_FlowPath()</text>
<text text-anchor="start" x="287.5" y="-493.5" font-family="Helvetica,sans-Serif" font-size="10.00">+ ~HY_FlowPath()</text>
</a>
</g>
</g>
<!-- Node2 -->
<g id="node2" class="node">
<title>Node2</title>
<g id="a_node2"><a xlink:href="class_g_m___object.html" target="_top" xlink:title=" ">
<polygon fill="white" stroke="black" points="285,-630 285,-698 371,-698 371,-630 285,-630"/>
<text text-anchor="middle" x="328" y="-686" font-family="Helvetica,sans-Serif" font-size="10.00">GM_Object</text>
<polyline fill="none" stroke="black" points="285,-679 371,-679 "/>
<text text-anchor="middle" x="328" y="-667" font-family="Helvetica,sans-Serif" font-size="10.00"> </text>
<polyline fill="none" stroke="black" points="285,-660 371,-660 "/>
<text text-anchor="start" x="293" y="-648" font-family="Helvetica,sans-Serif" font-size="10.00">+ GM_Object()</text>
<text text-anchor="start" x="293" y="-637" font-family="Helvetica,sans-Serif" font-size="10.00">+ ~GM_Object()</text>
</a>
</g>
</g>
<!-- Node2&#45;&gt;Node1 -->
<g id="edge1" class="edge">
<title>Node2&#45;&gt;Node1</title>
<path fill="none" stroke="midnightblue" d="M328,-619.64C328,-598.84 328,-574.3 328,-554.96"/>
<polygon fill="none" stroke="midnightblue" points="324.5,-619.82 328,-629.82 331.5,-619.82 324.5,-619.82"/>
</g>
<!-- Node3 -->
<g id="node3" class="node">
<title>Node3</title>
<g id="a_node3"><a xlink:href="class_h_y___catchment_realization.html" target="_top" xlink:title=" ">
<polygon fill="white" stroke="black" points="15,-630 15,-698 165,-698 165,-630 15,-630"/>
<text text-anchor="middle" x="90" y="-686" font-family="Helvetica,sans-Serif" font-size="10.00">HY_CatchmentRealization</text>
<polyline fill="none" stroke="black" points="15,-679 165,-679 "/>
<text text-anchor="start" x="23" y="-667" font-family="Helvetica,sans-Serif" font-size="10.00"># id_number</text>
<polyline fill="none" stroke="black" points="15,-660 165,-660 "/>
<text text-anchor="start" x="23" y="-648" font-family="Helvetica,sans-Serif" font-size="10.00">+ HY_CatchmentRealization()</text>
<text text-anchor="start" x="23" y="-637" font-family="Helvetica,sans-Serif" font-size="10.00">+ ~HY_CatchmentRealization()</text>
</a>
</g>
</g>
<!-- Node3&#45;&gt;Node1 -->
<g id="edge2" class="edge">
<title>Node3&#45;&gt;Node1</title>
<path fill="none" stroke="midnightblue" d="M154.54,-624.63C193.89,-601.23 243.37,-571.82 279.4,-550.4"/>
<polygon fill="none" stroke="midnightblue" points="152.61,-621.71 145.8,-629.82 156.18,-627.72 152.61,-621.71"/>
</g>
<!-- Node16 -->
<g id="node16" class="node">
<title>Node16</title>
<g id="a_node16"><a xlink:title=" ">
<polygon fill="white" stroke="#bfbfbf" points="65.5,-486.5 65.5,-554.5 190.5,-554.5 190.5,-486.5 65.5,-486.5"/>
<text text-anchor="start" x="73.5" y="-542.5" font-family="Helvetica,sans-Serif" font-size="10.00">std::shared_ptr&lt; HY</text>
<text text-anchor="middle" x="128" y="-531.5" font-family="Helvetica,sans-Serif" font-size="10.00">_CatchmentRealization &gt;</text>
<polyline fill="none" stroke="#bfbfbf" points="65.5,-524.5 190.5,-524.5 "/>
<text text-anchor="middle" x="128" y="-512.5" font-family="Helvetica,sans-Serif" font-size="10.00"> </text>
<polyline fill="none" stroke="#bfbfbf" points="65.5,-505.5 190.5,-505.5 "/>
<text text-anchor="start" x="73.5" y="-493.5" font-family="Helvetica,sans-Serif" font-size="10.00">+ operator&#45;&gt;()</text>
</a>
</g>
</g>
<!-- Node3&#45;&gt;Node16 -->
<g id="edge18" class="edge">
<title>Node3&#45;&gt;Node16</title>
<path fill="none" stroke="#404040" d="M98.91,-629.82C103.97,-610.98 110.38,-587.12 115.89,-566.59"/>
<polygon fill="none" stroke="#404040" points="115.9,-566.55 113.6,-559.72 119.01,-554.96 121.32,-561.79 115.9,-566.55"/>
<text text-anchor="middle" x="124" y="-576" font-family="Helvetica,sans-Serif" font-size="10.00"> +ptr</text>
</g>
<!-- Node4 -->
<g id="node4" class="node">
<title>Node4</title>
<g id="a_node4"><a xlink:title=" ">
<polygon fill="white" stroke="#bfbfbf" points="306.5,-116.5 306.5,-184.5 409.5,-184.5 409.5,-116.5 306.5,-116.5"/>
<text text-anchor="start" x="314.5" y="-172.5" font-family="Helvetica,sans-Serif" font-size="10.00">std::shared_ptr&lt; HY</text>
<text text-anchor="middle" x="358" y="-161.5" font-family="Helvetica,sans-Serif" font-size="10.00">_Catchment &gt;</text>
<polyline fill="none" stroke="#bfbfbf" points="306.5,-154.5 409.5,-154.5 "/>
<text text-anchor="middle" x="358" y="-142.5" font-family="Helvetica,sans-Serif" font-size="10.00"> </text>
<polyline fill="none" stroke="#bfbfbf" points="306.5,-135.5 409.5,-135.5 "/>
<text text-anchor="start" x="314.5" y="-123.5" font-family="Helvetica,sans-Serif" font-size="10.00">+ operator&#45;&gt;()</text>
</a>
</g>
</g>
<!-- Node4&#45;&gt;Node3 -->
<g id="edge3" class="edge">
<title>Node4&#45;&gt;Node3</title>
<path fill="none" stroke="#404040" d="M306.33,-157.05C207.18,-169.13 0,-201.98 0,-265.5 0,-521.5 0,-521.5 0,-521.5 0,-558.97 22.75,-594.53 45.37,-620.62"/>
<polygon fill="none" stroke="#404040" points="45.61,-620.89 52.6,-622.66 53.65,-629.8 46.66,-628.03 45.61,-620.89"/>
<text text-anchor="middle" x="46" y="-391" font-family="Helvetica,sans-Serif" font-size="10.00"> #realized_catchment</text>
</g>
<!-- Node5 -->
<g id="node5" class="node">
<title>Node5</title>
<g id="a_node5"><a xlink:href="class_h_y___catchment.html" target="_top" xlink:title=" ">
<polygon fill="white" stroke="black" points="285.5,-232.5 285.5,-300.5 388.5,-300.5 388.5,-232.5 285.5,-232.5"/>
<text text-anchor="middle" x="337" y="-288.5" font-family="Helvetica,sans-Serif" font-size="10.00">HY_Catchment</text>
<polyline fill="none" stroke="black" points="285.5,-281.5 388.5,-281.5 "/>
<text text-anchor="start" x="293.5" y="-269.5" font-family="Helvetica,sans-Serif" font-size="10.00">&#45; id_number</text>
<polyline fill="none" stroke="black" points="285.5,-262.5 388.5,-262.5 "/>
<text text-anchor="start" x="293.5" y="-250.5" font-family="Helvetica,sans-Serif" font-size="10.00">+ HY_Catchment()</text>
<text text-anchor="start" x="293.5" y="-239.5" font-family="Helvetica,sans-Serif" font-size="10.00">+ ~HY_Catchment()</text>
</a>
</g>
</g>
<!-- Node4&#45;&gt;Node5 -->
<g id="edge23" class="edge">
<title>Node4&#45;&gt;Node5</title>
<path fill="none" stroke="#404040" d="M351.9,-184.62C349.85,-195.73 347.53,-208.32 345.35,-220.19"/>
<polygon fill="none" stroke="#404040" points="345.3,-220.42 348.15,-227.04 343.13,-232.22 340.28,-225.59 345.3,-220.42"/>
<text text-anchor="middle" x="398.5" y="-206" font-family="Helvetica,sans-Serif" font-size="10.00"> &#45;containing_catchment</text>
</g>
<!-- Node17 -->
<g id="node17" class="node">
<title>Node17</title>
<g id="a_node17"><a xlink:title=" ">
<polygon fill="white" stroke="#bfbfbf" points="411.5,-0.5 411.5,-68.5 536.5,-68.5 536.5,-0.5 411.5,-0.5"/>
<text text-anchor="start" x="419.5" y="-56.5" font-family="Helvetica,sans-Serif" font-size="10.00">std::vector&lt; std::shared</text>
<text text-anchor="middle" x="474" y="-45.5" font-family="Helvetica,sans-Serif" font-size="10.00">_ptr&lt; HY_Catchment &gt; &gt;</text>
<polyline fill="none" stroke="#bfbfbf" points="411.5,-38.5 536.5,-38.5 "/>
<text text-anchor="middle" x="474" y="-26.5" font-family="Helvetica,sans-Serif" font-size="10.00"> </text>
<polyline fill="none" stroke="#bfbfbf" points="411.5,-19.5 536.5,-19.5 "/>
<text text-anchor="middle" x="474" y="-7.5" font-family="Helvetica,sans-Serif" font-size="10.00"> </text>
</a>
</g>
</g>
<!-- Node4&#45;&gt;Node17 -->
<g id="edge21" class="edge">
<title>Node4&#45;&gt;Node17</title>
<path fill="none" stroke="#404040" d="M384.16,-116.38C392.4,-106.59 401.76,-96.07 411,-87 414.57,-83.49 418.36,-79.97 422.24,-76.5"/>
<polygon fill="none" stroke="#404040" points="422.34,-76.42 424.24,-69.46 431.4,-68.54 429.49,-75.5 422.34,-76.42"/>
<text text-anchor="middle" x="435.5" y="-90" font-family="Helvetica,sans-Serif" font-size="10.00"> +elements</text>
</g>
<!-- Node5&#45;&gt;Node4 -->
<g id="edge4" class="edge">
<title>Node5&#45;&gt;Node4</title>
<path fill="none" stroke="#404040" d="M317.37,-232.34C314.05,-222.84 312.62,-212.49 316,-203 316.96,-200.29 318.14,-197.63 319.47,-195.02"/>
<polygon fill="none" stroke="#404040" points="319.52,-194.94 319.2,-187.73 325.72,-184.66 326.04,-191.87 319.52,-194.94"/>
<text text-anchor="middle" x="326" y="-206" font-family="Helvetica,sans-Serif" font-size="10.00"> +ptr</text>
</g>
<!-- Node6 -->
<g id="node6" class="node">
<title>Node6</title>
<g id="a_node6"><a xlink:href="class_h_y___hydro_feature.html" target="_top" xlink:title=" ">
<polygon fill="white" stroke="black" points="195,-359.5 195,-427.5 309,-427.5 309,-359.5 195,-359.5"/>
<text text-anchor="middle" x="252" y="-415.5" font-family="Helvetica,sans-Serif" font-size="10.00">HY_HydroFeature</text>
<polyline fill="none" stroke="black" points="195,-408.5 309,-408.5 "/>
<text text-anchor="middle" x="252" y="-396.5" font-family="Helvetica,sans-Serif" font-size="10.00"> </text>
<polyline fill="none" stroke="black" points="195,-389.5 309,-389.5 "/>
<text text-anchor="start" x="203" y="-377.5" font-family="Helvetica,sans-Serif" font-size="10.00">+ HY_HydroFeature()</text>
<text text-anchor="start" x="203" y="-366.5" font-family="Helvetica,sans-Serif" font-size="10.00">+ ~HY_HydroFeature()</text>
</a>
</g>
</g>
<!-- Node6&#45;&gt;Node5 -->
<g id="edge5" class="edge">
<title>Node6&#45;&gt;Node5</title>
<path fill="none" stroke="midnightblue" d="M280.2,-351.03C291.29,-334.72 303.85,-316.24 314.34,-300.82"/>
<polygon fill="none" stroke="midnightblue" points="277.28,-349.09 274.56,-359.33 283.07,-353.03 277.28,-349.09"/>
</g>
<!-- Node7 -->
<g id="node7" class="node">
<title>Node7</title>
<g id="a_node7"><a xlink:title=" ">
<polygon fill="white" stroke="#bfbfbf" points="513.5,-359.5 513.5,-427.5 644.5,-427.5 644.5,-359.5 513.5,-359.5"/>
<text text-anchor="start" x="521.5" y="-415.5" font-family="Helvetica,sans-Serif" font-size="10.00">std::vector&lt; std::shared</text>
<text text-anchor="middle" x="579" y="-404.5" font-family="Helvetica,sans-Serif" font-size="10.00">_ptr&lt; HY_HydroNexus &gt; &gt;</text>
<polyline fill="none" stroke="#bfbfbf" points="513.5,-397.5 644.5,-397.5 "/>
<text text-anchor="middle" x="579" y="-385.5" font-family="Helvetica,sans-Serif" font-size="10.00"> </text>
<polyline fill="none" stroke="#bfbfbf" points="513.5,-378.5 644.5,-378.5 "/>
<text text-anchor="middle" x="579" y="-366.5" font-family="Helvetica,sans-Serif" font-size="10.00"> </text>
</a>
</g>
</g>
<!-- Node7&#45;&gt;Node5 -->
<g id="edge6" class="edge">
<title>Node7&#45;&gt;Node5</title>
<path fill="none" stroke="#404040" d="M515.1,-359.49C479.31,-341.01 434.88,-318.06 399.35,-299.7"/>
<polygon fill="none" stroke="#404040" points="399.29,-299.67 392.12,-300.47 388.62,-294.17 395.79,-293.36 399.29,-299.67"/>
<text text-anchor="middle" x="492" y="-333" font-family="Helvetica,sans-Serif" font-size="10.00"> &#45;inflows</text>
<text text-anchor="middle" x="492" y="-322" font-family="Helvetica,sans-Serif" font-size="10.00">&#45;outflows</text>
</g>
<!-- Node8 -->
<g id="node8" class="node">
<title>Node8</title>
<g id="a_node8"><a xlink:title=" ">
<polygon fill="white" stroke="#bfbfbf" points="527.5,-486.5 527.5,-554.5 630.5,-554.5 630.5,-486.5 527.5,-486.5"/>
<text text-anchor="start" x="535.5" y="-542.5" font-family="Helvetica,sans-Serif" font-size="10.00">std::shared_ptr&lt; HY</text>
<text text-anchor="middle" x="579" y="-531.5" font-family="Helvetica,sans-Serif" font-size="10.00">_HydroNexus &gt;</text>
<polyline fill="none" stroke="#bfbfbf" points="527.5,-524.5 630.5,-524.5 "/>
<text text-anchor="middle" x="579" y="-512.5" font-family="Helvetica,sans-Serif" font-size="10.00"> </text>
<polyline fill="none" stroke="#bfbfbf" points="527.5,-505.5 630.5,-505.5 "/>
<text text-anchor="start" x="535.5" y="-493.5" font-family="Helvetica,sans-Serif" font-size="10.00">+ operator&#45;&gt;()</text>
</a>
</g>
</g>
<!-- Node8&#45;&gt;Node7 -->
<g id="edge7" class="edge">
<title>Node8&#45;&gt;Node7</title>
<path fill="none" stroke="#404040" d="M579,-486.33C579,-472.2 579,-455.49 579,-440.22"/>
<polygon fill="none" stroke="#404040" points="579,-439.82 575,-433.82 579,-427.82 583,-433.82 579,-439.82"/>
<text text-anchor="middle" x="603.5" y="-454.5" font-family="Helvetica,sans-Serif" font-size="10.00"> +elements</text>
</g>
<!-- Node9 -->
<g id="node9" class="node">
<title>Node9</title>
<g id="a_node9"><a xlink:href="class_h_y___hydro_nexus.html" target="_top" xlink:title=" ">
<polygon fill="white" stroke="black" points="481,-602.5 481,-725.5 607,-725.5 607,-602.5 481,-602.5"/>
<text text-anchor="middle" x="544" y="-713.5" font-family="Helvetica,sans-Serif" font-size="10.00">HY_HydroNexus</text>
<polyline fill="none" stroke="black" points="481,-706.5 607,-706.5 "/>
<text text-anchor="start" x="489" y="-694.5" font-family="Helvetica,sans-Serif" font-size="10.00">&#45; id_number</text>
<text text-anchor="start" x="489" y="-683.5" font-family="Helvetica,sans-Serif" font-size="10.00">&#45; number_of_downstream</text>
<text text-anchor="start" x="489" y="-672.5" font-family="Helvetica,sans-Serif" font-size="10.00">_catchments</text>
<polyline fill="none" stroke="black" points="481,-665.5 607,-665.5 "/>
<text text-anchor="start" x="489" y="-653.5" font-family="Helvetica,sans-Serif" font-size="10.00">+ HY_HydroNexus()</text>
<text text-anchor="start" x="489" y="-642.5" font-family="Helvetica,sans-Serif" font-size="10.00">+ ~HY_HydroNexus()</text>
<text text-anchor="start" x="489" y="-631.5" font-family="Helvetica,sans-Serif" font-size="10.00"># add_upstream_flow()</text>
<text text-anchor="start" x="489" y="-620.5" font-family="Helvetica,sans-Serif" font-size="10.00"># get_downstream_flow()</text>
<text text-anchor="start" x="489" y="-609.5" font-family="Helvetica,sans-Serif" font-size="10.00"># get_flow_units()</text>
</a>
</g>
</g>
<!-- Node9&#45;&gt;Node8 -->
<g id="edge8" class="edge">
<title>Node9&#45;&gt;Node8</title>
<path fill="none" stroke="#404040" d="M559.05,-602.17C562.01,-590.18 565.07,-577.8 567.88,-566.45"/>
<polygon fill="none" stroke="#404040" points="567.93,-566.25 565.49,-559.46 570.81,-554.6 573.26,-561.38 567.93,-566.25"/>
<text text-anchor="middle" x="575" y="-576" font-family="Helvetica,sans-Serif" font-size="10.00"> +ptr</text>
</g>
<!-- Node10 -->
<g id="node10" class="node">
<title>Node10</title>
<g id="a_node10"><a xlink:title="STL class.">
<polygon fill="white" stroke="#bfbfbf" points="143.5,-820.5 143.5,-877.5 202.5,-877.5 202.5,-820.5 143.5,-820.5"/>
<text text-anchor="middle" x="173" y="-865.5" font-family="Helvetica,sans-Serif" font-size="10.00">std::string</text>
<polyline fill="none" stroke="#bfbfbf" points="143.5,-858.5 202.5,-858.5 "/>
<text text-anchor="middle" x="173" y="-846.5" font-family="Helvetica,sans-Serif" font-size="10.00"> </text>
<polyline fill="none" stroke="#bfbfbf" points="143.5,-839.5 202.5,-839.5 "/>
<text text-anchor="middle" x="173" y="-827.5" font-family="Helvetica,sans-Serif" font-size="10.00"> </text>
</a>
</g>
</g>
<!-- Node10&#45;&gt;Node3 -->
<g id="edge26" class="edge">
<title>Node10&#45;&gt;Node3</title>
<path fill="none" stroke="#404040" d="M160.39,-820.21C147.03,-790.74 125.73,-743.78 110.06,-709.22"/>
<polygon fill="none" stroke="#404040" points="109.93,-708.95 103.81,-705.14 104.98,-698.02 111.1,-701.83 109.93,-708.95"/>
<text text-anchor="middle" x="159" y="-770.5" font-family="Helvetica,sans-Serif" font-size="10.00"> #id</text>
</g>
<!-- Node10&#45;&gt;Node5 -->
<g id="edge24" class="edge">
<title>Node10&#45;&gt;Node5</title>
<path fill="none" stroke="#404040" d="M174.24,-820.2C178.15,-756.86 194.08,-598.55 258,-486 276.32,-453.75 301.53,-461.23 318,-428 335.79,-392.11 339.64,-346.33 339.58,-312.86"/>
<polygon fill="none" stroke="#404040" points="339.57,-312.68 335.48,-306.74 339.38,-300.68 343.48,-306.62 339.57,-312.68"/>
<text text-anchor="middle" x="264.5" y="-518" font-family="Helvetica,sans-Serif" font-size="10.00"> &#45;id</text>
</g>
<!-- Node10&#45;&gt;Node9 -->
<g id="edge9" class="edge">
<title>Node10&#45;&gt;Node9</title>
<path fill="none" stroke="#404040" d="M202.57,-844.46C250.34,-838.18 341.5,-823.66 365,-802 384.95,-783.62 363.93,-762.25 384,-744 410.97,-719.49 430.97,-741.4 464,-726 466.14,-725 468.27,-723.94 470.4,-722.83"/>
<polygon fill="none" stroke="#404040" points="470.5,-722.77 473.73,-716.32 480.93,-716.83 477.69,-723.28 470.5,-722.77"/>
<text text-anchor="middle" x="390.5" y="-770.5" font-family="Helvetica,sans-Serif" font-size="10.00"> &#45;id</text>
</g>
<!-- Node11 -->
<g id="node11" class="node">
<title>Node11</title>
<g id="a_node11"><a xlink:title="STL class.">
<polygon fill="white" stroke="#bfbfbf" points="126.5,-925.5 126.5,-993.5 219.5,-993.5 219.5,-925.5 126.5,-925.5"/>
<text text-anchor="start" x="134.5" y="-981.5" font-family="Helvetica,sans-Serif" font-size="10.00">std::basic_string&lt;</text>
<text text-anchor="middle" x="173" y="-970.5" font-family="Helvetica,sans-Serif" font-size="10.00"> char &gt;</text>
<polyline fill="none" stroke="#bfbfbf" points="126.5,-963.5 219.5,-963.5 "/>
<text text-anchor="middle" x="173" y="-951.5" font-family="Helvetica,sans-Serif" font-size="10.00"> </text>
<polyline fill="none" stroke="#bfbfbf" points="126.5,-944.5 219.5,-944.5 "/>
<text text-anchor="middle" x="173" y="-932.5" font-family="Helvetica,sans-Serif" font-size="10.00"> </text>
</a>
</g>
</g>
<!-- Node11&#45;&gt;Node10 -->
<g id="edge10" class="edge">
<title>Node11&#45;&gt;Node10</title>
<path fill="none" stroke="midnightblue" d="M173,-915.06C173,-902.51 173,-889.15 173,-877.83"/>
<polygon fill="none" stroke="midnightblue" points="169.5,-915.36 173,-925.36 176.5,-915.36 169.5,-915.36"/>
</g>
<!-- Node12 -->
<g id="node12" class="node">
<title>Node12</title>
<g id="a_node12"><a xlink:title=" ">
<polygon fill="white" stroke="#bfbfbf" points="481,-820.5 481,-877.5 607,-877.5 607,-820.5 481,-820.5"/>
<text text-anchor="middle" x="544" y="-865.5" font-family="Helvetica,sans-Serif" font-size="10.00">std::shared_ptr&lt; point_t &gt;</text>
<polyline fill="none" stroke="#bfbfbf" points="481,-858.5 607,-858.5 "/>
<text text-anchor="start" x="489" y="-846.5" font-family="Helvetica,sans-Serif" font-size="10.00">+ ptr</text>
<polyline fill="none" stroke="#bfbfbf" points="481,-839.5 607,-839.5 "/>
<text text-anchor="start" x="489" y="-827.5" font-family="Helvetica,sans-Serif" font-size="10.00">+ operator&#45;&gt;()</text>
</a>
</g>
</g>
<!-- Node12&#45;&gt;Node9 -->
<g id="edge11" class="edge">
<title>Node12&#45;&gt;Node9</title>
<path fill="none" stroke="#404040" d="M548.2,-820.33C548.95,-814.3 549.61,-807.95 550,-802 551.35,-781.15 551.07,-758.49 550.12,-737.71"/>
<polygon fill="none" stroke="#404040" points="550.12,-737.71 545.81,-731.93 549.49,-725.73 553.8,-731.51 550.12,-737.71"/>
<text text-anchor="middle" x="570" y="-770.5" font-family="Helvetica,sans-Serif" font-size="10.00"> &#45;location</text>
</g>
<!-- Node13 -->
<g id="node13" class="node">
<title>Node13</title>
<g id="a_node13"><a xlink:title="STL class.">
<polygon fill="white" stroke="#bfbfbf" points="544.5,-931 544.5,-988 647.5,-988 647.5,-931 544.5,-931"/>
<text text-anchor="middle" x="596" y="-976" font-family="Helvetica,sans-Serif" font-size="10.00">std::shared_ptr&lt; T &gt;</text>
<polyline fill="none" stroke="#bfbfbf" points="544.5,-969 647.5,-969 "/>
<text text-anchor="middle" x="596" y="-957" font-family="Helvetica,sans-Serif" font-size="10.00"> </text>
<polyline fill="none" stroke="#bfbfbf" points="544.5,-950 647.5,-950 "/>
<text text-anchor="start" x="552.5" y="-938" font-family="Helvetica,sans-Serif" font-size="10.00">+ operator&#45;&gt;()</text>
</a>
</g>
</g>
<!-- Node13&#45;&gt;Node4 -->
<g id="edge25" class="edge">
<title>Node13&#45;&gt;Node4</title>
<path fill="none" stroke="orange" d="M637,-923.79C667.8,-894.83 707.56,-850.58 725,-802 733.71,-777.74 725.81,-769.77 725,-744 721,-616.7 707,-585.36 707,-458 707,-458 707,-458 707,-265.5 707,-261.64 507.09,-198.32 409.87,-167.76"/>
<polygon fill="orange" stroke="orange" points="634.36,-921.46 629.38,-930.82 639.1,-926.61 634.36,-921.46"/>
<text text-anchor="middle" x="753" y="-518" font-family="Helvetica,sans-Serif" font-size="10.00"> &lt; HY_Catchment &gt;</text>
</g>
<!-- Node13&#45;&gt;Node8 -->
<g id="edge14" class="edge">
<title>Node13&#45;&gt;Node8</title>
<path fill="none" stroke="orange" d="M616.43,-921.33C618.3,-916.62 619.9,-911.77 621,-907 622.1,-902.24 621.04,-900.89 621,-896 619.89,-765.32 645.02,-729.42 616,-602 612.31,-585.8 605.15,-568.94 598.1,-554.87"/>
<polygon fill="orange" stroke="orange" points="613.11,-920.18 612.29,-930.74 619.52,-923 613.11,-920.18"/>
<text text-anchor="middle" x="675" y="-770.5" font-family="Helvetica,sans-Serif" font-size="10.00"> &lt; HY_HydroNexus &gt;</text>
</g>
<!-- Node13&#45;&gt;Node12 -->
<g id="edge12" class="edge">
<title>Node13&#45;&gt;Node12</title>
<path fill="none" stroke="orange" d="M578.35,-921.68C571.44,-907.25 563.65,-890.99 557.23,-877.61"/>
<polygon fill="orange" stroke="orange" points="575.27,-923.33 582.74,-930.84 581.58,-920.31 575.27,-923.33"/>
<text text-anchor="middle" x="594.5" y="-899" font-family="Helvetica,sans-Serif" font-size="10.00"> &lt; point_t &gt;</text>
</g>
<!-- Node13&#45;&gt;Node16 -->
<g id="edge19" class="edge">
<title>Node13&#45;&gt;Node16</title>
<path fill="none" stroke="orange" d="M534.36,-949.25C452.33,-933.64 308.29,-894.25 228,-802 212.89,-784.64 182.78,-623.28 174,-602 167.31,-585.78 157.97,-568.78 149.46,-554.6"/>
<polygon fill="orange" stroke="orange" points="533.83,-952.71 544.3,-951.08 535.1,-945.82 533.83,-952.71"/>
<text text-anchor="middle" x="294.5" y="-770.5" font-family="Helvetica,sans-Serif" font-size="10.00"> &lt; HY_CatchmentRealization &gt;</text>
</g>
<!-- Node18 -->
<g id="node18" class="node">
<title>Node18</title>
<g id="a_node18"><a xlink:title=" ">
<polygon fill="white" stroke="#bfbfbf" points="405,-744.5 405,-801.5 549,-801.5 549,-744.5 405,-744.5"/>
<text text-anchor="middle" x="477" y="-789.5" font-family="Helvetica,sans-Serif" font-size="10.00">std::shared_ptr&lt; linestring_t &gt;</text>
<polyline fill="none" stroke="#bfbfbf" points="405,-782.5 549,-782.5 "/>
<text text-anchor="start" x="413" y="-770.5" font-family="Helvetica,sans-Serif" font-size="10.00">+ ptr</text>
<polyline fill="none" stroke="#bfbfbf" points="405,-763.5 549,-763.5 "/>
<text text-anchor="start" x="413" y="-751.5" font-family="Helvetica,sans-Serif" font-size="10.00">+ operator&#45;&gt;()</text>
</a>
</g>
</g>
<!-- Node13&#45;&gt;Node18 -->
<g id="edge28" class="edge">
<title>Node13&#45;&gt;Node18</title>
<path fill="none" stroke="orange" d="M535.19,-938.36C508.92,-925.82 481.93,-906.51 472,-878 463.38,-853.25 466.13,-823.17 470.13,-801.74"/>
<polygon fill="orange" stroke="orange" points="533.87,-941.6 544.42,-942.52 536.74,-935.22 533.87,-941.6"/>
<text text-anchor="middle" x="522.5" y="-899" font-family="Helvetica,sans-Serif" font-size="10.00"> &lt; linestring_t &gt;</text>
</g>
<!-- Node14 -->
<g id="node14" class="node">
<title>Node14</title>
<g id="a_node14"><a xlink:title=" ">
<polygon fill="white" stroke="#bfbfbf" points="672.5,-1041.5 672.5,-1098.5 701.5,-1098.5 701.5,-1041.5 672.5,-1041.5"/>
<text text-anchor="middle" x="687" y="-1086.5" font-family="Helvetica,sans-Serif" font-size="10.00">T</text>
<polyline fill="none" stroke="#bfbfbf" points="672.5,-1079.5 701.5,-1079.5 "/>
<text text-anchor="middle" x="687" y="-1067.5" font-family="Helvetica,sans-Serif" font-size="10.00"> </text>
<polyline fill="none" stroke="#bfbfbf" points="672.5,-1060.5 701.5,-1060.5 "/>
<text text-anchor="middle" x="687" y="-1048.5" font-family="Helvetica,sans-Serif" font-size="10.00"> </text>
</a>
</g>
</g>
<!-- Node14&#45;&gt;Node13 -->
<g id="edge13" class="edge">
<title>Node14&#45;&gt;Node13</title>
<path fill="none" stroke="#404040" d="M672.38,-1051.57C660.14,-1036.98 642.27,-1015.66 626.88,-997.32"/>
<polygon fill="none" stroke="#404040" points="626.82,-997.25 619.9,-995.22 619.11,-988.05 626.03,-990.08 626.82,-997.25"/>
<text text-anchor="middle" x="656" y="-1015" font-family="Helvetica,sans-Serif" font-size="10.00"> +ptr</text>
</g>
<!-- Node15 -->
<g id="node15" class="node">
<title>Node15</title>
<g id="a_node15"><a xlink:title="STL class.">
<polygon fill="white" stroke="#bfbfbf" points="811,-492 811,-549 895,-549 895,-492 811,-492"/>
<text text-anchor="middle" x="853" y="-537" font-family="Helvetica,sans-Serif" font-size="10.00">std::vector&lt; T &gt;</text>
<polyline fill="none" stroke="#bfbfbf" points="811,-530 895,-530 "/>
<text text-anchor="middle" x="853" y="-518" font-family="Helvetica,sans-Serif" font-size="10.00"> </text>
<polyline fill="none" stroke="#bfbfbf" points="811,-511 895,-511 "/>
<text text-anchor="middle" x="853" y="-499" font-family="Helvetica,sans-Serif" font-size="10.00"> </text>
</a>
</g>
</g>
<!-- Node14&#45;&gt;Node15 -->
<g id="edge16" class="edge">
<title>Node14&#45;&gt;Node15</title>
<path fill="none" stroke="#404040" d="M701.6,-1065.51C738.21,-1055.79 831,-1024.83 831,-960.5 831,-960.5 831,-960.5 831,-663 831,-628.24 837.56,-589.24 843.52,-561.01"/>
<polygon fill="none" stroke="#404040" points="843.53,-560.95 840.91,-554.23 846.1,-549.22 848.72,-555.94 843.53,-560.95"/>
<text text-anchor="middle" x="855.5" y="-846.5" font-family="Helvetica,sans-Serif" font-size="10.00"> +elements</text>
</g>
<!-- Node15&#45;&gt;Node7 -->
<g id="edge15" class="edge">
<title>Node15&#45;&gt;Node7</title>
<path fill="none" stroke="orange" d="M801.8,-488.31C800.19,-487.51 798.59,-486.74 797,-486 774.83,-475.67 767.76,-476.96 745,-468 711.57,-454.84 674.99,-438.82 644.7,-425.11"/>
<polygon fill="orange" stroke="orange" points="800.52,-491.59 811,-493.13 803.76,-485.39 800.52,-491.59"/>
<text text-anchor="start" x="745" y="-460" font-family="Helvetica,sans-Serif" font-size="10.00"> &lt; std::shared_ptr&lt;</text>
<text text-anchor="middle" x="791" y="-449" font-family="Helvetica,sans-Serif" font-size="10.00"> HY_HydroNexus &gt; &gt;</text>
</g>
<!-- Node15&#45;&gt;Node17 -->
<g id="edge22" class="edge">
<title>Node15&#45;&gt;Node17</title>
<path fill="none" stroke="orange" d="M852.08,-481.62C851.55,-456.84 851,-423.75 851,-394.5 851,-394.5 851,-394.5 851,-149.5 851,-84.63 643.88,-53.29 536.68,-41.42"/>
<polygon fill="orange" stroke="orange" points="848.58,-481.78 852.3,-491.7 855.58,-481.63 848.58,-481.78"/>
<text text-anchor="start" x="851" y="-269.5" font-family="Helvetica,sans-Serif" font-size="10.00"> &lt; std::shared_ptr&lt;</text>
<text text-anchor="middle" x="894" y="-258.5" font-family="Helvetica,sans-Serif" font-size="10.00"> HY_Catchment &gt; &gt;</text>
</g>
<!-- Node16&#45;&gt;Node5 -->
<g id="edge17" class="edge">
<title>Node16&#45;&gt;Node5</title>
<path fill="none" stroke="#404040" d="M120.55,-486.22C114.72,-451.37 111.36,-396.57 137,-359 167.99,-313.59 227.38,-290.32 273.42,-278.65"/>
<polygon fill="none" stroke="#404040" points="273.44,-278.64 278.35,-273.36 285.11,-275.85 280.21,-281.14 273.44,-278.64"/>
<text text-anchor="middle" x="161.5" y="-391" font-family="Helvetica,sans-Serif" font-size="10.00"> &#45;realization</text>
</g>
<!-- Node17&#45;&gt;Node5 -->
<g id="edge20" class="edge">
<title>Node17&#45;&gt;Node5</title>
<path fill="none" stroke="#404040" d="M479.21,-68.63C483.41,-107.35 484.28,-171.55 453,-214 440.1,-231.5 419.91,-243.17 399.97,-250.89"/>
<polygon fill="none" stroke="#404040" points="399.95,-250.89 395.62,-256.66 388.63,-254.89 392.96,-249.12 399.95,-250.89"/>
<text text-anchor="middle" x="532" y="-153.5" font-family="Helvetica,sans-Serif" font-size="10.00"> &#45;recieving_catchments</text>
<text text-anchor="middle" x="532" y="-142.5" font-family="Helvetica,sans-Serif" font-size="10.00">&#45;contained_catchments</text>
</g>
<!-- Node18&#45;&gt;Node1 -->
<g id="edge27" class="edge">
<title>Node18&#45;&gt;Node1</title>
<path fill="none" stroke="#404040" d="M440.98,-744.47C435.1,-738.82 429.47,-732.58 425,-726 392.03,-677.52 406.07,-654.51 380,-602 373.76,-589.44 365.99,-576.42 358.38,-564.61"/>
<polygon fill="none" stroke="#404040" points="358.37,-564.6 351.73,-561.79 351.77,-554.58 358.41,-557.39 358.37,-564.6"/>
<text text-anchor="middle" x="448.5" y="-661.5" font-family="Helvetica,sans-Serif" font-size="10.00"> &#45;flow_path</text>
</g>
</g>
</svg>
