<?xml version="1.0" encoding="UTF-8" standalone="no"?>
<!DOCTYPE svg PUBLIC "-//W3C//DTD SVG 1.1//EN"
 "http://www.w3.org/Graphics/SVG/1.1/DTD/svg11.dtd">
<!-- Generated by graphviz version 2.42.3 ()
 -->
<!-- Title: Simple_Lumped_Model_Realization Pages: 1 -->
<svg width="1210pt" height="1148pt"
 viewBox="0.00 0.00 1210.00 1148.00" xmlns="http://www.w3.org/2000/svg" xmlns:xlink="http://www.w3.org/1999/xlink">
<g id="graph0" class="graph" transform="scale(1 1) rotate(0) translate(4 1144)">
<title>Simple_Lumped_Model_Realization</title>
<polygon fill="white" stroke="transparent" points="-4,4 -4,-1144 1206,-1144 1206,4 -4,4"/>
<!-- Node1 -->
<g id="node1" class="node">
<title>Node1</title>
<g id="a_node1"><a xlink:title=" ">
<polygon fill="#bfbfbf" stroke="black" points="868,-359.5 868,-493.5 1000,-493.5 1000,-359.5 868,-359.5"/>
<text text-anchor="start" x="876" y="-481.5" font-family="Helvetica,sans-Serif" font-size="10.00">Simple_Lumped_Model</text>
<text text-anchor="middle" x="934" y="-470.5" font-family="Helvetica,sans-Serif" font-size="10.00">_Realization</text>
<polyline fill="none" stroke="black" points="868,-463.5 1000,-463.5 "/>
<text text-anchor="start" x="876" y="-451.5" font-family="Helvetica,sans-Serif" font-size="10.00">&#45; params</text>
<polyline fill="none" stroke="black" points="868,-444.5 1000,-444.5 "/>
<text text-anchor="start" x="876" y="-432.5" font-family="Helvetica,sans-Serif" font-size="10.00">+ Simple_Lumped_Model</text>
<text text-anchor="start" x="876" y="-421.5" font-family="Helvetica,sans-Serif" font-size="10.00">_Realization()</text>
<text text-anchor="start" x="876" y="-410.5" font-family="Helvetica,sans-Serif" font-size="10.00">+ ~Simple_Lumped_Model</text>
<text text-anchor="start" x="876" y="-399.5" font-family="Helvetica,sans-Serif" font-size="10.00">_Realization()</text>
<text text-anchor="start" x="876" y="-388.5" font-family="Helvetica,sans-Serif" font-size="10.00">+ get_response()</text>
<text text-anchor="start" x="876" y="-377.5" font-family="Helvetica,sans-Serif" font-size="10.00">+ calc_et()</text>
<text text-anchor="start" x="876" y="-366.5" font-family="Helvetica,sans-Serif" font-size="10.00">+ add_time()</text>
</a>
</g>
</g>
<!-- Node2 -->
<g id="node2" class="node">
<title>Node2</title>
<g id="a_node2"><a xlink:href="class_h_y___catchment_area.html" target="_top" xlink:title=" ">
<polygon fill="white" stroke="black" points="691.5,-552.5 691.5,-620.5 814.5,-620.5 814.5,-552.5 691.5,-552.5"/>
<text text-anchor="middle" x="753" y="-608.5" font-family="Helvetica,sans-Serif" font-size="10.00">HY_CatchmentArea</text>
<polyline fill="none" stroke="black" points="691.5,-601.5 814.5,-601.5 "/>
<text text-anchor="start" x="699.5" y="-589.5" font-family="Helvetica,sans-Serif" font-size="10.00"># bounds</text>
<polyline fill="none" stroke="black" points="691.5,-582.5 814.5,-582.5 "/>
<text text-anchor="start" x="699.5" y="-570.5" font-family="Helvetica,sans-Serif" font-size="10.00">+ HY_CatchmentArea()</text>
<text text-anchor="start" x="699.5" y="-559.5" font-family="Helvetica,sans-Serif" font-size="10.00">+ ~HY_CatchmentArea()</text>
</a>
</g>
</g>
<!-- Node2&#45;&gt;Node1 -->
<g id="edge1" class="edge">
<title>Node2&#45;&gt;Node1</title>
<path fill="none" stroke="midnightblue" d="M798.48,-545.8C819.5,-527.45 844.86,-505.31 867.93,-485.17"/>
<polygon fill="none" stroke="midnightblue" points="796.18,-543.17 790.94,-552.38 800.78,-548.44 796.18,-543.17"/>
</g>
<!-- Node3 -->
<g id="node3" class="node">
<title>Node3</title>
<g id="a_node3"><a xlink:href="class_h_y___catchment_realization.html" target="_top" xlink:title=" ">
<polygon fill="white" stroke="black" points="440,-718 440,-786 590,-786 590,-718 440,-718"/>
<text text-anchor="middle" x="515" y="-774" font-family="Helvetica,sans-Serif" font-size="10.00">HY_CatchmentRealization</text>
<polyline fill="none" stroke="black" points="440,-767 590,-767 "/>
<text text-anchor="start" x="448" y="-755" font-family="Helvetica,sans-Serif" font-size="10.00"># id_number</text>
<polyline fill="none" stroke="black" points="440,-748 590,-748 "/>
<text text-anchor="start" x="448" y="-736" font-family="Helvetica,sans-Serif" font-size="10.00">+ HY_CatchmentRealization()</text>
<text text-anchor="start" x="448" y="-725" font-family="Helvetica,sans-Serif" font-size="10.00">+ ~HY_CatchmentRealization()</text>
</a>
</g>
</g>
<!-- Node3&#45;&gt;Node2 -->
<g id="edge2" class="edge">
<title>Node3&#45;&gt;Node2</title>
<path fill="none" stroke="midnightblue" d="M571.62,-712.11C612.24,-684.2 666.38,-647.01 704.91,-620.54"/>
<polygon fill="none" stroke="midnightblue" points="569.42,-709.37 563.16,-717.91 573.39,-715.14 569.42,-709.37"/>
</g>
<!-- Node16 -->
<g id="node16" class="node">
<title>Node16</title>
<g id="a_node16"><a xlink:title=" ">
<polygon fill="white" stroke="#bfbfbf" points="381.5,-552.5 381.5,-620.5 506.5,-620.5 506.5,-552.5 381.5,-552.5"/>
<text text-anchor="start" x="389.5" y="-608.5" font-family="Helvetica,sans-Serif" font-size="10.00">std::shared_ptr&lt; HY</text>
<text text-anchor="middle" x="444" y="-597.5" font-family="Helvetica,sans-Serif" font-size="10.00">_CatchmentRealization &gt;</text>
<polyline fill="none" stroke="#bfbfbf" points="381.5,-590.5 506.5,-590.5 "/>
<text text-anchor="middle" x="444" y="-578.5" font-family="Helvetica,sans-Serif" font-size="10.00"> </text>
<polyline fill="none" stroke="#bfbfbf" points="381.5,-571.5 506.5,-571.5 "/>
<text text-anchor="start" x="389.5" y="-559.5" font-family="Helvetica,sans-Serif" font-size="10.00">+ operator&#45;&gt;()</text>
</a>
</g>
</g>
<!-- Node3&#45;&gt;Node16 -->
<g id="edge18" class="edge">
<title>Node3&#45;&gt;Node16</title>
<path fill="none" stroke="#404040" d="M500.63,-717.91C489.85,-693.09 474.99,-658.86 463.19,-631.7"/>
<polygon fill="none" stroke="#404040" points="463.13,-631.54 457.07,-627.63 458.35,-620.54 464.41,-624.45 463.13,-631.54"/>
<text text-anchor="middle" x="490" y="-658.5" font-family="Helvetica,sans-Serif" font-size="10.00"> +ptr</text>
</g>
<!-- Node4 -->
<g id="node4" class="node">
<title>Node4</title>
<g id="a_node4"><a xlink:title=" ">
<polygon fill="white" stroke="#bfbfbf" points="324.5,-116.5 324.5,-184.5 427.5,-184.5 427.5,-116.5 324.5,-116.5"/>
<text text-anchor="start" x="332.5" y="-172.5" font-family="Helvetica,sans-Serif" font-size="10.00">std::shared_ptr&lt; HY</text>
<text text-anchor="middle" x="376" y="-161.5" font-family="Helvetica,sans-Serif" font-size="10.00">_Catchment &gt;</text>
<polyline fill="none" stroke="#bfbfbf" points="324.5,-154.5 427.5,-154.5 "/>
<text text-anchor="middle" x="376" y="-142.5" font-family="Helvetica,sans-Serif" font-size="10.00"> </text>
<polyline fill="none" stroke="#bfbfbf" points="324.5,-135.5 427.5,-135.5 "/>
<text text-anchor="start" x="332.5" y="-123.5" font-family="Helvetica,sans-Serif" font-size="10.00">+ operator&#45;&gt;()</text>
</a>
</g>
</g>
<!-- Node4&#45;&gt;Node3 -->
<g id="edge3" class="edge">
<title>Node4&#45;&gt;Node3</title>
<path fill="none" stroke="#404040" d="M427.62,-182.66C474.05,-211.55 535,-252.04 535,-265.5 535,-587.5 535,-587.5 535,-587.5 535,-627.82 528.93,-673.32 523.48,-706.06"/>
<polygon fill="none" stroke="#404040" points="523.47,-706.13 526.4,-712.72 521.44,-717.95 518.51,-711.36 523.47,-706.13"/>
<text text-anchor="middle" x="581" y="-424" font-family="Helvetica,sans-Serif" font-size="10.00"> #realized_catchment</text>
</g>
<!-- Node5 -->
<g id="node5" class="node">
<title>Node5</title>
<g id="a_node5"><a xlink:href="class_h_y___catchment.html" target="_top" xlink:title=" ">
<polygon fill="white" stroke="black" points="305.5,-232.5 305.5,-300.5 408.5,-300.5 408.5,-232.5 305.5,-232.5"/>
<text text-anchor="middle" x="357" y="-288.5" font-family="Helvetica,sans-Serif" font-size="10.00">HY_Catchment</text>
<polyline fill="none" stroke="black" points="305.5,-281.5 408.5,-281.5 "/>
<text text-anchor="start" x="313.5" y="-269.5" font-family="Helvetica,sans-Serif" font-size="10.00">&#45; id_number</text>
<polyline fill="none" stroke="black" points="305.5,-262.5 408.5,-262.5 "/>
<text text-anchor="start" x="313.5" y="-250.5" font-family="Helvetica,sans-Serif" font-size="10.00">+ HY_Catchment()</text>
<text text-anchor="start" x="313.5" y="-239.5" font-family="Helvetica,sans-Serif" font-size="10.00">+ ~HY_Catchment()</text>
</a>
</g>
</g>
<!-- Node4&#45;&gt;Node5 -->
<g id="edge23" class="edge">
<title>Node4&#45;&gt;Node5</title>
<path fill="none" stroke="#404040" d="M324.34,-165.62C305.77,-173.46 286.78,-185.33 276,-203 266.5,-218.57 277.66,-231.71 294.43,-241.86"/>
<polygon fill="none" stroke="#404040" points="294.89,-242.1 302.06,-241.42 305.46,-247.78 298.28,-248.47 294.89,-242.1"/>
<text text-anchor="middle" x="326.5" y="-206" font-family="Helvetica,sans-Serif" font-size="10.00"> &#45;containing_catchment</text>
</g>
<!-- Node17 -->
<g id="node17" class="node">
<title>Node17</title>
<g id="a_node17"><a xlink:title=" ">
<polygon fill="white" stroke="#bfbfbf" points="401.5,-0.5 401.5,-68.5 526.5,-68.5 526.5,-0.5 401.5,-0.5"/>
<text text-anchor="start" x="409.5" y="-56.5" font-family="Helvetica,sans-Serif" font-size="10.00">std::vector&lt; std::shared</text>
<text text-anchor="middle" x="464" y="-45.5" font-family="Helvetica,sans-Serif" font-size="10.00">_ptr&lt; HY_Catchment &gt; &gt;</text>
<polyline fill="none" stroke="#bfbfbf" points="401.5,-38.5 526.5,-38.5 "/>
<text text-anchor="middle" x="464" y="-26.5" font-family="Helvetica,sans-Serif" font-size="10.00"> </text>
<polyline fill="none" stroke="#bfbfbf" points="401.5,-19.5 526.5,-19.5 "/>
<text text-anchor="middle" x="464" y="-7.5" font-family="Helvetica,sans-Serif" font-size="10.00"> </text>
</a>
</g>
</g>
<!-- Node4&#45;&gt;Node17 -->
<g id="edge21" class="edge">
<title>Node4&#45;&gt;Node17</title>
<path fill="none" stroke="#404040" d="M385.68,-116.41C389.51,-106.41 394.57,-95.76 401,-87 403.46,-83.65 406.18,-80.39 409.07,-77.25"/>
<polygon fill="none" stroke="#404040" points="409.13,-77.19 410.54,-70.12 417.61,-68.71 416.2,-75.78 409.13,-77.19"/>
<text text-anchor="middle" x="425.5" y="-90" font-family="Helvetica,sans-Serif" font-size="10.00"> +elements</text>
</g>
<!-- Node5&#45;&gt;Node4 -->
<g id="edge4" class="edge">
<title>Node5&#45;&gt;Node4</title>
<path fill="none" stroke="#404040" d="M374.95,-232.45C377.45,-226.46 379.63,-220.16 381,-214 382.21,-208.53 382.73,-202.74 382.8,-196.97"/>
<polygon fill="none" stroke="#404040" points="382.78,-196.5 378.53,-190.67 382.28,-184.51 386.53,-190.35 382.78,-196.5"/>
<text text-anchor="middle" x="393" y="-206" font-family="Helvetica,sans-Serif" font-size="10.00"> +ptr</text>
</g>
<!-- Node6 -->
<g id="node6" class="node">
<title>Node6</title>
<g id="a_node6"><a xlink:href="class_h_y___hydro_feature.html" target="_top" xlink:title=" ">
<polygon fill="white" stroke="black" points="300,-392.5 300,-460.5 414,-460.5 414,-392.5 300,-392.5"/>
<text text-anchor="middle" x="357" y="-448.5" font-family="Helvetica,sans-Serif" font-size="10.00">HY_HydroFeature</text>
<polyline fill="none" stroke="black" points="300,-441.5 414,-441.5 "/>
<text text-anchor="middle" x="357" y="-429.5" font-family="Helvetica,sans-Serif" font-size="10.00"> </text>
<polyline fill="none" stroke="black" points="300,-422.5 414,-422.5 "/>
<text text-anchor="start" x="308" y="-410.5" font-family="Helvetica,sans-Serif" font-size="10.00">+ HY_HydroFeature()</text>
<text text-anchor="start" x="308" y="-399.5" font-family="Helvetica,sans-Serif" font-size="10.00">+ ~HY_HydroFeature()</text>
</a>
</g>
</g>
<!-- Node6&#45;&gt;Node5 -->
<g id="edge5" class="edge">
<title>Node6&#45;&gt;Node5</title>
<path fill="none" stroke="midnightblue" d="M357,-382.14C357,-356.4 357,-324.27 357,-300.58"/>
<polygon fill="none" stroke="midnightblue" points="353.5,-382.38 357,-392.38 360.5,-382.38 353.5,-382.38"/>
</g>
<!-- Node7 -->
<g id="node7" class="node">
<title>Node7</title>
<g id="a_node7"><a xlink:title=" ">
<polygon fill="white" stroke="#bfbfbf" points="150.5,-392.5 150.5,-460.5 281.5,-460.5 281.5,-392.5 150.5,-392.5"/>
<text text-anchor="start" x="158.5" y="-448.5" font-family="Helvetica,sans-Serif" font-size="10.00">std::vector&lt; std::shared</text>
<text text-anchor="middle" x="216" y="-437.5" font-family="Helvetica,sans-Serif" font-size="10.00">_ptr&lt; HY_HydroNexus &gt; &gt;</text>
<polyline fill="none" stroke="#bfbfbf" points="150.5,-430.5 281.5,-430.5 "/>
<text text-anchor="middle" x="216" y="-418.5" font-family="Helvetica,sans-Serif" font-size="10.00"> </text>
<polyline fill="none" stroke="#bfbfbf" points="150.5,-411.5 281.5,-411.5 "/>
<text text-anchor="middle" x="216" y="-399.5" font-family="Helvetica,sans-Serif" font-size="10.00"> </text>
</a>
</g>
</g>
<!-- Node7&#45;&gt;Node5 -->
<g id="edge6" class="edge">
<title>Node7&#45;&gt;Node5</title>
<path fill="none" stroke="#404040" d="M245.56,-392.38C266.99,-368.36 296.15,-335.69 319.26,-309.79"/>
<polygon fill="none" stroke="#404040" points="319.49,-309.53 320.5,-302.39 327.48,-300.58 326.47,-307.72 319.49,-309.53"/>
<text text-anchor="middle" x="328" y="-333" font-family="Helvetica,sans-Serif" font-size="10.00"> &#45;inflows</text>
<text text-anchor="middle" x="328" y="-322" font-family="Helvetica,sans-Serif" font-size="10.00">&#45;outflows</text>
</g>
<!-- Node8 -->
<g id="node8" class="node">
<title>Node8</title>
<g id="a_node8"><a xlink:title=" ">
<polygon fill="white" stroke="#bfbfbf" points="161.5,-552.5 161.5,-620.5 264.5,-620.5 264.5,-552.5 161.5,-552.5"/>
<text text-anchor="start" x="169.5" y="-608.5" font-family="Helvetica,sans-Serif" font-size="10.00">std::shared_ptr&lt; HY</text>
<text text-anchor="middle" x="213" y="-597.5" font-family="Helvetica,sans-Serif" font-size="10.00">_HydroNexus &gt;</text>
<polyline fill="none" stroke="#bfbfbf" points="161.5,-590.5 264.5,-590.5 "/>
<text text-anchor="middle" x="213" y="-578.5" font-family="Helvetica,sans-Serif" font-size="10.00"> </text>
<polyline fill="none" stroke="#bfbfbf" points="161.5,-571.5 264.5,-571.5 "/>
<text text-anchor="start" x="169.5" y="-559.5" font-family="Helvetica,sans-Serif" font-size="10.00">+ operator&#45;&gt;()</text>
</a>
</g>
</g>
<!-- Node8&#45;&gt;Node7 -->
<g id="edge7" class="edge">
<title>Node8&#45;&gt;Node7</title>
<path fill="none" stroke="#404040" d="M213.63,-552.38C214.07,-529.31 214.66,-498.25 215.14,-472.88"/>
<polygon fill="none" stroke="#404040" points="215.14,-472.58 211.26,-466.5 215.37,-460.58 219.26,-466.65 215.14,-472.58"/>
<text text-anchor="middle" x="239.5" y="-515" font-family="Helvetica,sans-Serif" font-size="10.00"> +elements</text>
</g>
<!-- Node9 -->
<g id="node9" class="node">
<title>Node9</title>
<g id="a_node9"><a xlink:href="class_h_y___hydro_nexus.html" target="_top" xlink:title=" ">
<polygon fill="white" stroke="black" points="150,-690.5 150,-813.5 276,-813.5 276,-690.5 150,-690.5"/>
<text text-anchor="middle" x="213" y="-801.5" font-family="Helvetica,sans-Serif" font-size="10.00">HY_HydroNexus</text>
<polyline fill="none" stroke="black" points="150,-794.5 276,-794.5 "/>
<text text-anchor="start" x="158" y="-782.5" font-family="Helvetica,sans-Serif" font-size="10.00">&#45; id_number</text>
<text text-anchor="start" x="158" y="-771.5" font-family="Helvetica,sans-Serif" font-size="10.00">&#45; number_of_downstream</text>
<text text-anchor="start" x="158" y="-760.5" font-family="Helvetica,sans-Serif" font-size="10.00">_catchments</text>
<polyline fill="none" stroke="black" points="150,-753.5 276,-753.5 "/>
<text text-anchor="start" x="158" y="-741.5" font-family="Helvetica,sans-Serif" font-size="10.00">+ HY_HydroNexus()</text>
<text text-anchor="start" x="158" y="-730.5" font-family="Helvetica,sans-Serif" font-size="10.00">+ ~HY_HydroNexus()</text>
<text text-anchor="start" x="158" y="-719.5" font-family="Helvetica,sans-Serif" font-size="10.00"># add_upstream_flow()</text>
<text text-anchor="start" x="158" y="-708.5" font-family="Helvetica,sans-Serif" font-size="10.00"># get_downstream_flow()</text>
<text text-anchor="start" x="158" y="-697.5" font-family="Helvetica,sans-Serif" font-size="10.00"># get_flow_units()</text>
</a>
</g>
</g>
<!-- Node9&#45;&gt;Node8 -->
<g id="edge8" class="edge">
<title>Node9&#45;&gt;Node8</title>
<path fill="none" stroke="#404040" d="M213,-690.12C213,-671.18 213,-650.64 213,-632.94"/>
<polygon fill="none" stroke="#404040" points="213,-632.91 209,-626.91 213,-620.91 217,-626.91 213,-632.91"/>
<text text-anchor="middle" x="223" y="-658.5" font-family="Helvetica,sans-Serif" font-size="10.00"> +ptr</text>
</g>
<!-- Node10 -->
<g id="node10" class="node">
<title>Node10</title>
<g id="a_node10"><a xlink:title="STL class.">
<polygon fill="white" stroke="#bfbfbf" points="305.5,-861.5 305.5,-918.5 364.5,-918.5 364.5,-861.5 305.5,-861.5"/>
<text text-anchor="middle" x="335" y="-906.5" font-family="Helvetica,sans-Serif" font-size="10.00">std::string</text>
<polyline fill="none" stroke="#bfbfbf" points="305.5,-899.5 364.5,-899.5 "/>
<text text-anchor="middle" x="335" y="-887.5" font-family="Helvetica,sans-Serif" font-size="10.00"> </text>
<polyline fill="none" stroke="#bfbfbf" points="305.5,-880.5 364.5,-880.5 "/>
<text text-anchor="middle" x="335" y="-868.5" font-family="Helvetica,sans-Serif" font-size="10.00"> </text>
</a>
</g>
</g>
<!-- Node10&#45;&gt;Node3 -->
<g id="edge26" class="edge">
<title>Node10&#45;&gt;Node3</title>
<path fill="none" stroke="#404040" d="M364.61,-872.64C378.98,-864.31 396.28,-853.7 411,-843 431.39,-828.17 452.65,-810.26 470.6,-794.34"/>
<polygon fill="none" stroke="#404040" points="470.73,-794.23 472.52,-787.24 479.66,-786.22 477.86,-793.2 470.73,-794.23"/>
<text text-anchor="middle" x="431" y="-835" font-family="Helvetica,sans-Serif" font-size="10.00"> #id</text>
</g>
<!-- Node10&#45;&gt;Node5 -->
<g id="edge24" class="edge">
<title>Node10&#45;&gt;Node5</title>
<path fill="none" stroke="#404040" d="M305.48,-876.5C277.09,-864.61 232.86,-846.44 194,-832 170.68,-823.33 156.72,-833.28 141,-814 97.99,-761.23 122,-730.08 122,-662 122,-662 122,-662 122,-425.5 122,-394.76 120.63,-382.02 141,-359 180.43,-314.43 245.21,-290.93 293.57,-278.97"/>
<polygon fill="none" stroke="#404040" points="293.8,-278.91 298.73,-273.65 305.48,-276.17 300.56,-281.43 293.8,-278.91"/>
<text text-anchor="middle" x="128.5" y="-584" font-family="Helvetica,sans-Serif" font-size="10.00"> &#45;id</text>
</g>
<!-- Node10&#45;&gt;Node9 -->
<g id="edge9" class="edge">
<title>Node10&#45;&gt;Node9</title>
<path fill="none" stroke="#404040" d="M305.16,-880.99C284.74,-874.07 258.47,-862.1 242,-843 237.33,-837.58 233.41,-831.41 230.12,-824.88"/>
<polygon fill="none" stroke="#404040" points="230,-824.62 223.92,-820.75 225.15,-813.65 231.24,-817.52 230,-824.62"/>
<text text-anchor="middle" x="248.5" y="-835" font-family="Helvetica,sans-Serif" font-size="10.00"> &#45;id</text>
</g>
<!-- Node11 -->
<g id="node11" class="node">
<title>Node11</title>
<g id="a_node11"><a xlink:title="STL class.">
<polygon fill="white" stroke="#bfbfbf" points="288.5,-966.5 288.5,-1034.5 381.5,-1034.5 381.5,-966.5 288.5,-966.5"/>
<text text-anchor="start" x="296.5" y="-1022.5" font-family="Helvetica,sans-Serif" font-size="10.00">std::basic_string&lt;</text>
<text text-anchor="middle" x="335" y="-1011.5" font-family="Helvetica,sans-Serif" font-size="10.00"> char &gt;</text>
<polyline fill="none" stroke="#bfbfbf" points="288.5,-1004.5 381.5,-1004.5 "/>
<text text-anchor="middle" x="335" y="-992.5" font-family="Helvetica,sans-Serif" font-size="10.00"> </text>
<polyline fill="none" stroke="#bfbfbf" points="288.5,-985.5 381.5,-985.5 "/>
<text text-anchor="middle" x="335" y="-973.5" font-family="Helvetica,sans-Serif" font-size="10.00"> </text>
</a>
</g>
</g>
<!-- Node11&#45;&gt;Node10 -->
<g id="edge10" class="edge">
<title>Node11&#45;&gt;Node10</title>
<path fill="none" stroke="midnightblue" d="M335,-956.06C335,-943.51 335,-930.15 335,-918.83"/>
<polygon fill="none" stroke="midnightblue" points="331.5,-956.36 335,-966.36 338.5,-956.36 331.5,-956.36"/>
</g>
<!-- Node12 -->
<g id="node12" class="node">
<title>Node12</title>
<g id="a_node12"><a xlink:title=" ">
<polygon fill="white" stroke="#bfbfbf" points="90,-861.5 90,-918.5 216,-918.5 216,-861.5 90,-861.5"/>
<text text-anchor="middle" x="153" y="-906.5" font-family="Helvetica,sans-Serif" font-size="10.00">std::shared_ptr&lt; point_t &gt;</text>
<polyline fill="none" stroke="#bfbfbf" points="90,-899.5 216,-899.5 "/>
<text text-anchor="start" x="98" y="-887.5" font-family="Helvetica,sans-Serif" font-size="10.00">+ ptr</text>
<polyline fill="none" stroke="#bfbfbf" points="90,-880.5 216,-880.5 "/>
<text text-anchor="start" x="98" y="-868.5" font-family="Helvetica,sans-Serif" font-size="10.00">+ operator&#45;&gt;()</text>
</a>
</g>
</g>
<!-- Node12&#45;&gt;Node9 -->
<g id="edge11" class="edge">
<title>Node12&#45;&gt;Node9</title>
<path fill="none" stroke="#404040" d="M165.14,-861.48C169.9,-850.68 175.61,-837.75 181.39,-824.64"/>
<polygon fill="none" stroke="#404040" points="181.41,-824.6 180.17,-817.5 186.25,-813.62 187.49,-820.73 181.41,-824.6"/>
<text text-anchor="middle" x="198" y="-835" font-family="Helvetica,sans-Serif" font-size="10.00"> &#45;location</text>
</g>
<!-- Node13 -->
<g id="node13" class="node">
<title>Node13</title>
<g id="a_node13"><a xlink:title="STL class.">
<polygon fill="white" stroke="#bfbfbf" points="101.5,-972 101.5,-1029 204.5,-1029 204.5,-972 101.5,-972"/>
<text text-anchor="middle" x="153" y="-1017" font-family="Helvetica,sans-Serif" font-size="10.00">std::shared_ptr&lt; T &gt;</text>
<polyline fill="none" stroke="#bfbfbf" points="101.5,-1010 204.5,-1010 "/>
<text text-anchor="middle" x="153" y="-998" font-family="Helvetica,sans-Serif" font-size="10.00"> </text>
<polyline fill="none" stroke="#bfbfbf" points="101.5,-991 204.5,-991 "/>
<text text-anchor="start" x="109.5" y="-979" font-family="Helvetica,sans-Serif" font-size="10.00">+ operator&#45;&gt;()</text>
</a>
</g>
</g>
<!-- Node13&#45;&gt;Node4 -->
<g id="edge25" class="edge">
<title>Node13&#45;&gt;Node4</title>
<path fill="none" stroke="orange" d="M91.68,-982.64C49.11,-966.77 0,-938.23 0,-891 0,-891 0,-891 0,-265.5 0,-198.57 220.97,-167.26 324.11,-156.29"/>
<polygon fill="orange" stroke="orange" points="90.61,-985.97 101.2,-986.02 92.95,-979.37 90.61,-985.97"/>
<text text-anchor="middle" x="43" y="-584" font-family="Helvetica,sans-Serif" font-size="10.00"> &lt; HY_Catchment &gt;</text>
</g>
<!-- Node13&#45;&gt;Node8 -->
<g id="edge14" class="edge">
<title>Node13&#45;&gt;Node8</title>
<path fill="none" stroke="orange" d="M111.93,-964.46C99.67,-951.54 87.71,-935.9 81,-919 66.73,-883.05 71.1,-869.86 79,-832 96.31,-749.08 152.57,-665.27 186.44,-620.54"/>
<polygon fill="orange" stroke="orange" points="109.63,-967.11 119.15,-971.74 114.6,-962.18 109.63,-967.11"/>
<text text-anchor="middle" x="125" y="-835" font-family="Helvetica,sans-Serif" font-size="10.00"> &lt; HY_HydroNexus &gt;</text>
</g>
<!-- Node13&#45;&gt;Node12 -->
<g id="edge12" class="edge">
<title>Node13&#45;&gt;Node12</title>
<path fill="none" stroke="orange" d="M153,-961.44C153,-947.33 153,-931.61 153,-918.61"/>
<polygon fill="orange" stroke="orange" points="149.5,-961.84 153,-971.84 156.5,-961.84 149.5,-961.84"/>
<text text-anchor="middle" x="177.5" y="-940" font-family="Helvetica,sans-Serif" font-size="10.00"> &lt; point_t &gt;</text>
</g>
<!-- Node13&#45;&gt;Node16 -->
<g id="edge19" class="edge">
<title>Node13&#45;&gt;Node16</title>
<path fill="none" stroke="orange" d="M190.83,-964.77C196.13,-959.34 201.34,-953.65 206,-948 215.81,-936.11 216.99,-932.16 225,-919 248.06,-881.09 251.54,-870.27 274,-832 278.75,-823.91 281.06,-822.51 285,-814 317.22,-744.35 290.99,-709.86 339,-650 350.35,-635.85 365.83,-624.18 381.42,-614.91"/>
<polygon fill="orange" stroke="orange" points="188.21,-962.44 183.61,-971.98 193.16,-967.39 188.21,-962.44"/>
<text text-anchor="middle" x="340.5" y="-835" font-family="Helvetica,sans-Serif" font-size="10.00"> &lt; HY_CatchmentRealization &gt;</text>
</g>
<!-- Node14 -->
<g id="node14" class="node">
<title>Node14</title>
<g id="a_node14"><a xlink:title=" ">
<polygon fill="white" stroke="#bfbfbf" points="648.5,-1082.5 648.5,-1139.5 677.5,-1139.5 677.5,-1082.5 648.5,-1082.5"/>
<text text-anchor="middle" x="663" y="-1127.5" font-family="Helvetica,sans-Serif" font-size="10.00">T</text>
<polyline fill="none" stroke="#bfbfbf" points="648.5,-1120.5 677.5,-1120.5 "/>
<text text-anchor="middle" x="663" y="-1108.5" font-family="Helvetica,sans-Serif" font-size="10.00"> </text>
<polyline fill="none" stroke="#bfbfbf" points="648.5,-1101.5 677.5,-1101.5 "/>
<text text-anchor="middle" x="663" y="-1089.5" font-family="Helvetica,sans-Serif" font-size="10.00"> </text>
</a>
</g>
</g>
<!-- Node14&#45;&gt;Node13 -->
<g id="edge13" class="edge">
<title>Node14&#45;&gt;Node13</title>
<path fill="none" stroke="#404040" d="M648.28,-1107.49C597.06,-1098.68 421.98,-1067.93 279,-1035 258.54,-1030.29 236.36,-1024.59 216.39,-1019.24"/>
<polygon fill="none" stroke="#404040" points="216.19,-1019.19 209.36,-1021.48 204.61,-1016.06 211.44,-1013.76 216.19,-1019.19"/>
<text text-anchor="middle" x="416" y="-1056" font-family="Helvetica,sans-Serif" font-size="10.00"> +ptr</text>
</g>
<!-- Node15 -->
<g id="node15" class="node">
<title>Node15</title>
<g id="a_node15"><a xlink:title="STL class.">
<polygon fill="white" stroke="#bfbfbf" points="621,-861.5 621,-918.5 705,-918.5 705,-861.5 621,-861.5"/>
<text text-anchor="middle" x="663" y="-906.5" font-family="Helvetica,sans-Serif" font-size="10.00">std::vector&lt; T &gt;</text>
<polyline fill="none" stroke="#bfbfbf" points="621,-899.5 705,-899.5 "/>
<text text-anchor="middle" x="663" y="-887.5" font-family="Helvetica,sans-Serif" font-size="10.00"> </text>
<polyline fill="none" stroke="#bfbfbf" points="621,-880.5 705,-880.5 "/>
<text text-anchor="middle" x="663" y="-868.5" font-family="Helvetica,sans-Serif" font-size="10.00"> </text>
</a>
</g>
</g>
<!-- Node14&#45;&gt;Node15 -->
<g id="edge16" class="edge">
<title>Node14&#45;&gt;Node15</title>
<path fill="none" stroke="#404040" d="M663,-1082.26C663,-1043.92 663,-974.51 663,-930.69"/>
<polygon fill="none" stroke="#404040" points="663,-930.51 659,-924.51 663,-918.51 667,-924.51 663,-930.51"/>
<text text-anchor="middle" x="687.5" y="-998" font-family="Helvetica,sans-Serif" font-size="10.00"> +elements</text>
</g>
<!-- Node20 -->
<g id="node20" class="node">
<title>Node20</title>
<g id="a_node20"><a xlink:title="STL class.">
<polygon fill="white" stroke="#bfbfbf" points="940.5,-718 940.5,-786 1041.5,-786 1041.5,-718 940.5,-718"/>
<text text-anchor="start" x="948.5" y="-774" font-family="Helvetica,sans-Serif" font-size="10.00">std::unordered_map</text>
<text text-anchor="middle" x="991" y="-763" font-family="Helvetica,sans-Serif" font-size="10.00">&lt; K, T &gt;</text>
<polyline fill="none" stroke="#bfbfbf" points="940.5,-756 1041.5,-756 "/>
<text text-anchor="middle" x="991" y="-744" font-family="Helvetica,sans-Serif" font-size="10.00"> </text>
<polyline fill="none" stroke="#bfbfbf" points="940.5,-737 1041.5,-737 "/>
<text text-anchor="middle" x="991" y="-725" font-family="Helvetica,sans-Serif" font-size="10.00"> </text>
</a>
</g>
</g>
<!-- Node14&#45;&gt;Node20 -->
<g id="edge31" class="edge">
<title>Node14&#45;&gt;Node20</title>
<path fill="none" stroke="#404040" d="M677.5,-1105.96C728.11,-1091.05 897.74,-1033.85 971,-919 993.87,-883.15 997.11,-833.96 995.71,-798.45"/>
<polygon fill="none" stroke="#404040" points="995.68,-798.01 991.35,-792.25 995,-786.03 999.34,-791.8 995.68,-798.01"/>
<text text-anchor="middle" x="982.5" y="-940" font-family="Helvetica,sans-Serif" font-size="10.00"> +elements</text>
</g>
<!-- Node15&#45;&gt;Node7 -->
<g id="edge15" class="edge">
<title>Node15&#45;&gt;Node7</title>
<path fill="none" stroke="orange" d="M610.64,-883.41C559.74,-875.58 482.74,-857.07 431,-814 313.78,-716.41 344.22,-644.11 268,-512 258.1,-494.84 246.6,-476.05 236.94,-460.55"/>
<polygon fill="orange" stroke="orange" points="610.37,-886.91 620.77,-884.88 611.38,-879.98 610.37,-886.91"/>
<text text-anchor="start" x="333" y="-664" font-family="Helvetica,sans-Serif" font-size="10.00"> &lt; std::shared_ptr&lt;</text>
<text text-anchor="middle" x="379" y="-653" font-family="Helvetica,sans-Serif" font-size="10.00"> HY_HydroNexus &gt; &gt;</text>
</g>
<!-- Node15&#45;&gt;Node17 -->
<g id="edge22" class="edge">
<title>Node15&#45;&gt;Node17</title>
<path fill="none" stroke="orange" d="M663,-851.11C663,-823.83 663,-786.14 663,-753 663,-753 663,-753 663,-149.5 663,-85.69 585.02,-57.1 526.69,-44.64"/>
<polygon fill="orange" stroke="orange" points="659.5,-851.39 663,-861.39 666.5,-851.39 659.5,-851.39"/>
<text text-anchor="start" x="663" y="-429.5" font-family="Helvetica,sans-Serif" font-size="10.00"> &lt; std::shared_ptr&lt;</text>
<text text-anchor="middle" x="706" y="-418.5" font-family="Helvetica,sans-Serif" font-size="10.00"> HY_Catchment &gt; &gt;</text>
</g>
<!-- Node24 -->
<g id="node24" class="node">
<title>Node24</title>
<g id="a_node24"><a xlink:title=" ">
<polygon fill="white" stroke="#bfbfbf" points="795.5,-723.5 795.5,-780.5 902.5,-780.5 902.5,-723.5 795.5,-723.5"/>
<text text-anchor="middle" x="849" y="-768.5" font-family="Helvetica,sans-Serif" font-size="10.00">std::vector&lt; double &gt;</text>
<polyline fill="none" stroke="#bfbfbf" points="795.5,-761.5 902.5,-761.5 "/>
<text text-anchor="start" x="803.5" y="-749.5" font-family="Helvetica,sans-Serif" font-size="10.00">+ elements</text>
<polyline fill="none" stroke="#bfbfbf" points="795.5,-742.5 902.5,-742.5 "/>
<text text-anchor="middle" x="849" y="-730.5" font-family="Helvetica,sans-Serif" font-size="10.00"> </text>
</a>
</g>
</g>
<!-- Node15&#45;&gt;Node24 -->
<g id="edge36" class="edge">
<title>Node15&#45;&gt;Node24</title>
<path fill="none" stroke="orange" d="M714.07,-861.28C736.85,-848.06 763.56,-831.36 786,-814 799.01,-803.94 812.25,-791.51 823.22,-780.5"/>
<polygon fill="orange" stroke="orange" points="712.16,-858.34 705.22,-866.35 715.64,-864.41 712.16,-858.34"/>
<text text-anchor="middle" x="784" y="-835" font-family="Helvetica,sans-Serif" font-size="10.00"> &lt; double &gt;</text>
</g>
<!-- Node16&#45;&gt;Node5 -->
<g id="edge17" class="edge">
<title>Node16&#45;&gt;Node5</title>
<path fill="none" stroke="#404040" d="M446.26,-552.42C448.18,-507.2 447.47,-424.27 423,-359 416.52,-341.71 405.87,-324.75 394.99,-310.22"/>
<polygon fill="none" stroke="#404040" points="394.85,-310.04 388,-307.77 387.47,-300.58 394.31,-302.85 394.85,-310.04"/>
<text text-anchor="middle" x="471.5" y="-424" font-family="Helvetica,sans-Serif" font-size="10.00"> &#45;realization</text>
</g>
<!-- Node17&#45;&gt;Node5 -->
<g id="edge20" class="edge">
<title>Node17&#45;&gt;Node5</title>
<path fill="none" stroke="#404040" d="M463.27,-68.79C461.35,-100.34 455.17,-148.24 436,-185 428.64,-199.11 417.99,-212.38 406.88,-223.91"/>
<polygon fill="none" stroke="#404040" points="406.87,-223.93 405.42,-231 398.35,-232.38 399.79,-225.32 406.87,-223.93"/>
<text text-anchor="middle" x="509" y="-153.5" font-family="Helvetica,sans-Serif" font-size="10.00"> &#45;recieving_catchments</text>
<text text-anchor="middle" x="509" y="-142.5" font-family="Helvetica,sans-Serif" font-size="10.00">&#45;contained_catchments</text>
</g>
<!-- Node18 -->
<g id="node18" class="node">
<title>Node18</title>
<g id="a_node18"><a xlink:href="class_g_m___object.html" target="_top" xlink:title=" ">
<polygon fill="white" stroke="black" points="691,-718 691,-786 777,-786 777,-718 691,-718"/>
<text text-anchor="middle" x="734" y="-774" font-family="Helvetica,sans-Serif" font-size="10.00">GM_Object</text>
<polyline fill="none" stroke="black" points="691,-767 777,-767 "/>
<text text-anchor="middle" x="734" y="-755" font-family="Helvetica,sans-Serif" font-size="10.00"> </text>
<polyline fill="none" stroke="black" points="691,-748 777,-748 "/>
<text text-anchor="start" x="699" y="-736" font-family="Helvetica,sans-Serif" font-size="10.00">+ GM_Object()</text>
<text text-anchor="start" x="699" y="-725" font-family="Helvetica,sans-Serif" font-size="10.00">+ ~GM_Object()</text>
</a>
</g>
</g>
<!-- Node18&#45;&gt;Node2 -->
<g id="edge27" class="edge">
<title>Node18&#45;&gt;Node2</title>
<path fill="none" stroke="midnightblue" d="M739.02,-707.84C742.19,-680.49 746.24,-645.68 749.16,-620.54"/>
<polygon fill="none" stroke="midnightblue" points="735.52,-707.58 737.84,-717.91 742.48,-708.38 735.52,-707.58"/>
</g>
<!-- Node19 -->
<g id="node19" class="node">
<title>Node19</title>
<g id="a_node19"><a xlink:title=" ">
<polygon fill="white" stroke="#bfbfbf" points="833,-541.5 833,-631.5 943,-631.5 943,-541.5 833,-541.5"/>
<text text-anchor="start" x="841" y="-619.5" font-family="Helvetica,sans-Serif" font-size="10.00">std::unordered_map</text>
<text text-anchor="start" x="841" y="-608.5" font-family="Helvetica,sans-Serif" font-size="10.00">&lt; time_step_t, hymod</text>
<text text-anchor="middle" x="888" y="-597.5" font-family="Helvetica,sans-Serif" font-size="10.00">_state &gt;</text>
<polyline fill="none" stroke="#bfbfbf" points="833,-590.5 943,-590.5 "/>
<text text-anchor="start" x="841" y="-578.5" font-family="Helvetica,sans-Serif" font-size="10.00">+ keys</text>
<text text-anchor="start" x="841" y="-567.5" font-family="Helvetica,sans-Serif" font-size="10.00">+ elements</text>
<polyline fill="none" stroke="#bfbfbf" points="833,-560.5 943,-560.5 "/>
<text text-anchor="middle" x="888" y="-548.5" font-family="Helvetica,sans-Serif" font-size="10.00"> </text>
</a>
</g>
</g>
<!-- Node19&#45;&gt;Node1 -->
<g id="edge28" class="edge">
<title>Node19&#45;&gt;Node1</title>
<path fill="none" stroke="#404040" d="M900.81,-541.49C904.08,-530.28 907.68,-517.89 911.28,-505.53"/>
<polygon fill="none" stroke="#404040" points="911.36,-505.26 909.2,-498.38 914.72,-493.74 916.88,-500.62 911.36,-505.26"/>
<text text-anchor="middle" x="922" y="-515" font-family="Helvetica,sans-Serif" font-size="10.00"> &#45;state</text>
</g>
<!-- Node20&#45;&gt;Node19 -->
<g id="edge29" class="edge">
<title>Node20&#45;&gt;Node19</title>
<path fill="none" stroke="orange" d="M933.37,-711.14C920.88,-699.88 909.03,-686.64 901,-672 894.36,-659.9 890.83,-645.43 889.03,-631.93"/>
<polygon fill="orange" stroke="orange" points="931.33,-714.01 941.19,-717.9 935.91,-708.71 931.33,-714.01"/>
<text text-anchor="start" x="901" y="-664" font-family="Helvetica,sans-Serif" font-size="10.00"> &lt; time_step_t, hymod</text>
<text text-anchor="middle" x="949" y="-653" font-family="Helvetica,sans-Serif" font-size="10.00">_state &gt;</text>
</g>
<!-- Node22 -->
<g id="node22" class="node">
<title>Node22</title>
<g id="a_node22"><a xlink:title=" ">
<polygon fill="white" stroke="#bfbfbf" points="1081,-541.5 1081,-631.5 1191,-631.5 1191,-541.5 1081,-541.5"/>
<text text-anchor="start" x="1089" y="-619.5" font-family="Helvetica,sans-Serif" font-size="10.00">std::unordered_map</text>
<text text-anchor="start" x="1089" y="-608.5" font-family="Helvetica,sans-Serif" font-size="10.00">&lt; time_step_t, hymod</text>
<text text-anchor="middle" x="1136" y="-597.5" font-family="Helvetica,sans-Serif" font-size="10.00">_fluxes &gt;</text>
<polyline fill="none" stroke="#bfbfbf" points="1081,-590.5 1191,-590.5 "/>
<text text-anchor="start" x="1089" y="-578.5" font-family="Helvetica,sans-Serif" font-size="10.00">+ keys</text>
<text text-anchor="start" x="1089" y="-567.5" font-family="Helvetica,sans-Serif" font-size="10.00">+ elements</text>
<polyline fill="none" stroke="#bfbfbf" points="1081,-560.5 1191,-560.5 "/>
<text text-anchor="middle" x="1136" y="-548.5" font-family="Helvetica,sans-Serif" font-size="10.00"> </text>
</a>
</g>
</g>
<!-- Node20&#45;&gt;Node22 -->
<g id="edge33" class="edge">
<title>Node20&#45;&gt;Node22</title>
<path fill="none" stroke="orange" d="M1049.91,-711.74C1064.78,-700.08 1079.93,-686.52 1092,-672 1101.94,-660.04 1110.51,-645.48 1117.38,-631.83"/>
<polygon fill="orange" stroke="orange" points="1047.52,-709.16 1041.69,-718.01 1051.76,-714.72 1047.52,-709.16"/>
<text text-anchor="start" x="1106" y="-664" font-family="Helvetica,sans-Serif" font-size="10.00"> &lt; time_step_t, hymod</text>
<text text-anchor="middle" x="1154" y="-653" font-family="Helvetica,sans-Serif" font-size="10.00">_fluxes &gt;</text>
</g>
<!-- Node23 -->
<g id="node23" class="node">
<title>Node23</title>
<g id="a_node23"><a xlink:title=" ">
<polygon fill="white" stroke="#bfbfbf" points="961.5,-547 961.5,-626 1062.5,-626 1062.5,-547 961.5,-547"/>
<text text-anchor="start" x="969.5" y="-614" font-family="Helvetica,sans-Serif" font-size="10.00">std::unordered_map</text>
<text text-anchor="start" x="969.5" y="-603" font-family="Helvetica,sans-Serif" font-size="10.00">&lt; time_step_t, std::</text>
<text text-anchor="middle" x="1012" y="-592" font-family="Helvetica,sans-Serif" font-size="10.00">vector&lt; double &gt; &gt;</text>
<polyline fill="none" stroke="#bfbfbf" points="961.5,-585 1062.5,-585 "/>
<text text-anchor="start" x="969.5" y="-573" font-family="Helvetica,sans-Serif" font-size="10.00">+ keys</text>
<polyline fill="none" stroke="#bfbfbf" points="961.5,-566 1062.5,-566 "/>
<text text-anchor="middle" x="1012" y="-554" font-family="Helvetica,sans-Serif" font-size="10.00"> </text>
</a>
</g>
</g>
<!-- Node20&#45;&gt;Node23 -->
<g id="edge37" class="edge">
<title>Node20&#45;&gt;Node23</title>
<path fill="none" stroke="orange" d="M996.54,-707.85C999.79,-682.53 1003.87,-650.81 1007.02,-626.29"/>
<polygon fill="orange" stroke="orange" points="993.05,-707.55 995.25,-717.91 1000,-708.44 993.05,-707.55"/>
<text text-anchor="start" x="1003" y="-664" font-family="Helvetica,sans-Serif" font-size="10.00"> &lt; time_step_t, std</text>
<text text-anchor="middle" x="1045.5" y="-653" font-family="Helvetica,sans-Serif" font-size="10.00">::vector&lt; double &gt; &gt;</text>
</g>
<!-- Node21 -->
<g id="node21" class="node">
<title>Node21</title>
<g id="a_node21"><a xlink:title=" ">
<polygon fill="white" stroke="#bfbfbf" points="932.5,-861.5 932.5,-918.5 961.5,-918.5 961.5,-861.5 932.5,-861.5"/>
<text text-anchor="middle" x="947" y="-906.5" font-family="Helvetica,sans-Serif" font-size="10.00">K</text>
<polyline fill="none" stroke="#bfbfbf" points="932.5,-899.5 961.5,-899.5 "/>
<text text-anchor="middle" x="947" y="-887.5" font-family="Helvetica,sans-Serif" font-size="10.00"> </text>
<polyline fill="none" stroke="#bfbfbf" points="932.5,-880.5 961.5,-880.5 "/>
<text text-anchor="middle" x="947" y="-868.5" font-family="Helvetica,sans-Serif" font-size="10.00"> </text>
</a>
</g>
</g>
<!-- Node21&#45;&gt;Node20 -->
<g id="edge30" class="edge">
<title>Node21&#45;&gt;Node20</title>
<path fill="none" stroke="#404040" d="M944.84,-861.38C944.8,-851.93 945.53,-841.38 948,-832 951.17,-820 956.51,-807.83 962.38,-796.76"/>
<polygon fill="none" stroke="#404040" points="962.49,-796.57 961.94,-789.38 968.36,-786.1 968.91,-793.29 962.49,-796.57"/>
<text text-anchor="middle" x="962.5" y="-835" font-family="Helvetica,sans-Serif" font-size="10.00"> +keys</text>
</g>
<!-- Node22&#45;&gt;Node1 -->
<g id="edge32" class="edge">
<title>Node22&#45;&gt;Node1</title>
<path fill="none" stroke="#404040" d="M1121.34,-541.27C1116.39,-530.8 1110.02,-520.28 1102,-512 1077.13,-486.3 1042.78,-467.12 1011.62,-453.59"/>
<polygon fill="none" stroke="#404040" points="1011.38,-453.49 1004.3,-454.86 1000.31,-448.86 1007.38,-447.48 1011.38,-453.49"/>
<text text-anchor="middle" x="1125.5" y="-515" font-family="Helvetica,sans-Serif" font-size="10.00"> &#45;fluxes</text>
</g>
<!-- Node23&#45;&gt;Node1 -->
<g id="edge34" class="edge">
<title>Node23&#45;&gt;Node1</title>
<path fill="none" stroke="#404040" d="M992.92,-546.85C986.63,-534.11 979.4,-519.45 972.2,-504.87"/>
<polygon fill="none" stroke="#404040" points="972.03,-504.53 965.79,-500.92 966.72,-493.77 972.96,-497.38 972.03,-504.53"/>
<text text-anchor="middle" x="1038.5" y="-515" font-family="Helvetica,sans-Serif" font-size="10.00"> &#45;cascade_backing_storage</text>
</g>
<!-- Node24&#45;&gt;Node23 -->
<g id="edge35" class="edge">
<title>Node24&#45;&gt;Node23</title>
<path fill="none" stroke="#404040" d="M836.29,-723.28C828.14,-700.91 821.96,-669.97 839,-650 872.01,-611.31 905.12,-651.71 952,-632 952.25,-631.9 952.49,-631.79 952.74,-631.69"/>
<polygon fill="none" stroke="#404040" points="952.98,-631.56 956.56,-625.3 963.71,-626.2 960.14,-632.46 952.98,-631.56"/>
<text text-anchor="middle" x="863.5" y="-658.5" font-family="Helvetica,sans-Serif" font-size="10.00"> +elements</text>
</g>
</g>
</svg>
