<?xml version="1.0" encoding="UTF-8" standalone="no"?>
<!DOCTYPE svg PUBLIC "-//W3C//DTD SVG 1.1//EN"
 "http://www.w3.org/Graphics/SVG/1.1/DTD/svg11.dtd">
<!-- Generated by graphviz version 2.44.0 ()
 -->
<!-- Title: Reservoir Pages: 1 -->
<svg width="474pt" height="907pt"
 viewBox="0.00 0.00 474.00 907.00" xmlns="http://www.w3.org/2000/svg" xmlns:xlink="http://www.w3.org/1999/xlink">
<g id="graph0" class="graph" transform="scale(1 1) rotate(0) translate(4 903)">
<title>Reservoir</title>
<polygon fill="white" stroke="transparent" points="-4,4 -4,-903 470,-903 470,4 -4,4"/>
<!-- Node1 -->
<g id="node1" class="node">
<title>Node1</title>
<g id="a_node1"><a xlink:title="Reservoir that has zero, one, or multiple outlets.">
<polygon fill="#bfbfbf" stroke="black" points="182,-0.5 182,-222.5 302,-222.5 302,-0.5 182,-0.5"/>
<text text-anchor="middle" x="242" y="-210.5" font-family="Helvetica,sans-Serif" font-size="10.00">Reservoir</text>
<polyline fill="none" stroke="black" points="182,-203.5 302,-203.5 "/>
<text text-anchor="middle" x="242" y="-191.5" font-family="Helvetica,sans-Serif" font-size="10.00"> </text>
<polyline fill="none" stroke="black" points="182,-184.5 302,-184.5 "/>
<text text-anchor="start" x="190" y="-172.5" font-family="Helvetica,sans-Serif" font-size="10.00">+ Reservoir()</text>
<text text-anchor="start" x="190" y="-161.5" font-family="Helvetica,sans-Serif" font-size="10.00">+ Reservoir()</text>
<text text-anchor="start" x="190" y="-150.5" font-family="Helvetica,sans-Serif" font-size="10.00">+ Reservoir()</text>
<text text-anchor="start" x="190" y="-139.5" font-family="Helvetica,sans-Serif" font-size="10.00">+ Reservoir()</text>
<text text-anchor="start" x="190" y="-128.5" font-family="Helvetica,sans-Serif" font-size="10.00">+ response_meters_per</text>
<text text-anchor="start" x="190" y="-117.5" font-family="Helvetica,sans-Serif" font-size="10.00">_second()</text>
<text text-anchor="start" x="190" y="-106.5" font-family="Helvetica,sans-Serif" font-size="10.00">+ add_outlet()</text>
<text text-anchor="start" x="190" y="-95.5" font-family="Helvetica,sans-Serif" font-size="10.00">+ add_outlet()</text>
<text text-anchor="start" x="190" y="-84.5" font-family="Helvetica,sans-Serif" font-size="10.00">+ add_outlet()</text>
<text text-anchor="start" x="190" y="-73.5" font-family="Helvetica,sans-Serif" font-size="10.00">+ sort_outlets()</text>
<text text-anchor="start" x="190" y="-62.5" font-family="Helvetica,sans-Serif" font-size="10.00">+ check_highest_outlet</text>
<text text-anchor="start" x="190" y="-51.5" font-family="Helvetica,sans-Serif" font-size="10.00">_against_max_storage()</text>
<text text-anchor="start" x="190" y="-40.5" font-family="Helvetica,sans-Serif" font-size="10.00">+ get_storage_height</text>
<text text-anchor="start" x="190" y="-29.5" font-family="Helvetica,sans-Serif" font-size="10.00">_meters()</text>
<text text-anchor="start" x="190" y="-18.5" font-family="Helvetica,sans-Serif" font-size="10.00">+ velocity_meters_per</text>
<text text-anchor="start" x="190" y="-7.5" font-family="Helvetica,sans-Serif" font-size="10.00">_second_for_outlet()</text>
</a>
</g>
</g>
<!-- Node2 -->
<g id="node2" class="node">
<title>Node2</title>
<g id="a_node2"><a xlink:href="structreservoir__state.html" target="_top" xlink:title=" ">
<polygon fill="white" stroke="black" points="34,-270.5 34,-338.5 158,-338.5 158,-270.5 34,-270.5"/>
<text text-anchor="middle" x="96" y="-326.5" font-family="Helvetica,sans-Serif" font-size="10.00">reservoir_state</text>
<polyline fill="none" stroke="black" points="34,-319.5 158,-319.5 "/>
<text text-anchor="start" x="42" y="-307.5" font-family="Helvetica,sans-Serif" font-size="10.00">+ current_storage_height</text>
<text text-anchor="start" x="42" y="-296.5" font-family="Helvetica,sans-Serif" font-size="10.00">_meters</text>
<polyline fill="none" stroke="black" points="34,-289.5 158,-289.5 "/>
<text text-anchor="middle" x="96" y="-277.5" font-family="Helvetica,sans-Serif" font-size="10.00"> </text>
</a>
</g>
</g>
<!-- Node2&#45;&gt;Node1 -->
<g id="edge1" class="edge">
<title>Node2&#45;&gt;Node1</title>
<path fill="none" stroke="#404040" d="M121.43,-270.23C136.14,-250.98 155.42,-225.76 174.24,-201.15"/>
<polygon fill="none" stroke="#404040" points="174.41,-200.93 174.87,-193.73 181.69,-191.39 181.23,-198.59 174.41,-200.93"/>
<text text-anchor="middle" x="158" y="-244" font-family="Helvetica,sans-Serif" font-size="10.00"> &#45;state</text>
</g>
<!-- Node3 -->
<g id="node3" class="node">
<title>Node3</title>
<g id="a_node3"><a xlink:title=" ">
<polygon fill="white" stroke="#bfbfbf" points="176.5,-270.5 176.5,-338.5 307.5,-338.5 307.5,-270.5 176.5,-270.5"/>
<text text-anchor="start" x="184.5" y="-326.5" font-family="Helvetica,sans-Serif" font-size="10.00">std::vector&lt; std::shared</text>
<text text-anchor="middle" x="242" y="-315.5" font-family="Helvetica,sans-Serif" font-size="10.00">_ptr&lt; Reservoir_Outlet &gt; &gt;</text>
<polyline fill="none" stroke="#bfbfbf" points="176.5,-308.5 307.5,-308.5 "/>
<text text-anchor="middle" x="242" y="-296.5" font-family="Helvetica,sans-Serif" font-size="10.00"> </text>
<polyline fill="none" stroke="#bfbfbf" points="176.5,-289.5 307.5,-289.5 "/>
<text text-anchor="middle" x="242" y="-277.5" font-family="Helvetica,sans-Serif" font-size="10.00"> </text>
</a>
</g>
</g>
<!-- Node3&#45;&gt;Node1 -->
<g id="edge2" class="edge">
<title>Node3&#45;&gt;Node1</title>
<path fill="none" stroke="#404040" d="M242,-270.23C242,-259.94 242,-247.95 242,-235.26"/>
<polygon fill="none" stroke="#404040" points="242,-234.91 238,-228.91 242,-222.91 246,-228.91 242,-234.91"/>
<text text-anchor="middle" x="259.5" y="-244" font-family="Helvetica,sans-Serif" font-size="10.00"> &#45;outlets</text>
</g>
<!-- Node4 -->
<g id="node4" class="node">
<title>Node4</title>
<g id="a_node4"><a xlink:title=" ">
<polygon fill="white" stroke="#bfbfbf" points="98,-386.5 98,-454.5 228,-454.5 228,-386.5 98,-386.5"/>
<text text-anchor="start" x="106" y="-442.5" font-family="Helvetica,sans-Serif" font-size="10.00">std::shared_ptr&lt; Reservoir</text>
<text text-anchor="middle" x="163" y="-431.5" font-family="Helvetica,sans-Serif" font-size="10.00">_Outlet &gt;</text>
<polyline fill="none" stroke="#bfbfbf" points="98,-424.5 228,-424.5 "/>
<text text-anchor="middle" x="163" y="-412.5" font-family="Helvetica,sans-Serif" font-size="10.00"> </text>
<polyline fill="none" stroke="#bfbfbf" points="98,-405.5 228,-405.5 "/>
<text text-anchor="start" x="106" y="-393.5" font-family="Helvetica,sans-Serif" font-size="10.00">+ operator&#45;&gt;()</text>
</a>
</g>
</g>
<!-- Node4&#45;&gt;Node3 -->
<g id="edge3" class="edge">
<title>Node4&#45;&gt;Node3</title>
<path fill="none" stroke="#404040" d="M186.06,-386.22C194.17,-374.51 203.41,-361.18 212.01,-348.77"/>
<polygon fill="none" stroke="#404040" points="212.21,-348.49 212.34,-341.28 219.05,-338.62 218.92,-345.83 212.21,-348.49"/>
<text text-anchor="middle" x="229.5" y="-360" font-family="Helvetica,sans-Serif" font-size="10.00"> +elements</text>
</g>
<!-- Node5 -->
<g id="node5" class="node">
<title>Node5</title>
<g id="a_node5"><a xlink:href="class_reservoir___outlet.html" target="_top" xlink:title="Base Single Reservior Outlet Class.">
<polygon fill="white" stroke="black" points="0,-549.5 0,-793.5 152,-793.5 152,-549.5 0,-549.5"/>
<text text-anchor="middle" x="76" y="-781.5" font-family="Helvetica,sans-Serif" font-size="10.00">Reservoir_Outlet</text>
<polyline fill="none" stroke="black" points="0,-774.5 152,-774.5 "/>
<text text-anchor="start" x="8" y="-762.5" font-family="Helvetica,sans-Serif" font-size="10.00"># a</text>
<text text-anchor="start" x="8" y="-751.5" font-family="Helvetica,sans-Serif" font-size="10.00"># b</text>
<text text-anchor="start" x="8" y="-740.5" font-family="Helvetica,sans-Serif" font-size="10.00"># activation_threshold</text>
<text text-anchor="start" x="8" y="-729.5" font-family="Helvetica,sans-Serif" font-size="10.00">_meters</text>
<text text-anchor="start" x="8" y="-718.5" font-family="Helvetica,sans-Serif" font-size="10.00"># max_velocity_meters</text>
<text text-anchor="start" x="8" y="-707.5" font-family="Helvetica,sans-Serif" font-size="10.00">_per_second</text>
<text text-anchor="start" x="8" y="-696.5" font-family="Helvetica,sans-Serif" font-size="10.00"># velocity_meters_per</text>
<text text-anchor="start" x="8" y="-685.5" font-family="Helvetica,sans-Serif" font-size="10.00">_second_local</text>
<polyline fill="none" stroke="black" points="0,-678.5 152,-678.5 "/>
<text text-anchor="start" x="8" y="-666.5" font-family="Helvetica,sans-Serif" font-size="10.00">+ Reservoir_Outlet()</text>
<text text-anchor="start" x="8" y="-655.5" font-family="Helvetica,sans-Serif" font-size="10.00">+ Reservoir_Outlet()</text>
<text text-anchor="start" x="8" y="-644.5" font-family="Helvetica,sans-Serif" font-size="10.00">+ adjust_velocity()</text>
<text text-anchor="start" x="8" y="-633.5" font-family="Helvetica,sans-Serif" font-size="10.00">+ get_activation_threshold</text>
<text text-anchor="start" x="8" y="-622.5" font-family="Helvetica,sans-Serif" font-size="10.00">_meters()</text>
<text text-anchor="start" x="8" y="-611.5" font-family="Helvetica,sans-Serif" font-size="10.00">+ get_previously_calculated</text>
<text text-anchor="start" x="8" y="-600.5" font-family="Helvetica,sans-Serif" font-size="10.00">_velocity_meters_per_second()</text>
<text text-anchor="start" x="8" y="-589.5" font-family="Helvetica,sans-Serif" font-size="10.00">+ velocity_meters_per</text>
<text text-anchor="start" x="8" y="-578.5" font-family="Helvetica,sans-Serif" font-size="10.00">_second()</text>
<text text-anchor="start" x="8" y="-567.5" font-family="Helvetica,sans-Serif" font-size="10.00"># calc_velocity_meters</text>
<text text-anchor="start" x="8" y="-556.5" font-family="Helvetica,sans-Serif" font-size="10.00">_per_second_local()</text>
</a>
</g>
</g>
<!-- Node5&#45;&gt;Node4 -->
<g id="edge4" class="edge">
<title>Node5&#45;&gt;Node4</title>
<path fill="none" stroke="#404040" d="M104.84,-549.4C112.47,-523.73 121.55,-497.12 132,-473 133.12,-470.41 134.35,-467.8 135.65,-465.2"/>
<polygon fill="none" stroke="#404040" points="135.66,-465.19 134.97,-458.01 141.33,-454.61 142.02,-461.79 135.66,-465.19"/>
<text text-anchor="middle" x="142" y="-499.5" font-family="Helvetica,sans-Serif" font-size="10.00"> +ptr</text>
</g>
<!-- Node6 -->
<g id="node6" class="node">
<title>Node6</title>
<g id="a_node6"><a xlink:title="STL class.">
<polygon fill="white" stroke="#bfbfbf" points="170.5,-643 170.5,-700 273.5,-700 273.5,-643 170.5,-643"/>
<text text-anchor="middle" x="222" y="-688" font-family="Helvetica,sans-Serif" font-size="10.00">std::shared_ptr&lt; T &gt;</text>
<polyline fill="none" stroke="#bfbfbf" points="170.5,-681 273.5,-681 "/>
<text text-anchor="middle" x="222" y="-669" font-family="Helvetica,sans-Serif" font-size="10.00"> </text>
<polyline fill="none" stroke="#bfbfbf" points="170.5,-662 273.5,-662 "/>
<text text-anchor="start" x="178.5" y="-650" font-family="Helvetica,sans-Serif" font-size="10.00">+ operator&#45;&gt;()</text>
</a>
</g>
</g>
<!-- Node6&#45;&gt;Node4 -->
<g id="edge5" class="edge">
<title>Node6&#45;&gt;Node4</title>
<path fill="none" stroke="orange" d="M200.36,-634.07C185.45,-606.75 166.94,-567.88 159,-531 153.59,-505.89 155,-476.82 157.54,-454.94"/>
<polygon fill="orange" stroke="orange" points="197.34,-635.83 205.26,-642.87 203.45,-632.43 197.34,-635.83"/>
<text text-anchor="middle" x="205" y="-499.5" font-family="Helvetica,sans-Serif" font-size="10.00"> &lt; Reservoir_Outlet &gt;</text>
</g>
<!-- Node7 -->
<g id="node7" class="node">
<title>Node7</title>
<g id="a_node7"><a xlink:title=" ">
<polygon fill="white" stroke="#bfbfbf" points="247.5,-841.5 247.5,-898.5 276.5,-898.5 276.5,-841.5 247.5,-841.5"/>
<text text-anchor="middle" x="262" y="-886.5" font-family="Helvetica,sans-Serif" font-size="10.00">T</text>
<polyline fill="none" stroke="#bfbfbf" points="247.5,-879.5 276.5,-879.5 "/>
<text text-anchor="middle" x="262" y="-867.5" font-family="Helvetica,sans-Serif" font-size="10.00"> </text>
<polyline fill="none" stroke="#bfbfbf" points="247.5,-860.5 276.5,-860.5 "/>
<text text-anchor="middle" x="262" y="-848.5" font-family="Helvetica,sans-Serif" font-size="10.00"> </text>
</a>
</g>
</g>
<!-- Node7&#45;&gt;Node6 -->
<g id="edge6" class="edge">
<title>Node7&#45;&gt;Node6</title>
<path fill="none" stroke="#404040" d="M256.35,-841.26C249.5,-807.62 237.91,-750.65 230.11,-712.32"/>
<polygon fill="none" stroke="#404040" points="230.01,-711.85 224.89,-706.77 227.62,-700.1 232.73,-705.18 230.01,-711.85"/>
<text text-anchor="middle" x="263" y="-815" font-family="Helvetica,sans-Serif" font-size="10.00"> +ptr</text>
</g>
<!-- Node8 -->
<g id="node8" class="node">
<title>Node8</title>
<g id="a_node8"><a xlink:title="STL class.">
<polygon fill="white" stroke="#bfbfbf" points="260,-473.5 260,-530.5 344,-530.5 344,-473.5 260,-473.5"/>
<text text-anchor="middle" x="302" y="-518.5" font-family="Helvetica,sans-Serif" font-size="10.00">std::vector&lt; T &gt;</text>
<polyline fill="none" stroke="#bfbfbf" points="260,-511.5 344,-511.5 "/>
<text text-anchor="middle" x="302" y="-499.5" font-family="Helvetica,sans-Serif" font-size="10.00"> </text>
<polyline fill="none" stroke="#bfbfbf" points="260,-492.5 344,-492.5 "/>
<text text-anchor="middle" x="302" y="-480.5" font-family="Helvetica,sans-Serif" font-size="10.00"> </text>
</a>
</g>
</g>
<!-- Node7&#45;&gt;Node8 -->
<g id="edge8" class="edge">
<title>Node7&#45;&gt;Node8</title>
<path fill="none" stroke="#404040" d="M271.7,-841.46C273.62,-835.42 275.5,-829.03 277,-823 280.15,-810.31 280.44,-806.99 282,-794 292.74,-704.68 298.21,-599.18 300.55,-542.98"/>
<polygon fill="none" stroke="#404040" points="300.55,-542.76 296.8,-536.61 301.04,-530.77 304.79,-536.93 300.55,-542.76"/>
<text text-anchor="middle" x="304.5" y="-815" font-family="Helvetica,sans-Serif" font-size="10.00"> +elements</text>
</g>
<!-- Node8&#45;&gt;Node3 -->
<g id="edge7" class="edge">
<title>Node8&#45;&gt;Node3</title>
<path fill="none" stroke="orange" d="M290.64,-463.64C281.78,-434.56 269.15,-393.2 258,-357 256.18,-351.09 254.24,-344.81 252.35,-338.74"/>
<polygon fill="orange" stroke="orange" points="287.34,-464.84 293.6,-473.38 294.04,-462.8 287.34,-464.84"/>
<text text-anchor="start" x="287" y="-423.5" font-family="Helvetica,sans-Serif" font-size="10.00"> &lt; std::shared_ptr&lt;</text>
<text text-anchor="middle" x="333" y="-412.5" font-family="Helvetica,sans-Serif" font-size="10.00"> Reservoir_Outlet &gt; &gt;</text>
</g>
<!-- Node9 -->
<g id="node9" class="node">
<title>Node9</title>
<g id="a_node9"><a xlink:href="structreservoir__parameters.html" target="_top" xlink:title=" ">
<polygon fill="white" stroke="black" points="326,-270.5 326,-338.5 466,-338.5 466,-270.5 326,-270.5"/>
<text text-anchor="middle" x="396" y="-326.5" font-family="Helvetica,sans-Serif" font-size="10.00">reservoir_parameters</text>
<polyline fill="none" stroke="black" points="326,-319.5 466,-319.5 "/>
<text text-anchor="start" x="334" y="-307.5" font-family="Helvetica,sans-Serif" font-size="10.00">+ minimum_storage_meters</text>
<text text-anchor="start" x="334" y="-296.5" font-family="Helvetica,sans-Serif" font-size="10.00">+ maximum_storage_meters</text>
<polyline fill="none" stroke="black" points="326,-289.5 466,-289.5 "/>
<text text-anchor="middle" x="396" y="-277.5" font-family="Helvetica,sans-Serif" font-size="10.00"> </text>
</a>
</g>
</g>
<!-- Node9&#45;&gt;Node1 -->
<g id="edge9" class="edge">
<title>Node9&#45;&gt;Node1</title>
<path fill="none" stroke="#404040" d="M369.18,-270.23C352.67,-249.76 330.73,-222.54 309.72,-196.49"/>
<polygon fill="none" stroke="#404040" points="309.56,-196.29 302.68,-194.13 302.03,-186.95 308.91,-189.11 309.56,-196.29"/>
<text text-anchor="middle" x="377.5" y="-244" font-family="Helvetica,sans-Serif" font-size="10.00"> &#45;parameters</text>
</g>
</g>
</svg>
