<?xml version="1.0" encoding="UTF-8" standalone="no"?>
<!DOCTYPE svg PUBLIC "-//W3C//DTD SVG 1.1//EN"
 "http://www.w3.org/Graphics/SVG/1.1/DTD/svg11.dtd">
<!-- Generated by graphviz version 2.44.0 ()
 -->
<!-- Title: HY_HydroLocation Pages: 1 -->
<!--zoomable 822 -->
<svg id="main" version="1.1" xmlns="http://www.w3.org/2000/svg" xmlns:xlink="http://www.w3.org/1999/xlink" xml:space="preserve" onload="init(evt)">
<style type="text/css"><![CDATA[
.edge:hover path { stroke: red; }
.edge:hover polygon { stroke: red; fill: red; }
]]></style>
<script type="text/javascript"><![CDATA[
var edges = document.getElementsByTagName('g');
if (edges && edges.length) {
  for (var i=0;i<edges.length;i++) {
    if (edges[i].id.substr(0,4)=='edge') {
      edges[i].setAttribute('class','edge');
    }
  }
}
]]></script>
        <defs>
                <circle id="rim" cx="0" cy="0" r="7"/>
                <circle id="rim2" cx="0" cy="0" r="3.5"/>
                <g id="zoomPlus">
                        <use xlink:href="#rim" fill="#404040">
                                <set attributeName="fill" to="#808080" begin="zoomplus.mouseover" end="zoomplus.mouseout"/>
                        </use>
                        <path d="M-4,0h8M0,-4v8" fill="none" stroke="white" stroke-width="1.5" pointer-events="none"/>
                </g>
                <g id="zoomMin">
                        <use xlink:href="#rim" fill="#404040">
                                <set attributeName="fill" to="#808080" begin="zoomminus.mouseover" end="zoomminus.mouseout"/>
                        </use>
                        <path d="M-4,0h8" fill="none" stroke="white" stroke-width="1.5" pointer-events="none"/>
                </g>
                <g id="dirArrow">
                        <path fill="none" stroke="white" stroke-width="1.5" d="M0,-3.0v7 M-2.5,-0.5L0,-3.0L2.5,-0.5"/>
                </g>
               <g id="resetDef">
                       <use xlink:href="#rim2" fill="#404040">
                               <set attributeName="fill" to="#808080" begin="reset.mouseover" end="reset.mouseout"/>
                       </use>
               </g>
        </defs>

<script type="text/javascript">
var viewWidth = 335;
var viewHeight = 822;
var sectionId = 'dynsection-1';
</script>
<script xlink:href="svgpan.js"/>
<svg id="graph" class="graph">
<g id="viewport">
<title>HY_HydroLocation</title>
<polygon fill="white" stroke="transparent" points="-4,4 -4,-818 330.5,-818 330.5,4 -4,4"/>
<!-- Node1 -->
<g id="node1" class="node">
<title>Node1</title>
<g id="a_node1"><a xlink:title="HY_HydroLocation: class representing a hydrologic position.">
<polygon fill="#bfbfbf" stroke="black" points="62,-0.5 62,-167.5 175,-167.5 175,-0.5 62,-0.5"/>
<text text-anchor="middle" x="118.5" y="-155.5" font-family="Helvetica,sans-Serif" font-size="10.00">HY_HydroLocation</text>
<polyline fill="none" stroke="black" points="62,-148.5 175,-148.5 "/>
<text text-anchor="start" x="70" y="-136.5" font-family="Helvetica,sans-Serif" font-size="10.00">&#45; _shape</text>
<text text-anchor="start" x="70" y="-125.5" font-family="Helvetica,sans-Serif" font-size="10.00">&#45; _type</text>
<text text-anchor="start" x="70" y="-114.5" font-family="Helvetica,sans-Serif" font-size="10.00">&#45; _referenced_position</text>
<polyline fill="none" stroke="black" points="62,-107.5 175,-107.5 "/>
<text text-anchor="start" x="70" y="-95.5" font-family="Helvetica,sans-Serif" font-size="10.00">+ HY_HydroLocation()</text>
<text text-anchor="start" x="70" y="-84.5" font-family="Helvetica,sans-Serif" font-size="10.00">+ geometry()</text>
<text text-anchor="start" x="70" y="-73.5" font-family="Helvetica,sans-Serif" font-size="10.00">+ geometry()</text>
<text text-anchor="start" x="70" y="-62.5" font-family="Helvetica,sans-Serif" font-size="10.00">+ itype()</text>
<text text-anchor="start" x="70" y="-51.5" font-family="Helvetica,sans-Serif" font-size="10.00">+ itype()</text>
<text text-anchor="start" x="70" y="-40.5" font-family="Helvetica,sans-Serif" font-size="10.00">+ point()</text>
<text text-anchor="start" x="70" y="-29.5" font-family="Helvetica,sans-Serif" font-size="10.00">+ point()</text>
<text text-anchor="start" x="70" y="-18.5" font-family="Helvetica,sans-Serif" font-size="10.00">+ realized_nexus()</text>
<text text-anchor="start" x="70" y="-7.5" font-family="Helvetica,sans-Serif" font-size="10.00">+ realized_nexus()</text>
</a>
</g>
</g>
<!-- Node2 -->
<g id="node2" class="node">
<title>Node2</title>
<g id="a_node2"><a xlink:href="class_g_m___object.html" target="_top" xlink:title=" ">
<polygon fill="white" stroke="black" points="59.5,-215.5 59.5,-283.5 145.5,-283.5 145.5,-215.5 59.5,-215.5"/>
<text text-anchor="middle" x="102.5" y="-271.5" font-family="Helvetica,sans-Serif" font-size="10.00">GM_Object</text>
<polyline fill="none" stroke="black" points="59.5,-264.5 145.5,-264.5 "/>
<text text-anchor="middle" x="102.5" y="-252.5" font-family="Helvetica,sans-Serif" font-size="10.00"> </text>
<polyline fill="none" stroke="black" points="59.5,-245.5 145.5,-245.5 "/>
<text text-anchor="start" x="67.5" y="-233.5" font-family="Helvetica,sans-Serif" font-size="10.00">+ GM_Object()</text>
<text text-anchor="start" x="67.5" y="-222.5" font-family="Helvetica,sans-Serif" font-size="10.00">+ ~GM_Object()</text>
</a>
</g>
</g>
<!-- Node2&#45;&gt;Node1 -->
<g id="edge1" class="edge">
<title>Node2&#45;&gt;Node1</title>
<path fill="none" stroke="midnightblue" d="M106.74,-205.19C107.87,-193.61 109.14,-180.69 110.4,-167.74"/>
<polygon fill="none" stroke="midnightblue" points="103.23,-205.12 105.74,-215.41 110.2,-205.8 103.23,-205.12"/>
</g>
<!-- Node3 -->
<g id="node3" class="node">
<title>Node3</title>
<g id="a_node3"><a xlink:title=" ">
<polygon fill="white" stroke="#bfbfbf" points="164,-215.5 164,-283.5 267,-283.5 267,-215.5 164,-215.5"/>
<text text-anchor="start" x="172" y="-271.5" font-family="Helvetica,sans-Serif" font-size="10.00">std::shared_ptr&lt; HY</text>
<text text-anchor="middle" x="215.5" y="-260.5" font-family="Helvetica,sans-Serif" font-size="10.00">_HydroNexus &gt;</text>
<polyline fill="none" stroke="#bfbfbf" points="164,-253.5 267,-253.5 "/>
<text text-anchor="middle" x="215.5" y="-241.5" font-family="Helvetica,sans-Serif" font-size="10.00"> </text>
<polyline fill="none" stroke="#bfbfbf" points="164,-234.5 267,-234.5 "/>
<text text-anchor="start" x="172" y="-222.5" font-family="Helvetica,sans-Serif" font-size="10.00">+ operator&#45;&gt;()</text>
</a>
</g>
</g>
<!-- Node3&#45;&gt;Node1 -->
<g id="edge2" class="edge">
<title>Node3&#45;&gt;Node1</title>
<path fill="none" stroke="#404040" d="M195.87,-215.41C189.36,-204.44 181.76,-191.63 173.92,-178.41"/>
<polygon fill="none" stroke="#404040" points="173.71,-178.06 167.21,-174.94 167.59,-167.74 174.09,-170.86 173.71,-178.06"/>
<text text-anchor="middle" x="221" y="-189" font-family="Helvetica,sans-Serif" font-size="10.00"> &#45;_realized_nexus</text>
</g>
<!-- Node4 -->
<g id="node4" class="node">
<title>Node4</title>
<g id="a_node4"><a xlink:href="class_h_y___hydro_nexus.html" target="_top" xlink:title=" ">
<polygon fill="white" stroke="black" points="84.5,-331.5 84.5,-487.5 220.5,-487.5 220.5,-331.5 84.5,-331.5"/>
<text text-anchor="middle" x="152.5" y="-475.5" font-family="Helvetica,sans-Serif" font-size="10.00">HY_HydroNexus</text>
<polyline fill="none" stroke="black" points="84.5,-468.5 220.5,-468.5 "/>
<text text-anchor="start" x="92.5" y="-456.5" font-family="Helvetica,sans-Serif" font-size="10.00">&#45; id_number</text>
<text text-anchor="start" x="92.5" y="-445.5" font-family="Helvetica,sans-Serif" font-size="10.00">&#45; number_of_downstream</text>
<text text-anchor="start" x="92.5" y="-434.5" font-family="Helvetica,sans-Serif" font-size="10.00">_catchments</text>
<polyline fill="none" stroke="black" points="84.5,-427.5 220.5,-427.5 "/>
<text text-anchor="start" x="92.5" y="-415.5" font-family="Helvetica,sans-Serif" font-size="10.00">+ HY_HydroNexus()</text>
<text text-anchor="start" x="92.5" y="-404.5" font-family="Helvetica,sans-Serif" font-size="10.00">+ ~HY_HydroNexus()</text>
<text text-anchor="start" x="92.5" y="-393.5" font-family="Helvetica,sans-Serif" font-size="10.00">+ add_upstream_flow()</text>
<text text-anchor="start" x="92.5" y="-382.5" font-family="Helvetica,sans-Serif" font-size="10.00">+ get_downstream_flow()</text>
<text text-anchor="start" x="92.5" y="-371.5" font-family="Helvetica,sans-Serif" font-size="10.00">+ inspect_upstream_flows()</text>
<text text-anchor="start" x="92.5" y="-360.5" font-family="Helvetica,sans-Serif" font-size="10.00">+ inspect_downstream</text>
<text text-anchor="start" x="92.5" y="-349.5" font-family="Helvetica,sans-Serif" font-size="10.00">_requests()</text>
<text text-anchor="start" x="92.5" y="-338.5" font-family="Helvetica,sans-Serif" font-size="10.00">+ get_flow_units()</text>
</a>
</g>
</g>
<!-- Node4&#45;&gt;Node3 -->
<g id="edge3" class="edge">
<title>Node4&#45;&gt;Node3</title>
<path fill="none" stroke="#404040" d="M183.26,-331.35C188.22,-318.91 193.21,-306.41 197.73,-295.08"/>
<polygon fill="none" stroke="#404040" points="197.8,-294.89 196.3,-287.84 202.24,-283.75 203.74,-290.8 197.8,-294.89"/>
<text text-anchor="middle" x="202.5" y="-305" font-family="Helvetica,sans-Serif" font-size="10.00"> +ptr</text>
</g>
<!-- Node5 -->
<g id="node5" class="node">
<title>Node5</title>
<g id="a_node5"><a xlink:title="STL class.">
<polygon fill="white" stroke="#bfbfbf" points="17,-535.5 17,-592.5 76,-592.5 76,-535.5 17,-535.5"/>
<text text-anchor="middle" x="46.5" y="-580.5" font-family="Helvetica,sans-Serif" font-size="10.00">std::string</text>
<polyline fill="none" stroke="#bfbfbf" points="17,-573.5 76,-573.5 "/>
<text text-anchor="middle" x="46.5" y="-561.5" font-family="Helvetica,sans-Serif" font-size="10.00"> </text>
<polyline fill="none" stroke="#bfbfbf" points="17,-554.5 76,-554.5 "/>
<text text-anchor="middle" x="46.5" y="-542.5" font-family="Helvetica,sans-Serif" font-size="10.00"> </text>
</a>
</g>
</g>
<!-- Node5&#45;&gt;Node4 -->
<g id="edge4" class="edge">
<title>Node5&#45;&gt;Node4</title>
<path fill="none" stroke="#404040" d="M65.7,-535.38C73.28,-524.47 82.45,-511.28 91.95,-497.61"/>
<polygon fill="none" stroke="#404040" points="92.06,-497.45 92.2,-490.24 98.91,-487.6 98.77,-494.81 92.06,-497.45"/>
<text text-anchor="middle" x="91" y="-509" font-family="Helvetica,sans-Serif" font-size="10.00"> &#45;id</text>
</g>
<!-- Node6 -->
<g id="node6" class="node">
<title>Node6</title>
<g id="a_node6"><a xlink:title="STL class.">
<polygon fill="white" stroke="#bfbfbf" points="0,-640.5 0,-708.5 93,-708.5 93,-640.5 0,-640.5"/>
<text text-anchor="start" x="8" y="-696.5" font-family="Helvetica,sans-Serif" font-size="10.00">std::basic_string&lt;</text>
<text text-anchor="middle" x="46.5" y="-685.5" font-family="Helvetica,sans-Serif" font-size="10.00"> char &gt;</text>
<polyline fill="none" stroke="#bfbfbf" points="0,-678.5 93,-678.5 "/>
<text text-anchor="middle" x="46.5" y="-666.5" font-family="Helvetica,sans-Serif" font-size="10.00"> </text>
<polyline fill="none" stroke="#bfbfbf" points="0,-659.5 93,-659.5 "/>
<text text-anchor="middle" x="46.5" y="-647.5" font-family="Helvetica,sans-Serif" font-size="10.00"> </text>
</a>
</g>
</g>
<!-- Node6&#45;&gt;Node5 -->
<g id="edge5" class="edge">
<title>Node6&#45;&gt;Node5</title>
<path fill="none" stroke="midnightblue" d="M46.5,-630.06C46.5,-617.51 46.5,-604.15 46.5,-592.83"/>
<polygon fill="none" stroke="midnightblue" points="43,-630.36 46.5,-640.36 50,-630.36 43,-630.36"/>
</g>
<!-- Node7 -->
<g id="node7" class="node">
<title>Node7</title>
<g id="a_node7"><a xlink:title=" ">
<polygon fill="white" stroke="#bfbfbf" points="94.5,-535.5 94.5,-592.5 220.5,-592.5 220.5,-535.5 94.5,-535.5"/>
<text text-anchor="middle" x="157.5" y="-580.5" font-family="Helvetica,sans-Serif" font-size="10.00">std::shared_ptr&lt; point_t &gt;</text>
<polyline fill="none" stroke="#bfbfbf" points="94.5,-573.5 220.5,-573.5 "/>
<text text-anchor="start" x="102.5" y="-561.5" font-family="Helvetica,sans-Serif" font-size="10.00">+ ptr</text>
<polyline fill="none" stroke="#bfbfbf" points="94.5,-554.5 220.5,-554.5 "/>
<text text-anchor="start" x="102.5" y="-542.5" font-family="Helvetica,sans-Serif" font-size="10.00">+ operator&#45;&gt;()</text>
</a>
</g>
</g>
<!-- Node7&#45;&gt;Node4 -->
<g id="edge6" class="edge">
<title>Node7&#45;&gt;Node4</title>
<path fill="none" stroke="#404040" d="M156.59,-535.38C156.25,-525 155.85,-512.55 155.42,-499.59"/>
<polygon fill="none" stroke="#404040" points="155.42,-499.59 151.23,-493.72 155.03,-487.6 159.22,-493.46 155.42,-499.59"/>
<text text-anchor="middle" x="175.5" y="-509" font-family="Helvetica,sans-Serif" font-size="10.00"> &#45;location</text>
</g>
<!-- Node8 -->
<g id="node8" class="node">
<title>Node8</title>
<g id="a_node8"><a xlink:title="STL class.">
<polygon fill="white" stroke="#bfbfbf" points="158,-646 158,-703 261,-703 261,-646 158,-646"/>
<text text-anchor="middle" x="209.5" y="-691" font-family="Helvetica,sans-Serif" font-size="10.00">std::shared_ptr&lt; T &gt;</text>
<polyline fill="none" stroke="#bfbfbf" points="158,-684 261,-684 "/>
<text text-anchor="middle" x="209.5" y="-672" font-family="Helvetica,sans-Serif" font-size="10.00"> </text>
<polyline fill="none" stroke="#bfbfbf" points="158,-665 261,-665 "/>
<text text-anchor="start" x="166" y="-653" font-family="Helvetica,sans-Serif" font-size="10.00">+ operator&#45;&gt;()</text>
</a>
</g>
</g>
<!-- Node8&#45;&gt;Node3 -->
<g id="edge9" class="edge">
<title>Node8&#45;&gt;Node3</title>
<path fill="none" stroke="orange" d="M229.93,-636.33C231.8,-631.62 233.4,-626.77 234.5,-622 235.6,-617.24 234.54,-615.89 234.5,-611 233.39,-486.54 241.31,-454.9 229.5,-331 228.01,-315.33 225.18,-298.11 222.45,-283.64"/>
<polygon fill="orange" stroke="orange" points="226.61,-635.18 225.79,-645.74 233.02,-638 226.61,-635.18"/>
<text text-anchor="middle" x="280.5" y="-509" font-family="Helvetica,sans-Serif" font-size="10.00"> &lt; HY_HydroNexus &gt;</text>
</g>
<!-- Node8&#45;&gt;Node7 -->
<g id="edge7" class="edge">
<title>Node8&#45;&gt;Node7</title>
<path fill="none" stroke="orange" d="M191.85,-636.68C184.94,-622.25 177.15,-605.99 170.73,-592.61"/>
<polygon fill="orange" stroke="orange" points="188.77,-638.33 196.24,-645.84 195.08,-635.31 188.77,-638.33"/>
<text text-anchor="middle" x="208" y="-614" font-family="Helvetica,sans-Serif" font-size="10.00"> &lt; point_t &gt;</text>
</g>
<!-- Node9 -->
<g id="node9" class="node">
<title>Node9</title>
<g id="a_node9"><a xlink:title=" ">
<polygon fill="white" stroke="#bfbfbf" points="195,-756.5 195,-813.5 224,-813.5 224,-756.5 195,-756.5"/>
<text text-anchor="middle" x="209.5" y="-801.5" font-family="Helvetica,sans-Serif" font-size="10.00">T</text>
<polyline fill="none" stroke="#bfbfbf" points="195,-794.5 224,-794.5 "/>
<text text-anchor="middle" x="209.5" y="-782.5" font-family="Helvetica,sans-Serif" font-size="10.00"> </text>
<polyline fill="none" stroke="#bfbfbf" points="195,-775.5 224,-775.5 "/>
<text text-anchor="middle" x="209.5" y="-763.5" font-family="Helvetica,sans-Serif" font-size="10.00"> </text>
</a>
</g>
</g>
<!-- Node9&#45;&gt;Node8 -->
<g id="edge8" class="edge">
<title>Node9&#45;&gt;Node8</title>
<path fill="none" stroke="#404040" d="M209.5,-756.34C209.5,-743.84 209.5,-728.84 209.5,-715.18"/>
<polygon fill="none" stroke="#404040" points="209.5,-715.11 205.5,-709.11 209.5,-703.11 213.5,-709.11 209.5,-715.11"/>
<text text-anchor="middle" x="219.5" y="-730" font-family="Helvetica,sans-Serif" font-size="10.00"> +ptr</text>
</g>
</g>
</svg>
        <g id="navigator" transform="translate(0 0)" fill="#404254">
                <rect fill="#f2f5e9" fill-opacity="0.5" stroke="#606060" stroke-width=".5" x="0" y="0" width="60" height="60"/>
                <use id="zoomplus" xlink:href="#zoomPlus" x="17" y="9" onmousedown="handleZoom(evt,'in')"/>
                <use id="zoomminus" xlink:href="#zoomMin" x="42" y="9" onmousedown="handleZoom(evt,'out')"/>
                <use id="reset" xlink:href="#resetDef" x="30" y="36" onmousedown="handleReset()"/>
                <g id="arrowUp" xlink:href="#dirArrow" transform="translate(30 24)" onmousedown="handlePan(0,-1)">
                  <use xlink:href="#rim" fill="#404040">
                        <set attributeName="fill" to="#808080" begin="arrowUp.mouseover" end="arrowUp.mouseout"/>
                  </use>
                  <path fill="none" stroke="white" stroke-width="1.5" d="M0,-3.0v7 M-2.5,-0.5L0,-3.0L2.5,-0.5"/>
                </g>
                <g id="arrowRight" xlink:href="#dirArrow" transform="rotate(90) translate(36 -43)" onmousedown="handlePan(1,0)">
                  <use xlink:href="#rim" fill="#404040">
                        <set attributeName="fill" to="#808080" begin="arrowRight.mouseover" end="arrowRight.mouseout"/>
                  </use>
                  <path fill="none" stroke="white" stroke-width="1.5" d="M0,-3.0v7 M-2.5,-0.5L0,-3.0L2.5,-0.5"/>
                </g>
                <g id="arrowDown" xlink:href="#dirArrow" transform="rotate(180) translate(-30 -48)" onmousedown="handlePan(0,1)">
                  <use xlink:href="#rim" fill="#404040">
                        <set attributeName="fill" to="#808080" begin="arrowDown.mouseover" end="arrowDown.mouseout"/>
                  </use>
                  <path fill="none" stroke="white" stroke-width="1.5" d="M0,-3.0v7 M-2.5,-0.5L0,-3.0L2.5,-0.5"/>
                </g>
                <g id="arrowLeft" xlink:href="#dirArrow" transform="rotate(270) translate(-36 17)" onmousedown="handlePan(-1,0)">
                  <use xlink:href="#rim" fill="#404040">
                        <set attributeName="fill" to="#808080" begin="arrowLeft.mouseover" end="arrowLeft.mouseout"/>
                  </use>
                  <path fill="none" stroke="white" stroke-width="1.5" d="M0,-3.0v7 M-2.5,-0.5L0,-3.0L2.5,-0.5"/>
                </g>
        </g>
        <svg viewBox="0 0 15 15" width="100%" height="30px" preserveAspectRatio="xMaxYMin meet">
         <g id="arrow_out" transform="scale(0.3 0.3)">
          <a xlink:href="class_h_y___hydro_location__coll__graph_org.svg" target="_base">
           <rect id="button" ry="5" rx="5" y="6" x="6" height="38" width="38"
                fill="#f2f5e9" fill-opacity="0.5" stroke="#606060" stroke-width="1.0"/>
           <path id="arrow"
             d="M 11.500037,31.436501 C 11.940474,20.09759 22.043105,11.32322 32.158766,21.979434 L 37.068811,17.246167 C 37.068811,17.246167 37.088388,32 37.088388,32 L 22.160133,31.978069 C 22.160133,31.978069 26.997745,27.140456 26.997745,27.140456 C 18.528582,18.264221 13.291696,25.230495 11.500037,31.436501 z"
             style="fill:#404040;"/>
          </a>
         </g>
        </svg>
</svg>
