<?xml version="1.0" encoding="UTF-8" standalone="no"?>
<!DOCTYPE svg PUBLIC "-//W3C//DTD SVG 1.1//EN"
 "http://www.w3.org/Graphics/SVG/1.1/DTD/svg11.dtd">
<!-- Generated by graphviz version 2.44.0 ()
 -->
<!-- Title: Forcing Pages: 1 -->
<!--zoomable 590 -->
<svg id="main" version="1.1" xmlns="http://www.w3.org/2000/svg" xmlns:xlink="http://www.w3.org/1999/xlink" xml:space="preserve" onload="init(evt)">
<style type="text/css"><![CDATA[
.edge:hover path { stroke: red; }
.edge:hover polygon { stroke: red; fill: red; }
]]></style>
<script type="text/javascript"><![CDATA[
var edges = document.getElementsByTagName('g');
if (edges && edges.length) {
  for (var i=0;i<edges.length;i++) {
    if (edges[i].id.substr(0,4)=='edge') {
      edges[i].setAttribute('class','edge');
    }
  }
}
]]></script>
        <defs>
                <circle id="rim" cx="0" cy="0" r="7"/>
                <circle id="rim2" cx="0" cy="0" r="3.5"/>
                <g id="zoomPlus">
                        <use xlink:href="#rim" fill="#404040">
                                <set attributeName="fill" to="#808080" begin="zoomplus.mouseover" end="zoomplus.mouseout"/>
                        </use>
                        <path d="M-4,0h8M0,-4v8" fill="none" stroke="white" stroke-width="1.5" pointer-events="none"/>
                </g>
                <g id="zoomMin">
                        <use xlink:href="#rim" fill="#404040">
                                <set attributeName="fill" to="#808080" begin="zoomminus.mouseover" end="zoomminus.mouseout"/>
                        </use>
                        <path d="M-4,0h8" fill="none" stroke="white" stroke-width="1.5" pointer-events="none"/>
                </g>
                <g id="dirArrow">
                        <path fill="none" stroke="white" stroke-width="1.5" d="M0,-3.0v7 M-2.5,-0.5L0,-3.0L2.5,-0.5"/>
                </g>
               <g id="resetDef">
                       <use xlink:href="#rim2" fill="#404040">
                               <set attributeName="fill" to="#808080" begin="reset.mouseover" end="reset.mouseout"/>
                       </use>
               </g>
        </defs>

<script type="text/javascript">
var viewWidth = 345;
var viewHeight = 590;
var sectionId = 'dynsection-0';
</script>
<script xlink:href="svgpan.js"/>
<svg id="graph" class="graph">
<g id="viewport">
<title>Forcing</title>
<polygon fill="white" stroke="transparent" points="-4,4 -4,-586 340.5,-586 340.5,4 -4,4"/>
<!-- Node1 -->
<g id="node1" class="node">
<title>Node1</title>
<g id="a_node1"><a xlink:title="Forcing class providing time&#45;series precipiation forcing data to the model.">
<polygon fill="#bfbfbf" stroke="black" points="76.5,-0.5 76.5,-233.5 226.5,-233.5 226.5,-0.5 76.5,-0.5"/>
<text text-anchor="middle" x="151.5" y="-221.5" font-family="Helvetica,sans-Serif" font-size="10.00">Forcing</text>
<polyline fill="none" stroke="black" points="76.5,-214.5 226.5,-214.5 "/>
<text text-anchor="start" x="84.5" y="-202.5" font-family="Helvetica,sans-Serif" font-size="10.00">&#45; forcing_vector_index_ptr</text>
<text text-anchor="start" x="84.5" y="-191.5" font-family="Helvetica,sans-Serif" font-size="10.00">&#45; precipitation_rate</text>
<text text-anchor="start" x="84.5" y="-180.5" font-family="Helvetica,sans-Serif" font-size="10.00">_meters_per_second</text>
<text text-anchor="start" x="84.5" y="-169.5" font-family="Helvetica,sans-Serif" font-size="10.00">&#45; air_temperature_fahrenheit</text>
<text text-anchor="start" x="84.5" y="-158.5" font-family="Helvetica,sans-Serif" font-size="10.00">&#45; basin_id</text>
<text text-anchor="start" x="84.5" y="-147.5" font-family="Helvetica,sans-Serif" font-size="10.00">&#45; day_of_year</text>
<text text-anchor="start" x="84.5" y="-136.5" font-family="Helvetica,sans-Serif" font-size="10.00">&#45; start_date_time_epoch</text>
<text text-anchor="start" x="84.5" y="-125.5" font-family="Helvetica,sans-Serif" font-size="10.00">&#45; end_date_time_epoch</text>
<text text-anchor="start" x="84.5" y="-114.5" font-family="Helvetica,sans-Serif" font-size="10.00">&#45; current_date_time_epoch</text>
<polyline fill="none" stroke="black" points="76.5,-107.5 226.5,-107.5 "/>
<text text-anchor="start" x="84.5" y="-95.5" font-family="Helvetica,sans-Serif" font-size="10.00">+ Forcing()</text>
<text text-anchor="start" x="84.5" y="-84.5" font-family="Helvetica,sans-Serif" font-size="10.00">+ Forcing()</text>
<text text-anchor="start" x="84.5" y="-73.5" font-family="Helvetica,sans-Serif" font-size="10.00">+ get_current_hourly</text>
<text text-anchor="start" x="84.5" y="-62.5" font-family="Helvetica,sans-Serif" font-size="10.00">_precipitation_meters</text>
<text text-anchor="start" x="84.5" y="-51.5" font-family="Helvetica,sans-Serif" font-size="10.00">_per_second()</text>
<text text-anchor="start" x="84.5" y="-40.5" font-family="Helvetica,sans-Serif" font-size="10.00">+ get_next_hourly_precipitation</text>
<text text-anchor="start" x="84.5" y="-29.5" font-family="Helvetica,sans-Serif" font-size="10.00">_meters_per_second()</text>
<text text-anchor="start" x="84.5" y="-18.5" font-family="Helvetica,sans-Serif" font-size="10.00">+ get_day_of_year()</text>
<text text-anchor="start" x="84.5" y="-7.5" font-family="Helvetica,sans-Serif" font-size="10.00">&#45; read_forcing()</text>
</a>
</g>
</g>
<!-- Node2 -->
<g id="node2" class="node">
<title>Node2</title>
<g id="a_node2"><a xlink:title="STL class.">
<polygon fill="white" stroke="#bfbfbf" points="17,-298 17,-355 76,-355 76,-298 17,-298"/>
<text text-anchor="middle" x="46.5" y="-343" font-family="Helvetica,sans-Serif" font-size="10.00">std::string</text>
<polyline fill="none" stroke="#bfbfbf" points="17,-336 76,-336 "/>
<text text-anchor="middle" x="46.5" y="-324" font-family="Helvetica,sans-Serif" font-size="10.00"> </text>
<polyline fill="none" stroke="#bfbfbf" points="17,-317 76,-317 "/>
<text text-anchor="middle" x="46.5" y="-305" font-family="Helvetica,sans-Serif" font-size="10.00"> </text>
</a>
</g>
</g>
<!-- Node2&#45;&gt;Node1 -->
<g id="edge1" class="edge">
<title>Node2&#45;&gt;Node1</title>
<path fill="none" stroke="#404040" d="M51.45,-297.93C54.52,-283.83 59.12,-266.61 65.5,-252 67.18,-248.15 68.97,-244.28 70.84,-240.41"/>
<polygon fill="none" stroke="#404040" points="70.93,-240.24 70.06,-233.08 76.33,-229.52 77.2,-236.68 70.93,-240.24"/>
<text text-anchor="middle" x="106.5" y="-260.5" font-family="Helvetica,sans-Serif" font-size="10.00"> &#45;forcing_file_name</text>
</g>
<!-- Node3 -->
<g id="node3" class="node">
<title>Node3</title>
<g id="a_node3"><a xlink:title="STL class.">
<polygon fill="white" stroke="#bfbfbf" points="0,-408.5 0,-476.5 93,-476.5 93,-408.5 0,-408.5"/>
<text text-anchor="start" x="8" y="-464.5" font-family="Helvetica,sans-Serif" font-size="10.00">std::basic_string&lt;</text>
<text text-anchor="middle" x="46.5" y="-453.5" font-family="Helvetica,sans-Serif" font-size="10.00"> char &gt;</text>
<polyline fill="none" stroke="#bfbfbf" points="0,-446.5 93,-446.5 "/>
<text text-anchor="middle" x="46.5" y="-434.5" font-family="Helvetica,sans-Serif" font-size="10.00"> </text>
<polyline fill="none" stroke="#bfbfbf" points="0,-427.5 93,-427.5 "/>
<text text-anchor="middle" x="46.5" y="-415.5" font-family="Helvetica,sans-Serif" font-size="10.00"> </text>
</a>
</g>
</g>
<!-- Node3&#45;&gt;Node2 -->
<g id="edge2" class="edge">
<title>Node3&#45;&gt;Node2</title>
<path fill="none" stroke="midnightblue" d="M46.5,-398.03C46.5,-383.67 46.5,-368.1 46.5,-355.24"/>
<polygon fill="none" stroke="midnightblue" points="43,-398.22 46.5,-408.22 50,-398.22 43,-398.22"/>
</g>
<!-- Node4 -->
<g id="node4" class="node">
<title>Node4</title>
<g id="a_node4"><a xlink:title=" ">
<polygon fill="white" stroke="#bfbfbf" points="97,-292.5 97,-360.5 204,-360.5 204,-292.5 97,-292.5"/>
<text text-anchor="start" x="105" y="-348.5" font-family="Helvetica,sans-Serif" font-size="10.00">std::shared_ptr&lt; time</text>
<text text-anchor="middle" x="150.5" y="-337.5" font-family="Helvetica,sans-Serif" font-size="10.00">_type &gt;</text>
<polyline fill="none" stroke="#bfbfbf" points="97,-330.5 204,-330.5 "/>
<text text-anchor="start" x="105" y="-318.5" font-family="Helvetica,sans-Serif" font-size="10.00">+ ptr</text>
<polyline fill="none" stroke="#bfbfbf" points="97,-311.5 204,-311.5 "/>
<text text-anchor="start" x="105" y="-299.5" font-family="Helvetica,sans-Serif" font-size="10.00">+ operator&#45;&gt;()</text>
</a>
</g>
</g>
<!-- Node4&#45;&gt;Node1 -->
<g id="edge3" class="edge">
<title>Node4&#45;&gt;Node1</title>
<path fill="none" stroke="#404040" d="M150.66,-292.16C150.72,-279.07 150.8,-263.15 150.88,-246.31"/>
<polygon fill="none" stroke="#404040" points="150.88,-245.92 146.91,-239.9 150.94,-233.92 154.91,-239.94 150.88,-245.92"/>
<text text-anchor="middle" x="188" y="-266" font-family="Helvetica,sans-Serif" font-size="10.00"> &#45;start_date_time</text>
<text text-anchor="middle" x="188" y="-255" font-family="Helvetica,sans-Serif" font-size="10.00">&#45;end_date_time</text>
</g>
<!-- Node5 -->
<g id="node5" class="node">
<title>Node5</title>
<g id="a_node5"><a xlink:title="STL class.">
<polygon fill="white" stroke="#bfbfbf" points="112,-414 112,-471 215,-471 215,-414 112,-414"/>
<text text-anchor="middle" x="163.5" y="-459" font-family="Helvetica,sans-Serif" font-size="10.00">std::shared_ptr&lt; T &gt;</text>
<polyline fill="none" stroke="#bfbfbf" points="112,-452 215,-452 "/>
<text text-anchor="middle" x="163.5" y="-440" font-family="Helvetica,sans-Serif" font-size="10.00"> </text>
<polyline fill="none" stroke="#bfbfbf" points="112,-433 215,-433 "/>
<text text-anchor="start" x="120" y="-421" font-family="Helvetica,sans-Serif" font-size="10.00">+ operator&#45;&gt;()</text>
</a>
</g>
</g>
<!-- Node5&#45;&gt;Node4 -->
<g id="edge4" class="edge">
<title>Node5&#45;&gt;Node4</title>
<path fill="none" stroke="orange" d="M159.18,-403.64C157.59,-389.69 155.8,-374.01 154.27,-360.52"/>
<polygon fill="orange" stroke="orange" points="155.74,-404.36 160.35,-413.9 162.7,-403.57 155.74,-404.36"/>
<text text-anchor="middle" x="188" y="-382" font-family="Helvetica,sans-Serif" font-size="10.00"> &lt; time_type &gt;</text>
</g>
<!-- Node6 -->
<g id="node6" class="node">
<title>Node6</title>
<g id="a_node6"><a xlink:title=" ">
<polygon fill="white" stroke="#bfbfbf" points="204,-524.5 204,-581.5 233,-581.5 233,-524.5 204,-524.5"/>
<text text-anchor="middle" x="218.5" y="-569.5" font-family="Helvetica,sans-Serif" font-size="10.00">T</text>
<polyline fill="none" stroke="#bfbfbf" points="204,-562.5 233,-562.5 "/>
<text text-anchor="middle" x="218.5" y="-550.5" font-family="Helvetica,sans-Serif" font-size="10.00"> </text>
<polyline fill="none" stroke="#bfbfbf" points="204,-543.5 233,-543.5 "/>
<text text-anchor="middle" x="218.5" y="-531.5" font-family="Helvetica,sans-Serif" font-size="10.00"> </text>
</a>
</g>
</g>
<!-- Node6&#45;&gt;Node5 -->
<g id="edge5" class="edge">
<title>Node6&#45;&gt;Node5</title>
<path fill="none" stroke="#404040" d="M204.48,-524.34C197.95,-511.46 190.07,-495.92 182.98,-481.92"/>
<polygon fill="none" stroke="#404040" points="182.92,-481.81 176.64,-478.27 177.5,-471.11 183.78,-474.65 182.92,-481.81"/>
<text text-anchor="middle" x="204.5" y="-498" font-family="Helvetica,sans-Serif" font-size="10.00"> +ptr</text>
</g>
<!-- Node8 -->
<g id="node8" class="node">
<title>Node8</title>
<g id="a_node8"><a xlink:title="STL class.">
<polygon fill="white" stroke="#bfbfbf" points="233.5,-414 233.5,-471 317.5,-471 317.5,-414 233.5,-414"/>
<text text-anchor="middle" x="275.5" y="-459" font-family="Helvetica,sans-Serif" font-size="10.00">std::vector&lt; T &gt;</text>
<polyline fill="none" stroke="#bfbfbf" points="233.5,-452 317.5,-452 "/>
<text text-anchor="middle" x="275.5" y="-440" font-family="Helvetica,sans-Serif" font-size="10.00"> </text>
<polyline fill="none" stroke="#bfbfbf" points="233.5,-433 317.5,-433 "/>
<text text-anchor="middle" x="275.5" y="-421" font-family="Helvetica,sans-Serif" font-size="10.00"> </text>
</a>
</g>
</g>
<!-- Node6&#45;&gt;Node8 -->
<g id="edge8" class="edge">
<title>Node6&#45;&gt;Node8</title>
<path fill="none" stroke="#404040" d="M233.03,-524.34C239.8,-511.46 247.96,-495.92 255.31,-481.92"/>
<polygon fill="none" stroke="#404040" points="255.41,-481.73 254.66,-474.56 261,-471.11 261.75,-478.28 255.41,-481.73"/>
<text text-anchor="middle" x="272" y="-498" font-family="Helvetica,sans-Serif" font-size="10.00"> +elements</text>
</g>
<!-- Node7 -->
<g id="node7" class="node">
<title>Node7</title>
<g id="a_node7"><a xlink:title=" ">
<polygon fill="white" stroke="#bfbfbf" points="222,-298 222,-355 329,-355 329,-298 222,-298"/>
<text text-anchor="middle" x="275.5" y="-343" font-family="Helvetica,sans-Serif" font-size="10.00">std::vector&lt; double &gt;</text>
<polyline fill="none" stroke="#bfbfbf" points="222,-336 329,-336 "/>
<text text-anchor="start" x="230" y="-324" font-family="Helvetica,sans-Serif" font-size="10.00">+ elements</text>
<polyline fill="none" stroke="#bfbfbf" points="222,-317 329,-317 "/>
<text text-anchor="middle" x="275.5" y="-305" font-family="Helvetica,sans-Serif" font-size="10.00"> </text>
</a>
</g>
</g>
<!-- Node7&#45;&gt;Node1 -->
<g id="edge6" class="edge">
<title>Node7&#45;&gt;Node1</title>
<path fill="none" stroke="#404040" d="M259.03,-297.95C250.3,-283.33 238.88,-264.21 226.74,-243.91"/>
<polygon fill="none" stroke="#404040" points="226.7,-243.83 220.19,-240.74 220.54,-233.53 227.05,-236.63 226.7,-243.83"/>
<text text-anchor="start" x="242.5" y="-266" font-family="Helvetica,sans-Serif" font-size="10.00"> &#45;precipitation_meters</text>
<text text-anchor="middle" x="289.5" y="-255" font-family="Helvetica,sans-Serif" font-size="10.00">_per_second_vector</text>
</g>
<!-- Node8&#45;&gt;Node7 -->
<g id="edge7" class="edge">
<title>Node8&#45;&gt;Node7</title>
<path fill="none" stroke="orange" d="M275.5,-403.86C275.5,-388 275.5,-369.85 275.5,-355.24"/>
<polygon fill="orange" stroke="orange" points="272,-403.9 275.5,-413.9 279,-403.9 272,-403.9"/>
<text text-anchor="middle" x="299.5" y="-382" font-family="Helvetica,sans-Serif" font-size="10.00"> &lt; double &gt;</text>
</g>
</g>
</svg>
        <g id="navigator" transform="translate(0 0)" fill="#404254">
                <rect fill="#f2f5e9" fill-opacity="0.5" stroke="#606060" stroke-width=".5" x="0" y="0" width="60" height="60"/>
                <use id="zoomplus" xlink:href="#zoomPlus" x="17" y="9" onmousedown="handleZoom(evt,'in')"/>
                <use id="zoomminus" xlink:href="#zoomMin" x="42" y="9" onmousedown="handleZoom(evt,'out')"/>
                <use id="reset" xlink:href="#resetDef" x="30" y="36" onmousedown="handleReset()"/>
                <g id="arrowUp" xlink:href="#dirArrow" transform="translate(30 24)" onmousedown="handlePan(0,-1)">
                  <use xlink:href="#rim" fill="#404040">
                        <set attributeName="fill" to="#808080" begin="arrowUp.mouseover" end="arrowUp.mouseout"/>
                  </use>
                  <path fill="none" stroke="white" stroke-width="1.5" d="M0,-3.0v7 M-2.5,-0.5L0,-3.0L2.5,-0.5"/>
                </g>
                <g id="arrowRight" xlink:href="#dirArrow" transform="rotate(90) translate(36 -43)" onmousedown="handlePan(1,0)">
                  <use xlink:href="#rim" fill="#404040">
                        <set attributeName="fill" to="#808080" begin="arrowRight.mouseover" end="arrowRight.mouseout"/>
                  </use>
                  <path fill="none" stroke="white" stroke-width="1.5" d="M0,-3.0v7 M-2.5,-0.5L0,-3.0L2.5,-0.5"/>
                </g>
                <g id="arrowDown" xlink:href="#dirArrow" transform="rotate(180) translate(-30 -48)" onmousedown="handlePan(0,1)">
                  <use xlink:href="#rim" fill="#404040">
                        <set attributeName="fill" to="#808080" begin="arrowDown.mouseover" end="arrowDown.mouseout"/>
                  </use>
                  <path fill="none" stroke="white" stroke-width="1.5" d="M0,-3.0v7 M-2.5,-0.5L0,-3.0L2.5,-0.5"/>
                </g>
                <g id="arrowLeft" xlink:href="#dirArrow" transform="rotate(270) translate(-36 17)" onmousedown="handlePan(-1,0)">
                  <use xlink:href="#rim" fill="#404040">
                        <set attributeName="fill" to="#808080" begin="arrowLeft.mouseover" end="arrowLeft.mouseout"/>
                  </use>
                  <path fill="none" stroke="white" stroke-width="1.5" d="M0,-3.0v7 M-2.5,-0.5L0,-3.0L2.5,-0.5"/>
                </g>
        </g>
        <svg viewBox="0 0 15 15" width="100%" height="30px" preserveAspectRatio="xMaxYMin meet">
         <g id="arrow_out" transform="scale(0.3 0.3)">
          <a xlink:href="class_forcing__coll__graph_org.svg" target="_base">
           <rect id="button" ry="5" rx="5" y="6" x="6" height="38" width="38"
                fill="#f2f5e9" fill-opacity="0.5" stroke="#606060" stroke-width="1.0"/>
           <path id="arrow"
             d="M 11.500037,31.436501 C 11.940474,20.09759 22.043105,11.32322 32.158766,21.979434 L 37.068811,17.246167 C 37.068811,17.246167 37.088388,32 37.088388,32 L 22.160133,31.978069 C 22.160133,31.978069 26.997745,27.140456 26.997745,27.140456 C 18.528582,18.264221 13.291696,25.230495 11.500037,31.436501 z"
             style="fill:#404040;"/>
          </a>
         </g>
        </svg>
</svg>
