<?xml version="1.0" encoding="UTF-8" standalone="no"?>
<!DOCTYPE svg PUBLIC "-//W3C//DTD SVG 1.1//EN"
 "http://www.w3.org/Graphics/SVG/1.1/DTD/svg11.dtd">
<!-- Generated by graphviz version 2.44.0 ()
 -->
<!-- Title: tshirt::tshirt_model Pages: 1 -->
<svg width="959pt" height="1717pt"
 viewBox="0.00 0.00 959.00 1717.00" xmlns="http://www.w3.org/2000/svg" xmlns:xlink="http://www.w3.org/1999/xlink">
<g id="graph0" class="graph" transform="scale(1 1) rotate(0) translate(4 1713)">
<title>tshirt::tshirt_model</title>
<polygon fill="white" stroke="transparent" points="-4,4 -4,-1713 955,-1713 955,4 -4,4"/>
<!-- Node1 -->
<g id="node1" class="node">
<title>Node1</title>
<g id="a_node1"><a xlink:title="Tshirt model class.">
<polygon fill="#bfbfbf" stroke="black" points="179.5,-0.5 179.5,-321.5 324.5,-321.5 324.5,-0.5 179.5,-0.5"/>
<text text-anchor="middle" x="252" y="-309.5" font-family="Helvetica,sans-Serif" font-size="10.00">tshirt::tshirt_model</text>
<polyline fill="none" stroke="black" points="179.5,-302.5 324.5,-302.5 "/>
<text text-anchor="start" x="187.5" y="-290.5" font-family="Helvetica,sans-Serif" font-size="10.00">&#45; lf_outlet_index</text>
<text text-anchor="start" x="187.5" y="-279.5" font-family="Helvetica,sans-Serif" font-size="10.00">&#45; perc_outlet_index</text>
<text text-anchor="start" x="187.5" y="-268.5" font-family="Helvetica,sans-Serif" font-size="10.00">&#45; mass_check_error_bound</text>
<text text-anchor="start" x="187.5" y="-257.5" font-family="Helvetica,sans-Serif" font-size="10.00">&#45; soil_field_capacity</text>
<text text-anchor="start" x="187.5" y="-246.5" font-family="Helvetica,sans-Serif" font-size="10.00">_storage</text>
<polyline fill="none" stroke="black" points="179.5,-239.5 324.5,-239.5 "/>
<text text-anchor="start" x="187.5" y="-227.5" font-family="Helvetica,sans-Serif" font-size="10.00">+ tshirt_model()</text>
<text text-anchor="start" x="187.5" y="-216.5" font-family="Helvetica,sans-Serif" font-size="10.00">+ tshirt_model()</text>
<text text-anchor="start" x="187.5" y="-205.5" font-family="Helvetica,sans-Serif" font-size="10.00">+ calc_evapotranspiration()</text>
<text text-anchor="start" x="187.5" y="-194.5" font-family="Helvetica,sans-Serif" font-size="10.00">+ calc_soil_field_capacity</text>
<text text-anchor="start" x="187.5" y="-183.5" font-family="Helvetica,sans-Serif" font-size="10.00">_storage()</text>
<text text-anchor="start" x="187.5" y="-172.5" font-family="Helvetica,sans-Serif" font-size="10.00">+ get_current_state()</text>
<text text-anchor="start" x="187.5" y="-161.5" font-family="Helvetica,sans-Serif" font-size="10.00">+ get_fluxes()</text>
<text text-anchor="start" x="187.5" y="-150.5" font-family="Helvetica,sans-Serif" font-size="10.00">+ get_mass_check_error</text>
<text text-anchor="start" x="187.5" y="-139.5" font-family="Helvetica,sans-Serif" font-size="10.00">_bound()</text>
<text text-anchor="start" x="187.5" y="-128.5" font-family="Helvetica,sans-Serif" font-size="10.00">+ mass_check()</text>
<text text-anchor="start" x="187.5" y="-117.5" font-family="Helvetica,sans-Serif" font-size="10.00">+ run()</text>
<text text-anchor="start" x="187.5" y="-106.5" font-family="Helvetica,sans-Serif" font-size="10.00"># manage_state_before</text>
<text text-anchor="start" x="187.5" y="-95.5" font-family="Helvetica,sans-Serif" font-size="10.00">_next_time_step_run()</text>
<text text-anchor="start" x="187.5" y="-84.5" font-family="Helvetica,sans-Serif" font-size="10.00"># set_mass_check_error</text>
<text text-anchor="start" x="187.5" y="-73.5" font-family="Helvetica,sans-Serif" font-size="10.00">_bound()</text>
<text text-anchor="start" x="187.5" y="-62.5" font-family="Helvetica,sans-Serif" font-size="10.00">&#45; check_valid()</text>
<text text-anchor="start" x="187.5" y="-51.5" font-family="Helvetica,sans-Serif" font-size="10.00">&#45; initialize_groundwater</text>
<text text-anchor="start" x="187.5" y="-40.5" font-family="Helvetica,sans-Serif" font-size="10.00">_reservoir()</text>
<text text-anchor="start" x="187.5" y="-29.5" font-family="Helvetica,sans-Serif" font-size="10.00">&#45; initialize_soil_reservoir()</text>
<text text-anchor="start" x="187.5" y="-18.5" font-family="Helvetica,sans-Serif" font-size="10.00">&#45; initialize_subsurface</text>
<text text-anchor="start" x="187.5" y="-7.5" font-family="Helvetica,sans-Serif" font-size="10.00">_lateral_flow_nash_cascade()</text>
</a>
</g>
</g>
<!-- Node2 -->
<g id="node2" class="node">
<title>Node2</title>
<g id="a_node2"><a xlink:href="class_reservoir.html" target="_top" xlink:title="Reservoir that has zero, one, or multiple outlets.">
<polygon fill="white" stroke="black" points="440,-799.5 440,-1021.5 560,-1021.5 560,-799.5 440,-799.5"/>
<text text-anchor="middle" x="500" y="-1009.5" font-family="Helvetica,sans-Serif" font-size="10.00">Reservoir</text>
<polyline fill="none" stroke="black" points="440,-1002.5 560,-1002.5 "/>
<text text-anchor="middle" x="500" y="-990.5" font-family="Helvetica,sans-Serif" font-size="10.00"> </text>
<polyline fill="none" stroke="black" points="440,-983.5 560,-983.5 "/>
<text text-anchor="start" x="448" y="-971.5" font-family="Helvetica,sans-Serif" font-size="10.00">+ Reservoir()</text>
<text text-anchor="start" x="448" y="-960.5" font-family="Helvetica,sans-Serif" font-size="10.00">+ Reservoir()</text>
<text text-anchor="start" x="448" y="-949.5" font-family="Helvetica,sans-Serif" font-size="10.00">+ Reservoir()</text>
<text text-anchor="start" x="448" y="-938.5" font-family="Helvetica,sans-Serif" font-size="10.00">+ Reservoir()</text>
<text text-anchor="start" x="448" y="-927.5" font-family="Helvetica,sans-Serif" font-size="10.00">+ response_meters_per</text>
<text text-anchor="start" x="448" y="-916.5" font-family="Helvetica,sans-Serif" font-size="10.00">_second()</text>
<text text-anchor="start" x="448" y="-905.5" font-family="Helvetica,sans-Serif" font-size="10.00">+ add_outlet()</text>
<text text-anchor="start" x="448" y="-894.5" font-family="Helvetica,sans-Serif" font-size="10.00">+ add_outlet()</text>
<text text-anchor="start" x="448" y="-883.5" font-family="Helvetica,sans-Serif" font-size="10.00">+ add_outlet()</text>
<text text-anchor="start" x="448" y="-872.5" font-family="Helvetica,sans-Serif" font-size="10.00">+ sort_outlets()</text>
<text text-anchor="start" x="448" y="-861.5" font-family="Helvetica,sans-Serif" font-size="10.00">+ check_highest_outlet</text>
<text text-anchor="start" x="448" y="-850.5" font-family="Helvetica,sans-Serif" font-size="10.00">_against_max_storage()</text>
<text text-anchor="start" x="448" y="-839.5" font-family="Helvetica,sans-Serif" font-size="10.00">+ get_storage_height</text>
<text text-anchor="start" x="448" y="-828.5" font-family="Helvetica,sans-Serif" font-size="10.00">_meters()</text>
<text text-anchor="start" x="448" y="-817.5" font-family="Helvetica,sans-Serif" font-size="10.00">+ velocity_meters_per</text>
<text text-anchor="start" x="448" y="-806.5" font-family="Helvetica,sans-Serif" font-size="10.00">_second_for_outlet()</text>
</a>
</g>
</g>
<!-- Node2&#45;&gt;Node1 -->
<g id="edge1" class="edge">
<title>Node2&#45;&gt;Node1</title>
<path fill="none" stroke="#404040" d="M463.41,-799.2C422.67,-676.43 356.34,-476.49 308.84,-333.31"/>
<polygon fill="none" stroke="#404040" points="308.8,-333.2 303.11,-328.76 305.02,-321.81 310.71,-326.24 308.8,-333.2"/>
<text text-anchor="middle" x="469" y="-657" font-family="Helvetica,sans-Serif" font-size="10.00"> &#45;groundwater_reservoir</text>
<text text-anchor="middle" x="469" y="-646" font-family="Helvetica,sans-Serif" font-size="10.00">&#45;soil_reservoir</text>
</g>
<!-- Node13 -->
<g id="node13" class="node">
<title>Node13</title>
<g id="a_node13"><a xlink:title=" ">
<polygon fill="white" stroke="#bfbfbf" points="521.5,-683.5 521.5,-740.5 658.5,-740.5 658.5,-683.5 521.5,-683.5"/>
<text text-anchor="middle" x="590" y="-728.5" font-family="Helvetica,sans-Serif" font-size="10.00">std::unique_ptr&lt; Reservoir &gt;</text>
<polyline fill="none" stroke="#bfbfbf" points="521.5,-721.5 658.5,-721.5 "/>
<text text-anchor="middle" x="590" y="-709.5" font-family="Helvetica,sans-Serif" font-size="10.00"> </text>
<polyline fill="none" stroke="#bfbfbf" points="521.5,-702.5 658.5,-702.5 "/>
<text text-anchor="start" x="529.5" y="-690.5" font-family="Helvetica,sans-Serif" font-size="10.00">+ operator&#45;&gt;()</text>
</a>
</g>
</g>
<!-- Node2&#45;&gt;Node13 -->
<g id="edge14" class="edge">
<title>Node2&#45;&gt;Node13</title>
<path fill="none" stroke="#404040" d="M550.39,-799.47C558.24,-782.35 565.86,-765.7 572.29,-751.66"/>
<polygon fill="none" stroke="#404040" points="572.39,-751.44 571.25,-744.32 577.39,-740.53 578.53,-747.65 572.39,-751.44"/>
<text text-anchor="middle" x="578" y="-767.5" font-family="Helvetica,sans-Serif" font-size="10.00"> +ptr</text>
</g>
<!-- Node3 -->
<g id="node3" class="node">
<title>Node3</title>
<g id="a_node3"><a xlink:href="structreservoir__state.html" target="_top" xlink:title=" ">
<polygon fill="white" stroke="black" points="438,-1069.5 438,-1137.5 562,-1137.5 562,-1069.5 438,-1069.5"/>
<text text-anchor="middle" x="500" y="-1125.5" font-family="Helvetica,sans-Serif" font-size="10.00">reservoir_state</text>
<polyline fill="none" stroke="black" points="438,-1118.5 562,-1118.5 "/>
<text text-anchor="start" x="446" y="-1106.5" font-family="Helvetica,sans-Serif" font-size="10.00">+ current_storage_height</text>
<text text-anchor="start" x="446" y="-1095.5" font-family="Helvetica,sans-Serif" font-size="10.00">_meters</text>
<polyline fill="none" stroke="black" points="438,-1088.5 562,-1088.5 "/>
<text text-anchor="middle" x="500" y="-1076.5" font-family="Helvetica,sans-Serif" font-size="10.00"> </text>
</a>
</g>
</g>
<!-- Node3&#45;&gt;Node2 -->
<g id="edge2" class="edge">
<title>Node3&#45;&gt;Node2</title>
<path fill="none" stroke="#404040" d="M500,-1069.23C500,-1058.94 500,-1046.95 500,-1034.26"/>
<polygon fill="none" stroke="#404040" points="500,-1033.91 496,-1027.91 500,-1021.91 504,-1027.91 500,-1033.91"/>
<text text-anchor="middle" x="514" y="-1043" font-family="Helvetica,sans-Serif" font-size="10.00"> &#45;state</text>
</g>
<!-- Node4 -->
<g id="node4" class="node">
<title>Node4</title>
<g id="a_node4"><a xlink:title=" ">
<polygon fill="white" stroke="#bfbfbf" points="580.5,-1069.5 580.5,-1137.5 711.5,-1137.5 711.5,-1069.5 580.5,-1069.5"/>
<text text-anchor="start" x="588.5" y="-1125.5" font-family="Helvetica,sans-Serif" font-size="10.00">std::vector&lt; std::shared</text>
<text text-anchor="middle" x="646" y="-1114.5" font-family="Helvetica,sans-Serif" font-size="10.00">_ptr&lt; Reservoir_Outlet &gt; &gt;</text>
<polyline fill="none" stroke="#bfbfbf" points="580.5,-1107.5 711.5,-1107.5 "/>
<text text-anchor="middle" x="646" y="-1095.5" font-family="Helvetica,sans-Serif" font-size="10.00"> </text>
<polyline fill="none" stroke="#bfbfbf" points="580.5,-1088.5 711.5,-1088.5 "/>
<text text-anchor="middle" x="646" y="-1076.5" font-family="Helvetica,sans-Serif" font-size="10.00"> </text>
</a>
</g>
</g>
<!-- Node4&#45;&gt;Node2 -->
<g id="edge3" class="edge">
<title>Node4&#45;&gt;Node2</title>
<path fill="none" stroke="#404040" d="M620.57,-1069.23C605.86,-1049.98 586.58,-1024.76 567.76,-1000.15"/>
<polygon fill="none" stroke="#404040" points="567.59,-999.93 560.77,-997.59 560.31,-990.39 567.13,-992.73 567.59,-999.93"/>
<text text-anchor="middle" x="619.5" y="-1043" font-family="Helvetica,sans-Serif" font-size="10.00"> &#45;outlets</text>
</g>
<!-- Node5 -->
<g id="node5" class="node">
<title>Node5</title>
<g id="a_node5"><a xlink:title=" ">
<polygon fill="white" stroke="#bfbfbf" points="496,-1196.5 496,-1264.5 626,-1264.5 626,-1196.5 496,-1196.5"/>
<text text-anchor="start" x="504" y="-1252.5" font-family="Helvetica,sans-Serif" font-size="10.00">std::shared_ptr&lt; Reservoir</text>
<text text-anchor="middle" x="561" y="-1241.5" font-family="Helvetica,sans-Serif" font-size="10.00">_Outlet &gt;</text>
<polyline fill="none" stroke="#bfbfbf" points="496,-1234.5 626,-1234.5 "/>
<text text-anchor="middle" x="561" y="-1222.5" font-family="Helvetica,sans-Serif" font-size="10.00"> </text>
<polyline fill="none" stroke="#bfbfbf" points="496,-1215.5 626,-1215.5 "/>
<text text-anchor="start" x="504" y="-1203.5" font-family="Helvetica,sans-Serif" font-size="10.00">+ operator&#45;&gt;()</text>
</a>
</g>
</g>
<!-- Node5&#45;&gt;Node4 -->
<g id="edge4" class="edge">
<title>Node5&#45;&gt;Node4</title>
<path fill="none" stroke="#404040" d="M554.78,-1196.22C553.94,-1182.93 555.19,-1167.98 562,-1156 564.57,-1151.48 567.71,-1147.31 571.25,-1143.47"/>
<polygon fill="none" stroke="#404040" points="571.42,-1143.31 573.06,-1136.29 580.17,-1135.1 578.53,-1142.12 571.42,-1143.31"/>
<text text-anchor="middle" x="586.5" y="-1164.5" font-family="Helvetica,sans-Serif" font-size="10.00"> +elements</text>
</g>
<!-- Node6 -->
<g id="node6" class="node">
<title>Node6</title>
<g id="a_node6"><a xlink:href="class_reservoir___outlet.html" target="_top" xlink:title="Base Single Reservior Outlet Class.">
<polygon fill="white" stroke="black" points="543,-1359.5 543,-1603.5 695,-1603.5 695,-1359.5 543,-1359.5"/>
<text text-anchor="middle" x="619" y="-1591.5" font-family="Helvetica,sans-Serif" font-size="10.00">Reservoir_Outlet</text>
<polyline fill="none" stroke="black" points="543,-1584.5 695,-1584.5 "/>
<text text-anchor="start" x="551" y="-1572.5" font-family="Helvetica,sans-Serif" font-size="10.00"># a</text>
<text text-anchor="start" x="551" y="-1561.5" font-family="Helvetica,sans-Serif" font-size="10.00"># b</text>
<text text-anchor="start" x="551" y="-1550.5" font-family="Helvetica,sans-Serif" font-size="10.00"># activation_threshold</text>
<text text-anchor="start" x="551" y="-1539.5" font-family="Helvetica,sans-Serif" font-size="10.00">_meters</text>
<text text-anchor="start" x="551" y="-1528.5" font-family="Helvetica,sans-Serif" font-size="10.00"># max_velocity_meters</text>
<text text-anchor="start" x="551" y="-1517.5" font-family="Helvetica,sans-Serif" font-size="10.00">_per_second</text>
<text text-anchor="start" x="551" y="-1506.5" font-family="Helvetica,sans-Serif" font-size="10.00"># velocity_meters_per</text>
<text text-anchor="start" x="551" y="-1495.5" font-family="Helvetica,sans-Serif" font-size="10.00">_second_local</text>
<polyline fill="none" stroke="black" points="543,-1488.5 695,-1488.5 "/>
<text text-anchor="start" x="551" y="-1476.5" font-family="Helvetica,sans-Serif" font-size="10.00">+ Reservoir_Outlet()</text>
<text text-anchor="start" x="551" y="-1465.5" font-family="Helvetica,sans-Serif" font-size="10.00">+ Reservoir_Outlet()</text>
<text text-anchor="start" x="551" y="-1454.5" font-family="Helvetica,sans-Serif" font-size="10.00">+ adjust_velocity()</text>
<text text-anchor="start" x="551" y="-1443.5" font-family="Helvetica,sans-Serif" font-size="10.00">+ get_activation_threshold</text>
<text text-anchor="start" x="551" y="-1432.5" font-family="Helvetica,sans-Serif" font-size="10.00">_meters()</text>
<text text-anchor="start" x="551" y="-1421.5" font-family="Helvetica,sans-Serif" font-size="10.00">+ get_previously_calculated</text>
<text text-anchor="start" x="551" y="-1410.5" font-family="Helvetica,sans-Serif" font-size="10.00">_velocity_meters_per_second()</text>
<text text-anchor="start" x="551" y="-1399.5" font-family="Helvetica,sans-Serif" font-size="10.00">+ velocity_meters_per</text>
<text text-anchor="start" x="551" y="-1388.5" font-family="Helvetica,sans-Serif" font-size="10.00">_second()</text>
<text text-anchor="start" x="551" y="-1377.5" font-family="Helvetica,sans-Serif" font-size="10.00"># calc_velocity_meters</text>
<text text-anchor="start" x="551" y="-1366.5" font-family="Helvetica,sans-Serif" font-size="10.00">_per_second_local()</text>
</a>
</g>
</g>
<!-- Node6&#45;&gt;Node5 -->
<g id="edge5" class="edge">
<title>Node6&#45;&gt;Node5</title>
<path fill="none" stroke="#404040" d="M615.14,-1359.45C611.68,-1333.65 606.04,-1306.97 597,-1283 596.05,-1280.47 594.94,-1277.95 593.72,-1275.46"/>
<polygon fill="none" stroke="#404040" points="593.61,-1275.26 587.19,-1271.97 587.76,-1264.78 594.17,-1268.07 593.61,-1275.26"/>
<text text-anchor="middle" x="622" y="-1309.5" font-family="Helvetica,sans-Serif" font-size="10.00"> +ptr</text>
</g>
<!-- Node7 -->
<g id="node7" class="node">
<title>Node7</title>
<g id="a_node7"><a xlink:title="STL class.">
<polygon fill="white" stroke="#bfbfbf" points="378.5,-1453 378.5,-1510 481.5,-1510 481.5,-1453 378.5,-1453"/>
<text text-anchor="middle" x="430" y="-1498" font-family="Helvetica,sans-Serif" font-size="10.00">std::shared_ptr&lt; T &gt;</text>
<polyline fill="none" stroke="#bfbfbf" points="378.5,-1491 481.5,-1491 "/>
<text text-anchor="middle" x="430" y="-1479" font-family="Helvetica,sans-Serif" font-size="10.00"> </text>
<polyline fill="none" stroke="#bfbfbf" points="378.5,-1472 481.5,-1472 "/>
<text text-anchor="start" x="386.5" y="-1460" font-family="Helvetica,sans-Serif" font-size="10.00">+ operator&#45;&gt;()</text>
</a>
</g>
</g>
<!-- Node7&#45;&gt;Node5 -->
<g id="edge6" class="edge">
<title>Node7&#45;&gt;Node5</title>
<path fill="none" stroke="orange" d="M444.29,-1443.42C454.97,-1415.39 469.78,-1375.92 482,-1341 490.96,-1315.4 485.93,-1305.55 501,-1283 505.35,-1276.49 510.73,-1270.33 516.48,-1264.68"/>
<polygon fill="orange" stroke="orange" points="440.99,-1442.24 440.69,-1452.83 447.53,-1444.74 440.99,-1442.24"/>
<text text-anchor="middle" x="547" y="-1309.5" font-family="Helvetica,sans-Serif" font-size="10.00"> &lt; Reservoir_Outlet &gt;</text>
</g>
<!-- Node15 -->
<g id="node15" class="node">
<title>Node15</title>
<g id="a_node15"><a xlink:title=" ">
<polygon fill="white" stroke="#bfbfbf" points="13,-1196.5 13,-1264.5 123,-1264.5 123,-1196.5 13,-1196.5"/>
<text text-anchor="start" x="21" y="-1252.5" font-family="Helvetica,sans-Serif" font-size="10.00">std::shared_ptr&lt; tshirt</text>
<text text-anchor="middle" x="68" y="-1241.5" font-family="Helvetica,sans-Serif" font-size="10.00">::tshirt_fluxes &gt;</text>
<polyline fill="none" stroke="#bfbfbf" points="13,-1234.5 123,-1234.5 "/>
<text text-anchor="middle" x="68" y="-1222.5" font-family="Helvetica,sans-Serif" font-size="10.00"> </text>
<polyline fill="none" stroke="#bfbfbf" points="13,-1215.5 123,-1215.5 "/>
<text text-anchor="start" x="21" y="-1203.5" font-family="Helvetica,sans-Serif" font-size="10.00">+ operator&#45;&gt;()</text>
</a>
</g>
</g>
<!-- Node7&#45;&gt;Node15 -->
<g id="edge20" class="edge">
<title>Node7&#45;&gt;Node15</title>
<path fill="none" stroke="orange" d="M397.38,-1445.45C372.12,-1419.56 335.41,-1384.52 299,-1359 284.68,-1348.96 275.35,-1354.31 264,-1341 246.4,-1320.36 264.5,-1301.86 245,-1283 242.7,-1280.78 174.13,-1261.21 123.03,-1246.86"/>
<polygon fill="orange" stroke="orange" points="395.04,-1448.08 404.51,-1452.83 400.08,-1443.21 395.04,-1448.08"/>
<text text-anchor="middle" x="312.5" y="-1309.5" font-family="Helvetica,sans-Serif" font-size="10.00"> &lt; tshirt::tshirt_fluxes &gt;</text>
</g>
<!-- Node17 -->
<g id="node17" class="node">
<title>Node17</title>
<g id="a_node17"><a xlink:title=" ">
<polygon fill="white" stroke="#bfbfbf" points="197,-1196.5 197,-1264.5 307,-1264.5 307,-1196.5 197,-1196.5"/>
<text text-anchor="start" x="205" y="-1252.5" font-family="Helvetica,sans-Serif" font-size="10.00">std::shared_ptr&lt; tshirt</text>
<text text-anchor="middle" x="252" y="-1241.5" font-family="Helvetica,sans-Serif" font-size="10.00">::tshirt_state &gt;</text>
<polyline fill="none" stroke="#bfbfbf" points="197,-1234.5 307,-1234.5 "/>
<text text-anchor="middle" x="252" y="-1222.5" font-family="Helvetica,sans-Serif" font-size="10.00"> </text>
<polyline fill="none" stroke="#bfbfbf" points="197,-1215.5 307,-1215.5 "/>
<text text-anchor="start" x="205" y="-1203.5" font-family="Helvetica,sans-Serif" font-size="10.00">+ operator&#45;&gt;()</text>
</a>
</g>
</g>
<!-- Node7&#45;&gt;Node17 -->
<g id="edge23" class="edge">
<title>Node7&#45;&gt;Node17</title>
<path fill="none" stroke="orange" d="M417.67,-1443.17C408.4,-1415.08 395.38,-1375.63 384,-1341 375.53,-1315.23 383.09,-1303.22 365,-1283 349.76,-1265.97 327.77,-1254.21 307.23,-1246.28"/>
<polygon fill="orange" stroke="orange" points="414.45,-1444.58 420.91,-1452.98 421.09,-1442.38 414.45,-1444.58"/>
<text text-anchor="middle" x="431" y="-1309.5" font-family="Helvetica,sans-Serif" font-size="10.00"> &lt; tshirt::tshirt_state &gt;</text>
</g>
<!-- Node8 -->
<g id="node8" class="node">
<title>Node8</title>
<g id="a_node8"><a xlink:title=" ">
<polygon fill="white" stroke="#bfbfbf" points="722.5,-1651.5 722.5,-1708.5 751.5,-1708.5 751.5,-1651.5 722.5,-1651.5"/>
<text text-anchor="middle" x="737" y="-1696.5" font-family="Helvetica,sans-Serif" font-size="10.00">T</text>
<polyline fill="none" stroke="#bfbfbf" points="722.5,-1689.5 751.5,-1689.5 "/>
<text text-anchor="middle" x="737" y="-1677.5" font-family="Helvetica,sans-Serif" font-size="10.00"> </text>
<polyline fill="none" stroke="#bfbfbf" points="722.5,-1670.5 751.5,-1670.5 "/>
<text text-anchor="middle" x="737" y="-1658.5" font-family="Helvetica,sans-Serif" font-size="10.00"> </text>
</a>
</g>
</g>
<!-- Node8&#45;&gt;Node7 -->
<g id="edge7" class="edge">
<title>Node8&#45;&gt;Node7</title>
<path fill="none" stroke="#404040" d="M722.29,-1676.24C687.11,-1669.1 596.43,-1647.48 534,-1604 501.82,-1581.58 473.49,-1546.92 454.56,-1520.34"/>
<polygon fill="none" stroke="#404040" points="454.38,-1520.08 447.67,-1517.44 447.53,-1510.23 454.24,-1512.87 454.38,-1520.08"/>
<text text-anchor="middle" x="595" y="-1625" font-family="Helvetica,sans-Serif" font-size="10.00"> +ptr</text>
</g>
<!-- Node9 -->
<g id="node9" class="node">
<title>Node9</title>
<g id="a_node9"><a xlink:title="STL class.">
<polygon fill="white" stroke="#bfbfbf" points="695,-1202 695,-1259 779,-1259 779,-1202 695,-1202"/>
<text text-anchor="middle" x="737" y="-1247" font-family="Helvetica,sans-Serif" font-size="10.00">std::vector&lt; T &gt;</text>
<polyline fill="none" stroke="#bfbfbf" points="695,-1240 779,-1240 "/>
<text text-anchor="middle" x="737" y="-1228" font-family="Helvetica,sans-Serif" font-size="10.00"> </text>
<polyline fill="none" stroke="#bfbfbf" points="695,-1221 779,-1221 "/>
<text text-anchor="middle" x="737" y="-1209" font-family="Helvetica,sans-Serif" font-size="10.00"> </text>
</a>
</g>
</g>
<!-- Node8&#45;&gt;Node9 -->
<g id="edge9" class="edge">
<title>Node8&#45;&gt;Node9</title>
<path fill="none" stroke="#404040" d="M737,-1651.34C737,-1574.97 737,-1360.9 737,-1271.51"/>
<polygon fill="none" stroke="#404040" points="737,-1271.26 733,-1265.26 737,-1259.26 741,-1265.26 737,-1271.26"/>
<text text-anchor="middle" x="761.5" y="-1479" font-family="Helvetica,sans-Serif" font-size="10.00"> +elements</text>
</g>
<!-- Node14 -->
<g id="node14" class="node">
<title>Node14</title>
<g id="a_node14"><a xlink:title="STL class.">
<polygon fill="white" stroke="#bfbfbf" points="820,-1283.5 820,-1340.5 922,-1340.5 922,-1283.5 820,-1283.5"/>
<text text-anchor="middle" x="871" y="-1328.5" font-family="Helvetica,sans-Serif" font-size="10.00">std::unique_ptr&lt; T &gt;</text>
<polyline fill="none" stroke="#bfbfbf" points="820,-1321.5 922,-1321.5 "/>
<text text-anchor="middle" x="871" y="-1309.5" font-family="Helvetica,sans-Serif" font-size="10.00"> </text>
<polyline fill="none" stroke="#bfbfbf" points="820,-1302.5 922,-1302.5 "/>
<text text-anchor="start" x="828" y="-1290.5" font-family="Helvetica,sans-Serif" font-size="10.00">+ operator&#45;&gt;()</text>
</a>
</g>
</g>
<!-- Node8&#45;&gt;Node14 -->
<g id="edge16" class="edge">
<title>Node8&#45;&gt;Node14</title>
<path fill="none" stroke="#404040" d="M751.7,-1661.89C763.53,-1647.35 779.81,-1625.46 790,-1604 830.36,-1519 853.94,-1410.2 864.43,-1352.71"/>
<polygon fill="none" stroke="#404040" points="864.48,-1352.4 861.6,-1345.79 866.59,-1340.59 869.47,-1347.19 864.48,-1352.4"/>
<text text-anchor="middle" x="789" y="-1625" font-family="Helvetica,sans-Serif" font-size="10.00"> +ptr</text>
</g>
<!-- Node9&#45;&gt;Node4 -->
<g id="edge8" class="edge">
<title>Node9&#45;&gt;Node4</title>
<path fill="none" stroke="orange" d="M685.29,-1216.33C665.72,-1208.56 645.43,-1196.49 634,-1178 626.59,-1166.01 627.67,-1150.91 631.34,-1137.51"/>
<polygon fill="orange" stroke="orange" points="684.21,-1219.66 694.8,-1219.81 686.61,-1213.09 684.21,-1219.66"/>
<text text-anchor="start" x="634" y="-1170" font-family="Helvetica,sans-Serif" font-size="10.00"> &lt; std::shared_ptr&lt;</text>
<text text-anchor="middle" x="680" y="-1159" font-family="Helvetica,sans-Serif" font-size="10.00"> Reservoir_Outlet &gt; &gt;</text>
</g>
<!-- Node12 -->
<g id="node12" class="node">
<title>Node12</title>
<g id="a_node12"><a xlink:title=" ">
<polygon fill="white" stroke="#bfbfbf" points="540.5,-463 540.5,-531 639.5,-531 639.5,-463 540.5,-463"/>
<text text-anchor="start" x="548.5" y="-519" font-family="Helvetica,sans-Serif" font-size="10.00">std::vector&lt; unique</text>
<text text-anchor="middle" x="590" y="-508" font-family="Helvetica,sans-Serif" font-size="10.00">_ptr&lt; Reservoir &gt; &gt;</text>
<polyline fill="none" stroke="#bfbfbf" points="540.5,-501 639.5,-501 "/>
<text text-anchor="middle" x="590" y="-489" font-family="Helvetica,sans-Serif" font-size="10.00"> </text>
<polyline fill="none" stroke="#bfbfbf" points="540.5,-482 639.5,-482 "/>
<text text-anchor="middle" x="590" y="-470" font-family="Helvetica,sans-Serif" font-size="10.00"> </text>
</a>
</g>
</g>
<!-- Node9&#45;&gt;Node12 -->
<g id="edge17" class="edge">
<title>Node9&#45;&gt;Node12</title>
<path fill="none" stroke="orange" d="M738.38,-1191.62C739.17,-1166.84 740,-1133.75 740,-1104.5 740,-1104.5 740,-1104.5 740,-711 740,-636.37 677.69,-569.46 633.39,-531.32"/>
<polygon fill="orange" stroke="orange" points="734.88,-1191.59 738.05,-1201.7 741.88,-1191.82 734.88,-1191.59"/>
<text text-anchor="middle" x="801" y="-908" font-family="Helvetica,sans-Serif" font-size="10.00"> &lt; unique_ptr&lt; Reservoir &gt; &gt;</text>
</g>
<!-- Node10 -->
<g id="node10" class="node">
<title>Node10</title>
<g id="a_node10"><a xlink:href="structreservoir__parameters.html" target="_top" xlink:title=" ">
<polygon fill="white" stroke="black" points="280,-1069.5 280,-1137.5 420,-1137.5 420,-1069.5 280,-1069.5"/>
<text text-anchor="middle" x="350" y="-1125.5" font-family="Helvetica,sans-Serif" font-size="10.00">reservoir_parameters</text>
<polyline fill="none" stroke="black" points="280,-1118.5 420,-1118.5 "/>
<text text-anchor="start" x="288" y="-1106.5" font-family="Helvetica,sans-Serif" font-size="10.00">+ minimum_storage_meters</text>
<text text-anchor="start" x="288" y="-1095.5" font-family="Helvetica,sans-Serif" font-size="10.00">+ maximum_storage_meters</text>
<polyline fill="none" stroke="black" points="280,-1088.5 420,-1088.5 "/>
<text text-anchor="middle" x="350" y="-1076.5" font-family="Helvetica,sans-Serif" font-size="10.00"> </text>
</a>
</g>
</g>
<!-- Node10&#45;&gt;Node2 -->
<g id="edge10" class="edge">
<title>Node10&#45;&gt;Node2</title>
<path fill="none" stroke="#404040" d="M376.13,-1069.23C391.76,-1049.33 412.4,-1023.04 432.35,-997.64"/>
<polygon fill="none" stroke="#404040" points="432.54,-997.4 433.1,-990.21 439.95,-987.97 439.39,-995.16 432.54,-997.4"/>
<text text-anchor="middle" x="425.5" y="-1043" font-family="Helvetica,sans-Serif" font-size="10.00"> &#45;parameters</text>
</g>
<!-- Node11 -->
<g id="node11" class="node">
<title>Node11</title>
<g id="a_node11"><a xlink:href="structtshirt_1_1tshirt__params.html" target="_top" xlink:title="Structure for containing and organizing the parameters of the Tshirt hydrological model.">
<polygon fill="white" stroke="black" points="84.5,-369.5 84.5,-624.5 223.5,-624.5 223.5,-369.5 84.5,-369.5"/>
<text text-anchor="middle" x="154" y="-612.5" font-family="Helvetica,sans-Serif" font-size="10.00">tshirt::tshirt_params</text>
<polyline fill="none" stroke="black" points="84.5,-605.5 223.5,-605.5 "/>
<text text-anchor="start" x="92.5" y="-593.5" font-family="Helvetica,sans-Serif" font-size="10.00">+ maxsmc</text>
<text text-anchor="start" x="92.5" y="-582.5" font-family="Helvetica,sans-Serif" font-size="10.00">+ wltsmc</text>
<text text-anchor="start" x="92.5" y="-571.5" font-family="Helvetica,sans-Serif" font-size="10.00">+ satdk</text>
<text text-anchor="start" x="92.5" y="-560.5" font-family="Helvetica,sans-Serif" font-size="10.00">+ satpsi</text>
<text text-anchor="start" x="92.5" y="-549.5" font-family="Helvetica,sans-Serif" font-size="10.00">+ slope</text>
<text text-anchor="start" x="92.5" y="-538.5" font-family="Helvetica,sans-Serif" font-size="10.00">+ b</text>
<text text-anchor="start" x="92.5" y="-527.5" font-family="Helvetica,sans-Serif" font-size="10.00">+ multiplier</text>
<text text-anchor="start" x="92.5" y="-516.5" font-family="Helvetica,sans-Serif" font-size="10.00">+ alpha_fc</text>
<text text-anchor="start" x="92.5" y="-505.5" font-family="Helvetica,sans-Serif" font-size="10.00">+ Klf</text>
<text text-anchor="start" x="92.5" y="-494.5" font-family="Helvetica,sans-Serif" font-size="10.00">+ Kn</text>
<text text-anchor="start" x="92.5" y="-483.5" font-family="Helvetica,sans-Serif" font-size="10.00">+ nash_n</text>
<text text-anchor="start" x="92.5" y="-472.5" font-family="Helvetica,sans-Serif" font-size="10.00">+ Cgw</text>
<text text-anchor="start" x="92.5" y="-461.5" font-family="Helvetica,sans-Serif" font-size="10.00">+ Cschaake</text>
<text text-anchor="start" x="92.5" y="-450.5" font-family="Helvetica,sans-Serif" font-size="10.00">+ expon</text>
<text text-anchor="start" x="92.5" y="-439.5" font-family="Helvetica,sans-Serif" font-size="10.00">+ max_soil_storage_meters</text>
<text text-anchor="start" x="92.5" y="-428.5" font-family="Helvetica,sans-Serif" font-size="10.00">+ max_groundwater_storage</text>
<text text-anchor="start" x="92.5" y="-417.5" font-family="Helvetica,sans-Serif" font-size="10.00">_meters</text>
<text text-anchor="start" x="92.5" y="-406.5" font-family="Helvetica,sans-Serif" font-size="10.00">+ max_lateral_flow</text>
<text text-anchor="start" x="92.5" y="-395.5" font-family="Helvetica,sans-Serif" font-size="10.00">+ depth</text>
<polyline fill="none" stroke="black" points="84.5,-388.5 223.5,-388.5 "/>
<text text-anchor="start" x="92.5" y="-376.5" font-family="Helvetica,sans-Serif" font-size="10.00">+ tshirt_params()</text>
</a>
</g>
</g>
<!-- Node11&#45;&gt;Node1 -->
<g id="edge11" class="edge">
<title>Node11&#45;&gt;Node1</title>
<path fill="none" stroke="#404040" d="M161.56,-369.32C163.31,-359.32 165.43,-349.45 168,-340 170.16,-332.04 172.66,-324.01 175.42,-315.97"/>
<polygon fill="none" stroke="#404040" points="175.43,-315.92 173.69,-308.93 179.47,-304.63 181.22,-311.62 175.43,-315.92"/>
<text text-anchor="middle" x="203" y="-343" font-family="Helvetica,sans-Serif" font-size="10.00"> &#45;model_params</text>
</g>
<!-- Node12&#45;&gt;Node1 -->
<g id="edge12" class="edge">
<title>Node12&#45;&gt;Node1</title>
<path fill="none" stroke="#404040" d="M567.89,-462.88C545.21,-430.03 507.97,-379.09 470,-340 428.39,-297.16 376.81,-254.65 334.28,-221.92"/>
<polygon fill="none" stroke="#404040" points="334.05,-221.75 326.85,-221.28 324.51,-214.46 331.71,-214.92 334.05,-221.75"/>
<text text-anchor="middle" x="515" y="-343" font-family="Helvetica,sans-Serif" font-size="10.00"> &#45;soil_lf_nash_res</text>
</g>
<!-- Node13&#45;&gt;Node12 -->
<g id="edge13" class="edge">
<title>Node13&#45;&gt;Node12</title>
<path fill="none" stroke="#404040" d="M590,-683.15C590,-647.62 590,-585.68 590,-543.3"/>
<polygon fill="none" stroke="#404040" points="590,-543.1 586,-537.1 590,-531.1 594,-537.1 590,-543.1"/>
<text text-anchor="middle" x="614.5" y="-651.5" font-family="Helvetica,sans-Serif" font-size="10.00"> +elements</text>
</g>
<!-- Node14&#45;&gt;Node13 -->
<g id="edge15" class="edge">
<title>Node14&#45;&gt;Node13</title>
<path fill="none" stroke="orange" d="M878.75,-1273.45C884,-1244.71 890,-1204.02 890,-1168 890,-1168 890,-1168 890,-909.5 890,-859.24 899.94,-836.07 866,-799 812.96,-741.07 721.62,-721.82 658.64,-715.62"/>
<polygon fill="orange" stroke="orange" points="875.27,-1272.99 876.86,-1283.46 882.15,-1274.29 875.27,-1272.99"/>
<text text-anchor="middle" x="920.5" y="-1101" font-family="Helvetica,sans-Serif" font-size="10.00"> &lt; Reservoir &gt;</text>
</g>
<!-- Node15&#45;&gt;Node1 -->
<g id="edge18" class="edge">
<title>Node15&#45;&gt;Node1</title>
<path fill="none" stroke="#404040" d="M63.08,-1196.42C59.77,-1171.27 56,-1135.78 56,-1104.5 56,-1104.5 56,-1104.5 56,-496 56,-438.93 51.31,-420.93 75,-369 97.52,-319.62 135.43,-272.92 170.4,-236.41"/>
<polygon fill="none" stroke="#404040" points="170.84,-235.95 172.16,-228.86 179.21,-227.35 177.89,-234.44 170.84,-235.95"/>
<text text-anchor="middle" x="71.5" y="-767.5" font-family="Helvetica,sans-Serif" font-size="10.00"> &#45;fluxes</text>
</g>
<!-- Node16 -->
<g id="node16" class="node">
<title>Node16</title>
<g id="a_node16"><a xlink:href="structtshirt_1_1tshirt__fluxes.html" target="_top" xlink:title="Structure for containing and organizing the calculated flux values of the Tshirt hydrological model.">
<polygon fill="white" stroke="black" points="0,-1409 0,-1554 136,-1554 136,-1409 0,-1409"/>
<text text-anchor="middle" x="68" y="-1542" font-family="Helvetica,sans-Serif" font-size="10.00">tshirt::tshirt_fluxes</text>
<polyline fill="none" stroke="black" points="0,-1535 136,-1535 "/>
<text text-anchor="start" x="8" y="-1523" font-family="Helvetica,sans-Serif" font-size="10.00">+ surface_runoff_meters</text>
<text text-anchor="start" x="8" y="-1512" font-family="Helvetica,sans-Serif" font-size="10.00">_per_second</text>
<text text-anchor="start" x="8" y="-1501" font-family="Helvetica,sans-Serif" font-size="10.00">+ groundwater_flow_meters</text>
<text text-anchor="start" x="8" y="-1490" font-family="Helvetica,sans-Serif" font-size="10.00">_per_second</text>
<text text-anchor="start" x="8" y="-1479" font-family="Helvetica,sans-Serif" font-size="10.00">+ soil_percolation_flow</text>
<text text-anchor="start" x="8" y="-1468" font-family="Helvetica,sans-Serif" font-size="10.00">_meters_per_second</text>
<text text-anchor="start" x="8" y="-1457" font-family="Helvetica,sans-Serif" font-size="10.00">+ soil_lateral_flow_meters</text>
<text text-anchor="start" x="8" y="-1446" font-family="Helvetica,sans-Serif" font-size="10.00">_per_second</text>
<text text-anchor="start" x="8" y="-1435" font-family="Helvetica,sans-Serif" font-size="10.00">+ et_loss_meters</text>
<polyline fill="none" stroke="black" points="0,-1428 136,-1428 "/>
<text text-anchor="start" x="8" y="-1416" font-family="Helvetica,sans-Serif" font-size="10.00">+ tshirt_fluxes()</text>
</a>
</g>
</g>
<!-- Node16&#45;&gt;Node15 -->
<g id="edge19" class="edge">
<title>Node16&#45;&gt;Node15</title>
<path fill="none" stroke="#404040" d="M68,-1408.81C68,-1366.4 68,-1313.95 68,-1277.14"/>
<polygon fill="none" stroke="#404040" points="68,-1276.81 64,-1270.81 68,-1264.81 72,-1270.81 68,-1276.81"/>
<text text-anchor="middle" x="78" y="-1309.5" font-family="Helvetica,sans-Serif" font-size="10.00"> +ptr</text>
</g>
<!-- Node17&#45;&gt;Node1 -->
<g id="edge21" class="edge">
<title>Node17&#45;&gt;Node1</title>
<path fill="none" stroke="#404040" d="M252,-1196.34C252,-1171.15 252,-1135.64 252,-1104.5 252,-1104.5 252,-1104.5 252,-496 252,-443.28 252,-385.88 252,-333.77"/>
<polygon fill="none" stroke="#404040" points="252,-333.7 248,-327.7 252,-321.7 256,-327.7 252,-333.7"/>
<text text-anchor="middle" x="287" y="-773" font-family="Helvetica,sans-Serif" font-size="10.00"> &#45;previous_state</text>
<text text-anchor="middle" x="287" y="-762" font-family="Helvetica,sans-Serif" font-size="10.00">&#45;current_state</text>
</g>
<!-- Node18 -->
<g id="node18" class="node">
<title>Node18</title>
<g id="a_node18"><a xlink:href="structtshirt_1_1tshirt__state.html" target="_top" xlink:title="Structure for containing and organizing the state values of the Tshirt hydrological model.">
<polygon fill="white" stroke="black" points="158.5,-1431 158.5,-1532 289.5,-1532 289.5,-1431 158.5,-1431"/>
<text text-anchor="middle" x="224" y="-1520" font-family="Helvetica,sans-Serif" font-size="10.00">tshirt::tshirt_state</text>
<polyline fill="none" stroke="black" points="158.5,-1513 289.5,-1513 "/>
<text text-anchor="start" x="166.5" y="-1501" font-family="Helvetica,sans-Serif" font-size="10.00">+ soil_storage_meters</text>
<text text-anchor="start" x="166.5" y="-1490" font-family="Helvetica,sans-Serif" font-size="10.00">+ groundwater_storage</text>
<text text-anchor="start" x="166.5" y="-1479" font-family="Helvetica,sans-Serif" font-size="10.00">_meters</text>
<text text-anchor="start" x="166.5" y="-1468" font-family="Helvetica,sans-Serif" font-size="10.00">+ nash_cascade_storeage</text>
<text text-anchor="start" x="166.5" y="-1457" font-family="Helvetica,sans-Serif" font-size="10.00">_meters</text>
<polyline fill="none" stroke="black" points="158.5,-1450 289.5,-1450 "/>
<text text-anchor="start" x="166.5" y="-1438" font-family="Helvetica,sans-Serif" font-size="10.00">+ tshirt_state()</text>
</a>
</g>
</g>
<!-- Node18&#45;&gt;Node17 -->
<g id="edge22" class="edge">
<title>Node18&#45;&gt;Node17</title>
<path fill="none" stroke="#404040" d="M217.84,-1431C214.32,-1390.56 212.74,-1332.24 225,-1283 225.58,-1280.69 226.28,-1278.36 227.07,-1276.04"/>
<polygon fill="none" stroke="#404040" points="227.19,-1275.76 225.75,-1268.7 231.72,-1264.65 233.16,-1271.72 227.19,-1275.76"/>
<text text-anchor="middle" x="235" y="-1309.5" font-family="Helvetica,sans-Serif" font-size="10.00"> +ptr</text>
</g>
</g>
</svg>
