<?xml version="1.0" encoding="UTF-8" standalone="no"?>
<!DOCTYPE svg PUBLIC "-//W3C//DTD SVG 1.1//EN"
 "http://www.w3.org/Graphics/SVG/1.1/DTD/svg11.dtd">
<!-- Generated by graphviz version 2.42.3 ()
 -->
<!-- Title: geojson::CollectionFeature Pages: 1 -->
<!--zoomable 959 -->
<svg id="main" version="1.1" xmlns="http://www.w3.org/2000/svg" xmlns:xlink="http://www.w3.org/1999/xlink" xml:space="preserve" onload="init(evt)">
<style type="text/css"><![CDATA[
.edge:hover path { stroke: red; }
.edge:hover polygon { stroke: red; fill: red; }
]]></style>
<script type="text/javascript"><![CDATA[
var edges = document.getElementsByTagName('g');
if (edges && edges.length) {
  for (var i=0;i<edges.length;i++) {
    if (edges[i].id.substr(0,4)=='edge') {
      edges[i].setAttribute('class','edge');
    }
  }
}
]]></script>
        <defs>
                <circle id="rim" cx="0" cy="0" r="7"/>
                <circle id="rim2" cx="0" cy="0" r="3.5"/>
                <g id="zoomPlus">
                        <use xlink:href="#rim" fill="#404040">
                                <set attributeName="fill" to="#808080" begin="zoomplus.mouseover" end="zoomplus.mouseout"/>
                        </use>
                        <path d="M-4,0h8M0,-4v8" fill="none" stroke="white" stroke-width="1.5" pointer-events="none"/>
                </g>
                <g id="zoomMin">
                        <use xlink:href="#rim" fill="#404040">
                                <set attributeName="fill" to="#808080" begin="zoomminus.mouseover" end="zoomminus.mouseout"/>
                        </use>
                        <path d="M-4,0h8" fill="none" stroke="white" stroke-width="1.5" pointer-events="none"/>
                </g>
                <g id="dirArrow">
                        <path fill="none" stroke="white" stroke-width="1.5" d="M0,-3.0v7 M-2.5,-0.5L0,-3.0L2.5,-0.5"/>
                </g>
               <g id="resetDef">
                       <use xlink:href="#rim2" fill="#404040">
                               <set attributeName="fill" to="#808080" begin="reset.mouseover" end="reset.mouseout"/>
                       </use>
               </g>
        </defs>

<script type="text/javascript">
var viewWidth = 620;
var viewHeight = 959;
var sectionId = 'dynsection-1';
</script>
<script xlink:href="svgpan.js"/>
<svg id="graph" class="graph">
<g id="viewport">
<title>geojson::CollectionFeature</title>
<polygon fill="white" stroke="transparent" points="-4,4 -4,-955 615.65,-955 615.65,4 -4,4"/>
<!-- Node1 -->
<g id="node1" class="node">
<title>Node1</title>
<g id="a_node1"><a xlink:title=" ">
<polygon fill="#bfbfbf" stroke="black" points="211.15,-0.5 211.15,-244.5 342.15,-244.5 342.15,-0.5 211.15,-0.5"/>
<text text-anchor="middle" x="276.65" y="-232.5" font-family="Helvetica,sans-Serif" font-size="10.00">geojson::CollectionFeature</text>
<polyline fill="none" stroke="black" points="211.15,-225.5 342.15,-225.5 "/>
<text text-anchor="middle" x="276.65" y="-213.5" font-family="Helvetica,sans-Serif" font-size="10.00"> </text>
<polyline fill="none" stroke="black" points="211.15,-206.5 342.15,-206.5 "/>
<text text-anchor="start" x="219.15" y="-194.5" font-family="Helvetica,sans-Serif" font-size="10.00">+ CollectionFeature()</text>
<text text-anchor="start" x="219.15" y="-183.5" font-family="Helvetica,sans-Serif" font-size="10.00">+ CollectionFeature()</text>
<text text-anchor="start" x="219.15" y="-172.5" font-family="Helvetica,sans-Serif" font-size="10.00">+ CollectionFeature()</text>
<text text-anchor="start" x="219.15" y="-161.5" font-family="Helvetica,sans-Serif" font-size="10.00">+ point()</text>
<text text-anchor="start" x="219.15" y="-150.5" font-family="Helvetica,sans-Serif" font-size="10.00">+ points()</text>
<text text-anchor="start" x="219.15" y="-139.5" font-family="Helvetica,sans-Serif" font-size="10.00">+ linestring()</text>
<text text-anchor="start" x="219.15" y="-128.5" font-family="Helvetica,sans-Serif" font-size="10.00">+ linestrings()</text>
<text text-anchor="start" x="219.15" y="-117.5" font-family="Helvetica,sans-Serif" font-size="10.00">+ polygon()</text>
<text text-anchor="start" x="219.15" y="-106.5" font-family="Helvetica,sans-Serif" font-size="10.00">+ polygons()</text>
<text text-anchor="start" x="219.15" y="-95.5" font-family="Helvetica,sans-Serif" font-size="10.00">+ multipoint()</text>
<text text-anchor="start" x="219.15" y="-84.5" font-family="Helvetica,sans-Serif" font-size="10.00">+ multipoints()</text>
<text text-anchor="start" x="219.15" y="-73.5" font-family="Helvetica,sans-Serif" font-size="10.00">+ multilinestring()</text>
<text text-anchor="start" x="219.15" y="-62.5" font-family="Helvetica,sans-Serif" font-size="10.00">+ multilinestrings()</text>
<text text-anchor="start" x="219.15" y="-51.5" font-family="Helvetica,sans-Serif" font-size="10.00">+ multipolygon()</text>
<text text-anchor="start" x="219.15" y="-40.5" font-family="Helvetica,sans-Serif" font-size="10.00">+ multipolygons()</text>
<text text-anchor="start" x="219.15" y="-29.5" font-family="Helvetica,sans-Serif" font-size="10.00">+ begin()</text>
<text text-anchor="start" x="219.15" y="-18.5" font-family="Helvetica,sans-Serif" font-size="10.00">+ end()</text>
<text text-anchor="start" x="219.15" y="-7.5" font-family="Helvetica,sans-Serif" font-size="10.00">+ visit()</text>
</a>
</g>
</g>
<!-- Node2 -->
<g id="node2" class="node">
<title>Node2</title>
<g id="a_node2"><a xlink:href="classgeojson_1_1_feature_base.html" target="_top" xlink:title="Represents an individual feature within a Geojson definition.">
<polygon fill="white" stroke="black" points="169.65,-331 169.65,-575 309.65,-575 309.65,-331 169.65,-331"/>
<text text-anchor="middle" x="239.65" y="-563" font-family="Helvetica,sans-Serif" font-size="10.00">geojson::FeatureBase</text>
<polyline fill="none" stroke="black" points="169.65,-556 309.65,-556 "/>
<text text-anchor="start" x="177.65" y="-544" font-family="Helvetica,sans-Serif" font-size="10.00"># type</text>
<text text-anchor="start" x="177.65" y="-533" font-family="Helvetica,sans-Serif" font-size="10.00"># geom</text>
<polyline fill="none" stroke="black" points="169.65,-526 309.65,-526 "/>
<text text-anchor="start" x="177.65" y="-514" font-family="Helvetica,sans-Serif" font-size="10.00">+ FeatureBase()</text>
<text text-anchor="start" x="177.65" y="-503" font-family="Helvetica,sans-Serif" font-size="10.00">+ ~FeatureBase()</text>
<text text-anchor="start" x="177.65" y="-492" font-family="Helvetica,sans-Serif" font-size="10.00">+ get_type()</text>
<text text-anchor="start" x="177.65" y="-481" font-family="Helvetica,sans-Serif" font-size="10.00">+ add_upstream_feature()</text>
<text text-anchor="start" x="177.65" y="-470" font-family="Helvetica,sans-Serif" font-size="10.00">+ add_downstream_feature()</text>
<text text-anchor="start" x="177.65" y="-459" font-family="Helvetica,sans-Serif" font-size="10.00">+ get_property()</text>
<text text-anchor="start" x="177.65" y="-448" font-family="Helvetica,sans-Serif" font-size="10.00">+ set_id()</text>
<text text-anchor="start" x="177.65" y="-437" font-family="Helvetica,sans-Serif" font-size="10.00">+ get()</text>
<text text-anchor="start" x="177.65" y="-426" font-family="Helvetica,sans-Serif" font-size="10.00">+ set()</text>
<text text-anchor="start" x="177.65" y="-415" font-family="Helvetica,sans-Serif" font-size="10.00">+ set()</text>
<text text-anchor="start" x="177.65" y="-404" font-family="Helvetica,sans-Serif" font-size="10.00">+ set()</text>
<text text-anchor="start" x="177.65" y="-393" font-family="Helvetica,sans-Serif" font-size="10.00">+ set()</text>
<text text-anchor="start" x="177.65" y="-382" font-family="Helvetica,sans-Serif" font-size="10.00">+ set()</text>
<text text-anchor="start" x="177.65" y="-371" font-family="Helvetica,sans-Serif" font-size="10.00">+ set()</text>
<text text-anchor="start" x="177.65" y="-360" font-family="Helvetica,sans-Serif" font-size="10.00">+ set()</text>
<text text-anchor="start" x="177.65" y="-349" font-family="Helvetica,sans-Serif" font-size="10.00">and 21 more...</text>
<text text-anchor="start" x="177.65" y="-338" font-family="Helvetica,sans-Serif" font-size="10.00"># FeatureBase()</text>
</a>
</g>
</g>
<!-- Node2&#45;&gt;Node1 -->
<g id="edge1" class="edge">
<title>Node2&#45;&gt;Node1</title>
<path fill="none" stroke="midnightblue" d="M258.38,-320.66C259.9,-308.61 261.35,-296.59 262.65,-285 264.11,-271.99 265.5,-258.39 266.8,-244.82"/>
<polygon fill="none" stroke="midnightblue" points="254.88,-320.41 257.08,-330.78 261.82,-321.3 254.88,-320.41"/>
</g>
<!-- Node3 -->
<g id="node3" class="node">
<title>Node3</title>
<g id="a_node3"><a xlink:title=" ">
<polygon fill="white" stroke="#bfbfbf" points="78.65,-88.5 78.65,-156.5 182.65,-156.5 182.65,-88.5 78.65,-88.5"/>
<text text-anchor="start" x="86.65" y="-144.5" font-family="Helvetica,sans-Serif" font-size="10.00">std::vector&lt; geojson</text>
<text text-anchor="middle" x="130.65" y="-133.5" font-family="Helvetica,sans-Serif" font-size="10.00">::FeatureBase * &gt;</text>
<polyline fill="none" stroke="#bfbfbf" points="78.65,-126.5 182.65,-126.5 "/>
<text text-anchor="middle" x="130.65" y="-114.5" font-family="Helvetica,sans-Serif" font-size="10.00"> </text>
<polyline fill="none" stroke="#bfbfbf" points="78.65,-107.5 182.65,-107.5 "/>
<text text-anchor="middle" x="130.65" y="-95.5" font-family="Helvetica,sans-Serif" font-size="10.00"> </text>
</a>
</g>
</g>
<!-- Node2&#45;&gt;Node3 -->
<g id="edge3" class="edge">
<title>Node2&#45;&gt;Node3</title>
<path fill="none" stroke="#404040" d="M169.52,-368.17C152.44,-342.98 136.54,-314.22 127.65,-285 116.11,-247.06 118.23,-201.74 122.45,-168.79"/>
<polygon fill="none" stroke="#404040" points="122.46,-168.68 119.34,-162.18 124.14,-156.8 127.27,-163.3 122.46,-168.68"/>
<text text-anchor="middle" x="152.15" y="-271.5" font-family="Helvetica,sans-Serif" font-size="10.00"> +elements</text>
</g>
<!-- Node3&#45;&gt;Node2 -->
<g id="edge2" class="edge">
<title>Node3&#45;&gt;Node2</title>
<path fill="none" stroke="#404040" d="M142.96,-156.62C153.33,-184.8 168.39,-226.41 180.65,-263 186.71,-281.08 192.92,-300.21 198.92,-319.07"/>
<polygon fill="none" stroke="#404040" points="199,-319.33 204.63,-323.84 202.63,-330.77 197,-326.26 199,-319.33"/>
<text text-anchor="middle" x="217.15" y="-277" font-family="Helvetica,sans-Serif" font-size="10.00"> #upstream</text>
<text text-anchor="middle" x="217.15" y="-266" font-family="Helvetica,sans-Serif" font-size="10.00">#downstream</text>
</g>
<!-- Node4 -->
<g id="node4" class="node">
<title>Node4</title>
<g id="a_node4"><a xlink:title="STL class.">
<polygon fill="white" stroke="#bfbfbf" points="141.65,-777.5 141.65,-834.5 225.65,-834.5 225.65,-777.5 141.65,-777.5"/>
<text text-anchor="middle" x="183.65" y="-822.5" font-family="Helvetica,sans-Serif" font-size="10.00">std::vector&lt; T &gt;</text>
<polyline fill="none" stroke="#bfbfbf" points="141.65,-815.5 225.65,-815.5 "/>
<text text-anchor="middle" x="183.65" y="-803.5" font-family="Helvetica,sans-Serif" font-size="10.00"> </text>
<polyline fill="none" stroke="#bfbfbf" points="141.65,-796.5 225.65,-796.5 "/>
<text text-anchor="middle" x="183.65" y="-784.5" font-family="Helvetica,sans-Serif" font-size="10.00"> </text>
</a>
</g>
</g>
<!-- Node4&#45;&gt;Node3 -->
<g id="edge4" class="edge">
<title>Node4&#45;&gt;Node3</title>
<path fill="none" stroke="orange" d="M132.51,-783.11C107.32,-770.41 77.88,-752.45 56.65,-730 26.75,-698.37 21.94,-685.3 11.65,-643 -32.92,-459.82 68.84,-239.15 112.23,-156.7"/>
<polygon fill="orange" stroke="orange" points="131.05,-786.29 141.57,-787.55 134.13,-780.01 131.05,-786.29"/>
<text text-anchor="middle" x="71.15" y="-629.5" font-family="Helvetica,sans-Serif" font-size="10.00"> &lt; geojson::FeatureBase * &gt;</text>
</g>
<!-- Node6 -->
<g id="node6" class="node">
<title>Node6</title>
<g id="a_node6"><a xlink:title=" ">
<polygon fill="white" stroke="#bfbfbf" points="65.65,-661.5 65.65,-729.5 171.65,-729.5 171.65,-661.5 65.65,-661.5"/>
<text text-anchor="start" x="73.65" y="-717.5" font-family="Helvetica,sans-Serif" font-size="10.00">std::vector&lt;::geojson</text>
<text text-anchor="middle" x="118.65" y="-706.5" font-family="Helvetica,sans-Serif" font-size="10.00">::geometry &gt;</text>
<polyline fill="none" stroke="#bfbfbf" points="65.65,-699.5 171.65,-699.5 "/>
<text text-anchor="start" x="73.65" y="-687.5" font-family="Helvetica,sans-Serif" font-size="10.00">+ elements</text>
<polyline fill="none" stroke="#bfbfbf" points="65.65,-680.5 171.65,-680.5 "/>
<text text-anchor="middle" x="118.65" y="-668.5" font-family="Helvetica,sans-Serif" font-size="10.00"> </text>
</a>
</g>
</g>
<!-- Node4&#45;&gt;Node6 -->
<g id="edge7" class="edge">
<title>Node4&#45;&gt;Node6</title>
<path fill="none" stroke="orange" d="M133.26,-778.87C126.58,-773.23 120.67,-766.63 116.65,-759 112,-750.16 110.95,-739.6 111.51,-729.7"/>
<polygon fill="orange" stroke="orange" points="131.31,-781.78 141.38,-785.05 135.54,-776.21 131.31,-781.78"/>
<text text-anchor="middle" x="166.65" y="-751" font-family="Helvetica,sans-Serif" font-size="10.00"> &lt;::geojson::geometry &gt;</text>
</g>
<!-- Node13 -->
<g id="node13" class="node">
<title>Node13</title>
<g id="a_node13"><a xlink:title=" ">
<polygon fill="white" stroke="#bfbfbf" points="189.15,-667 189.15,-724 296.15,-724 296.15,-667 189.15,-667"/>
<text text-anchor="middle" x="242.65" y="-712" font-family="Helvetica,sans-Serif" font-size="10.00">std::vector&lt; double &gt;</text>
<polyline fill="none" stroke="#bfbfbf" points="189.15,-705 296.15,-705 "/>
<text text-anchor="start" x="197.15" y="-693" font-family="Helvetica,sans-Serif" font-size="10.00">+ elements</text>
<polyline fill="none" stroke="#bfbfbf" points="189.15,-686 296.15,-686 "/>
<text text-anchor="middle" x="242.65" y="-674" font-family="Helvetica,sans-Serif" font-size="10.00"> </text>
</a>
</g>
</g>
<!-- Node4&#45;&gt;Node13 -->
<g id="edge19" class="edge">
<title>Node4&#45;&gt;Node13</title>
<path fill="none" stroke="orange" d="M214.28,-769.22C216.58,-765.86 218.74,-762.43 220.65,-759 226.69,-748.14 231.55,-735.33 235.15,-724.13"/>
<polygon fill="orange" stroke="orange" points="211.4,-767.22 208.34,-777.36 217.06,-771.34 211.4,-767.22"/>
<text text-anchor="middle" x="249.65" y="-751" font-family="Helvetica,sans-Serif" font-size="10.00"> &lt; double &gt;</text>
</g>
<!-- Node5 -->
<g id="node5" class="node">
<title>Node5</title>
<g id="a_node5"><a xlink:title=" ">
<polygon fill="white" stroke="#bfbfbf" points="246.15,-888 246.15,-945 275.15,-945 275.15,-888 246.15,-888"/>
<text text-anchor="middle" x="260.65" y="-933" font-family="Helvetica,sans-Serif" font-size="10.00">T</text>
<polyline fill="none" stroke="#bfbfbf" points="246.15,-926 275.15,-926 "/>
<text text-anchor="middle" x="260.65" y="-914" font-family="Helvetica,sans-Serif" font-size="10.00"> </text>
<polyline fill="none" stroke="#bfbfbf" points="246.15,-907 275.15,-907 "/>
<text text-anchor="middle" x="260.65" y="-895" font-family="Helvetica,sans-Serif" font-size="10.00"> </text>
</a>
</g>
</g>
<!-- Node5&#45;&gt;Node4 -->
<g id="edge5" class="edge">
<title>Node5&#45;&gt;Node4</title>
<path fill="none" stroke="#404040" d="M245.99,-894.84C235.94,-880.68 222.33,-861.5 210.38,-844.67"/>
<polygon fill="none" stroke="#404040" points="210.16,-844.35 203.42,-841.77 203.21,-834.56 209.95,-837.14 210.16,-844.35"/>
<text text-anchor="middle" x="247.15" y="-856" font-family="Helvetica,sans-Serif" font-size="10.00"> +elements</text>
</g>
<!-- Node11 -->
<g id="node11" class="node">
<title>Node11</title>
<g id="a_node11"><a xlink:title="STL class.">
<polygon fill="white" stroke="#bfbfbf" points="315.65,-777.5 315.65,-834.5 403.65,-834.5 403.65,-777.5 315.65,-777.5"/>
<text text-anchor="middle" x="359.65" y="-822.5" font-family="Helvetica,sans-Serif" font-size="10.00">std::map&lt; K, T &gt;</text>
<polyline fill="none" stroke="#bfbfbf" points="315.65,-815.5 403.65,-815.5 "/>
<text text-anchor="middle" x="359.65" y="-803.5" font-family="Helvetica,sans-Serif" font-size="10.00"> </text>
<polyline fill="none" stroke="#bfbfbf" points="315.65,-796.5 403.65,-796.5 "/>
<text text-anchor="middle" x="359.65" y="-784.5" font-family="Helvetica,sans-Serif" font-size="10.00"> </text>
</a>
</g>
</g>
<!-- Node5&#45;&gt;Node11 -->
<g id="edge17" class="edge">
<title>Node5&#45;&gt;Node11</title>
<path fill="none" stroke="#404040" d="M275.26,-899.49C288.57,-884.9 308.73,-862.8 326.01,-843.87"/>
<polygon fill="none" stroke="#404040" points="326.13,-843.74 327.22,-836.61 334.22,-834.87 333.13,-842 326.13,-843.74"/>
<text text-anchor="middle" x="341.15" y="-856" font-family="Helvetica,sans-Serif" font-size="10.00"> +elements</text>
</g>
<!-- Node6&#45;&gt;Node2 -->
<g id="edge6" class="edge">
<title>Node6&#45;&gt;Node2</title>
<path fill="none" stroke="#404040" d="M127.84,-661.38C131.82,-648.54 136.89,-633.86 142.65,-621 148.98,-606.86 156.19,-592.38 163.75,-578.14"/>
<polygon fill="none" stroke="#404040" points="163.9,-577.88 163.22,-570.7 169.59,-567.31 170.26,-574.49 163.9,-577.88"/>
<text text-anchor="middle" x="189.65" y="-629.5" font-family="Helvetica,sans-Serif" font-size="10.00"> #geometry_collection</text>
</g>
<!-- Node7 -->
<g id="node7" class="node">
<title>Node7</title>
<g id="a_node7"><a xlink:title="STL class.">
<polygon fill="white" stroke="#bfbfbf" points="505.15,-777.5 505.15,-834.5 564.15,-834.5 564.15,-777.5 505.15,-777.5"/>
<text text-anchor="middle" x="534.65" y="-822.5" font-family="Helvetica,sans-Serif" font-size="10.00">std::string</text>
<polyline fill="none" stroke="#bfbfbf" points="505.15,-815.5 564.15,-815.5 "/>
<text text-anchor="middle" x="534.65" y="-803.5" font-family="Helvetica,sans-Serif" font-size="10.00"> </text>
<polyline fill="none" stroke="#bfbfbf" points="505.15,-796.5 564.15,-796.5 "/>
<text text-anchor="middle" x="534.65" y="-784.5" font-family="Helvetica,sans-Serif" font-size="10.00"> </text>
</a>
</g>
</g>
<!-- Node7&#45;&gt;Node2 -->
<g id="edge8" class="edge">
<title>Node7&#45;&gt;Node2</title>
<path fill="none" stroke="#404040" d="M543.55,-777.47C554.49,-737.78 567.33,-664.47 529.65,-621 498.64,-585.22 467.81,-622.48 424.65,-603 386.67,-585.86 349.85,-559.04 319.19,-532.84"/>
<polygon fill="none" stroke="#404040" points="318.93,-532.62 311.78,-531.7 309.88,-524.75 317.03,-525.67 318.93,-532.62"/>
<text text-anchor="middle" x="562.65" y="-693" font-family="Helvetica,sans-Serif" font-size="10.00"> #id</text>
</g>
<!-- Node9 -->
<g id="node9" class="node">
<title>Node9</title>
<g id="a_node9"><a xlink:title=" ">
<polygon fill="white" stroke="#bfbfbf" points="382.15,-661.5 382.15,-729.5 489.15,-729.5 489.15,-661.5 382.15,-661.5"/>
<text text-anchor="start" x="390.15" y="-717.5" font-family="Helvetica,sans-Serif" font-size="10.00">std::map&lt; std::string,</text>
<text text-anchor="middle" x="435.65" y="-706.5" font-family="Helvetica,sans-Serif" font-size="10.00"> JSONProperty &gt;</text>
<polyline fill="none" stroke="#bfbfbf" points="382.15,-699.5 489.15,-699.5 "/>
<text text-anchor="middle" x="435.65" y="-687.5" font-family="Helvetica,sans-Serif" font-size="10.00"> </text>
<polyline fill="none" stroke="#bfbfbf" points="382.15,-680.5 489.15,-680.5 "/>
<text text-anchor="middle" x="435.65" y="-668.5" font-family="Helvetica,sans-Serif" font-size="10.00"> </text>
</a>
</g>
</g>
<!-- Node7&#45;&gt;Node9 -->
<g id="edge11" class="edge">
<title>Node7&#45;&gt;Node9</title>
<path fill="none" stroke="#404040" d="M514.7,-777.31C507.44,-767.76 498.98,-757.16 490.65,-748 487.71,-744.76 484.59,-741.49 481.4,-738.25"/>
<polygon fill="none" stroke="#404040" points="481.38,-738.22 474.3,-736.84 472.85,-729.78 479.93,-731.16 481.38,-738.22"/>
<text text-anchor="middle" x="514.15" y="-751" font-family="Helvetica,sans-Serif" font-size="10.00"> +keys</text>
</g>
<!-- Node10 -->
<g id="node10" class="node">
<title>Node10</title>
<g id="a_node10"><a xlink:href="classgeojson_1_1_j_s_o_n_property.html" target="_top" xlink:title="@TODO: Convert JSONProperty into a variant of the supported types">
<polygon fill="white" stroke="black" points="433.65,-303.5 433.65,-602.5 551.65,-602.5 551.65,-303.5 433.65,-303.5"/>
<text text-anchor="middle" x="492.65" y="-590.5" font-family="Helvetica,sans-Serif" font-size="10.00">geojson::JSONProperty</text>
<polyline fill="none" stroke="black" points="433.65,-583.5 551.65,-583.5 "/>
<text text-anchor="start" x="441.65" y="-571.5" font-family="Helvetica,sans-Serif" font-size="10.00">&#45; type</text>
<text text-anchor="start" x="441.65" y="-560.5" font-family="Helvetica,sans-Serif" font-size="10.00">&#45; natural_number</text>
<text text-anchor="start" x="441.65" y="-549.5" font-family="Helvetica,sans-Serif" font-size="10.00">&#45; real_number</text>
<text text-anchor="start" x="441.65" y="-538.5" font-family="Helvetica,sans-Serif" font-size="10.00">&#45; boolean</text>
<polyline fill="none" stroke="black" points="433.65,-531.5 551.65,-531.5 "/>
<text text-anchor="start" x="441.65" y="-519.5" font-family="Helvetica,sans-Serif" font-size="10.00">+ JSONProperty()</text>
<text text-anchor="start" x="441.65" y="-508.5" font-family="Helvetica,sans-Serif" font-size="10.00">+ JSONProperty()</text>
<text text-anchor="start" x="441.65" y="-497.5" font-family="Helvetica,sans-Serif" font-size="10.00">+ JSONProperty()</text>
<text text-anchor="start" x="441.65" y="-486.5" font-family="Helvetica,sans-Serif" font-size="10.00">+ JSONProperty()</text>
<text text-anchor="start" x="441.65" y="-475.5" font-family="Helvetica,sans-Serif" font-size="10.00">+ JSONProperty()</text>
<text text-anchor="start" x="441.65" y="-464.5" font-family="Helvetica,sans-Serif" font-size="10.00">+ JSONProperty()</text>
<text text-anchor="start" x="441.65" y="-453.5" font-family="Helvetica,sans-Serif" font-size="10.00">+ JSONProperty()</text>
<text text-anchor="start" x="441.65" y="-442.5" font-family="Helvetica,sans-Serif" font-size="10.00">+ JSONProperty()</text>
<text text-anchor="start" x="441.65" y="-431.5" font-family="Helvetica,sans-Serif" font-size="10.00">+ ~JSONProperty()</text>
<text text-anchor="start" x="441.65" y="-420.5" font-family="Helvetica,sans-Serif" font-size="10.00">+ JSONProperty()</text>
<text text-anchor="start" x="441.65" y="-409.5" font-family="Helvetica,sans-Serif" font-size="10.00">+ JSONProperty()</text>
<text text-anchor="start" x="441.65" y="-398.5" font-family="Helvetica,sans-Serif" font-size="10.00">+ get_type()</text>
<text text-anchor="start" x="441.65" y="-387.5" font-family="Helvetica,sans-Serif" font-size="10.00">+ as_natural_number()</text>
<text text-anchor="start" x="441.65" y="-376.5" font-family="Helvetica,sans-Serif" font-size="10.00">+ as_real_number()</text>
<text text-anchor="start" x="441.65" y="-365.5" font-family="Helvetica,sans-Serif" font-size="10.00">+ as_boolean()</text>
<text text-anchor="start" x="441.65" y="-354.5" font-family="Helvetica,sans-Serif" font-size="10.00">+ as_string()</text>
<text text-anchor="start" x="441.65" y="-343.5" font-family="Helvetica,sans-Serif" font-size="10.00">+ at()</text>
<text text-anchor="start" x="441.65" y="-332.5" font-family="Helvetica,sans-Serif" font-size="10.00">+ keys()</text>
<text text-anchor="start" x="441.65" y="-321.5" font-family="Helvetica,sans-Serif" font-size="10.00">+ get_values()</text>
<text text-anchor="start" x="441.65" y="-310.5" font-family="Helvetica,sans-Serif" font-size="10.00">+ get_key()</text>
</a>
</g>
</g>
<!-- Node7&#45;&gt;Node10 -->
<g id="edge13" class="edge">
<title>Node7&#45;&gt;Node10</title>
<path fill="none" stroke="#404040" d="M559.51,-777.39C563.74,-771.62 567.71,-765.35 570.65,-759 589,-719.41 579.9,-704.52 576.65,-661 575.32,-643.07 575.84,-638.21 570.65,-621 566.65,-607.72 561.76,-594.14 556.41,-580.76"/>
<polygon fill="none" stroke="#404040" points="556.37,-580.67 550.39,-576.64 551.81,-569.57 557.79,-573.6 556.37,-580.67"/>
<text text-anchor="middle" x="596.65" y="-698.5" font-family="Helvetica,sans-Serif" font-size="10.00"> &#45;string</text>
<text text-anchor="middle" x="596.65" y="-687.5" font-family="Helvetica,sans-Serif" font-size="10.00">&#45;key</text>
</g>
<!-- Node8 -->
<g id="node8" class="node">
<title>Node8</title>
<g id="a_node8"><a xlink:title="STL class.">
<polygon fill="white" stroke="#bfbfbf" points="345.15,-882.5 345.15,-950.5 438.15,-950.5 438.15,-882.5 345.15,-882.5"/>
<text text-anchor="start" x="353.15" y="-938.5" font-family="Helvetica,sans-Serif" font-size="10.00">std::basic_string&lt;</text>
<text text-anchor="middle" x="391.65" y="-927.5" font-family="Helvetica,sans-Serif" font-size="10.00"> char &gt;</text>
<polyline fill="none" stroke="#bfbfbf" points="345.15,-920.5 438.15,-920.5 "/>
<text text-anchor="middle" x="391.65" y="-908.5" font-family="Helvetica,sans-Serif" font-size="10.00"> </text>
<polyline fill="none" stroke="#bfbfbf" points="345.15,-901.5 438.15,-901.5 "/>
<text text-anchor="middle" x="391.65" y="-889.5" font-family="Helvetica,sans-Serif" font-size="10.00"> </text>
</a>
</g>
</g>
<!-- Node8&#45;&gt;Node7 -->
<g id="edge9" class="edge">
<title>Node8&#45;&gt;Node7</title>
<path fill="none" stroke="midnightblue" d="M400.43,-872.53C403.39,-865.37 407.35,-858.5 412.65,-853 437.32,-827.42 477.62,-815.91 505.1,-810.84"/>
<polygon fill="none" stroke="midnightblue" points="396.98,-871.77 396.97,-882.37 403.59,-874.09 396.98,-871.77"/>
</g>
<!-- Node9&#45;&gt;Node2 -->
<g id="edge10" class="edge">
<title>Node9&#45;&gt;Node2</title>
<path fill="none" stroke="#404040" d="M382.02,-671.04C368.44,-663.43 354.61,-654.04 343.65,-643 327.06,-626.29 312.35,-606.38 299.59,-585.86"/>
<polygon fill="none" stroke="#404040" points="299.49,-585.7 292.96,-582.63 293.29,-575.42 299.81,-578.49 299.49,-585.7"/>
<text text-anchor="middle" x="385.15" y="-635" font-family="Helvetica,sans-Serif" font-size="10.00"> #foreign_members</text>
<text text-anchor="middle" x="385.15" y="-624" font-family="Helvetica,sans-Serif" font-size="10.00">#properties</text>
</g>
<!-- Node9&#45;&gt;Node10 -->
<g id="edge14" class="edge">
<title>Node9&#45;&gt;Node10</title>
<path fill="none" stroke="#404040" d="M431.33,-661.37C430.44,-648.67 430.37,-634.08 432.65,-621 433.03,-618.82 433.44,-616.63 433.87,-614.43"/>
<polygon fill="none" stroke="#404040" points="433.88,-614.36 431.22,-607.66 436.39,-602.63 439.05,-609.33 433.88,-614.36"/>
<text text-anchor="middle" x="449.65" y="-629.5" font-family="Helvetica,sans-Serif" font-size="10.00"> &#45;values</text>
</g>
<!-- Node10&#45;&gt;Node9 -->
<g id="edge12" class="edge">
<title>Node10&#45;&gt;Node9</title>
<path fill="none" stroke="#404040" d="M482.27,-602.65C479.25,-616.5 475.44,-630.15 470.65,-643 469.7,-645.55 468.6,-648.1 467.39,-650.62"/>
<polygon fill="none" stroke="#404040" points="467.23,-650.9 467.85,-658.08 461.46,-661.42 460.84,-654.24 467.23,-650.9"/>
<text text-anchor="middle" x="501.15" y="-629.5" font-family="Helvetica,sans-Serif" font-size="10.00"> +elements</text>
</g>
<!-- Node11&#45;&gt;Node9 -->
<g id="edge15" class="edge">
<title>Node11&#45;&gt;Node9</title>
<path fill="none" stroke="orange" d="M355.37,-767C355.98,-760.38 357.55,-753.78 360.65,-748 365.74,-738.54 373.41,-730.47 381.95,-723.72"/>
<polygon fill="orange" stroke="orange" points="351.86,-767.21 355.1,-777.3 358.86,-767.39 351.86,-767.21"/>
<text text-anchor="middle" x="425.65" y="-751" font-family="Helvetica,sans-Serif" font-size="10.00"> &lt; std::string, JSONProperty &gt;</text>
</g>
<!-- Node12 -->
<g id="node12" class="node">
<title>Node12</title>
<g id="a_node12"><a xlink:title=" ">
<polygon fill="white" stroke="#bfbfbf" points="456.15,-888 456.15,-945 485.15,-945 485.15,-888 456.15,-888"/>
<text text-anchor="middle" x="470.65" y="-933" font-family="Helvetica,sans-Serif" font-size="10.00">K</text>
<polyline fill="none" stroke="#bfbfbf" points="456.15,-926 485.15,-926 "/>
<text text-anchor="middle" x="470.65" y="-914" font-family="Helvetica,sans-Serif" font-size="10.00"> </text>
<polyline fill="none" stroke="#bfbfbf" points="456.15,-907 485.15,-907 "/>
<text text-anchor="middle" x="470.65" y="-895" font-family="Helvetica,sans-Serif" font-size="10.00"> </text>
</a>
</g>
</g>
<!-- Node12&#45;&gt;Node11 -->
<g id="edge16" class="edge">
<title>Node12&#45;&gt;Node11</title>
<path fill="none" stroke="#404040" d="M456.14,-893.65C453.17,-889.64 449.93,-885.59 446.65,-882 434.08,-868.25 419.1,-854.54 405.14,-842.68"/>
<polygon fill="none" stroke="#404040" points="404.89,-842.48 397.72,-841.7 395.68,-834.79 402.85,-835.56 404.89,-842.48"/>
<text text-anchor="middle" x="441.15" y="-856" font-family="Helvetica,sans-Serif" font-size="10.00"> +keys</text>
</g>
<!-- Node13&#45;&gt;Node2 -->
<g id="edge18" class="edge">
<title>Node13&#45;&gt;Node2</title>
<path fill="none" stroke="#404040" d="M241.41,-666.98C241.11,-659.22 240.82,-650.78 240.65,-643 240.26,-625.04 239.98,-606.11 239.8,-587.46"/>
<polygon fill="none" stroke="#404040" points="239.8,-587.25 235.75,-581.29 239.69,-575.25 243.75,-581.22 239.8,-587.25"/>
<text text-anchor="middle" x="274.15" y="-629.5" font-family="Helvetica,sans-Serif" font-size="10.00"> #bounding_box</text>
</g>
</g>
</svg>
        <g id="navigator" transform="translate(0 0)" fill="#404254">
                <rect fill="#f2f5e9" fill-opacity="0.5" stroke="#606060" stroke-width=".5" x="0" y="0" width="60" height="60"/>
                <use id="zoomplus" xlink:href="#zoomPlus" x="17" y="9" onmousedown="handleZoom(evt,'in')"/>
                <use id="zoomminus" xlink:href="#zoomMin" x="42" y="9" onmousedown="handleZoom(evt,'out')"/>
                <use id="reset" xlink:href="#resetDef" x="30" y="36" onmousedown="handleReset()"/>
                <g id="arrowUp" xlink:href="#dirArrow" transform="translate(30 24)" onmousedown="handlePan(0,-1)">
                  <use xlink:href="#rim" fill="#404040">
                        <set attributeName="fill" to="#808080" begin="arrowUp.mouseover" end="arrowUp.mouseout"/>
                  </use>
                  <path fill="none" stroke="white" stroke-width="1.5" d="M0,-3.0v7 M-2.5,-0.5L0,-3.0L2.5,-0.5"/>
                </g>
                <g id="arrowRight" xlink:href="#dirArrow" transform="rotate(90) translate(36 -43)" onmousedown="handlePan(1,0)">
                  <use xlink:href="#rim" fill="#404040">
                        <set attributeName="fill" to="#808080" begin="arrowRight.mouseover" end="arrowRight.mouseout"/>
                  </use>
                  <path fill="none" stroke="white" stroke-width="1.5" d="M0,-3.0v7 M-2.5,-0.5L0,-3.0L2.5,-0.5"/>
                </g>
                <g id="arrowDown" xlink:href="#dirArrow" transform="rotate(180) translate(-30 -48)" onmousedown="handlePan(0,1)">
                  <use xlink:href="#rim" fill="#404040">
                        <set attributeName="fill" to="#808080" begin="arrowDown.mouseover" end="arrowDown.mouseout"/>
                  </use>
                  <path fill="none" stroke="white" stroke-width="1.5" d="M0,-3.0v7 M-2.5,-0.5L0,-3.0L2.5,-0.5"/>
                </g>
                <g id="arrowLeft" xlink:href="#dirArrow" transform="rotate(270) translate(-36 17)" onmousedown="handlePan(-1,0)">
                  <use xlink:href="#rim" fill="#404040">
                        <set attributeName="fill" to="#808080" begin="arrowLeft.mouseover" end="arrowLeft.mouseout"/>
                  </use>
                  <path fill="none" stroke="white" stroke-width="1.5" d="M0,-3.0v7 M-2.5,-0.5L0,-3.0L2.5,-0.5"/>
                </g>
        </g>
        <svg viewBox="0 0 15 15" width="100%" height="30px" preserveAspectRatio="xMaxYMin meet">
         <g id="arrow_out" transform="scale(0.3 0.3)">
          <a xlink:href="classgeojson_1_1_collection_feature__coll__graph_org.svg" target="_base">
           <rect id="button" ry="5" rx="5" y="6" x="6" height="38" width="38"
                fill="#f2f5e9" fill-opacity="0.5" stroke="#606060" stroke-width="1.0"/>
           <path id="arrow"
             d="M 11.500037,31.436501 C 11.940474,20.09759 22.043105,11.32322 32.158766,21.979434 L 37.068811,17.246167 C 37.068811,17.246167 37.088388,32 37.088388,32 L 22.160133,31.978069 C 22.160133,31.978069 26.997745,27.140456 26.997745,27.140456 C 18.528582,18.264221 13.291696,25.230495 11.500037,31.436501 z"
             style="fill:#404040;"/>
          </a>
         </g>
        </svg>
</svg>
