<?xml version="1.0" encoding="UTF-8" standalone="no"?>
<!DOCTYPE svg PUBLIC "-//W3C//DTD SVG 1.1//EN"
 "http://www.w3.org/Graphics/SVG/1.1/DTD/svg11.dtd">
<!-- Generated by graphviz version 2.44.0 ()
 -->
<!-- Title: Graphical Class Hierarchy Pages: 1 -->
<svg width="255pt" height="78pt"
 viewBox="0.00 0.00 255.00 77.50" xmlns="http://www.w3.org/2000/svg" xmlns:xlink="http://www.w3.org/1999/xlink">
<g id="graph0" class="graph" transform="scale(1 1) rotate(0) translate(4 73.5)">
<title>Graphical Class Hierarchy</title>
<polygon fill="white" stroke="transparent" points="-4,4 -4,-73.5 251,-73.5 251,4 -4,4"/>
<!-- Node0 -->
<g id="node1" class="node">
<title>Node0</title>
<g id="a_node1"><a xlink:href="class_reservoir___outlet.html" target="_top" xlink:title="Base Single Reservior Outlet Class.">
<polygon fill="white" stroke="black" points="0,-22.5 0,-41.5 89,-41.5 89,-22.5 0,-22.5"/>
<text text-anchor="middle" x="44.5" y="-29.5" font-family="Helvetica,sans-Serif" font-size="10.00">Reservoir_Outlet</text>
</a>
</g>
</g>
<!-- Node1 -->
<g id="node2" class="node">
<title>Node1</title>
<g id="a_node2"><a xlink:href="class_reservoir___exponential___outlet.html" target="_top" xlink:title="Single Exponential Reservoir Outlet Class This class is for a single exponential reservoir outlet tha...">
<polygon fill="white" stroke="black" points="129.5,-39 129.5,-69 242.5,-69 242.5,-39 129.5,-39"/>
<text text-anchor="start" x="137.5" y="-57" font-family="Helvetica,sans-Serif" font-size="10.00">Reservoir_Exponential</text>
<text text-anchor="middle" x="186" y="-46" font-family="Helvetica,sans-Serif" font-size="10.00">_Outlet</text>
</a>
</g>
</g>
<!-- Node0&#45;&gt;Node1 -->
<g id="edge1" class="edge">
<title>Node0&#45;&gt;Node1</title>
<path fill="none" stroke="midnightblue" d="M99.31,-40.49C109.16,-42.04 119.44,-43.66 129.34,-45.22"/>
<polygon fill="midnightblue" stroke="midnightblue" points="99.68,-37 89.26,-38.9 98.59,-43.92 99.68,-37"/>
</g>
<!-- Node2 -->
<g id="node3" class="node">
<title>Node2</title>
<g id="a_node3"><a xlink:href="class_reservoir___linear___outlet.html" target="_top" xlink:title="Single Linear Reservior Outlet Class This class is for a single linear reservoir outlet that is deriv...">
<polygon fill="white" stroke="black" points="125,-0.5 125,-19.5 247,-19.5 247,-0.5 125,-0.5"/>
<text text-anchor="middle" x="186" y="-7.5" font-family="Helvetica,sans-Serif" font-size="10.00">Reservoir_Linear_Outlet</text>
</a>
</g>
</g>
<!-- Node0&#45;&gt;Node2 -->
<g id="edge2" class="edge">
<title>Node0&#45;&gt;Node2</title>
<path fill="none" stroke="midnightblue" d="M99.26,-23.52C107.61,-22.2 116.3,-20.83 124.79,-19.5"/>
<polygon fill="midnightblue" stroke="midnightblue" points="98.59,-20.08 89.26,-25.1 99.68,-27 98.59,-20.08"/>
</g>
</g>
</svg>
